<svg width="498" height="277" viewBox="0 0 498 277" fill="none" xmlns="http://www.w3.org/2000/svg">
<path d="M13 203H497" stroke="#E3E3E3" stroke-linecap="round"/>
<path d="M13 155H497" stroke="#E3E3E3" stroke-linecap="round"/>
<path d="M13 107H497" stroke="#E3E3E3" stroke-linecap="round"/>
<path d="M13 59H497" stroke="#E3E3E3" stroke-linecap="round"/>
<path d="M13 11H497" stroke="#E3E3E3" stroke-linecap="round"/>
<path d="M33.432 259.416H35.336V274.44H33.432V259.416ZM32.04 262.584L33.416 262.776C33.352 264.152 33.064 266.056 32.68 267.288L31.256 266.776C31.64 265.704 31.928 263.912 32.04 262.584ZM34.904 262.616L36.216 262.056C36.696 263.032 37.24 264.312 37.448 265.112L36.04 265.768C35.88 264.952 35.368 263.624 34.904 262.616ZM37.192 261.832H45.384V267.56H43.496V263.624H37.192V261.832ZM36.456 266.552H46.392V268.392H36.456V266.552ZM39.96 259.416H41.896V265.096C41.896 268.344 41.24 272.168 37.096 274.52C36.84 274.12 36.184 273.4 35.736 273.032C39.736 271.096 39.96 267.784 39.96 265.08V259.416ZM41.656 269.256L43.256 268.44C44.312 269.992 45.768 272.104 46.488 273.4L44.744 274.392C44.12 273.08 42.712 270.888 41.656 269.256ZM47.736 268.248H62.248V269.832H47.736V268.248ZM54.088 267.48H56.024V274.392H54.088V267.48ZM54.392 264.6V265.704H55.576V264.6H54.392ZM54.392 262.2V263.288H55.576V262.2H54.392ZM52.76 260.808H57.272V267.112H52.76V260.808ZM54.328 259.304L56.056 259.592C55.752 260.312 55.448 261.064 55.208 261.56L53.944 261.256C54.104 260.68 54.28 259.864 54.328 259.304ZM60.52 264.984L61.736 264.68C62.008 265.56 62.28 266.712 62.392 267.464L61.112 267.816C61.032 267.032 60.776 265.88 60.52 264.984ZM50.872 264.776L52.104 264.504C52.344 265.4 52.584 266.568 52.68 267.352L51.384 267.672C51.32 266.872 51.096 265.688 50.872 264.776ZM48.248 264.424C48.168 264.136 47.928 263.416 47.768 263.048C47.992 262.984 48.216 262.76 48.44 262.408C48.664 262.088 49.368 260.824 49.72 259.592L51.208 260.104C50.664 261.384 49.832 262.76 49.112 263.64V263.688C49.112 263.688 48.248 264.136 48.248 264.424ZM48.248 264.424L48.216 263.352L48.856 262.92L51.128 262.744C51.048 263.128 51 263.656 50.984 263.96C48.952 264.2 48.504 264.296 48.248 264.424ZM48.2 267.576C48.136 267.272 47.896 266.552 47.704 266.152C48.04 266.088 48.344 265.768 48.744 265.32C49.144 264.872 50.488 263.096 51.256 261.416L52.616 262.168C51.624 263.864 50.264 265.592 48.968 266.808V266.856C48.968 266.856 48.2 267.304 48.2 267.576ZM48.2 267.576L48.152 266.488L48.808 266.056L52.104 265.688C52.04 266.056 52.008 266.6 52.008 266.888C49.016 267.288 48.504 267.416 48.2 267.576ZM57.768 264.52C57.688 264.2 57.448 263.48 57.272 263.096C57.496 263.048 57.72 262.792 57.944 262.456C58.168 262.12 58.872 260.824 59.256 259.592L60.792 260.04C60.248 261.384 59.384 262.808 58.648 263.72V263.752C58.648 263.752 57.768 264.216 57.768 264.52ZM57.768 264.52L57.72 263.384L58.392 262.952L60.984 262.712C60.904 263.112 60.856 263.688 60.84 264.008C58.52 264.264 58.04 264.392 57.768 264.52ZM57.88 267.672C57.8 267.368 57.56 266.616 57.384 266.216C57.72 266.136 58.024 265.848 58.424 265.384C58.84 264.936 60.216 263.192 61.016 261.512L62.408 262.296C61.384 263.96 60.008 265.704 58.68 266.888V266.936C58.68 266.936 57.88 267.384 57.88 267.672ZM57.88 267.672L57.832 266.584L58.536 266.152L61.928 265.864C61.848 266.248 61.784 266.808 61.784 267.096C58.728 267.416 58.2 267.528 57.88 267.672ZM51.928 270.296L53.496 270.888C52.376 272.28 50.472 273.448 48.552 273.976C48.28 273.496 47.704 272.76 47.288 272.392C49.096 272.04 50.968 271.24 51.928 270.296ZM56.824 271.32L57.96 270.12C59.352 270.824 61.304 271.944 62.28 272.728L61.048 274.104C60.152 273.304 58.248 272.104 56.824 271.32Z" fill="#313131"/>
<path d="M92.824 260.136H96.968V261.864H92.824V260.136ZM92.824 263.752H96.968V265.432H92.824V263.752ZM92.824 267.4H96.984V269.112H92.824V267.4ZM96.136 260.136H97.992V272.328C97.992 273.256 97.816 273.784 97.24 274.072C96.68 274.376 95.864 274.424 94.664 274.424C94.616 273.912 94.36 273.08 94.12 272.6C94.808 272.632 95.592 272.632 95.816 272.616C96.056 272.616 96.136 272.536 96.136 272.296V260.136ZM92.04 260.136H93.832V266.008C93.832 268.536 93.624 272.2 92.264 274.472C91.944 274.136 91.16 273.576 90.744 273.384C91.944 271.336 92.04 268.296 92.04 266.008V260.136ZM83.656 261.304H91.496V262.968H83.656V261.304ZM85.752 263.912H89.56V265.384H85.752V263.912ZM85.752 266.408H89.576V267.864H85.752V266.408ZM83.464 268.936H91.384V270.616H83.464V268.936ZM84.92 259.592H86.648V269.544H84.92V259.592ZM88.648 259.592H90.408V269.544H88.648V259.592ZM85.464 270.728L87.272 271.256C86.68 272.44 85.736 273.688 84.888 274.472C84.52 274.152 83.784 273.608 83.336 273.352C84.2 272.696 85.016 271.704 85.464 270.728ZM87.832 271.448L89.288 270.648C89.928 271.352 90.744 272.328 91.112 272.984L89.56 273.896C89.24 273.256 88.472 272.2 87.832 271.448ZM103.144 262.952L104.808 263.656C103.672 265.624 101.832 267.736 100.184 269.064C100.056 268.632 99.576 267.544 99.288 267.08C100.68 266.088 102.232 264.504 103.144 262.952ZM102.76 259.432L104.536 260.168C103.496 261.656 101.88 263.224 100.392 264.2C100.2 263.768 99.736 262.984 99.464 262.584C100.68 261.816 102.088 260.504 102.76 259.432ZM101.64 266.52L103.4 264.744L103.48 264.792V274.44H101.64V266.52ZM104.712 264.312H113.752V266.04H104.712V264.312ZM104.056 267.384H114.408V269.128H104.056V267.384ZM104.152 261.256H114.456V263H104.152V261.256ZM108.232 259.48H110.184V265.272H108.232V259.48ZM110.488 266.472H112.456V272.44C112.456 273.384 112.264 273.864 111.592 274.152C110.936 274.408 110.024 274.44 108.76 274.44C108.68 273.912 108.408 273.16 108.168 272.648C108.952 272.696 109.88 272.696 110.136 272.68C110.408 272.664 110.488 272.616 110.488 272.408V266.472ZM105 270.136L106.584 269.288C107.24 270.088 108.168 271.224 108.6 271.928L106.904 272.888C106.536 272.168 105.656 270.984 105 270.136Z" fill="#313131"/>
<path d="M136.232 261.144H149.8V264.728H147.752V262.92H138.184V264.728H136.232V261.144ZM145.448 264.344L147.8 264.488C146.824 271.208 143.896 273.544 137.128 274.488C136.952 273.976 136.344 273.032 135.944 272.536C142.376 271.96 144.936 270.12 145.448 264.344ZM135.928 265.784H150.088V267.608H135.928V265.784ZM141.368 259.736L143.544 259.24C143.896 259.96 144.328 260.92 144.52 261.512L142.248 262.088C142.088 261.496 141.704 260.488 141.368 259.736ZM137.752 269.624L139.016 268.2C142.536 269.24 147.48 271.192 150.024 272.776L148.616 274.456C146.296 272.904 141.448 270.792 137.752 269.624ZM137.752 269.624C138.936 267.992 140.36 265.432 141.096 263.32L143.336 263.72C142.536 265.864 141.176 268.296 140.184 269.784L137.752 269.624ZM155.704 263.992H157.704V271.448C157.704 272.216 157.832 272.328 158.616 272.328C158.984 272.328 160.472 272.328 160.904 272.328C161.72 272.328 161.848 271.832 161.96 269.32C162.408 269.656 163.256 269.992 163.768 270.136C163.56 273.176 163.032 274.12 161.048 274.12C160.6 274.12 158.792 274.12 158.376 274.12C156.28 274.12 155.704 273.496 155.704 271.448V263.992ZM152.808 264.936L154.68 265.288C154.456 267.384 154.072 270.168 153.528 271.992L151.56 271.192C152.136 269.496 152.6 267.08 152.808 264.936ZM162.776 265.144L164.568 264.424C165.48 266.328 166.312 268.744 166.648 270.408L164.712 271.208C164.44 269.576 163.624 267.032 162.776 265.144ZM156.248 260.968L157.56 259.656C159.016 260.584 161.048 261.992 162.024 262.984L160.6 264.488C159.72 263.496 157.752 261.976 156.248 260.968Z" fill="#313131"/>
<path d="M188.024 260.488H201.976V262.456H188.024V260.488ZM195.752 265.848L197.24 264.6C198.952 265.848 201.416 267.688 202.584 268.968L200.952 270.44C199.896 269.176 197.528 267.208 195.752 265.848ZM195.112 261.208L197.256 261.96C195.432 265.336 192.52 268.6 188.84 270.52C188.536 270.008 187.928 269.208 187.528 268.776C190.952 267.16 193.784 264.056 195.112 261.208ZM193.944 265.08L196.056 262.984V274.408H193.944V265.08ZM204.232 261.144H217.8V264.728H215.752V262.92H206.184V264.728H204.232V261.144ZM213.448 264.344L215.8 264.488C214.824 271.208 211.896 273.544 205.128 274.488C204.952 273.976 204.344 273.032 203.944 272.536C210.376 271.96 212.936 270.12 213.448 264.344ZM203.928 265.784H218.088V267.608H203.928V265.784ZM209.368 259.736L211.544 259.24C211.896 259.96 212.328 260.92 212.52 261.512L210.248 262.088C210.088 261.496 209.704 260.488 209.368 259.736ZM205.752 269.624L207.016 268.2C210.536 269.24 215.48 271.192 218.024 272.776L216.616 274.456C214.296 272.904 209.448 270.792 205.752 269.624ZM205.752 269.624C206.936 267.992 208.36 265.432 209.096 263.32L211.336 263.72C210.536 265.864 209.176 268.296 208.184 269.784L205.752 269.624Z" fill="#313131"/>
<path d="M241.176 261.336L242.6 261.576C242.12 262.6 241.448 263.512 240.392 264.296C240.184 263.992 239.704 263.496 239.384 263.32C240.264 262.76 240.84 262.024 241.176 261.336ZM241.432 261.816H246.296V262.792H240.904L241.432 261.816ZM249.128 260.52H254.2V261.864H248.456L249.128 260.52ZM245.56 261.816H247.16C247.16 261.816 247.16 262.152 247.144 262.344C247.032 264.168 246.904 264.968 246.616 265.304C246.376 265.576 246.088 265.688 245.752 265.72C245.48 265.752 244.968 265.768 244.44 265.736C244.424 265.368 244.296 264.856 244.104 264.536C244.472 264.584 244.744 264.584 244.888 264.584C245.048 264.584 245.144 264.568 245.24 264.44C245.384 264.264 245.48 263.64 245.56 262.008V261.816ZM249.096 259.4L250.696 259.848C250.056 261.256 248.984 262.584 247.848 263.432C247.608 263.096 247.032 262.456 246.696 262.168C247.704 261.528 248.6 260.488 249.096 259.4ZM251.8 261.224L253.432 261.48C252.536 263.8 250.44 265.064 247.864 265.816C247.688 265.464 247.208 264.808 246.904 264.504C249.256 263.976 251.144 262.984 251.8 261.224ZM249.256 261.576C250.232 263.016 252.248 264.12 254.584 264.568C254.232 264.888 253.752 265.544 253.528 265.96C251.048 265.336 249.016 263.96 247.848 262.056L249.256 261.576ZM240.824 263.192H242.104V265.592H240.824V263.192ZM241.336 263.192H244.696V265.16H241.352V264.424H243.384V263.944H241.336V263.192ZM242.808 267.64H252.232V268.568H242.808V267.64ZM242.824 269.096H252.248V270.024H242.824V269.096ZM242.872 270.552H252.632V271.672H242.872V270.552ZM241.64 265.992H252.84V267.128H243.48V271.672H241.64V265.992ZM246.504 266.552H248.344V271.096H246.504V266.552ZM252.04 270.552H253.88C253.88 270.552 253.848 270.952 253.816 271.16C253.624 272.856 253.416 273.672 253.064 274.024C252.776 274.312 252.456 274.424 252.088 274.456C251.736 274.504 251.144 274.504 250.488 274.472C250.472 274.056 250.312 273.464 250.104 273.096C250.552 273.144 250.936 273.16 251.144 273.144C251.32 273.144 251.432 273.128 251.544 273C251.736 272.808 251.912 272.2 252.04 270.744V270.552ZM241.256 271.64L242.792 272.376C242.44 273.08 241.944 273.928 241.416 274.504L239.816 273.608C240.36 273.096 240.92 272.28 241.256 271.64ZM243.464 272.296L245 272.056C245.224 272.68 245.4 273.512 245.464 274.04L243.848 274.344C243.816 273.784 243.656 272.936 243.464 272.296ZM246.152 272.328L247.576 271.992C247.88 272.536 248.168 273.256 248.296 273.752L246.808 274.152C246.712 273.656 246.424 272.888 246.152 272.328ZM248.712 272.232L249.992 271.752C250.376 272.184 250.776 272.744 250.968 273.128L249.624 273.704C249.464 273.288 249.064 272.68 248.712 272.232ZM239.816 259.912H242.632V261H239.816V259.912ZM241.8 259.432H243.288V261.384H241.8V259.432ZM244.152 259.432H245.656V261.544H244.152V259.432ZM244.6 259.912H247.608V261.016H244.6V259.912ZM263.4 265.384H270.472V267.24H263.4V265.384ZM261.928 260.056H270.2V261.912H261.928V260.056ZM266.04 266.248L267.704 266.776C266.616 269.576 264.792 272.216 262.712 273.736C262.392 273.272 261.768 272.552 261.336 272.2C263.288 270.952 265.112 268.568 266.04 266.248ZM266.984 260.584H268.872V272.12C268.872 273.16 268.68 273.704 268.072 274.008C267.464 274.328 266.52 274.392 265.208 274.392C265.144 273.848 264.872 272.984 264.6 272.424C265.48 272.456 266.344 272.456 266.616 272.456C266.888 272.44 266.984 272.376 266.984 272.104V260.584ZM263.128 261.112L265.048 261.272C264.744 263.256 264.312 265.736 263.976 267.24H261.992C262.392 265.656 262.856 263.08 263.128 261.112ZM256.104 264.296H261.112V265.832H256.104V264.296ZM256.104 266.472H261.112V267.992H256.104V266.472ZM255.496 262.088H261.672V263.688H255.496V262.088ZM256.92 268.68H261.128V273.544H256.92V272.008H259.496V270.216H256.92V268.68ZM256.072 268.68H257.704V274.232H256.072V268.68ZM257.16 259.944L258.808 259.336C259.208 260.024 259.624 260.92 259.832 261.496L258.088 262.2C257.928 261.608 257.512 260.648 257.16 259.944Z" fill="#313131"/>
<path d="M294.808 259.48L296.616 260.04C295.592 262.776 293.928 265.656 292.184 267.48C292.008 267.016 291.48 265.96 291.16 265.496C292.616 264.04 293.992 261.768 294.808 259.48ZM293.24 263.896L295.064 262.072L295.08 262.088V274.424H293.24V263.896ZM298.328 265.352H306.28V267.128H298.328V265.352ZM304.488 259.336L305.912 260.776C303.528 261.608 300.28 262.2 297.448 262.568C297.368 262.136 297.112 261.464 296.904 261.064C299.64 260.68 302.648 260.04 304.488 259.336ZM301.464 261.4H303.208C303.32 267.048 304.168 272.088 304.952 272.104C305.176 272.104 305.336 271.4 305.416 270.104C305.704 270.472 306.408 270.936 306.696 271.08C306.312 273.624 305.592 274.248 304.952 274.248C302.6 274.232 301.704 268.744 301.464 261.4ZM296.808 272.92L296.648 271.368L297.4 270.808L301.288 269.896C301.24 270.392 301.256 271.112 301.304 271.512C297.816 272.456 297.208 272.68 296.808 272.92ZM296.808 272.92C296.712 272.504 296.408 271.768 296.136 271.416C296.488 271.256 296.904 270.936 296.904 270.28V261.064L298.696 261.56V271.48C298.696 271.48 296.808 272.328 296.808 272.92ZM298.424 272.504H302.744V274.056H298.424V272.504ZM314.296 272.312H319.592V273.768H314.296V272.312ZM315.096 263.752H320.088V265.16H315.096V263.752ZM312.952 269.416H320.92V274.424H319.032V270.856H314.76V274.424H312.952V269.416ZM315.128 264.904C316.648 266.456 319.672 267.608 322.776 268.072C322.392 268.44 321.896 269.176 321.64 269.656C318.456 269.016 315.48 267.576 313.656 265.528L315.128 264.904ZM319.72 263.752H320.072L320.376 263.672L321.592 264.408C319.768 267.24 315.944 269 312.312 269.864C312.12 269.432 311.704 268.712 311.384 268.344C314.728 267.704 318.376 266.104 319.72 264.024V263.752ZM307.752 272.936C308.632 272.088 309.912 270.664 310.984 269.32L312.12 270.712C311.208 271.944 310.136 273.272 309.128 274.424L307.752 272.936ZM308.488 264.056L309.576 262.776C310.392 263.224 311.688 263.912 312.344 264.328L311.208 265.768C310.6 265.352 309.32 264.584 308.488 264.056ZM307.48 267.224L308.584 265.928C309.432 266.376 310.696 267.096 311.336 267.544L310.184 268.984C309.576 268.52 308.344 267.736 307.48 267.224ZM314.92 262.664L316.76 263.048C315.72 264.6 314.408 266.104 312.696 267.432C312.392 267.064 311.784 266.52 311.368 266.28C312.968 265.224 314.2 263.8 314.92 262.664ZM311.064 259.416H312.952V263.048H311.064V259.416ZM317 259.416H318.872V263.048H317V259.416ZM307.88 260.312H314.6V261.992H307.88V260.312ZM315.4 260.296H322.104V261.96H315.4V260.296Z" fill="#313131"/>
<path d="M344.28 264.296H349.368V265.752H344.28V264.296ZM344.28 266.472H349.4V267.912H344.28V266.472ZM343.608 262.072H349.928V263.592H343.608V262.072ZM345.144 268.68H349.4V273.544H345.144V272.008H347.736V270.216H345.144V268.68ZM344.296 268.68H345.928V274.232H344.296V268.68ZM345.336 260.056L346.824 259.336C347.272 260.008 347.752 260.888 348.008 261.48L346.456 262.328C346.248 261.72 345.736 260.744 345.336 260.056ZM350.104 262.872H358.312V264.76H350.104V262.872ZM354.664 259.528H356.584V272.088C356.584 273.208 356.36 273.752 355.72 274.056C355.08 274.392 354.072 274.472 352.648 274.456C352.568 273.896 352.264 273 352.008 272.424C352.968 272.472 353.944 272.472 354.248 272.472C354.536 272.456 354.664 272.376 354.664 272.072V259.528ZM350.472 266.424L352.088 265.8C352.84 266.968 353.528 268.504 353.816 269.544L352.088 270.28C351.848 269.224 351.176 267.608 350.472 266.424ZM361.656 259.976H374.296V261.688H361.656V259.976ZM368.376 265.368H374.296V266.952H368.376V265.368ZM360.472 259.976H362.232V264.936C362.232 267.656 362.056 271.752 360.856 274.408C360.52 274.136 359.704 273.704 359.256 273.544C360.376 271.064 360.472 267.448 360.472 264.936V259.976ZM364.392 264.744V265.304H366.264V264.744H364.392ZM364.392 263.224V263.784H366.264V263.224H364.392ZM362.856 262.216H367.88V266.312H362.856V262.216ZM371.992 262.824L373.288 262.408C373.672 263.08 374.136 264.024 374.328 264.6L372.968 265.096C372.792 264.504 372.376 263.544 371.992 262.824ZM370.376 261.976H372.024C371.992 267.736 371.864 272.008 369.08 274.488C368.84 274.088 368.296 273.48 367.912 273.208C370.36 271.032 370.344 267.272 370.376 261.976ZM371.928 265.88C372.232 269.032 372.872 271.784 374.616 273.064C374.248 273.368 373.72 274.008 373.496 274.44C371.56 272.808 370.904 269.784 370.552 266.04L371.928 265.88ZM366.6 266.872H368.152V272.856C368.152 273.544 368.04 273.896 367.576 274.136C367.128 274.344 366.52 274.36 365.624 274.36C365.576 273.96 365.384 273.4 365.208 273.048C365.704 273.064 366.216 273.064 366.392 273.048C366.552 273.048 366.6 273 366.6 272.84V266.872ZM363.4 266.872H367.224V268.232H363.4V266.872ZM362.552 266.872H364.12V269.864C364.12 271.32 363.944 273.272 362.968 274.52C362.744 274.2 362.104 273.56 361.784 273.336C362.504 272.328 362.552 270.968 362.552 269.832V266.872ZM363.864 271.624C364.648 271.288 365.768 270.68 366.92 270.072L367.272 271.08C366.28 271.784 365.288 272.488 364.376 273.096L363.864 271.624ZM363.88 269.128L364.744 268.36C365.352 268.776 366.168 269.368 366.584 269.736L365.672 270.6C365.288 270.216 364.488 269.576 363.88 269.128Z" fill="#313131"/>
<path d="M398.312 262.312H409.448V264.184H398.312V262.312ZM397.656 267.032H408.84V268.872H397.656V267.032ZM395.8 272.104H410.264V273.976H395.8V272.104ZM402.024 259.416H404.024V273.032H402.024V259.416ZM398.328 259.608L400.312 260.056C399.608 262.536 398.44 265 397.192 266.536C396.808 266.2 395.96 265.64 395.464 265.368C396.728 264.024 397.752 261.816 398.328 259.608ZM414.968 260.792H425.896V262.232H414.968V260.792ZM415.112 262.84H424.52V264.232H415.112V262.84ZM413.272 264.872H422.52V266.328H413.272V264.872ZM412.232 269.064H421.752V270.52H412.232V269.064ZM414.952 259.432L416.84 259.976C415.896 262.168 414.344 264.248 412.712 265.528C412.44 265.144 411.768 264.328 411.384 263.976C412.888 262.92 414.216 261.224 414.952 259.432ZM421.944 264.872H423.88C423.832 269.24 423.992 272.504 424.92 272.504C425.16 272.504 425.24 271.608 425.272 270.248C425.624 270.696 426.12 271.192 426.504 271.464C426.376 273.544 426.008 274.408 424.792 274.408C422.152 274.408 421.96 270.312 421.944 264.872ZM413.096 267.224L414.536 266.664C415 267.224 415.464 267.992 415.624 268.52L414.088 269.128C413.944 268.616 413.528 267.816 413.096 267.224ZM416.2 266.648H418.008V274.408H416.2V266.648ZM419.592 266.712L421.288 267.24C420.712 267.96 420.136 268.696 419.704 269.192L418.472 268.728C418.872 268.168 419.336 267.304 419.592 266.712ZM414.696 270.728L416.12 271.256C415.384 272.504 414.12 273.768 412.84 274.408C412.584 274.008 412.04 273.368 411.64 273.032C412.824 272.568 414.056 271.656 414.696 270.728ZM418.184 271.72L419.272 270.664C420.248 271.336 421.592 272.328 422.248 272.984L421.096 274.152C420.472 273.496 419.16 272.44 418.184 271.72Z" fill="#313131"/>
<path d="M447.784 269.208H462.184V270.968H447.784V269.208ZM448.28 261.016H461.784V262.776H448.28V261.016ZM451.736 263.768H458.216V265.368H451.736V263.768ZM451.736 266.456H458.216V268.056H451.736V266.456ZM450.52 259.448H452.424V270.152H450.52V259.448ZM457.48 259.448H459.432V270.152H457.48V259.448ZM455.8 272.264L457.176 271.08C459 271.704 461.064 272.568 462.28 273.176L460.424 274.392C459.4 273.768 457.56 272.904 455.8 272.264ZM452.568 270.92L454.168 272.184C452.712 273.016 450.536 273.912 448.84 274.424C448.552 274.024 447.992 273.384 447.592 272.984C449.272 272.536 451.448 271.64 452.568 270.92ZM472.664 259.48H474.376V270.632H472.664V259.48ZM467.304 265.752L476.728 262.056L477.464 263.72L468.04 267.448L467.304 265.752ZM469.256 261.208H471.064V271.464C471.064 272.424 471.208 272.584 472.28 272.584C472.776 272.584 475.08 272.584 475.64 272.584C476.584 272.584 476.744 272.184 476.888 270.376C477.32 270.664 478.072 270.984 478.584 271.08C478.328 273.496 477.768 274.296 475.784 274.296C475.24 274.296 472.648 274.296 472.152 274.296C469.896 274.296 469.256 273.704 469.256 271.464V261.208ZM466.856 259.48L468.68 260.04C467.64 262.776 465.976 265.656 464.232 267.48C464.056 267.016 463.528 265.96 463.208 265.496C464.664 264.04 466.04 261.768 466.856 259.48ZM465.24 263.896L467.064 262.072L467.08 262.088V274.424H465.24V263.896ZM476.216 262.456H476.04L476.696 262.008L478.136 262.472L478.072 262.76C477.992 265.064 477.784 268.088 477.416 270.072L475.848 269.64C476.088 267.88 476.2 264.776 476.216 262.456Z" fill="#313131"/>
<path d="M4.5105 258.224C2.2705 258.224 0.8465 256.192 0.8465 252.096C0.8465 248.032 2.2705 246.064 4.5105 246.064C6.7185 246.064 8.1425 248.032 8.1425 252.096C8.1425 256.192 6.7185 258.224 4.5105 258.224ZM4.5105 257.04C5.8385 257.04 6.7345 255.552 6.7345 252.096C6.7345 248.688 5.8385 247.232 4.5105 247.232C3.1665 247.232 2.2545 248.688 2.2545 252.096C2.2545 255.552 3.1665 257.04 4.5105 257.04Z" fill="#313131"/>
<path d="M1.4705 210V208.784H4.0785V200.048H1.9825V199.104C3.0385 198.928 3.7905 198.656 4.4145 198.272H5.5345V208.784H7.9025V210H1.4705Z" fill="#313131"/>
<path d="M0.7665 162V161.152C4.4465 157.936 6.1265 155.584 6.1265 153.584C6.1265 152.24 5.4385 151.248 3.9825 151.248C3.0225 151.248 2.1905 151.84 1.5345 152.608L0.6865 151.792C1.6465 150.752 2.6705 150.064 4.1585 150.064C6.2545 150.064 7.5665 151.424 7.5665 153.52C7.5665 155.872 5.7265 158.256 2.9585 160.864C3.5825 160.8 4.2865 160.752 4.8785 160.752H8.1265V162H0.7665Z" fill="#313131"/>
<path d="M4.2705 114.224C2.4305 114.224 1.2945 113.456 0.5265 112.608L1.2625 111.648C1.9505 112.368 2.8305 113.008 4.1745 113.008C5.5665 113.008 6.5585 112.16 6.5585 110.816C6.5585 109.408 5.6145 108.48 2.9105 108.48V107.344C5.3265 107.344 6.1425 106.384 6.1425 105.104C6.1425 103.984 5.3905 103.248 4.1745 103.248C3.2305 103.248 2.3985 103.728 1.7425 104.4L0.9585 103.456C1.8385 102.656 2.8785 102.064 4.2225 102.064C6.1905 102.064 7.6305 103.136 7.6305 105.008C7.6305 106.432 6.7985 107.376 5.5505 107.824V107.888C6.9265 108.224 8.0465 109.264 8.0465 110.88C8.0465 112.96 6.3665 114.224 4.2705 114.224Z" fill="#313131"/>
<path d="M5.4865 66V58.016C5.4865 57.424 5.5345 56.48 5.5825 55.872H5.5025C5.2145 56.448 4.8945 57.04 4.5745 57.616L1.9025 61.616H8.4305V62.768H0.3665V61.808L5.2465 54.272H6.8625V66H5.4865Z" fill="#313131"/>
<path d="M4.2385 18.224C2.4145 18.224 1.2945 17.456 0.4945 16.656L1.2305 15.696C1.8865 16.384 2.7505 17.008 4.0945 17.008C5.4865 17.008 6.5905 15.936 6.5905 14.24C6.5905 12.56 5.6305 11.552 4.1745 11.552C3.3905 11.552 2.8945 11.808 2.2225 12.256L1.4385 11.76L1.8065 6.272H7.5185V7.52H3.0865L2.7825 10.912C3.3105 10.624 3.8385 10.448 4.5425 10.448C6.4945 10.448 8.0785 11.6 8.0785 14.192C8.0785 16.752 6.2065 18.224 4.2385 18.224Z" fill="#313131"/>
<path d="M33 25C33 17.268 39.268 11 47 11V11C54.732 11 61 17.268 61 25V251H33V25Z" fill="#FFE589"/>
<path d="M85 169C85 161.268 91.268 155 99 155V155C106.732 155 113 161.268 113 169V251H85V169Z" fill="#F8C18F"/>
<path d="M137 169C137 161.268 143.268 155 151 155V155C158.732 155 165 161.268 165 169V251H137V169Z" fill="#CEE6AF"/>
<path d="M293 217C293 209.268 299.268 203 307 203V203C314.732 203 321 209.268 321 217V251H293V217Z" fill="#C5DDE8"/>
<path d="M449 169C449 161.268 455.268 155 463 155V155C470.732 155 477 161.268 477 169V251H449V169Z" fill="#EBEBEB"/>
<path d="M13 251H497" stroke="#313131" stroke-width="2" stroke-linecap="round"/>
</svg>
