<svg width="489" height="256" viewBox="0 0 489 256" fill="none" xmlns="http://www.w3.org/2000/svg">
<path d="M238.475 0C265.516 1.18201e-06 291.862 8.56391 313.735 24.4634C335.608 40.363 351.884 62.7812 360.228 88.5028C368.572 114.224 368.556 141.928 360.182 167.64C351.808 193.351 335.506 215.751 313.614 231.625L288.081 196.411C302.533 185.932 313.296 171.144 318.824 154.169C324.353 137.195 324.363 118.906 318.855 101.925C313.346 84.9435 302.601 70.1433 288.161 59.6467C273.72 49.15 256.327 43.4962 238.475 43.4962L238.475 0Z" fill="#FFE589"/>
<path d="M313.625 231.617C291.675 247.536 265.238 256.074 238.123 256C211.009 255.925 184.618 247.242 162.757 231.203L188.487 196.133C202.919 206.722 220.342 212.454 238.243 212.503C256.143 212.553 273.597 206.916 288.088 196.406L313.625 231.617Z" fill="#F8C18F"/>
<path d="M162.847 231.269C146.596 219.368 133.384 203.8 124.283 185.83C115.183 167.861 110.452 147.998 110.475 127.855L153.971 127.904C153.956 141.202 157.079 154.316 163.087 166.179C169.095 178.042 177.818 188.32 188.546 196.177L162.847 231.269Z" fill="#CEE6AF"/>
<path d="M110.475 128C110.475 106.339 115.971 85.0331 126.45 66.076L164.518 87.1187C157.6 99.6339 153.971 113.7 153.971 128H110.475Z" fill="#C5DDE8"/>
<path d="M126.404 66.1608C137.459 46.126 153.682 29.421 173.385 17.785C193.088 6.14902 215.55 0.0075483 238.432 6.95145e-06L238.447 43.4963C223.34 43.5012 208.511 47.5557 195.503 55.2376C182.496 62.9195 171.785 73.9479 164.487 87.1746L126.404 66.1608Z" fill="#EBEBEB"/>
<path d="M340.333 101C340.333 102.473 341.527 103.667 343 103.667C344.473 103.667 345.667 102.473 345.667 101C345.667 99.5272 344.473 98.3333 343 98.3333C341.527 98.3333 340.333 99.5272 340.333 101ZM483.333 101C483.333 102.473 484.527 103.667 486 103.667C487.473 103.667 488.667 102.473 488.667 101C488.667 99.5272 487.473 98.3333 486 98.3333C484.527 98.3333 483.333 99.5272 483.333 101ZM343 101.5H486V100.5H343V101.5Z" fill="#818181"/>
<path d="M0.333333 174C0.333333 175.473 1.52724 176.667 3 176.667C4.47276 176.667 5.66667 175.473 5.66667 174C5.66667 172.527 4.47276 171.333 3 171.333C1.52724 171.333 0.333333 172.527 0.333333 174ZM141.333 174C141.333 175.473 142.527 176.667 144 176.667C145.473 176.667 146.667 175.473 146.667 174C146.667 172.527 145.473 171.333 144 171.333C142.527 171.333 141.333 172.527 141.333 174ZM3 174.5L144 174.5L144 173.5L3 173.5L3 174.5Z" fill="#818181"/>
<path d="M0.333333 37C0.333333 38.4728 1.52724 39.6667 3 39.6667C4.47276 39.6667 5.66667 38.4728 5.66667 37C5.66667 35.5272 4.47276 34.3333 3 34.3333C1.52724 34.3333 0.333333 35.5272 0.333333 37ZM179.333 37C179.333 38.4728 180.527 39.6667 182 39.6667C183.473 39.6667 184.667 38.4728 184.667 37C184.667 35.5273 183.473 34.3333 182 34.3333C180.527 34.3333 179.333 35.5273 179.333 37ZM3 37.5L182 37.5L182 36.5L3 36.5L3 37.5Z" fill="#818181"/>
<path d="M0.333333 101C0.333333 102.473 1.52724 103.667 3 103.667C4.47276 103.667 5.66667 102.473 5.66667 101C5.66667 99.5272 4.47276 98.3333 3 98.3333C1.52724 98.3333 0.333333 99.5272 0.333333 101ZM127.333 101C127.333 102.473 128.527 103.667 130 103.667C131.473 103.667 132.667 102.473 132.667 101C132.667 99.5272 131.473 98.3333 130 98.3333C128.527 98.3333 127.333 99.5272 127.333 101ZM3 101.5L130 101.5L130 100.5L3 100.5L3 101.5Z" fill="#818181"/>
<path d="M235.333 234C235.333 235.473 236.527 236.667 238 236.667C239.473 236.667 240.667 235.473 240.667 234C240.667 232.527 239.473 231.333 238 231.333C236.527 231.333 235.333 232.527 235.333 234ZM483.333 234C483.333 235.473 484.527 236.667 486 236.667C487.473 236.667 488.667 235.473 488.667 234C488.667 232.527 487.473 231.333 486 231.333C484.527 231.333 483.333 232.527 483.333 234ZM238 234.5H486V233.5H238V234.5Z" fill="#818181"/>
<path d="M441.424 94V86.016C441.424 85.424 441.472 84.48 441.52 83.872H441.44C441.152 84.448 440.832 85.04 440.512 85.616L437.84 89.616H444.368V90.768H436.304V89.808L441.184 82.272H442.8V94H441.424ZM446.283 94V92.784H448.891V84.048H446.795V83.104C447.851 82.928 448.603 82.656 449.227 82.272H450.347V92.784H452.715V94H446.283ZM455.958 94.224C455.382 94.224 454.918 93.76 454.918 93.104C454.918 92.432 455.382 91.984 455.958 91.984C456.55 91.984 457.03 92.432 457.03 93.104C457.03 93.76 456.55 94.224 455.958 94.224ZM461.355 94C461.563 89.568 462.363 86.72 464.667 83.52H458.987V82.272H466.315V83.152C463.563 86.688 463.067 89.424 462.875 94H461.355ZM470.358 89.456C468.742 89.456 467.686 88.112 467.686 85.744C467.686 83.392 468.742 82.064 470.358 82.064C471.974 82.064 473.03 83.392 473.03 85.744C473.03 88.112 471.974 89.456 470.358 89.456ZM470.358 88.56C471.286 88.56 471.91 87.6 471.91 85.744C471.91 83.872 471.286 82.96 470.358 82.96C469.43 82.96 468.79 83.872 468.79 85.744C468.79 87.6 469.43 88.56 470.358 88.56ZM470.694 94.224L477.158 82.064H478.15L471.686 94.224H470.694ZM478.534 94.224C476.918 94.224 475.862 92.88 475.862 90.496C475.862 88.16 476.918 86.816 478.534 86.816C480.118 86.816 481.19 88.16 481.19 90.496C481.19 92.88 480.118 94.224 478.534 94.224ZM478.534 93.328C479.446 93.328 480.086 92.368 480.086 90.496C480.086 88.624 479.446 87.728 478.534 87.728C477.606 87.728 476.966 88.624 476.966 90.496C476.966 92.368 477.606 93.328 478.534 93.328Z" fill="#818181"/>
<path d="M62.408 167.795V166.579H65.016V157.843H62.92V156.899C63.976 156.723 64.728 156.451 65.352 156.067H66.472V166.579H68.84V167.795H62.408ZM74.691 168.019C72.435 168.019 70.755 166.083 70.755 162.211C70.755 157.619 72.819 155.859 75.091 155.859C76.307 155.859 77.203 156.371 77.843 157.059L77.027 157.955C76.579 157.411 75.859 157.075 75.155 157.075C73.507 157.075 72.131 158.371 72.131 162.211C72.131 165.219 73.043 166.867 74.691 166.867C75.811 166.867 76.675 165.795 76.675 164.211C76.675 162.611 75.971 161.603 74.563 161.603C73.811 161.603 72.867 162.051 72.083 163.219L72.035 162.051C72.755 161.107 73.843 160.531 74.787 160.531C76.771 160.531 78.051 161.747 78.051 164.211C78.051 166.483 76.499 168.019 74.691 168.019ZM80.958 168.019C80.382 168.019 79.918 167.555 79.918 166.899C79.918 166.227 80.382 165.779 80.958 165.779C81.55 165.779 82.03 166.227 82.03 166.899C82.03 167.555 81.55 168.019 80.958 168.019ZM86.3551 167.795C86.5631 163.363 87.3631 160.515 89.6671 157.315H83.9871V156.067H91.3151V156.947C88.5631 160.483 88.0671 163.219 87.8751 167.795H86.3551ZM95.3581 163.251C93.7421 163.251 92.6861 161.907 92.6861 159.539C92.6861 157.187 93.7421 155.859 95.3581 155.859C96.9741 155.859 98.0301 157.187 98.0301 159.539C98.0301 161.907 96.9741 163.251 95.3581 163.251ZM95.3581 162.355C96.2861 162.355 96.9101 161.395 96.9101 159.539C96.9101 157.667 96.2861 156.755 95.3581 156.755C94.4301 156.755 93.7901 157.667 93.7901 159.539C93.7901 161.395 94.4301 162.355 95.3581 162.355ZM95.6941 168.019L102.158 155.859H103.15L96.6861 168.019H95.6941ZM103.534 168.019C101.918 168.019 100.862 166.675 100.862 164.291C100.862 161.955 101.918 160.611 103.534 160.611C105.118 160.611 106.19 161.955 106.19 164.291C106.19 166.675 105.118 168.019 103.534 168.019ZM103.534 167.123C104.446 167.123 105.086 166.163 105.086 164.291C105.086 162.419 104.446 161.523 103.534 161.523C102.606 161.523 101.966 162.419 101.966 164.291C101.966 166.163 102.606 167.123 103.534 167.123Z" fill="#818181"/>
<path d="M62.408 30.8633V29.6473H65.016V20.9113H62.92V19.9673C63.976 19.7913 64.728 19.5193 65.352 19.1353H66.472V29.6473H68.84V30.8633H62.408ZM74.691 31.0873C72.435 31.0873 70.755 29.1513 70.755 25.2793C70.755 20.6873 72.819 18.9273 75.091 18.9273C76.307 18.9273 77.203 19.4393 77.843 20.1273L77.027 21.0233C76.579 20.4793 75.859 20.1433 75.155 20.1433C73.507 20.1433 72.131 21.4393 72.131 25.2793C72.131 28.2873 73.043 29.9353 74.691 29.9353C75.811 29.9353 76.675 28.8633 76.675 27.2793C76.675 25.6793 75.971 24.6713 74.563 24.6713C73.811 24.6713 72.867 25.1193 72.083 26.2873L72.035 25.1193C72.755 24.1753 73.843 23.5993 74.787 23.5993C76.771 23.5993 78.051 24.8153 78.051 27.2793C78.051 29.5513 76.499 31.0873 74.691 31.0873ZM80.958 31.0873C80.382 31.0873 79.918 30.6233 79.918 29.9673C79.918 29.2953 80.382 28.8473 80.958 28.8473C81.55 28.8473 82.03 29.2953 82.03 29.9673C82.03 30.6233 81.55 31.0873 80.958 31.0873ZM86.3551 30.8633C86.5631 26.4313 87.3631 23.5833 89.6671 20.3833H83.9871V19.1353H91.3151V20.0153C88.5631 23.5513 88.0671 26.2873 87.8751 30.8633H86.3551ZM95.3581 26.3193C93.7421 26.3193 92.6861 24.9753 92.6861 22.6073C92.6861 20.2553 93.7421 18.9273 95.3581 18.9273C96.9741 18.9273 98.0301 20.2553 98.0301 22.6073C98.0301 24.9753 96.9741 26.3193 95.3581 26.3193ZM95.3581 25.4233C96.2861 25.4233 96.9101 24.4633 96.9101 22.6073C96.9101 20.7353 96.2861 19.8233 95.3581 19.8233C94.4301 19.8233 93.7901 20.7353 93.7901 22.6073C93.7901 24.4633 94.4301 25.4233 95.3581 25.4233ZM95.6941 31.0873L102.158 18.9273H103.15L96.6861 31.0873H95.6941ZM103.534 31.0873C101.918 31.0873 100.862 29.7433 100.862 27.3593C100.862 25.0233 101.918 23.6793 103.534 23.6793C105.118 23.6793 106.19 25.0233 106.19 27.3593C106.19 29.7433 105.118 31.0873 103.534 31.0873ZM103.534 30.1913C104.446 30.1913 105.086 29.2313 105.086 27.3593C105.086 25.4873 104.446 24.5913 103.534 24.5913C102.606 24.5913 101.966 25.4873 101.966 27.3593C101.966 29.2313 102.606 30.1913 103.534 30.1913Z" fill="#818181"/>
<path d="M65.464 94.4603C63.304 94.4603 61.72 93.1483 61.72 91.3403C61.72 89.7563 62.808 88.6683 63.88 88.0923V88.0283C63.016 87.4363 62.28 86.5403 62.28 85.3083C62.28 83.5323 63.672 82.3483 65.512 82.3483C67.512 82.3483 68.728 83.6283 68.728 85.4203C68.728 86.6683 67.864 87.7083 67.16 88.2523V88.3323C68.184 88.9243 69.144 89.8203 69.144 91.4203C69.144 93.1323 67.656 94.4603 65.464 94.4603ZM66.264 87.8843C67.064 87.1803 67.48 86.3803 67.48 85.5003C67.48 84.3483 66.744 83.4203 65.48 83.4203C64.408 83.4203 63.624 84.1883 63.624 85.3083C63.624 86.7163 64.888 87.3403 66.264 87.8843ZM65.496 93.3563C66.84 93.3563 67.736 92.5403 67.736 91.3723C67.736 89.8043 66.296 89.2123 64.648 88.5403C63.688 89.1483 63.032 90.0763 63.032 91.1963C63.032 92.4443 64.088 93.3563 65.496 93.3563ZM72.083 94.4603C71.507 94.4603 71.043 93.9963 71.043 93.3403C71.043 92.6683 71.507 92.2203 72.083 92.2203C72.675 92.2203 73.155 92.6683 73.155 93.3403C73.155 93.9963 72.675 94.4603 72.083 94.4603ZM78.5361 94.4603C76.6961 94.4603 75.5601 93.6923 74.7921 92.8443L75.5281 91.8843C76.2161 92.6043 77.0961 93.2443 78.4401 93.2443C79.8321 93.2443 80.8241 92.3963 80.8241 91.0523C80.8241 89.6443 79.8801 88.7163 77.1761 88.7163V87.5803C79.5921 87.5803 80.4081 86.6203 80.4081 85.3403C80.4081 84.2203 79.6561 83.4843 78.4401 83.4843C77.4961 83.4843 76.6641 83.9643 76.0081 84.6363L75.2241 83.6923C76.1041 82.8923 77.1441 82.3003 78.4881 82.3003C80.4561 82.3003 81.8961 83.3723 81.8961 85.2443C81.8961 86.6683 81.0641 87.6123 79.8161 88.0603V88.1243C81.1921 88.4603 82.3121 89.5003 82.3121 91.1163C82.3121 93.1963 80.6321 94.4603 78.5361 94.4603ZM86.4831 89.6923C84.8671 89.6923 83.8111 88.3483 83.8111 85.9803C83.8111 83.6283 84.8671 82.3003 86.4831 82.3003C88.0991 82.3003 89.1551 83.6283 89.1551 85.9803C89.1551 88.3483 88.0991 89.6923 86.4831 89.6923ZM86.4831 88.7963C87.4111 88.7963 88.0351 87.8363 88.0351 85.9803C88.0351 84.1083 87.4111 83.1963 86.4831 83.1963C85.5551 83.1963 84.9151 84.1083 84.9151 85.9803C84.9151 87.8363 85.5551 88.7963 86.4831 88.7963ZM86.8191 94.4603L93.2831 82.3003H94.2751L87.8111 94.4603H86.8191ZM94.6591 94.4603C93.0431 94.4603 91.9871 93.1163 91.9871 90.7323C91.9871 88.3963 93.0431 87.0523 94.6591 87.0523C96.2431 87.0523 97.3151 88.3963 97.3151 90.7323C97.3151 93.1163 96.2431 94.4603 94.6591 94.4603ZM94.6591 93.5643C95.5711 93.5643 96.2111 92.6043 96.2111 90.7323C96.2111 88.8603 95.5711 87.9643 94.6591 87.9643C93.7311 87.9643 93.0911 88.8603 93.0911 90.7323C93.0911 92.6043 93.7311 93.5643 94.6591 93.5643Z" fill="#818181"/>
<path d="M437.408 227V225.784H440.016V217.048H437.92V216.104C438.976 215.928 439.728 215.656 440.352 215.272H441.472V225.784H443.84V227H437.408ZM449.691 227.224C447.435 227.224 445.755 225.288 445.755 221.416C445.755 216.824 447.819 215.064 450.091 215.064C451.307 215.064 452.203 215.576 452.843 216.264L452.027 217.16C451.579 216.616 450.859 216.28 450.155 216.28C448.507 216.28 447.131 217.576 447.131 221.416C447.131 224.424 448.043 226.072 449.691 226.072C450.811 226.072 451.675 225 451.675 223.416C451.675 221.816 450.971 220.808 449.563 220.808C448.811 220.808 447.867 221.256 447.083 222.424L447.035 221.256C447.755 220.312 448.843 219.736 449.787 219.736C451.771 219.736 453.051 220.952 453.051 223.416C453.051 225.688 451.499 227.224 449.691 227.224ZM455.958 227.224C455.382 227.224 454.918 226.76 454.918 226.104C454.918 225.432 455.382 224.984 455.958 224.984C456.55 224.984 457.03 225.432 457.03 226.104C457.03 226.76 456.55 227.224 455.958 227.224ZM461.355 227C461.563 222.568 462.363 219.72 464.667 216.52H458.987V215.272H466.315V216.152C463.563 219.688 463.067 222.424 462.875 227H461.355ZM470.358 222.456C468.742 222.456 467.686 221.112 467.686 218.744C467.686 216.392 468.742 215.064 470.358 215.064C471.974 215.064 473.03 216.392 473.03 218.744C473.03 221.112 471.974 222.456 470.358 222.456ZM470.358 221.56C471.286 221.56 471.91 220.6 471.91 218.744C471.91 216.872 471.286 215.96 470.358 215.96C469.43 215.96 468.79 216.872 468.79 218.744C468.79 220.6 469.43 221.56 470.358 221.56ZM470.694 227.224L477.158 215.064H478.15L471.686 227.224H470.694ZM478.534 227.224C476.918 227.224 475.862 225.88 475.862 223.496C475.862 221.16 476.918 219.816 478.534 219.816C480.118 219.816 481.19 221.16 481.19 223.496C481.19 225.88 480.118 227.224 478.534 227.224ZM478.534 226.328C479.446 226.328 480.086 225.368 480.086 223.496C480.086 221.624 479.446 220.728 478.534 220.728C477.606 220.728 476.966 221.624 476.966 223.496C476.966 225.368 477.606 226.328 478.534 226.328Z" fill="#818181"/>
<path d="M385.648 73.624H388.504V96.16H385.648V73.624ZM383.56 78.376L385.624 78.664C385.528 80.728 385.096 83.584 384.52 85.432L382.384 84.664C382.96 83.056 383.392 80.368 383.56 78.376ZM387.856 78.424L389.824 77.584C390.544 79.048 391.36 80.968 391.672 82.168L389.56 83.152C389.32 81.928 388.552 79.936 387.856 78.424ZM391.288 77.248H403.576V85.84H400.744V79.936H391.288V77.248ZM390.184 84.328H405.088V87.088H390.184V84.328ZM395.44 73.624H398.344V82.144C398.344 87.016 397.36 92.752 391.144 96.28C390.76 95.68 389.776 94.6 389.104 94.048C395.104 91.144 395.44 86.176 395.44 82.12V73.624ZM397.984 88.384L400.384 87.16C401.968 89.488 404.152 92.656 405.232 94.6L402.616 96.088C401.68 94.12 399.568 90.832 397.984 88.384ZM407.104 86.872H428.872V89.248H407.104V86.872ZM416.632 85.72H419.536V96.088H416.632V85.72ZM417.088 81.4V83.056H418.864V81.4H417.088ZM417.088 77.8V79.432H418.864V77.8H417.088ZM414.64 75.712H421.408V85.168H414.64V75.712ZM416.992 73.456L419.584 73.888C419.128 74.968 418.672 76.096 418.312 76.84L416.416 76.384C416.656 75.52 416.92 74.296 416.992 73.456ZM426.28 81.976L428.104 81.52C428.512 82.84 428.92 84.568 429.088 85.696L427.168 86.224C427.048 85.048 426.664 83.32 426.28 81.976ZM411.808 81.664L413.656 81.256C414.016 82.6 414.376 84.352 414.52 85.528L412.576 86.008C412.48 84.808 412.144 83.032 411.808 81.664ZM407.872 81.136C407.752 80.704 407.392 79.624 407.152 79.072C407.488 78.976 407.824 78.64 408.16 78.112C408.496 77.632 409.552 75.736 410.08 73.888L412.312 74.656C411.496 76.576 410.248 78.64 409.168 79.96V80.032C409.168 80.032 407.872 80.704 407.872 81.136ZM407.872 81.136L407.824 79.528L408.784 78.88L412.192 78.616C412.072 79.192 412 79.984 411.976 80.44C408.928 80.8 408.256 80.944 407.872 81.136ZM407.8 85.864C407.704 85.408 407.344 84.328 407.056 83.728C407.56 83.632 408.016 83.152 408.616 82.48C409.216 81.808 411.232 79.144 412.384 76.624L414.424 77.752C412.936 80.296 410.896 82.888 408.952 84.712V84.784C408.952 84.784 407.8 85.456 407.8 85.864ZM407.8 85.864L407.728 84.232L408.712 83.584L413.656 83.032C413.56 83.584 413.512 84.4 413.512 84.832C409.024 85.432 408.256 85.624 407.8 85.864ZM422.152 81.28C422.032 80.8 421.672 79.72 421.408 79.144C421.744 79.072 422.08 78.688 422.416 78.184C422.752 77.68 423.808 75.736 424.384 73.888L426.688 74.56C425.872 76.576 424.576 78.712 423.472 80.08V80.128C423.472 80.128 422.152 80.824 422.152 81.28ZM422.152 81.28L422.08 79.576L423.088 78.928L426.976 78.568C426.856 79.168 426.784 80.032 426.76 80.512C423.28 80.896 422.56 81.088 422.152 81.28ZM422.32 86.008C422.2 85.552 421.84 84.424 421.576 83.824C422.08 83.704 422.536 83.272 423.136 82.576C423.76 81.904 425.824 79.288 427.024 76.768L429.112 77.944C427.576 80.44 425.512 83.056 423.52 84.832V84.904C423.52 84.904 422.32 85.576 422.32 86.008ZM422.32 86.008L422.248 84.376L423.304 83.728L428.392 83.296C428.272 83.872 428.176 84.712 428.176 85.144C423.592 85.624 422.8 85.792 422.32 86.008ZM413.392 89.944L415.744 90.832C414.064 92.92 411.208 94.672 408.328 95.464C407.92 94.744 407.056 93.64 406.432 93.088C409.144 92.56 411.952 91.36 413.392 89.944ZM420.736 91.48L422.44 89.68C424.528 90.736 427.456 92.416 428.92 93.592L427.072 95.656C425.728 94.456 422.872 92.656 420.736 91.48Z" fill="black"/>
<path d="M396.736 207.704H402.952V210.296H396.736V207.704ZM396.736 213.128H402.952V215.648H396.736V213.128ZM396.736 218.6H402.976V221.168H396.736V218.6ZM401.704 207.704H404.488V225.992C404.488 227.384 404.224 228.176 403.36 228.608C402.52 229.064 401.296 229.136 399.496 229.136C399.424 228.368 399.04 227.12 398.68 226.4C399.712 226.448 400.888 226.448 401.224 226.424C401.584 226.424 401.704 226.304 401.704 225.944V207.704ZM395.56 207.704H398.248V216.512C398.248 220.304 397.936 225.8 395.896 229.208C395.416 228.704 394.24 227.864 393.616 227.576C395.416 224.504 395.56 219.944 395.56 216.512V207.704ZM382.984 209.456H394.744V211.952H382.984V209.456ZM386.128 213.368H391.84V215.576H386.128V213.368ZM386.128 217.112H391.864V219.296H386.128V217.112ZM382.696 220.904H394.576V223.424H382.696V220.904ZM384.88 206.888H387.472V221.816H384.88V206.888ZM390.472 206.888H393.112V221.816H390.472V206.888ZM385.696 223.592L388.408 224.384C387.52 226.16 386.104 228.032 384.832 229.208C384.28 228.728 383.176 227.912 382.504 227.528C383.8 226.544 385.024 225.056 385.696 223.592ZM389.248 224.672L391.432 223.472C392.392 224.528 393.616 225.992 394.168 226.976L391.84 228.344C391.36 227.384 390.208 225.8 389.248 224.672ZM412.216 211.928L414.712 212.984C413.008 215.936 410.248 219.104 407.776 221.096C407.584 220.448 406.864 218.816 406.432 218.12C408.52 216.632 410.848 214.256 412.216 211.928ZM411.64 206.648L414.304 207.752C412.744 209.984 410.32 212.336 408.088 213.8C407.8 213.152 407.104 211.976 406.696 211.376C408.52 210.224 410.632 208.256 411.64 206.648ZM409.96 217.28L412.6 214.616L412.72 214.688V229.16H409.96V217.28ZM414.568 213.968H428.128V216.56H414.568V213.968ZM413.584 218.576H429.112V221.192H413.584V218.576ZM413.728 209.384H429.184V212H413.728V209.384ZM419.848 206.72H422.776V215.408H419.848V206.72ZM423.232 217.208H426.184V226.16C426.184 227.576 425.896 228.296 424.888 228.728C423.904 229.112 422.536 229.16 420.64 229.16C420.52 228.368 420.112 227.24 419.752 226.472C420.928 226.544 422.32 226.544 422.704 226.52C423.112 226.496 423.232 226.424 423.232 226.112V217.208ZM415 222.704L417.376 221.432C418.36 222.632 419.752 224.336 420.4 225.392L417.856 226.832C417.304 225.752 415.984 223.976 415 222.704Z" fill="black"/>
<path d="M6.848 149.216H27.2V154.592H24.128V151.88H9.776V154.592H6.848V149.216ZM20.672 154.016L24.2 154.232C22.736 164.312 18.344 167.816 8.192 169.232C7.928 168.464 7.016 167.048 6.416 166.304C16.064 165.44 19.904 162.68 20.672 154.016ZM6.392 156.176H27.632V158.912H6.392V156.176ZM14.552 147.104L17.816 146.36C18.344 147.44 18.992 148.88 19.28 149.768L15.872 150.632C15.632 149.744 15.056 148.232 14.552 147.104ZM9.128 161.936L11.024 159.8C16.304 161.36 23.72 164.288 27.536 166.664L25.424 169.184C21.944 166.856 14.672 163.688 9.128 161.936ZM9.128 161.936C10.904 159.488 13.04 155.648 14.144 152.48L17.504 153.08C16.304 156.296 14.264 159.944 12.776 162.176L9.128 161.936ZM36.056 153.488H39.056V164.672C39.056 165.824 39.248 165.992 40.424 165.992C40.976 165.992 43.208 165.992 43.856 165.992C45.08 165.992 45.272 165.248 45.44 161.48C46.112 161.984 47.384 162.488 48.152 162.704C47.84 167.264 47.048 168.68 44.072 168.68C43.4 168.68 40.688 168.68 40.064 168.68C36.92 168.68 36.056 167.744 36.056 164.672V153.488ZM31.712 154.904L34.52 155.432C34.184 158.576 33.608 162.752 32.792 165.488L29.84 164.288C30.704 161.744 31.4 158.12 31.712 154.904ZM46.664 155.216L49.352 154.136C50.72 156.992 51.968 160.616 52.472 163.112L49.568 164.312C49.16 161.864 47.936 158.048 46.664 155.216ZM36.872 148.952L38.84 146.984C41.024 148.376 44.072 150.488 45.536 151.976L43.4 154.232C42.08 152.744 39.128 150.464 36.872 148.952Z" fill="black"/>
<path d="M10.712 73.72L13.424 74.56C11.888 78.664 9.392 82.984 6.776 85.72C6.512 85.024 5.72 83.44 5.24 82.744C7.424 80.56 9.488 77.152 10.712 73.72ZM8.36 80.344L11.096 77.608L11.12 77.632V96.136H8.36V80.344ZM15.992 82.528H27.92V85.192H15.992V82.528ZM25.232 73.504L27.368 75.664C23.792 76.912 18.92 77.8 14.672 78.352C14.552 77.704 14.168 76.696 13.856 76.096C17.96 75.52 22.472 74.56 25.232 73.504ZM20.696 76.6H23.312C23.48 85.072 24.752 92.632 25.928 92.656C26.264 92.656 26.504 91.6 26.624 89.656C27.056 90.208 28.112 90.904 28.544 91.12C27.968 94.936 26.888 95.872 25.928 95.872C22.4 95.848 21.056 87.616 20.696 76.6ZM13.712 93.88L13.472 91.552L14.6 90.712L20.432 89.344C20.36 90.088 20.384 91.168 20.456 91.768C15.224 93.184 14.312 93.52 13.712 93.88ZM13.712 93.88C13.568 93.256 13.112 92.152 12.704 91.624C13.232 91.384 13.856 90.904 13.856 89.92V76.096L16.544 76.84V91.72C16.544 91.72 13.712 92.992 13.712 93.88ZM16.136 93.256H22.616V95.584H16.136V93.256ZM39.944 92.968H47.888V95.152H39.944V92.968ZM41.144 80.128H48.632V82.24H41.144V80.128ZM37.928 88.624H49.88V96.136H47.048V90.784H40.64V96.136H37.928V88.624ZM41.192 81.856C43.472 84.184 48.008 85.912 52.664 86.608C52.088 87.16 51.344 88.264 50.96 88.984C46.184 88.024 41.72 85.864 38.984 82.792L41.192 81.856ZM48.08 80.128H48.608L49.064 80.008L50.888 81.112C48.152 85.36 42.416 88 36.968 89.296C36.68 88.648 36.056 87.568 35.576 87.016C40.592 86.056 46.064 83.656 48.08 80.536V80.128ZM30.128 93.904C31.448 92.632 33.368 90.496 34.976 88.48L36.68 90.568C35.312 92.416 33.704 94.408 32.192 96.136L30.128 93.904ZM31.232 80.584L32.864 78.664C34.088 79.336 36.032 80.368 37.016 80.992L35.312 83.152C34.4 82.528 32.48 81.376 31.232 80.584ZM29.72 85.336L31.376 83.392C32.648 84.064 34.544 85.144 35.504 85.816L33.776 87.976C32.864 87.28 31.016 86.104 29.72 85.336ZM40.88 78.496L43.64 79.072C42.08 81.4 40.112 83.656 37.544 85.648C37.088 85.096 36.176 84.28 35.552 83.92C37.952 82.336 39.8 80.2 40.88 78.496ZM35.096 73.624H37.928V79.072H35.096V73.624ZM44 73.624H46.808V79.072H44V73.624ZM30.32 74.968H40.4V77.488H30.32V74.968ZM41.6 74.944H51.656V77.44H41.6V74.944Z" fill="black"/>
<path d="M6.176 24.312H27.776V26.952H6.176V24.312ZM6.92 12.024H27.176V14.664H6.92V12.024ZM12.104 16.152H21.824V18.552H12.104V16.152ZM12.104 20.184H21.824V22.584H12.104V20.184ZM10.28 9.672H13.136V25.728H10.28V9.672ZM20.72 9.672H23.648V25.728H20.72V9.672ZM18.2 28.896L20.264 27.12C23 28.056 26.096 29.352 27.92 30.264L25.136 32.088C23.6 31.152 20.84 29.856 18.2 28.896ZM13.352 26.88L15.752 28.776C13.568 30.024 10.304 31.368 7.76 32.136C7.328 31.536 6.488 30.576 5.888 29.976C8.408 29.304 11.672 27.96 13.352 26.88ZM43.496 9.72H46.064V26.448H43.496V9.72ZM35.456 19.128L49.592 13.584L50.696 16.08L36.56 21.672L35.456 19.128ZM38.384 12.312H41.096V27.696C41.096 29.136 41.312 29.376 42.92 29.376C43.664 29.376 47.12 29.376 47.96 29.376C49.376 29.376 49.616 28.776 49.832 26.064C50.48 26.496 51.608 26.976 52.376 27.12C51.992 30.744 51.152 31.944 48.176 31.944C47.36 31.944 43.472 31.944 42.728 31.944C39.344 31.944 38.384 31.056 38.384 27.696V12.312ZM34.784 9.72L37.52 10.56C35.96 14.664 33.464 18.984 30.848 21.72C30.584 21.024 29.792 19.44 29.312 18.744C31.496 16.56 33.56 13.152 34.784 9.72ZM32.36 16.344L35.096 13.608L35.12 13.632V32.136H32.36V16.344ZM48.824 14.184H48.56L49.544 13.512L51.704 14.208L51.608 14.64C51.488 18.096 51.176 22.632 50.624 25.608L48.272 24.96C48.632 22.32 48.8 17.664 48.824 14.184Z" fill="black"/>
</svg>
