<svg xmlns="http://www.w3.org/2000/svg" width="48" height="48" fill="none"><g clip-path="url(#a)"><rect width="48" height="48" fill="#fff" rx="24"/><g clip-path="url(#b)"><path fill="#E7CDAA" d="M42.68 18.438H22.448v.64H42.68v-.64Z" opacity=".49"/><path fill="#E0E0E0" d="M26.888 18.759h-1.025v2.029h1.025v-2.03Z"/><path fill="#E7CDAA" d="M39.038 18.438h-1.024v2.35h1.024v-2.35Z" opacity=".49"/><g opacity=".49"><path fill="#D9C095" d="M33.69 12.692s-.924.704-.039 1.633a.08.08 0 0 0 .059.025l8.07-.047s.69-.773.117-1.664l-8.207.053Z"/><path fill="#FAFAFA" d="M39.993 13.426c0 .01-1.005.017-2.245.017-1.24 0-2.244-.007-2.244-.017 0-.009 1.005-.016 2.244-.016 1.24 0 2.245.007 2.245.016Zm-1.256.292c0 .01-.472.017-1.055.017s-1.055-.007-1.055-.017c0-.01.472-.016 1.055-.016s1.055.007 1.055.016Zm2.08.559c-.005-.001.018-.093.043-.242a3.423 3.423 0 0 0-.011-1.177c-.028-.149-.053-.24-.047-.241a.27.27 0 0 1 .023.062 2.84 2.84 0 0 1 .014 1.536.248.248 0 0 1-.022.062Zm.599-1.647a.3.3 0 0 1 .036.058c.012.02.024.043.036.072.013.03.029.062.042.1a1.733 1.733 0 0 1 .112.607 1.734 1.734 0 0 1-.102.609c-.012.037-.028.07-.04.1a.7.7 0 0 1-.07.131c-.006-.002.04-.09.088-.239a2.01 2.01 0 0 0 .091-.6 1.94 1.94 0 0 0-.1-.6c-.052-.15-.098-.236-.093-.239Zm-6.46 1.658a.58.58 0 0 1-.076-.12c-.013-.028-.03-.058-.043-.094a1.388 1.388 0 0 1-.078-.254 1.612 1.612 0 0 1-.031-.325 1.544 1.544 0 0 1 .125-.577c.014-.035.032-.065.046-.091a.602.602 0 0 1 .078-.12c.006.004-.046.082-.103.22a1.54 1.54 0 0 0-.114.569 1.574 1.574 0 0 0 .099.57c.053.14.103.219.097.222Zm-.871.197a.325.325 0 0 1-.041-.061.691.691 0 0 1-.043-.076c-.014-.03-.033-.065-.048-.104a1.727 1.727 0 0 1-.138-.65 1.73 1.73 0 0 1 .109-.655c.013-.04.03-.074.044-.105a.738.738 0 0 1 .077-.141c.006.003-.046.095-.1.254a1.938 1.938 0 0 0-.098.646 1.928 1.928 0 0 0 .127.64c.06.16.116.249.11.252Z"/><path fill="#D9C095" d="M41.48 16.76v1.545h-2.99v-1.544h2.989Z"/><path fill="#BDA472" d="M31.828 17.548a.885.885 0 0 0 .89.87h8.9v-.112h-2.113a.772.772 0 1 1 0-1.544h2.113v-.164l-8.902.03a.889.889 0 0 0-.888.92Z"/><path fill="#9C8459" d="M41.478 17.554c0 .009-.615.016-1.372.016-.758 0-1.373-.007-1.373-.016 0-.01.615-.017 1.373-.017.757 0 1.372.008 1.372.017Zm-.042.348c0 .009-.582.016-1.298.016-.718 0-1.3-.007-1.3-.016 0-.01.582-.017 1.3-.017.716 0 1.298.008 1.298.017Zm.044.318c0 .009-.523.016-1.168.016-.645 0-1.167-.007-1.167-.016 0-.009.522-.016 1.167-.016s1.168.007 1.168.016Zm0-.98c0 .01-.602.017-1.344.017-.743 0-1.345-.007-1.345-.016 0-.009.602-.017 1.345-.017.741 0 1.343.008 1.343.017Zm-.044-.312c0 .01-.536.017-1.197.017-.66 0-1.196-.007-1.196-.017 0-.009.535-.016 1.196-.016.661 0 1.197.008 1.197.016Zm-8.526-.275c.005.005-.087.075-.19.225a1.181 1.181 0 0 0-.202.664c.003.277.113.514.218.659.106.148.2.215.195.22a.321.321 0 0 1-.065-.047 1.152 1.152 0 0 1-.382-.831 1.15 1.15 0 0 1 .362-.841.313.313 0 0 1 .064-.05Z"/><path fill="#9C8459" d="M32.604 16.62c.005.005-.087.075-.19.225a1.181 1.181 0 0 0-.202.664c.003.277.113.514.218.659.106.148.2.215.195.22a.309.309 0 0 1-.064-.047 1.15 1.15 0 0 1-.382-.832 1.15 1.15 0 0 1 .362-.84.3.3 0 0 1 .063-.049Zm6.049.033c.005.005-.087.075-.189.225a1.183 1.183 0 0 0-.203.664c.003.277.113.514.219.659.105.147.199.215.194.22a.314.314 0 0 1-.065-.047 1.151 1.151 0 0 1-.382-.832 1.15 1.15 0 0 1 .362-.84.287.287 0 0 1 .064-.05Z"/><path fill="#9C8459" d="M38.355 16.62c.005.005-.087.075-.19.225a1.182 1.182 0 0 0-.202.664c.003.277.113.514.218.659.106.148.2.215.195.22a.333.333 0 0 1-.065-.047 1.151 1.151 0 0 1-.381-.832 1.15 1.15 0 0 1 .361-.84.28.28 0 0 1 .064-.049Zm-4.436 1.144-.009-.628a.419.419 0 0 0-.022-.161c-.02-.051-.064-.096-.119-.1-.079-.035-.201.03-.256.12a.595.595 0 0 0-.062.308c-.001.166.007.331.024.496.008.078.02.159.058.227.04.069.114.122.192.115.078-.007.14-.072.168-.145a.623.623 0 0 0 .026-.232Zm3.457-.18c0 .009-.644.016-1.437.016-.794 0-1.437-.007-1.437-.016 0-.009.643-.016 1.437-.016s1.437.007 1.437.016Z"/><path fill="#BDA472" d="m33.324 16.591-.016-1.464h.797l.027 1.464h-.808Z"/><path fill="#9C8459" d="M34.053 15.388c0 .008-.166.016-.37.016-.205 0-.37-.007-.37-.016 0-.01.165-.017.37-.017.204 0 .37.008.37.017Zm0 .225c0 .01-.166.017-.37.017-.205 0-.37-.007-.37-.017 0-.009.165-.016.37-.016.204 0 .37.007.37.016Zm0 .227c0 .008-.166.016-.37.016-.205 0-.37-.007-.37-.016 0-.01.165-.017.37-.017.204 0 .37.008.37.017Zm0 .225c0 .01-.166.017-.37.017-.205 0-.37-.007-.37-.017 0-.009.165-.016.37-.016.204 0 .37.008.37.016Zm0 .226c0 .01-.166.017-.37.017-.205 0-.37-.007-.37-.017 0-.008.165-.016.37-.016.204 0 .37.007.37.017Z"/><path fill="#D9C095" d="M33.268 15.088H42.1c.108.485.093 1.019 0 1.583h-8.795v-.108h.538c.14 0 .253-.114.253-.254v-.875a.254.254 0 0 0-.253-.254h-.575v-.091Z"/><path fill="#FBFBFB" d="M35.356 15.88h.147c.006 0 .01.002.016.004a.03.03 0 0 1 .016.028.03.03 0 0 1-.001.01l-.01.037a.415.415 0 0 1-.092.167c-.04.043-.083.065-.126.065-.006 0-.012 0-.018-.002a.144.144 0 0 1-.1-.072.33.33 0 0 1-.044-.178.475.475 0 0 1 .104-.296c.042-.048.086-.071.133-.071.02 0 .039.004.056.013.039.018.067.054.086.107.002.005.004.01.004.015 0 .005-.002.01-.005.016a.03.03 0 0 1-.027.016l-.01-.001a.031.031 0 0 1-.02-.02l-.002-.003a.172.172 0 0 0-.018-.035c-.019-.028-.042-.042-.07-.042a.083.083 0 0 0-.05.018.261.261 0 0 0-.08.115.438.438 0 0 0-.035.166.3.3 0 0 0 .026.131c.018.039.044.058.076.058.022 0 .046-.015.072-.043a.391.391 0 0 0 .075-.137c-.068 0-.103 0-.106-.002-.023-.003-.034-.015-.035-.035a.04.04 0 0 1 .003-.01c.007-.013.019-.019.035-.019Zm.496-.287.004.01a19.764 19.764 0 0 1 .105.556.03.03 0 0 1-.004.016c-.006.01-.015.016-.026.016h-.005a.029.029 0 0 1-.025-.022l-.035-.182h-.181l-.087.182-.003.007c-.008.01-.017.015-.027.015a.03.03 0 0 1-.017-.005.03.03 0 0 1-.015-.027c0-.003 0-.006.002-.01l.028-.06c.127-.276.202-.44.227-.49.007-.014.017-.022.03-.022.013 0 .023.006.03.016Zm-.04.122-.098.207h.139l-.04-.207Zm.535.476h-.266a.029.029 0 0 1-.017-.005c-.008-.006-.013-.017-.015-.034a27.683 27.683 0 0 1 .075-.556c.006-.013.015-.02.028-.02.006 0 .01.001.015.004a.03.03 0 0 1 .017.028 5.408 5.408 0 0 1-.018.149l-.048.368h.226c.007 0 .012.001.017.003a.03.03 0 0 1 .02.03l-.001.01c-.005.013-.016.02-.033.023Zm.364-.598.004.01a20.235 20.235 0 0 1 .105.556.03.03 0 0 1-.004.016c-.006.01-.015.016-.026.016h-.005a.029.029 0 0 1-.025-.022l-.035-.182h-.181l-.087.182-.003.007c-.008.01-.017.015-.028.015a.03.03 0 0 1-.017-.005.03.03 0 0 1-.014-.027c0-.003 0-.006.002-.01l.027-.06.227-.49c.007-.014.018-.022.031-.022.012 0 .022.006.029.016Zm-.04.122-.098.207h.139l-.04-.207Zm.464.192a30.423 30.423 0 0 1 .09.253.027.027 0 0 1-.006.017.03.03 0 0 1-.027.014c-.012 0-.02-.007-.026-.021l-.005-.014a3.392 3.392 0 0 1-.07-.187l-.152.206c-.008.01-.017.016-.028.017a.032.032 0 0 1-.016-.005.03.03 0 0 1-.015-.027v-.006a.08.08 0 0 1 .016-.026c.051-.065.106-.143.167-.233l-.018-.05a5.246 5.246 0 0 1-.085-.235c0-.006.002-.011.004-.017.006-.01.014-.016.026-.016.014 0 .024.007.03.018l.089.24.177-.242a.036.036 0 0 1 .029-.015c.005 0 .01.001.014.003.01.006.016.016.016.029l-.003.014-.207.283Zm.659-.327c.005 0 .01 0 .015.003a.03.03 0 0 1 .016.027c-.043.344-.067.53-.072.558a.343.343 0 0 1-.056.145.207.207 0 0 1-.263.064.186.186 0 0 1-.093-.082.035.035 0 0 1-.004-.016.03.03 0 0 1 .004-.016.03.03 0 0 1 .027-.016.03.03 0 0 1 .024.013c.04.052.085.077.137.078.04 0 .076-.018.106-.054a.294.294 0 0 0 .058-.168.158.158 0 0 1-.152.072.146.146 0 0 1-.101-.072.326.326 0 0 1-.044-.178c0-.032 0-.065.004-.1a2.507 2.507 0 0 1 .039-.238c.005-.015.015-.022.028-.022a.03.03 0 0 1 .016.005c.01.006.016.014.016.025 0 .016-.005.057-.015.121-.014.095-.02.157-.02.186 0 .06.007.107.023.145.018.043.044.064.078.064h.011c.026-.006.053-.028.08-.064a.401.401 0 0 0 .065-.147l.04-.304.005-.013a.03.03 0 0 1 .028-.017Z"/><path fill="#F5F5F5" d="M41.77 16.691c-.01 0-.017-.363-.017-.811 0-.449.007-.812.016-.812.01 0 .017.364.017.812 0 .448-.007.811-.017.811Z"/><path fill="#9C8459" d="M34.542 16.691c-.01 0-.017-.363-.017-.811 0-.449.008-.812.017-.812.009 0 .016.364.016.812 0 .448-.007.811-.016.811Z"/><path fill="#F5F5F5" d="M41.923 16.691c-.01 0-.017-.363-.017-.811 0-.449.007-.812.017-.812.009 0 .016.364.016.812 0 .448-.007.811-.016.811Z"/><path fill="#9C8459" d="M34.393 16.691a10.8 10.8 0 0 1-.016-.811c0-.449.007-.812.016-.812.01 0 .017.364.017.812 0 .448-.008.811-.017.811Z"/><path fill="#FFFFFE" d="m39.628 15.335-.001-.003.933.753.009.007-.01.003a7.99 7.99 0 0 0-.125.033l-.788.206h-.003l-.714-.303-.202-.086-.053-.024-.014-.006-.005-.002.005.002.014.005.054.022.203.084.716.299h-.003l.788-.208.124-.033-.002.01-.932-.756h-.001v-.002"/><path fill="#FFFFFE" d="m40.471 15.969.051.047.069-.015-.03.063.035.06-.07-.008-.046.053-.013-.07-.064-.027.062-.034.006-.07Z"/><path fill="#E0E0E0" d="m39.576 16.265.035.03.043-.013-.017.042.026.037-.045-.003-.029.036-.01-.044-.043-.016.038-.024.002-.045Z"/><path fill="#FFFFFE" d="m38.59 15.86.056.003.034-.044.014.054.052.02-.047.029-.002.055-.043-.035-.053.015.02-.052-.03-.046Zm2.3-.513.055.004.034-.044.014.054.052.019-.047.03-.002.055-.042-.035-.054.015.02-.052-.03-.046Z"/><path fill="#E0E0E0" d="m39.578 15.31.036.003.022-.028.008.035.034.012-.03.019-.001.035-.028-.022-.034.009.013-.033-.02-.03Z"/><path fill="#FFFFFE" d="M40.963 15.386c0 .003-.302-.006-.674-.022a17.25 17.25 0 0 1-.674-.036c0-.003.302.006.674.022.373.017.674.032.674.036Z"/><path fill="#BDA472" d="M41.304 15.075h-8.957c-.117-.266-.146-.52 0-.746h8.957a.865.865 0 0 1 0 .746Z"/><path fill="#D9C095" d="M39.06 14.542h-4.852v.271h4.852v-.27Z"/><path fill="#E0E0E0" d="M32.697 15.079c-.003.002-.035-.029-.07-.09a.654.654 0 0 1-.048-.54c.024-.067.05-.103.053-.1.005.002-.013.041-.032.107a.77.77 0 0 0 .046.522c.03.062.055.098.05.1Zm.19 0a.29.29 0 0 1-.07-.09.652.652 0 0 1-.048-.54c.025-.067.05-.103.054-.1.005.002-.014.041-.032.107a.772.772 0 0 0 .046.522c.03.062.055.098.05.1Z"/><path fill="#F5F5F5" d="M40.944 15.061c-.01-.003.063-.158.063-.364.003-.206-.069-.362-.058-.365.006-.006.093.15.091.365 0 .215-.09.37-.096.364Zm-.171-.001c-.01-.003.028-.16.027-.357 0-.198-.038-.355-.028-.357.008-.003.061.154.06.357.002.202-.051.36-.059.357Z"/></g><g opacity=".49"><path fill="#FBE8BE" d="M27.1 37.176H8.998a.795.795 0 0 1-.796-.796V10.02c0-.44.356-.796.796-.796H27.1c.44 0 .795.356.795.796v26.36c0 .44-.355.796-.795.796Z"/><path fill="#DAA838" d="m27.101 37.176.061-.004c.04-.003.1-.012.178-.034a.796.796 0 0 0 .55-.71c.005-.088.001-.18.002-.276l-.001-.633c0-.458 0-.986-.002-1.58l-.006-10.064-.002-6.95-.001-3.872v-2.025l-.002-1.033a.778.778 0 0 0-.605-.734 1.163 1.163 0 0 0-.258-.02h-1.868l-2.182.001h-4.5l-9.463.001a.78.78 0 0 0-.777.738c-.004.401-.001.804-.002 1.204v7.049l-.001 8.816-.002 7.978v.929c0 .153-.002.307.001.458a.77.77 0 0 0 .142.415.788.788 0 0 0 .551.327c.072.006.147.004.22.004h.88l3.334.002 10.064.006 2.736.004.712.002.241.001-.242.002c-.16 0-.4 0-.712.002l-2.735.003-10.064.006-3.336.002h-.878c-.074 0-.148.002-.224-.005a.82.82 0 0 1-.573-.339.803.803 0 0 1-.147-.431c-.004-.154-.001-.306-.002-.46v-.928l-.002-7.978-.002-8.816v-7.049c0-.401-.002-.801.002-1.206A.81.81 0 0 1 9 9.205h13.963l2.182.001h1.869c.087 0 .178 0 .266.021a.812.812 0 0 1 .632.767v3.059l-.001 3.872-.002 6.95-.006 10.065-.002 1.579-.001.633c-.001.096.002.188-.003.276a.805.805 0 0 1-.558.714.818.818 0 0 1-.178.032l-.06.002Z"/><path fill="#040000" d="M9.92 36.544h16.528l-.181-3.437v-1.83L9.92 33.83v2.713ZM23.018 9.28l.375 1.115v.546h-.423l.048-1.66Z" opacity=".3"/><path fill="#fff" d="M9.081 10.344V36.02h17.937V10.345H9.08Z"/><path fill="#DAA838" d="m27.02 31.43-.002-.1-.001-.29-.003-1.137c0-.995-.002-2.453-.005-4.302l-.006-15.256.017.016-17.937.003.019-.02v.023l-.005 25.654-.014-.014 9.792.006 2.67.004.695.002.237.002-.237.003c-.156 0-.39 0-.695.002l-2.67.004-9.792.006h-.015v-.014l-.005-25.654v-.042h.02l17.937.002h.016v.017l-.006 15.256-.005 4.303-.003 1.136-.001.292c0 .064-.002.097-.002.097Z"/><path fill="#BDA472" d="M23.018 11.16h-9.076V8.809c0-.155.126-.281.282-.281h8.513a.28.28 0 0 1 .281.28v2.352Z"/><path fill="#BDA472" d="M19.635 7.538h-2.31l.27 1.98h1.74l.3-1.98Z"/><path fill="#483818" d="M22.433 8.528c0 .01-1.77.019-3.954.019-2.185 0-3.956-.009-3.956-.02 0-.01 1.77-.019 3.956-.019 2.184 0 3.954.01 3.954.02Zm-8.287 2.207c-.01 0-.019-.372-.019-.831 0-.46.008-.832.02-.832.01 0 .018.372.018.832 0 .46-.008.831-.019.831Zm8.578-.197c-.01 0-.019-.338-.019-.755s.009-.755.02-.755c.01 0 .018.338.018.755s-.008.755-.019.755Zm-.438.35c0 .011-1.818.02-4.06.02-2.242 0-4.059-.009-4.059-.02 0-.01 1.817-.019 4.06-.019 2.241 0 4.059.009 4.059.02Z"/><path fill="#E0CB99" d="M24.746 15.272H14.84v.608h9.906v-.608Zm-5.412 1.244H14.84v.604h4.494v-.604Z"/><path fill="#DECCA4" d="M13.66 17.302h-1.947a.172.172 0 0 1-.171-.172v-1.946c0-.095.077-.172.171-.172h1.948c.094 0 .171.077.171.172v1.946a.172.172 0 0 1-.171.172Z" opacity=".81"/><path fill="#fff" d="m12.655 16.702-.642-.495.173-.224.43.332.612-.704.214.186-.787.905Z"/><path fill="#E0CB99" d="M24.746 19.042H14.84v.609h9.906v-.61Zm-5.412 1.243H14.84v.605h4.494v-.605Z"/><path fill="#DECCA4" d="M13.66 21.072h-1.947a.172.172 0 0 1-.171-.172v-1.946c0-.095.077-.172.171-.172h1.948c.094 0 .171.077.171.172V20.9a.172.172 0 0 1-.171.172Z" opacity=".81"/><path fill="#fff" d="m12.655 20.472-.642-.496.173-.224.43.333.612-.704.214.186-.787.905Z"/><path fill="#E0CB99" d="M24.746 23.08H14.84v.61h9.906v-.61Zm-5.412 1.245H14.84v.605h4.494v-.605Zm5.412 2.49H14.84v.609h9.906v-.609Zm-5.412 1.245H14.84v.604h4.494v-.605Z"/><path fill="#DECCA4" d="M13.66 25.111h-1.947a.172.172 0 0 1-.171-.171v-1.948c0-.094.077-.171.171-.171h1.948c.094 0 .171.077.171.171v1.948a.172.172 0 0 1-.171.171Z" opacity=".81"/><path fill="#fff" d="m12.655 24.512-.642-.496.173-.224.43.332.612-.704.214.186-.787.906Z"/><path fill="#DECCA4" d="M13.532 28.99h-1.69a.34.34 0 0 1-.34-.338v-1.69a.34.34 0 0 1 .34-.34h1.69a.34.34 0 0 1 .338.34v1.69a.338.338 0 0 1-.338.339Zm-1.69-2.29a.262.262 0 0 0-.262.262v1.69c0 .144.118.261.262.261h1.69a.262.262 0 0 0 .261-.261v-1.69a.262.262 0 0 0-.261-.262h-1.69Z" opacity=".81"/><path fill="#E0CB99" d="M24.746 31.087H14.84v.609h9.906v-.61Zm-5.412 1.243H14.84v.606h4.494v-.605Z"/><path fill="#DECCA4" d="M13.532 33.262h-1.69a.34.34 0 0 1-.34-.339v-1.69a.34.34 0 0 1 .34-.339h1.69a.34.34 0 0 1 .338.339v1.69a.34.34 0 0 1-.338.34Zm-1.69-2.29a.262.262 0 0 0-.262.261v1.69c0 .145.118.262.262.262h1.69a.262.262 0 0 0 .261-.261v-1.69a.262.262 0 0 0-.261-.262h-1.69Zm11.682-18.058h-9.877v.845h9.877v-.845Z" opacity=".81"/></g><path fill="#382B22" d="M28.58 11.572c.518-.248 1.176.055 1.47.547.296.493.296 1.11.182 1.673-.108.533-.284 1.168.096 1.557.297.305.841.323 1.052.693.302.532-.377 1.154-.284 1.759.059.382.413.648.767.803.354.154.745.247 1.048.486.304.24.486.702.263 1.018l-1.98.622-.402-.696c.139.294.076.653-.09.932-.166.28-.423.493-.685.685-1.025.749-2.268 1.269-3.536 1.198"/><path fill="#382B22" d="M19.97 12.603c-.015-.529.474-.937.966-1.13.492-.195 1.04-.268 1.478-.563.388-.261.65-.669.978-1.002a3.321 3.321 0 0 1 3.175-.855 3.322 3.322 0 0 1 2.3 2.348c.189.753.06 1.643-.533 2.143-.69.581-1.71.452-2.593.272s-1.881-.359-2.618.16c-.445.312-.7.82-.97 1.29-.272.471-.613.951-1.127 1.128-.514.177-1.211-.128-1.231-.671"/><path fill="#382B22" d="M20.004 12.893c.058.443-.263.84-.582 1.152-.32.313-.68.645-.736 1.088-.066.518.312 1.028.203 1.539-.07.324-.322.573-.475.867-.214.413-.225.912-.094 1.358.132.447.341 1.443.652 1.79.857.959 2.223 1.786 3.477 2.074 1.254.288 2.556.29 3.84.211 1.052-.065 2.26-.016 3.136-1.463.454-.748.68-1.744.92-2.586.208-.725.387-1.502.171-2.224-.126-.42-.379-.795-.503-1.216-.155-.527-.099-1.09-.16-1.635a3.817 3.817 0 0 0-1.907-2.854 3.815 3.815 0 0 0-3.43-.108"/><path fill="#F4D5C9" d="M29.347 14.71c-.099-1.51-1.103-3.358-2.605-3.196l-4.692 1.197c-.456.05-.8.44-.789.9l.305 10.307a2.72 2.72 0 0 0 5.44-.076c0-.735.001-1.6.002-1.597 0 0 1.926-.324 2.32-2.84.196-1.251.128-3.02.019-4.696Z"/><path fill="#382B22" d="M26.766 18.42c-.001-.019.214-.057.564-.103.088-.009.172-.027.187-.087.02-.064-.017-.16-.06-.263l-.263-.674c-.366-.96-.631-1.75-.593-1.764.04-.014.367.752.734 1.712l.252.678c.034.1.092.215.047.348a.222.222 0 0 1-.146.13c-.056.017-.106.018-.15.02-.352.021-.57.024-.572.004Z"/><path fill="#D2B0A5" d="M23.673 21.35s.819 1.728 3.335 1.487v-.592s-1.656.11-3.335-.895Z"/><path fill="#382B22" d="M25.74 18.663c.056-.003.058.373.38.64.322.268.724.225.727.277.006.024-.09.073-.258.078a.936.936 0 0 1-.607-.21.816.816 0 0 1-.295-.536c-.015-.158.026-.251.052-.249Zm-.162-3.83c-.034.095-.38.051-.787.1-.408.043-.736.163-.79.078-.024-.04.032-.13.165-.22a1.32 1.32 0 0 1 .586-.207c.244-.027.468.011.617.071.149.06.224.134.21.178Zm3.202-.06c-.06.08-.3-.002-.587-.006-.288-.013-.53.054-.587-.028-.025-.04.013-.119.12-.194a.816.816 0 0 1 .477-.13.812.812 0 0 1 .469.158c.102.08.136.162.108.2Z"/><path fill="#263138" d="M20.292 20.985a2.272 2.272 0 0 0 1.962-.553c.517-.48.783-1.216.695-1.916-.078-.618-.411-1.246-.197-1.83.283-.774 1.367-1.011 1.654-1.783.167-.448.017-.973.207-1.412.178-.413.613-.651 1.035-.804.424-.153.877-.258 1.232-.534.355-.277.577-.798.348-1.185a23.848 23.848 0 0 0-5.496 1.335c-.41.153-.841.337-1.084.702-.256.387-.244.885-.222 1.348l.316 6.775"/><path fill="#382B22" d="M27.3 10.016c.065.634.129 1.286-.044 1.9-.173.612-.64 1.187-1.268 1.292-.298.05-.631 0-.876.176-.52.374-.095 1.252-.4 1.814-.275.504-1.014.55-1.38.991-.403.488-.195 1.222.087 1.788.282.567.63 1.19.442 1.794-.21.675-1.017 1.034-1.215 1.712-.128.438.007.976-.306 1.307-.241.256-.642.261-.992.23a9.929 9.929 0 0 1-4.09-1.311c.212-.348.33-.752.338-1.158-.235.17-.47.341-.704.513l-1.623-2.023c.324-.825 1-1.503 1.824-1.83.49-.196 1.12-.362 1.234-.877.064-.285-.278-.805-.094-1.468 0 0 .31-1.261 1.04-1.617.73-.357.628-.57.788-1.056"/><path fill="#271B12" d="M15.67 18.833c.002-.017.228-.01.632-.005.202 0 .45 0 .732-.034.28-.033.6-.097.917-.249.159-.076.316-.173.46-.294a1.63 1.63 0 0 0 .374-.447 1.7 1.7 0 0 0 .188-.595c.034-.218.046-.451.083-.696.038-.244.103-.5.252-.733.073-.116.172-.223.29-.305.12-.08.257-.132.394-.164.274-.063.546-.057.803-.087.257-.028.504-.098.668-.282.169-.18.259-.43.313-.682.055-.252.073-.52.125-.784.05-.263.138-.535.31-.751.086-.107.186-.2.293-.276.108-.077.224-.135.341-.184.473-.19.962-.191 1.389-.146.43.043.82.114 1.176.129.177.008.348.005.504-.015.156-.02.302-.057.433-.104.263-.096.466-.235.603-.375.138-.14.211-.278.25-.375.039-.097.052-.152.062-.15.005 0 .008.059-.02.165-.026.106-.09.26-.228.42a1.635 1.635 0 0 1-.622.432 2.033 2.033 0 0 1-.458.13 3.046 3.046 0 0 1-.53.03c-.37-.004-.766-.067-1.186-.101a3.698 3.698 0 0 0-.644-.005 2.28 2.28 0 0 0-.65.156c-.21.087-.402.22-.543.4-.142.18-.218.412-.264.66-.049.25-.064.515-.123.79-.058.272-.154.56-.367.79a.997.997 0 0 1-.382.254 1.68 1.68 0 0 1-.424.095c-.278.03-.543.025-.78.08a.967.967 0 0 0-.32.13.841.841 0 0 0-.233.24c-.125.192-.19.423-.228.65-.038.23-.053.465-.092.695a1.88 1.88 0 0 1-.222.656 1.793 1.793 0 0 1-.424.488 2.321 2.321 0 0 1-.504.305 2.919 2.919 0 0 1-.973.23 5.21 5.21 0 0 1-.747-.004c-.406-.031-.628-.068-.627-.082Z"/><path fill="#F8DF88" d="m32.123 39.764.463 4.776-14.54-.006 2.81-5.67 11.267.9Z"/><path fill="#D2B0A5" d="m32.565 34.178 2.828 4.169s.579-4.576.632-4.474c.053.103-3.17-4.382-3.17-4.382l-.29 4.687Z"/><path fill="#F8DF88" d="M20.883 24.036c-.113 0-3.718 1.468-4.13 2.142-.412.674 2.164 13.378 2.164 13.378l13.204.272.13-6.07.985-8.121-5.46-1.84-.728-.634-1.479 2.573-4.063-2.604-.623.904Z"/><path fill="#040000" d="M20.336 44.118c.876-.228 1.597-.871 2.099-1.624.502-.752.811-1.614 1.107-2.469.296-.854.589-1.72 1.062-2.49.35-.568.791-1.072 1.23-1.574.209-.24.422-.481.69-.653.331-.214.725-.304 1.11-.392l2.021-.46c.253-.056.511-.116.73-.254.22-.137.396-.371.395-.63-1.009.102-2.028.07-3.035.179-1.008.108-2.031.37-2.836.986-.811.62-1.331 1.545-1.739 2.482-.99 2.276-1.454 4.79-2.764 6.9" opacity=".3"/><path fill="#F8DF88" d="M16.755 26.178s-1.096.718-1.383 3.006c-.213 1.7-.64 6.51-.64 6.51l5.209-.435-3.186-9.081Z"/><path fill="#DAC172" d="M14.731 35.695c0-.001.01-.003.027-.005l.077-.009.298-.029 1.096-.098 3.617-.31.093-.007-.02.026-.47-3.538-.136-1.069-.034-.29a8.32 8.32 0 0 0-.008-.076l-.002-.026a6.412 6.412 0 0 0 .018.1l.044.29.15 1.068.482 3.535.004.024-.024.002-.093.008-3.619.295-1.097.085-.299.02a7.137 7.137 0 0 0-.077.005l-.027-.001Zm10.798-9.992a.526.526 0 0 1-.085-.023l-.238-.077-.851-.284.022-.008-.398.674-.01.017-.018-.01a18.929 18.929 0 0 1-2.815-1.68 3.682 3.682 0 0 1-.129-.096.347.347 0 0 1-.043-.036l.048.03c.034.023.079.052.133.09.116.077.282.19.492.326a22.167 22.167 0 0 0 2.332 1.327l-.028.009.404-.671.008-.014.014.005.846.3.235.086c.053.02.082.033.08.035Zm2.184-1.887-.002.042a3.843 3.843 0 0 1-.097.549 4.425 4.425 0 0 1-.466 1.143.452.452 0 0 1-.062.09c-.024.027-.065.053-.11.048a.181.181 0 0 1-.104-.056 1.251 1.251 0 0 1-.07-.08l-.132-.153-.248-.291a.46.46 0 0 0-.128-.112.122.122 0 0 0-.138.008c-.04.03-.07.074-.1.114l-.087.115a115.88 115.88 0 0 1-.34.44.15.15 0 0 1-.03.03.148.148 0 0 1 .022-.035l.067-.098.255-.356.085-.117c.03-.04.059-.086.106-.123a.162.162 0 0 1 .178-.014c.056.03.1.074.14.12l.251.29.133.154c.044.05.088.112.144.12.055.005.097-.06.13-.116l.098-.176a4.8 4.8 0 0 0 .473-1.378c.019-.102.028-.158.032-.158Zm2.412 13.924c.006.012-1.137.652-2.553 1.431-1.416.78-2.57 1.402-2.575 1.391-.006-.01 1.137-.65 2.554-1.43 1.416-.78 2.569-1.402 2.575-1.391Zm-.788 2.518c.001.012-.735.062-1.643.11-.91.048-1.646.078-1.647.065 0-.012.735-.061 1.644-.11.909-.048 1.646-.078 1.646-.065Z"/><path fill="#F8DF88" d="m32.761 34.319-.74-.76.743-3.89.742 2.61-.745 2.04Z"/><path fill="#DAC172" d="M32.107 39.542c-.001 0-.002-.007-.002-.02v-.059l.002-.225.016-.826a305 305 0 0 0 .045-2.728c.01-1.065.009-2.03-.009-2.727a21.95 21.95 0 0 0-.033-.825l-.017-.224-.003-.058v-.02c.002 0 .003.006.005.02l.007.057.025.224c.017.194.037.477.048.825.026.699.032 1.664.021 2.73a133.573 133.573 0 0 1-.088 3.553 47.747 47.747 0 0 0-.015.283c0 .013-.001.02-.002.02Z"/><path fill="#D2B0A5" d="M29.619 23.54s-.255-.098-.46.094c-.205.192-.179.41-.115.615.064.205.192.269.192.269l.846-.397-.463-.58Z"/><path fill="#DB4F58" d="M28.85 24.882s-.354.242-.367.316c-.009.052.055.119.156.085.087-.03.332-.178.332-.178l-.121-.223Z"/><path fill="#C79A1F" d="M28.85 24.882s-.354.242-.367.316c-.009.052.055.119.156.085.087-.03.332-.178.332-.178l-.121-.223Z"/><path fill="#938144" d="m29.681 23.988-.975.92.217.301 1.053-.376 5.378-3.052a.395.395 0 0 0-.386-.69l-5.287 2.897Z"/><path fill="#F4D5C9" d="M39.959 35.556c-.06-.872-5.53-8.426-5.872-8.898l-.945-1.96-.402-1.653s-2.146-1.236-2.316-1.236c-.17 0-1.004 1.066-1.02 1.236a.401.401 0 0 0 .109.293l.108 1.081s-.124.24-.031.46c.093.22.463.22.463.22l-.139.467s.03.52.124.614c.036.036.218.061.422.024.178-.033.227-.292.219-.417.057.093.25 0 .25 0 .02.22.248.383.248.383s.328 1.322.374 1.492c.046.17.34.602.772.757.039.014.074.029.107.045.316 1.185 2.503 9.335 2.964 9.882.497.59 1.844.96 3.055.899 1.212-.062 1.572-2.788 1.51-3.688Z"/><path fill="#D2B0A5" d="M31.577 22.85c0 .006-.117.014-.305.02a25.895 25.895 0 0 1-1.142.01 5.227 5.227 0 0 1-.178-.007.264.264 0 0 0-.14.032c-.081.042-.138.094-.176.128-.039.035-.059.057-.062.055a.704.704 0 0 1 .224-.21.299.299 0 0 1 .156-.042c.055.002.114.002.176.002h1.141c.19.002.306.006.306.012Z"/><path fill="#D2B0A5" d="M30.93 22.85c0 .005-.05-.008-.117-.054a1.222 1.222 0 0 1-.23-.208l-.025-.028.037-.024a.136.136 0 0 1 .003.095.278.278 0 0 1-.039.071.555.555 0 0 1-.188.158c-.003-.005.03-.034.078-.085a.683.683 0 0 0 .077-.095c.024-.037.046-.086.029-.125l-.063-.14.1.117.024.027c.079.089.156.164.216.212.06.05.102.073.099.08Zm.492.964c0 .007-.102.006-.266.01-.164.005-.39.017-.64.038-.25.016-.466.087-.608.166-.143.077-.22.146-.225.14-.002-.002.015-.021.05-.052a1.1 1.1 0 0 1 .16-.115c.14-.088.365-.167.619-.183.25-.022.479-.028.644-.025.165.003.267.016.266.021Z"/><path fill="#D2B0A5" d="M30.408 23.85c.002.01-.142.014-.277-.09-.133-.105-.165-.244-.155-.245.014-.006.063.117.183.21.12.094.252.111.249.126Zm.993.602a.551.551 0 0 1-.178.091 2.82 2.82 0 0 1-.47.113 2.31 2.31 0 0 0-.46.12c-.113.046-.175.09-.18.083a.498.498 0 0 1 .168-.112c.111-.056.28-.102.464-.135.186-.033.351-.064.468-.1.116-.033.185-.067.188-.06Zm-.863.875c.003-.005.046.01.103.06a.386.386 0 0 1 .13.254.256.256 0 0 1-.03.16.353.353 0 0 1-.083.102c-.06.047-.11.048-.11.043-.003-.007.041-.02.089-.067a.393.393 0 0 0 .067-.097.229.229 0 0 0 .023-.137.407.407 0 0 0-.108-.236c-.048-.05-.085-.077-.08-.082Z"/><path fill="#D2B0A5" d="M31.184 25.259c.006.002-.005.038-.03.093a.46.46 0 0 1-.147.187.266.266 0 0 1-.128.048.218.218 0 0 1-.11-.018c-.06-.028-.074-.07-.07-.071.005-.005.029.025.082.042a.229.229 0 0 0 .2-.038c.07-.049.114-.117.146-.166.031-.05.052-.08.057-.077Z"/><path fill="#D2B0A5" d="M31.378 25.919c.001.005-.036.018-.099.011a.347.347 0 0 1-.214-.11.346.346 0 0 1-.088-.226c0-.063.018-.099.023-.098.006.002.001.039.01.096a.376.376 0 0 0 .088.197.377.377 0 0 0 .187.11c.056.014.093.012.093.02Z"/><path fill="#C79A1F" d="M35.05 22.076c-.01.009-.153-.14-.287-.354-.136-.212-.21-.404-.198-.409.01-.005.101.176.236.385.133.211.257.37.248.378Z"/><path fill="#C79A1F" d="M35.142 21.937c-.46.267-.928.523-1.402.764l-.008.006c-.02.026 0 .068.031.08.031.011.066.002.097-.01.08-.029.154-.072.228-.114l.935-.533a.32.32 0 0 0 .1-.075c.026-.033.039-.08.019-.118Z"/><path fill="#F4D5C9" d="M21.254 35.886 19.74 38.22l-.081-2.938-4.226.353c-.008.115.303 3.572.772 6.556.205 1.301 1.53 2.288 2.848 2.288a2.675 2.675 0 0 0 2.424-1.543l2.59-6.484-2.813-.567Z"/><path fill="#fff" d="M24.388 26.684c-.006-.04.128-.585.128-.585s6.566-.328 6.58-.32l.396.239-7.104.666Z"/><path fill="#263138" d="m24.385 26.684.038-.005.108-.012.413-.042 1.519-.15 5.024-.48-.01.042-.219-.132-.122-.074c-.02-.01-.04-.029-.061-.031a.532.532 0 0 1-.06.004l-.28.013-.555.026-1.067.05-1.926.092-2.673.123.008-.007-.106.432c-.023.099-.031.151-.031.151a.645.645 0 0 1 .022-.153c.02-.1.053-.246.098-.434l.001-.006h.007l2.672-.143 1.926-.098 1.067-.052.554-.026.282-.013h.082c.025.005.042.023.063.033l.122.074.22.132.058.035-.068.006-5.042.464-1.514.135-.41.035-.105.009-.035.002Z"/><path fill="#fff" d="m24.421 26.792-.035-.108-.087-.548-6.154-1.255-.6.451.903 7.989 6.254 1.557-.281-8.086Z"/><path fill="#263138" d="m24.42 26.792.002.037.006.111.018.436.063 1.648.211 5.853.001.027-.026-.007-6.255-1.555-.015-.003-.002-.016c-.02-.188-.044-.392-.067-.596l-.831-7.393-.002-.011.01-.007.599-.45.006-.006.009.002 6.152 1.267.004.001v.005l.084.548c.03.095.032.109.032.109l-.036-.108-.091-.547.005.005L18.14 24.9l.015-.004-.599.451.008-.018.837 7.393.067.596-.017-.02 6.254 1.56-.024.02-.195-5.85-.052-1.65-.012-.437-.003-.112v-.037Z"/><path fill="#445962" d="m17.311 25.266.58 8.07 6.811 1.413 6.868-1.235.08-7.525-6.844.388s-.042.307-.543.295l-.338-.115-6.27-1.225-.344-.066Z"/><path fill="#263138" d="M24.986 35.108c-.013 0-.063-1.954-.112-4.364-.05-2.412-.079-4.366-.066-4.367.012 0 .062 1.954.111 4.366.05 2.41.08 4.365.067 4.365Zm-.877-.23-.003-.021-.005-.063c-.004-.059-.01-.14-.015-.242-.013-.21-.026-.515-.042-.891-.03-.753-.06-1.793-.082-2.942a237.497 237.497 0 0 1-.042-3.835l.002-.242.002-.063c0-.015 0-.022.002-.022a3.716 3.716 0 0 1 .005.084l.007.243.017.892.052 2.942c.022 1.149.046 2.189.068 2.941l.028.892.007.242v.063l-.001.022Z"/><path fill="#F7BB9B" d="m23.258 37.49-.027.012a.426.426 0 0 1 .027-.011Zm.011-.004-.003.001.003-.001Zm-.008.004h-.003.003Z"/><path fill="#F4D5C9" d="M26.359 32.864c.333-.33.66-.664.735-.786.164-.267-.103-.452-.288-.534-.185-.083-2.612 1.994-2.612 1.994s2.036-1.81 2.16-1.933c.123-.123.205-.288.082-.617-.124-.328-.515-.205-.659-.184-.144.02-2.447 1.953-2.447 1.953s1.337-1.296 1.46-1.398c.124-.103.165-.288.124-.535-.042-.247-.309-.226-.494-.226-.184 0-3.078 2.57-3.078 2.57l.138 1.357-.49 2.079 2.279.882c.39-.164 1.131-1.127 1.275-1.316.144-.188.966-1.583.966-1.583.329-.185.802-.925.987-1.131.185-.206.123-.308.02-.473-.055-.088-.592.341-1.077.757l.11-.099c.002 0 .41-.384.809-.777Z"/><path fill="#D2B0A5" d="M22.225 33.705c.003.004-.042.039-.128.06a.503.503 0 0 1-.572-.289c-.034-.082-.033-.138-.028-.138.007-.002.017.05.057.124a.534.534 0 0 0 .225.222.54.54 0 0 0 .312.05c.083-.012.131-.035.134-.029Zm.939.775c.001.004-.045.018-.121.01a.47.47 0 0 1-.403-.387c-.012-.076 0-.123.005-.122.007 0 .007.046.026.115.018.068.06.16.137.235a.517.517 0 0 0 .24.127c.07.016.116.014.116.022Zm1.041.78c0 .004-.056.01-.143-.014a.614.614 0 0 1-.441-.497c-.013-.089 0-.144.004-.143.007 0 .007.054.027.137.02.082.064.194.15.29a.677.677 0 0 0 .27.183c.08.03.134.036.133.043Zm-4.134 2.496c.01.007-.47.755-1.073 1.67-.603.916-1.1 1.652-1.11 1.646-.01-.007.47-.755 1.073-1.67.602-.916 1.1-1.653 1.11-1.646Z"/><path fill="#263138" d="m27.545 28.848-.05.578-.086.01-.277-.37-.034.405-.105.012.05-.579.086-.01.277.37.034-.405.105-.011Zm.088.326a.333.333 0 0 1 .309-.38c.17-.019.282.068.298.211a.333.333 0 0 1-.308.38c-.17.02-.282-.068-.299-.211Zm.502-.15c-.01-.093-.079-.149-.192-.136-.143.016-.219.137-.204.268.01.093.078.15.191.137.143-.017.22-.138.205-.269Zm.344-.192-.188.022.008-.091.48-.055-.008.092-.188.02-.04.488-.106.012.042-.488Zm.476-.054-.013.15.275-.03-.008.088-.275.03-.013.16.32-.036-.008.09-.424.049.049-.579.413-.047-.008.09-.308.035Zm.355.385.036-.088a.302.302 0 0 0 .19.041c.083-.01.133-.045.127-.095-.012-.105-.29-.018-.311-.2-.013-.112.08-.194.226-.21a.359.359 0 0 1 .194.026l-.032.087a.278.278 0 0 0-.158-.026c-.086.01-.133.05-.128.1.012.106.292.022.312.195.013.112-.08.195-.23.212a.365.365 0 0 1-.226-.042Zm.914.242c.002.012-.803.14-1.797.286-.996.145-1.803.253-1.805.241-.002-.012.803-.14 1.798-.286.994-.145 1.802-.253 1.804-.241Zm.064.346c.002.013-.723.137-1.618.278-.895.142-1.623.247-1.625.234-.002-.012.722-.137 1.618-.278.895-.141 1.623-.246 1.625-.234Z"/><path fill="#382B22" d="M24.382 16.47c.035-.045.293.106.635.07.342-.03.576-.228.617-.191.02.016-.012.094-.114.183a.89.89 0 0 1-1 .097c-.113-.069-.156-.139-.138-.159Zm3.461-.194c.041-.036.258.156.587.184.328.033.584-.115.616-.072.016.02-.028.088-.14.156a.843.843 0 0 1-.961-.09c-.094-.086-.122-.161-.102-.178Z"/></g></g><defs><clipPath id="a"><rect width="48" height="48" fill="#fff" rx="24"/></clipPath><clipPath id="b"><path fill="#fff" d="M0 0h48v48H0z"/></clipPath></defs></svg>