<svg width="48" height="48" fill="none" xmlns="http://www.w3.org/2000/svg"><g clip-path="url(#a)"><rect width="48" height="48" rx="24" fill="#fff"/><path d="M29.673 28.56c.22-1.661-.947-3.031-2.406-3.855-1.459-.823-3.151-1.098-4.762-1.556-1.52-.432-3.031-1.062-4.157-2.17-1.125-1.109-1.8-2.775-1.396-4.302.102-.384.283-.769.613-.99.33-.221.832-.215 1.077.096.523.663-.496 1.852.142 2.405.147.127.348.174.5.295.403.321.273.947.33 1.46.113 1.015 1.064 1.72 1.998 2.13 1.252.551 2.608.81 3.935 1.136 1.328.327 2.667.738 3.773 1.542 1.107.803 2.066 2.061 2.058 3.429-.002.382-.05.852-.29 1.149-.24.297-.546.359-.891.196-.346-.162-.588-.414-.524-.966ZM22.615 15.36c-.052-.616.406-1.151.927-1.438.521-.287 1.118-.404 1.655-.658 1.334-.633 2.182-2.12 2.245-3.648.062-1.526-.6-3.052-1.635-4.173-.42-.455-.938-.933-.944-1.554-.007-.649.623-1.16 1.25-1.152.63.009 1.208.43 1.584.958.376.529.585 1.16.787 1.779-.145-.259.152-.58.438-.552.285.028.51.266.687.503a5.362 5.362 0 0 1 1.027 3.59c-.105 1.261-.687 2.462-1.597 3.291-1.017.926-2.361 1.361-3.665 1.773l-2.721.858M21.858 2.436a.598.598 0 0 0-.317.73.597.597 0 0 0 .717.349.598.598 0 0 0 .379-.701.598.598 0 0 0-.684-.41M25.214 42.132c-.333-.692-.042-1.554.49-2.108.53-.554 1.256-.87 1.96-1.18 1.55-.683 3.192-1.497 3.98-2.997.267-.506.418-1.063.568-1.615.29-1.067.56-2.28-.021-3.22-.168-.271-.42-.512-.733-.567-.357-.064-.723.133-.943.42-.22.289-.314.654-.36 1.013-.087.683-.015 1.379-.087 2.065-.072.685-.322 1.402-.888 1.796-.686.479-1.666.371-2.333.877-.539.408-.743 1.116-1.164 1.645-.354.444-.85.748-1.303 1.09-.454.341-.893.758-1.047 1.305-.16.568.04 1.22.491 1.601.451.38 1.128.468 1.661.215M14.9 7.209a2.185 2.185 0 0 1-.868-1.763c.012-.68.369-1.345.93-1.73.316-.218.692-.351.974-.613.25-.233.413-.555.693-.751a1.038 1.038 0 0 1 1.191.025c.338.258.481.742.339 1.142-.13.362-.454.626-.59.985-.145.387-.052.82-.106 1.23-.067.503-.372.97-.807 1.231-.435.262-.991.314-1.467.137" fill="#F2BD8D" opacity=".4"/><path d="M43.479 46.51c-.039 0-.07-.028-.07-.063v-2.85c0-.035.031-.063.07-.063.039 0 .07.028.07.063v2.85c0 .035-.032.063-.07.063Z" fill="#fff"/><path d="M42.37 46.093a.073.073 0 0 1-.049-.019.06.06 0 0 1 0-.09l2.217-2.015a.075.075 0 0 1 .099 0 .06.06 0 0 1 0 .09l-2.217 2.015a.073.073 0 0 1-.05.019Z" fill="#fff"/><path d="M45.047 45.085h-3.135c-.04 0-.07-.028-.07-.063s.03-.064.07-.064h3.135c.038 0 .07.029.07.064s-.032.063-.07.063Z" fill="#fff"/><path d="M44.587 46.093a.073.073 0 0 1-.049-.019l-2.217-2.015a.06.06 0 0 1 0-.09.075.075 0 0 1 .099 0l2.217 2.015a.06.06 0 0 1 0 .09.073.073 0 0 1-.05.019ZM45.188 21.333c-.024 0-.044-.018-.044-.04v-1.84c0-.022.02-.04.044-.04.025 0 .045.018.045.04v1.84c0 .022-.02.04-.045.04Z" fill="#fff"/><path d="M44.473 21.064a.048.048 0 0 1-.032-.012.038.038 0 0 1 0-.058l1.431-1.3a.048.048 0 0 1 .064 0 .038.038 0 0 1 0 .058l-1.431 1.3a.046.046 0 0 1-.032.012Z" fill="#fff"/><path d="M46.2 20.414h-2.023c-.025 0-.045-.018-.045-.041 0-.023.02-.041.045-.041H46.2c.025 0 .045.018.045.04 0 .023-.02.042-.045.042Z" fill="#fff"/><path d="M45.904 21.064a.048.048 0 0 1-.032-.012l-1.43-1.3a.038.038 0 0 1 0-.058.048.048 0 0 1 .063 0l1.43 1.3a.038.038 0 0 1 0 .058.047.047 0 0 1-.03.012ZM44.132 37.163a2.493 2.493 0 1 0 0-4.986 2.493 2.493 0 0 0 0 4.986ZM12.711 6.684c-.05 0-.09-.036-.09-.082V2.924c0-.046.04-.082.09-.082.05 0 .09.036.09.082v3.678c0 .045-.04.082-.09.082Z" fill="#fff"/><path d="M11.28 6.145a.093.093 0 0 1-.063-.024.077.077 0 0 1 0-.115l2.861-2.602a.097.097 0 0 1 .128 0 .077.077 0 0 1 0 .116l-2.862 2.601a.096.096 0 0 1-.064.024Z" fill="#fff"/><path d="M14.735 4.844h-4.047c-.05 0-.09-.036-.09-.081 0-.046.04-.082.09-.082h4.047c.05 0 .09.036.09.082 0 .045-.04.081-.09.081Z" fill="#fff"/><path d="M14.142 6.145a.094.094 0 0 1-.063-.024L11.216 3.52a.077.077 0 0 1 0-.116.097.097 0 0 1 .127 0l2.862 2.602a.077.077 0 0 1 0 .115.096.096 0 0 1-.064.024ZM4.363 42.644l.141.236c.16.264.391.478.668.615l.247.121-.236.142c-.264.16-.478.39-.615.668l-.121.246-.142-.235a1.613 1.613 0 0 0-.668-.615l-.246-.122.235-.141c.265-.16.478-.391.615-.668l.122-.247ZM32.504 3.703l.1.166c.113.187.277.338.472.435l.175.086-.167.1a1.142 1.142 0 0 0-.435.473l-.086.174-.1-.167a1.141 1.141 0 0 0-.472-.434l-.175-.087.167-.1c.187-.113.338-.277.435-.472l.086-.174Z" fill="#fff"/><path d="M18.277 35.604c-.41.119-.863.328-.709.71.155.382 1.273 1.075 3.743.978l1.142-.12.486-1.045c.904-2.301.618-3.585.308-3.857-.31-.272-.657.088-.904.436-.247.347-.48.795-.579.762-.098-.032-.147-.108-.127-.306.02-.198.244-2.004-.329-2.427-.573-.423-1.388.833-1.541.978-.154.145-.253-.026-.263-.15a82.585 82.585 0 0 1-.144-2.182c-.026-.645-.22-1.055-.624-1.105-.389-.048-.596.59-.782.832-.186.243-.44-.044-.44-.044s-.431-.83-1.445-2.23c-1.014-1.399-1.595-.863-1.595-.863" fill="#EBEBEB"/><path d="M14.486 25.964s-.679.367.31 1.784c.987 1.417 1.63 2.098 1.63 2.098s.187.334-.103.43c-.29.097-.961.083-1.044.466-.085.397.239.716.839.952s1.895.802 2.012.853c.115.05.244.201.056.298-.187.097-1.641.455-1.43 1.135.211.68 1.99 1.063 2.184 1.109" fill="#EBEBEB"/><path d="M22.548 37.432c-.74-1.031-2.025-2.884-3.137-4.47a833.135 833.135 0 0 0-2.853-4.054l-.871-1.223-.237-.333-.061-.087-.02-.03.023.028.063.085.243.329c.21.286.51.702.88 1.217a468.57 468.57 0 0 1 2.863 4.048c1.111 1.586 2.393 3.441 3.128 4.475" fill="#E0E0E0"/><path d="M16.217 30.799c0-.003.03.001.082.01a17.393 17.393 0 0 1 .945.223l.719.193.218.057c.052.014.08.022.08.024a.372.372 0 0 1-.082-.01 4.811 4.811 0 0 1-.222-.047c-.186-.042-.44-.108-.722-.182l-.72-.188-.22-.056a.359.359 0 0 1-.078-.024ZM18.329 31.223c-.01-.002.096-.535.237-1.191.14-.656.261-1.187.271-1.184.01.002-.096.535-.237 1.191-.14.656-.262 1.186-.271 1.184ZM19.925 33.735a.39.39 0 0 1 .037-.077l.109-.202a18.195 18.195 0 0 0 .665-1.366l.092-.21a.402.402 0 0 1 .038-.077c.002.001-.007.03-.025.081a10.255 10.255 0 0 1-.867 1.78.403.403 0 0 1-.049.07ZM17.93 33.772c0-.003.028-.006.078-.01l.213-.012a39.245 39.245 0 0 1 1.617-.045c.05 0 .078.002.078.004a.308.308 0 0 1-.077.01l-.213.012a39.245 39.245 0 0 1-1.617.045.384.384 0 0 1-.078-.004ZM19.059 36.168a.52.52 0 0 1 .1-.012l.272-.016a68.029 68.029 0 0 1 2.072-.08c.064 0 .1.001.1.004a.54.54 0 0 1-.1.01l-.271.018a69.988 69.988 0 0 1-2.073.078c-.064.001-.1 0-.1-.002ZM21.542 36.05a.594.594 0 0 1 .044-.099l.13-.262a29.697 29.697 0 0 0 .796-1.755l.111-.27a.616.616 0 0 1 .045-.097c.003 0-.009.037-.032.102a16.382 16.382 0 0 1-.475 1.164 17.181 17.181 0 0 1-.563 1.125.674.674 0 0 1-.056.091Z" fill="#E0E0E0"/><path d="M31.122 20.845c-1.226-1.375-1.108-3.36-.644-5.06.077-.283.117-.592.313-.81.195-.22.554-.316.78-.135.19.15.223.42.294.652.094.31.276.59.52.8.159.137.37.248.574.192.279-.078.389-.412.454-.696l.367-1.593c.066-.285.134-.576.286-.825.152-.249.407-.453.696-.465.288-.012.586.223.577.515-.004.122-.056.236-.076.356-.02.12.004.264.108.324.106.06.239.006.343-.057.362-.218.649-.54.922-.864.274-.324.543-.658.884-.908.34-.25.768-.411 1.181-.338.413.073.787.427.796.852.008.425-.322.777-.654 1.041a6.53 6.53 0 0 1-1.62.947c-.105.043-.219.088-.278.186-.106.175.029.405.201.512.195.121.43.153.646.232.216.079.433.233.467.463.048.318-.267.566-.554.709a5.591 5.591 0 0 1-1.83.548c-.227.027-.463.042-.667.149-.203.107-.365.338-.311.563.054.225.3.35.53.362.228.011.453-.061.68-.09.426-.056.925.09 1.095.488.112.261.053.574-.093.819s-.369.433-.598.6c-.8.587-1.742.99-2.724 1.089-.981.1-1.841-.015-2.665-.558Z" fill="#F5F5F5"/><path d="M31.371 21.01c.223-.663-.01-.33.449-1.134.456-.805 1.03-1.646 1.661-2.504l.47-.635c.154-.207.307-.413.47-.606.323-.386.663-.732.996-1.051.333-.32.66-.61.969-.88.309-.269.601-.514.878-.727a10.337 10.337 0 0 1 1.774-1.11l.105-.05a.206.206 0 0 1 .036-.016 21.534 21.534 0 0 1-.136.076c-.09.048-.223.12-.391.215-.337.192-.817.487-1.364.916a28.979 28.979 0 0 0-1.836 1.612c-.332.319-.67.664-.99 1.049-.162.191-.313.396-.468.604l-.469.634c-.63.858-1.204 1.696-1.662 2.497-.46.8-.228.462-.455 1.123" fill="#E0E0E0"/><path d="M34.436 16.133a.601.601 0 0 1 0-.128c.004-.082.014-.201.028-.347.026-.293.077-.696.135-1.14a18.48 18.48 0 0 0 .15-1.485.593.593 0 0 1 .013-.128c.004 0 .006.046.008.128s0 .201-.008.348c-.012.294-.052.699-.11 1.143l-.15 1.138-.044.345a.612.612 0 0 1-.022.126Z" fill="#E0E0E0"/><path d="M38.255 16.316a.847.847 0 0 1-.15-.017c-.097-.014-.235-.035-.407-.055-.343-.043-.82-.087-1.348-.111a19.583 19.583 0 0 0-1.353-.015c-.173.003-.313.01-.41.014a.822.822 0 0 1-.152 0c0-.003.053-.01.15-.021.097-.01.237-.023.411-.031.347-.02.828-.025 1.357-.001.53.024 1.008.073 1.351.127.172.025.31.052.405.072a.79.79 0 0 1 .146.038ZM31.88 19.82a.202.202 0 0 1-.015-.051l-.031-.147c-.027-.128-.06-.314-.099-.545-.077-.46-.164-1.1-.25-1.808a84.085 84.085 0 0 0-.234-1.809l-.081-.546-.022-.15a.196.196 0 0 1-.004-.052c.002 0 .007.017.015.051l.031.147c.027.128.06.314.099.545.077.46.164 1.1.25 1.808.086.707.166 1.347.234 1.809l.081.546.021.15a.173.173 0 0 1 .004.052ZM37.111 19.404a.198.198 0 0 1-.053.009l-.152.014-.56.045c-.474.039-1.127.1-1.848.167-.722.068-1.376.122-1.85.15-.237.015-.429.025-.562.029l-.153.003c-.035 0-.053 0-.053-.002s.018-.005.053-.009l.152-.014.56-.045c.474-.038 1.127-.099 1.848-.167a58.82 58.82 0 0 1 1.85-.151c.236-.014.428-.024.561-.028l.153-.004c.035 0 .053.001.054.003ZM41.169 29.889s-.005.017-.018.048l-.056.137-.22.518-.794 1.837-.005.01-.012.002c-.732.121-1.586.263-2.495.412l-.836.137-.039.006.01-.037.55-2.169.011.024-1.466-.655-.405-.185-.105-.05a.16.16 0 0 1-.035-.019l.038.014.108.044.409.174 1.473.639.016.007-.005.017-.54 2.171-.029-.031.837-.137 2.496-.406-.017.013c.334-.752.613-1.383.81-1.83l.231-.512c.027-.056.048-.1.063-.135.015-.029.023-.044.025-.044Z" fill="#E0E0E0"/><path d="m37.025 32.697-.068.179.109.158-.192-.01-.116.153-.05-.185-.182-.064.16-.105.005-.192.15.12.184-.054ZM35.312 29.786l-.034.09.054.077-.095-.004-.058.076-.025-.092-.09-.032.08-.052.002-.096.074.06.092-.027ZM40.15 32.316l-.033.09.054.078-.096-.004-.058.076-.024-.092-.09-.032.08-.052.002-.096.074.06.091-.028ZM37.358 30.71l-.033.09.054.077-.096-.004-.058.076-.024-.093-.09-.031.08-.052.002-.096.074.06.091-.027ZM41.285 29.8l-.034.089.054.079-.096-.005-.057.076-.026-.092-.09-.032.08-.052.002-.096.075.06.092-.027ZM10.059 37.297h5.393s-.477-.868-1.865-.742c-1.326.12-1.394-.427-2.068-.494-.674-.068-1.236.45-1.46 1.236Z" fill="#E0E0E0"/><path d="M38.52 19.813h4.432s-.392-.713-1.533-.61c-1.09.1-1.145-.35-1.698-.406-.554-.055-1.016.37-1.2 1.016Z" fill="#F5F5F5"/><path d="m25.939 40.677 5.752.246.139.335-3.77 6.12-6.806-.199 4.685-6.502Z" fill="#3E1F18"/><path d="m20.995 46.583 6.847.39 3.576-5.549-2.51.204-6.357 2.238-1.556 2.717Z" fill="#E0E0E0"/><path d="m20.034 46.171 6.288.1c-.262-.805.354-1.938 1.2-2.319.56-.252 1.614-.58 2.158-.859 1.034-.53 1.967-1.534 1.886-2.396l-2.583-.082-3.296-.128c-.275.818-.865 1.354-1.761 1.676-.802.289-1.715.288-2.497.615-1.259.528-1.863 2.236-1.395 3.393Z" fill="#EBEBEB"/><path d="m20.034 46.171-.017-.04-.043-.122c-.021-.053-.034-.122-.053-.203-.023-.081-.03-.178-.043-.286a2.892 2.892 0 0 1 .05-.8c.063-.308.185-.656.402-.998.057-.084.111-.172.181-.253.035-.04.067-.084.103-.124l.116-.118c.038-.041.081-.077.126-.113.045-.035.088-.074.135-.108.099-.062.194-.134.306-.183.436-.22.956-.312 1.498-.41.272-.05.552-.102.833-.18.28-.078.561-.185.829-.333a2.727 2.727 0 0 0 .73-.578c.211-.239.37-.53.478-.843l.005-.017.018.001 2.746.105c.952.037 1.939.063 2.948.097l.184.006.023.001.001.022c.018.2-.019.398-.083.582-.03.093-.074.18-.115.268-.048.083-.094.169-.15.247-.214.32-.489.588-.78.823a4.61 4.61 0 0 1-.94.581c-.33.149-.667.27-.996.392-.328.122-.653.237-.962.372-.152.07-.297.15-.423.257-.067.047-.123.108-.184.16-.054.062-.114.116-.161.181a2.329 2.329 0 0 0-.44.827 1.53 1.53 0 0 0-.015.88l.008.027h-.028l-4.573-.082-1.268-.025-.332-.009c-.076-.001-.114-.004-.114-.004l.113-.001.333.002 1.268.014 4.573.063-.02.028a1.571 1.571 0 0 1 .013-.905c.086-.301.24-.589.447-.843.048-.066.109-.122.164-.185.062-.054.12-.116.187-.165.129-.108.278-.191.433-.263.312-.136.636-.252.965-.374.328-.122.664-.244.992-.392a4.56 4.56 0 0 0 .93-.575c.286-.233.557-.499.768-.813.055-.076.1-.16.147-.242.04-.086.084-.17.112-.26.062-.18.097-.37.08-.56l.025.023-.184-.006c-1.01-.034-1.996-.06-2.948-.098l-2.746-.108.023-.016a2.52 2.52 0 0 1-.488.858 2.762 2.762 0 0 1-.744.586c-.271.15-.556.257-.839.336a9.42 9.42 0 0 1-.836.177c-.542.096-1.06.188-1.49.402-.11.047-.204.118-.302.179-.047.033-.09.071-.133.106-.044.035-.087.07-.125.11-.038.04-.077.078-.115.116-.036.04-.068.083-.102.123-.07.079-.124.166-.18.249a2.917 2.917 0 0 0-.462 1.78c.011.109.017.205.039.286.017.081.029.15.05.203l.039.122c.01.029.012.043.012.043Z" fill="#3E1F18"/><path d="M27.454 40.59c-.005-.002.008-.04.014-.113a.638.638 0 0 0-.347-.615.685.685 0 0 0-.53-.02.694.694 0 0 0-.382.37.763.763 0 0 0 .047.72c.039.061.068.09.065.093-.002.002-.036-.022-.082-.081a.7.7 0 0 1-.126-.288.78.78 0 0 1 .053-.464.731.731 0 0 1 .407-.397.722.722 0 0 1 .569.025c.164.08.263.222.31.347a.61.61 0 0 1 .015.396c-.007.018-.011.027-.013.027Z" fill="#3E1F18"/><path d="M28.439 40.59c-.004-.002.009-.04.014-.113a.637.637 0 0 0-.346-.615.685.685 0 0 0-.53-.02.694.694 0 0 0-.383.37.759.759 0 0 0 .047.72c.04.061.068.09.065.093a.279.279 0 0 1-.081-.081.701.701 0 0 1-.127-.288.78.78 0 0 1 .053-.464.731.731 0 0 1 .408-.397.722.722 0 0 1 .568.025c.164.08.264.222.31.347a.608.608 0 0 1 .015.396c-.007.018-.011.027-.013.027Z" fill="#3E1F18"/><path d="M29.187 40.64c-.004 0 .006-.04.008-.112a.639.639 0 0 0-.38-.595.687.687 0 0 0-.53.011.695.695 0 0 0-.362.39.76.76 0 0 0 .088.716c.042.059.072.086.07.09a.291.291 0 0 1-.087-.077.702.702 0 0 1-.142-.28.779.779 0 0 1 .026-.467.733.733 0 0 1 .385-.42.723.723 0 0 1 .569-.007.637.637 0 0 1 .33.33c.055.123.06.236.053.31a.384.384 0 0 1-.028.112Z" fill="#3E1F18"/><path d="M29.99 40.687c-.005-.001.004-.041.002-.114a.631.631 0 0 0-.082-.29.61.61 0 0 0-.33-.283.686.686 0 0 0-.53.039.693.693 0 0 0-.34.408.762.762 0 0 0 .126.71c.046.057.078.083.075.086-.002.002-.038-.018-.09-.072a.701.701 0 0 1-.157-.273.775.775 0 0 1 .002-.466.732.732 0 0 1 .362-.44c.186-.094.399-.1.568-.037a.637.637 0 0 1 .346.311.605.605 0 0 1 .057.392c-.004.02-.008.029-.009.029Z" fill="#3E1F18"/><path d="M30.794 40.668c-.005-.001.002-.042-.002-.114a.635.635 0 0 0-.09-.287.61.61 0 0 0-.338-.275.687.687 0 0 0-.527.054.694.694 0 0 0-.329.417.762.762 0 0 0 .146.708c.047.055.08.08.077.084a.281.281 0 0 1-.092-.07.701.701 0 0 1-.165-.268.78.78 0 0 1-.011-.467.732.732 0 0 1 .35-.45.725.725 0 0 1 .566-.053.636.636 0 0 1 .355.302.61.61 0 0 1 .069.39c-.004.02-.008.029-.01.029Z" fill="#3E1F18"/><path d="M31.47 40.758c-.004-.001.005-.041.004-.114a.637.637 0 0 0-.078-.29.61.61 0 0 0-.327-.288.687.687 0 0 0-.53.033.694.694 0 0 0-.345.404.758.758 0 0 0 .118.713c.045.056.076.083.073.086a.283.283 0 0 1-.088-.074.698.698 0 0 1-.155-.274.78.78 0 0 1 .008-.466.732.732 0 0 1 .367-.436.723.723 0 0 1 .569-.03.636.636 0 0 1 .342.315.61.61 0 0 1 .066.307.414.414 0 0 1-.023.114Z" fill="#3E1F18"/><path d="M34.435 19.654a5.658 5.658 0 0 0-.852.038c-1.775.22-3.098 1.745-3.095 3.534.001.521.057 1.104.22 1.684.495 1.757.648 3.306.591 4.06l1.659.892s.768-1.103 1.509-1.578c.742-.476 3.21-1.748 4.188-3.056.63-.843.751-2.572-.75-4.085a5.088 5.088 0 0 0-3.47-1.49Z" fill="#F2BD8D"/><path d="m30.515 30.89 1.498.81-.975 1.237-.999-.453.476-1.595Z" fill="#9F664E"/><path d="M30.588 30.94c-.014-.006.135-.45.332-.994s.366-.98.38-.976c.013.005-.136.45-.332.994-.197.543-.367.98-.38.975ZM31.918 31.638c-.012-.007.223-.427.525-.938.302-.511.556-.92.568-.912.012.007-.222.427-.524.938-.302.51-.557.92-.569.912Z" fill="#263138"/><path d="M34.935 19.7c-.067.004-.892.97-1.257 1.622-1.226 2.198-1.281 4.336-1.622 6.829a17.554 17.554 0 0 1-.222 1.106c.181.142.792.425.792.425s.575-.694.804-1.043c.915-1.399 1.909-2.49 2.693-3.966s1.538-2.785.812-4.292c0 .001-1.256-.722-2-.68Z" fill="#F2BD8D"/><path d="M38.662 25.449a.279.279 0 0 1-.022-.048c-.013-.03-.029-.08-.057-.139a2.537 2.537 0 0 0-.926-1.08 2.424 2.424 0 0 0-1.044-.387l-.01-.001-.005-.008a5.823 5.823 0 0 0-.67-.769 3.361 3.361 0 0 0-.913-.629 2.365 2.365 0 0 0-1.08-.206c-.355.018-.688.13-.946.315l-.015.011-.014-.012a1.829 1.829 0 0 0-1.868-.34 1.908 1.908 0 0 0-.608.375.29.29 0 0 1-.04.033l.035-.039a1.814 1.814 0 0 1 .604-.394 1.83 1.83 0 0 1 .872-.122c.34.036.718.176 1.036.452l-.03-.001c.265-.191.607-.308.97-.328a2.4 2.4 0 0 1 1.104.21c.356.16.665.39.927.639.262.25.481.518.672.777l-.016-.01a2.524 2.524 0 0 1 1.697 1.01c.145.2.23.376.28.498.026.06.04.11.052.143l.015.05ZM35.579 27.638c-.01.004-.008-.15-.143-.36a.983.983 0 0 0-.319-.306.892.892 0 0 0-.549-.13l-.02.002-.004-.02a1.45 1.45 0 0 0-.272-.641 1.429 1.429 0 0 0-1.258-.577c-.21.015-.407.075-.573.162l-.016.008-.012-.012a1.042 1.042 0 0 0-.576-.312 1.152 1.152 0 0 0-.516.016c-.284.077-.404.214-.41.203l.022-.022c.016-.013.037-.036.07-.058a1.02 1.02 0 0 1 .31-.15c.143-.04.327-.065.531-.027.203.033.427.134.603.319l-.028-.005a1.5 1.5 0 0 1 1.257-.07c.265.103.482.289.636.496.155.208.244.443.276.663l-.024-.018a.92.92 0 0 1 .572.143.986.986 0 0 1 .321.322.877.877 0 0 1 .11.272c.007.032.009.059.01.076a.092.092 0 0 1 .002.026ZM31.724 32.089c-.004.003-.017-.02-.055-.037a.267.267 0 0 0-.175.006c-.038.01-.081.024-.133.024a.209.209 0 0 1-.148-.065c-.08-.083-.11-.203-.185-.285a.172.172 0 0 0-.138-.059c-.052.003-.104.02-.156.031a.349.349 0 0 1-.157.009.277.277 0 0 1-.122-.063.29.29 0 0 1-.1-.166c-.007-.046 0-.072.003-.071.005 0 .004.025.017.066.013.04.044.097.103.143.029.022.066.042.108.05.041.007.088 0 .137-.013.05-.013.103-.032.165-.036a.22.22 0 0 1 .178.073c.087.1.114.217.181.288a.166.166 0 0 0 .116.056c.042.001.084-.01.122-.017.079-.02.152-.013.193.012.041.025.048.054.046.054ZM31.895 31.848c-.006.013-.333-.149-.73-.36-.397-.212-.714-.394-.707-.407.007-.012.334.15.731.361.397.212.713.394.706.406Z" fill="#263138"/><path d="M31.598 32.227c.001.004-.02.01-.057.027-.018.008-.039.02-.067.032a.225.225 0 0 1-.104.013.431.431 0 0 1-.246-.095.342.342 0 0 1-.094-.13c-.023-.048-.04-.098-.073-.134-.068-.073-.18-.08-.271-.078a.628.628 0 0 1-.26-.025.24.24 0 0 1-.132-.12c-.017-.041-.011-.066-.009-.065.005 0 .006.022.026.056a.24.24 0 0 0 .127.096c.065.023.15.017.246.011.094-.005.22-.003.311.09.043.047.06.103.08.15.02.046.046.084.08.113.067.06.15.086.219.095.069.013.119-.016.16-.028.04-.012.063-.011.064-.008Z" fill="#263138"/><path d="m20.286 22.604 2.59-.384-1.238-1.754-.665.039a1.185 1.185 0 0 0-1.093 1.407l.406.692Z" fill="#DB4F58"/><path opacity=".4" d="m20.286 22.604 2.59-.384-1.238-1.754-.665.039a1.185 1.185 0 0 0-1.093 1.407l.406.692Z" fill="#040000"/><path d="M31.415 25.475c.026.074.056.162.085.267.025.09.034.184.028.278a1.257 1.257 0 0 1-.058.342c-.043.098.056.198.14.148.084-.05.208-.317.2-.662-.007-.344.345.069.476.217.13.149.557.588.634.584.114-.006.128-.129-.006-.273-.136-.147-.506-.609-.424-.674.08-.065.736.7.736.7s.114.186.211.113c.175-.13-.582-.891-.656-.962-.051-.049.034-.123.087-.068.054.058.636.778.815.647.138-.1-.617-.632-.654-.848-.038-.217.53.46.658.36.048-.039.078-.073-.305-.415-.186-.166-.892-.66-.892-.66l-2.127-6.089-1.642.94 2.694 6.055ZM18.756 13.962l-2.376-2.836a1.636 1.636 0 0 0-.116-.282c-.119-.222-.315-.414-.56-.468-.151-.033-.324-.017-.442-.116-.053-.044-.088-.108-.143-.148-.056-.042-.148-.05-.184.01-.025.042-.009.096.01.141.088.21.233.394.413.533-.223.067-.541.17-.541.17s-.502-.545-.76-.543c-.257.001.208.486.208.486s-.412-.38-.54-.273c-.127.107.2.39.2.39-.104-.056-.218-.113-.334-.094-.116.02-.216.157-.154.256a.276.276 0 0 0 .105.084l.632.353c.106.059.217.12.338.123.321.01.565-.189.886-.18 0 0 1.792 3.772 1.973 3.966.181.195 4.117.46 4.117.46l2.279-1.963-5.01-.07Z" fill="#F9CBB6"/><path d="m25.893 34.507 2.427 1.057-1.3 3.026c-.281-.142-.19-1.957-.19-1.957l-1.582-.613.645-1.513Z" fill="#C77859"/><path d="M27.101 35.641a.135.135 0 0 1 .178-.025.13.13 0 0 1 .026.176c-.04.053-.14.07-.189.026-.048-.045-.058-.145-.007-.186" fill="#fff" opacity=".6"/><path d="m28.319 35.563-.25-.096-1.152 2.937s0 .16.102.185l1.3-3.026ZM26.794 36.676c.015.005.054-.066.132-.118.078-.054.158-.064.158-.08.003-.015-.095-.03-.19.034-.093.064-.114.16-.1.164ZM26.789 37.05c.012.009.065-.044.149-.068.084-.026.156-.01.162-.024.009-.013-.074-.06-.178-.03s-.147.115-.133.121ZM27.092 37.392c.009-.012-.056-.064-.154-.06-.097.002-.159.058-.149.069.008.014.071-.013.151-.014.08-.003.144.02.152.005Z" fill="#3E1F18"/><path d="M26.449 36.496c.016 0 .025-.077.066-.159.04-.081.096-.134.087-.148-.007-.013-.089.027-.137.123-.048.096-.03.186-.016.184ZM26.121 36.27c.007.002.04-.052.065-.153a.73.73 0 0 0 .01-.286c-.003-.018-.004-.038-.016-.06-.008-.024-.043-.05-.075-.041a.089.089 0 0 0-.062.05.203.203 0 0 0-.016.06.572.572 0 0 0 .023.287c.035.098.08.146.085.142.008-.005-.024-.059-.047-.153a.647.647 0 0 1-.007-.267c.005-.035.017-.063.035-.065.006 0 .009 0 .015.01.006.011.009.028.012.046a.9.9 0 0 1 .005.27c-.014.098-.035.156-.027.16Z" fill="#263138"/><path d="M26.15 36.26c.004-.005-.036-.057-.13-.103a.531.531 0 0 0-.283-.052c-.037.005-.086.01-.118.064-.014.03-.001.064.015.081.016.019.033.029.05.04a.383.383 0 0 0 .287.047c.103-.026.147-.08.142-.084-.005-.008-.056.032-.15.044a.376.376 0 0 1-.25-.053c-.03-.02-.05-.042-.042-.053.006-.015.041-.03.073-.031a.596.596 0 0 1 .262.033c.09.034.138.073.144.066Z" fill="#263138"/><path d="m24.024 38.663 1.004 2.103.314 1.892a.239.239 0 0 0 .457.051c.184-.457.855-2.14.773-2.29-.095-.173-.912-2.288-.912-2.288l-1.636.532Z" fill="#C77859"/><path d="m25.633 42.851.874-2.576.04.09a.358.358 0 0 1 .018.248c-.063.219-.252.82-.76 2.093a.239.239 0 0 1-.172.145Z" fill="#3E1F18"/><path d="M25.763 39.786a.145.145 0 0 0 .041.188c.06.04.15.021.187-.039.038-.06.019-.167-.044-.199-.064-.032-.168-.005-.19.062" fill="#fff" opacity=".6"/><path d="M25.701 41.704c-.009.011-.107-.078-.26-.08-.153-.009-.257.074-.266.062-.004-.004.015-.033.062-.062a.374.374 0 0 1 .206-.052.372.372 0 0 1 .201.066c.045.032.062.062.058.066Z" fill="#3E1F18"/><path d="M25.677 42.057c-.005.014-.105-.025-.229-.007-.124.015-.21.078-.22.067-.01-.008.072-.1.213-.117.142-.02.245.046.236.057Z" fill="#263138"/><path d="M25.82 41.213c-.006.014-.159-.046-.354-.034-.196.008-.341.082-.349.068-.008-.01.136-.11.346-.12.21-.01.364.075.356.086ZM25.568 40.548c0 .015-.14.02-.295.083-.156.06-.26.154-.27.143-.01-.008.083-.125.251-.19.167-.069.316-.049.314-.036ZM25.288 39.923c0 .016-.15-.002-.308.078-.16.076-.238.206-.25.197-.006-.002.006-.04.042-.09a.514.514 0 0 1 .42-.206c.061.002.097.015.096.021ZM24.93 39.88c-.003.002-.02-.025-.04-.079a.619.619 0 0 1-.03-.239c.005-.05.006-.11.053-.166a.096.096 0 0 1 .107-.024c.038.016.061.047.077.08a.337.337 0 0 1-.142.406.39.39 0 0 1-.434-.029c-.027-.024-.053-.057-.052-.1 0-.044.036-.077.07-.086.067-.019.123 0 .172.01.1.026.173.067.22.1.046.033.067.056.065.059-.005.008-.1-.08-.293-.124-.048-.008-.104-.02-.151-.005-.023.008-.038.025-.038.047 0 .02.016.045.038.064a.35.35 0 0 0 .377.02c.121-.072.17-.233.125-.342a.114.114 0 0 0-.051-.06.052.052 0 0 0-.06.014c-.033.035-.04.092-.047.14-.02.196.044.313.034.314Z" fill="#3E1F18"/><path d="m27.406 34.764-2.751-1.852.91-8.942-2.606-1.522-2.383-.552s-.996 2.07-1.438 3.396c-.942 2.82-1.603 3.83-1.451 5.873.048.647 2.436 2.265 3.944 3.164.02.206.047.387.08.535.516 2.33 2.089 5.43 2.089 5.43l2.391-1.112-.771-2.642.803.468 1.183-2.244Zm-5.915-5.766.321-1.433c-.068.911-.13 1.862-.174 2.774a2.834 2.834 0 0 1-.147-1.34Z" fill="#583126"/><path d="M23.8 40.293c-.001 0-.008-.013-.02-.038l-.048-.113-.185-.436c-.159-.38-.387-.93-.66-1.612a68.408 68.408 0 0 1-.923-2.414 18.08 18.08 0 0 1-.236-.709c-.033-.123-.075-.245-.096-.376l-.02-.097-.011-.097-.022-.197a18.984 18.984 0 0 1-.09-1.217c-.005-.139-.01-.28-.003-.42.04-1.123.135-2.188.213-3.158l.215-2.574a77 77 0 0 0 .124-1.737c.013-.205.02-.364.025-.473a13.513 13.513 0 0 1 .01-.165c.002 0 .002.015.002.042 0 .03 0 .071-.002.123-.001.109-.005.268-.015.474a57.827 57.827 0 0 1-.108 1.738l-.204 2.576c-.075.969-.168 2.035-.209 3.155-.008.14-.001.278.004.416a18.923 18.923 0 0 0 .11 1.41l.011.098.018.095c.02.126.063.248.095.37.074.243.153.48.234.709.323.916.643 1.73.911 2.416a2581.317 2581.317 0 0 1 .82 2.057c.02.048.034.087.045.115l.015.039ZM21.96 24.158c-.002.002-.024-.015-.062-.05a.648.648 0 0 1-.117-.188c-.074-.172-.111-.43-.117-.71a6.029 6.029 0 0 1 .075-1.01c.008 0 .005.115-.005.297-.01.183-.024.435-.02.713.007.277.038.528.1.697a.794.794 0 0 0 .146.25ZM20.931 22.03c.005-.001.03.094.02.25a1.159 1.159 0 0 1-.658.965c-.142.067-.24.078-.24.073-.003-.009.09-.033.224-.105.133-.071.305-.2.434-.39.13-.19.187-.397.204-.547.019-.15.007-.245.016-.246ZM25.206 27.228v.027l-.007.08-.03.305-.123 1.122-.419 3.7a6.74 6.74 0 0 0 .385 2.885l.258.735c.155.448.28.81.37 1.066l.098.291a3.911 3.911 0 0 0 .03.103l-.01-.025-.03-.074-.107-.288-.385-1.06-.263-.734a6.7 6.7 0 0 1-.396-2.904c.161-1.447.321-2.752.434-3.698l.138-1.12.04-.305c.005-.032.01-.058.012-.079a.1.1 0 0 1 .005-.027Z" fill="#3E1F18"/><path d="m20.576 21.879.422-1.079.963 1.436-1.284-.32" fill="#F9CBB6"/><path d="m30.654 18.637-1.144-2.562c-.136-.412-.393-.476-.607-.715l-2.863-1.615c-2.087-.855-3.223 2.012-3.223 2.012l-1.897 4.326c-2.23.74-.651 2.452-.651 2.452s-.607-1.055-.01-1.435c.625-.398 1.317.651 1.982 1.648.786 1.177 3.34 1.941 3.34 1.941.298-.315.214-1.416.448-2.007.074-.188 1.842-4.282 1.842-4.282l.686 1.66s.878-1.03 1.304-1.194c.425-.164.793-.23.793-.23Z" fill="#D19D74"/><path d="M25.58 20.458a.375.375 0 0 1-.086.06c-.059.035-.147.08-.261.124-.227.087-.57.155-.94.098a1.89 1.89 0 0 1-.869-.377 1.613 1.613 0 0 1-.211-.197.38.38 0 0 1-.064-.084c.007-.006.103.11.297.251.191.142.492.3.854.355.361.056.695-.004.92-.08.228-.077.355-.159.36-.15Z" fill="#391912"/><path d="m20.835 16.395 1.767.166 2.827-2.988-1.663-.057-2.96.292s.262 1.235.029 2.587Z" fill="#D19D74"/><path d="M23.29 14.82a.23.23 0 0 1-.022.055c-.019.04-.043.09-.071.153l-.263.56c-.22.473-.51 1.133-.827 1.864-.316.732-.603 1.394-.82 1.868-.109.238-.198.43-.263.56l-.075.152a.247.247 0 0 1-.029.05.236.236 0 0 1 .02-.055c.017-.04.04-.091.066-.155l.248-.566.807-1.874c.316-.732.613-1.39.841-1.86.114-.235.209-.424.277-.553l.08-.149a.22.22 0 0 1 .03-.05ZM28.682 15.69c.005.008-.104.065-.254.192a1.836 1.836 0 0 0-.463.603 1.838 1.838 0 0 0-.186.736c-.006.196.017.318.006.319a.275.275 0 0 1-.02-.084.66.66 0 0 1-.015-.1c-.002-.04-.009-.086-.006-.136-.002-.1.01-.22.036-.35.028-.129.073-.269.14-.407.068-.138.15-.26.233-.363.087-.1.173-.184.253-.245.038-.033.077-.056.11-.078a.687.687 0 0 1 .088-.052c.049-.026.076-.039.078-.036Z" fill="#391912"/><path d="m29.178 11.592-1.657 3.098a1.093 1.093 0 0 1-1.93-1.026c.156-.296.286-.537.286-.537s-.721-.467-.384-1.246c.301-.694 1.405-2.656 1.64-3.07l1.397.625a1.57 1.57 0 0 1 .648 2.156Z" fill="#F9CBB6"/><path d="M25.879 13.11s.471.258 1.138.164c0 0-.488.45-1.23.035l.092-.2Z" fill="#E3956B"/><path d="M27.771 10.583c-.002.038.124.076.256.155.133.076.228.168.26.147.014-.01.008-.05-.024-.101a.497.497 0 0 0-.17-.16.497.497 0 0 0-.222-.07c-.06-.002-.097.011-.1.03ZM26.631 10.193c.009.036.104.045.203.088.1.039.174.1.206.08.014-.01.013-.043-.012-.085a.304.304 0 0 0-.144-.118.309.309 0 0 0-.185-.018c-.047.012-.071.035-.068.053Z" fill="#2F1615"/><path d="M28.655 12.05c.016 0 .603.081.35.603-.254.522-.726.16-.72.144.006-.016.37-.747.37-.747Z" fill="#F9CBB6"/><path d="M28.54 12.677c.004 0 .007.01.018.025a.1.1 0 0 0 .067.035c.065.007.154-.058.203-.151a.334.334 0 0 0 .037-.143c.003-.046-.009-.084-.034-.103a.051.051 0 0 0-.066-.001c-.014.01-.016.023-.019.022-.002 0-.007-.014.008-.033a.063.063 0 0 1 .036-.023.077.077 0 0 1 .057.011c.04.022.057.077.056.127a.35.35 0 0 1-.04.161c-.054.104-.155.176-.242.16a.109.109 0 0 1-.076-.053c-.01-.021-.007-.034-.005-.034Z" fill="#E3956B"/><path d="M28.958 12.164c-.072-.056-.245-.044-.313.016-.069.06-.114.143-.183.203-.067.06-.176.094-.248.039-.05-.038-.067-.109-.057-.17a.502.502 0 0 1 .075-.172c.142-.233.303-.455.425-.7.121-.244.201-.52.166-.79-.037-.27-.207-.534-.464-.625-.17-.06-.36-.042-.534-.093a.709.709 0 0 1-.457-.42 1.348 1.348 0 0 0-.068-.117c.006-.013.067-.118.129-.139.458-.154 1.08.024 1.46.323.38.3.646.782.651 1.266.006.484-.299 1.018-.582 1.379Z" fill="#2F1615"/><path d="M28.963 12.112c.145-.247.38-.425.56-.648.18-.223.382-.497.254-.753-.044-.087-.015-.225-.051-.316-.037-.091-.014-.204-.029-.301-.043-.3-.262-.652-.527-.8-.184-.102-.495-.265-.681-.363-.294-.155-.582-.208-.89-.33-.104-.041-.224-.061-.322-.01-.098.05-.15.193-.079.277-.013-.1-.14-.153-.231-.112-.091.04-.138.148-.131.248.006.1.055.191.112.272.188.27.475.467.793.547l.711-.056.583.432.432.687-.783 1.016.279.21Z" fill="#2F1615"/><path d="M24.513 8.058a2.512 2.512 0 1 0-3.428 2.498l.041.633 2.197-.142s-.01-.356-.025-.673a2.51 2.51 0 0 0 1.215-2.316Z" fill="#F2BD8D"/><path d="M22.528 11.088v-.031l.005-.091c.004-.08.01-.198.023-.35.013-.152.03-.337.065-.551.035-.213.086-.457.182-.712.048-.128.105-.26.182-.389a.465.465 0 0 1 .161-.164.26.26 0 0 1 .239-.008.172.172 0 0 1 .085.094.176.176 0 0 1-.002.13.36.36 0 0 1-.183.18.69.69 0 0 1-.904-.4.524.524 0 0 1-.033-.287c.017-.099.106-.192.216-.189.055 0 .106.034.134.08.027.045.038.1.03.153a.491.491 0 0 1-.16.26.748.748 0 0 1-.574.208.653.653 0 0 1-.508-.33.378.378 0 0 1-.036-.303.193.193 0 0 1 .103-.117.189.189 0 0 1 .155.004c.047.021.087.059.113.103.026.044.04.093.047.142a.746.746 0 0 1-.86.837.397.397 0 0 1-.233-.105c-.06-.063-.082-.167-.03-.24a.164.164 0 0 1 .11-.063.233.233 0 0 1 .12.015.363.363 0 0 1 .165.163c.071.132.13.26.19.383.233.492.402.9.516 1.182.057.14.1.251.128.326l.032.085.01.03s-.006-.01-.014-.029l-.034-.084-.134-.324c-.117-.281-.289-.687-.524-1.177-.06-.122-.12-.252-.191-.38a.341.341 0 0 0-.154-.152c-.066-.027-.155-.021-.2.04-.044.06-.025.152.028.206a.374.374 0 0 0 .218.097.72.72 0 0 0 .826-.806c-.012-.091-.057-.184-.143-.222a.158.158 0 0 0-.13-.004.161.161 0 0 0-.087.1.35.35 0 0 0 .035.278.622.622 0 0 0 .484.314.72.72 0 0 0 .55-.199.464.464 0 0 0 .15-.243.196.196 0 0 0-.026-.132.131.131 0 0 0-.108-.066.175.175 0 0 0-.122.049.214.214 0 0 0-.064.117c-.019.09 0 .185.032.27a.659.659 0 0 0 .865.384.333.333 0 0 0 .17-.163.149.149 0 0 0-.07-.191.233.233 0 0 0-.215.006.444.444 0 0 0-.153.156 2.389 2.389 0 0 0-.182.383 3.777 3.777 0 0 0-.186.707 7.58 7.58 0 0 0-.07.55l-.029.35-.007.09-.003.03ZM23.18 11.464l-1.886.122a.142.142 0 1 1-.018-.283l1.887-.122a.142.142 0 0 1 .018.283ZM23.189 11.588l-1.886.122a.142.142 0 1 0 .018.283l.207-.014.308.505c.036.058.1.091.168.087l.673-.043a.182.182 0 0 0 .156-.11l.233-.538.141-.009a.142.142 0 1 0-.018-.283Z" fill="#462118"/><path d="M20.294 6.727c.158-.167.328-.287.48-.366.152-.08.285-.121.379-.137.094-.016.149-.01.155.009.014.045-.172.124-.417.312a2.18 2.18 0 0 0-.71.923c-.166.427-.155.861-.099 1.162.055.303.138.487.098.511-.018.011-.062-.022-.12-.097a1.318 1.318 0 0 1-.188-.357 1.85 1.85 0 0 1-.108-.594c-.005-.23.033-.485.129-.736M21.917 6.302c-.159.01-.301-.026-.323-.109-.01-.041.017-.087.072-.126a.468.468 0 0 1 .233-.073.46.46 0 0 1 .24.045c.06.032.092.075.087.117" fill="#fff" opacity=".2"/><path d="M22.8 12.466c-.002.005-.05-.014-.132-.032a1.08 1.08 0 0 0-.636.06c-.077.032-.121.06-.124.055a.39.39 0 0 1 .115-.075.918.918 0 0 1 .65-.061c.082.023.129.05.127.053ZM23.07 11.887c0 .008-.34.037-.76.064-.421.027-.763.042-.763.034 0-.009.34-.037.76-.065.421-.027.763-.042.763-.033ZM22.967 12.118c0 .004-.07.016-.184.03a9.565 9.565 0 0 1-.9.071 1 1 0 0 1-.187-.002c0-.004.071-.01.186-.02a167.148 167.148 0 0 0 .898-.07c.115-.01.186-.014.187-.01Z" fill="#221407"/><path d="m9.384 24.735.41.656s1.747-1.608 3.48-1.153c0 0-1.558-1.321-3.89.497Z" fill="#F2BD8D"/><path d="M13.274 24.238s1.283-1.393 3.164-1.075l.512.077-.163-.296s-3.271-1.12-3.513 1.294Z" fill="#F2BD8D"/><path d="M10.567 19.541s-2.57-.442-4.255.47l2.676 5.038s2.19-2.111 4.286-.811l-2.707-4.697Z" fill="#F5F5F5"/><path d="m10.567 19.541.014.02.038.064.148.25.557.954 1.97 3.397a.023.023 0 0 1-.008.031.023.023 0 0 1-.024 0 2.85 2.85 0 0 0-.985-.378 3.061 3.061 0 0 0-.555-.039c-.188.008-.38.032-.569.072-.758.168-1.496.58-2.125 1.134l-.022.02a.026.026 0 0 1-.036 0 .022.022 0 0 1-.004-.005l-2.672-5.04a.02.02 0 0 1 .008-.029c.59-.304 1.188-.437 1.713-.507.528-.068.992-.07 1.37-.06a9.776 9.776 0 0 1 1.105.1l.058.011.019.005-.02-.001-.058-.008-.23-.026c-.2-.02-.496-.047-.874-.056a8.77 8.77 0 0 0-1.365.07c-.523.073-1.116.207-1.697.51L6.33 20l2.68 5.036-.04-.006.023-.022a5.415 5.415 0 0 1 1.024-.718c.361-.195.74-.344 1.125-.427.192-.04.386-.065.578-.072.192-.004.381.01.565.04.366.066.706.204 1 .386l-.031.03-1.949-3.399-.547-.962a160.444 160.444 0 0 1-.192-.346Z" fill="#462118"/><path d="M14.606 18.508s-1.944-1.239-4.005 1.034l2.707 4.696s.552-1.906 3.785-1.243l-2.487-4.487Z" fill="#F5F5F5"/><path d="m14.605 18.508.013.02.036.06.136.24.512.91 1.81 3.246a.022.022 0 0 1-.01.03.022.022 0 0 1-.014.003l-.482-.079c-.081-.016-.165-.02-.248-.027l-.254-.02c-.086-.01-.171-.008-.258-.006l-.263.003c-.088.002-.175.018-.264.026-.088.011-.178.016-.266.04l-.265.06-.26.09c-.087.031-.167.08-.252.117a.8.8 0 0 0-.121.07l-.119.076c-.078.052-.148.116-.222.175-.065.07-.138.131-.194.209a1.629 1.629 0 0 0-.288.494v.002a.025.025 0 0 1-.033.015.027.027 0 0 1-.014-.011l-.11-.19-2.594-4.509a.021.021 0 0 1 .003-.025c.457-.499.963-.88 1.466-1.103a2.915 2.915 0 0 1 1.384-.26c.393.025.692.12.885.2a2.03 2.03 0 0 1 .27.132.09.09 0 0 1 .016.012l-.018-.01-.054-.027a2.875 2.875 0 0 0-1.1-.28 2.908 2.908 0 0 0-1.368.265c-.497.224-.996.603-1.449 1.1l.003-.025 2.602 4.505.109.189-.047.006c.067-.192.173-.362.298-.513.058-.079.133-.143.2-.213.076-.061.147-.127.227-.18l.122-.077a.793.793 0 0 1 .123-.071c.087-.04.169-.088.258-.119l.264-.092.27-.06c.089-.025.18-.03.27-.041.09-.008.178-.024.267-.026l.265-.003c.087-.002.175-.004.26.006l.256.021c.084.007.168.012.25.029l.484.08-.024.033-1.791-3.25-.502-.918-.13-.244-.034-.063a.16.16 0 0 1-.01-.022Z" fill="#462118"/><path d="m7.036 17.59 2.897 5.578s2.355-.103 3.352 1.045L10.6 19.54S9.025 17.59 7.036 17.59Z" fill="#F5F5F5"/><path d="m7.036 17.59.074.002.223.01c.024 0 .051.001.078.004l.085.014.193.032c.071.008.144.032.222.052.078.024.164.04.249.074.692.23 1.62.789 2.456 1.75l.001.002 2.69 4.67a.025.025 0 0 1-.01.034.025.025 0 0 1-.03-.004l-.002-.001-.113-.113a2.463 2.463 0 0 0-.742-.49 4.298 4.298 0 0 0-.829-.272 6.91 6.91 0 0 0-1.647-.162.024.024 0 0 1-.022-.013l-2.078-4.03-.591-1.152-.156-.305-.04-.077a.527.527 0 0 1 .005.003l.042.08.163.308.606 1.153 2.092 3.999-.022-.013a6.934 6.934 0 0 1 1.66.161c.283.06.565.154.838.274.275.118.536.286.757.5l.116.117-.041.029c-.997-1.737-1.92-3.345-2.681-4.674l.001.003a6.789 6.789 0 0 0-1.268-1.148 4.889 4.889 0 0 0-1.163-.606c-.084-.035-.17-.051-.246-.076-.078-.021-.15-.046-.22-.055l-.192-.035-.084-.016-.076-.006-.298-.023Z" fill="#462118"/><path d="m16.08 33.412.062.104c.07.116.172.21.293.27l.108.053-.104.062a.708.708 0 0 0-.27.293l-.053.108-.062-.104a.708.708 0 0 0-.293-.27l-.108-.053.104-.062a.71.71 0 0 0 .27-.293l.053-.108Z" fill="#3E1F18"/><path d="m10.369 12.162.062.103c.07.116.172.21.293.27l.108.053-.103.063a.708.708 0 0 0-.27.293l-.053.108-.063-.104a.71.71 0 0 0-.293-.27l-.108-.053.104-.062a.71.71 0 0 0 .27-.293l.053-.108Z" fill="#C77859"/><path d="m33.682 34.747.062.103c.07.116.171.21.293.27l.108.053-.104.063a.708.708 0 0 0-.27.293l-.053.107-.062-.103a.71.71 0 0 0-.293-.27l-.108-.053.103-.062a.71.71 0 0 0 .27-.293l.054-.108ZM34.275 38.722l.03.012a.19.19 0 0 0 .105.01l.032-.005-.012.03a.19.19 0 0 0-.01.105l.005.031-.03-.012a.19.19 0 0 0-.105-.01l-.031.006.012-.03a.19.19 0 0 0 .01-.105l-.006-.032Z" fill="#3E1F18"/><path d="m11.53 9.386.03.012a.19.19 0 0 0 .105.01l.032-.006-.012.03a.189.189 0 0 0-.01.105l.005.032-.03-.012a.19.19 0 0 0-.105-.01l-.031.005.012-.03a.19.19 0 0 0 .01-.105l-.006-.031Z" fill="#C77859"/><path d="m14.56 30.317.03.012a.19.19 0 0 0 .104.01l.032-.005-.012.03a.189.189 0 0 0-.01.105l.006.031-.03-.012a.19.19 0 0 0-.105-.01l-.032.006.012-.03a.19.19 0 0 0 .01-.105l-.006-.032ZM17.843 38.408l-.029.03-.085.085-.333.324-1.235 1.191.005-.012.227 5.004.002.044-.037-.024-.446-.298-2.827-1.893-.006-.004-.002-.007-1.03-3.072-.288-.872-.074-.232-.019-.06a.124.124 0 0 1-.005-.02s.004.006.009.02l.021.058c.02.054.046.13.08.23l.3.868 1.044 3.067-.008-.01 2.83 1.89.446.297-.035.02-.214-5.004v-.007l.005-.005 1.245-1.18.338-.32a8.337 8.337 0 0 1 .12-.108Z" fill="#583126"/><path d="m16.527 44.441-.01.292.235.173-.28.081-.091.277-.165-.24-.291-.003.178-.23-.088-.278.274.099.238-.17ZM13.12 42.461l.006.19.16.102-.179.063-.048.183-.115-.15-.19.011.108-.156-.069-.176.181.053.147-.12ZM11.653 38.245l.143.183.232-.014-.13.192.084.216-.223-.064-.179.147-.008-.232-.195-.125.218-.079.058-.224ZM17.7 38.062l.143.183.232-.013-.13.192.084.216-.223-.065-.18.147-.007-.231-.195-.126.218-.078.059-.225ZM16.113 39.829l.09.116.149-.008-.084.122.054.138-.142-.041-.114.094-.005-.148-.124-.08.139-.05.037-.143Z" fill="#9F664E"/><path d="M10.66 32.037a2.055 2.055 0 1 0 0-4.11 2.055 2.055 0 0 0 0 4.11Z" fill="#F2BD8D"/><path d="M10.393 30.624a.335.335 0 1 1-.67 0 .335.335 0 0 1 .67 0ZM9.918 29.657a.195.195 0 1 1-.39 0 .195.195 0 0 1 .39 0Z" fill="#fff" opacity=".3"/><path d="M8.667 30.482c.01.036-1.758 1.732-1.303 2.093.456.362 2.373-.565 4.007-1.885 1.634-1.32 3.126-2.923 2.718-3.347-.409-.424-2.45.832-2.45.832l.243.156s1.235-.792 1.626-.485c.39.308-.723 1.509-2.295 2.656-1.57 1.147-3.089 1.952-3.325 1.637-.235-.314.877-1.362.877-1.362l-.098-.295Z" fill="#DB4F58"/><path d="M8.667 30.482c.01.036-1.758 1.732-1.303 2.093.456.362 2.373-.565 4.007-1.885 1.634-1.32 3.126-2.923 2.718-3.347-.409-.424-2.45.832-2.45.832l.243.156s1.235-.792 1.626-.485c.39.308-.723 1.509-2.295 2.656-1.57 1.147-3.089 1.952-3.325 1.637-.235-.314.877-1.362.877-1.362l-.098-.295Z" fill="#583126"/><path d="M9.529 28.535c.016.02-.123.138-.28.375a1.967 1.967 0 0 0-.332 1.033c-.008.43.142.806.29 1.045.148.244.283.367.265.387-.01.014-.175-.081-.358-.323a1.834 1.834 0 0 1-.356-1.111 1.83 1.83 0 0 1 .4-1.097c.192-.235.36-.324.37-.309Z" fill="#fff" opacity=".3"/><path d="M34.476 11.96a1.695 1.695 0 1 0-2.346-2.448 1.695 1.695 0 0 0 2.346 2.448Z" fill="#D7A278"/><path d="M33.855 10.088a.277.277 0 1 1 .554.013.277.277 0 0 1-.553-.013ZM34.408 10.733a.16.16 0 1 1 .322.008.16.16 0 0 1-.322-.008ZM34.193 11.227a.06.06 0 1 1-.003.118.06.06 0 0 1 .003-.119Z" fill="#040000" opacity=".4"/><path d="M26.716 11.72a.019.019 0 0 1-.005-.005c-.05-.046-.096-.093-.103-.156-.009-.07.034-.129.072-.173.062-.07.133-.133.202-.194.128-.114.248-.222.314-.369a.025.025 0 0 1 .033-.012c.011.005.018.02.012.033-.07.156-.2.272-.326.385-.068.06-.138.123-.198.19-.031.036-.067.084-.06.133.005.047.044.087.087.127.01.009.01.025.001.035a.023.023 0 0 1-.029.005Z" fill="#2F1615"/><path d="M26.11 11.89c.014.004.907.376.907.376s-.274.316-.606.179c-.332-.137-.302-.554-.302-.554Z" fill="#D44F43"/><path d="M26.237 12.056c.02.027.482.224.555.233.031.004.05-.034.085-.08l-.647-.269c-.003.04-.005.098.007.116Z" fill="#fff"/><path d="M26.411 12.445a.448.448 0 0 0 .292.018c-.17-.181-.384-.19-.473-.155a.445.445 0 0 0 .181.137Z" fill="#E46F60"/><path d="m26.791 10.381-.006.2.16.117-.19.056-.063.19-.112-.165h-.2l.123-.159-.061-.19.187.068.162-.117ZM27.966 10.88l-.02.2.153.128-.195.042-.076.185-.1-.172-.199-.015.133-.149-.047-.193.182.08.17-.105Z" fill="#ED9829"/></g><defs><clipPath id="a"><rect width="48" height="48" rx="24" fill="#fff"/></clipPath></defs></svg>