<svg width="48" height="48" viewBox="0 0 48 48" fill="none" xmlns="http://www.w3.org/2000/svg">
<g clip-path="url(#clip0_1141_49253)">
<rect width="48" height="48" rx="24" fill="white"/>
<g clip-path="url(#clip1_1141_49253)">
<g opacity="0.31">
<path d="M43.0311 52.0724C42.3533 45.0253 37.3333 40.936 37.3333 40.936C36.4515 46.8604 43.0311 52.0724 43.0311 52.0724Z" fill="#CADDAC" stroke="#CADDAC" stroke-miterlimit="10"/>
<path d="M37.4504 33.1867C33.3055 34.4889 31.3135 38.1747 31.3135 38.1747C34.9299 37.9973 37.4504 33.1867 37.4504 33.1867Z" fill="#CADDAC" stroke="#CADDAC" stroke-miterlimit="10"/>
<path d="M32.248 39.6098C32.8285 44.7955 36.6867 47.9996 36.6867 47.9996C37.3049 43.6996 32.248 39.6098 32.248 39.6098Z" fill="#CADDAC" stroke="#CADDAC" stroke-miterlimit="10"/>
<path d="M42.5197 42.3164C42.549 42.224 38.9739 41.0098 34.5362 39.604C30.0966 38.1982 26.4748 37.1333 26.4455 37.2258C26.4162 37.3182 29.9904 38.5324 34.4299 39.9382C38.8682 41.344 42.4904 42.4084 42.5197 42.3164Z" fill="#CADDAC" stroke="#CADDAC" stroke-miterlimit="10"/>
<path d="M52.6856 47.1036C52.6856 47.1036 47.8363 40.6462 40.7256 41.8676C40.7256 41.8676 44.7869 47.4342 52.6856 47.1036Z" fill="#CADDAC" stroke="#CADDAC" stroke-miterlimit="10"/>
<path d="M48.4506 36.4187C48.4506 36.4187 40.7079 34.1245 35.7266 39.344C35.7266 39.344 42.3057 41.3925 48.4506 36.4187Z" fill="#CADDAC" stroke="#CADDAC" stroke-miterlimit="10"/>
</g>
<g opacity="0.31">
<path d="M0.318359 42.4009C5.69525 44.6458 10.6126 42.5915 10.6126 42.5915C6.65569 39.6511 0.318359 42.4009 0.318359 42.4009Z" fill="#CADDAC" stroke="#CADDAC" stroke-miterlimit="10"/>
<path d="M16.1912 45.6867C16.8561 42.1733 14.9552 39.2964 14.9552 39.2964C13.6792 41.9889 16.1912 45.6867 16.1912 45.6867Z" fill="#CADDAC" stroke="#CADDAC" stroke-miterlimit="10"/>
<path d="M13.5503 39.4164C9.56184 37.8235 5.73828 39.3786 5.73828 39.3786C8.61873 41.4973 13.5503 39.4164 13.5503 39.4164Z" fill="#CADDAC" stroke="#CADDAC" stroke-miterlimit="10"/>
<path d="M7.59674 45.8187C7.6523 45.876 9.92208 43.7533 12.6661 41.0787C15.4105 38.4031 17.5896 36.1889 17.5341 36.1315C17.4785 36.0747 15.2092 38.1964 12.4647 40.872C9.72074 43.5467 7.54119 45.7618 7.59674 45.8187Z" fill="#CADDAC" stroke="#CADDAC" stroke-miterlimit="10"/>
<path d="M0.174805 51.3364C0.174805 51.3364 6.74414 50.3258 8.61969 44.6916C8.61925 44.6911 3.00236 45.4764 0.174805 51.3364Z" fill="#CADDAC" stroke="#CADDAC" stroke-miterlimit="10"/>
<path d="M9.57218 52.4133C9.57218 52.4133 14.2442 47.6862 12.3917 42.044C12.3917 42.044 8.34951 46.0227 9.57218 52.4133Z" fill="#CADDAC" stroke="#CADDAC" stroke-miterlimit="10"/>
</g>
<g opacity="0.31">
<path d="M8.62402 28.4902C9.91602 31.9165 12.9756 33.2787 12.9756 33.2787C12.6138 30.2018 8.62402 28.4902 8.62402 28.4902Z" fill="#CADDAC" stroke="#CADDAC" stroke-miterlimit="10"/>
<path d="M13.9658 37.1631C15.8587 35.952 16.3543 33.8427 16.3543 33.8427C14.5734 34.4205 13.9658 37.1631 13.9658 37.1631Z" fill="#CADDAC" stroke="#CADDAC" stroke-miterlimit="10"/>
<path d="M15.6939 33.2524C14.7023 30.7422 12.3428 29.6649 12.3428 29.6649C12.6161 31.8951 15.6939 33.2524 15.6939 33.2524Z" fill="#CADDAC" stroke="#CADDAC" stroke-miterlimit="10"/>
<path d="M10.1992 33.2916C10.197 33.3418 12.1459 33.464 14.5517 33.5653C16.9583 33.6662 18.9103 33.708 18.9126 33.6578C18.9148 33.6076 16.9659 33.4853 14.5597 33.384C12.1539 33.2827 10.2014 33.2413 10.1992 33.2916Z" fill="#CADDAC" stroke="#CADDAC" stroke-miterlimit="10"/>
<path d="M4.47656 32.2773C4.47656 32.2773 7.77123 34.8449 11.1557 33.2729C11.1557 33.2729 8.37478 31.0431 4.47656 32.2773Z" fill="#CADDAC" stroke="#CADDAC" stroke-miterlimit="10"/>
<path d="M8.03613 37.0382C8.03613 37.0382 12.2117 37.1356 13.9921 33.856C13.9921 33.856 10.4304 33.7236 8.03613 37.0382Z" fill="#CADDAC" stroke="#CADDAC" stroke-miterlimit="10"/>
</g>
<g opacity="0.31">
<path d="M44.9159 17.7493C38.4684 15.4773 32.8457 18.2111 32.8457 18.2111C37.6759 21.3925 44.9159 17.7493 44.9159 17.7493Z" fill="#CADDAC" stroke="#CADDAC" stroke-miterlimit="10"/>
<path d="M26.1063 14.9578C25.5615 19.1173 27.9792 22.3609 27.9792 22.3609C29.2948 19.1214 26.1063 14.9578 26.1063 14.9578Z" fill="#CADDAC" stroke="#CADDAC" stroke-miterlimit="10"/>
<path d="M29.6162 22.1258C34.394 23.7262 38.7691 21.6502 38.7691 21.6502C35.2544 19.3605 29.6162 22.1258 29.6162 22.1258Z" fill="#CADDAC" stroke="#CADDAC" stroke-miterlimit="10"/>
<path d="M36.1635 14.2307C36.0947 14.1676 33.5773 16.8044 30.5413 20.12C27.5044 23.4364 25.0995 26.1756 25.1684 26.2387C25.2373 26.3018 27.7542 23.6653 30.7911 20.3489C33.8271 17.0333 36.2324 14.2938 36.1635 14.2307Z" fill="#CADDAC" stroke="#CADDAC" stroke-miterlimit="10"/>
<path d="M44.4894 7.27377C44.4894 7.27377 36.8618 8.89466 35.04 15.6196C35.0405 15.6196 41.5671 14.3258 44.4894 7.27377Z" fill="#CADDAC" stroke="#CADDAC" stroke-miterlimit="10"/>
<path d="M33.4098 6.63779C33.4098 6.63779 28.252 12.4858 30.7978 18.9711C30.7973 18.9711 35.2671 14.0418 33.4098 6.63779Z" fill="#CADDAC" stroke="#CADDAC" stroke-miterlimit="10"/>
</g>
<g opacity="0.31">
<path d="M13.4641 4.68222C12.4299 10.4164 15.4957 14.7756 15.4957 14.7756C17.5148 10.2787 13.4641 4.68222 13.4641 4.68222Z" fill="#CADDAC" stroke="#CADDAC" stroke-miterlimit="10"/>
<path d="M13.6758 20.8893C17.25 20.7818 19.65 18.3058 19.65 18.3058C16.7451 17.64 13.6758 20.8893 13.6758 20.8893Z" fill="#CADDAC" stroke="#CADDAC" stroke-miterlimit="10"/>
<path d="M19.2292 16.9604C19.9257 12.7222 17.5835 9.32355 17.5835 9.32355C16.1346 12.5929 19.2292 16.9604 19.2292 16.9604Z" fill="#CADDAC" stroke="#CADDAC" stroke-miterlimit="10"/>
<path d="M11.6949 12.5258C11.6509 12.5925 14.2127 14.3516 17.4153 16.4547C20.6193 18.5582 23.2513 20.2093 23.2949 20.1427C23.3385 20.076 20.7776 18.3173 17.5736 16.2133C14.3709 14.1102 11.7384 12.4591 11.6949 12.5258Z" fill="#CADDAC" stroke="#CADDAC" stroke-miterlimit="10"/>
<path d="M4.70801 6.46667C4.70801 6.46667 7.11023 12.664 13.0165 13.2813C13.016 13.2813 11.0396 7.96534 4.70801 6.46667Z" fill="#CADDAC" stroke="#CADDAC" stroke-miterlimit="10"/>
<path d="M5.68066 15.876C5.68066 15.876 11.3033 19.42 16.414 16.3951C16.414 16.3951 11.658 13.3053 5.68066 15.876Z" fill="#CADDAC" stroke="#CADDAC" stroke-miterlimit="10"/>
</g>
<g opacity="0.38">
<path d="M41.6527 32.3258C41.5913 32.3258 41.542 32.2809 41.542 32.2253V27.7187C41.542 27.6631 41.5913 27.6182 41.6527 27.6182C41.714 27.6182 41.7633 27.6631 41.7633 27.7187V32.2253C41.7633 32.2809 41.714 32.3258 41.6527 32.3258Z" fill="#CADDAC" stroke="#CADDAC" stroke-miterlimit="10"/>
<path d="M39.8947 31.6658C39.8663 31.6658 39.8383 31.656 39.8165 31.6365C39.7734 31.5974 39.7734 31.5338 39.8165 31.4947L43.3325 28.308C43.3756 28.2689 43.4458 28.2689 43.489 28.308C43.5321 28.3471 43.5321 28.4107 43.489 28.4498L39.973 31.6365C39.9516 31.656 39.9232 31.6658 39.8947 31.6658Z" fill="#CADDAC" stroke="#CADDAC" stroke-miterlimit="10"/>
<path d="M44.1388 30.0724H39.1663C39.105 30.0724 39.0557 30.0276 39.0557 29.972C39.0557 29.9164 39.105 29.8716 39.1663 29.8716H44.1383C44.1997 29.8716 44.249 29.9164 44.249 29.972C44.2494 30.0276 44.1997 30.0724 44.1388 30.0724Z" fill="#CADDAC" stroke="#CADDAC" stroke-miterlimit="10"/>
<path d="M43.4107 31.6658C43.3823 31.6658 43.3543 31.656 43.3325 31.6365L39.8165 28.4498C39.7734 28.4107 39.7734 28.3471 39.8165 28.308C39.8596 28.2689 39.9298 28.2689 39.973 28.308L43.489 31.4947C43.5321 31.5338 43.5321 31.5974 43.489 31.6365C43.4676 31.656 43.4392 31.6658 43.4107 31.6658Z" fill="#CADDAC" stroke="#CADDAC" stroke-miterlimit="10"/>
</g>
<g opacity="0.45">
<path d="M9.34295 27.3027C9.30561 27.3027 9.27539 27.2756 9.27539 27.2418V24.4969C9.27539 24.4631 9.30561 24.436 9.34295 24.436C9.38028 24.436 9.4105 24.4631 9.4105 24.4969V27.2418C9.4105 27.2751 9.38028 27.3027 9.34295 27.3027Z" fill="#CADDAC" stroke="#CADDAC" stroke-miterlimit="10"/>
<path d="M8.2723 26.9009C8.25497 26.9009 8.23763 26.8951 8.22474 26.8831C8.19852 26.8591 8.19852 26.8205 8.22474 26.7969L10.3661 24.856C10.3923 24.832 10.435 24.832 10.4612 24.856C10.4874 24.88 10.4874 24.9187 10.4612 24.9422L8.31986 26.8831C8.30652 26.8947 8.28963 26.9009 8.2723 26.9009Z" fill="#CADDAC" stroke="#CADDAC" stroke-miterlimit="10"/>
<path d="M10.8567 25.9302H7.8283C7.79096 25.9302 7.76074 25.9031 7.76074 25.8693C7.76074 25.8356 7.79096 25.8084 7.8283 25.8084H10.8567C10.8941 25.8084 10.9243 25.8356 10.9243 25.8693C10.9243 25.9027 10.8941 25.9302 10.8567 25.9302Z" fill="#CADDAC" stroke="#CADDAC" stroke-miterlimit="10"/>
<path d="M10.4136 26.9009C10.3963 26.9009 10.379 26.8951 10.3661 26.8831L8.22474 24.9422C8.19852 24.9182 8.19852 24.8796 8.22474 24.856C8.25097 24.832 8.29363 24.832 8.31986 24.856L10.4612 26.7969C10.4874 26.8209 10.4874 26.8596 10.4612 26.8831C10.4483 26.8947 10.431 26.9009 10.4136 26.9009Z" fill="#CADDAC" stroke="#CADDAC" stroke-miterlimit="10"/>
</g>
<g opacity="0.43">
<path d="M33.2709 29.1067C33.2323 29.1067 33.2012 29.0782 33.2012 29.0431V26.1938C33.2012 26.1587 33.2323 26.1302 33.2709 26.1302C33.3096 26.1302 33.3407 26.1587 33.3407 26.1938V29.0431C33.3412 29.0782 33.3096 29.1067 33.2709 29.1067Z" fill="#CADDAC" stroke="#CADDAC" stroke-miterlimit="10"/>
<path d="M32.1589 28.6893C32.1411 28.6893 32.1229 28.6831 32.1095 28.6707C32.082 28.6458 32.082 28.6058 32.1095 28.5809L34.3326 26.5658C34.3602 26.5409 34.4042 26.5409 34.4318 26.5658C34.4593 26.5907 34.4593 26.6307 34.4318 26.6556L32.2086 28.6707C32.1949 28.6831 32.1771 28.6893 32.1589 28.6893Z" fill="#CADDAC" stroke="#CADDAC" stroke-miterlimit="10"/>
<path d="M34.8427 27.6818H31.6987C31.66 27.6818 31.6289 27.6533 31.6289 27.6182C31.6289 27.5831 31.66 27.5547 31.6987 27.5547H34.8427C34.8814 27.5547 34.9125 27.5831 34.9125 27.6182C34.9129 27.6533 34.8818 27.6818 34.8427 27.6818Z" fill="#CADDAC" stroke="#CADDAC" stroke-miterlimit="10"/>
<path d="M34.383 28.6893C34.3652 28.6893 34.347 28.6831 34.3336 28.6707L32.1105 26.6556C32.083 26.6307 32.083 26.5907 32.1105 26.5658C32.1376 26.5409 32.1821 26.5409 32.2096 26.5658L34.4327 28.5809C34.4603 28.6058 34.4603 28.6458 34.4327 28.6707C34.4185 28.6831 34.4007 28.6893 34.383 28.6893Z" fill="#CADDAC" stroke="#CADDAC" stroke-miterlimit="10"/>
</g>
<path d="M32.5714 20.0529C32.4559 19.3187 32.5199 18.5418 32.2239 17.86C31.9759 17.2884 31.4826 16.8031 31.4372 16.1818C31.3812 15.412 31.8021 15.0298 31.8643 14.2604C31.9346 13.3911 30.5146 12.3951 30.2195 11.5747C29.5906 9.82577 31.0959 6.78399 29.3079 5.19022L25.2461 12.308C25.0537 15.4875 24.5603 18.364 24.6297 21.5484C26.0937 22.4133 28.2661 23.1142 29.959 22.9564C29.9372 22.588 29.9155 22.2191 29.8937 21.8507C30.007 22.1751 30.3021 22.452 30.6377 22.5644C31.1275 22.7284 31.6657 22.624 32.1586 22.4689C32.7461 22.2835 33.3114 22.0284 33.8381 21.7098C33.1039 21.5875 32.687 20.7871 32.5714 20.0529Z" fill="#412C28"/>
<path d="M32.2719 14.7373C32.2643 14.736 32.3119 14.628 32.311 14.4235C32.3096 14.2218 32.2403 13.9213 32.0261 13.6253C31.815 13.3258 31.4656 13.0582 31.0763 12.7684C30.883 12.6209 30.6808 12.4613 30.4999 12.264C30.4092 12.1658 30.3261 12.0569 30.2541 11.9378C30.1834 11.8182 30.1265 11.6889 30.083 11.5533C29.995 11.2822 29.9692 11.0031 29.9688 10.7373C29.9696 10.4706 29.9981 10.2151 30.0341 9.97465C30.1048 9.49421 30.1568 9.05998 30.1883 8.69465C30.2212 8.32932 30.231 8.03243 30.2288 7.82709C30.2274 7.72487 30.2248 7.64487 30.2203 7.59109C30.2168 7.53732 30.2154 7.50887 30.2176 7.50843C30.2194 7.50798 30.2243 7.53598 30.2319 7.58976C30.2403 7.64354 30.2465 7.72309 30.2514 7.82621C30.2608 8.03198 30.2568 8.33065 30.2292 8.69732C30.2025 9.06443 30.1545 9.49998 30.0865 9.98176C30.0523 10.2218 30.0252 10.4746 30.0252 10.7373C30.0265 10.9991 30.0523 11.2724 30.1381 11.536C30.2203 11.8004 30.3639 12.0347 30.5416 12.2262C30.7176 12.4195 30.9172 12.5787 31.1088 12.7267C31.495 13.0173 31.8479 13.2929 32.0594 13.6018C32.2745 13.908 32.3394 14.2173 32.3336 14.4231C32.3319 14.5271 32.3145 14.6062 32.3008 14.6591C32.2839 14.7111 32.2736 14.7378 32.2719 14.7373Z" fill="#343535"/>
<path d="M23.5003 4.97198C22.2843 6.12665 21.3589 8.01998 21.3638 9.31465C21.3652 9.68221 21.4243 10.072 21.2594 10.4C21.0301 10.8555 20.4314 11.0578 20.2625 11.5387C20.1145 11.96 20.3558 12.4062 20.4518 12.8422C20.5812 13.4315 20.4394 14.0444 20.2634 14.6213C20.0874 15.1982 18.8647 15.5613 18.8487 16.164C18.8327 16.7671 17.0616 18.8662 17.5776 19.1795L21.9198 17.7964L24.5376 7.00132L23.5003 4.97198Z" fill="#412C28"/>
<path d="M30.6413 27.5769H29.1777V31.3875H30.6413V27.5769Z" fill="#AA715F"/>
<path d="M30.4426 44.1507H29.376C29.2662 44.1507 29.1777 44.0618 29.1777 43.9524V32.8267H30.6413V43.952C30.6408 44.0618 30.552 44.1507 30.4426 44.1507Z" fill="#C1C4AE"/>
<path d="M29.333 31.2764L29.4948 31.7187L29.333 32.0075V32.2342L29.4948 32.54L29.333 32.88H29.9095V31.2764H29.333Z" fill="#C1C4AE"/>
<path d="M30.4862 31.2764L30.3244 31.7187L30.4862 32.0075V32.2342L30.3244 32.54L30.4862 32.88H29.9102V31.2764H30.4862Z" fill="#C1C4AE"/>
<path d="M30.6838 27.8169H16.1963V29.5542H30.6838V27.8169Z" fill="#C1C4AE"/>
<path d="M30.6838 35.6271H16.1963V36.7435H30.6838V35.6271Z" fill="#C1C4AE"/>
<path d="M29.5177 33.7871H16.5977V34.9036H29.5177V33.7871Z" fill="#C1C4AE"/>
<path d="M17.0495 27.5769H15.5859V31.3875H17.0495V27.5769Z" fill="#C1C4AE"/>
<path d="M16.8508 44.1507H15.7842C15.6744 44.1507 15.5859 44.0618 15.5859 43.9524V32.8267H17.0495V43.952C17.0495 44.0618 16.9606 44.1507 16.8508 44.1507Z" fill="#C1C4AE"/>
<path d="M15.7412 31.2764L15.903 31.7187L15.7412 32.0075V32.2342L15.903 32.54L15.7412 32.88H16.3177V31.2764H15.7412Z" fill="#C1C4AE"/>
<path d="M16.8948 31.2764L16.7326 31.7187L16.8948 32.0075V32.2342L16.7326 32.54L16.8948 32.88H16.3184V31.2764H16.8948Z" fill="#C1C4AE"/>
<path d="M31.7226 20.784C31.7244 20.7836 31.732 20.8044 31.7458 20.8449C31.7595 20.8853 31.7791 20.9444 31.8075 21.02C31.8218 21.0578 31.8382 21.0996 31.8578 21.144C31.8786 21.1911 31.8831 21.2498 31.8831 21.3062C31.884 21.4227 31.8733 21.5533 31.8578 21.6973C31.7924 22.2733 31.6573 23.0609 31.4746 23.9253C31.3778 24.3564 31.2635 24.7653 31.0973 25.1142C31.0142 25.288 30.9173 25.4467 30.7995 25.5742C30.6844 25.7036 30.5373 25.7907 30.3982 25.8338C30.1195 25.9284 29.8778 25.9293 29.7169 25.916C29.636 25.9089 29.5738 25.8978 29.532 25.888C29.4902 25.8782 29.4689 25.8707 29.4698 25.8689C29.4702 25.8671 29.4924 25.8711 29.5342 25.8769C29.576 25.8827 29.6382 25.8902 29.7186 25.8938C29.8782 25.9004 30.1155 25.8924 30.3853 25.7956C30.5218 25.7502 30.6542 25.6684 30.7649 25.5422C30.8764 25.4182 30.9698 25.2631 31.0502 25.0916C31.2111 24.748 31.3231 24.3418 31.4195 23.9129C31.6013 23.0516 31.7431 22.2644 31.8182 21.6929C31.8364 21.5498 31.8498 21.42 31.8515 21.3067C31.8524 21.2489 31.8506 21.1991 31.8329 21.1547C31.8146 21.1084 31.7995 21.0658 31.7871 21.0276C31.7618 20.9502 31.7453 20.8898 31.7351 20.848C31.7244 20.8071 31.7209 20.7849 31.7226 20.784Z" fill="#787D51"/>
<path d="M28.3463 13.1351C28.4375 13.1809 29.5566 13.5462 29.8308 14.4138C30.105 15.2813 31.8032 20.8444 31.849 21.324C31.8948 21.8035 31.4788 24.3844 30.9308 25.3435C30.3828 26.3027 29.5143 25.7333 28.7379 25.3218C27.9615 24.9107 27.3419 22.9538 27.205 22.0173C27.0681 21.0809 26.9766 19.5284 26.9766 19.5284L28.3463 13.1351Z" fill="#98A16D"/>
<path d="M19.6987 11.5373L22.6276 11.9142L26.5511 12.596L28.5307 13.2115C28.5307 13.2115 28.2449 19.9427 27.3578 20.8195C26.4707 21.6964 26.5511 21.4404 26.5511 21.4404L27.4804 23.18L17.5742 26.2271C17.5742 26.2271 18.2538 21.6804 17.812 18.8822C17.3702 16.084 18.0116 14.1195 18.0116 13.9991C18.0116 13.8791 19.6987 11.5373 19.6987 11.5373Z" fill="#98A16D"/>
<path d="M29.8127 7.59244C29.7363 8.88488 29.6651 10.4729 28.8789 11.5013C28.6558 11.7933 28.3731 12.068 28.3065 12.4293C28.214 12.9307 28.5687 13.4538 28.4123 13.9391C28.2754 14.364 27.8136 14.5738 27.4736 14.8631C27.0145 15.2542 26.7567 15.8284 26.5483 16.3947C26.3398 16.9609 27.0945 17.9889 26.7429 18.4791C26.3914 18.9693 26.5336 21.712 25.9331 21.6502L24.0771 17.8307L27.7478 7.74088L29.8127 7.59244Z" fill="#412C28"/>
<path d="M23.9426 4.58578C24.936 3.88089 26.0791 3.63156 27.26 3.93467C27.9262 4.10578 28.1626 4.31867 28.6053 4.57822C29.0475 4.83778 29.4084 5.212 29.5826 5.69467C29.7898 6.26756 29.9266 6.88267 29.8306 7.484C29.732 8.10134 29.6324 8.72311 29.4226 9.312C29.2124 9.90089 28.8831 10.4618 28.3951 10.8529L26.7911 10.6987C25.9373 10.4956 25.0724 10.288 24.3013 9.86934C23.5302 9.45067 22.8511 8.788 22.6075 7.94534C22.2689 6.77467 22.9489 5.29111 23.9426 4.58578Z" fill="#412C28"/>
<path d="M28.984 10.1636C28.7836 9.96979 28.5631 9.91024 28.3102 9.98135C28.2689 9.9929 28.2422 10.0378 28.2542 10.0809C28.2662 10.1236 28.3107 10.1489 28.3533 10.1369C28.5516 10.0813 28.7116 10.1253 28.8716 10.28C28.9876 10.392 29.0533 10.5427 29.056 10.704C29.0587 10.8653 28.9987 11.0182 28.8867 11.1342C28.7747 11.2502 28.624 11.3156 28.4627 11.3187C28.3013 11.3213 28.1484 11.2613 28.0324 11.1493C27.9164 11.0373 27.8507 10.8867 27.848 10.7253C27.8453 10.564 27.936 10.3658 28.048 10.2493L27.8862 10.1991C27.744 10.3462 27.6831 10.5236 27.6867 10.728C27.6902 10.9325 27.7733 11.1231 27.9204 11.2653C28.1524 11.4893 28.4911 11.5373 28.7684 11.412C28.8542 11.3733 28.9342 11.3182 29.0031 11.2467C29.1453 11.0996 29.2213 10.9058 29.2178 10.7013C29.2142 10.4965 29.1311 10.3058 28.984 10.1636Z" fill="#F5F5F5"/>
<path d="M24.0188 17.1164L22.917 12.1156L24.6174 5.34934C24.7085 5.05734 25.0081 4.88356 25.3072 4.94978L27.5708 4.69867L28.0872 4.90667C29.2859 5.24 29.7512 6.78934 29.493 7.76311C29.2063 8.84445 28.8134 10.1533 28.4237 10.9018C27.6405 12.4062 26.2383 12.1649 26.2383 12.1649L25.653 13.6627" fill="#F8C8B4"/>
<path d="M26.1265 9.86889C26.1607 9.78756 26.2278 9.72578 26.3016 9.69111C26.4492 9.62133 26.6269 9.65956 26.7305 9.78311C26.8345 9.90667 26.858 10.1076 26.7878 10.2693C26.6892 10.3484 26.5607 10.3849 26.4363 10.3618C26.4167 10.3582 26.3976 10.3538 26.3789 10.348C26.2874 10.3204 26.202 10.2636 26.15 10.176C26.098 10.0889 26.0843 9.96933 26.1265 9.86889Z" fill="#E3956B"/>
<path d="M28.6791 9.02223C28.6471 9.13112 28.528 9.19379 28.4137 9.16223C28.2995 9.13067 28.2329 9.01734 28.2649 8.90845C28.2969 8.79956 28.416 8.7369 28.5297 8.76845C28.6444 8.80001 28.7111 8.91379 28.6791 9.02223Z" fill="#412C28"/>
<path d="M28.9798 8.20221C28.9456 8.22043 28.8292 8.05466 28.6096 7.98177C28.3914 7.90577 28.1927 7.96488 28.1776 7.93021C28.1701 7.91421 28.2118 7.8751 28.299 7.84755C28.3847 7.81999 28.5194 7.80977 28.6559 7.85599C28.7923 7.90266 28.8905 7.9911 28.9394 8.06488C28.9892 8.13866 28.9963 8.19421 28.9798 8.20221Z" fill="#412C28"/>
<path d="M27.0694 9.55554C27.0725 9.54266 27.2169 9.56488 27.4472 9.61021C27.5049 9.6231 27.5618 9.62977 27.5841 9.59466C27.6107 9.55866 27.6076 9.49021 27.6023 9.41643C27.5947 9.2631 27.5872 9.10266 27.5787 8.93466C27.5512 8.25066 27.5512 7.69599 27.5787 7.6951C27.6063 7.69421 27.6512 8.24799 27.6783 8.93199C27.6836 9.09999 27.6889 9.26043 27.6938 9.41377C27.6938 9.48443 27.7063 9.56888 27.6494 9.6431C27.6205 9.67999 27.5689 9.69643 27.5298 9.69421C27.4903 9.69332 27.4587 9.6831 27.4303 9.67554C27.2045 9.61332 27.0663 9.56843 27.0694 9.55554Z" fill="#412C28"/>
<path d="M26.2418 12.1636C26.2418 12.1636 25.1489 11.8751 24.3018 10.8845C24.3018 10.8845 24.4453 12.1707 26.0866 12.5542L26.2418 12.1636Z" fill="#E3956B"/>
<path d="M26.3736 9.49157C26.4101 9.50135 26.331 9.73957 26.4785 9.97646C26.6252 10.2138 26.8883 10.272 26.879 10.3058C26.8772 10.3218 26.807 10.3329 26.699 10.3C26.5927 10.2685 26.4505 10.1836 26.3603 10.0382C26.2705 9.8929 26.263 9.7369 26.2874 9.63646C26.3118 9.53468 26.3581 9.48446 26.3736 9.49157Z" fill="#412C28"/>
<path d="M29.2364 7.31955C29.1817 7.36088 29.0257 7.26888 28.824 7.21955C28.624 7.16399 28.4422 7.16755 28.4151 7.10488C28.4035 7.07511 28.4426 7.02977 28.5284 6.99866C28.6133 6.96755 28.7457 6.95644 28.884 6.99244C29.0222 7.02888 29.132 7.10266 29.1902 7.17155C29.2497 7.24088 29.2608 7.29866 29.2364 7.31955Z" fill="#412C28"/>
<path d="M26.2981 8.25468C26.2626 8.36223 26.3244 8.48179 26.4364 8.5209C26.5479 8.56046 26.6679 8.50535 26.7035 8.39735C26.739 8.28979 26.6772 8.17023 26.5657 8.13112C26.4532 8.09157 26.3337 8.14668 26.2981 8.25468Z" fill="#412C28"/>
<path d="M25.9886 7.28888C26.0064 7.3231 26.1966 7.25333 26.4184 7.3191C26.641 7.38133 26.7704 7.54355 26.8024 7.5231C26.8179 7.51466 26.8059 7.45822 26.7499 7.38577C26.6953 7.31377 26.5908 7.22888 26.4521 7.18888C26.3135 7.14933 26.1824 7.16577 26.1001 7.19822C26.017 7.23155 25.9797 7.27333 25.9886 7.28888Z" fill="#412C28"/>
<path d="M26.2834 6.82354C26.3123 6.88666 26.4989 6.88488 26.7056 6.94266C26.914 6.99421 27.0763 7.08799 27.1318 7.0471C27.1571 7.02665 27.1443 6.96799 27.082 6.89821C27.0207 6.82888 26.9065 6.75288 26.7638 6.71554C26.6211 6.67821 26.4851 6.68754 26.3985 6.71866C26.3105 6.74799 26.2714 6.79332 26.2834 6.82354Z" fill="#412C28"/>
<path d="M24.1533 8.13646C24.1924 8.01824 24.1488 7.69335 24.0377 7.63602C23.7417 7.48313 23.1706 7.32002 22.9004 8.11068C22.5315 9.19157 23.7977 9.39246 23.7977 9.39246C23.8075 9.36846 24.0177 8.54535 24.1533 8.13646Z" fill="#F8C8B4"/>
<path d="M23.5419 8.81245C23.5383 8.80756 23.5183 8.81912 23.4819 8.82312C23.4459 8.82667 23.389 8.81823 23.3401 8.77778C23.2401 8.6969 23.2059 8.48267 23.2672 8.28623C23.2979 8.18667 23.3508 8.10045 23.4121 8.03467C23.4721 7.96667 23.5423 7.92934 23.6032 7.93867C23.665 7.9449 23.6939 7.99334 23.697 8.02801C23.701 8.06312 23.6868 8.08267 23.6921 8.08623C23.6943 8.08978 23.7214 8.07601 23.7281 8.02845C23.7308 8.00534 23.7272 7.97556 23.7086 7.94623C23.6899 7.91645 23.6552 7.89245 23.6139 7.88312C23.5286 7.86045 23.4272 7.91156 23.3597 7.98356C23.2877 8.05423 23.2263 8.15112 23.1917 8.26267C23.1241 8.48267 23.1663 8.7249 23.3072 8.82356C23.3766 8.86934 23.4477 8.86801 23.4894 8.85379C23.5312 8.83779 23.545 8.81556 23.5419 8.81245Z" fill="#E3956B"/>
<path d="M23.9919 7.62668L24.1919 7.99335C25.7154 7.16979 28.8665 4.92579 28.6879 5.06179C28.6879 5.06179 27.9541 4.49513 27.0146 4.40179C26.075 4.30846 24.2492 4.29024 23.9857 5.35557C23.7221 6.42046 23.9919 7.62668 23.9919 7.62668Z" fill="#412C28"/>
<path d="M29.694 20.9271C29.6949 20.9369 29.5709 20.9507 29.3763 20.9973C29.1816 21.0436 28.9176 21.1307 28.6487 21.2742C28.3803 21.4191 28.162 21.5911 28.0158 21.728C27.8692 21.8644 27.7892 21.9604 27.7816 21.9542C27.7785 21.9516 27.7958 21.9258 27.83 21.88C27.8634 21.8342 27.9172 21.772 27.9878 21.6987C28.1287 21.5524 28.3478 21.3716 28.622 21.2236C28.8967 21.0769 29.1687 20.9942 29.3683 20.9573C29.4683 20.9387 29.5496 20.9284 29.6065 20.9258C29.6625 20.9231 29.6936 20.9231 29.694 20.9271Z" fill="#787D51"/>
<path d="M39.2566 13.5073L38.7969 13.5972L38.8499 13.8685L39.3097 13.7786L39.2566 13.5073Z" fill="white"/>
<path d="M40.2903 13.1915L39.8311 13.2813L39.8841 13.5526L40.3434 13.4628L40.2903 13.1915Z" fill="white"/>
<path d="M41.3797 12.9517L40.9199 13.0416L40.973 13.3129L41.4327 13.223L41.3797 12.9517Z" fill="white"/>
<path d="M41.5119 15.8029L41.9717 15.713L41.9186 15.4417L41.4589 15.5316L41.5119 15.8029Z" fill="white"/>
<path d="M40.4274 16.0157L40.8867 15.9259L40.8337 15.6546L40.3744 15.7444L40.4274 16.0157Z" fill="white"/>
<path d="M39.3381 16.2548L39.7979 16.1649L39.7448 15.8936L39.2851 15.9834L39.3381 16.2548Z" fill="white"/>
<path d="M40.3049 13.5556L39.9922 13.6167L40.3982 15.6929L40.7109 15.6318L40.3049 13.5556Z" fill="white"/>
<path d="M39.2366 13.794L38.9238 13.8551L39.3298 15.9313L39.6425 15.8702L39.2366 13.794Z" fill="white"/>
<path d="M41.3762 13.3205L41.0635 13.3817L41.4695 15.4579L41.7822 15.3967L41.3762 13.3205Z" fill="white"/>
<path d="M43.4423 13.8462C43.3645 13.836 43.3916 13.7804 43.3169 13.6249C43.2423 13.4693 43.1658 13.4653 42.916 13.3813C42.6663 13.2978 42.6805 13.0489 42.6805 13.0489C42.5178 13.0555 42.5169 12.9231 42.5169 12.9231L38.3534 13.9578C38.0258 14.2173 37.8174 14.2493 37.8174 14.2493L38.1552 15.9773C38.5054 15.8649 38.8458 16.0569 38.8458 16.0569L43.0107 15.288C42.9907 15.1542 43.1325 15.1053 43.1325 15.1053C43.0978 14.9293 43.1089 14.6622 43.3103 14.5302C43.5116 14.3987 43.4747 14.3067 43.4747 14.3067L43.4552 14.0769C43.5049 14.0418 43.5574 13.9875 43.564 13.9231C43.5712 13.8591 43.52 13.8564 43.4423 13.8462ZM38.3978 14.4035C38.3667 14.2675 38.452 14.132 38.588 14.1009L41.5 13.4364C41.636 13.4053 41.7716 13.4907 41.8027 13.6267C41.8338 13.7627 41.7485 13.8982 41.6125 13.9293L38.7005 14.5938C38.5645 14.6249 38.4289 14.5395 38.3978 14.4035ZM41.9414 15.1822L39.0103 15.7551C38.8734 15.7818 38.7405 15.6924 38.7138 15.5555C38.6872 15.4187 38.7765 15.2858 38.9134 15.2591L41.8445 14.6862C41.9814 14.6595 42.1143 14.7489 42.1409 14.8858C42.1676 15.0227 42.0783 15.1551 41.9414 15.1822Z" fill="#4B4F3C"/>
<path d="M27.1555 17.8058L27.0039 17.0306C26.6377 16.0213 25.8275 13.9506 24.111 13.9822C22.3946 14.0138 22.1542 14.7302 21.0204 15.3235C19.8866 15.9169 19.6124 15.5035 17.6386 14.9102C15.6648 14.3164 14.4999 14.5782 14.4999 14.5782C10.5275 15.2689 11.2484 19.976 11.5533 21.3684L11.5506 21.3689C11.5506 21.3689 12.8604 27.8586 17.3822 26.4333C17.3822 26.4333 18.5368 26.1302 20.0173 24.6964C21.4977 23.2622 21.5515 22.7693 22.831 22.7751C24.1106 22.7809 24.6537 23.3066 26.1924 22.5462C27.7315 21.7858 27.4995 19.5742 27.3608 18.5093L27.1555 17.8058Z" fill="#CADDAC" stroke="#CADDAC" stroke-miterlimit="10"/>
<g opacity="0.2">
<path d="M17.9715 15.0133L12.6973 24.3147C13.1382 25.0587 13.7257 25.7689 14.4919 26.204L20.7404 15.4564C19.8848 15.8169 19.491 15.4987 17.9715 15.0133Z" fill="white"/>
<path d="M23.2214 14.0813C22.5485 14.1924 22.2503 14.5164 21.5819 14.98L15.2734 26.5258C15.6005 26.6133 15.9534 26.6529 16.3339 26.6316L23.2214 14.0813Z" fill="white"/>
</g>
<path d="M24.5546 18.2289C24.5537 18.2289 24.5497 18.2178 24.5435 18.1955C24.5364 18.1702 24.5275 18.1382 24.5164 18.0973C24.5057 18.0538 24.4906 18.0004 24.4657 17.94C24.443 17.8787 24.4186 17.8075 24.3786 17.7324C24.3093 17.5778 24.195 17.4018 24.0355 17.2231C23.875 17.0453 23.6595 16.8689 23.3879 16.7369C23.1173 16.6062 22.7906 16.5142 22.4355 16.5213C22.083 16.5298 21.7008 16.616 21.3617 16.8267C21.1897 16.9267 21.031 17.0582 20.8915 17.2124C20.8186 17.2871 20.759 17.3738 20.695 17.4587C20.6404 17.5498 20.5817 17.6395 20.5386 17.7391C20.3497 18.1289 20.291 18.5938 20.3746 19.0449C20.4666 19.4947 20.6959 19.9035 21.0182 20.1933C21.0955 20.2693 21.1835 20.3307 21.2688 20.3942C21.3599 20.4489 21.4479 20.5071 21.5435 20.5484C21.7306 20.6387 21.9275 20.7009 22.1244 20.7289C22.5177 20.7969 22.9048 20.7324 23.2342 20.6075C23.5657 20.48 23.8337 20.2715 24.0355 20.0489C24.2373 19.8244 24.3706 19.58 24.4519 19.3547C24.5324 19.1289 24.5715 18.9227 24.5777 18.7538C24.5866 18.6693 24.5822 18.5942 24.5804 18.5289C24.5808 18.4635 24.5746 18.4084 24.5679 18.364C24.563 18.3222 24.559 18.2889 24.5564 18.2627C24.5542 18.2409 24.5533 18.2293 24.5546 18.2289C24.5555 18.2289 24.5582 18.24 24.5626 18.2627C24.567 18.2884 24.5728 18.3218 24.5799 18.3635C24.5884 18.408 24.5964 18.4631 24.5977 18.5289C24.6013 18.5947 24.6075 18.6707 24.6004 18.756C24.5977 18.9271 24.5613 19.1364 24.4826 19.3667C24.4026 19.5964 24.2697 19.8462 24.0662 20.0769C23.863 20.3058 23.5906 20.5204 23.2524 20.6529C22.9164 20.7827 22.5204 20.8502 22.1168 20.7822C21.915 20.7542 21.7128 20.6911 21.5208 20.5991C21.4226 20.5569 21.3319 20.4973 21.2386 20.4413C21.151 20.3764 21.0608 20.3133 20.9813 20.2355C20.8199 20.0844 20.6706 19.9102 20.5613 19.708C20.4497 19.5075 20.3679 19.2875 20.3195 19.0569C20.2333 18.5938 20.2942 18.116 20.4888 17.716C20.5333 17.6138 20.5933 17.5218 20.6497 17.4284C20.715 17.3413 20.7764 17.2524 20.8515 17.176C20.995 17.0182 21.1582 16.884 21.3346 16.7818C21.683 16.5667 22.075 16.4804 22.435 16.4742C22.7982 16.4693 23.1315 16.5658 23.4057 16.7009C23.6813 16.8378 23.8986 17.0195 24.059 17.2018C24.219 17.3853 24.3315 17.5658 24.3986 17.7231C24.4377 17.7995 24.4604 17.8724 24.4817 17.9347C24.5053 17.9964 24.5186 18.0502 24.5275 18.0947C24.5364 18.136 24.5439 18.1689 24.5493 18.1947C24.5533 18.2173 24.5555 18.2289 24.5546 18.2289Z" fill="white"/>
<path d="M24.3057 18.2462C24.2964 18.2489 24.2764 18.0818 24.1506 17.8138C24.0897 17.6791 23.9901 17.5258 23.851 17.3698C23.711 17.2147 23.523 17.0613 23.2862 16.9462C23.0501 16.8324 22.7653 16.7524 22.4559 16.7587C22.1488 16.7662 21.8155 16.8413 21.5204 17.0253C21.3706 17.1124 21.2324 17.2271 21.111 17.3618C21.0475 17.4267 20.9955 17.5027 20.9399 17.5764C20.8924 17.6555 20.8413 17.7342 20.8039 17.8209C20.639 18.1604 20.5884 18.5658 20.6613 18.9587C20.7413 19.3502 20.9413 19.7067 21.2217 19.9591C21.2893 20.0253 21.3657 20.0787 21.4399 20.1342C21.519 20.1818 21.5959 20.2324 21.679 20.2689C21.8421 20.3475 22.0137 20.4018 22.1853 20.4262C22.5279 20.4853 22.8653 20.4293 23.1524 20.3209C23.4413 20.2098 23.675 20.0284 23.851 19.8342C24.027 19.6387 24.1435 19.4253 24.2146 19.2293C24.2848 19.0324 24.3195 18.8529 24.3248 18.7053C24.3404 18.4098 24.2959 18.2471 24.3057 18.2462C24.3066 18.2462 24.3093 18.256 24.3128 18.2755C24.3168 18.2987 24.3222 18.3275 24.3284 18.3635C24.3359 18.4022 24.343 18.4502 24.3444 18.508C24.3479 18.5653 24.3533 18.6315 24.347 18.7062C24.3448 18.8555 24.3133 19.0387 24.2444 19.24C24.1746 19.4409 24.0586 19.6591 23.8808 19.8609C23.703 20.0609 23.4653 20.2489 23.1697 20.3649C22.8759 20.4782 22.5297 20.5378 22.1768 20.4782C22.0004 20.4538 21.8235 20.3987 21.6555 20.3182C21.5697 20.2813 21.4906 20.2293 21.4088 20.1804C21.3324 20.1235 21.2533 20.0684 21.1835 20.0004C20.8942 19.7409 20.687 19.3733 20.6048 18.9698C20.5293 18.5649 20.5826 18.1467 20.7528 17.7973C20.7915 17.708 20.8444 17.6275 20.8937 17.5458C20.951 17.4698 21.0048 17.392 21.0701 17.3253C21.1955 17.1875 21.3386 17.0698 21.4928 16.9809C21.7977 16.7929 22.1404 16.7178 22.455 16.712C22.7724 16.708 23.0639 16.7924 23.3035 16.9107C23.5444 17.0307 23.7341 17.1893 23.8741 17.3489C24.0137 17.5093 24.1119 17.6671 24.1702 17.8049C24.2039 17.8715 24.2239 17.9351 24.2426 17.9898C24.263 18.0435 24.2746 18.0911 24.2821 18.1293C24.2897 18.1649 24.2959 18.1938 24.3008 18.2164C24.3053 18.236 24.3066 18.2462 24.3057 18.2462Z" fill="white"/>
<path d="M23.125 17.3884L37.8183 14.2498L38.1561 15.9778L23.5543 19.5835L23.125 17.3884Z" fill="#4B4F3C"/>
<path d="M22.7826 19.9269C23.5223 19.7381 23.9688 18.9855 23.7801 18.2459C23.5913 17.5062 22.8386 17.0597 22.099 17.2484C21.3594 17.4372 20.9128 18.1899 21.1016 18.9295C21.2904 19.6691 22.043 20.1157 22.7826 19.9269Z" fill="#263138"/>
<g opacity="0.3">
<path d="M22.7826 19.9269C23.5223 19.7381 23.9688 18.9855 23.7801 18.2459C23.5913 17.5062 22.8386 17.0597 22.099 17.2484C21.3594 17.4372 20.9128 18.1899 21.1016 18.9295C21.2904 19.6691 22.043 20.1157 22.7826 19.9269Z" fill="#040000"/>
</g>
<path d="M15.3408 17.2667L16.5417 22.856L17.511 22.6662L16.2919 17.0671L15.3408 17.2667Z" fill="#4B4F3C"/>
<g opacity="0.3">
<path d="M15.6017 17.4356L15.3408 17.2667L16.2919 17.0671L16.1124 17.332C15.9986 17.4996 15.7719 17.5458 15.6017 17.4356Z" fill="#040000"/>
</g>
<g opacity="0.3">
<path d="M17.2244 22.4889L17.5111 22.6662L16.5342 22.8573L16.7137 22.5924C16.8275 22.4249 17.0546 22.3786 17.2244 22.4889Z" fill="#040000"/>
</g>
<path d="M39.2861 14.1404C39.2861 14.1404 39.2657 14.1466 39.2257 14.156C39.183 14.1653 39.1239 14.1786 39.047 14.196C38.8875 14.2306 38.6559 14.2813 38.359 14.3462C37.759 14.4769 36.895 14.6653 35.8279 14.8982C33.6883 15.3631 30.7363 16.0049 27.4759 16.7133C24.2128 17.4155 21.2595 18.0515 19.119 18.5124C18.0506 18.7377 17.1848 18.92 16.5843 19.0466C16.2861 19.1071 16.0541 19.1537 15.8941 19.1862C15.8168 19.2009 15.7568 19.2124 15.7141 19.2204C15.6737 19.228 15.6523 19.2302 15.6523 19.2302C15.6523 19.2302 15.6728 19.224 15.7128 19.2146C15.7555 19.2053 15.8146 19.192 15.8915 19.1746C16.051 19.14 16.2826 19.0893 16.5795 19.0244C17.179 18.8937 18.0435 18.7053 19.1106 18.4724C21.2501 18.0075 24.2021 17.3657 27.4639 16.6573C30.7257 15.9551 33.679 15.3195 35.8195 14.8586C36.8879 14.6333 37.7537 14.4511 38.3546 14.3244C38.6528 14.264 38.8848 14.2173 39.0452 14.1849C39.1226 14.1702 39.1826 14.1586 39.2252 14.1506C39.2652 14.1431 39.2861 14.1404 39.2861 14.1404Z" fill="#263138"/>
<path d="M40.39 13.9946C40.3172 14.016 40.0287 14.1 39.4358 14.2729C39.1278 14.3595 38.7469 14.4533 38.3029 14.5502C37.8589 14.6497 37.354 14.7626 36.7958 14.888C34.5598 15.3849 31.474 16.0702 28.066 16.8275C24.6554 17.5786 21.5683 18.2586 19.3314 18.7511C18.2149 18.9942 17.3105 19.1911 16.6834 19.3275C16.3723 19.3942 16.1296 19.4457 15.9629 19.4813C15.882 19.4977 15.8198 19.5106 15.7754 19.52C15.7332 19.5284 15.7109 19.5311 15.7109 19.5311C15.7109 19.5311 15.7323 19.5244 15.774 19.5142C15.818 19.5035 15.8803 19.4888 15.9607 19.4702C16.1269 19.432 16.3687 19.3769 16.6789 19.3057C17.3056 19.1649 18.2083 18.9622 19.3234 18.7115C21.5594 18.2146 24.6452 17.5293 28.054 16.7715C31.4634 16.0209 34.55 15.3409 36.7869 14.8484C37.3456 14.7266 37.8514 14.616 38.2958 14.5191C38.7407 14.4253 39.1212 14.3346 39.43 14.2515C39.7394 14.1693 39.9776 14.0995 40.1403 14.0551C40.2216 14.0329 40.2838 14.0164 40.326 14.0071C40.3683 13.9969 40.39 13.9946 40.39 13.9946Z" fill="#263138"/>
<path d="M41.5124 13.8658C41.5124 13.8658 41.4902 13.8724 41.4471 13.8844C41.4039 13.8973 41.3404 13.9178 41.2573 13.9471C41.0915 14.0049 40.8479 14.0946 40.5306 14.1986C40.2133 14.3022 39.8217 14.4204 39.3622 14.5386C38.9026 14.6564 38.3759 14.7751 37.7951 14.9133C35.4711 15.4586 32.2577 16.2 28.7066 17.0102C25.1546 17.8204 21.9373 18.5462 19.6071 19.0649C18.4426 19.3209 17.4999 19.5284 16.8462 19.6724C16.5213 19.7409 16.2679 19.7938 16.0942 19.8306C16.0093 19.8471 15.9444 19.86 15.8982 19.8689C15.8537 19.8773 15.8311 19.88 15.8311 19.88C16.1382 19.8102 21.6102 18.5658 28.6946 16.9546C32.2439 16.1422 35.4577 15.4071 37.7866 14.8742C38.3679 14.7386 38.8955 14.6226 39.3546 14.508C39.8142 14.3933 40.2062 14.2782 40.5244 14.1778C40.8426 14.0773 41.0871 13.9911 41.2542 13.9364C41.3377 13.9089 41.4022 13.8902 41.4457 13.8791C41.4893 13.8684 41.5124 13.8658 41.5124 13.8658Z" fill="#263138"/>
<path d="M41.6788 14.8724C41.6788 14.8724 41.6557 14.8733 41.6103 14.8737C41.5655 14.8746 41.4983 14.8755 41.4103 14.88C41.2348 14.8871 40.9757 14.9062 40.6437 14.9431C40.3117 14.98 39.9063 15.0369 39.4383 15.116C39.2041 15.16 38.9494 15.1791 38.6819 15.2053C38.4143 15.2324 38.1299 15.2546 37.841 15.3266C35.5072 15.8569 32.2863 16.5889 28.729 17.3973C25.169 18.1995 21.9468 18.9257 19.6121 19.452C18.4463 19.712 17.5028 19.9222 16.8481 20.068C16.5232 20.1391 16.2699 20.1946 16.0961 20.2329C16.0117 20.2506 15.9463 20.2644 15.9001 20.2742C15.8561 20.2831 15.833 20.2862 15.833 20.2862C15.833 20.2862 15.8552 20.2791 15.8988 20.2684C15.9446 20.2573 16.0095 20.2417 16.0935 20.2213C16.2668 20.1809 16.5192 20.1217 16.8432 20.0462C17.497 19.896 18.4397 19.6795 19.6037 19.4124C21.9375 18.8822 25.1583 18.1502 28.7166 17.3417C32.2752 16.54 35.497 15.8137 37.8317 15.288C38.1241 15.2169 38.4108 15.196 38.6783 15.1702C38.9468 15.1453 39.1997 15.128 39.433 15.0857C39.9019 15.0093 40.3081 14.9555 40.641 14.9222C40.9739 14.8889 41.2334 14.8733 41.4099 14.8697C41.4979 14.8675 41.565 14.8684 41.6103 14.8693C41.6557 14.8693 41.6788 14.8724 41.6788 14.8724Z" fill="#263138"/>
<path d="M40.5763 15.1995C40.5763 15.1995 40.555 15.2049 40.5128 15.2124C40.4683 15.2195 40.4056 15.2293 40.3248 15.2422C40.1568 15.2662 39.9128 15.3004 39.5994 15.3449C39.2843 15.3889 38.8985 15.4404 38.4523 15.5084C38.3408 15.5253 38.2252 15.544 38.107 15.5653C37.9896 15.5875 37.8683 15.6191 37.7439 15.6475C37.4945 15.7057 37.2305 15.7671 36.9536 15.8315C34.7363 16.3471 31.6763 17.0582 28.2968 17.844C24.9141 18.6226 21.8528 19.3275 19.6341 19.8382C18.5261 20.0875 17.6283 20.2893 17.0056 20.4293C16.6945 20.4964 16.4536 20.5497 16.2892 20.5826C16.2088 20.5986 16.1465 20.6106 16.1021 20.6195C16.0599 20.6275 16.0381 20.6302 16.0381 20.6302C16.3448 20.5591 21.5416 19.3529 28.2834 17.7884C31.6643 17.0093 34.7256 16.3035 36.9443 15.7924C37.2216 15.7293 37.4856 15.6693 37.7354 15.612C37.8608 15.5844 37.9808 15.5537 38.1008 15.5315C38.2199 15.5106 38.3354 15.4929 38.4474 15.4764C38.895 15.4115 39.2808 15.3631 39.5963 15.3226C39.9101 15.2831 40.1545 15.252 40.323 15.2306C40.4043 15.22 40.467 15.212 40.5119 15.2062C40.5541 15.2013 40.5763 15.1995 40.5763 15.1995Z" fill="#263138"/>
<path d="M39.5646 15.472C39.5646 15.472 39.5442 15.4778 39.5042 15.4862C39.462 15.496 39.4029 15.5093 39.3264 15.5271C39.1704 15.5644 38.9415 15.6235 38.6469 15.7018C38.3531 15.7818 37.9904 15.872 37.5686 15.9689C37.1469 16.068 36.6673 16.1813 36.1371 16.3062C34.0149 16.8115 31.0864 17.5089 27.8522 18.2787C24.6166 19.0498 21.6882 19.7475 19.566 20.2533C18.506 20.5004 17.6478 20.7 17.0518 20.8391C16.7544 20.9053 16.5238 20.9587 16.3664 20.9902C16.2891 21.0058 16.23 21.0178 16.1873 21.0262C16.1469 21.0338 16.126 21.0364 16.126 21.0364C16.4322 20.9631 21.3922 19.7715 27.8389 18.2235C31.0735 17.4498 34.0042 16.7582 36.1278 16.2671C36.6584 16.1453 37.1389 16.0351 37.5615 15.9382C37.9842 15.844 38.3464 15.7573 38.6415 15.6804C38.9371 15.6058 39.1673 15.5502 39.3242 15.516C39.4029 15.4991 39.4629 15.4875 39.5033 15.4804C39.5433 15.4738 39.5646 15.472 39.5646 15.472Z" fill="#263138"/>
<path d="M34.6583 16.8C34.6427 16.8036 34.5396 16.4084 34.4276 15.9182C34.3156 15.4276 34.2374 15.0271 34.2529 15.0236C34.2685 15.02 34.3716 15.4147 34.4836 15.9053C34.5952 16.396 34.6734 16.7964 34.6583 16.8Z" fill="#E0E0E0"/>
<path d="M33.6976 17.0787C33.6821 17.0822 33.5745 16.668 33.4572 16.1533C33.3398 15.6387 33.2572 15.2187 33.2723 15.2151C33.2878 15.2116 33.3954 15.6258 33.5127 16.1409C33.6305 16.6551 33.7132 17.0751 33.6976 17.0787Z" fill="#E0E0E0"/>
<path d="M32.7337 17.3387C32.7182 17.3422 32.607 16.9124 32.4853 16.3787C32.3635 15.8449 32.2773 15.4098 32.2928 15.4062C32.3084 15.4027 32.4195 15.8324 32.5413 16.3662C32.6626 16.9 32.7488 17.3351 32.7337 17.3387Z" fill="#E0E0E0"/>
<path d="M31.8486 17.5355C31.8331 17.5391 31.7233 17.1155 31.6033 16.5898C31.4833 16.0635 31.3984 15.6347 31.4139 15.6311C31.4295 15.6275 31.5393 16.0511 31.6593 16.5773C31.7793 17.1026 31.8642 17.532 31.8486 17.5355Z" fill="#E0E0E0"/>
<path d="M31.0229 17.7391C31.0073 17.7426 30.8957 17.3098 30.7731 16.7729C30.6504 16.2355 30.5637 15.7973 30.5789 15.7938C30.5944 15.7902 30.706 16.2226 30.8286 16.76C30.9513 17.2973 31.0384 17.7355 31.0229 17.7391Z" fill="#E0E0E0"/>
<path d="M30.3086 17.9395C30.293 17.9431 30.1784 17.4973 30.0522 16.9444C29.9259 16.3911 29.8362 15.94 29.8513 15.9364C29.8668 15.9329 29.9815 16.3786 30.1077 16.932C30.2339 17.4849 30.3237 17.936 30.3086 17.9395Z" fill="#E0E0E0"/>
<path d="M29.5241 18.1302C29.5085 18.1338 29.3938 17.688 29.2676 17.1351C29.1414 16.5818 29.0516 16.1307 29.0672 16.1271C29.0827 16.1235 29.1974 16.5693 29.3236 17.1227C29.4494 17.6751 29.5396 18.1267 29.5241 18.1302Z" fill="#E0E0E0"/>
<path d="M28.7643 18.2786C28.7488 18.2822 28.6341 17.8364 28.5079 17.2835C28.3816 16.7302 28.2919 16.2791 28.3074 16.2755C28.323 16.272 28.4376 16.7178 28.5639 17.2711C28.6901 17.824 28.7799 18.2751 28.7643 18.2786Z" fill="#E0E0E0"/>
<path d="M28.1455 18.4418C28.13 18.4453 28.0153 17.9995 27.8891 17.4466C27.7629 16.8933 27.6731 16.4422 27.6882 16.4387C27.7037 16.4351 27.8184 16.8809 27.9446 17.4342C28.0713 17.9871 28.1611 18.4387 28.1455 18.4418Z" fill="#E0E0E0"/>
<path d="M27.5615 18.5738C27.546 18.5773 27.4313 18.1315 27.3051 17.5786C27.1789 17.0253 27.0891 16.5742 27.1042 16.5706C27.1198 16.5671 27.2344 17.0129 27.3606 17.5662C27.4873 18.1191 27.5771 18.5702 27.5615 18.5738Z" fill="#E0E0E0"/>
<path d="M26.9483 18.7213C26.9327 18.7249 26.818 18.2791 26.6918 17.7262C26.5656 17.1729 26.4758 16.7218 26.4909 16.7182C26.5065 16.7147 26.6211 17.1604 26.7474 17.7138C26.8736 18.2667 26.9634 18.7178 26.9483 18.7213Z" fill="#E0E0E0"/>
<path d="M26.3847 18.8769C26.3692 18.8804 26.2501 18.4155 26.1185 17.8382C25.987 17.2609 25.8927 16.7902 25.9078 16.7866C25.923 16.7831 26.0425 17.248 26.1741 17.8253C26.3061 18.4026 26.4003 18.8733 26.3847 18.8769Z" fill="#E0E0E0"/>
<path d="M25.875 19.0062C25.8594 19.0098 25.7403 18.5449 25.6087 17.9675C25.4772 17.3902 25.383 16.9195 25.3981 16.916C25.4136 16.9124 25.5327 17.3773 25.6643 17.9546C25.7959 18.532 25.8901 19.0026 25.875 19.0062Z" fill="#E0E0E0"/>
<path d="M25.4052 19.1573C25.3897 19.1609 25.2706 18.6955 25.139 18.1187C25.0075 17.5413 24.9132 17.0707 24.9283 17.0671C24.9439 17.0635 25.063 17.5284 25.1946 18.1058C25.3261 18.6831 25.4208 19.1538 25.4052 19.1573Z" fill="#E0E0E0"/>
<path d="M24.9091 19.2351C24.8936 19.2387 24.7745 18.7733 24.6429 18.1964C24.5114 17.6191 24.4171 17.1484 24.4323 17.1449C24.4478 17.1413 24.5669 17.6062 24.6985 18.1836C24.8305 18.7609 24.9247 19.2316 24.9091 19.2351Z" fill="#E0E0E0"/>
<path d="M24.4648 19.3395C24.4493 19.3431 24.3301 18.8782 24.1986 18.3009C24.067 17.7235 23.9728 17.2529 23.9879 17.2493C24.0035 17.2458 24.1226 17.7107 24.2541 18.288C24.3861 18.8653 24.4804 19.3364 24.4648 19.3395Z" fill="#E0E0E0"/>
<path d="M35.7266 16.5911C35.7111 16.5947 35.608 16.1995 35.496 15.7093C35.384 15.2187 35.3058 14.8182 35.3213 14.8147C35.3369 14.8111 35.44 15.2058 35.552 15.6964C35.6635 16.1871 35.7418 16.5875 35.7266 16.5911Z" fill="#E0E0E0"/>
<path d="M36.836 16.2973C36.8205 16.3009 36.7173 15.9058 36.6053 15.4155C36.4933 14.9249 36.4151 14.5244 36.4307 14.5209C36.4462 14.5173 36.5493 14.912 36.6613 15.4026C36.7729 15.8933 36.8511 16.2938 36.836 16.2973Z" fill="#E0E0E0"/>
<path d="M38.1555 15.9778L37.9773 16.0218L37.6377 14.2849L37.8177 14.2498L38.1555 15.9778Z" fill="#E0E0E0"/>
<path d="M15.9924 20.2147C15.995 20.2098 16.0466 20.2716 16.0235 20.3884C16.0163 20.4169 16.007 20.4467 15.9826 20.4769C15.9706 20.4911 15.955 20.5044 15.9332 20.5124C15.9115 20.5213 15.8786 20.5173 15.859 20.4969C15.8204 20.4524 15.8359 20.3987 15.8519 20.3604C15.8701 20.3196 15.9012 20.2822 15.9421 20.2564L15.9648 20.3076C15.9324 20.3169 15.8972 20.3236 15.8612 20.3258C15.8101 20.3293 15.7599 20.3249 15.7128 20.3142C15.6892 20.3089 15.6666 20.3018 15.6448 20.2933C15.6243 20.2844 15.5928 20.2747 15.5808 20.2351C15.5759 20.2173 15.5821 20.1956 15.5928 20.1836C15.6035 20.1711 15.615 20.164 15.6266 20.1591C15.6497 20.1484 15.6728 20.1476 15.6915 20.1462C15.731 20.1449 15.7679 20.1489 15.8003 20.1569C15.9315 20.1911 15.9835 20.264 15.9781 20.2662C15.9723 20.2747 15.9128 20.2169 15.7924 20.1964C15.7626 20.1916 15.7297 20.1902 15.695 20.1938C15.6768 20.196 15.6608 20.1978 15.6479 20.2049C15.6332 20.2124 15.6301 20.22 15.6319 20.2227C15.6315 20.2329 15.6866 20.252 15.7248 20.2596C15.7666 20.2684 15.8115 20.272 15.8568 20.2689C15.8888 20.2667 15.9199 20.2609 15.9488 20.2529L16.1417 20.2L15.9715 20.304C15.9404 20.3231 15.9155 20.3516 15.9008 20.3827C15.8844 20.4133 15.8826 20.4489 15.8946 20.4613C15.9039 20.4751 15.9301 20.4667 15.9488 20.4467C15.9661 20.4284 15.9786 20.4009 15.9866 20.3782C16.0168 20.2809 15.983 20.2169 15.9924 20.2147Z" fill="#263138"/>
<path d="M16.6606 18.7255L16.4404 18.7736L16.9834 21.2567L17.2035 21.2086L16.6606 18.7255Z" fill="#E0E0E0"/>
<path d="M15.78 19.5035C15.7853 19.5022 15.8018 19.5609 15.7755 19.6555C15.7667 19.6782 15.764 19.704 15.7364 19.7324C15.7253 19.748 15.6822 19.7538 15.6667 19.7275C15.652 19.7062 15.6529 19.6871 15.6515 19.6698C15.6502 19.5995 15.6853 19.5187 15.7595 19.4733L15.7827 19.524C15.7369 19.5404 15.6867 19.5507 15.6342 19.5533C15.5858 19.5555 15.5382 19.5515 15.4938 19.5418C15.4715 19.5369 15.4462 19.5302 15.4235 19.5111C15.3978 19.4929 15.3915 19.4458 15.4102 19.4218C15.4262 19.396 15.4538 19.3849 15.4742 19.3804C15.496 19.376 15.5147 19.3751 15.5338 19.3747C15.5715 19.3742 15.6067 19.3809 15.6369 19.3898C15.7604 19.4293 15.8035 19.5035 15.7982 19.5053C15.792 19.5133 15.7395 19.4538 15.6271 19.4289C15.5995 19.4231 15.5684 19.4195 15.5355 19.4222C15.5035 19.4244 15.4635 19.4302 15.4555 19.4489C15.4511 19.4587 15.452 19.4618 15.46 19.4693C15.4693 19.4769 15.4862 19.4831 15.5062 19.4867C15.5462 19.4947 15.5889 19.4982 15.632 19.496C15.6787 19.4938 15.7235 19.4849 15.7649 19.4711L16.028 19.3835L15.788 19.5213C15.7324 19.5533 15.7018 19.6155 15.7 19.6698C15.6995 19.6835 15.7009 19.6969 15.7035 19.7004C15.7049 19.7022 15.7009 19.7035 15.7089 19.6995C15.7222 19.6898 15.7329 19.6627 15.7418 19.6435C15.7747 19.5609 15.7715 19.5035 15.78 19.5035Z" fill="#263138"/>
<path d="M15.7737 19.2009C15.7782 19.1991 15.7808 19.2227 15.7537 19.2347C15.7284 19.2462 15.6955 19.2467 15.6542 19.2484C15.6128 19.2493 15.5635 19.2467 15.5093 19.2378C15.4822 19.2333 15.4542 19.2271 15.4253 19.2191C15.4106 19.2147 15.3973 19.212 15.3786 19.2036C15.3608 19.1951 15.3377 19.1764 15.336 19.1449C15.3351 19.1098 15.3648 19.0902 15.3813 19.0849C15.4004 19.0778 15.4151 19.0764 15.4306 19.0733C15.4617 19.0689 15.492 19.0689 15.52 19.0716C15.5768 19.0769 15.6257 19.0938 15.6631 19.1138C15.7386 19.1542 15.7675 19.2004 15.7626 19.2044C15.7564 19.2111 15.7186 19.1778 15.6466 19.1507C15.6106 19.1373 15.5662 19.1262 15.5164 19.124C15.4915 19.1231 15.4653 19.124 15.4391 19.1289C15.4262 19.1316 15.4111 19.1338 15.4026 19.1378C15.3928 19.1431 15.3915 19.1444 15.3924 19.1431C15.3942 19.1431 15.3946 19.1489 15.404 19.1529C15.4124 19.1573 15.428 19.1613 15.4408 19.1658C15.468 19.1738 15.4942 19.1809 15.5195 19.1862C15.5702 19.1973 15.6164 19.2044 15.656 19.2084C15.6951 19.212 15.7288 19.2164 15.7466 19.2138C15.7657 19.2116 15.7697 19.2009 15.7737 19.2009Z" fill="#263138"/>
<path d="M28.706 17.2769C28.6731 17.3009 28.4482 17.3156 28.5642 17.6893C28.6802 18.0631 28.9767 18.6818 29.3504 18.9653C29.3504 18.9653 29.3504 19.6871 29.5824 20.2156C29.8144 20.744 29.9562 20.7956 29.8789 20.976C29.8015 21.1565 31.6833 21.324 31.6833 21.324C31.6833 21.324 31.7735 21.2209 31.8122 20.628C31.8509 20.0351 31.722 18.3725 31.8122 18.1662C31.9024 17.96 31.9927 17.3285 31.9927 17.0965C31.9927 16.8645 31.9669 16.2329 31.7478 16.1427C31.5287 16.0525 31.3869 16.1169 31.3998 16.5938C31.4127 17.0707 31.3869 17.2769 31.2967 17.4058C31.2064 17.5347 31.2193 17.9342 31.0775 17.8311C30.9358 17.728 31.0131 17.2769 30.8584 17.148C30.7038 17.0191 30.3429 16.9805 30.3429 16.9805C30.3429 16.9805 30.2655 16.7227 30.0593 16.8645C29.8531 17.0062 29.7887 17.1093 29.7887 17.3285C29.7887 17.5476 29.866 18.4111 29.7629 18.3982C29.6598 18.3853 29.2731 18.1662 29.1055 17.7796C28.938 17.3929 28.8384 17.18 28.706 17.2769Z" fill="#F8C8B4"/>
<path d="M29.9259 20.8738C29.6099 21.3351 29.3499 22.108 29.3792 22.6662C29.3908 22.8871 29.4334 23.1129 29.5521 23.3C29.6708 23.4867 29.8774 23.6289 30.0988 23.624C30.3548 23.6187 30.5677 23.4289 30.7348 23.2351C31.2374 22.6516 31.677 21.7511 31.7761 20.9871L29.9259 20.8738Z" fill="#F8C8B4"/>
<path d="M23.1705 41.2693C23.9065 41.1271 24.8012 40.9422 25.475 40.6138C26.1488 40.2853 26.7536 39.7467 26.9959 39.0373C27.2296 38.3533 27.1132 37.5653 27.4559 36.9289C27.9759 35.9627 29.395 35.6342 29.6776 34.5738C29.891 33.7733 29.3288 32.9582 29.3736 32.1311C29.4168 31.3404 29.9914 30.7 30.4288 30.04C30.8661 29.38 31.1714 28.464 30.6936 27.8329C30.6936 27.8329 28.1839 22.9431 28.0514 23.1227C27.919 23.3022 23.2705 34.2262 23.2705 34.2262L22.4639 38.9871L23.1705 41.2693Z" fill="#4B4F3C"/>
<path d="M25.3533 33.888C25.3533 33.888 25.7253 35.0782 25.5515 36.7391C25.3782 38.4 24.6893 40.6058 24.6893 40.6058L22.9551 40.6036C22.9617 38.8884 23.064 37.1604 23.2209 35.4253L25.3533 33.888Z" fill="#F8C8B4"/>
<path d="M26.9623 29.0475C27.3507 29.2649 30.8285 31.9173 31.9205 32.8307C32.1414 33.0155 32.3819 33.2973 32.3819 33.2973L33.9041 32.2982C33.9041 32.2982 32.1512 30.8991 31.0481 28.864C29.9832 26.8991 29.3925 25.1316 27.8983 24.3009C26.4045 23.4702 26.9623 29.0475 26.9623 29.0475Z" fill="#F8C8B4"/>
<path d="M23.0043 40.2667C22.9421 40.2965 22.5643 42.2267 22.531 42.9462C22.4892 43.8427 22.3057 44.9885 22.3057 44.9885L24.9399 45.0009C24.9399 45.0009 24.9541 44.3147 24.9719 43.5827C24.9897 42.8507 24.9252 42.4662 24.9612 42.0596C24.9972 41.6529 24.7452 40.42 24.7452 40.42C24.7452 40.42 23.1763 40.1853 23.0043 40.2667Z" fill="#F8C8B4"/>
<path d="M21.8955 46.9062C21.8955 46.9062 21.7773 46.2227 21.9124 45.608C22.0475 44.9934 22.3391 44.8165 22.3391 44.8165C22.3391 44.8165 24.8066 44.6791 24.9395 45.0014C25.2195 45.6782 25.2138 46.8214 25.2138 46.8214C25.2138 46.8214 22.5195 47.204 21.8955 46.9062Z" fill="#CADDAC" stroke="#CADDAC" stroke-miterlimit="10"/>
<path d="M22.6494 41.7498C22.6494 41.7498 24.0476 41.2618 24.9747 41.8369L24.9859 41.4502C24.9859 41.4502 23.2947 40.9898 22.7161 41.3964L22.6494 41.7498Z" fill="#CADDAC" stroke="#CADDAC" stroke-miterlimit="10"/>
<path d="M25.1794 46.1409C25.1803 46.156 24.9959 46.1805 24.6968 46.2093C24.3977 46.2378 23.9839 46.2702 23.5248 46.2862C23.0657 46.3013 22.6483 46.2942 22.3474 46.2618C22.0456 46.232 21.8652 46.1711 21.8692 46.1582C21.8732 46.1418 22.055 46.1742 22.3532 46.1836C22.651 46.196 23.0643 46.1907 23.5212 46.1756C24.4345 46.1405 25.1776 46.1062 25.1794 46.1409Z" fill="#A4B77C" stroke="#CADDAC" stroke-miterlimit="10"/>
<path d="M32.1524 30.6551C32.2213 30.6387 35.1107 32.9822 35.6516 33.4804C36.3853 34.156 37.1338 34.9649 37.1338 34.9649L35.0418 36.6551C35.0418 36.6551 34.5298 36.1236 34.0484 35.5511C33.5676 34.9791 33.376 34.6729 33.1484 34.3236C32.3489 33.0951 31 32.1409 31 32.1409C31 32.1409 31.9636 30.6996 32.1524 30.6551Z" fill="#F8C8B4"/>
<path d="M38.6709 36.2205C38.6709 36.2205 38.3465 35.6249 37.818 35.1982C37.2896 34.7716 36.9247 34.8187 36.9247 34.8187C36.9247 34.8187 35.0531 36.2631 35.0411 36.6551C35.0336 36.9031 35.4047 37.8013 35.7745 38.1418C35.7745 38.1418 36.7767 37.8418 37.3767 37.3885C38.1994 36.768 38.6709 36.2205 38.6709 36.2205Z" fill="#CADDAC" stroke="#CADDAC" stroke-miterlimit="10"/>
<path d="M34.7069 32.6773C34.7069 32.6773 33.4042 33.4511 33.0651 34.1996L32.7793 33.8182C32.7793 33.8182 33.334 32.8333 34.3771 32.3627L34.7069 32.6773Z" fill="#CADDAC" stroke="#CADDAC" stroke-miterlimit="10"/>
<path d="M38.1194 35.628C38.1296 35.6387 38.0074 35.7782 37.7914 35.9858C37.5754 36.1933 37.2629 36.4662 36.8976 36.7418C36.5318 37.0169 36.1834 37.2418 35.9243 37.3924C35.6651 37.5431 35.4971 37.6218 35.4896 37.6089C35.4727 37.5795 36.1051 37.1991 36.8296 36.6511C37.5554 36.1067 38.0958 35.6035 38.1194 35.628Z" fill="#A4B77C" stroke="#CADDAC" stroke-miterlimit="10"/>
<g opacity="0.3">
<path d="M25.7207 34.8169C25.7207 34.8169 26.459 34.4684 26.5265 33.6551C26.5936 32.8413 25.7207 32.2035 26.5265 31.3644C27.3323 30.5253 28.0563 29.8875 28.3319 29.0484C28.6074 28.2093 29.8834 26.5978 29.8834 26.5978L29.3123 25.5911L25.8887 29.7129L24.2559 32.6062L25.7207 34.8169Z" fill="#040000"/>
</g>
<path d="M16.2324 26.7253C16.2324 26.7253 17.0022 28.8342 18.0822 29.1373C18.0822 29.1373 17.8631 29.5618 17.8631 29.956C17.8631 30.3502 20.4613 34.9387 20.4613 34.9947C20.4613 35.0507 20.656 37.0524 20.8186 37.8107C20.9809 38.5689 21.7826 42.6591 21.9653 42.6244C24.9613 42.0587 23.3222 37.9196 24.1666 36.9187C25.0111 35.9178 25.9831 35.1129 26.0155 34.172C26.048 33.2311 25.1386 31.5631 26.0155 30.744C26.8924 29.9253 27.5618 30.0124 27.8791 28.2267C28.1458 26.7244 29.8826 26.132 29.8826 26.132C29.8826 26.132 27.7898 21.2329 25.5471 21.1671C22.7866 21.0858 20.4951 23.196 19.4573 24.5947C18.5853 25.7716 16.2324 26.7253 16.2324 26.7253Z" fill="#858757"/>
<path d="M21.9656 23.8369C21.9665 23.8369 21.9665 23.8458 21.9651 23.8631C21.9634 23.8835 21.9607 23.9084 21.958 23.9387C21.95 24.0098 21.9389 24.1067 21.9251 24.2284C21.8936 24.4849 21.8487 24.8475 21.7936 25.2933C21.6767 26.1964 21.5158 27.4351 21.3385 28.804C21.1545 30.1724 20.9883 31.4107 20.8669 32.3129C20.8043 32.7578 20.7536 33.1196 20.7176 33.3756C20.6994 33.4969 20.6847 33.5933 20.674 33.664C20.6687 33.6942 20.6647 33.7187 20.6611 33.7387C20.658 33.7555 20.6558 33.764 20.6549 33.764C20.654 33.764 20.654 33.7551 20.6554 33.7382C20.6571 33.7178 20.6598 33.6929 20.6625 33.6627C20.6705 33.5915 20.6816 33.4947 20.6954 33.3729C20.7269 33.1164 20.7718 32.7538 20.8269 32.308C20.9438 31.4049 21.1047 30.1658 21.282 28.7964C21.466 27.4284 21.6322 26.1902 21.7536 25.288C21.8162 24.8431 21.8669 24.4813 21.9029 24.2253C21.9211 24.104 21.9358 24.0076 21.9465 23.9369C21.9514 23.9067 21.9558 23.8822 21.9594 23.8622C21.9625 23.8453 21.9647 23.8369 21.9656 23.8369Z" fill="#595A35"/>
<path d="M20.3969 24.076C20.3987 24.0764 20.396 24.096 20.3889 24.1324C20.38 24.1756 20.3689 24.228 20.3556 24.292C20.3409 24.3613 20.3218 24.4458 20.2947 24.5427C20.2685 24.6396 20.2409 24.7511 20.2023 24.872C20.0583 25.3578 19.8103 26.0151 19.4734 26.7116C19.136 27.408 18.7854 28.0142 18.5232 28.4471C18.392 28.6636 18.2836 28.8373 18.2067 28.956C18.1707 29.0107 18.1414 29.0556 18.1169 29.092C18.096 29.1227 18.084 29.1387 18.0823 29.1373C18.0805 29.1364 18.0889 29.1187 18.1072 29.0858C18.1289 29.0476 18.1552 29.0009 18.1876 28.944C18.2627 28.8142 18.3645 28.6391 18.4885 28.4258C18.7414 27.988 19.0858 27.38 19.4218 26.6858C19.7578 25.992 20.0103 25.3404 20.1636 24.8591C20.2049 24.7396 20.2347 24.6293 20.264 24.5333C20.2938 24.4373 20.3165 24.3538 20.3343 24.2858C20.3516 24.2227 20.3663 24.1711 20.3778 24.1289C20.3885 24.0938 20.3952 24.0756 20.3969 24.076Z" fill="#595A35"/>
<path d="M22.8775 24.3013C22.8784 24.3013 22.8775 24.3173 22.8744 24.348C22.8708 24.3813 22.8659 24.4267 22.8597 24.4845C22.8455 24.6076 22.8246 24.7836 22.7979 25.0089C22.7428 25.4671 22.6642 26.1253 22.5664 26.9373C22.4704 27.7516 22.3584 28.7218 22.2482 29.8C22.1922 30.3391 22.1397 30.9058 22.0908 31.4933C22.0437 32.0809 22.0006 32.6907 21.9913 33.3147C21.9864 33.9396 22.0082 34.5507 22.0228 35.14C22.0388 35.7298 22.0544 36.2987 22.0695 36.8409C22.097 37.9249 22.113 38.9018 22.1095 39.7222C22.1064 40.5427 22.0815 41.2067 22.0455 41.664C22.0357 41.7778 22.0268 41.8796 22.0193 41.968C22.009 42.0556 21.9979 42.1298 21.9899 42.1898C21.9815 42.2476 21.9748 42.2925 21.9704 42.3258C21.9655 42.3565 21.9628 42.372 21.9615 42.3716C21.9606 42.3716 21.9615 42.3556 21.9646 42.3249C21.9682 42.2916 21.9726 42.2462 21.9788 42.1884C21.9855 42.1276 21.9935 42.0533 22.0028 41.9667C22.009 41.8782 22.0162 41.7769 22.0237 41.6627C22.0526 41.2053 22.0717 40.5422 22.0695 39.7222C22.0682 38.9022 22.0482 37.9262 22.0175 36.8422C22.0015 36.3 21.985 35.7311 21.9677 35.1413C21.9522 34.5516 21.9304 33.9409 21.9353 33.3138C21.9446 32.6867 21.9882 32.0769 22.0362 31.4884C22.0859 30.9004 22.1393 30.3333 22.197 29.7942C22.3099 28.7156 22.4264 27.7458 22.5277 26.932C22.629 26.1182 22.7162 25.46 22.777 25.0053C22.8082 24.7804 22.8326 24.6049 22.8495 24.4822C22.8579 24.4244 22.8646 24.3796 22.8699 24.3462C22.8735 24.3169 22.8766 24.3009 22.8775 24.3013Z" fill="#595A35"/>
<path d="M25.0064 23.396C25.0219 23.3951 25.1553 25.2422 25.3037 27.5218C25.4522 29.8018 25.5597 31.6507 25.5437 31.6516C25.5282 31.6524 25.3948 29.8058 25.2464 27.5253C25.0979 25.2458 24.9908 23.3969 25.0064 23.396Z" fill="#595A35"/>
<path d="M12.457 17.8036C12.5526 17.8036 15.7561 18.452 15.7561 18.452C15.7561 18.452 16.1757 19.7489 16.3664 20.0347C16.557 20.3209 16.8624 20.7591 17.377 20.7022C17.377 20.7022 17.625 20.9884 17.9299 20.912L18.1588 20.8164C18.1588 20.8164 18.5401 20.9689 18.769 20.8164C18.9979 20.664 18.8455 20.4351 18.8455 20.4351C18.8455 20.4351 19.1988 20.42 19.3033 19.8822C19.3388 19.6978 19.2077 19.4182 19.1317 19.3644C19.0553 19.3102 18.9028 19.4627 18.9028 19.4627L18.4641 18.5853C18.4641 18.5853 18.7437 19.1084 19.3348 19.1276C19.9259 19.1467 20.1304 18.7471 19.5544 18.6476C19.0335 18.5573 18.369 17.8609 18.0637 17.6893C17.7584 17.5178 16.7579 16.9649 16.2664 16.7742C15.7753 16.5836 14.0188 15.4724 14.0188 15.4724L12.457 17.8036Z" fill="#F8C8B4"/>
<path d="M18.88 20.4187C18.8755 20.432 18.6551 20.3431 18.4586 20.1333C18.26 19.9253 18.1831 19.7004 18.1969 19.6969C18.2124 19.6893 18.3098 19.8951 18.5004 20.0938C18.6884 20.2951 18.8889 20.4036 18.88 20.4187Z" fill="#E3956B"/>
<path d="M18.2376 20.8195C18.235 20.8258 18.1634 20.8 18.0687 20.7249C17.9732 20.6515 17.8598 20.5307 17.7483 20.388C17.6367 20.2453 17.5456 20.1093 17.4816 20.0102C17.4181 19.9107 17.3812 19.8475 17.3874 19.8427C17.4025 19.8315 17.575 20.0689 17.7932 20.3529C17.9034 20.4938 18.0096 20.6155 18.095 20.6942C18.1798 20.7742 18.2421 20.8115 18.2376 20.8195Z" fill="#E3956B"/>
<path d="M17.5745 20.8422C17.5719 20.8484 17.5003 20.8226 17.4056 20.7475C17.3101 20.6742 17.1968 20.5533 17.0852 20.4106C16.9736 20.268 16.8825 20.132 16.8185 20.0329C16.755 19.9333 16.7181 19.8702 16.7243 19.8653C16.7394 19.8542 16.9119 20.0915 17.1301 20.3751C17.2403 20.516 17.3465 20.6377 17.4319 20.7164C17.5168 20.7969 17.579 20.8342 17.5745 20.8422Z" fill="#E3956B"/>
<path d="M19.699 11.5373C19.699 11.5373 17.6412 11.4769 16.6594 11.9907C15.6777 12.5049 14.3168 13.1093 13.1377 13.3813C11.9585 13.6533 11.0212 13.8347 10.1745 14.5C9.32788 15.1653 9.58299 15.6418 9.69099 15.9209C9.85632 16.3493 11.8377 19.64 11.8377 19.64L15.1857 15.9698L13.7425 15.1347L18.4292 15.0742C18.4292 15.0742 19.7897 14.0462 20.0621 13.4413C20.3341 12.8378 19.699 11.5373 19.699 11.5373Z" fill="#98A16D"/>
<path d="M11.7178 14.7404C11.7169 14.7338 11.8338 14.7098 12.0267 14.7C12.2191 14.6898 12.4876 14.7 12.7769 14.7573C13.0662 14.8156 13.3182 14.9089 13.492 14.992C13.6662 15.0751 13.7649 15.1422 13.7618 15.148C13.7573 15.156 13.652 15.1018 13.4756 15.0293C13.2996 14.9564 13.0502 14.8711 12.7653 14.8138C12.4804 14.7573 12.2173 14.7413 12.0271 14.7409C11.8369 14.74 11.7187 14.7498 11.7178 14.7404Z" fill="#787D51"/>
<path d="M18.849 13.4889C18.857 13.4898 18.8534 13.5911 18.8458 13.7546C18.8383 13.9182 18.8276 14.144 18.8205 14.3933C18.8138 14.6431 18.8121 14.8689 18.8103 15.0329C18.809 15.1964 18.8067 15.2982 18.7987 15.2986C18.7912 15.2991 18.7787 15.1978 18.7698 15.0338C18.761 14.8698 18.7561 14.6426 18.7632 14.392C18.7703 14.1413 18.7872 13.9151 18.8054 13.7515C18.8232 13.588 18.841 13.488 18.849 13.4889Z" fill="#787D51"/>
<path d="M24.1012 9.46311C23.9981 9.204 23.8221 9.05911 23.5621 9.01956C23.5194 9.01334 23.4768 9.04311 23.4705 9.08711C23.4639 9.13111 23.4941 9.172 23.5381 9.17867C23.7417 9.20978 23.8692 9.316 23.9514 9.52267C24.011 9.67289 24.0088 9.83689 23.9448 9.98534C23.8808 10.1333 23.763 10.248 23.6132 10.3076C23.4634 10.3671 23.299 10.3649 23.1505 10.3009C23.0021 10.2369 22.8879 10.1191 22.8283 9.96934C22.7688 9.81911 22.771 9.65511 22.835 9.50667C22.899 9.35867 23.063 9.21511 23.2132 9.15556L23.0865 9.04311C22.8963 9.11867 22.7679 9.25511 22.687 9.44311C22.6061 9.63067 22.603 9.83867 22.6785 10.0289C22.7977 10.3289 23.0865 10.5116 23.391 10.5116C23.4848 10.5116 23.5803 10.4942 23.6728 10.4573C23.863 10.3818 24.0119 10.2369 24.0928 10.0489C24.1741 9.86089 24.1768 9.65289 24.1012 9.46311Z" fill="#F5F5F5"/>
<path d="M34.4244 6.98312C34.4564 7.17956 34.3235 7.36445 34.1271 7.39645C33.9306 7.42845 33.7457 7.29556 33.7137 7.09912C33.6817 6.90267 33.8146 6.71778 34.0111 6.68578C34.2075 6.65378 34.3924 6.78667 34.4244 6.98312Z" fill="#CADDAC" stroke="#CADDAC" stroke-miterlimit="10"/>
<path d="M34.3537 6.87333C34.3385 6.88933 34.059 6.63244 33.779 6.26266C33.5008 5.89288 33.279 5.59421 33.2937 5.58088C33.3114 5.56488 33.5643 5.84577 33.8417 6.21422C34.1194 6.58088 34.3688 6.85733 34.3537 6.87333Z" fill="#CADDAC" stroke="#CADDAC" stroke-miterlimit="10"/>
<path d="M33.8845 5.08133C33.9049 5.08444 33.8596 5.28267 33.6809 5.44311C33.5036 5.60533 33.3023 5.63067 33.3009 5.61022C33.2947 5.58756 33.4681 5.53156 33.6276 5.38444C33.7898 5.23956 33.8627 5.07244 33.8845 5.08133Z" fill="#CADDAC" stroke="#CADDAC" stroke-miterlimit="10"/>
<path d="M34.0944 5.39066C34.1157 5.392 34.0788 5.59066 33.893 5.73511C33.709 5.88133 33.5068 5.86977 33.5108 5.84889C33.5081 5.82577 33.6828 5.80222 33.8441 5.67288C34.0081 5.54666 34.0726 5.38266 34.0944 5.39066Z" fill="#CADDAC" stroke="#CADDAC" stroke-miterlimit="10"/>
<path d="M22.3357 3.87553C22.1926 4.05909 21.9277 4.09242 21.7437 3.94931C21.5602 3.8062 21.5268 3.54131 21.6699 3.35731C21.8131 3.17375 22.0779 3.14042 22.2619 3.28353C22.4459 3.42664 22.4788 3.69153 22.3357 3.87553Z" fill="#CADDAC" stroke="#CADDAC" stroke-miterlimit="10"/>
<path d="M22.3735 3.7271C22.3477 3.7271 22.346 3.28221 22.4411 2.7471C22.5375 2.21377 22.618 1.78532 22.6411 1.78755C22.6691 1.79021 22.6286 2.23066 22.5326 2.76266C22.438 3.29332 22.3989 3.72755 22.3735 3.7271Z" fill="#CADDAC" stroke="#CADDAC" stroke-miterlimit="10"/>
<path d="M23.5408 1.89822C23.5542 1.91822 23.348 2.03689 23.068 2.01111C22.7875 1.988 22.6053 1.83511 22.6222 1.81733C22.6364 1.79377 22.8226 1.89866 23.0764 1.91866C23.3288 1.94266 23.5306 1.87244 23.5408 1.89822Z" fill="#CADDAC" stroke="#CADDAC" stroke-miterlimit="10"/>
<path d="M23.4412 2.32398C23.4572 2.34309 23.2568 2.46975 22.9852 2.42487C22.7128 2.38309 22.5621 2.19998 22.583 2.18709C22.6008 2.16664 22.7599 2.29775 22.9994 2.33331C23.2385 2.3742 23.4305 2.29909 23.4412 2.32398Z" fill="#CADDAC" stroke="#CADDAC" stroke-miterlimit="10"/>
<path d="M5.79704 17.2791C5.81659 17.5111 5.64459 17.7156 5.41259 17.7351C5.18059 17.7547 4.97615 17.5827 4.95659 17.3507C4.93704 17.1187 5.10904 16.9142 5.34104 16.8947C5.57304 16.8747 5.77704 17.0471 5.79704 17.2791Z" fill="#CADDAC" stroke="#CADDAC" stroke-miterlimit="10"/>
<path d="M5.72399 17.1444C5.70488 17.1618 5.40177 16.8369 5.10843 16.3791C4.81688 15.9222 4.58532 15.5529 4.60355 15.5391C4.62621 15.5218 4.89555 15.8729 5.18621 16.3284C5.47688 16.7818 5.7431 17.1275 5.72399 17.1444Z" fill="#CADDAC" stroke="#CADDAC" stroke-miterlimit="10"/>
<path d="M5.33828 15.0093C5.36183 15.0151 5.29117 15.2422 5.06761 15.4133C4.84583 15.5867 4.6085 15.5982 4.6085 15.5742C4.60317 15.5471 4.81072 15.4973 5.01072 15.34C5.21339 15.1858 5.31383 14.9973 5.33828 15.0093Z" fill="#CADDAC" stroke="#CADDAC" stroke-miterlimit="10"/>
<path d="M5.55526 15.3898C5.58015 15.3929 5.51926 15.6222 5.28904 15.7738C5.0606 15.928 4.82593 15.896 4.83215 15.872C4.83126 15.8449 5.03704 15.8333 5.23749 15.6964C5.4406 15.564 5.53037 15.3782 5.55526 15.3898Z" fill="#CADDAC" stroke="#CADDAC" stroke-miterlimit="10"/>
<path d="M39.7855 20.06C39.6766 20.2827 39.4082 20.3751 39.1855 20.2662C38.9628 20.1573 38.8704 19.8889 38.9793 19.6662C39.0882 19.4435 39.3566 19.3511 39.5793 19.46C39.8019 19.5689 39.8944 19.8378 39.7855 20.06Z" fill="#CADDAC" stroke="#CADDAC" stroke-miterlimit="10"/>
<path d="M39.7921 19.8973C39.7499 19.9058 39.6379 19.4431 39.6197 18.8636C39.6033 18.2867 39.6064 17.8245 39.6464 17.8196C39.6917 17.8142 39.7593 18.2831 39.7753 18.8573C39.793 19.4293 39.8339 19.8893 39.7921 19.8973Z" fill="#CADDAC" stroke="#CADDAC" stroke-miterlimit="10"/>
<path d="M41.0819 18.0489C41.0988 18.0813 40.7694 18.2605 40.3165 18.2285C40.0934 18.2138 39.8948 18.1382 39.7748 18.0476C39.6516 17.9587 39.6165 17.8636 39.6325 17.8542C39.6521 17.8396 39.7116 17.8996 39.8316 17.9533C39.9494 18.0089 40.1254 18.0596 40.3281 18.0729C40.7348 18.104 41.0676 18.0018 41.0819 18.0489Z" fill="#CADDAC" stroke="#CADDAC" stroke-miterlimit="10"/>
<path d="M41.221 20.2898C41.1122 20.5125 40.8437 20.6049 40.621 20.496C40.3984 20.3871 40.3059 20.1187 40.4148 19.896C40.5237 19.6733 40.7922 19.5809 41.0148 19.6898C41.2379 19.7982 41.3299 20.0671 41.221 20.2898Z" fill="#CADDAC" stroke="#CADDAC" stroke-miterlimit="10"/>
<path d="M41.2277 20.1267C41.185 20.1351 41.0735 19.672 41.0552 19.0929C41.0388 18.516 41.0419 18.0538 41.0819 18.0489C41.1272 18.0436 41.1948 18.5125 41.2108 19.0867C41.2286 19.6587 41.2699 20.1187 41.2277 20.1267Z" fill="#CADDAC" stroke="#CADDAC" stroke-miterlimit="10"/>
<path d="M41.1058 18.3542C41.1284 18.388 40.8253 18.5796 40.3995 18.5649C39.9738 18.5538 39.6826 18.344 39.7075 18.312C39.7284 18.2716 40.0218 18.4014 40.4044 18.4094C40.7866 18.424 41.0875 18.3125 41.1058 18.3542Z" fill="#CADDAC" stroke="#CADDAC" stroke-miterlimit="10"/>
<path d="M13.9863 8.56223C13.773 8.75245 13.4459 8.73334 13.2561 8.52001C13.0659 8.30668 13.085 7.97956 13.2983 7.78979C13.5117 7.59956 13.8388 7.61868 14.0285 7.83201C14.2183 8.04534 14.1997 8.37201 13.9863 8.56223Z" fill="#CADDAC" stroke="#CADDAC" stroke-miterlimit="10"/>
<path d="M14.0653 8.39156C14.0164 8.38223 14.099 7.83912 14.3328 7.2129C14.5675 6.58979 14.7724 6.09823 14.8173 6.11023C14.8684 6.12445 14.735 6.65423 14.5017 7.27379C14.2706 7.89245 14.1137 8.40134 14.0653 8.39156Z" fill="#CADDAC" stroke="#CADDAC" stroke-miterlimit="10"/>
<path d="M16.2484 6.98224C16.2524 7.02402 15.8226 7.07113 15.3533 6.83957C15.1217 6.72624 14.9426 6.55868 14.8542 6.41024C14.7617 6.26135 14.7657 6.14491 14.7871 6.14224C14.8142 6.13513 14.8519 6.22535 14.9564 6.33468C15.0577 6.44579 15.2239 6.57602 15.4337 6.67913C15.8537 6.88935 16.2533 6.9258 16.2484 6.98224Z" fill="#CADDAC" stroke="#CADDAC" stroke-miterlimit="10"/>
<path d="M15.417 9.4338C15.2036 9.62402 14.8765 9.60491 14.6868 9.39158C14.4965 9.17824 14.5156 8.85113 14.729 8.66091C14.9423 8.47069 15.2694 8.4898 15.4596 8.70313C15.6494 8.91691 15.6308 9.24402 15.417 9.4338Z" fill="#CADDAC" stroke="#CADDAC" stroke-miterlimit="10"/>
<path d="M15.4969 9.26312C15.448 9.25378 15.5307 8.71067 15.7645 8.08445C15.9991 7.46134 16.204 6.96978 16.2489 6.98178C16.2996 6.996 16.1667 7.52578 15.9333 8.14534C15.7022 8.76401 15.5453 9.27334 15.4969 9.26312Z" fill="#CADDAC" stroke="#CADDAC" stroke-miterlimit="10"/>
<path d="M16.1402 7.31866C16.1495 7.36444 15.7424 7.43689 15.2949 7.23511C14.8451 7.03733 14.6264 6.68666 14.6669 6.66266C14.7069 6.62844 14.9633 6.89511 15.3677 7.07111C15.7691 7.25377 16.1389 7.26577 16.1402 7.31866Z" fill="#CADDAC" stroke="#CADDAC" stroke-miterlimit="10"/>
</g>
</g>
<defs>
<clipPath id="clip0_1141_49253">
<rect width="48" height="48" rx="24" fill="white"/>
</clipPath>
<clipPath id="clip1_1141_49253">
<rect width="48" height="48" fill="white"/>
</clipPath>
</defs>
</svg>
