<svg width="48" height="48" viewBox="0 0 48 48" fill="none" xmlns="http://www.w3.org/2000/svg">
<g clip-path="url(#clip0_1141_49254)">
<rect width="48" height="48" rx="24" fill="white"/>
<path d="M43.2965 7.06746C43.6805 4.70146 42.0737 2.47216 39.7078 2.08818C37.3418 1.70419 35.1125 3.31093 34.7285 5.67692C34.3445 8.04292 35.9512 10.2722 38.3172 10.6562C40.6832 11.0402 42.9125 9.43345 43.2965 7.06746Z" fill="#FAE8AD"/>
<path d="M43.9535 31.6102C43.917 31.6102 43.8877 31.5835 43.8877 31.5507V28.8738C43.8877 28.8409 43.917 28.8142 43.9535 28.8142C43.9899 28.8142 44.0193 28.8409 44.0193 28.8738V31.5507C44.0193 31.5835 43.9899 31.6102 43.9535 31.6102Z" fill="white"/>
<path d="M42.9097 31.2182C42.8929 31.2182 42.876 31.2124 42.8631 31.2009C42.8373 31.1778 42.8373 31.14 42.8631 31.1164L44.9515 29.2235C44.9773 29.2004 45.0186 29.2004 45.0444 29.2235C45.0702 29.2467 45.0702 29.2844 45.0444 29.308L42.956 31.2009C42.9431 31.2124 42.9266 31.2182 42.9097 31.2182Z" fill="white"/>
<path d="M45.4307 30.2715H42.4769C42.4405 30.2715 42.4111 30.2449 42.4111 30.212C42.4111 30.1791 42.4405 30.1524 42.4769 30.1524H45.4307C45.4671 30.1524 45.4965 30.1791 45.4965 30.212C45.4965 30.2449 45.4671 30.2715 45.4307 30.2715Z" fill="white"/>
<path d="M44.9982 31.2182C44.9813 31.2182 44.9644 31.2124 44.9515 31.2009L42.8631 29.308C42.8373 29.2849 42.8373 29.2471 42.8631 29.2235C42.8889 29.2004 42.9302 29.2004 42.956 29.2235L45.0444 31.1164C45.0702 31.1395 45.0702 31.1773 45.0444 31.2009C45.032 31.2124 45.0151 31.2182 44.9982 31.2182Z" fill="white"/>
<g opacity="0.44">
<path d="M35.051 34.9022C35.051 34.9022 35.0248 34.5338 34.7355 34.4946C34.7355 34.4946 34.4986 34.4551 34.367 34.8235C34.367 34.8235 34.0777 34.6786 33.683 34.9026C33.683 34.9026 33.6173 35.2444 33.9986 35.376C33.9986 35.376 33.775 35.5471 33.8804 35.9546C33.8804 35.9546 34.4724 36.152 34.6168 35.7835C34.6168 35.7835 34.6693 36.1124 35.2479 36.1124C35.2479 36.1124 35.4977 35.7969 35.2479 35.4546C35.2479 35.4546 35.6555 35.4413 35.7213 35.1391C35.7217 35.1386 35.4453 34.6786 35.051 34.9022Z" fill="#CADDAC" stroke="#CADDAC" stroke-miterlimit="10"/>
<path d="M34.6951 34.9604C34.4125 34.9351 34.2765 35.1449 34.2578 35.2311C34.2578 35.2311 34.2583 35.4458 34.6271 35.4773C34.996 35.5089 35.052 35.2929 35.052 35.2929C35.052 35.2929 35.04 34.9915 34.6951 34.9604Z" fill="white" stroke="#CADDAC" stroke-miterlimit="10"/>
<path d="M40.7615 35.9404C40.7615 35.9404 40.6321 35.6782 40.4197 35.648C40.4197 35.648 40.2277 35.7951 40.209 36.0244C40.209 36.0244 39.961 35.9542 39.7441 36.1386C39.7441 36.1386 39.8019 36.3991 40.0397 36.4795C40.0397 36.4795 39.941 36.7222 40.0548 36.9649C40.0548 36.9649 40.4641 36.9951 40.6081 36.6542C40.6081 36.6542 40.7597 36.8809 41.1766 36.8018C41.1766 36.8018 41.2979 36.5178 41.025 36.3058C41.025 36.3058 41.2828 36.1573 41.2526 35.9093C41.2526 35.9089 41.0495 35.8169 40.7615 35.9404Z" fill="#CADDAC" stroke="#CADDAC" stroke-miterlimit="10"/>
<path d="M40.5285 36.0946C40.3187 36.1075 40.2423 36.2764 40.2383 36.3418C40.2383 36.3418 40.2623 36.4991 40.5365 36.4809C40.8103 36.4626 40.8272 36.2982 40.8272 36.2982C40.8272 36.2982 40.7849 36.0786 40.5285 36.0946Z" fill="white" stroke="#CADDAC" stroke-miterlimit="10"/>
<path d="M32.3688 31.8813C32.3688 31.8813 32.2883 31.6471 32.1346 31.7275C31.9808 31.808 32.0341 31.9551 32.1679 31.9884C32.1679 31.9884 31.8803 32.0822 31.9603 32.236C32.0408 32.3898 32.2883 32.2293 32.3417 32.1489C32.3417 32.1489 32.395 32.3844 32.5959 32.3C32.7968 32.2155 32.5959 32.0142 32.5959 32.0142C32.5959 32.0142 32.9035 31.8942 32.7363 31.7538C32.5692 31.6138 32.3688 31.8813 32.3688 31.8813Z" fill="#CADDAC" stroke="#CADDAC" stroke-miterlimit="10"/>
<path d="M21.0514 34.7827C21.0514 34.7827 20.971 34.5484 20.8172 34.6289C20.6634 34.7093 20.7167 34.8564 20.8505 34.8898C20.8505 34.8898 20.563 34.9835 20.643 35.1373C20.7234 35.2911 20.971 35.1307 21.0243 35.0502C21.0243 35.0502 21.0776 35.2858 21.2785 35.2013C21.4794 35.1169 21.2785 34.9155 21.2785 34.9155C21.2785 34.9155 21.5861 34.7955 21.419 34.6551C21.2523 34.5151 21.0514 34.7827 21.0514 34.7827Z" fill="#CADDAC" stroke="#CADDAC" stroke-miterlimit="10"/>
<path d="M41.9149 33.0066C41.9149 33.0066 41.9385 32.7604 41.7652 32.7698C41.5918 32.7791 41.5798 32.9355 41.6878 33.0213C41.6878 33.0213 41.3869 32.9875 41.3967 33.1609C41.4061 33.3342 41.6981 33.2902 41.7798 33.2391C41.7798 33.2391 41.7314 33.4755 41.9487 33.4818C42.1665 33.488 42.0669 33.2218 42.0669 33.2218C42.0669 33.2218 42.3967 33.24 42.3025 33.0426C42.2083 32.8458 41.9149 33.0066 41.9149 33.0066Z" fill="#CADDAC" stroke="#CADDAC" stroke-miterlimit="10"/>
<path d="M32.8517 38.0284C32.8517 38.0284 32.9886 37.7289 33.1161 37.8316C33.2437 37.9342 33.0744 38.0982 33.0744 38.0982C33.0744 38.0982 33.3037 38.1462 33.2255 38.2698C33.1473 38.3933 32.9415 38.2964 32.9415 38.2964C32.9415 38.2964 32.9415 38.5316 32.7868 38.4791C32.6321 38.4271 32.7184 38.2178 32.7184 38.2178C32.7184 38.2178 32.5046 38.2404 32.4935 38.1027C32.4833 37.9653 32.7241 37.9258 32.8517 38.0284Z" fill="#CADDAC" stroke="#CADDAC" stroke-miterlimit="10"/>
<path d="M37.6219 42.3938C37.6219 42.3938 37.5028 42.0546 37.221 42.092C37.221 42.092 36.9886 42.1155 36.9597 42.4951C36.9597 42.4951 36.6508 42.4333 36.3379 42.7444C36.3379 42.7444 36.3637 43.0822 36.7557 43.108C36.7557 43.108 36.5894 43.3258 36.793 43.6818C36.793 43.6818 37.3992 43.7151 37.4406 43.3324C37.4406 43.3324 37.5743 43.6275 38.1174 43.4791C38.1174 43.4791 38.2712 43.1186 37.9486 42.8618C37.9486 42.8618 38.3281 42.7449 38.3121 42.444C38.3126 42.444 37.9352 42.0826 37.6219 42.3938Z" fill="#CADDAC" stroke="#CADDAC" stroke-miterlimit="10"/>
<path d="M37.303 42.54C37.0315 42.5889 36.9572 42.8209 36.9621 42.9062C36.9621 42.9062 37.0177 43.1075 37.3719 43.0427C37.7266 42.9773 37.7235 42.7604 37.7235 42.7604C37.7235 42.7604 37.635 42.4804 37.303 42.54Z" fill="white" stroke="#CADDAC" stroke-miterlimit="10"/>
<path d="M41.7388 39.6511C41.7388 39.6511 41.6126 39.396 41.4064 39.3666C41.4064 39.3666 41.2197 39.5097 41.2015 39.7333C41.2015 39.7333 40.9601 39.6649 40.749 39.8444C40.749 39.8444 40.805 40.0977 41.0366 40.1764C41.0366 40.1764 40.9406 40.4124 41.0512 40.6484C41.0512 40.6484 41.4495 40.6778 41.5899 40.3458C41.5899 40.3458 41.7375 40.5662 42.1432 40.4893C42.1432 40.4893 42.2615 40.2133 41.9957 40.0066C41.9957 40.0066 42.2464 39.8622 42.217 39.6209C42.2166 39.6209 42.0188 39.5306 41.7388 39.6511Z" fill="#CADDAC" stroke="#CADDAC" stroke-miterlimit="10"/>
<path d="M41.5117 39.8013C41.3077 39.8138 41.233 39.9782 41.2295 40.0418C41.2295 40.0418 41.253 40.1946 41.5197 40.1773C41.7864 40.16 41.8024 39.9995 41.8024 39.9995C41.8024 39.9995 41.761 39.7858 41.5117 39.8013Z" fill="white" stroke="#CADDAC" stroke-miterlimit="10"/>
<path d="M37.5732 39.7462C37.5732 39.7462 37.495 39.5182 37.3452 39.5964C37.1955 39.6746 37.2475 39.8178 37.3777 39.8502C37.3777 39.8502 37.0977 39.9413 37.1759 40.0911C37.2541 40.2409 37.495 40.0844 37.547 40.0066C37.547 40.0066 37.599 40.236 37.7946 40.1538C37.9897 40.0715 37.7946 39.876 37.7946 39.876C37.7946 39.876 38.0941 39.7595 37.9315 39.6226C37.7688 39.4858 37.5732 39.7462 37.5732 39.7462Z" fill="#CADDAC" stroke="#CADDAC" stroke-miterlimit="10"/>
<path d="M44.0261 37.1222C44.0261 37.1222 44.0492 36.8822 43.8803 36.8915C43.7115 36.9009 43.6999 37.0529 43.8052 37.1364C43.8052 37.1364 43.5128 37.1035 43.5217 37.2724C43.531 37.4409 43.815 37.3982 43.8946 37.3489C43.8946 37.3489 43.8475 37.5791 44.059 37.5853C44.271 37.5911 44.1737 37.332 44.1737 37.332C44.1737 37.332 44.4946 37.3493 44.403 37.1578C44.3119 36.9658 44.0261 37.1222 44.0261 37.1222Z" fill="#CADDAC" stroke="#CADDAC" stroke-miterlimit="10"/>
<path d="M13.5135 43.0324C13.5135 43.0324 13.485 42.6369 13.1744 42.5942C13.1744 42.5942 12.9197 42.552 12.7788 42.9475C12.7788 42.9475 12.4677 42.792 12.0437 43.0324C12.0437 43.0324 11.973 43.4 12.3828 43.5413C12.3828 43.5413 12.1424 43.7249 12.2557 44.1631C12.2557 44.1631 12.8917 44.3751 13.0473 43.9795C13.0473 43.9795 13.1037 44.3329 13.7259 44.3329C13.7259 44.3329 13.9944 43.9938 13.7259 43.6262C13.7259 43.6262 14.1642 43.612 14.2348 43.2871C14.2344 43.2866 13.9375 42.792 13.5135 43.0324Z" fill="#CADDAC" stroke="#CADDAC" stroke-miterlimit="10"/>
<path d="M13.1309 43.0951C12.8274 43.068 12.6807 43.2937 12.6611 43.3862C12.6611 43.3862 12.6616 43.6169 13.058 43.6506C13.4545 43.6844 13.5145 43.4524 13.5145 43.4524C13.5145 43.4524 13.5016 43.128 13.1309 43.0951Z" fill="white" stroke="#CADDAC" stroke-miterlimit="10"/>
<path d="M17.8653 41.5235C17.8653 41.5235 17.7262 41.2418 17.4977 41.2093C17.4977 41.2093 17.2915 41.3675 17.271 41.6142C17.271 41.6142 17.0044 41.5387 16.7715 41.7369C16.7715 41.7369 16.8333 42.0169 17.0893 42.1035C17.0893 42.1035 16.9835 42.3644 17.1057 42.6249C17.1057 42.6249 17.5457 42.6573 17.7004 42.2907C17.7004 42.2907 17.8635 42.5342 18.3115 42.4489C18.3115 42.4489 18.4417 42.144 18.1484 41.9155C18.1484 41.9155 18.4253 41.756 18.3928 41.4893C18.3933 41.4902 18.175 41.3907 17.8653 41.5235Z" fill="#CADDAC" stroke="#CADDAC" stroke-miterlimit="10"/>
<path d="M17.6157 41.6893C17.3904 41.7031 17.3082 41.8849 17.3037 41.9551C17.3037 41.9551 17.3299 42.124 17.6242 42.1049C17.9184 42.0853 17.9366 41.9089 17.9366 41.9089C17.9366 41.9089 17.8908 41.6724 17.6157 41.6893Z" fill="white" stroke="#CADDAC" stroke-miterlimit="10"/>
<path d="M15.294 36.1911C15.294 36.1911 15.1549 35.9093 14.9264 35.8769C14.9264 35.8769 14.7202 36.0351 14.6998 36.2818C14.6998 36.2818 14.4331 36.2062 14.2002 36.4044C14.2002 36.4044 14.262 36.6844 14.518 36.7711C14.518 36.7711 14.4122 37.032 14.5344 37.2924C14.5344 37.2924 14.9744 37.3249 15.1291 36.9582C15.1291 36.9582 15.2922 37.2018 15.7402 37.1164C15.7402 37.1164 15.8704 36.8115 15.5771 36.5831C15.5771 36.5831 15.854 36.4235 15.8215 36.1569C15.822 36.1573 15.6038 36.0582 15.294 36.1911Z" fill="#CADDAC" stroke="#CADDAC" stroke-miterlimit="10"/>
<path d="M15.0444 36.3569C14.8191 36.3706 14.7369 36.5524 14.7324 36.6226C14.7324 36.6226 14.7586 36.7915 15.0529 36.7724C15.3471 36.7528 15.3653 36.5764 15.3653 36.5764C15.3653 36.5764 15.3195 36.34 15.0444 36.3569Z" fill="white" stroke="#CADDAC" stroke-miterlimit="10"/>
<path d="M14.7781 39.848C14.7781 39.848 14.6918 39.5964 14.5265 39.6826C14.3612 39.7689 14.4185 39.9271 14.5625 39.9631C14.5625 39.9631 14.2532 40.064 14.3394 40.2293C14.4256 40.3946 14.6918 40.2222 14.7492 40.136C14.7492 40.136 14.8065 40.3893 15.0225 40.2986C15.2381 40.208 15.0225 39.9915 15.0225 39.9915C15.0225 39.9915 15.3532 39.8626 15.1736 39.7115C14.9936 39.5604 14.7781 39.848 14.7781 39.848Z" fill="#CADDAC" stroke="#CADDAC" stroke-miterlimit="10"/>
<path d="M10.9646 38.0053C10.9646 38.0053 10.8784 37.7538 10.713 37.84C10.5477 37.9262 10.605 38.0844 10.749 38.1204C10.749 38.1204 10.4397 38.2213 10.5259 38.3867C10.6121 38.552 10.8784 38.3795 10.9357 38.2933C10.9357 38.2933 10.993 38.5467 11.209 38.456C11.4246 38.3653 11.209 38.1489 11.209 38.1489C11.209 38.1489 11.5397 38.02 11.3601 37.8689C11.1801 37.7178 10.9646 38.0053 10.9646 38.0053Z" fill="#CADDAC" stroke="#CADDAC" stroke-miterlimit="10"/>
<path d="M18.7829 37.8244C18.7829 37.8244 18.6967 37.5729 18.5314 37.6591C18.3661 37.7453 18.4234 37.9035 18.5674 37.9395C18.5674 37.9395 18.2581 38.0404 18.3443 38.2057C18.4305 38.3711 18.6967 38.1986 18.7541 38.1124C18.7541 38.1124 18.8114 38.3657 19.0274 38.2751C19.2429 38.1844 19.0274 37.968 19.0274 37.968C19.0274 37.968 19.3581 37.8391 19.1785 37.688C18.9989 37.5369 18.7829 37.8244 18.7829 37.8244Z" fill="#CADDAC" stroke="#CADDAC" stroke-miterlimit="10"/>
<path d="M15.2292 33.4458C15.2292 33.4458 15.143 33.1942 14.9777 33.2804C14.8123 33.3666 14.8697 33.5249 15.0137 33.5609C15.0137 33.5609 14.7043 33.6618 14.7906 33.8271C14.8768 33.9924 15.143 33.82 15.2003 33.7338C15.2003 33.7338 15.2577 33.9871 15.4737 33.8964C15.6892 33.8058 15.4737 33.5893 15.4737 33.5893C15.4737 33.5893 15.8043 33.4604 15.6248 33.3093C15.4448 33.1578 15.2292 33.4458 15.2292 33.4458Z" fill="#CADDAC" stroke="#CADDAC" stroke-miterlimit="10"/>
<path d="M17.3706 45.2271C17.3706 45.2271 17.3959 44.9622 17.2097 44.9724C17.0235 44.9826 17.0106 45.1506 17.1266 45.2426C17.1266 45.2426 16.8035 45.2066 16.8137 45.3929C16.8239 45.5791 17.1377 45.532 17.2257 45.4773C17.2257 45.4773 17.1737 45.7315 17.4075 45.7382C17.6413 45.7449 17.5342 45.4586 17.5342 45.4586C17.5342 45.4586 17.8884 45.4782 17.7875 45.2662C17.6862 45.0542 17.3706 45.2271 17.3706 45.2271Z" fill="#CADDAC" stroke="#CADDAC" stroke-miterlimit="10"/>
<path d="M22.1357 45.4911C22.1357 45.4911 22.4749 45.3835 22.4846 45.5604C22.4949 45.7373 22.2411 45.72 22.2411 45.72C22.2411 45.72 22.3686 45.9382 22.2131 45.9653C22.0575 45.992 21.9864 45.7573 21.9864 45.7573C21.9864 45.7573 21.7984 45.9275 21.7282 45.7657C21.658 45.604 21.8877 45.5217 21.8877 45.5217C21.8877 45.5217 21.7149 45.3671 21.8171 45.2586C21.9197 45.1502 22.1255 45.3146 22.1357 45.4911Z" fill="#CADDAC" stroke="#CADDAC" stroke-miterlimit="10"/>
<path d="M5.72559 39.016C5.72559 39.016 6.0647 38.9084 6.07448 39.0853C6.0847 39.2622 5.83092 39.2449 5.83092 39.2449C5.83092 39.2449 5.95848 39.4631 5.80292 39.4902C5.64737 39.5169 5.57625 39.2822 5.57625 39.2822C5.57625 39.2822 5.38825 39.4524 5.31803 39.2906C5.24781 39.1289 5.47759 39.0466 5.47759 39.0466C5.47759 39.0466 5.3047 38.892 5.40692 38.7835C5.50959 38.6746 5.71581 38.8391 5.72559 39.016Z" fill="#CADDAC" stroke="#CADDAC" stroke-miterlimit="10"/>
<path d="M9.35129 41.5249C9.35129 41.5249 9.13751 41.2427 9.30018 41.1742C9.46284 41.1058 9.53129 41.3493 9.53129 41.3493C9.53129 41.3493 9.69351 41.1569 9.77084 41.2938C9.84773 41.4307 9.65129 41.576 9.65129 41.576C9.65129 41.576 9.87351 41.6955 9.74551 41.8155C9.61707 41.9351 9.46329 41.7471 9.46329 41.7471C9.46329 41.7471 9.37573 41.9609 9.23973 41.9009C9.10329 41.8413 9.18907 41.5933 9.35129 41.5249Z" fill="#CADDAC" stroke="#CADDAC" stroke-miterlimit="10"/>
</g>
<path opacity="0.43" d="M29.8394 8.67023C29.7972 7.14312 31.435 6.03157 33.3243 5.79512C35.5506 5.51646 37.1648 6.46357 37.2714 8.22046C38.7132 7.57646 40.2643 7.91423 40.1977 9.52312C40.5639 9.07379 41.9857 9.04268 42.499 9.14934C43.0417 9.26223 43.603 9.73068 43.8039 10.1942C43.9661 10.5689 43.9794 10.7445 43.9612 11.0116C44.8039 10.7067 46.7346 10.4773 47.2426 11.2431C48.1466 12.6067 44.7052 12.7551 43.9981 12.3565C42.9572 14.1107 39.4399 13.9693 38.7043 12.6689C38.0257 13.3951 37.2283 13.7125 36.1452 13.8102C34.3181 13.9747 32.7212 13.5698 32.083 12.6649C30.5706 14.0285 27.8852 14.1342 26.4403 12.6711C26.0937 13.0187 25.1137 13.1529 24.3203 12.9889C23.7994 12.8813 23.6732 12.6645 23.6732 12.6645C23.4003 12.8009 23.0728 12.8965 22.7323 12.9787C21.7239 13.2222 19.8288 13.0551 20.5932 12.1169C20.8532 11.7973 21.8354 11.5702 22.2572 11.6533C22.6737 10.7689 24.4257 9.88979 25.4675 10.5951C25.4746 9.53912 26.4141 8.68446 27.7652 8.43334C28.2177 8.34979 29.3074 8.25512 29.8394 8.67023Z" fill="#CADDAC" stroke="#CADDAC" stroke-miterlimit="10"/>
<path opacity="0.43" d="M8.71605 4.86755C8.6796 3.79866 9.82138 3.01288 11.1432 2.8391C12.7005 2.63422 13.8352 3.29022 13.9178 4.51955C14.9245 4.06222 16.012 4.29199 15.9725 5.41866C16.2272 5.10222 17.2223 5.07422 17.5823 5.14666C17.9627 5.2231 18.3578 5.54888 18.5005 5.87244C18.616 6.13422 18.6258 6.25688 18.6143 6.44399C19.2032 6.22666 20.5538 6.05733 20.9125 6.59155C21.5516 7.54222 19.1427 7.66133 18.6458 7.38533C18.5707 8.14622 15.9854 8.36577 15.3325 7.69022C14.9276 8.36622 14.0218 8.57821 13.264 8.6511C11.9854 8.77466 10.9232 8.35866 10.3045 7.65422C9.2516 8.61555 7.3716 8.70177 6.35382 7.68355C6.11249 7.92844 5.42716 8.02666 4.87071 7.91555C4.50538 7.84222 4.41605 7.6911 4.41605 7.6911C4.22538 7.78799 3.99649 7.85644 3.75871 7.91555C3.05382 8.09066 1.72627 7.98222 2.25694 7.32177C2.43782 7.09688 3.12449 6.93333 3.42005 6.98977C3.7076 6.36844 4.93027 5.74533 5.66316 6.23466C5.6636 5.4951 6.31738 4.89244 7.26227 4.71066C7.57916 4.65022 8.34182 4.5791 8.71605 4.86755Z" fill="#CADDAC" stroke="#CADDAC" stroke-miterlimit="10"/>
<path opacity="0.6" d="M29.2304 13.368L28.7727 18.9195C28.0456 20.4844 27.8171 21.784 26.2522 22.4764C24.6873 23.1689 23.9122 22.504 22.3891 24.1382C20.866 25.7724 21.0873 28.5538 19.2322 30.1538C17.3771 31.7538 16.1878 30.5658 13.6389 32.1707C11.0904 33.7755 11.5073 36.1667 8.15489 37.0444C5.95311 37.6209 4.93133 36.6373 3.08956 36.6693C1.63933 36.6947 0.606445 37.6209 0.606445 37.6209V6.57999C0.606445 6.57999 4.366 4.50132 7.96111 5.81065C10.4536 6.71821 10.6762 8.29243 13.0758 9.23954C14.8229 9.86399 18.1962 8.65376 20.2047 9.49065C22.2131 10.3275 21.9944 11.5773 23.8096 12.1369C25.6251 12.6964 26.9007 11.5289 29.2304 13.368Z" fill="white"/>
<path d="M28.7311 18.8876C28.3725 19.8302 27.9916 20.8107 27.304 21.5685C26.9476 21.9613 26.5111 22.2507 26.0151 22.4365C25.4813 22.6365 24.9138 22.7187 24.3622 22.8538C23.8471 22.98 23.3471 23.1609 22.9178 23.4791C22.5329 23.7645 22.2156 24.1271 21.9542 24.5267C21.4067 25.364 21.1009 26.3173 20.7698 27.2525C20.4373 28.1911 20.0542 29.1618 19.3605 29.8978C19 30.28 18.5627 30.5667 18.0702 30.7502C17.5347 30.9498 16.9645 31.0365 16.4031 31.1293C15.8493 31.2213 15.2982 31.3231 14.7693 31.5173C14.2453 31.7098 13.7493 31.9751 13.2996 32.3062C12.8476 32.6387 12.4542 33.0342 12.1018 33.4698C11.7458 33.9102 11.4267 34.3787 11.08 34.8262C10.7409 35.264 10.3725 35.6831 9.93112 36.0209C9.52979 36.328 9.08267 36.5742 8.61112 36.7538C7.6769 37.1102 6.62267 37.2076 5.64001 37.0156C5.38534 36.9658 5.13201 36.9031 4.88178 36.8338C4.83912 36.8218 4.84623 36.9093 4.87467 36.9231C5.80267 37.3667 6.9209 37.3965 7.91334 37.1836C8.91156 36.9698 9.84756 36.4818 10.5738 35.7613C11.3978 34.9431 11.9476 33.8969 12.7627 33.0707C13.5658 32.2565 14.5982 31.7107 15.7133 31.4698C16.7996 31.2351 17.9827 31.2018 18.9333 30.5609C19.7698 29.9969 20.2805 29.0907 20.6569 28.1787C21.392 26.3996 21.796 24.016 23.8249 23.2387C24.8507 22.8458 26.0165 22.8667 26.9196 22.1742C27.7329 21.5502 28.1805 20.5809 28.5276 19.6436C28.616 19.4049 28.6933 19.1618 28.772 18.9196C28.7827 18.8893 28.7476 18.8445 28.7311 18.8876Z" fill="#A467A7"/>
<path d="M28.7311 18.8876C28.3725 19.8302 27.9916 20.8107 27.304 21.5685C26.9476 21.9613 26.5111 22.2507 26.0151 22.4365C25.4813 22.6365 24.9138 22.7187 24.3622 22.8538C23.8471 22.98 23.3471 23.1609 22.9178 23.4791C22.5329 23.7645 22.2156 24.1271 21.9542 24.5267C21.4067 25.364 21.1009 26.3173 20.7698 27.2525C20.4373 28.1911 20.0542 29.1618 19.3605 29.8978C19 30.28 18.5627 30.5667 18.0702 30.7502C17.5347 30.9498 16.9645 31.0365 16.4031 31.1293C15.8493 31.2213 15.2982 31.3231 14.7693 31.5173C14.2453 31.7098 13.7493 31.9751 13.2996 32.3062C12.8476 32.6387 12.4542 33.0342 12.1018 33.4698C11.7458 33.9102 11.4267 34.3787 11.08 34.8262C10.7409 35.264 10.3725 35.6831 9.93112 36.0209C9.52979 36.328 9.08267 36.5742 8.61112 36.7538C7.6769 37.1102 6.62267 37.2076 5.64001 37.0156C5.38534 36.9658 5.13201 36.9031 4.88178 36.8338C4.83912 36.8218 4.84623 36.9093 4.87467 36.9231C5.80267 37.3667 6.9209 37.3965 7.91334 37.1836C8.91156 36.9698 9.84756 36.4818 10.5738 35.7613C11.3978 34.9431 11.9476 33.8969 12.7627 33.0707C13.5658 32.2565 14.5982 31.7107 15.7133 31.4698C16.7996 31.2351 17.9827 31.2018 18.9333 30.5609C19.7698 29.9969 20.2805 29.0907 20.6569 28.1787C21.392 26.3996 21.796 24.016 23.8249 23.2387C24.8507 22.8458 26.0165 22.8667 26.9196 22.1742C27.7329 21.5502 28.1805 20.5809 28.5276 19.6436C28.616 19.4049 28.6933 19.1618 28.772 18.9196C28.7827 18.8893 28.7476 18.8445 28.7311 18.8876Z" fill="#859356"/>
<path d="M29.2524 13.2813C28.5666 12.6409 27.6404 12.28 26.716 12.1711C25.7364 12.0556 24.7182 12.3258 23.756 12.0578C22.8857 11.8156 22.348 11.0702 21.7564 10.4453C21.4626 10.1347 21.1453 9.84889 20.7715 9.63644C20.3871 9.41822 19.9644 9.27689 19.5315 9.19289C17.6053 8.81866 15.6782 9.57066 13.7502 9.28577C12.8097 9.14666 12.0177 8.69422 11.2929 8.09822C10.6302 7.55289 10.028 6.93422 9.3293 6.43289C8.58841 5.90089 7.74974 5.56977 6.85018 5.42355C5.91996 5.272 4.96574 5.32089 4.03596 5.448C3.80485 5.47955 3.57552 5.51777 3.34707 5.564C3.31196 5.57111 3.32174 5.64889 3.35774 5.644C5.2453 5.40133 7.28974 5.29911 8.96307 6.36844C10.3875 7.27866 11.4133 8.80133 13.0804 9.31911C14.9609 9.90311 16.9146 9.17289 18.8266 9.29733C19.7231 9.35555 20.5951 9.608 21.2751 10.2173C21.8853 10.764 22.34 11.4747 23.0333 11.9289C23.8426 12.4591 24.8089 12.3827 25.7311 12.3502C26.2137 12.3333 26.6933 12.3431 27.1675 12.4436C27.6889 12.5533 28.1849 12.7489 28.6502 13.0071C28.8489 13.1173 29.0417 13.2418 29.2306 13.3689C29.2755 13.3982 29.276 13.3031 29.2524 13.2813Z" fill="#A467A7"/>
<path d="M29.2524 13.2813C28.5666 12.6409 27.6404 12.28 26.716 12.1711C25.7364 12.0556 24.7182 12.3258 23.756 12.0578C22.8857 11.8156 22.348 11.0702 21.7564 10.4453C21.4626 10.1347 21.1453 9.84889 20.7715 9.63644C20.3871 9.41822 19.9644 9.27689 19.5315 9.19289C17.6053 8.81866 15.6782 9.57066 13.7502 9.28577C12.8097 9.14666 12.0177 8.69422 11.2929 8.09822C10.6302 7.55289 10.028 6.93422 9.3293 6.43289C8.58841 5.90089 7.74974 5.56977 6.85018 5.42355C5.91996 5.272 4.96574 5.32089 4.03596 5.448C3.80485 5.47955 3.57552 5.51777 3.34707 5.564C3.31196 5.57111 3.32174 5.64889 3.35774 5.644C5.2453 5.40133 7.28974 5.29911 8.96307 6.36844C10.3875 7.27866 11.4133 8.80133 13.0804 9.31911C14.9609 9.90311 16.9146 9.17289 18.8266 9.29733C19.7231 9.35555 20.5951 9.608 21.2751 10.2173C21.8853 10.764 22.34 11.4747 23.0333 11.9289C23.8426 12.4591 24.8089 12.3827 25.7311 12.3502C26.2137 12.3333 26.6933 12.3431 27.1675 12.4436C27.6889 12.5533 28.1849 12.7489 28.6502 13.0071C28.8489 13.1173 29.0417 13.2418 29.2306 13.3689C29.2755 13.3982 29.276 13.3031 29.2524 13.2813Z" fill="#859356"/>
<path d="M24.7529 16.928C24.2836 17.2471 23.8001 17.5173 23.2436 17.6489C22.7125 17.7742 22.1623 17.7982 21.6192 17.76C20.3796 17.6733 19.2014 17.2391 17.9965 16.9689C17.3801 16.8307 16.7538 16.7338 16.1209 16.7356C15.4281 16.7369 14.7405 16.8404 14.0609 16.9662C12.7596 17.208 11.4467 17.5378 10.1125 17.4151C9.76894 17.3836 9.4285 17.32 9.09917 17.2173C8.7725 17.116 8.45694 16.9822 8.13872 16.8569C7.56672 16.632 6.94006 16.4142 6.32094 16.56C6.29561 16.5658 6.30672 16.6213 6.3325 16.6173C6.93828 16.524 7.51028 16.7058 8.06539 16.932C8.6565 17.1729 9.22717 17.4249 9.86317 17.5236C11.1765 17.7271 12.4974 17.4338 13.7836 17.1902C14.4658 17.0613 15.1538 16.9404 15.8489 16.9133C16.5138 16.888 17.1707 16.964 17.8205 17.1031C19.0347 17.3636 20.2152 17.8022 21.4578 17.9182C22.0592 17.9742 22.6752 17.96 23.2658 17.8253C23.8338 17.696 24.4249 17.4618 24.8121 17.0098C24.8383 16.9804 24.7907 16.9022 24.7529 16.928Z" fill="#A467A7"/>
<path d="M24.7529 16.928C24.2836 17.2471 23.8001 17.5173 23.2436 17.6489C22.7125 17.7742 22.1623 17.7982 21.6192 17.76C20.3796 17.6733 19.2014 17.2391 17.9965 16.9689C17.3801 16.8307 16.7538 16.7338 16.1209 16.7356C15.4281 16.7369 14.7405 16.8404 14.0609 16.9662C12.7596 17.208 11.4467 17.5378 10.1125 17.4151C9.76894 17.3836 9.4285 17.32 9.09917 17.2173C8.7725 17.116 8.45694 16.9822 8.13872 16.8569C7.56672 16.632 6.94006 16.4142 6.32094 16.56C6.29561 16.5658 6.30672 16.6213 6.3325 16.6173C6.93828 16.524 7.51028 16.7058 8.06539 16.932C8.6565 17.1729 9.22717 17.4249 9.86317 17.5236C11.1765 17.7271 12.4974 17.4338 13.7836 17.1902C14.4658 17.0613 15.1538 16.9404 15.8489 16.9133C16.5138 16.888 17.1707 16.964 17.8205 17.1031C19.0347 17.3636 20.2152 17.8022 21.4578 17.9182C22.0592 17.9742 22.6752 17.96 23.2658 17.8253C23.8338 17.696 24.4249 17.4618 24.8121 17.0098C24.8383 16.9804 24.7907 16.9022 24.7529 16.928Z" fill="#859356"/>
<path d="M20.0354 22.6764C19.6496 23.0547 19.1349 23.3102 18.6331 23.4991C18.118 23.6933 17.5803 23.8133 17.0452 23.9378C16.4883 24.0676 15.9287 24.2 15.4003 24.4231C14.9083 24.6307 14.4731 24.9218 14.0785 25.28C13.2927 25.9942 12.6843 26.8956 11.7971 27.4978C11.3305 27.8147 10.8118 28.0516 10.266 28.1942C9.71626 28.3382 9.15093 28.3711 8.58515 28.3658C7.36871 28.3547 6.01226 28.1396 4.89937 28.7573C4.85404 28.7827 4.90559 28.8711 4.95226 28.8511C6.02782 28.3973 7.19226 28.4956 8.33004 28.5244C8.89759 28.5387 9.46959 28.5324 10.0291 28.424C10.57 28.3196 11.0945 28.1249 11.5736 27.8538C12.5336 27.3102 13.1883 26.4364 13.954 25.6693C14.3438 25.2791 14.7723 24.9276 15.2709 24.6858C15.7869 24.4356 16.3456 24.2858 16.9003 24.1484C17.4989 24.0004 18.102 23.864 18.6754 23.6324C18.9331 23.5284 19.1851 23.4053 19.4185 23.2542C19.6491 23.1049 19.8594 22.9009 20.0447 22.6982C20.05 22.6916 20.0447 22.6671 20.0354 22.6764Z" fill="#A467A7"/>
<path d="M20.0354 22.6764C19.6496 23.0547 19.1349 23.3102 18.6331 23.4991C18.118 23.6933 17.5803 23.8133 17.0452 23.9378C16.4883 24.0676 15.9287 24.2 15.4003 24.4231C14.9083 24.6307 14.4731 24.9218 14.0785 25.28C13.2927 25.9942 12.6843 26.8956 11.7971 27.4978C11.3305 27.8147 10.8118 28.0516 10.266 28.1942C9.71626 28.3382 9.15093 28.3711 8.58515 28.3658C7.36871 28.3547 6.01226 28.1396 4.89937 28.7573C4.85404 28.7827 4.90559 28.8711 4.95226 28.8511C6.02782 28.3973 7.19226 28.4956 8.33004 28.5244C8.89759 28.5387 9.46959 28.5324 10.0291 28.424C10.57 28.3196 11.0945 28.1249 11.5736 27.8538C12.5336 27.3102 13.1883 26.4364 13.954 25.6693C14.3438 25.2791 14.7723 24.9276 15.2709 24.6858C15.7869 24.4356 16.3456 24.2858 16.9003 24.1484C17.4989 24.0004 18.102 23.864 18.6754 23.6324C18.9331 23.5284 19.1851 23.4053 19.4185 23.2542C19.6491 23.1049 19.8594 22.9009 20.0447 22.6982C20.05 22.6916 20.0447 22.6671 20.0354 22.6764Z" fill="#859356"/>
<path d="M20.8438 15.14C20.8438 14.444 21.178 13.5831 22.202 13.6787C22.8949 13.7436 23.4731 14.3116 23.4731 15.0071C23.4731 15.7031 22.8175 16.3653 22.1215 16.3653C21.4255 16.3653 20.8438 15.8356 20.8438 15.14Z" fill="#A467A7"/>
<path d="M20.8438 15.14C20.8438 14.444 21.178 13.5831 22.202 13.6787C22.8949 13.7436 23.4731 14.3116 23.4731 15.0071C23.4731 15.7031 22.8175 16.3653 22.1215 16.3653C21.4255 16.3653 20.8438 15.8356 20.8438 15.14Z" fill="#C6CE8F"/>
<path d="M21.0928 14.2249C21.6377 13.4027 22.9666 13.7165 23.2764 14.5742C23.5737 15.3969 23.0364 16.1876 22.1826 16.2445C22.0039 16.2565 21.8217 16.2431 21.6497 16.1916C21.4781 16.14 21.3617 16.0445 21.2364 15.9196C21.0292 15.7129 20.9506 15.4231 20.9332 15.1382C20.9252 15.0076 20.9341 14.8765 20.9195 14.7462C20.9177 14.732 20.915 14.7156 20.903 14.7076C20.8781 14.6898 20.8484 14.7218 20.8359 14.7494C20.7479 14.9436 20.7728 15.2756 20.8212 15.4831C20.9448 16.016 21.4084 16.3898 21.9657 16.4191C22.9404 16.4702 23.7386 15.6889 23.4977 14.6862C23.3564 14.0978 22.8781 13.6925 22.2786 13.6258C21.8524 13.5782 21.2301 13.7502 21.0621 14.1894C21.0568 14.2045 21.0768 14.2494 21.0928 14.2249Z" fill="#505832"/>
<path d="M22.3025 13.1205C22.3288 12.9707 22.3381 12.8076 22.3274 12.6556C22.3239 12.6071 22.2332 12.564 22.2292 12.6293C22.2194 12.7858 22.2301 12.9502 22.2541 13.1049C22.2572 13.1267 22.2963 13.156 22.3025 13.1205Z" fill="#505832"/>
<path d="M23.2475 13.6031C23.2995 13.5538 23.3364 13.484 23.3747 13.4236C23.4182 13.3542 23.4653 13.2876 23.5107 13.2196C23.5387 13.1773 23.4662 13.1085 23.4369 13.1498C23.3507 13.2711 23.2427 13.424 23.2173 13.5733C23.2138 13.5898 23.2289 13.6209 23.2475 13.6031Z" fill="#505832"/>
<path d="M23.8393 14.4436C23.874 14.4476 23.9007 14.4293 23.9318 14.4173C23.9789 14.3991 24.0278 14.3853 24.0758 14.3698C24.1642 14.3409 24.2758 14.3133 24.3389 14.2396C24.3678 14.2058 24.31 14.1369 24.2731 14.1636C24.1909 14.2236 24.1078 14.2587 24.0118 14.2916C23.9438 14.3151 23.8344 14.3422 23.8291 14.4271C23.8295 14.4333 23.8318 14.4427 23.8393 14.4436Z" fill="#505832"/>
<path d="M23.751 15.4547C23.751 15.4347 23.7505 15.4147 23.7505 15.3947C23.7412 15.404 23.7319 15.4133 23.7221 15.4227C23.7452 15.4707 23.8283 15.4902 23.875 15.5075C23.9701 15.5427 24.0701 15.5631 24.1634 15.604C24.2332 15.6342 24.2457 15.5418 24.1857 15.5142C24.0519 15.4533 23.8981 15.4195 23.7568 15.3778C23.7057 15.3627 23.7163 15.44 23.751 15.4547Z" fill="#505832"/>
<path d="M22.8162 16.6596C22.842 16.7489 22.8985 16.8427 22.95 16.9191C22.994 16.9836 23.0509 17.0604 23.1322 17.0764C23.19 17.088 23.2229 17.0271 23.1745 16.9889C23.1131 16.9404 23.0705 16.896 23.0273 16.8284C22.9847 16.7613 22.9487 16.6836 22.89 16.6284C22.8638 16.6027 22.8033 16.6138 22.8162 16.6596Z" fill="#505832"/>
<path d="M21.7632 16.7498C21.7423 16.8356 21.7476 16.928 21.7458 17.016C21.7445 17.0933 21.7298 17.1489 21.7867 17.2049C21.7947 17.2129 21.8041 17.2173 21.8143 17.2107C21.8756 17.1689 21.8543 17.1022 21.8529 17.0338C21.8512 16.9467 21.8556 16.8551 21.8352 16.7702C21.8294 16.7436 21.7743 16.7053 21.7632 16.7498Z" fill="#505832"/>
<path d="M20.7274 16.3907C20.6398 16.3902 20.5531 16.4462 20.4803 16.4889C20.3945 16.5391 20.3096 16.5929 20.2287 16.6502C20.1749 16.6885 20.2634 16.76 20.3118 16.7311C20.4589 16.6427 20.5976 16.5169 20.7674 16.4742C20.8176 16.4614 20.7603 16.3907 20.7274 16.3907Z" fill="#505832"/>
<path d="M19.9846 15.3196C20.1628 15.3436 20.3472 15.3044 20.5259 15.2964C20.6037 15.2929 20.5774 15.1862 20.5099 15.1844C20.3294 15.1795 20.1494 15.2191 19.969 15.224C19.9041 15.2258 19.9366 15.3129 19.9846 15.3196Z" fill="#505832"/>
<path d="M19.9294 14.1013C20.1378 14.1107 20.3303 14.1698 20.5343 14.2071C20.6138 14.2218 20.6205 14.1196 20.5485 14.1071C20.3374 14.0711 20.1178 13.9858 19.9014 14.0227C19.8569 14.0298 19.8978 14.1 19.9294 14.1013Z" fill="#505832"/>
<path d="M20.8388 12.9209C20.8326 12.9236 20.8259 12.9258 20.8197 12.9285C20.8064 12.9338 20.8002 12.952 20.8037 12.9649C20.8362 13.0933 20.9535 13.1711 21.0197 13.2809C21.0535 13.3369 21.1739 13.3205 21.1317 13.2538C21.0882 13.1845 21.0308 13.1289 20.9757 13.0693C20.9499 13.0418 20.9237 13.0142 20.9028 12.9827C20.8935 12.9689 20.8642 12.9107 20.8388 12.9209Z" fill="#505832"/>
<path d="M11.8157 19.9871C11.8384 19.9613 11.8597 19.9329 11.8868 19.9124C11.9162 19.8902 11.95 19.8742 11.982 19.8573C12.0228 19.8356 12.066 19.8249 12.1113 19.8209C12.1704 19.8156 12.2331 19.8284 12.2917 19.8418C12.3464 19.8542 12.4086 19.8747 12.4571 19.9089C12.4673 19.916 12.4651 19.8929 12.4606 19.8876C12.4153 19.8347 12.374 19.7844 12.3184 19.7449C12.2602 19.7031 12.1931 19.6902 12.1273 19.6884C12.0562 19.6867 11.9886 19.7076 11.9264 19.7418C11.8584 19.7791 11.8006 19.8631 11.7824 19.9476C11.7771 19.9689 11.7944 20.0111 11.8157 19.9871ZM10.5135 20.3302C10.5437 20.2791 10.5917 20.2351 10.6362 20.2009C10.6842 20.1644 10.7357 20.1267 10.7917 20.1071C10.8348 20.092 10.8788 20.084 10.9246 20.0867C10.9606 20.0889 10.998 20.0893 11.034 20.0973C11.0668 20.1049 11.0984 20.1218 11.1295 20.136C11.1588 20.1493 11.1571 20.1036 11.1442 20.0862C11.0926 20.0164 11.0051 19.9644 10.9277 19.9587C10.8571 19.9533 10.7868 19.9622 10.7228 19.9933C10.6637 20.0222 10.6077 20.0618 10.5722 20.124C10.5384 20.1831 10.5211 20.2462 10.502 20.3129C10.4997 20.3191 10.5073 20.3413 10.5135 20.3302ZM11.1886 18.7533C10.2748 18.9516 9.69307 19.8564 9.89129 20.7698C10.0895 21.6836 10.9944 22.2653 11.9077 22.0671C12.8215 21.8689 13.4033 20.964 13.2051 20.0507C13.0068 19.1373 12.1024 18.5551 11.1886 18.7533ZM11.8828 21.9516C11.0331 22.136 10.1917 21.5947 10.0073 20.7449C9.82285 19.8951 10.3642 19.0538 11.214 18.8693C12.0637 18.6849 12.9051 19.2262 13.0895 20.076C13.274 20.9258 12.7326 21.7671 11.8828 21.9516ZM12.5815 20.2773C12.5624 20.2636 12.5406 20.2493 12.5175 20.2436C12.4988 20.2387 12.478 20.2347 12.4584 20.2324C12.4486 20.2316 12.438 20.2298 12.4282 20.2311C12.4175 20.2324 12.4064 20.236 12.3962 20.2387C12.3833 20.2422 12.39 20.2684 12.4015 20.2698C12.4215 20.272 12.4411 20.2773 12.4606 20.2822C12.4691 20.2844 12.4771 20.2871 12.4851 20.2898C12.3602 20.6529 12.0548 20.9267 11.6784 21.0084C11.2997 21.0907 10.906 20.9662 10.642 20.684C10.6455 20.6809 10.6486 20.6773 10.6526 20.6747C10.6682 20.6622 10.6842 20.6489 10.7011 20.6391C10.7108 20.6333 10.706 20.6062 10.6931 20.6084C10.6828 20.6102 10.6708 20.6116 10.6606 20.6147C10.6513 20.6178 10.642 20.6236 10.6335 20.6284C10.6166 20.6382 10.5993 20.6507 10.5842 20.6631C10.566 20.6782 10.5517 20.7 10.5397 20.7204C10.5326 20.7329 10.5264 20.7458 10.5215 20.7596C10.5126 20.7853 10.5033 20.8116 10.5277 20.8351C10.5348 20.8418 10.5486 20.8378 10.5544 20.8316C10.5646 20.8204 10.5722 20.8098 10.5766 20.7956C10.578 20.7911 10.5793 20.7867 10.5811 20.7827C10.5842 20.7738 10.5877 20.7653 10.5913 20.7564C10.5917 20.7551 10.5922 20.7542 10.5926 20.7538C10.5931 20.7529 10.5935 20.752 10.594 20.7516C10.5962 20.7471 10.5984 20.7431 10.6011 20.7391C10.6024 20.7369 10.6037 20.7351 10.6046 20.7329C10.6046 20.7329 10.6055 20.7316 10.606 20.7307C10.6068 20.7293 10.6082 20.7276 10.6086 20.7271C10.6095 20.7262 10.6104 20.7249 10.6113 20.7236C10.8873 21.0138 11.2953 21.1418 11.6882 21.0564C12.078 20.972 12.3948 20.6902 12.5273 20.316C12.5291 20.3173 12.5313 20.3187 12.5331 20.32C12.5371 20.3227 12.5411 20.3258 12.5446 20.3284C12.5455 20.3289 12.546 20.3293 12.5468 20.3302C12.5473 20.3307 12.5477 20.3311 12.5491 20.3324C12.5557 20.3387 12.5628 20.3453 12.5695 20.352C12.5726 20.3551 12.5757 20.3587 12.5788 20.3622C12.5886 20.3733 12.6002 20.38 12.614 20.3858C12.622 20.3889 12.6362 20.3871 12.6397 20.3778C12.6522 20.3462 12.6326 20.3262 12.6144 20.3062C12.6042 20.2947 12.5931 20.2858 12.5815 20.2773Z" fill="#505832"/>
<path d="M18.7793 25.2529C18.7278 24.7258 19.446 24.5707 19.7322 24.9511C19.9353 25.2213 19.806 25.6684 19.4585 25.74C19.2713 25.7787 19.102 25.6667 19.0598 25.4804C19.0433 25.4067 19.0447 25.3355 19.0882 25.2689C19.1509 25.1773 19.2456 25.148 19.3722 25.1813C19.5651 25.3849 19.5113 25.4622 19.2109 25.4138C19.1878 25.3964 19.1851 25.4373 19.1962 25.4502C19.4242 25.7182 19.7909 25.2711 19.4033 25.1089C19.0113 24.9449 18.8233 25.4404 19.07 25.7027C19.3549 26.0058 19.8291 25.7662 19.9158 25.4067C20.0033 25.0453 19.7433 24.736 19.3945 24.6764C19.0078 24.6107 18.6651 24.8471 18.7616 25.2564C18.7651 25.272 18.7807 25.2675 18.7793 25.2529Z" fill="#445962"/>
<path d="M7.43944 34.9702C7.687 35.0787 8.04122 34.8605 8.21544 34.7018C8.443 34.4942 8.53811 34.1951 8.51811 33.892C8.50122 33.6342 8.39767 33.3351 8.13367 33.2378C7.943 33.1671 7.68211 33.2067 7.57544 33.3938C7.34611 33.796 7.79989 34.3845 8.18655 34.4742C8.78967 34.6147 9.34122 34.1818 9.50211 33.6227C9.61411 33.2329 9.591 32.3951 8.947 32.6373C8.71722 32.7236 8.63056 32.9809 8.74033 33.1942C8.87811 33.4613 9.21678 33.5458 9.49456 33.5031C10.2003 33.3947 10.6577 32.6645 10.5141 31.9876C10.383 31.3698 9.60122 30.7893 8.99811 31.2262C8.72256 31.4258 8.69589 31.8133 8.96433 32.0333C9.27367 32.2867 9.76967 32.2418 10.1137 32.0951C10.4688 31.9436 10.7341 31.6333 10.8141 31.2533C10.8768 30.956 10.779 30.7422 10.4737 30.6862C10.4261 30.6773 10.4301 30.7347 10.4661 30.7493C10.8754 30.9147 10.6079 31.4938 10.4208 31.7022C10.1941 31.9542 9.84833 32.0778 9.51278 32.0582C9.27055 32.0445 8.93189 31.9476 8.93767 31.6227C8.94167 31.3902 9.19322 31.2476 9.39322 31.2298C9.70167 31.2027 10.0746 31.4218 10.2297 31.6782C10.5283 32.1711 10.3843 32.8 9.94878 33.1516C9.64389 33.3978 8.97322 33.5453 8.84344 33.0373C8.92878 32.7338 9.08433 32.6707 9.311 32.8485C9.35722 32.9102 9.38478 32.9796 9.39278 33.0569C9.40967 33.1493 9.40033 33.2529 9.38878 33.344C9.33278 33.7885 9.10255 34.1956 8.63989 34.3125C8.21055 34.4209 7.87367 34.1898 7.74389 33.788C7.71367 33.6947 7.68167 33.5773 7.72433 33.4831C7.81811 33.2778 8.10522 33.3591 8.22789 33.5062C8.32611 33.624 8.35855 33.8053 8.36522 33.9538C8.37678 34.2169 8.28611 34.4769 8.08344 34.652C7.93944 34.7765 7.64211 34.9725 7.44478 34.9058C7.399 34.8898 7.40522 34.9551 7.43944 34.9702Z" fill="#505832"/>
<path d="M16.1438 19.952H15.0487L14.7451 18.8138L15.2576 19.2662L15.4887 18.3076L15.8127 19.2116L16.2216 18.6293L16.1438 19.952ZM15.122 19.8564H16.0536L16.106 18.9604L15.7847 19.4182L15.5069 18.6422L15.3136 19.4436L14.9193 19.096L15.122 19.8564Z" fill="#505832"/>
<path d="M6.89442 26.0129L6.98153 25.4222L6.39087 25.3351L6.30375 25.9258L5.71309 25.8387L5.62598 26.4293L6.21664 26.5164L6.12953 27.1071L6.7202 27.1942L6.80731 26.6036L7.39798 26.6911L7.48509 26.1004L6.89442 26.0129Z" fill="#CADDAC" stroke="#CADDAC" stroke-miterlimit="10"/>
<path d="M17.5531 14.1053C17.4211 14.1089 17.2909 14.1498 17.186 14.2293C17.1429 14.1116 17.1002 13.9933 17.0589 13.8747C17.0718 13.8373 17.0838 13.8 17.0949 13.7618C17.1726 13.4982 17.242 13.128 16.9709 12.9462C16.8686 12.8778 16.7162 12.8938 16.6971 13.0347C16.6882 13.0987 16.7082 13.1631 16.7255 13.224C16.7509 13.3129 16.7775 13.4013 16.8051 13.4893C16.8455 13.6169 16.8886 13.744 16.9326 13.8702C16.9291 13.8804 16.9251 13.8907 16.9215 13.9009C16.8718 14.0378 16.8055 14.168 16.738 14.2969C16.6882 14.3916 16.646 14.4973 16.6251 14.6031C16.6033 14.7138 16.6073 14.8538 16.6375 14.9622C16.6891 15.1458 16.7606 15.3098 16.9824 15.4124C17.1269 15.4791 17.3482 15.4818 17.5006 15.4533C17.5242 15.5244 17.518 15.5107 17.5402 15.5827C17.5731 15.6889 17.5922 15.7947 17.6255 15.9013C17.642 15.9542 17.6615 16.0111 17.7069 16.0427C17.7411 16.0662 17.7847 16.0716 17.826 16.0667C17.8829 16.06 17.942 16.0302 17.9638 15.9773C17.9864 15.9227 17.9629 15.8578 17.9233 15.8133C17.8833 15.7693 17.83 15.7409 17.7789 15.7102C17.7189 15.6738 17.6726 15.6396 17.6558 15.572C17.6509 15.5524 17.6184 15.4262 17.614 15.4271C17.7824 15.3809 17.9749 15.2364 18.0611 15.0827C18.1411 14.9396 18.1806 14.8133 18.1713 14.6627C18.1509 14.3333 17.8811 14.0969 17.5531 14.1053ZM17.2331 14.6916C17.2535 14.7471 17.2735 14.8027 17.294 14.8582C17.2735 14.8564 17.2535 14.8511 17.234 14.8413C17.1002 14.7738 17.0784 14.6022 17.1309 14.476C17.1344 14.4671 17.1393 14.4591 17.1433 14.4507C17.1735 14.5302 17.2033 14.6107 17.2331 14.6916ZM16.8544 13.2409C16.8411 13.1947 16.7642 12.94 16.8944 13.0231C16.9789 13.0769 17.0238 13.1827 17.0389 13.2778C17.0598 13.4111 17.034 13.552 16.9944 13.6867C16.9447 13.5391 16.8975 13.3907 16.8544 13.2409ZM16.7264 14.6364C16.7366 14.5836 16.7486 14.5476 16.7669 14.4969C16.7998 14.4053 16.8526 14.3116 16.8953 14.2267C16.9291 14.1596 16.9669 14.1138 16.9953 14.0444C17.0282 14.1356 17.0615 14.2267 17.0953 14.3178C17.002 14.4324 16.9526 14.5898 17.0073 14.732C17.0589 14.8662 17.1864 14.9578 17.3291 14.9524C17.3673 15.0587 17.4344 15.2502 17.4709 15.3573C17.3784 15.3747 17.2842 15.3813 17.1918 15.3707C17.0829 15.3582 16.9549 15.3071 16.8686 15.2027C16.8291 15.1547 16.7922 15.092 16.7646 15.0107C16.7424 14.9458 16.7246 14.8631 16.7198 14.7947C16.7158 14.752 16.7144 14.6969 16.7264 14.6364ZM18.0322 14.9409C17.9629 15.088 17.8211 15.2484 17.6726 15.3018C17.6433 15.3124 17.6131 15.3218 17.5829 15.3302C17.5469 15.2236 17.4802 15.0324 17.4424 14.9262C17.562 14.8742 17.6771 14.7516 17.6304 14.6213C17.6095 14.5627 17.554 14.5187 17.4918 14.516C17.4518 14.5142 17.4753 14.5658 17.5033 14.5698C17.6229 14.5876 17.5242 14.7476 17.4784 14.7876C17.458 14.8058 17.434 14.8218 17.4091 14.8338C17.3815 14.7578 17.354 14.6818 17.326 14.6058C17.2931 14.516 17.2598 14.4267 17.2269 14.3369C17.3762 14.192 17.6242 14.1604 17.8113 14.2604C18.0438 14.3867 18.1415 14.7098 18.0322 14.9409Z" fill="#505832"/>
<path d="M12.1662 25.1876C12.1969 25.0102 12.2231 24.8325 12.2449 24.6538C12.2533 24.5836 12.2756 24.5089 12.2213 24.4529C12.1658 24.3956 12.0698 24.3911 11.996 24.3733C11.6253 24.2849 11.2529 24.184 10.8907 24.0658C10.8627 24.0569 10.8129 24.0676 10.8053 24.1018C10.7404 24.4005 10.6627 24.696 10.588 24.9925C10.5524 25.1333 10.5196 25.2747 10.48 25.4142C10.4751 25.4316 10.4702 25.4493 10.4649 25.4667C10.4044 25.4387 10.3356 25.4285 10.2689 25.4436C10.1804 25.4636 10.1209 25.5458 10.1724 25.6316C10.2476 25.7565 10.5742 25.7982 10.6182 25.6236C10.6333 25.564 10.628 25.4991 10.6422 25.4373C10.6556 25.3809 10.6702 25.3249 10.6844 25.2689C10.7147 25.1507 10.7449 25.0325 10.7747 24.9142C10.7942 24.8373 10.8138 24.7605 10.8333 24.6836C10.9218 24.732 11.0289 24.7533 11.1244 24.7782C11.228 24.8053 11.3316 24.8325 11.4356 24.8596C11.6133 24.9062 11.7933 24.9622 11.9742 25C11.9507 25.1502 11.9253 25.3 11.896 25.4489C11.8724 25.5676 11.8471 25.6858 11.82 25.8036C11.812 25.8391 11.8049 25.8769 11.7924 25.912C11.6813 25.8978 11.5009 25.9222 11.5453 26.0756C11.5862 26.2165 11.7747 26.2236 11.876 26.152C12.0089 26.0582 12.028 25.8627 12.0613 25.716C12.1009 25.5413 12.1356 25.3649 12.1662 25.1876ZM11.4316 24.6911C11.328 24.664 11.2249 24.6373 11.1213 24.6102C11.0422 24.5898 10.9529 24.56 10.8676 24.5538C10.8942 24.4516 10.9213 24.3493 10.9498 24.2476C11.156 24.324 11.3613 24.3982 11.5742 24.4573C11.6973 24.4916 11.8204 24.5236 11.9449 24.5533C11.9724 24.56 12 24.5662 12.0276 24.5729C12.0196 24.6222 12.016 24.7165 12.0142 24.732C12.0093 24.7685 12.0036 24.8045 11.9982 24.8405C11.8124 24.7822 11.6196 24.74 11.4316 24.6911Z" fill="#505832"/>
<path d="M5.40275 7.95022C5.31253 7.81511 5.2872 7.46266 5.14053 7.50755C5.05164 7.53466 5.12631 7.764 4.99431 8.00044C4.86231 8.23689 4.60542 8.25466 4.61653 8.34489C4.62764 8.43511 4.98809 8.34489 5.10098 8.53644C5.21387 8.728 5.22498 8.976 5.30364 8.96444C5.38231 8.95333 5.33742 8.51378 5.51787 8.40133C5.69831 8.28889 5.86764 8.30444 5.85653 8.19733C5.84542 8.09022 5.49298 8.08533 5.40275 7.95022ZM3.82364 9.65244C3.76631 9.56666 3.75031 9.34355 3.65742 9.372C3.60098 9.38933 3.64853 9.53466 3.56453 9.68444C3.48098 9.83422 3.31831 9.84533 3.32542 9.90266C3.33253 9.96 3.56098 9.90266 3.63253 10.024C3.70409 10.1453 3.7112 10.3027 3.76098 10.2951C3.81075 10.288 3.78231 10.0093 3.89653 9.93822C4.01075 9.86667 4.11831 9.87689 4.1112 9.80889C4.10409 9.74089 3.88053 9.73822 3.82364 9.65244Z" fill="#A467A7"/>
<path d="M5.40275 7.95022C5.31253 7.81511 5.2872 7.46266 5.14053 7.50755C5.05164 7.53466 5.12631 7.764 4.99431 8.00044C4.86231 8.23689 4.60542 8.25466 4.61653 8.34489C4.62764 8.43511 4.98809 8.34489 5.10098 8.53644C5.21387 8.728 5.22498 8.976 5.30364 8.96444C5.38231 8.95333 5.33742 8.51378 5.51787 8.40133C5.69831 8.28889 5.86764 8.30444 5.85653 8.19733C5.84542 8.09022 5.49298 8.08533 5.40275 7.95022ZM3.82364 9.65244C3.76631 9.56666 3.75031 9.34355 3.65742 9.372C3.60098 9.38933 3.64853 9.53466 3.56453 9.68444C3.48098 9.83422 3.31831 9.84533 3.32542 9.90266C3.33253 9.96 3.56098 9.90266 3.63253 10.024C3.70409 10.1453 3.7112 10.3027 3.76098 10.2951C3.81075 10.288 3.78231 10.0093 3.89653 9.93822C4.01075 9.86667 4.11831 9.87689 4.1112 9.80889C4.10409 9.74089 3.88053 9.73822 3.82364 9.65244Z" fill="#DADEA9"/>
<path d="M6.3383 13.4911L6.97386 13.464C6.97386 13.464 7.08675 12.2494 8.04008 11.9671C9.27875 11.6005 9.47697 12.648 9.47697 12.648L10.1636 12.2987C10.1636 12.2987 9.60763 11.0378 8.32452 11.1809C7.04097 11.324 6.28808 12.6662 6.3383 13.4911Z" fill="#A467A7"/>
<path d="M6.3383 13.4911L6.97386 13.464C6.97386 13.464 7.08675 12.2494 8.04008 11.9671C9.27875 11.6005 9.47697 12.648 9.47697 12.648L10.1636 12.2987C10.1636 12.2987 9.60763 11.0378 8.32452 11.1809C7.04097 11.324 6.28808 12.6662 6.3383 13.4911Z" fill="#859356"/>
<path d="M10.1639 12.2982L10.7697 12.0231C10.7697 12.0231 10.3706 10.9809 9.43814 10.5582C8.50526 10.1356 7.43326 10.1534 6.4537 11.2102C5.47414 12.2676 5.41992 13.4969 5.41992 13.4969L6.33903 13.4911C6.33903 13.4911 6.31326 11.8169 7.8377 11.292C9.3617 10.7671 10.1639 12.2982 10.1639 12.2982Z" fill="#A467A7"/>
<path d="M10.1639 12.2982L10.7697 12.0231C10.7697 12.0231 10.3706 10.9809 9.43814 10.5582C8.50526 10.1356 7.43326 10.1534 6.4537 11.2102C5.47414 12.2676 5.41992 13.4969 5.41992 13.4969L6.33903 13.4911C6.33903 13.4911 6.31326 11.8169 7.8377 11.292C9.3617 10.7671 10.1639 12.2982 10.1639 12.2982Z" fill="#C6CE8F"/>
<path d="M4.58496 13.2311L5.42007 13.4285C5.42007 13.4285 5.77474 10.9151 7.73741 10.3894C9.70052 9.86358 10.7698 12.0231 10.7698 12.0231L11.4147 11.5409C11.4147 11.5409 10.6623 8.96136 8.29563 9.17158C5.92985 9.3818 4.59341 11.8311 4.58496 13.2311Z" fill="#A467A7"/>
<path d="M4.58496 13.2311L5.42007 13.4285C5.42007 13.4285 5.77474 10.9151 7.73741 10.3894C9.70052 9.86358 10.7698 12.0231 10.7698 12.0231L11.4147 11.5409C11.4147 11.5409 10.6623 8.96136 8.29563 9.17158C5.92985 9.3818 4.59341 11.8311 4.58496 13.2311Z" fill="#DADEA9"/>
<path d="M6.34797 13.5951C6.41019 13.3671 6.37597 13.1302 6.44086 12.8969C6.5013 12.6791 6.59241 12.4751 6.72219 12.2893C6.98975 11.9058 7.34042 11.5698 7.77642 11.3893C8.69375 11.0102 9.74886 11.4578 10.1449 12.3658C10.1573 12.3947 10.2333 12.4027 10.224 12.3609C9.97997 11.2813 8.66664 10.8627 7.7253 11.2627C7.3013 11.4427 6.95641 11.7587 6.68264 12.1245C6.54797 12.3045 6.43553 12.5027 6.36753 12.7178C6.32664 12.8467 6.29641 12.9858 6.28264 13.12C6.26664 13.2742 6.31375 13.42 6.30575 13.5738C6.30486 13.5911 6.34175 13.6182 6.34797 13.5951Z" fill="#505832"/>
<path d="M5.4608 13.5698C5.55413 12.3711 6.32702 11.0227 7.47636 10.5689C8.06436 10.3369 8.71191 10.3436 9.29369 10.5907C9.61413 10.7267 9.90702 10.9116 10.1284 11.1836C10.3759 11.488 10.5568 11.8409 10.799 12.1453C10.8128 12.1627 10.867 12.168 10.8572 12.1333C10.6724 11.4627 10.1506 10.8205 9.5328 10.5062C8.91636 10.1925 8.2128 10.1293 7.55502 10.3511C6.85947 10.5858 6.31502 11.0973 5.93902 11.7165C5.75947 12.0116 5.62791 12.3276 5.51991 12.6547C5.42524 12.9405 5.32524 13.264 5.38747 13.5671C5.39369 13.5991 5.45813 13.6071 5.4608 13.5698Z" fill="#505832"/>
<path d="M4.61652 13.3533C4.70274 12.9333 4.76452 12.5156 4.89519 12.104C5.0383 11.6533 5.31608 11.2493 5.61519 10.8885C6.15208 10.2409 6.80585 9.63601 7.62541 9.38268C8.38808 9.14668 9.19074 9.25379 9.88941 9.62934C10.6636 10.0458 11.093 10.7356 11.3712 11.5436C11.3845 11.5822 11.4681 11.5885 11.4592 11.5382C11.1405 9.76179 9.23519 8.66712 7.53119 9.23468C6.68452 9.5169 5.99208 10.1569 5.44585 10.8449C5.17785 11.1822 4.92719 11.5609 4.78719 11.972C4.65297 12.3653 4.47341 12.9182 4.54274 13.3356C4.54674 13.3631 4.60852 13.3916 4.61652 13.3533Z" fill="#505832"/>
<path d="M2.98664 16.1147C2.84042 16.124 2.8942 17.0191 2.84753 17.0067C2.80131 16.9947 1.91909 17.2809 1.89687 17.4156C1.87464 17.5502 2.83198 17.6853 2.83198 17.6853C2.83198 17.6853 2.64664 18.5071 2.81642 18.5689C2.9862 18.6307 3.43375 17.8245 3.43375 17.8245C3.43375 17.8245 4.17464 18.2756 4.31375 18.1525C4.45287 18.0289 3.88131 17.4156 3.88131 17.4156C3.88131 17.4156 4.6222 16.9018 4.54531 16.7476C4.46798 16.5933 3.61909 16.868 3.61909 16.868C3.61909 16.868 3.23375 16.0991 2.98664 16.1147Z" fill="#A467A7"/>
<path d="M2.98664 16.1147C2.84042 16.124 2.8942 17.0191 2.84753 17.0067C2.80131 16.9947 1.91909 17.2809 1.89687 17.4156C1.87464 17.5502 2.83198 17.6853 2.83198 17.6853C2.83198 17.6853 2.64664 18.5071 2.81642 18.5689C2.9862 18.6307 3.43375 17.8245 3.43375 17.8245C3.43375 17.8245 4.17464 18.2756 4.31375 18.1525C4.45287 18.0289 3.88131 17.4156 3.88131 17.4156C3.88131 17.4156 4.6222 16.9018 4.54531 16.7476C4.46798 16.5933 3.61909 16.868 3.61909 16.868C3.61909 16.868 3.23375 16.0991 2.98664 16.1147Z" fill="#C6CE8F"/>
<path d="M19.5915 18.6298C19.439 18.6364 19.2412 19.3933 19.2412 19.3933C19.2412 19.3933 18.4172 19.3111 18.3266 19.3933C18.2359 19.4755 19.0283 20.0089 19.0283 20.0089C19.0283 20.0089 18.7377 20.7098 18.8755 20.8013C19.0132 20.8929 19.5919 20.3138 19.5919 20.3138C19.5919 20.3138 20.2928 20.9275 20.3688 20.8111C20.4448 20.6947 20.1252 19.9022 20.1252 19.9022C20.1252 19.9022 20.7635 19.524 20.7417 19.3933C20.7195 19.2622 19.9595 19.3387 19.9595 19.3387C19.9595 19.3387 19.7746 18.6218 19.5915 18.6298Z" fill="#CADDAC" stroke="#CADDAC" stroke-miterlimit="10"/>
<path d="M5.55885 19.18C5.48596 19.0276 5.23663 18.5422 5.02374 18.6169C4.80018 18.6951 4.99263 19.1591 4.91174 19.3C4.8304 19.4418 4.35351 19.5267 4.41574 19.7644C4.46374 19.9484 4.81085 19.8858 4.93485 19.9204C4.99085 19.936 4.94329 19.856 4.96774 19.9778C4.98685 20.0729 4.99796 20.172 5.02151 20.2662C5.0384 20.3342 5.04285 20.4124 5.10729 20.4538C5.38107 20.6298 5.41663 20.0631 5.54507 19.9982C5.66685 19.9364 6.13351 20.3418 6.23574 20.0613C6.25974 19.9956 6.14418 19.8444 6.11574 19.804C6.00996 19.652 5.95618 19.6942 6.01485 19.5542C6.06285 19.44 6.43529 19.072 6.23085 18.9498C6.08018 18.86 5.65263 19.0738 5.50818 19.144C5.45485 19.1698 5.51485 19.2516 5.56285 19.2356C5.67174 19.1996 6.09485 18.996 6.16374 19.0662C6.19751 19.1009 5.88951 19.5418 5.85396 19.6027C5.84329 19.6213 5.85796 19.6524 5.87307 19.6644C5.92507 19.7053 6.1704 19.9387 6.0824 20.0369C6.00729 20.1209 5.61796 19.9267 5.52507 19.896C5.50507 19.8893 5.48418 19.8916 5.47307 19.9116C5.42063 20.0036 5.30374 20.4342 5.12063 20.2804C5.06418 20.2333 5.06374 19.9671 5.04729 19.8809C5.04285 19.8591 5.02507 19.8342 5.0024 19.828C4.88774 19.7964 4.71751 19.8524 4.61485 19.7876C4.4784 19.7013 4.64685 19.6182 4.7464 19.5471C4.8304 19.4871 4.91663 19.4316 5.00507 19.3787C5.0144 19.3729 5.02418 19.3613 5.02374 19.3493C5.01929 19.2249 4.98951 19.0436 5.02729 18.9218C5.13529 18.5747 5.41218 19.0556 5.51574 19.2071C5.53751 19.24 5.57574 19.2151 5.55885 19.18Z" fill="#505832"/>
<path d="M13.4215 28.232C13.3113 28.1773 13.1699 28.1551 13.0699 28.2276C12.9855 28.2885 12.9539 28.4013 12.9593 28.5053C12.9708 28.7258 13.1384 28.9289 13.3526 28.9822C13.1295 28.9893 12.9184 29.0325 12.7477 29.1765C12.7131 29.2058 12.6619 29.2725 12.6513 29.3205C12.6299 29.4191 12.6517 29.5267 12.7299 29.5907C12.8082 29.6547 12.9131 29.676 13.0139 29.6778C13.1077 29.68 13.2019 29.6667 13.2922 29.6396C13.3788 29.6138 13.4531 29.5569 13.5357 29.5298C13.4948 29.6387 13.4615 29.7405 13.4579 29.8573C13.4548 29.9569 13.4873 30.0622 13.5633 30.1298C13.6531 30.2102 13.7859 30.2311 13.8988 30.1942C13.9366 30.1818 13.9731 30.164 14.0046 30.1396C14.0793 30.0818 14.1228 29.9893 14.1339 29.8951C14.1433 29.8169 14.1313 29.7373 14.1086 29.6618C14.0877 29.5925 14.0686 29.528 14.0322 29.464C14.1779 29.5578 14.2833 29.6818 14.4664 29.6956C14.6131 29.7067 14.7584 29.6453 14.8171 29.5036C14.8797 29.3516 14.8046 29.1573 14.6562 29.0867C14.6042 29.0622 14.5473 29.0516 14.4908 29.0418C14.4282 29.0307 14.3655 29.0191 14.3024 29.008C14.4739 28.9098 14.5922 28.7249 14.6099 28.528C14.6166 28.4547 14.6091 28.3778 14.5739 28.3129C14.4597 28.1045 14.2339 28.1707 14.0797 28.2818C13.9055 28.4071 13.8419 28.6338 13.8108 28.8409C13.8251 28.7707 13.6904 28.5271 13.6566 28.4587C13.6046 28.3547 13.5299 28.2858 13.4215 28.232Z" fill="#CADDAC" stroke="#CADDAC" stroke-miterlimit="10"/>
<path d="M3.8322 23.3107C3.74998 23.2698 3.64509 23.2533 3.57087 23.3071C3.5082 23.3525 3.48464 23.4365 3.48864 23.5138C3.49709 23.6778 3.62198 23.8289 3.78109 23.8685C3.61487 23.8738 3.45798 23.9058 3.33131 24.0129C3.30553 24.0347 3.26731 24.0845 3.25976 24.12C3.24376 24.1933 3.25976 24.2733 3.31798 24.3209C3.3762 24.3685 3.45442 24.384 3.52953 24.3858C3.59931 24.3871 3.66953 24.3773 3.7362 24.3573C3.80064 24.3382 3.8562 24.296 3.91753 24.2756C3.88687 24.3565 3.86242 24.4325 3.85931 24.5191C3.85709 24.5933 3.88109 24.6716 3.93753 24.7218C4.0042 24.7813 4.10287 24.7973 4.18687 24.7698C4.21487 24.7605 4.24198 24.7471 4.26553 24.7289C4.32109 24.6858 4.35353 24.6169 4.36153 24.5471C4.3682 24.4889 4.35976 24.4298 4.34287 24.3738C4.32731 24.3222 4.31309 24.2742 4.28598 24.2267C4.39442 24.2965 4.47264 24.3889 4.60909 24.3991C4.71798 24.4071 4.82642 24.3618 4.86998 24.256C4.91664 24.1431 4.86064 23.9982 4.75042 23.9458C4.71176 23.9276 4.66953 23.92 4.62731 23.9125C4.58064 23.904 4.53398 23.8956 4.48731 23.8871C4.61487 23.8142 4.70287 23.6765 4.7162 23.5298C4.72109 23.4751 4.71576 23.4178 4.68909 23.3698C4.6042 23.2147 4.4362 23.264 4.32153 23.3467C4.1922 23.44 4.14464 23.6085 4.12153 23.7627C4.13176 23.7107 4.0322 23.5293 4.00687 23.4782C3.9682 23.4018 3.91264 23.3507 3.8322 23.3107Z" fill="#A467A7"/>
<path d="M3.8322 23.3107C3.74998 23.2698 3.64509 23.2533 3.57087 23.3071C3.5082 23.3525 3.48464 23.4365 3.48864 23.5138C3.49709 23.6778 3.62198 23.8289 3.78109 23.8685C3.61487 23.8738 3.45798 23.9058 3.33131 24.0129C3.30553 24.0347 3.26731 24.0845 3.25976 24.12C3.24376 24.1933 3.25976 24.2733 3.31798 24.3209C3.3762 24.3685 3.45442 24.384 3.52953 24.3858C3.59931 24.3871 3.66953 24.3773 3.7362 24.3573C3.80064 24.3382 3.8562 24.296 3.91753 24.2756C3.88687 24.3565 3.86242 24.4325 3.85931 24.5191C3.85709 24.5933 3.88109 24.6716 3.93753 24.7218C4.0042 24.7813 4.10287 24.7973 4.18687 24.7698C4.21487 24.7605 4.24198 24.7471 4.26553 24.7289C4.32109 24.6858 4.35353 24.6169 4.36153 24.5471C4.3682 24.4889 4.35976 24.4298 4.34287 24.3738C4.32731 24.3222 4.31309 24.2742 4.28598 24.2267C4.39442 24.2965 4.47264 24.3889 4.60909 24.3991C4.71798 24.4071 4.82642 24.3618 4.86998 24.256C4.91664 24.1431 4.86064 23.9982 4.75042 23.9458C4.71176 23.9276 4.66953 23.92 4.62731 23.9125C4.58064 23.904 4.53398 23.8956 4.48731 23.8871C4.61487 23.8142 4.70287 23.6765 4.7162 23.5298C4.72109 23.4751 4.71576 23.4178 4.68909 23.3698C4.6042 23.2147 4.4362 23.264 4.32153 23.3467C4.1922 23.44 4.14464 23.6085 4.12153 23.7627C4.13176 23.7107 4.0322 23.5293 4.00687 23.4782C3.9682 23.4018 3.91264 23.3507 3.8322 23.3107Z" fill="#DADEA9"/>
<path d="M16.5651 22.1956C16.4851 22.0956 16.3726 22.0329 16.2508 22.0053C16.4322 21.8236 16.3411 21.4871 16.1131 21.3596C15.9828 21.2867 15.818 21.2716 15.6846 21.3467C15.6233 21.3813 15.5735 21.4329 15.5406 21.4951C15.534 21.508 15.5286 21.5204 15.5242 21.5324C15.4651 21.4587 15.3873 21.4018 15.2935 21.3698C15.1535 21.3213 14.9855 21.3267 14.8682 21.4258C14.7611 21.516 14.7113 21.6698 14.7406 21.8058C14.7611 21.9013 14.8113 21.98 14.878 22.0431C14.638 22.0631 14.41 22.2444 14.4575 22.5124C14.4815 22.6471 14.5855 22.7524 14.7082 22.8044C14.8424 22.8618 14.9891 22.8542 15.1264 22.8151C15.13 22.9391 15.1566 23.0591 15.2513 23.1502C15.3433 23.2387 15.4722 23.2876 15.5997 23.2827C15.8384 23.2733 16.0002 23.0689 16.0091 22.8471C16.0855 22.9076 16.1802 22.9422 16.282 22.9387C16.4428 22.9324 16.5837 22.8196 16.6437 22.6738C16.7086 22.5147 16.6708 22.3284 16.5651 22.1956ZM16.6011 22.608C16.5295 22.8618 16.1588 22.9898 16.0086 22.7289C15.9908 22.6982 15.9077 22.6822 15.9166 22.7369C15.9504 22.9418 15.826 23.1907 15.6028 23.2173C15.5037 23.2289 15.3997 23.1938 15.3277 23.1249C15.2286 23.0298 15.2251 22.8898 15.2353 22.7613C15.2388 22.7151 15.1753 22.6933 15.1402 22.7058C14.9397 22.7782 14.5957 22.7964 14.5446 22.5178C14.5251 22.4107 14.5726 22.2973 14.6535 22.2276C14.7544 22.1409 14.8877 22.1262 15.0148 22.1449C15.0797 22.1547 15.0997 22.0778 15.0388 22.0524C14.8255 21.9631 14.7344 21.6836 14.89 21.5009C15.0588 21.3027 15.3571 21.4036 15.5082 21.5791C15.5091 21.6107 15.5166 21.6427 15.5304 21.6787C15.5362 21.6942 15.5708 21.7236 15.5793 21.6938C15.5806 21.6898 15.582 21.6853 15.5833 21.6809C15.5993 21.6871 15.6153 21.6716 15.6051 21.6462C15.6033 21.6418 15.6011 21.6373 15.5988 21.6329C15.6277 21.5516 15.6691 21.472 15.7384 21.4209C15.838 21.3476 15.9668 21.3493 16.074 21.4058C16.2988 21.5244 16.3402 21.8689 16.0904 21.9836C16.0322 22.0102 16.0988 22.0778 16.1388 22.0773C16.418 22.0733 16.6837 22.3147 16.6011 22.608ZM15.694 22.004C15.6886 22.0067 15.6851 22.0116 15.6837 22.0187C15.6824 22.0284 15.6908 22.036 15.6988 22.0418C15.7304 22.0631 15.7677 22.0764 15.7971 22.1004C15.8477 22.1413 15.8704 22.2138 15.8526 22.2764C15.8402 22.3209 15.8091 22.3587 15.7722 22.3862C15.7348 22.4138 15.6917 22.4316 15.6477 22.4458C15.6193 22.4551 15.5904 22.4627 15.5606 22.4653C15.5291 22.468 15.4975 22.4649 15.4673 22.456C15.4362 22.4467 15.4064 22.4316 15.3837 22.4084C15.3446 22.3689 15.3291 22.3102 15.3326 22.2547C15.3366 22.1956 15.3642 22.1347 15.4175 22.1084C15.4402 22.0973 15.4655 22.0933 15.4904 22.0893C15.5215 22.0844 15.5522 22.0796 15.5833 22.0747C15.5882 22.0738 15.5931 22.0729 15.5966 22.0698C15.6202 22.0484 15.5197 22.0244 15.5077 22.024C15.47 22.0222 15.4313 22.0311 15.3971 22.0467C15.346 22.0702 15.3064 22.1107 15.2797 22.16C15.2242 22.2631 15.2477 22.408 15.354 22.4676C15.4588 22.5267 15.5895 22.5276 15.7015 22.4884C15.802 22.4538 15.9175 22.3831 15.946 22.2733C15.9628 22.2089 15.9433 22.1436 15.8984 22.0947C15.8682 22.0618 15.83 22.0378 15.7886 22.0209C15.7735 22.0156 15.7175 21.9916 15.694 22.004Z" fill="#DADEA9"/>
<path d="M17.9976 11.2031C17.9896 10.8604 17.3585 10.5373 17.1758 10.9187C16.9949 11.2964 17.5785 11.7467 17.8234 11.9316C17.882 11.9756 17.9514 11.9449 17.8843 11.8942C17.6691 11.732 17.4278 11.472 17.3078 11.2236C17.2403 11.0844 17.2665 10.8884 17.4443 10.8529C17.666 10.8089 17.8656 11.0364 17.9585 11.2147C17.9718 11.2404 17.998 11.2311 17.9976 11.2031Z" fill="#505832"/>
<path d="M17.987 11.2262C18.1025 11.1373 18.215 11.0169 18.3621 10.9578C18.535 10.888 18.7327 10.9169 18.7141 11.188C18.7012 11.3782 18.4647 11.5876 18.3118 11.6844C18.1598 11.7809 18.0256 11.8484 17.8376 11.9222C17.803 11.9356 17.8336 11.9791 17.8643 11.9742C18.2452 11.9111 18.9758 11.4111 18.8043 10.9836C18.6594 10.6231 18.0372 10.9178 17.959 11.1849C17.9541 11.1996 17.9634 11.24 17.987 11.2262Z" fill="#505832"/>
<path d="M18.5483 27.8569C18.4025 27.6022 17.7981 27.5493 17.7723 27.9205C17.7448 28.3209 18.4039 28.432 18.683 28.4893C18.7563 28.5045 18.7674 28.4111 18.7003 28.3973C18.4594 28.348 18.1065 28.2991 17.9394 28.0996C17.8297 27.9685 17.8932 27.7929 18.0581 27.7565C18.2243 27.7196 18.3963 27.7898 18.5248 27.8916C18.5474 27.9098 18.5577 27.8733 18.5483 27.8569Z" fill="#DADEA9"/>
<path d="M18.5461 27.8885C18.6221 27.7853 18.6617 27.6627 18.7466 27.5631C18.7835 27.52 18.8386 27.4529 18.8932 27.4347C19.0221 27.3911 19.0923 27.4845 19.1048 27.6018C19.1212 27.7587 19.0368 27.9245 18.955 28.0516C18.8719 28.1809 18.7315 28.2796 18.6639 28.4151C18.6523 28.4378 18.6746 28.4938 18.7075 28.4796C19.0217 28.3422 19.4021 27.7422 19.1568 27.4138C18.9048 27.076 18.487 27.5956 18.515 27.8658C18.5163 27.8782 18.5323 27.9076 18.5461 27.8885Z" fill="#DADEA9"/>
<path d="M14.4211 12.5422C14.4211 12.5422 14.29 11.6484 13.6944 11.8604C13.0984 12.072 13.3722 12.7467 13.602 13.084C13.8322 13.4213 14.0851 13.6564 14.0851 13.6564C14.0851 13.6564 14.6562 13.5329 15.1331 13.2302C15.5002 12.9973 15.6393 12.6138 15.3149 12.3267C15.0367 12.08 14.6122 12.2564 14.4211 12.5422Z" fill="#CADDAC" stroke="#CADDAC" stroke-miterlimit="10"/>
<path d="M16.7408 26.2218C16.7408 26.2218 16.4719 25.4996 15.9017 25.8071C15.551 25.996 15.6354 26.4067 15.8892 26.7067C16.0968 26.952 16.4137 27.1902 16.6257 27.2693C16.6257 27.2693 17.0643 27.1098 17.4177 26.8351C17.8919 26.4662 17.871 25.9951 17.6305 25.8289C17.3905 25.6627 16.8634 25.8662 16.7408 26.2218Z" fill="#A467A7"/>
<path d="M16.7408 26.2218C16.7408 26.2218 16.4719 25.4996 15.9017 25.8071C15.551 25.996 15.6354 26.4067 15.8892 26.7067C16.0968 26.952 16.4137 27.1902 16.6257 27.2693C16.6257 27.2693 17.0643 27.1098 17.4177 26.8351C17.8919 26.4662 17.871 25.9951 17.6305 25.8289C17.3905 25.6627 16.8634 25.8662 16.7408 26.2218Z" fill="#CADDAC" stroke="#CADDAC" stroke-miterlimit="10"/>
<path opacity="0.5" d="M4.06443 33.3004C4.06443 33.3004 3.44976 32.848 3.20576 33.2267C3.04887 33.4702 3.27998 33.8524 3.68532 33.9582C4.09065 34.064 4.55732 34.084 4.55732 34.084C4.55732 34.084 4.86443 33.3707 4.81643 32.9755C4.76843 32.5804 4.44354 32.5724 4.23865 32.764C4.04843 32.9431 4.06443 33.3004 4.06443 33.3004Z" fill="white"/>
<path d="M9.86021 14.6227C9.86021 14.6227 9.27977 14.1271 9.0091 14.4871C8.83488 14.7187 9.03799 15.1165 9.43443 15.2516C9.83088 15.3867 10.2949 15.44 10.2949 15.44C10.2949 15.44 10.6527 14.7507 10.6335 14.3529C10.6144 13.9556 10.2904 13.924 10.0727 14.1005C9.86999 14.2649 9.86021 14.6227 9.86021 14.6227Z" fill="#CADDAC" stroke="#CADDAC" stroke-miterlimit="10"/>
<path d="M4.13164 31.1684C4.13164 31.1684 3.96719 30.9498 3.74719 30.9836C3.52719 31.0173 3.4863 31.192 3.66852 31.3773C3.83341 31.5449 4.31297 31.5884 4.31297 31.5884C4.31297 31.5884 4.58452 31.2698 4.58719 31.0342C4.58986 30.8053 4.41875 30.6564 4.25297 30.7853C4.06319 30.9333 4.13164 31.1684 4.13164 31.1684Z" fill="#C6CE8F"/>
<path d="M12.0194 15.2396C12.0194 15.2396 11.8937 14.9964 11.6714 14.9929C11.4492 14.9893 11.3617 15.2116 11.555 15.3858C11.7483 15.56 12.1017 15.6747 12.1017 15.6747C12.1017 15.6747 12.3919 15.3649 12.4639 15.224C12.5768 15.0031 12.3874 14.7262 12.2034 14.8818C12.0194 15.0378 12.0194 15.2396 12.0194 15.2396Z" fill="#A467A7"/>
<path d="M12.0194 15.2396C12.0194 15.2396 11.8937 14.9964 11.6714 14.9929C11.4492 14.9893 11.3617 15.2116 11.555 15.3858C11.7483 15.56 12.1017 15.6747 12.1017 15.6747C12.1017 15.6747 12.3919 15.3649 12.4639 15.224C12.5768 15.0031 12.3874 14.7262 12.2034 14.8818C12.0194 15.0378 12.0194 15.2396 12.0194 15.2396Z" fill="#C6CE8F"/>
<path d="M6.23652 31.5138C6.1783 31.188 5.64141 30.9387 5.48719 31.3365C5.32719 31.7493 5.96808 32.1476 6.2503 32.2853C6.2903 32.3049 6.33208 32.2622 6.28719 32.236C6.03564 32.0902 5.75475 31.9289 5.61386 31.6613C5.52675 31.4956 5.51697 31.2534 5.75563 31.2009C5.96363 31.1551 6.12586 31.356 6.20763 31.516C6.21519 31.5311 6.24097 31.5373 6.23652 31.5138Z" fill="#445962"/>
<path d="M6.23575 31.5444C6.27131 31.412 6.39487 31.2973 6.51398 31.2378C6.77042 31.1098 7.03087 31.3191 6.92509 31.5911C6.80553 31.8982 6.48064 32.0471 6.24198 32.2404C6.20287 32.272 6.27442 32.3098 6.30598 32.2876C6.56153 32.1089 7.25042 31.7027 6.98553 31.2884C6.87975 31.1231 6.68598 31.0902 6.51175 31.1618C6.37798 31.2169 6.18375 31.3689 6.2002 31.5302C6.20153 31.5453 6.22953 31.568 6.23575 31.5444Z" fill="#505832"/>
<path d="M8.94161 22.2782C8.75761 22.1547 8.53405 22.1693 8.35894 22.2853C8.26605 22.3471 8.19139 22.436 8.13716 22.5382C8.0945 22.6191 8.0785 22.7022 8.06916 22.7911C8.02339 22.7147 7.97405 22.6462 7.90161 22.5911C7.80961 22.5209 7.70383 22.4716 7.59361 22.4542C7.38605 22.4222 7.17672 22.5027 7.06205 22.6916C6.95272 22.8716 6.95316 23.0893 7.04205 23.2871C7.13761 23.5 7.31628 23.6498 7.50561 23.7569C7.76428 23.9031 8.04872 24.0111 8.3225 24.116C8.34339 24.124 8.36072 24.1227 8.37405 24.1151C8.3745 24.1151 8.37494 24.1147 8.37494 24.1147C8.37494 24.1147 8.37539 24.1147 8.37539 24.1142C8.38339 24.1107 8.39094 24.1053 8.39894 24.0973C8.60294 23.888 8.81583 23.6711 8.98872 23.4302C9.11539 23.2542 9.2145 23.0431 9.21139 22.8102C9.20783 22.5933 9.11672 22.3956 8.94161 22.2782ZM9.11494 22.7227C9.15405 22.9858 9.0265 23.2258 8.87805 23.4138C8.70872 23.628 8.5145 23.8169 8.34161 24.0267C8.09628 23.9089 7.84116 23.8187 7.59805 23.6956C7.38428 23.5871 7.16694 23.4227 7.09183 23.1676C7.02472 22.9405 7.11494 22.6871 7.31316 22.5898C7.57361 22.4618 7.88205 22.6636 8.06161 22.8778C8.07361 22.8925 8.08561 22.8929 8.09405 22.8862C8.10161 22.8849 8.10872 22.8787 8.11272 22.8649C8.18516 22.5951 8.38028 22.2836 8.6705 22.2907C8.89094 22.296 9.07983 22.4885 9.11494 22.7227Z" fill="#DADEA9"/>
<path d="M4.06443 33.3004C4.06443 33.3004 3.44976 32.848 3.20576 33.2267C3.04887 33.4702 3.27998 33.8524 3.68532 33.9582C4.09065 34.064 4.55732 34.084 4.55732 34.084C4.55732 34.084 4.86443 33.3707 4.81643 32.9755C4.76843 32.5804 4.44354 32.5724 4.23865 32.764C4.04843 32.9431 4.06443 33.3004 4.06443 33.3004Z" fill="#CADDAC" stroke="#CADDAC" stroke-miterlimit="10"/>
<path d="M24.7523 41.8511C24.8216 41.4804 24.4581 41.2609 24.283 41.0556C24.0119 40.7378 23.9208 40.2351 23.9083 39.8462C23.8928 39.3609 23.8225 39.0169 24.0976 38.5676C24.4234 38.0356 24.8812 37.4102 26.4354 35.8631L24.2999 34.8524C23.9105 35.5404 23.023 36.96 23.023 36.96L22.9412 37.0844C22.7536 37.3356 22.651 37.5298 22.3576 37.7498C22.3563 37.7507 22.251 37.8111 22.2496 37.812C22.0656 37.9524 21.5896 38.1116 21.6163 38.5764C21.643 39.0409 21.8234 39.1493 22.0416 39.5227C22.1808 39.7604 22.2808 39.88 22.3083 40.344C22.3305 40.7178 22.3128 40.8796 22.3225 41.2147C22.3305 41.4964 22.599 41.8964 23.1314 42.0604C23.9065 42.2996 24.6839 42.216 24.7523 41.8511Z" fill="#F8C8B4"/>
<path d="M21.3443 38.6C21.2185 38.7747 20.8923 39.3627 20.8105 39.6409L21.3683 40.3845L21.7808 39.5982C21.7808 39.5982 21.4412 39.1289 21.3443 38.6Z" fill="#4B4F3C"/>
<path d="M21.3682 40.384L22.0904 40.3062C22.0904 40.3062 22.1428 40.0498 22.0006 39.8476C21.8584 39.6449 21.7802 39.5982 21.7802 39.5982L21.3682 40.384Z" fill="#14150B"/>
<path d="M21.4827 38.4227C21.4827 38.4227 21.38 38.5067 21.3489 38.5836C21.3178 38.6609 21.376 39.1378 21.5355 39.364C21.6951 39.5902 21.9502 39.8271 22.024 40.1547C22.0978 40.4822 21.9818 40.9924 22.1271 41.4489C22.2729 41.9053 22.7244 42.4164 23.6689 42.5062C24.344 42.5702 24.592 42.4298 24.8111 42.2769C24.8804 41.9747 24.8693 41.8969 24.4924 41.6578C24.116 41.4182 21.4827 38.4227 21.4827 38.4227Z" fill="#4B4F3C"/>
<path d="M22.6853 37.1587C22.3987 37.5396 22.2964 37.6858 22.0258 37.8618C21.6982 38.0747 21.632 38.1582 21.4827 38.4222C21.4307 38.8245 21.5155 38.9867 21.8911 39.4845C22.1484 39.8253 22.2373 40.052 22.2493 40.5329C22.264 41.1147 22.0742 41.3965 22.784 41.9667C23.3369 42.4107 24.5075 42.3982 24.8124 42.0645C25.0524 41.2609 24.3587 41.3436 24.1618 40.5085C24.0524 40.0458 23.9524 39.5347 24.0755 39.064C24.1182 38.9013 24.1889 38.756 24.2755 38.6138C24.3538 38.4858 24.5911 38.1973 24.4484 38.0453L24.3515 38.1822C24.1831 38.2271 23.8067 38.1649 23.5267 37.9498C22.8507 37.4302 22.94 37.0845 22.94 37.0845L23.0218 36.96C22.9529 36.8805 22.8475 36.9427 22.6853 37.1587Z" fill="#CADDAC" stroke="#CADDAC" stroke-miterlimit="10"/>
<path d="M26.806 27.9929L28.3909 25.8302L31.8225 24.0053C31.8598 25.0573 32.0354 25.8649 31.5647 28.3142C31.074 30.8676 29.886 32.6765 29.2122 33.4667C28.538 34.2569 25.0434 37.364 25.0434 37.364C24.6931 37.3133 23.7154 36.5453 23.5918 36.04C23.5918 36.04 24.3567 34.6693 24.8091 33.9653C25.3998 33.0458 25.5731 32.6062 26.6811 31.8342C26.5922 30.8893 26.806 27.9929 26.806 27.9929Z" fill="#9DA673"/>
<path d="M24.0442 35.9502L23.9727 35.9044L24.0158 35.8369C25.0784 34.1747 26.0887 32.6302 28.4424 32.1253L28.4602 32.2084C26.1411 32.7058 25.1411 34.2338 24.0873 35.8827L24.0442 35.9502Z" fill="#4B4F3C"/>
<path d="M26.7037 34.452L25.9072 32.4551C25.9152 32.4476 25.9237 32.44 25.9317 32.432C25.9681 32.3973 26.0059 32.3627 26.0454 32.3276C26.061 32.3138 26.0774 32.2996 26.0939 32.2853C26.1317 32.2529 26.1712 32.2196 26.2121 32.1862C26.2317 32.1702 26.2508 32.1547 26.2708 32.1387C26.3134 32.1045 26.3592 32.0698 26.4059 32.0342C26.4259 32.0191 26.4454 32.004 26.4663 31.9885C26.4832 31.976 26.501 31.9631 26.5183 31.9502C26.5708 31.912 26.6246 31.8733 26.6819 31.8329C26.6797 31.8102 26.6779 31.7853 26.6761 31.7605C26.6748 31.7431 26.6739 31.7253 26.6726 31.7071C26.6717 31.6947 26.6712 31.6822 26.6703 31.6693C26.6681 31.6271 26.6663 31.5831 26.665 31.5365C26.665 31.5325 26.6646 31.5285 26.6646 31.5245C26.6632 31.4725 26.6619 31.4169 26.6614 31.36C26.6614 31.3542 26.6614 31.348 26.6614 31.3422C26.6614 31.3338 26.6614 31.3258 26.661 31.3173C26.6606 31.2667 26.6606 31.2151 26.6606 31.1613C26.6606 31.1565 26.6606 31.152 26.6606 31.1471C26.6606 31.1449 26.6606 31.1427 26.6606 31.1405C26.661 31.0773 26.6614 31.0125 26.6623 30.9462C26.6623 30.9333 26.6628 30.9205 26.6628 30.9071C26.6637 30.8449 26.665 30.7822 26.6663 30.7178C26.6663 30.716 26.6663 30.7147 26.6663 30.7133C26.6663 30.7102 26.6663 30.7071 26.6663 30.7036C26.6681 30.6302 26.6703 30.556 26.6726 30.4809C26.6726 30.48 26.6726 30.4791 26.6726 30.4782C26.6726 30.4747 26.673 30.4711 26.673 30.4676C26.6752 30.3942 26.6779 30.32 26.6806 30.2458V30.2453C26.6806 30.2445 26.6806 30.2436 26.6806 30.2427L29.7646 27.6649C29.7783 27.5973 31.2343 26.652 31.2343 26.652C31.1286 27.5773 30.1783 28.0036 30.1783 28.0036L30.4939 31.4773C30.045 32.3747 29.5686 33.0453 29.2232 33.452C29.2197 33.456 29.2161 33.4605 29.213 33.464C29.1908 33.4898 29.1654 33.5187 29.1374 33.5493C29.1299 33.5573 29.121 33.5667 29.1134 33.5756C29.0921 33.5987 29.0703 33.6222 29.0459 33.6476C29.0339 33.66 29.0206 33.6738 29.0081 33.6867C28.9859 33.7098 28.9632 33.7333 28.9392 33.7582C28.9241 33.7733 28.9081 33.7898 28.8926 33.8053C28.8681 33.8298 28.8441 33.8547 28.8179 33.8805C28.8006 33.8978 28.7828 33.9156 28.7646 33.9333C28.7383 33.9596 28.7117 33.9858 28.6841 34.0125C28.6646 34.0316 28.645 34.0511 28.625 34.0707C28.597 34.0982 28.5686 34.1258 28.5392 34.1542C28.5183 34.1747 28.4966 34.1956 28.4748 34.2165C28.445 34.2453 28.4143 34.2747 28.3832 34.3045C28.361 34.3258 28.3388 34.3467 28.3166 34.3685C28.2841 34.3996 28.2512 34.4311 28.2174 34.4627C28.1952 34.484 28.1726 34.5053 28.1499 34.5267C28.1143 34.5605 28.0783 34.5942 28.0419 34.6285C28.0206 34.6485 27.9992 34.6689 27.9774 34.6889C27.937 34.7267 27.8966 34.7649 27.8552 34.8036C27.8366 34.8209 27.8179 34.8382 27.7992 34.856C27.7508 34.9009 27.7019 34.9467 27.653 34.9925C27.641 35.0036 27.6294 35.0142 27.6179 35.0253C27.3006 35.32 26.9699 35.6231 26.6557 35.9093C26.6339 35.4636 26.6597 34.9813 26.7037 34.452Z" fill="#4B4F3C"/>
<path d="M23.3119 36.4955C23.3119 36.4955 23.279 36.9342 23.8563 37.384C24.3128 37.7395 24.7723 37.6951 24.7723 37.6951L25.4545 37.0271C25.4545 37.0271 25.091 37.1253 24.5203 36.6329C23.9216 36.1164 23.895 35.4733 23.895 35.4733L23.3119 36.4955Z" fill="#4B4F3C"/>
<path d="M29.5964 44.028C29.7795 44.5645 30.4115 44.6831 30.9071 44.5191C31.1866 44.4267 31.3213 44.1093 31.4982 43.8991C31.7595 43.588 32.1457 43.4129 32.5248 43.2676C32.9044 43.1222 33.2991 42.992 33.6182 42.7405C33.8884 42.5276 34.0924 42.2325 34.1964 41.9049C34.2297 41.8005 34.2528 41.6893 34.2333 41.5818C34.1866 41.3213 33.9 41.1618 33.6355 41.1618C33.3711 41.1613 33.1226 41.2787 32.88 41.384C32.5524 41.5258 32.2168 41.6502 31.876 41.7556C31.7688 41.7889 31.6591 41.8205 31.5471 41.8205C31.3706 41.8205 31.1013 41.6822 31.0337 41.5311C30.9262 41.2898 30.8035 38.612 30.8053 38.488L28.252 39.1347C28.252 39.1347 29.2093 42.028 29.3617 42.516C29.3764 42.5636 29.3857 42.6125 29.3942 42.6613C29.472 43.1142 29.4457 43.5867 29.5964 44.028Z" fill="#F8C8B4"/>
<path d="M25.4899 24.0053C24.9694 25.9444 24.8161 26.5289 25.1783 28.3542C25.425 29.5973 26.2156 31.6649 27.1659 34.452C27.0992 36.0507 27.3392 36.5338 27.6779 37.6458C28.1957 39.3467 28.8223 40.8631 28.8223 40.8631C28.8223 40.8631 29.2708 40.152 30.9205 40.248C30.8188 38.64 30.7245 35.4853 30.5899 34.32C30.3903 32.5898 29.8259 27.6498 29.8259 27.6498C29.8259 27.6498 31.989 27.596 31.5481 24.0049H25.4899V24.0053Z" fill="#9DA673"/>
<path d="M29.3857 40.4533C29.0137 39.4791 28.6155 38.3525 28.3929 37.4929C28.1297 36.476 28.0471 35.7711 28.0204 35.348C27.9933 34.9182 27.9875 34.3893 27.9777 34.2022C27.9457 33.5853 27.6791 32.2782 27.1982 30.8462C26.7733 29.5809 26.5302 28.2885 26.4035 27.5236C26.4177 27.5245 26.4324 27.5262 26.4466 27.5262C26.6169 27.5262 26.7755 27.4693 26.9186 27.3569C27.3449 27.0222 27.6351 26.2058 27.7822 24.9307L27.6977 24.9209C27.556 26.1551 27.2684 26.9742 26.8666 27.2902C26.7231 27.4031 26.5631 27.4525 26.3906 27.4382C26.2137 26.2213 26.5266 25.3489 26.804 24.5787C26.8751 24.3813 26.9417 24.1938 26.9995 24.0053H26.9102C26.8542 24.1836 26.7915 24.3618 26.724 24.5498C26.4409 25.3365 26.1195 26.2285 26.3106 27.4845C26.4266 28.2485 26.6822 29.5765 27.1177 30.8738C27.576 32.2373 27.8617 33.6013 27.8933 34.2067C27.9026 34.388 27.9089 34.9182 27.936 35.3418C27.9631 35.7693 28.0315 36.4187 28.3155 37.4929C28.5293 38.3013 28.9444 39.556 29.3093 40.4907C29.3329 40.4778 29.3595 40.4658 29.3857 40.4533Z" fill="#4B4F3C"/>
<path d="M34.0448 41.0529C33.8182 40.8151 33.3608 40.9715 33.0666 41.0911C32.4448 41.3435 32.2568 41.5155 31.7964 41.6035C31.1284 41.7315 31.1493 41.3484 31.1493 41.3484C31.1493 41.3484 30.6631 40.9951 29.7999 41.4662C29.1871 41.8009 29.1924 42.236 29.1924 42.236C29.1924 42.236 29.3724 42.6306 29.3964 43.256C29.4204 43.8809 29.4759 44.0795 29.5555 44.256L32.3395 42.4351L32.5382 42.3884C33.1399 42.0613 34.0448 41.0529 34.0448 41.0529Z" fill="#CADDAC" stroke="#CADDAC" stroke-miterlimit="10"/>
<path d="M34.3866 41.5075C34.3568 41.3297 34.2955 41.2182 34.2115 41.1577C34.1795 41.1346 34.067 41.0684 34.0453 41.0529C33.7595 40.8466 33.2093 41.2333 32.743 41.6164C32.1999 42.0626 31.2586 42.128 30.8066 42.7489C30.3546 43.3697 29.8199 43.5906 29.6337 43.8649C29.5017 44.0595 29.5235 44.2817 29.6555 44.4413C29.6808 44.472 29.7755 44.5689 29.7941 44.5889C29.9257 44.728 30.1675 44.7937 30.4595 44.752C31.0479 44.6684 31.4759 44.5035 31.9919 43.8404C32.5075 43.1773 33.1026 43.5209 33.687 43.1075C34.271 42.6937 34.4799 42.0662 34.3866 41.5075Z" fill="#4B4F3C"/>
<path d="M34.3863 41.5075C34.2556 40.7244 33.5121 41.2266 32.9089 41.7222C32.3658 42.1684 31.4245 42.2338 30.9725 42.8546C30.5205 43.4755 29.9738 43.6884 29.7996 43.9706C29.4836 44.484 29.8703 44.8355 30.4592 44.752C31.0476 44.6684 31.4756 44.5035 31.9916 43.8404C32.5072 43.1773 33.1023 43.5209 33.6867 43.1075C34.2707 42.6938 34.4796 42.0662 34.3863 41.5075Z" fill="#14150B"/>
<path d="M32.284 43.4675L30.972 42.8546C30.52 43.4755 29.9734 43.6884 29.7992 43.9706C29.6396 44.2298 29.6045 44.3684 29.6045 44.3684L29.808 44.812C29.8116 44.8155 29.8734 44.8826 29.8769 44.8862L29.8787 44.8884H29.8792C30.0116 45.0249 30.2512 45.0893 30.54 45.048C31.1285 44.9644 31.5565 44.7995 32.0725 44.1364C32.1792 43.9995 32.2747 43.8764 32.3658 43.7635L32.284 43.4675Z" fill="#4B4F3C"/>
<path d="M29.8816 44.2662C29.5656 44.7795 29.9523 45.1311 30.5412 45.0475C31.1296 44.964 31.5576 44.7991 32.0736 44.136C32.1803 43.9991 32.2759 43.876 32.367 43.7631L31.055 43.1502C30.6021 43.7711 30.0554 43.984 29.8816 44.2662Z" fill="#14150B"/>
<path d="M28.4707 39.9627L28.9005 41.1004C28.9005 41.1004 29.4423 40.4347 30.9347 40.536L30.8645 39.2871C30.8645 39.2871 29.3916 38.9818 28.4707 39.9627Z" fill="#4B4F3C"/>
<path d="M26.4802 12.32C26.4028 11.4231 28.089 10.3298 29.7993 11.3195C30.2957 11.6067 30.8002 12.0098 30.9753 12.5795C31.1588 13.176 30.9175 13.8973 30.4842 14.3227C30.2953 14.5075 30.0753 14.6573 29.8566 14.8062C29.5522 15.0133 29.2477 15.22 28.9433 15.4271C28.761 15.5507 28.5788 15.6751 28.4135 15.8204C28.2153 15.9951 28.0433 16.2004 27.9059 16.4262C27.877 16.4733 27.841 16.5275 27.7859 16.5315C27.7539 16.5338 27.7233 16.5178 27.6953 16.5022C27.2055 16.2298 26.7455 15.8938 26.3815 15.4675C26.0486 15.0778 25.7975 14.608 25.7033 14.1013C25.581 13.4444 25.6215 12.3938 26.4802 12.32Z" fill="#412C28"/>
<path d="M27.0528 12.592C27.1239 12.4871 27.1683 12.3631 27.1754 12.2369C27.1781 12.1911 27.1101 11.8027 27.1105 11.8027C27.3003 11.7 27.4456 11.5191 27.5048 11.3116C27.5665 11.0938 27.5021 10.856 27.3385 10.6969C27.3314 10.8071 27.2696 10.9125 27.1768 10.972C27.1741 10.7702 27.0336 10.5831 26.8496 10.5005C26.6652 10.4178 26.4461 10.432 26.2612 10.5133C26.0763 10.5947 25.9239 10.7382 25.8065 10.9031C25.3625 10.7756 24.8292 10.9164 24.6536 11.3938C24.5728 11.6133 24.6172 11.8805 24.7834 12.0445C24.5288 12.1018 24.3421 12.3733 24.3799 12.6316C24.4176 12.8898 24.6736 13.0969 24.9341 13.0791C24.8905 13.2822 24.5839 13.3258 24.5163 13.3405C24.647 13.4689 24.9354 13.4702 25.171 13.3467C25.1159 13.3756 25.2523 13.5742 25.2759 13.5965C25.3514 13.6693 25.4172 13.6827 25.515 13.6885C25.7723 13.7036 26.0012 13.6996 26.2208 13.5418C26.435 13.388 26.5723 13.1325 26.583 12.8693C26.5825 12.8809 26.7923 12.8138 26.8101 12.8049C26.8794 12.7702 26.9461 12.7222 26.9972 12.6636C27.0176 12.6413 27.0359 12.6173 27.0528 12.592Z" fill="#412C28"/>
<path d="M31.6123 17.6951C32.0096 17.9631 32.4723 18.4116 32.9745 18.8525C33.403 19.2285 33.8239 19.6316 33.8239 19.6316C33.9812 19.0578 34.3145 17.8378 34.3723 17.5951C34.4732 17.2414 34.6154 16.6214 34.6434 16.5405C34.8359 15.9845 35.2599 15.5569 35.6928 15.1774C35.767 15.1125 35.8421 15.0485 35.9172 14.9845C35.9536 14.9534 35.9914 14.9236 36.0234 14.8885C36.0536 14.8551 36.0808 14.828 36.1319 14.8525C36.1683 14.8698 36.1919 14.9067 36.2065 14.944C36.2559 15.0685 36.227 15.212 36.1665 15.3311C36.1061 15.4502 36.0168 15.552 35.9368 15.6591C35.8754 15.7413 35.9923 15.7414 36.0474 15.7334C36.3181 15.6938 36.6514 15.4151 36.8594 15.2445C36.9959 15.1325 37.111 14.9956 37.2639 14.904C37.3581 14.8476 37.4665 14.8107 37.5759 14.8187C37.6501 14.824 37.7163 14.8547 37.7003 14.9458C37.6905 15.0027 37.6505 15.0489 37.6159 15.0956C37.5448 15.1911 37.4825 15.2778 37.5008 15.4031C37.5123 15.4818 37.5394 15.56 37.5301 15.6391C37.5185 15.7396 37.4501 15.8254 37.4274 15.924C37.4074 16.012 37.4385 16.0974 37.4283 16.1822C37.4172 16.2734 37.3292 16.38 37.2781 16.4538C37.1568 16.6294 37.0079 16.7854 36.8452 16.9231C36.5976 17.1325 36.5292 17.1827 36.2439 17.336C36.0879 17.42 35.8265 17.4316 35.7305 17.712C35.635 17.992 35.635 18.2814 35.5896 19.3414C35.5559 20.1294 35.6932 20.8156 34.9163 21.9876C34.779 22.1947 34.4963 22.3698 33.9812 22.0245C33.5861 21.7596 33.4212 21.6671 33.2168 21.5285C32.9359 21.3382 31.1532 20.0565 31.1532 20.0565C30.2621 19.0894 30.175 18.2142 30.1074 17.2787C30.1079 17.2791 31.0954 17.3467 31.6123 17.6951Z" fill="#F8C8B4"/>
<path d="M33.8238 19.6316C33.6553 20.1738 33.6673 20.7618 33.7562 21.0365C33.4162 20.5467 33.5513 19.928 33.6469 19.4649L33.8238 19.6316Z" fill="#EAB8A5"/>
<path d="M35.8496 16.1133C35.7963 16.4413 35.5545 16.8476 35.3945 16.9827C35.3945 16.9827 35.6821 16.8965 35.7968 16.6693C35.923 16.42 35.8892 16.2338 35.8496 16.1133Z" fill="#EAB8A5"/>
<path d="M24.0576 26.2649C24.0576 26.2649 24.4634 23.9684 25.5007 21.148C26.5381 18.3276 29.2336 17.1151 29.2336 17.1151L29.8763 17.2404C29.8763 17.2404 27.1514 18.7956 26.1167 21.2751C25.0821 23.7547 24.6923 25.8396 24.6923 25.8396L24.0576 26.2649Z" fill="#A467A7"/>
<path d="M24.0576 26.2649C24.0576 26.2649 24.4634 23.9684 25.5007 21.148C26.5381 18.3276 29.2336 17.1151 29.2336 17.1151L29.8763 17.2404C29.8763 17.2404 27.1514 18.7956 26.1167 21.2751C25.0821 23.7547 24.6923 25.8396 24.6923 25.8396L24.0576 26.2649Z" fill="#98A16D"/>
<path d="M25.1212 25.3413C25.3261 24.268 25.5101 23.4449 25.5012 23.2093C25.4625 22.1867 25.1572 20.8493 25.0523 20.2578C24.8239 18.9693 25.4621 17.7991 25.7563 17.5364C25.7563 17.5364 26.0683 17.4542 26.4403 17.3551C26.6639 17.2956 27.0261 17.2387 27.3674 17.1809C28.1256 17.0529 28.4425 17.0524 28.7279 17.0738C28.8688 17.084 29.5363 17.1809 29.5363 17.1809C29.7385 17.2222 30.1083 17.2791 30.1088 17.2796C30.1088 17.2796 30.5785 17.6422 31.0292 18.3991C31.3732 18.9764 31.5732 19.4622 31.6652 20.7164C31.7825 22.3133 31.871 24.1324 31.9012 25.2484C30.5985 26.0978 26.8581 26.2916 25.1212 25.3413Z" fill="#CADDAC" stroke="#CADDAC" stroke-miterlimit="10"/>
<path d="M27.0322 16.7756C27.0344 16.5174 27.0433 15.556 27.0433 15.556C27.0406 15.6356 26.6126 15.9391 26.2371 15.5574C25.8518 15.1654 25.8042 14.7427 25.9895 14.4498C26.194 14.1262 26.7024 14.104 26.9433 14.588C27.0989 14.7569 27.3486 14.528 27.1931 14.0494C27.1975 13.7058 27.6606 13.2969 27.3526 12.7391C28.2758 12.0187 29.3891 11.9774 30.0215 12.4418C30.1478 12.7338 30.3673 13.456 30.4024 14.2951C30.4495 15.424 30.19 15.9902 29.8446 16.2076C29.6131 16.3534 29.3962 16.4 28.9722 16.3978C28.9722 16.3978 28.97 16.6809 28.9664 16.8502C28.9633 17.0196 29.0353 17.0587 29.2118 17.1031C29.3304 17.1329 29.6291 17.1982 29.6291 17.1982C29.6291 17.1982 30.0633 17.8236 28.9642 17.9734C27.2122 18.2116 26.4398 17.3547 26.4398 17.3547C26.4398 17.3547 26.5131 17.3285 26.7873 17.2516C27.0353 17.1822 27.03 17.0338 27.0322 16.7756Z" fill="#F8C8B4"/>
<path d="M28.9718 16.3978C28.2096 16.3796 27.467 16.188 27.2705 15.856C27.2705 15.856 27.2967 16.2325 27.6176 16.3894C28.067 16.6089 28.9692 16.6649 28.9692 16.6649L28.9718 16.3978Z" fill="#EAB8A5"/>
<path d="M28.5186 15.0925L29.2008 15.2534C29.1604 15.448 28.9746 15.5698 28.7862 15.5254C28.5977 15.4814 28.4782 15.2871 28.5186 15.0925Z" fill="#AB6365"/>
<path d="M28.5731 15.2431C28.7594 15.224 28.9278 15.3409 28.9807 15.5129C28.9207 15.5351 28.854 15.5414 28.7869 15.5254C28.6518 15.4934 28.5531 15.384 28.5225 15.2534C28.5389 15.2494 28.5554 15.2449 28.5731 15.2431Z" fill="#E88B8A"/>
<path d="M28.1104 14.0085C28.1104 14.1174 28.1992 13.9938 28.3099 13.9969C28.4201 14 28.5104 14.128 28.5104 14.0192C28.5104 13.9103 28.421 13.8196 28.3104 13.8165C28.1997 13.8134 28.1099 13.8992 28.1104 14.0085Z" fill="#412C28"/>
<path d="M29.5645 14.0191C29.5907 14.1249 29.6472 13.9836 29.7552 13.96C29.8632 13.9365 29.9809 14.0391 29.9547 13.9334C29.9285 13.8276 29.8196 13.7609 29.7121 13.7849C29.6041 13.8085 29.5378 13.9134 29.5645 14.0191Z" fill="#412C28"/>
<path d="M23.9525 26.4542C23.5182 27.5667 22.9289 29.56 23.208 29.8636C23.5774 30.2653 26.236 31.3529 26.5742 31.3676C26.9125 31.3822 27.6782 30.788 27.76 30.2791C27.8418 29.7702 27.4996 26.8329 27.4996 26.8329L24.6925 25.8391C24.4605 25.9213 24.0929 26.0947 23.9525 26.4542Z" fill="#9DA673"/>
<path d="M27.7605 30.2791C27.6916 30.7084 27.136 31.1973 26.7609 31.3311C26.0143 31.4142 26.4249 29.0916 26.6267 27.3578L27.4996 26.8329C27.5 26.8329 27.8423 29.7702 27.7605 30.2791Z" fill="#979B68"/>
<path opacity="0.2" d="M24.8442 27.936C23.8705 27.6364 23.8705 26.8396 23.9216 26.5356C23.9331 26.5053 23.9447 26.4764 23.9558 26.4471C24.0985 26.0924 24.4625 25.9204 24.6927 25.8391L27.4998 26.8329L26.6269 27.3578C26.3598 27.7689 25.8185 28.2356 24.8442 27.936Z" fill="white"/>
<path d="M24.7452 27.5524C24.7483 27.6671 24.8439 27.7578 24.959 27.7547C25.0736 27.7516 25.1643 27.656 25.1612 27.5409C25.1581 27.4262 25.0625 27.3356 24.9474 27.3387C24.8327 27.3418 24.7421 27.4373 24.7452 27.5524Z" fill="white"/>
<path d="M28.9394 21.512C29.4821 18.9329 29.2354 17.0995 29.2354 17.0995L29.8754 17.2067C29.8754 17.2067 30.1732 19.4649 29.6163 21.5449C28.8656 24.3507 27.4998 26.8324 27.4998 26.8324L26.627 27.3573C26.6261 27.3578 28.4958 23.6195 28.9394 21.512Z" fill="#A467A7"/>
<path d="M28.9394 21.512C29.4821 18.9329 29.2354 17.0995 29.2354 17.0995L29.8754 17.2067C29.8754 17.2067 30.1732 19.4649 29.6163 21.5449C28.8656 24.3507 27.4998 26.8324 27.4998 26.8324L26.627 27.3573C26.6261 27.3578 28.4958 23.6195 28.9394 21.512Z" fill="#98A16D"/>
<path d="M25.4287 27.5604C25.2034 27.3164 25.0398 27.1387 25.0127 27.0364C24.9807 26.8693 25.3745 27.1773 25.5149 27.216C25.6554 27.2547 25.7247 27.2555 25.8638 27.204C25.9358 27.1773 26.0247 27.0609 25.9892 26.9915C25.9816 26.9769 25.9665 26.9724 25.9527 26.9644C25.7363 26.8378 25.5616 26.672 25.3656 26.5071C25.1545 26.3293 25.0647 26.268 24.8474 26.1542C24.6789 26.0658 24.4118 25.8635 24.2905 25.5751C23.8878 24.6164 23.7216 23.8182 23.4549 22.8569C24.0065 22.2222 25.1354 21.1298 25.4647 20.7475C25.8296 20.3244 26.2758 19.7458 26.3163 19.2582C26.3589 18.744 26.1483 17.692 25.7558 17.5364C24.8652 17.776 24.7105 18.0524 24.1456 18.6884C23.7909 19.0871 22.1429 20.9813 21.6558 21.6484C21.3029 22.1315 21.1145 22.3529 21.3701 23.0067C21.6301 23.672 21.786 23.8564 22.0736 24.4302C22.2749 24.832 22.3896 25 22.7269 25.6515C22.7918 25.7764 22.8905 25.9755 23.0047 26.2102C23.1189 26.4449 23.2456 26.7831 23.3376 27.028C23.4301 27.2733 23.5541 27.556 23.6785 27.7591C23.8029 27.9627 24.1789 28.4227 24.3869 28.5195C24.4598 28.5538 24.5309 28.5435 24.6003 28.5787C24.6696 28.6138 24.7185 28.6733 24.7914 28.7035C24.9025 28.7489 24.9678 28.7022 25.0927 28.6458C25.1416 28.6235 25.1954 28.6084 25.2492 28.6191C25.3029 28.6298 25.3425 28.6631 25.394 28.6835C25.5376 28.7413 25.7203 28.7253 25.8754 28.5893C26.0332 28.6427 26.1114 28.6702 26.2665 28.7244C26.2923 28.7333 26.3234 28.7364 26.3425 28.7258C26.3621 28.7151 26.3652 28.7004 26.3692 28.6862C26.3914 28.6058 26.3856 28.5355 26.3483 28.4595C26.2758 28.312 26.2021 28.2489 26.0621 28.1413C25.9221 28.0338 25.5434 27.6853 25.4287 27.5604Z" fill="#F8C8B4"/>
<path d="M28.9773 14.8595C28.9764 14.8515 29.0621 14.8324 29.2017 14.8075C29.2373 14.8022 29.2706 14.7933 29.2755 14.7689C29.2826 14.7427 29.2657 14.7049 29.2466 14.664C29.2088 14.5791 29.1693 14.4898 29.1279 14.3964C28.9626 14.0155 28.8413 13.7013 28.8568 13.6947C28.8724 13.688 29.0186 13.9915 29.1835 14.3729C29.2235 14.4671 29.2613 14.5564 29.2977 14.6422C29.3133 14.6822 29.3386 14.7271 29.323 14.7818C29.3146 14.8089 29.2897 14.8298 29.267 14.8369C29.2444 14.8449 29.2244 14.8462 29.207 14.848C29.0657 14.8627 28.9781 14.8675 28.9773 14.8595Z" fill="#412C28"/>
<path d="M28.6035 13.4125C28.5915 13.4511 28.4515 13.4396 28.2888 13.4671C28.1257 13.4916 27.996 13.5458 27.9724 13.5125C27.9617 13.4965 27.9831 13.4596 28.0346 13.42C28.0857 13.3805 28.1684 13.3418 28.2662 13.3258C28.364 13.3103 28.4546 13.3218 28.5155 13.3431C28.5768 13.3654 28.6084 13.3938 28.6035 13.4125Z" fill="#412C28"/>
<path d="M29.8797 13.3907C29.8566 13.4236 29.7588 13.3951 29.6432 13.3991C29.5272 13.3991 29.4308 13.4307 29.4068 13.3982C29.3961 13.3827 29.4099 13.3498 29.4512 13.3178C29.4921 13.2858 29.561 13.2578 29.641 13.2565C29.7206 13.2551 29.7908 13.2809 29.8326 13.3116C29.8748 13.3427 29.8899 13.3747 29.8797 13.3907Z" fill="#412C28"/>
<path d="M26.7962 15.2258C26.7917 15.2244 26.786 15.24 26.7664 15.2587C26.7473 15.2769 26.7109 15.2978 26.6646 15.2964C26.5709 15.2947 26.4549 15.1871 26.4015 15.0467C26.3744 14.9755 26.366 14.9022 26.3717 14.8369C26.3757 14.7711 26.3989 14.7178 26.4384 14.6955C26.4766 14.6715 26.5153 14.6862 26.5326 14.7049C26.5509 14.7231 26.5513 14.7409 26.5562 14.7404C26.5589 14.7418 26.5686 14.7213 26.5509 14.6911C26.542 14.6764 26.5264 14.6613 26.5029 14.6524C26.4784 14.6435 26.4482 14.6453 26.4202 14.6587C26.3611 14.684 26.3255 14.7587 26.3193 14.8307C26.3095 14.904 26.318 14.9871 26.3482 15.0667C26.4086 15.2235 26.5411 15.3435 26.6669 15.3369C26.7273 15.332 26.7677 15.2991 26.7851 15.2724C26.8015 15.2453 26.7993 15.2262 26.7962 15.2258Z" fill="#EAB8A5"/>
</g>
<defs>
<clipPath id="clip0_1141_49254">
<rect width="48" height="48" rx="24" fill="white"/>
</clipPath>
</defs>
</svg>
