<svg width="48" height="48" viewBox="0 0 48 48" fill="none" xmlns="http://www.w3.org/2000/svg">
<g clip-path="url(#clip0_1141_49258)">
<rect width="48" height="48" rx="24" fill="white"/>
<path d="M28.3175 15.9476C28.6449 15.9476 28.9104 15.6821 28.9104 15.3547C28.9104 15.0272 28.6449 14.7618 28.3175 14.7618C27.9901 14.7618 27.7246 15.0272 27.7246 15.3547C27.7246 15.6821 27.9901 15.9476 28.3175 15.9476Z" fill="white"/>
<path d="M28.9104 15.3547C28.9051 15.3551 28.9069 15.3018 28.8824 15.2124C28.8584 15.1244 28.798 14.996 28.6655 14.8973C28.5375 14.7987 28.3269 14.7431 28.1233 14.8191C28.0229 14.8556 27.9273 14.924 27.8598 15.0182C27.79 15.1116 27.7509 15.2311 27.7495 15.3542C27.7509 15.4773 27.79 15.5969 27.8598 15.6902C27.9278 15.7849 28.0233 15.8533 28.1233 15.8898C28.3269 15.9658 28.5375 15.9107 28.6655 15.8116C28.798 15.7129 28.858 15.5844 28.8824 15.4964C28.9073 15.4076 28.9055 15.3542 28.9104 15.3547C28.9122 15.3547 28.9131 15.3676 28.9135 15.3929C28.9144 15.4178 28.9113 15.4551 28.9011 15.5018C28.882 15.5938 28.8246 15.7316 28.6869 15.84C28.554 15.9484 28.3286 16.0129 28.1078 15.9333C27.9989 15.8951 27.8949 15.8218 27.8206 15.72C27.7442 15.6191 27.7011 15.4889 27.7002 15.3551C27.7015 15.2213 27.7446 15.0911 27.8206 14.9902C27.8949 14.888 27.9989 14.8147 28.1078 14.7769C28.3286 14.6973 28.554 14.7613 28.6869 14.8698C28.8246 14.9782 28.882 15.1156 28.9011 15.208C28.9113 15.2547 28.914 15.292 28.9135 15.3169C28.9135 15.3418 28.9122 15.3547 28.9104 15.3547Z" fill="#CADDAC"/>
<path d="M19.2159 16.1436C19.5434 16.1436 19.8088 15.8781 19.8088 15.5507C19.8088 15.2232 19.5434 14.9578 19.2159 14.9578C18.8885 14.9578 18.623 15.2232 18.623 15.5507C18.623 15.8781 18.8885 16.1436 19.2159 16.1436Z" fill="white"/>
<path d="M19.8089 15.5507C19.8035 15.5511 19.8053 15.4978 19.7809 15.4085C19.7569 15.3205 19.6964 15.192 19.564 15.0933C19.436 14.9947 19.2253 14.9391 19.0217 15.0151C18.9213 15.0516 18.8257 15.12 18.7582 15.2142C18.6884 15.3076 18.6493 15.4271 18.648 15.5502C18.6493 15.6733 18.6884 15.7929 18.7582 15.8862C18.8262 15.9809 18.9217 16.0493 19.0217 16.0858C19.2253 16.1618 19.436 16.1067 19.564 16.0076C19.6964 15.9089 19.7564 15.7805 19.7809 15.6925C19.8053 15.6036 19.8035 15.5502 19.8089 15.5507C19.8106 15.5507 19.8115 15.5636 19.812 15.5889C19.8129 15.6138 19.8097 15.6511 19.7995 15.6978C19.7804 15.7898 19.7231 15.9276 19.5853 16.036C19.4524 16.1445 19.2271 16.2089 19.0062 16.1293C18.8973 16.0911 18.7933 16.0178 18.7191 15.916C18.6426 15.8151 18.5995 15.6849 18.5986 15.5511C18.6 15.4173 18.6431 15.2871 18.7191 15.1862C18.7933 15.084 18.8973 15.0107 19.0062 14.9729C19.2271 14.8933 19.4524 14.9573 19.5853 15.0658C19.7231 15.1742 19.7804 15.3116 19.7995 15.404C19.8097 15.4507 19.8124 15.488 19.812 15.5129C19.8115 15.5378 19.8106 15.5507 19.8089 15.5507Z" fill="#CADDAC"/>
<path d="M23.5015 8.82935C23.0104 8.36357 22.0299 8.32979 21.4819 8.81779C21.1313 9.13024 21.0642 9.71735 21.1406 10.168C20.477 10.3231 19.9082 10.6005 19.7539 11.4711C19.6273 12.188 20.2086 12.9245 20.7117 13.3636C20.3784 14.1569 20.561 15.2036 21.4139 15.6987C22.2664 16.1938 23.2379 15.9431 24.0113 15.3427C24.705 15.8431 25.9908 15.9542 26.6139 15.376C27.237 14.7982 27.3282 13.7778 26.8157 13.1089C27.5953 13.1214 28.3086 12.436 28.2855 11.6969C28.2619 10.9578 27.5064 10.3142 26.729 10.3711C27.0708 9.59513 26.7362 8.87691 25.969 8.45468C25.2019 8.03246 24.0424 8.16268 23.5015 8.82935Z" fill="white"/>
<path d="M23.5011 8.82934C23.5011 8.82934 23.5197 8.80622 23.5584 8.76222C23.5953 8.71645 23.6593 8.65734 23.7482 8.58578C23.9277 8.44756 24.234 8.28134 24.6646 8.22178C24.8788 8.19245 25.1224 8.19023 25.3811 8.23778C25.6384 8.28578 25.9157 8.38267 26.1664 8.56045C26.4197 8.73023 26.6602 8.97689 26.79 9.30311C26.854 9.46578 26.8855 9.64667 26.8771 9.83111C26.8691 10.0156 26.822 10.2018 26.7451 10.3787L26.7264 10.3524C27.0553 10.3302 27.4046 10.4302 27.6957 10.6382C27.9851 10.8444 28.2255 11.1644 28.2904 11.548C28.3588 11.9324 28.2037 12.3436 27.9264 12.6382C27.6508 12.9351 27.2455 13.1378 26.814 13.1333L26.8331 13.0956C27.0495 13.3818 27.1695 13.7462 27.17 14.1196C27.1686 14.492 27.0517 14.8733 26.8188 15.1831C26.7033 15.3369 26.5588 15.4769 26.3846 15.5698C26.2122 15.6649 26.0211 15.7244 25.826 15.7582C25.6304 15.7929 25.4295 15.7978 25.2304 15.7818C25.0313 15.7653 24.8313 15.732 24.638 15.6716C24.4091 15.6013 24.1891 15.5018 23.9957 15.364L24.0255 15.3636C23.638 15.664 23.1891 15.8876 22.7144 15.9609C22.478 15.9978 22.2366 15.9951 22.0055 15.9489C21.7744 15.9031 21.5548 15.8142 21.3584 15.6933C21.1615 15.5724 20.9913 15.4124 20.8611 15.2271C20.7304 15.0422 20.6397 14.8333 20.5877 14.6191C20.4837 14.1898 20.5291 13.7413 20.69 13.3564L20.6957 13.3818C20.3891 13.1107 20.1251 12.8049 19.9397 12.4653C19.8477 12.2956 19.7771 12.1169 19.7415 11.9324C19.7046 11.7489 19.71 11.5596 19.7513 11.3849C19.7895 11.2098 19.8495 11.0413 19.9384 10.8924C20.0264 10.7431 20.1428 10.6156 20.2748 10.5156C20.5411 10.3151 20.8491 10.2218 21.1357 10.1533L21.1233 10.1724C21.078 9.88889 21.0891 9.61156 21.1544 9.36222C21.2188 9.11422 21.3495 8.89111 21.5362 8.75911C21.7153 8.62 21.9148 8.54 22.1024 8.49911C22.2904 8.45734 22.4673 8.45067 22.6237 8.46489C22.9375 8.49289 23.1673 8.59111 23.3051 8.67778C23.3388 8.70089 23.3686 8.72089 23.3944 8.73867C23.4197 8.75645 23.438 8.77556 23.454 8.78845C23.486 8.81423 23.5011 8.82934 23.5011 8.82934C23.5011 8.82934 23.4837 8.81689 23.4513 8.79067C23.4348 8.77822 23.4162 8.76 23.3904 8.74267C23.3642 8.72578 23.3344 8.70623 23.3006 8.684C23.1624 8.60045 22.9335 8.50578 22.6228 8.48089C22.4682 8.46845 22.2931 8.47645 22.1077 8.51911C21.9233 8.56089 21.7273 8.64089 21.5526 8.77822C21.3713 8.908 21.246 9.12445 21.1833 9.36845C21.1202 9.61334 21.1104 9.88756 21.1562 10.1658L21.1588 10.1809L21.1437 10.1844C20.8593 10.2533 20.5557 10.3471 20.2975 10.5436C20.1695 10.6413 20.0566 10.7653 19.9717 10.9107C19.886 11.056 19.8277 11.2204 19.7908 11.3924C19.7508 11.564 19.7464 11.7449 19.7824 11.924C19.8175 12.1031 19.8868 12.2778 19.9775 12.4444C20.1602 12.7773 20.422 13.08 20.7255 13.3476L20.7375 13.3582L20.7313 13.3729C20.5744 13.7493 20.5308 14.1884 20.6331 14.6076C20.7317 15.0258 20.9966 15.4182 21.3837 15.6516C21.5753 15.7698 21.7895 15.856 22.0148 15.9004C22.2402 15.9453 22.4753 15.9476 22.7068 15.912C23.1713 15.84 23.6131 15.6204 23.9953 15.324L24.01 15.3129L24.0251 15.3236C24.2131 15.4573 24.4282 15.5551 24.6531 15.624C24.8428 15.6836 25.0393 15.7164 25.2348 15.7324C25.4304 15.748 25.6277 15.7431 25.8184 15.7093C26.0091 15.6764 26.1948 15.6187 26.3615 15.5267C26.5295 15.4373 26.6677 15.3031 26.7811 15.1533C27.0073 14.8529 27.1215 14.4818 27.1233 14.1191C27.1228 13.7556 27.0064 13.4013 26.7971 13.124L26.7682 13.0858L26.8162 13.0862C27.2322 13.0916 27.6264 12.8956 27.8948 12.6076C28.1651 12.3213 28.3144 11.9249 28.2495 11.5551C28.1882 11.1858 27.9553 10.8729 27.6735 10.6716C27.39 10.4684 27.05 10.3702 26.7304 10.3907L26.6993 10.3924L26.7117 10.364C26.7877 10.1907 26.834 10.0093 26.8424 9.82978C26.8513 9.65067 26.8211 9.47467 26.7593 9.316C26.634 8.99734 26.3997 8.75422 26.1504 8.58578C25.9033 8.40889 25.6317 8.31245 25.3771 8.26356C25.1215 8.21511 24.8802 8.21556 24.6677 8.24311C24.2406 8.29911 23.9353 8.46045 23.7548 8.59511C23.666 8.66489 23.6006 8.72267 23.5628 8.76667C23.5228 8.80845 23.5011 8.82934 23.5011 8.82934Z" fill="#CADDAC"/>
<path d="M25.6841 11.86C25.6645 11.6444 25.565 11.4404 25.4245 11.2756C25.2867 11.1142 25.1054 10.9849 24.8992 10.9351C24.6801 10.8822 24.4396 10.9236 24.2512 11.0467C24.1387 11.12 24.0458 11.2218 23.9805 11.3387C23.9214 11.232 23.8396 11.1382 23.741 11.0671C23.5583 10.9351 23.3201 10.8827 23.0987 10.9253C22.8903 10.9658 22.7032 11.0862 22.5578 11.2409C22.4098 11.3991 22.301 11.5982 22.2712 11.8124C22.2343 12.0813 22.2792 12.3773 22.4138 12.6129C22.5556 12.8618 22.7894 13.0658 23.0316 13.2191C23.4383 13.4773 23.9743 13.8009 23.9743 13.8009C23.9743 13.8009 24.4414 13.4684 24.8596 13.2293C25.1085 13.0871 25.3516 12.8947 25.505 12.6524C25.6494 12.424 25.7085 12.1302 25.6841 11.86Z" fill="#CADDAC" stroke="#CADDAC" stroke-width="0.0444444" stroke-miterlimit="10"/>
<path d="M14.9163 15.1841C15.7781 15.7947 16.3061 16.8498 16.2776 17.9058C16.2639 18.4187 16.1528 19.0089 16.5048 19.3823C16.8532 19.7516 17.499 19.7076 17.8345 20.0889C18.2296 20.5378 17.9541 21.2498 18.1163 21.8254C18.2688 22.3658 18.8656 22.7392 19.4181 22.6401C18.7932 23.2054 18.0096 23.5938 17.1812 23.7485C16.9541 23.4854 16.7265 23.2223 16.4994 22.9592C16.7568 23.2347 16.7154 23.6965 16.4954 24.0023C16.2754 24.3081 15.9208 24.4867 15.5679 24.6187C13.8821 25.2494 11.9016 25.0298 10.3945 24.0454" fill="#412C28"/>
<path d="M5.54138 20.1863C5.64938 19.788 5.84582 19.4143 5.9116 19.0067C6.05249 18.1312 5.58138 17.1778 5.96182 16.3765C6.23249 15.8063 6.85604 15.5023 7.44938 15.2863C8.04227 15.0703 8.68093 14.88 9.10804 14.4152C9.42093 14.0743 9.58582 13.6178 9.89782 13.2756C10.3423 12.788 11.0254 12.596 11.6809 12.5223C12.3543 12.4467 13.0556 12.476 13.6783 12.7432C14.3009 13.0103 14.8338 13.5445 14.9756 14.2067C15.0449 14.5298 15.0223 14.8729 15.1409 15.1814C15.2712 15.5205 15.5556 15.7747 15.7392 16.0885C16.1263 16.7512 15.9818 17.6774 15.4107 18.1903L11.0783 24.4147C10.1232 24.832 7.74049 24.5067 6.95116 23.8258C6.16138 23.1449 5.26849 21.1925 5.54138 20.1863Z" fill="#412C28"/>
<path d="M15.249 17.4356C14.989 16.0858 13.873 14.5311 12.5357 14.8485L8.43836 16.4614C8.03213 16.5578 7.7668 16.9489 7.82813 17.3622L9.58947 27.5151C9.57969 27.5187 9.5708 27.5218 9.56102 27.5254C9.56102 27.5254 11.7535 31.3294 14.4419 30.0969C14.9752 29.8525 14.2868 28.1685 14.3184 27.5302L14.1637 25.9116C14.0677 25.0858 14.0241 24.748 14.0259 24.7556C14.0259 24.7556 15.7277 24.244 15.797 21.9294C15.8317 20.7782 15.5379 18.9356 15.249 17.4356Z" fill="#F8C8B4"/>
<path d="M12.0937 19.781C12.119 19.9339 12.0101 20.0814 11.8506 20.1103C11.6914 20.1392 11.5421 20.0397 11.5172 19.8863C11.4923 19.7334 11.6008 19.5859 11.7599 19.5566C11.919 19.5277 12.0683 19.6281 12.0937 19.781Z" fill="#412C28"/>
<path d="M15.038 19.4991C15.0633 19.652 14.9545 19.7996 14.7949 19.8284C14.6358 19.8573 14.4865 19.7578 14.4616 19.6044C14.4367 19.4516 14.5451 19.304 14.7042 19.2747C14.8633 19.2458 15.0127 19.3462 15.038 19.4991Z" fill="#412C28"/>
<path d="M15.0996 18.473C15.0707 18.5281 14.7903 18.3699 14.4525 18.437C14.1143 18.4979 13.9085 18.7481 13.8618 18.7072C13.8392 18.6894 13.861 18.5961 13.9498 18.4836C14.037 18.3721 14.2001 18.2485 14.4107 18.2085C14.6214 18.169 14.8174 18.2245 14.9383 18.2965C15.061 18.369 15.1143 18.4481 15.0996 18.473Z" fill="#412C28"/>
<path d="M11.9556 18.9978C11.9178 19.0489 11.6405 18.8685 11.2756 18.9027C10.9103 18.9311 10.6614 19.1569 10.6174 19.1125C10.5961 19.0929 10.6298 19.0036 10.7383 18.9018C10.8445 18.8005 11.0316 18.6947 11.2596 18.6751C11.4872 18.656 11.6876 18.728 11.8063 18.8102C11.9272 18.892 11.9738 18.9747 11.9556 18.9978Z" fill="#412C28"/>
<path d="M13.3269 21.0783C13.3233 21.0605 13.5135 21.0023 13.8238 20.9214C13.9029 20.9028 13.9762 20.8774 13.9829 20.821C13.9944 20.761 13.95 20.6788 13.8993 20.5908C13.7993 20.4068 13.6949 20.2143 13.5851 20.0121C13.1455 19.1876 12.8166 18.505 12.85 18.4876C12.8833 18.4703 13.2664 19.1245 13.706 19.949C13.8122 20.1525 13.914 20.3468 14.0109 20.5325C14.0526 20.6196 14.118 20.7161 14.0926 20.841C14.0789 20.9036 14.0255 20.9543 13.9762 20.9748C13.9269 20.997 13.882 21.0036 13.8429 21.0112C13.5273 21.0694 13.3304 21.0961 13.3269 21.0783Z" fill="#412C28"/>
<path d="M14.0289 24.7555C14.0289 24.7555 12.5152 25.0492 10.8867 24.3341C10.8867 24.3341 11.8543 25.8284 14.0978 25.3252L14.0289 24.7555Z" fill="#DBA898"/>
<path d="M12.4408 21.4129C12.4915 21.4036 12.5355 21.7431 12.8572 21.9471C13.1786 22.152 13.5359 22.0671 13.5448 22.1147C13.5523 22.1356 13.4728 22.1911 13.3203 22.2147C13.171 22.2391 12.9457 22.2187 12.7488 22.0942C12.5523 21.9689 12.4506 21.7814 12.4212 21.6436C12.3901 21.5031 12.4172 21.4142 12.4408 21.4129Z" fill="#412C28"/>
<path d="M11.8926 18.1485C11.8726 18.2374 11.5549 18.2374 11.1935 18.3285C10.83 18.4125 10.5477 18.5578 10.4891 18.488C10.4629 18.4542 10.5042 18.3676 10.6131 18.2698C10.7211 18.1725 10.9006 18.0698 11.118 18.0169C11.3353 17.9645 11.5415 17.9738 11.6824 18.0111C11.8242 18.0485 11.9006 18.1067 11.8926 18.1485Z" fill="#412C28"/>
<path d="M14.7085 17.2242C14.6547 17.3034 14.3987 17.2611 14.1018 17.2958C13.804 17.3211 13.5605 17.4136 13.4933 17.3469C13.4636 17.314 13.4938 17.2376 13.5947 17.1562C13.6942 17.0754 13.868 16.9971 14.0725 16.9767C14.2769 16.9562 14.4613 16.998 14.5738 17.0576C14.688 17.1171 14.7316 17.1856 14.7085 17.2242Z" fill="#412C28"/>
<path d="M7.52978 16.8361C7.72356 16.5019 8.09334 16.3161 8.44622 16.1587C9.96889 15.4801 11.5724 14.9841 13.212 14.6841C13.4347 15.0125 13.268 15.4832 12.9702 15.7459C12.6724 16.0081 12.2791 16.1259 11.9147 16.2836C11.5507 16.4414 11.1809 16.6747 11.0467 17.0481C10.904 17.4454 11.0644 17.8987 10.9418 18.3023C10.7307 18.997 9.78978 19.2654 9.58222 19.9614C9.42578 20.4876 9.75289 21.0227 9.85556 21.5623C9.97156 22.1739 9.77689 22.8361 9.348 23.2872C9.00978 23.6427 8.53289 23.857 8.04445 23.8912C7.832 21.9392 7.61956 19.9872 7.40711 18.0352C7.36267 17.6281 7.32489 17.1899 7.52978 16.8361Z" fill="#412C28"/>
<path d="M3.83805 21.9818C4.13316 21.6889 4.50872 21.4298 4.61183 21.0272C4.76205 20.4405 4.26383 19.7854 4.53583 19.2445C4.78383 18.7512 5.58783 18.7347 5.81583 18.2316C5.99405 17.8387 5.75005 17.5116 5.80783 17.1721C5.86561 16.8325 6.32783 16.5134 6.67183 16.5361L9.54205 20.2752C9.85627 21.5623 10.1412 22.2414 9.90072 23.0161C9.76872 23.4409 9.59005 23.8574 9.55227 24.3009C9.5145 24.7441 9.65227 25.2374 10.0256 25.4796C8.43361 25.6858 6.89316 24.9254 5.46738 24.1867C4.96472 23.9263 4.46161 23.6654 3.95894 23.4049C3.80205 23.3236 3.63849 23.2365 3.53938 23.0898C3.30694 22.7449 3.54294 22.2743 3.83805 21.9818Z" fill="#412C28"/>
<path d="M5.40919 23.7965C5.40919 23.7965 5.46697 23.8147 5.58163 23.8205C5.69541 23.8262 5.86786 23.8227 6.07763 23.76C6.28563 23.6982 6.53586 23.5774 6.75319 23.3507C6.97097 23.1276 7.13808 22.788 7.16297 22.3929C7.17497 22.196 7.15097 21.9867 7.07941 21.7827C7.00741 21.5774 6.88163 21.3898 6.7523 21.2036C6.62474 21.0169 6.48563 20.8258 6.41452 20.6027C6.3443 20.3836 6.33052 20.1191 6.46563 19.9205C6.60119 19.7182 6.86875 19.6569 7.11408 19.5431C7.23763 19.4862 7.36386 19.4014 7.44208 19.2734C7.5203 19.1458 7.54074 18.992 7.53052 18.8485C7.5123 18.556 7.37408 18.2947 7.30652 18.0249C7.2723 17.8898 7.25541 17.7494 7.28341 17.6169C7.31052 17.4845 7.38741 17.3658 7.49763 17.2809C7.71986 17.1045 8.01319 17.0631 8.29541 17.0236C8.57941 16.9885 8.87408 16.9094 9.10697 16.7391C9.34297 16.5765 9.52697 16.3511 9.63986 16.0991C9.75141 15.8449 9.78252 15.576 9.80919 15.3222C9.83497 15.068 9.85719 14.8209 9.92919 14.5956C10.0016 14.3711 10.1265 14.1734 10.2763 14.0098C10.583 13.6867 10.9821 13.5027 11.3567 13.4529C11.7341 13.4018 12.083 13.4845 12.3572 13.6089C12.6341 13.7334 12.8447 13.8969 12.9967 14.0467C13.3012 14.3516 13.3936 14.5809 13.4052 14.5729C13.4065 14.572 13.4007 14.5582 13.3879 14.532C13.3741 14.5062 13.3567 14.4658 13.3265 14.4174C13.2696 14.3187 13.1732 14.1782 13.0225 14.0209C12.8719 13.8649 12.6607 13.6934 12.379 13.5614C12.0999 13.4294 11.7412 13.3387 11.3483 13.3876C10.9585 13.4351 10.5434 13.6214 10.2199 13.9569C10.0621 14.1267 9.92874 14.3338 9.85097 14.5707C9.77363 14.8071 9.75052 15.0605 9.72341 15.3134C9.6963 15.5658 9.66341 15.8254 9.55852 16.0627C9.45186 16.2987 9.27763 16.5111 9.05497 16.6636C8.83363 16.8231 8.56563 16.8956 8.28208 16.9311C8.00297 16.9707 7.68919 17.0102 7.43986 17.2071C7.31586 17.3014 7.22341 17.4431 7.1923 17.5969C7.1603 17.7507 7.18075 17.9049 7.21675 18.0467C7.29008 18.332 7.42341 18.5849 7.43986 18.8538C7.44919 18.9858 7.43008 19.1182 7.36519 19.2254C7.29986 19.3325 7.19319 19.4071 7.07586 19.4618C6.95897 19.5182 6.8323 19.5591 6.71141 19.6182C6.59097 19.6751 6.47141 19.7556 6.39497 19.8711C6.23897 20.1058 6.26163 20.3942 6.33674 20.6267C6.41541 20.8667 6.5603 21.0609 6.68874 21.2467C6.81941 21.4316 6.94163 21.612 7.01141 21.8058C7.08119 21.9996 7.10608 22.1991 7.09674 22.388C7.07719 22.7671 6.92074 23.0956 6.71497 23.3138C6.50874 23.5356 6.2683 23.6582 6.06652 23.724C5.65452 23.8525 5.40741 23.7796 5.40919 23.7965Z" fill="#33211F"/>
<path d="M3.13566 21.1497C3.13566 21.1497 3.10544 21.1906 3.08944 21.2831C3.07299 21.3742 3.08321 21.5222 3.17833 21.676C3.22721 21.7506 3.29655 21.8275 3.39388 21.8804C3.49077 21.9333 3.61166 21.9626 3.7401 21.9542C3.99477 21.944 4.28677 21.7755 4.41788 21.4742C4.48455 21.3271 4.5161 21.1564 4.50721 20.9813C4.49788 20.8048 4.44366 20.628 4.3681 20.4586C4.22366 20.1191 3.97655 19.7937 3.95077 19.3897C3.93655 19.1942 3.97166 18.9791 4.10855 18.8306C4.24366 18.6791 4.46188 18.6328 4.68055 18.6195C4.89921 18.6008 5.13921 18.6168 5.36899 18.5128C5.48144 18.4604 5.58099 18.3702 5.64144 18.2586C5.70321 18.148 5.73166 18.0235 5.74055 17.9C5.75744 17.6493 5.68721 17.4164 5.64677 17.192C5.6001 16.968 5.60277 16.7453 5.65033 16.5315C5.74633 16.1048 6.01033 15.7377 6.34455 15.5173C6.68055 15.2906 7.0801 15.248 7.4401 15.208C7.80277 15.1702 8.15299 15.1297 8.44366 14.9968C8.73521 14.8706 8.96499 14.6915 9.13699 14.5097C9.31121 14.3288 9.42588 14.1431 9.50366 13.9862C9.65744 13.668 9.6681 13.4693 9.6681 13.4693C9.65655 13.4657 9.6321 13.6622 9.47121 13.9697C9.38944 14.1217 9.27299 14.3004 9.09921 14.4737C8.92766 14.6475 8.70099 14.8182 8.41744 14.9364C8.13521 15.0604 7.79566 15.0968 7.43121 15.1311C7.07121 15.1684 6.6561 15.2071 6.29655 15.4453C5.94188 15.6764 5.66321 16.0608 5.5601 16.5111C5.50899 16.7351 5.50633 16.9782 5.55433 17.2084C5.5961 17.4382 5.66233 17.6653 5.64633 17.8928C5.63477 18.1191 5.52944 18.34 5.3281 18.4284C5.13033 18.5204 4.89699 18.5097 4.67299 18.528C4.45121 18.5417 4.20144 18.5906 4.04188 18.7702C3.88233 18.9462 3.84855 19.1866 3.86455 19.3955C3.87966 19.6084 3.95299 19.8084 4.04099 19.9835C4.12766 20.1608 4.22277 20.3244 4.29699 20.4893C4.3721 20.6533 4.42455 20.8204 4.43521 20.9844C4.44544 21.1488 4.41788 21.3084 4.35744 21.4462C4.23966 21.7275 3.97388 21.8862 3.73655 21.9013C3.61788 21.9115 3.50499 21.8871 3.41477 21.8404C3.3241 21.7937 3.25699 21.724 3.20855 21.6551C3.11433 21.5128 3.09788 21.3724 3.1081 21.2844C3.11744 21.1955 3.14055 21.1515 3.13566 21.1497Z" fill="#33211F"/>
<path d="M20.0324 21.2493C20.0173 21.2489 20.1266 21.3982 20.0484 21.6676C20.0084 21.7942 19.9124 21.9516 19.7333 22.0214C19.5595 22.0907 19.3102 22.0565 19.1386 21.8907C19.0528 21.8094 18.9991 21.6925 18.984 21.5627C18.9688 21.4329 18.9875 21.2942 19.0244 21.1551C19.0955 20.88 19.2537 20.5769 19.2093 20.2254C19.1724 19.884 18.9813 19.5427 18.676 19.3262C18.5248 19.2174 18.3502 19.1365 18.1644 19.0894C17.9777 19.0396 17.7817 19.0365 17.5911 19.0365C17.4 19.0365 17.212 19.0409 17.0355 19.0067C16.8604 18.9738 16.6982 18.8934 16.592 18.7614C16.4848 18.6298 16.4324 18.4618 16.4124 18.2965C16.392 18.1294 16.404 17.9636 16.4288 17.8014C16.4782 17.4787 16.5582 17.1631 16.5248 16.8587C16.4933 16.556 16.3644 16.292 16.2 16.0965C16.0346 15.8969 15.8284 15.78 15.6568 15.6827C15.4826 15.5858 15.3346 15.5018 15.2257 15.416C15.0031 15.2467 14.9577 15.0849 14.9466 15.0929C14.9453 15.0934 14.948 15.1027 14.9551 15.1205C14.9631 15.1378 14.9711 15.1658 14.9911 15.1974C15.0257 15.2631 15.0933 15.3538 15.2031 15.4445C15.3111 15.5369 15.46 15.6271 15.6311 15.728C15.8008 15.8298 15.9964 15.9467 16.1497 16.1387C16.3035 16.3276 16.4222 16.5805 16.4484 16.8662C16.4773 17.1533 16.3977 17.4591 16.3444 17.7885C16.3177 17.9533 16.3035 18.1294 16.3244 18.3071C16.3448 18.4836 16.4 18.6685 16.5217 18.8196C16.6426 18.9711 16.8293 19.0636 17.0186 19.0982C17.2088 19.1351 17.4017 19.1298 17.592 19.1302C17.7826 19.1302 17.968 19.1333 18.1426 19.18C18.3173 19.2245 18.4817 19.2996 18.6235 19.4014C18.9093 19.6027 19.088 19.9191 19.1248 20.236C19.1693 20.5574 19.0235 20.848 18.9506 21.1365C18.9137 21.2818 18.8946 21.4302 18.9133 21.5725C18.9311 21.7142 18.9946 21.8489 19.0933 21.9387C19.2893 22.1205 19.5613 22.1511 19.7533 22.0698C19.9502 21.9862 20.0471 21.8134 20.084 21.6778C20.1222 21.5378 20.104 21.4227 20.0826 21.3516C20.0582 21.2805 20.0324 21.2493 20.0324 21.2493Z" fill="#33211F"/>
<path d="M14.3838 26.7138C14.3838 26.7138 17.4856 28.3676 17.9149 29.5947C18.3442 30.8218 18.1589 38.984 18.1589 38.984L19.2651 45.4933H17.8318L14.3838 26.7138Z" fill="#797E66"/>
<path d="M6.46079 26.5022C5.59234 26.7525 5.08657 27.7285 4.77234 28.5791C4.56434 29.1422 4.49279 30.4405 4.66079 31.4573C5.06345 33.8929 7.12212 41.3089 7.12212 41.3089L5.62434 45.4938H18.2719C18.2719 45.4938 18.1159 35.2511 18.0119 33.2129C17.9079 31.1747 14.2092 26.3902 14.2092 26.3902L14.4843 29.2276L9.29323 25.8098C9.29279 25.8093 7.86212 26.0982 6.46079 26.5022Z" fill="#797E66"/>
<path d="M18.192 36.3307C18.1929 36.3307 18.1933 36.3387 18.1929 36.3547C18.1924 36.3734 18.1915 36.396 18.1911 36.424C18.188 36.4889 18.184 36.5782 18.1791 36.6911C18.1684 36.9271 18.1533 37.2614 18.1347 37.6729C18.1009 38.5018 18.0724 39.6476 18.0844 40.9134C18.0969 42.1796 18.1467 43.3249 18.1942 44.1529C18.2191 44.564 18.2395 44.8978 18.2542 45.1338C18.2609 45.2462 18.2662 45.3356 18.2702 45.4005C18.2715 45.4285 18.2724 45.4516 18.2733 45.4698C18.2738 45.4854 18.2733 45.4934 18.2724 45.4938C18.2715 45.4938 18.2702 45.4858 18.268 45.4702C18.2658 45.4516 18.2635 45.4289 18.26 45.4014C18.2538 45.3365 18.2453 45.2476 18.2347 45.1351C18.2133 44.904 18.1871 44.5694 18.1591 44.1551C18.1027 43.3271 18.0475 42.1809 18.0347 40.9138C18.0227 39.6471 18.0569 38.5 18.0995 37.6711C18.1209 37.2565 18.1418 36.9214 18.1595 36.6898C18.1684 36.5774 18.1755 36.4885 18.1809 36.4236C18.1835 36.3956 18.1858 36.3729 18.1875 36.3542C18.1898 36.3382 18.1911 36.3307 18.192 36.3307Z" fill="#555B43"/>
<path opacity="0.3" d="M6.10059 34.0036C6.10059 34.0036 9.81436 41.4187 12.665 41.5049C15.5157 41.5911 16.1455 40.1227 16.8237 39.0862C17.5024 38.0498 17.8681 36.7893 17.8681 36.7893L13.8681 39.2805L6.10059 34.0036Z" fill="#040000"/>
<path d="M4.89258 31.8542C6.45658 35.4284 11.2384 40.1933 12.6624 40.6676C14.3966 41.2449 15.1699 40.4209 15.7312 39.7387C16.2921 39.056 18.9512 35.2511 18.9512 35.2511L15.6059 32.2249L13.713 34.7147C13.713 34.7147 9.57436 28.2969 9.3108 28.0276" fill="#797E66"/>
<path d="M9.3108 28.0276C9.3108 28.0276 9.34236 28.0649 9.40236 28.14C9.45791 28.2178 9.54236 28.3324 9.6468 28.4858C9.85836 28.7911 10.1615 29.2449 10.5472 29.8258C11.3175 30.9889 12.4117 32.6649 13.7304 34.7036L13.697 34.7022C14.277 33.9382 14.9152 33.0973 15.5881 32.2107L15.6032 32.1907L15.6219 32.2076C16.6575 33.144 17.7881 34.1658 18.9681 35.2324L18.9841 35.2471L18.9717 35.2649C18.4868 35.9533 17.9775 36.676 17.4597 37.4111C17.0944 37.9253 16.7321 38.4329 16.3704 38.9293C16.1895 39.1778 16.009 39.4236 15.8224 39.6627C15.6344 39.9 15.4379 40.1302 15.2104 40.3267C14.9841 40.5227 14.7268 40.6844 14.445 40.7756C14.1641 40.8676 13.8677 40.9004 13.5801 40.8787C13.5081 40.8773 13.437 40.8631 13.3659 40.856C13.3304 40.8516 13.2948 40.848 13.2592 40.8422L13.1544 40.82C13.085 40.8044 13.0148 40.7924 12.9464 40.7742C12.8784 40.7542 12.8108 40.7342 12.7432 40.7147C12.4695 40.6373 12.2286 40.4876 12.001 40.3369C11.5472 40.0284 11.1357 39.6871 10.7477 39.3436C10.3601 38.9996 9.99613 38.6516 9.65213 38.3076C8.96591 37.6182 8.35791 36.9453 7.82724 36.3111C6.76191 35.0453 6.00991 33.9316 5.54458 33.1329C5.30902 32.7347 5.15124 32.4116 5.04369 32.1933C4.99391 32.0831 4.95613 31.9987 4.92991 31.9409C4.90458 31.884 4.89258 31.8542 4.89258 31.8542C4.89258 31.8542 4.90769 31.8827 4.93436 31.9387C4.96147 31.996 5.00102 32.0796 5.05213 32.1889C5.16236 32.4058 5.3228 32.7267 5.56058 33.1231C6.03036 33.9182 6.78591 35.0271 7.85347 36.2889C8.38547 36.9209 8.99436 37.5916 9.68058 38.2791C10.0246 38.6218 10.3881 38.9689 10.7757 39.3116C11.1632 39.6538 11.5744 39.9938 12.0255 40.2996C12.2521 40.4493 12.4886 40.5964 12.7561 40.6711C12.8228 40.6907 12.8899 40.7102 12.957 40.7302C13.0246 40.7484 13.0939 40.76 13.1624 40.7756L13.2655 40.7973C13.3001 40.8027 13.3352 40.8062 13.3704 40.8107C13.4406 40.8178 13.5104 40.8316 13.5815 40.8329C13.8641 40.8542 14.1539 40.8213 14.4281 40.7316C14.7032 40.6422 14.9548 40.484 15.177 40.2911C15.4006 40.0982 15.5952 39.8698 15.7824 39.6333C15.9677 39.3956 16.1481 39.1493 16.329 38.9013C16.6904 38.4049 17.0526 37.8973 17.4179 37.3831C17.9357 36.648 18.445 35.9253 18.9299 35.2373L18.9335 35.2693C17.7544 34.2018 16.6246 33.1787 15.5895 32.2418L15.6228 32.2387C14.9486 33.124 14.309 33.964 13.7281 34.7271L13.7104 34.7502L13.6944 34.7258C12.3792 32.6849 11.2899 31.0058 10.5259 29.8391C10.1432 29.256 9.84324 28.8004 9.63524 28.4929C9.53213 28.3382 9.44991 28.2227 9.39613 28.144C9.33924 28.068 9.3108 28.0276 9.3108 28.0276Z" fill="#555B43"/>
<path d="M6.46095 26.5022C6.46006 26.4991 6.50051 26.4871 6.57473 26.4693C6.61162 26.4596 6.6574 26.4493 6.71162 26.4422C6.7654 26.4347 6.82629 26.4227 6.89517 26.42C7.03162 26.4071 7.19562 26.408 7.37606 26.4253C7.55606 26.4458 7.75295 26.4845 7.95206 26.5493C8.15073 26.6165 8.33162 26.7031 8.48851 26.7942C8.64362 26.8885 8.77562 26.9853 8.8774 27.0773C8.93073 27.1205 8.97251 27.1667 9.01117 27.2049C9.05029 27.2427 9.08095 27.2782 9.10451 27.308C9.1534 27.3671 9.17873 27.4005 9.17606 27.4027C9.16806 27.4093 9.06229 27.2773 8.85429 27.104C8.75117 27.0165 8.61873 26.924 8.46495 26.8338C8.3094 26.7462 8.13117 26.6627 7.93606 26.5965C7.74006 26.5329 7.54717 26.4938 7.37029 26.4707C7.19295 26.4516 7.03162 26.4467 6.89651 26.4551C6.62717 26.4693 6.46317 26.512 6.46095 26.5022Z" fill="#555B43"/>
<path d="M13.6985 37.5987C13.6847 37.5987 13.6767 36.9529 13.6807 36.1565C13.6847 35.36 13.6989 34.7142 13.7127 34.7142C13.7265 34.7142 13.7345 35.36 13.7305 36.1565C13.7265 36.9533 13.7123 37.5987 13.6985 37.5987Z" fill="#555B43"/>
<path d="M18.4039 25.6498C18.2866 25.6124 17.6688 26.3298 17.503 26.5689C17.3875 26.736 17.1728 27.5058 17.0542 27.9533C16.9986 28.1631 17.0084 28.3849 17.0813 28.5893L17.687 30.2818L20.1319 31.1089C20.1319 31.1089 20.8119 30.576 20.959 29.9324C21.1062 29.2889 21.6026 27.3222 21.6026 27.3222L20.9777 27.1751L20.6102 27.5796L20.4079 26.8809C20.4079 26.8809 20.1506 26.6787 19.9484 26.8991C19.9484 26.8991 19.8013 26.4764 19.2866 26.7338C19.2866 26.7338 19.2497 26.2742 19.011 26.2009C18.7719 26.1276 18.5697 26.256 18.5697 26.256C18.5697 26.256 18.8079 25.7787 18.4039 25.6498Z" fill="#F8C8B4"/>
<path d="M21.8141 26.8964C21.8141 26.8964 22.135 26.628 22.4994 26.9729C22.4994 26.9729 22.7359 26.7591 22.9723 26.7969C23.2088 26.8351 23.3763 27.0418 23.3763 27.0418C23.3763 27.0418 23.6816 26.7498 23.859 26.7924C24.0363 26.8351 24.2234 27.1009 24.2234 27.1009C24.2234 27.1009 24.5879 27.16 24.7061 27.2191C24.8243 27.2782 24.9621 27.7511 24.9621 27.7902C24.9621 27.8298 25.179 28.7849 24.9621 29.0707C24.7452 29.3564 23.9061 30.9515 23.9061 30.9515L21.091 30.7155L20.959 29.9324L21.475 27.14L21.8141 26.8964Z" fill="#ECB89F"/>
<path d="M22.5149 27.04C22.518 27.0391 22.5371 27.0956 22.5687 27.1987C22.6002 27.3018 22.6442 27.4516 22.6944 27.6378C22.7442 27.824 22.8007 28.0471 22.8495 28.2982C22.8731 28.4245 22.898 28.5551 22.9127 28.6956C22.9189 28.7658 22.9198 28.8391 22.9064 28.9129C22.8927 28.9862 22.8607 29.0618 22.8024 29.1174C22.6824 29.2298 22.5011 29.2302 22.3731 29.1627C22.2415 29.0956 22.1535 28.9787 22.0958 28.8631C22.0375 28.7462 22.0038 28.6285 21.9704 28.52C21.9375 28.4111 21.9091 28.3094 21.8847 28.216C21.8353 28.0294 21.7998 27.8774 21.7762 27.772C21.7527 27.6667 21.7415 27.608 21.7447 27.6071C21.7478 27.6062 21.7655 27.6636 21.7949 27.7671C21.8264 27.8787 21.8678 28.0271 21.9184 28.2067C21.9451 28.2991 21.9753 28.4 22.0095 28.508C22.0447 28.6156 22.0798 28.7316 22.1362 28.8427C22.1922 28.9525 22.2758 29.06 22.3944 29.1191C22.5087 29.1791 22.6687 29.1756 22.7678 29.0814C22.8673 28.9849 22.8753 28.832 22.8642 28.6996C22.8504 28.564 22.8264 28.4311 22.8047 28.3067C22.7584 28.0569 22.706 27.8334 22.6602 27.6462C22.6149 27.4654 22.578 27.316 22.5495 27.2036C22.5247 27.0996 22.5118 27.0409 22.5149 27.04Z" fill="#8F443C"/>
<path d="M22.7824 29.1031C22.786 29.1009 22.8082 29.136 22.8513 29.1947C22.8931 29.2511 22.9758 29.3298 23.102 29.3449C23.1633 29.3515 23.2362 29.3395 23.2878 29.2915C23.3375 29.244 23.3602 29.1609 23.3762 29.0787C23.3935 28.9951 23.3931 28.9053 23.3949 28.8098C23.3958 28.7147 23.3966 28.6169 23.3975 28.5164C23.3975 28.1142 23.3864 27.7493 23.3851 27.4853C23.3838 27.3533 23.3846 27.2462 23.3864 27.1724C23.3882 27.0987 23.3909 27.0578 23.3944 27.0578C23.398 27.0578 23.4015 27.0987 23.4055 27.1724C23.4095 27.2564 23.4144 27.3609 23.4202 27.4849C23.4304 27.7484 23.4473 28.1133 23.4473 28.5169C23.4473 28.6178 23.446 28.7164 23.4438 28.8115C23.4411 28.9058 23.4406 29.0004 23.4211 29.088C23.402 29.1738 23.3802 29.2613 23.3153 29.3227C23.25 29.3804 23.1651 29.3902 23.0975 29.3804C22.9575 29.3587 22.874 29.268 22.8353 29.2062C22.7966 29.1418 22.7802 29.1044 22.7824 29.1031Z" fill="#8F443C"/>
<path d="M24.1086 27.9591C24.1148 27.9596 24.1197 28.076 24.1255 28.2662C24.1273 28.3613 24.1273 28.4751 24.1126 28.6018C24.0948 28.7267 24.0739 28.8689 23.993 28.9996C23.9517 29.064 23.8926 29.1164 23.8246 29.1449C23.757 29.1742 23.6779 29.1751 23.6148 29.1471C23.4877 29.0893 23.4299 28.9693 23.4108 28.8751C23.3913 28.7787 23.3979 28.7004 23.4015 28.6476C23.4064 28.5942 23.4117 28.5653 23.4148 28.5658C23.4184 28.5658 23.4197 28.5956 23.4206 28.6484C23.4224 28.7009 23.4219 28.7782 23.4446 28.8676C23.4659 28.9542 23.5242 29.0596 23.6317 29.1053C23.7388 29.1529 23.8797 29.0884 23.9508 28.9729C24.0237 28.8564 24.0477 28.7169 24.0668 28.596C24.0837 28.4733 24.0873 28.3609 24.0899 28.2662C24.0935 28.0769 24.101 27.9587 24.1086 27.9591Z" fill="#8F443C"/>
<path d="M24.526 27.9169C24.5269 27.9191 24.5029 27.9347 24.454 27.952C24.4056 27.9689 24.3314 27.9871 24.238 27.9884C24.1451 27.9898 24.0323 27.9742 23.9185 27.9231C23.8047 27.8729 23.6936 27.7849 23.6118 27.6671C23.4443 27.4302 23.4411 27.1347 23.538 26.9702C23.5847 26.8871 23.6469 26.8378 23.6927 26.8129C23.7394 26.788 23.7683 26.7849 23.7691 26.7876C23.7705 26.7916 23.7438 26.8013 23.7029 26.8293C23.6625 26.8578 23.6083 26.9076 23.5691 26.9867C23.4878 27.1413 23.4958 27.4169 23.6527 27.6387C23.7296 27.7493 23.8327 27.832 23.938 27.8813C24.0438 27.9316 24.15 27.9498 24.2389 27.9529C24.4176 27.9587 24.5234 27.9071 24.526 27.9169Z" fill="#8F443C"/>
<path d="M18.6345 26.2244C18.6394 26.2311 18.5376 26.2991 18.3972 26.4347C18.2572 26.5698 18.0803 26.7769 17.9403 27.0391C17.8088 27.3058 17.6928 27.5533 17.6199 27.7342C17.5465 27.916 17.503 28.0298 17.4959 28.0275C17.4928 28.0267 17.4994 27.9964 17.5145 27.9435C17.5301 27.8907 17.5536 27.8147 17.587 27.7218C17.6532 27.5347 17.763 27.2871 17.8968 27.016C18.0403 26.748 18.2252 26.5395 18.3736 26.4093C18.4479 26.3435 18.5132 26.2964 18.5594 26.2662C18.6056 26.236 18.6328 26.2218 18.6345 26.2244Z" fill="#DBA898"/>
<path d="M19.2868 26.7342C19.2979 26.7422 19.189 26.9089 19.0606 27.1169C18.929 27.324 18.8437 27.5005 18.8335 27.4974C18.817 27.4925 18.8855 27.2991 19.0184 27.0907C19.1477 26.8809 19.2757 26.7262 19.2868 26.7342Z" fill="#DBA898"/>
<path d="M19.9486 26.8995C19.9602 26.9044 19.9224 27.0409 19.8771 27.2115C19.8317 27.3826 19.7717 27.516 19.758 27.5102C19.7464 27.5053 19.7842 27.3693 19.8295 27.1982C19.8744 27.0271 19.9349 26.8938 19.9486 26.8995Z" fill="#DBA898"/>
<path d="M20.9056 27.9551C20.9047 27.9604 20.8336 27.9369 20.7585 27.8511C20.6838 27.7666 20.6065 27.6311 20.5465 27.4733C20.4851 27.3155 20.4487 27.1671 20.4273 27.0591C20.4065 26.9506 20.4016 26.8826 20.4078 26.8813C20.4229 26.8782 20.474 27.1453 20.5927 27.4555C20.6518 27.6102 20.7216 27.7431 20.7856 27.8289C20.8496 27.9155 20.91 27.9475 20.9056 27.9551Z" fill="#DBA898"/>
<path d="M20.1319 31.1089L18.4692 34.7578L15.8301 32.4582L17.5239 29.8258L20.1319 31.1089Z" fill="#F8C8B4"/>
<path d="M24.1086 31.6071C23.9259 31.0516 23.9019 30.3342 23.9019 30.3342L21.0908 30.716C21.1855 30.8524 21.6024 34.004 21.6024 34.004L24.3504 32.2631C24.3504 32.2627 24.2824 32.1356 24.1086 31.6071Z" fill="#ECB89F"/>
<path d="M20.6244 27.5556C20.6244 27.5556 20.3866 27.3556 20.3968 27.1182C20.407 26.8813 20.483 26.7222 20.483 26.7222C20.483 26.7222 20.7844 26.4356 21.1972 26.5284C21.6101 26.6213 22.0146 27.1013 22.0146 27.1013C22.0146 27.1013 21.9639 27.4302 21.6692 27.3711C21.3741 27.312 20.9768 27.1756 20.9768 27.1756C20.9448 27.2107 20.6244 27.5556 20.6244 27.5556Z" fill="#ECB89F"/>
<path d="M20.6247 27.5555C20.6247 27.5524 20.6572 27.5142 20.7163 27.4462C20.7798 27.3747 20.8634 27.28 20.9656 27.1649L20.9723 27.1573L20.9825 27.1604C21.1278 27.2071 21.3025 27.2604 21.5003 27.3102C21.55 27.3222 21.6007 27.3347 21.6532 27.3449C21.7047 27.3547 21.7563 27.3613 21.806 27.3453C21.9056 27.3164 21.9705 27.2075 21.9914 27.0973L21.9967 27.1164C21.8967 27.0031 21.7803 26.8911 21.6509 26.7911C21.4616 26.6453 21.2492 26.5302 21.034 26.5333C20.8216 26.5324 20.6292 26.6235 20.4972 26.736L20.5016 26.7302C20.4478 26.8533 20.4243 26.98 20.4149 27.0889C20.4016 27.1982 20.4394 27.2893 20.4763 27.3573C20.5558 27.4942 20.6292 27.5515 20.6247 27.5555C20.6234 27.5569 20.6047 27.544 20.5736 27.5147C20.5429 27.4853 20.4998 27.4387 20.4567 27.3698C20.4154 27.3018 20.3718 27.204 20.3825 27.0875C20.3892 26.9742 20.4096 26.8467 20.4652 26.7138L20.4665 26.7102L20.4692 26.7075C20.6083 26.5849 20.806 26.4884 21.0336 26.4867C21.2638 26.4822 21.4878 26.604 21.6803 26.7524C21.8132 26.8547 21.9296 26.968 22.0327 27.0858L22.0403 27.0942L22.038 27.1049C22.0252 27.1693 22.0025 27.2271 21.966 27.2791C21.93 27.3302 21.878 27.3724 21.818 27.3893C21.7585 27.408 21.6963 27.3991 21.6434 27.388C21.59 27.3769 21.5389 27.3635 21.4887 27.3511C21.2896 27.2982 21.1158 27.2413 20.9709 27.1902L20.9878 27.1858C20.8776 27.2991 20.7874 27.392 20.7194 27.4627C20.658 27.5258 20.6247 27.5582 20.6247 27.5555Z" fill="#8F443C"/>
<path d="M24.3837 29.0373C24.3842 29.0462 24.2682 29.0542 24.0859 29.0933C23.9037 29.1316 23.6566 29.2084 23.4055 29.3413C23.1553 29.4751 22.9535 29.6378 22.8202 29.7676C22.6864 29.8973 22.6144 29.9889 22.6077 29.9836C22.605 29.9813 22.6206 29.9569 22.6513 29.9142C22.6815 29.8711 22.7304 29.812 22.7953 29.7431C22.9242 29.6053 23.1268 29.4347 23.3824 29.2978C23.6384 29.1618 23.893 29.0889 24.0793 29.0591C24.1726 29.044 24.2486 29.036 24.3015 29.0351C24.3544 29.0333 24.3833 29.0342 24.3837 29.0373Z" fill="#8F443C"/>
<path d="M38.4478 10.98C38.7176 10.7365 39.1056 10.6311 39.4612 10.7045C39.6061 10.7342 39.7625 10.7907 39.8945 10.7249C39.9892 10.6778 40.0452 10.5796 40.1189 10.5036C40.3456 10.2711 40.7772 10.2933 40.9789 10.5476C41.0287 10.6102 41.0674 10.6849 41.1349 10.7276C41.4087 10.8991 41.7647 10.3889 42.0367 10.5631C41.9078 10.6098 41.7785 10.6756 41.6998 10.788C41.6212 10.9005 41.6096 11.0689 41.7052 11.1676C41.9532 11.4227 42.4327 10.9329 42.7145 11.1502C42.8665 11.2676 42.8674 11.5413 43.0496 11.6009C43.1203 11.624 43.1967 11.6045 43.2705 11.6018C43.5198 11.5938 43.7532 11.8151 43.7589 12.0645C43.7638 12.2773 43.6372 12.5276 43.7847 12.6809C43.8763 12.776 44.0265 12.7733 44.1581 12.764C44.1403 12.9578 44.0776 13.1476 43.9758 13.3133C44.3047 13.5378 44.3905 14.0485 44.1532 14.368C44.3105 14.5125 44.4709 14.6631 44.5612 14.8565C44.6518 15.0498 44.6572 15.2987 44.5181 15.4609C44.4865 15.4978 44.4478 15.5302 44.4278 15.5742C44.4061 15.6222 44.4087 15.6773 44.4154 15.7293C44.4403 15.9307 44.5123 16.1293 44.4905 16.3307C44.4687 16.5325 44.3016 16.7422 44.1016 16.7089C44.0549 16.7013 44.0043 16.6813 43.9629 16.704C43.9318 16.7209 43.9163 16.7573 43.9074 16.792C43.8696 16.9329 43.8941 17.0813 43.9025 17.2271C43.9109 17.3725 43.8989 17.5311 43.8047 17.6422C43.7105 17.7533 43.5092 17.7787 43.4274 17.6582C43.4674 17.8876 43.5074 18.1169 43.5474 18.3462C43.5709 18.4827 43.5861 18.6462 43.4812 18.7365C43.3438 18.8547 43.1212 18.7356 43.0363 18.5751C42.9514 18.4147 42.9403 18.2227 42.8514 18.0645C42.8149 18 42.7661 17.9413 42.7434 17.8707C42.7256 17.8147 42.7234 17.7493 42.6812 17.7089C42.5963 17.6271 42.4474 17.7427 42.4505 17.86C42.4536 17.9778 42.5394 18.0738 42.6061 18.1707C42.6727 18.2676 42.7225 18.4022 42.6545 18.4982C42.6216 18.5449 42.5669 18.5725 42.5354 18.6196C42.4265 18.7836 42.6647 18.9698 42.6789 19.1658C42.6896 19.3107 42.5749 19.432 42.4643 19.5262C42.3292 19.6413 42.0789 19.7231 42.0127 19.5587C41.9896 19.5018 42.0047 19.4356 41.9883 19.3765C41.9692 19.3071 41.9114 19.2565 41.8616 19.2045C41.7385 19.0742 41.6549 18.9076 41.6247 18.7311C41.7594 18.9267 41.8976 19.1827 41.7749 19.3862C41.7238 19.4716 41.6363 19.5267 41.5621 19.5925C41.4163 19.7218 41.3185 19.8978 41.1745 20.0289C41.0305 20.1605 40.8047 20.24 40.6425 20.132C40.6869 20.3231 40.5852 20.5378 40.4092 20.6245C40.2332 20.7111 40.0007 20.6609 39.8763 20.5089C39.8421 20.4671 39.8136 20.4173 39.7652 20.3938C39.7132 20.368 39.6518 20.3787 39.5941 20.3849C39.2483 20.4205 38.8892 20.2427 38.7074 19.9462C38.7669 19.9302 38.8265 19.9147 38.8861 19.8987C38.5483 19.8276 38.1972 19.7502 37.9287 19.5338C37.6603 19.3173 37.5065 18.916 37.6785 18.6169C37.7532 18.4871 37.8865 18.3587 37.8416 18.216C37.8109 18.1178 37.7065 18.0653 37.6123 18.0236C37.2181 17.8493 36.8234 17.6747 36.4292 17.5005C36.2376 17.416 36.0363 17.3231 35.9181 17.1507C35.7998 16.9778 35.8096 16.7 35.9923 16.5982C35.9132 16.4031 35.7776 16.2311 35.6061 16.1093C35.4132 15.972 35.1816 15.8991 34.9829 15.7707C34.7843 15.6422 34.6109 15.4253 34.6443 15.1911C34.6776 14.9569 35.0163 14.8 35.1652 14.9845C35.1607 14.6271 34.5305 14.556 34.5038 14.2C34.4821 13.9107 34.8594 13.7907 35.0652 13.5858C35.0345 13.4836 34.9381 13.412 34.9043 13.3107C34.8336 13.0982 35.0634 12.9089 35.2723 12.8289C35.4816 12.7485 35.7349 12.6702 35.8007 12.4565C35.8683 12.2373 35.6967 11.9702 35.8305 11.784C35.9047 11.6809 36.0656 11.6538 36.1692 11.7271C36.3634 11.3311 37.1087 11.6987 37.3625 11.3378C37.3825 11.3093 37.3985 11.2756 37.3963 11.2409C37.3945 11.2107 37.3803 11.1827 37.3634 11.1578C37.2834 11.0387 37.1509 10.968 37.0447 10.872C36.9385 10.7756 36.8554 10.6218 36.9167 10.4925C36.9781 10.3631 37.2309 10.3871 37.2167 10.5298C37.3718 10.4111 37.6354 10.5 37.6878 10.688C37.7958 10.576 37.9887 10.5929 38.1158 10.6822C38.2429 10.772 38.3198 10.9147 38.3923 11.0525" fill="#322C2C"/>
<path d="M40.0319 15.6458C39.9372 15.0511 39.5296 14.5516 39.0714 14.1609C38.8794 13.9973 38.667 13.8431 38.4199 13.7902C38.1732 13.7373 37.8843 13.8098 37.7461 14.0209L37.7576 14.4431C37.6683 15.1085 38.1532 15.6978 38.3652 16.3347C38.4572 16.6116 38.5265 16.9422 38.7879 17.072C38.9248 17.14 39.0888 17.1342 39.2359 17.092C39.815 16.9271 40.127 16.2405 40.0319 15.6458Z" fill="#696C5A"/>
<path d="M39.9243 18.7378C40.3274 18.2551 40.3043 17.4707 39.8732 17.0129C40.1314 16.7138 40.0617 16.2338 39.8243 15.9187C39.5865 15.6031 39.2225 15.4133 38.8705 15.2333C38.7097 14.3218 37.7203 13.6462 36.8128 13.828C36.3719 13.1209 35.3785 12.9738 34.5697 13.1751C34.3723 13.2245 34.1741 13.2902 33.971 13.2813C33.8217 13.2747 33.6777 13.2285 33.5305 13.2027C32.7217 13.0609 31.8919 13.6018 31.5448 14.3458C31.4892 14.4649 31.4425 14.5907 31.3581 14.6911C31.2474 14.8231 31.0839 14.8965 30.9434 14.9965C30.6399 15.212 30.4381 15.5658 30.4079 15.9369C30.3821 16.252 30.4692 16.5911 30.3252 16.8729C30.2528 17.0138 30.1279 17.1254 30.0701 17.2729C29.9025 17.7009 30.3661 18.1631 30.259 18.6102C30.2372 18.7014 30.1923 18.7853 30.1634 18.8747C30.1039 19.0569 30.1137 19.2609 30.1901 19.4369C30.2492 19.5725 30.3479 19.6987 30.3505 19.8467C30.3528 19.9591 30.2985 20.0636 30.2719 20.1725C30.2061 20.4391 30.7457 21.4991 30.9719 21.6542L37.9128 21.9911C38.4425 21.9049 38.8892 21.4458 38.9608 20.9138C38.9728 20.8253 38.9777 20.7289 39.0354 20.6609C39.0848 20.6031 39.1617 20.5787 39.2297 20.5453C39.6861 20.3231 39.7643 19.7111 39.7372 19.204C39.7332 19.1329 39.7288 19.0605 39.7497 18.992C39.7803 18.8925 39.8581 18.8174 39.9243 18.7378Z" fill="#322C2C"/>
<path d="M37.9453 18.6702C38.0147 17.4422 37.2995 15.9996 36.1027 15.3507C35.3484 14.9413 34.748 14.9151 34.3453 14.852C33.4431 14.7107 32.6942 15.1307 32.6942 15.1307C32.308 15.2053 30.8547 16.4342 30.7267 17.8244C30.5844 19.3693 30.472 21.2609 30.6218 22.4209C30.9235 24.7533 32.6947 25.1004 32.6947 25.1004C32.6947 25.0987 32.6387 25.7684 32.5787 26.4822L31.8929 26.7707C31.8564 26.7707 32.4364 29.2316 32.4364 29.2316L36.4395 29.3253L37.7378 26.6978L37.0018 26.5156L37.9453 18.6702Z" fill="#ECB89F"/>
<path d="M34.1034 22.1729C34.0976 22.0507 34.0394 21.9382 33.9599 21.8578C33.8008 21.6969 33.5519 21.6614 33.3581 21.7725C33.1643 21.8836 33.0376 22.1342 33.0519 22.3778C33.143 22.5276 33.2923 22.6365 33.4652 22.6662C33.4923 22.6707 33.5194 22.6742 33.5465 22.6756C33.679 22.6831 33.8172 22.6498 33.9261 22.5609C34.035 22.4725 34.1105 22.3236 34.1034 22.1729Z" fill="#D39F8A"/>
<path d="M31.2857 19.5627C31.2755 19.7201 31.4004 19.8578 31.5644 19.8716C31.728 19.8849 31.8689 19.7689 31.8791 19.6121C31.8893 19.4552 31.7644 19.3169 31.6009 19.3032C31.4369 19.2894 31.296 19.4058 31.2857 19.5627Z" fill="#322C2C"/>
<path d="M31.228 18.7297C31.264 18.7697 31.4942 18.6092 31.8147 18.619C32.1347 18.6244 32.3654 18.7964 32.4014 18.7581C32.4191 18.7412 32.3831 18.6701 32.2831 18.5924C32.1845 18.515 32.0147 18.4381 31.8151 18.4332C31.6156 18.4288 31.4454 18.4973 31.3467 18.5697C31.2458 18.6426 31.2102 18.7119 31.228 18.7297Z" fill="#322C2C"/>
<path d="M33.0261 21.3147C33.0283 21.2965 32.8301 21.2565 32.5083 21.2058C32.427 21.1951 32.3496 21.1765 32.3376 21.1205C32.3199 21.0609 32.3568 20.9734 32.3994 20.8796C32.4821 20.6836 32.5688 20.4787 32.6594 20.2636C33.0212 19.3862 33.2852 18.6636 33.2501 18.6494C33.2145 18.6351 32.8928 19.3347 32.531 20.212C32.4439 20.4285 32.3603 20.6347 32.2812 20.832C32.2474 20.924 32.1914 21.028 32.2296 21.152C32.2501 21.2138 32.3088 21.26 32.3608 21.2756C32.4128 21.2929 32.4585 21.2951 32.499 21.2987C32.823 21.3254 33.0243 21.3329 33.0261 21.3147Z" fill="#322C2C"/>
<path d="M32.6954 25.1005C32.6954 25.1005 34.2545 25.2462 35.8292 24.3609C35.8292 24.3609 34.9594 26.0245 32.6416 25.74L32.6954 25.1005Z" fill="#D39F8A"/>
<path d="M33.963 21.5636C33.911 21.5591 33.9003 21.9067 33.5954 22.1454C33.291 22.3845 32.9217 22.3347 32.9172 22.3831C32.9119 22.4049 32.9977 22.4529 33.1541 22.4618C33.3074 22.4716 33.5332 22.4285 33.7194 22.2827C33.9057 22.1365 33.9892 21.9369 34.0052 21.7942C34.023 21.6494 33.9866 21.5622 33.963 21.5636Z" fill="#322C2C"/>
<path d="M31.3875 17.5329C31.4391 17.6129 31.6862 17.5676 31.972 17.5996C32.2591 17.6227 32.4933 17.7138 32.5582 17.6453C32.5871 17.6116 32.5582 17.5347 32.4609 17.4529C32.3653 17.3716 32.1982 17.2942 32.0009 17.2751C31.804 17.2564 31.6258 17.3004 31.5173 17.3622C31.408 17.424 31.3653 17.4942 31.3875 17.5329Z" fill="#322C2C"/>
<path d="M34.8501 19.7725C34.8452 19.9298 34.7079 20.0556 34.5435 20.0533C34.3795 20.0511 34.2501 19.9222 34.255 19.7649C34.2599 19.6076 34.3972 19.4818 34.5612 19.484C34.7257 19.4862 34.855 19.6151 34.8501 19.7725Z" fill="#322C2C"/>
<path d="M35.6051 18.9822C35.5656 19.0187 35.3514 18.8369 35.0318 18.8165C34.7127 18.7916 34.4669 18.9405 34.4349 18.8991C34.4189 18.8805 34.4611 18.8133 34.5683 18.7453C34.6736 18.6778 34.8505 18.6173 35.0496 18.6311C35.2487 18.6453 35.4114 18.7298 35.5029 18.8116C35.5958 18.8938 35.6243 18.9662 35.6051 18.9822Z" fill="#322C2C"/>
<path d="M35.9573 18.0452C35.8893 18.1136 35.6476 18.0221 35.3511 17.9985C35.0556 17.9661 34.8 18.0109 34.7471 17.9309C34.724 17.8923 34.7685 17.8221 34.8831 17.7607C34.996 17.6994 35.1805 17.6554 35.384 17.6745C35.5876 17.6941 35.76 17.7714 35.8582 17.8527C35.9578 17.9345 35.9871 18.0118 35.9573 18.0452Z" fill="#322C2C"/>
<path d="M37.4972 20.8591C37.5026 20.6862 37.7141 20.2844 37.8857 20.2627C38.3439 20.2049 39.1648 20.2649 39.139 21.4236C39.1039 23.0071 37.5212 22.6449 37.5194 22.5996C37.5177 22.5636 37.4786 21.456 37.4972 20.8591Z" fill="#ECB89F"/>
<path d="M37.9644 22.0302C37.9715 22.0253 37.9915 22.0502 38.0377 22.0724C38.0826 22.0942 38.1608 22.1102 38.2439 22.0813C38.4124 22.0236 38.5595 21.7613 38.5732 21.476C38.5804 21.332 38.5532 21.1942 38.5048 21.0791C38.459 20.9622 38.3861 20.8796 38.3021 20.8627C38.219 20.8413 38.1581 20.8907 38.1377 20.9347C38.1155 20.9787 38.1248 21.0102 38.1164 21.0129C38.1119 21.0169 38.083 20.9858 38.0972 20.9204C38.1044 20.8889 38.1239 20.852 38.1617 20.8227C38.2004 20.7924 38.2564 20.7782 38.315 20.7858C38.4368 20.7969 38.5444 20.9116 38.5977 21.0378C38.6577 21.1644 38.6915 21.3196 38.6835 21.4813C38.6661 21.8 38.4964 22.0951 38.2657 22.156C38.1537 22.1827 38.0617 22.1471 38.0146 22.1084C37.9666 22.0689 37.959 22.0333 37.9644 22.0302Z" fill="#D39F8A"/>
<path d="M30.3643 17.8351C30.69 17.6445 30.902 17.3787 30.8936 17.0013C31.1038 17.0707 31.3274 16.804 31.4563 16.624C31.5856 16.444 31.7398 16.356 31.7367 16.1347C31.7363 16.0911 31.7349 16.0445 31.7563 16.0067C31.79 15.9471 31.866 15.9293 31.9323 15.9107C32.2727 15.8151 32.5554 15.5342 32.6523 15.1942C32.9874 15.3529 33.362 15.4262 33.7318 15.4053C33.8887 15.648 34.1749 15.8009 34.4638 15.7969C34.7527 15.7929 35.0345 15.6316 35.1847 15.3849C35.2745 15.5858 35.4763 15.7191 35.6878 15.7796C35.8994 15.84 36.1234 15.8373 36.3434 15.8347C36.2358 16.2573 36.498 16.74 36.9105 16.8805C36.966 16.8996 37.0309 16.9187 37.0554 16.972C37.0807 17.028 37.0491 17.0911 37.0256 17.1476C36.8767 17.5058 37.1034 17.9693 37.4776 18.0716C37.2127 18.2645 37.2256 18.7298 37.5011 18.908C37.5576 18.9445 37.6318 18.9885 37.6207 19.0551C37.6167 19.0805 37.5998 19.1013 37.5838 19.1213C37.4611 19.2747 37.3389 19.4422 37.3185 19.6369C37.2985 19.832 37.4238 20.0551 37.6194 20.0698C37.514 20.1582 37.4145 20.2729 37.4078 20.4107C37.4016 20.548 37.5363 20.6925 37.6665 20.6467C37.7216 20.6271 38.5145 20.4956 38.5505 20.4493C39.0163 19.8547 38.4727 19.1658 38.4509 18.4107C38.4291 17.6556 38.1874 16.9173 37.8296 16.252C37.6798 15.9729 37.5078 15.7027 37.29 15.4725C37.0416 15.2102 36.7394 15.0058 36.4385 14.8058C36.0456 14.5449 35.6416 14.2845 35.1865 14.1627C34.338 13.936 33.4411 14.22 32.6336 14.5645C32.3265 14.6956 32.0198 14.8378 31.7585 15.0462C31.446 15.2956 31.2118 15.6285 31.006 15.9711C30.7087 16.4662 30.458 17.0022 30.3851 17.5747" fill="#322C2C"/>
<path d="M30.0703 17.272C30.0703 17.272 30.0881 17.2071 30.161 17.1049C30.1961 17.0534 30.2454 16.9934 30.2925 16.916C30.3388 16.8387 30.377 16.74 30.3903 16.6231C30.4068 16.5067 30.401 16.3751 30.3952 16.2311C30.3894 16.0876 30.3836 15.928 30.4219 15.7614C30.4583 15.5956 30.5312 15.4249 30.6454 15.2689C30.7023 15.1911 30.7694 15.1174 30.8472 15.0507C30.9241 14.9836 31.0134 14.928 31.1032 14.8725C31.1921 14.8165 31.2819 14.756 31.3503 14.6725C31.4188 14.5889 31.4623 14.4845 31.5094 14.3791C31.6041 14.1662 31.7379 13.9596 31.913 13.7791C32.0868 13.5987 32.2965 13.4369 32.541 13.3262C32.6614 13.2662 32.793 13.228 32.9263 13.1947C33.0619 13.1698 33.2019 13.1516 33.3436 13.1605C33.4143 13.1622 33.4854 13.1742 33.5565 13.184C33.6272 13.1974 33.6965 13.2142 33.7659 13.2289C33.905 13.2609 34.0463 13.2694 34.189 13.2422C34.3316 13.2187 34.4721 13.172 34.6196 13.14C34.7663 13.1045 34.9179 13.0858 35.0708 13.0747C35.2241 13.0636 35.3792 13.0698 35.5348 13.0849C35.6903 13.1027 35.845 13.1365 35.9965 13.1849C36.2965 13.2867 36.5854 13.4658 36.777 13.7356C36.7956 13.7622 36.8148 13.7889 36.8334 13.8151L36.8085 13.8045C37.2908 13.7089 37.7863 13.8538 38.1632 14.1222C38.5423 14.3902 38.8165 14.7934 38.8934 15.2294L38.8814 15.2129C39.0699 15.3094 39.2565 15.4062 39.4272 15.5231C39.5979 15.6391 39.753 15.7769 39.8676 15.9427C39.981 16.1089 40.0468 16.3022 40.0565 16.4956C40.0672 16.688 40.0121 16.8845 39.8885 17.0262L39.8881 16.9996C40.1072 17.2334 40.2116 17.5378 40.2272 17.8236C40.2428 18.1107 40.1743 18.3876 40.0379 18.6049C40.0068 18.6609 39.9654 18.7094 39.9276 18.7582C39.8876 18.8049 39.8468 18.8485 39.8143 18.896C39.7814 18.9436 39.7592 18.9947 39.753 19.0494C39.7459 19.104 39.7499 19.1591 39.7525 19.2138C39.7623 19.4329 39.7512 19.6351 39.717 19.8142C39.6823 19.9929 39.6254 20.1485 39.5468 20.2667C39.4699 20.3862 39.3761 20.4662 39.2925 20.516C39.209 20.5676 39.1361 20.5858 39.0952 20.6142C39.0525 20.64 39.0374 20.6618 39.0361 20.66C39.0361 20.66 39.0499 20.6369 39.0921 20.6089C39.133 20.5787 39.2059 20.5578 39.2868 20.5058C39.3676 20.4556 39.4588 20.3756 39.5325 20.2574C39.6081 20.1405 39.6623 19.9867 39.6948 19.8102C39.7272 19.6334 39.7365 19.4325 39.725 19.2156C39.7223 19.1614 39.7174 19.1045 39.7245 19.0462C39.7308 18.9876 39.7552 18.9294 39.7894 18.8796C39.8236 18.8294 39.865 18.7845 39.9041 18.7382C39.9405 18.6898 39.9801 18.6431 40.0103 18.588C40.1419 18.3756 40.2076 18.1054 40.1908 17.8254C40.1743 17.5467 40.0712 17.2511 39.8588 17.0262L39.8463 17.0134L39.8579 17C39.973 16.8667 40.025 16.6818 40.0143 16.4974C40.0045 16.3125 39.9405 16.1262 39.8312 15.9667C39.7205 15.8071 39.569 15.6734 39.4014 15.5596C39.2334 15.4454 39.0485 15.3494 38.8596 15.2534L38.8494 15.248L38.8476 15.2369C38.7725 14.8142 38.5054 14.4214 38.1352 14.16C37.7672 13.8982 37.2841 13.7582 36.8174 13.8507L36.8023 13.8538L36.7925 13.84C36.7748 13.8147 36.7565 13.7889 36.7383 13.7631C36.5534 13.5031 36.2739 13.3289 35.981 13.2294C35.833 13.1818 35.6814 13.1489 35.529 13.1311C35.3765 13.1165 35.2236 13.1102 35.073 13.1209C34.9228 13.132 34.7734 13.1498 34.629 13.1849C34.4841 13.216 34.3428 13.2631 34.1956 13.2871C34.1223 13.2996 34.0476 13.3062 33.9734 13.3031C33.8988 13.3 33.8263 13.2876 33.7556 13.2725C33.685 13.2574 33.6161 13.2405 33.5472 13.2276C33.4783 13.2182 33.4094 13.2062 33.3405 13.2045C33.2028 13.1951 33.0663 13.2129 32.9343 13.2369C32.8036 13.2694 32.6752 13.3062 32.5574 13.3645C32.3179 13.472 32.1116 13.6302 31.9405 13.8067C31.7681 13.9836 31.6361 14.1854 31.5423 14.3947C31.4952 14.4991 31.4499 14.6067 31.377 14.6951C31.3041 14.784 31.2103 14.8454 31.1205 14.9014C31.0299 14.9569 30.9428 15.0107 30.8676 15.0756C30.7916 15.14 30.7259 15.2116 30.6699 15.2871C30.5574 15.4387 30.485 15.6054 30.4481 15.7671C30.4094 15.9294 30.4134 16.0867 30.4179 16.2302C30.4223 16.3738 30.4263 16.5071 30.4085 16.6254C30.3934 16.744 30.353 16.8454 30.3045 16.9231C30.2552 17.0009 30.205 17.0596 30.1685 17.1098C30.1316 17.1596 30.1072 17.2005 30.0921 17.2285C30.0774 17.2574 30.0712 17.2725 30.0703 17.272Z" fill="#271F1F"/>
<path d="M36.0812 13.4564C36.0786 13.46 36.0404 13.4311 35.9644 13.3911C35.8888 13.3516 35.7732 13.3018 35.6226 13.2796C35.4728 13.2569 35.2857 13.2636 35.0999 13.3391C34.915 13.4138 34.7332 13.5556 34.6128 13.7529C34.5781 13.8093 34.5484 13.8702 34.5284 13.9293C34.5092 13.9884 34.5048 14.052 34.5346 14.0965L34.5715 14.1516L34.5084 14.1316C34.3346 14.0764 34.1528 14.104 34.0168 14.1742C33.879 14.244 33.7892 14.3569 33.739 14.4587C33.6879 14.5618 33.6737 14.6547 33.6688 14.7173C33.6648 14.7805 33.6684 14.8156 33.6648 14.816C33.6635 14.816 33.6612 14.8076 33.6581 14.7911C33.655 14.7747 33.6528 14.7493 33.6524 14.7169C33.6519 14.6525 33.6621 14.5551 33.7115 14.4458C33.7599 14.3378 33.8519 14.2156 33.9972 14.1382C34.1404 14.0613 34.3332 14.0285 34.5212 14.0867L34.495 14.1218C34.4528 14.0582 34.4621 13.9791 34.4821 13.9147C34.5039 13.8484 34.5346 13.7876 34.571 13.7271C34.6972 13.5204 34.8884 13.3733 35.0826 13.2973C35.2781 13.2209 35.4732 13.2178 35.627 13.2453C35.7821 13.2724 35.8986 13.3289 35.9728 13.3742C36.0101 13.3973 36.0377 13.4169 36.055 13.4316C36.0732 13.4471 36.0821 13.4551 36.0812 13.4564Z" fill="#271F1F"/>
<path d="M38.5924 15.3551C38.5941 15.3573 38.5746 15.3778 38.535 15.4098C38.4955 15.4418 38.4355 15.4862 38.3519 15.5284C38.2688 15.5698 38.1608 15.6098 38.0332 15.6133C37.9079 15.6169 37.7599 15.5836 37.6439 15.4822L37.679 15.4778C37.663 15.4987 37.647 15.5196 37.6306 15.5413C37.6128 15.5618 37.5932 15.5813 37.5746 15.6018C37.4541 15.7187 37.3101 15.7964 37.1715 15.8356C37.0328 15.876 36.9008 15.8831 36.7928 15.8711C36.6844 15.8591 36.6008 15.8298 36.5452 15.8062C36.4906 15.78 36.4626 15.7618 36.4639 15.7596C36.4675 15.7498 36.5848 15.8218 36.7955 15.8373C36.8999 15.8444 37.0266 15.8342 37.1586 15.7933C37.2906 15.7538 37.427 15.6782 37.5412 15.568C37.559 15.5484 37.5777 15.5302 37.5941 15.5107C37.6097 15.4902 37.6252 15.4702 37.6404 15.4511L37.6568 15.4302L37.6759 15.4471C37.779 15.5391 37.915 15.5724 38.0332 15.5716C38.1528 15.5711 38.2572 15.5369 38.339 15.5004C38.5026 15.4236 38.587 15.348 38.5924 15.3551Z" fill="#271F1F"/>
<path d="M39.3816 16.8498C39.3834 16.8502 39.3816 16.86 39.3767 16.8787C39.3705 16.8969 39.3607 16.924 39.339 16.9542C39.2981 17.0151 39.2092 17.0876 39.0785 17.1156C38.947 17.1453 38.7865 17.1142 38.6278 17.052C38.5483 17.0205 38.4656 16.9893 38.3812 16.9453C38.2994 16.9018 38.2105 16.84 38.1687 16.7391C38.1656 16.7302 38.1625 16.7213 38.1598 16.7133L38.1967 16.7258C38.0407 16.84 37.8803 16.9387 37.7181 16.9929C37.5572 17.0493 37.3972 17.0538 37.2718 17.0249C37.1456 16.9969 37.0541 16.94 37.0021 16.8916C36.9754 16.8676 36.9572 16.8467 36.9465 16.8311C36.9358 16.816 36.9305 16.8076 36.9318 16.8067C36.9354 16.804 36.959 16.8351 37.0136 16.8778C37.0674 16.9205 37.1572 16.9698 37.2785 16.9925C37.3994 17.016 37.5496 17.0085 37.7034 16.952C37.8581 16.8978 38.0136 16.8009 38.1678 16.6876L38.1936 16.6685L38.2047 16.7C38.207 16.7067 38.2096 16.7142 38.2123 16.7213C38.2461 16.8049 38.3238 16.8622 38.4025 16.904C38.4816 16.9458 38.5656 16.9791 38.643 17.0107C38.7976 17.0738 38.9487 17.1053 39.071 17.0818C39.1941 17.0596 39.2803 16.996 39.323 16.9422C39.3692 16.8889 39.3767 16.848 39.3816 16.8498Z" fill="#271F1F"/>
<path d="M41.2551 11.2507C41.2551 11.2538 41.2276 11.2507 41.1796 11.2618C41.132 11.2729 41.0627 11.3022 40.9996 11.3702C40.9365 11.4369 40.8814 11.5396 40.8707 11.6689C40.8569 11.7978 40.8827 11.944 40.9165 12.1027L40.9218 12.1285L40.8951 12.1267C40.7178 12.1156 40.516 12.16 40.3422 12.2769C40.1689 12.3916 40.0342 12.5916 40.0249 12.8218C40.0111 13.0307 40.0951 13.2365 40.2387 13.3565L40.2907 13.4L40.2231 13.3973C39.9787 13.3876 39.756 13.4965 39.6147 13.6422C39.4698 13.7889 39.4102 13.972 39.3969 14.1218C39.3831 14.2733 39.4125 14.3947 39.4391 14.4733C39.4667 14.5525 39.4902 14.592 39.4867 14.5938C39.4853 14.5947 39.4791 14.5849 39.4676 14.5662C39.4556 14.5476 39.4405 14.5182 39.4245 14.4787C39.3929 14.4005 39.3578 14.2769 39.368 14.1196C39.3778 13.9645 39.436 13.7711 39.5862 13.6147C39.7325 13.4596 39.9654 13.3427 40.2254 13.3511L40.2098 13.392C40.0529 13.2622 39.9631 13.0413 39.9778 12.8191C39.984 12.6982 40.0205 12.58 40.0822 12.4809C40.1431 12.3809 40.2267 12.3005 40.3173 12.2391C40.5009 12.1169 40.7125 12.0729 40.8987 12.0867L40.8778 12.1107C40.8462 11.9516 40.8222 11.8 40.8391 11.6658C40.8529 11.5311 40.9147 11.4213 40.9836 11.3547C41.0525 11.2858 41.1276 11.2578 41.1778 11.2502C41.2031 11.2462 41.2231 11.2462 41.236 11.2476C41.2485 11.2485 41.2551 11.2493 41.2551 11.2507Z" fill="#271F1F"/>
<path d="M43.973 14.7693C43.9734 14.7707 43.9645 14.7756 43.9467 14.7836C43.9285 14.7911 43.9027 14.8053 43.8667 14.8173C43.7952 14.8431 43.6863 14.872 43.5458 14.8796C43.4058 14.8862 43.2325 14.8716 43.0503 14.8045C42.8681 14.7405 42.6774 14.62 42.5272 14.4382L42.5632 14.4365C42.4161 14.6649 42.1561 14.8711 41.8352 14.9027C41.4961 14.9356 41.1685 14.7365 41.0601 14.4587L41.1014 14.4582C41.0587 14.5671 40.9854 14.6556 40.9027 14.7209C40.8196 14.7867 40.7281 14.8307 40.6387 14.8596C40.4574 14.9165 40.289 14.9098 40.1552 14.8951C40.0205 14.8791 39.9165 14.8529 39.8458 14.8351C39.7752 14.8165 39.7378 14.8045 39.7383 14.8022C39.7387 14.7996 39.7774 14.8071 39.849 14.8213C39.9205 14.8347 40.025 14.8565 40.1578 14.8685C40.2898 14.8791 40.4547 14.8818 40.6272 14.8245C40.7961 14.7685 40.9814 14.6458 41.0605 14.4422L41.081 14.3898L41.1018 14.4418C41.2036 14.6982 41.5138 14.8862 41.8316 14.8547C42.1334 14.8253 42.3841 14.6298 42.5267 14.412L42.5436 14.3862L42.5632 14.4102C42.7058 14.5858 42.8885 14.7045 43.0645 14.7689C43.2405 14.8369 43.409 14.8551 43.5458 14.852C43.8218 14.844 43.9703 14.7591 43.973 14.7693Z" fill="#271F1F"/>
<path d="M42.2397 17.0329C42.2406 17.0333 42.2371 17.0453 42.2202 17.0609C42.2037 17.0765 42.1722 17.0929 42.1295 17.0982C42.0442 17.1067 41.9206 17.0898 41.7815 17.0289C41.6442 16.968 41.4918 16.8551 41.3895 16.68C41.2878 16.5071 41.2402 16.2751 41.2926 16.0467L41.2935 16.0418L41.3269 16.0689C41.1153 16.1671 40.8842 16.1769 40.6895 16.1365C40.4931 16.0965 40.3326 16.0058 40.2149 15.9138C40.0966 15.8213 40.018 15.7276 39.9691 15.6605C39.9202 15.5929 39.8993 15.5516 39.9015 15.5502C39.91 15.5427 40.0002 15.7098 40.2349 15.8867C40.3522 15.9729 40.5086 16.0573 40.6975 16.0929C40.8846 16.1293 41.1055 16.1182 41.306 16.0249L41.3491 16.0049L41.3393 16.052L41.3384 16.0565C41.2891 16.2716 41.3326 16.492 41.4269 16.6569C41.5215 16.824 41.6646 16.9351 41.7949 16.9973C41.926 17.0596 42.0473 17.0813 42.1269 17.0787C42.2109 17.0765 42.2375 17.0293 42.2397 17.0329Z" fill="#271F1F"/>
<path d="M37.7933 11.1996C37.8053 11.2022 37.7009 11.376 37.7066 11.6836C37.7106 11.8347 37.7466 12.0174 37.8449 12.192C37.9431 12.3658 38.1057 12.5267 38.3129 12.6289C38.4293 12.6862 38.5529 12.7205 38.6715 12.7338L38.7009 12.7369L38.6915 12.7645C38.6306 12.9405 38.6111 13.1169 38.6177 13.2738C38.6253 13.4307 38.6564 13.5685 38.6955 13.6782C38.7146 13.7329 38.7346 13.7827 38.756 13.8218C38.7777 13.8605 38.808 13.8858 38.8377 13.8889C38.8675 13.8929 38.8911 13.8822 38.9017 13.8716C38.9133 13.8605 38.9155 13.8516 38.9173 13.8525C38.9182 13.8525 38.9186 13.8627 38.9075 13.8774C38.8969 13.892 38.8711 13.9071 38.8355 13.9054C38.7991 13.9045 38.7604 13.8751 38.7355 13.8347C38.7106 13.7934 38.6889 13.7449 38.6671 13.6894C38.6231 13.5787 38.588 13.4382 38.5773 13.2765C38.568 13.1151 38.5853 12.9329 38.6475 12.7498L38.6671 12.7805C38.5426 12.7676 38.4133 12.732 38.292 12.672C38.0755 12.5658 37.9071 12.3965 37.8066 12.2138C37.7062 12.0302 37.6729 11.84 37.6729 11.6845C37.6724 11.5276 37.7062 11.4031 37.7351 11.3214C37.7511 11.2809 37.764 11.2498 37.7751 11.2298C37.7857 11.2089 37.792 11.1987 37.7933 11.1996Z" fill="#271F1F"/>
<path d="M38.428 22.5534C38.4293 22.5516 38.456 22.5702 38.4871 22.6187C38.5177 22.6662 38.5493 22.7485 38.5431 22.8525C38.5386 22.9542 38.4857 23.084 38.3657 23.16C38.2506 23.236 38.0817 23.2618 37.9328 23.1929C37.7853 23.1222 37.6973 22.9787 37.6742 22.8436C37.6488 22.7058 37.6942 22.5796 37.752 22.496C37.8106 22.4107 37.88 22.3614 37.9302 22.3351C37.9808 22.3089 38.012 22.3031 38.0128 22.3058C38.0142 22.3098 37.9857 22.3218 37.94 22.3516C37.8946 22.3814 37.8324 22.4329 37.7813 22.5147C37.7306 22.5956 37.6937 22.7111 37.7191 22.8351C37.7422 22.9569 37.824 23.0858 37.9537 23.148C38.084 23.2085 38.2364 23.1876 38.3408 23.1214C38.4488 23.056 38.4991 22.9436 38.508 22.8494C38.5182 22.7538 38.4942 22.676 38.4702 22.628C38.4462 22.5791 38.4249 22.5565 38.428 22.5534Z" fill="#555B43"/>
<path d="M28.0723 28.1622L31.8758 26.6564C31.8758 26.6564 33.2203 28.7342 34.8145 28.7342C36.6425 28.7342 37.3069 26.4818 37.3069 26.4818L41.2296 28.0151L39.4767 37.1551C39.4767 37.1551 41.8709 42.3902 41.8709 43.6351V45.5138H28.1625L29.3909 40.2004C29.3909 40.2004 28.522 33.8622 28.4638 33.4622C28.5176 31.3867 28.0723 28.1622 28.0723 28.1622Z" fill="#696C5A"/>
<path d="M41.2296 28.0151C41.5568 28.2609 42.6079 28.4329 43.0843 29.7511C43.5519 31.0453 43.2083 36.616 43.387 38.0236C43.5657 39.4311 44.0368 45.5138 44.0368 45.5138H40.1723L37.6025 38.1369L41.2296 28.0151Z" fill="#696C5A"/>
<path d="M28.072 28.1622C28.072 28.1622 27.2498 28.3973 26.6294 30.3947C26.3022 31.4476 25.2458 34.0427 25.2458 34.0427L24.5267 32.1516L20.9062 34.4449C20.9062 34.4449 22.6591 38.4898 22.8765 38.9209C23.2262 39.6151 24.1382 40.9267 25.3307 40.9013C26.5231 40.876 27.3476 40.0511 27.7538 39.2805C28.1596 38.5098 29.2338 36.6098 29.2338 36.6098L28.072 28.1622Z" fill="#696C5A"/>
<path d="M28.3141 31.1538C28.315 31.1538 28.3167 31.1613 28.3194 31.1769C28.3221 31.1951 28.3256 31.2178 28.3301 31.2453C28.3389 31.3093 28.3505 31.3973 28.3656 31.5084C28.3949 31.7413 28.4363 32.0711 28.4874 32.4769C28.5861 33.2991 28.7212 34.428 28.8709 35.6747C29.0176 36.9222 29.1501 38.0516 29.2469 38.8738C29.2927 39.28 29.3301 39.6107 29.3567 39.844C29.3683 39.9556 29.3772 40.0436 29.3838 40.108C29.3861 40.1356 29.3883 40.1582 29.3896 40.1769C29.3905 40.1924 29.3909 40.2004 29.3901 40.2004C29.3892 40.2004 29.3874 40.1929 29.3847 40.1773C29.3821 40.1591 29.3785 40.1364 29.3741 40.1089C29.3652 40.0449 29.3527 39.9569 29.3376 39.8458C29.3074 39.6129 29.2647 39.2831 29.2123 38.8778C29.1087 38.06 28.9674 36.9298 28.8221 35.68C28.6781 34.4324 28.5478 33.3031 28.4532 32.4804C28.4087 32.0738 28.3723 31.7436 28.3469 31.5098C28.3358 31.3982 28.3269 31.3102 28.3207 31.2458C28.3185 31.2178 28.3167 31.1956 28.3149 31.1769C28.3132 31.1622 28.3132 31.1542 28.3141 31.1538Z" fill="#555B43"/>
<path d="M41.8704 45.5138C41.8695 45.5138 41.8659 45.5036 41.8593 45.4827C41.8522 45.4596 41.8428 45.4293 41.8308 45.3907C41.806 45.3067 41.7704 45.1871 41.7251 45.0342C41.6344 44.7209 41.5037 44.2711 41.3424 43.7138C41.0215 42.5911 40.5766 41.0342 40.0775 39.2871L40.0762 39.2818L40.0771 39.2765C40.1077 39.0747 40.1406 38.86 40.1735 38.6431C40.4726 36.7005 40.7428 34.9418 40.9393 33.6662C41.0393 33.032 41.1202 32.5173 41.1771 32.1587C41.206 31.9831 41.2282 31.8458 41.2442 31.7493C41.2522 31.7045 41.2584 31.6693 41.2628 31.6431C41.2673 31.6191 41.2699 31.6071 41.2708 31.6071C41.2717 31.6071 41.2708 31.6196 41.2677 31.644C41.2642 31.6707 41.2597 31.7058 41.2539 31.7511C41.2402 31.848 41.2211 31.9858 41.1962 32.1618C41.1433 32.5209 41.0677 33.036 40.974 33.6716C40.7815 34.948 40.5157 36.7071 40.2224 38.6507C40.1895 38.8676 40.1566 39.0822 40.1259 39.284L40.1255 39.2738C40.6188 41.0227 41.0584 42.5809 41.3753 43.7049C41.5308 44.2645 41.6562 44.7156 41.7433 45.0298C41.7851 45.1836 41.8175 45.304 41.8406 45.3885C41.8508 45.4276 41.8588 45.4587 41.8646 45.4818C41.8686 45.5027 41.8713 45.5138 41.8704 45.5138Z" fill="#555B43"/>
<path d="M37.5024 38.0018C37.5028 38.0036 37.4868 38.0102 37.4553 38.0222C37.4184 38.0356 37.3731 38.0516 37.3175 38.0716C37.1975 38.1138 37.0233 38.1716 36.8068 38.2409C36.374 38.3796 35.7722 38.5596 35.102 38.7365C34.4313 38.9129 33.8188 39.0533 33.374 39.1458C33.1513 39.192 32.9713 39.2276 32.846 39.2502C32.7877 39.2605 32.7402 39.2685 32.7015 39.2751C32.6686 39.2805 32.6508 39.2822 32.6504 39.2805C32.65 39.2787 32.6668 39.2738 32.6993 39.2653C32.7371 39.2565 32.7842 39.2449 32.8415 39.2316C32.9722 39.2018 33.15 39.1613 33.366 39.112C33.8086 39.0107 34.4188 38.8653 35.0891 38.6889C35.7588 38.512 36.3615 38.3378 36.7966 38.208C37.0091 38.1445 37.1833 38.092 37.3117 38.0538C37.3682 38.0373 37.4148 38.024 37.4522 38.0133C37.4846 38.004 37.5015 38 37.5024 38.0018Z" fill="#555B43"/>
<path d="M38.4167 37.5213C38.4167 37.5231 38.3936 37.524 38.3501 37.5249C38.3016 37.5249 38.2381 37.5249 38.1594 37.5253C37.9941 37.5249 37.7545 37.5195 37.4585 37.5089C36.8669 37.4875 36.05 37.436 35.1523 37.3351C34.254 37.2333 33.4465 37.1018 32.8652 36.9907C32.5745 36.9355 32.3398 36.8871 32.1785 36.8507C32.1016 36.8329 32.0403 36.8187 31.9927 36.808C31.9505 36.7978 31.9283 36.7915 31.9287 36.7898C31.9292 36.788 31.9518 36.7911 31.9949 36.7982C32.0429 36.8067 32.1052 36.8178 32.1825 36.832C32.3509 36.8622 32.5847 36.9049 32.8718 36.9564C33.454 37.0587 34.2616 37.1844 35.1585 37.2858C36.0549 37.3867 36.87 37.4435 37.4607 37.4738C37.7518 37.4871 37.9896 37.4982 38.1603 37.5058C38.2389 37.5093 38.3021 37.5124 38.3505 37.5147C38.3936 37.5178 38.4167 37.52 38.4167 37.5213Z" fill="#555B43"/>
<path d="M26.6299 37.6756C26.6281 37.676 26.6201 37.6569 26.6054 37.6204C26.5899 37.5787 26.5694 37.5253 26.545 37.4591C26.4908 37.3129 26.4165 37.1116 26.3254 36.8653C26.1392 36.364 25.877 35.6733 25.5832 34.9124C25.2899 34.1538 25.0241 33.4671 24.8294 32.9631C24.7361 32.7178 24.6596 32.5169 24.6041 32.3711C24.5801 32.3049 24.5605 32.2511 24.545 32.2093C24.5321 32.172 24.5259 32.1524 24.5276 32.1516C24.5294 32.1511 24.5383 32.1693 24.5543 32.2053C24.5716 32.2462 24.5943 32.2991 24.6219 32.3636C24.681 32.508 24.7623 32.7067 24.8619 32.9498C25.0623 33.4458 25.3356 34.1324 25.6294 34.8938C25.9236 35.6551 26.1805 36.348 26.3583 36.8524C26.4472 37.1049 26.517 37.3098 26.5632 37.452C26.5845 37.5191 26.6014 37.5738 26.6152 37.6164C26.6263 37.6547 26.6312 37.6751 26.6299 37.6756Z" fill="#555B43"/>
<path d="M27.0158 37.1756C27.0127 37.1769 26.9944 37.1373 26.9642 37.0649C26.9344 36.9925 26.8909 36.8876 26.8349 36.7596C26.7233 36.5027 26.5575 36.1533 26.346 35.7822C26.134 35.4116 25.9167 35.0911 25.7522 34.8649C25.67 34.7516 25.602 34.6609 25.5549 34.5982C25.5078 34.5356 25.4829 34.5 25.4855 34.4978C25.4882 34.4956 25.518 34.5271 25.57 34.5862C25.622 34.6449 25.6944 34.7329 25.7807 34.844C25.9531 35.0658 26.1762 35.3849 26.3895 35.7578C26.6024 36.1307 26.7642 36.4849 26.8678 36.7462C26.9198 36.8769 26.9589 36.9836 26.9829 37.0582C27.0073 37.1325 27.0193 37.1742 27.0158 37.1756Z" fill="#555B43"/>
<g opacity="0.3">
<path d="M30.5039 36.668L30.5492 36.7969C30.7004 36.9862 30.9141 37.0236 31.1466 37.0902C33.2675 37.6987 36.091 37.884 38.267 37.5187C35.4368 37.4649 32.8266 36.9849 30.5039 36.668Z" fill="#040000"/>
</g>
<g opacity="0.3">
<path d="M28.4485 32.2916L29.0249 37.1867C28.4187 35.7076 28.1258 33.9645 28.4534 32.3996" fill="#040000"/>
</g>
<path opacity="0.3" d="M41.1873 32.1516C41.1873 32.1516 41.3211 36.2982 40.986 38.0018C40.6505 39.7053 40.4745 40.6018 40.4745 40.6018L40.1016 39.2804L41.1873 32.1516Z" fill="#040000"/>
<path d="M37.8912 26.7889C37.8921 26.7894 37.8903 26.7965 37.8868 26.8107C37.8819 26.8276 37.8757 26.848 37.8686 26.8729C37.8597 26.9014 37.8495 26.9351 37.8375 26.9738C37.8255 27.0138 37.8108 27.0596 37.7886 27.1094C37.7126 27.3125 37.5695 27.596 37.333 27.9045C37.2775 27.9845 37.205 28.0569 37.1366 28.1378C37.0655 28.2165 36.9837 28.2911 36.9015 28.3702C36.7281 28.5187 36.5357 28.6716 36.3117 28.7987C35.869 29.0591 35.3161 29.2436 34.7197 29.2618C34.1232 29.2702 33.5619 29.1111 33.1081 28.8702C32.8783 28.7534 32.6792 28.6094 32.4992 28.4689C32.4135 28.3934 32.3286 28.3222 32.2539 28.2471C32.1815 28.1694 32.1063 28.1005 32.0472 28.0231C31.7975 27.7254 31.6415 27.4485 31.5566 27.2489C31.5321 27.2005 31.5152 27.1556 31.5015 27.116C31.4877 27.0778 31.4757 27.0449 31.4659 27.0165C31.4575 26.992 31.4508 26.9716 31.445 26.9551C31.4406 26.9414 31.4388 26.9338 31.4397 26.9338C31.4406 26.9334 31.4441 26.94 31.4499 26.9534C31.457 26.9694 31.465 26.9889 31.4752 27.0129C31.4863 27.0405 31.4997 27.0729 31.5152 27.1102C31.5303 27.1489 31.5486 27.1934 31.5743 27.2409C31.6641 27.4365 31.8232 27.7085 32.0739 28C32.133 28.076 32.2086 28.1436 32.281 28.2196C32.3557 28.2934 32.4401 28.3631 32.5255 28.4369C32.7046 28.5747 32.9019 28.7156 33.1295 28.8298C33.5788 29.0654 34.1317 29.2205 34.7188 29.212C35.3055 29.1938 35.8508 29.0138 36.289 28.7587C36.5112 28.6342 36.7019 28.4849 36.8748 28.3391C36.9566 28.2614 37.0379 28.188 37.109 28.1111C37.1775 28.032 37.2503 27.9609 37.3059 27.8827C37.5432 27.58 37.6903 27.3014 37.7712 27.1018C37.7948 27.0534 37.8112 27.008 37.8241 26.9689C37.8379 26.9307 37.8495 26.8978 37.8597 26.8698C37.869 26.8454 37.8766 26.8258 37.8823 26.8094C37.8872 26.7956 37.8903 26.7889 37.8912 26.7889Z" fill="#555B43"/>
</g>
<defs>
<clipPath id="clip0_1141_49258">
<rect width="48" height="48" rx="24" fill="white"/>
</clipPath>
</defs>
</svg>
