<svg xmlns="http://www.w3.org/2000/svg" width="48" height="48" fill="none"><g clip-path="url(#a)"><rect width="48" height="48" fill="#fff" rx="24"/><g clip-path="url(#b)"><path fill="#A467A7" d="M47.4 31.425c-.335.587-.837 1.397-1.308 2.272-.706 1.31-1.342 2.766-1.246 3.843l-.005.109-.083 1.654-.01.224-.392-.226-.96-.555c-.27-1.536-.432-3.055-.024-5.398.378-2.16 1.89-4.535 3.166-4.664 1.189-.122 1.697 1.276.861 2.741Z"/><path fill="#966E6E" d="M47.4 31.425c-.335.587-.837 1.397-1.308 2.272-.706 1.31-1.342 2.766-1.246 3.843l-.005.109-.083 1.654-.01.224-.392-.226-.96-.555c-.27-1.536-.432-3.055-.024-5.398.378-2.16 1.89-4.535 3.166-4.664 1.189-.122 1.697 1.276.861 2.741Z"/><path fill="#fff" d="M43.926 38.684a.077.077 0 0 0 .046-.08c-.5-4.002 1.148-7.691 2.823-9.027a.077.077 0 0 0 .012-.107.075.075 0 0 0-.107-.012c-1.703 1.357-3.386 5.109-2.88 9.166a.076.076 0 0 0 .106.06Z"/><path fill="#A467A7" d="M48.866 33.959c-.133.775-1.54 1.687-2.472 2.943-.84 1.134-1.206 2.285-1.176 2.896h-.002l-.468-.27-.392-.227c-.214-2.838.636-4.685 1.736-5.604.27-.225.552-.394.84-.51 1.236-.495 2.092-.159 1.934.772Z"/><path fill="#D7ACAC" d="M48.866 33.959c-.133.775-1.54 1.687-2.472 2.943-.84 1.134-1.206 2.285-1.176 2.896h-.002l-.468-.27-.392-.227c-.214-2.838.636-4.685 1.736-5.604.27-.225.552-.394.84-.51 1.236-.495 2.092-.159 1.934.772Z"/><path fill="#fff" d="M44.777 39.297a.077.077 0 0 0 .046-.07c.048-3.251 1.911-5.023 2.89-5.505a.077.077 0 0 0 .035-.103.075.075 0 0 0-.102-.035c-1.083.534-2.927 2.322-2.976 5.641a.077.077 0 0 0 .107.072Z"/><path fill="#A467A7" d="m5.37 37.492-1.234.712c-.07-3.617-2.416-6.265-3.548-7.666-1.15-1.426.441-2.28 1.781-1.654 1.342.628 2.429 2.23 2.878 4.316.383 1.782.187 3.756.123 4.291Z"/><path fill="#D7ACAC" d="m5.37 37.492-1.234.712c-.07-3.617-2.416-6.265-3.548-7.666-1.15-1.426.441-2.28 1.781-1.654 1.342.628 2.429 2.23 2.878 4.316.383 1.782.187 3.756.123 4.291Z"/><path fill="#fff" d="m4.847 37.381.016.002a.079.079 0 0 0 .076-.081c-.125-4.553-1.642-6.833-3.394-7.992a.079.079 0 0 0-.087.132c1.729 1.143 3.2 3.376 3.323 7.864a.08.08 0 0 0 .066.075Z"/><path fill="#A467A7" d="M-1.25 33.367c.026.252.229.445.423.608.194.161.406.338.459.585.107.5-.485.961-.357 1.456.053.207.228.364.417.465.156.085.326.14.49.21.082.024.165.044.247.059.242.041.498.113.671.3.273.297.239.752.336 1.143.116.47.395.744 1.033.967l2.183-1.238c.545-.555.737-1.503.236-2.148-.301-.387-.864-.436-1.148-.823-.255-.348-.108-.849-.264-1.25-.159-.406-.572-.54-.964-.608-.403-.07-.808.094-1.19-.046-.383-.14-.738-.365-1.135-.465-.385-.096-.822-.062-1.143.192-.181.144-.318.365-.294.593Z"/><path fill="#966E6E" d="M-1.25 33.367c.026.252.229.445.423.608.194.161.406.338.459.585.107.5-.485.961-.357 1.456.053.207.228.364.417.465.156.085.326.14.49.21.082.024.165.044.247.059.242.041.498.113.671.3.273.297.239.752.336 1.143.116.47.395.744 1.033.967l2.183-1.238c.545-.555.737-1.503.236-2.148-.301-.387-.864-.436-1.148-.823-.255-.348-.108-.849-.264-1.25-.159-.406-.572-.54-.964-.608-.403-.07-.808.094-1.19-.046-.383-.14-.738-.365-1.135-.465-.385-.096-.822-.062-1.143.192-.181.144-.318.365-.294.593Z"/><path fill="#fff" d="M2.82 35.338a.056.056 0 0 0-.017-.023C1.776 33.859.168 33.168-.376 33.047a.057.057 0 0 0-.025.111c.516.115 2.01.754 3.015 2.09-1.427-.46-2.493.209-2.504.216a.057.057 0 0 0-.017.079c.01.016.028.025.046.026a.06.06 0 0 0 .033-.009c.01-.007 1.108-.697 2.558-.154.527.759.891 1.728.854 2.936-.001.03.02.055.05.058h.005a.057.057 0 0 0 .058-.055c.04-1.237-.335-2.23-.877-3.007Z"/><path fill="#F5F5F5" d="M41.075 36.014c-9.583-5.51-25.12-5.51-34.703 0-9.583 5.51-9.583 14.444 0 19.954 9.584 5.51 25.12 5.51 34.703 0 9.584-5.51 9.584-14.444 0-19.954Z"/><path fill="#E0E0E0" d="M14.16 56.219c4.448 0 8.055-2.083 8.055-4.651 0-2.569-3.607-4.65-8.056-4.65-4.449 0-8.055 2.081-8.055 4.65 0 2.569 3.606 4.65 8.055 4.65ZM33.654 56.219c4.45 0 8.056-2.083 8.056-4.651 0-2.569-3.607-4.65-8.056-4.65-4.449 0-8.055 2.081-8.055 4.65 0 2.569 3.606 4.65 8.055 4.65Z"/><g fill="#BF9892" opacity=".36"><path d="m6.223 15.13.71-.341a.664.664 0 0 1 .001-.084l.015-.197c.027-.35.306-.759.623-.91.128-.062.243-.072.332-.039.088-.494.477-1.032.915-1.242.475-.228.827.012.787.537l-.022.295c-.01.136-.046.277-.102.417l.59-.283c.176-.085.307.005.292.2a.676.676 0 0 1-.346.505L6.17 15.836c-.176.084-.307-.005-.292-.2a.676.676 0 0 1 .345-.506ZM11.137 7.684l.44-.288.07-.918c.056-.727.7-1.527 1.357-1.842.658-.316 1.146.017 1.09.744l-.01.134c.16-.211.359-.388.57-.49.472-.227.824.013.784.536l-.005.06.607-.29c.311-.15.542.008.516.353-.026.344-.3.745-.611.894l-4.903 2.355c-.312.15-.543-.009-.517-.353.026-.344.3-.745.612-.895Z" opacity=".54"/></g><path fill="#BF9892" d="M45.284 16.926c0-1.833-1.082-3.919-2.456-4.713-.631-.364-1.126-.4-1.648-.127l-1.102.59.48 1.01a4.341 4.341 0 0 0-.007.23c0 1.76 1.027 3.793 2.326 4.654l.472.995 1.061-.618c.535-.3.874-1.01.874-2.02Z"/><path fill="#FBFBFB" d="M42.706 19.68c-.302 0-.625-.098-.96-.29-.428-.248-.852-.646-1.228-1.153l-.032-.044-.049.027c-.284.16-.59.243-.907.243a1.94 1.94 0 0 1-.585-.092.068.068 0 0 1-.048-.063.072.072 0 0 1 .045-.072c.679-.283.912-.813.968-.97l.009-.024-.012-.024c-.402-.836-.623-1.738-.623-2.54 0-1.289.566-2.122 1.44-2.122.302 0 .625.098.96.291 1.38.798 2.462 2.867 2.462 4.711 0 .649-.141 1.191-.409 1.57-.255.36-.612.552-1.032.552Z"/><path fill="#EBEBEB" d="M40.725 12.62c.291 0 .603.094.928.282 1.363.787 2.43 2.832 2.43 4.656 0 1.25-.54 2.06-1.377 2.06-.291 0-.603-.096-.928-.283-.421-.243-.84-.635-1.209-1.135l-.066-.09-.097.055a1.76 1.76 0 0 1-.876.235c-.189 0-.38-.03-.57-.09V18.3c0-.003.002-.005.006-.007.703-.293.946-.844 1.003-1.006l.018-.05-.022-.047c-.399-.828-.618-1.72-.618-2.513 0-1.25.542-2.059 1.378-2.059Zm0-.127c-.884 0-1.504.817-1.504 2.185 0 .846.24 1.754.63 2.567-.055.155-.279.66-.933.932-.116.049-.111.215.008.254.16.05.368.094.605.094.282 0 .605-.062.938-.25.367.495.792.905 1.247 1.168.352.203.687.3.99.3.885 0 1.504-.818 1.504-2.186 0-1.916-1.117-3.97-2.494-4.765-.352-.203-.687-.3-.99-.3Z"/><path fill="#F3A4A3" d="M40.812 15.37c0 .34-.251.47-.561.29-.31-.178-.561-.598-.561-.938 0-.34.25-.47.56-.29.31.178.562.598.562.938ZM43.812 17.12c0 .339-.25.47-.56.29-.31-.179-.562-.599-.562-.939 0-.34.252-.47.561-.291.31.18.561.6.561.94Z"/><path fill="#445962" d="M42.588 17.317c0 .29-.076.525-.203.676-.178.213-.453.265-.762.085-.31-.179-.585-.55-.763-.966-.127-.3-.203-.62-.203-.911l1.93 1.116Z"/><path fill="#F3A4A3" d="M42.385 17.993c-.177.213-.453.265-.761.085-.31-.179-.586-.55-.764-.966.198-.142.468-.144.764.026.293.17.563.482.76.855Z"/><path fill="#445962" d="M42.495 15.638c0 .213.112.45.25.53.139.08.25-.028.25-.24 0-.214-.111-.45-.25-.53-.138-.08-.25.027-.25.24ZM40.517 14.52c0 .214.112.45.25.53.138.08.25-.027.25-.24s-.112-.45-.25-.53c-.138-.08-.25.028-.25.24Z"/><path fill="#BF9892" d="M5.205 23.87c0-1.156.683-2.472 1.55-2.973.398-.23.71-.253 1.039-.08l.695.371-.303.638c.003.047.005.096.005.145 0 1.11-.648 2.392-1.467 2.936l-.298.628-.67-.39c-.337-.189-.55-.637-.55-1.275Z"/><path fill="#FBFBFB" d="M6.832 25.608c-.552 0-.91-.526-.91-1.339 0-1.163.683-2.469 1.554-2.971.21-.122.414-.184.605-.184.552 0 .909.526.909 1.339 0 .505-.14 1.074-.393 1.602l-.007.015.005.016c.035.098.183.433.61.61.023.01.03.03.03.046a.043.043 0 0 1-.031.04 1.23 1.23 0 0 1-.37.058c-.2 0-.392-.052-.572-.153l-.03-.018-.021.028c-.237.32-.505.571-.775.727-.21.122-.414.184-.604.184Z"/><path fill="#EBEBEB" d="M8.081 21.074v.08c.528 0 .87.51.87 1.298 0 .5-.139 1.063-.39 1.585l-.014.03.01.031c.037.102.19.45.634.635l.004.004-.003.007a1.111 1.111 0 0 1-.91-.092l-.061-.035-.042.056c-.233.315-.497.563-.762.716a1.18 1.18 0 0 1-.585.179c-.528 0-.87-.51-.87-1.3 0-1.15.674-2.44 1.534-2.936a1.18 1.18 0 0 1 .585-.179v-.079Zm0 0c-.192 0-.403.061-.625.19-.869.5-1.573 1.797-1.573 3.005 0 .863.39 1.379.949 1.379.191 0 .402-.061.624-.19.287-.165.555-.424.787-.737a1.19 1.19 0 0 0 .973.099c.075-.024.078-.13.005-.16a1.034 1.034 0 0 1-.589-.588c.246-.512.397-1.085.397-1.62 0-.863-.39-1.378-.948-1.378Z"/><path fill="#F3A4A3" d="M8.026 22.888c0 .215.159.297.354.184.196-.113.354-.378.354-.592 0-.215-.158-.297-.354-.184-.195.113-.354.378-.354.592ZM6.134 23.992c0 .214.158.296.354.183.195-.112.353-.378.353-.592 0-.214-.158-.296-.353-.183-.196.112-.354.378-.354.592Z"/><path fill="#36464E" d="M6.906 24.117c0 .183.048.331.128.427.112.134.286.166.48.053.197-.113.37-.347.482-.61a1.51 1.51 0 0 0 .128-.574l-1.218.704Z"/><path fill="#F3A4A3" d="M7.034 24.544c.112.134.286.166.48.053.197-.113.37-.347.482-.61-.125-.09-.295-.09-.481.017s-.356.304-.48.54Z"/><path fill="#36464E" d="M6.964 23.058c0 .134-.07.284-.158.334-.087.05-.158-.018-.158-.152s.071-.284.158-.334c.087-.05.158.018.158.152ZM8.212 22.353c0 .134-.07.284-.158.334-.087.05-.158-.018-.158-.152s.071-.284.158-.334c.087-.05.158.018.158.152Z"/><path fill="#D0AFAC" d="M44.78 24.2c0-1.156-.704-2.499-1.571-3-.398-.23-.763-.245-1.04-.08l-.674.399.303.637a2.561 2.561 0 0 0-.005.146c0 1.11.648 2.392 1.467 2.935l.298.628.67-.39c.337-.189.551-.636.551-1.275Z"/><path fill="#FBFBFB" d="M43.153 25.914a1.2 1.2 0 0 1-.594-.18 2.64 2.64 0 0 1-.767-.72l-.033-.046-.049.028a1.127 1.127 0 0 1-.922.093.019.019 0 0 1-.015-.018c0-.005.001-.018.015-.023.437-.182.588-.524.624-.625l.008-.025-.011-.023c-.252-.525-.391-1.09-.391-1.592 0-.8.347-1.316.886-1.316.186 0 .385.061.593.181.85.49 1.542 1.815 1.542 2.951 0 .404-.088.742-.254.977a.754.754 0 0 1-.632.338Z"/><path fill="#EBEBEB" d="M41.903 21.53c.175 0 .364.058.562.172.833.481 1.51 1.78 1.51 2.897 0 .761-.323 1.253-.822 1.253-.176 0-.364-.058-.562-.172-.26-.15-.52-.394-.749-.704l-.066-.089-.097.055a1.062 1.062 0 0 1-.764.117c.382-.2.52-.516.556-.614l.018-.05-.023-.047c-.248-.517-.385-1.072-.385-1.565 0-.761.323-1.253.822-1.253Zm0-.126c-.558 0-.949.516-.949 1.379 0 .533.151 1.107.398 1.62a1.035 1.035 0 0 1-.589.587c-.073.03-.07.136.005.16a1.19 1.19 0 0 0 .973-.098c.231.312.5.571.787.737.221.128.433.189.624.189.558 0 .949-.516.949-1.379 0-1.158-.704-2.504-1.573-3.006a1.257 1.257 0 0 0-.625-.189Z"/><path fill="#445962" d="M43.43 24.32c0 .271-.07.49-.19.632-.166.199-.423.247-.711.08-.29-.168-.548-.515-.714-.904a2.24 2.24 0 0 1-.19-.852l1.805 1.044Z"/><path fill="#F3A4A3" d="M43.24 24.952c-.166.199-.423.247-.711.08-.29-.168-.548-.515-.714-.904.185-.133.437-.135.714.024.274.16.526.451.711.8Z"/><path fill="#445962" d="M43.031 23.329c0 .134.07.284.158.334.087.05.158-.018.158-.152s-.07-.284-.158-.334c-.087-.05-.158.018-.158.152ZM41.715 22.595c0 .134.07.284.158.334.087.05.157-.018.157-.152s-.07-.284-.157-.334c-.087-.05-.158.017-.158.152Z"/><path fill="#FAE1DA" d="M20.555 50.953c-.616-.417-1.455-.917-1.794-1.285-.34-.367-.457-.603-.424-.966.079-.885.686-7.275.826-8.761.233-2.497-.029-9.603-.236-11.335l-6.527.697c-.483 1.209-.839 2.697-.764 5.033.058 1.78.108 6.465.108 6.465s-.812.71-1.393 2.111c-.512 1.24-1.09 4.93-1.214 5.419-.071.281-.093.38-.24.574-.142.189-.186.436-.161.758.066.863.092 1.504.248 2.227.08.374.106.559.445.775.18.115.73.191.908-.032-.03-.039-.1-.128-.168-.32a1.575 1.575 0 0 1-.07-.4c-.008-.24-.029-.578-.024-.818.016-.748.044-.979.458-1.8.454-.898 3.665-7.312 3.665-7.312.653-1.115.993-5.293 1.456-7.658l.949 5.653s-.343 1.021-.433 1.802c-.12 1.049.242 4.612.41 6.453a4.72 4.72 0 0 1-.01 1.065c.079.634.717.75 1.208 1.109.245.178 1.32.83 1.968.962.528.107 1.133-.212.809-.416Z"/><path fill="#533A3A" d="M15.311 37.515c.164-1.027.296-1.737.296-1.737l.255 1.876.376 2.186s-.2.458-.3 1.182c-.105.756.017 1.622.129 2.638.134 1.22.285 2.356.285 2.356 1.207.63 2.24.044 2.24.044s.27-1.74.496-4.122c.225-2.382.405-3.21.395-6.196-.006-1.903.13-5.233-.857-8.64-.98.69-3.809.775-4.983-.152 0 0-.755.802-1.642 2.614-.664 1.356-.647 3-.622 5.42.029 2.825.268 5.732.268 5.732s-.482.508-.997 1.337c-.514.83-.832 2.647-.832 2.647s.691 1.136 2.467 1.183c0 0 1.605-3.145 2.04-3.857.432-.712.886-3.88.986-4.511Z"/><path fill="#433030" d="m15.606 35.778.64-3.757s1.464-.058 2.242-.998c0 0-.092 1.207-1.8 1.475l-.87 3.573.043 1.584-.255-1.877Z"/><path fill="#E8CEC8" d="M17.125 21.144c.671.117.952.097 1.573.538.62.441 3.517 5.545 3.517 5.545s-.512.289-1.254.082c-.74-.207-2.163-1.269-2.163-1.269l-1.673-4.896Z"/><path fill="#BF9892" d="M12.633 21.223s.999-.2 1.678-.206c.526-.005 1.073 0 1.616 0 .568 0 .884.056 1.198.128 0 0 .828.883 1.53 1.832.699.943 1.009 1.545.915 2.311-.074.6-.508.902-.508.902.028.575.137 1.452.097 1.841-1.25.92-5.495.815-6.678-.301.214-1.001.44-1.583.095-2.736-.354-1.182-.548-3.472.056-3.771Z"/><path fill="#FAE1DA" d="M12.633 21.223c-.721.167-1.189.39-1.415 1.218-.215.787-.382 3.003-.284 4.146.098 1.143.2 1.756.39 1.903.189.146 1.74-1.563 1.71-1.6-.03-.036.301-2.753.301-2.753s.19-2.468-.702-2.914Z"/><path fill="#E8CEC8" d="M13.35 23.538a9.667 9.667 0 0 0-.881 1.008c-.636.827-.9 1.327-.958 1.916l1.725-1.514.097-.811s.02-.247.018-.599Z"/><path fill="#FAE1DA" d="M18.881 20.246s-.058-.038-.062-.173c-.003-.136.02-.227.018-.378 0-.151-.036-.406-.17-.448-.136-.04-.239.266-.272.52-.033.254-.053.404-.255.672-.201.269-.385.622-.247.964l.988-1.157Z"/><path fill="#FAE1DA" d="M19.853 19.845c-.047-.257-.004-.57-.008-.77a2.161 2.161 0 0 0-.106-.582c-.06-.206-.095-.47-.163-.504-.067-.033-.195.032-.207.19 0 0-.08-.126-.146-.254-.066-.128-.103-.283-.212-.321-.109-.038-.181.133-.155.261.026.128.049.202.049.202s-.115.038-.043.27c.04.127.085.193.127.267.018.174.016.26.084.408.031.167.043.306.102.446-.052.113-.162.242-.182.446-.02.204.008.255-.252.474-.175.147-.464.307-.636.518-.173.21-.3.44-.138.753.16.314.287.542.435.87.112.247.214.57.663 1.736.35.905.374 1.017.555 1.35.252.466.537 1.067 1.267 1.45.73.382 1.613.366 1.564-.281-.06-.776-.224-1.395-.525-1.838-.301-.444-.412-.555-.822-1.02-.337-.382-.59-.77-.998-1.309-.401-.53-.669-1.039-.651-1.205.03-.28.199-.675.282-.878.127-.307.176-.291.116-.68Z"/><path fill="#C8A399" d="M17.893 21.403c.02.157.116.285.182.427.07.14.139.281.204.423.065.143.132.284.193.428.063.143.125.35.183.495-.072-.14-.141-.342-.21-.483-.07-.14-.134-.282-.202-.423l-.2-.424-.1-.213a.577.577 0 0 1-.05-.23Z"/><path fill="#E8CEC8" d="M19.369 18.179c.005.072.02.14.037.209.018.068.038.136.061.2l.004.01-.004.015a.772.772 0 0 0 .02.447l.007.017-.008.014a.784.784 0 0 0-.07.162c-.01.028-.018.058-.023.088-.006.03-.009.06-.012.092a.541.541 0 0 1 .01-.284c.009-.032.019-.061.034-.093l-.002.032a.64.64 0 0 1-.055-.373.588.588 0 0 1 .03-.126v.024a1.17 1.17 0 0 1-.04-.216.736.736 0 0 1 .01-.218ZM18.904 18.068a.625.625 0 0 0 .147.188l.006.005.002.012a.955.955 0 0 0 .071.242c.033.077.08.145.138.203l.018.018-.008.025a.764.764 0 0 0-.03.136 1.19 1.19 0 0 0 0 .29c.004.05.015.098.023.148a.86.86 0 0 1-.095-.445.603.603 0 0 1 .028-.157l.01.043a.663.663 0 0 1-.154-.232.77.77 0 0 1-.052-.269l.007.017a.508.508 0 0 1-.11-.224ZM19.204 19.737a.598.598 0 0 1-.096.255.867.867 0 0 1-.183.2c.023-.04.05-.075.075-.112l.075-.11c.048-.074.09-.15.13-.233ZM18.32 20.677a1.133 1.133 0 0 0-.107.47c0 .079.013.158.035.235.022.077.054.153.087.23a.66.66 0 0 1-.014-.935Z"/><path fill="#22120E" d="M18.678 15.32c-.304-.431-.839-.578-1.138-.433-.275-.367-.827-.572-1.281-.597-1.734-.095-2.288.763-2.38 1.081-.82.121-1.345 1.505-.726 2.905.31.701.99 1.468 1.06 1.86l.977-.004s.056-1.148 1.244-1.623c1.188-.475 1.86-.771 2.04-1.014.73-.743.507-1.742.204-2.174Z"/><path fill="#22120E" d="M13.695 14.131c-.461.06-.75.294-.834.74-.412-.057-.862.023-1.166.336-.214.222-.284.502-.26.806.022.274.166.42.337.61-.303.116-.461.475-.363.801.058.192.785.896.205.957.266.181.712.023.679-.34 0 .454.327.81.787.827.648.024 1.17-.337 1.32-.965l.285-3.208c-.129-.41-.541-.622-.99-.564Z"/><path fill="#FAE1DA" d="M18.46 16.657c.043.183.068.383.086.57.036.372.053.777.04 1.15-.046 1.367-.667 1.825-1.03 1.998-.227.109-.603.15-1.05.06l-.02 1.12s1.423 1.06.284 1.265c-.569.102-1.277-.09-1.783-.449-.517-.367-.732-.707-.732-.707l-.061-2.195s-.28.3-.8-.109c-.429-.338-.598-.937-.295-1.279.304-.341.888-.297 1.177.163.206.328.37.08.361-.31-.008-.395.293-.513.42-.714.431-.682.123-.884.527-1.279.232-.226.864-.314 1.345.045.553-.494 1.312-.287 1.532.671Z"/><path fill="#ECA0A0" d="M16.238 18.26c.027.16-.161.323-.42.367-.258.043-.489-.052-.516-.211-.026-.16.162-.323.42-.366.259-.043.49.051.516.21ZM18.55 18.237c0 .162-.212.293-.474.293s-.474-.131-.474-.293c0-.161.212-.292.474-.292s.474.131.474.292Z"/><path fill="#B6767B" d="m16.142 18.95.82.242a.42.42 0 0 1-.523.304.447.447 0 0 1-.297-.546Z"/><path fill="#E8A7A7" d="M16.15 19.211a.363.363 0 0 1 .517.285.403.403 0 0 1-.228 0 .438.438 0 0 1-.289-.285Z"/><path fill="#22120E" d="m17.806 16.772.394.32a.243.243 0 0 1-.35.044.266.266 0 0 1-.044-.364ZM15.542 17.277l.379-.337a.243.243 0 0 1-.013.353.266.266 0 0 1-.366-.016Z"/><path fill="#E8CEC8" d="M16.506 20.436c-1.047-.212-1.653-.602-1.844-1.02 0 0 .002.544.485.846.507.316 1.352.484 1.352.484l.007-.31Z"/><path fill="#22120E" d="M15.836 17.77c.012.125.098-.065.242-.088.143-.023.295.13.278.004-.016-.125-.152-.203-.295-.18-.144.023-.239.116-.225.264ZM18.072 17.68c-.019.123-.093-.071-.236-.102-.142-.031-.302.111-.278-.012.024-.124.164-.195.306-.163.142.03.231.13.208.276Z"/><path fill="#FAE1DA" d="M15.74 22.084c-.064-.239-.199-.408-.359-.6-.202-.24-.616-1.017-.682-1.128-.066-.112-.124-.51-.178-.772-.052-.26-.105-.436-.37-.389 0-.015-.001-.054-.006-.142-.01-.205-.073-.278-.163-.313-.06-.023-.135-.011-.135-.011s-.004-.114-.078-.205c-.085-.103-.175-.11-.223-.069-.058.05-.05.174-.082.481-.035.334-.058.602-.045.693 0 0-.082.115-.075.284.006.17.19.866.302 1.16.066.172.511.985.615 1.28.13.328-.143.746-.547 1.243-.417.513-.839 1.053-1.233 1.504-.328.377-.6.747-.877 1.193-.278.446-.42 1.164-.38 1.902.035.635.842.617 1.543.213.7-.403 1.064-.818 1.316-1.273.252-.455.483-.92.814-1.812.469-1.262.606-1.649.683-1.904.146-.487.268-.931.16-1.335Z"/><path fill="#E8CEC8" d="M13.646 21.073c.083.181.18.355.273.532.092.176.183.353.269.534.041.091.085.18.111.28a.623.623 0 0 1-.017.304 1.89 1.89 0 0 1-.28.532c-.117.163-.244.317-.37.471l-.376.464c-.252.308-.507.615-.775.91.256-.305.503-.618.75-.93l.373-.467c.125-.155.25-.31.364-.472.113-.162.222-.33.278-.519a.586.586 0 0 0 .019-.286c-.024-.092-.066-.185-.106-.275-.163-.362-.354-.713-.513-1.078ZM14.15 19.195c-.027.03-.03.07-.028.108.002.038.008.077.014.115l.028.234c.018.156.032.311.044.467.007.076.008.159.018.23.014.073.039.148.061.222l.147.446a3.514 3.514 0 0 1-.206-.424 1.636 1.636 0 0 1-.077-.228c-.01-.043-.01-.08-.014-.12l-.01-.117a12.766 12.766 0 0 1-.031-.707c0-.039 0-.079.004-.119.003-.04.017-.084.05-.107ZM13.848 18.729c-.051.013-.059.065-.057.11 0 .045.005.092.008.138.006.094.01.188.01.282.003.188-.004.375-.003.56.002.181.057.358.108.539.05.178.112.355.167.535a4.65 4.65 0 0 1-.223-.518 1.707 1.707 0 0 1-.132-.555c-.004-.19.008-.376.018-.563.006-.093.01-.186.014-.28.002-.046.004-.093.01-.141a.21.21 0 0 1 .02-.07.076.076 0 0 1 .06-.037ZM13.42 19.63c.019.099.035.197.056.292.023.096.05.19.08.283.062.187.134.374.177.572a2.757 2.757 0 0 1-.14-.267 2.628 2.628 0 0 1-.113-.28 1.447 1.447 0 0 1-.066-.298c-.01-.1-.01-.203.006-.303Z"/><path fill="#E8CEC8" d="M14.898 25.323c.192-.53.384-1.06.569-1.593a8.64 8.64 0 0 0 .236-.81c.062-.273.095-.56.023-.832l.017.012h-.001l-.014.003-.003-.014a1.144 1.144 0 0 0-.187-.379c-.08-.116-.183-.219-.264-.34-.16-.238-.302-.489-.444-.738l-.104-.188c-.018-.032-.035-.06-.053-.095a.633.633 0 0 1-.037-.105c-.038-.14-.062-.281-.088-.422-.027-.14-.048-.284-.089-.418-.021-.066-.052-.132-.108-.168-.055-.037-.129-.035-.196-.024l-.018.003-.002-.019c-.007-.108 0-.22-.037-.318a.195.195 0 0 0-.098-.112.256.256 0 0 0-.15-.022l-.016.002-.001-.016a.363.363 0 0 0-.068-.186c-.039-.052-.096-.1-.16-.098a.083.083 0 0 0-.07.048.322.322 0 0 0-.025.097c-.009.068-.014.137-.02.207l-.041.416c-.011.138-.029.278-.019.414v.005l-.002.003a.498.498 0 0 0-.067.352 7.36 7.36 0 0 0 .285 1.085 7.259 7.259 0 0 1-.301-1.082.508.508 0 0 1 .066-.367l-.002.007c-.011-.142.006-.28.016-.42l.04-.415c.005-.07.01-.14.018-.209.006-.035.01-.07.027-.105a.11.11 0 0 1 .093-.063c.081-.003.142.053.185.108a.387.387 0 0 1 .074.201l-.017-.014a.287.287 0 0 1 .169.024.229.229 0 0 1 .113.128c.02.054.029.11.033.165l.008.164-.02-.016c.072-.012.154-.015.221.029.067.043.1.116.124.184.043.14.064.282.092.423.027.14.052.282.09.418.009.034.02.068.034.098l.053.093.104.188c.14.25.28.501.438.738.078.118.18.222.261.34.085.118.153.25.19.39l-.018-.01h.001l.014-.003.004.013c.072.28.036.57-.027.844a8.417 8.417 0 0 1-.241.812c-.187.533-.392 1.06-.59 1.587Z"/><path fill="#FAD6C8" d="M38.138 50.115c-.451.256-1.249.262-1.811-.021l-.71-5.088 2.443-.192.078 5.301Z"/><path fill="#F8C8B4" d="M33.11 49.397c-.367.843-1.335.666-2.133.15L30.585 44l2.7.543-.175 4.854Z"/><path fill="#533A3A" d="M37.272 27.97c.17 3.315.29 5.506.416 11.458 0 0 .302 1.567.387 3.25.075 1.488.093 5.385.093 5.385s-1.157.443-2.217.056c0 0-1.14-5.697-1.509-7.767-.324-1.819-.767-4.916-.767-4.916l-.234 4.259s.322 1.439.246 3.049c-.046.978-.429 5.24-.429 5.24s-1.252.443-2.443-.156c0 0-.634-7.295-.672-8.18-.042-1.009.012-12.369.012-12.369l7.117.69Z"/><path fill="#392626" d="m33.675 35.435-.307-2.54s-1.279-.13-2.03-.854c0 0 .015.752 1.573 1.29l.447 1.865.083 4.499.234-4.26Z"/><path fill="#FAD6C8" d="M28.256 26.1s1.274-3.069 1.735-4.165c.462-1.095 1.053-1.499 1.74-1.497l.148 3.688s-1.311 2.566-1.741 3.362c-.43.798-.581 1.008-.89 1.425l-.992-2.813Z"/><path fill="#947777" d="M31.909 20.332c-1.02.07-1.299.406-1.624.883-.325.477-1.666 3.827-1.666 3.827s.052.426.94 1.045c.89.618 1.457.647 1.457.647l1.44-3.924-.548-2.478Z"/><path fill="#C8A399" d="M28.386 25.783c.873.714 1.098 1.513 1.027 2.109l-.688-.46-.47-1.332s.05-.118.131-.317Z"/><path fill="#FAD6C8" d="M29.384 27.643c-.063-.22-.107-.531-.611-1.065-.505-.534-1.399-1.141-1.642-1.407a1.675 1.675 0 0 1-.36-.587c.068-.04.127-.056.228-.224.082-.138.134-.297.134-.297.068.121.266.253.328.142.063-.11.11-.41.198-.593.097-.202.122-.362.094-.454-.029-.093-.177-.178-.177-.178s.064-.174-.064-.274c-.16-.127-.51-.302-.51-.302s1.099-.306 1.414-.55c.315-.244.378-.551.171-.564-.372.125-.694.221-1.163.367a6.516 6.516 0 0 1-1.196.246c-.405.053-.245.256-.35.458-.069.128-.29.192-.305.392-.015.2-.043.259-.133.354-.089.095-.066.292-.151.415-.085.124-.351.51-.238.878.113.368.337.79.757 1.741.42.951.466 1.17 1.036 1.834.543.633.98.832 1.332 1.028.353.197.655.366 1.07-.088.165-.348.218-.767.138-1.272Z"/><path fill="#C8A399" d="m27.002 22.404-.42-.222.672.147-.252.075ZM27.576 22.98a1.348 1.348 0 0 1-.081.373c-.027.056-.064.122-.128.15-.062.03-.126.033-.188.044.058-.028.121-.041.171-.073.05-.03.08-.082.104-.139.052-.111.073-.237.122-.355Z"/><path fill="#C8A399" d="M26.386 22.782c.138.076.28.147.42.22.07.036.14.074.208.115.034.021.068.042.1.07.034.03.05.075.061.113a1.338 1.338 0 0 1 .019.36c-.004.04-.007.085-.03.122a.753.753 0 0 1-.155.184c-.061.05-.126.104-.205.118.076-.021.135-.08.19-.134a.738.738 0 0 0 .14-.183c.018-.033.017-.07.021-.11.003-.038.004-.077.004-.116a.957.957 0 0 0-.027-.23.184.184 0 0 0-.048-.093.633.633 0 0 0-.092-.067c-.066-.042-.136-.079-.204-.119a5.658 5.658 0 0 1-.402-.25Z"/><path fill="#C8A399" d="M26.165 23.317c.18.091.367.168.544.271a.496.496 0 0 1 .032.023c.012.009.022.023.028.036.012.026.016.053.02.078.006.052.005.104.003.155a1.803 1.803 0 0 1-.042.304.431.431 0 0 1-.19.246c-.024.014-.044.026-.072.036a.16.16 0 0 1-.086 0 .48.48 0 0 1-.142-.066 1.084 1.084 0 0 1-.232-.2.275.275 0 0 1-.062-.14.122.122 0 0 1 .07-.128.116.116 0 0 0-.06.126.263.263 0 0 0 .069.127c.067.072.148.135.233.186a.51.51 0 0 0 .133.057.116.116 0 0 0 .064 0c.019-.006.042-.02.062-.032a.392.392 0 0 0 .17-.224c.025-.093.036-.196.044-.294a.914.914 0 0 0 0-.148.273.273 0 0 0-.016-.068c-.006-.02-.024-.03-.045-.046-.083-.054-.174-.1-.262-.15a8.524 8.524 0 0 1-.263-.15Z"/><path fill="#C8A399" d="M26.346 24.206a.379.379 0 0 1-.131-.082.219.219 0 0 1-.07-.147l.044.003a.188.188 0 0 0 .042.13c.03.04.07.071.115.096Z"/><path fill="#C8A399" d="M26.437 23.947a.352.352 0 0 1-.18.047.757.757 0 0 1-.186-.02.634.634 0 0 1-.323-.181c.104.066.216.11.333.137a.956.956 0 0 0 .177.03c.06.005.12.003.18-.013ZM26.27 24.376a.762.762 0 0 1-.185.364.619.619 0 0 1-.362.172.61.61 0 0 0 .346-.187.731.731 0 0 0 .157-.358l.044.01Z"/><path fill="#C8A399" d="M26.284 24.394s.09.044.141.058c.051.013.14-.05.216-.115.076-.066.106-.242.106-.242.109-.012.178-.072.236-.119.058-.047.154-.178.154-.178s-.063.135-.003.265c0 0-.053.16-.135.296-.1.169-.16.185-.228.224-.155.07-.244.03-.398.021-.158-.008-.337.168-.337.168.1-.122.18-.245.207-.372l.04-.006Z"/><path fill="#947777" d="M34.398 20.072c.59.048 1.959.323 2.566.429.597.104.664 1.011.641 1.51a589.683 589.683 0 0 0-.193 5.034c0 1.59-.016 3.098.028 3.724-.882.902-5.203 1.224-7.373-.173 0 0-.004-1.573 0-2.377.008-1.498.012-3.345.21-5.166.205-1.897 1.417-2.7 1.631-2.72 0 0 2.028-.298 2.49-.26Z"/><path fill="#FAD6C8" d="M38.669 21.436c-.353-.54-.6-.668-1.634-.872-.91.725-.646 3.515-.646 3.515l-.233 2.227s-.27-.271-.565-.627c-.858-1.036-1.197-1.57-1.63-1.97-.444-.411-1.542-.821-1.934-1.112-.326-.242-.613-.262-.89-.375-.794-.32-1.587-.808-1.65-.735-.124.148-.087.412.146.653.318.329 1.353.827 1.353.827a.339.339 0 0 1-.11.164c-.1.079-.146.14-.137.265.01.125-.015.19-.112.272-.097.08-.139.092-.139.384 0 .291.028.684.05.786.021.102.11.145.418.175.31.03.393.038.459.004s.136-.253.136-.253l.576.368c.27.172.484.207.776.195.292-.012.365.117.662.54.557.792.987 2.049 1.484 2.66.497.613 1.024 1.093 1.736 1.396.712.304 1.061-.007 1.27-.45.266-.562.368-1.122.508-1.973.192-1.164.245-1.79.386-3.328.148-1.619.087-2.177-.28-2.736Z"/><path fill="#C8A399" d="M30.365 22.64c.01.006.212.093.428.126.238.038.478-.043.478-.043-.146.045-.247.135-.284.244 0 0-.315-.148-.622-.326ZM31.552 24.764a2.01 2.01 0 0 0-.385-.176l.015-.042c.132.06.255.133.37.218Z"/><path fill="#C8A399" d="M31.198 24.49a.164.164 0 0 1-.014.093.263.263 0 0 1-.06.076.29.29 0 0 1-.175.064c.053-.034.104-.06.147-.098a.348.348 0 0 0 .059-.059.448.448 0 0 0 .043-.077ZM32.903 25.327c.292-.012.365.117.663.54.148.212.287.456.421.712l.001.002c-.337-.77-.587-1.577-.8-1.498-.213.078-.45.245-.872.152.19.083.366.101.587.092ZM30.74 23.396c.049.053.12.072.059.143a.733.733 0 0 1-.171.129c.096-.082.122-.147.112-.272ZM30.986 22.967c.005.048.108.01.087.045-.021.035-.13.091-.218.136l.02-.016a.345.345 0 0 0 .111-.165l-.013-.01c.007 0 .012.003.013.01ZM36.156 26.306c.78.578 1.13.864 1.45 1.81-.04-1.32-1.396-2.323-1.396-2.323l-.054.513Z"/><path fill="#947777" d="M36.964 20.5c.344.053 1.142.137 1.52.578.378.441.557.722.599 1.684.042.962-.3 3.71-.3 3.71s-.624.224-1.401.077c-.777-.147-1.226-.58-1.226-.58l.113-2.237s-.206-2.401.695-3.231Z"/><path fill="#33201C" d="M36.449 15.262c-.25-.567-.692-.565-.692-.565s-.04-.454-.647-.877c-.696-.486-1.434-.627-2.381-.476-.84.134-2.052.626-2.05 2.363.003 1.17.979 1.876 2.056 1.91a1.95 1.95 0 0 0 1.739-.956c.29.231.76.742.76.742l-.058.727.188 1.002s.245-.602.379-.842.28-.441.588-1.03c.477-.912.267-1.657.118-1.998Z"/><path fill="#FAD6C8" d="M35.21 17.285c.17.158.324-.233.476-.382.152-.15.64-.346.864.167.228.523-.244 1.235-.619 1.367-.405.143-.558-.211-.558-.211l.012 2.174c-.458.874-1.703 1.07-2.224 1-.522-.072-.622-.62-.227-1.048l-.014-.688s-.315.022-.675-.035c-.479-.077-.943-.498-1.09-1.223-.17-.85-.297-2.198-.006-3.399.548-.4 2.592-.567 3.7.179.047 1.616.189 1.942.36 2.1Z"/><path fill="#33201C" d="M31.123 14.875c-.304.467-.444 1.302.127 1.594 0-.51.241-.905.514-.94-.092.388.092.637.194.72.111.092.3.163.453.146a.625.625 0 0 1-.089-.276.488.488 0 0 1 .057-.287c.04.106.127.254.19.32.147.16.438.277.66.256-.067-.228-.029-.612.26-.8.047.175.167.42.307.545.155.14.382.26.581.32.136.04.3.08.488.194a.363.363 0 0 1 .143.228c.688-.765.378-1.61.006-2.02-.636-1.284-3.148-1.297-3.89 0Z"/><path fill="#C8A399" d="M32.92 19.665s1.046-.066 1.55-.387c.24-.153.413-.361.478-.507 0 0 .013.295-.312.594-.492.455-1.716.545-1.716.545v-.245Z"/><path fill="#ECA0A0" d="M33.567 17.516c-.027.16.161.324.42.367.258.043.49-.052.516-.211.027-.16-.161-.323-.42-.366-.259-.043-.49.05-.516.21ZM31.526 17.853c.262 0 .474-.131.474-.293 0-.161-.212-.292-.474-.292s-.474.13-.474.292c0 .162.212.293.474.293Z"/><path fill="#B6767B" d="m33.397 18.125-.82.242a.42.42 0 0 0 .523.304.448.448 0 0 0 .297-.546Z"/><path fill="#E8A7A7" d="M33.39 18.386a.36.36 0 0 0-.518.285c.072.02.15.023.228 0a.435.435 0 0 0 .29-.285Z"/><path fill="#33201C" d="m31.695 16.004-.42.283c.074.12.228.154.344.076a.266.266 0 0 0 .076-.359ZM33.872 16.311l-.402-.308a.243.243 0 0 0 .038.35.267.267 0 0 0 .364-.042ZM33.76 16.883c-.011.125-.097-.065-.24-.088-.144-.023-.296.129-.28.004.017-.125.152-.203.296-.18.144.023.239.116.224.264ZM31.412 16.895c.019.125.094-.07.236-.1.142-.032.302.11.278-.013-.024-.124-.164-.195-.306-.163-.142.031-.231.13-.208.276ZM32.651 18.064c.001-.01-.11-.028-.289-.048-.045-.004-.088-.012-.096-.044-.011-.032.007-.081.028-.134l.13-.347c.18-.494.31-.9.29-.907-.02-.007-.182.388-.362.881l-.124.35c-.017.05-.046.11-.022.177a.114.114 0 0 0 .076.066c.03.008.055.009.077.01.18.007.292.007.292-.004Z"/><path fill="#22120E" d="M16.93 18.689c0-.01.11-.028.29-.049.045-.003.088-.012.096-.043.01-.033-.007-.082-.029-.135l-.13-.346c-.18-.494-.31-.9-.29-.907.02-.007.182.387.363.88l.124.35c.016.051.045.11.021.178a.113.113 0 0 1-.075.065c-.03.009-.055.01-.077.01-.18.008-.292.007-.293-.003Z"/><path fill="#BF9892" d="m38.689 11.51-.531-.306a.503.503 0 0 0 .004-.065v-.154a.95.95 0 0 0-.43-.744c-.095-.055-.184-.07-.255-.049-.039-.39-.31-.83-.637-1.019-.355-.205-.642-.038-.642.371v.23c0 .106.02.218.054.33l-.442-.255c-.131-.076-.238-.014-.238.137 0 .152.107.337.238.413l2.879 1.662c.131.075.238.014.238-.138a.527.527 0 0 0-.238-.412ZM31.666 6.258l-.325-.25v-.716c0-.568-.453-1.227-.945-1.511-.491-.284-.89-.054-.89.514v.104a1.269 1.269 0 0 0-.413-.414c-.354-.204-.64-.038-.64.37v.047l-.454-.262c-.233-.134-.422-.025-.422.244s.189.596.422.73l3.667 2.118c.232.134.421.025.421-.244a.933.933 0 0 0-.421-.73Z" opacity=".19"/></g></g><defs><clipPath id="a"><rect width="48" height="48" fill="#fff" rx="24"/></clipPath><clipPath id="b"><path fill="#fff" d="M0 0h48v48H0z"/></clipPath></defs></svg>