<svg xmlns="http://www.w3.org/2000/svg" width="48" height="48" fill="none"><g clip-path="url(#a)"><rect width="48" height="48" fill="#fff" rx="24"/><g clip-path="url(#b)"><path fill="#F8DF88" d="M31.693 7.666c.05.724-.596 1.369-1.443 1.441-.847.072-1.575-.456-1.625-1.18-.05-.724.596-1.368 1.443-1.44.848-.072 1.575.456 1.625 1.18Zm-14.32 14.877c3.107 0 5.626-2.068 5.626-4.62 0-2.551-2.519-4.62-5.626-4.62-3.106 0-5.625 2.068-5.625 4.62s2.519 4.62 5.625 4.62Zm24.683 6.893c.79 0 1.432-.617 1.432-1.38 0-.762-.641-1.38-1.432-1.38-.79 0-1.432.618-1.432 1.38 0 .762.641 1.38 1.432 1.38ZM18.293 42.475c2.888.825 4.532 3.751 3.679 6.528a4.96 4.96 0 0 1-.432 1.003l-7.451 1.212c-1.075-.307-3.443-1.37-4.487-1.728.032-.329 1.816-3.14 1.916-3.47.854-2.777 3.887-4.369 6.775-3.545Z" opacity=".44"/><path d="M27.648 42.365c.087-.002.16.053.163.124.004.071-.064.131-.15.134-.086.003-.16-.052-.163-.124-.003-.071.064-.13.15-.134Zm8.692.275c.14 0 .253-.093.253-.209 0-.116-.113-.21-.254-.21-.14 0-.254.094-.254.21 0 .116.114.21.254.21Zm.585-25.284-.297.891.307.052.52-.688-.53-.255Zm-4.833-5.51 1.007.408.119-.239-.723-.55-.403.381Zm-3.939-8.513 1.094.202.049-.255-.86-.396-.283.45Zm8.68 21.493 1.094.202.048-.255-.858-.395-.284.448Zm1.087-13.229.759-.015.08-.154-.553-.126-.286.295Zm-2.664-6.438.553.804.262-.142-.221-.79-.594.128Zm-5.801 2.585a.18.18 0 0 0 .22-.005c.06-.052.057-.134-.006-.183a.18.18 0 0 0-.221.006c-.06.052-.056.133.007.182Zm3.504 37.985c.086-.003.153-.063.15-.134-.004-.071-.076-.127-.163-.124-.086.003-.154.063-.15.134.004.071.077.127.163.124ZM27.403 11.79l1.075.265.07-.252-.824-.444-.32.431Zm5.374-10.743 1.103.17.037-.256-.875-.37-.265.456Zm-.412 40.141.921-.527-.195-.202-.935.253.21.476Zm-14.812-5.077 1.006.408.12-.239-.723-.55-.403.381Zm20.411 1.858 1.094.202.048-.255-.859-.396-.283.449Zm-.979-6.249.759-.015.08-.154-.553-.126-.286.294Zm-14.337-5.414.553.803.262-.142-.222-.79-.593.129Zm.236-18.836a.18.18 0 0 0 .222-.006c.059-.052.056-.133-.007-.182a.18.18 0 0 0-.222.006c-.059.051-.056.133.007.182Zm-9.546-4.752 1.075.264.07-.252-.824-.443-.321.43Zm8.942 30.295 1.101.17.038-.256-.875-.37-.265.456Zm17.836-17.599c.087 0 .157-.058.157-.13 0-.07-.07-.128-.157-.128-.086 0-.156.058-.156.129 0 .071.07.129.156.129Zm1.589 7.31c.086-.003.16.052.163.124.003.071-.064.131-.15.134-.087.002-.16-.053-.163-.124-.004-.072.064-.131.15-.134Zm4.658 2.119c.14-.005.259.085.264.2.006.116-.104.214-.244.219-.14.004-.258-.086-.264-.202-.005-.116.104-.213.244-.217Zm-5.095 2.687.753-.685-.245-.16-.841.42.333.424Zm1.655-7.16 1.094.202.048-.255-.858-.395-.284.448Zm-.832 10.974.454.64-.224.093-.577-.445.347-.288Zm4.999 13.343c.086-.003.153-.063.15-.134-.004-.07-.076-.127-.163-.124-.086.003-.154.063-.15.134.003.071.076.127.163.124ZM45.025 3.844l.921-.527-.195-.202-.935.253.21.476Zm-34 25.518 1.271.235.057-.297-.998-.46-.33.522Zm8.615-.874c.14 0 .254-.094.254-.21 0-.116-.114-.21-.254-.21s-.254.094-.254.21c0 .116.114.21.254.21Zm-1.876 3.448c.087-.003.154-.063.15-.134-.003-.071-.075-.127-.162-.124-.086.003-.154.063-.15.134.003.071.076.127.162.124Zm-1.368-6.232.92-.527-.195-.203-.934.254.209.476ZM15.38 41.452c.087-.002.154-.062.15-.133-.003-.072-.075-.127-.162-.124-.086.002-.154.062-.15.133.004.072.076.127.163.124ZM3.395 32.36c.14 0 .254-.093.254-.209 0-.116-.114-.21-.254-.21s-.254.094-.254.21c0 .116.113.21.254.21ZM-.853 1.566l1.007.408.12-.239-.723-.55-.404.381Zm12.177 39.952 1.094.202.048-.255-.858-.395-.284.448ZM4.33 36.535c.086-.003.154-.063.15-.134-.004-.07-.076-.126-.163-.124-.086.003-.153.063-.15.134.004.071.077.127.163.124Zm-2.117-1.141.92-.527-.194-.202-.935.253.21.476Zm11.395-2.263 1.094.202.049-.255-.859-.396-.284.449ZM7.573 24.81l.758-.015.08-.154-.552-.126-.286.294ZM7.166 4.876c.086-.003.16.052.163.124.003.071-.064.131-.15.134-.087.002-.16-.053-.163-.124-.003-.071.064-.131.15-.134Zm1.594 7.568c.087-.003.16.052.163.124.004.071-.064.131-.15.134-.086.002-.159-.053-.163-.124-.003-.071.064-.131.15-.134Zm-.436 4.806.753-.685-.245-.16-.842.42.334.424Zm.823 3.814.455.64-.225.093-.577-.445.347-.288Z" fill="#F8DF88" opacity=".27"/><g fill="#F8DF88" opacity=".27"><path d="M11.026 37.703a.084.084 0 0 1-.086-.082v-3.718c0-.046.039-.083.086-.083.048 0 .086.037.086.083v3.718a.084.084 0 0 1-.086.082Z"/><path d="M9.662 37.16a.087.087 0 0 1-.06-.025.08.08 0 0 1 0-.117l2.727-2.63a.088.088 0 0 1 .121 0 .08.08 0 0 1 0 .118l-2.728 2.629a.083.083 0 0 1-.06.024Z"/><path d="M12.956 35.845H9.098a.084.084 0 0 1-.086-.083c0-.046.038-.083.085-.083h3.859c.047 0 .085.037.085.083a.085.085 0 0 1-.085.083Z"/><path d="M12.39 37.16a.087.087 0 0 1-.06-.025l-2.73-2.63a.08.08 0 0 1 0-.116.088.088 0 0 1 .122 0l2.728 2.629a.08.08 0 0 1 0 .117.086.086 0 0 1-.06.024Z"/></g><path fill="#F8DF88" d="m15.804 10.016-.059.249-.06.259a40.753 40.753 0 0 0-.649 3.664c-.083.69-.14 1.375-.145 2.017-.001.161.002.318.009.47.006.152.017.299.033.436s.037.265.062.375c.025.11.056.201.081.25l.009.019a.066.066 0 0 1 .008.01c.005.01.008.006.01.008h.002s0 .003.002.005l.004.007.016.029.03.058.063.115c.04.077.083.154.126.23l.129.231a36.836 36.836 0 0 0 1.112 1.832c.197.303.397.604.6.905a53.562 53.562 0 0 0 2.269 3.083l.168.21.083.102.04.05.02.023a.371.371 0 0 0 .016.019c1.041 1.014.976 2.598-.146 3.539-1.123.94-2.877.881-3.919-.133a2.563 2.563 0 0 1-.325-.384l-.168-.248-.049-.073-.043-.066-.085-.128-.164-.254a50.489 50.489 0 0 1-.936-1.515 56.007 56.007 0 0 1-1.713-3.097 39.865 39.865 0 0 1-1.016-2.147l-.118-.275a9.534 9.534 0 0 1-.116-.277l-.12-.295a3.32 3.32 0 0 1-.095-.251l-.04-.12-.032-.116a5.103 5.103 0 0 1-.152-.833 7.319 7.319 0 0 1-.036-.725c-.001-.23.007-.453.021-.668.014-.216.033-.428.057-.634.095-.828.247-1.606.422-2.37s.377-1.51.595-2.249a47.15 47.15 0 0 1 .523-1.651l.094-.276.1-.285c.302-.86 1.318-1.337 2.27-1.065.894.256 1.414 1.08 1.225 1.892l-.013.048Z"/><path fill="#FAD2C3" d="M15.823 8.831s-1.371 1-2.533.438c-.938-.453-1.003-1.708-.993-2.174.002-.112.009-.178.009-.178s-.063-.04-.147-.11c-.199-.165-.52-.491-.438-.827.115-.48 1.056-.11 1.056-.11s-.075-.6.234-.743c.304-.14.847.217.847.217s-.96-2.505-.508-2.635c.68-.194 1.52 2.466 1.54 2.526 0-.065.028-2.798.525-2.608.433.167.566 2.467.594 3.092l.007.156.096.01c.288.037 1.127.192 1.216.741.107.664-1.505 2.205-1.505 2.205Z"/><path fill="#C8A399" d="M14.601 6.802c-.024.053-.079.122-.204.145-.265.047-.605-.12-.857-.28.077.219.102.452.032.61a.31.31 0 0 1-.236.184.664.664 0 0 1-.271-.024c-.257-.066-.567-.228-.768-.343a2.41 2.41 0 0 1 .01-.177s-.063-.041-.148-.111a.11.11 0 0 1 .053.017c.31.196.878.496 1.085.458.027-.005.061-.018.087-.074.077-.172-.024-.566-.207-.808a.086.086 0 0 1 .016-.121.11.11 0 0 1 .136.001c.184.155.727.542 1.028.488.043-.008.052-.025.056-.034.055-.124-.158-.493-.32-.702a.087.087 0 0 1 .026-.128.11.11 0 0 1 .142.023c.077.1.456.614.34.876Zm1.902.422a3.68 3.68 0 0 1-.795-.1c-.207-.053-.407-.135-.532-.26a.431.431 0 0 1-.136-.36c.049-.486.63-.7.974-.785l.006.156s.036.002.096.01c-.288.066-.835.241-.873.635a.26.26 0 0 0 .083.22c.242.242.933.3 1.179.3.056 0 .102.042.1.093 0 .05-.046.091-.102.091Zm-2.385 1.522a.096.096 0 0 1-.07-.066c-.015-.049.018-.1.072-.112.293-.067.503-.208.623-.419.308-.54-.04-1.367-.044-1.375-.02-.047.005-.1.058-.119.052-.018.111.005.131.053.016.036.385.913.036 1.525-.148.26-.401.432-.753.513a.106.106 0 0 1-.053 0Z"/><path fill="#EDCF7C" d="M13.122 23.98s2.574.877 5.48-.816l.4 1.776-3.682 2.649-2.198-3.609Z"/><path fill="#D4C096" d="m21.558 25.308.305.233c3.807-.11 7.373-.395 10.19-2.954 1.387-1.26 1.96-3.29 2.195-4.771.255-1.597.184-2.92.183-2.932l-.266.012c.001.013.07 1.315-.181 2.89-.23 1.444-.785 3.419-2.12 4.63-2.817 2.56-6.443 2.788-10.306 2.892Z"/><path fill="#E1C361" d="M39.335 10.165a4.54 4.54 0 0 1-2.082 3.144c-.499.311-.96.672-1.397 1.059-.26.23-.573.436-.924.537a1.727 1.727 0 0 1-.199.045c.026.08.034.168-.013.235a.336.336 0 0 1-.153.107.717.717 0 0 1-.694-.09.31.31 0 0 1-.113-.141c-.025-.076.01-.159.06-.229-.395-.177-.687-.501-.898-.843a9.562 9.562 0 0 0-1.016-1.37 4.272 4.272 0 0 1-1.03-3.546c.349-2.216 2.272-3.83 4.417-3.806.163.002.327.014.492.035 2.336.301 3.925 2.478 3.55 4.863Z"/><path fill="#DA4444" d="M34.733 14.95c.026.08.034.168-.013.235a.336.336 0 0 1-.153.107.717.717 0 0 1-.694-.09.31.31 0 0 1-.113-.141c-.025-.076.01-.159.06-.229-.395-.177-.687-.501-.898-.843a9.562 9.562 0 0 0-1.016-1.37 4.272 4.272 0 0 1-1.03-3.546c.349-2.216 2.272-3.83 4.417-3.806 0 0-2.83.695-3.068 3.7-.173 2.183 1.393 4.737 2.706 5.938-.064.019-.13.034-.198.045Z" opacity=".33"/><path fill="#fff" d="M38.545 10.794c.194-.834.162-1.708-.21-2.5-.36-.766-1.002-1.491-1.866-1.82-1.08-.413-2.204-.132-3.133.436.689-1.196 2.395-1.653 3.734-.942.253.134.514.3.775.508 1.527 1.209 1.479 3.703.761 4.907a7.39 7.39 0 0 1-.598.861c.231-.466.42-.95.537-1.45Z" opacity=".27"/><path fill="#22120E" d="M16.296 25.416c2.148 1.624 9.734 2.37 11.713 1.67-.606-1.974.338-7.221.421-8.687.136-.264.642-2.155-.926-3.46-1.705-1.42-3.61-1.512-5.294-.707-1.347.723-1.834 1.594-2.411 4.048-.36 1.535-2.392 6.527-3.503 7.136Z"/><path fill="#D0B764" d="M26.384 46.148s7.23 9.771 9.416 11.431c0 0-1.225 2.188-1.559 5.045-.272 2.334-2.27 7.735-2.27 7.735l3.19 1.598s7.172-11.781 6.641-15.338c-.28-1.872-9.468-13.947-9.468-13.947l-5.95 3.476Z"/><path fill="#fff" d="M32.791 69.968a.11.11 0 0 1-.032-.006c-.053-.017-.08-.07-.062-.118.02-.05 1.963-5.059 2.267-7.687.277-2.393 1.58-4.384 1.851-4.776-3.147-2.426-8.856-11.021-8.914-11.108-.029-.045-.013-.101.035-.127a.109.109 0 0 1 .14.032c.059.087 5.834 8.783 8.939 11.114.04.03.048.083.02.122-.016.021-1.565 2.148-1.867 4.763-.307 2.65-2.259 7.679-2.278 7.73a.102.102 0 0 1-.099.06Z"/><path fill="#D0B764" d="M27.164 46.6a27.8 27.8 0 0 1-.48.2c-2.06.84-5.05 3.565-6.151 2.482-.25-.245-1.315-1.828-1.85-2.704a9.455 9.455 0 0 1-.403-.736c-.527-1.068-.684-2.093-.684-2.093l11.777-5.066s.533.552 1.153 1.286c.449.531.944 1.158 1.314 1.74h.002c.22.348.398.68.494.964.307.91-2.19 2.64-5.172 3.926Z"/><path fill="#fff" d="M31.463 42.725c-1.367-.03-2.174-1.066-2.183-1.078-.032-.042-.02-.1.026-.129a.11.11 0 0 1 .142.024c.042.055 1.046 1.338 2.736.915.054-.013.11.015.126.065.015.05-.017.1-.072.114a2.965 2.965 0 0 1-.775.089Zm-4.555 3.987a.106.106 0 0 1-.075-.032.086.086 0 0 1 .01-.13c.012-.01 1.177-.965.925-3.092-.006-.05.035-.096.09-.102.057-.005.107.032.114.083.264 2.229-.943 3.21-.994 3.25a.116.116 0 0 1-.07.023Z"/><path fill="#D0B764" d="m32.048 58.851-.082-.265-.073-.234-.074-.23-.075-.227-.075-.224-.076-.224-.078-.22a57.95 57.95 0 0 0-.649-1.726 73.905 73.905 0 0 0-1.42-3.332 81.308 81.308 0 0 0-1.56-3.243l-.414-.799c-.14-.265-.28-.531-.425-.794a53.08 53.08 0 0 0-.437-.79l-.225-.394-.115-.197-.119-.199c-.775-1.302-2.51-1.932-4.098-1.415-1.747.568-2.652 2.308-2.023 3.885l.01.025.08.198.082.202.168.403c.114.269.229.538.346.805.115.268.235.535.352.803l.359.8c.48 1.065.974 2.124 1.467 3.177l1.474 3.14c.108.23.215.46.32.69l-.374.052c-.287.037-.579.075-.875.107-.593.064-1.2.124-1.813.174-1.227.105-2.48.188-3.74.269l-1.896.12-.95.063-.475.033-.236.017-.114.009c-.046.632-.181 1.265-.25 1.888-.067.605-.14 1.21-.222 1.813l.032.007.253.05.245.049.489.09a61.5 61.5 0 0 0 6.927.815 44.117 44.117 0 0 0 3.101.072c.355-.008.716-.02 1.085-.041.37-.02.748-.05 1.144-.098.398-.048.81-.109 1.273-.21.232-.05.477-.112.746-.197.269-.086.568-.196.914-.366a5.27 5.27 0 0 0 .572-.332c.21-.142.437-.317.675-.559a3.661 3.661 0 0 0 .81-1.26 3.318 3.318 0 0 0 .203-1.002 3.42 3.42 0 0 0-.163-1.178Z"/><path fill="#fff" d="M20.695 49.488a.118.118 0 0 1-.128-.058c-.026-.052-.001-.114.056-.138a3.62 3.62 0 0 0 1.153-.87c.723-.813.99-1.83.798-3.025-.01-.057.034-.11.096-.118.063-.008.12.03.13.088.254 1.566-.323 2.601-.852 3.193a3.781 3.781 0 0 1-1.229.92.101.101 0 0 1-.024.008Z"/><path fill="#F8DF88" d="m24.555 26.717.054.173.052.157.106.308a25.25 25.25 0 0 0 .712 1.796 23.655 23.655 0 0 0 1.171 2.335 18.02 18.02 0 0 0 1.527 2.275c.298.372.618.74.979 1.1.088.09.184.18.277.269l.146.132.074.066.077.066c.201.174.421.343.652.508.465.329.998.638 1.629.873.313.118.65.218 1.006.283l.066.013.017.003.045.008.117.016c.078.01.157.016.235.02a3.043 3.043 0 0 0 .509-.027 3.223 3.223 0 0 0 .375-.082 2.78 2.78 0 0 0 .335-.124l.053-.023.047-.024a3.196 3.196 0 0 0 .27-.153c.049-.032.097-.067.143-.101l.07-.054.034-.027.017-.014.014-.011a3.3 3.3 0 0 0 .107-.099l.052-.05.026-.026.023-.024c.055-.06.108-.12.159-.183.18-.23.283-.42.37-.594l.058-.126.049-.118c.034-.08.057-.15.084-.225.099-.287.16-.54.21-.785.097-.486.15-.932.185-1.37.067-.875.07-1.71.038-2.541-.012-.415-.04-.828-.07-1.24-.017-.205-.037-.41-.057-.617-.01-.103-.023-.206-.035-.31l-.018-.155-.021-.162c-.108-.839-.95-1.44-1.88-1.342-.82.087-1.435.69-1.492 1.409l-.003.035-.092 1.148c-.029.386-.066.77-.099 1.153a34.497 34.497 0 0 1-.274 2.234c-.061.354-.128.7-.212.994-.04.145-.084.28-.124.371-.01.02-.02.045-.027.057l-.011.02a.065.065 0 0 0-.008.012c-.006.006-.007-.006.045-.074a.509.509 0 0 1 .064-.076l.012-.012.023-.024a.777.777 0 0 1 .05-.044l.007-.005.008-.008.018-.016a.873.873 0 0 1 .117-.084 1.185 1.185 0 0 1 .164-.095l.063-.03a1.379 1.379 0 0 1 .22-.08 1.677 1.677 0 0 1 .255-.056c.058-.008.115-.016.172-.019a1.847 1.847 0 0 1 .4.023l.019.003.006.001h-.004l-.014-.005a1.483 1.483 0 0 1-.252-.086 3.029 3.029 0 0 1-.623-.372 4.692 4.692 0 0 1-.34-.282l-.043-.038-.043-.04-.086-.081c-.056-.057-.114-.111-.171-.172a8.947 8.947 0 0 1-.666-.774 10.772 10.772 0 0 1-.317-.428 19.099 19.099 0 0 1-.309-.448c-.202-.304-.396-.62-.582-.942a27.714 27.714 0 0 1-1.053-2.005c-.164-.343-.32-.69-.474-1.038-.077-.174-.15-.348-.224-.521l-.107-.258-.097-.239-.025-.064c-.397-.975-1.593-1.475-2.673-1.117-1.03.34-1.58 1.343-1.287 2.279Z"/><path fill="#FAD2C3" d="M32.708 26.311c-.008.21.225.522.577.74.241.15.155.725.155.725.697.855 2.207.649 2.577-.103 0 0-.063-.909.106-1.402.266-.78.367-2.546.152-2.844-.313-.437-1.782-.616-2.36-.45-.577.165-1.611 1.606-1.711 1.795-.101.188-.47.999-.11 1.535.121.181.572.13.614.004Z"/><path fill="#C8A399" d="M33.932 25.118c.052-.005.096-.04.104-.089.025-.141.006-.399-.22-.467-.485-.146-1.38-.012-1.419-.006-.063.01-.106.065-.096.122.011.057.071.096.136.087.008-.002.875-.132 1.304-.003.074.023.075.17.064.235-.01.057.035.111.098.12a.1.1 0 0 0 .03.001Zm.758-.62c.052-.005.096-.04.105-.09.024-.14.005-.398-.222-.466-.481-.146-1.651-.026-1.7-.022-.065.007-.11.06-.104.117.008.058.065.099.128.094h.002c.012-.002 1.168-.119 1.6.011.074.022.075.17.064.234-.01.058.035.112.098.12.01.003.02.003.03.002Zm.56-.518c.052-.005.096-.04.105-.09.024-.14.005-.398-.221-.466-.48-.145-1.682-.055-1.733-.052-.066.005-.112.056-.107.115.006.058.063.101.127.096.012 0 1.205-.09 1.639.041.073.022.075.17.064.234-.01.058.034.112.098.12.01.002.019.002.029.002Zm-2.557 2.354c-.065.002-.12-.043-.122-.102-.006-.138 0-.468.184-.55.02-.008.083-.036.35-.005.063.008.109.06.1.119-.008.057-.066.098-.13.091a1.465 1.465 0 0 0-.218-.011c-.034.04-.06.204-.052.348.002.056-.044.104-.106.11h-.006Z"/><path fill="#F8DF88" d="M22.114 23.026s-4.162-.054-4.9.471c-.739.525-1.76 1.237-1.99 3.95-.23 2.712.228 5.609.573 8.216.282 2.134 1.37 7.35 2.113 9.226.742 1.877 5.451.881 8.338-.681 2.886-1.563 4.279-4.1 4.14-4.85-.137-.748-1.27-1.43-1.436-2.116-.166-.686-.457-3.11.096-3.999.553-.889 1.409-2 .523-3.901-.594-1.275-.507-2.292-1.036-3.507-.529-1.215-.769-1.9-1.964-2.036-1.195-.137-4.457-.773-4.457-.773Z"/><path fill="#EDCF7C" d="m28.802 34.374-.008.001c-.064.008-.123-.032-.131-.09a2.044 2.044 0 0 1 .47-1.526c.625-.739 1.173-1.953.237-3.54-.03-.052-.01-.116.048-.144.057-.027.128-.008.158.044.995 1.687.41 2.98-.257 3.768a1.877 1.877 0 0 0-.424 1.369c.008.055-.033.106-.093.118Z"/><path fill="#FAD2C3" d="M24.73 24.09c-1.66 2.153-3.815-.396-3.805-.958 1.071-1.384.672-2.866.672-2.866l3.522 1.602-.069.28c-.107.432-.22.92-.279 1.394-.028.226-.038.306-.04.548Z"/><path fill="#040E15" d="M24.772 23.518c-1.812-.607-2.761-2.52-2.761-2.52l3.182 1.154c-.107.432-.36.893-.42 1.366Z"/><path fill="#C8A399" d="M26.118 19.535s.392-.759 1.08-.494c.686.265.403 2.411-.945 2.184l-.135-1.69Z"/><path fill="#FAD2C3" d="M27.342 19.57a4.338 4.338 0 0 1-.1.422l-.023.076-.015.047a6.07 6.07 0 0 1-.177.486l-.007.018-.038.09c-.45 1.046-1.046 1.485-1.677 1.671-1.07.315-3.404-.953-3.658-1.85-.185-.65-.22-.395-.037-2.057.181-1.662 1.069-2.476 1.069-2.476 1.173-.918 2.955-.532 4.021.307 1.067.84.83 2.122.642 3.265Z"/><path fill="#22120E" d="M24.846 18.974a.085.085 0 0 1-.051-.074c0-.002-.013-.264-.194-.326a.553.553 0 0 0-.388.027c-.046.023-.103.009-.129-.032a.081.081 0 0 1 .035-.116c.011-.005.265-.134.548-.038.3.101.315.465.316.48.001.047-.04.087-.092.088a.1.1 0 0 1-.045-.01Zm1.327.315-.003-.002c-.046-.024-.061-.076-.036-.116.008-.012.185-.286.465-.253.26.03.397.223.403.232.028.04.015.092-.03.117a.101.101 0 0 1-.13-.026.418.418 0 0 0-.268-.154c-.153-.018-.274.167-.276.168a.1.1 0 0 1-.125.034Zm-1.077-1.657s-.314-.383-.843-.331c-.296.028-.295.29.04.33.232.029.355.057.563.186.207.129.327-.101.24-.185Zm1.304.235s.437-.267.918-.06c.268.115.172.362-.159.3a1.186 1.186 0 0 0-.599.006c-.244.06-.272-.193-.16-.246Zm-2.947-2.483s.468 1.188 2.489 1.805c2.022.618 1.85-.206 1.85-.206s-2.01-2.773-4.339-1.599Z"/><path fill="#22120E" d="M23.945 15.664s-.663 2.004-1.707 2.308c-.67.195-1.002-.664-1.002-.664s1.768-2.861 2.709-1.644Z"/><path fill="#F8C6B1" d="M27.198 20.115a6.032 6.032 0 0 1-.177.486l-.007.018-.038.09c-.385-.17-.63-.41-.56-.557.067-.142.402-.153.782-.037Zm-4.373-1.037c-.058.166.266.409.724.54.459.132.878.103.937-.063.059-.167-.265-.41-.724-.54-.459-.132-.878-.104-.937.063Z"/><path fill="#FAD2C3" d="M22.095 18.32s-.323-.717-1.116-.514c-.792.203-.813 2.586.696 2.507l.42-1.993Z"/><path fill="#fff" d="M21.388 19.868c.027.116-.056.23-.185.255-.128.025-.255-.05-.282-.167-.027-.116.056-.23.185-.255.128-.024.255.05.282.167Z"/><path fill="#22120E" d="M23.16 17.187s-.59.477-.548 1.458c.042.98.224 1.704-.473 1.946 0 0 .354-.17.08-1.071-.276-.9-.553-1.431-.244-1.875.309-.444 1.185-.458 1.185-.458Z"/><path fill="#E27D78" d="M24.337 20.266c.026.004 1.558.576 1.558.576s-.401.685-.971.474c-.57-.21-.587-1.05-.587-1.05Z"/><path fill="#fff" d="M24.579 20.572c.036.051.831.355.953.359.052.001.078-.077.128-.178l-1.111-.412c0 .081.006.198.03.23Z"/><path fill="#C66E67" d="M24.927 21.316a.617.617 0 0 0 .485-.02c-.31-.33-.665-.305-.807-.22.08.103.185.19.322.24Z"/><path fill="#C8A399" d="M21.461 19.439c-.174.036-.312-.098-.373-.248-.072-.178-.046-.37.066-.491.16-.172.333-.127.43-.079a.4.4 0 0 0-.194-.199c-.178-.074-.367.047-.369.049-.013.008-.03.002-.036-.014-.007-.016-.002-.035.01-.044.01-.005.212-.135.412-.052.116.048.205.157.266.323l.04.108-.08-.068c-.01-.008-.238-.196-.443.025-.113.122-.1.3-.053.414.048.12.161.246.32.21.014-.003.028.01.031.027.003.018-.006.035-.021.038h-.006Z"/><path fill="#22120E" d="M25.136 20.087c.003-.009.114.02.29.072.045.014.09.024.107.003.021-.022.02-.068.018-.118l-.007-.325c-.006-.462.006-.834.028-.831.021.002.043.377.05.838v.325c-.001.047.007.105-.04.15-.022.021-.063.028-.093.023-.03-.005-.055-.015-.076-.022-.174-.064-.28-.107-.277-.115Z"/><g fill="#F8DF88" opacity=".37"><path d="M21.84 11.383c-.05 0-.091-.037-.091-.082V7.622c0-.045.04-.082.09-.082.05 0 .091.037.091.082v3.679c0 .045-.04.082-.09.082Z"/><path d="M20.403 10.844a.096.096 0 0 1-.064-.024.077.077 0 0 1 0-.116l2.874-2.6a.097.097 0 0 1 .128 0 .077.077 0 0 1 0 .115l-2.874 2.601a.095.095 0 0 1-.064.024Z"/><path d="M23.872 9.543h-4.064c-.05 0-.091-.036-.091-.082 0-.045.04-.081.09-.081h4.065c.05 0 .091.036.091.081 0 .046-.04.082-.09.082Z"/><path d="M23.277 10.844a.095.095 0 0 1-.064-.024L20.34 8.219a.077.077 0 0 1 0-.116.097.097 0 0 1 .128 0l2.874 2.601a.077.077 0 0 1 0 .116.096.096 0 0 1-.064.024Z"/></g><path d="M11.58 30.024v1.11m0 .782v1.11m1.219-1.501h-.901m-.635 0h-.902m30.124-16.641v.905m0 .637v.905m.994-1.223h-.735m-.517 0h-.735m-.252 6.607v1.517m0 1.068v1.517m1.664-2.051h-1.231m-.867 0h-1.23m-3.101-7.002v1.11m0 .782v1.11m1.218-1.501h-.901m-.635 0h-.901" stroke="#F8DF88" stroke-miterlimit="10" stroke-width=".178" opacity=".37"/></g></g><defs><clipPath id="a"><rect width="48" height="48" fill="#fff" rx="24"/></clipPath><clipPath id="b"><path fill="#fff" d="M0 0h48v48H0z"/></clipPath></defs></svg>