<svg xmlns="http://www.w3.org/2000/svg" width="48" height="48" fill="none"><g clip-path="url(#a)"><rect width="48" height="48" fill="#fff" rx="24"/><g clip-path="url(#b)"><path fill="#BF9892" d="M14.58 8.988a5.59 5.59 0 0 0-1.537 3.564 5.592 5.592 0 0 0 1.183 3.696c1.067 1.352 2.758 2.203 3.51 3.753.145.3.252.633.21.964-.041.331-.263.656-.587.736-.429.106-.832-.223-1.151-.528-1.206-1.148-2.418-2.305-3.395-3.652-.978-1.348-1.717-2.912-1.854-4.57-.136-1.66.393-3.418 1.619-4.544.381-.351.879-.65 1.39-.565.51.085.916.728.61 1.146M31.297 20.884c1.295-.62 2.648-1.289 3.469-2.467.82-1.178.866-3.028-.292-3.877-.484-.355-1.094-.485-1.634-.747-1.225-.595-2-1.813-2.973-2.764-1.934-1.892-4.829-2.745-7.48-2.204-1.633.333-3.305 1.358-3.659 2.987-.227 1.044.14 2.147.75 3.024.61.877 1.445 1.569 2.27 2.248.426.352 1.055.709 1.477.352.385-.325.199-.989-.187-1.313-.386-.324-.9-.449-1.33-.713-1.137-.701-1.448-2.357-.846-3.55.603-1.192 1.926-1.908 3.256-2.036 1.759-.17 3.582.623 4.655 2.027.768 1.004 1.25 2.354 2.41 2.854.782.336 1.794.238 2.36.874.571.642.309 1.72-.323 2.303s-1.511.797-2.349.99" opacity=".31"/><path fill="#BF9892" d="M36.723 28.724c4.078-1.72 7.231-4.887 8.5-8.532 1.267-3.646.63-7.72-1.716-10.976-1.847-2.565-4.829-4.656-8.349-5.292-.568-.102-1.27-.128-1.616.26-.447.499.082 1.185.606 1.63 2.841 2.41 6.326 4.438 8.148 7.452 1.306 2.159 1.624 4.716.876 7.05-.747 2.335-2.552 4.425-4.977 5.763-.552.305-1.147.58-1.563 1.009-.416.428-.609 1.067-.251 1.53" opacity=".31"/><path fill="#BF9892" d="M39.055 27.725c.879-1.521 2.097-3.021 3.806-3.428.081-.02.175-.033.24.018.093.073.062.22.02.33-1.249 3.389-3.668 5.947-6.919 7.519l-.005-.036c1.275-1.21 1.98-2.881 2.858-4.403Z" opacity=".31"/><g fill="#BF9892" opacity=".31"><path d="M26.11 10.182a.964.964 0 0 0-.11-.096c-.074-.06-.185-.146-.327-.257-.287-.218-.702-.537-1.243-.87a7.202 7.202 0 0 0-.91-.48 4.585 4.585 0 0 0-1.106-.335 4.01 4.01 0 0 0-.618-.05 3.248 3.248 0 0 0-1.293.262 3.17 3.17 0 0 0-.622.366c-.096.08-.194.158-.28.25a2.607 2.607 0 0 0-.627.964 2.147 2.147 0 0 0-.133.775c.005.261.056.512.129.741.074.23.17.442.274.635.054.096.105.192.164.28.028.044.056.089.085.132l.089.124c.236.327.494.59.747.796.505.417.983.606 1.312.699.082.026.157.039.221.053.064.015.12.022.164.027a.74.74 0 0 0 .135.012.767.767 0 0 0-.134-.031 1.67 1.67 0 0 1-.161-.036c-.064-.017-.137-.033-.218-.062a3.73 3.73 0 0 1-1.288-.717 4.247 4.247 0 0 1-.73-.793 4.246 4.246 0 0 1-.592-1.15 2.49 2.49 0 0 1-.122-.71c-.003-.248.04-.5.128-.736a2.504 2.504 0 0 1 .606-.928c.084-.09.18-.165.273-.244a3.08 3.08 0 0 1 .606-.357 3.217 3.217 0 0 1 1.267-.26c.207.002.41.012.607.046.395.057.76.184 1.095.322.334.14.636.305.907.466.541.324.96.633 1.25.841l.336.242a.797.797 0 0 0 .12.079Z"/><path d="m21.969 16.865-.007-.026-.022-.077c-.01-.034-.021-.077-.04-.126l-.064-.168a3.687 3.687 0 0 0-.613-.976c-.316-.376-.756-.758-1.274-1.18-.258-.214-.536-.44-.815-.702-.14-.13-.28-.271-.414-.426a3.98 3.98 0 0 1-.386-.51 3.547 3.547 0 0 1-.313-.615l-.06-.171c-.019-.058-.032-.119-.048-.178-.014-.06-.036-.119-.043-.183l-.031-.188c-.013-.062-.015-.127-.02-.191-.003-.065-.01-.13-.012-.196l.004-.197c0-.033 0-.066.002-.1l.01-.099c.007-.066.012-.133.02-.2l.036-.198c.006-.034.011-.067.019-.1l.025-.098.051-.198c.314-1.043 1.02-1.99 1.97-2.492.469-.26.983-.435 1.517-.544a9.78 9.78 0 0 1 1.652-.177c1.127-.033 2.303-.01 3.48.25.588.13 1.161.317 1.7.582.27.13.532.279.783.446a6.48 6.48 0 0 1 1.359 1.2c.196.235.377.484.54.745.324.525.56 1.107.82 1.654.26.546.551 1.073.952 1.442.052.043.1.092.154.13.053.038.106.078.16.113.11.069.223.124.337.172.227.097.456.167.674.253.217.088.429.188.606.344.049.033.089.079.13.12.042.043.086.082.12.132l.11.142.095.155c.118.211.216.437.275.673l.025.087.018.089.036.177.023.177.011.088.005.089c.032.47-.016.926-.132 1.327-.114.403-.292.75-.484 1.044-.39.59-.842.963-1.217 1.232-.382.263-.698.42-.914.522-.107.052-.19.087-.246.111l-.063.029a.089.089 0 0 0-.02.01c0 .002.007 0 .021-.006l.064-.024a5.88 5.88 0 0 0 1.172-.61c.38-.265.84-.637 1.238-1.23a3.85 3.85 0 0 0 .497-1.058c.12-.41.17-.873.14-1.353l-.005-.09-.011-.09-.023-.183-.036-.18-.018-.092-.025-.089a2.851 2.851 0 0 0-.281-.693l-.098-.16a24.536 24.536 0 0 0-.113-.148c-.036-.052-.081-.092-.124-.137-.043-.043-.085-.09-.134-.125a2.129 2.129 0 0 0-.622-.356c-.221-.089-.45-.16-.672-.255a2.076 2.076 0 0 1-.631-.405c-.388-.358-.674-.877-.93-1.42-.26-.543-.495-1.129-.823-1.664a6.828 6.828 0 0 0-.548-.756 6.454 6.454 0 0 0-1.375-1.217 6.514 6.514 0 0 0-.791-.451 7.683 7.683 0 0 0-1.715-.589c-1.186-.26-2.366-.283-3.497-.248a9.84 9.84 0 0 0-1.662.18 5.34 5.34 0 0 0-1.535.553c-.475.264-.908.62-1.243 1.066-.344.437-.595.95-.758 1.48l-.052.203-.025.1c-.008.034-.012.069-.019.102l-.035.204c-.009.069-.014.137-.02.205l-.01.102c-.003.034-.002.068-.003.101l-.003.203c.002.067.009.134.013.2.005.066.008.133.02.197l.033.193c.008.065.03.125.044.187.017.061.031.123.05.182l.063.175c.09.228.2.437.322.627.12.19.255.36.393.515.137.156.279.297.42.428.282.262.561.486.82.697.52.418.961.794 1.278 1.163.32.364.513.711.62.958l.068.166c.02.048.031.09.043.123l.027.075a.14.14 0 0 0 .01.025Z"/><path d="M31.415 18.42c.001.006.094-.008.26-.043.167-.036.409-.09.7-.193.29-.107.636-.27.953-.584a2.146 2.146 0 0 0 .542-.972c.02-.065.03-.135.044-.204.007-.07.019-.14.02-.213a1.58 1.58 0 0 0-.17-.806 1.591 1.591 0 0 0-.463-.534c-.349-.26-.71-.359-1.002-.445a6.95 6.95 0 0 1-.69-.22c-.16-.066-.244-.113-.247-.106-.001.004.019.018.059.044.04.025.1.058.178.096.158.077.394.16.686.252.29.094.644.2.977.454.166.126.324.293.435.51.112.214.172.479.157.75 0 .067-.012.134-.018.2-.014.065-.023.13-.042.193a2.137 2.137 0 0 1-.513.932 2.61 2.61 0 0 1-.923.587c-.285.111-.524.174-.689.222a1.606 1.606 0 0 0-.254.08ZM25.512 2.856a.272.272 0 0 0-.052.064c-.03.046-.071.116-.113.216a1.984 1.984 0 0 0-.12.923c.02.197.064.42.184.617.06.096.14.182.234.241.094.062.2.098.309.118.22.037.45.008.681-.06a1.47 1.47 0 0 0 .654-.404c.193-.205.318-.49.353-.781.041-.29-.024-.593-.166-.804a1.343 1.343 0 0 0-.505-.436 2.915 2.915 0 0 0-.386-.17.529.529 0 0 0-.128-.023.981.981 0 0 0-.439.087 1.331 1.331 0 0 0-.3.179 1.02 1.02 0 0 0-.162.162.308.308 0 0 0-.044.071c.005.007.068-.091.223-.202a1.39 1.39 0 0 1 .297-.16.962.962 0 0 1 .421-.07.69.69 0 0 1 .238.074c.083.036.168.076.253.124.17.094.347.222.474.418.129.195.186.465.147.735-.034.268-.15.532-.33.723-.178.195-.399.315-.62.385a1.47 1.47 0 0 1-.651.063.705.705 0 0 1-.501-.32 1.38 1.38 0 0 1-.18-.576 2.03 2.03 0 0 1 .092-.899c.073-.198.143-.29.137-.295ZM17.91 15.684c-.003-.002-.018.014-.046.048a1.22 1.22 0 0 0-.108.161 1.072 1.072 0 0 0-.114.302 1.433 1.433 0 0 0-.015.44c.02.166.081.335.177.492.047.077.11.152.185.206a.657.657 0 0 0 .251.107c.18.037.37.015.558-.038.188-.055.38-.155.537-.323a1.146 1.146 0 0 0 .285-.991 1.082 1.082 0 0 0-.119-.306.992.992 0 0 0-.175-.24.912.912 0 0 0-.214-.154 1.208 1.208 0 0 0-.218-.09.76.76 0 0 0-.212-.024 1.05 1.05 0 0 0-.601.222.854.854 0 0 0-.135.13.208.208 0 0 0-.037.058c.005.006.06-.07.187-.155.126-.082.328-.187.586-.187a.746.746 0 0 1 .198.029c.066.021.137.053.205.09a.84.84 0 0 1 .355.369c.045.087.086.179.105.28a1.047 1.047 0 0 1-.263.897c-.145.155-.325.25-.504.304-.18.052-.361.073-.527.042a.591.591 0 0 1-.228-.093.627.627 0 0 1-.168-.182 1.176 1.176 0 0 1-.174-.453 1.4 1.4 0 0 1 .003-.418c.022-.12.06-.219.097-.294.076-.15.134-.223.128-.229ZM37.946 20.955c-.003-.003-.05.046-.113.162a.984.984 0 0 0-.108.565.98.98 0 0 0 .136.374c.036.06.083.118.141.16a.503.503 0 0 0 .193.082.903.903 0 0 0 .425-.027.916.916 0 0 0 .411-.244.876.876 0 0 0 .224-.759.776.776 0 0 0-.09-.236.737.737 0 0 0-.3-.3.664.664 0 0 0-.33-.073.843.843 0 0 0-.462.15c-.097.074-.13.144-.127.146.006.006.045-.054.143-.113a.875.875 0 0 1 .447-.116.634.634 0 0 1 .569.355.688.688 0 0 1 .079.444.779.779 0 0 1-.205.429.856.856 0 0 1-.378.225.86.86 0 0 1-.394.032c-.257-.035-.387-.327-.427-.541a.993.993 0 0 1 .08-.535c.052-.116.092-.175.086-.18ZM28.084 5.133c-.001 0-.004.012-.008.038a1.646 1.646 0 0 0 .015.564c.039.192.117.422.258.651.14.231.346.451.602.643.255.194.56.355.888.526.326.173.683.357 1.005.658.321.301.583.726.845 1.177.264.447.544.939.959 1.297l-.015-.047a23.76 23.76 0 0 0-.08.41l-.038.215-.017.111c-.005.04-.011.071-.01.122v.08l.058-.046.657-.523-.034.005c.36.154.771.2 1.162.072.39-.127.744-.443.966-.87.202-.383.292-.856.216-1.295-.071-.44-.265-.818-.474-1.154a10.797 10.797 0 0 0-1.378-1.755 9.751 9.751 0 0 0-1.482-1.257c-.246-.17-.49-.321-.732-.45a4.29 4.29 0 0 0-.723-.277c-.47-.132-.908-.192-1.293-.16a1.54 1.54 0 0 0-.912.421 1.493 1.493 0 0 0-.38.591 1.363 1.363 0 0 0-.047.188c-.006.042-.01.064-.008.065a.41.41 0 0 0 .017-.063 1.497 1.497 0 0 1 .44-.751c.21-.195.518-.367.895-.398.378-.026.812.037 1.277.173.231.07.473.157.712.278.237.13.48.281.723.452.489.34.986.755 1.467 1.255.481.497.946 1.08 1.364 1.743.204.331.39.7.458 1.117.071.413-.014.859-.206 1.224-.212.408-.549.71-.92.83-.373.123-.767.08-1.115-.068l-.018-.008-.016.013-.657.526.058.034c0-.024.005-.066.01-.1l.016-.107.037-.213c.026-.14.053-.278.079-.409l.006-.03-.021-.017c-.401-.344-.68-.826-.945-1.273-.264-.45-.532-.88-.864-1.188-.332-.306-.694-.489-1.022-.659-.33-.167-.632-.324-.885-.512a2.293 2.293 0 0 1-.598-.622 2.026 2.026 0 0 1-.264-.632 1.744 1.744 0 0 1-.04-.441c.006-.101.015-.153.012-.154Z"/><path d="M32.923 8.534c-.016.213.113.4.29.42.175.02.33-.138.345-.35.016-.213-.113-.4-.289-.42-.175-.02-.33.137-.346.35ZM31.888 7.33c.176 0 .319-.172.319-.386 0-.214-.143-.387-.319-.387-.176 0-.319.173-.319.387 0 .214.143.387.319.387ZM29.73 5.71c-.016.212.113.4.289.42.175.019.33-.138.346-.35.016-.213-.113-.401-.289-.42-.175-.02-.33.137-.346.35ZM34.31 20.418s-.005-.006-.018-.014a1.292 1.292 0 0 0-.688-.218 1.282 1.282 0 0 0-.543.11l-.1.045.107-.002a.845.845 0 0 1 .43.098.765.765 0 0 1 .348.41l.002-.026a.739.739 0 0 0-.066.516c.04.18.149.342.293.435.142.098.312.14.482.135.171-.004.343-.05.514-.108a5.943 5.943 0 0 0 3.022-2.359 6.3 6.3 0 0 0 .696-1.454 6.244 6.244 0 0 0 .313-1.721 7.636 7.636 0 0 0-.162-1.82 5.504 5.504 0 0 0-.478-1.393c-.226-.421-.554-.752-.924-.94-.368-.188-.778-.25-1.157-.14a1.08 1.08 0 0 0-.748.748c-.017.053-.028.11-.037.165-.034.226 0 .458.065.66.065.205.153.39.243.567.09.179.183.349.258.526.076.176.144.356.195.539.212.73.237 1.474.138 2.12a4.442 4.442 0 0 1-.575 1.618 4.026 4.026 0 0 1-.782.945c-.247.216-.463.34-.607.424l-.164.097a.557.557 0 0 0-.056.037.35.35 0 0 0 .057-.026l.168-.09a3.426 3.426 0 0 0 1.016-.803 4 4 0 0 0 .404-.551c.258-.426.493-.978.594-1.638a5.042 5.042 0 0 0-.132-2.159 4.433 4.433 0 0 0-.196-.551c-.077-.182-.17-.354-.258-.531a3.679 3.679 0 0 1-.236-.554 1.357 1.357 0 0 1-.06-.613c.009-.051.017-.103.034-.152a1.012 1.012 0 0 1 .217-.395c.131-.147.3-.243.479-.295.36-.102.756-.043 1.11.139.355.18.67.5.888.905.213.411.364.88.467 1.365a7.6 7.6 0 0 1 .16 1.79 6.15 6.15 0 0 1-.306 1.692 6.202 6.202 0 0 1-.683 1.433 6.286 6.286 0 0 1-.439.592 5.927 5.927 0 0 1-2.54 1.752c-.17.06-.336.105-.5.11a.762.762 0 0 1-.455-.123.674.674 0 0 1-.214-.864l.008-.013-.006-.014a.807.807 0 0 0-.82-.529l.006.042a1.271 1.271 0 0 1 .927-.058c.105.034.181.073.233.098l.058.032.019.01ZM15.556 6.23s-.174.233-.398.726a6.644 6.644 0 0 0-.557 2.464c-.001.064-.003.13-.002.196.005.132.007.268.024.404.026.274.082.56.178.833.092.275.216.548.38.798.083.124.175.241.279.348.105.105.222.195.349.267.127.074.265.118.408.143a.67.67 0 0 0 .434-.077.82.82 0 0 0 .329-.372c.077-.16.118-.34.142-.522.051-.364.027-.735.035-1.104.007-.37.03-.746.108-1.111.077-.364.212-.708.418-.974.204-.268.461-.463.718-.64.257-.178.517-.34.759-.534a1.79 1.79 0 0 0 .57-.763c.104-.33.049-.695-.09-.968-.13-.28-.326-.5-.542-.648a1.38 1.38 0 0 0-.684-.237 2.675 2.675 0 0 0-.652.05c-.41.09-.765.262-1.051.462-.287.198-.51.416-.68.607-.087.093-.155.187-.218.264-.058.082-.109.15-.147.208l-.084.134a.264.264 0 0 0-.026.047s.012-.013.033-.042l.09-.127c.04-.056.092-.122.151-.201.064-.074.134-.165.222-.256.171-.185.395-.396.68-.588a2.9 2.9 0 0 1 1.04-.442c.201-.039.417-.054.639-.043.22.015.447.092.655.232.206.143.39.354.515.62.03.067.057.138.08.21.023.07.037.146.044.223.014.153.006.317-.042.46-.054.144-.133.281-.225.4a1.986 1.986 0 0 1-.32.322c-.235.189-.496.35-.755.528-.258.178-.523.376-.738.657-.216.28-.357.64-.436 1.014-.08.377-.104.76-.11 1.134-.007.374.016.74-.033 1.09a1.645 1.645 0 0 1-.132.49.735.735 0 0 1-.294.336c-.249.145-.541.065-.78-.063a1.546 1.546 0 0 1-.334-.253c-.1-.102-.19-.215-.27-.334a3.468 3.468 0 0 1-.374-.776 3.473 3.473 0 0 1-.178-.811c-.018-.134-.02-.267-.026-.397v-.193a6.691 6.691 0 0 1 .21-1.507 6.363 6.363 0 0 1 .585-1.496l.079-.138a.274.274 0 0 0 .024-.05Z"/></g><path fill="#423A33" d="M39.19 35.04a.568.568 0 0 0-.265-.445c-2.35-1.576-4.123-5.07-4.301-8.026l-.016-.512v-.002c-.147-4.447-.761-9.565-1.303-10.723-1.152-2.466-4.471-2.762-4.471-2.762-4.583-.332-5.402 3.235-5.865 6.483a1604.33 1604.33 0 0 1-1.396 9.238l.843.33c.992 2.979 3.227 5.387 6.131 6.495.845.322 1.56.452 1.896.174a11.5 11.5 0 0 0 4.824 2.966c.74.228 1.516.38 2.286.307.5-.047 1.027-.215 1.326-.624.257-.353.292-.858.087-1.243a1.174 1.174 0 0 0-1.073-.611c.174-.57 1.316-.403 1.297-1.045Z"/><path fill="#FAD6C8" d="m29.444 13.882-.286-.277-3.099 1.265a.87.87 0 0 0-.817.848l.027 10.226c-.004.693.134 1.293.547 1.846l.435.582c.992 1.327 3.033 1.218 3.82-.244.054-.103.092-.192.108-.265.017-.091.042-.151.047-.228.092-.823.097-1.536.097-1.536.055-.903.073-1.274.074-1.266 0 0 1.898-.22 2.411-2.688.255-1.227.207-2.915.135-4.577-.099-2.3-1.674-3.688-3.499-3.686Z"/><path fill="#D6AA9C" d="M24.952 17.824c2.085-.356 4.28-.047 6.43-.094.36-.008.757-.037 1.003-.215.244-.178.26-.448.225-.69-.176-1.224-1.371-2.668-3.4-2.952" opacity=".47"/><path fill="#DEBAB7" d="M20.809 40.036 9.623 40.03a2.43 2.43 0 0 1-2.435-2.424l.005-27.898A2.43 2.43 0 0 1 9.63 7.284l11.186.006c1.346.001 2.436 1.087 2.343 2.425l-.005 27.898c.092 1.339-1 2.424-2.346 2.423Z"/><path fill="#ECCECC" d="M20.825 8.088h-2.169c-.29 0-.526.248-.526.556v.4c0 .307-.236.556-.527.556l-4.228-.002c-.29 0-.526-.25-.526-.558v-.399c0-.308-.236-.557-.527-.557h-.763l-1.898-.002c-.943 0-1.707.773-1.707 1.728l-.006 27.724c0 .954.763 1.728 1.706 1.729l11.164.006c.942 0 1.707-.773 1.707-1.728l.006-27.724c0-.954-.764-1.728-1.706-1.729Z"/><path fill="#fff" d="M21.46 11.28c0 .008-.3.016-.671.02-.372.003-.673-.001-.673-.01 0-.007.301-.016.672-.02.372-.002.673.002.673.01ZM21.465 11.628c0 .008-.301.017-.672.02-.372.003-.673 0-.673-.009 0-.008.301-.017.672-.02.371-.003.673.001.673.009ZM21.468 11.976c0 .008-.301.017-.672.02-.372.004-.673 0-.673-.008s.3-.017.672-.02c.372-.003.672 0 .672.008ZM9.235 12.386s.01-.002.028-.002l.078-.003.287-.007-.008.008-.004-.21c0-.04-.003-.076 0-.122a.111.111 0 0 1 .097-.09c.046 0 .087-.003.137 0a.113.113 0 0 1 .095.112l.003.308-.013-.014.362-.003-.014.014-.004-.457v-.116c0-.036-.022-.06-.052-.087l-.158-.158-.153-.153-.074-.074c-.025-.025-.045-.05-.075-.056a.096.096 0 0 0-.083.016c-.022.018-.046.045-.068.067l-.13.133c-.081.085-.167.164-.228.238-.027.041-.017.091-.019.137v.13a110.792 110.792 0 0 1-.004.389l-.003-.044-.003-.131-.005-.21-.002-.132-.001-.072c0-.026.006-.053.02-.077.067-.083.147-.156.229-.245l.129-.134c.023-.023.042-.046.07-.07a.12.12 0 0 1 .105-.02c.038.008.063.04.087.062l.074.074.153.152.159.158c.013.014.028.025.04.044.012.019.019.04.02.062v.117l.004.457v.014h-.014l-.362.002h-.013v-.013l-.002-.308a.088.088 0 0 0-.074-.088c-.041-.003-.09-.001-.131 0a.09.09 0 0 0-.078.07c-.004.037-.001.08-.002.118v.219h-.008l-.292-.003a8.08 8.08 0 0 1-.1-.002ZM15.915 35.337c1.148 0 2.08-.943 2.08-2.106 0-1.163-.932-2.106-2.08-2.106-1.148 0-2.08.943-2.08 2.106 0 1.163.932 2.106 2.08 2.106Z"/><path fill="#ECCECC" d="m14.638 33.716.52-.124a.143.143 0 0 0 .109-.14v-.108s-.022-.184.15-.196c.122-.008.903 0 .903 0s.206-.004.202.16v.158c0 .054.035.102.086.117l.563.173a.121.121 0 0 0 .148-.07l.072-.177a.236.236 0 0 0 .018-.102.498.498 0 0 0-.097-.263c-.112-.145-.638-.488-1.642-.438-.956.047-1.165.455-1.22.552a.418.418 0 0 0-.017.272l.042.1a.142.142 0 0 0 .163.086Z"/><path fill="#A88886" d="M15.915 27.943a1.45 1.45 0 0 0 1.44-1.459 1.45 1.45 0 0 0-1.44-1.459 1.45 1.45 0 0 0-1.44 1.46 1.45 1.45 0 0 0 1.44 1.458Z" opacity=".2"/><path fill="#fff" d="M15.521 26.656a.169.169 0 0 0 .168-.17.169.169 0 0 0-.168-.17.169.169 0 0 0-.168.17c0 .094.075.17.168.17ZM16.082 26.486c0 .094-.075.17-.167.17a.169.169 0 0 1-.168-.17c0-.094.075-.17.168-.17.092 0 .167.076.167.17ZM16.476 26.486c0 .094-.075.17-.168.17a.169.169 0 0 1-.167-.17c0-.094.075-.17.167-.17.093 0 .168.076.168.17ZM15.689 26.08c0 .095-.075.17-.168.17a.169.169 0 0 1-.168-.17c0-.093.076-.169.168-.169.092 0 .168.076.168.17ZM16.082 26.08c0 .095-.075.17-.167.17a.169.169 0 0 1-.168-.17c0-.093.075-.169.168-.169.092 0 .167.076.167.17ZM16.476 26.081c0 .094-.075.17-.168.17a.169.169 0 0 1-.167-.17c0-.094.075-.17.167-.17.093 0 .168.076.168.17ZM15.689 26.887c0 .093-.075.17-.168.17a.169.169 0 0 1-.168-.17c0-.094.076-.17.168-.17.092 0 .168.076.168.17ZM16.082 26.887c0 .093-.075.17-.167.17a.169.169 0 0 1-.168-.17c0-.094.075-.17.168-.17.092 0 .167.076.167.17ZM16.476 26.887c0 .093-.075.17-.168.17a.169.169 0 0 1-.167-.17c0-.094.075-.17.167-.17.093 0 .168.076.168.17Z"/><path fill="#A88886" d="M11.78 27.943a1.45 1.45 0 0 0 1.44-1.459 1.45 1.45 0 0 0-1.44-1.459 1.45 1.45 0 0 0-1.44 1.46 1.45 1.45 0 0 0 1.44 1.458Z" opacity=".2"/><path fill="#fff" d="M11.104 26.293v.346c0 .014.011.026.026.026h.188c.005 0 .011.002.016.006l.293.233a.026.026 0 0 0 .042-.021v-.807c0-.022-.024-.035-.041-.022l-.284.207a.027.027 0 0 1-.015.004l-.2.002a.027.027 0 0 0-.025.026ZM12.214 27.067a.033.033 0 0 1-.022-.008.034.034 0 0 1-.003-.047c.164-.186.242-.377.231-.57a.774.774 0 0 0-.228-.483.034.034 0 0 1-.003-.047.033.033 0 0 1 .047-.003c.009.009.233.214.25.53.012.21-.071.418-.248.617a.034.034 0 0 1-.024.011Z"/><path fill="#fff" d="M12.033 26.904a.032.032 0 0 1-.024-.01.034.034 0 0 1 .001-.048.493.493 0 0 0 .176-.358c0-.217-.174-.386-.176-.388a.034.034 0 0 1-.001-.047.033.033 0 0 1 .047-.001c.008.008.196.19.196.436a.559.559 0 0 1-.196.407.034.034 0 0 1-.023.009Z"/><path fill="#fff" d="M11.871 26.735a.033.033 0 0 1-.023-.057c.203-.203.007-.433-.001-.443a.034.034 0 0 1 .003-.047.033.033 0 0 1 .046.003c.003.002.246.287 0 .535a.035.035 0 0 1-.025.01Z"/><path fill="#A88886" d="M19.695 27.943a1.45 1.45 0 0 0 1.44-1.459 1.45 1.45 0 0 0-1.44-1.459 1.45 1.45 0 0 0-1.44 1.46 1.45 1.45 0 0 0 1.44 1.458Z" opacity=".2"/><path fill="#fff" d="M19.703 26.988a.044.044 0 0 1-.044-.044v-.92c0-.024.02-.044.044-.044.025 0 .044.02.044.044v.92c0 .024-.02.044-.044.044Z"/><path fill="#fff" d="M20.136 26.529h-.881a.044.044 0 0 1-.044-.045c0-.024.02-.044.044-.044h.88a.044.044 0 1 1 0 .089ZM19.924 15.629c.394.43.591 1.049.591 1.856 0 .572-.106 1.063-.317 1.471a2.166 2.166 0 0 1-.893.93c-.385.211-.828.317-1.331.317-.266 0-.52-.03-.762-.09a2.028 2.028 0 0 1-.62-.256l.428-.858c.242.169.553.253.932.253.423 0 .757-.127 1.004-.38.247-.252.38-.616.399-1.092-.3.303-.712.455-1.24.455-.317 0-.607-.065-.867-.195a1.523 1.523 0 0 1-.62-.552 1.499 1.499 0 0 1-.228-.825c0-.336.084-.632.25-.887.166-.254.392-.45.68-.587.287-.137.606-.206.957-.206.698 0 1.244.216 1.637.646Zm-.936 1.52a.696.696 0 0 0 .24-.544.697.697 0 0 0-.233-.54c-.154-.14-.366-.21-.636-.21-.247 0-.448.068-.602.202a.69.69 0 0 0-.231.548.7.7 0 0 0 .231.552c.154.137.36.205.616.205.251 0 .457-.07.615-.212ZM13.01 15.151v5.047h-1.154v-4.11h-.997v-.937h2.15ZM15.8 15.151v5.047h-1.154v-4.11h-.997v-.937h2.15ZM10.97 23.172v.17h-.618v-.78h.603v.17h-.388v.132h.342v.165h-.342v.143h.402ZM11.785 23.342l-.002-.413-.198.336h-.097l-.197-.325v.401h-.201v-.78h.179l.27.45.265-.45h.179l.002.78h-.2ZM12.757 23.172v.17h-.617v-.78h.603v.17h-.388v.132h.342v.165h-.342v.143h.402ZM13.214 23.135h-.118v.207h-.218v-.78h.352c.07 0 .13.012.181.035.051.024.09.057.119.1a.276.276 0 0 1 .042.153.272.272 0 0 1-.04.148.268.268 0 0 1-.111.098l.166.245h-.233l-.14-.206Zm.104-.369c-.023-.02-.057-.03-.102-.03h-.12v.229h.12c.045 0 .079-.01.102-.03.022-.02.034-.047.034-.084a.107.107 0 0 0-.034-.085ZM14.207 22.935h.193v.323a.496.496 0 0 1-.152.074.603.603 0 0 1-.171.025.454.454 0 0 1-.218-.052.385.385 0 0 1-.207-.353.4.4 0 0 1 .056-.21.376.376 0 0 1 .152-.143.464.464 0 0 1 .221-.052c.072 0 .137.012.194.037a.37.37 0 0 1 .143.105l-.139.128a.243.243 0 0 0-.187-.087c-.066 0-.119.02-.16.06a.219.219 0 0 0-.06.163c0 .043.01.08.028.115a.2.2 0 0 0 .077.079c.033.019.07.028.113.028.042 0 .081-.008.118-.026v-.214ZM15.156 23.172v.17h-.618v-.78h.604v.17h-.388v.132h.341v.165h-.341v.143h.402ZM16.01 22.562v.78h-.18l-.34-.416v.416h-.213v-.78h.18l.339.416v-.416h.213ZM16.33 23.305a.386.386 0 0 1-.207-.353.4.4 0 0 1 .055-.21.38.38 0 0 1 .151-.143.448.448 0 0 1 .218-.052c.07 0 .133.013.19.037a.37.37 0 0 1 .14.11l-.138.127a.226.226 0 0 0-.181-.091.22.22 0 0 0-.112.028.196.196 0 0 0-.076.079.245.245 0 0 0-.027.116.24.24 0 0 0 .027.116.19.19 0 0 0 .076.079.22.22 0 0 0 .112.028c.07 0 .131-.03.181-.091l.139.127a.367.367 0 0 1-.141.11.47.47 0 0 1-.407-.016ZM17.384 23.062v.28h-.218v-.283l-.294-.497h.23l.183.31.182-.31h.211l-.294.5ZM18.22 23.305a.386.386 0 0 1-.206-.353.4.4 0 0 1 .055-.21.38.38 0 0 1 .15-.143.448.448 0 0 1 .218-.052c.07 0 .134.013.19.037a.37.37 0 0 1 .141.11l-.138.127a.226.226 0 0 0-.182-.091.22.22 0 0 0-.111.028.196.196 0 0 0-.076.079.245.245 0 0 0-.027.116c0 .044.009.083.027.116a.19.19 0 0 0 .076.079.22.22 0 0 0 .111.028c.071 0 .132-.03.182-.091l.138.127a.367.367 0 0 1-.14.11.47.47 0 0 1-.408-.016ZM19.367 23.19h-.326l-.06.152h-.222l.34-.78h.214l.34.78h-.226l-.06-.152Zm-.064-.162-.1-.25-.098.25h.198ZM19.716 22.562h.218v.605h.367v.175h-.585v-.78ZM20.387 22.562h.218v.605h.367v.175h-.585v-.78ZM40.445 10.601l-1.939-1.438-.248 2.371-2.464.261 1.893 1.917-1.45 1.399 2.053.153.239 1.866 1.624-1.39 2.2 1.39.614-2.3 2.43-.345-2.13-1.535 1.149-2.043-1.85.429-.519-2.513-1.602 1.778Z"/><path fill="#BF9892" d="m40.446 10.602.105-.121.309-.347 1.18-1.319.015-.017.005.023.524 2.511-.02-.013 1.849-.43.043-.01-.022.039-1.146 2.043-.007-.028 2.13 1.533.048.034-.058.008-2.429.347.02-.018-.614 2.3-.01.032-.028-.018-1.697-1.072-.503-.317.03-.003-1.624 1.39-.035.029-.006-.045-.238-1.866.023.021-2.052-.154-.053-.004.038-.036 1.45-1.398v.032L35.78 11.81l-.029-.03.04-.005 2.465-.257-.014.015.252-2.371.002-.022.017.013 1.434 1.072.371.28.127.097-.126-.09-.373-.274L38.5 9.174l.02-.009-.244 2.372-.001.014h-.014l-2.464.265.012-.033 1.895 1.915.015.016-.016.016-1.448 1.4-.014-.04 2.052.151.02.002.002.02.24 1.865-.041-.016 1.624-1.39.014-.011.015.01.503.317 1.697 1.072-.037.015.616-2.3.004-.015.016-.002 2.43-.345-.011.043-2.128-1.536-.016-.011.01-.017 1.15-2.042.02.029-1.849.426-.017.004-.004-.017-.515-2.514.021.006-1.194 1.315-.31.34-.107.114Z"/><path fill="#BF9892" d="m40.133 11.476-.128 1.88a.303.303 0 0 1-.285.284.302.302 0 0 1-.316-.273l-.195-1.891a.239.239 0 0 1 .24-.264l.453.008c.135.003.24.12.231.256ZM39.241 14.518c.078.241.334.373.571.294a.46.46 0 0 0 .291-.578.452.452 0 0 0-.571-.294.46.46 0 0 0-.29.578ZM41.669 11.476l-.129 1.88a.303.303 0 0 1-.284.284.302.302 0 0 1-.316-.273l-.195-1.891a.239.239 0 0 1 .24-.264l.452.008c.136.003.24.12.232.256ZM40.775 14.518c.077.241.333.373.57.294a.46.46 0 0 0 .291-.578.452.452 0 0 0-.57-.294.46.46 0 0 0-.291.578Z"/><path fill="#FAD6C8" d="M30.47 26.26s1.676-.729 2.54-.894c.866-.166 6.91-1.744 6.91-1.744l-6.239-5.415 1.377-1.696s4.634 2.801 7.93 5.033c0 0 .023.013.06.043 1.875 1.494 1.219 4.097-.705 5.319-.958.609-5.157 2.443-5.972 2.845-1.626.802-1.6.775-1.6.775l-4.3-4.266Z"/><path fill="#423A33" d="M29.252 19.209a.317.317 0 0 1-.32.306.303.303 0 0 1-.31-.304.318.318 0 0 1 .32-.306c.173-.001.313.135.31.304ZM32.333 19.298a.317.317 0 0 1-.32.306.303.303 0 0 1-.31-.304.318.318 0 0 1 .32-.307c.173 0 .312.136.31.305ZM32.613 18.226c-.04.04-.27-.151-.61-.167-.338-.022-.596.142-.63.098-.018-.02.026-.092.139-.167a.858.858 0 0 1 .99.055c.1.086.132.163.111.181ZM29.18 18.261c-.044.035-.254-.178-.589-.23-.334-.056-.607.08-.637.033-.015-.021.035-.09.154-.152a.856.856 0 0 1 .98.158c.09.096.115.176.093.191ZM30.361 20.76c0-.02.212-.046.555-.072.088-.005.17-.018.188-.077.023-.063-.008-.159-.045-.263l-.223-.68c-.309-.969-.527-1.763-.489-1.776.039-.012.32.763.629 1.732l.212.684c.028.101.078.217.028.346a.218.218 0 0 1-.149.12c-.056.015-.105.014-.148.014-.344 0-.558-.008-.558-.028Z"/><path fill="#D6AA9C" d="M30.401 24.834s-1.657.024-3.245-1.056c0 0 .742 1.764 3.211 1.655l.034-.6Z"/><path fill="#423A33" d="M27.98 16.924c.013-.098.353-.132.73-.269.38-.13.667-.317.737-.248.032.034-.004.133-.11.25a1.287 1.287 0 0 1-.514.328c-.227.08-.449.092-.603.066-.156-.025-.244-.08-.24-.127ZM32.389 16.921c-.064.075-.293-.018-.573-.036-.28-.028-.521.026-.572-.058-.022-.04.02-.117.127-.185a.789.789 0 0 1 .473-.104.787.787 0 0 1 .45.18c.095.084.123.166.095.203Z"/><path fill="#423A33" d="M25.302 20.082s1.736.547 2.718-3.791c.336-1.484 1.694-2.685 1.694-2.685l-.55-.168s-3.423.976-3.481 1.02c-.058.044-.864 1.793-.864 1.793l.483 3.831Z"/><path fill="#F7BA9B" d="M25.73 19.92c.01-.185-.18-.632-.36-.67-.478-.1-1.35-.105-1.419 1.135-.095 1.695 1.605 1.442 1.61 1.394.005-.038.14-1.219.17-1.859Z"/><path fill="#E3956B" d="M25.087 21.107c-.007-.006-.03.02-.081.04a.288.288 0 0 1-.218-.009c-.174-.076-.306-.369-.297-.674a.986.986 0 0 1 .105-.419c.058-.12.142-.203.232-.213.09-.016.15.041.168.09.02.05.007.082.016.086.004.004.037-.027.028-.097a.188.188 0 0 0-.06-.11.219.219 0 0 0-.159-.053c-.13.002-.252.115-.32.245-.073.13-.122.294-.127.467-.008.342.147.672.385.756a.31.31 0 0 0 .27-.03c.052-.038.064-.076.058-.079Z"/><path fill="#423A33" d="M26.481 19.253c0-.006.093-.006.251-.052.157-.044.38-.149.596-.35.108-.1.214-.224.31-.369.095-.145.18-.313.254-.495.148-.366.243-.791.36-1.233.118-.442.245-.86.385-1.231.138-.372.291-.696.436-.958.145-.262.283-.462.384-.596.049-.067.092-.116.12-.15a.434.434 0 0 1 .044-.05c.001 0-.012.02-.038.056-.025.036-.066.086-.113.155a5.822 5.822 0 0 0-.37.6c-.14.263-.29.586-.425.957-.137.37-.263.787-.38 1.228-.117.44-.214.868-.366 1.237a2.806 2.806 0 0 1-.26.5c-.1.146-.21.27-.32.372a1.479 1.479 0 0 1-.613.343c-.162.042-.255.036-.255.036Z"/><path fill="#382D25" d="M24.192 26.486a.498.498 0 0 1-.018-.082l-.042-.24-.151-.921.04-.006.028.2-.002-.006.035.076-.041.015a16.547 16.547 0 0 1-.64-4.494c.006-.62.002-1.278.166-1.935.067-.272.17-.532.304-.77.134-.237.294-.453.463-.652.34-.398.707-.741 1.042-1.081l1.796-1.79 1.216-1.203.334-.324.088-.083a.163.163 0 0 1 .032-.026l-.026.032-.083.088-.323.335-1.2 1.22-1.785 1.802c-.333.341-.7.686-1.034 1.08-.335.392-.624.855-.75 1.392-.161.643-.159 1.299-.166 1.916a17.283 17.283 0 0 0 .608 4.482l-.042.015-.034-.076-.001-.003v-.003c-.01-.071-.018-.14-.025-.2l.04-.007.132.924.032.243c.007.053.01.081.007.082ZM22.875 18.648a.313.313 0 0 1 .03-.071l.097-.2a14.017 14.017 0 0 1 1.056-1.723c.268-.367.577-.76.924-1.153a13.888 13.888 0 0 1 2.616-2.3l.184-.12a.292.292 0 0 1 .067-.037.291.291 0 0 1-.059.05l-.176.132a16.487 16.487 0 0 0-2.575 2.326 16.039 16.039 0 0 0-1.596 2.142c-.18.29-.321.53-.414.698l-.11.192a.278.278 0 0 1-.044.064Z"/><path fill="#445962" d="m25.192 25.99-.006-.002.006.002ZM25.186 25.988l-.018-.006.018.006Z"/><path fill="#AB7E79" d="m37.774 48-2.4-7.608-.188-7.23-.147-3.07c-.783-2.548-3.272-4.7-3.272-4.7l-1.413.22c-.055 1.59-2.387 3.034-4.064 1.98-.62-.463-1.098-1.602-1.098-1.602l-2.851 1.434 1.957 14.554s-1.93 3.747-1.93 6.023h15.406V48Z"/><path fill="#445962" d="m25.17 25.983-.018-.006c.004 0 .01.003.017.006ZM25.151 25.977c-.01-.004-.013-.005 0 0Z"/><path fill="#040000" d="M24.107 40.24c.351.932 1.04 1.751 1.941 2.097.902.346 2.01.15 2.658-.587.398-.453.598-1.057.724-1.657a16.65 16.65 0 0 0 .234-1.6c.302-2.721.522-5.47.28-8.2l-.357-3.149-1.034.606-.48 11.218-3.966 1.273Z" opacity=".3"/><path fill="#AB7E79" d="M30.38 25.556s2.078-.543 3.767-.59l2.801-.735.48 5.206-2.672 1.783-4.375-5.664ZM25.441 33.561l-4.918 2.567s-1.362-7.592 1.804-8.704l.183 1.079 2.931 5.058Z"/><path fill="#875A57" d="m34.882 27.03.004.034.008.1.024.39c.021.337.046.826.076 1.43.058 1.209.126 2.88.191 4.724a586.489 586.489 0 0 1 .183 6.158l.007.39v.1l-.001.035c-.001 0-.003-.011-.004-.034l-.005-.101-.016-.39-.051-1.431-.163-4.726-.177-4.723-.06-1.432c-.006-.166-.01-.297-.015-.39l-.002-.1v-.035ZM20.523 36.128l.019-.013.06-.035.233-.127.862-.459 2.852-1.497.598-.311-.012.032c-.097-.267-.18-.526-.299-.76-.11-.24-.196-.479-.278-.704-.163-.45-.331-.842-.47-1.17a23.804 23.804 0 0 1-.316-.78 7.56 7.56 0 0 1-.1-.287s.012.024.031.072l.086.21c.074.181.187.444.33.77.141.327.314.719.48 1.17.084.223.17.461.28.698.12.235.205.5.302.763l.008.022-.02.01-.598.312-2.858 1.484-.87.444-.236.119-.063.03-.021.007Z"/><path fill="#D6AA9C" d="M30.761 21.592a1.303 1.303 0 0 0-.64-.232.456.456 0 0 0-.214.023.383.383 0 0 0-.203.246c-.033.106-.034.218-.036.328 0 .042 0 .087.019.123.035.068.121.088.197.095.259.021.523-.027.756-.141"/><path fill="#FAD6C8" d="M21.148 35.497c1.005 2.366 2.916 4.767 4.093 5.207 1.755.655 3.207.33 3.88-1.837.672-2.167.24-11.791.24-11.791l-2.924-.17-.542 8.292s-.323-.644-.892-1.66M33.682 18.207l-.736-.543-.113-.936s-1.33.035-1.412-.688c0 0-.767.207-.73-.556 0 0-.39-.269-.247-.516.142-.248 1.244-.616 1.305-.637.062-.02.782-.175.782-.175l-.213-.24-.57.06s-.347.331-.632.372c-.285.042-.306-.082-.306-.082s-.326-.35.102-.701.978-.475 1.263-.496c.285-.02.668.536.668.536l.31.558s.61-.083.815.392v.33s.447-.062.631.475l.122.474s.53.702.55.99"/><path fill="#D6AA9C" d="M35.272 16.825c-.003 0-.005-.026-.018-.074a1.243 1.243 0 0 0-.084-.203 5.287 5.287 0 0 0-.458-.707l-.002-.002v-.003l-.125-.473a.754.754 0 0 0-.212-.33.558.558 0 0 0-.402-.131l-.02.002v-.02l-.001-.33.001.008a.6.6 0 0 0-.315-.312.98.98 0 0 0-.48-.067l-.014.002-.007-.013-.311-.556v.001a2.448 2.448 0 0 0-.22-.269 1.11 1.11 0 0 0-.276-.219.318.318 0 0 0-.165-.036 2.65 2.65 0 0 0-.544.118 2.18 2.18 0 0 0-.68.364.562.562 0 0 0-.215.312.442.442 0 0 0 .105.361l.004.005.002.008c.006.023.04.049.075.058.037.01.077.013.118.012a.637.637 0 0 0 .24-.054 1.76 1.76 0 0 0 .43-.288l.033-.03.006-.006.008-.001.57-.062.013-.001.008.01.213.24.029.033-.042.009-.741.165a7.26 7.26 0 0 0-1.014.404 1.191 1.191 0 0 0-.286.189.214.214 0 0 0-.06.14.296.296 0 0 0 .045.151.826.826 0 0 0 .223.235l.01.007v.013c.002.048-.001.096.004.143.009.046.012.093.03.135a.371.371 0 0 0 .161.208c.153.09.345.085.507.05l.023-.005.003.022c.015.16.108.296.228.385.119.09.255.147.39.187.27.078.535.102.774.102h.014l.002.014.108.936-.005-.008.545.41.14.105a.813.813 0 0 1 .045.038s-.017-.01-.05-.033l-.141-.101-.551-.401-.004-.003v-.005l-.118-.934.015.014a2.796 2.796 0 0 1-.784-.1 1.235 1.235 0 0 1-.403-.19.596.596 0 0 1-.245-.41l.025.017a.929.929 0 0 1-.27.024.576.576 0 0 1-.27-.077.415.415 0 0 1-.178-.23c-.021-.046-.024-.096-.034-.146-.005-.05-.003-.1-.005-.15l.01.02a.87.87 0 0 1-.238-.249.342.342 0 0 1-.05-.175c0-.064.028-.125.072-.172.087-.086.192-.143.297-.199a7.317 7.317 0 0 1 1.02-.409l.747-.167-.014.041-.213-.24.02.008-.57.061.015-.006-.034.03c-.136.119-.281.226-.444.298a.696.696 0 0 1-.258.058.425.425 0 0 1-.133-.015c-.043-.014-.091-.036-.11-.097l.007.013a.492.492 0 0 1-.117-.405.531.531 0 0 1 .088-.194c.022-.027.044-.054.069-.079.025-.023.05-.047.076-.068.211-.17.451-.29.695-.37a2.618 2.618 0 0 1 .556-.12.357.357 0 0 1 .189.042c.112.059.204.143.288.229.082.088.157.179.225.275v.002l.31.558-.02-.01c.174-.017.347.005.5.072a.634.634 0 0 1 .333.333l.002.003v.004l-.001.33-.02-.017a.59.59 0 0 1 .427.142c.111.097.18.223.22.345v.001l.12.475-.001-.004c.216.295.364.54.45.716.042.088.067.158.079.207.011.05.01.076.01.076Z"/><path fill="#D6AA9C" d="M33.962 17.204c-.006.005-.056-.046-.146-.112a1.613 1.613 0 0 0-.387-.205 3.22 3.22 0 0 0-.42-.13c-.11-.022-.18-.02-.18-.028-.001-.005.07-.02.185-.008.117.013.268.06.433.119a1.3 1.3 0 0 1 .39.224c.089.076.13.137.124.14ZM34.177 15.846c0 .004-.04.008-.11.014l-.303.017c-.255.012-.608.026-.997.038l-.549.015c-.168.002-.319.01-.445.026a1.67 1.67 0 0 0-.294.059c-.068.02-.103.04-.105.035a.288.288 0 0 1 .098-.054c.067-.027.169-.056.295-.075.127-.021.28-.033.45-.037l.549-.02c.389-.012.742-.02.997-.023l.302-.001a.497.497 0 0 1 .112.006ZM33.563 14.978c0 .004-.04.012-.112.023l-.307.047c-.259.038-.617.095-1.01.168-.393.074-.748.15-1.003.208l-.303.068a.474.474 0 0 1-.113.019c-.001-.004.038-.017.108-.038.07-.022.173-.05.3-.084a14.812 14.812 0 0 1 2.326-.408.49.49 0 0 1 .114-.003Z"/><path fill="#E3956B" d="M32.354 13.553c.013-.004.048.077.043.184-.005.107-.048.185-.06.18-.014-.006.006-.085.01-.182.005-.098-.006-.178.007-.182Z"/><path fill="#A67C77" d="M23.265 20.085c.809 1.085 2.914 4.224 3.772 5.348.18.236.707.149.94-.037.552-.44 1.52-1.204 2.096-1.624a.543.543 0 0 0 .112-.766l-4.102-5.397a.528.528 0 0 0-.78-.069l-1.971 1.823a.543.543 0 0 0-.067.722Z"/><path fill="#FAD6C8" d="m26.362 36.471-.467-1.273.541-8.293s-1.079-1.99-1.198-2.428c-.12-.437-.15-1.704-.15-1.704l.754.886s.02-1.522.02-2.032c0 0 .108-1.915.127-2.18.018-.266.284-.409.455-.409.172 0 .338.317.338.317l.23 3.13s.38-1.646.524-1.864c.144-.219.641-.323.977-.299l.01.001c.26.024.345.37.13.521l-.442.314-.168 1.57s.408-1.36.624-1.529c.215-.17.6 0 .67.194.073.195-.191.583-.191.583l-.072.971s.287-.413.429-.631c.14-.22.505 0 .55.097.044.097-.26 1.145-.26 1.145l-.432 3.518.136 5.064"/><path fill="#D6AA9C" d="M29.498 32.14s-.003-.03-.005-.088l-.009-.257-.03-.997-.108-3.722v-.003l.428-3.517v-.004c.056-.195.11-.394.162-.597a7.44 7.44 0 0 0 .071-.309c.011-.052.02-.104.027-.156a.276.276 0 0 0 0-.07.218.218 0 0 0-.047-.053.525.525 0 0 0-.28-.123.207.207 0 0 0-.14.035c-.04.028-.065.078-.098.124l-.378.557-.044.066.005-.08c.023-.301.047-.634.071-.972v-.006l.004-.005c.066-.101.125-.21.166-.324a.524.524 0 0 0 .034-.175.224.224 0 0 0-.069-.152.549.549 0 0 0-.318-.156c-.117-.017-.25.017-.313.123a2.073 2.073 0 0 0-.172.34c-.05.12-.097.24-.14.364a15.6 15.6 0 0 0-.25.753l-.046-.01.167-1.57.001-.011.01-.007.418-.297a.273.273 0 0 0 .132-.19.274.274 0 0 0-.066-.223c-.053-.062-.132-.084-.217-.084a1.643 1.643 0 0 0-.257.012c-.17.022-.341.062-.492.144a.4.4 0 0 0-.177.17 2.04 2.04 0 0 0-.092.247c-.054.17-.102.343-.148.517-.092.349-.18.702-.262 1.057l-.037.159-.012-.162-.098-1.331-.133-1.8.003.01a.838.838 0 0 0-.209-.261c-.084-.072-.2-.038-.298.008a.433.433 0 0 0-.217.231.504.504 0 0 0-.026.163l-.01.171-.078 1.357c-.012.223-.03.445-.035.667l-.008.66-.013 1.296-.001.063-.041-.048-.753-.886.04-.016c.011.393.03.781.066 1.16.02.19.039.38.089.557.058.175.138.344.215.511.318.665.652 1.293.974 1.895l.002.005v.006l-.554 8.291v-.003l.347.958.085.238c.019.053.027.08.027.08l-.03-.078-.09-.237-.355-.955v-.004l.53-8.293.002.01a46.126 46.126 0 0 1-.977-1.894c-.078-.168-.158-.335-.218-.517-.052-.185-.07-.374-.091-.565-.037-.381-.056-.77-.068-1.165l-.002-.065.043.05.754.885-.04.015.012-1.296.007-.661c.005-.221.023-.444.034-.668l.079-1.358.01-.171a.558.558 0 0 1 .028-.176.483.483 0 0 1 .241-.26.53.53 0 0 1 .172-.053.222.222 0 0 1 .094.006.273.273 0 0 1 .084.044.891.891 0 0 1 .223.277l.002.005v.006a2831.762 2831.762 0 0 0 .231 3.13l-.049-.003c.084-.357.17-.71.263-1.059.047-.175.095-.348.149-.52a2.09 2.09 0 0 1 .095-.254.445.445 0 0 1 .197-.191c.16-.086.336-.127.51-.149.088-.01.176-.015.265-.012.085-.002.19.025.251.1a.322.322 0 0 1 .026.393.373.373 0 0 1-.1.093l-.42.297.01-.018-.167 1.57-.046-.009c.078-.256.16-.508.25-.755.045-.123.093-.245.143-.365.051-.12.104-.24.177-.35a.346.346 0 0 1 .069-.075.372.372 0 0 1 .287-.066.59.59 0 0 1 .345.171.27.27 0 0 1 .08.182.546.546 0 0 1-.036.191c-.043.12-.103.23-.171.335l.004-.011-.073.97-.039-.014.378-.555.047-.069c.017-.022.035-.049.06-.065a.248.248 0 0 1 .17-.043.566.566 0 0 1 .303.133c.02.02.042.038.057.068.01.036.005.063.003.09a2.076 2.076 0 0 1-.027.16 6.905 6.905 0 0 1-.073.311c-.052.204-.107.403-.163.599v-.003l-.435 3.516v-.002a26596.824 26596.824 0 0 0 .116 4.719l.005.258v.09Z"/><path fill="#E3956B" d="M25.895 25.433c-.007 0-.017-.132-.028-.345a42.597 42.597 0 0 1-.045-1.663 2.434 2.434 0 0 1 .008-.345c.006 0 .017.132.027.344a41.716 41.716 0 0 1 .046 1.663c0 .213-.002.346-.008.346Z"/><path fill="#423A33" d="M30.64 22.034a.348.348 0 0 1-.094.052 1.387 1.387 0 0 1-.71.107.282.282 0 0 1-.124-.047.17.17 0 0 1-.068-.129 1.748 1.748 0 0 1 .01-.28.548.548 0 0 1 .102-.264.33.33 0 0 1 .228-.134 1.199 1.199 0 0 1 .692.189.333.333 0 0 1 .084.065c-.005.01-.127-.086-.357-.157a1.132 1.132 0 0 0-.413-.05.285.285 0 0 0-.195.117.511.511 0 0 0-.09.242 1.77 1.77 0 0 0-.011.268c0 .084.076.123.151.134.155.02.301.011.419-.008.237-.041.372-.114.376-.105Z"/><path fill="#D6AA9C" d="M41.605 24.146a.975.975 0 0 1-.258.004 2.9 2.9 0 0 1-1.194-.347.987.987 0 0 1-.217-.143c.004-.007.09.042.233.11.142.07.344.155.576.222.232.067.448.104.605.122.157.02.255.024.255.032Z"/><path fill="#A67C77" d="M33.988 13.645c-.226 0-.45-.08-.549-.28-.08-.162-.05-.353-.013-.5.053-.217.22-.789.565-1.136-.34.139-.696.516-.835.76a.035.035 0 1 1-.062-.034c.139-.244.577-.74 1.007-.834l.02-.004a.839.839 0 0 1 .371-.158.603.603 0 0 1 .569.21c.108.143.126.32.1.479.058.02.102.05.134.092.07.089.076.218.019.384a1.581 1.581 0 0 1-1.077.99c-.08.02-.165.03-.25.03Zm.161-1.962c-.406.308-.597.965-.654 1.198-.034.136-.063.311.008.453.119.24.454.277.716.21.466-.119.87-.49 1.028-.944.049-.142.046-.249-.008-.318a.215.215 0 0 0-.092-.065.868.868 0 0 1-.037.113c-.154.374-.616.924-1.084.983a.036.036 0 0 1-.04-.03.036.036 0 0 1 .031-.04c.435-.055.884-.591 1.027-.94a.78.78 0 0 0 .035-.105.657.657 0 0 0-.113-.01c-.071 0-.142.004-.214.013a.839.839 0 0 1-.574.8.445.445 0 0 1-.329-.02.224.224 0 0 1-.113-.138c-.031-.112.029-.237.17-.353.219-.18.49-.301.772-.35a.553.553 0 0 0-.211-.391.413.413 0 0 0-.318-.066Zm.533.529a1.594 1.594 0 0 0-.732.333c-.068.056-.178.167-.146.28.011.04.038.072.079.094a.38.38 0 0 0 .274.015.779.779 0 0 0 .525-.722Zm-.413-.606a.454.454 0 0 1 .24.086c.13.093.218.255.239.438.073-.01.145-.014.218-.012a.72.72 0 0 1 .127.011.543.543 0 0 0-.089-.417.53.53 0 0 0-.501-.184.75.75 0 0 0-.234.078ZM25.58 11.626a.035.035 0 0 1-.025-.06.4.4 0 0 0 .096-.407.658.658 0 0 0-.046-.118c-.233.095-.504.13-.697.118-.197-.012-.325-.07-.36-.162-.03-.076.004-.165.1-.264a.513.513 0 0 1 .512-.147c.188.048.366.19.474.365a.672.672 0 0 0 .317-.267.891.891 0 0 0 .018-.782c-.08.01-.151.015-.21.013-.396-.01-.796-.213-.889-.387-.033-.061-.02-.105-.004-.132.042-.066.158-.095.344-.086a.931.931 0 0 1 .8.516c.351-.053.825-.217.988-.494.078-.133.072-.28-.02-.438-.13-.217-.37-.224-.5-.208a.892.892 0 0 0-.149.03c.023.06.04.122.05.188.027.176-.034.484-.19.57-.058.031-.155.046-.285-.067-.14-.123-.138-.252-.11-.339.049-.16.225-.312.44-.394a.643.643 0 0 0-.48-.357.036.036 0 0 1-.03-.04.036.036 0 0 1 .04-.03c.237.036.43.186.536.403a.944.944 0 0 1 .17-.035c.255-.03.457.056.568.242.107.181.113.353.02.51-.17.29-.652.464-1.017.524a.961.961 0 0 1-.028.826.733.733 0 0 1-.344.296c.02.041.037.084.049.127a.47.47 0 0 1-.112.476.036.036 0 0 1-.025.01Zm-.56-.988c-.1 0-.214.034-.322.144-.052.053-.108.13-.085.19.025.063.137.107.3.117.187.011.441-.024.656-.11a.75.75 0 0 0-.426-.325.495.495 0 0 0-.122-.016Zm.127-1.26c-.172 0-.212.042-.221.055-.01.015-.007.035.006.06.073.137.431.34.829.35.05.002.109-.001.175-.008l-.006-.012a.861.861 0 0 0-.784-.444Zm1.115-.64c-.195.074-.358.21-.402.35-.03.097 0 .186.09.265.08.07.149.089.205.058.123-.067.177-.343.154-.497a.797.797 0 0 0-.047-.176ZM35.33 24.249a.712.712 0 0 1-.255-.05.035.035 0 1 1 .025-.066.567.567 0 0 0 .538-.051c.22-.147.372-.456.38-.767l-.001-.082a.586.586 0 0 1-.4.113c-.132-.006-.242-.057-.302-.14-.053-.074-.064-.142-.033-.202.074-.146.374-.18.484-.18h.002c.107 0 .211.07.267.182a.469.469 0 0 1 .029.073.462.462 0 0 0 .04-.075.738.738 0 0 0-.066-.65c-.089.199-.427.294-.636.258-.156-.027-.236-.123-.213-.258.017-.098.094-.185.212-.24.216-.1.421-.077.581.065a.569.569 0 0 0-.187-.264c-.223-.199-.44-.294-.645-.287a.035.035 0 0 1-.037-.034c0-.02.014-.036.034-.037.225-.01.458.094.695.305.154.138.227.272.219.4.163.21.212.53.109.769a.532.532 0 0 1-.087.14c.007.051.007.102.006.146-.008.333-.173.664-.41.823a.619.619 0 0 1-.35.109Zm.438-1.355h-.002c-.142 0-.373.047-.422.142-.018.035-.008.078.028.13.047.065.138.106.249.11a.505.505 0 0 0 .386-.129.401.401 0 0 0-.036-.11c-.036-.071-.113-.143-.203-.143Zm-.112-.77a.539.539 0 0 0-.226.054c-.046.021-.154.082-.172.188-.02.12.073.162.156.176.218.038.54-.082.572-.258a.42.42 0 0 0-.33-.16Z"/><path fill="#D6AA9C" d="M29.226 19.834c.003.005-.031.034-.097.06a.569.569 0 0 1-.53-.066c-.057-.042-.083-.078-.08-.081.009-.011.137.111.343.134.205.028.36-.06.364-.047Z"/><path fill="#D6AA9C" d="M29.213 19.993c.003.004-.03.033-.097.06a.569.569 0 0 1-.53-.066c-.057-.042-.082-.078-.079-.082.008-.01.136.112.342.135.205.028.36-.06.364-.047ZM32.447 19.578c.005.003-.012.044-.06.097a.569.569 0 0 1-.503.177c-.07-.012-.11-.032-.108-.037.003-.014.172.039.367-.032.195-.067.294-.214.304-.205Z"/><path fill="#D6AA9C" d="M32.508 19.726c.005.002-.012.043-.06.096a.573.573 0 0 1-.504.177c-.07-.011-.108-.032-.107-.037.002-.013.171.04.366-.031.196-.067.295-.215.305-.205Z"/><path fill="#fff" d="M32.195 19.498a.146.146 0 0 1 .157-.054c.057.017.1.073.1.132.078-.02.161.03.196.103.035.071.03.157.01.234a.225.225 0 0 1-.052.102c-.028.028-.071.043-.107.027-.04-.018-.058-.069-.056-.114.001-.045.018-.088.023-.133.005-.045-.004-.096-.04-.122-.032-.022-.073-.02-.111-.025-.038-.004-.08-.02-.09-.058a.56.56 0 0 1-.449-.006c.202-.08.387-.16.419-.086Z" opacity=".4"/><path fill="#fff" d="M32.097 22.607c.175-.594.245-1.207.295-1.82a.21.21 0 0 1 .028-.105c.022-.032.069-.054.11-.041.04.011.055.062.024.082.062 1.117-.293 2.301-.96 3.257-.092.132-.22.276-.404.277.448-.48.733-1.056.907-1.65Z" opacity=".2"/><path fill="#fff" d="M28.215 19.268c.037-.025.088-.021.128-.002a.39.39 0 0 1 .105.083c-.024-.036.006-.089.048-.098.042-.01.085.012.115.042.03.03.053.068.082.1a.315.315 0 0 0 .23.102l.108.036a.453.453 0 0 1-.499-.029.226.226 0 0 1-.181.056.225.225 0 0 1-.158-.105c-.035-.059-.035-.147.022-.185ZM32.56 20.183l.03.013a.096.096 0 0 1 .042.12.097.097 0 0 1-.118.05.098.098 0 0 1-.06-.112.098.098 0 0 1 .106-.071Z" opacity=".4"/><path fill="#D6AA9C" d="M30.13 16.696c.003-.003.03.024.047.08a.302.302 0 0 1-.02.226.303.303 0 0 1-.174.145c-.056.018-.093.012-.093.008 0-.006.034-.01.084-.031a.319.319 0 0 0 .15-.139.319.319 0 0 0 .028-.202c-.01-.053-.027-.084-.022-.087ZM30.873 17.202c0 .004-.037.002-.084-.03a.242.242 0 0 1-.1-.193c0-.09.053-.16.099-.193.046-.034.083-.035.083-.032.002.006-.03.017-.067.052a.245.245 0 0 0-.079.173c0 .076.043.139.08.172.038.035.07.046.068.051Z"/><path fill="#fff" d="M37.655 33.519c0-.002.01-.012.032-.032l.1-.086c.089-.076.223-.181.39-.325a24.74 24.74 0 0 0 1.378-1.252 20.885 20.885 0 0 0 2.314-2.698c.161-.221.324-.443.457-.69a5.55 5.55 0 0 0 .577-1.631c.05-.293.075-.588.06-.875a2.27 2.27 0 0 0-.182-.821 2.513 2.513 0 0 0-1.05-1.177c-.443-.262-.925-.391-1.375-.475-.454-.08-.884-.116-1.276-.142-.392-.025-.748-.039-1.06-.074a5.176 5.176 0 0 1-1.278-.296c-.052-.021-.093-.037-.122-.05-.028-.011-.042-.018-.04-.02 0-.001.015.002.043.011l.126.04a5.51 5.51 0 0 0 1.276.26c.31.03.665.04 1.059.06.394.022.825.055 1.285.13.457.082.949.21 1.407.478.461.258.86.688 1.092 1.216.12.264.177.558.192.854.015.297-.01.598-.062.897a5.6 5.6 0 0 1-.59 1.66c-.136.253-.303.48-.464.7a19.957 19.957 0 0 1-2.341 2.692c-.57.546-1.058.957-1.403 1.232-.17.139-.309.24-.4.311l-.107.078a.165.165 0 0 1-.038.025ZM34.22 36.045c0 .001-.016.01-.048.025l-.146.064-.238.102-.333.116a8.407 8.407 0 0 1-.938.245 10.02 10.02 0 0 1-1.273.157c-.475.027-.997.029-1.555 0a27.637 27.637 0 0 1-1.776-.154c-.623-.072-1.276-.154-1.953-.244-.676-.089-1.376-.183-2.094-.26-1.436-.158-2.82-.205-4.06-.038-.31.034-.605.1-.873.218-.134.058-.26.127-.372.211-.11.085-.205.187-.27.303a.756.756 0 0 0 0 .736c.116.223.294.4.47.553.355.311.72.539 1.05.715a5.779 5.779 0 0 0 1.472.536l.156.03a.189.189 0 0 1 .052.014c0 .002-.019 0-.054-.003-.036-.005-.09-.01-.158-.022a4.793 4.793 0 0 1-.596-.142 5.697 5.697 0 0 1-.898-.364 5.46 5.46 0 0 1-1.07-.71c-.18-.155-.365-.334-.491-.572a.923.923 0 0 1-.107-.396.836.836 0 0 1 .103-.414c.07-.128.173-.239.29-.33.118-.09.25-.163.388-.224.276-.122.584-.193.896-.228 1.25-.174 2.642-.129 4.081.03.72.077 1.421.172 2.097.263.676.09 1.329.175 1.951.25a28.68 28.68 0 0 0 1.77.162c.555.031 1.074.034 1.546.011.473-.019.897-.08 1.267-.141a8.936 8.936 0 0 0 1.27-.335l.242-.093.149-.055a.214.214 0 0 1 .052-.016Z"/><path fill="#fff" d="m39.505 27.108.014-.015.047-.042c.042-.038.103-.093.181-.17.155-.151.385-.378.631-.709a1.71 1.71 0 0 0 .3-.606c.06-.24.074-.52-.029-.79a1.506 1.506 0 0 0-.585-.694 1.473 1.473 0 0 0-.466-.182 2.194 2.194 0 0 0-.53-.038c-.735.046-1.536.186-2.368.431-.833.243-1.696.593-2.57 1.027a27.21 27.21 0 0 0-2.656 1.526c-.895.575-1.79 1.217-2.717 1.863a42.756 42.756 0 0 1-2.764 1.803c-.923.535-1.845 1.003-2.767 1.341-.232.082-.458.169-.689.234-.114.036-.228.07-.34.104l-.341.087c-.45.12-.901.19-1.34.203-.219.005-.435 0-.646-.03-.105-.01-.208-.034-.31-.053-.052-.01-.102-.027-.151-.04a2.337 2.337 0 0 1-.688-.31c-.077-.06-.16-.113-.227-.183l-.104-.1-.09-.11a1.942 1.942 0 0 1-.405-.979 2.51 2.51 0 0 1 .066-.944c.075-.288.196-.541.336-.752.138-.213.286-.392.426-.545a6.063 6.063 0 0 1 .95-.834c.012-.008.018-.012.019-.01l-.016.014-.049.04c-.043.035-.108.087-.191.157-.166.14-.41.35-.685.658-.137.155-.28.334-.415.545-.135.21-.25.458-.321.74-.073.282-.1.597-.058.924a1.88 1.88 0 0 0 .485 1.05l.1.095c.064.067.146.117.22.176a2.263 2.263 0 0 0 .668.296c.049.013.097.028.146.038.1.018.2.04.305.05.205.028.418.032.633.026a5.793 5.793 0 0 0 1.321-.205l.338-.087.338-.104c.229-.066.454-.152.683-.234.915-.339 1.832-.806 2.75-1.34a43.396 43.396 0 0 0 2.757-1.8c.926-.646 1.823-1.288 2.72-1.864a26.872 26.872 0 0 1 2.669-1.526c.879-.434 1.747-.783 2.587-1.024.839-.244 1.645-.38 2.388-.422a2.25 2.25 0 0 1 .546.042c.175.038.34.104.486.194.29.181.488.45.603.727.105.285.087.576.022.822a1.742 1.742 0 0 1-.314.617c-.253.33-.488.553-.648.7-.08.075-.144.127-.188.163-.02.017-.038.03-.05.039l-.017.01Z"/></g></g><defs><clipPath id="a"><rect width="48" height="48" fill="#fff" rx="24"/></clipPath><clipPath id="b"><path fill="#fff" d="M0 0h48v48H0z"/></clipPath></defs></svg>