<svg xmlns="http://www.w3.org/2000/svg" width="48" height="48" fill="none"><g clip-path="url(#a)"><rect width="48" height="48" fill="#fff" rx="24"/><g clip-path="url(#b)"><path fill="#BF9892" d="M38.669 29.429c.142-.09.293-.159.45-.207l.084-.45.758-.03.119.443c.16.036.316.093.464.172l.378-.26.557.517-.23.397c.09.141.158.293.206.45l.452.084.029.758-.444.118a1.86 1.86 0 0 1-.171.464l.259.379-.516.556-.397-.229c-.142.09-.293.159-.45.207l-.084.45-.758.03-.119-.443a1.853 1.853 0 0 1-.464-.172l-.378.26-.557-.517.23-.397a1.852 1.852 0 0 1-.207-.45l-.45-.084-.03-.758.444-.118a1.86 1.86 0 0 1 .171-.464l-.26-.379.517-.556.397.229Zm.425 1.003a.814.814 0 1 0 1.194 1.106.814.814 0 0 0-1.194-1.106Z" opacity=".63"/><g fill="#BF9892" opacity=".63"><path d="m39.972 17.42.867.364s.306-.729 1.068-.424a.761.761 0 0 1 .492.733c0 .27-.138.518-.356.677-.25.181-.664.266-1.206-.082l-.82 1.956.858.36.48-1.146s1.335.193 1.89-1.133c.533-1.269-.482-2.04-.969-2.245-.372-.156-1.679-.598-2.304.94ZM40.716 21.409l-.87-.365-.341.813.87.365.341-.813Z"/></g><path fill="#BF9892" d="m40.959 12.948-1.868.797.223.278-1.486.885 2.163-.854-.23-.286 1.198-.82ZM34.477 7.468l-.352 3.22.56-.092.068 2.759.504-3.676-.577.096-.203-2.307Z" opacity=".63"/><g fill="#BF9892" opacity=".63"><path d="m37.903 8.308-1 2.82a.484.484 0 0 0 .88.4l1.483-2.63a.38.38 0 0 0-.186-.538l-.674-.277a.38.38 0 0 0-.503.225ZM37.212 13.578a.729.729 0 1 1-1.092-.965.729.729 0 0 1 1.092.965Z"/></g><path fill="#BF9892" d="M38.286 22.68c.666-1.107.894-2.459.676-3.73a2.293 2.293 0 0 0-.032-.152c-.093-.44-.164-.8-.378-1.174a5.754 5.754 0 0 0-.139-.277c-.882-1.637-2.664-2.751-4.523-2.826-.316-2.996-2.41-5.736-5.218-6.828-2.808-1.092-6.203-.486-8.46 1.508-2.385-1.786-5.68-2.282-8.486-1.277C8.921 8.929 6.69 11.405 5.982 14.3c-.216.886-.307 1.824-.758 2.615-.341.598-.863 1.066-1.31 1.589a7.668 7.668 0 0 0-1.705 6.147 7.67 7.67 0 0 0 3.605 5.262c-1.508 2.073-.98 5.337 1.108 6.827 1.198.855 2.796 1.182 3.71 2.337.388.492.613 1.09.95 1.619 1.146 1.794 3.692 2.529 5.618 1.62l10.229-2.6a13.478 13.478 0 0 0 9.613-3.06c.98-.821 1.862-1.816 2.287-3.023.425-1.206.323-2.65-.492-3.634 1.925-1.985 1.65-5.647-.551-7.32Z" opacity=".37"/><path fill="#F5F5F5" d="M13.707 27.462c.147-.093.305-.165.469-.215l.088-.47.79-.03.124.462c.167.037.33.097.484.179l.394-.27.58.538-.239.413c.094.148.166.306.215.47l.47.087.03.79-.461.125c-.038.166-.097.329-.18.483l.27.394-.537.58-.414-.239a1.93 1.93 0 0 1-.469.215l-.088.47-.79.03-.124-.462a1.919 1.919 0 0 1-.484-.179l-.394.27-.58-.537.24-.414a1.927 1.927 0 0 1-.216-.469l-.47-.088-.03-.79.462-.124c.037-.167.097-.33.18-.484l-.271-.394.538-.58.413.24Zm.443 1.045a.849.849 0 1 0 1.245 1.154.849.849 0 0 0-1.245-1.154ZM28.268 14.79c.08-.05.165-.09.254-.117l.047-.253.427-.017.067.25c.09.02.178.052.261.097l.213-.146.314.29-.13.224c.05.08.09.165.117.254l.253.047.017.427-.25.067c-.02.09-.052.178-.096.261l.145.213-.29.313-.224-.129c-.08.05-.165.09-.253.117l-.048.253-.427.017-.066-.25a1.05 1.05 0 0 1-.262-.097l-.213.146-.313-.29.13-.224c-.051-.08-.09-.165-.117-.254l-.254-.047-.016-.427.25-.067c.02-.09.052-.178.096-.261l-.146-.213.29-.314.224.13Zm.24.565a.459.459 0 1 0 .673.623.459.459 0 0 0-.673-.623ZM7.626 32.57a1.34 1.34 0 0 1 .327-.15l.062-.328.552-.021.086.323c.117.026.23.068.338.125l.276-.19.406.377-.167.29c.065.102.115.213.15.327l.329.061.02.553-.322.086c-.027.116-.068.23-.125.338l.189.276-.376.405-.29-.167a1.34 1.34 0 0 1-.327.15l-.062.329-.552.02-.086-.322a1.376 1.376 0 0 1-.339-.125l-.275.189-.406-.376.167-.29a1.356 1.356 0 0 1-.15-.327l-.329-.062-.02-.552.322-.086c.027-.117.068-.23.125-.339l-.189-.275.376-.406.29.167Zm.31.73a.593.593 0 1 0 .87.807.593.593 0 0 0-.87-.806ZM32.715 33.381c.104-.065.214-.115.328-.15l.061-.329.553-.02.086.323c.116.026.23.068.338.124l.276-.188.406.376-.167.289c.065.103.115.214.15.327l.329.062.02.552-.323.086c-.026.117-.068.23-.124.339l.188.275-.376.406-.289-.167a1.348 1.348 0 0 1-.328.15l-.06.328-.553.021-.086-.323a1.371 1.371 0 0 1-.339-.125l-.275.19-.406-.377.167-.29a1.36 1.36 0 0 1-.15-.327l-.33-.061-.02-.552.323-.087c.026-.116.068-.23.125-.338l-.189-.275.376-.406.29.167Zm.31.731a.593.593 0 1 0 .87.806.593.593 0 0 0-.87-.806ZM10.04 23.291a1.16 1.16 0 0 0-.737-.682c-.286-.082-.623-.05-.846-.247-.107-.094-.17-.226-.263-.332-.167-.19-.42-.282-.672-.315-.84-.114-1.61.461-1.916 1.134-.344.227-.692.459-.952.779s-.42.747-.323 1.147c.07.294.27.545.342.838.066.268.022.55.043.825.021.275.138.577.395.677.317.124.71-.11 1.002.064.2.118.263.376.425.541.282.286.757.212 1.136.08.439-.15.86-.352 1.253-.599.257-.16.506-.345.687-.588.182-.242.291-.553.24-.852-.03-.182-.117-.354-.128-.538-.02-.326.194-.612.31-.917.123-.323.133-.694.004-1.015Z"/><path fill="#F5F5F5" d="m9.412 26.82-.82.565-.001.001.839.298-.018-.864Z"/><path fill="#BF9892" d="M6.738 24.783a.338.338 0 1 1-.677 0 .338.338 0 0 1 .677 0ZM7.788 24.783a.338.338 0 1 1-.677 0 .338.338 0 0 1 .677 0ZM8.839 24.783a.338.338 0 1 1-.677 0 .338.338 0 0 1 .677 0Z"/><path fill="#F5F5F5" d="M35.773 17.58c-.076-.124-.24-.153-.384-.166a6.31 6.31 0 0 0-1.569.054c-.183.03-.444.013-.462-.172-.01-.108.088-.2.19-.239.178-.067.375-.035.565-.04.19-.004.405-.067.481-.241.116-.264-.185-.537-.47-.578-.285-.042-.584.037-.859-.049l-.6.013a5.231 5.231 0 0 0-1.31.19c-.12.034-.26.097-.269.221-.008.122.116.204.174.311.116.215-.073.487-.303.572-.229.084-.483.05-.726.068-.244.02-.516.121-.596.352-.064.182.013.39-.043.574-.071.234-.33.358-.57.4-.242.044-.497.037-.72.139a.818.818 0 0 0-.448.88.817.817 0 0 0 .758.634c.173.004.342-.047.514-.057a.587.587 0 0 1 .363.089c.021.364.273.721.631.817.238.064.494.023.735.075.242.05.49.256.444.498-.033.173-.205.3-.218.475-.017.215.216.372.43.391.215.02.43-.047.644-.034.215.012.455.15.46.364.005.24-.276.409-.282.648-.004.2.188.349.375.42.187.073.397.11.544.247.147.136.172.426-.01.507.296-.01.47-.44.264-.655-.127-.132-.341-.168-.44-.323-.11-.173-.013-.412.144-.542.158-.13.361-.187.548-.27.187-.084.373-.217.422-.416.072-.297-.214-.58-.513-.646-.299-.067-.609.008-.915.027-.306.018-.654-.044-.826-.298l1-.475c.091-.043.191-.097.222-.193.056-.172-.14-.312-.305-.386l-.65-.296a.363.363 0 0 0-.027-.116c.396-.162.842-.1 1.266-.043.423.057.876.103 1.258-.088.383-.191.629-.712.383-1.062-.132-.189-.39-.318-.395-.549-.004-.19.178-.335.358-.396.18-.06.38-.073.546-.165.167-.09.291-.31.191-.471Z"/><path fill="#BF9892" d="M31.025 18.997a.324.324 0 1 0 0-.647.324.324 0 0 0 0 .647ZM32.353 18.673a.324.324 0 1 1-.647 0 .324.324 0 0 1 .647 0ZM33.035 18.997a.324.324 0 1 0 0-.647.324.324 0 0 0 0 .647Z"/><path fill="#F5F5F5" d="M10.38 11.219a1.89 1.89 0 0 0-1.701 1.116 1.89 1.89 0 0 0 .362 2.003c-.883.19-1.45 1.225-1.213 2.097.237.872 1.168 1.468 2.07 1.405.901-.062 1.709-.721 2.04-1.562a1.89 1.89 0 0 0 1.68 1.23 1.889 1.889 0 0 0 1.754-1.122c.397.74 1.532.865 2.182.33.65-.534.799-1.526.487-2.307-.312-.781-1.005-1.361-1.768-1.714.487-.439.547-1.243.2-1.799-.346-.555-1.03-.853-1.683-.82-.654.034-1.27.366-1.733.83a1.392 1.392 0 0 0-1.405-.865 1.393 1.393 0 0 0-1.195 1.139"/><path fill="#BF9892" d="m11.38 12.824.845 1.488a.277.277 0 0 0 .502-.23l-.58-1.626a.217.217 0 0 0-.303-.12l-.372.187a.217.217 0 0 0-.091.301ZM13.4 15.096a.417.417 0 1 1-.826.11.417.417 0 0 1 .826-.11ZM14.112 11.94l.027 1.476a.239.239 0 0 0 .476.032l.23-1.472a.188.188 0 0 0-.18-.216l-.359-.011a.187.187 0 0 0-.194.19ZM14.706 14.494a.36.36 0 1 1-.672-.258.36.36 0 0 1 .672.258Z"/><path fill="#F5F5F5" d="m27.656 26.733-.764 2.16a.371.371 0 0 0 .672.306l1.137-2.015a.29.29 0 0 0-.143-.412l-.516-.212a.292.292 0 0 0-.386.173ZM27.128 30.77a.558.558 0 1 1-.837-.74.558.558 0 0 1 .837.74ZM18.733 12.075h.728s0-.671.636-.683c.33-.007.502.23.572.412a.777.777 0 0 1-.052.648c-.124.224-.395.427-.886.332v1.803h.72v-1.056s1.01-.287 1.01-1.509c0-1.17-.955-1.44-1.364-1.44-.312 0-1.378.082-1.364 1.493ZM20.46 14.959h-.732v.749h.732v-.75ZM37.914 25.017s.009-.01.03-.028a.318.318 0 0 1 .11-.054.407.407 0 0 1 .432.145c.066.082.11.199.116.33a.831.831 0 0 1-.1.411c-.144.275-.393.54-.711.782-.16.121-.337.237-.527.351-.19.114-.391.231-.609.34a4.284 4.284 0 0 1-.706.286 2.624 2.624 0 0 1-.394.088c-.136.02-.277.029-.42.023-.14-.003-.293-.022-.42-.108a.31.31 0 0 1-.127-.187.381.381 0 0 1 .028-.229c.06-.144.172-.259.284-.367.113-.11.239-.208.37-.303.263-.186.545-.36.834-.538.291-.175.602-.343.945-.45.172-.053.35-.09.535-.105.183-.013.373-.005.555.052.178.057.358.16.457.334a.625.625 0 0 1 .01.573.996.996 0 0 1-.406.432 2.359 2.359 0 0 1-.557.235 3.705 3.705 0 0 1-1.233.119 9.146 9.146 0 0 1-1.27-.184 5.888 5.888 0 0 1-.638-.156 2.671 2.671 0 0 1-.312-.12.79.79 0 0 1-.281-.193.296.296 0 0 1-.045-.335.61.61 0 0 1 .247-.243c.2-.12.433-.166.662-.189.46-.037.929-.039 1.4.004a6.125 6.125 0 0 1 1.057.193.969.969 0 0 1 .338.147c.098.076.174.203.15.337-.025.134-.134.223-.239.286a1.936 1.936 0 0 1-1.08.245 1.33 1.33 0 0 1-.371-.07.565.565 0 0 1-.305-.233.402.402 0 0 1 .001-.383.673.673 0 0 1 .656-.349.52.52 0 0 1 .35.174c.086.102.13.239.12.373a.405.405 0 0 1-.066.191.402.402 0 0 1-.152.134.58.58 0 0 1-.394.039c-.13-.03-.26-.103-.32-.234a.215.215 0 0 1 .02-.208.3.3 0 0 1 .173-.115c.14-.03.273.014.398.048.127.038.253.087.364.164a.685.685 0 0 1 .254.314.48.48 0 0 1-.022.403.726.726 0 0 1-.29.284 1.01 1.01 0 0 1-.387.125 1.154 1.154 0 0 1-.78-.193 1.408 1.408 0 0 1-.504-.636c-.102-.253-.143-.545-.054-.813a.683.683 0 0 1 .241-.338c.114-.084.247-.131.38-.164.266-.066.541-.074.81-.064.27.014.54.025.804.09.26.064.516.202.674.428a.755.755 0 0 1 .133.382.96.96 0 0 1-.062.398c-.095.255-.287.458-.498.612-.107.078-.22.145-.335.208-.114.063-.232.12-.354.17a1.364 1.364 0 0 1-.77.095 2.014 2.014 0 0 1-.71-.3 2.01 2.01 0 0 1-.562-.519 1.436 1.436 0 0 1-.258-.71 1.733 1.733 0 0 1 .1-.743c.084-.235.217-.452.389-.63.171-.179.374-.324.595-.429.22-.103.458-.169.7-.19.24-.023.483.004.712.072.227.07.446.193.589.388.143.193.2.432.218.662a2.957 2.957 0 0 1-.57 1.918c-.135.176-.3.331-.493.438a1.174 1.174 0 0 1-.632.147 1.009 1.009 0 0 1-.585-.249c-.164-.136-.297-.298-.431-.455a2.05 2.05 0 0 1-.34-.515.916.916 0 0 1-.068-.3.87.87 0 0 1 .044-.301c.062-.193.175-.362.3-.513.25-.3.582-.532.95-.624.366-.093.763-.049 1.071.145.31.191.518.5.639.818.12.32.16.66.12.982-.042.321-.18.626-.408.835-.227.209-.515.317-.792.375a2.45 2.45 0 0 1-.821.035 1.244 1.244 0 0 1-.683-.322 1.404 1.404 0 0 1-.372-.587 1.445 1.445 0 0 1-.06-.628c.048-.401.23-.726.43-.959.202-.234.42-.384.603-.487.184-.103.335-.16.436-.196.103-.035.156-.048.156-.048l-.039.013a2.787 2.787 0 0 0-.549.238 2.246 2.246 0 0 0-.597.49 1.802 1.802 0 0 0-.423.951c-.024.197-.008.41.061.62.07.209.19.413.368.577.175.166.412.279.671.314.26.038.536.018.812-.037.275-.057.558-.165.779-.37.221-.204.356-.502.396-.817.041-.317.001-.653-.12-.968-.118-.313-.323-.614-.625-.8-.3-.189-.688-.232-1.045-.14-.36.09-.686.317-.932.614a1.537 1.537 0 0 0-.293.5.838.838 0 0 0-.041.288.886.886 0 0 0 .066.288c.077.184.202.347.334.504.133.157.266.318.426.45a.972.972 0 0 0 .563.24c.21.014.423-.04.61-.143.187-.103.348-.255.48-.427.134-.173.241-.368.329-.572.174-.408.26-.864.231-1.32-.017-.224-.074-.455-.21-.64a1.088 1.088 0 0 0-.568-.372 1.875 1.875 0 0 0-.696-.07 2.08 2.08 0 0 0-.684.188c-.432.204-.8.571-.962 1.035-.081.23-.12.478-.097.723.023.245.105.486.25.688.145.203.338.37.55.506.213.135.445.248.694.294.25.049.508.002.745-.094a3.16 3.16 0 0 0 .348-.167 2.91 2.91 0 0 0 .33-.205c.207-.151.391-.347.481-.59a.911.911 0 0 0 .06-.38.71.71 0 0 0-.126-.358c-.149-.214-.392-.347-.647-.41-.256-.063-.526-.074-.793-.088a2.882 2.882 0 0 0-.798.062c-.13.032-.257.078-.363.157a.635.635 0 0 0-.225.316c-.084.253-.046.534.053.78.1.246.268.467.487.615.217.15.489.215.748.185a.954.954 0 0 0 .37-.119.68.68 0 0 0 .272-.265.43.43 0 0 0 .02-.365.637.637 0 0 0-.238-.292 1.219 1.219 0 0 0-.35-.158c-.125-.034-.254-.075-.374-.047a.248.248 0 0 0-.147.095.168.168 0 0 0-.016.164c.05.11.169.18.288.208.121.028.254.02.363-.035a.35.35 0 0 0 .193-.289.472.472 0 0 0-.108-.34.471.471 0 0 0-.32-.157.628.628 0 0 0-.61.324.356.356 0 0 0-.003.34.52.52 0 0 0 .28.213c.114.043.237.06.36.068a1.898 1.898 0 0 0 1.054-.238c.1-.06.198-.145.218-.257.02-.11-.045-.225-.135-.294a.923.923 0 0 0-.322-.139 6.137 6.137 0 0 0-1.05-.192 8.009 8.009 0 0 0-1.392-.005c-.226.022-.453.069-.645.183a.574.574 0 0 0-.231.225.256.256 0 0 0 .04.29c.07.082.167.136.267.182.1.047.202.085.306.119.209.067.422.113.635.155.425.086.846.161 1.264.185.416.024.832-.006 1.22-.116.192-.057.38-.13.548-.231a.957.957 0 0 0 .392-.415.588.588 0 0 0-.008-.54c-.092-.164-.264-.264-.437-.319a1.437 1.437 0 0 0-.542-.05c-.181.013-.358.05-.527.102-.34.105-.649.27-.939.444-.288.178-.571.352-.833.536-.13.094-.255.192-.367.3-.111.107-.22.219-.278.357a.355.355 0 0 0-.027.212c.014.07.059.13.116.17.118.082.267.101.406.105.14.006.28-.001.415-.022a2.66 2.66 0 0 0 .391-.086c.253-.073.485-.175.703-.282.217-.108.419-.224.609-.338.19-.113.367-.228.526-.348.318-.239.566-.502.71-.773a.814.814 0 0 0 .1-.405.56.56 0 0 0-.112-.325.401.401 0 0 0-.226-.146.396.396 0 0 0-.197 0c-.1.03-.136.08-.137.077Z"/><path fill="#BF9892" d="M28.411 9.704s.015-.016.05-.044a.512.512 0 0 1 .174-.086.653.653 0 0 1 .69.232.911.911 0 0 1 .185.527c.01.21-.048.438-.16.658-.232.438-.63.864-1.14 1.25-.255.194-.54.378-.844.561-.304.183-.627.37-.976.545a6.853 6.853 0 0 1-1.129.456c-.203.061-.414.109-.631.14a3.482 3.482 0 0 1-.67.037c-.226-.006-.47-.036-.67-.172a.49.49 0 0 1-.2-.296.606.606 0 0 1 .044-.36c.096-.23.274-.413.453-.586.181-.175.381-.333.591-.483.21-.151.43-.293.653-.435.224-.143.45-.287.684-.428.466-.28.963-.548 1.512-.719.275-.085.56-.145.854-.167.293-.021.597-.01.886.083.143.046.284.11.41.196.126.086.24.198.316.334.163.272.147.623.016.909-.128.292-.374.52-.646.686a3.774 3.774 0 0 1-.89.376c-.628.18-1.299.228-1.971.19-.674-.038-1.35-.16-2.032-.296a9.33 9.33 0 0 1-1.023-.25 4.367 4.367 0 0 1-.498-.192c-.161-.074-.325-.163-.446-.304a.493.493 0 0 1-.118-.25.465.465 0 0 1 .047-.274.968.968 0 0 1 .39-.384c.319-.19.69-.264 1.056-.3.737-.06 1.487-.063 2.242.006.378.036.756.09 1.131.17.188.039.375.087.56.138.185.051.377.11.536.232.08.062.145.14.19.23a.475.475 0 0 1-.095.563c-.068.074-.15.133-.235.184a3.1 3.1 0 0 1-1.722.39c-.199-.013-.401-.04-.592-.111-.189-.07-.375-.184-.48-.367a.58.58 0 0 1-.076-.301.715.715 0 0 1 .078-.3c.188-.374.623-.59 1.037-.552.207.02.414.11.551.273a.812.812 0 0 1 .188.589.643.643 0 0 1-.103.3.637.637 0 0 1-.238.21.918.918 0 0 1-.622.06c-.204-.046-.411-.162-.504-.367a.33.33 0 0 1 .032-.32.463.463 0 0 1 .27-.177.79.79 0 0 1 .322 0c.105.02.206.047.308.076.202.06.403.14.58.262.176.122.323.293.401.497a.75.75 0 0 1-.035.635 1.153 1.153 0 0 1-.46.449 1.61 1.61 0 0 1-.615.198c-.43.05-.88-.06-1.24-.307a2.24 2.24 0 0 1-.8-1.013 2.176 2.176 0 0 1-.158-.638 1.612 1.612 0 0 1 .07-.654c.069-.212.203-.403.383-.535.18-.133.39-.209.602-.262.426-.104.865-.117 1.296-.1.431.021.864.039 1.284.143.416.102.822.322 1.071.68.124.177.199.39.212.605.014.216-.023.431-.1.632-.149.404-.454.727-.792.973a4.72 4.72 0 0 1-.534.334c-.184.1-.371.193-.566.27a2.644 2.644 0 0 1-.603.167 1.93 1.93 0 0 1-.623-.013c-.41-.076-.788-.261-1.133-.48a3.207 3.207 0 0 1-.897-.827 2.294 2.294 0 0 1-.412-1.13 2.768 2.768 0 0 1 .16-1.184c.065-.189.154-.368.258-.537.05-.085.113-.163.169-.245.064-.075.124-.153.193-.224.274-.284.597-.517.95-.684.353-.165.732-.27 1.115-.305.385-.036.772.008 1.138.115.362.11.71.309.937.617.227.307.32.687.347 1.054a4.726 4.726 0 0 1-.909 3.067c-.216.28-.48.527-.787.697a1.862 1.862 0 0 1-1.005.235 1.466 1.466 0 0 1-.5-.123c-.157-.07-.3-.165-.431-.273-.262-.217-.476-.477-.69-.729-.211-.253-.414-.517-.541-.822a1.457 1.457 0 0 1-.109-.476c-.007-.163.02-.326.069-.48.1-.307.279-.576.479-.817.4-.48.93-.85 1.517-.997.583-.148 1.217-.078 1.708.232.247.15.453.353.623.576.167.226.3.472.396.728.194.511.258 1.056.192 1.57a2.477 2.477 0 0 1-.213.733c-.107.229-.26.43-.437.598-.362.334-.822.508-1.265.6a3.9 3.9 0 0 1-1.313.056 2.116 2.116 0 0 1-.596-.176 1.95 1.95 0 0 1-.495-.336 2.24 2.24 0 0 1-.594-.938 2.298 2.298 0 0 1-.097-1.004c.037-.319.131-.611.254-.868.122-.257.273-.479.433-.666.323-.375.673-.616.965-.782a4.29 4.29 0 0 1 .699-.314c.163-.056.25-.078.25-.078l-.063.02a4.4 4.4 0 0 0-.88.38 3.584 3.584 0 0 0-.96.783c-.159.187-.308.408-.43.664-.12.255-.213.546-.25.863-.038.316-.013.66.099.995.11.335.306.665.59.928a1.96 1.96 0 0 0 1.08.505c.416.06.86.03 1.303-.059.441-.092.896-.265 1.252-.594.175-.166.324-.364.43-.59.105-.225.176-.47.209-.725a3.227 3.227 0 0 0-.191-1.554 2.946 2.946 0 0 0-.392-.72 2.274 2.274 0 0 0-.616-.567c-.482-.304-1.107-.373-1.681-.227-.579.146-1.102.51-1.499.987a2.48 2.48 0 0 0-.471.805c-.048.15-.074.308-.067.467.007.158.046.315.106.463.124.297.325.56.537.812.213.251.426.51.684.722.254.215.57.367.91.387.337.022.68-.066.982-.23.302-.168.56-.41.775-.688a4.687 4.687 0 0 0 .9-3.038c-.029-.363-.12-.734-.34-1.032-.22-.299-.56-.492-.916-.601a3.012 3.012 0 0 0-1.12-.113 3.342 3.342 0 0 0-1.102.302 3.194 3.194 0 0 0-.935.675c-.069.07-.128.147-.19.221-.056.08-.118.157-.167.241a2.73 2.73 0 0 0-.255.528c-.13.37-.194.77-.155 1.165.036.394.169.783.404 1.109.232.327.543.595.884.814.341.217.714.4 1.116.473.201.036.407.043.609.013s.4-.087.592-.164c.192-.076.378-.168.56-.268.183-.1.361-.207.529-.33.334-.244.632-.56.777-.953.074-.195.11-.405.097-.612a1.15 1.15 0 0 0-.204-.582 1.505 1.505 0 0 0-.46-.423c-.18-.11-.38-.187-.585-.239-.413-.103-.845-.12-1.274-.142-.429-.016-.864-.003-1.283.1a1.638 1.638 0 0 0-.586.253c-.171.126-.299.309-.365.513a1.57 1.57 0 0 0-.068.635c.017.215.073.425.153.624.161.397.431.753.784.992.35.242.79.348 1.209.299a1.561 1.561 0 0 0 .597-.192c.182-.102.345-.248.442-.43a.704.704 0 0 0 .032-.597 1.034 1.034 0 0 0-.384-.475 1.971 1.971 0 0 0-.567-.255c-.199-.055-.407-.121-.605-.076a.417.417 0 0 0-.244.159.282.282 0 0 0-.026.276c.038.09.111.165.194.222a.827.827 0 0 0 .277.118.873.873 0 0 0 .59-.057.597.597 0 0 0 .222-.195.598.598 0 0 0 .095-.278.772.772 0 0 0-.176-.555.77.77 0 0 0-.52-.257c-.397-.038-.815.17-.993.526a.67.67 0 0 0-.074.281.538.538 0 0 0 .07.278c.097.17.274.28.457.347.184.068.382.095.58.109.197.012.395.005.59-.02.389-.05.769-.173 1.106-.364.083-.05.161-.106.225-.176a.487.487 0 0 0 .13-.243c.035-.185-.074-.371-.22-.484-.15-.116-.336-.174-.52-.225a9.765 9.765 0 0 0-1.683-.308c-.752-.07-1.502-.067-2.234-.007-.364.036-.729.11-1.04.294a.93.93 0 0 0-.374.366.427.427 0 0 0-.044.25.447.447 0 0 0 .109.23c.114.133.272.22.432.294.16.075.326.136.493.19.335.108.678.181 1.018.25.681.136 1.356.257 2.026.295.67.04 1.336-.008 1.958-.187.31-.09.612-.208.882-.371.268-.164.508-.386.632-.67.128-.278.143-.615-.014-.876a.965.965 0 0 0-.305-.323 1.504 1.504 0 0 0-.401-.191 2.315 2.315 0 0 0-.873-.082c-.29.02-.574.08-.846.164-.546.17-1.041.435-1.506.714-.233.14-.46.285-.684.426-.223.142-.443.284-.652.434a5.31 5.31 0 0 0-.588.48c-.18.172-.354.353-.447.575a.578.578 0 0 0-.044.345.462.462 0 0 0 .19.279c.191.131.43.162.654.167.226.01.45-.002.665-.035.217-.03.427-.078.629-.138a6.88 6.88 0 0 0 1.126-.453c.348-.174.67-.36.975-.542.305-.183.589-.366.843-.559.51-.383.908-.806 1.138-1.242.113-.217.172-.444.162-.65a.903.903 0 0 0-.182-.522.643.643 0 0 0-.364-.235.634.634 0 0 0-.317.002c-.166.05-.221.131-.224.126ZM11.063 21.4s-.017 0-.05-.005l-.146-.023c-.126-.024-.317-.053-.543-.156a1.014 1.014 0 0 1-.33-.24.763.763 0 0 1-.203-.442.512.512 0 0 1 .05-.27.567.567 0 0 1 .196-.216.46.46 0 0 1 .3-.075.384.384 0 0 1 .272.175.551.551 0 0 1 .074.333.852.852 0 0 1-.1.343.756.756 0 0 1-.108.15c-.04.048-.088.088-.136.13-.1.078-.213.142-.335.189a1.33 1.33 0 0 1-.798.037 1.176 1.176 0 0 1-.383-.18 1.053 1.053 0 0 1-.292-.322 1.32 1.32 0 0 1-.16-.874c.025-.152.078-.302.16-.438.04-.067.088-.13.144-.188a.641.641 0 0 1 .192-.148.332.332 0 0 1 .247-.03.29.29 0 0 1 .11.068c.03.033.052.072.064.114a.53.53 0 0 1 0 .25c-.017.082-.046.16-.081.235-.077.147-.16.287-.252.427a2.145 2.145 0 0 1-.318.39c-.125.115-.27.209-.43.265a.847.847 0 0 1-.497.03.923.923 0 0 1-.423-.251 1.274 1.274 0 0 1-.268-.403c-.124-.297-.15-.615-.166-.917a2.28 2.28 0 0 1 .008-.454c.022-.148.073-.303.192-.403a.4.4 0 0 1 .205-.093c.075-.01.151 0 .22.026a.58.58 0 0 1 .315.284.767.767 0 0 1 .063.407 1.236 1.236 0 0 1-.105.384 1.674 1.674 0 0 1-.447.6c-.182.16-.39.272-.597.347a1.625 1.625 0 0 1-1.168-.024 1.808 1.808 0 0 1-.717-.528 1.668 1.668 0 0 1-.283-.488c-.024-.06-.035-.108-.044-.14a.742.742 0 0 1-.012-.05c.004 0 .018.067.065.187a1.807 1.807 0 0 0 1 .995 1.604 1.604 0 0 0 1.148.016 1.837 1.837 0 0 0 .831-.607c.072-.1.14-.206.188-.324.052-.116.089-.241.102-.372a.729.729 0 0 0-.06-.385.539.539 0 0 0-.292-.262.377.377 0 0 0-.383.06c-.107.09-.155.234-.176.376a2.219 2.219 0 0 0-.007.446c.016.3.043.613.164.901.06.143.147.277.258.388.11.112.248.2.402.239a.8.8 0 0 0 .47-.029 1.2 1.2 0 0 0 .413-.256c.24-.227.405-.521.56-.802.066-.142.116-.305.08-.452a.24.24 0 0 0-.054-.094.256.256 0 0 0-.091-.056.289.289 0 0 0-.214.026.594.594 0 0 0-.179.138 1.093 1.093 0 0 0-.138.181 1.18 1.18 0 0 0-.154.422c-.047.294.008.599.153.844.142.249.388.416.648.485.26.073.535.05.774-.035.118-.045.228-.106.325-.18a.992.992 0 0 0 .235-.27.827.827 0 0 0 .097-.327.516.516 0 0 0-.067-.313.351.351 0 0 0-.248-.162.427.427 0 0 0-.28.069.544.544 0 0 0-.186.204.487.487 0 0 0-.05.255.743.743 0 0 0 .193.428c.097.112.213.187.322.24.222.104.412.136.538.163l.144.027.049.01Z"/><path fill="#44393A" d="M16.851 18.958c-.25-.62-.75-1.174-1.4-1.321-.663-.149-1.345.141-1.92.503-.567.357-1.106.82-1.345 1.446-.23.605-.092 1.383.435 1.746-.547-.34-1.384.072-1.517.715-.137.665.381 1.355 1.038 1.53.574.153 1.196-.032 1.672-.394-.394.421-.459 1.133-.148 1.633.356.574 1.112.836 1.771.688.66-.149 1.204-.661 1.48-1.279l.237-3.298c-.016-.668-.054-1.35-.303-1.969Z"/><path fill="#44393A" d="M16.405 20.472c-.634.205-.764.72-.896 1.147-.283.922.036 2.286.552 3.1.515.815 1.08 1.23 2.035 1.367l.093-4.388-1.784-1.226Z"/><path fill="#44393A" d="M16.047 22.991c-.434-.562-.372-1.446.135-1.944-.278-.348-.178-.887.104-1.232s.702-.544 1.107-.73c.222-1.021 1.368-1.74 2.384-1.494.53-.778 1.656-.9 2.56-.637.22.064.44.147.67.146.169 0 .333-.046.5-.069.92-.123 1.832.523 2.19 1.378.057.137.104.281.195.398.12.154.3.244.454.363.333.257.545.665.563 1.085.015.357-.1.735.051 1.06.075.161.212.293.27.462.17.49-.373.991-.273 1.5.02.104.068.2.096.303a.905.905 0 0 1-.055.633c-.072.15-.189.288-.199.455-.007.127.05.247.074.371.063.304-.593 1.476-.856 1.641l-7.845.07a1.466 1.466 0 0 1-1.135-1.262c-.01-.1-.011-.21-.073-.288-.053-.068-.139-.1-.215-.14-.505-.27-.566-.964-.512-1.535.007-.08.015-.162-.005-.24-.03-.113-.114-.201-.185-.294Z"/><path fill="#FAD6C8" d="M18.294 23.003c-.023-1.389.848-2.984 2.227-3.663.87-.428 1.548-.431 2.005-.485 1.024-.119 1.85.389 1.85.389.433.101 2.017 1.552 2.1 3.127.091 1.749.134 3.888-.087 5.19-.445 2.619-2.459 2.931-2.459 2.931l.188 4.352-3.87 3.172-1.507-5.038-.447-9.975Z"/><path fill="#C8A399" d="M23.931 30.492s-1.777.095-3.514-.974c0 0 .915 1.858 3.543 1.641l-.029-.667Z"/><path fill="#FAD6C8" d="M18.69 25.493c.002-.196-.219-.658-.411-.69-.514-.086-1.443-.055-1.466 1.253-.031 1.788 1.77 1.45 1.775 1.4.002-.04.096-1.289.102-1.963Z"/><path fill="#C8A399" d="M18.106 26.793c-.008-.005-.032.022-.084.045a.312.312 0 0 1-.233 0c-.188-.072-.342-.375-.345-.697a1.032 1.032 0 0 1 .095-.445c.057-.13.143-.22.239-.235a.158.158 0 0 1 .182.089c.023.05.011.086.02.09.005.003.04-.03.026-.104a.199.199 0 0 0-.068-.113.234.234 0 0 0-.172-.049c-.138.007-.264.132-.33.272-.073.14-.119.313-.117.496.006.36.184.701.441.78a.335.335 0 0 0 .286-.042c.056-.044.066-.083.06-.087Z"/><path fill="#44393A" d="M26.86 22.106c-.057-.65-.316-1.266-.629-1.837-.217-.396-.466-.782-.808-1.077-.285-.247-.624-.42-.965-.582-.896-.425-1.895-.786-2.863-.568-.519.117-.986.393-1.44.67-.35.212-.7.429-.991.714-.256.25-.462.547-.644.855-.433.735-.738 1.557-.797 2.408-.059.851-.703 1.604-.204 2.296.04.054.928.238.99.262.144.057.302-.1.302-.255-.001-.156-.108-.29-.224-.394.222-.007.373-.254.36-.474-.014-.221-.145-.416-.276-.594a.169.169 0 0 1-.04-.077c-.009-.075.077-.122.142-.16.319-.189.354-.713.064-.943.427-.099.703-.611.551-1.022-.024-.065-.057-.138-.026-.2.03-.06.104-.078.168-.096.472-.14.789-.674.687-1.155.248.013.5.026.742-.033.241-.059.475-.2.585-.423.159.286.47.48.795.497a.988.988 0 0 0 .844-.409c.416.04.842-.026 1.227-.19.095.389.4.718.78.841.074.024.16.047.195.116.022.044.019.096.016.145-.013.25.157.356.295.565.138.209.378.52.618.45-.027.426.201.736.56.965l-.014-.295Z"/><path fill="#44393A" d="M27.23 21.778s-.018-.075-.095-.193c-.037-.06-.09-.13-.14-.219a.839.839 0 0 1-.097-.335c-.013-.132-.001-.28.011-.442a1.97 1.97 0 0 0-.01-.531 1.487 1.487 0 0 0-.447-.82 2.19 2.19 0 0 0-.28-.213 1.113 1.113 0 0 1-.27-.237c-.074-.097-.119-.217-.167-.338a2.324 2.324 0 0 0-.428-.695 2.328 2.328 0 0 0-.689-.54 2.147 2.147 0 0 0-.429-.165 1.916 1.916 0 0 0-.47-.058c-.08 0-.16.01-.24.017-.08.012-.16.028-.238.042-.158.03-.318.033-.478-.004-.16-.033-.316-.092-.481-.135a3.152 3.152 0 0 0-1.03-.103 2.708 2.708 0 0 0-.526.092c-.342.102-.677.291-.905.587l-.067.087.028-.011c-.54-.13-1.105.012-1.542.298-.44.285-.767.728-.873 1.216l.014-.018c-.217.1-.432.202-.63.326-.197.124-.38.272-.516.454a1.224 1.224 0 0 0-.237.615c-.02.216.033.44.165.605l.002-.03a1.48 1.48 0 0 0-.42.915c-.03.323.035.639.18.89.032.065.077.121.117.179.043.054.087.105.121.16a.38.38 0 0 1 .063.176c.006.062-.002.124-.007.186-.02.247-.017.476.013.679.032.203.089.38.172.518a.88.88 0 0 0 .276.292c.091.062.173.086.218.12.046.03.063.056.064.055 0 0-.014-.027-.06-.06-.046-.037-.127-.063-.215-.125a.875.875 0 0 1-.267-.291 1.41 1.41 0 0 1-.163-.512 2.92 2.92 0 0 1-.007-.672c.005-.061.013-.125.008-.192a.422.422 0 0 0-.066-.19c-.036-.059-.081-.11-.123-.165-.039-.056-.082-.11-.113-.174a1.482 1.482 0 0 1-.17-.869c.03-.314.16-.642.41-.886l.014-.015-.012-.016a.8.8 0 0 1-.154-.574c.019-.207.1-.415.23-.59.132-.175.309-.319.503-.44s.407-.221.625-.321l.011-.005.003-.013c.104-.474.422-.905.852-1.183.427-.279.978-.416 1.5-.29l.017.004.012-.015.065-.085c.22-.285.543-.469.878-.568a2.65 2.65 0 0 1 1.028-.081c.17.019.337.046.498.091.162.042.32.101.485.135a1.215 1.215 0 0 0 .496.003c.08-.014.16-.03.238-.041.078-.008.156-.018.234-.017a1.86 1.86 0 0 1 .877.216c.265.132.49.32.676.526.187.207.327.441.423.681.049.12.095.243.173.347.079.103.182.177.28.244.1.067.196.131.278.208a1.448 1.448 0 0 1 .443.799c.036.185.025.362.013.523-.011.162-.022.313-.007.447.012.134.053.25.104.34.052.09.106.159.145.218.04.057.065.104.08.137.019.031.024.05.026.049Z"/><path fill="#44393A" d="M20.62 17.204c.002.004.047-.026.134-.068.087-.041.22-.092.39-.11a1.13 1.13 0 0 1 1.206.782c.019.067.02.14-.015.188l-.044.06.073-.02a.739.739 0 0 1 .552.07.711.711 0 0 1 .3.334.786.786 0 0 1 .068.295c.002.072-.004.111 0 .112a.488.488 0 0 0 .018-.111.74.74 0 0 0-.363-.669.778.778 0 0 0-.59-.081l.029.04c.05-.07.044-.16.023-.233a1.036 1.036 0 0 0-.091-.215 1.2 1.2 0 0 0-.558-.508 1.142 1.142 0 0 0-1.103.108c-.02.016-.031.025-.03.026ZM17.701 19.235c-.002.002.019.026.062.064.044.038.11.091.201.142.092.05.212.1.356.11.142.01.31-.021.445-.13l-.04-.007.053.074.06.071a1.111 1.111 0 0 0 .87.338.984.984 0 0 0 .283-.061.338.338 0 0 0 .093-.05c-.003-.01-.139.065-.377.073a1.136 1.136 0 0 1-.408-.066 1.067 1.067 0 0 1-.421-.271l-.058-.067a12.814 12.814 0 0 1-.049-.07l-.017-.024-.022.018c-.12.1-.276.13-.409.124a.854.854 0 0 1-.342-.094c-.182-.093-.274-.182-.28-.174Z"/><path fill="#445962" d="M16.744 20.885c-.002 0 0 .012.004.033.006.021.016.052.039.087.044.07.14.156.287.194.147.04.329.01.51-.052.092-.032.187-.063.284-.109a.49.49 0 0 0 .249-.223l.011-.029-.042.013c.171.136.348.254.528.322.18.071.36.083.502.056a.665.665 0 0 0 .31-.138.422.422 0 0 0 .083-.093c-.003-.003-.032.031-.095.077a.69.69 0 0 1-.304.117.91.91 0 0 1-.478-.064 2.088 2.088 0 0 1-.513-.32l-.028-.022-.014.035a.483.483 0 0 0-.01.024c-.04.093-.131.154-.222.198-.091.043-.187.077-.276.11-.177.063-.35.093-.486.06a.473.473 0 0 1-.278-.168c-.048-.063-.055-.11-.061-.108Z"/><path fill="#44393A" d="M25.744 24.36c-.04.044-.296-.133-.652-.12-.355.007-.61.198-.65.156-.02-.019.019-.098.13-.184a.911.911 0 0 1 1.04-.03c.112.081.152.158.132.178ZM22.255 24.612c-.044.04-.282-.162-.637-.186-.354-.03-.628.134-.663.089-.018-.02.029-.096.149-.17a.909.909 0 0 1 1.037.078c.103.09.135.171.114.19ZM23.642 26.18c-.003-.02.217-.065.574-.122.09-.013.176-.034.19-.096.019-.066-.022-.163-.07-.267l-.29-.683c-.406-.973-.702-1.775-.663-1.79.04-.017.4.76.805 1.732.098.24.19.47.28.688.037.102.1.217.058.355a.228.228 0 0 1-.145.138c-.058.02-.11.022-.154.026-.36.031-.584.04-.585.02Z"/><path fill="#C8A399" d="M23.09 26.712c-.133.024-.435.204-.513.35-.078.145-.182.373-.105.506.066.113.546-.027.748-.06.094-.015.323.095.355-.021l.056-.416c.008-.194-.12-.28-.252-.334a.519.519 0 0 0-.289-.025Z"/><path fill="#44393A" d="M20.478 22.628c.035-.096.39-.053.808-.106.419-.045.754-.17.81-.083.025.041-.033.133-.168.227a1.351 1.351 0 0 1-.6.215 1.35 1.35 0 0 1-.633-.07c-.154-.06-.232-.136-.217-.183ZM24.206 22.104c.084-.07.352.055.69.109.335.064.632.039.685.132.023.045-.034.119-.17.176a1.08 1.08 0 0 1-.581.047 1.065 1.065 0 0 1-.527-.242c-.107-.1-.134-.188-.097-.223ZM23.453 27.515c-.001.016-.156-.007-.392.053a1.407 1.407 0 0 0-.187.061c-.066.027-.139.067-.234.075a.214.214 0 0 1-.148-.043.256.256 0 0 1-.085-.131.458.458 0 0 1 .02-.301.871.871 0 0 1 .155-.245.889.889 0 0 1 .204-.177.784.784 0 0 1 .433-.124.64.64 0 0 1 .294.074c.063.034.09.062.088.066-.004.007-.038-.011-.102-.033a.712.712 0 0 0-.279-.041.759.759 0 0 0-.387.13.832.832 0 0 0-.181.164.815.815 0 0 0-.138.22.375.375 0 0 0-.02.24c.022.076.074.119.142.114.07-.003.14-.034.21-.06.071-.026.139-.043.201-.054.252-.046.41.003.406.012Z"/><path fill="#533A3A" d="M18.107 28.154a.72.72 0 1 0 0-1.439.72.72 0 0 0 0 1.44Z"/><path fill="#44393A" d="M21.118 21.31c-.003-.001.003-.024.02-.067a.688.688 0 0 1 .111-.168.808.808 0 0 1 .258-.19.776.776 0 0 1 .42-.068c.08.008.166.036.239.094a.26.26 0 0 1 .087.118c.017.05.014.11-.012.159-.049.1-.163.15-.268.15a.835.835 0 0 1-.75-.553.777.777 0 0 1 .103-.695.705.705 0 0 1 .642-.279.565.565 0 0 1 .32.136c.044.04.08.088.103.145a.254.254 0 0 1 .003.181.276.276 0 0 1-.114.133.468.468 0 0 1-.149.059.72.72 0 0 1-.724-.294.638.638 0 0 1-.105-.413.695.695 0 0 1 .097-.306.583.583 0 0 1 .13-.153c.036-.028.058-.04.06-.037.007.007-.08.06-.159.208a.686.686 0 0 0-.076.29.587.587 0 0 0 .107.373.653.653 0 0 0 .391.252.597.597 0 0 0 .26-.002c.085-.019.173-.066.2-.141.03-.075-.012-.167-.084-.23a.48.48 0 0 0-.27-.11.616.616 0 0 0-.557.241.688.688 0 0 0-.091.61.753.753 0 0 0 .662.5c.086.003.166-.036.2-.102.036-.064.007-.139-.052-.185a.398.398 0 0 0-.202-.084.734.734 0 0 0-.39.05.821.821 0 0 0-.252.168c-.12.12-.15.215-.158.21ZM12.892 20.906c0 .003-.04.01-.116.023-.076.011-.19.029-.338.038a1.731 1.731 0 0 1-.542-.042 1.147 1.147 0 0 1-.316-.136.855.855 0 0 1-.278-.273.838.838 0 0 1-.12-.414 1.72 1.72 0 0 1 .052-.46c.076-.31.22-.636.471-.904.126-.133.277-.252.454-.332.086-.043.183-.07.28-.09a1.279 1.279 0 0 1 .886.169c.09.056.17.128.24.21a.99.99 0 0 1 .161.285l.04.11-.104-.054a.737.737 0 0 1-.303-.29.932.932 0 0 1-.123-.412.957.957 0 0 1 .043-.36c.037-.114.09-.222.158-.318.134-.193.31-.347.499-.468a2.474 2.474 0 0 1 1.215-.389 2 2 0 0 1 1.12.273c.315.188.553.45.696.726.145.278.185.568.169.813a1.544 1.544 0 0 1-.163.605c-.08.153-.166.259-.23.322-.03.034-.059.054-.076.07-.018.014-.028.021-.029.02-.002-.003.032-.036.09-.103.06-.066.138-.173.212-.325a1.54 1.54 0 0 0 .143-.592 1.49 1.49 0 0 0-.175-.779 1.79 1.79 0 0 0-.676-.69 1.93 1.93 0 0 0-1.078-.254c-.395.02-.806.147-1.169.38a1.68 1.68 0 0 0-.472.443.968.968 0 0 0-.184.62c.016.263.155.518.374.625l-.065.056a.904.904 0 0 0-.143-.256.978.978 0 0 0-.22-.191 1.151 1.151 0 0 0-.542-.174c-.381-.034-.731.155-.968.406a1.95 1.95 0 0 0-.46.864c-.036.15-.058.3-.054.441a.78.78 0 0 0 .104.384c.066.11.157.195.255.258.097.064.2.107.299.136.199.056.381.058.527.055.147-.004.26-.016.337-.021a.62.62 0 0 1 .119-.005ZM14.457 24.367c.002.005-.043.029-.13.054-.088.025-.22.05-.384.045a1.44 1.44 0 0 1-.56-.13 1.04 1.04 0 0 1-.29-.189.46.46 0 0 1-.155-.351.6.6 0 0 1 .157-.347c.078-.092.166-.164.252-.23a2.19 2.19 0 0 1 .495-.284c.15-.062.279-.094.368-.11.089-.017.14-.018.14-.013.004.016-.194.05-.481.183a2.347 2.347 0 0 0-.47.292c-.08.065-.164.137-.234.221a.516.516 0 0 0-.133.293.37.37 0 0 0 .126.28c.076.077.17.131.262.177.185.09.37.13.527.142.315.023.506-.051.51-.033Z"/><path fill="#C8A399" d="M22.44 25.19c-.007.014-.108-.027-.275-.066a2.044 2.044 0 0 0-.663-.043 2.085 2.085 0 0 0-.64.177c-.157.073-.247.133-.256.121-.007-.008.07-.089.224-.18a1.55 1.55 0 0 1 .286-.129c.113-.037.24-.067.377-.082.136-.013.267-.009.384.004.118.016.222.04.307.07.169.056.26.12.256.129Z"/><path fill="#AE837E" d="m29.885 49.017-1.034-2.602.663-3.868.18-2.284c-.035-1.474-.16-2.612-.768-3.955l-1.89-4.668-2.308.626a3.63 3.63 0 0 0-.293-.857c-.432-.82-6.01-.541-6.37-.246-.23.187-.343.863-.395 1.331l-1.94-.01-2.288 5.878c.073.161 1.484 2.045 1.484 2.045l1.4 7.75-.452.81 14.011.05Z"/><path fill="#796060" d="M18.575 33.395a.37.37 0 0 1-.032-.09 2.21 2.21 0 0 1-.058-.251 3.084 3.084 0 0 1 .174-1.677c.042-.101.08-.181.11-.234a.404.404 0 0 1 .048-.081c.008.003-.053.123-.127.326a3.505 3.505 0 0 0-.189.82c-.034.328-.015.627.016.84.03.214.066.344.058.347ZM20.121 33.472a.415.415 0 0 1-.025-.097 3.384 3.384 0 0 1-.043-.27 6.75 6.75 0 0 1-.047-.898c.004-.352.023-.67.04-.899l.021-.272a.425.425 0 0 1 .014-.099c.003 0 .005.036.004.1 0 .065-.003.158-.007.273-.007.23-.022.547-.025.897-.003.35.011.667.033.895.02.229.043.37.035.37ZM21.787 33.183c-.007-.001.002-.13.012-.34.01-.21.02-.5 0-.818a4.843 4.843 0 0 0-.117-.807c-.049-.204-.09-.327-.082-.33.003 0 .015.03.037.084.022.055.048.136.077.237.057.203.112.491.132.813a5.66 5.66 0 0 1-.041 1.07.336.336 0 0 1-.018.09ZM23.352 33.395c-.008-.003.039-.134.089-.35a2.837 2.837 0 0 0-.123-1.702c-.083-.207-.151-.328-.143-.332a.388.388 0 0 1 .053.081 2.566 2.566 0 0 1 .33 1.088 2.653 2.653 0 0 1-.166 1.125.407.407 0 0 1-.04.09ZM24.856 33.266c-.007 0-.02-.102-.04-.269-.022-.166-.05-.395-.103-.643-.054-.249-.124-.468-.175-.628-.05-.16-.08-.259-.074-.261a4.595 4.595 0 0 1 .295.879c.054.251.077.483.09.65.011.167.012.271.007.272Z"/><path fill="#FAD6C8" d="m15.445 23.177.133-.925s.035-.693-.133-1.04c-.167-.346.041-.53.457-.207.415.323.462.6.462.6s.623-1.732.854-2.194c.232-.462.832-1.293.832-1.293s.947-1.455 1.016-1.478c.07-.024.231-.024.162.23l.37-.24s.415.171.115.726c-.3.554-.693 1.362-.693 1.362l-.023.393 1.062-1.294s.462-.208.3.347c-.162.554-.716 1.432-.716 1.432l-.277 1.409s.092.53-.046 1.177c-.139.647-1.06 2.543-1.627 2.727-.567.183-2.248-1.732-2.248-1.732Z"/><path fill="#C8A399" d="m15.446 23.177.024.025.07.074c.062.066.153.164.274.288.12.125.271.277.453.45.183.17.396.366.654.558.129.096.27.191.429.265.08.035.166.067.255.068.089.003.173-.046.248-.104.15-.12.277-.277.398-.445a6.23 6.23 0 0 0 .344-.544c.218-.387.426-.812.598-1.277a2.94 2.94 0 0 0 .108-.358 3.532 3.532 0 0 0 .045-1.169V21l.276-1.408v-.004l.003-.004c.19-.309.374-.632.534-.973a2.86 2.86 0 0 0 .197-.53.557.557 0 0 0 .014-.137c-.004-.044-.014-.088-.046-.113-.03-.026-.077-.031-.122-.027a.463.463 0 0 0-.133.035l.009-.007-1.063 1.294-.045.055.004-.072.006-.099.017-.293v-.005l.003-.004.544-1.07.134-.262.063-.13c.016-.044.035-.088.043-.134a.452.452 0 0 0-.013-.27.373.373 0 0 0-.181-.19l.021-.003-.37.24-.049.033.015-.057c.018-.066.029-.146-.012-.188-.02-.02-.052-.026-.084-.023a.143.143 0 0 0-.024.004l-.011.003c-.004.001-.001.002-.003.003a.409.409 0 0 0-.034.038c-.089.113-.17.232-.251.35a43.815 43.815 0 0 0-.696 1.042l-.23.33c-.152.22-.296.436-.43.652-.066.109-.13.217-.186.327-.055.11-.104.223-.15.335-.093.223-.18.444-.262.658-.165.429-.316.836-.454 1.215l-.018.05-.013-.053a.93.93 0 0 0-.207-.359 1.809 1.809 0 0 0-.295-.267c-.103-.072-.22-.14-.335-.128a.127.127 0 0 0-.073.034.15.15 0 0 0-.033.073.337.337 0 0 0 .02.163c.016.052.041.102.062.154.018.052.033.104.044.155.023.103.036.203.045.299.017.19.018.365.012.52l-.103.688-.028.177a2.41 2.41 0 0 1-.012.06l.006-.06.023-.176.095-.69a3.984 3.984 0 0 0-.016-.517 1.707 1.707 0 0 0-.154-.602.367.367 0 0 1-.02-.176.172.172 0 0 1 .04-.087.152.152 0 0 1 .087-.042c.132-.014.25.058.356.131.107.077.21.166.302.27.09.107.177.225.216.375l-.032-.003c.137-.38.286-.787.45-1.217.082-.215.168-.435.26-.66.047-.112.095-.226.151-.338.057-.112.121-.22.188-.33.132-.217.277-.435.428-.654l.23-.33.225-.343c.152-.231.308-.465.47-.701.081-.118.162-.237.252-.353.012-.014.024-.029.039-.043a.067.067 0 0 1 .02-.012l.014-.004a.23.23 0 0 1 .03-.005.148.148 0 0 1 .12.036c.033.033.04.078.041.118.001.04-.008.077-.017.114l-.034-.025.37-.24.01-.007.01.005c.094.043.166.12.207.215a.503.503 0 0 1 .016.298c-.01.05-.03.096-.046.143l-.065.133-.134.262c-.178.351-.36.707-.542 1.068l.002-.009-.018.294-.005.099-.042-.017 1.063-1.293.004-.004.004-.002a.506.506 0 0 1 .148-.039.21.21 0 0 1 .155.038c.047.037.06.096.063.146a.578.578 0 0 1-.014.149 2.937 2.937 0 0 1-.2.54 9.95 9.95 0 0 1-.54.977l.004-.008-.278 1.409v-.008a3.498 3.498 0 0 1-.048 1.184 3.077 3.077 0 0 1-.11.364 8.88 8.88 0 0 1-.604 1.28 6.175 6.175 0 0 1-.348.547 2.248 2.248 0 0 1-.406.45.435.435 0 0 1-.266.109.696.696 0 0 1-.268-.072 2.525 2.525 0 0 1-.432-.27 7.558 7.558 0 0 1-.652-.565 12.95 12.95 0 0 1-.72-.747l-.067-.077-.021-.028Z"/><path fill="#C8A399" d="M19.173 16.885c.002.002-.027.048-.08.131-.06.089-.137.207-.23.349-.193.295-.461.704-.686 1.192a5.184 5.184 0 0 0-.403 1.31c-.03.174-.044.316-.054.414-.01.098-.014.152-.018.152-.002 0-.003-.014-.003-.04 0-.026 0-.064.002-.114a4.818 4.818 0 0 1 .433-1.742c.227-.492.5-.9.7-1.19.101-.146.185-.262.244-.341a.932.932 0 0 1 .095-.121ZM19.044 19.083c.005.006-.088.081-.199.235a2.02 2.02 0 0 0-.305.668c-.074.28-.1.543-.118.732-.018.19-.029.308-.036.308a.302.302 0 0 1-.004-.084c0-.053.002-.13.007-.226.01-.191.03-.457.105-.743a1.85 1.85 0 0 1 .325-.675c.06-.076.116-.13.157-.166a.263.263 0 0 1 .068-.049ZM17.831 18.509c.006.003-.029.1-.083.259a11.674 11.674 0 0 0-.357 1.258c-.037.164-.058.266-.065.264a1.36 1.36 0 0 1 .032-.27 6.302 6.302 0 0 1 .358-1.264c.064-.156.11-.25.115-.247ZM16.391 21.453c.006.001-.012.08-.044.207l-.128.493-.123.494a.99.99 0 0 1-.06.203.909.909 0 0 1 .027-.21 8.114 8.114 0 0 1 .252-.99c.04-.124.07-.2.076-.197Z"/><path fill="#FAD6C8" d="M24.439 18.065c-.204-.223-.56.034-.41.295l.008.013c.258.431 1.141 1.84 1.141 1.84l.216.486s.465.739.551.954c.087.216 1.268 2.147 1.424 2.32.156.172.975 0 .975 0l.883-1.745-.883-2.015s.043-.289-.13-.225c-.172.065-.258.13-.258.13l-1.95-2.824s-.51-.854-.876-.276c0 0-.429.13-.186.712.278.668.665 1.096.665 1.096l.345.904-1.515-1.665Z"/><path fill="#C8A399" d="m24.439 18.065.027.027.078.083.299.323 1.121 1.223-.023.014-.347-.903.003.005a4.203 4.203 0 0 1-.664-1.088.995.995 0 0 1-.076-.27.496.496 0 0 1 .043-.285.412.412 0 0 1 .225-.195l-.012.009a.489.489 0 0 1 .189-.183.32.32 0 0 1 .267.005c.167.077.288.219.396.364l.636.922 1.376 1.989-.033-.005c.085-.058.174-.1.276-.136a.104.104 0 0 1 .094.009c.03.02.042.05.05.078.013.057.01.11.004.166l-.002-.012.38.867.504 1.148.004.01-.005.01c-.303.599-.6 1.182-.883 1.743l-.005.01-.011.002a3.502 3.502 0 0 1-.685.077.94.94 0 0 1-.172-.018.24.24 0 0 1-.154-.086c-.07-.09-.128-.183-.189-.274a41.141 41.141 0 0 1-.668-1.072l-.304-.51c-.096-.17-.197-.33-.27-.5-.167-.327-.355-.624-.527-.903v-.002l-.215-.487v.002l-1.126-1.83a.285.285 0 0 1-.052-.172.271.271 0 0 1 .278-.243c.068.002.112.034.139.053l.034.035s-.014-.01-.039-.032c-.027-.017-.07-.047-.136-.048a.264.264 0 0 0-.207.098.238.238 0 0 0-.055.138.274.274 0 0 0 .051.161l1.139 1.823v.002l.217.485-.001-.002c.173.28.361.574.531.904.073.169.175.329.27.497l.306.509c.21.345.432.704.67 1.07.06.09.12.183.185.269a.196.196 0 0 0 .13.07.846.846 0 0 0 .163.017c.223.002.45-.032.676-.076l-.016.012.883-1.744-.001.02-.503-1.148-.38-.868-.002-.006v-.007a.43.43 0 0 0-.003-.147c-.012-.048-.04-.07-.085-.054a1.149 1.149 0 0 0-.262.128l-.02.014-.013-.02-1.374-1.99-.633-.922c-.105-.143-.225-.281-.378-.351a.28.28 0 0 0-.235-.006.452.452 0 0 0-.171.168l-.004.005-.007.003a.376.376 0 0 0-.202.175.46.46 0 0 0-.04.263c.022.18.11.344.184.503.158.315.342.599.544.837l.002.003.001.002.342.906.027.069-.05-.055-1.111-1.231-.294-.328-.075-.085a.526.526 0 0 1-.024-.03Z"/><path fill="#C8A399" d="M26.532 20.547c-.013.004-.079-.178-.185-.39-.05-.108-.112-.194-.183-.218-.069-.028-.117-.006-.119-.013-.005-.003.045-.042.13-.019.04.01.086.04.121.081a.665.665 0 0 1 .092.148c.11.216.156.408.144.411ZM26.93 19.712a.652.652 0 0 1-.063-.11 11.562 11.562 0 0 0-.762-1.27c-.252-.366-.49-.69-.66-.928l-.2-.282a.668.668 0 0 1-.067-.107.653.653 0 0 1 .083.097l.21.273c.177.232.42.553.672.921.253.367.457.717.59.977.066.13.117.236.15.31.033.075.05.117.047.119ZM27.321 20.377c-.014-.001.012-.172-.08-.351-.088-.182-.24-.264-.23-.276.001-.005.043.008.1.048a.572.572 0 0 1 .232.47c-.002.069-.017.11-.022.108ZM28.594 21.34a1.042 1.042 0 0 1-.111-.18l-.248-.447A10.19 10.19 0 0 1 28 20.26a.927.927 0 0 1-.081-.196c.005-.003.046.067.11.18l.248.447c.095.175.179.335.235.453a.868.868 0 0 1 .082.196Z"/><path fill="#796060" d="M20.834 42.894c0-.002.016-.008.048-.018l.14-.044.103-.03c.037-.012.076-.027.118-.042.085-.032.184-.063.287-.111l.164-.07c.057-.026.114-.057.174-.087.121-.056.243-.132.373-.207.255-.16.524-.353.783-.585.257-.234.477-.482.662-.72.088-.122.175-.236.244-.35.035-.058.072-.11.103-.165l.087-.156c.058-.098.099-.193.14-.274.019-.04.038-.079.053-.114l.041-.098.057-.135a.225.225 0 0 1 .023-.047.23.23 0 0 1-.014.05l-.05.139-.036.1c-.014.036-.032.074-.05.116-.039.082-.078.179-.134.279-.028.05-.056.103-.085.159-.03.055-.067.108-.102.166-.068.117-.154.233-.242.356-.185.241-.406.492-.665.729a5.6 5.6 0 0 1-.792.587c-.132.075-.256.15-.379.206-.06.028-.118.06-.176.084l-.167.068c-.105.046-.205.075-.29.105l-.121.039-.104.026-.143.035a.248.248 0 0 1-.05.009Z"/><path fill="#AE837E" d="M16.23 23.366c-.168.019-8.664 4.168-8.707 6.118-.042 1.95.673 2.822 1.395 3.931.723 1.109 4.6 5.272 4.812 5.349.212.076 3.096-3.926 3.096-3.926l-1.19-2.715s-.382-1.07-1.571-.554l-.977-.937 5.267-5.048s.977-2.562-2.124-2.218Z"/><path fill="#796060" d="M14.62 36.582a.169.169 0 0 1 .012-.043l.039-.12c.018-.051.039-.115.057-.19.02-.075.047-.16.064-.255l.03-.15c.01-.052.017-.108.025-.164.02-.113.026-.236.036-.364.011-.257.004-.54-.035-.835a4.785 4.785 0 0 0-.196-.813c-.044-.12-.084-.237-.134-.34-.024-.052-.045-.104-.069-.152l-.07-.135c-.043-.088-.092-.161-.131-.228a1.881 1.881 0 0 0-.108-.167c-.029-.042-.052-.076-.07-.105a.172.172 0 0 1-.023-.038c.001 0 .012.01.03.033l.078.1c.034.043.074.096.115.163.042.066.093.139.138.226l.074.135c.026.048.047.1.072.152.051.103.093.22.14.341.084.246.157.524.2.821.04.298.047.585.033.845-.011.129-.02.253-.04.366-.01.057-.016.113-.028.165l-.034.15c-.02.097-.05.181-.07.256a1.78 1.78 0 0 1-.067.19l-.047.116a.207.207 0 0 1-.02.04ZM15.171 40.163a.45.45 0 0 1 .032-.066l.1-.183.072-.132.077-.161c.055-.117.123-.247.181-.398.03-.075.063-.153.097-.234.033-.082.06-.17.093-.26.067-.178.118-.375.177-.58.106-.414.193-.877.237-1.37.04-.492.031-.963-.002-1.39-.024-.212-.042-.414-.078-.601-.017-.094-.029-.185-.047-.271l-.056-.248c-.031-.16-.077-.298-.111-.422-.018-.062-.033-.12-.05-.173l-.05-.142a55.67 55.67 0 0 1-.066-.198.475.475 0 0 1-.02-.07c.001 0 .011.022.03.067l.074.195.054.141c.018.052.034.11.053.172.036.123.084.263.118.422l.06.248c.02.087.032.179.05.272.037.188.057.392.082.605.036.429.046.902.006 1.398-.044.495-.134.96-.242 1.377-.06.206-.114.403-.183.582-.033.09-.06.177-.095.26l-.1.234c-.06.151-.131.28-.188.396-.03.057-.055.111-.082.16l-.076.13-.107.18a.448.448 0 0 1-.04.06ZM13.921 29.88a.777.777 0 0 1-.095.097c-.064.06-.157.146-.275.25-.235.206-.569.482-.95.77a24.037 24.037 0 0 1-1.303.918.76.76 0 0 1-.117.07.794.794 0 0 1 .107-.085c.078-.056.178-.13.3-.217.254-.183.605-.435.985-.723s.717-.56.957-.76l.284-.236a.703.703 0 0 1 .107-.084Z"/><path fill="#AE837E" d="M27.086 23.726s.499-2.116 2.783-1.68c0 0 4.93 3.44 6.365 5.266 1.434 1.828 1.005 2.513.62 3.46-.386.946-1.742 2.523-4.217 4.58l-3.291 2.484s-2.762-5.671-2.485-6.08c.134-.197 4.37-2.025 4.37-2.025s-.166-.196.115-.508l-1.69-2.067-2.57-3.43Z"/><path fill="#796060" d="M36.213 28.725c.004-.002.043.072.054.206a.738.738 0 0 1-.572.772c-.129.032-.212.021-.212.017 0-.008.081-.01.203-.049a.818.818 0 0 0 .4-.278.762.762 0 0 0 .148-.462c-.002-.127-.029-.204-.02-.206ZM29.383 43.083l.002-.026.01-.074.042-.285c.04-.247.086-.606.138-1.05.092-.888.176-2.133-.05-3.481a10.198 10.198 0 0 0-.509-1.85c-.054-.137-.104-.273-.157-.402l-.168-.371c-.027-.06-.052-.12-.08-.176l-.085-.166-.159-.313a17.563 17.563 0 0 0-.528-.918l-.149-.247a23.31 23.31 0 0 1-.05-.088c.002 0 .006.007.016.02l.042.063.157.241c.14.209.323.521.541.913l.162.312.087.166c.028.057.053.117.082.176l.17.372c.054.129.105.265.16.402.21.554.398 1.182.514 1.858.227 1.354.137 2.605.037 3.492a19.962 19.962 0 0 1-.203 1.333c-.006.03-.01.055-.015.074a.093.093 0 0 1-.007.025ZM31.824 30.746a.638.638 0 0 1-.138-.133 2.466 2.466 0 0 1-.467-.797.639.639 0 0 1-.049-.186c.014-.005.104.274.286.582.18.31.38.524.368.534ZM32.954 30.7a.326.326 0 0 1-.077-.044 7.963 7.963 0 0 1-.816-.637 8.118 8.118 0 0 1-.726-.738.312.312 0 0 1-.053-.071c.006-.005.093.086.236.23.143.143.344.338.574.544.23.205.448.382.607.508.159.126.259.202.255.208Z"/><path fill="#040000" d="M11.255 31.917c.428.064.88-.049 1.228-.307s.588-.657.652-1.085c-.603.386-1.317.949-1.88 1.392ZM29.397 35.6c-.3-.724-.876-1.306-1.569-1.67l-.007.013c.81 1.18 1.339 2.569 1.687 3.957.23-.749.19-1.577-.11-2.3Z" opacity=".3"/></g></g><defs><clipPath id="a"><rect width="48" height="48" fill="#fff" rx="24"/></clipPath><clipPath id="b"><path fill="#fff" d="M0 0h48v48H0z"/></clipPath></defs></svg>