<svg xmlns="http://www.w3.org/2000/svg" width="48" height="48" fill="none"><g clip-path="url(#a)"><rect width="48" height="48" fill="#fff" rx="24"/><g clip-path="url(#b)"><path fill="#FBFBFB" d="M32.51 13.097c.09-.65-.827-1.184-1.516-1.24-.328-.026-.67.024-.981-.084-.675-.236-.944-1.107-1.602-1.384-.492-.208-1.058-.023-1.536.217-.477.24-.948.542-1.481.576-.464.03-.967-.142-1.372.084-.303.17-.461.517-.74.723-.272.2-.628.243-.966.261-.338.018-.688.022-.996.163-.308.14-.563.467-.498.799l11.688-.115Z"/><path fill="#BF9892" d="M13.132 9.807c.036-.26-.332-.475-.608-.497-.131-.01-.268.01-.393-.034-.27-.094-.379-.444-.643-.555-.197-.083-.424-.009-.615.087-.191.097-.38.218-.594.232-.186.012-.387-.057-.55.033-.121.068-.184.207-.296.29-.11.08-.252.098-.388.105-.135.008-.276.009-.399.065-.123.057-.225.187-.2.32l4.686-.046ZM51.252 14.141c.036-.26-.332-.474-.608-.497-.131-.01-.268.01-.393-.033-.27-.095-.378-.444-.642-.555-.198-.083-.425-.01-.616.087-.191.096-.38.217-.594.231-.185.012-.387-.057-.55.034-.121.068-.184.207-.296.29-.11.08-.252.098-.387.105-.136.007-.276.008-.4.065-.123.056-.225.187-.2.32l4.686-.047ZM49.025 7.484c.128-.933-1.188-1.7-2.177-1.78-.472-.038-.962.034-1.41-.122-.968-.337-1.354-1.588-2.3-1.987-.706-.298-1.519-.033-2.204.312-.685.345-1.361.778-2.126.828-.666.042-1.388-.204-1.971.12-.434.243-.661.743-1.061 1.038-.391.288-.902.35-1.387.376-.485.026-.988.031-1.43.234-.443.202-.808.67-.716 1.147l16.782-.166ZM15.98 18.018c.12-.869-1.107-1.583-2.028-1.657-.439-.036-.895.031-1.311-.114-.902-.314-1.262-1.478-2.142-1.85-.657-.277-1.414-.03-2.052.291-.637.32-1.267.725-1.98.77-.62.04-1.292-.19-1.834.113-.404.225-.616.69-.988.965-.365.269-.84.326-1.291.35-.452.025-.92.03-1.331.218-.412.189-.752.624-.667 1.068l15.623-.154Z" opacity=".42"/><path fill="#533A3A" d="M31.097 49.48s1.141-6.854.285-10.958l-13.285.118s-1.936 7.618-1.024 10.888l14.024-.048Z"/><path fill="#3C2621" d="M26.022 19.226c-.055-2.856-.111-5.716-.415-8.556l2.56 1.93c.644 1.697-.017 3.354.622 5.053.333.885.984 1.671 1.057 2.613.058.753-.268 1.496-.212 2.249.057.765.505 1.489.41 2.25-.069.563-.424 1.043-.767 1.495-.136.179-.287.369-.504.43-.168.048-.347.01-.516-.034a10.79 10.79 0 0 1-1.2-.38c-.306-.116-.616-.254-.838-.496-.486-.532-.39-1.352-.308-2.067.17-1.488.14-2.99.111-4.487Z"/><path fill="#AA827E" d="M15.084 32.623c.022-.712.559-7.6.654-8.223.22-1.434 1.289-2.086 1.42-2.137l2.001-.786c2.243-.624 9.689-.143 9.689-.143l1.23 11.22s1.444 4.607 1.445 5.519c0 .912.245 3.448.245 3.448s-4.068 1.535-7.005 1.357c-2.939-.178-7.388-1.202-7.388-1.202l.64-4.07s-.418-.668-.195-1.18c.066-.15.137-.307.208-.418-.53-.048-1.206-.316-1.69-.715-1.311-1.081-1.277-1.959-1.255-2.67Z"/><path fill="#040000" d="M30.954 35.357c-.804.637-1.816 1.06-2.84.99-.47-.033-.93-.168-1.402-.18-.743-.022-1.455.258-2.17.457-2.161.602-4.562.463-6.648-.362l.14-.258c1.191.224 2.036-.15 2.036-.15 3.203-.515 5.125-1.21 8.37-1.14.85.017 1.735.083 2.476.502" opacity=".3"/><path fill="#623F3F" d="M16.873 34.143a.547.547 0 0 1 .025-.136c.009-.044.022-.097.043-.156.02-.06.04-.13.071-.203.057-.148.142-.32.25-.5.112-.178.25-.366.415-.544a3.26 3.26 0 0 1 .998-.734c.071-.038.14-.062.197-.086.058-.024.11-.04.153-.053a.582.582 0 0 1 .134-.034c.004.012-.184.07-.463.214a3.615 3.615 0 0 0-1.642 1.755c-.124.289-.168.48-.18.477Z"/><path fill="#623F3F" d="M16.28 32.554a.405.405 0 0 1 .085-.084c.056-.052.144-.12.257-.199a3.531 3.531 0 0 1 2.029-.611c.137.002.248.011.324.023.076.011.117.02.117.024-.002.011-.17-.008-.441-.001a4.023 4.023 0 0 0-1.043.166 4 4 0 0 0-.96.438c-.23.145-.36.253-.367.244Z"/><path fill="#623F3F" d="M19.044 29.039c.004 0 .008.068.011.19l.007.519.001.77-.001.454c.002.158-.01.323.008.484.017.16.081.312.225.373.135.072.28.12.416.164l.732.24.491.168c.116.041.179.066.177.07a1.035 1.035 0 0 1-.185-.045l-.498-.148-.735-.227a2.559 2.559 0 0 1-.43-.165.397.397 0 0 1-.186-.174.669.669 0 0 1-.073-.248c-.018-.172-.006-.334-.007-.492l.005-.455.013-.77.014-.519c.005-.122.01-.19.015-.19ZM15.476 26.782a7.162 7.162 0 0 1-.003.13l-.022.374-.093 1.372-.146 2.034-.088 1.201-.046.634c-.007.213-.005.431.025.649.056.41.182.819.42 1.123l.003.004v.001c.381.628.91 1.106 1.467 1.378a3.748 3.748 0 0 0 1.574.379 4.869 4.869 0 0 0 1.364-.156l.073-.02a.088.088 0 0 1 .025-.005c0 .001-.007.005-.023.012l-.072.024a3.39 3.39 0 0 1-.283.077 4.609 4.609 0 0 1-1.085.11 3.745 3.745 0 0 1-1.598-.37c-.567-.273-1.109-.758-1.496-1.395l.004.005c-.256-.326-.379-.737-.438-1.159a3.93 3.93 0 0 1-.025-.66l.047-.637.092-1.2.16-2.033.114-1.37.034-.372.011-.097c.001-.022.003-.033.005-.033ZM17.852 37.492c0-.002.026.009.073.029l.204.093a25.856 25.856 0 0 0 3.304 1.292 25.83 25.83 0 0 0 2.64.672c.342.068.619.118.811.15l.222.04c.05.01.077.017.076.02 0 .001-.027 0-.078-.006l-.223-.028a16.357 16.357 0 0 1-.817-.13 22.496 22.496 0 0 1-2.65-.655 22.488 22.488 0 0 1-2.55-.973 16.278 16.278 0 0 1-.746-.36l-.199-.104a.397.397 0 0 1-.067-.04Z"/><path fill="#fff" d="M19.026 27.047c0-.003.03-.012.09-.029a3.4 3.4 0 0 1 .26-.058c.229-.044.564-.082.98-.09.415-.008.909.006 1.457.012l1.782.03c1.262.025 2.404.05 3.24.067l.98.028.267.01c.061.004.093.007.093.01a.491.491 0 0 1-.093.004l-.267.002-.982-.008-3.24-.048-1.782-.035c-.548-.01-1.041-.028-1.455-.025a6.734 6.734 0 0 0-.976.067 5.408 5.408 0 0 0-.262.047.492.492 0 0 1-.092.016ZM19.541 28.182c0-.018 1.882-.019 4.203-.001 2.322.018 4.204.046 4.203.065 0 .018-1.881.018-4.203 0-2.322-.017-4.203-.046-4.203-.064ZM15.593 26.186a.556.556 0 0 1 .13-.047c.085-.027.21-.059.366-.091a5.452 5.452 0 0 1 2.47.072c.154.04.277.08.36.112.084.031.129.05.127.055-.003.01-.19-.051-.498-.122a6.416 6.416 0 0 0-1.222-.157 6.399 6.399 0 0 0-1.23.086c-.31.052-.5.103-.503.092ZM15.437 27.127a.542.542 0 0 1 .13-.045 3.87 3.87 0 0 1 .368-.084 5.486 5.486 0 0 1 2.467.116c.153.044.275.085.358.118a.578.578 0 0 1 .126.056c-.004.011-.19-.053-.496-.13a6.456 6.456 0 0 0-1.218-.177 6.435 6.435 0 0 0-1.23.063c-.312.047-.503.093-.505.083Z"/><path fill="#040000" d="m17.98 22.222 3.422 2.847c.084.459.239 2.414.323 2.873.013.072.025.148-.003.215-.056.137-.258.157-.382.076-.125-.081-.19-.226-.248-.363-.11.336.035.695.14 1.033.104.338.15.754-.105 1-.208.203-.537.206-.823.158-.351-.059-.705-.184-.956-.436-.22-.222-.342-.521-.45-.815a15.87 15.87 0 0 1-.917-6.588ZM24.875 22.583c.8 1.355 1.047 2.956 1.278 4.513.274 1.84.076 3.802.175 5.66-.485-.087-.83-.549-.95-1.027-.12-.478-.066-.98-.05-1.473.079-2.57-.904-5.142-.453-7.673Z" opacity=".3"/><path fill="#AA827E" d="M28.849 21.334c1.34.25 3.38.301 3.3 2.746-.081 2.486-.523 6.765-1.373 8.203-.85 1.438-1.895 2.125-3.497 1.308-1.601-.817-1.405-3.334-1.405-3.334l3.142-2.353-.462-.589.295-5.98Z"/><path fill="#623F3F" d="M29.33 33.772c0 .001-.009.005-.027.011l-.084.027c-.074.02-.184.051-.33.075a2.47 2.47 0 0 1-1.242-.102c-.511-.17-1.035-.597-1.424-1.2a2.106 2.106 0 0 1-.236-.503 4.703 4.703 0 0 1-.125-.565 8.757 8.757 0 0 1-.09-1.218v-.017l.014-.01.799-.546 2.598-1.77.02-.014.016.017c.404.386.76.765 1.017 1.145.131.189.233.38.316.56.08.183.14.357.178.518.08.322.094.584.102.76.002.09 0 .158-.001.203 0 .046-.002.07-.004.07a.36.36 0 0 1-.005-.07l-.008-.201c-.014-.176-.033-.436-.117-.753a3.137 3.137 0 0 0-.183-.509 3.694 3.694 0 0 0-.318-.55c-.258-.374-.613-.747-1.017-1.13l.037.003-2.594 1.776-.799.546.014-.028c.006.418.027.825.087 1.21.03.192.07.379.12.557.053.176.135.34.227.49.38.594.892 1.018 1.39 1.19.498.182.938.159 1.225.119.145-.02.255-.047.33-.063a7.33 7.33 0 0 0 .114-.028ZM28.462 26.756c-.018-.001.009-.506.061-1.127.052-.62.109-1.122.127-1.121.018.001-.01.506-.061 1.127-.053.62-.11 1.122-.127 1.121Z"/><path fill="#fff" d="M28.468 26.353c0-.005.05-.012.138-.02.09-.009.22-.017.381-.023a10.316 10.316 0 0 1 2.874.313c.087.024.134.04.133.044a.58.58 0 0 1-.139-.02l-.373-.069a14.316 14.316 0 0 0-1.242-.167 14.44 14.44 0 0 0-1.252-.055l-.38.002c-.09.002-.14 0-.14-.005ZM28.696 27.352c0-.004.044-.007.124-.01a7.21 7.21 0 0 1 .338.002 15.576 15.576 0 0 1 2.545.272c.078.017.12.028.12.033-.002.01-.176-.013-.458-.049a34.236 34.236 0 0 0-1.103-.124c-.432-.04-.823-.068-1.107-.085-.283-.018-.459-.029-.459-.039Z"/><path fill="#623F3F" d="M31.244 21.615c0-.004.035-.017.102-.014a.445.445 0 0 1 .26.1c.101.074.15.222.259.305.027.019.058.03.093.032.036.003.078-.004.125.004a.323.323 0 0 1 .221.165c.048.081.073.168.09.251.009.043.012.083.024.115a.166.166 0 0 0 .06.076c.058.04.13.083.174.138a.539.539 0 0 1 .124.448c-.013.065-.033.097-.036.095-.005-.002.005-.036.01-.099a.555.555 0 0 0-.14-.408c-.043-.05-.099-.08-.168-.126a.224.224 0 0 1-.083-.103c-.017-.043-.02-.086-.029-.124a.758.758 0 0 0-.083-.23c-.041-.07-.103-.124-.175-.135-.035-.008-.075-.002-.119-.005a.23.23 0 0 1-.123-.046c-.07-.052-.106-.12-.143-.175a.455.455 0 0 0-.344-.254c-.062-.01-.098-.005-.099-.01Z"/><path fill="#623F3F" d="M31.51 21.421c0-.003.035-.017.102-.014a.446.446 0 0 1 .261.1c.1.075.149.223.258.305.028.02.058.031.093.032.036.003.078-.004.125.005a.323.323 0 0 1 .221.165c.048.08.074.167.09.25.009.044.013.083.025.115a.166.166 0 0 0 .06.077c.057.04.128.083.173.138a.536.536 0 0 1 .124.447c-.013.065-.033.097-.036.096-.005-.002.006-.036.01-.1a.555.555 0 0 0-.139-.407c-.044-.05-.1-.08-.169-.126a.224.224 0 0 1-.083-.104c-.017-.043-.02-.085-.029-.123a.758.758 0 0 0-.083-.23c-.041-.071-.103-.125-.175-.135-.034-.008-.074-.003-.118-.006a.231.231 0 0 1-.124-.045c-.07-.052-.106-.12-.143-.176a.64.64 0 0 0-.11-.143.455.455 0 0 0-.234-.11c-.062-.01-.098-.005-.098-.01Z"/><path fill="#3C2621" d="M20.49 10.268c1.424-1.215 2.922-.675 2.922-.675 1.864-.606 3.47.62 4.128 1.652l.627 1.355c-1.163 1.911-3.464 3.08-5.655 3.53-.675.14-1.397.189-2.036-.07-.73-.296-1.06-.877-1.29-1.63-.001 0-.119-2.946 1.305-4.162Z"/><path fill="#FAD6C8" d="M24.452 10.626c1.28-.16 2.932 1.4 3.038 2.686.118 1.429.206 3.177.057 4.248-.299 2.153-1.939 2.458-1.939 2.458l.039 2.245-4.811-.18-.263-9.591-.027-.692 3.906-1.174Z"/><path fill="#3C2621" d="M27.066 14.232c-.034.037-.245-.114-.541-.107-.296.002-.51.159-.544.123-.016-.015.018-.081.111-.152a.756.756 0 0 1 .866-.013c.092.068.124.133.108.15ZM24.154 14.344c-.034.037-.246-.114-.542-.107-.296.002-.51.159-.543.123-.016-.015.018-.081.11-.152a.753.753 0 0 1 .866-.013c.093.069.125.133.109.149ZM25.263 16.52c-.002-.017.182-.052.48-.096.075-.01.146-.026.158-.077.017-.055-.016-.136-.055-.223l-.234-.572c-.327-.814-.565-1.484-.532-1.497.033-.013.325.637.65 1.45l.226.576c.03.085.082.182.045.296a.19.19 0 0 1-.122.113c-.048.015-.09.017-.128.02-.3.022-.486.027-.488.01Z"/><path fill="#C8A399" d="M25.596 20.024s-1.515.118-2.962-.714c0 0 .784 1.483 3.002 1.243l-.04-.529Z"/><path fill="#3C2621" d="M22.85 13.26c.016-.085.314-.096.65-.195.338-.093.598-.24.655-.176.026.03-.01.113-.108.209a1.128 1.128 0 0 1-.465.256 1.127 1.127 0 0 1-.529.027c-.134-.03-.208-.081-.202-.121ZM26.009 12.916c.078-.041.267.105.524.207.252.11.491.14.516.225.01.04-.048.09-.167.113a.85.85 0 0 1-.467-.06.841.841 0 0 1-.37-.287c-.068-.1-.072-.176-.036-.198Z"/><path fill="#3C2621" d="M18.72 18.622c.189-1.142.171-2.307.228-3.463.057-1.157.196-2.331.674-3.386.477-1.055 1.34-1.984 2.454-2.302 1.055-.301 2.322.066 2.915.976-1.83 1.166-3.017 3.07-3.337 5.214.118.784.357 1.85.415 2.597.09 1.16-.183 2.326-.086 3.485.077.934.394 1.851.33 2.786-.043.62-.252 1.215-.36 1.828-.106.611-.099 1.285.249 1.8-.7-.26-1.116-1.004-1.247-1.74-.077-.428-.078-.864-.068-1.3-.239 1.337-.378 2.666-.06 3.978-.726-.023-1.552-.095-1.995-.67-.216-.28-.3-.636-.38-.98l-.438-1.894c-.116-.505-.233-1.013-.274-1.53-.142-1.832.678-3.587.98-5.4Z"/><path fill="#623F3F" d="M25.082 10.6a1.94 1.94 0 0 0-.092-.153l.018-.012.074.164Z"/><path fill="#C8A399" d="M23.168 15.443c.01-.016.175.101.412.113.237.017.415-.08.423-.063.004.007-.034.042-.11.075a.706.706 0 0 1-.625-.038c-.072-.041-.106-.08-.1-.087ZM26.253 15.355c.008-.018.159.047.354.039.196-.005.342-.079.352-.062.011.013-.134.122-.35.128-.215.008-.367-.092-.357-.105ZM26.458 15.556c.003-.02.095-.019.205-.032.11-.013.199-.035.206-.017.007.016-.078.068-.199.082-.12.015-.216-.016-.212-.033ZM23.175 15.75c.006-.019.14.016.306.02.167.004.302-.025.307-.007.007.016-.128.077-.308.072-.18-.003-.312-.07-.305-.086ZM23.452 18.03c-.033.002-.047-.14.058-.265.105-.125.248-.135.252-.102a.393.393 0 0 0-.196.136c-.08.093-.08.235-.114.232ZM24.603 12.637c.006-.019.184.038.409.041.225.006.404-.044.41-.026.007.016-.173.097-.412.092-.238-.003-.415-.092-.407-.107Z"/><path fill="#623F3F" d="M15.181 23.514c-.003.001-.018-.033-.02-.1a.446.446 0 0 1 .086-.267c.069-.104.214-.16.29-.274a.172.172 0 0 0 .027-.095c0-.035-.009-.077-.002-.125a.325.325 0 0 1 .152-.23.785.785 0 0 1 .246-.103c.042-.011.081-.017.113-.03a.163.163 0 0 0 .073-.066c.036-.06.075-.132.128-.18a.537.537 0 0 1 .441-.149c.066.01.099.027.097.03-.001.006-.036-.003-.1-.004a.556.556 0 0 0-.399.162c-.047.046-.075.103-.116.175a.22.22 0 0 1-.099.089c-.042.018-.084.024-.122.035a.758.758 0 0 0-.225.095c-.068.046-.118.11-.125.183-.006.035.001.074 0 .118a.235.235 0 0 1-.038.127c-.048.072-.113.112-.167.152a.46.46 0 0 0-.235.358c-.006.062 0 .098-.005.1Z"/><path fill="#623F3F" d="M14.974 23.258c-.003.001-.018-.033-.02-.1a.445.445 0 0 1 .086-.267c.069-.104.214-.16.29-.274a.17.17 0 0 0 .027-.095c0-.035-.009-.078-.002-.125a.325.325 0 0 1 .152-.23.788.788 0 0 1 .246-.104c.042-.01.081-.016.113-.03a.164.164 0 0 0 .073-.065c.036-.06.075-.133.128-.18a.54.54 0 0 1 .441-.149c.066.01.099.027.097.03-.001.006-.036-.003-.1-.004a.555.555 0 0 0-.399.162c-.047.046-.075.103-.116.175a.22.22 0 0 1-.099.089c-.042.018-.084.024-.122.035a.758.758 0 0 0-.225.095c-.068.046-.118.11-.125.183-.006.035.001.074 0 .118a.236.236 0 0 1-.038.127c-.048.072-.113.112-.167.152a.46.46 0 0 0-.235.358c-.006.063 0 .098-.005.1ZM27.732 10.793c.004-.001.01.038.02.106.012.067.025.169.079.275a.35.35 0 0 0 .124.14c.055.038.135.05.21.102a.335.335 0 0 1 .128.244c.012.093.006.186.01.279a.43.43 0 0 0 .072.243c.049.065.12.112.187.162a.584.584 0 0 1 .228.668c-.025.068-.05.098-.053.096-.005-.002.012-.037.029-.103a.592.592 0 0 0-.002-.282.545.545 0 0 0-.237-.33c-.065-.048-.143-.094-.204-.172a.487.487 0 0 1-.085-.279c-.005-.097.001-.19-.01-.274a.278.278 0 0 0-.098-.203c-.058-.044-.139-.06-.205-.105a.39.39 0 0 1-.137-.165c-.052-.12-.057-.224-.061-.294-.003-.07 0-.108.005-.108ZM27.27 10.465c.013-.013.036-.011.051.004s.017.038.004.05c-.013.013-.036.012-.05-.004-.016-.015-.018-.037-.005-.05ZM28.772 13.85c-.016.009-.064-.058-.08-.155-.015-.096.008-.175.026-.172.019.002.025.075.04.162.014.086.03.158.014.166ZM15.01 34.2c.014-.001.01.172.12.414.055.12.14.255.265.376.123.126.296.207.479.31.09.053.175.115.241.194.065.078.107.162.165.224a.986.986 0 0 0 .381.25c.25.096.415.128.412.14-.001.004-.043 0-.117-.014a2.147 2.147 0 0 1-.311-.081.985.985 0 0 1-.41-.254c-.064-.068-.11-.154-.17-.223a.863.863 0 0 0-.225-.18c-.087-.05-.177-.095-.262-.147a1.183 1.183 0 0 1-.491-.576 1.106 1.106 0 0 1-.079-.313c-.007-.077-.001-.12.002-.12ZM14.696 33.768c.01-.015.059.005.079.06.019.056-.007.102-.024.097-.018-.005-.025-.039-.039-.075-.012-.037-.027-.068-.016-.082ZM17.234 36.223c-.005-.017.052-.047.128-.039.075.007.126.046.118.062-.007.017-.061.01-.125.003-.063-.006-.117-.008-.121-.026Z"/><path fill="#FAD6C8" d="M30.778 32.283s.872-.056 1.135.118c.263.175.24.642.24.642v.204s.089.273-.025.544c-.123.294-.615.149-.615.149s.362.082.333.403c-.03.32-.333.361-.333.361s.075.172.03.31c-.083.263-.388.273-.388.273l-.525.065s-2.012.344-2.449.256c-.437-.088-1.29-.38-1.29-.38l-.226-2.39 4.113-.555Z"/><path fill="#FAD6C8" d="M26.665 32.839s-3.86.318-5.55-.395l-1.135 3.36s6.57-.349 6.911-.575c.34-.226-.226-2.39-.226-2.39Z"/><path fill="#C8A399" d="M30.702 34.446c.004-.015.194 0 .427.06.235.059.395.185.383.198-.01.015-.174-.078-.4-.135-.226-.058-.415-.103-.41-.123ZM30.683 33.751c0-.009.048-.018.128-.025.079-.007.19-.014.314.004a.677.677 0 0 1 .3.111c.066.05.093.095.088.1-.008.007-.046-.025-.113-.06a.876.876 0 0 0-.284-.086c-.116-.017-.225-.018-.304-.023-.08-.004-.13-.012-.13-.02ZM30.547 32.958c-.004-.002.005-.026.038-.058a.303.303 0 0 1 .177-.07c.08-.01.177.002.277.022.1.018.211.04.327.064.23.05.438.116.58.185.141.069.212.14.206.146-.006.008-.083-.048-.226-.103a3.816 3.816 0 0 0-.574-.164l-.325-.069a1.059 1.059 0 0 0-.261-.035c-.153 0-.213.09-.22.082Z"/><path fill="#FAD6C8" d="M29.075 28.04s-2.233-4.37-2.554-6.151l-1.703.287 1.058 8.08 3.199-2.217Z"/><path fill="#C8A399" d="M25.296 18.2a.393.393 0 0 0-.2-.186.533.533 0 0 0-.228-.025c-.136.012-.222.033-.224.022-.002-.007.077-.043.218-.068.07-.011.16-.018.256.014.097.03.182.115.235.21.195.386.323.704.309.712M24.507 18.595c.017-.007.056.047.123.083.067.04.133.044.136.063.005.017-.08.045-.168-.005-.089-.05-.109-.137-.091-.141Z"/><path fill="#623F3F" d="M31.503 31.487c-.003-.005.038-.023.078-.083a.538.538 0 0 0 .067-.299c-.001-.065-.008-.14-.006-.222a.512.512 0 0 1 .064-.258c.053-.087.149-.135.233-.177.086-.043.17-.094.189-.184.02-.089-.002-.196.016-.297.013-.1.044-.193.075-.277.065-.17.132-.314.16-.444a.746.746 0 0 0 .011-.31c-.015-.072-.035-.11-.03-.112.003-.002.03.032.055.106.024.074.035.19.009.326-.023.137-.087.29-.148.455-.029.084-.056.172-.068.265-.016.092.009.189-.015.304a.268.268 0 0 1-.091.144.641.641 0 0 1-.133.081c-.088.043-.169.084-.212.153a.465.465 0 0 0-.06.228c-.005.078 0 .15-.003.22a.527.527 0 0 1-.092.313c-.052.061-.099.071-.099.068Z"/><g opacity=".36"><path fill="#BF9892" d="M.828 27.853s.681-1.381.684-1.67l-.188-1.718s-.12-.086-.248.206c-.13.292-.037.601-.037.601l-.142.381-.196-.301-.203-1.124s-.128-.812-.255-.731c-.128.081-.17.316-.115.666l.125.795s.013.138-.111-.097c-.125-.234-.244-1.214-.29-1.346-.048-.133-.06-.482-.258-.468-.2.014-.094.462-.094.462l.157 1.446s-.173-.584-.206-.684c-.033-.1-.08-.418-.143-.592-.062-.174-.162-.266-.25-.258-.16.015-.16.161-.16.161l.266 1.24s.15.567.138.602c-.012.036-.213-.24-.213-.24l-.149-.403s-.118-.57-.27-.59c-.152-.02-.16.095-.16.095l.225 1.042.432 1.184.413.899s.02.46.042.492c.023.032 1.206-.05 1.206-.05Z"/><path fill="#A07B77" d="M.723 25.447c-.015.011.084.166.22.344.137.178.26.314.275.302.015-.012-.084-.165-.22-.344-.137-.179-.26-.314-.275-.302ZM-.661 25.845c-.004.021.282.06.578.24.299.176.467.41.484.397.016-.006-.135-.27-.448-.456-.312-.19-.616-.198-.614-.18Z"/><path fill="#263138" d="M9.44 29.186c.011 0 .01-.142.049-.364a2.53 2.53 0 0 1 .296-.824c.166-.3.395-.525.6-.611.207-.09.353-.042.353-.056 0-.003-.032-.02-.097-.027a.601.601 0 0 0-.274.038c-.224.08-.472.314-.642.622a2.265 2.265 0 0 0-.284.85c-.027.23-.009.373 0 .372Z"/><path fill="#A07B77" d="M9.166 19.839c.056-.362.382-.64.737-.727.356-.088.732-.015 1.077.108.387.138.757.343 1.036.644.28.302.46.707.438 1.117-.02.384-.212.77-.105 1.14.081.28.319.486.557.655.238.17.496.328.657.573.16.244.187.608-.03.804-.193.175-.538.195-.62.442-.05.153.035.313.082.468.1.327.023.69-.157.98-.18.29-.455.512-.752.68-.52.294-1.17.432-1.72.197a1.657 1.657 0 0 1-.68-.557c-.288-.399-.418-.896-.448-1.388-.03-.492.032-.984.096-1.473l-.168-3.663Z"/><path fill="#A07B77" d="M8.976 25.692a1.54 1.54 0 0 0 1.334-.265c.371-.29.595-.76.584-1.23-.01-.44-.209-.887-.072-1.305.094-.286.334-.51.415-.8.12-.434-.143-.873-.393-1.247-.16-.24-.325-.484-.549-.666-.224-.183-.52-.298-.803-.238M4.363 23.395c.118-.577-.453-1.119-.368-1.702.047-.329.293-.588.514-.837.22-.248.44-.544.415-.876l1.528 6.003c-1.138.388-1.508-.218-1.508-.218-.178-.249-.422-.441-.623-.67-.2-.231-.363-.526-.319-.83.045-.312.298-.56.361-.87Z"/><path fill="#A07B77" d="M10.017 20.487c.008-.3-.27-.533-.55-.643-.28-.11-.59-.152-.84-.32-.22-.148-.369-.38-.556-.57a1.89 1.89 0 0 0-1.805-.486 1.89 1.89 0 0 0-1.309 1.336c-.107.428-.034.935.304 1.22.391.33.972.256 1.474.153.502-.102 1.07-.204 1.49.091.253.178.397.467.552.735.154.267.348.54.64.641.292.1.689-.073.7-.382"/><path fill="#BF9892" d="M8.834 20.549c.26.028.454.25.448.51l-.3 6.796c-.012.803-1.185 1.253-2.044 1.233-.868-.02-.896-.445-.907-1.209-.018-1.276-.017-1.754-.017-1.747 0 0-1.096-.185-1.32-1.616-.112-.711-.073-1.878-.011-2.831.056-.858.627-1.91 1.482-1.818l2.669.682Z"/><path fill="#A07B77" d="M5.286 22.612a.183.183 0 0 0 .177.185c.1.006.185-.068.189-.165a.184.184 0 0 0-.176-.185.176.176 0 0 0-.19.165ZM4.928 22.2c.022.024.161-.079.359-.078.197-.002.342.1.363.076.011-.01-.012-.054-.075-.1a.502.502 0 0 0-.577.001c-.061.047-.081.09-.07.1ZM7.21 22.662a.183.183 0 0 0 .176.185c.1.006.185-.068.189-.165a.184.184 0 0 0-.177-.185.176.176 0 0 0-.189.165ZM6.87 22.334c.023.024.162-.079.36-.078.197-.002.341.1.363.076.01-.01-.012-.054-.075-.1a.503.503 0 0 0-.577.001c-.061.047-.082.09-.071.1ZM6.16 23.796c0-.01-.123-.033-.321-.058-.05-.006-.098-.016-.107-.05-.012-.037.01-.09.034-.15l.15-.383c.208-.546.359-.995.337-1.004-.023-.008-.21.428-.417.974l-.144.386c-.019.057-.052.122-.027.198.014.038.05.065.083.074.033.01.06.01.086.012.2.011.324.012.325.001ZM6.017 26.132s.962.064 1.916-.507c0 0-.485.983-1.916.846v-.34ZM6.79 21.988c.02.054.217.029.448.057.232.024.419.092.45.044.014-.023-.019-.074-.094-.126a.75.75 0 0 0-.333-.117.748.748 0 0 0-.35.04c-.086.034-.13.076-.12.102ZM5.01 21.721c.035.045.171-.001.335-.003.164-.007.302.03.334-.016.014-.023-.008-.067-.068-.11a.464.464 0 0 0-.272-.074.46.46 0 0 0-.266.09c-.058.045-.077.091-.062.113Z"/><path fill="#A07B77" d="M5.887 19.557a13.56 13.56 0 0 1 3.126.76c.233.087.479.192.617.4.146.219.14.503.127.766l-.18 3.854-.86-.396a1.293 1.293 0 0 1-.396-1.09c.044-.351.233-.71.112-1.042-.161-.44-.778-.574-.941-1.013-.095-.255-.01-.554-.118-.803-.1-.236-.348-.37-.589-.458-.24-.087-.499-.147-.7-.304-.202-.157-.328-.454-.198-.674Z"/><path fill="#F5F5F5" d="M10.749 20.744c-.02.015-.238-.35-.678-.597-.436-.255-.861-.26-.857-.284 0-.009.104-.02.272.003a1.77 1.77 0 0 1 1.123.644c.104.133.147.23.14.233Z"/><path fill="#BF9892" d="M6.065 24.41c.034.084.068.17.123.24a.32.32 0 0 0 .228.133.288.288 0 0 0 .243-.133.457.457 0 0 0 .067-.276c-.004-.087-.043-.19-.13-.201-.036-.005-.071.01-.105.023l-.455.184"/><path fill="#966F6C" d="M6.246 24.785c.002-.015.102.026.243-.03a.35.35 0 0 0 .183-.167.365.365 0 0 0-.033-.366c-.019-.019-.015-.018-.035-.015-.018.005-.048.02-.072.029l-.075.03c-.097.04-.186.074-.26.102-.149.056-.244.085-.248.075-.004-.01.082-.058.226-.128.071-.034.157-.074.253-.117l.074-.033c.026-.011.046-.023.083-.035a.107.107 0 0 1 .067.002c.024.01.04.026.05.04.021.027.039.055.052.086a.428.428 0 0 1-.014.364.39.39 0 0 1-.428.194c-.046-.011-.068-.027-.066-.031Z"/><path fill="#A07B77" d="m2.262 48.472 1.657-5.48v-4.59l5.649-.795.441 1.854s.794 1.059 1.148 2.471c.034.135.053.271.062.408.188.836.129 2.715-.183 3.335-.45.893-.078 2.806-.078 2.806H8.105"/><path fill="#BF9892" d="m8.975 27.006-2.96.459-.526.456s-1.863 3.627-1.897 4.359c-.038.81.396 2.198.396 2.198l-.426 3.205c-.063.368.176.721.337.721l5.112-.686c.667-.13.94-.48.9-.865l-.076-.714 2.183-7.313c.13.433-.073-1.165-1.047-1.523-.413-.152-1.368-.428-1.996-.297Z"/><path fill="#BF9892" d="M5.76 27.706s-.91.702-1.772 1.5c-.863.799-3.163 2.396-3.163 2.396l.232-3.913-1.755-.237s-1.118 4.405-.58 5.555c.539 1.15 1.082 1.533 2.87.958s2.3-.83 2.3-.83l1.869-5.43Z"/><path fill="#A07B77" d="M5.304 28.202a.24.24 0 0 0-.04.051l-.107.156c-.09.136-.22.334-.374.584-.305.497-.722 1.202-.993 2.06-.272.858-.282 1.697-.153 2.271.062.288.144.513.214.661.032.076.066.13.085.169.021.038.033.057.036.056.005-.003-.035-.084-.096-.235a3.457 3.457 0 0 1-.191-.66c-.115-.57-.097-1.394.171-2.242.269-.848.676-1.553.97-2.056l.355-.594.095-.162a.28.28 0 0 0 .028-.06Z"/><path fill="#BF9892" d="M10.412 27.303s-.92 1.207-.971 2.314c-.05 1.107 1.653 7.746 1.653 7.746l1.494 6.06 1.86-.687s-.434-4.314-.516-4.85c-.171-1.116-.907-3.292-1.008-4.55-.1-1.258-.567-3.68-.797-4.248-.23-.566-.239-1.817-1.715-1.785Z"/><path fill="#A07B77" d="M9.518 30.229a.233.233 0 0 0 .003.065l.022.185c.021.16.058.39.109.675.102.568.264 1.35.458 2.208.195.86.384 1.634.528 2.193a31.958 31.958 0 0 0 .23.838c.013.04.021.062.024.061.002 0-.001-.022-.01-.064l-.04-.182-.157-.665c-.132-.571-.31-1.343-.509-2.196-.193-.859-.363-1.638-.476-2.203l-.131-.67-.034-.183a.241.241 0 0 0-.017-.062Z"/><path fill="#BF9892" d="m12.818 43.338.203 1.784 1.632 1.492s.138-.224.064-.41c-.075-.187.372.242.372.242v1.025s.28.112.373-.13c.094-.243.15-1.119.15-1.119l-.131-.093s.167-.15.13-.41c0 0 .15-.317.094-.746-.056-.429-.168-.653-.168-.653L14.2 42.828l-1.382.51Z"/><path fill="#A07B77" d="M13.637 45.055c-.014.01.184.295.482.6.297.306.575.512.586.498.013-.016-.243-.243-.537-.546-.294-.302-.515-.564-.53-.552ZM14.784 45.381c-.013.014.16.215.388.448.228.234.424.413.438.4.014-.012-.16-.213-.388-.448-.229-.234-.425-.413-.438-.4ZM15.004 44.972c-.013.015.143.163.309.367.167.204.28.386.298.377.016-.008-.074-.21-.245-.42-.171-.21-.352-.337-.362-.324ZM15.192 44.55c-.012.015.106.138.243.296.136.158.24.293.257.283.016-.01-.065-.166-.205-.328-.14-.162-.283-.265-.295-.25ZM8.181 48.522c-.01-.007.24-.42.562-.922.322-.503.59-.904.602-.897.01.007-.241.42-.563.922-.32.502-.59.904-.601.897Z"/></g><g opacity=".31"><path fill="#A07B77" d="M45.97 24.598c.456-.212.742-.68.91-1.154.168-.474.246-.978.433-1.445.139-.349-.014-.904.299-1.111.391-.26.387-.947.236-1.29-.165-.374-.611-.651-.642-.77-.08-.31.191-.647.091-.952-.236-.716-.82-.621-.82-.621-.266-.322-.626-.748-1.21-.9-.633-.163-1.566-.284-2.13.047-.563.332-.977.553-1.16 1.18"/><path fill="#BF9892" d="M41.089 18.47a.643.643 0 0 0-.574.653l.383 8.675c.016 1.024 1.515 1.6 2.613 1.574 1.108-.025 1.144-.569 1.158-1.544.023-1.628.021-2.24.022-2.23 0 0 1.4-.235 1.686-2.062.143-.909.094-2.398.014-3.615-.071-1.095-.8-2.438-1.893-2.32l-3.41.87Z"/><path fill="#A07B77" d="M46.074 21.253a.234.234 0 0 1-.225.237.225.225 0 0 1-.242-.21.234.234 0 0 1 .225-.238.224.224 0 0 1 .242.211ZM46.073 20.697c-.029.03-.206-.1-.459-.1-.252-.002-.437.128-.464.098-.014-.014.016-.07.096-.128a.644.644 0 0 1 .737.001c.078.06.104.115.09.129ZM43.597 21.253a.234.234 0 0 1-.226.237.225.225 0 0 1-.242-.21.235.235 0 0 1 .225-.238.224.224 0 0 1 .243.211ZM43.6 20.75c-.028.03-.207-.101-.459-.1-.252-.002-.436.128-.464.097-.013-.014.016-.069.096-.128a.644.644 0 0 1 .737.002c.078.06.105.114.09.128ZM44.516 22.616c-.002-.014.155-.041.41-.074.063-.007.124-.02.135-.064.015-.047-.012-.116-.044-.19l-.191-.49c-.266-.698-.459-1.27-.43-1.281.027-.01.266.546.532 1.243l.184.492c.024.073.066.156.033.253a.162.162 0 0 1-.105.094c-.042.012-.078.013-.11.016-.254.014-.413.016-.414.001ZM44.693 25.598s-1.23.082-2.449-.647c0 0 .62 1.288 2.449 1.113v-.466Z"/><path fill="#AA8988" d="M44.407 23.224a.456.456 0 0 0-.407-.168.415.415 0 0 0-.287.154c-.066.09-.08.216-.019.3.069.096.21.118.33.083a.956.956 0 0 0 .323-.192.28.28 0 0 0 .072-.075c.017-.03.02-.069 0-.094"/><path fill="#A07B77" d="M43.776 22.792c.04-.002.042.271.277.465.234.194.526.163.528.201.004.018-.065.054-.188.057a.68.68 0 0 1-.44-.152.594.594 0 0 1-.215-.39c-.011-.114.02-.182.038-.18ZM43.708 20.018c-.025.068-.276.036-.572.073-.297.03-.535.117-.574.056-.018-.03.024-.094.12-.16a.956.956 0 0 1 .425-.15c.178-.02.34.008.448.051.109.044.164.097.153.13ZM45.984 20.237c-.044.058-.218-.002-.427-.004-.209-.01-.386.04-.427-.02-.018-.03.01-.087.087-.141a.592.592 0 0 1 .347-.095.594.594 0 0 1 .341.114c.074.06.099.118.079.146ZM42.097 17.465c-.001.365.167.728.448.962.28.235.668.337 1.028.271.279-.05.585-.192.827-.043.254.156.265.539.49.734.322.28.835.018 1.244.139.316.094.513.395.723.649.21.254.524.495.84.401-.02-.283-.041-.57-.126-.842-.084-.271-.24-.53-.478-.686-.13-.085-.283-.137-.404-.235-.262-.211-.323-.58-.485-.875a1.371 1.371 0 0 0-1.044-.692c-.36-.037-.73.071-1.08-.017-.26-.066-.486-.234-.748-.283-.512-.097-.987.269-1.357.634"/><path fill="#A07B77" d="M41.136 21.422c-.054-.015-.273.307.077.386.615.14.695-1.059.559-1.402.222-.197.446-.397.616-.647.169-.25.318-.933.282-1.24.222.012 1.164-.299 1.064-.327-.229-.066-.698-.214-.821-.413-.267-.431-.737-.726-1.218-.7-.481.027-.943.406-1.041.913-.582.005-1.15.37-1.429.92-.279.549-.258 1.26.052 1.79.081.139.184.278.187.442.002.203-.148.364-.254.532-.29.458-.268 1.088-.044 1.587.224.5.381.675.7.775.623.195-.1 1.479.938 1.479"/><path fill="#BF9892" d="M41.162 21.924c-.02-.389-.443-.648-.78-.454-.184.107-.326.322-.31.734.046 1.1 1.142.828 1.142.796 0-.019-.029-.621-.052-1.076Z"/><path fill="#A07B77" d="M40.865 22.598c-.005-.003-.019.014-.05.03a.193.193 0 0 1-.144.009c-.118-.038-.223-.218-.236-.416a.634.634 0 0 1 .042-.277c.03-.082.08-.14.138-.153.058-.016.1.017.115.048.017.03.01.053.017.054.003.003.022-.02.011-.064a.121.121 0 0 0-.046-.067.144.144 0 0 0-.107-.024c-.084.01-.158.09-.193.179a.649.649 0 0 0-.054.31c.016.22.138.423.3.463a.206.206 0 0 0 .174-.037c.032-.028.037-.053.033-.055ZM43.508 22.843c.022.009.067-.05.143-.086.076-.038.15-.038.156-.061.01-.02-.086-.066-.192-.013-.107.052-.13.154-.107.16ZM43.292 22.756c.023.003.05-.076.126-.136.073-.063.156-.074.158-.097.007-.023-.11-.052-.211.033-.103.084-.097.203-.073.2Z"/><path fill="#BF9892" d="M39.527 21.069c.005-.004-.035-.062-.087-.176a1.208 1.208 0 0 1-.1-.513c.005-.22.088-.484.286-.7.098-.107.221-.2.364-.266a1.3 1.3 0 0 1 .476-.105c.339-.016.671.037.977.001a1.514 1.514 0 0 0 1.114-.7.585.585 0 0 0 .084-.18c-.016-.013-.12.269-.485.533-.18.129-.429.243-.72.27-.294.031-.622-.023-.975-.007-.175.01-.35.042-.505.114a1.19 1.19 0 0 0-.387.29 1.125 1.125 0 0 0-.158 1.277.524.524 0 0 0 .116.162Z"/><path fill="#BF9892" d="M39.526 18.63c.006.014.153-.127.45-.133.147-.004.322.023.506.086.186.06.385.152.607.222.221.073.454.093.655.057.202-.034.373-.11.501-.194.13-.084.218-.172.27-.238.055-.066.076-.109.073-.111-.013-.011-.118.15-.373.3-.127.073-.292.14-.483.168-.19.03-.404.01-.619-.06-.215-.067-.415-.158-.608-.217a1.43 1.43 0 0 0-.532-.071.782.782 0 0 0-.347.104c-.073.045-.103.083-.1.086ZM46.925 17.77c-.01-.005-.025.079-.125.176a.721.721 0 0 1-.537.18c-.247-.009-.516-.166-.759-.389-.248-.217-.49-.516-.855-.69a1.017 1.017 0 0 0-.574-.09c-.188.029-.36.1-.504.194a1.826 1.826 0 0 0-.601.669c-.125.224-.198.418-.25.55a1.12 1.12 0 0 0-.068.21c.005.003.04-.068.098-.197.06-.129.142-.318.27-.534.13-.213.31-.461.591-.634.138-.087.3-.152.474-.177a.95.95 0 0 1 .529.083c.342.163.584.452.84.673.25.224.537.388.806.39.266.006.468-.107.563-.217a.442.442 0 0 0 .088-.141c.012-.036.017-.055.014-.056Z"/><path fill="#BF9892" d="M43.118 16.671c-.005-.007-.102.057-.221.2a1.573 1.573 0 0 0-.308.654c-.06.28-.038.543.012.722.048.18.11.278.118.274.013-.006-.029-.11-.061-.287a1.809 1.809 0 0 1 .012-.692c.058-.266.172-.489.274-.635.102-.147.184-.226.174-.236Z"/><path fill="#A07B77" d="M34.678 36.176s-.855-.777-.78-1.616c.073-.84-.005-1.798.78-2.81.494-.637 4.093-5.003 4.093-5.003l-.298 4.715-3.794 4.714Z"/><path fill="#BD9595" d="M36.82 34.146s-1.061-.536-1.954.208-3.199 5.357-3.199 5.357 1.748 2.046 2.38 2.12c.633.074 3.163.298 3.312.298.148 0 1.45-5.208 1.45-5.208l-1.99-2.775Z"/><path fill="#BD9595" d="M40.198 26.199s-1.012-.338-1.798.975c-.451.753-3.013 7.386-3.013 7.386l1.525.463 3.286-8.824Z"/><path fill="#946F6F" d="M34.62 34.6c.009.011.115-.07.29-.19.173-.114.433-.283.748-.266.314.02.561.205.728.33.167.13.269.217.278.207.007-.008-.078-.11-.238-.256a1.856 1.856 0 0 0-.309-.227 1.023 1.023 0 0 0-.454-.143.964.964 0 0 0-.466.098 1.69 1.69 0 0 0-.324.206c-.169.136-.26.234-.252.242Z"/><path fill="#946F6F" d="M34.153 41.872c.006.003.056-.093.14-.268.087-.174.205-.43.344-.75a29.858 29.858 0 0 0 1.704-5.161c.078-.34.136-.615.17-.807.036-.191.053-.298.046-.299a1.935 1.935 0 0 0-.08.292l-.197.799c-.17.674-.425 1.6-.757 2.607a39.13 39.13 0 0 1-.943 2.545l-.317.76c-.077.18-.116.28-.11.282Z"/><path fill="#BF9892" d="M35.398 43.807c.115-1.34 2.163-5.125 2.163-5.125l6.236.326.48 11.803-6.778.03-.52-2.662c.001 0-1.763-2.254-1.581-4.372Z"/><path fill="#714E4E" d="M35.815 46.136c.004.005.069-.048.18-.148.11-.1.27-.245.463-.426l.01-.009v-.013c.034-.425.074-.987.113-1.603.043-.673.076-1.282.096-1.726l.002-.027-.024-.006a456.02 456.02 0 0 1-.524-.134.826.826 0 0 0-.196-.037.844.844 0 0 0 .186.07l.516.163-.023-.033c-.036.443-.08 1.052-.122 1.725-.039.615-.07 1.179-.09 1.604l.01-.022c-.188.187-.34.34-.444.448-.103.107-.158.169-.153.174Z"/><path fill="#714E4E" d="M35.588 42.885c0 .025.222.048.495.051.275.004.497-.013.497-.037 0-.025-.221-.048-.495-.052-.274-.003-.497.014-.497.038Z"/><path fill="#BF9892" d="M38.24 38.992h7.243l1.085 1.965s1.683 5.282 2.82 9.854h-8.88l-.35-2.59s-1.735-1.51-2.405-3.625c-.67-2.116.487-5.604.487-5.604Z"/><path fill="#714E4E" d="M43.78 42.622a.603.603 0 0 0-.083-.01l-.254-.018-.97-.065-3.464-.214-.042-.003v.042l-.005 3.38v.021l.015.013.521.446 1.777 1.517.022.02.025-.014 2.309-1.153.02-.01v-.022l.102-2.865.025-.79.004-.206c0-.047 0-.07-.001-.069a.554.554 0 0 0-.008.076l-.013.212-.043.799-.14 2.84.02-.031-2.313 1.142.047.006-1.774-1.52c-.18-.152-.356-.303-.522-.445l.016.034-.005-3.38-.042.039 3.442.173c.416.02.746.034.98.044l.261.01c.06.002.092.002.094.001Z"/><path fill="#714E4E" d="M39.022 42.987c-.001.007.064.02.184.04.12.019.293.042.508.069.43.052 1.025.11 1.684.151.66.04 1.257.056 1.69.058.217 0 .392-.002.513-.006a.78.78 0 0 0 .188-.016.781.781 0 0 0-.188-.02l-.511-.021a78.543 78.543 0 0 1-1.686-.084 74.762 74.762 0 0 1-1.683-.125l-.51-.041a.748.748 0 0 0-.19-.005Z"/><path fill="#A07B77" d="M35.944 37.367c.119-.655 1.806-6.774 2.479-9.205.233-.84.752-1.623 1.6-1.914.401-.138.44-.217.83-.207.05.002.397.225.92.472a4.4 4.4 0 0 0 2.477.375l.557-.077c.671-.063 1.456-.008 2.241 1.013.643.835 3.126 5.219 3.126 5.219s.856.524.893 1.21c.037.687.856 3.18-.818 3.663-1.674.484-2.753-.558-2.753-.558l-.705-1.16c.02.46.072.818.208 1.027.13.2.915 1.767.812 2.893-.068.745-1.22.904-1.22.904s-.168-.351-.826-.456a11.713 11.713 0 0 0-1.339-.149l-1.6-.93-5.657-.495s-1.374-.807-1.225-1.625Z"/><path fill="#714E4E" d="M44.283 32.455c-.02-.015.546.89 1.265 1.96.719 1.068 1.318 1.923 1.339 1.91.02-.014-.548-.89-1.266-1.96-.603-.9-1.278-1.866-1.338-1.91ZM43.535 31.354c.016-.005-.07-.23-.122-.61a3.51 3.51 0 0 1 .111-1.473 3.504 3.504 0 0 1 .722-1.29c.253-.287.448-.427.438-.44a.548.548 0 0 0-.142.09 2.795 2.795 0 0 0-.342.308c-.27.278-.588.732-.76 1.306a3.287 3.287 0 0 0-.089 1.509c.035.191.08.343.116.445a.545.545 0 0 0 .068.155ZM44.147 40.328c0 .01.164-.002.404-.104.238-.1.55-.307.779-.64.228-.331.31-.697.317-.956.01-.26-.039-.417-.048-.415-.015.002.01.16-.015.41a1.966 1.966 0 0 1-.328.911 1.974 1.974 0 0 1-.732.633c-.225.113-.381.147-.377.161ZM42.578 39.447c.004.01.08-.002.185-.067a.762.762 0 0 0 .324-.845c-.035-.119-.084-.179-.093-.173-.013.006.015.074.032.186a.868.868 0 0 1-.044.431.865.865 0 0 1-.255.35c-.088.072-.154.105-.149.118ZM38.049 36.565c-.006 0-.01.044-.012.125-.004.08.004.196.022.339a2.976 2.976 0 0 0 1.095 1.907c.114.088.211.153.282.19.07.039.11.058.113.052.008-.013-.143-.105-.355-.29a3.373 3.373 0 0 1-.693-.845 3.38 3.38 0 0 1-.38-1.024c-.053-.277-.056-.454-.072-.454ZM45.748 34.421c.009 0 .004-.086.03-.238a1.36 1.36 0 0 1 .26-.584 1.22 1.22 0 0 1 .8-.462c.176-.026.367-.016.552.04.186.054.357.164.518.297.163.132.312.278.474.4.16.125.339.225.527.266.38.08.735-.07.932-.276.2-.21.263-.447.277-.601a.882.882 0 0 0-.003-.182c-.007-.04-.012-.062-.015-.061-.008 0 .005.087-.017.239a1.011 1.011 0 0 1-.286.561.965.965 0 0 1-.87.24 1.284 1.284 0 0 1-.492-.254c-.156-.12-.304-.265-.47-.401a1.554 1.554 0 0 0-.55-.31 1.336 1.336 0 0 0-.59-.04 1.267 1.267 0 0 0-.837.506 1.314 1.314 0 0 0-.245.617c-.008.079-.008.14-.005.181.004.04.007.062.01.062Z"/><path fill="#714E4E" d="M44.123 32.38a.444.444 0 0 0 .092-.04c.058-.03.144-.076.248-.144a3.083 3.083 0 0 0 1.134-1.352c.1-.244.172-.526.155-.828-.014-.3-.14-.616-.374-.85a1.033 1.033 0 0 0-.431-.258.73.73 0 0 0-.52.03.46.46 0 0 0-.202.186.473.473 0 0 0-.056.264.632.632 0 0 0 .236.45.881.881 0 0 0 .456.17c.158.016.313 0 .46-.028a2.014 2.014 0 0 0 1.283-.859c.247-.38.312-.752.322-.999a1.872 1.872 0 0 0-.011-.286.398.398 0 0 0-.02-.099c-.01.001.015.138-.004.383a2.03 2.03 0 0 1-.34.967c-.24.358-.678.705-1.246.813-.276.052-.605.055-.847-.13a.543.543 0 0 1-.201-.387.367.367 0 0 1 .208-.366.646.646 0 0 1 .457-.024c.15.044.285.129.395.236.219.216.338.509.354.792.018.285-.047.557-.142.795-.096.238-.221.445-.35.622-.259.355-.537.586-.736.73-.2.143-.324.204-.32.212ZM45.557 38.806c0-.01-.062.002-.162-.026a.66.66 0 0 1-.347-.253.921.921 0 0 1-.161-.614 1.03 1.03 0 0 1 .34-.693 1.145 1.145 0 0 1 1.348-.111c.325.196.435.424.45.41.004-.002-.019-.058-.082-.147a1.235 1.235 0 0 0-.335-.317 1.208 1.208 0 0 0-.656-.197 1.2 1.2 0 0 0-.785.295 1.093 1.093 0 0 0-.362.755.964.964 0 0 0 .193.657c.125.156.28.232.389.249.054.01.098.007.126.004.03-.005.044-.01.044-.012Z"/><path fill="#714E4E" d="M36.635 34.98s.012.007.038.017l.118.044c.106.026.266.066.477.06.21-.002.464-.04.752-.102.289-.06.616-.144.983-.168.364-.024.775.057 1.13.3.352.236.664.63.713 1.108a.958.958 0 0 1-.188.68.698.698 0 0 1-.647.285.652.652 0 0 1-.342-.148.525.525 0 0 1-.175-.326c-.032-.256.11-.528.328-.678.223-.15.516-.166.773-.101.261.063.493.205.69.376.4.345.688.784 1.067 1.11.188.163.396.301.625.376.226.074.467.093.688.036a.917.917 0 0 0 .303-.138c.09-.062.163-.141.232-.215.133-.153.274-.28.449-.335a.954.954 0 0 1 .917.154.92.92 0 0 1 .313.648.983.983 0 0 1-.079.46c-.045.098-.082.144-.078.147 0 0 .042-.041.094-.14a.959.959 0 0 0 .098-.47.952.952 0 0 0-.315-.683c-.227-.2-.605-.3-.97-.175-.398.103-.55.597-.982.676a1.165 1.165 0 0 1-.645-.039 1.774 1.774 0 0 1-.595-.363c-.367-.318-.653-.757-1.064-1.114a1.752 1.752 0 0 0-.726-.396c-.274-.07-.591-.057-.844.113-.244.17-.401.465-.366.763.02.147.094.286.205.381.11.096.249.15.389.168a.748.748 0 0 0 .41-.063.862.862 0 0 0 .315-.257c.164-.213.23-.487.203-.74-.057-.51-.387-.917-.754-1.16A1.853 1.853 0 0 0 39 34.769c-.375.028-.702.118-.99.181-.286.067-.536.11-.742.116-.416.015-.63-.1-.632-.087ZM37.669 30.89c.006.014.13-.12.423-.165.287-.046.741.042 1.148.379.204.168.395.386.597.626.203.238.416.503.704.722.287.208.653.383 1.056.351a.903.903 0 0 0 .555-.239.609.609 0 0 0 .165-.273.427.427 0 0 0-.044-.327.541.541 0 0 0-.572-.234.66.66 0 0 0-.44.414.884.884 0 0 0-.01.583c.057.183.152.346.263.488a1.99 1.99 0 0 0 1.672.758c.547-.041.938-.29 1.16-.486.113-.1.187-.19.236-.252a.612.612 0 0 0 .066-.1c-.007-.008-.097.135-.324.326a1.99 1.99 0 0 1-1.141.45 1.928 1.928 0 0 1-1.604-.746 1.444 1.444 0 0 1-.245-.463.8.8 0 0 1 .009-.526c.064-.167.202-.317.378-.36a.454.454 0 0 1 .476.193c.098.158.026.367-.108.492a.82.82 0 0 1-.5.215c-.37.031-.722-.131-.999-.33-.277-.207-.491-.468-.697-.704a4.736 4.736 0 0 0-.613-.627c-.427-.341-.898-.422-1.193-.363a.891.891 0 0 0-.324.123c-.033.021-.056.042-.072.054-.015.013-.023.02-.022.021ZM38.453 28.001a.777.777 0 0 0 .167.123c.112.073.283.165.506.252.44.176 1.12.305 1.843.154a3.292 3.292 0 0 0 1.626-.882c.169-.17.288-.323.36-.434a.786.786 0 0 0 .104-.18c-.015-.01-.165.246-.508.569-.339.32-.899.692-1.6.84a3.401 3.401 0 0 1-1.804-.126c-.444-.156-.684-.331-.694-.316ZM37.84 40.516s-.058.146-.107.426c-.05.28-.097.688-.126 1.195a23.87 23.87 0 0 0-.032 1.782c.028.668.244 1.39.622 2.062.27.482.596.908.936 1.278.34.37.693.689 1.038.943l.009.006.001.01.244 1.881.065.525c.006.058.01.104.015.14a.21.21 0 0 1 .002.047.24.24 0 0 1-.01-.047l-.022-.137-.077-.524-.263-1.879.01.016a7.327 7.327 0 0 1-1.052-.945 6.79 6.79 0 0 1-.945-1.287c-.381-.68-.6-1.41-.625-2.087-.011-.674.012-1.279.044-1.787a9.53 9.53 0 0 1 .145-1.196 2.77 2.77 0 0 1 .082-.318.814.814 0 0 1 .03-.08.096.096 0 0 1 .016-.024Z"/><path fill="#946F6F" d="M35.388 43.948a.215.215 0 0 1 0-.053l.015-.154c.02-.132.059-.323.123-.553.127-.462.342-1.087.606-1.767a44.866 44.866 0 0 1 .942-2.243l.066-.139a.193.193 0 0 1 .026-.047.194.194 0 0 1-.016.052l-.057.143-.215.523c-.18.441-.431 1.052-.695 1.73-.263.68-.484 1.301-.62 1.758-.069.228-.112.416-.14.546l-.024.151a.215.215 0 0 1-.011.053Z"/></g><path fill="#FBFBFB" d="M36.054 10.312a3.123 3.123 0 1 0-5.749-2.442 3.123 3.123 0 0 0 5.749 2.442Z"/><path fill="#263138" d="M31.274 12.602c-.003 0-.008-.033-.037-.086a.415.415 0 0 0-.346-.213.34.34 0 0 0-.186.054.397.397 0 0 0-.184.385c.027.159.163.275.297.306a.339.339 0 0 0 .194-.009.413.413 0 0 0 .26-.311c.01-.06.005-.093.008-.093 0 0 .003.008.004.024a.15.15 0 0 1 .002.03c0 .012 0 .026-.003.04a.41.41 0 0 1-.113.233.41.41 0 0 1-.15.1.365.365 0 0 1-.209.012.423.423 0 0 1-.32-.328.422.422 0 0 1 .199-.412.36.36 0 0 1 .201-.055.406.406 0 0 1 .175.047.41.41 0 0 1 .181.184c.007.014.012.027.016.038a.17.17 0 0 1 .008.029.099.099 0 0 1 .003.025ZM30.397 13.685c-.002.001-.006-.02-.025-.053a.261.261 0 0 0-.113-.105.22.22 0 0 0-.218.008.246.246 0 0 0-.113.238c.017.097.1.17.182.188a.22.22 0 0 0 .21-.061.262.262 0 0 0 .073-.136c.007-.036.004-.058.007-.058.001 0 .008.021.005.06a.255.255 0 0 1-.071.149.26.26 0 0 1-.097.065.234.234 0 0 1-.133.008.27.27 0 0 1-.206-.21.27.27 0 0 1 .128-.265.233.233 0 0 1 .13-.034.257.257 0 0 1 .226.149c.016.035.017.057.015.057ZM33.262 12.232l.05-.005.15-.013.11-.008c.04-.006.083-.015.13-.023l.152-.028a.522.522 0 0 0 .083-.02l.087-.025a2.99 2.99 0 0 0 .825-.367 3.12 3.12 0 0 0 .868-.817l.097-.138c.03-.049.057-.1.087-.15l.043-.075c.015-.026.03-.052.041-.08l.074-.163.037-.084.03-.087.06-.178c.018-.06.03-.123.045-.185l.021-.094c.004-.016.008-.032.01-.048l.007-.048c.015-.13.038-.261.036-.397 0-.067.006-.135.002-.204l-.015-.206c-.003-.035-.004-.07-.01-.104l-.018-.104c-.013-.07-.023-.14-.04-.21-.04-.136-.072-.279-.132-.413l-.04-.103-.02-.052-.026-.049-.102-.2c-.038-.064-.08-.127-.121-.191-.022-.032-.04-.065-.064-.095l-.071-.09c-.09-.125-.202-.234-.31-.348l-.178-.154-.045-.039-.049-.034-.097-.07-.098-.07-.104-.06-.105-.06-.053-.03c-.018-.01-.037-.017-.055-.026l-.223-.1-.233-.08a3.329 3.329 0 0 0-.99-.136 3.35 3.35 0 0 0-.98.185l-.23.09-.218.112-.054.029-.05.032-.103.066-.101.065-.094.074-.094.074-.047.037-.043.04-.17.164c-.103.12-.21.233-.293.362l-.067.093c-.022.032-.04.066-.059.099-.037.066-.077.13-.111.197l-.093.204-.023.051-.018.053-.036.104c-.053.137-.077.28-.112.42-.012.07-.019.14-.028.21l-.014.105c-.003.035-.003.07-.004.105l-.005.207c0 .068.009.136.013.203.004.136.034.266.055.394l.009.048a8.582 8.582 0 0 1 .04.14c.017.062.031.124.053.184l.068.174.034.086.041.08.082.161c.012.027.029.052.045.077l.047.074c.032.049.061.098.094.145l.104.132c.277.348.6.6.907.773.039.022.076.045.113.065l.114.052.11.05.054.024.054.018.206.07c.066.02.13.032.191.047l.089.021a.484.484 0 0 0 .083.016l.154.02c.047.006.091.014.131.017l.11.003a42.268 42.268 0 0 1 .2.01h-.05l-.15-.003-.11-.002c-.04-.003-.085-.01-.133-.015l-.154-.02a.535.535 0 0 1-.084-.014 6.982 6.982 0 0 0-.089-.02c-.06-.016-.126-.027-.192-.047a59.32 59.32 0 0 0-.207-.07l-.054-.017c-.019-.007-.036-.016-.054-.024l-.11-.05-.116-.051c-.038-.02-.075-.043-.114-.065a3.139 3.139 0 0 1-.915-.774l-.106-.133c-.032-.047-.062-.097-.095-.146l-.048-.074c-.016-.025-.032-.05-.045-.077l-.083-.16c-.014-.028-.029-.055-.042-.083l-.034-.087a24.892 24.892 0 0 1-.07-.175c-.021-.06-.035-.123-.054-.184l-.027-.094c-.004-.016-.01-.031-.013-.047l-.009-.049c-.022-.13-.052-.26-.056-.397-.004-.068-.013-.136-.014-.205l.006-.209c0-.035 0-.07.004-.105l.013-.106c.01-.07.016-.141.029-.212.034-.14.058-.285.112-.424l.035-.105.018-.053.024-.051.093-.207c.034-.067.074-.132.112-.199.02-.032.036-.067.059-.099l.067-.094c.085-.13.191-.246.294-.366l.173-.165.043-.04.047-.038.095-.075.095-.075.102-.066.103-.067.052-.033.054-.028.22-.113.231-.091c.314-.11.65-.174.991-.187.342-.004.68.043.999.138l.235.08.225.102.056.025.053.031.106.06.105.062.099.07.098.07.05.035.044.04.18.155c.11.115.222.225.313.35l.072.091c.024.03.042.064.064.096.04.065.084.128.122.194l.103.201.025.05c.008.017.014.035.021.052l.04.103c.061.136.093.28.134.418.016.07.026.141.04.21.005.036.012.07.018.106.005.034.006.07.01.105l.015.208c.003.069-.002.137-.003.205.002.136-.022.269-.037.4l-.006.048-.011.048-.022.095c-.015.063-.027.126-.046.187l-.06.178-.03.088c-.012.029-.025.056-.038.084l-.074.166a.624.624 0 0 1-.042.079l-.044.076c-.03.05-.057.102-.087.15l-.099.138a3.137 3.137 0 0 1-1.706 1.183l-.088.025a.523.523 0 0 1-.083.019l-.153.027c-.048.007-.091.017-.131.02-.04.004-.077.006-.11.008l-.15.01c-.034.004-.051.004-.051.004Z"/><path fill="#BF9892" d="M33.427 9.069a.699.699 0 0 0 .416-.646c.002-.386-.29-.7-.652-.702-.361-.002-.656.31-.658.695a.697.697 0 0 0 .418.652c-1.008.152-.962 1.248-.962 1.248l2.383.011s.054-1.107-.945-1.258Z"/><path fill="#BF9892" d="M34.662 8.384a.349.349 0 0 0 .208-.323c.001-.193-.145-.35-.326-.35-.181-.002-.328.154-.329.347a.35.35 0 0 0 .209.326c-.504.076-.481.624-.481.624l1.191.005s.028-.553-.472-.629ZM31.882 8.448a.348.348 0 0 0 .208-.323c0-.193-.146-.35-.326-.35-.181-.002-.328.154-.33.347a.35.35 0 0 0 .21.326c-.504.076-.482.624-.482.624l1.192.005s.027-.553-.472-.629Z"/><path fill="#533A3A" d="m30.604 7.329-.088.136 5.269 3.403.088-.136-5.27-3.403Z"/><path fill="#C8A399" d="M24.942 17.154c-.253.045-.818.261-1.03.6-.188.302-.287.717-.14.958.125.206 1.033-.049 1.416-.109.177-.028.612.172.67-.04l.107-.755c.014-.353-.227-.509-.477-.607-.17-.067-.359-.08-.546-.047Z"/><path fill="#44393A" d="M25.627 18.498c-.002.027-.295-.011-.742.09-.11.024-.232.057-.354.102-.124.046-.262.112-.443.126a.445.445 0 0 1-.28-.073.428.428 0 0 1-.161-.22.692.692 0 0 1 .038-.505c.072-.16.18-.292.294-.412.116-.118.246-.22.386-.295.276-.155.575-.216.82-.21.248.005.438.068.556.126.119.057.172.104.167.11-.008.012-.074-.017-.195-.054-.12-.038-.302-.13-.527-.119-.223.007-.549.073-.794.22a1.722 1.722 0 0 0-.367.283 1.524 1.524 0 0 0-.268.393.778.778 0 0 0-.016.48c.04.126.215.216.343.209.132-.006.261-.136.393-.18.135-.043.263-.07.381-.09.478-.077.776.004.77.019Z"/><path fill="#C8A399" d="M25.66 18.878c-.017.01-.176-.302-.365-.678Z"/><path fill="#FAD6C8" d="m26.511 21.933.085-.48.774-2.043a.606.606 0 0 0 .022-.36l-.308-1.246a.75.75 0 0 0-.572-.555c-.432-.091-1.029-.185-1.16-.043-.21.23-.133.383-.133.383s-.555.134-.555.42c0 0-.44.23-.402.402.038.172.191.727.364.689.172-.038.221-.134.221-.134l.104.364-.104.593s-.375 1.262-.298 1.606c.076.345.298.843.298.843"/><path fill="#C8A399" d="M24.847 22.371a.178.178 0 0 1-.021-.04 5.544 5.544 0 0 1-.236-.598c-.032-.104-.076-.225-.068-.363.004-.135.026-.28.053-.433.056-.306.14-.649.247-1.022v.003l.1-.594v.013l-.104-.363.055.005a.333.333 0 0 1-.17.129c-.035.01-.06.025-.111.022a.181.181 0 0 1-.1-.063 1.179 1.179 0 0 1-.186-.38 3.163 3.163 0 0 1-.06-.206l-.013-.053a.162.162 0 0 1-.002-.066c.008-.045.033-.078.055-.11.102-.117.23-.197.362-.271l-.017.029c.004-.143.116-.244.223-.307.11-.066.23-.112.356-.146l-.021.047a.304.304 0 0 1 .012-.228.656.656 0 0 1 .122-.187c.075-.073.17-.078.251-.086.085-.005.167-.001.25.005a6.077 6.077 0 0 1 .712.115.778.778 0 0 1 .533.444c.032.071.049.148.066.218l.052.213.102.414.096.398c.015.066.034.126.045.195a.62.62 0 0 1-.004.201c-.01.066-.036.127-.058.184l-.066.17-.125.327-.227.589-.344.882v-.002l-.068.355-.02.093c-.005.02-.007.03-.009.03l.003-.032.013-.093.056-.358.001-.002.328-.888.22-.59.123-.328.064-.172c.022-.058.045-.114.054-.174a.579.579 0 0 0 .002-.183c-.01-.06-.03-.126-.044-.19l-.1-.397-.103-.414-.053-.213c-.018-.072-.033-.142-.063-.207a.717.717 0 0 0-.285-.323c-.125-.08-.28-.1-.436-.13a4.957 4.957 0 0 0-.472-.066 1.791 1.791 0 0 0-.24-.004c-.077.005-.162.018-.207.065a.598.598 0 0 0-.11.167.249.249 0 0 0-.015.173l.015.037-.036.01a1.315 1.315 0 0 0-.338.137c-.102.06-.19.149-.192.251v.02l-.017.009c-.127.07-.254.15-.343.253a.194.194 0 0 0-.042.082c-.006.022.005.057.013.092.017.068.037.136.058.201.044.13.092.264.171.36.02.024.044.037.065.044a.222.222 0 0 0 .081-.019.28.28 0 0 0 .139-.1l.037-.057.017.063.103.363.002.006-.001.007-.106.592v.002h-.001c-.108.371-.196.713-.256 1.016a3.122 3.122 0 0 0-.058.427c-.01.13.03.247.06.353.063.21.125.37.166.48l.048.123a.153.153 0 0 1 .017.044Z"/><path fill="#C8A399" d="M24.716 18.541c.018-.003.052.113.098.253.045.14.087.253.07.262-.016.008-.086-.096-.133-.241-.047-.146-.052-.271-.035-.274ZM26.406 18.895c-.02.004-.049-.472-.29-.994-.057-.13-.132-.243-.243-.278a.705.705 0 0 0-.316-.013c-.187.03-.31.015-.308.003.002-.007.115-.007.3-.05.093-.016.212-.038.343.002.065.02.127.063.173.12a.84.84 0 0 1 .11.188c.122.266.187.525.215.713.028.19.024.308.016.309ZM26.54 17.259c-.001-.008.1.005.188.124.088.117.143.302.207.5.123.402.17.74.154.743-.019.004-.095-.326-.217-.724-.063-.198-.112-.383-.182-.493-.069-.113-.154-.14-.15-.15ZM26.433 19.93c-.008-.017.136-.084.234-.242.101-.156.1-.315.12-.315.008 0 .02.039.017.106a.524.524 0 0 1-.268.422c-.059.032-.1.037-.103.03ZM25.525 19.896c-.002-.02.128-.042.23-.156.107-.11.122-.241.14-.24.008 0 .018.035.008.09a.39.39 0 0 1-.1.195.388.388 0 0 1-.187.113c-.055.013-.09.006-.09-.002ZM25.603 19.032c-.016.004-.038-.372-.223-.784-.043-.103-.101-.193-.188-.22a.523.523 0 0 0-.242-.01c-.144.024-.239.011-.237.002.001-.005.088-.006.231-.04.071-.012.163-.03.263.002.05.016.098.05.133.095a.65.65 0 0 1 .085.149c.094.21.144.414.165.563.022.15.02.243.013.243Z"/><path fill="#C8A399" d="M23.936 14.959a.438.438 0 0 1-.414.45.419.419 0 0 1-.459-.386.439.439 0 0 1 .414-.451.419.419 0 0 1 .459.387Z" opacity=".62"/><path fill="#3C2621" d="M23.82 14.987a.374.374 0 0 1-.353.384.357.357 0 0 1-.391-.33.374.374 0 0 1 .352-.384.358.358 0 0 1 .392.33Z"/><path fill="#fff" d="M23.429 15.171a.157.157 0 1 0 0-.315.157.157 0 0 0 0 .315Z"/><path fill="#C8A399" d="M26.976 14.8a.438.438 0 0 1-.414.451.419.419 0 0 1-.459-.386.439.439 0 0 1 .413-.45.42.42 0 0 1 .46.386Z" opacity=".62"/><path fill="#3C2621" d="M26.862 14.806c.01.2-.15.374-.358.389a.362.362 0 0 1-.397-.334.379.379 0 0 1 .357-.39.362.362 0 0 1 .398.335Z"/><path fill="#fff" d="M26.382 15.014a.157.157 0 1 0 0-.315.157.157 0 0 0 0 .315Z"/></g></g><defs><clipPath id="a"><rect width="48" height="48" fill="#fff" rx="24"/></clipPath><clipPath id="b"><path fill="#fff" d="M0 0h48v48H0z"/></clipPath></defs></svg>