<svg width="48" height="48" fill="none" xmlns="http://www.w3.org/2000/svg"><g clip-path="url(#a)"><rect width="48" height="48" rx="24" fill="#fff"/><g clip-path="url(#b)"><path opacity=".26" d="M49.179 36.204H-2.226v12.871H49.18V36.204Z" fill="#B1B5DB"/><g opacity=".39" fill="#B1B5DB"><path d="M40.574 33.518h-4.332v1.145h4.332v-1.145ZM38.743 35.871l-.001-.02-.002-.06-.003-.225-.007-.84.013.013-4.332.008.022-.022v1.146l-.022-.022 3.087.01.911.006a40.672 40.672 0 0 0 .31.004l.024.002-.02.001-.062.002-.242.002-.906.007c-.778.002-1.863.005-3.102.01h-.022V34.724l.022-.022 4.331.008h.014v.013l-.008.85-.003.222a5.376 5.376 0 0 1-.002.075Z"/></g><g opacity=".39" fill="#B1B5DB"><path d="M24.255 22.326h-4.332v1.146h4.332v-1.146ZM24.175 34.318h-4.332v1.146h4.332v-1.146ZM43.522 17.496H39.19v1.146h4.332v-1.146ZM9.926 17.03H5.594v1.146h4.332V17.03ZM22.423 24.68l-.002-.022-.001-.059-.003-.225-.008-.84.014.013-4.332.008.022-.022v1.146l-.022-.022 3.087.01.91.006a68.783 68.783 0 0 0 .311.004l.024.002-.02.001-.062.002-.242.002-.906.007c-.778.002-1.863.005-3.102.01h-.022V23.532l.022-.022 4.331.008h.014v.013l-.008.85-.003.222a5.347 5.347 0 0 1-.002.075Z"/></g><g opacity=".39" fill="#B1B5DB"><path d="M34.39 13.173h-4.332v1.146h4.332v-1.146ZM32.557 15.526l-.001-.021-.001-.059-.003-.225-.008-.841.013.013-4.331.009.022-.022v1.145l-.023-.021 3.087.01.912.006a48.546 48.546 0 0 0 .31.004c.015 0 .023.001.023.002l-.02.001-.061.002-.242.002-.906.006-3.103.01h-.021V14.38c.043-.044.012-.013.021-.023l4.332.009h.013v.013l-.007.849-.003.223-.002.056v.019Z"/></g><g opacity=".39" fill="#B1B5DB"><path d="m42.45 9.816-.001-.02-.002-.06-.003-.224-.007-.841.013.013-4.332.008.022-.022v1.146l-.022-.022 3.087.01.911.006a51.637 51.637 0 0 0 .31.004l.024.002-.02.002-.062.001-.242.003-.906.006-3.102.01h-.022V8.67l.022-.023 4.331.008h.014v.014l-.008.849-.003.222a3.566 3.566 0 0 1-.002.075Z"/><path d="m43.037 8.67-.002-.021c0-.017 0-.037-.002-.061l-.004-.23-.008-.834.016.016-2.603.007a.385.385 0 0 1 .022-.022V8.672l-.022-.021 1.862.01.542.005a16.05 16.05 0 0 1 .199.006l-.047.002-.142.003-.538.006-1.876.01h-.02V8.67l-.002-.555v-.59a.71.71 0 0 1 .023-.023l2.602.006h.016v.016l-.008.844-.004.226c-.002.051-.003.078-.004.077Z"/></g><g opacity=".39" fill="#B1B5DB"><path d="m10.879 7.924-.002-.021-.001-.059-.003-.225-.008-.841.014.013-4.332.009.022-.023v1.146l-.022-.022 3.087.01.91.006a52.855 52.855 0 0 0 .311.004l.024.003h-.02l-.062.002-.242.003-.906.006-3.102.01h-.022V6.778l.022-.023 4.331.009h.014v.013l-.008.849-.003.222-.002.057v.019Z"/><path d="m11.466 6.777-.002-.021-.002-.061-.004-.23-.008-.834.016.016-2.603.006a.375.375 0 0 1 .022-.021V6.222l-.001.555-.021-.02c.752.003 1.398.007 1.862.01l.542.005a16.086 16.086 0 0 1 .199.005 15.154 15.154 0 0 0-.189.005l-.538.006-1.876.01h-.02v-.021L8.84 6.22v-.589l.022-.023 2.603.006h.016v.016l-.008.843-.004.226c-.002.052-.003.079-.004.077Z"/></g><path d="M24.543 38.788a.22.22 0 0 1 0 .046c-.004.035-.007.08-.011.137l-.046.522-.001.013h-.636l.018-.022.102.716.003.022-.022.003-.624.078.02-.032c.063.193.13.395.19.612l.011.041c.003.017.008.022.007.053l-.001.004a.03.03 0 0 1-.018.018l-.017.001.001.001c.003 0-.002 0-.004.002l-.02.005-.039.012-.162.057-.33.124.014-.04.34.56.012.023-.02.016c-.163.12-.335.25-.51.38l.005-.04.392.521.015.02-.018.018v.001l-.384.39-.003-.043.47.364-.047.027a4.658 4.658 0 0 1 .125-1.906 4.805 4.805 0 0 1 1.287-2.17c.085-.082.155-.142.203-.182l.055-.044c.012-.01.02-.014.02-.013a.735.735 0 0 1-.068.065 4.95 4.95 0 0 0-.83.974 4.84 4.84 0 0 0-.618 1.383 4.639 4.639 0 0 0-.116 1.885l.01.07-.056-.043-.471-.364-.026-.02.023-.023.384-.39v-.002l-.002.038-.391-.522-.018-.024.024-.017.51-.38-.007.038-.338-.562-.017-.029.03-.011.333-.124.164-.056.042-.013.022-.006.015-.003.012.001h.004c-.015.047-.004.013-.008.023h-.004a.058.058 0 0 0-.01-.003c-.019-.004-.008.003-.01 0l-.001-.005-.002-.008-.004-.02-.01-.04c-.058-.214-.124-.418-.185-.61l-.01-.029.03-.003.625-.074-.019.025-.095-.716-.002-.021h.021l.623.01-.014.012a587.753 587.753 0 0 1 .077-.657.165.165 0 0 1 .006-.044Z" fill="#5C617C"/><path d="M24.543 38.788c.004.003-.051.052-.147.144a6.446 6.446 0 0 0-.895 1.063c-.171.261-.342.562-.464.9a4.687 4.687 0 0 0-.227.988 6.625 6.625 0 0 0-.034 1.39c.01.133.018.206.013.207a.177.177 0 0 1-.012-.052c-.006-.035-.016-.085-.023-.152a6.092 6.092 0 0 1 .004-1.4c.037-.312.1-.656.224-1 .125-.345.299-.649.475-.91a5.633 5.633 0 0 1 .924-1.05c.05-.045.091-.076.118-.098.028-.022.043-.032.044-.03Z" fill="#5C617C"/><path d="M24.316 38.538c.003.004-.057.054-.163.146a4.887 4.887 0 0 0-1.405 2.092 5.018 5.018 0 0 0-.269 1.925c.014.25.042.452.065.59.024.139.04.215.034.217a.22.22 0 0 1-.018-.054c-.008-.036-.024-.089-.038-.158a4.325 4.325 0 0 1-.085-.592 4.824 4.824 0 0 1 .255-1.946 4.714 4.714 0 0 1 1.007-1.685c.174-.184.328-.318.439-.406.054-.045.1-.075.13-.098a.24.24 0 0 1 .048-.03Z" fill="#5C617C"/><path d="M26.304 41.242c0 .016-.067.025-.147.02-.08-.005-.144-.023-.143-.038 0-.016.066-.026.147-.02.08.004.145.022.143.038ZM21.47 8.114l-1.326-1.372-.33 2.17-1.775-.06 1.111 1.46-1.118 1.466 1.851-.365.268 1.863 1.497-1.134 1.887.988-.413-1.906 2.14-.338-1.664-.982.97-1.675-1.664.651-.202-2.065-1.233 1.3Z" fill="#fff"/><path d="m21.47 8.114.08-.09.237-.253.905-.966.021-.022.003.03.208 2.065-.026-.017 1.663-.653.06-.024-.032.057-.968 1.675-.01-.035c.53.313 1.088.64 1.666.982l.067.039-.076.012-2.141.338.024-.035.414 1.907.013.061-.056-.029-1.636-.856-.252-.132.032-.003-1.497 1.134-.04.03-.007-.05-.266-1.863.034.024-1.852.364-.071.014.044-.057 1.119-1.466v.03l-1.109-1.46-.03-.039.05.002 1.775.063-.02.017.334-2.169.005-.028.02.02.976 1.023.253.266.085.094-.086-.085-.255-.26-.994-1.017.024-.008-.323 2.172-.003.017h-.018l-1.775-.057.02-.037 1.112 1.457.012.016-.012.015-1.116 1.468-.027-.044 1.85-.366.03-.006.005.03.268 1.863-.047-.02 1.496-1.134.015-.011.017.009.253.132 1.634.856-.042.032-.413-1.907-.006-.03.03-.005 2.141-.335-.01.05-1.664-.984-.022-.013.013-.022.973-1.673.029.033-1.666.648-.024.01-.003-.027-.196-2.065.024.008-.923.96-.239.248a4.139 4.139 0 0 1-.081.082Z" fill="#6B708F"/><path d="M18.737 13.276a.396.396 0 1 1-.79 0 .396.396 0 0 1 .79 0Z" fill="#fff"/><path d="M18.737 13.276c-.005 0-.006-.036-.024-.094a.395.395 0 0 0-.145-.204.372.372 0 0 0-.592.298.372.372 0 0 0 .592.297.393.393 0 0 0 .145-.204c.018-.058.019-.093.024-.093.003 0 .01.035-.001.1a.394.394 0 0 1-.142.231.414.414 0 0 1-.397.066.424.424 0 0 1-.281-.397.424.424 0 0 1 .281-.397.415.415 0 0 1 .397.066c.093.075.13.17.142.232.012.063.004.099 0 .099ZM21.666 8.966l-.08 1.265a.205.205 0 0 1-.41.01l-.14-1.272a.16.16 0 0 1 .162-.179l.31.005c.091.001.164.079.158.17ZM21.058 11.135a.31.31 0 1 0 .587-.195.31.31 0 0 0-.587.195Z" fill="#6B708F"/><path d="M34.62 43.458c.395-.175.816-.48.76-.87-.052-.354-.47-.56-.849-.674a7.058 7.058 0 0 0-1.407-.274c-.122-.011-.248-.02-.356-.072-.108-.052-.193-.16-.168-.267.035-.148.244-.21.319-.345.07-.128-.003-.29-.127-.38-.125-.088-.287-.122-.444-.15-1.249-.22-2.544-.23-3.797-.028-.238.038-.505.106-.61.3-.093.17-.021.372.05.55a2.386 2.386 0 0 1-1.14-.18l-1.364.492c.312.12.516.435.478.737-.038.302-.314.568-.649.623-.162.028-.336.01-.49.065-.153.056-.27.236-.17.352.084.095.248.085.362.149.191.107.157.384-.003.526-.16.142-.394.189-.61.245-.218.056-.448.141-.553.32-.116.2-.027.458.15.619.178.16.424.241.667.301.522.13 1.067.184 1.608.161.224-.01.46-.03.664.052.205.082.355.315.242.488-.107.166-.386.195-.483.366-.122.212.126.443.36.56 1.022.507 2.288.503 3.408.2.203-.055.41-.123.564-.253.155-.13.245-.339.168-.516-.053-.121-.177-.219-.188-.349-.01-.135.113-.254.255-.303.14-.048.297-.042.448-.039a8.394 8.394 0 0 0 1.943-.19c.346-.076.707-.185.934-.432.227-.246.25-.668-.042-.853-.144-.091-.346-.118-.442-.25-.096-.131-.04-.314.076-.43.116-.116.28-.182.436-.251Z" fill="#fff"/><path d="M35.761 45.211c.287.292.477.677.537 1.082-.377-.09-.865-.312-1.126-.6a1.946 1.946 0 0 1-.482-1.04c.404.068.784.266 1.071.558Z" fill="#818594"/><path d="M35.892 45.843a3.402 3.402 0 0 0-.145-.199 4.789 4.789 0 0 0-1-.933.369.369 0 0 0-.056-.035.38.38 0 0 0 .051.042l.143.11a5.946 5.946 0 0 1 1.007 1.015Z" fill="#5C617C"/><path d="M34.12 45.416c.174.313.245.681.202 1.036-.297-.163-.657-.463-.81-.765a1.702 1.702 0 0 1-.166-.988c.324.15.6.405.774.717Z" fill="#818594"/><path d="M34.084 45.979a2.749 2.749 0 0 0-.077-.201 4.183 4.183 0 0 0-.626-1.018.288.288 0 0 0-.04-.042l.034.047a5.26 5.26 0 0 1 .38.558 5.317 5.317 0 0 1 .304.603.316.316 0 0 0 .025.053Z" fill="#5C617C"/><path d="M34.704 44.27c.264-.241.45-.567.52-.918-.333.06-.77.23-1.01.469-.242.239-.408.551-.472.884.356-.04.698-.194.962-.435Z" fill="#818594"/><path d="M34.848 43.725a2.777 2.777 0 0 1-.137.167 4.234 4.234 0 0 1-.783.681 2.705 2.705 0 0 1-.184.112c0-.001.016-.013.047-.034l.13-.09a5.23 5.23 0 0 0 .887-.795c.025-.026.04-.042.04-.04Z" fill="#5C617C"/><path d="M36.181 43.967c.188-.295.28-.65.259-.998-.3.141-.669.412-.835.698a1.662 1.662 0 0 0-.22.954c.325-.127.608-.36.796-.654Z" fill="#818594"/><path d="m36.18 43.416-.021.053a4.095 4.095 0 0 1-.737 1.094.338.338 0 0 1-.041.04c-.001-.002.011-.017.035-.045.025-.027.058-.067.1-.117a4.98 4.98 0 0 0 .636-.976.313.313 0 0 1 .028-.049Z" fill="#5C617C"/><path d="M30.36 44.154s.006 0 .016.003l.047.013.177.053.127.038.153.041c.11.03.235.065.375.095l.219.051c.076.017.156.031.238.047.165.036.343.061.53.091.374.053.789.094 1.225.11.437.013.853 0 1.23-.031.188-.02.367-.035.534-.062l.24-.035.221-.042c.142-.023.267-.056.378-.08l.154-.037.129-.035.178-.049a27.771 27.771 0 0 0 .062-.015l-.015.006a2.235 2.235 0 0 0-.046.015l-.176.053-.129.038-.154.038c-.11.027-.236.06-.377.085l-.221.043c-.077.014-.158.024-.241.037-.166.028-.346.044-.535.065-.378.03-.795.046-1.233.034a11.696 11.696 0 0 1-1.228-.113c-.187-.03-.365-.057-.53-.093-.083-.017-.163-.032-.24-.05l-.218-.052c-.14-.032-.264-.069-.374-.099l-.153-.043a16.64 16.64 0 0 1-.127-.04l-.176-.058-.045-.016a.086.086 0 0 1-.015-.006ZM38.345 43.118c.116-.006.25.01.317.104.062.088.038.215-.028.3a.77.77 0 0 1-.258.19.972.972 0 0 1 .707.04c.073.033.152.095.142.175-.006.056-.055.097-.102.13a2.466 2.466 0 0 1-.598.313c.1.046.205.094.274.18.069.087.088.223.013.304a.327.327 0 0 1-.16.08c-.376.1-.776.107-1.154.019-.2-.047-.404-.125-.54-.28-.137-.154-.267-.379-.15-.548l-.024.052c.274-.601.9-1.026 1.561-1.059Z" fill="#5C617C"/><path d="m36.767 44.291.018-.003.051-.012c.023-.005.05-.012.082-.017.032-.007.068-.015.108-.021a2.12 2.12 0 0 1 .133-.02c.047-.007.098-.011.152-.016a2.973 2.973 0 0 1 .7.032c.053.01.104.018.15.03.048.01.09.022.13.033.04.01.075.023.106.032a1.3 1.3 0 0 1 .079.027l.05.017.017.005-.016-.008a1.108 1.108 0 0 0-.127-.05c-.03-.01-.066-.023-.105-.034a1.8 1.8 0 0 0-.13-.035c-.047-.013-.097-.022-.15-.032a2.824 2.824 0 0 0-.352-.04 2.859 2.859 0 0 0-.353.008 2.405 2.405 0 0 0-.286.04c-.04.006-.077.016-.108.023a1.5 1.5 0 0 0-.081.02c-.021.006-.038.01-.051.015a.082.082 0 0 0-.017.006Z" fill="#5C617C"/><path d="m37.582 44.192.036-.015.093-.046a5.194 5.194 0 0 0 .675-.416.187.187 0 0 0 .03-.025c-.001 0-.013.006-.034.02l-.087.057a10.045 10.045 0 0 1-.59.354l-.09.051a.196.196 0 0 0-.033.02Z" fill="#5C617C"/><path d="M38.525 44.37s-.433-.347-.895-.184c0 0 .523.011.895.184Z" fill="#040000" opacity=".3"/><path d="m29.047 43.912.058.104.574.128-.336.953.185.142.823-.032-.347.437.185.102.647-.13.1-.316-.646-.607s-.377-.887-.392-.893c-.016-.007-.492-.038-.492-.038l-.36.15Z" fill="#EC6E5C"/><path d="m29.047 43.912.058.104.574.128-.336.953.185.142.823-.032-.347.437.185.102.647-.13.1-.316-.646-.607s-.377-.887-.392-.893c-.016-.007-.492-.038-.492-.038l-.36.15Z" fill="#2D3243"/><path d="m29.046 43.593 1.117-1.663s2.394.807 2.347 3.646l-1.869.319.137-.41-.775.159.274-.592-.935.045.365-1.184h-.661v-.32Z" fill="#D6DAED"/><path d="m26.502 43.334-.092-.383-.416-.404.62-.472v-.222l-.485-.518H26.69v-.31l.292-.023-.674-.404-.619.551-.315.315s.528.585.528.62c0 .033-.176.32-.172.357.004.036-.153.25-.153.25l.033.202.891.44Z" fill="#EC6E5C"/><path d="m26.502 43.334-.092-.383-.416-.404.62-.472v-.222l-.485-.518H26.69v-.31l.292-.023-.674-.404-.619.551-.315.315s.528.585.528.62c0 .033-.176.32-.172.357.004.036-.153.25-.153.25l.033.202.891.44Z" fill="#2D3243"/><path d="M20.69 39.855s.623-1.758 2.328-1.783a2.03 2.03 0 0 1 1.4.555l2.565 2.375-.482-.148.037.482h-.666l.74.74-.777.592.666.666s-1.205-.039-2.257 0c-1.099.04-2.332.444-3.11-.296-.776-.74-.922-2.015-.443-3.183Z" fill="#D6DAED"/><path d="M25.084 39.243c.003.004-.042.049-.124.132a4.979 4.979 0 0 0-1.125 1.767 5.063 5.063 0 0 0-.317 1.58c-.007.207-.003.376.002.492.006.116.01.18.005.18-.002.001-.005-.015-.01-.045-.004-.03-.012-.075-.017-.133a4.19 4.19 0 0 1-.021-.495c.005-.417.075-1 .303-1.6.223-.6.546-1.091.82-1.406a4.08 4.08 0 0 1 .344-.357c.043-.04.078-.068.102-.088a.157.157 0 0 1 .038-.027Z" fill="#5C617C"/><path d="M25.977 42.386c.009.014-.025.05-.075.08-.05.03-.098.043-.106.03-.008-.015.026-.05.076-.08s.097-.044.105-.03Z" fill="#fff"/><path opacity=".3" d="M30.255 42.106s-.482 2.111 2.16 3.378c0 0 .012-2.22-2.16-3.378Z" fill="#040000"/><path d="m32.415 45.41-.01-.083a3.772 3.772 0 0 0-.038-.234 4.84 4.84 0 0 0-.245-.836 5.633 5.633 0 0 0-.247-.55c-.1-.192-.22-.39-.375-.577a3.727 3.727 0 0 0-1.238-.967l.04-.02-.01.065a2.16 2.16 0 0 0 .033.823c.058.261.156.504.27.723.227.44.495.803.766 1.06.27.26.534.417.722.51.093.047.168.08.22.102a.462.462 0 0 1 .076.035 2.256 2.256 0 0 1-.306-.117 2.791 2.791 0 0 1-.74-.5 3.989 3.989 0 0 1-.786-1.065 3.05 3.05 0 0 1-.278-.736 2.212 2.212 0 0 1-.024-.911l.005-.039.035.017c.518.25.943.604 1.257.986.156.192.277.394.376.59.098.195.177.383.242.557.13.348.197.642.23.846.015.102.023.183.026.237a.38.38 0 0 1 0 .083Z" fill="#5C617C"/><path d="M31.69 45.487a.726.726 0 0 1-.133-.07 1.336 1.336 0 0 1-.148-.096c-.055-.04-.12-.082-.186-.14a2.584 2.584 0 0 1-.21-.188c-.077-.068-.147-.15-.224-.236a3.822 3.822 0 0 1-.418-.615 3.805 3.805 0 0 1-.278-.69c-.029-.11-.058-.215-.073-.316-.02-.1-.03-.194-.038-.28-.012-.086-.01-.164-.013-.233a1.3 1.3 0 0 1 .003-.175.76.76 0 0 1 .016-.15c.012.001-.005.214.035.553.01.085.023.178.046.276.016.099.047.201.076.31.067.215.157.447.279.678.124.228.265.432.407.608.074.084.143.167.215.236.07.073.14.135.204.19.26.223.446.327.44.338Z" fill="#5C617C"/><path d="M29.624 42.882c.014.007-.051.183-.18.376s-.267.321-.278.31c-.012-.011.104-.154.229-.343.126-.188.214-.35.23-.343ZM29.515 44.842c-.015-.005.008-.105.05-.221.043-.117.09-.207.104-.202.015.006-.007.105-.05.222-.041.116-.088.206-.104.201ZM30.235 45.432c-.014-.008-.008-.04.012-.071.02-.03.048-.048.062-.04.013.01.008.042-.013.072-.02.03-.048.048-.061.04ZM30.506 43.818c-.006.004-.07-.067-.148-.2a2.044 2.044 0 0 1-.275-1.155c.01-.154.035-.246.042-.245.02 0-.044.38.067.83.104.45.33.76.314.77Z" fill="#fff"/><path d="M27.565 44.168v.338s-.417 1.02-.438 1.026c-.02.007-.71-.133-.71-.133l-.026-.197 1.174-1.034Z" fill="#EC6E5C"/><path d="M27.565 44.168v.338s-.417 1.02-.438 1.026c-.02.007-.71-.133-.71-.133l-.026-.197 1.174-1.034Z" fill="#2D3243"/><path d="M27.087 43.729c-.064.051-.825.503-.812.542.013.039.116.93.116.93s.67.206.697.154c.025-.051.477-1.188.477-1.188l-.478-.438Z" fill="#D6DAED"/><path d="M26.983 42.384v.448l.094.371 1.617.077.036-.129-1.747-.767Z" fill="#EC6E5C"/><path d="M26.983 42.384v.448l.094.371 1.617.077.036-.129-1.747-.767Z" fill="#2D3243"/><path d="m26.983 42.384.09.545 1.657.223-.723-1.046-1.024.278Z" fill="#D6DAED"/><path d="m28.334 41.56.032.16.633.386.725-.026.275-.48-.918-.14-.747.1Z" fill="#EC6E5C"/><path d="m28.334 41.56.032.16.633.386.725-.026.275-.48-.918-.14-.747.1Z" fill="#2D3243"/><path d="m29.354 40.915-1.02.646.607.374h.735L30 41.6l-.645-.685Z" fill="#D6DAED"/><path d="M33.65 42.844c.269.044.522.176.712.371-.238.1-.587.171-.84.119a1.25 1.25 0 0 1-.658-.359 1.28 1.28 0 0 1 .786-.131Z" fill="#818594"/><path d="M33.968 43.132a2.25 2.25 0 0 0-.156-.05 3.229 3.229 0 0 0-.904-.111.31.31 0 0 0-.044.003s.016.002.044.002l.12.004a3.941 3.941 0 0 1 .94.152Z" fill="#5C617C"/><path d="M34.383 41.91c.268.045.522.177.712.372-.238.1-.587.17-.84.118a1.296 1.296 0 0 1-.667-.37c.243-.122.526-.165.795-.12Z" fill="#818594"/><path d="M34.7 42.199a2.25 2.25 0 0 0-.156-.05 3.229 3.229 0 0 0-.903-.111.31.31 0 0 0-.044.003s.015.002.044.002l.12.004a3.95 3.95 0 0 1 .78.11l.116.03a.219.219 0 0 0 .043.012Z" fill="#5C617C"/><path d="M33.99 40.947a1.307 1.307 0 0 0-.406-.694c-.088.243-.142.596-.077.846.065.25.208.479.403.648.11-.25.139-.534.08-.8Z" fill="#818594"/><path d="m33.687 40.644.017.04a3.136 3.136 0 0 1 .193 1.054l-.004-.044a3.904 3.904 0 0 0-.206-1.05Z" fill="#5C617C"/><path d="M33.206 41.808a1.307 1.307 0 0 0-.406-.694c-.088.243-.142.595-.077.846.065.25.208.479.403.648a1.31 1.31 0 0 0 .08-.8Z" fill="#818594"/><path d="m32.903 41.505.017.04a3.136 3.136 0 0 1 .193 1.054l-.004-.044a3.875 3.875 0 0 0-.206-1.05Z" fill="#5C617C"/><path d="m32.537 43.72.01-.033.032-.09.023-.065.03-.076c.024-.054.048-.117.081-.184l.05-.105.059-.112c.04-.078.089-.157.14-.242.104-.166.228-.343.374-.517.147-.174.299-.328.444-.46.075-.064.144-.126.214-.179.035-.026.067-.053.1-.077l.095-.067c.06-.045.117-.08.167-.112l.07-.044c.02-.012.04-.024.06-.034l.082-.047.03-.015-.027.019-.082.05-.059.036-.068.045c-.05.033-.106.069-.165.114l-.094.068-.099.078c-.07.053-.138.116-.212.18a5.074 5.074 0 0 0-.442.458c-.144.174-.268.35-.374.515-.05.084-.1.163-.14.24l-.06.111-.05.105c-.034.065-.06.128-.083.181l-.032.075-.025.065-.035.089-.014.03Z" fill="#5C617C"/><path d="M34.805 40.859c.236-.135.516-.193.787-.162-.122.227-.348.504-.577.623-.23.118-.495.166-.751.133.112-.248.304-.46.54-.594Z" fill="#818594"/><path d="M35.233 40.882s-.015.004-.041.015a3.19 3.19 0 0 0-.881.53.21.21 0 0 0-.033.03 6.215 6.215 0 0 1 .13-.099 3.928 3.928 0 0 1 .825-.476ZM36.281 40.842c.078-.049.175-.09.258-.05.076.036.108.132.096.216a.604.604 0 0 1-.104.23c.127-.141.31-.23.499-.245.063-.005.14.007.164.065.018.042 0 .089-.02.13-.075.16-.173.31-.29.443a.555.555 0 0 1 .258.019c.08.033.145.119.125.203a.256.256 0 0 1-.08.116c-.218.213-.49.37-.783.456-.155.045-.325.069-.478.016-.153-.054-.328-.158-.312-.32l.003.046a1.456 1.456 0 0 1 .664-1.325Z" fill="#5C617C"/><path d="m35.648 42.252.011-.009.031-.028.05-.044.065-.056.083-.064c.03-.023.064-.045.1-.07a2.338 2.338 0 0 1 .493-.247l.114-.037c.036-.01.07-.02.101-.027.031-.008.06-.013.085-.019l.064-.012.041-.007c.01-.001.014-.003.014-.003l-.014.001-.042.005c-.017.002-.04.005-.065.01s-.054.009-.085.017a1.68 1.68 0 0 0-.102.026c-.037.009-.075.022-.116.035-.08.029-.168.065-.256.108a2.328 2.328 0 0 0-.24.141c-.034.024-.068.047-.097.07-.031.023-.058.046-.083.066-.025.02-.046.04-.065.058a.865.865 0 0 0-.047.045l-.03.03-.01.011Z" fill="#5C617C"/><path d="m36.17 41.871.019-.023a4.06 4.06 0 0 0 .36-.64c-.001 0-.007.009-.016.025l-.038.073a6.802 6.802 0 0 1-.268.47l-.043.069a.176.176 0 0 0-.014.026Z" fill="#5C617C"/><path d="M36.886 41.631s-.431-.072-.685.218c0 0 .363-.193.685-.218Z" fill="#040000" opacity=".3"/><path d="M15.96 9.772c.188-.316.088-.75-.171-1.01-.26-.262-.642-.37-1.01-.369-.368 0-.728.098-1.083.194a1.2 1.2 0 0 0-1.138-.47 1.2 1.2 0 0 0-.932.804.761.761 0 0 0-.763.107.762.762 0 0 0-.262.725l1.537.826 1.286 3.401c.45.525 1.3.646 1.879.268.578-.379.808-1.207.507-1.829.115-.072.213-.165.298-.27.309-.129.572-.366.695-.679.262-.662-.157-1.506-.843-1.698Z" fill="#392925"/><path d="m13.864 16.116-.037-.88s1.018-.223 1.161-1.572c.072-.671-.018-1.76-.12-2.65-.092-.8-.675-1.758-1.47-1.632l-2.466.76c-.242.038-.316.248-.299.492l-.014.115.313 3.827-.022 1.634c.057.727.8 1.365 1.53 1.373a1.41 1.41 0 0 0 1.424-1.467Z" fill="#FAD2C3"/><path d="M14.573 12.197a.172.172 0 0 1-.156.182.164.164 0 0 1-.185-.146.171.171 0 0 1 .157-.181.165.165 0 0 1 .184.145ZM14.624 11.728c-.02.024-.155-.066-.34-.056-.184.008-.315.11-.336.088-.01-.01.01-.051.066-.097a.472.472 0 0 1 .54-.025c.059.04.08.08.07.09ZM12.903 12.274a.172.172 0 0 1-.156.182.164.164 0 0 1-.185-.146.172.172 0 0 1 .157-.182.165.165 0 0 1 .184.146ZM12.859 11.784c-.02.023-.156-.067-.34-.056-.185.007-.316.109-.337.087-.01-.01.01-.051.066-.097a.472.472 0 0 1 .54-.025c.06.04.08.08.07.09ZM13.587 13.057c-.002-.01.112-.036.297-.07.047-.007.091-.019.097-.051.01-.035-.012-.085-.038-.138l-.158-.352c-.22-.502-.382-.915-.361-.924.02-.009.215.39.435.892l.152.355c.02.053.054.112.034.184a.117.117 0 0 1-.075.073c-.03.01-.056.012-.08.015-.186.02-.302.027-.303.016Z" fill="#392925"/><path d="M13.827 15.236s-.897.105-1.817-.386c0 0 .5.922 1.834.728l-.017-.342Z" fill="#E3956B"/><path d="M12.834 11.029c-.02.05-.204.02-.422.038-.218.014-.395.072-.422.026-.012-.022.02-.069.092-.115a.707.707 0 0 1 .316-.098c.13-.01.25.015.327.05.079.034.118.075.109.099ZM14.602 11.05c-.036.044-.189.008-.37.016-.181.002-.333.045-.37.003-.017-.02.005-.064.07-.107a.582.582 0 0 1 .297-.084.572.572 0 0 1 .3.07c.066.039.09.08.073.102Z" fill="#392925"/><path d="M11.63 9.368a.93.93 0 0 0 .363.69c.214.161.5.222.762.161.203-.047.422-.162.604-.061.192.105.213.386.385.52.247.194.612-.017.916.057.235.058.39.272.553.45.163.179.402.344.63.264a2.723 2.723 0 0 0-.122-.613.915.915 0 0 0-.375-.485c-.099-.058-.212-.09-.305-.158-.2-.146-.257-.413-.386-.624a1.005 1.005 0 0 0-.79-.47c-.265-.014-.532.078-.792.026-.192-.038-.364-.153-.558-.18-.378-.053-.713.233-.971.514" fill="#392925"/><path d="M12.854 9.842c-.17-.04-.519-.132-.616-.273-.211-.307-.566-.506-.917-.47a.848.848 0 0 0-.73.708c-.425.024-.828.312-1.013.724-.185.413-.144.934.102 1.311.065.099.153.317.153.317s-.185.169-.265.291c-.37.566.34.916.34.916-.063.41.315.466.557.503.233.035.274.703.467.707l.12-2.022c.023.013.05.023.087.03.454.08.47-.802.358-1.048.155-.153.313-.308.428-.497.115-.19.2-.696.162-.92.163.002.842-.26.767-.277Z" fill="#392925"/><path d="M11.104 12.67c-.028-.284-.347-.459-.587-.304-.132.085-.228.248-.2.55.072.804.865.565.864.542 0-.015-.043-.455-.077-.788Z" fill="#FAD2C3"/><path d="M10.908 13.175c-.004-.002-.014.011-.036.024a.141.141 0 0 1-.105.012c-.088-.024-.171-.152-.188-.297a.468.468 0 0 1 .02-.205c.02-.06.054-.105.096-.117a.072.072 0 0 1 .086.031c.013.021.01.038.014.04.002.001.016-.016.007-.048a.09.09 0 0 0-.037-.048.105.105 0 0 0-.08-.013c-.061.01-.112.072-.135.137a.479.479 0 0 0-.028.23c.02.161.116.305.236.328a.15.15 0 0 0 .126-.033c.024-.021.026-.04.024-.04Z" fill="#C8A399"/><path d="M9.956 10.982c0 .001-.013-.008-.035-.027-.02-.02-.052-.05-.087-.092a.937.937 0 0 1-.206-.418.737.737 0 0 1 .01-.325.667.667 0 0 1 .188-.323.532.532 0 0 1 .386-.144c.145.004.3.068.393.2l-.038.018a.225.225 0 0 1-.003-.009c-.091-.29-.083-.603.045-.84.124-.238.35-.382.552-.399a.594.594 0 0 1 .443.138c.043.037.068.073.084.097.015.026.021.04.02.04-.004.003-.03-.055-.115-.124a.59.59 0 0 0-.429-.12c-.191.019-.404.158-.52.386-.12.227-.129.528-.04.81a.19.19 0 0 0 .003.009l.037.125-.075-.107a.456.456 0 0 0-.36-.181.494.494 0 0 0-.357.13.635.635 0 0 0-.181.304.715.715 0 0 0-.014.31c.035.191.124.328.19.413.066.086.112.127.109.13Z" fill="#392925"/><path d="M13.568 13.5c-.027-.055-.1-.12-.195-.098-.087-.004-.128.07-.143.124a.184.184 0 0 0 .134.222.183.183 0 0 0 .154-.029c.047-.03.077-.16.05-.218Z" fill="#E3956B"/><path d="m11.293 43.976.415 3.577 1.567-.239.105-3.526-2.087.188Z" fill="#FAD2C3"/><path d="M13.28 46.605s-1.051.893-1.638.237l-.116.35-.46 2.456c-.03.16.053.326.204.373.116.037.24.002.319-.088.425-.48 1.979-2.253 1.947-2.474l-.048-.591a.3.3 0 0 0-.207-.263Z" fill="#737797"/><path d="m11.325 50.033 2.196-2.78.009.129c.021.139-.035.199-.093.294-.174.28-.664.916-1.84 2.256a.302.302 0 0 1-.272.1ZM13.146 46.895a.193.193 0 0 0-.034.25c.053.075.17.093.242.036.072-.056.096-.197.035-.265-.062-.068-.2-.082-.256-.008" fill="#fff" opacity=".6"/><path d="M12.277 48.098c-.013.015-.17-.127-.41-.201-.238-.079-.446-.053-.448-.073-.006-.016.213-.075.468.009.258.08.404.255.39.265ZM12.278 47.36c-.006.02-.176-.04-.39-.031-.215.005-.381.073-.389.055-.009-.015.156-.116.387-.122.23-.008.401.084.393.099Z" fill="#505572"/><path d="M11.766 47.332c-.004 0-.006-.042.008-.115a.816.816 0 0 1 .123-.292c.038-.052.08-.121.167-.152a.121.121 0 0 1 .135.043c.03.043.036.094.031.143a.438.438 0 0 1-.421.365.5.5 0 0 1-.46-.322c-.014-.046-.02-.1.008-.149.028-.049.09-.063.132-.05.087.023.137.081.184.125a.896.896 0 0 1 .177.259c.03.068.037.109.033.11-.01.007-.058-.158-.242-.335-.046-.041-.1-.093-.163-.106-.03-.006-.059.004-.072.028-.015.023-.012.062 0 .097.056.145.22.278.401.275.181-.002.342-.15.363-.305a.15.15 0 0 0-.019-.1.065.065 0 0 0-.073-.025c-.06.017-.107.077-.144.126-.15.21-.155.385-.168.38Z" fill="#505572"/><path d="M17.504 46.794c-.036-.055-.365-1.252-.365-1.252l2.029-.553.288 1.726-1.952.08Z" fill="#FAD2C3"/><path d="m19.438 46.376.003.137s2.233.91 2.262 1.353l-4.414.032.05-1.544c.658.315 1.345.346 2.1.022Z" fill="#737797"/><path d="M17.79 46.844a.19.19 0 0 0-.124.217c.02.091.118.154.204.13.085-.023.159-.143.13-.23-.03-.088-.15-.155-.227-.11M17.29 47.898l.011-.371 4.226.105s.197.089.176.234l-4.414.032Z" fill="#fff" opacity=".6"/><path d="M19.456 46.526c0 .023-.108.034-.213.107-.108.071-.162.17-.182.16-.02-.004.012-.14.14-.226.13-.088.26-.062.255-.04ZM19.92 46.724c.005.022-.087.061-.16.157-.075.095-.093.198-.115.197-.02.004-.035-.129.057-.246.091-.12.218-.13.219-.108ZM20.188 47.304c-.02.005-.05-.108.004-.232.054-.125.155-.175.164-.156.013.02-.052.086-.096.189-.046.101-.051.197-.072.2ZM16.426 25.765c.096.062.824 4.418 1.77 10.208.779 4.763 1.233 9.585 1.233 9.585l-2.184.426s-2.057-5.903-3.145-10.15c-1.003-3.915-1.494-6.657-1.494-6.657v-2.866l3.82-.546Z" fill="#505572"/><path d="M9.802 24.162S7.79 26.88 7.959 29.719c.102 1.698 3.334 16.173 3.334 16.173h2.406l-.786-15.945.23-3.713-3.341-2.072Z" fill="#505572"/><path d="M16.223 16.58s.687.112 1.048 1.09c.376 1.018.803 3.407.803 3.407l-2.601.243.081-3.908.67-.832ZM8.979 16.54s-1.104.293-1.254 2.089c-.083.99-.065 2.691-.065 2.691s.342.12 1.29-.262c.765-.307 1.513.011 1.513.011l-1.251-3.734-.233-.796Z" fill="#B1B5DB"/><path d="m10.885 15.46-.471.544-1.566.576.34 6.635-.972 3.992s.95.184 1.326.686c.376.502 1.495 1.073 2.887 1.164 1.393.091 2.58-.776 3.127-1.05.547-.273 1.432-.499 1.542-.8.072-.197-.766-6.07-.766-6.07l-.11-4.557-1.423-.329-.555-.463-2.034 1.7-.459-.57-.866-1.457Z" fill="#B1B5DB"/><path opacity=".3" d="m10.464 16.143.489 2.104.294-.412-.783-1.692Z" fill="#040000"/><path d="M12.007 17.31a.255.255 0 0 1-.035.067 3.175 3.175 0 0 1-.119.176c-.103.149-.267.35-.432.598l-.024.037-.02-.039a19.774 19.774 0 0 1-.298-.598 31.531 31.531 0 0 1-.636-1.427A.62.62 0 0 1 10.4 16a.624.624 0 0 1 .064.117l.156.328.51 1.084c.101.214.2.416.292.599l-.043-.003c.172-.252.34-.446.45-.59.114-.141.175-.227.18-.224ZM13.822 21.248c0-.001.015-.005.043-.01l.125-.02a18.633 18.633 0 0 1 2.213-.183h.02l.003.02.168 1.444.093.803.048.418.025.212c.006.071.023.143.01.223a.2.2 0 0 1-.085.134.348.348 0 0 1-.144.05c-.097.013-.188.015-.28.022l-.546.036-.526.034c-.171.009-.343.032-.512-.006a.524.524 0 0 1-.37-.31 1.527 1.527 0 0 1-.108-.447 20.9 20.9 0 0 1-.084-.81c-.042-.497-.064-.9-.077-1.178l-.014-.32-.002-.084v-.028c.001 0 .003.01.005.028l.007.083.024.32c.02.277.048.68.095 1.174.024.248.053.519.09.809.02.143.043.294.107.432.06.139.182.25.339.282.155.034.324.012.496.003l.526-.036.546-.036c.091-.008.187-.01.276-.022.088-.01.172-.054.183-.14.011-.063-.003-.136-.01-.207-.009-.07-.017-.142-.024-.212l-.048-.418-.09-.804-.162-1.444.023.02c-.722.012-1.317.06-1.732.1-.204.022-.365.04-.48.051l-.126.014a.181.181 0 0 1-.045.003Z" fill="#5C617C"/><path d="M16.31 21.864c.002.015-.54.06-1.21.1-.67.04-1.213.06-1.214.045-.001-.015.541-.06 1.21-.1.67-.04 1.214-.06 1.215-.045ZM12.968 29.064l-.003-.029-.003-.084-.006-.325-.016-1.195-.054-3.94c-.018-1.54-.022-2.934-.01-3.943.006-.504.013-.912.021-1.195l.01-.325a5.708 5.708 0 0 0 .008-.113s.002.01.002.029l.002.084v.325l-.004 1.194a310.15 310.15 0 0 0 .025 3.942c.019 1.538.036 2.932.039 3.941.001.505 0 .913-.002 1.195l-.004.325a6.15 6.15 0 0 1-.005.114ZM9.868 25.871c.015.001.005.445-.022.993s-.061.991-.076.991-.006-.445.022-.993c.027-.548.06-.991.076-.99ZM9.558 26.325c.015.004-.023.197-.086.432-.062.235-.124.422-.139.418-.014-.003.024-.197.086-.432.062-.235.124-.422.14-.418ZM15.547 27.287c-.006.002-.052-.097-.11-.263a5.252 5.252 0 0 1-.276-1.34c-.012-.176-.01-.285-.003-.285.008 0 .02.107.041.28.022.173.057.412.11.673.054.26.117.493.165.66.048.168.08.272.073.275Z" fill="#5C617C"/><path d="M14.736 16.378a.641.641 0 0 1-.088.105l-.253.273a83.81 83.81 0 0 1-.85.886c-.168.17-.327.334-.473.483-.038.037-.07.074-.112.108a.168.168 0 0 1-.075.036.124.124 0 0 1-.083-.016c-.047-.03-.07-.072-.094-.108a16.933 16.933 0 0 0-.065-.105l-.191-.32a.696.696 0 0 1-.064-.12.627.627 0 0 1 .082.109l.206.31.067.103a.27.27 0 0 0 .081.09c.033.02.072.012.106-.017s.069-.07.105-.106l.47-.486c.334-.344.639-.652.862-.874l.265-.26c.064-.061.1-.094.104-.09Z" fill="#5C617C"/><path d="M16.498 23.415a126.33 126.33 0 0 0-3.27-5.834l-.416.766c.489.857.506 1.895.76 2.848a5.833 5.833 0 0 0 1.579 2.684c.226.219.49.427.804.462.312.035.67-.177.682-.492.006-.154-.067-.298-.139-.434ZM10.009 23.105l-.97.987c.13.353.532.559.907.53.375-.027.714-.254.953-.546.238-.291.387-.643.518-.996.433-1.175.685-2.412.803-3.66l-2.211 3.684Z" fill="#040000" opacity=".3"/><path d="M9.65 19.382c-.006.005-.091-.084-.224-.232-.133-.147-.314-.354-.52-.574a6.899 6.899 0 0 0-.554-.539c-.15-.128-.253-.195-.248-.202.001-.004.03.01.078.038.048.028.116.073.195.134.16.121.361.31.57.531.207.222.383.433.509.587.125.155.2.252.194.257ZM16.741 17.012c.006.006-.077.093-.202.24-.126.149-.29.36-.446.611a5.265 5.265 0 0 0-.35.67c-.077.178-.117.291-.126.288-.006-.001.022-.12.09-.302a3.987 3.987 0 0 1 .803-1.291c.133-.144.227-.221.231-.216Z" fill="#5C617C"/><path d="M12.358 14.398s-.147 1.369-.072 1.506c.076.138.813.975.813.975l1.108-.041.698-1.92-.156-.81s-.152-.027-.193.175l-.126-.58s-.292-.13-.287.13c.005.26.015.53.015.53l-.172.716.074-.993-.191-.599s-.242-.088-.277.25c-.036.336-.013.628-.013.628l-.163.607.024-1.11s-.069-.376-.26-.271c-.19.105-.352 1.768-.352 1.768l-.105.21.04-.482c0-.002.019-.922-.405-.69Z" fill="#FAD2C3"/><path d="M12.358 14.398s.006-.005.021-.013a.249.249 0 0 1 .07-.025.167.167 0 0 1 .119.016c.044.023.08.07.108.126.055.114.084.268.096.448.002.046.005.092.004.142l-.012.149-.026.328-.028-.008.104-.21-.002.005c.03-.306.07-.648.13-1.023.031-.186.064-.381.126-.58.017-.049.033-.099.067-.147a.133.133 0 0 1 .167-.042c.058.029.086.083.11.133.024.052.04.104.051.16v.005l-.022 1.11-.049-.007.163-.607-.001.009c-.01-.171-.01-.347.003-.526.008-.088.01-.184.056-.273a.213.213 0 0 1 .266-.105l.012.003.004.014.192.598.002.005v.005l-.075.994-.054-.009.105-.436.067-.28v.008l-.012-.381c0-.065-.007-.123-.002-.193a.171.171 0 0 1 .043-.1.156.156 0 0 1 .101-.046.208.208 0 0 1 .185.09c.02.027.033.064.039.095l.02.09c.025.12.05.24.077.357h-.053c.01-.05.03-.101.07-.142.04-.04.095-.06.154-.054l.019.003.003.019.156.81.001.008-.002.007a3833.3 3833.3 0 0 0-.701 1.918l-.005.014h-.016l-1.108.039h-.01l-.006-.007c-.282-.325-.537-.618-.747-.888-.024-.036-.054-.066-.07-.11a.472.472 0 0 1-.016-.125c-.002-.08 0-.156.004-.229.006-.146.015-.28.025-.4a17.788 17.788 0 0 1 .077-.742l-.002.049-.011.143c-.01.127-.027.312-.043.552-.008.12-.015.253-.02.399-.002.073-.004.15 0 .227a.518.518 0 0 0 .014.115c.012.035.042.067.067.101.21.267.468.559.751.881l-.015-.006 1.108-.044-.02.015.694-1.92v.013l-.158-.811.022.021a.133.133 0 0 0-.108.04.232.232 0 0 0-.054.115l-.025.128-.028-.128-.078-.357-.02-.09a.18.18 0 0 0-.03-.076.153.153 0 0 0-.135-.066c-.055.003-.09.04-.095.098-.004.055.002.123.003.184l.01.38v.008l-.067.28-.105.436-.054-.008.074-.993.002.01-.191-.599.016.017c-.077-.025-.166.005-.201.08-.04.073-.043.165-.05.252a3.961 3.961 0 0 0-.005.519v.008l-.164.606-.054.198.005-.205.026-1.11v.005a.726.726 0 0 0-.047-.15c-.021-.046-.049-.093-.088-.112-.02-.012-.04-.01-.062-.006l-.03.013a.076.076 0 0 0-.021.022c-.027.037-.045.087-.061.134-.061.192-.095.388-.128.573-.061.372-.103.715-.136 1.02v.003l-.001.002-.107.21-.035.07.007-.078.029-.327.013-.15c.002-.047 0-.094-.002-.138a1.252 1.252 0 0 0-.087-.443.265.265 0 0 0-.1-.123.162.162 0 0 0-.111-.018c-.062.013-.09.033-.092.03Z" fill="#C8A399"/><path d="M14.442 15.373c-.013-.005.047-.221.137-.497l-.002.01c0-.02-.002-.043-.004-.065-.018-.32-.02-.58-.006-.58.015-.002.043.257.062.576 0 .023.002.045.003.066v.005l-.001.005c-.094.275-.175.484-.189.48Z" fill="#C8A399"/><path d="M8.22 21.296s.13 1.538.759 1.931c.63.394 1.477.642 2.208-1.179.344-.86 2.087-5.395 2.087-5.395l-1.488-.574-2.884 4.658-.681.559Z" fill="#FAD2C3"/><path d="m13.843 15.975 3.267 4.656s1.002 2.124-.355 2.765c-1.116.527-1.95-.597-2.29-1.574-.349-1.002-1.826-4.977-1.826-4.977l1.204-.87Z" fill="#FAD2C3"/><path d="M11.653 13.48s-.11 1.196-.11 1.354c0 .157.243 1.245.243 1.245l1.27 1.14 1.257-1.986.254-.786s-.12-.097-.254.06l.17-.568s-.194-.254-.315-.024-.242.471-.242.471l-.496.545.545-.835.12-.617s-.169-.193-.362.085c-.194.278-.315.544-.315.544l-.435.453.556-.961s.121-.363-.096-.363c-.218 0-1.161 1.379-1.161 1.379l-.194.133-.096-.498s.145-.772-.34-.772Z" fill="#FAD2C3"/><path d="M12.212 19.41a27.388 27.388 0 0 1 .052-.15l.161-.43.614-1.617v-.001l.002-.002 1.252-1.99-.002.006.253-.787.008.027a.137.137 0 0 0-.112-.02.23.23 0 0 0-.108.077l-.077.092.034-.115.169-.568.004.022c-.042-.05-.101-.104-.162-.11-.03-.001-.057.013-.08.039-.02.024-.037.058-.055.093-.07.138-.142.28-.216.422l-.001.004-.003.002-.495.545-.042-.033.544-.835-.004.01c.038-.195.08-.405.12-.617l.007.024c-.038-.039-.098-.066-.153-.053-.057.011-.107.058-.147.11a3.673 3.673 0 0 0-.332.565l-.002.004-.004.004-.435.452-.156.162.113-.194.557-.96-.003.004c.026-.089.048-.193.018-.272-.014-.039-.05-.057-.091-.056-.031.005-.075.037-.109.066-.142.126-.263.276-.381.421-.234.294-.448.59-.649.88l-.002.003-.004.003-.194.133-.03.02-.007-.035-.096-.498V14.248a1.194 1.194 0 0 0-.008-.482.39.39 0 0 0-.108-.194.323.323 0 0 0-.2-.07l.021-.02-.07.783-.03.361-.011.173c-.004.055.006.109.014.163.073.434.156.807.22 1.115l.002.005-.003.004-.438.696a67.808 67.808 0 0 0-.154.237s.01-.022.035-.063l.108-.18.428-.703-.001.01c-.069-.308-.155-.68-.232-1.115-.008-.054-.019-.112-.015-.17l.01-.174.028-.363.066-.784.002-.02.02.001c.08.003.164.024.229.08.064.056.099.136.122.215.042.162.037.332.01.503v-.009l.098.498-.037-.015.193-.134-.006.007c.2-.29.414-.588.649-.884.12-.147.239-.297.387-.429.04-.03.075-.067.14-.078.03 0 .058.005.086.02.026.016.048.04.058.067a.33.33 0 0 1 .016.159.778.778 0 0 1-.032.15l-.001.003-.002.003-.556.96-.043-.032.435-.453-.005.008c.096-.2.205-.393.339-.577a.322.322 0 0 1 .178-.128.222.222 0 0 1 .206.07l.009.009-.003.013-.12.617-.002.006-.003.004-.544.834-.042-.033.496-.544-.004.006.217-.422c.017-.033.034-.07.063-.104a.145.145 0 0 1 .12-.055c.093.011.15.072.2.13l.008.01-.004.013-.17.568-.043-.023a.277.277 0 0 1 .133-.092.183.183 0 0 1 .155.029l.014.01-.006.016-.255.786v.003l-.002.002-1.263 1.983.002-.003-.63 1.61-.17.429-.044.11a.188.188 0 0 1-.016.036Z" fill="#C8A399"/><path d="M14.33 14.454c.012.004-.03.178-.097.404l-.002.005-.003.005-.062.074c-.18.216-.337.383-.349.374-.011-.01.126-.193.307-.41l.062-.073-.005.01c.072-.226.135-.393.148-.389Z" fill="#C8A399"/><path d="M28.083 29.924h-1.405v9.537h1.405v-9.537Z" fill="#D1D5E8"/><path d="M28.083 39.46s-.002-.017-.002-.05l-.002-.142-.003-.547-.008-2.018-.01-6.78.024.025h-1.404l.025-.025-.013 9.537-.012-.012 1.04.007.271.003.094.002-.09.003-.268.003-1.048.006h-.012v-.012l-.013-9.537v-.026h1.456v.025l-.012 6.798-.007 2.013-.003.54-.002.14a.621.621 0 0 1-.001.047Z" fill="#949DB8"/><path d="M38.968 29.84h-1.406v9.62h1.406v-9.62Z" fill="#D1D5E8"/><path d="m38.967 39.46-.001-.05-.002-.143-.004-.552-.007-2.036-.01-6.839.024.025h-1.404l.025-.025-.013 9.62-.012-.012 1.04.006.271.003.093.004-.089.002-.268.002-1.048.007h-.012v-.012l-.013-9.62v-.025H38.992v.025l-.01 6.856-.008 2.03c0 .237-.002.42-.003.547l-.002.14c0 .032-.002.048-.002.048Z" fill="#949DB8"/><path d="m39.627 30.05-13.475.025v-4.99h13.475v4.965Z" fill="#D1D5E8"/><path d="M39.627 30.05s-.002-.03-.002-.088c0-.059 0-.144-.002-.256l-.004-.982-.01-3.638.018.017-13.475.008.025-.025v4.989l-.025-.025 9.65-.006h2.81l.753.003a42.67 42.67 0 0 1 .262.003l-.065.002-.192.001-.748.005-2.804.012-9.667.03h-.024v-.025l-.001-4.978v-.037h.025l13.475.008h.017v.018l-.009 3.648-.005.979-.001.252-.001.085Z" fill="#949DB8"/><path d="M38.52 29.064s-.002-.02-.002-.057l-.002-.166-.004-.639-.01-2.376.018.015-11.348.008.026-.023v3.238l-.027-.023 8.117.01 2.372.007.637.003a34.53 34.53 0 0 1 .223.003l-.054.001-.162.002-.632.003-2.366.006-8.134.01h-.027v-3.283h.027l11.348.008h.018v.015l-.01 2.385-.004.635-.002.163-.002.055Z" fill="#949DB8"/><path d="M27.577 28.64c.01.008-.07.105-.179.215-.109.11-.205.193-.215.184-.01-.008.07-.105.18-.216.108-.11.204-.192.214-.183ZM27.577 26.251c-.01.009-.11-.079-.223-.196-.112-.117-.195-.22-.185-.228.01-.009.11.08.222.196.113.117.196.22.186.228ZM38.54 25.836c.011.01-.097.114-.247.225s-.273.198-.283.19c-.012-.01.096-.114.247-.225.15-.11.273-.198.283-.19ZM38.52 29.064c-.01.01-.133-.078-.274-.195-.14-.117-.246-.22-.236-.229.011-.01.133.078.274.195.141.117.247.22.236.23Z" fill="#949DB8"/><path d="m38.01 28.64-.002-.043c0-.029 0-.069-.002-.121l-.004-.468-.01-1.757.017.014-10.388.01.027-.024v2.389l-.027-.023 7.413.01 2.181.007.588.003.153.001c.035 0 .054.002.054.002h-.05l-.15.002-.582.003-2.176.007-7.431.01h-.027V26.227h.027l10.388.01h.017v.014l-.01 1.764c0 .203-.002.359-.003.466l-.002.118-.001.04Z" fill="#949DB8"/><path d="M33.772 27.225a1.031 1.031 0 0 0-.503-.146h-.694a.825.825 0 0 0-.552.202.422.422 0 0 0-.083.095c-.06.1-.062.242.027.32.09.08.271.041.287-.073-.005.151.159.278.319.268a.4.4 0 0 0 .341-.28c-.001.129.115.249.25.259.136.01.27-.093.29-.22.085.106.212.204.358.159a.251.251 0 0 0 .166-.176c.043-.165-.065-.32-.206-.408Z" fill="#E0E0E0"/><path d="M32.699 27.076c.007.012-.16.081-.285.247-.129.164-.146.335-.16.332-.006 0-.01-.043.004-.112a.668.668 0 0 1 .33-.43c.064-.033.109-.042.11-.037ZM32.965 27.104c.013.002.011.119-.004.26-.016.143-.04.257-.053.256-.014 0-.012-.117.004-.26.016-.144.04-.259.053-.256ZM33.3 27.096c.002-.005.038.009.08.052a.4.4 0 0 1 .097.202.695.695 0 0 1 .001.22c-.008.054-.017.087-.024.087-.007 0-.01-.035-.01-.09-.002-.055-.001-.13-.016-.21a.497.497 0 0 0-.076-.189c-.03-.044-.057-.066-.053-.072Z" fill="#5C617C"/><path d="M40.435 24.183h-15.25v1.201h15.25v-1.2Z" fill="#D1D5E8"/><path d="m40.434 25.384-.001-.08-.003-.23-.005-.89.01.008-15.25.016.025-.025v1.2l-.024-.024 10.816.01 3.244.008.88.003.23.002c.051 0 .078.002.078.002l-.075.002c-.052 0-.128 0-.226.002l-.874.003-3.238.008-10.835.01h-.026v-1.251h.026l15.249.016h.01v.01l-.006.896-.002.228c-.001.051-.003.076-.003.076Z" fill="#949DB8"/><path d="M24.188 46.765c.51 0 .925-.157.925-.35 0-.192-.415-.349-.925-.349-.511 0-.925.157-.925.35 0 .193.414.349.925.349Z" fill="#fff"/></g></g><defs><clipPath id="a"><rect width="48" height="48" rx="24" fill="#fff"/></clipPath><clipPath id="b"><path fill="#fff" d="M0 0h48v48H0z"/></clipPath></defs></svg>