<svg width="48" height="48" fill="none" xmlns="http://www.w3.org/2000/svg"><g clip-path="url(#a)"><rect width="48" height="48" rx="24" fill="#fff"/><g clip-path="url(#b)"><path d="M11.518 31.008s-1.045.294-.13 2.544c.917 2.25 1.587 3.383 1.587 3.383s.153.517-.275.56c-.428.041-1.343-.187-1.575.313-.24.519.105 1.056.854 1.566.75.51 2.352 1.688 2.496 1.795.142.105.272.35-.015.426-.287.075-2.393.115-2.314 1.113.079.998 2.4 2.075 2.652 2.198.252.122.305.238.272.379-.034.14-.743.087-1.341.123-.599.036-1.286.182-1.193.754.094.572 1.413 1.87 4.832 2.503l1.603.19.991-1.284c1.954-2.876 1.958-4.727 1.617-5.195-.341-.47-.928-.083-1.375.317-.446.4-.906.943-1.03.867-.123-.075-.169-.194-.08-.46.09-.264.957-2.673.303-3.43-.655-.758-2.163.712-2.418.863-.256.151-.34-.114-.314-.289.026-.178.314-2.145.479-3.036.164-.892.025-1.516-.513-1.71-.518-.186-1 .625-1.33.9-.331.275-.592-.197-.592-.197s-.334-1.273-1.29-3.507c-.957-2.233-1.92-1.678-1.92-1.678" fill="#B1B5DB" opacity=".25"/><path d="M18.07 47.032a.775.775 0 0 1 .09-.122l.257-.32a41.279 41.279 0 0 0 1.636-2.16l.238-.336a.829.829 0 0 1 .093-.12.77.77 0 0 1-.075.131c-.05.083-.127.201-.224.346a23.231 23.231 0 0 1-1.91 2.472.774.774 0 0 1-.105.109Z" fill="#E0E0E0"/><path d="M31.567 48.568c-2.277-1.46-2.892-4.315-2.906-6.9-.002-.432-.068-.885.123-1.271.19-.387.658-.664 1.052-.498.326.138.48.505.671.806.255.4.623.726 1.05.927.28.131.623.205.888.045.364-.22.388-.735.368-1.164l-.11-2.397c-.019-.428-.038-.867.08-1.279.117-.412.397-.801.8-.932.404-.13.918.085 1.02.502.043.173.014.356.034.533.019.178.11.371.28.414.173.044.34-.085.463-.215.426-.45.704-1.02.963-1.586.259-.565.509-1.144.892-1.632s.924-.884 1.536-.943c.613-.06 1.282.294 1.461.89.18.6-.15 1.227-.514 1.731a9.59 9.59 0 0 1-1.918 1.978c-.131.102-.274.211-.319.372-.082.29.2.563.486.646.324.093.67.047 1.006.073.336.026.704.16.842.47.193.432-.155.906-.504 1.221a8.207 8.207 0 0 1-2.372 1.497c-.31.128-.639.242-.884.473-.246.232-.384.623-.219.92.166.296.564.377.892.303.328-.075.617-.266.927-.397.58-.246 1.343-.235 1.74.26.262.325.302.79.192 1.194-.11.404-.35.758-.609 1.085-.9 1.146-2.075 2.085-3.423 2.613-1.348.526-2.61.705-3.988.261Z" fill="#B1B5DB" opacity=".25"/><path d="M32.235 46.819a.263.263 0 0 1-.04-.066l-.103-.196c-.088-.17-.209-.42-.354-.73a64.68 64.68 0 0 1-1.066-2.459c-.4-.966-.767-1.84-1.044-2.465l-.33-.741-.09-.202a.298.298 0 0 1-.026-.073c.003-.001.016.021.04.066l.103.195c.088.17.209.42.353.73.291.622.666 1.492 1.067 2.46.4.966.766 1.838 1.044 2.465l.33.741.09.202a.29.29 0 0 1 .026.073Z" fill="#E0E0E0"/><g opacity=".47" fill="#B1B5DB"><path d="M18.774 48.577c-.697-1.642-1.64-3.92-2.672-6.44-1.033-2.52-1.97-4.799-2.657-6.445l-.816-1.95-.221-.53-.057-.139c-.012-.03-.017-.048-.017-.048a.8.8 0 0 0 .023.046l.061.137.23.526c.2.457.485 1.12.833 1.942.696 1.644 1.639 3.92 2.672 6.44 1.033 2.52 1.97 4.8 2.657 6.447"/><path d="M12.393 38.178a.475.475 0 0 1 .11.04c.069.03.168.073.29.13.243.113.575.278.937.467l.927.488.281.147a.447.447 0 0 1 .101.058.46.46 0 0 1-.11-.039 6.751 6.751 0 0 1-.29-.13 33.25 33.25 0 0 1-.934-.475l-.93-.48-.282-.146a.476.476 0 0 1-.1-.06ZM15.158 39.415c-.014-.007.296-.706.691-1.562.396-.857.728-1.546.742-1.539.014.006-.296.706-.692 1.562-.395.856-.728 1.545-.741 1.539ZM16.57 43.355a.519.519 0 0 1 .072-.094l.212-.245a26.5 26.5 0 0 0 1.335-1.667l.193-.26a.48.48 0 0 1 .076-.092.5.5 0 0 1-.058.104 14.094 14.094 0 0 1-.817 1.13 14.404 14.404 0 0 1-.925 1.044.49.49 0 0 1-.088.08ZM13.822 42.787c.001-.003.04 0 .11.01s.171.027.296.049a52.046 52.046 0 0 1 2.232.44.394.394 0 0 1 .106.032c-.001.003-.04 0-.11-.01s-.171-.027-.296-.049c-.249-.043-.592-.106-.971-.18a53.444 53.444 0 0 1-.969-.195 15.51 15.51 0 0 1-.292-.065.413.413 0 0 1-.106-.032ZM14.626 46.424c0-.004.05.002.14.015l.38.06a98.238 98.238 0 0 1 2.491.457l.376.078a.69.69 0 0 1 .136.036.729.729 0 0 1-.14-.015l-.379-.06a90.802 90.802 0 0 1-2.491-.458c-.15-.03-.277-.057-.376-.078a.649.649 0 0 1-.137-.035ZM32.17 46.923c.33-1.319.81-2.734 1.364-4.197l.413-1.082c.137-.355.272-.707.426-1.042a19.24 19.24 0 0 1 .994-1.88c.345-.583.694-1.123 1.024-1.625.33-.502.648-.965.955-1.374a15.208 15.208 0 0 1 2.071-2.27l.128-.112a.38.38 0 0 1 .045-.037.3.3 0 0 1-.04.043l-.122.118c-.109.104-.269.257-.47.46-.4.403-.963 1.01-1.567 1.832-.304.41-.618.873-.946 1.376a43.862 43.862 0 0 0-1.016 1.627 19.402 19.402 0 0 0-.986 1.874c-.152.334-.286.683-.423 1.038l-.413 1.082c-.553 1.462-1.034 2.873-1.366 4.186"/><path d="M34.395 40.598a.888.888 0 0 1-.049-.182c-.027-.117-.06-.288-.1-.5a49.895 49.895 0 0 1-.257-1.666 34.325 34.325 0 0 0-.272-1.66 24.726 24.726 0 0 0-.103-.5.832.832 0 0 1-.03-.186.845.845 0 0 1 .06.178c.035.116.079.285.127.495.098.421.202 1.01.295 1.66l.235 1.668.075.505c.017.12.024.186.019.188Z"/><path d="M39.868 39.35c0 .005-.078.018-.219.035-.14.019-.345.043-.596.083-.502.074-1.193.201-1.95.375-.755.175-1.433.362-1.919.512-.243.073-.439.138-.575.181a1.192 1.192 0 0 1-.212.062c-.002-.006.07-.038.202-.09.133-.054.326-.127.568-.207a20.86 20.86 0 0 1 1.92-.536 19.444 19.444 0 0 1 1.96-.353c.252-.032.458-.048.6-.057.142-.008.22-.01.221-.005ZM39.468 44.17a.298.298 0 0 1-.071.032l-.21.08-.775.285c-.654.24-1.553.584-2.546.964-.994.381-1.897.716-2.556.943-.33.114-.597.203-.784.262l-.214.065a.297.297 0 0 1-.077.018c0-.003.024-.014.072-.033l.21-.08.774-.285c.654-.24 1.553-.584 2.547-.964.993-.38 1.896-.716 2.556-.943.329-.114.596-.203.783-.262l.214-.065a.266.266 0 0 1 .077-.018Z"/></g><path d="m37.02 12.786-1.652 4.91a.84.84 0 0 0 1.532.668l2.497-4.593a.658.658 0 0 0-.338-.927l-1.174-.46a.658.658 0 0 0-.864.402ZM35.97 21.93a1.262 1.262 0 1 1-1.917-1.641 1.262 1.262 0 0 1 1.916 1.641ZM39.73 21.481l.598 1.774a.303.303 0 0 0 .587-.143l-.286-1.867a.238.238 0 0 0-.3-.193l-.438.124a.237.237 0 0 0-.16.305ZM41.427 24.34a.456.456 0 1 1-.91-.052.456.456 0 0 1 .91.053Z" fill="#B1B5DB"/><path d="m18.596 44.672-.794 4.265H33.44s-.536-2.524-2.763-5.319l-12.082 1.054Z" fill="#737797"/><path d="m18.371 40.589-.561-8.16.929-8.35 5.078-.709 3.715.41 2.535 8.572.683 7.638s.362 1.206.782 2.613a1.8 1.8 0 0 1-.781 2.053c-.604.367-1.507.653-2.811.517-3.01-.314-6.422-.864-8.07-.589-1.647.275-1.882-.118-1.882-.118s-.52-.51-.358-1.098c.162-.587.741-2.78.741-2.78Z" fill="#B1B5DB"/><path d="M30.583 39.942a.246.246 0 0 1-.043.036l-.128.095c-.116.087-.276.204-.47.347-.397.295-.937.712-1.528 1.18-.592.467-1.127.89-1.519 1.192-.196.15-.355.27-.467.352l-.129.093a.24.24 0 0 1-.047.03c0-.001.013-.014.04-.038l.124-.1.458-.365 1.51-1.204a42.75 42.75 0 0 1 1.537-1.168c.2-.144.365-.258.48-.335l.134-.087c.03-.02.047-.03.048-.028Z" fill="#fff"/><path d="M26.485 26.344c-.011.008-.129-.13-.262-.308-.134-.178-.233-.33-.222-.338.011-.008.128.13.262.308.133.178.232.33.222.338ZM27.096 25.087c-.013.008-.12-.165-.319-.31-.196-.148-.392-.201-.387-.216 0-.012.211.022.417.177.207.152.3.345.289.349ZM22.29 26.183c.011.01-.122.157-.197.383-.078.226-.06.424-.076.425-.012.004-.053-.203.029-.44.079-.24.236-.379.243-.368ZM20.355 24.514c0 .015-.22.019-.488.058-.267.038-.479.096-.483.082-.005-.012.204-.092.476-.13.272-.04.495-.023.495-.01Z" fill="#666B84"/><path d="M18.42 39.868c1.312-.539 2.193-1.802 2.722-3.117.53-1.315.78-2.725 1.26-4.059.14-.389.386-.835.8-.847.34-.01.601.284.796.562.919 1.313 1.5 2.827 2.207 4.265.707 1.44 1.587 2.858 2.913 3.757.245.167.516.317.811.334.296.017.619-.137.714-.417.039-.115.037-.239.035-.36l-.04-2.158c-.014-.778-.032-1.576-.326-2.296-.429-1.051-1.376-1.783-2.245-2.512-1.144-.96-2.227-2.008-3.093-3.224-.308-.433-.595-.893-1.013-1.22-.418-.328-1.01-.497-1.487-.262-.53.261-.731.9-.884 1.47a152.02 152.02 0 0 1-2.923 9.649" fill="#040000" opacity=".3"/><path d="M18.29 39.41c.959-.082 1.694-1.142 1.957-2.068l2.106-7.43-3.216-2.155-1.282 4.272.884-7.95s-2.952.748-3.644 4.325c-.586 3.034-.788 5.858-.65 6.962 0 0 .02 4.371 3.845 4.044ZM23.777 30.536s1.463 3.701 2.907 5.848c1.38 2.052 3.713 4.12 5.212 3.875 1.498-.245 2.28-4.064 2.28-5.49 0-1.426-1.833-7.294-1.833-7.294s-.367-3.299-3.557-3.694l-2.245-.11 3.41 8.438-1.434-1.711s.184-.46-.046-.966c-.23-.507-1.749-1.795-1.749-1.795l-2.945 2.899Z" fill="#B1B5DB"/><path d="M17.934 30.97a.582.582 0 0 1-.035-.117 6.949 6.949 0 0 0-.479-1.346 6.96 6.96 0 0 0-.746-1.22.578.578 0 0 1-.07-.1.58.58 0 0 1 .085.089c.053.059.124.148.209.262a5.867 5.867 0 0 1 .947 1.984c.035.137.06.25.073.327.013.078.02.121.016.122ZM28.373 35.512a.2.2 0 0 1-.022-.048l-.054-.143a2.89 2.89 0 0 1-.078-.228c-.027-.09-.061-.191-.088-.306-.03-.115-.06-.24-.085-.378-.03-.136-.05-.283-.073-.438a7.42 7.42 0 0 1-.057-1.015c.008-.362.044-.705.094-1.014.028-.154.053-.3.088-.435.03-.136.066-.26.1-.374.03-.114.068-.214.099-.303.029-.09.06-.164.085-.225l.06-.14a.242.242 0 0 1 .023-.047.246.246 0 0 1-.015.05l-.05.144c-.024.062-.05.137-.078.227-.028.09-.063.19-.092.304a5.618 5.618 0 0 0-.093.373c-.033.135-.056.28-.083.434a7.902 7.902 0 0 0-.09 1.006c-.005.36.018.7.053 1.01.022.154.04.3.068.436.023.136.052.262.08.376.024.115.056.217.08.307.024.091.048.167.069.23l.045.145c.011.033.015.051.014.052ZM32.307 36.384a.155.155 0 0 1 0-.046l.008-.128c.005-.056.01-.124.009-.203 0-.08.006-.17-.003-.27l-.01-.156c-.003-.054-.012-.11-.019-.169-.01-.116-.038-.239-.062-.368a4.575 4.575 0 0 0-.27-.812 4.515 4.515 0 0 0-.43-.74c-.08-.103-.155-.205-.235-.29-.04-.044-.075-.088-.113-.127a21.078 21.078 0 0 0-.112-.11c-.069-.072-.14-.128-.2-.18a1.876 1.876 0 0 0-.158-.128l-.102-.078a.174.174 0 0 1-.034-.03c.001-.002.015.006.04.022l.108.071c.047.03.103.07.164.122.062.051.135.105.206.176l.115.11c.04.038.077.082.117.125.083.085.159.186.24.29.158.216.312.467.44.747.125.281.211.563.269.823.024.13.05.255.059.373.006.06.014.116.017.17l.006.158c.006.1-.002.192-.004.272-.002.08-.01.148-.018.204l-.018.128a.156.156 0 0 1-.01.044Z" fill="#666B84"/><path d="M32.398 33.78c-.006.004-.082-.089-.208-.236-.126-.145-.3-.348-.526-.536-.223-.19-.462-.315-.65-.349-.187-.038-.307-.01-.308-.021 0-.004.029-.01.083-.019a.404.404 0 0 1 .1-.006l.062.001.07.01c.196.027.448.153.675.346.23.191.401.4.522.552.06.076.106.14.136.185.031.045.047.07.044.072Z" fill="#666B84"/><path d="M33.069 33.1c-.008.018-.352-.19-.828-.288-.476-.098-.872-.023-.873-.041 0-.006.096-.03.256-.045.16-.014.386-.011.627.038.242.049.45.133.594.204a.982.982 0 0 1 .224.132ZM30.987 24.902a.22.22 0 0 1-.047.027l-.138.07-.1.05c-.035.02-.072.045-.113.07-.08.052-.175.104-.267.181l-.148.116c-.05.042-.098.09-.15.138-.107.092-.2.21-.307.327-.197.247-.388.54-.551.867a7.081 7.081 0 0 0-.576 1.78c-.025.117-.04.225-.056.32a4.448 4.448 0 0 0-.035.242c-.01.062-.016.113-.022.153a.208.208 0 0 1-.011.054.226.226 0 0 1 0-.055l.013-.154c.006-.068.014-.15.027-.244.014-.095.026-.204.049-.322.082-.474.239-1.13.566-1.795.165-.33.359-.626.56-.875.11-.117.205-.236.315-.328.053-.047.103-.096.153-.138l.152-.113c.095-.077.193-.128.274-.177.042-.024.08-.048.116-.067l.103-.046.143-.063a.24.24 0 0 1 .05-.018ZM17.031 33.431l.008-.027.026-.08.106-.305.405-1.152c.35-.99.848-2.391 1.436-4.047l.009-.025.023.013c.52.301 1.025.682 1.58 1.029l1.742 1.055.015.01-.005.018-.107.372-2.14 7.43v.001c-.327.726-.724 1.246-1.087 1.493-.18.124-.345.177-.457.19a.685.685 0 0 1-.172.002s.014-.002.043-.002a.822.822 0 0 0 .127-.01c.111-.016.273-.07.45-.195.354-.248.745-.769 1.065-1.49v.001l2.123-7.434.107-.373.01.028-1.74-1.056c-.557-.348-1.06-.73-1.577-1.03l.032-.012-1.452 4.04-.417 1.148c-.049.132-.087.233-.112.304a7.37 7.37 0 0 1-.04.104Z" fill="#666B84"/><path d="M17.108 33.367c.003.008-.127.06-.322.173a3.23 3.23 0 0 0-.69.536c-.238.246-.41.507-.516.705-.107.199-.155.33-.163.327a.388.388 0 0 1 .027-.095c.02-.06.055-.145.105-.248a2.873 2.873 0 0 1 1.22-1.256c.1-.053.185-.09.245-.112a.4.4 0 0 1 .094-.03ZM17.144 33.085c0 .008-.098.002-.256.006a3.52 3.52 0 0 0-1.196.235c-.146.057-.234.099-.238.092a.958.958 0 0 1 .225-.124 2.75 2.75 0 0 1 1.21-.238.96.96 0 0 1 .255.03ZM30.897 40.12l-.057-.022-.165-.066c-.07-.032-.164-.062-.265-.116l-.351-.18c-.519-.287-1.226-.794-1.96-1.563-.739-.764-1.495-1.788-2.208-2.996a27.089 27.089 0 0 1-1.954-4.121 17.282 17.282 0 0 1-.183-.512l-.005-.015.011-.01 3.273-3.178.016-.016.015.016c.49.534.922 1.064 1.248 1.602.08.135.153.272.21.411.056.14.102.284.101.432 0 .074-.024.146-.044.21-.02.066-.035.132-.046.198a.585.585 0 0 0 .002.193c.01.06.048.119.1.133l.006.002.003.003 1.469 1.525.39.41.1.105c.023.024.034.038.034.038l-.036-.034-.104-.103-.396-.403-1.48-1.515.009.004c-.076-.02-.113-.091-.128-.157a.62.62 0 0 1-.003-.205c.01-.068.026-.136.047-.203.02-.068.042-.131.042-.201 0-.139-.045-.28-.1-.417a3.131 3.131 0 0 0-.21-.405c-.325-.533-.757-1.061-1.246-1.591h.032l-3.269 3.181.006-.025a27.37 27.37 0 0 0 2.13 4.625c.71 1.208 1.46 2.23 2.194 2.995.729.77 1.43 1.28 1.944 1.572l.348.183c.1.055.192.086.263.12l.162.07a.757.757 0 0 1 .055.026ZM25.49 35.811a.545.545 0 0 1-.13-.005 2.139 2.139 0 0 1-.348-.065 2.46 2.46 0 0 1-1.02-.563 2.454 2.454 0 0 1-.638-.974 2.21 2.21 0 0 1-.091-.343.587.587 0 0 1-.015-.129c.01-.002.033.183.139.46.104.276.308.642.64.95.331.307.712.482.994.565.285.085.47.094.47.104ZM28.464 42.18l-.02.015-.062.041-.242.156-.176.11c-.065.04-.138.077-.216.12-.157.083-.33.186-.537.274l-.318.145c-.111.05-.232.091-.354.14-.243.1-.513.178-.795.267-.569.157-1.207.287-1.886.352-.68.056-1.332.042-1.92-.012-.293-.037-.572-.066-.83-.122-.128-.026-.253-.045-.372-.074-.117-.03-.23-.06-.34-.087-.217-.05-.407-.121-.576-.175-.084-.029-.163-.053-.234-.079l-.192-.078-.266-.11-.068-.03-.023-.011.025.007.07.025.268.101.194.074c.071.026.15.048.234.075.17.051.36.12.577.167l.339.084c.118.028.243.046.371.07.256.055.535.082.827.118.586.051 1.234.064 1.91.008a11.226 11.226 0 0 0 1.88-.346c.28-.087.55-.164.792-.262.122-.047.242-.087.353-.135l.319-.143c.206-.085.38-.186.538-.266.078-.042.152-.078.217-.115l.178-.108.246-.147.065-.037a.1.1 0 0 1 .024-.012ZM27.155 39.731a.203.203 0 0 1-.021.047l-.07.13c-.03.055-.068.123-.118.198-.05.076-.102.165-.172.254-.033.047-.068.095-.105.144-.038.05-.08.099-.122.15-.084.106-.183.209-.285.319-.212.214-.46.434-.74.64-.284.202-.571.367-.842.5-.137.063-.265.125-.392.171-.124.051-.242.09-.35.123-.108.038-.21.06-.296.083a2.3 2.3 0 0 1-.227.05l-.144.025c-.033.006-.05.007-.05.006 0-.002.016-.008.049-.016.037-.01.085-.02.141-.034a2.76 2.76 0 0 0 .223-.058c.087-.026.186-.05.292-.09.107-.035.225-.075.347-.128.124-.046.252-.11.387-.173.267-.134.55-.3.831-.5a6.36 6.36 0 0 0 .737-.632c.103-.108.202-.21.287-.313.042-.05.085-.098.123-.147l.108-.14c.07-.089.125-.176.176-.25.052-.073.093-.139.125-.193l.078-.124a.188.188 0 0 1 .03-.042Z" fill="#666B84"/><path d="M24.953 30.8c-.009.008-.167-.156-.286-.408-.121-.252-.148-.48-.136-.48.015-.003.063.214.18.458.116.246.254.42.242.43ZM25.86 29.832c-.012.005-.116-.202-.232-.463-.115-.26-.198-.477-.185-.482.012-.006.116.201.231.462s.198.478.186.483ZM26.843 28.91c-.014.005-.09-.193-.212-.422-.122-.23-.244-.403-.233-.412.01-.008.152.155.276.389.126.233.181.442.17.445ZM20.854 30.38c-.013-.003.052-.266.145-.586.05-.173.098-.327.133-.43v.002a.534.534 0 0 1 .038-.15.523.523 0 0 1-.006.155v.002c-.026.106-.068.262-.118.435-.093.32-.178.577-.192.573ZM19.848 28.315c.012.004-.037.187-.112.408-.074.221-.145.397-.158.393-.013-.005.037-.188.111-.409.075-.221.146-.397.159-.392Z" fill="#666B84"/><path d="M17.07 33.407c-.005-.161-.128-.3-.273-.371-.144-.072-.308-.09-.469-.107.236-.091.478-.186.662-.36.208-.196.32-.472.426-.74.242-.612.486-1.294.256-1.91-.036-.096-.054-.247.048-.26.068-.01.114.063.143.125l.29.637M23.365 34.158c-.04.389.02.788.174 1.147.143.333.381.643.717.78.335.136.774.052.968-.253-.405-.147-.816-.297-1.157-.559-.342-.261-.609-.656-.609-1.086" fill="#040000" opacity=".2"/><path d="m29.52 23.982-.03.03-.09.087-.35.327-1.297 1.197-4.29 3.933-.438.4-.017.016-.016-.015-4.1-3.55-1.224-1.068c-.142-.125-.252-.223-.33-.29l-.084-.077a.27.27 0 0 1-.028-.027l.03.023.089.073.335.284 1.234 1.056 4.11 3.539h-.033l.437-.4 4.3-3.923 1.307-1.184.358-.321.093-.082a.199.199 0 0 1 .034-.028ZM32.69 28.971c0 .004-.058.01-.165.017a2.507 2.507 0 0 0-.193.02c-.075.009-.16.016-.254.034a3.958 3.958 0 0 0-.306.058c-.11.022-.224.056-.345.09-.24.073-.5.168-.762.292-.261.126-.5.268-.707.409-.102.073-.2.14-.286.213a3.885 3.885 0 0 0-.238.2c-.073.061-.133.124-.187.176-.055.052-.1.1-.136.138-.073.078-.115.12-.118.118a1.038 1.038 0 0 1 .103-.13c.034-.042.077-.092.131-.146.053-.054.111-.119.183-.182.07-.065.147-.136.236-.206.085-.074.184-.143.286-.219.208-.144.448-.288.712-.416.264-.125.528-.22.77-.291.123-.032.24-.065.35-.085.11-.025.214-.04.31-.053.094-.016.18-.02.256-.028.076-.008.142-.01.195-.01a1 1 0 0 1 .166.001ZM33.069 39.2a.317.317 0 0 1 .02-.06c.018-.044.04-.1.07-.17.029-.073.07-.162.103-.27l.057-.171.032-.093c.01-.033.017-.067.026-.1.033-.139.078-.288.1-.453.012-.082.032-.166.039-.255l.022-.272a4.619 4.619 0 0 0-.106-1.208 5.231 5.231 0 0 0-.407-1.144 7.403 7.403 0 0 0-.492-.866c-.159-.235-.29-.423-.389-.548-.045-.06-.081-.11-.11-.146A.326.326 0 0 1 32 33.39a.32.32 0 0 1 .043.047l.117.142c.103.121.24.307.403.54.157.238.343.524.504.865.164.34.322.727.414 1.154.095.426.122.844.103 1.22l-.024.276c-.008.09-.029.174-.042.257-.024.166-.071.316-.107.454-.01.034-.017.068-.028.1l-.033.094-.061.17c-.036.108-.08.195-.112.268l-.078.166a.35.35 0 0 1-.03.057ZM28.611 38.491c.001-.008.097.046.279.026a.896.896 0 0 0 .62-.405c.187-.267.3-.647.425-1.058.121-.414.223-.88.286-1.374a9.293 9.293 0 0 0-.178-3.305l-.049-.205a.479.479 0 0 1-.014-.072c.002 0 .01.023.023.07l.059.202c.048.177.108.436.164.76a8.897 8.897 0 0 1-.247 3.937c-.129.413-.245.793-.44 1.065a1.012 1.012 0 0 1-.326.302.787.787 0 0 1-.32.102.576.576 0 0 1-.212-.018c-.047-.014-.07-.027-.07-.027ZM27.886 32.07a.64.64 0 0 1-.075.108 1.159 1.159 0 0 1-.097.12c-.041.044-.085.098-.143.147a2.034 2.034 0 0 1-.188.163c-.068.057-.149.109-.233.165-.171.104-.37.203-.59.279-.221.073-.44.115-.64.136-.1.006-.196.014-.286.01-.089 0-.172-.007-.247-.015-.076-.005-.144-.021-.203-.032a1.12 1.12 0 0 1-.15-.035.696.696 0 0 1-.125-.042c.003-.01.182.048.481.074.075.006.157.012.245.008.088.003.182-.007.28-.014.197-.023.412-.066.628-.137.216-.075.413-.17.583-.272.083-.054.164-.103.232-.158.072-.051.133-.106.19-.156.222-.201.33-.356.338-.35ZM29.093 31.022a.402.402 0 0 1 0 .102 2.766 2.766 0 0 1-.137.67c-.05.146-.116.303-.2.46a2.82 2.82 0 0 1-.765.9.374.374 0 0 1-.086.055c-.005-.007.11-.094.272-.258a3.216 3.216 0 0 0 .848-1.56c.049-.226.059-.37.068-.369ZM27.117 36.875l-.014.017-.044.047-.173.176-.643.643-2.15 2.122-.013.013-.016-.01a47.95 47.95 0 0 0-.14-.08l-2.71-1.564-.817-.479-.222-.132-.057-.036c-.013-.008-.019-.013-.018-.014 0 0 .007.002.02.01l.06.03.226.125.826.465 2.716 1.553.14.08-.03.003 2.16-2.11.655-.633.18-.17.047-.042c.01-.01.016-.014.017-.014ZM23.807 34.75c.001 0 .003.01.003.032a.252.252 0 0 1-.02.092.398.398 0 0 1-.262.215c-.145.048-.33 0-.493-.1-.165-.1-.324-.232-.5-.361-.348-.263-.66-.503-.886-.68l-.265-.21a.64.64 0 0 1-.093-.082.622.622 0 0 1 .105.067l.275.198c.23.169.547.404.895.668.175.128.335.264.493.362.156.097.326.144.46.104a.39.39 0 0 0 .254-.19c.035-.069.027-.117.034-.116ZM25.191 33.496c.003.007-.099.05-.259.13-.16.079-.377.196-.603.346-.227.15-.419.305-.554.422-.134.117-.214.193-.22.188-.005-.004.067-.09.197-.214a4.084 4.084 0 0 1 1.165-.774c.165-.072.272-.104.274-.098Z" fill="#fff"/><path d="M28.439 30.48c-.497 1.291-.587 2.612-.422 3.986.034.284.178.684.288.949.11.264.3.506.56.626.238.108.555.089.72-.115.116-.145.131-.346.115-.532-.041-.477-.253-.92-.434-1.364a11.754 11.754 0 0 1-.839-3.548" fill="#666B84"/><path d="M31.757 33.057c.495.394.844.968.967 1.588.033.166.052.34.142.485.09.144.278.245.43.172.188-.09.195-.352.15-.554a2.685 2.685 0 0 0-1.838-1.952" fill="#040000" opacity=".3"/><path d="M23.907 43.797c-.006.012-1.201-.658-2.667-1.495-1.467-.837-2.65-1.526-2.643-1.537.006-.012 1.2.657 2.667 1.494 1.466.837 2.65 1.526 2.643 1.538Z" fill="#fff"/><path d="M25.781 43.415a.574.574 0 0 1-.093.075l-.263.19a69.04 69.04 0 0 1-.879.612l-.266.182-.013.008-.012-.007c-.3-.165-.559-.31-.744-.417l-.215-.126a.37.37 0 0 1-.075-.05c.001-.003.03.01.083.035a55.84 55.84 0 0 1 .974.515l-.026.002.266-.182c.345-.237.659-.449.888-.6l.272-.177a.503.503 0 0 1 .103-.06Z" fill="#fff"/><path d="M27.918 42.557c-.336-.381-.91-.472-1.406-.362-.495.11-.935.387-1.37.648-.436.261-.895.516-1.4.573-.59.066-1.171-.144-1.754-.26-.582-.116-1.256-.113-1.69.293 0 0 1.856.632 4.084.284 1.635-.256 3.535-1.176 3.535-1.176Z" fill="#040000" opacity=".3"/><path d="M20.963 34.26a.967.967 0 0 1-.159-.016 2.374 2.374 0 0 1-.185-.03c-.072-.015-.154-.029-.244-.052a5.748 5.748 0 0 1-1.349-.498 6.465 6.465 0 0 1-.68-.409c-.2-.14-.372-.276-.51-.4-.07-.058-.13-.118-.183-.168a2.437 2.437 0 0 1-.133-.133.987.987 0 0 1-.106-.12c.003-.002.045.036.12.107.037.035.082.078.138.126.054.048.115.105.187.162.14.119.313.25.512.388.201.136.429.274.677.403a6.605 6.605 0 0 0 1.335.508c.088.025.17.04.24.057.072.018.133.03.184.039.1.02.157.033.157.036ZM15.355 38.076a.173.173 0 0 1-.015-.048l-.033-.136-.022-.1c-.008-.036-.012-.077-.02-.12-.01-.086-.03-.184-.034-.294l-.011-.172c-.004-.06 0-.122-.002-.186-.003-.13.01-.267.021-.412.033-.288.093-.604.194-.923.105-.319.24-.61.384-.862.076-.124.146-.243.224-.346.038-.052.072-.105.11-.15l.11-.133c.069-.086.14-.155.2-.218l.086-.086.077-.067.107-.092a.178.178 0 0 1 .04-.03c0 .002-.01.015-.033.038l-.1.098a7.28 7.28 0 0 0-.074.07c-.026.026-.052.057-.082.089-.057.064-.128.133-.193.22l-.107.134c-.037.046-.07.099-.107.15-.076.104-.144.223-.218.346-.14.251-.272.539-.376.854-.1.317-.162.628-.196.913-.012.143-.027.28-.025.407 0 .064-.004.126-.002.185l.008.171c.003.109.019.206.027.292l.015.12.018.1.024.139a.174.174 0 0 1 .005.049ZM17.522 31.899a.664.664 0 0 1-.107-.073l-.284-.21-.939-.69c-.368-.268-.701-.51-.94-.69-.12-.09-.216-.163-.281-.214a.585.585 0 0 1-.099-.085.642.642 0 0 1 .11.07l.29.2c.245.172.581.41.95.678.367.268.697.516.931.702.117.092.21.169.274.223a.69.69 0 0 1 .095.089Z" fill="#fff"/><path d="M27.742 12.672c.036.98 1.342 1.573 1.325 2.553-.007.42-.268.798-.32 1.216-.068.561.246 1.091.362 1.644.238 1.14.024 3.488-.96 4.113-.983.624-2.667-.402-3.82-.56M19.858 12.432c.038.526-.309.996-.659 1.39-.35.394-.739.805-.814 1.327-.135.925.77 1.783.584 2.699-.1.49-.502.885-.573 1.38-.07.48.187.948.506 1.313.318.365.354 1.53.636 1.924.296.415 1.107-.377 1.555-.132 1.014.556 2.232-.248 2.721-.392" fill="#352927"/><path d="M27.939 13.236c.013-.477-.428-.845-.872-1.02-.444-.175-.937-.24-1.332-.507-.35-.236-.586-.603-.883-.904a2.996 2.996 0 0 0-2.863-.77 2.998 2.998 0 0 0-2.075 2.117c-.17.68-.055 1.482.481 1.933.621.524 1.542.408 2.338.245.796-.163 1.697-.324 2.362.144.401.281.63.74.876 1.165.244.424.552.857 1.016 1.017.463.16 1.092-.116 1.11-.606" fill="#352927"/><path d="m21.6 24.343-.013-2.155s-1.739-.292-2.094-2.561c-.176-1.129-.116-2.979-.017-4.49.089-1.361.994-3.029 2.35-2.883l4.232 1.08a.798.798 0 0 1 .712.81l-.388 10.275a2.392 2.392 0 0 1-4.782-.076Z" fill="#FAD2C3"/><path d="M20.197 16.433a.29.29 0 0 0 .28.294.278.278 0 0 0 .3-.262.29.29 0 0 0-.28-.294.279.279 0 0 0-.3.262ZM19.875 16.1c.036.038.257-.125.57-.124.312-.003.542.16.575.12.017-.016-.02-.084-.119-.158a.798.798 0 0 0-.915.002c-.096.074-.129.143-.111.16ZM23.236 16.512a.29.29 0 0 0 .28.294.278.278 0 0 0 .301-.262.29.29 0 0 0-.28-.294.278.278 0 0 0-.3.262ZM22.953 16.165c.036.038.257-.124.57-.123.313-.003.542.159.576.12.016-.017-.02-.085-.12-.158a.796.796 0 0 0-.915.002c-.096.074-.129.142-.111.159ZM21.811 18.484c.001-.018-.193-.052-.508-.093-.08-.008-.156-.024-.17-.079-.018-.058.016-.144.055-.237l.237-.608c.33-.866.57-1.578.535-1.591-.035-.013-.331.678-.661 1.545l-.228.611c-.03.091-.083.194-.043.314.022.06.08.103.132.118.05.015.096.017.135.019.318.017.515.019.516.001Z" fill="#352927"/><path d="M21.964 22.738s.731.088 2.245-.817c-.025.005-.4 1.171-2.573.934l.328-.117Z" fill="#C8A399"/><path d="M22.89 14.615c.007.09.32.133.662.272.346.132.604.313.671.252.03-.03.002-.12-.092-.231a1.188 1.188 0 0 0-.462-.317c-.207-.08-.41-.1-.554-.083-.144.017-.227.064-.225.107ZM19.938 15.21c.068.06.264-.057.518-.112.251-.065.478-.05.513-.133.014-.04-.034-.102-.141-.149a.736.736 0 0 0-.446-.027c-.164.021-.277.067-.385.224-.075.09-.09.168-.06.198Z" fill="#352927"/><path d="M27.018 20.923c-.624.126-.68-.191-1.146-.625a2.05 2.05 0 0 1-.627-1.728c.071-.558.371-1.124.178-1.652-.255-.697-1.233-.911-1.492-1.607-.15-.405-.015-.878-.186-1.274-.16-.373-.553-.587-.934-.726-.382-.137-.79-.233-1.111-.482-.32-.249-.52-.719-.314-1.068 1.693.203 3.36.608 4.958 1.204.37.139.759.305.978.634.231.348.22.798.2 1.216-.094 2.037-.19 4.073-.285 6.11" fill="#352927"/><path d="M28.464 20.162c.001 0 .01-.009.025-.028.014-.02.039-.048.063-.09.05-.083.112-.216.149-.398.036-.18.04-.415-.037-.67a1.28 1.28 0 0 0-.528-.71c-.269-.19-.62-.322-.842-.624a.68.68 0 0 1-.123-.533c.03-.194.12-.385.197-.588a1.694 1.694 0 0 0-.029-1.355 1.486 1.486 0 0 0-.46-.572c-.204-.154-.452-.233-.696-.288-.246-.056-.491-.089-.719-.158-.226-.068-.444-.169-.6-.329-.163-.157-.231-.375-.262-.595-.03-.22-.047-.447-.107-.66a2.276 2.276 0 0 0-.612-1.072 1.795 1.795 0 0 0-.963-.479c-.331-.051-.643.01-.877.133-.237.12-.402.288-.508.44a1.173 1.173 0 0 0-.177.384c-.023.094-.022.146-.022.146.015.006.018-.213.231-.508.108-.144.27-.3.5-.412.228-.113.525-.167.842-.113.315.052.648.205.917.468a2.2 2.2 0 0 1 .58 1.037c.057.205.071.422.102.65.03.225.105.474.286.65.174.178.406.285.642.356.239.072.484.104.725.16.24.054.473.13.66.27.19.138.332.328.43.534.193.416.196.89.032 1.28-.075.2-.166.396-.198.608a.768.768 0 0 0 .143.595c.247.325.608.452.87.633.27.174.44.425.514.669.078.242.08.47.051.646-.063.36-.214.517-.199.523Z" fill="#322321"/><path d="M28.313 13.828s.02-.032.027-.104a.49.49 0 0 0-.075-.302.77.77 0 0 0-.379-.314c-.185-.071-.415-.069-.651-.02-.238.044-.484.14-.754.192-.265.05-.582.058-.82-.13-.242-.183-.363-.5-.487-.816a3.383 3.383 0 0 0-.524-.934c-.462-.576-1.089-.97-1.717-1.11a1.8 1.8 0 0 0-.906.024c-.275.085-.506.24-.664.429a1.047 1.047 0 0 0-.176 1.087c.053.126.12.21.17.26.051.05.083.07.084.067.012-.009-.124-.094-.218-.341a1.019 1.019 0 0 1 .194-1.028c.151-.175.372-.318.634-.396.261-.077.562-.08.863-.013.602.139 1.21.524 1.659 1.083.225.28.39.59.51.908.126.313.25.648.522.854a.858.858 0 0 0 .448.168c.155.015.304-.005.444-.032.28-.058.523-.156.752-.204.228-.05.447-.056.618.005a.74.74 0 0 1 .366.282.491.491 0 0 1 .088.28c0 .068-.015.104-.008.105Z" fill="#322321"/><path d="m21.886 20.628 1.014 1.473.195.852s.034-.27.089-.527c.054-.257 0-1.028 0-1.028l-.744-1.108s-.432-.609-.068-.973l.723.716s-.614-.854-.195-1.17l.595.503s-.169-.202.061-.364l1.534 1.477.19 2.474-.082 2.608 1.525 2.006-2.207 2.172s-2.07-3.374-2.191-3.888c-.122-.514-.006-3.345-.006-3.345s-.63-.91-.622-1.31c.008-.402.189-.568.189-.568Z" fill="#FAD2C3"/><path d="M23.631 28.192a.11.11 0 0 1-.017-.021l-.047-.067-.176-.268a24.943 24.943 0 0 1-.64-1.04c-.13-.229-.276-.482-.401-.78-.068-.15-.082-.324-.094-.496-.01-.172-.017-.352-.019-.537-.01-.741.009-1.579.04-2.498l.008.025a6.052 6.052 0 0 1-.505-.876 1.937 1.937 0 0 1-.094-.251.957.957 0 0 1-.029-.137l-.005-.072.003-.07a1.06 1.06 0 0 1 .054-.275.682.682 0 0 1 .146-.255l.036-.038.032.046 1.016 1.472.005.007.002.01.196.85-.095.005.063-.376.032-.189c.009-.06.013-.124.014-.188a8.625 8.625 0 0 0-.021-.792l.008.024-.446-.665-.23-.341c-.037-.058-.079-.114-.115-.178a1.443 1.443 0 0 1-.095-.193.949.949 0 0 1-.078-.393.548.548 0 0 1 .16-.374l.035-.034.034.034.723.717-.075.063a2.316 2.316 0 0 1-.302-.593.903.903 0 0 1-.046-.336.426.426 0 0 1 .164-.309l.032-.024.03.027.609.55-.071.064a.402.402 0 0 1-.068-.239.292.292 0 0 1 .125-.217l.032-.023.028.027 1.532 1.458.012.012.002.017.183 2.474v.004l-.091 2.609-.006-.018 1.075 1.451.282.388.071.1a.243.243 0 0 1 .023.036c-.001.001-.011-.01-.029-.031a41.188 41.188 0 0 1-.077-.096l-.294-.38-1.095-1.434-.006-.008v-.01l.072-2.61v.005l-.195-2.474.013.029-1.535-1.454.06.004a.195.195 0 0 0-.086.147.314.314 0 0 0 .052.177l.188.296-.26-.233-.61-.55.061.003a.328.328 0 0 0-.124.24c-.008.096.011.2.042.298.063.198.168.39.288.565l-.074.064-.723-.717h.07a.447.447 0 0 0-.13.308.85.85 0 0 0 .07.351c.025.063.056.123.089.181.033.058.073.113.112.171.077.115.153.23.23.343l.446.665.007.011.001.013c.017.27.029.537.021.802a1.816 1.816 0 0 1-.016.2l-.032.192-.063.37-.04.242-.055-.237-.194-.852.007.016-1.012-1.474.068.007a.607.607 0 0 0-.123.217 1.001 1.001 0 0 0-.05.253c-.018.168.05.331.115.488.14.313.316.6.493.864l.007.012v.013c-.037.918-.06 1.756-.056 2.494 0 .185.005.364.014.535.01.172.022.334.085.478.12.292.264.548.39.778.259.459.474.81.62 1.05l.165.274.042.07c.007.018.011.026.01.027Z" fill="#C8A399"/><path d="M24.082 22.571c-.014.001-.035-.161-.059-.423a31.115 31.115 0 0 1-.07-1.027l-.005-.11.013.03c-.252-.279-.474-.532-.63-.717-.155-.185-.245-.303-.236-.312.01-.008.118.093.287.267.169.173.399.418.652.697l.012.012v.018l.007.11c.022.401.035.765.04 1.028.006.263.002.426-.011.427ZM24.663 21.794c-.012.001-.032-.146-.053-.387-.022-.24-.045-.576-.066-.952l.015.033-.085-.084a31.908 31.908 0 0 1-.73-.734c-.183-.192-.291-.315-.282-.325.01-.01.136.096.332.274.195.18.46.431.75.714l.085.083.013.014.001.02c.02.375.03.711.034.954.003.242 0 .39-.014.39Z" fill="#C8A399"/><path d="M19.948 24.163s-.163-1.104-.315-1.497c-.153-.392-.574-.89-.574-.89s.23-.256.6-.039c.48.283.455.925.455.925l-.166 1.501Z" fill="#FAD2C3"/><path d="M20.068 22.767s-.261-1.83-.244-1.952c.017-.122.697-1.725.697-1.725s.401-.035.349.348a5.225 5.225 0 0 1-.192.802l1.08-1.255s.402.088.245.488c0 0 .365-.052.261.558l-.483.926.055.963.794-1.044s.384.236.192.62c-.192.383-.593 1.272-.593 1.272l.117 1.377s.203.766 0 1.167c-.204.4-.395.767-.395.767l-.364 3.343-2.364-1.484.689-3.358.156-1.813Z" fill="#FAD2C3"/><path d="M21.587 29.422c-.002 0 0-.02.002-.059l.014-.171.063-.662.252-2.456v-.006l.003-.006.215-.42.111-.22c.039-.074.08-.148.104-.224.048-.157.053-.332.042-.508a3.136 3.136 0 0 0-.086-.536v-.004l-.001-.003-.12-1.376v-.012l.004-.01.434-.936.112-.242c.038-.084.08-.158.09-.239.026-.16-.08-.323-.22-.416l.062-.012-.793 1.044-.08.105-.007-.131-.056-.963v-.013l.006-.012.483-.926-.005.014a.966.966 0 0 0 .01-.29c-.014-.095-.062-.18-.146-.202a.2.2 0 0 0-.07-.008l-.082.008.03-.075c.035-.091.046-.19.005-.267-.038-.078-.128-.132-.214-.155l.048-.016-1.082 1.255-.156.181.073-.229c.072-.225.133-.454.173-.682.01-.057.02-.116.022-.166-.001-.052-.011-.1-.037-.139-.05-.076-.165-.105-.264-.1l.04-.03-.398.948-.187.46c-.03.077-.06.153-.087.227-.006.018-.014.039-.018.055l-.007.023v.024c.001.036.004.077.008.116.067.634.154 1.236.23 1.8v.01l-.163 1.812v.004l-.521 2.462-.145.661-.04.171a.243.243 0 0 1-.017.057c-.002 0 .001-.02.007-.059l.031-.172.128-.665.49-2.468v.003l.15-1.812.001.009c-.08-.565-.169-1.165-.24-1.804a1.724 1.724 0 0 1-.009-.125v-.036l.01-.035c.006-.023.013-.04.02-.06.027-.078.057-.154.087-.23l.186-.463.395-.949.012-.027.028-.002a.51.51 0 0 1 .19.024c.06.02.122.059.161.118.04.058.053.128.054.192a1.337 1.337 0 0 1-.023.182c-.04.235-.102.466-.175.697l-.083-.047 1.08-1.255.02-.023.028.007c.06.015.11.039.16.072a.362.362 0 0 1 .121.134c.06.113.04.245-.002.349l-.053-.068a.285.285 0 0 1 .265.124.4.4 0 0 1 .062.168c.018.114.006.222-.01.324v.007l-.005.007-.483.926.005-.026.055.963-.088-.027.796-1.042.027-.035.036.023a.651.651 0 0 1 .204.216c.05.087.072.193.057.293-.013.102-.063.188-.098.267l-.113.242-.436.931.003-.021.114 1.377-.002-.008c.046.187.074.37.086.552.01.182.005.364-.05.536-.028.087-.07.162-.109.235l-.113.22-.218.418.003-.012-.282 2.453-.08.659-.023.17a.262.262 0 0 1-.011.058Z" fill="#C8A399"/><path d="M20.557 22.197c-.027.004-.11-.452-.187-1.018a20.212 20.212 0 0 1-.057-.458l-.002-.018.01-.013c.198-.277.342-.46.358-.45.016.01-.1.213-.285.5l.007-.03c.022.135.045.29.067.456.076.566.116 1.028.09 1.031ZM21.165 21.777c-.023.003-.085-.386-.15-.923l-.002-.017.01-.016.205-.303c.406-.593.753-1.061.775-1.046.023.016-.287.509-.693 1.102l-.208.301.008-.032c.053.539.077.932.055.934Z" fill="#C8A399"/><path d="m16.337 20.046-3.307-.813.025-.004a5.496 5.496 0 0 1-2.854.856 5.968 5.968 0 0 1-1.768-.258 5.474 5.474 0 0 1-1.724-.914 5.54 5.54 0 0 1-1.88-6.007 5.593 5.593 0 0 1 1.215-2.092 5.74 5.74 0 0 1 .958-.834c.179-.11.355-.225.54-.323l.28-.135.14-.067.146-.054a5.577 5.577 0 0 1 4.58.257 5.519 5.519 0 0 1 2.65 3.086c.205.604.3 1.21.304 1.784a5.483 5.483 0 0 1-.792 2.864v-.03l1.487 2.684-1.538-2.653-.009-.015.01-.015a5.441 5.441 0 0 0 .453-4.59A5.404 5.404 0 0 0 12.64 9.75a5.48 5.48 0 0 0-4.492-.245l-.143.052-.138.066-.275.133c-.18.095-.354.208-.529.316a5.65 5.65 0 0 0-.938.818 5.495 5.495 0 0 0-1.192 2.051 5.448 5.448 0 0 0 1.835 5.898 5.393 5.393 0 0 0 1.691.904c.59.187 1.18.257 1.74.262a5.45 5.45 0 0 0 2.822-.827l.012-.007.013.004 3.29.872Z" fill="#B1B5DB"/><path d="m9.658 12.104.175 2.761a.448.448 0 0 0 .892.021l.307-2.775a.352.352 0 0 0-.354-.39l-.674.009a.351.351 0 0 0-.346.373ZM10.985 16.838a.674.674 0 1 1-1.279-.425.674.674 0 0 1 1.279.425Z" fill="#B1B5DB"/></g></g><defs><clipPath id="a"><rect width="48" height="48" rx="24" fill="#fff"/></clipPath><clipPath id="b"><path fill="#fff" d="M0 0h48v48H0z"/></clipPath></defs></svg>