<svg width="48" height="48" fill="none" xmlns="http://www.w3.org/2000/svg"><g clip-path="url(#a)"><rect width="48" height="48" rx="24" fill="#fff"/><g clip-path="url(#b)"><g opacity=".21"><path d="M26.124 4.988 11.411 6.955l2.607 19.498 14.712-1.967-2.606-19.498Z" fill="#B1B5DB"/><path d="m28.788 24.532-.052.007-14.764 1.973-.007-.052-2.613-19.55.052-.007L26.17 4.93l.007.052 2.612 19.55ZM14.06 26.395l14.61-1.952L26.08 5.047 11.47 7l2.592 19.395Z" fill="#E0E0E0"/><path d="M12.68 7.696a.306.306 0 1 1-.601.112.306.306 0 0 1 .601-.112ZM25.718 5.407a.306.306 0 1 1-.601.112.306.306 0 0 1 .601-.112Z" fill="#E0E0E0"/></g><g opacity=".26" fill="#737797"><path d="M24.567 8.192c-.115.149-1.776 3.254-1.776 3.254l.83.098s-.83 2.653-.724 2.569c.107-.085 2.539-3.132 2.539-3.132l-1.213-.693.344-2.096ZM14.008 13.64c.12.098 2.046 2.282 2.046 2.282l-.65.236s1.172 1.978 1.07 1.93c-.102-.047-2.636-2.04-2.636-2.04l.845-.787-.675-1.621ZM14.866 10.22c.049.08.702 1.702.702 1.702l-.416.003s.268 1.355.22 1.307c-.049-.047-1.085-1.682-1.085-1.682l.636-.277-.057-1.053ZM26.067 16.118c.032.087.368 1.804.368 1.804l-.409-.075s.007 1.381-.03 1.325c-.04-.056-.749-1.857-.749-1.857l.677-.152.143-1.045ZM15.456 20.044c.024.09.755 1.678.755 1.678l.288-.299s.8 1.125.8 1.057c-.002-.068-.479-1.944-.479-1.944l-.638.272-.726-.764ZM20.356 9.716c.011.12-.149 2.349-.149 2.349l-.479-.229s-.453 1.706-.481 1.624c-.03-.081-.302-2.54-.302-2.54l.886.038.525-1.242Z"/><path d="M18.465 18.971c.003-.003.035.066.14.156a.97.97 0 0 0 .552.209c.261.024.58-.035.95-.084.368-.056.79-.125 1.23-.285a2.9 2.9 0 0 0 .648-.335c.21-.145.397-.337.564-.554.337-.436.58-.98.936-1.493.18-.256.389-.5.627-.724.117-.113.248-.217.375-.321.122-.106.248-.225.297-.378a.318.318 0 0 0-.014-.229.365.365 0 0 0-.168-.164c-.146-.077-.325-.057-.484 0-.322.12-.625.314-.886.553-.133.118-.24.259-.369.386a.92.92 0 0 1-.216.165.366.366 0 0 1-.273.035.407.407 0 0 1-.218-.164c-.054-.072-.092-.15-.132-.228a2.88 2.88 0 0 1-.186-.48 3.05 3.05 0 0 1-.114-.993c.013-.327.062-.644.109-.951.099-.61.175-1.205.066-1.745a2.143 2.143 0 0 0-.116-.386c-.024-.061-.054-.12-.083-.177a.398.398 0 0 0-.113-.144c-.098-.071-.235-.026-.315.056-.084.082-.112.204-.12.317-.006.115.002.23.003.342a9.827 9.827 0 0 1-.036.925 9.15 9.15 0 0 1-.135.95c-.048.258-.104.457-.17.58a.653.653 0 0 1-.12.173c-.002 0 .01-.015.03-.043a.884.884 0 0 0 .08-.135c.063-.123.115-.322.16-.58a9.555 9.555 0 0 0 .155-1.869c-.001-.112-.01-.226-.003-.345.007-.118.034-.25.128-.343a.367.367 0 0 1 .17-.098.245.245 0 0 1 .198.035c.058.041.094.1.126.158.03.06.06.118.085.181.052.124.092.256.12.393.113.55.037 1.151-.06 1.762a8.303 8.303 0 0 0-.107.944c-.013.323.017.655.113.977.047.16.108.319.183.471.039.076.078.153.127.22s.112.124.19.144c.076.024.16.006.234-.032a.844.844 0 0 0 .203-.155c.123-.122.233-.267.37-.387.266-.245.572-.44.904-.565.165-.058.361-.082.526.004.08.04.153.105.192.189a.37.37 0 0 1 .017.267c-.057.173-.19.294-.314.402-.13.106-.256.207-.374.32-.236.22-.444.462-.622.714-.353.507-.598 1.052-.94 1.492-.17.22-.361.414-.576.56a2.909 2.909 0 0 1-.66.337c-.445.16-.869.226-1.238.278-.37.048-.69.103-.956.076a.967.967 0 0 1-.557-.221.65.65 0 0 1-.106-.118c-.02-.028-.027-.044-.027-.044Z"/><path d="M18.582 14.657s-.038-.007-.094-.05a.494.494 0 0 1-.151-.265c-.037-.13-.044-.293-.064-.48-.019-.187-.043-.4-.074-.634a16.33 16.33 0 0 0-.12-.764c-.026-.132-.085-.27-.222-.322a.294.294 0 0 0-.203-.017.257.257 0 0 0-.154.137c-.06.135-.071.299-.069.46.003.162.025.327.049.495.047.337.11.683.174 1.039.065.356.127.703.175 1.041.049.338.08.667.096.98.034.625.07 1.188.172 1.65.098.462.25.816.382 1.045.065.115.124.199.163.256l.047.064a.12.12 0 0 1 .014.023s-.007-.006-.018-.02l-.051-.06c-.043-.056-.105-.138-.173-.253a3.53 3.53 0 0 1-.4-1.047c-.108-.464-.149-1.03-.186-1.655-.029-.625-.142-1.304-.274-2.014a25.98 25.98 0 0 1-.174-1.041 4.16 4.16 0 0 1-.047-.503c0-.165.008-.33.076-.482a.307.307 0 0 1 .184-.161.339.339 0 0 1 .237.02c.07.03.137.083.174.15a.672.672 0 0 1 .073.207 18.495 18.495 0 0 1 .18 1.404c.018.187.022.35.054.477.03.128.085.217.138.262.051.044.088.054.086.058Z"/><path d="M18.579 14.59a.741.741 0 0 1 .232-.228.93.93 0 0 1 .868-.024.53.53 0 0 1 .224.2c.05.097.078.197.114.303.034.105.06.219.084.333l.077.354a888.589 888.589 0 0 1 .251 1.162c.027.136.068.273.07.422 0 .075-.013.15-.047.22a.484.484 0 0 1-.563.233c-.142-.046-.235-.164-.299-.277a2.435 2.435 0 0 1-.152-.354c-.161-.473-.225-.918-.331-1.275-.101-.36-.235-.634-.353-.806-.058-.087-.111-.149-.146-.19a.442.442 0 0 1-.055-.065.526.526 0 0 1 .063.057c.037.04.094.1.155.186.125.17.266.446.372.807.112.36.18.805.342 1.27.042.115.088.234.15.344.061.11.148.214.27.252a.432.432 0 0 0 .499-.207.428.428 0 0 0 .041-.195c0-.137-.04-.275-.067-.411l-.086-.403-.161-.76-.075-.355a3.167 3.167 0 0 0-.081-.33c-.034-.102-.064-.209-.108-.295a.492.492 0 0 0-.205-.187.91.91 0 0 0-.48-.094.879.879 0 0 0-.36.103c-.179.107-.236.217-.243.21Z"/><path d="M19.705 14.373s.001-.021.012-.06a.403.403 0 0 1 .1-.145.874.874 0 0 1 .23-.155c.098-.043.213-.099.356-.1a.69.69 0 0 1 .417.16c.125.1.246.234.316.405.07.169.101.357.132.55a6.819 6.819 0 0 1 .078 1.202c-.006.195-.01.384-.05.563-.039.175-.124.345-.267.436a.384.384 0 0 1-.23.068.305.305 0 0 1-.2-.095.621.621 0 0 1-.146-.338c-.016-.108-.021-.2-.035-.273-.024-.148-.075-.218-.07-.22.001-.001.004.003.01.011a.635.635 0 0 1 .08.205c.018.074.026.167.044.272.02.102.054.225.145.317a.265.265 0 0 0 .175.08c.069.003.14-.022.203-.064.128-.084.207-.24.243-.41.037-.17.04-.359.045-.552a7.148 7.148 0 0 0-.077-1.194 2.37 2.37 0 0 0-.126-.538.973.973 0 0 0-.297-.389.657.657 0 0 0-.39-.157c-.13-.002-.245.049-.342.089a.907.907 0 0 0-.23.143c-.114.1-.119.193-.126.19ZM19.157 15.993c.007.013-.163.076-.371.026-.209-.049-.332-.181-.32-.19.01-.013.139.093.332.137.193.047.356.011.36.027ZM20.482 18.563c-.01.003-.049-.143-.152-.36a2.752 2.752 0 0 0-.937-1.087 2.732 2.732 0 0 0-.367-.209c-.217-.101-.363-.139-.36-.15.001-.003.038.005.104.021a.996.996 0 0 1 .118.036c.046.016.099.032.154.058a2.452 2.452 0 0 1 .787.532c.131.132.242.272.332.406.088.136.157.265.204.377.026.055.043.108.06.153a.94.94 0 0 1 .036.12.41.41 0 0 1 .021.103Z"/><path d="M21.437 14.289c.014 0 .01.149-.064.312-.074.164-.182.265-.192.255-.012-.01.073-.121.142-.277.071-.155.098-.292.114-.29ZM22.749 17.842s.07.056.14.198c.072.139.123.376.064.654-.03.138-.085.285-.173.427a1.472 1.472 0 0 1-.363.384c-.299.228-.69.37-1.102.475-.412.106-.817.18-1.19.168a1.856 1.856 0 0 1-.942-.267c-.24-.149-.39-.33-.466-.468a.74.74 0 0 1-.047-.093.519.519 0 0 1-.028-.07.264.264 0 0 1-.018-.06c.006-.003.03.081.111.213.08.131.231.304.468.446.235.144.558.243.923.25.366.01.765-.066 1.175-.171.41-.104.794-.244 1.086-.463.146-.109.27-.232.356-.369.086-.136.142-.277.173-.41a1.016 1.016 0 0 0-.045-.638c-.064-.14-.128-.202-.122-.206Z"/><path d="M22.827 18.496c-.005-.006.098-.09.259-.23a8.91 8.91 0 0 0 .683-.662l.026.044a4.653 4.653 0 0 0-.708.257c-.174.08-.276.136-.28.129-.002-.003.021-.02.066-.05a3.742 3.742 0 0 1 .908-.389l.092-.024-.065.069-.08.086c-.226.238-.45.434-.617.568a3.86 3.86 0 0 1-.203.153.317.317 0 0 1-.08.049ZM20.84 19.02c.002-.006.086.02.228.07.142.048.343.12.58.206l.037.014-.03.028c-.059.055-.082.146-.098.24-.015.095-.032.207-.106.297a.22.22 0 0 1-.244.071c-.08-.024-.146-.065-.209-.102-.124-.077-.238-.147-.352-.16l-.029-.003.012-.026c.07-.16.127-.292.17-.383a.773.773 0 0 1 .07-.139.756.756 0 0 1-.048.149c-.035.093-.087.227-.153.39l-.017-.03c.127.01.25.084.374.158.062.036.128.075.197.095.07.022.142.004.188-.055a.554.554 0 0 0 .095-.27c.018-.096.042-.2.117-.269l.008.041c-.235-.09-.433-.169-.572-.226a1.315 1.315 0 0 1-.218-.096ZM19.135 19.844a.438.438 0 0 1-.105.043 5.039 5.039 0 0 1-.293.088c-.25.069-.6.148-.991.2l-.09.012-.12.015.102-.065c.314-.2.579-.402.765-.554.186-.152.295-.251.3-.245a.402.402 0 0 1-.068.078 4.632 4.632 0 0 1-.208.195c-.18.16-.444.369-.76.57l-.018-.049.09-.011c.389-.052.738-.124.988-.183l.297-.072a.475.475 0 0 1 .11-.022ZM17.192 9.093c.022.192.052.403.088.614.183-.103.364-.196.391-.185l.058.03a8.306 8.306 0 0 1-.127-.842c-.002-.029-.005-.067.043-.089a.207.207 0 0 1 .153.003c.082.587.254 1.498.367 1.827.024.068-.179.045-.203.028-.064-.054-.117-.126-.11-.18.003-.025.043.008.037-.018-.044-.18-.09-.39-.133-.6-.117.05-.29.137-.44.22.061.337.138.66.219.893.023.068-.187.038-.211.02a7.708 7.708 0 0 1-.194-.806l-.094.056c-.056.035-.17-.068-.15-.107a1.65 1.65 0 0 1 .206-.142 8.124 8.124 0 0 1-.113-.894c.066-.013.149-.033.194-.009.02.051.048.1.046.157l-.027.024ZM18.833 10.034c-.01.095-.075.217-.19.257-.174.06-.367-.073-.466-.36-.146-.425-.097-.915.185-1.013.16-.055.266.024.29.095.004.011.006.027.006.027.024 0 .116-.03.121.029.018.288.044.553.108.739.037.108.08.174.16.147.123-.043.103-.207.071-.353 0 0 .066-.03.09.04.043.124.038.423-.14.485-.109.037-.2-.043-.223-.097l-.012.004Zm-.268.105c.138-.047.072-.653.042-.737 0 0-.08.012-.125-.014a.43.43 0 0 0-.001-.263c-.007-.021-.027-.078-.072-.062-.171.059-.083.657.002.904.05.145.093.193.154.172Z"/><path d="M19.235 9.244c.01-.172-.017-.4-.024-.528-.003-.063.051-.102.125-.11.053-.005.087.01.104.057.03.087-.024.26.036.432.01.033.057.06.094.046.094-.032.075-.18.089-.185.016-.006.042 0 .048.017.023.084-.003.243-.126.285-.138.048-.205-.031-.25-.132.001.142-.018.45.11.838-.043.051-.219.038-.236-.013-.024-.068-.028-.164-.185-.68-.073-.236-.143-.464-.064-.491.061-.021.152.008.152.008.037.129.067.313.107.454l.02.002Z"/><path d="M20.32 9.5c-.002.096-.036.286-.142.323-.212.073-.373-.166-.442-.368-.114-.331-.156-.92.161-1.029a.23.23 0 0 1 .151.011c-.03-.194-.094-.485-.113-.581-.01-.046.012-.057.021-.06.082-.028.178-.027.185.026.03.2.26 1.411.3 1.526.027.078.067.104.117.087.077-.027.074-.197.042-.343 0 0 .066-.031.09.04.043.124.038.423-.14.484-.102.035-.19-.024-.223-.118l-.008.002Zm-.255.172c.123-.042.115-.667.079-.773a.102.102 0 0 1-.087-.023c-.003-.07 0-.194-.027-.271-.013-.038-.036-.08-.071-.068-.17.059-.112.667.002.999.017.048.057.152.105.136ZM18.715 23.108l-.043.312c-.007.03-.018.05-.034.06-.015.011-.044.013-.088.007a2.087 2.087 0 0 0-.136-.022.392.392 0 0 1-.114-.032.167.167 0 0 1-.077-.069.244.244 0 0 1-.022-.115c.002-.039.002-.096.004-.17a15.68 15.68 0 0 1 .018-.56c.005-.109.011-.217.018-.326a9.72 9.72 0 0 1 .025-.318c.01-.102.021-.195.034-.277a1.18 1.18 0 0 1 .048-.205c.019-.055.04-.09.063-.104.112-.06.23-.12.351-.178.123-.059.244-.102.364-.132.121-.03.236-.04.346-.03.11.011.21.054.296.128.07.066.134.138.193.215a.968.968 0 0 1 .144.29.459.459 0 0 1-.007.308 1.014 1.014 0 0 1-.299.377c-.143.118-.315.23-.517.338a6.463 6.463 0 0 0 .32.295l.171.145c.057.047.11.087.158.121.04.03.058.054.055.072-.002.019-.016.04-.043.062a.218.218 0 0 1-.082.052 2.46 2.46 0 0 1-.084.02.392.392 0 0 1-.135.02.423.423 0 0 1-.176-.054 3.884 3.884 0 0 1-.339-.238 5.748 5.748 0 0 1-.19-.157 2.22 2.22 0 0 1-.174-.166 21.89 21.89 0 0 0-.049.331Zm.205-1.175c-.02.11-.044.228-.071.353a1.6 1.6 0 0 0 .568-.388.727.727 0 0 0 .133-.192c.026-.06.032-.105.02-.136-.027-.05-.095-.072-.204-.065a.85.85 0 0 0-.38.118c-.023.098-.045.2-.066.31ZM21.732 20.979a.791.791 0 0 1 .115.2c.049.129.084.272.107.43.022.158.029.32.019.482-.01.164-.038.322-.082.474-.045.153-.11.288-.198.406a.62.62 0 0 1-.205.163.844.844 0 0 1-.274.071c-.07.008-.144.012-.221.012a.812.812 0 0 1-.215-.027.798.798 0 0 1-.166-.068.472.472 0 0 1-.141-.113 1.108 1.108 0 0 1-.16-.263c-.044-.101-.078-.21-.1-.327a1.925 1.925 0 0 1 .112-1.11c.05-.119.114-.229.19-.331a.688.688 0 0 1 .454-.235c.108-.005.212 0 .314.013.1.015.188.04.26.076.082.042.145.09.19.147Zm-.691.296a.94.94 0 0 0-.104.213 2.284 2.284 0 0 0-.12.578 1.624 1.624 0 0 0 .048.538c.02.078.048.143.081.195.035.052.074.08.119.084.04.004.08-.013.115-.05a.553.553 0 0 0 .097-.161c.029-.07.053-.152.071-.249a2.286 2.286 0 0 0-.008-.898.951.951 0 0 0-.075-.229c-.032-.06-.067-.093-.105-.096-.042-.005-.08.02-.119.075ZM23.838 21.552c.023.031.038.08.043.146a.797.797 0 0 1-.008.225 1.04 1.04 0 0 1-.055.202.61.61 0 0 1-.129.184.857.857 0 0 1-.201.155c-.077.043-.15.074-.222.095l-.192.053a.65.65 0 0 1-.176.008.43.43 0 0 1-.173-.051.83.83 0 0 1-.24-.183 1.556 1.556 0 0 1-.209-.281 2.271 2.271 0 0 1-.296-1.146 1.51 1.51 0 0 1 .059-.386c.029-.1.071-.18.128-.24a.683.683 0 0 1 .33-.206 1.487 1.487 0 0 1 .467-.082.654.654 0 0 1 .122.026.432.432 0 0 1 .095.043.367.367 0 0 1 .075.063.949.949 0 0 1 .14.195 2.073 2.073 0 0 1 .117.246c.015.04.027.077.036.112l.009.044a.075.075 0 0 1-.003.039.089.089 0 0 1-.03.036.3.3 0 0 1-.065.036.683.683 0 0 1-.155.045.32.32 0 0 1-.235-.043.457.457 0 0 1-.097-.083.786.786 0 0 1-.067-.087.9.9 0 0 0-.095-.132c-.033-.037-.07-.051-.108-.043-.038.01-.063.053-.075.126a1.26 1.26 0 0 0-.014.26 2.564 2.564 0 0 0 .101.624c.03.091.066.179.106.263.04.084.082.157.127.218.044.061.089.108.135.14.046.033.088.044.127.032.075-.02.135-.138.178-.352.03-.154.135-.258.31-.313.07-.023.116-.02.14.012Z"/><path d="M24.877 20.28a9.16 9.16 0 0 0 .431.038c.064.004.118.005.163.005.045-.003.073.004.083.021.01.018.01.049-.003.092a.616.616 0 0 1-.08.172.354.354 0 0 1-.09.117.266.266 0 0 1-.169.054l-.125.003c-.053.002-.112.001-.178 0a9.138 9.138 0 0 1-.207-.006 3.142 3.142 0 0 1-.211-.015 26.807 26.807 0 0 0 .392.492c.02.018.03.035.03.052-.001.016-.01.034-.026.052a.363.363 0 0 1-.071.055c-.03.02-.063.04-.099.065a.447.447 0 0 1-.182.082c-.05.006-.1-.015-.15-.063a4.666 4.666 0 0 1-.182-.18 21.947 21.947 0 0 1-1.22-1.41c-.03-.045-.039-.083-.029-.113.01-.031.04-.061.088-.091a1.248 1.248 0 0 1 .445-.192.14.14 0 0 1 .057.001c.016.004.03.013.043.026.012.013.024.03.038.052.053.084.117.176.191.277.074.101.155.211.245.33-.014-.115-.028-.24-.041-.372a34.71 34.71 0 0 0-.09-.754 8.148 8.148 0 0 0-.043-.283c-.01-.051-.006-.087.012-.108.021-.024.056-.04.108-.047a.52.52 0 0 1 .155 0c.05.007.102.018.156.033.041.015.075.038.101.067.027.03.05.076.07.14.026.08.048.175.066.286.019.11.035.228.047.351.013.124.023.25.03.377.008.127.015.248.02.361.073.013.147.023.225.033Z"/></g><g opacity=".31" fill="#B1B5DB"><path d="M43.173 32.8c-.941-1.44-.905-3.545.22-4.847.348-.404.836-.756 1.368-.71.545.047.983.514 1.15 1.035.165.521.108 1.085.01 1.624-.136.753-.364 1.524-.887 2.083-.523.56-1.19 1.182-1.861.815ZM43.592 39.684c-.355-.828-.097-1.875.6-2.444.217-.177.5-.313.77-.242.276.074.46.354.498.638.038.283-.043.569-.141.837-.139.376-.326.752-.646.993s-.768.467-1.08.218ZM41.322 39.19c.258-1.277-.414-2.686-1.57-3.287-.359-.187-.8-.297-1.162-.116-.37.185-.548.637-.519 1.05.03.413.229.794.448 1.145.307.492.683.97 1.207 1.218.525.246 1.226.435 1.596-.01ZM41.485 35.737c.45-1.454-.313-3.218-1.587-4.053-.396-.259-.896-.439-1.338-.27-.453.172-.712.676-.726 1.16-.014.483.172.95.385 1.384.3.608.682 1.209 1.263 1.558.58.349 1.52.697 2.003.221Z"/><path d="M42.39 42.847a.308.308 0 0 1-.015-.07l-.03-.203-.02-.147a29.57 29.57 0 0 0-.034-.173c-.023-.124-.048-.266-.089-.42l-.058-.242-.076-.26c-.049-.18-.12-.367-.188-.566a10.969 10.969 0 0 0-.561-1.245 10.95 10.95 0 0 0-.728-1.156c-.129-.166-.245-.329-.368-.47l-.175-.206c-.058-.064-.115-.125-.17-.183-.105-.12-.21-.218-.3-.306l-.126-.124-.111-.098-.153-.137a.332.332 0 0 1-.05-.051.309.309 0 0 1 .058.041l.16.13.115.094.13.12c.093.086.2.183.308.3l.174.182.177.206c.127.14.245.302.376.468.248.342.503.732.735 1.161.23.431.414.859.561 1.255.066.2.136.389.183.571l.073.262.055.245c.038.155.06.298.08.423l.029.175.015.148.019.205c.005.046.006.07.004.071Z"/><path d="M42.357 43.108v-.028l.006-.085.03-.323.023-.233c.007-.086.009-.179.014-.279.007-.2.026-.427.02-.679l-.003-.395c0-.137-.014-.28-.02-.427-.01-.296-.051-.61-.087-.94-.09-.66-.231-1.379-.446-2.116a14.72 14.72 0 0 0-.779-2.017c-.15-.296-.288-.581-.44-.835-.076-.127-.142-.254-.216-.37l-.214-.332c-.131-.215-.27-.395-.386-.559-.06-.08-.112-.157-.164-.226l-.146-.183a138.917 138.917 0 0 0-.253-.321.14.14 0 0 1-.016-.025c.001 0 .008.006.02.02l.057.064a93.14 93.14 0 0 1 .361.427c.053.067.108.143.168.223.118.162.261.341.395.556l.218.33c.075.116.143.243.22.37.155.254.294.539.447.836.287.603.564 1.286.787 2.025.216.74.356 1.463.443 2.125.035.333.073.648.08.945.007.148.019.292.019.43l-.003.396c.005.253-.017.48-.029.68-.006.1-.01.194-.019.28l-.028.233a214.273 214.273 0 0 1-.054.406c-.002.018-.004.027-.005.027Z"/><path d="M44.808 28.982s-.003.01-.012.026l-.04.076-.162.287c-.034.063-.076.13-.116.208l-.125.253-.146.29c-.049.105-.095.217-.147.334-.05.117-.107.239-.16.368l-.156.405-.082.214-.076.224-.157.468c-.2.645-.389 1.364-.549 2.127-.155.764-.263 1.5-.343 2.17a25.117 25.117 0 0 0-.149 3l.005.33v.085l-.003.03-.004-.029-.006-.085-.016-.33a9.204 9.204 0 0 1-.01-.521 23.17 23.17 0 0 1 .128-2.486c.076-.673.183-1.41.338-2.177.16-.765.351-1.485.554-2.132l.16-.468.078-.224.084-.214c.055-.14.11-.275.16-.405.053-.13.112-.25.163-.368.054-.116.102-.228.152-.332l.15-.29.13-.251c.042-.077.086-.144.122-.206l.17-.281.046-.073c.012-.016.018-.024.019-.023ZM44.488 37.818c.004.002-.032.065-.1.175a9.414 9.414 0 0 0-.977 2.143 9.291 9.291 0 0 0-.36 1.772c-.023.23-.036.418-.041.548-.007.13-.012.202-.017.202-.004 0-.006-.072-.007-.203-.002-.13.005-.318.022-.55a8.126 8.126 0 0 1 .344-1.787 8.184 8.184 0 0 1 1.016-2.137c.075-.108.117-.166.12-.163Z"/></g><path d="M40.541 42.199h4.136l-.5 4.224h-3.12l-.516-4.224Z" fill="#767BA0" opacity=".51"/><path d="m43.12 47.593.352.455h3.133l.36-.44-3.845-.015Z" fill="#fff"/><path d="M44.516 43.44c0 .018-.858.032-1.916.032-1.06 0-1.917-.014-1.917-.031s.858-.03 1.916-.03c1.059 0 1.917.013 1.917.03ZM44.516 43.722c0 .017-.858.03-1.916.03-1.06 0-1.917-.013-1.917-.03s.858-.03 1.916-.03c1.059 0 1.917.013 1.917.03ZM44.464 43.995c0 .017-.828.03-1.85.03-1.021 0-1.85-.013-1.85-.03s.829-.031 1.85-.031c1.022 0 1.85.013 1.85.03Z" fill="#FBFBFB"/><path d="M41.173 33.095a.15.15 0 0 1 0 .04l-.01.115-.043.421c-.037.355-.092.845-.156 1.387l-.007.06-.002.018h-.018c-.531.009-1.01.014-1.355.016h-.408l-.11-.002a.14.14 0 0 1-.04-.004c0-.001.014-.003.04-.005l.11-.005.408-.013c.346-.01.823-.02 1.355-.028l-.02.019.006-.06a142.014 142.014 0 0 1 .224-1.805l.018-.114c.003-.026.006-.04.008-.04ZM40.233 31.832c.002 0 .003.015.003.042l.001.119-.004.436c-.005.367-.015.876-.029 1.437l-.001.066v.023l-.023-.002a13.01 13.01 0 0 0-1.39-.032c-.178.006-.32.013-.42.018l-.113.005h-.04c0-.002.013-.004.039-.008a8.724 8.724 0 0 1 .533-.044c.355-.02.848-.024 1.395.019l-.023.02a146.629 146.629 0 0 1 .043-1.504l.017-.435.007-.118a.161.161 0 0 1 .005-.041Z" fill="#fff"/><path d="M39.132 31.402c.003 0 .012.043.026.121l.061.333c.054.28.138.667.256 1.09l.012.045-.041-.02-.05-.024a3.56 3.56 0 0 0-1.452-.35c-.082-.003-.129-.004-.129-.007a.11.11 0 0 1 .034-.005c.022-.001.054-.004.095-.005a3.354 3.354 0 0 1 1.47.329l.05.024-.029.025a10.608 10.608 0 0 1-.293-1.433.721.721 0 0 1-.01-.123ZM45.643 30.973a.21.21 0 0 1-.04.022l-.122.053c-.11.048-.262.112-.447.19l-1.48.614a7.794 7.794 0 0 0-.08.033l-.02.008-.008-.019-.625-1.414c-.076-.176-.139-.32-.184-.427a9.031 9.031 0 0 1-.063-.159c.002 0 .01.013.022.038l.055.114c.05.105.115.248.196.422l.638 1.409-.027-.01.08-.034 1.486-.602.453-.178.124-.047a.17.17 0 0 1 .042-.013ZM41.167 37.506a.571.571 0 0 1-.019.107c-.014.068-.035.167-.057.29a7.129 7.129 0 0 0-.111.98l-.001.019-.019.001-.093.006c-.41.025-.781.045-1.05.057l-.319.013a.649.649 0 0 1-.117-.001c0-.003.041-.008.116-.015l.318-.026c.268-.02.64-.045 1.05-.07l.092-.005-.02.02a6.068 6.068 0 0 1 .196-1.272.557.557 0 0 1 .034-.104ZM40.355 36.341c.003 0 0 .039-.007.108l-.033.294c-.03.249-.075.594-.127.982l-.002.017-.017.001-.133.009c-.42.028-.8.072-1.073.107l-.324.044a.658.658 0 0 1-.12.012c0-.003.042-.013.117-.028a12.424 12.424 0 0 1 1.397-.177l.134-.008-.02.017c.053-.387.103-.732.14-.98l.046-.291a.53.53 0 0 1 .022-.107ZM39.399 35.84c.006 0-.02.113-.049.298-.03.184-.06.442-.067.732v.023l-.023-.003a6.471 6.471 0 0 0-1.088-.053c-.056.001-.088.001-.088-.002s.03-.008.087-.014a5.018 5.018 0 0 1 1.025.018l.07.009-.024.02a4.28 4.28 0 0 1 .13-.952.317.317 0 0 1 .027-.076Z" fill="#fff"/><path d="M28.879 42.905c.946-.014 1.9.2 2.703.7.364-.421.88-.69 1.415-.844.535-.155 1.094-.206 1.65-.255a14.54 14.54 0 0 0-5.768.399Z" fill="#E0E0E0"/><path d="m19.589 42.848.034 1.352c.431-.419 1.108-.495 1.69-.345.582.15 1.093.492 1.591.827-.23-.37-.24-1.03.023-1.377.264-.347 1.089-.474 1.468-.69-1.498-.048-3.312.121-4.806.233ZM16.896 44.21c-.143-.846-.84-1.514-1.624-1.86-.786-.344-1.659-.42-2.513-.491-3.407-.285-6.209-.451-9.615-.736l.13.183c1.955 1.147 4.361 1.042 6.61 1.317 2.19.268 4.33.927 6.288 1.939.215.11 2.543.802 2.695.614.083-.1-1.95-.837-1.971-.966Z" fill="#E0E0E0" opacity=".35"/><path d="M3.586 41.517c0 .009-.09.002-.23.025a1.307 1.307 0 0 0-.89.595c-.074.12-.102.205-.11.203a.85.85 0 0 1 .084-.218c.034-.065.084-.136.147-.209.065-.07.144-.142.236-.205.093-.061.19-.107.28-.14.09-.03.176-.05.249-.056a.85.85 0 0 1 .171-.004c.04.003.063.006.063.01ZM2.357 41.26c-.003.007-.08-.014-.207-.028a1.594 1.594 0 0 0-.497.024c-.191.04-.354.114-.464.179-.111.064-.173.115-.178.11a.62.62 0 0 1 .161-.137 1.394 1.394 0 0 1 .981-.207c.13.023.205.055.204.059Z" fill="#4D516E"/><path d="M21.664 45.601a.293.293 0 0 1-.054-.016l-.152-.055-.109-.04c-.04-.015-.085-.026-.132-.041-.096-.028-.202-.066-.325-.09l-.19-.046c-.067-.015-.137-.024-.21-.037-.143-.029-.3-.041-.464-.06a6.099 6.099 0 0 0-1.071.015 6.138 6.138 0 0 0-1.05.22c-.156.052-.306.099-.44.158-.068.028-.135.052-.196.082l-.177.085c-.114.051-.21.111-.297.159-.043.024-.084.046-.12.068l-.098.063-.136.087a.313.313 0 0 1-.05.028c0-.002.015-.014.045-.035l.131-.094.096-.066c.036-.023.077-.046.12-.072.085-.05.181-.112.295-.165l.176-.089c.062-.03.129-.055.197-.084.134-.061.285-.11.442-.164.318-.097.675-.18 1.056-.223.382-.04.749-.038 1.08-.011.165.019.323.033.468.063.072.014.143.024.21.04l.19.048c.123.027.23.067.325.098.047.016.091.029.131.044l.108.044.15.063a.22.22 0 0 1 .05.023ZM39.543 45.944s-.002-.05-.002-.15l-.003-.439-.004-1.683-.004-2.653-.001-.8c-.007-.274.031-.568-.094-.833-.114-.268-.372-.458-.658-.559a2.475 2.475 0 0 0-.926-.124l-14.717.005-16.366-.006-4.96-.007L.46 38.69l-.35-.003c-.08 0-.12-.002-.12-.002l.12-.002.35-.002 1.349-.004 4.96-.007 16.365-.007 14.716.005h-.001c.326-.013.646.025.94.128.29.103.556.3.674.577.06.135.088.282.093.424.004.143 0 .282.001.42v.8l-.005 2.654-.004 1.683-.002.44-.003.149Z" fill="#B1B5DB"/><path d="M32.117 43.965a.301.301 0 0 1-.05-.028l-.142-.087-.101-.064-.125-.07c-.09-.048-.19-.108-.307-.16l-.183-.087c-.063-.03-.132-.054-.202-.083-.14-.06-.293-.107-.455-.161A6.453 6.453 0 0 0 29.471 43a6.45 6.45 0 0 0-1.105-.02c-.169.018-.33.03-.479.058-.074.013-.147.021-.215.037l-.197.044c-.127.025-.237.062-.336.089l-.136.04-.113.04-.157.054a.24.24 0 0 1-.056.016c0-.001.017-.01.052-.024l.154-.063c.035-.013.072-.027.112-.044l.137-.043c.098-.03.209-.07.335-.096l.198-.047c.069-.016.142-.026.216-.04.15-.03.312-.043.482-.061a6.26 6.26 0 0 1 1.112.016c.393.046.761.13 1.089.229.162.055.317.104.456.166.07.03.14.055.203.086.063.03.124.06.182.09.118.053.217.116.306.167.045.026.087.049.123.072l.1.068.137.094a.296.296 0 0 1 .046.036ZM17.494 45.564a.141.141 0 0 1-.038-.013l-.106-.045a2.603 2.603 0 0 0-.169-.07c-.066-.024-.14-.056-.226-.084a3.847 3.847 0 0 0-.28-.087c-.1-.031-.21-.055-.324-.083a5.793 5.793 0 0 0-.76-.109 5.707 5.707 0 0 0-.768.004c-.118.01-.23.02-.333.036a3.98 3.98 0 0 0-.289.049c-.088.014-.166.036-.235.051a25.121 25.121 0 0 1-.288.075.151.151 0 0 1-.04.008c0-.001.012-.007.037-.016l.11-.038c.047-.016.106-.035.175-.053.069-.017.147-.041.235-.058.088-.019.185-.04.29-.054.104-.018.217-.028.335-.04.238-.02.5-.024.775-.007.274.02.533.063.765.114.116.029.226.054.327.087.102.029.195.062.28.093.085.029.159.063.225.09.066.027.121.054.166.077l.103.052c.022.012.034.02.033.02ZM26.443 42.497c0 .003-.04.008-.111.015a6.295 6.295 0 0 0-1.283.24 6.294 6.294 0 0 0-1.205.504.619.619 0 0 1-.1.049.629.629 0 0 1 .092-.064 5.353 5.353 0 0 1 2.19-.727 3.87 3.87 0 0 1 .305-.02c.072 0 .111 0 .112.003ZM38.318 49.038c-.012 0-.022-1.512-.022-3.377 0-1.865.01-3.377.022-3.377.012 0 .022 1.512.022 3.377 0 1.865-.01 3.377-.022 3.377Z" fill="#B1B5DB"/><path d="M34.571 48.226c-.012-.008 1.015-1.645 2.296-3.657 1.281-2.013 2.33-3.637 2.343-3.629.013.009-1.015 1.646-2.296 3.658-1.28 2.012-2.33 3.636-2.343 3.628Z" fill="#B1B5DB"/><path d="M6.774 30.291c0-.066.572-1.826.726-1.98.154-.155.535-.364.533-1.113-.001-.53-.643-1.133-.93-1.55-.205-.302-.44-1.497-.66-1.872-.22-.374-.436-.75-1.044-.954-.516-.174-.57-.128-1.083-.046-.361.057-.624.142-.227 1.023.396.88.902 1.893 1.012 3.059.11 1.166-.308 2.663-.308 2.663l1.98.77Z" fill="#A8AED5"/><path d="M7.381 25.144s1.096-.324 1.728.185c.633.51.68.664.787.972.108.309-.092.14.294.74.385.603.277.31.308.803.03.494-.2.91-.139 1.389.062.478.016.755.016.755l-1.882-.2-.402-1.697-1.08-2.052-.092-.726.462-.169Z" fill="#A8AED5"/><path d="M7.344 27.53c0 .004-.024.004-.067.002a.514.514 0 0 1-.08-.007c-.03-.005-.065-.008-.102-.019a1.26 1.26 0 0 1-.258-.09 1.496 1.496 0 0 1-.282-.181 1.483 1.483 0 0 1-.23-.245 1.255 1.255 0 0 1-.136-.237c-.017-.035-.027-.069-.038-.097a.533.533 0 0 1-.032-.143c.008-.002.03.091.098.227a1.424 1.424 0 0 0 .885.736c.147.042.243.047.242.055Z" fill="#939ABC"/><path d="M7.516 28.28c-.005-.007.105-.048.233-.203.125-.15.253-.434.221-.791a1.728 1.728 0 0 0-.16-.557 3.868 3.868 0 0 0-.343-.576c-.134-.196-.284-.396-.417-.62a2.648 2.648 0 0 1-.301-.745c-.07-.267-.123-.53-.22-.767a2.556 2.556 0 0 0-.373-.635 1.744 1.744 0 0 0-.5-.436 1.306 1.306 0 0 0-.278-.117 2.332 2.332 0 0 0-.272-.067 1.836 1.836 0 0 0-.838.022c-.193.054-.289.115-.291.109 0 0 .092-.066.286-.125.192-.061.49-.1.848-.036.09.014.182.038.276.065.095.027.192.066.286.118.188.102.363.257.514.442.152.186.282.404.382.645.099.243.153.508.222.772.034.132.073.261.122.384s.11.24.174.35c.13.222.278.423.413.62.134.196.255.39.343.584.088.193.142.388.158.569a1.11 1.11 0 0 1-.239.805.8.8 0 0 1-.174.153l-.053.03-.019.006Z" fill="#939ABC"/><path d="M14.36 36.3s-.788-.757-2.169-.935c-1.187-.154-3.387.542-4.2.963l-2.496 1.29s.512-1.861.624-2.73c.112-.87 1.073-5.767 1.073-5.767l-2.876-.729s-2.83 8.572-3.158 9.626c-.152.488-.317 2.685.634 3.136.84.398 7.006.786 7.006.786l4.694-2.604.868-3.036Z" fill="#737797"/><path d="m8.32 29.24-.147 7.151 2.846.323.357-.684-.536-6.93-2.52.14Z" fill="#737797"/><path d="M10.82 35.117c-.207-.01-.411.042-.612.094-.72.186-1.493.404-1.954.988l.028-.017a328.92 328.92 0 0 1 3.078-.8c-.118-.17-.332-.255-.54-.265Z" fill="#040000" opacity=".3"/><path d="M12.646 35.483a19.971 19.971 0 0 1-.09-.019l-.11-.025c-.043-.008-.094-.014-.15-.023a4.089 4.089 0 0 0-.968.004c-.408.044-.888.141-1.412.282-.523.147-1.1.301-1.67.565-.57.257-1.106.521-1.592.765-.485.244-.92.468-1.285.657l-.865.447c-.1.052-.179.092-.236.12l-.062.03a.085.085 0 0 1-.021.01l.02-.013c.015-.01.034-.02.06-.035l.231-.127.858-.46c.363-.193.797-.42 1.281-.665.485-.246 1.02-.512 1.594-.77.57-.265 1.153-.419 1.676-.563a9.14 9.14 0 0 1 1.419-.274c.41-.041.746-.026.973.01.057.01.108.017.15.027l.11.03a5.892 5.892 0 0 0 .088.027Z" fill="#767A97"/><path d="M5.518 37.58c0 .007-.132 0-.342.01-.211.01-.502.04-.814.118a4.175 4.175 0 0 0-.773.278c-.19.09-.303.158-.307.152a.368.368 0 0 1 .075-.054 3.593 3.593 0 0 1 1.818-.525c.107 0 .193.002.252.008.058.005.091.01.09.013Z" fill="#767A97"/><path d="M25.586 23.219a2.925 2.925 0 0 1 .97 2.526c-.056.453-.205.966.075 1.326.277.357.852.374 1.116.74.31.431.006 1.038.1 1.561.088.491.585.873 1.082.833a4.109 4.109 0 0 1-2.075.789l-.536-.757c.204.266.128.671-.093.923-.221.251-.55.379-.874.465a5.211 5.211 0 0 1-4.529-.953" fill="#251A18"/><path d="M16.856 26.839c.13-.343.336-.658.43-1.012.2-.763-.136-1.648.27-2.324.289-.481.866-.697 1.41-.837.544-.14 1.125-.254 1.543-.628.306-.275.491-.665.797-.94.435-.394 1.056-.505 1.642-.514.602-.01 1.221.077 1.75.367.527.29.953.809 1.021 1.408.034.292-.016.593.063.876.086.312.316.561.45.855.287.62.079 1.427-.47 1.832l-4.37 5.136c-.882.287-2.963-.206-3.603-.877-.639-.67-1.261-2.475-.933-3.342Z" fill="#251A18"/><path d="M25.685 25.24c-.114-1.217-.968-2.689-2.18-2.523l-3.764 1.075a.715.715 0 0 0-.618.744l.631 8.42h4.247c-.014-.739-.03-1.35-.03-1.343 0 0 1.551-.306 1.812-2.349.13-1.016.028-2.672-.098-4.024Z" fill="#FAD2C3"/><path d="M22.696 27.115a.261.261 0 0 1-.244.27.25.25 0 0 1-.276-.226.261.261 0 0 1 .243-.271.25.25 0 0 1 .277.227ZM25.337 26.927a.261.261 0 0 1-.244.271.25.25 0 0 1-.276-.227.261.261 0 0 1 .243-.27.249.249 0 0 1 .277.226ZM25.458 26.145c-.03.046-.265-.118-.57-.088-.304.025-.508.229-.546.189-.018-.018.01-.099.098-.19a.69.69 0 0 1 .89-.08c.103.073.144.148.128.169ZM22.636 26.339c-.038.042-.267-.142-.594-.143-.325-.006-.565.172-.6.129-.018-.02.02-.095.125-.176a.792.792 0 0 1 .48-.156.77.77 0 0 1 .473.167c.1.083.134.16.116.179ZM23.677 28.3c-.002-.017.171-.053.453-.097.072-.01.139-.026.15-.075.015-.052-.017-.128-.055-.21l-.228-.54c-.318-.767-.55-1.4-.52-1.412.031-.013.314.6.632 1.367l.22.543c.03.08.079.171.046.28a.18.18 0 0 1-.115.108c-.045.015-.086.017-.121.02-.284.024-.46.031-.462.015Z" fill="#251A18"/><path d="M23.972 31.613s-1.365.13-2.745-.643c0 0 .704 1.376 2.732 1.124l.013-.481Z" fill="#C8A399"/><path d="M22.677 24.944c-.026.077-.307.05-.634.1-.33.042-.592.147-.638.08-.02-.032.024-.106.13-.183.103-.077.27-.152.468-.18a1.07 1.07 0 0 1 .5.043c.122.045.184.104.174.14ZM25.329 24.818c-.055.066-.277.006-.543.011-.266-.003-.49.058-.543-.007-.024-.031.01-.096.106-.16a.83.83 0 0 1 .438-.118c.183 0 .343.053.437.115.096.063.129.127.105.16Z" fill="#22120E"/><path d="M18.907 24.045c.2-.28.544-.412.87-.52 1.405-.47 2.867-.771 4.344-.896.17.31-.019.712-.305.919-.286.207-.645.277-.98.385-.337.108-.684.283-.835.602-.16.339-.057.754-.2 1.101-.247.597-1.103.753-1.346 1.351-.184.453.06.954.104 1.44a1.78 1.78 0 0 1-.598 1.483c-.33.286-.77.434-1.206.422l-.06-5.237c-.004-.363 0-.755.212-1.05Z" fill="#251A18"/><path d="M15.196 28.281c.287-.233.641-.43.768-.778.183-.507-.202-1.13.086-1.585.261-.415.974-.36 1.22-.786.191-.332.003-.643.084-.939.08-.296.517-.538.82-.488l2.218 3.556c.168 1.166.361 1.792.082 2.457-.153.364-.347.718-.419 1.107-.072.389.008.837.317 1.083-1.426.046-2.724-.76-3.922-1.536l-1.268-.822c-.132-.085-.27-.177-.344-.314-.178-.325.072-.72.358-.955Z" fill="#251A18"/><path d="M16.43 30.023s.05.021.15.036a1.372 1.372 0 0 0 1.077-.315 1.39 1.39 0 0 0 .424-1.36 2.226 2.226 0 0 0-.24-.54c-.096-.177-.203-.358-.246-.562-.043-.2-.033-.435.104-.599.137-.167.38-.199.606-.278a.652.652 0 0 0 .314-.21.64.64 0 0 0 .115-.37c.009-.26-.091-.503-.127-.747a.805.805 0 0 1 .014-.363.506.506 0 0 1 .219-.279c.212-.137.475-.148.728-.16.255-.006.522-.05.743-.18a1.38 1.38 0 0 0 .526-.521c.12-.216.172-.451.217-.673.045-.223.085-.44.169-.633.083-.193.21-.357.357-.489.3-.26.668-.388 1.004-.4.339-.012.64.091.872.224.235.134.407.297.529.443.243.296.305.507.316.5a.135.135 0 0 0-.012-.037c-.01-.024-.022-.061-.045-.106a1.942 1.942 0 0 0-.765-.84 1.67 1.67 0 0 0-.897-.242 1.699 1.699 0 0 0-1.047.406c-.155.137-.29.309-.38.512-.088.202-.13.424-.176.646-.046.22-.097.448-.211.65-.115.199-.287.372-.497.488-.21.122-.454.163-.707.17-.251.01-.532.019-.77.171a.59.59 0 0 0-.252.324.888.888 0 0 0-.017.4c.04.26.137.495.128.734a.557.557 0 0 1-.098.322.572.572 0 0 1-.277.185c-.108.04-.224.065-.336.107a.68.68 0 0 0-.302.196c-.158.195-.163.452-.117.664.05.219.16.403.259.579.1.175.192.345.237.523a1.341 1.341 0 0 1-.392 1.309 1.359 1.359 0 0 1-.61.307c-.375.078-.587-.007-.587.008ZM14.646 27.485s-.03.033-.052.114a.511.511 0 0 0 .045.356c.037.07.092.144.173.2.081.054.186.09.3.094a.71.71 0 0 0 .641-.366.95.95 0 0 0 .121-.43 1.334 1.334 0 0 0-.078-.474c-.098-.313-.29-.622-.277-.982.004-.174.054-.361.187-.481.133-.123.33-.145.525-.137.195.002.406.037.618-.035a.538.538 0 0 0 .264-.202c.064-.093.1-.2.118-.309.037-.22-.006-.433-.022-.634-.022-.203 0-.4.06-.585a1.48 1.48 0 0 1 .702-.838c.317-.171.674-.175.996-.18.324-.001.638-.007.907-.1.269-.086.488-.225.655-.371.17-.145.288-.3.37-.432.164-.269.19-.444.19-.444-.01-.004-.048.168-.217.426a1.908 1.908 0 0 1-1.015.765c-.26.085-.564.088-.89.088-.322.001-.692 0-1.031.18-.334.174-.614.49-.744.88a1.47 1.47 0 0 0-.065.617c.018.207.057.414.023.614-.03.2-.142.385-.328.446-.183.064-.388.035-.588.031-.197-.007-.423.015-.58.16-.156.143-.207.352-.21.539a1.4 1.4 0 0 0 .105.535c.062.165.132.318.183.47.053.152.085.304.08.45a.899.899 0 0 1-.109.402.662.662 0 0 1-.589.35.531.531 0 0 1-.28-.082.505.505 0 0 1-.165-.181.51.51 0 0 1-.057-.337c.014-.078.039-.115.034-.117Z" fill="#100707"/><path d="M34.194 40.703c.031 0 .447-.258.576-.418.193-.24.962-1.344.962-1.344l-1.236-.965s-.56.717-.665 1.297l-.089.163-.521.134.973 1.133Z" fill="#FAD2C3"/><path d="m36.301 33.44-2.484 4.927a.192.192 0 0 0 .083.257l.48.25s.227-.057.294-.14c.064-.08 2.085-4.432 2.29-4.872a.127.127 0 0 0 .008-.087.328.328 0 0 0-.104-.16c-.045-.038-.217-.191-.367-.251a.159.159 0 0 0-.2.077Z" fill="#A8AED5"/><path d="M36.52 33.587a.278.278 0 0 1-.022.053l-.073.147-.266.542-.88 1.79c-.344.698-.658 1.33-.89 1.784-.116.228-.212.41-.28.536-.032.063-.06.111-.08.144a.263.263 0 0 1-.03.048.278.278 0 0 1 .023-.053l.073-.147.266-.542.88-1.79c.344-.698.658-1.33.89-1.784.116-.227.212-.41.28-.536.033-.063.06-.111.08-.143a.278.278 0 0 1 .03-.05ZM36.936 33.91c-.01.007-.08-.084-.188-.17-.108-.086-.212-.132-.207-.144.003-.011.12.02.234.11.115.091.17.198.16.204Z" fill="#8C90B6"/><path d="M36.627 34.151c-.058.032-.083.074-.103.138-.006.021-.006.052.015.059.012.003.024-.002.035-.008a.32.32 0 0 0 .098-.084c.017-.021.032-.05.024-.076-.008-.027-.038-.039-.069-.029Z" fill="#fff"/><path d="M36.53 34.702s-.117 1.506-.133 1.82c-.017.315 0 1.556 0 1.556s-.86 1.142-1.126 1.423c-.264.282-.53-.661-.53-.711v-.282l-.215-.62s-.678-.505-.496-.836c0 0 .066-.064.397.076s.497.355.497.355l.414.629-.15-.882s-1.009-.856-.678-1.286l1.109.893.248.613v-.778l-.248-.314s-.712-.596-.513-.927l.745.364s.182-1.341.678-1.093Z" fill="#FAD2C3"/><path d="M35.988 38.1c-.013-.002.015-.138-.02-.3-.034-.164-.114-.278-.104-.285.007-.009.11.1.147.275.037.175-.013.316-.023.31ZM36.368 36.382c-.009.008-.13-.113-.273-.27-.142-.159-.25-.293-.241-.301.009-.008.131.113.273.27.143.159.25.293.241.301Z" fill="#C8A399"/><path d="m33.336 39.554-2.745.395-.296 1.991.704.563s2.558-1.453 2.935-1.65l.374-.215-.142-.854-.884-.23" fill="#FAD2C3"/><path d="M34.338 40.063c-.001.002-.025-.007-.059-.037a.34.34 0 0 1-.094-.162.457.457 0 0 1 .015-.278c.035-.1.1-.198.177-.29.076-.091.153-.173.213-.255.06-.08.1-.162.121-.235.044-.147.006-.242.014-.243.002-.001.014.02.023.064a.44.44 0 0 1-.007.187.729.729 0 0 1-.119.25c-.06.087-.137.17-.212.26a.996.996 0 0 0-.172.276.445.445 0 0 0-.024.257.35.35 0 0 0 .077.158c.028.031.048.045.047.048Z" fill="#C8A399"/><path d="M14.609 35.866 12.9 36.957s-5.036.602-4.728 4.94l6.744 1.492 2.687-.414.783-1.483-2.015-5.627h-1.763Z" fill="#B1B5DB"/><path d="M27.12 33.757a1.994 1.994 0 0 0-1.956-1.192l-1.84.119-4.098-.025-1.297-.279c-1.744-.376-3.45.834-3.633 2.61l-.01.112c-.22 2.723-.059 6.206-.054 6.867.012 1.449.294 1.708.776 2.293.824.998 2.294 1.07 2.294 1.07l.686-2.175h4.136s2.004-.136 3.113-1.884c.224-.353.344-.687.563-1.204.897-2.114 1.782-5.254 1.782-5.254l-.462-1.058Z" fill="#B1B5DB"/><path d="M25.823 32.663s1.009-.201 1.784 2.294c.426 1.371 1.143 4.97 1.143 4.97l2.25-.3v2.875s-3.689.895-4.327.444c-.638-.45-1.341-5.34-1.341-5.34l.3-4.262.191-.681Z" fill="#B1B5DB"/><path d="M12.9 36.957a.202.202 0 0 1-.038.03l-.117.079-.085.056-.098.07c-.07.052-.15.108-.235.177l-.135.107-.14.12c-.099.083-.196.18-.301.278a7.655 7.655 0 0 0-.624.698 7.061 7.061 0 0 0-.52.779c-.067.128-.137.245-.188.363l-.078.168-.063.159c-.043.1-.072.194-.1.276l-.038.115-.026.098-.037.136a.205.205 0 0 1-.016.047.223.223 0 0 1 .007-.049l.03-.138.023-.1.035-.115c.025-.084.053-.179.094-.28l.061-.162.076-.17c.05-.119.12-.238.185-.368a6.74 6.74 0 0 1 .521-.785c.207-.264.424-.498.63-.7.107-.098.206-.195.306-.276l.143-.12.137-.105c.086-.068.168-.123.24-.172l.1-.068.087-.052a17.355 17.355 0 0 1 .165-.096Z" fill="#5C617C"/><path d="M25.21 32.532c-.5 1.733-.674 3.337-1.66 4.847-.205.315-.436.624-.748.835-.312.21-.719.31-1.072.18-.29-.106-1.032-.554-1.224-.795-1.218-1.528-1.982-3.163-2.486-5.225 0 0 1.89.126 4.043.139l3.146.019Z" fill="#FAD2C3"/><path d="M20.118 43.151c.431-.36.712-.803.889-1.336.177-.533.255-1.094.332-1.65l.261-1.893c-.738 1.26-1.294 2.607-1.518 4.028-.048.303.069.542.036.852Z" fill="#8D93B5"/><path d="M20.975 34.608 17.57 41.09l.517 3.722s1.38-.396 2.714-4.098c.536-1.487 1.933-5.686 1.933-5.686l-1.759-.422Z" fill="#FAD2C3"/><path d="m25.99 35.396.004.02.008.06.027.234c.021.202.05.496.074.86.024.363.042.797.033 1.28a9.085 9.085 0 0 1-.16 1.56 5.46 5.46 0 0 1-.512 1.48 4.047 4.047 0 0 1-1.444 1.558c-.087.055-.157.09-.204.118l-.054.029c-.012.006-.018.009-.019.008l.017-.012.052-.033c.044-.03.114-.068.198-.124.17-.113.41-.285.667-.54.258-.255.53-.596.751-1.022.225-.424.395-.928.506-1.471a9.27 9.27 0 0 0 .162-1.552 15.85 15.85 0 0 0-.024-1.277 33.57 33.57 0 0 0-.06-.86l-.019-.234a2.376 2.376 0 0 0-.004-.082Z" fill="#5C617C"/><path d="M19.954 42.3c-.761-.623-1.756-2.485-1.756-2.485-.558 0-.661 1.2-.856 1.665l-1.112 3.611c.464.152 1.511.497 2.157.22.447-.192 1.018-.635 1.206-1.084.193-.465.967-1.43.36-1.926Z" fill="#B1B5DB"/><path d="M17.676 36.603c.002 0 .004.013.008.039l.014.113a9.075 9.075 0 0 1 .03 1.805c-.046.54-.092 1.027-.108 1.38l-.02.42-.007.114c-.002.026-.003.04-.005.04a.154.154 0 0 1-.004-.04c0-.031 0-.07-.002-.114 0-.1.001-.243.007-.42.008-.355.05-.844.095-1.383.045-.538.04-1.028.021-1.381-.008-.177-.017-.32-.024-.42l-.006-.113.001-.04ZM17.573 41.154c.012.01-.203.205-.313.535a2.369 2.369 0 0 0-.1.429c-.017.112-.025.182-.032.182a.658.658 0 0 1 0-.186c.01-.114.033-.273.09-.44a1.27 1.27 0 0 1 .22-.392.537.537 0 0 1 .136-.128Z" fill="#5C617C"/><path d="M18.174 39.832c.003.008-.088.03-.203.117a.973.973 0 0 0-.318.452 1.906 1.906 0 0 0-.088.557c-.004.146-.003.237-.01.237-.005 0-.017-.09-.02-.237a1.662 1.662 0 0 1 .077-.571.928.928 0 0 1 .34-.464.613.613 0 0 1 .158-.078c.04-.012.063-.015.064-.013ZM19.727 43.833a.796.796 0 0 1-.128-.037 1.12 1.12 0 0 1-.147-.057c-.055-.025-.121-.05-.188-.089l-.106-.058c-.037-.02-.073-.045-.111-.07-.079-.046-.154-.107-.236-.169a3.188 3.188 0 0 1-.467-.471 3.208 3.208 0 0 1-.35-.564c-.04-.094-.082-.182-.11-.269-.014-.043-.03-.084-.041-.124l-.032-.117c-.022-.074-.03-.144-.042-.204a1.084 1.084 0 0 1-.02-.155c-.008-.086-.01-.133-.008-.133.01-.002.02.19.1.484l.034.116c.012.04.029.08.044.122.028.085.07.171.112.263.09.18.204.371.347.555.145.182.304.338.458.468.08.061.154.122.23.17.038.024.073.05.109.07l.104.06c.268.146.452.2.448.21ZM14.212 35.783l.002.02v.056l-.002.219c-.001.19-.011.465-.025.804a63.7 63.7 0 0 1-.07 1.192c-.029.449-.065.941-.084 1.458-.02.518-.019 1.012.004 1.46l.02.327c.009.105.02.208.03.307.017.2.048.382.07.55.053.336.102.606.145.791l.044.215a1.965 1.965 0 0 0 .013.075l-.007-.018-.014-.055-.053-.212a10.417 10.417 0 0 1-.159-.79c-.023-.168-.057-.352-.075-.551-.01-.1-.023-.203-.032-.309a72.429 72.429 0 0 0-.023-.328c-.024-.45-.027-.944-.007-1.463.02-.519.056-1.011.087-1.46a50.009 50.009 0 0 0 .118-1.994l.01-.218.004-.057.004-.02Z" fill="#5C617C"/><path d="M18.229 39.849c.954-1.71 1.78-3.39 2.72-5.178Z" fill="#FAD3BC"/><path d="M20.95 34.671c0 .001-.007.02-.024.055-.02.038-.044.09-.076.153l-.283.559-.942 1.84c-.371.718-.715 1.364-.97 1.827-.129.231-.233.419-.308.547l-.086.147a.295.295 0 0 1-.032.05.274.274 0 0 1 .024-.055l.08-.15.294-.554c.25-.467.588-1.115.959-1.832.37-.717.706-1.367.954-1.835l.295-.552.083-.149a.301.301 0 0 1 .032-.05ZM21.547 38.563c-.011-.004.246-.799.573-1.774.328-.976.603-1.764.615-1.76.011.004-.245.798-.573 1.774-.328.975-.604 1.763-.615 1.76Z" fill="#C8A399"/><path d="M28.688 39.964c.005.006-.094.073-.23.208a2.082 2.082 0 0 0-.557.995 2.092 2.092 0 0 0-.052.33c-.014.191 0 .31-.008.31a.302.302 0 0 1-.015-.082.808.808 0 0 1-.008-.098c0-.039-.004-.083 0-.131a1.88 1.88 0 0 1 .177-.733 1.87 1.87 0 0 1 .441-.612c.035-.035.07-.061.1-.086a.714.714 0 0 1 .08-.058.313.313 0 0 1 .072-.043Z" fill="#5C617C"/><path d="M17.588 40.49c-.105.167-.159.309-.117.53-.375.106-.62.46-.8.807-.199.382-.36.826-.23 1.237.054.166.204.338.373.293.156-.042.209-.234.224-.395.035-.36.021-.73.13-1.074.082-.259.183-.5.395-.71l.025-.688ZM26.087 36.317c.05.652.049 1.338.009 1.99-.041.653-.14 1.123-.33 1.815l.03.13c.504-.478.71-1.205.7-1.9-.01-.694-.21-1.37-.409-2.035Z" fill="#8D93B5"/><path d="M10.604 38.522c-.633.621-1.124 1.43-1.187 2.316-.01.142.019.325.158.359.121.03.229-.083.295-.19.2-.319.31-.684.45-1.033.503-1.246 1.419-2.342 2.58-3.016-.762.334-1.663.942-2.296 1.564Z" fill="#040000" opacity=".3"/><path d="M37.748 21.814h-7.195a.868.868 0 0 0-.867.868v7.92c0 .479.388.867.867.867h5.451v1.438l1.058-1.438h.687c.479 0 .867-.388.867-.867v-7.92a.868.868 0 0 0-.868-.868Z" fill="#fff"/><path d="m37.748 21.814.054.001a.864.864 0 0 1 .817.782c.01.167.003.346.006.541l.003 1.335.004 3.581.002 2.187v.29c.002.096-.003.199-.03.295a.877.877 0 0 1-.337.493.912.912 0 0 1-.585.17h-.622l.016-.008-1.057 1.438-.038.05v-1.5l.022.022h-5.341a1.02 1.02 0 0 1-.48-.081.885.885 0 0 1-.517-.772c-.004-.16 0-.315-.002-.472v-.932l.002-3.553V23.235l.001-.387c.001-.127-.005-.258.029-.383a.885.885 0 0 1 .812-.666c.121-.004.238 0 .355-.001l1.344.001 4.055.007 1.103.004.286.002c.065 0 .098.002.098.002s-.033.002-.098.002l-.286.003-1.103.004-4.055.007-1.344.001c-.117.001-.236-.002-.353.003a.846.846 0 0 0-.78.64c-.032.118-.025.245-.026.373v.387l.001.793.001 1.654.001 3.552v.932c.001.156-.001.315.002.471a.84.84 0 0 0 .492.734c.143.07.3.082.462.077h5.363v.022l-.002 1.437-.037-.012 1.059-1.437.005-.008h.632a.873.873 0 0 0 .563-.162.841.841 0 0 0 .323-.471.994.994 0 0 0 .029-.286v-.29l.002-2.186.004-3.582.003-1.334c-.001-.195.005-.376-.003-.54a.861.861 0 0 0-.646-.755.764.764 0 0 0-.209-.029Z" fill="#757A9E"/><path d="m34.063 24.6.863-1.843-.02 2.035 1.577-1.286-.903 1.825 1.98-.474-1.605 1.252 1.99.432-1.99.432 1.605 1.252-1.98-.474.903 1.825-1.578-1.287.021 2.036-.863-1.843-.864 1.843.022-2.036-1.578 1.287.903-1.825-1.98.474 1.605-1.252-1.99-.432 1.99-.432-1.605-1.252 1.98.474-.903-1.825 1.578 1.286-.022-2.035.864 1.843Z" fill="#A8AED5" opacity=".24"/><path d="m35.998 25.573-3.639.006.005 2.508 3.638-.006-.004-2.508ZM33.422 24.316c-.08-.089-.182-.182-.3-.166-.11.015-.184.122-.23.224a1.41 1.41 0 0 0-.127.558c-.002.091.011.194.083.25.076.06.184.042.278.022.255-.053.628-.058.883-.112a5.634 5.634 0 0 0-.587-.776Z" fill="#8C90B6"/><path d="M33.422 24.316a.322.322 0 0 1 .051.048 5.15 5.15 0 0 1 .551.717l.015.023-.027.006c-.254.055-.556.055-.865.112-.062.012-.127.026-.194.02a.21.21 0 0 1-.168-.1.372.372 0 0 1-.042-.18 1.372 1.372 0 0 1 .085-.48.83.83 0 0 1 .128-.247c.055-.068.136-.107.207-.099a.295.295 0 0 1 .158.072c.037.03.061.058.078.077.017.019.024.03.023.03-.003.004-.037-.037-.11-.093a.29.29 0 0 0-.15-.061c-.063-.005-.132.03-.181.094a.816.816 0 0 0-.119.238 1.427 1.427 0 0 0-.068.302c-.009.106-.025.23.028.326a.165.165 0 0 0 .135.079c.058.005.119-.008.181-.02.316-.058.617-.056.866-.107l-.013.03a6.159 6.159 0 0 0-.403-.576l-.124-.155a.325.325 0 0 1-.042-.056Z" fill="#757A9E"/><path d="M34.157 25.098c.11-.212.258-.4.418-.576.123-.136.267-.274.448-.298a.283.283 0 0 1 .233.063c.076.073.087.189.093.294l.04.734" fill="#8C90B6"/><path d="M35.39 25.315a.44.44 0 0 1-.014-.1 84.892 84.892 0 0 0-.023-.274l-.028-.406a.388.388 0 0 0-.067-.214c-.047-.06-.133-.084-.215-.077-.17.016-.303.134-.407.24-.105.111-.195.216-.266.307a2.808 2.808 0 0 0-.157.223c-.035.054-.053.085-.056.084a.38.38 0 0 1 .04-.093c.031-.057.08-.138.148-.233.069-.094.157-.202.262-.315.053-.056.112-.114.183-.162a.533.533 0 0 1 .25-.095c.091-.008.192.02.25.094a.42.42 0 0 1 .075.238l.019.407.008.275c.002.064 0 .1-.002.1Z" fill="#757A9E"/><path d="M33.846 25.084a.195.195 0 0 1 .083-.215.225.225 0 0 1 .234.002c.07.043.115.122.122.204" fill="#8C90B6"/><path d="M34.285 25.075c-.007.001-.011-.041-.044-.096a.233.233 0 0 0-.195-.12.191.191 0 0 0-.121.038.197.197 0 0 0-.063.085c-.022.058-.009.1-.016.102-.003.003-.03-.04-.013-.111a.21.21 0 0 1 .067-.107.218.218 0 0 1 .147-.05c.056 0 .108.02.145.051a.26.26 0 0 1 .077.098c.028.065.021.11.016.11Z" fill="#757A9E"/><path d="M35.648 25.8h-.459v2.28h.459V25.8Z" fill="#FBFBFB"/><path d="m35.999 25.573-1.197.002.004 2.509 1.197-.002-.004-2.509Z" fill="#040000" opacity=".3"/><path d="M36.292 25.08h-4.223v.72h4.223v-.72Z" fill="#8C90B6"/><path d="M35.718 25.08h-.469v.72h.47v-.72Z" fill="#FBFBFB"/><path d="M36.292 25.08h-1.844v.72h1.844v-.72Z" fill="#040000" opacity=".4"/><path d="M34.807 28.08c-.012 0-.022-.504-.022-1.125 0-.623.01-1.127.022-1.127.012 0 .022.505.022 1.127 0 .621-.01 1.126-.022 1.126Z" fill="#757A9E"/><path d="M33.745 25.8h-.556v2.28h.556V25.8ZM33.53 25.08h-.56v.72h.56v-.72Z" fill="#FBFBFB"/><path d="M36.292 25.8s-.002-.015-.003-.047l-.003-.139-.005-.533.01.01c-.848.007-2.423.012-4.222.012l.022-.022v.72l-.021-.021 3.008.007.891.007.24.003.062.002a.1.1 0 0 1 .021.002l-.021.002-.062.002-.24.003-.891.007-3.009.007h-.021V25.08l.022-.022c1.798 0 3.373.005 4.222.01h.011v.012l-.005.533-.003.14a.338.338 0 0 1-.003.048ZM34.874 24.723c.003.012-.143.06-.31.149-.166.086-.289.179-.297.169-.008-.008.106-.119.278-.208.17-.09.326-.121.329-.11ZM33.857 24.998c-.003.012-.175-.032-.39-.048-.217-.018-.393-.002-.395-.015-.002-.011.176-.047.398-.029.221.017.391.081.387.092ZM33.83 24.937c-.008.01-.092-.046-.2-.108-.107-.062-.198-.107-.193-.118.004-.011.105.017.215.08.111.064.186.137.178.146Z" fill="#757A9E"/><path d="M36.002 25.8c.001 0 .003.015.004.043l.003.124.005.468.008 1.652v.02h-.02l-1.82.002-1.823-.002h-.02v-.02l.009-1.652.005-.468.003-.123a.23.23 0 0 1 .003-.043c.001 0 .003.015.003.043l.004.123.005.468.008 1.652-.02-.019 1.822-.002 1.822.002-.02.02.008-1.653.005-.468.003-.123a.286.286 0 0 1 .003-.043ZM37.04 29.014c0 .012-1.288.022-2.876.022-1.589 0-2.876-.01-2.876-.022 0-.012 1.287-.022 2.876-.022 1.588 0 2.875.01 2.875.022ZM37.04 29.458c0 .012-1.288.022-2.876.022-1.589 0-2.876-.01-2.876-.022 0-.012 1.287-.022 2.876-.022 1.588 0 2.875.01 2.875.022Z" fill="#757A9E"/><path d="m30.654 24.633.452 1.16a.202.202 0 0 0 .385-.113l-.247-1.232a.158.158 0 0 0-.205-.118l-.287.096a.158.158 0 0 0-.098.207ZM31.869 26.48a.303.303 0 1 1-.606-.008.303.303 0 0 1 .605.008ZM37.336 26.225l.06-1.243a.201.201 0 0 0-.397-.054l-.276 1.225a.158.158 0 0 0 .138.192l.302.03c.09.008.169-.06.173-.15ZM36.98 24.043a.303.303 0 1 1 .55.254.303.303 0 0 1-.55-.254Z" fill="#CCD2EA"/><path d="m10.544 17.555 1.989-1.854-.021 2.727 2.19.274-1.954 1.863 1.88 1.999-2.575-1.453-.809 2.604-1.551-2.08-2.571 1.24.88-2.259-2.56-.833 2.235-.88-.864-2.243L8.7 18.166l.68-2.877 1.164 2.266Z" fill="#fff"/><path d="m12.749 20.565.13.135.372.393 1.42 1.5.049.051-.06-.037c-.35-.214-.75-.434-1.191-.671-.44-.238-.92-.491-1.415-.793l.019-.007-.828 2.58-.01.028-.017-.023-1.545-2.09.02.005-2.53 1.22-.04.02.015-.043.844-2.225.012.023-2.544-.826-.05-.017.049-.02c.618-.238 1.274-.49 1.937-.747l.301-.117-.01.026a14.405 14.405 0 0 1-.459-1.113c-.14-.373-.271-.746-.397-1.117l-.02-.06.05.04 1.885 1.496-.029.01.341-1.48.161-.721.076-.356.035-.178.016-.088.007-.044c.002-.013.002-.033.004-.035l.026-.026.005.01 1.179 2.306-.026-.005 1.977-1.879.024-.023v.034l.003 2.716-.01-.012 2.178.279.02.002-.014.013-1.454 1.385-.377.359-.13.122.126-.122.372-.36 1.45-1.396.006.015-2.179-.272-.01-.002v-.01l-.009-2.717.025.011-1.975 1.882-.015.015-.01-.02-1.181-2.304.031-.017c.006.029 0 .038 0 .056l-.007.044-.016.09-.035.178-.076.357-.16.722-.341 1.48-.007.028-.022-.018-1.887-1.496.03-.021c.125.37.257.743.397 1.115s.284.747.457 1.11l.01.02-.02.007-.301.116-1.938.748v-.035l2.543.827.018.005-.006.017-.846 2.228-.025-.022 2.532-1.218.013-.006.008.012 1.543 2.091-.027.005.832-2.58.005-.015.014.008c.494.303.973.557 1.412.796.44.237.841.46 1.19.675l-.012.014c-.612-.654-1.09-1.164-1.416-1.51l-.368-.395-.124-.136Z" fill="#B1B5DB"/><path d="m10.06 18.394.09 1.41a.229.229 0 0 0 .456.01l.156-1.416a.18.18 0 0 0-.18-.2l-.345.006a.18.18 0 0 0-.176.19Z" fill="#B1B5DB"/><path d="M10.738 20.81a.344.344 0 1 1-.653-.217.344.344 0 0 1 .653.218Z" fill="#8C90B6"/><path d="M45.856 30.23a.147.147 0 0 1-.038.017l-.112.038-.415.133a149.195 149.195 0 0 1-1.438.445l-.02.006-.006-.021c-.131-.53-.286-.997-.408-1.33-.061-.166-.113-.3-.15-.392-.015-.043-.029-.078-.04-.106a.161.161 0 0 1-.012-.039l.02.035c.011.024.028.058.048.104a11.01 11.01 0 0 1 .583 1.718l-.026-.016.063-.02c.537-.163 1.024-.31 1.377-.413l.419-.12.115-.031a.16.16 0 0 1 .04-.007Z" fill="#fff"/><path d="M45.651 29.16a.72.72 0 0 1-.107.062l-.296.163c-.25.14-.59.34-.955.586l-.038.026.005-.046.008-.055a3.548 3.548 0 0 0-.125-1.487c-.024-.08-.037-.124-.034-.125l.015.03.035.09a3.36 3.36 0 0 1 .15 1.498l-.007.055-.032-.02a10.611 10.611 0 0 1 1.267-.729.708.708 0 0 1 .114-.048ZM24.577 29.006c-.258-.164-.543.006-1.07-.045-.526-.05-.822-.241-.918-.144-.222.226.095.917.82 1.05.728.133 1.426-.697 1.168-.86Z" fill="#fff"/><path d="m22.735 35.029 1.486-3.795-.009-1.421-.003-.588c-.256-.076-.413.399-.413.399l-.002-.384c-.368-.109-.523.53-.523.53l-.331.69-.52.578.023-.035-.058.075-.079.088s.206-.289.203-.72c-.002-.43-.274-.397-.274-.397L21.2 31.705s-.305.843-.255 1.321c.051.479-.006 1.763-.006 1.763" fill="#FAD2C3"/><path d="M20.939 34.79v-.056l.003-.163.012-.626c0-.27.008-.601-.027-.981a2.458 2.458 0 0 1 .07-.608c.046-.212.108-.43.186-.657v-.001l.001-.002 1.033-1.658.005-.009h.01a.24.24 0 0 1 .161.05.302.302 0 0 1 .098.136c.04.105.04.218.035.327a1.34 1.34 0 0 1-.204.636l-.033-.027.078-.087v.001l.058-.075.035.025a1.963 1.963 0 0 1-.022.035l-.034-.026.519-.579-.003.005.277-.577.053-.111-.001.004c.038-.138.09-.27.175-.386a.432.432 0 0 1 .16-.142.307.307 0 0 1 .215-.017l.016.004v.016c0 .13 0 .257.002.383l-.042-.006c.037-.103.084-.2.15-.285a.383.383 0 0 1 .123-.108.223.223 0 0 1 .166-.02l.015.005v.016l.01 2.008v.007l-1.086 2.748-.307.77-.082.201a7.978 7.978 0 0 0-.03.069l.005-.018.02-.053.076-.205.297-.773 1.07-2.753v.007l-.016-2.009.015.02c-.091-.027-.183.034-.242.114a.967.967 0 0 0-.143.272l-.041.115-.001-.122-.003-.383.016.02a.264.264 0 0 0-.184.015.393.393 0 0 0-.144.13 1.143 1.143 0 0 0-.168.37l-.001.002-.001.002-.054.111-.277.577-.001.003-.002.002-.52.579-.034-.026.022-.035.035.024-.058.076-.001.001-.079.088-.033-.027c.118-.184.182-.402.197-.614a.75.75 0 0 0-.032-.31.266.266 0 0 0-.084-.12.2.2 0 0 0-.132-.041l.015-.01-1.038 1.655.002-.003a5.908 5.908 0 0 0-.189.65c-.046.21-.079.412-.072.6.032.381.021.713.018.983-.005.272-.014.483-.02.626l-.009.164a.955.955 0 0 1-.004.057Z" fill="#C8A399"/><path d="M22.34 31.114c.006.004-.039.074-.107.19a4.991 4.991 0 0 0-.243.465c-.084.187-.148.36-.19.488-.042.128-.066.208-.072.207a.882.882 0 0 1 .042-.216 3.377 3.377 0 0 1 .436-.96.897.897 0 0 1 .135-.174ZM22.801 31.858a.4.4 0 0 1 .036-.098c.028-.06.076-.144.148-.24.072-.095.167-.2.272-.316.104-.116.218-.244.306-.399.09-.153.127-.321.144-.475.016-.154.018-.295.024-.413.006-.118.016-.214.028-.28a.382.382 0 0 1 .025-.1c.004 0-.002.036-.008.102-.006.065-.012.16-.014.279-.002.118 0 .259-.015.416a1.2 1.2 0 0 1-.145.493c-.091.16-.209.29-.315.405-.106.114-.203.216-.277.308-.15.182-.201.321-.209.318ZM24.222 30.614a.606.606 0 0 1-.03.182 1.47 1.47 0 0 1-.171.411c-.094.149-.209.26-.295.334a.635.635 0 0 1-.15.106c-.005-.005.048-.051.13-.129.08-.078.187-.19.278-.334.09-.144.143-.29.178-.396.035-.108.053-.175.06-.174Z" fill="#C8A399"/></g></g><defs><clipPath id="a"><rect width="48" height="48" rx="24" fill="#fff"/></clipPath><clipPath id="b"><path fill="#fff" d="M0 0h48v48H0z"/></clipPath></defs></svg>