<svg width="48" height="48" fill="none" xmlns="http://www.w3.org/2000/svg"><g clip-path="url(#a)"><rect width="48" height="48" rx="24" fill="#fff"/><g opacity=".45"><path d="M36.374 40.622c-.127-.11-.413-.457-.193-.86.08-.149.252-.222.407-.287.155-.065.318-.122.446-.231.242-.206.308-.547.469-.821.184-.315.528-.551.89-.535.417.02.764.36.92.746.158.387.163.818.167 1.236.001.23-.009.492-.179.648-.156.144-.392.146-.604.139l-2.273-.07" fill="#8D93B5"/><path d="M40.721 34.372h-5.977l1.077 6.42c.047.28.25.496.51.572l.02.005c.019.005.036.011.054.014.04.008.08.013.121.014l.001.006.03-.004h2.664c.05 0 .099-.006.146-.015a.72.72 0 0 0 .604-.627l.52-4.424.023-.176h-.003l.206-1.752.004-.033Zm-1.127 4.095h-.614l.062-1.863h.71l-.159 1.863Zm.218-1.863h.587l-.218 1.863h-.528l.16-1.863Zm-1.752 3.928-.038-1.618h.884l-.054 1.618h-.792Zm-.955-1.618h.858l.038 1.618h-.77l-.126-1.618Zm.066 1.618h-.72l-.253-1.618h.847l.126 1.618Zm-.1-2.065-.145-1.863h.984l.043 1.863h-.883Zm.941 0-.043-1.863h1.013l-.061 1.863h-.909Zm-.053-2.31-.04-1.725h1.136l-.057 1.725h-1.04Zm-.06 0h-1.008l-.134-1.725h1.103l.04 1.725Zm-1.068 0h-1.067a602.64 602.64 0 0 0-.107-.667c-.111-.698-.153-.96-.176-1.058h1.216l.134 1.725Zm.035.447.145 1.863h-.883l-.09-.571-.204-1.292h1.032Zm-.798 1.863h-.577l-.313-1.863h.596l.294 1.863Zm.07.447.254 1.618h-.555l-.271-1.618h.572Zm2.773 1.618.054-1.618h.59l-.138 1.618h-.506Zm.146-4.375.057-1.725h.824l-.148 1.725h-.733Zm-3.632-1.725c.023.124.133.803.279 1.725h-.6l-.29-1.725h.61Zm4.513 6.1h-.461l.138-1.618h.514l-.19 1.618Zm.514-4.375h-.602l.148-1.725h.656l-.202 1.725Z" fill="#B1B5DB"/></g><g opacity=".15" fill="#B1B5DB"><path d="M14.602 18.317h-3.12v3.121h3.12v-3.12ZM14.602 21.896h-3.12v3.121h3.12v-3.12ZM18.213 18.317h-3.121v3.121h3.12v-3.12ZM18.213 21.896h-3.121v3.121h3.12v-3.12ZM21.726 18.317h-3.12v3.121h3.12v-3.12ZM21.726 21.896h-3.12v3.121h3.12v-3.12ZM25.337 18.317h-3.121v3.121h3.12v-3.12ZM25.337 21.896h-3.121v3.121h3.12v-3.12ZM28.85 18.317h-3.12v3.121h3.12v-3.12ZM28.85 21.896h-3.12v3.121h3.12v-3.12ZM32.46 18.317h-3.12v3.121h3.12v-3.12ZM32.46 21.896h-3.12v3.121h3.12v-3.12ZM35.974 18.317h-3.12v3.121h3.12v-3.12ZM35.974 21.896h-3.12v3.121h3.12v-3.12ZM39.585 18.317h-3.121v3.121h3.12v-3.12ZM39.585 21.896h-3.121v3.121h3.12v-3.12ZM43.1 18.317h-3.122v3.121H43.1v-3.12ZM43.1 21.896h-3.122v3.121H43.1v-3.12ZM46.71 18.317h-3.121v3.121h3.12v-3.12ZM46.71 21.896h-3.121v3.121h3.12v-3.12ZM14.602 25.314h-3.12v3.121h3.12v-3.12ZM14.602 28.893h-3.12v3.121h3.12v-3.12ZM18.213 25.314h-3.121v3.121h3.12v-3.12ZM18.213 28.893h-3.121v3.121h3.12v-3.12ZM21.726 25.314h-3.12v3.121h3.12v-3.12ZM21.726 28.893h-3.12v3.121h3.12v-3.12ZM25.337 25.314h-3.121v3.121h3.12v-3.12ZM25.337 28.893h-3.121v3.121h3.12v-3.12ZM28.85 25.314h-3.12v3.121h3.12v-3.12ZM28.85 28.893h-3.12v3.121h3.12v-3.12ZM32.46 25.314h-3.12v3.121h3.12v-3.12ZM32.46 28.893h-3.12v3.121h3.12v-3.12ZM35.974 25.314h-3.12v3.121h3.12v-3.12ZM35.974 28.893h-3.12v3.121h3.12v-3.12ZM39.585 25.314h-3.121v3.121h3.12v-3.12ZM39.585 28.893h-3.121v3.121h3.12v-3.12ZM43.1 25.314h-3.122v3.121H43.1v-3.12ZM43.1 28.893h-3.122v3.121H43.1v-3.12ZM46.71 25.314h-3.121v3.121h3.12v-3.12ZM46.71 28.893h-3.121v3.121h3.12v-3.12ZM7.442 18.317h-3.12v3.121h3.12v-3.12ZM7.442 21.896h-3.12v3.121h3.12v-3.12ZM11.053 18.317H7.931v3.121h3.12v-3.12ZM11.053 21.896H7.931v3.121h3.12v-3.12ZM7.442 25.314h-3.12v3.121h3.12v-3.12ZM7.442 28.893h-3.12v3.121h3.12v-3.12ZM11.053 25.314H7.931v3.121h3.12v-3.12ZM11.053 28.893H7.931v3.121h3.12v-3.12Z"/></g><g opacity=".29"><path d="M7.044 16.42h9.133V3.182H7.044V16.42Z" fill="#8D93B5"/><path d="M7.502 16.42h9.133V3.182H7.502V16.42Z" fill="#B1B5DB"/><path d="M15.499 4.616H8.636v10.37h6.863V4.616Z" fill="#fff"/><path d="m8.636 14.986.001-.05.002-.147.002-.57.007-2.135.01-7.468-.022.023 6.862.002h.001l-.025-.025.005 10.37.02-.02c-2.09.005-3.803.009-4.995.01l-1.38.006-.363.002c-.082 0-.125.002-.125.002s.04.002.12.002l.36.003 1.375.005 5.008.01h.02v-.02l.005-10.37v-.025h-.025l-6.863.002h-.023v.023l.011 7.482.007 2.131a297.097 297.097 0 0 1 .005.757Z" fill="#8D93B5"/><path d="M7.476 3.183c-.005.004.057.094.163.236a15.621 15.621 0 0 0 .88 1.069c.119.13.196.209.2.204a1.69 1.69 0 0 0-.174-.228l-.44-.533-.438-.534a1.776 1.776 0 0 0-.191-.214Z" fill="#8D93B5"/><path d="M8.6 14.953a8.482 8.482 0 0 1-1.197 1.496Z" fill="#fff"/><path d="M7.404 16.45c.004.004.085-.066.208-.19a6.629 6.629 0 0 0 .85-1.062c.093-.147.144-.242.138-.245-.006-.004-.067.084-.168.226-.1.141-.242.334-.407.541-.165.206-.323.387-.438.516-.116.13-.188.208-.183.214Z" fill="#8D93B5"/><path d="m16.634 16.41-1.196-1.477Z" fill="#fff"/><path d="M15.439 14.933c-.01.009.248.347.578.754.33.407.607.73.618.722.01-.009-.249-.346-.579-.754-.33-.407-.607-.73-.617-.722ZM16.634 3.183c-.01-.009-.27.302-.58.694-.31.392-.553.716-.542.725.01.008.27-.302.58-.694.31-.392.553-.717.542-.725Z" fill="#8D93B5"/><path d="M15.475 6.178c-.476-.514-1.374-.746-2.019-.473a1.762 1.762 0 0 0-1.045 1.673c-.653.108-1.157.698-1.309 1.342-.152.645-.004 1.328.256 1.938.105.249.231.493.28.758.05.266.011.566-.176.76-.223.232-.58.254-.878.376-.436.178-.748.582-.922 1.02-.173.438-.226.912-.277 1.38h6.053l.037-8.774Z" fill="#8D93B5"/><path d="M15.127 13.657c.006-.006-1.324-1.496-2.972-3.327C10.507 8.498 9.166 7.02 9.16 7.024c-.006.006 1.324 1.496 2.972 3.328 1.647 1.83 2.988 3.31 2.995 3.305ZM9.794 6.67c-.006.006.832.94 1.871 2.085 1.041 1.145 1.89 2.07 1.896 2.064.006-.006-.832-.94-1.872-2.085-1.04-1.146-1.889-2.07-1.895-2.064ZM10.178 9.49a37.414 37.414 0 0 0 .128.132l.352.355a50.654 50.654 0 0 1 2.244 2.42l.327.378.09.103c.02.023.031.035.032.034.001 0-.009-.014-.028-.038l-.085-.106a36.952 36.952 0 0 0-2.564-2.806c-.15-.149-.274-.267-.36-.348l-.1-.093a.246.246 0 0 0-.036-.03Z" fill="#FBFBFB"/></g><path d="M45.519 41.403c0 .013-8.957.024-20.003.024-11.05 0-20.004-.01-20.004-.024 0-.013 8.954-.024 20.004-.024 11.046 0 20.003.01 20.003.024Z" fill="#B1B5DB"/><g opacity=".52"><path d="M10.185 37.916s-1.82-2.094-2.507-4.19c-.687-2.094-.36-1.854-.36-1.854s.927 2.035 1.63 3.018c.705.983 1.958 2.425 1.958 2.425l-.72.601Z" fill="#C8CCE7"/><path d="M10.548 32.199c-.058-.103-.215-.05-.197.067.111.736.35 2.463.341 3.583-.012 1.455 0 2.017 0 2.017h.759s-.135-3.007-.306-3.924c-.12-.644-.375-1.358-.597-1.743Z" fill="#C8CCE7"/><path d="M10.96 37.621s.478-1.002.624-2.261c.063-.536-.048-1.26-.214-2.226a5.999 5.999 0 0 1-.096-1.07c.002-.187.248-.248.34-.085.091.163.356.72.423 1.07.183.953.391 1.43.232 2.335-.159.904-.745 2.298-.745 2.298l-.563-.06ZM11.644 37.683s1.998-4.295 2.136-4.932c.14-.638.61-2.106.665-2.023.056.083.139.86-.221 1.746s-1.898 5.34-1.898 5.34h-.682" fill="#C8CCE7"/><path d="M10.742 37.49a.38.38 0 0 1-.056-.038c-.036-.027-.09-.065-.155-.119a7.054 7.054 0 0 1-.537-.474A9.011 9.011 0 0 1 8.544 35a12.218 12.218 0 0 1-.99-2.145c-.1-.285-.173-.518-.22-.68-.025-.082-.042-.145-.054-.188a.423.423 0 0 1-.015-.066.42.42 0 0 1 .023.063l.061.185c.053.16.13.393.234.676.208.566.528 1.34.998 2.132a9.42 9.42 0 0 0 1.434 1.862c.214.212.397.374.526.482.064.056.116.096.15.125a.355.355 0 0 1 .05.045ZM10.961 35.43a.697.697 0 0 1-.018-.126l-.037-.345a22.77 22.77 0 0 0-.151-1.131c-.071-.44-.15-.837-.21-1.123l-.074-.338a.761.761 0 0 1-.022-.125.74.74 0 0 1 .038.121c.023.079.052.193.087.336a15.407 15.407 0 0 1 .386 2.602.75.75 0 0 1 .001.129ZM11.429 31.945c.001 0 .01.018.023.055l.06.16c.027.069.057.154.086.255.03.101.069.215.097.344l.05.202c.017.07.029.145.044.22.032.153.053.319.077.492.039.348.06.734.047 1.139a8.058 8.058 0 0 1-.129 1.132c-.036.171-.068.334-.112.484-.02.075-.037.148-.06.217-.021.07-.043.135-.063.198-.038.127-.085.237-.122.336a2.966 2.966 0 0 1-.104.249l-.07.155a.346.346 0 0 1-.028.053.303.303 0 0 1 .02-.057l.063-.158c.029-.068.063-.151.097-.25.034-.1.079-.21.115-.337l.06-.198c.022-.069.038-.142.058-.217.041-.15.072-.312.107-.483.062-.343.11-.724.125-1.126a8.366 8.366 0 0 0-.044-1.132c-.023-.173-.042-.338-.073-.49-.014-.076-.025-.15-.041-.22l-.047-.202c-.027-.13-.063-.243-.09-.344a3.683 3.683 0 0 0-.08-.258c-.02-.067-.038-.12-.052-.161-.01-.038-.016-.057-.014-.058ZM14.422 30.815l-.002.019-.009.056c-.009.049-.02.121-.04.213a8.58 8.58 0 0 1-.202.774c-.1.323-.236.7-.398 1.116-.161.416-.348.87-.526 1.351-.18.482-.32.951-.45 1.378-.129.427-.251.81-.37 1.126-.117.316-.23.566-.315.734-.041.085-.078.149-.102.192-.01.02-.02.036-.028.05a.077.077 0 0 1-.01.015l.007-.018.024-.051c.021-.045.055-.11.094-.196.08-.17.189-.42.302-.738.115-.316.234-.7.361-1.127.129-.426.266-.898.447-1.38.178-.484.367-.937.53-1.351.163-.415.302-.79.405-1.111.104-.32.172-.585.216-.768.022-.091.036-.163.047-.212l.013-.055a.084.084 0 0 1 .006-.017Z" fill="#8C90B6"/><path d="M8.26 29.866c-.126-.125-.335.006-.283.176.053.172.133.394.251.646.275.584 1.082 2.678 1.46 3.829.377 1.15.91 3.297.91 3.297l.807-.13s-.739-3.528-1.46-4.798c-.58-1.022-1.159-2.497-1.685-3.02Z" fill="#C8CCE7"/><path d="M9.909 35.236c.002 0 .017.033.042.097.024.063.056.155.092.27.075.23.166.552.257.909a31.953 31.953 0 0 1 .282 1.197.55.55 0 0 1 .017.104.522.522 0 0 1-.033-.1l-.074-.276-.233-.914a35.276 35.276 0 0 0-.244-.911l-.08-.274a.437.437 0 0 1-.026-.102ZM11.003 37.748 11 37.727a2.846 2.846 0 0 0-.01-.064c-.008-.055-.016-.139-.033-.244a10.36 10.36 0 0 0-.169-.89 12.699 12.699 0 0 0-.378-1.289 20.596 20.596 0 0 0-.608-1.529c-.474-1.067-.948-2.015-1.26-2.715-.157-.349-.28-.634-.36-.833-.04-.099-.07-.177-.09-.23-.01-.024-.016-.044-.022-.06a.074.074 0 0 1-.006-.02l.01.02.026.058.098.226c.085.197.211.48.372.827.319.697.797 1.641 1.272 2.71.236.536.443 1.054.607 1.534.164.48.287.92.37 1.295.082.374.13.681.155.894.015.106.02.19.026.246l.005.064v.021ZM11.404 37.683a.812.812 0 0 1-.027-.136l-.062-.37a14.864 14.864 0 0 0-.625-2.397l-.126-.355a.873.873 0 0 1-.043-.132.812.812 0 0 1 .058.126 11.789 11.789 0 0 1 .514 1.536 12.363 12.363 0 0 1 .3 1.59c.01.088.014.137.011.138Z" fill="#8C90B6"/><path d="M13.06 37.567H9.911v3.836h3.149v-3.836Z" fill="#EC6E5C"/><path d="M13.06 37.567H9.911v3.836h3.149v-3.836Z" fill="#A8AED5"/><path d="M12.056 37.567H9.261v3.836h2.793v-3.836Z" fill="#8C90B6"/></g><path d="m25.551 42.52 3.405 2.949-.05.56-8.842.375-1.88-3.316-.016-.549 7.383-.019Z" fill="#A8AED5"/><path d="m20.195 45.893 8.761-.424-.05.56-8.842.375-1.88-3.316-.016-.549 2.027 3.354Z" fill="#040000" opacity=".3"/><path d="m25.551 45.005-.634-.568-2.175.08-.223.662c1.188.197 2.107.149 3.032-.174Z" fill="#fff"/><path d="m25.551 45.005-.054.021c-.037.014-.096.038-.17.06-.145.048-.36.107-.633.155s-.604.08-.974.075a8 8 0 0 1-1.206-.114l-.028-.005.01-.026.104-.31.118-.352.006-.017h.016l2.176-.072h.007l.004.005.465.429.12.113.04.038a.846.846 0 0 1-.048-.04l-.13-.11-.468-.406.011.004-2.175.087.022-.016-.119.352-.104.31-.019-.032c.425.07.83.112 1.199.118a5.355 5.355 0 0 0 1.603-.205c.074-.019.125-.036.165-.046.04-.01.06-.017.062-.016Z" fill="#6A7194"/><path d="M24.05 45.196c-.013.001-.042-.139-.064-.313s-.03-.317-.017-.318c.014-.002.043.138.065.312.023.174.03.317.016.319ZM24.41 44.897c-.012.006-.063-.062-.114-.153-.05-.09-.083-.17-.07-.176.01-.007.061.062.113.153.05.09.082.169.07.176ZM24.726 44.748c-.01.01-.05-.01-.092-.046-.041-.036-.068-.073-.06-.083.01-.01.05.01.092.046.042.036.068.073.06.084ZM23.572 44.96c-.013 0-.022-.08-.006-.178.016-.097.049-.17.061-.166.013.004.002.08-.013.174-.015.094-.029.17-.042.17ZM23.174 44.851c-.011-.006.007-.062.041-.124.035-.063.072-.108.083-.101.012.006-.006.062-.04.124-.035.063-.072.107-.084.101Z" fill="#6A7194"/><path d="m22.643 41.403-.241 1.277-.144.532c-.015.241.12.462.362.47l2.878.005c.18 0 .267-.225.13-.343a.816.816 0 0 0-.307-.156c-.533-.16-1.423-.394-1.423-.394l.234-1.303-1.489-.088Z" fill="#FAD2C3"/><path d="M26.238 20.718s.909 1.046.997 4.428c.054 2.04-1.245 7.995-1.474 9.333-.156.91-1.752 8.23-1.752 8.23h-1.65s1.056-9.23 1.018-10.192c-.039-.961-.385-6.076-.385-6.076l-.5-3.885 3.746-1.838Z" fill="#737797"/><path d="m20.882 42.04-.046.725-.1.385c-.067.255-.028.402.114.652 0 0 .685 1.222.872 1.358.245.178 1.185.376 1.166.073-.02-.302-.814-2.404-.814-2.404l.206-.79-1.398.002Z" fill="#FAD2C3"/><path d="M18.723 21.634c.116.038 4.127.73 4.127.73s1.366 10.531 1.481 11.916c.116 1.384-2.075 8.429-2.075 8.429h-1.499s-.188-4.653.12-6.076c.307-1.423.307-1.77.115-2.654-.193-.884-2.168-5.117-2.668-7.463s.399-4.882.399-4.882Z" fill="#737797"/><path d="M23.194 25.146s0 .016.004.046l.014.135.061.518.236 1.903.79 6.277c.018.305-.02.61-.059.907a15.16 15.16 0 0 1-.15.875c-.112.57-.238 1.118-.366 1.638a81.803 81.803 0 0 1-.734 2.748c-.22.779-.408 1.407-.537 1.841l-.148.5-.039.13a.634.634 0 0 0-.011.045l.016-.043.043-.13.159-.496c.135-.432.326-1.06.552-1.837.225-.778.485-1.707.745-2.746.128-.52.257-1.068.37-1.64.057-.286.109-.579.15-.877.04-.3.078-.604.06-.917-.304-2.456-.597-4.672-.805-6.279l-.252-1.901-.071-.517-.02-.134c-.004-.03-.008-.046-.008-.046ZM22.864 24.598c-.005.006-.08-.059-.216-.146a2.316 2.316 0 0 0-.564-.261 2.306 2.306 0 0 0-.615-.098c-.16-.003-.26.009-.26 0 0-.003.024-.009.069-.017.045-.008.11-.014.191-.017a1.974 1.974 0 0 1 1.348.486c.033.032.05.05.047.053ZM24.94 23.268c.004.002-.005.029-.024.076a2.069 2.069 0 0 1-.09.197 3.244 3.244 0 0 1-1.092 1.216.274.274 0 0 1-.07.038c-.004-.007.088-.072.227-.189.14-.116.323-.287.501-.5.178-.212.314-.423.403-.58.09-.158.138-.26.146-.258Z" fill="#5F6481"/><path d="m18.556 15.072.693 5.332.147 1.46s3.807.885 6.01-.236a1.63 1.63 0 0 0 .505-.374c.266-.313.44-.444.191-.77l-.683-1.082s.783-1.725.454-3.112a807.233 807.233 0 0 0-.879-3.646l-1.82-.287-2.358-.034-1.915.24-.345 2.51Z" fill="#FAD2C3"/><path d="m25.936 16.553-.017-.188-.968-1.608-.471-2.193-.282-.046.462 2.212-1.873 2.026-2.363-1.963-.256-2.389-.289.022.297 2.417-1.08 1.31-.41.4v.243l.337 2.023 6.628.15.15-.609a5.425 5.425 0 0 0 .135-1.807Z" fill="#B1B5DB"/><path d="M24.415 19.475c.002.006-.097.045-.263.09a3.939 3.939 0 0 1-1.33.122 1.212 1.212 0 0 1-.274-.04c0-.008.106 0 .276.006a5.49 5.49 0 0 0 1.32-.121c.167-.036.269-.064.271-.057Z" fill="#C8A399"/><path d="m25.716 18.969-.22-1.627-1.16-2.262-.323.35.935 2.771c-.186-.016-.8-.088-1.249-.337 0 0 .382.632 1.365.68l.14.415.512.01Z" fill="#040000" opacity=".3"/><path d="M25.24 18.067a.277.277 0 0 1-.024-.057 25.665 25.665 0 0 0-.063-.165l-.223-.609-.72-2.016-.68-1.943.002.003c-.14-.265-.252-.483-.286-.651a.476.476 0 0 1-.005-.195c.006-.022.014-.038.024-.046.011-.007.018-.002.018-.002 0 .002-.007 0-.014.006-.008.008-.014.023-.018.044a.515.515 0 0 0 .015.189c.038.16.154.376.297.638v.001l.001.001.692 1.939.706 2.02.209.615.055.168a.291.291 0 0 1 .015.06Z" fill="#C8A399"/><path d="M22.41 17.342a.53.53 0 0 1-.069.105 1.763 1.763 0 0 1-.232.253 2.03 2.03 0 0 1-1.01.491 2.024 2.024 0 0 1-1.114-.132 1.831 1.831 0 0 1-.302-.162.536.536 0 0 1-.1-.077c.005-.009.148.103.415.207.263.105.663.19 1.093.116.431-.072.78-.283.995-.469.218-.187.316-.339.324-.332ZM25.241 18.194a.31.31 0 0 1-.086.014c-.055.006-.136.01-.236.008a2.665 2.665 0 0 1-1.465-.482 1.937 1.937 0 0 1-.185-.147.318.318 0 0 1-.06-.062c.004-.007.099.073.264.18.165.109.407.239.692.333.287.093.558.132.755.144.197.012.32.003.321.012Z" fill="#969CC2"/><path d="M19.759 15.4c-.012.019-.806 1.81-.806 1.81s.664 1.149 2 .977l.044-.006s-.928.444-1.837-.073l-.18.44-.271-1.622 1.05-1.525Z" fill="#040000" opacity=".3"/><path d="M22.762 16.783c-.008-.003.026-.099.046-.259a1.617 1.617 0 0 0-.323-1.184c-.099-.127-.176-.193-.17-.2.002-.003.022.012.058.04.037.029.085.076.14.138a1.444 1.444 0 0 1 .297.57 1.414 1.414 0 0 1 .031.641 1.047 1.047 0 0 1-.049.188c-.016.044-.027.067-.03.066Z" fill="#C8A399"/><path d="M24.133 20.986a.765.765 0 0 1-.57.03Z" fill="#F7BA9B"/><path d="M23.563 21.017c.004-.014.13.025.286.015.158-.007.278-.059.284-.046.007.01-.112.087-.28.095-.17.01-.297-.054-.29-.064Z" fill="#C8A399"/><path d="M23.657 22.167s-.948-.314-1.482-.457c-.654-.176-.642-.45-.576-.7.067-.251.478-.189.823-.358.215-.106.258-.246.26-.333a.056.056 0 0 0-.075-.054c-.34.12-.806-.11-1.135-.053-.35.061-1.194.422-1.194.422l-1.192-.719-.61 1.173.834.662c.309.268 1.356 1.128 1.465 1.174.127.052.616-.005.816-.032l.12.042c.919.306.862-.148.862-.148.777.047.627-.317.627-.317.785-.003.457-.302.457-.302Z" fill="#FAD2C3"/><path d="M25.693 21.251a.37.37 0 0 1-.074.065 2.33 2.33 0 0 1-.218.151 3.55 3.55 0 0 1-.795.369 3.708 3.708 0 0 1-.86.168c-.112.008-.203.01-.266.008a.369.369 0 0 1-.097-.008c0-.008.138-.01.36-.034a4.15 4.15 0 0 0 1.64-.533c.193-.11.304-.193.31-.186Z" fill="#C8A399"/><path d="M18.36 12.844s-.657.679-1.456 2.033c-.969 1.641-2.468 3.795-1.993 4.854.475 1.059 4.374 2.06 4.484 2.133.11.073.475-1.46.475-1.46l-2.44-1.623 2.508-3.641s.28-2.08-.36-2.44c-.664-.377-1.217.144-1.217.144Z" fill="#FAD2C3"/><path d="m19.086 19.915.022.01c.015.01.035.02.06.035l.235.137.882.524h-.013c.3-.125.646-.273 1.051-.393a.92.92 0 0 1 .324-.042c.112.006.224.026.337.047.113.02.228.04.347.046.058 0 .118 0 .176-.011.03-.004.057-.013.086-.021.034-.017.09 0 .105.041.02.15-.079.266-.188.338-.112.072-.24.113-.37.145-.129.032-.265.049-.384.101a.226.226 0 0 0-.129.128.698.698 0 0 0-.035.196.374.374 0 0 0 .195.328c.115.076.252.123.39.161.281.077.564.164.851.254l.636.204.005.002.003.004a.284.284 0 0 1 .06.083.13.13 0 0 1 .006.11c-.005.02-.02.031-.032.046a.519.519 0 0 1-.043.03.435.435 0 0 1-.091.035c-.125.033-.25.036-.372.039l.021-.033a.216.216 0 0 1-.043.221.39.39 0 0 1-.193.103c-.14.033-.279.031-.414.025l.024-.026a.245.245 0 0 1-.171.25.696.696 0 0 1-.296.023 2.525 2.525 0 0 1-.544-.143h.01c-.128.017-.254.03-.378.04-.124.009-.245.018-.367.006a.262.262 0 0 1-.091-.022c-.03-.016-.052-.032-.077-.049a5.896 5.896 0 0 1-.14-.1l-.265-.2c-.341-.262-.641-.5-.89-.714l.005.002c-.383-.123-.685-.222-.895-.29l-.237-.08-.061-.021a.076.076 0 0 1-.02-.009l.021.005.062.018.239.073.9.279h.002l.002.002c.25.21.552.447.894.707l.265.197c.046.033.092.067.14.1.023.014.048.032.071.043.023.012.05.016.08.02.231.015.48-.019.733-.05h.005l.005.002c.17.06.348.117.535.14.092.006.19.009.275-.023a.2.2 0 0 0 .142-.2l-.002-.028.026.002c.133.005.27.006.4-.025a.349.349 0 0 0 .17-.089.17.17 0 0 0 .034-.172l-.011-.032h.033c.12-.004.244-.007.36-.038.055-.014.117-.039.135-.084.021-.043-.016-.101-.054-.14l.008.006-.635-.205a23.08 23.08 0 0 0-.849-.253 1.384 1.384 0 0 1-.404-.168.494.494 0 0 1-.157-.155.382.382 0 0 1-.057-.213.756.756 0 0 1 .038-.211.272.272 0 0 1 .152-.155c.131-.056.266-.07.394-.103.127-.03.251-.07.356-.138a.431.431 0 0 0 .13-.126.285.285 0 0 0 .044-.144c0-.006 0-.01-.002-.014-.008-.019-.027-.028-.05-.018-.032.008-.062.018-.093.023a.865.865 0 0 1-.186.01c-.122-.007-.238-.028-.352-.048-.113-.02-.223-.042-.332-.048a.869.869 0 0 0-.312.039c-.401.115-.75.261-1.05.383l-.006.003-.006-.004-.876-.535-.23-.144-.06-.038a.073.073 0 0 1-.019-.01Z" fill="#C8A399"/><path d="M21.588 21.254a.391.391 0 0 1 .032-.316.78.78 0 0 1 .217-.241c.457-.36 1.067-.446 1.646-.49a5.304 5.304 0 0 1 1.001 0" fill="#FAD2C3"/><path d="M24.484 20.207c0 .004-.048 0-.134-.003a5.273 5.273 0 0 0-.363-.003 8.821 8.821 0 0 0-1.19.117c-.229.045-.443.11-.624.197a1.61 1.61 0 0 0-.44.298.497.497 0 0 0-.155.31c-.005.085.015.13.01.131 0 0-.008-.01-.014-.032a.297.297 0 0 1-.014-.1.5.5 0 0 1 .149-.333c.108-.114.26-.222.445-.314.184-.091.402-.159.633-.205.232-.046.456-.067.659-.082a7.12 7.12 0 0 1 .54-.021c.155 0 .28.009.366.018.086.01.133.019.132.022Z" fill="#C8A399"/><path d="M24.906 10.898c.006-.287.132-.556.24-.822.108-.265.203-.554.145-.835-.073-.353-.369-.615-.514-.945-.147-.332-.133-.708-.139-1.071-.005-.362-.04-.748-.26-1.036-.28-.364-1.067-.48-1.458-.24-.196 2.045-.822 4.087-.52 6.119a5.463 5.463 0 0 0 2.93-.493c-.278-.076-.43-.39-.424-.677Z" fill="#503E33"/><path d="m20.716 11.83-.213-4.926a.44.44 0 0 1 .41-.43l2.355-.498c.75-.05 1.21.888 1.227 1.64.02.834.011 1.853-.112 2.47-.247 1.242-1.21 1.363-1.21 1.363l.065.93a1.194 1.194 0 0 1-1.688 1.173l-.067-.03a1.198 1.198 0 0 1-.696-.972l-.071-.72Z" fill="#FAD2C3"/><path d="M24.27 8.69a.293.293 0 0 1-.293.285.28.28 0 0 1-.292-.276c0-.155.132-.283.294-.285a.281.281 0 0 1 .292.276ZM24.235 8.072c-.02.02-.139-.074-.31-.08-.172-.01-.303.074-.32.052-.01-.01.012-.046.069-.084a.44.44 0 0 1 .503.022c.052.043.068.081.058.09ZM22.617 8.677a.293.293 0 0 1-.295.285.28.28 0 0 1-.292-.276c0-.155.133-.283.294-.286a.281.281 0 0 1 .293.277ZM22.638 8.124c-.021.02-.139-.075-.311-.081-.172-.01-.302.075-.32.053-.01-.01.013-.047.07-.085a.44.44 0 0 1 .503.022c.052.043.068.082.058.09ZM23.134 9.408c0-.01.108-.024.282-.04.044-.002.086-.01.095-.04.011-.03-.005-.079-.025-.13l-.117-.34c-.162-.485-.277-.882-.258-.889.02-.006.167.381.33.866l.111.341c.015.051.041.109.016.174a.11.11 0 0 1-.075.062c-.028.007-.053.007-.075.007-.175.002-.283-.001-.284-.011Z" fill="#503E33"/><path d="M23.174 11.452s-.843.021-1.655-.512c0 0 .424.94 1.678.873l-.023-.361Z" fill="#C8A399"/><path d="M22.664 7.4c-.019.045-.19.016-.394.033-.203.012-.368.065-.394.022-.01-.02.02-.063.087-.106a.653.653 0 0 1 .295-.09.657.657 0 0 1 .305.048c.073.032.109.07.1.092Z" fill="#E0E0E0"/><path d="M23.676 7.288c.044-.027.158.052.309.102.15.054.288.064.305.112.007.023-.026.054-.093.072a.486.486 0 0 1-.27-.02.48.48 0 0 1-.224-.153c-.041-.055-.047-.1-.027-.113ZM23.547 5.965c-.177-.559-.637-.637-1.13-.728-.492-.09-1.244.079-1.673.336-.335.2-.714.458-.965.757-.24.287-.362.626-.522.964-.249.528-.276 1.127-.345 1.706a11.063 11.063 0 0 1-.475 2.142c-.082.25-.17.55.16.718.06.03.126.05.192.064.521.103 1.017.318 1.598.397l.36.023c.457.032.711-.265.723-.662.034-1.2-.383-3.202-.417-3.583-.001.001-.012-2.659 2.494-2.134Z" fill="#503E33"/><path d="M23.38 5.966c-.169.103-.256.302-.296.497-.04.194-.043.396-.093.588-.099.385-.399.712-.773.844-.12.042-.28.052-.345-.057a.686.686 0 0 1-.46.624c-.19.062-.397.036-.593.066-.198.03-.41.15-.434.348l.012-1.389.472-1.197 1.244-.631 1.267.307Z" fill="#503E33"/><path d="M21.107 8.104c-.002-.003.048-.023.12-.085a.831.831 0 0 0 .212-.336c.06-.16.092-.36.123-.584.032-.223.06-.472.134-.723.076-.25.2-.478.37-.632a.814.814 0 0 1 .552-.219c.173 0 .308.062.383.12.02.013.036.028.049.04a.21.21 0 0 1 .032.034l.024.03c-.003.003-.033-.042-.11-.097a.65.65 0 0 0-.379-.11.786.786 0 0 0-.536.218 1.386 1.386 0 0 0-.362.622c-.074.249-.102.497-.135.72a2.794 2.794 0 0 1-.13.586.82.82 0 0 1-.221.337c-.075.062-.127.079-.127.079Z" fill="#3A2821"/><path d="M20.078 7.867c0-.005.07.005.186-.033a.95.95 0 0 0 .404-.31 1.39 1.39 0 0 0 .32-.685c.028-.142.044-.293.072-.45.014-.077.03-.156.054-.235.024-.078.056-.156.095-.23.162-.3.435-.508.712-.6.28-.095.556-.068.764 0 .21.068.359.175.45.257.091.083.13.14.13.14l-.01-.009a5 5 0 0 0-.066-.07c-.017-.015-.036-.035-.06-.054a1.281 1.281 0 0 0-.45-.248 1.208 1.208 0 0 0-.751.004c-.272.091-.54.297-.698.59-.039.073-.07.15-.094.226-.023.078-.04.156-.053.233-.028.155-.044.307-.072.45a1.406 1.406 0 0 1-.129.393 1.8 1.8 0 0 1-.2.298.94.94 0 0 1-.415.308.575.575 0 0 1-.14.026h-.037l-.012-.001Z" fill="#3A2821"/><path d="m21.873 7.838-.002.012c0 .009-.003.02-.005.034l-.01.056c-.007.021-.014.046-.021.074-.02.055-.045.123-.093.193a.69.69 0 0 1-.203.2c-.18.118-.447.161-.73.128a2.108 2.108 0 0 1-.882-.312l-.027-.019.034-.003c.176-.013.357-.054.532-.126l.01-.003.005.022a1.66 1.66 0 0 1-1.065-.266l-.02-.014.023-.006c.255-.064.484-.157.662-.28.178-.123.3-.278.363-.422.065-.145.072-.273.08-.357l-.001-.098v-.026l.001-.008.001.008.002.026.005.098c-.006.085-.01.215-.075.363a1.04 1.04 0 0 1-.365.431 2.05 2.05 0 0 1-.667.287l.004-.02c.282.187.66.298 1.05.26l.081-.007-.075.03-.01.004c-.176.072-.36.114-.539.127l.006-.02a2.09 2.09 0 0 0 .87.311c.28.033.543-.008.72-.122a.68.68 0 0 0 .201-.193c.048-.068.074-.135.095-.189l.023-.074c.006-.021.009-.04.012-.054l.008-.034c0-.007.002-.01.002-.01ZM19.059 11.45c-.007-.002.117-.705.276-1.57.159-.866.293-1.567.3-1.565.006.001-.118.704-.277 1.57-.159.865-.293 1.566-.3 1.564ZM19.753 11.67l-.003-.03-.001-.087v-.317a18.723 18.723 0 0 1 .191-2.399l.014-.085a.205.205 0 0 1 .006-.029l-.002.03a6.94 6.94 0 0 1-.009.086c-.009.077-.02.184-.036.315a26.225 26.225 0 0 0-.147 2.083l-.008.316a4.216 4.216 0 0 0-.005.116Z" fill="#3A2821"/><path d="M23.255 12.46s.07-.265.185-.42c.114-.153.37-.62.37-.62l.016-.205s-.396-.791-.22-1.08l.096-.03s-.156-.211.004-.377l.145.008.591.868-.35-.899s.01-.222.162-.261l.633 1s-.223-.447-.202-.553c.02-.107.01-.215.136-.293l.338.615.045 1.033-.664 1.225" fill="#FAD2C3"/><path d="m24.54 12.47.01-.022.031-.064.127-.245.48-.902-.003.01-.049-1.034.003.011-.34-.613.036.009a.222.222 0 0 0-.105.164l-.018.112a.29.29 0 0 0 .018.1 3.2 3.2 0 0 0 .183.434l-.048.028-.634-1 .031.013a.157.157 0 0 0-.09.07.365.365 0 0 0-.05.164l-.001-.012.349.899.09.23-.14-.204-.59-.87.021.012-.145-.007.02-.008a.225.225 0 0 0-.064.17.362.362 0 0 0 .062.174l.019.028-.032.01-.096.03.014-.01a.493.493 0 0 0-.036.287c.01.099.036.192.061.282.054.18.122.343.19.49l.003.004v.005l-.018.205v.004l-.002.003c-.091.163-.176.309-.253.433-.073.128-.158.222-.2.313-.045.09-.072.163-.09.212-.018.05-.026.075-.028.075 0 0 0-.007.003-.02a1.55 1.55 0 0 1 .097-.276c.042-.095.124-.191.194-.318.075-.126.157-.272.246-.436l-.002.007.014-.205.002.01a3.528 3.528 0 0 1-.199-.494 1.714 1.714 0 0 1-.065-.289.533.533 0 0 1 .04-.318l.004-.008.01-.003.096-.03-.013.038a.41.41 0 0 1-.073-.2.276.276 0 0 1 .079-.209l.008-.008h.011l.145.007h.013l.008.012.592.867-.05.026-.35-.899-.002-.006v-.005a.42.42 0 0 1 .058-.194.214.214 0 0 1 .126-.094l.02-.005.011.017.633 1-.049.028a3.27 3.27 0 0 1-.186-.443c-.01-.04-.023-.075-.018-.126l.018-.113c.01-.078.061-.16.13-.198l.025-.013.012.022.337.616.003.005v.005l.04 1.034v.005l-.003.004-.495.895-.135.24-.037.06a.086.086 0 0 1-.013.022Z" fill="#C8A399"/><path d="M24.23 11.388c-.004-.003.007-.02.013-.053a.456.456 0 0 0-.006-.148l-.02-.103-.01-.058a.26.26 0 0 0-.02-.054c-.034-.076-.081-.158-.13-.243-.2-.341-.368-.616-.354-.625.012-.008.202.252.403.596.05.087.096.17.13.252.008.02.015.045.019.065l.009.059c.006.037.01.073.013.106a.373.373 0 0 1-.013.158c-.014.037-.032.05-.034.048ZM24.628 11.297c-.008-.004.008-.044.013-.11a.582.582 0 0 0-.041-.255c-.038-.095-.09-.174-.126-.233-.036-.06-.058-.098-.05-.103.005-.004.038.025.083.079a.868.868 0 0 1 .146.237c.042.103.046.209.029.28-.018.073-.048.108-.054.105ZM24.993 11.112c-.017 0-.03-.15-.064-.332-.034-.18-.077-.325-.062-.331.014-.006.084.133.119.32.035.188.022.343.007.343Z" fill="#C8A399"/><path d="M24.994 12.643s.598.261.965.82c.367.56 1.48 2.745 1.792 3.616.312.872.262 1.729-.22 2.107-.482.378-1.659.29-2.106-.615-.207-.419-2.188-6.192-2.188-6.192l1.266-.268.106.481.385.051Z" fill="#FAD2C3"/><path d="M27.39 17.817c-.005 0 .02-.083 0-.233-.018-.15-.102-.354-.245-.584a51.44 51.44 0 0 1-1.071-1.83l-1.04-1.848-.319-.557-.086-.152a.312.312 0 0 1-.027-.055.29.29 0 0 1 .035.05l.094.148c.08.128.195.316.333.55.277.466.646 1.119 1.052 1.84.405.722.78 1.371 1.058 1.837.14.233.222.445.235.599a.72.72 0 0 1-.003.176.252.252 0 0 1-.015.06Z" fill="#C8A399"/><path d="M29.531 6.063 28.476 4.97 28.214 6.7 26.8 6.65l.885 1.162-.891 1.168 1.475-.29.213 1.483 1.192-.903 1.503.787-.33-1.518 1.706-.269-1.327-.783L32 6.155l-1.326.518-.16-1.645-.983 1.035Z" fill="#fff"/><path d="m29.531 6.063.065-.071c.043-.047.107-.114.188-.203l.721-.769.017-.017.002.024c.045.447.1 1.002.166 1.645l-.022-.013 1.325-.521.049-.02-.027.046-.771 1.335-.007-.028 1.327.781.053.031-.06.01-1.706.269.02-.028.329 1.518.01.05-.044-.024-1.303-.682-.2-.105.025-.002-1.192.902-.032.024-.006-.039-.212-1.484.027.02-1.475.29-.057.01.035-.046.892-1.167v.025l-.883-1.164-.024-.03h.04c.513.019.982.036 1.413.05l-.016.015c.104-.68.194-1.259.267-1.728l.003-.023.016.016.778.815.2.212.07.076s-.024-.022-.069-.068l-.203-.206-.792-.81.02-.007-.258 1.73-.002.014h-.014L26.8 6.67l.015-.03.887 1.16.009.013-.01.013-.889 1.17-.021-.036 1.474-.292.023-.004.004.024.214 1.483-.038-.016 1.191-.903.012-.01.014.008.2.105 1.302.682-.034.026-.328-1.519-.006-.024.024-.004 1.706-.268-.008.04-1.325-.783-.018-.01.01-.018.776-1.332.023.026-1.327.516-.02.008-.001-.02-.156-1.646.019.007-.735.764-.19.197a3.957 3.957 0 0 1-.066.066Z" fill="#737797"/><path d="M26.7 7.887a.315.315 0 1 1-.63 0 .315.315 0 0 1 .63 0Z" fill="#fff"/><path d="M26.7 7.887c-.004 0-.004-.028-.018-.075a.314.314 0 0 0-.116-.162.297.297 0 0 0-.472.237.297.297 0 0 0 .472.237.316.316 0 0 0 .116-.162c.014-.047.015-.075.019-.075.002 0 .008.028-.001.08a.315.315 0 0 1-.114.184.33.33 0 0 1-.315.053.338.338 0 0 1-.224-.317.338.338 0 0 1 .224-.316.33.33 0 0 1 .315.053c.075.06.105.134.114.184.01.05.003.08 0 .08ZM29.687 6.741l-.064 1.008a.164.164 0 0 1-.326.008l-.112-1.013a.128.128 0 0 1 .13-.142l.245.003c.074 0 .132.063.127.136ZM29.203 8.469a.246.246 0 1 0 .467-.156.246.246 0 0 0-.467.156Z" fill="#737797"/><path d="M22.707 10.071c.02-.04.041-.078.091-.085.163.01.327 0 .49.016.02.006.026.026.037.04.005.005.163.254.117.387-.028.044-.037.106-.103.115-.032-.009-.048-.036-.068-.06a.323.323 0 0 0-.455-.048c-.038.03-.046.085-.092.108-.091 0-.098-.037-.117-.106-.036-.173.096-.362.1-.367Z" fill="#170812"/><path d="M22.793 9.999c-.039.014-.063.046-.086.072.01-.103.094-.145.168-.187.106-.06.273-.073.376.028a.219.219 0 0 1 .074.13.427.427 0 0 0-.143-.092.49.49 0 0 0-.39.049Z" fill="#C8A399"/><path d="M22.724 10.544c.13-.223.368-.268.537-.1.03.03.052.067.078.1-.023.02-.12.013-.158-.019-.084-.036-.167-.046-.252-.005-.095.049-.187.022-.205.024Z" fill="#E9856D"/><path d="M23.295 10.012c-.167 0-.335.005-.502-.013.122-.106.397-.1.502.013Z" fill="#FBF4F2"/><path d="M22.324 8.82a.126.126 0 1 0 0-.252.126.126 0 0 0 0 .252ZM23.978 8.82a.126.126 0 1 0 0-.252.126.126 0 0 0 0 .252Z" fill="#fff"/></g><defs><clipPath id="a"><rect width="48" height="48" rx="24" fill="#fff"/></clipPath></defs></svg>