<svg xmlns="http://www.w3.org/2000/svg" width="48" height="48" fill="none"><g clip-path="url(#a)"><rect width="48" height="48" fill="#fff" rx="24"/><g clip-path="url(#b)"><g fill="#D5BD71" opacity=".8"><path d="M27.186 45.682c.092-.002.169.053.172.125.004.072-.067.132-.16.135-.09.003-.168-.053-.172-.125-.003-.071.069-.132.16-.135Zm9.229.278c.149 0 .27-.095.27-.212 0-.116-.121-.21-.27-.21-.15 0-.27.094-.27.21 0 .117.12.212.27.212Zm.622-25.477-.315.898.325.052.553-.693-.563-.257Zm-5.132-5.553 1.069.411.126-.24-.767-.555-.428.385Zm-4.182-8.577 1.161.203.052-.256-.913-.4-.3.453Zm10.371 8.327.805-.015.085-.156-.587-.127-.303.298Zm-2.83-6.487.588.81.278-.143-.236-.796-.63.129Zm-6.16 2.604a.2.2 0 0 0 .235-.005c.063-.053.06-.135-.008-.184a.2.2 0 0 0-.234.006c-.063.052-.06.134.007.183Zm-2.177 4.078 1.14.265.074-.253-.874-.447-.34.435ZM32.633 4.05l1.17.171.04-.258-.93-.374-.28.46Zm-.438 40.446.977-.531-.207-.204-.992.255.222.48ZM16.466 39.38l1.068.412.127-.24-.767-.556-.428.385Zm21.674 1.872 1.161.204.051-.257-.911-.398-.301.451Zm-1.04-6.296.806-.016.085-.155-.587-.127-.303.298ZM21.876 29.5l.588.81.278-.143-.235-.796-.631.129Zm.252-18.979a.2.2 0 0 0 .234-.005c.063-.053.06-.135-.007-.184a.2.2 0 0 0-.235.006c-.063.052-.06.134.008.183ZM11.991 5.733l1.141.266.074-.254-.874-.447-.34.435Zm9.494 30.527 1.17.171.04-.258-.929-.374-.28.46Zm18.941-17.735c.092 0 .166-.058.166-.13 0-.071-.074-.13-.166-.13-.092 0-.166.059-.166.13 0 .072.074.13.166.13Zm1.687 7.366c.091-.002.169.053.172.125.004.072-.068.132-.16.135-.09.003-.168-.053-.172-.125-.003-.072.068-.132.16-.135Zm4.947 2.135c.148-.004.274.087.28.203.005.116-.11.215-.26.219-.148.005-.274-.086-.28-.203-.006-.116.11-.214.26-.219Zm-5.41 2.707.799-.69-.26-.161-.894.423.354.428Zm1.756-7.213 1.162.203.051-.257-.912-.398-.3.452Zm-.883 11.057.482.645-.238.094-.613-.448.369-.291Zm5.307 13.445c.091-.003.163-.063.16-.135-.004-.072-.082-.128-.173-.125-.092.002-.163.063-.16.135.004.072.081.128.173.125ZM44.027 1.095c.092-.003.163-.063.16-.135-.004-.072-.081-.128-.173-.125-.091.002-.163.063-.16.135.004.072.081.128.173.125Zm1.612 5.773.977-.532-.207-.203-.992.255.222.48ZM9.535 32.58l1.35.236.06-.298-1.06-.463-.35.525Zm9.147-.88c.15 0 .27-.095.27-.212 0-.117-.12-.211-.27-.211-.149 0-.27.094-.27.211 0 .117.121.211.27.211Zm-1.992 3.474c.092-.003.163-.063.16-.135-.004-.072-.081-.128-.173-.125-.091.002-.163.063-.16.135.004.072.082.127.173.125Zm-1.453-6.28.977-.531-.207-.203-.992.255.222.479Zm-1.078 15.869c.091-.003.163-.063.16-.135-.004-.072-.081-.128-.173-.125-.091.002-.163.063-.16.135.004.071.08.127.173.125ZM1.432 35.601c.15 0 .27-.094.27-.21 0-.117-.12-.212-.27-.212-.149 0-.27.095-.27.211 0 .117.121.211.27.211Zm8.42 9.228 1.16.203.053-.256-.912-.4-.301.453Zm.627-42.669.805-.015.085-.155-.587-.127-.303.297ZM2.425 39.808c.091-.003.163-.063.16-.136-.004-.071-.082-.127-.173-.124-.092.002-.163.063-.16.135.003.072.08.127.173.125Zm-2.248-1.15.978-.531-.207-.204-.993.255.222.48Zm12.1-2.28 1.162.203.051-.257-.911-.398-.302.452ZM5.87 27.993l.804-.015.086-.155-.588-.127-.303.297ZM5.436 7.908c.092-.003.169.052.172.124.004.072-.068.132-.16.136-.09.002-.168-.053-.172-.125-.003-.072.068-.133.16-.135Zm1.694 7.625c.091-.003.168.053.172.125.003.071-.068.132-.16.135-.091.003-.169-.053-.172-.125-.004-.072.068-.132.16-.135Zm-.464 4.842.8-.69-.26-.161-.894.423.354.428Zm.874 3.844.482.645-.239.093-.612-.448.368-.29Z" opacity=".26"/><path d="M16.424 17.509c-.05 0-.09-.029-.09-.064v-2.877c0-.036.04-.064.09-.064.05 0 .09.028.09.064v2.877c0 .035-.04.064-.09.064Z"/><path d="M14.993 17.087a.11.11 0 0 1-.063-.018c-.035-.025-.035-.066 0-.091l2.861-2.034a.118.118 0 0 1 .128 0c.035.024.035.065 0 .09l-2.862 2.034a.113.113 0 0 1-.064.02Z"/><path d="M18.447 16.07H14.4c-.05 0-.09-.028-.09-.064 0-.035.04-.064.09-.064h4.047c.05 0 .09.029.09.064s-.04.064-.09.064Z"/><path d="M17.855 17.087a.11.11 0 0 1-.064-.018l-2.861-2.035c-.035-.025-.035-.065 0-.09a.118.118 0 0 1 .127 0l2.862 2.034c.035.025.035.065 0 .09a.113.113 0 0 1-.064.02ZM4.918 51.222c-.074 0-.133-.042-.133-.094v-4.226c0-.052.06-.094.133-.094.073 0 .132.042.132.094v4.226c0 .052-.06.094-.132.094Z"/><path d="M2.815 50.603a.164.164 0 0 1-.094-.027c-.051-.037-.051-.097 0-.133l4.205-2.989a.172.172 0 0 1 .187 0c.051.037.051.097 0 .133l-4.205 2.989a.166.166 0 0 1-.093.027Z"/><path d="M7.02 50.603a.164.164 0 0 1-.094-.027L2.72 47.587c-.051-.037-.051-.096 0-.133a.172.172 0 0 1 .187 0l4.205 2.989c.051.037.051.096 0 .133a.166.166 0 0 1-.094.027Zm38.221-20.546c-.025 0-.045-.014-.045-.032v-1.438c0-.018.02-.032.045-.032.025 0 .045.014.045.032v1.438c0 .017-.02.032-.045.032Z"/><path d="M44.525 29.846a.057.057 0 0 1-.032-.01c-.018-.011-.018-.032 0-.044l1.43-1.017a.059.059 0 0 1 .064 0c.018.012.018.033 0 .045l-1.43 1.017a.056.056 0 0 1-.032.01Z"/><path d="M46.253 29.337H44.23c-.025 0-.045-.014-.045-.032 0-.017.02-.032.044-.032h2.024c.025 0 .045.015.045.032 0 .018-.02.032-.045.032Z"/><path d="M45.956 29.846a.057.057 0 0 1-.032-.01l-1.431-1.016c-.018-.012-.018-.033 0-.045a.059.059 0 0 1 .063 0l1.431 1.017c.018.012.018.032 0 .045a.054.054 0 0 1-.031.01Zm-4.003 20.522c1.749 0 3.166-1.108 3.166-2.476 0-1.368-1.417-2.476-3.166-2.476-1.75 0-3.167 1.108-3.167 2.476 0 1.368 1.418 2.476 3.167 2.476ZM6.97 32.901c.514 0 .931-.326.931-.728 0-.402-.417-.729-.931-.729-.515 0-.932.327-.932.729 0 .402.417.728.932.728Z"/></g><g opacity=".41"><path fill="#F8DF88" d="M7.404 8.489c.797-.046 2.665-.125 4.289.011a1.139 1.139 0 0 0 1.236-1.153c-.006-.276-.105-.597-.361-.96-.986-1.4-2.7-.064-2.684.647 0 0-.346-1.07-1.398-.883-1.053.188-.68 1.744-.68 1.744s-.34-.072-.575.089c-.23.158-.107.52.173.505Z" opacity=".19"/></g><path fill="#F8DF88" d="M39.743 12.273c-1.128-.065-3.773-.177-6.072.016a1.613 1.613 0 0 1-1.75-1.633c.008-.391.148-.845.51-1.36 1.397-1.983 3.824-.09 3.8.917 0 0 .49-1.516 1.98-1.25 1.49.265.964 2.469.964 2.469s.48-.102.814.126c.327.223.15.738-.246.715Zm-43.225 6.923a.926.926 0 0 1 .133-.818c.334-.456.939-.842 2.025-.91 0 0-1.174-5.214 3.375-5.761 4.674-.563 4.916 4.934 4.916 4.934s2.65-2.916 4.094.637c0 0 2.852-1.44 4.222.288.41.517.34 1.21-.012 1.63H-3.482Zm52.989 7.738c.099-.33.063-.708-.167-1.023-.416-.57-1.173-1.053-2.53-1.136 0 0 1.467-6.519-4.22-7.203-5.843-.704-6.145 6.168-6.145 6.168s-3.312-3.645-5.118.796c0 0-3.564-1.8-5.277.36a1.629 1.629 0 0 0 .015 2.039h23.442Z" opacity=".41"/><path fill="#040000" d="M19.986 19.997a.11.11 0 0 0 .074-.02c4.693-3.516 8.141-3.929 8.646-3.972.535.944 1.276 1.983 2.204 3.088a.106.106 0 1 0 .162-.136c-.938-1.119-1.687-1.613-2.218-2.561l-.5.452-.085-.462c-.036.001-3.218-.413-8.337 3.421a.106.106 0 0 0 .054.19Z"/><path fill="#483531" d="M14.684 15.536c-.14-1.01-.42-2.772 1.66-4.67 3.095-2.824 4.276 1.066 5.674 1.246 1.397.18 4.016-1.01 5.27 1.175 1.253 2.184 1.559 3.46 2.96 3.929 3.58 1.198 4.664 2.576 4.122 7.076-.542 4.5-3.967 5.739-3.967 5.739s-12.171-1.983-16.54-3.233c-3.202-.916-4.183-4.22-2.12-5.987.975-.834 3.416-1.831 2.94-5.275Z"/><path fill="#FAD2C3" d="m21.703 20.775-1.476 1.317.078 3.655.675-.287 3.696-.186.709.185v-6.277l-3.682 1.593Z"/><path fill="#E0B29A" d="m25.353 17.72-5.126 4.39.015.706c.56.672 1.85 1.35 3.125.95 2.597-.818 1.986-6.046 1.986-6.046Z"/><path fill="#FAD2C3" d="M25.035 20.544c.57-.688.546-2.325.269-3.12l-1.713-3.342s-2.8-.878-2.755-.794c.046.084-3.212 4.083-3.212 4.083s.645 3.636 3.008 5.008c0 0 2.177.856 4.403-1.835Z"/><path fill="#483531" d="M21.872 12.758s-.727 2.743-4.495 5.057c0 0-.992-5.288 4.495-5.057Z"/><path fill="#483531" d="M19.939 12.444c.297.33 1.479 3.517 4.594 3.597 0 0 .75-.928 1.461-.148 0 0 .284-2.268.271-2.317-.013-.05-2.624-1.281-2.624-1.281l-3.702.149Z"/><path fill="#E0B29A" d="M21.253 19.24a.041.041 0 0 0-.019-.079c-.267.034-.532-.217-.612-.302.287-.312.417-.634.386-.955-.052-.524-.51-.852-.53-.866a.041.041 0 0 0-.057.01.041.041 0 0 0 .01.056c.005.004.448.323.495.808.03.306-.101.615-.39.918l-.025.027.024.028c.014.016.347.403.71.357l.008-.001Z"/><path fill="#483531" d="M18.7 17.895a.088.088 0 0 0 .069-.044c.003-.007.366-.64 1.016-.763a.087.087 0 0 0-.032-.171c-.732.139-1.12.82-1.136.849a.087.087 0 0 0 .033.118.089.089 0 0 0 .05.01Zm4.136-1.665a.087.087 0 0 0 .003-.167c-.032-.01-.78-.248-1.411.146a.087.087 0 0 0 .092.148c.564-.351 1.257-.13 1.264-.128a.088.088 0 0 0 .052 0Z"/><path fill="#FAD2C3" d="M18.774 20.797a1.069 1.069 0 1 0-.943-1.919 1.069 1.069 0 0 0 .943 1.919Z"/><path fill="#E0B29A" d="M18.66 20.125c-.141.174-.367.183-.528.114-.192-.082-.299-.256-.273-.445a.504.504 0 0 1 .361-.42.471.471 0 0 0-.324.003c-.222.09-.321.342-.322.345a.034.034 0 0 1-.044.02.034.034 0 0 1-.02-.045c.005-.011.111-.283.36-.383.145-.058.305-.045.478.037l.11.053-.121.012c-.015.001-.364.04-.41.388-.026.191.109.32.232.373.129.055.324.062.453-.098a.034.034 0 0 1 .048-.006.034.034 0 0 1 .005.048l-.004.004Z"/><path fill="#FAD2C3" d="M25.273 17.78a1.116 1.116 0 1 0 0-2.233 1.116 1.116 0 0 0 0 2.232Z"/><path fill="#E0B29A" d="M25.263 17.146c.234 0 .391-.175.443-.351.061-.208-.009-.41-.178-.516a.526.526 0 0 0-.578.012.493.493 0 0 1 .218-.259c.219-.12.489-.032.491-.03a.036.036 0 0 0 .046-.023.036.036 0 0 0-.023-.046c-.012-.004-.302-.098-.548.036-.142.078-.239.215-.288.41l-.03.124.09-.09c.012-.012.275-.267.585-.073.171.106.186.3.147.434-.042.14-.166.303-.38.3a.036.036 0 0 0-.036.035c0 .02.015.036.035.036h.006Z"/><path fill="#483531" d="M23.152 17.276a.067.067 0 0 1-.028.003c-.398-.044-.975.208-.98.21l-.183.081.098-.173c.416-.733 1.11-.677 1.14-.675a.066.066 0 0 1 .059.072.067.067 0 0 1-.072.06 1.082 1.082 0 0 0-.9.439c.214-.076.568-.177.852-.145a.066.066 0 0 1 .058.072.065.065 0 0 1-.044.056Zm-3.709 1.518a.062.062 0 0 0 .022-.018c.25-.312.836-.542.842-.544l.186-.072-.192-.053c-.812-.224-1.263.306-1.282.329a.066.066 0 0 0 .008.092c.028.024.07.02.093-.008.015-.018.346-.402.947-.327-.204.098-.526.277-.704.5a.066.066 0 0 0 .01.093c.02.017.048.02.07.008Z"/><path fill="#D44F43" d="M20.684 20.07c.031-.023 2.212-1.178 2.212-1.178s.18 1.052-.63 1.483c-.81.431-1.582-.304-1.582-.304Z"/><path fill="#fff" d="M21.221 20.086c.085.007 1.224-.586 1.36-.715.06-.056.016-.154-.02-.299-.432.229-1.17.62-1.58.84.075.071.186.17.24.174Z"/><path fill="#E46F60" d="M22.27 20.375a1.14 1.14 0 0 0 .51-.546c-.632.04-.999.449-1.076.68.18.006.372-.03.566-.134Z"/><path fill="#E0B29A" d="M38.197 37.667c.84 1.536 2.852 5.997 2.852 5.997l-6.216 1.134s-1.06-7.46-.695-7.46c.366 0 4.059.33 4.059.33Z"/><path fill="#DBC58E" d="M34.887 39.94c-.126 1.3-.725 4.5-.971 7.982H11.998c-.246-3.481-.845-6.682-.971-7.983-.247-2.55.904-7.158.904-7.158.083-6.418 4.196-7.981 4.196-7.981h13.659s4.113 1.563 4.196 7.98c0 0 1.151 4.609.905 7.16Z"/><path fill="#DBC58E" d="M29.669 24.8s3.491.384 5.137 3.237c1.646 2.852 4.662 10.696 4.662 10.696s-4.553 2.523-8.502 2.743l-3.675-10.752 2.378-5.924Z"/><path fill="#FAD2C3" d="M28.379 24.8s-4.51-.393-4.933-.393c-.005 0-.2.121-.21.121-.424 0-5.144.272-5.144.272s1.174 2.909 5.062 3.054v.004l.081-.002.082.002v-.004c3.888-.145 5.062-3.054 5.062-3.054Z"/><path fill="#DBC58E" d="m18.62 30.724-3.675 10.751c-.456-.025-.92-.081-1.385-.16l.343-1.65-6.198-2.084s-.18.629-.417 1.585c-.532-.26-.845-.433-.845-.433s3.018-7.844 4.663-10.697c1.646-2.852 4.904-3.236 4.904-3.236l2.61 5.924Z"/><path fill="#DBC58E" d="m10.963 38.276 2.45 2.964c-2.502-.427-5.007-1.531-6.271-2.148.237-.956.416-1.585.416-1.585l3.405.769Z"/><path fill="#F8DF88" d="M23.488 28.169s2.054-4.305 7.787-3.64c5.732.666 4.985 8.179 4.914 9.012-.187 2.21-3.404 8.777-10.246 13.502l-2.438-18.745-.017-.13Z"/><path fill="#F8DF88" d="M15.033 26.643c-5.372 2.11-2.705 9.173-2.446 9.969.746 2.286 5.537 7.613 13.36 10.43l-2.44-18.745-.016-.129s-3.087-3.636-8.458-1.525Z"/><path fill="#1F111D" d="M22.198 44.32c-.006 0-.012 0-.017-.004l-1.327-.9a.024.024 0 0 1-.007-.033.024.024 0 0 1 .034-.007l1.327.9a.024.024 0 0 1 .007.033.024.024 0 0 1-.017.011Zm1.13.378a.02.02 0 0 1-.015-.003l-1.496-.867a.025.025 0 0 1-.01-.033.025.025 0 0 1 .034-.009l1.496.867a.024.024 0 0 1-.009.045Z"/><path fill="#FAD2C3" d="M18.991 34.267a.479.479 0 0 1 .471-.45l1.552-.043a.113.113 0 0 0 .008-.227l-2.279-.24a.377.377 0 0 1-.333-.507.607.607 0 0 1 .617-.405l2.324.245a.114.114 0 0 0 .12-.08l.012-.036a.113.113 0 0 0-.075-.142l-2.475-.77a.479.479 0 0 1-.331-.56.468.468 0 0 1 .594-.34l2.49.776a.113.113 0 0 0 .143-.075l.036-.117a.113.113 0 0 0-.06-.136l-2.202-1.015a.479.479 0 0 1-.256-.599.468.468 0 0 1 .634-.258s3.439 1.367 3.993 1.537l-.395-1.295a.468.468 0 1 1 .83-.436l2.425 3.631c.078.15-.71-.323-.852-.082-.617 2.693.076 3.016-.157 3.726l-3.633-1.233a7.024 7.024 0 0 0-2.506-.388l-.213.005a.468.468 0 0 1-.482-.486Z"/><path fill="#FAD2C3" d="M24.198 35.034s6.034 7.533 8.082 9.983c2.048 2.45 4.973 3.876 7.276 3.255 2.305-.622 1.926-4.291 1.005-5.68-.473-.714-14.22-10.433-14.22-10.433l-2.143 2.875Z"/><path fill="#FAD2C3" d="M38.9 45.52s.297-.334.003-.723c-.295-.39-1.3-.932-1.496-.967-.196-.033-2.901.09-2.901.09s-3.254.766-3.437.767l-17.597-2.389.205-.984c-2.502-.428-5.007-1.532-6.271-2.15-.712 2.864-1.955 8.66-.516 9.277 1.68.72 19.796.81 24.284.82.18.003.37.003.566.002h.437l-.002-.007c.871-.02 1.752-.077 2.186-.184l.002-.001a1.015 1.015 0 0 0 .175-.055l.033-.018c.183-.103.4-.195.639-.275.71-.355 1.4-.817 1.649-.88.23-.057.689.113.978.237.241.103.53.036.68-.178.088-.125.128-.292.033-.51 0 0 .678-.285.341-.839 0 .002.748-.304.009-1.032Z"/><path fill="#E0B29A" d="M36.451 44.76c.011.01.027.017.044.016.006 0 .677-.016.92.052.195.056 1.038.513 1.457.747.03.017.07.007.087-.023a.062.062 0 0 0-.025-.086c-.05-.028-1.227-.685-1.485-.758-.261-.074-.93-.058-.959-.057a.063.063 0 0 0-.061.064c0 .018.01.034.022.045Zm.08 1.224c.012.01.028.016.046.015.005 0 .537-.024.85.041.315.066 1.423.567 1.434.572.033.015.07 0 .085-.03a.062.062 0 0 0-.032-.084c-.046-.02-1.133-.512-1.461-.58-.33-.068-.86-.045-.883-.043a.062.062 0 0 0-.039.109Zm-.012.905a.06.06 0 0 0 .047.015c.004 0 .359-.03.68.026.321.056 1.266.514 1.276.519.031.016.07.003.085-.029a.062.062 0 0 0-.03-.084c-.04-.019-.97-.47-1.31-.53a3.15 3.15 0 0 0-.713-.026.062.062 0 0 0-.058.068c.003.016.01.03.023.04Z"/><path fill="#E0B29A" d="m35.336 48.728-.063-.106c.135-.08 1.331-.788 1.573-.838.246-.05.853.175.936.207.308.081.522.063.636-.054.171-.175.074-.523.073-.527l-.016-.055.054-.02c.195-.07.319-.174.367-.308.076-.211-.056-.438-.057-.44l-.034-.056.057-.03c.193-.103.297-.227.311-.367.028-.284-.308-.562-.311-.565l-.043-.035.03-.046a.527.527 0 0 0 .064-.492c-.214-.584-1.361-1.044-1.578-1.11-.192-.058-1.875.042-2.508.08l-.318.018c-.27.012-1.377.32-1.388.324l-2.049.443-.01-.001-17.58-2.387-3.162 1.338-.049-.114 3.193-1.35.017.002 17.586 2.387 2.025-.438c.043-.012 1.128-.315 1.412-.328l.316-.018c1.215-.072 2.364-.131 2.551-.074.274.084 1.428.557 1.658 1.186a.641.641 0 0 1-.049.555c.1.093.344.352.316.637-.016.17-.125.315-.323.434.043.094.11.29.04.489-.057.158-.188.28-.39.363.024.122.06.414-.116.593-.148.151-.404.18-.76.086l-.006-.002c-.18-.069-.688-.239-.87-.202-.188.037-1.172.606-1.535.822Z"/><path fill="#E0B29A" d="m13.62 41.301-.206.985.121.025.205-.984-.12-.026ZM6.562 48.15s.305 1.307 8.15 1.307c7.843 0 18.347-.193 18.347-.193S9.336 46.796 8.924 47.016c-.411.22-2.362.906-2.362.906v.228Z"/></g></g><defs><clipPath id="a"><rect width="48" height="48" fill="#fff" rx="24"/></clipPath><clipPath id="b"><path fill="#fff" d="M0 0h48v48H0z"/></clipPath></defs></svg>