<svg width="48" height="48" fill="none" xmlns="http://www.w3.org/2000/svg"><g clip-path="url(#a)"><rect width="48" height="48" rx="24" fill="#fff"/><g clip-path="url(#b)"><g opacity=".42" fill="#CEE7F3"><path d="M23.565 6.15a1.929 1.929 0 0 0-2.483-1.846 4.085 4.085 0 0 0-4.794-4.607 3.568 3.568 0 0 0-3.049-1.716A3.573 3.573 0 0 0 9.668 1.5l-.06-.002a3.29 3.29 0 0 0 0 6.581h12.085l-.003-.003a1.928 1.928 0 0 0 1.875-1.926ZM19.101 10.909c.79-.273-.865-1.97-.865-1.97s.076 2.242.865 1.97ZM19.653 12.167s.076 2.243.865 1.97c.789-.273-.865-1.97-.865-1.97ZM21.07 15.396s.076 2.243.865 1.97c.79-.273-.865-1.97-.865-1.97ZM16.482 10.929c.789-.273-.865-1.97-.865-1.97s.076 2.243.865 1.97ZM17.035 12.187s.076 2.243.865 1.97c.789-.273-.865-1.97-.865-1.97ZM18.452 15.416s.076 2.243.865 1.97c.789-.273-.865-1.97-.865-1.97ZM13.864 10.949c.789-.273-.865-1.97-.865-1.97s.076 2.243.865 1.97ZM14.418 12.208s.076 2.243.865 1.97c.788-.274-.865-1.97-.865-1.97ZM15.835 15.436s.076 2.243.865 1.97c.789-.273-.865-1.97-.865-1.97ZM10.383 8.999s.076 2.243.865 1.97c.788-.273-.865-1.97-.865-1.97ZM11.799 12.228s.076 2.243.865 1.97c.789-.274-.865-1.97-.865-1.97ZM13.217 15.456s.076 2.243.865 1.97c.788-.273-.865-1.97-.865-1.97Z"/><path d="M19.101 10.909c.79-.273-.865-1.97-.865-1.97s.076 2.242.865 1.97ZM19.653 12.167s.076 2.243.865 1.97c.789-.273-.865-1.97-.865-1.97ZM21.07 15.396s.076 2.243.865 1.97c.79-.273-.865-1.97-.865-1.97ZM16.482 10.929c.789-.273-.865-1.97-.865-1.97s.076 2.243.865 1.97ZM17.035 12.187s.076 2.243.865 1.97c.789-.273-.865-1.97-.865-1.97ZM18.452 15.416s.076 2.243.865 1.97c.789-.273-.865-1.97-.865-1.97ZM13.864 10.949c.789-.273-.865-1.97-.865-1.97s.076 2.243.865 1.97ZM14.418 12.208s.076 2.243.865 1.97c.788-.274-.865-1.97-.865-1.97ZM15.835 15.436s.076 2.243.865 1.97c.789-.273-.865-1.97-.865-1.97ZM10.383 8.999s.076 2.243.865 1.97c.788-.273-.865-1.97-.865-1.97ZM11.799 12.228s.076 2.243.865 1.97c.789-.274-.865-1.97-.865-1.97ZM13.217 15.456s.076 2.243.865 1.97c.788-.273-.865-1.97-.865-1.97Z"/></g><path d="M21.87 16.02s1.605-2.1 3.27-.612c0 0 3.297-.058 3.268 3.181 0 0 2.772 2.026 1.021 5.44 0 0 2.277 1.063.304 3.627l-10.782.127s-1.75-1.723-.612-3.882c0 0 1.371-1.956 1.605-4.086l1.926-3.794Z" fill="#342D23"/><path d="m17.551 26.995-.7.146.963 12.755 9.777.496 2.423-13.397-.934-.292-11.529.292Z" fill="#A0BCC5"/><path d="m17.813 39.896-2.89 8.373h14.682l-2.014-7.877-9.778-.496Z" fill="#A0BCC5"/><path d="M17.814 39.895a.932.932 0 0 0 .254.048 34596.127 34596.127 0 0 1 9.266.47.929.929 0 0 0 .258-.022.93.93 0 0 0-.254-.047l-4.458-.226-4.808-.244a.934.934 0 0 0-.258.021ZM17.11 27.083a.791.791 0 0 0 .148.213l.043.046.03.031.084.084.099.098c.067.065.137.13.21.198.578.532 1.329 1.09 2.113 1.508a9 9 0 0 0 1.166.525c.378.137.734.236 1.04.303a7.916 7.916 0 0 0 1.02.15s.025 0 .072.004c.048.002.118.008.207.01a7.059 7.059 0 0 0 1.822-.17 7.874 7.874 0 0 0 1.221-.382 9.055 9.055 0 0 0 1.343-.676l.138-.087c.091-.058.183-.115.27-.176.086-.06.174-.117.256-.178.08-.057.157-.114.233-.17.057-.042.102-.079.125-.097a.927.927 0 0 0 .18-.184.924.924 0 0 0-.223.13c-.023.017-.067.053-.124.095l-.232.17c-.081.06-.169.116-.255.176-.087.06-.177.116-.268.174l-.137.087-.142.083a9.067 9.067 0 0 1-1.191.589 7.757 7.757 0 0 1-1.21.379 7.076 7.076 0 0 1-1.804.167c-.089-.002-.158-.008-.205-.01l-.072-.005-.072-.006a7.872 7.872 0 0 1-.937-.142 8.092 8.092 0 0 1-1.031-.3 9.01 9.01 0 0 1-1.157-.522 10.588 10.588 0 0 1-2.309-1.695l-.098-.096-.082-.083a1.02 1.02 0 0 1-.03-.032l-.044-.045a1.183 1.183 0 0 0-.197-.164Z" fill="#F7F8F7"/><path d="m11.646 30.138-.479-1.019 1.43-.875.648 1.352-1.599.542Z" fill="#FAD2C3"/><path d="M11.167 29.12s-4.494-1.357-4.646-1.545c-.106-.13.139-.232.548-.091 0 0-.535-.616-.54-.843-.004-.227.343.032.468.154.16.156.349.322.53.394 0 0-.46-.551-.451-.705.009-.153.39.061.595.26.242.236.653.364.842.462 0 0-.509-.63-.556-.803-.048-.174.189-.165.429.082.24.248.594.618 1.048.776.455.158 1.812.333 1.812.333s-.784-.62-.755-.83c.03-.21.42.07.637.135.217.065 1.845.649 1.49 1.41l-1.45.81Z" fill="#FAD2C3"/><path d="M7.102 27.491c.096.063.162.102.288.145l.13.043a107.61 107.61 0 0 0 .442.14c.098.03.158.047.19.056.129.036.206.041.321.04a1.407 1.407 0 0 0-.298-.123l-.189-.056-.21-.065-.23-.075-.128-.042a1.226 1.226 0 0 0-.316-.063ZM7.524 27.19a1 1 0 0 0 .275.17c.021.01.055.024.126.053a17.911 17.911 0 0 0 .4.15 5.8 5.8 0 0 0 .19.06.964.964 0 0 0 .322.044 1.49 1.49 0 0 0-.296-.126 5.594 5.594 0 0 1-.187-.06l-.19-.068-.08-.03-.125-.05-.125-.052a1.413 1.413 0 0 0-.31-.092ZM8.51 27.206a.563.563 0 0 0 .115.108c.041.03.088.055.151.082.021.008.056.023.129.048a7.232 7.232 0 0 0 .124.04c.1.03.16.045.193.053.131.032.21.032.323.026a1.495 1.495 0 0 0-.302-.11c-.031-.008-.092-.023-.188-.052l-.058-.018-.063-.021c-.071-.024-.104-.04-.125-.046a2.726 2.726 0 0 0-.155-.059c-.045-.016-.09-.028-.143-.051Z" fill="#DDAC9D"/><path d="M16.839 27.13s-2.51.414-2.706 4.53l.804 8.683s2.048 1.214 2.807-.607l-.217-3.821-.688-8.784Z" fill="#A0BCC5"/><path d="m12.887 28.714-1.661.966 3.166 9.908c.175.547.619.97 1.176 1.108.982.244 2.378.17 2.328-2.25l-5.009-9.732Z" fill="#A0BCC5"/><path d="M17.668 37.46a.94.94 0 0 0-.1-.239l-1.665-2.832-1.553-2.643a.952.952 0 0 0-.16-.203.94.94 0 0 0 .1.238c.26.44 1.553 2.643 1.553 2.643l1.665 2.833a.916.916 0 0 0 .16.203ZM16.839 28.794a.927.927 0 0 0-.008.258l.56 5.418.52 5.015c.011.106.03.165.06.251a.927.927 0 0 0 .009-.258l-.52-5.015-.56-5.418a.943.943 0 0 0-.061-.25Z" fill="#F7F8F7"/><path d="m34.305 30.296.537-.99-1.379-.955-.724 1.313 1.566.632Z" fill="#FAD2C3"/><path d="M34.841 29.306s4.564-1.098 4.727-1.277c.113-.123-.125-.238-.542-.122 0 0 .569-.584.586-.81.018-.226-.343.012-.475.127-.169.146-.366.3-.55.363 0 0 .49-.524.49-.678-.001-.154-.394.039-.61.226-.255.221-.672.326-.867.413 0 0 .544-.6.602-.77.057-.17-.18-.175-.434.058-.253.233-.628.583-1.09.714-.464.132-1.829.23-1.829.23s.819-.575.802-.787c-.017-.211-.423.046-.644.099-.22.053-1.879.543-1.568 1.323l1.402.891Z" fill="#FAD2C3"/><path d="M38.992 27.913a1.24 1.24 0 0 0-.32.044l-.13.035-.233.062-.214.053-.192.045c-.13.03-.2.06-.304.106.114.007.192.007.323-.022l.193-.044.215-.054.234-.061.132-.036c.128-.036.197-.07.296-.128ZM38.586 27.587c-.113.017-.188.03-.313.074a14.846 14.846 0 0 1-.256.087l-.081.026-.194.057a6.508 6.508 0 0 1-.19.05 1.46 1.46 0 0 0-.303.109.98.98 0 0 0 .323-.025c.033-.008.094-.023.193-.05.07-.019.196-.058.196-.058l.083-.026.13-.042.128-.046c.126-.047.192-.088.284-.156ZM37.601 27.547c-.053.02-.1.03-.146.044a2.685 2.685 0 0 0-.157.049c-.022.006-.056.02-.128.04l-.064.017-.059.015c-.098.023-.16.034-.191.04-.13.025-.202.05-.308.092a.974.974 0 0 0 .324-.006c.033-.006.095-.018.195-.042l.06-.015.067-.018c.074-.02.11-.034.131-.04a.762.762 0 0 0 .156-.074.56.56 0 0 0 .12-.102Z" fill="#DDAC9D"/><path d="M29.292 26.997s2.482.556 2.444 4.676l-1.298 8.624s-2.115 1.095-2.768-.766l.435-3.803 1.187-8.73Z" fill="#A0BCC5"/><path d="m33.147 28.804 1.604 1.06-3.726 9.71a1.658 1.658 0 0 1-1.238 1.04c-.993.187-2.383.033-2.196-2.38l5.556-9.43Z" fill="#A0BCC5"/><path d="M28.114 36.65a.922.922 0 0 0 .175-.19l1.694-2.417 1.583-2.26a.947.947 0 0 0 .119-.23.917.917 0 0 0-.176.19l-1.583 2.26-1.693 2.417a.94.94 0 0 0-.119.23Z" fill="#F7F8F7"/><path d="M29.196 28.658a.94.94 0 0 0-.07.25l-.815 5.911-.754 5.468a.93.93 0 0 0 0 .258.938.938 0 0 0 .069-.249l.754-5.467.816-5.913a.945.945 0 0 0 0-.258Z" fill="#F7F8F7"/><path d="M21.55 23.668v2.364l-4 .963s6.772 6.1 11.53-.292l-3.182-1.05-.182-3.31-4.167 1.325Z" fill="#FAD2C3"/><path d="M21.01 17.144s-2.76 4.422.13 6.305c2.89 1.882 5.43-1.226 5.998-3.94.57-2.715-2.54-5.823-6.129-2.365Z" fill="#FAD2C3"/><path d="M23.283 18.677a.906.906 0 0 0-.277.169 4.024 4.024 0 0 0-.273.261 3.128 3.128 0 0 0-.184.216 1.987 1.987 0 0 0-.133.196c-.032.053-.048.088-.048.088l-.01.02c-.007.013-.017.032-.026.057-.01.025-.024.053-.033.088a6.712 6.712 0 0 0-.017.054l-.012.06a.624.624 0 0 0 .006.27c.003.023.014.043.021.065l.012.031.016.03.03.054.036.046c.07.084.124.123.151.143.055.044.106.063.153.084.048.017.096.026.152.038a2.586 2.586 0 0 0-.122-.094c-.036-.032-.081-.057-.13-.097-.025-.019-.075-.054-.135-.128l-.03-.04c-.01-.015-.018-.03-.027-.047-.005-.008-.01-.016-.013-.025l-.01-.026c-.006-.018-.016-.036-.018-.055a.536.536 0 0 1-.005-.233l.01-.054.015-.049c.009-.03.022-.057.03-.08a.508.508 0 0 1 .034-.072s.015-.033.045-.083.075-.116.128-.187a3.06 3.06 0 0 1 .346-.375c.056-.052.083-.076.1-.09.097-.088.146-.146.218-.235ZM23.126 20.399c-.02.015-.03.026-.034.047l-.021.139-.022.139c-.002.02.004.034.018.055.02-.015.03-.026.034-.047l.021-.14.022-.138c.003-.021-.004-.035-.018-.055ZM25.081 19.64a.292.292 0 1 1-.584 0 .292.292 0 0 1 .584 0ZM22.133 18.444a.292.292 0 1 1-.584 0 .292.292 0 0 1 .584 0Z" fill="#342D23"/><path d="M20.877 17.247s2.276.116 3.648-1.372c0 0 .088 2.54 2.715 3.298 0 0-.905.263-.7 1.576l.262-.029s1.634-3.123-1.138-4.787c0 0-2.948-1.868-4.787 1.314Z" fill="#342D23"/><path d="M27.053 20.71c-.505-.235-1.13.037-1.394.606-.265.57-.069 1.223.437 1.457.506.235 1.13-.037 1.395-.606.264-.57.068-1.223-.438-1.457Z" fill="#FAD2C3"/><path d="M25.738 22.475s-2 4.286 1.112 4.59c0 0-2.277 2.428.53 5.463 0 0 4.098-1.442 2.808-5.767l-4.242-1.178-.208-3.108Z" fill="#342D23"/><path d="M21.621 23.69a.914.914 0 0 0 .308.103l.078.012.054.008.135.016a5.415 5.415 0 0 0 1.217.003c.076-.01.14-.017.183-.024l.068-.011.068-.011c.043-.01.105-.02.18-.037.15-.034.353-.09.557-.17.203-.078.41-.184.572-.286.074-.049.136-.088.164-.112a.89.89 0 0 0 .225-.235 1.76 1.76 0 0 0-.276.165c-.027.022-.088.06-.16.108-.157.1-.359.203-.557.28-.2.077-.397.132-.544.165l-.177.037-.067.01-.066.012-.18.023a5.522 5.522 0 0 1-1.198-.003c-.046-.006-.095-.01-.132-.016l-.054-.007-.077-.011a1.544 1.544 0 0 0-.32-.02ZM26.54 20.75c-.072.089-.117.15-.174.271l-.057.123-.204.44-.188.403-.083.18c-.056.12-.074.196-.096.308a1.18 1.18 0 0 0 .175-.272l.083-.179.187-.403.205-.44.057-.123c.055-.122.074-.196.096-.309Z" fill="#DDAC9D"/><g opacity=".42" fill="#CEE7F3"><path d="M40.998 12.43a1.742 1.742 0 0 0-2.243-1.668 3.69 3.69 0 0 0-4.33-4.161 3.224 3.224 0 0 0-5.98 1.63c-.018 0-.035-.003-.054-.003a2.972 2.972 0 1 0 0 5.945h10.916l-.002-.002a1.742 1.742 0 0 0 1.693-1.74ZM36.964 16.728c.712-.247-.781-1.78-.781-1.78s.068 2.026.78 1.78ZM37.46 17.865s.07 2.026.782 1.78c.713-.247-.781-1.78-.781-1.78ZM38.741 20.78s.069 2.027.781 1.78c.713-.246-.78-1.78-.78-1.78ZM34.599 16.746c.712-.247-.782-1.78-.782-1.78s.07 2.027.782 1.78ZM35.096 17.883s.068 2.026.781 1.78c.712-.247-.781-1.78-.781-1.78ZM36.377 20.8s.068 2.025.78 1.779c.713-.247-.78-1.78-.78-1.78ZM32.233 16.764c.713-.247-.78-1.78-.78-1.78s.068 2.027.78 1.78ZM32.732 17.901s.069 2.026.781 1.78c.713-.247-.78-1.78-.78-1.78ZM34.012 20.817s.068 2.026.78 1.78c.713-.247-.78-1.78-.78-1.78ZM29.087 15.003s.068 2.026.78 1.78c.714-.247-.78-1.78-.78-1.78ZM30.367 17.92s.069 2.025.781 1.779c.713-.247-.78-1.78-.78-1.78ZM31.648 20.836s.069 2.025.781 1.78c.713-.247-.78-1.78-.78-1.78Z"/><path d="M36.964 16.728c.712-.247-.781-1.78-.781-1.78s.068 2.026.78 1.78ZM37.46 17.865s.07 2.026.782 1.78c.713-.247-.781-1.78-.781-1.78ZM38.741 20.78s.069 2.027.781 1.78c.713-.246-.78-1.78-.78-1.78ZM34.599 16.746c.712-.247-.782-1.78-.782-1.78s.07 2.027.782 1.78ZM35.096 17.883s.068 2.026.781 1.78c.712-.247-.781-1.78-.781-1.78ZM36.377 20.8s.068 2.025.78 1.779c.713-.247-.78-1.78-.78-1.78ZM32.233 16.764c.713-.247-.78-1.78-.78-1.78s.068 2.027.78 1.78ZM32.732 17.901s.069 2.026.781 1.78c.713-.247-.78-1.78-.78-1.78ZM34.012 20.817s.068 2.026.78 1.78c.713-.247-.78-1.78-.78-1.78ZM29.087 15.003s.068 2.026.78 1.78c.714-.247-.78-1.78-.78-1.78ZM30.367 17.92s.069 2.025.781 1.779c.713-.247-.78-1.78-.78-1.78ZM31.648 20.836s.069 2.025.781 1.78c.713-.247-.78-1.78-.78-1.78Z"/></g><path d="M20.568 22.41a.374.374 0 0 0-.606-.253.373.373 0 0 0-.127.402.425.425 0 0 0-.096.652c.159.167.4.175.566.049l.013.01a.376.376 0 1 0 .413-.628" fill="#fff"/><path d="M20.568 22.41c-.077-.563-.896-.389-.758.156l.012-.03c-.364.202-.26.771.153.833.122.02.25-.014.347-.088h-.032c.448.328.922-.345.442-.638.432.29-.018.916-.426.583a.4.4 0 0 1-.582-.084.397.397 0 0 1 .144-.57c-.157-.51.604-.68.7-.162ZM21.46 22.068c-.173.155-.33.325-.473.509ZM20.777 22.256a3.26 3.26 0 0 0 .53-.358Z" fill="#263138"/><path d="M20.771 22.509c.193-.135.372-.286.538-.453Z" fill="#263138"/><path d="M21.934 22.052c-.191-.03-.577-.57-.274-.642.303-.07 1.049.004 1.376.34.287.294-.665.16-.803.226-.116.053-.161.096-.3.076Z" fill="#342D23"/><path d="M22.232 21.976c-.026.013-.046.024-.066.032-.044-.184.09-.424.517-.482.138.055.263.128.354.223.285.294-.666.162-.805.227Z" fill="#F094B3"/><path d="M23.096 17.506s-.38.686-1.677.317M24.335 18.165s.61 1.334 1.613.966" stroke="#342D23" stroke-width=".089" stroke-miterlimit="10" stroke-linecap="round" stroke-linejoin="round"/><path d="M19.869 15.388c-.04 0-.081-.001-.121-.005a.556.556 0 0 1-.323-.115.314.314 0 0 1-.102-.182 5.423 5.423 0 0 1-.223-.01c-.164-.008-.333-.027-.452-.137a.373.373 0 0 1-.117-.26.465.465 0 0 1-.308-.257.41.41 0 0 1 .021-.337.873.873 0 0 1-.362-.732.147.147 0 0 1-.073-.074c-.027-.065.007-.14.093-.211l.055-.044a.875.875 0 0 1 .547-.474c.196-.056.402-.04.6-.025h.01c.152-.028.3-.045.44-.053a.83.83 0 0 1 .252-.019.51.51 0 0 0 .211-.178.946.946 0 0 0 .07-.132 1.02 1.02 0 0 1 .072-.139c.122-.183.358-.288.704-.31.41-.027.742.044.987.21a.818.818 0 0 1 .232.235c.127.004.253.034.362.065.166.048.551.194.55.51 0 .105-.047.2-.089.285l-.137.281c.008.037.01.074.008.11.027.01.052.022.077.037.111.063.226.182.217.328-.006.094-.062.185-.173.276a1.506 1.506 0 0 1-.46.253 1.964 1.964 0 0 1-.184.288c-.134.176-.358.402-.662.484-.201.055-.41.031-.577-.055-.059.039-.117.072-.17.101-.349.19-.676.286-.975.286Zm-.487-.302a.26.26 0 0 0 .081.138.5.5 0 0 0 .29.102c.32.029.677-.064 1.063-.275a2.21 2.21 0 0 0 .142-.084.622.622 0 0 1-.142-.125.22.22 0 0 1-.048-.088 3.824 3.824 0 0 1-.259.03c-.131.06-.275.106-.423.131a.938.938 0 0 1-.218.104c-.157.052-.32.067-.486.067Zm.102-.202a.195.195 0 0 0-.087.08.163.163 0 0 0-.019.065c.163 0 .321-.014.472-.064a.94.94 0 0 0 .082-.032 1.26 1.26 0 0 1-.448-.049Zm-.894-.19a.307.307 0 0 0 .097.202c.105.097.264.114.417.123.073.004.145.008.216.009a.222.222 0 0 1 .027-.093.24.24 0 0 1 .067-.075c-.026-.01-.05-.02-.075-.032l-.002.008a.132.132 0 0 1-.09.088.193.193 0 0 1-.174-.028c-.067-.051-.097-.133-.118-.211a.83.83 0 0 1-.365.01Zm2.477.27c.15.068.332.084.508.037.29-.078.503-.295.632-.464a1.92 1.92 0 0 0 .15-.227 2.83 2.83 0 0 1-.232.061.91.91 0 0 1-.381.188 2.737 2.737 0 0 1-.379.075.966.966 0 0 1-.298.33Zm-.242-.22a.173.173 0 0 0 .035.062.57.57 0 0 0 .15.127 1.03 1.03 0 0 0 .284-.29 3.997 3.997 0 0 1-.124.012c-.111.04-.227.068-.346.09Zm-1.815-.075c.018.07.044.14.098.182a.14.14 0 0 0 .121.02c.02-.007.044-.02.052-.05a.134.134 0 0 0 .004-.02 1.065 1.065 0 0 1-.214-.157.699.699 0 0 1-.061.025Zm.58.18c.156.033.32.033.48.008a.874.874 0 0 0 .066-.049h-.02c-.143.008-.29.015-.433.029a.762.762 0 0 0-.092.013Zm.636-.046-.03.028c.04-.01.079-.02.117-.033a5.035 5.035 0 0 1-.087.005Zm-.882-.038c.045.022.092.041.14.056a.702.702 0 0 1 .194-.042c.143-.014.291-.02.435-.028a5.51 5.51 0 0 0 .088-.004.652.652 0 0 0 .068-.085 6.724 6.724 0 0 0-.83.021c-.035.004-.07.01-.084.032-.009.013-.01.03-.01.05Zm.992-.101a.66.66 0 0 1-.055.079 6.88 6.88 0 0 0 .212-.015c.04-.019.08-.039.117-.06a23.031 23.031 0 0 1-.274-.004Zm-1.211-.048.03.026a.897.897 0 0 0 .133.094.124.124 0 0 1 .02-.053c.027-.041.076-.052.125-.057.288-.03.582-.026.87-.021a.56.56 0 0 0 .033-.08.776.776 0 0 1-.189.034 3.071 3.071 0 0 1-.884-.05.701.701 0 0 1-.139.107Zm1.595.053-.01.006-.06.037c.04-.005.079-.01.118-.017a.157.157 0 0 1 .01-.027h-.058Zm.127 0a.147.147 0 0 0-.012.015l.084-.017-.072.001Zm-2.259-.034a.772.772 0 0 0 .353-.006 3.08 3.08 0 0 1-.039-.201.422.422 0 0 1-.011-.02 2.892 2.892 0 0 1-.19-.072.561.561 0 0 0-.112.288v.011Zm-.297-.516a.353.353 0 0 0-.015.282.4.4 0 0 0 .256.218.612.612 0 0 1 .115-.306 1.898 1.898 0 0 1-.356-.194Zm.69.427.015.066a.688.688 0 0 0 .032-.012 1.147 1.147 0 0 1-.046-.054Zm1.385.06c.111.003.224.005.336.005.117-.077.224-.165.324-.26a1.19 1.19 0 0 1-.441-.177.4.4 0 0 1-.18.32.589.589 0 0 1-.04.113Zm.732-.246c-.091.09-.189.175-.294.251h.02a.369.369 0 0 1 .128-.067c.142-.045.29-.077.44-.104.016-.04.03-.082.046-.125a.656.656 0 0 1-.34.045Zm.267.143a3.3 3.3 0 0 0-.395.096l-.027.01c.072-.003.144-.006.215-.012.071-.025.14-.057.207-.094Zm-2.39-.068c.031.05.067.096.107.139a.674.674 0 0 0 .112-.08 3.097 3.097 0 0 1-.219-.059Zm2.435.11-.013.027c.112-.016.223-.038.332-.068.104-.028.192-.063.262-.105a10.054 10.054 0 0 1-.474.078 2.135 2.135 0 0 1-.107.067Zm-2.098-.085c.272.053.552.067.83.043a.624.624 0 0 0 .212-.047c.017-.09.012-.182.007-.28l-.005-.093a.66.66 0 0 1-.167.11.746.746 0 0 1-.607-.01.676.676 0 0 1-.07-.013l-.024.04c-.042.075-.1.166-.176.25Zm-.36-.093c.096.032.194.058.293.08.085-.086.148-.186.194-.266l.016-.028a.698.698 0 0 1-.183-.096c-.12.02-.236.05-.343.1.005.074.012.144.022.21Zm2.554-.072-.009.025a4.484 4.484 0 0 1-.04.108l.036-.005a.715.715 0 0 0 .12-.113 2.225 2.225 0 0 1-.107-.015Zm-1.092-.27v.022c0 .042.002.085.005.127.004.079.008.16 0 .24.08-.07.11-.181.11-.283a.586.586 0 0 1-.105-.116.082.082 0 0 0-.01.01Zm1.267.292a.638.638 0 0 1-.077.088l.06-.01c.148-.023.292-.046.432-.075l.012-.012a1.18 1.18 0 0 1-.212.019c-.072 0-.143-.004-.215-.01Zm-2.94-.027c.037.016.075.03.112.044a1.052 1.052 0 0 1-.041-.107.571.571 0 0 0-.072.063Zm2.41.017a.584.584 0 0 0 .238-.034 3.577 3.577 0 0 1-.168-.043 3.611 3.611 0 0 1-.07.077Zm-.564-.204a.98.98 0 0 0 .307.155 1.2 1.2 0 0 0 .183.042c.028-.029.057-.059.084-.09a1.088 1.088 0 0 1-.438-.26.823.823 0 0 1-.145-.202.928.928 0 0 1-.045.103c.02.055.035.112.045.17a.604.604 0 0 1 .009.082Zm1.614.18-.01.014c.07-.018.138-.037.205-.06.082-.161.142-.334.178-.512a.566.566 0 0 1-.082.046.434.434 0 0 1-.057.349.444.444 0 0 1-.234.164Zm-.486-.021c.06.004.12.006.18.006a.966.966 0 0 0 .268-.033l.016-.028a.447.447 0 0 0-.005-.375 1.658 1.658 0 0 1-.315-.04c-.02.033-.038.068-.057.102a4.148 4.148 0 0 1-.053.097.364.364 0 0 1-.034.271Zm-3.397-.194a1.814 1.814 0 0 0 .366.199.58.58 0 0 1 .106-.095l.005-.004a1.04 1.04 0 0 1-.03-.376.821.821 0 0 0-.296.118.519.519 0 0 0-.15.158Zm3.233.175c.034.005.067.01.101.013a.316.316 0 0 0 .052-.186v-.006a.745.745 0 0 1-.153.18Zm-2.687-.05a.618.618 0 0 0 .013.04c0-.015-.002-.03-.004-.046l-.009.005Zm2.4-.01a2.584 2.584 0 0 0 .204.047l.126-.381a.698.698 0 0 0-.043-.04 4.83 4.83 0 0 1-.288.373Zm1.379-.514a2.099 2.099 0 0 1-.17.54c.14-.054.27-.125.387-.223.098-.08.148-.158.153-.236.007-.119-.093-.22-.189-.274a.647.647 0 0 0-.055-.029c-.001.01-.004.018-.006.027a.434.434 0 0 1-.12.195Zm-.407.162a.51.51 0 0 1 .006.374.36.36 0 0 0 .145-.118.374.374 0 0 0 .05-.294.743.743 0 0 1-.202.038Zm-2.479.349a.617.617 0 0 0 .6-.177.756.756 0 0 1 .01-.1.566.566 0 0 1-.02-.07c-.06.02-.12.04-.18.057a.653.653 0 0 1-.41.29Zm1.881-.28c-.029.09-.058.18-.089.268a.86.86 0 0 0 .137-.183.368.368 0 0 0-.048-.085Zm-1.006-.175c.035.068.08.13.132.185.107.11.251.193.439.254.107-.123.207-.255.302-.39a.904.904 0 0 0-.052-.034.903.903 0 0 1-.253-.108 1.178 1.178 0 0 0-.273-.047l-.033.018a4.267 4.267 0 0 1-.262.122Zm-1.807.056c-.013.118-.005.238.024.354l.02-.012a2.159 2.159 0 0 1 .011-.35l-.055.008Zm.77.346a.492.492 0 0 0 .196-.014.568.568 0 0 0 .286-.198c-.15.04-.303.07-.458.093l-.024.004a4.11 4.11 0 0 1-.048.093l.048.022Zm-.656-.36a2.016 2.016 0 0 0-.013.329c.091-.04.189-.067.288-.087l-.027-.026a.835.835 0 0 1-.156-.225l-.092.008Zm.487.267.07.044.03-.058-.032.004-.068.01Zm1.035-.067c.018.029.04.056.063.08 0-.006-.002-.011-.003-.017a.902.902 0 0 0-.027-.112.526.526 0 0 1-.033.05Zm-2.522-.59a.809.809 0 0 0 .334.656.578.578 0 0 1 .164-.171.899.899 0 0 1 .336-.13.986.986 0 0 1 .039-.153 3.916 3.916 0 0 1-.873-.203Zm1.195.374c.063.087.14.167.225.234l.128-.017.07-.01c.02-.038.038-.075.056-.113l.019-.039a.548.548 0 0 1-.208-.087 2.768 2.768 0 0 1-.29.032Zm.559.06-.029.06-.038.078a4.08 4.08 0 0 0 .505-.108c.07-.108.131-.246.182-.417l.023-.076c.037-.127.075-.255.127-.374-.008-.014-.015-.027-.024-.04a1.772 1.772 0 0 0-.132.08l-.016.02a.833.833 0 0 1-.063.314c-.096.238-.295.463-.535.463Zm1.967.022a.463.463 0 0 1 .061.09l.031-.056.045-.083-.07-.001a.857.857 0 0 1-.05-.004l-.017.054Zm-1.234.065.005.013a.797.797 0 0 0 .04-.065 1.779 1.779 0 0 0-.017-.046.502.502 0 0 0-.028.098Zm-.066-.429a1.733 1.733 0 0 1-.147.348l.127-.041a.49.49 0 0 1 .033-.207.31.31 0 0 1-.013-.1Zm1.234.3.02.018.004-.014-.024-.004Zm.588-.045a.65.65 0 0 1 .029.05.79.79 0 0 0 .213-.037.804.804 0 0 0-.05-.126.623.623 0 0 1-.192.113Zm-.145.04c.037.005.073.008.108.01a.464.464 0 0 0-.02-.031.878.878 0 0 1-.088.021Zm-1.632-.095a.405.405 0 0 0-.008.087l.016-.006.013-.024-.021-.057Zm-.57-.13c-.04.07-.077.142-.113.213.2-.017.37-.217.454-.426a.823.823 0 0 0 .056-.22 1.697 1.697 0 0 1-.27.268.512.512 0 0 1-.127.166Zm-.329.163a.422.422 0 0 0 .144.05h.008l.07-.136a1.014 1.014 0 0 1-.221.086Zm2.197-.008c.044.013.087.024.128.033a1.041 1.041 0 0 1 .117-.161 1.044 1.044 0 0 0-.167-.098c-.006.01-.012.02-.02.03-.018.065-.038.13-.058.196Zm.292-.093-.012.013a.915.915 0 0 0-.082.11c.062-.005.126-.014.188-.03a.742.742 0 0 0-.094-.093Zm-3.125-.016a.92.92 0 0 0-.036.137l.054-.008c.006-.042.014-.083.024-.125a.994.994 0 0 1-.042-.004Zm1.673.087a.263.263 0 0 0-.042.045l.032-.013.01-.032Zm1.873-.102a.847.847 0 0 1 .061.145.517.517 0 0 0 .112-.074l.015-.117a.106.106 0 0 1-.042.012.073.073 0 0 1-.068-.033l-.008-.012.017-.052a.488.488 0 0 1-.076.12l-.01.01Zm-3.448.026a1.578 1.578 0 0 0-.021.111l.059-.005a.956.956 0 0 1-.038-.106Zm2.507.09c.026.007.052.013.079.018l.002-.003a.558.558 0 0 1-.302-.27.461.461 0 0 1-.028-.08.694.694 0 0 1-.123.121.524.524 0 0 0 .12.107 1.217 1.217 0 0 1 .252.108Zm-2.434-.088c.015.032.034.064.055.098h.006c.084-.006.17-.012.254-.024l-.049-.037-.05-.036c-.069.003-.14.002-.216 0Zm2.603.076.005.002.004-.015-.009.013Zm.392-.113c.042.035.08.074.111.114a.562.562 0 0 0 .198-.115.961.961 0 0 0-.088-.127.67.67 0 0 0-.22.128Zm-1.432.104.004.008c.064-.027.127-.056.19-.086a.526.526 0 0 0-.185.041l-.009.037Zm-.17-.09c.01.03.02.062.032.093a.359.359 0 0 1 .058-.054.853.853 0 0 1-.032-.144.592.592 0 0 0-.058.105Zm-1.089.017c.03.023.06.046.09.066a.989.989 0 0 0 .187-.054.646.646 0 0 0 .168-.101l.02-.035a1.276 1.276 0 0 1-.465.124Zm1.933-.276a.382.382 0 0 0 .028.092.509.509 0 0 0 .283.245l.12-.18a.872.872 0 0 1 .01-.034l-.033-.013a1.842 1.842 0 0 0-.408-.11Zm1.388.156c-.002.031-.005.062-.009.092a.346.346 0 0 0 .057-.137.175.175 0 0 0-.015-.005l-.002.002a.206.206 0 0 1-.031.048Zm-2.035-.14a.962.962 0 0 1-.006.228.665.665 0 0 1 .2-.033h.088c.037-.02.075-.043.11-.069a.481.481 0 0 1-.062-.162c-.11.003-.221.015-.33.037Zm-.086.073c.003.05.01.101.023.15a.916.916 0 0 0 .01-.164l-.002-.019-.031.033Zm.468.13.081.012a.652.652 0 0 1-.037-.04l-.044.028Zm-2 .004c.057.003.111.005.164.004a.48.48 0 0 0-.168-.069h-.006l-.003.008a.963.963 0 0 0 .01.05l.004.007Zm.01-.12a.637.637 0 0 1 .252.121c.244-.014.442-.072.6-.175l.002-.002a1.41 1.41 0 0 1 .056-.077c.029-.093.032-.196.034-.303.002-.09.005-.183.024-.27a.662.662 0 0 0-.194-.007c-.07.025-.138.055-.205.09a1.119 1.119 0 0 0-.57.623Zm-.13.11.032.004.012-.04-.004-.014a.075.075 0 0 0-.01.007.103.103 0 0 0-.03.044Zm2.92-.11c.067.032.126.067.177.105a.729.729 0 0 1 .226-.137c-.065-.066-.17-.144-.273-.1-.057.024-.097.083-.13.132Zm-3.872-.103.015.006c.284.1.578.168.876.202l.001-.004a.18.18 0 0 1 .056-.08.133.133 0 0 1 .032-.018.506.506 0 0 1-.001-.15.742.742 0 0 1 .346-.679 5.05 5.05 0 0 1-.142-.01 2.672 2.672 0 0 0-1.12.477.753.753 0 0 0-.063.256Zm4.376.099c.024.032.048.066.07.102a.447.447 0 0 0 .073-.124.742.742 0 0 0-.143.022Zm.233.063a.02.02 0 0 0 .008.001c.015 0 .034-.013.052-.03l.002-.048a.927.927 0 0 0-.035-.005l-.027.082Zm-2.064-.102a.127.127 0 0 0-.06.06.114.114 0 0 0-.009.042.656.656 0 0 1 .07-.096v-.006Zm.534-.08.004.017c.01.04.026.077.046.111a.645.645 0 0 0 .117-.12 1.88 1.88 0 0 0-.167-.008Zm-.523-.252a3.66 3.66 0 0 0-.105.32l-.01.031a.211.211 0 0 1 .106-.083.734.734 0 0 1 .037-.196.953.953 0 0 0-.028-.072Zm.785.215a1.902 1.902 0 0 1 .453.125l.011-.04c.01-.032.017-.064.006-.088-.015-.034-.065-.045-.112-.052a7.21 7.21 0 0 0-.186-.024l-.018.007-.003-.009a2.954 2.954 0 0 0-.124-.01.326.326 0 0 1-.027.09Zm.723-.043c.112 0 .213.088.271.15a.801.801 0 0 1 .202-.03.643.643 0 0 0-.094-.489 1.444 1.444 0 0 0-.254-.141 1.593 1.593 0 0 0-.021-.004.76.76 0 0 1-.182.225c-.11.093-.237.158-.36.21l.082.01c.062.009.129.026.156.085.014.03.012.06.006.091a.28.28 0 0 1 .11-.09.214.214 0 0 1 .084-.017Zm-3.028.06c0 .027.003.057.005.087.053-.127.126-.247.227-.354.094-.1.214-.19.356-.264a.97.97 0 0 0-.34.15.597.597 0 0 0-.248.38Zm3.685-.126.003.033c.004.055.006.11.006.165l.037-.076a.526.526 0 0 0-.046-.122Zm-.066.19.017.004v-.056l-.017.053Zm-.102-.405a.678.678 0 0 1 .044.398l.065-.2a.656.656 0 0 0-.02-.104.768.768 0 0 0-.089-.094Zm-1.938.292-.007.048a.215.215 0 0 0-.002.018l.018-.005h.003l-.012-.06Zm-2.64-.096c-.035.033-.072.082-.055.126a.075.075 0 0 0 .025.03.852.852 0 0 1 .03-.156Zm3.04.053a.94.94 0 0 0-.218.072c.072-.01.144-.016.217-.018a.44.44 0 0 1 0-.054Zm.056.054c.068 0 .135.005.202.012 0-.029.001-.058.004-.086-.068 0-.136.002-.204.011a.38.38 0 0 0-.002.063Zm-.426-.12c.013.038.023.077.031.117l.015-.02a.324.324 0 0 0 .044-.276.798.798 0 0 0-.09.179Zm2.098-.046c.025.04.046.082.061.124l.108-.223a.627.627 0 0 0 .083-.26c.001-.277-.355-.41-.508-.454a1.508 1.508 0 0 0-.313-.061.542.542 0 0 1 .046.362c.035.021.069.043.1.068l.12.008c.12.008.284.034.334.164.029.075.008.152-.018.231l-.013.04Zm-2.637-.344c-.018.08-.02.168-.022.257-.002.07-.004.14-.013.208.069-.074.143-.14.22-.196a.313.313 0 0 0-.115-.23.324.324 0 0 0-.07-.039Zm.67.153c.034.096.04.2.002.293.09-.037.186-.08.272-.138a.63.63 0 0 1 .13-.2.716.716 0 0 0-.154-.1 2.358 2.358 0 0 0-.146.039.813.813 0 0 0-.104.106Zm.248.239-.01.006.01-.002v-.004Zm.351-.01.132.012c.147-.056.31-.127.442-.24a.704.704 0 0 0 .159-.19c-.19-.032-.417-.05-.624.02-.017.036-.032.075-.048.114-.025.064-.05.13-.07.196a.368.368 0 0 1 .01.07v.018Zm-.279-.036a.435.435 0 0 0-.012.042c.067-.008.135-.01.202-.01a.985.985 0 0 1 .02-.085.347.347 0 0 0-.046-.099.732.732 0 0 1-.164.152Zm-1.663-.478a.707.707 0 0 0-.374.458.705.705 0 0 1 .191-.207c.14-.1.323-.164.558-.193l.036-.004c.082-.03.166-.051.251-.067l.004-.008.001-.003a.732.732 0 0 0-.16-.052h-.086c-.143.06-.3.075-.421.076Zm1.153.377.03.063a.852.852 0 0 1 .096-.165.418.418 0 0 0-.015-.032 1.524 1.524 0 0 0-.054.023.998.998 0 0 0-.057.11Zm2.109.03.007.01c.022-.07.04-.136.02-.192-.039-.1-.181-.121-.285-.128l-.046-.003.018.018c.093.038.179.094.234.181.024.036.04.075.052.114Zm-2.575-.33a.339.339 0 0 1 .223.28c.03-.038.061-.075.093-.112a.91.91 0 0 0-.237-.216 1.311 1.311 0 0 0-.064.01.364.364 0 0 0-.015.038Zm-1.237-.105c-.103 0-.206.009-.304.037a.814.814 0 0 0-.454.34c.268-.185.56-.302.847-.375a1.449 1.449 0 0 0-.089-.002Zm2.339.308a.662.662 0 0 0-.052.062.555.555 0 0 0 .052-.062Zm.071-.004a.48.48 0 0 1 .04.063l.05-.13.026-.064a.626.626 0 0 0-.075.042.51.51 0 0 1-.04.089Zm-.744.034a.02.02 0 0 1 .002.004l.004-.007a.024.024 0 0 1-.006.003Zm-.04-.062.009.014c.028-.015.057-.029.085-.042a.859.859 0 0 1 .04-.06l-.025-.028a1.949 1.949 0 0 0-.11.116Zm.24-.025.002.002.004-.004c-.002 0-.004 0-.005.002Zm-.462-.204c.07.052.132.113.187.182.033-.038.067-.074.103-.108a.643.643 0 0 0-.125-.078c-.055 0-.11 0-.165.005Zm.825.103c.04.023.076.05.11.078a.704.704 0 0 1 .062-.049.53.53 0 0 0 .013-.058 3.3 3.3 0 0 0-.185.029Zm-.397.04.006.01c.044-.017.087-.032.13-.045a.792.792 0 0 1 .05-.037l-.006-.002a1.753 1.753 0 0 0-.083-.023.721.721 0 0 0-.097.098Zm-.054-.068.018.021a.753.753 0 0 1 .064-.066l-.02-.005a1.363 1.363 0 0 0-.062.05Zm.695-.008a.442.442 0 0 1-.003.023.518.518 0 0 1 .043-.021l.016-.007a.808.808 0 0 0-.056.005Zm-.483-.064.04.011c.04.013.08.028.12.046a2.866 2.866 0 0 1 .269-.045.408.408 0 0 0-.018-.124.78.78 0 0 0-.41.112Zm-.83.034.022.005.004-.01-.027.005Zm.537-.032.011.008.029.022a.617.617 0 0 1 .026-.022 1.62 1.62 0 0 0-.066-.008Zm.764-.113a.463.463 0 0 1 .015.117l.105-.009.049-.095a1.559 1.559 0 0 0-.169-.013Zm.86.113h.006l-.006-.003v.003Zm-.083-.004.021.001.01-.029a1.34 1.34 0 0 0-.529-.136l-.017.025a2.792 2.792 0 0 1 .515.14Zm-.547-.087-.044.082a4.96 4.96 0 0 1 .382-.004 3.736 3.736 0 0 0-.338-.078Zm-.786.067.012.003.002-.002a.733.733 0 0 1 .085-.054.81.81 0 0 0-.099.053Zm-.323-.042c.081.003.163.011.243.025a.958.958 0 0 1 .088-.055c.137-.076.29-.11.427-.124a.245.245 0 0 0-.059-.046.505.505 0 0 0-.228-.046c-.236-.01-.528.017-.7.18a.969.969 0 0 1 .229.066Zm-.283-.005.03.016.082-.007a1.16 1.16 0 0 0-.104-.02l-.008.01Zm1.484-.152c.194.018.361.063.502.134a.47.47 0 0 0-.06-.336.586.586 0 0 0-.265.059.562.562 0 0 0-.177.143Zm-1.703.066c.066.002.134.005.203.014.18-.204.51-.238.772-.226.086.003.176.01.253.053.04.022.074.052.1.09a2.309 2.309 0 0 1 .305-.002.647.647 0 0 1 .22-.19.637.637 0 0 1 .256-.063.776.776 0 0 0-.196-.188c-.234-.159-.554-.227-.951-.2-.327.02-.549.116-.66.284-.027.04-.047.085-.068.131a.96.96 0 0 1-.074.14.535.535 0 0 1-.16.158Zm1.372-.015c.072.002.142.008.21.018l.011-.019a2.363 2.363 0 0 0-.22.001Z" fill="#A0BCC5"/></g></g><defs><clipPath id="a"><rect width="48" height="48" rx="24" fill="#fff"/></clipPath><clipPath id="b"><path fill="#fff" d="M0 0h48v48H0z"/></clipPath></defs></svg>