<svg width="48" height="48" fill="none" xmlns="http://www.w3.org/2000/svg"><g clip-path="url(#a)"><rect width="48" height="48" rx="24" fill="#fff"/><g clip-path="url(#b)"><path opacity=".29" d="m-2.196 41.09 15.334-1.688s19.077-1.384 20.315-1.03c1.238.354 16.868-.33 16.868-.33l-1.816 2.881-.592 2.044-14.572.51h-7.074c-.843 0-1.684.1-2.504.296a38.672 38.672 0 0 1-13.025.859 20.013 20.013 0 0 1-4.184-.896l-5.509-1.813-2.325-.085s-1.624.8-2.019.388c-.395-.412 1.103-1.137 1.103-1.137Z" fill="#C3DAE4"/><path d="m35.537 8.809-.348-.885c-.568.047-.946-.166-1.132-.641-.095-.243-.102-.468-.019-.676a.908.908 0 0 1 .445-.478L34.4 5.92l.29-.114.081.21a.932.932 0 0 1 .594.026c.177.073.326.21.445.414l-.48.27c-.096-.156-.221-.237-.375-.243l.325.826c.347-.034.602-.008.764.078a.94.94 0 0 1 .43.511c.104.265.115.513.032.742-.084.23-.245.414-.485.552l.155.396-.29.113-.15-.385c-.506.13-.907-.066-1.204-.585l.501-.266a.784.784 0 0 0 .234.244c.09.059.18.092.269.1Zm-.873-2.22a.418.418 0 0 0-.119.462c.067.169.202.259.406.27l-.287-.731Zm1.174 2.136a.448.448 0 0 0 .175-.554c-.079-.2-.246-.29-.5-.27l.325.824Z" fill="#C3DAE4" opacity=".56"/><g opacity=".56" fill="#C3DAE4"><path d="M40.584 7.375h-.707v2.737h.707V7.375Z"/><path d="M38.861 8.39v.707H41.6V8.39H38.86Z"/></g><g opacity=".56" fill="#C3DAE4"><path d="m34.324 11.998-3.18-1.912-.448.745 3.18 1.912.448-.745ZM33.656 13.108l-3.18-1.911-.448.745 3.18 1.912.448-.745Z"/></g><path d="M41.367 16.794h.522c-.174.429-.445.76-.813.995-.368.234-.818.351-1.352.351-.544 0-1.004-.107-1.38-.32a2.188 2.188 0 0 1-.88-.94c-.21-.413-.316-.909-.316-1.488 0-.594.115-1.127.345-1.6.23-.474.531-.828.904-1.062a2.333 2.333 0 0 1 1.27-.353c.406 0 .766.095 1.081.284.315.188.563.46.744.815.18.354.271.759.271 1.212 0 .521-.137.995-.41 1.42-.318.494-.724.74-1.218.74a.488.488 0 0 1-.303-.08.432.432 0 0 1-.144-.261c-.192.228-.414.341-.668.341-.264 0-.488-.112-.672-.336-.184-.224-.276-.529-.276-.914 0-.38.072-.735.213-1.065.142-.33.31-.568.501-.715a1 1 0 0 1 .621-.22.7.7 0 0 1 .381.101c.108.069.197.17.267.306l.06-.333h.647l-.369 2.15a2.065 2.065 0 0 0-.036.27c0 .046.01.081.029.106.019.025.041.037.067.037.076 0 .176-.055.3-.168a1.63 1.63 0 0 0 .408-.608 2.09 2.09 0 0 0 .16-.8c0-.337-.073-.64-.218-.914a1.492 1.492 0 0 0-.575-.614c-.24-.137-.529-.206-.868-.206-.404 0-.756.096-1.057.286-.301.192-.544.484-.729.879-.185.393-.277.845-.277 1.353 0 .434.087.816.26 1.149.175.332.413.581.715.748.301.168.67.25 1.106.25.392 0 .728-.066 1.01-.199.28-.132.507-.331.68-.597Zm-2.657-1.236c0 .258.043.446.13.564a.385.385 0 0 0 .32.177.453.453 0 0 0 .309-.126c.122-.108.227-.292.316-.552.09-.26.134-.521.134-.786 0-.225-.044-.398-.132-.518-.088-.12-.195-.18-.321-.18-.202 0-.366.114-.492.342-.176.32-.264.68-.264 1.08Z" fill="#C3DAE4" opacity=".56"/><path d="M28.829 19.809c.49.307 1.043.417 1.575.354.218-.026.433-.011.639.041l-2.126 3.388 1.008.632 2.126-3.39c.139.162.247.35.318.555a2.41 2.41 0 0 0 1 1.263A2.47 2.47 0 0 0 37 21.4a2.467 2.467 0 0 0-.584-2.585 2.491 2.491 0 0 0-1.716-.709c-.492 0-.975-.137-1.401-.404l-.017-.011a2.525 2.525 0 0 1-.934-1.036 2.454 2.454 0 0 0-3.971-.658 2.463 2.463 0 0 0 .45 3.81Zm5.25.387a.624.624 0 0 1 .862-.2.628.628 0 0 1-.668 1.064.624.624 0 0 1-.194-.864Zm-4.537-2.847a.628.628 0 1 1 1.064.668.628.628 0 0 1-1.064-.668Z" fill="#8EB0C1"/><path d="M30.459 30.625c-2.132.701-3.39 2.698-2.811 4.46.58 1.761 2.777 2.62 4.91 1.92 2.131-.702 3.39-2.698 2.81-4.46-.58-1.762-2.777-2.622-4.91-1.92Z" fill="#F19257"/><path d="M19.192 36.349c-1.965.931-3.31 2.11-3.124 2.803.2.744 2.219 1.12 4.95.636l10.725-3.528-1.35-6.412a23.38 23.38 0 0 0-4.065 1.426 23.599 23.599 0 0 0-7.136 5.075Z" fill="#F19257"/><path d="m34.69 40.72 4.226-.303a8.054 8.054 0 0 0-2.08-1.022c-.825-.264-.96-.156-2.074-.418-1.213-.285-1.442-.518-3.097-1.005a43.17 43.17 0 0 0-1.99-.532c-4.355-1.055-5.612-.707-6.163-.51-.777.279-.817.35-1.805.638a12.637 12.637 0 0 1-4.82.42c-.772.752-.895 1.253-.805 1.592.341 1.272 4.006 1.356 6.284 1.299.725-.12 1.474-.225 2.246-.31a41.16 41.16 0 0 1 10.077.15Z" fill="#FAD2C3"/><path d="m32.498 36.85 2.894-6.844c-.358-.702-3.542-6.699-9.947-7.55-2.538-.337-4.66.256-5.945.754l-.85 3.358A71.434 71.434 0 0 1 32.498 36.85Z" fill="#F19257"/><path d="m17.003 27.076 1.59-.121 2.547-.192-.231-3.76-5.28 1.022a12.229 12.229 0 0 1 1.374 3.051Z" fill="#FAD2C3"/><path d="m17.003 27.076 1.59-.121c-.061-.705-.96-1.222-2.021-1.157l-.023.001.454 1.277Z" fill="#E1BCB1"/><path d="M17.354 26.685c-.145-.621-.554-1.79-1.95-3.005-.079-.07-1.276-1.08-2.785-.633-.969.288-1.595 1.037-1.875 1.744-.584 1.478.188 3.19 1.014 3.576.139.065.272.102.385.124.969.15 1.403.222 1.425.23.006.001.037.013.076.009a.161.161 0 0 0 .059-.019l.371-.123c.834-.015 1.185-.007 1.29.01l.037.006c.175.023.263.035.338 0 .022-.01.04-.018.06-.01.04.014.032.07.065.089.05.027.143-.058.16-.073.017-.015.155-.14.123-.262a.17.17 0 0 0-.048-.081c-.004.002.091.22.183.213.037-.003.072-.043.081-.053.03-.034.032-.061.041-.076.055-.094.598.079.809-.006.31-.125.309-.937.14-1.66Z" fill="#FAD2C3"/><path d="M15.125 29.14c.136-.008.228-.154.263-.208a.602.602 0 0 0 .089-.361c-.032-.04-.095-.105-.184-.114-.074-.008-.112.038-.2.056a.435.435 0 0 1-.26-.032l-.847.088c.174.083.315.149.413.193.322.148.33.143.41.194.184.116.217.19.316.184Z" fill="#FAD2C3"/><path d="M13.922 28.375a.096.096 0 0 1-.09-.064.096.096 0 0 1 .06-.122.429.429 0 0 0 .21-.147c.137-.192.074-.525-.15-.792a.095.095 0 1 1 .146-.122c.284.338.35.76.16 1.024a.613.613 0 0 1-.304.218.116.116 0 0 1-.032.005ZM13.57 27.108s-.02.131-.016.257c.005.205.071.638.198 1.187a.303.303 0 0 1-.192.115.275.275 0 0 1-.184-.052 7.899 7.899 0 0 0-.07-.835c-.01-.072-.042-.285-.013-.542a.705.705 0 0 1 .046-.203.38.38 0 0 1 .276-.24c-.015.08-.032.185-.045.313Z" fill="#22120E"/><path d="M16.148 28.442a.095.095 0 0 1-.094-.079l-.113-.647a.095.095 0 0 1 .187-.033l.113.648a.095.095 0 0 1-.093.111Z" fill="#E1BCB1"/><path d="M28.677 37.414c-4.18.08-8.226.321-12.13.694 2.003-2.18 4.767-4.554 8.459-6.31a26.281 26.281 0 0 1 1.825-.784l8.245-2.264a22.567 22.567 0 0 1 1.526 3.544 6.348 6.348 0 0 1-2.086 3.594c-1.64 1.4-3.462 1.492-3.969 1.5-.62.006-1.243.014-1.87.026Z" fill="#3A718D"/><path d="m34.543 41.04-16.229.024c-.232.004-1.252-.006-2.059-.786a2.76 2.76 0 0 1-.621-.912.532.532 0 0 1 .055-.51c.35-.506.77-1.045 1.274-1.59a14.381 14.381 0 0 1 3.693-2.86l14.242 4.121-.355 2.513Z" fill="#3A718D"/><path d="M34.526 37.006c2.704.984 5.408 1.97 8.112 2.953-.045.14-.138.355-.338.514-.36.285-.844.216-1.024.194-.672-.08-1.864-.056-3.817.1-.276-.076-.608-.204-.634-.408-.023-.181.215-.28.225-.417.017-.227-.581-.563-2.86-1.077a3.565 3.565 0 0 1 .336-1.86Z" fill="#B2D3E0"/><path d="M21.514 38.987a.071.071 0 0 1-.03-.137 17.598 17.598 0 0 1 5.215-1.483 17.5 17.5 0 0 1 3.139-.099.07.07 0 0 1 .067.076c-.002.039-.037.072-.076.067a17.42 17.42 0 0 0-3.113.098 17.456 17.456 0 0 0-5.172 1.471.07.07 0 0 1-.03.007Z" fill="#306277"/><path d="M37.657 30.608c-.387.824-1.148 2.076-2.557 2.877-2.526 1.436-6.094.834-8.9-1.57-2.426-1.66-4.852-3.323-7.278-4.985l-1.099-3.446c1.367-.62 4.855-1.97 9.158-1.12 6.982 1.38 10.235 7.396 10.676 8.244Z" fill="#7BB0CB"/><path d="m19.066 26.999-.767.139-.975-3.442.54-.22L19.066 27Z" fill="#E5E5E5"/><path d="m11.45 39.637 1.497.982a31.579 31.579 0 0 1 2.05-1.906c1.905-1.618 3.013-2.165 3.583-3.581.23-.568.292-1.08.31-1.421l-2.004-1.59c-.639.624-1.08 1.18-1.35 1.547-1.482 2.015-1.57 3.423-3.161 5.113-.38.403-.722.693-.926.856Z" fill="#FAD2C3"/><path d="m16.382 32.568 2.246 1.224c1.013-1.61 1.798-3 2.361-4.048 2.45-4.548 2.568-5.992 2.037-6.902a2.042 2.042 0 0 0-.295-.39c-1.347 1.327-2.695 2.652-4.043 3.978l-2.306 6.138Z" fill="#F19257"/><path d="M19.795 33.49a14.38 14.38 0 0 1-.712 1.558c-1.538 2.895-3.78 4.713-5.47 5.79L11.71 39.42l4.406-6.887 2.46-7.075c.811-2.569 3.168-3.59 4.494-2.973.937.436 1.488 1.75 1.43 3.18l-4.705 7.824Z" fill="#7BB0CB"/><path d="M12.062 41.549H5.737l-.087-.185c1.933-.575 3.866-1.15 5.8-1.727l1.496.982a1.943 1.943 0 0 1-.884.93Z" fill="#FAD2C3"/><path d="M7.534 41.533h-.011a.095.095 0 0 1-.084-.106.466.466 0 0 1 .11-.261c.185-.21.526-.163.73-.134l.03.004a5.42 5.42 0 0 0 1.343 0 .095.095 0 1 1 .021.19c-.5.057-.968.057-1.389-.001l-.031-.005c-.166-.023-.443-.062-.561.072a.277.277 0 0 0-.063.157.097.097 0 0 1-.095.084Z" fill="#E1BCB1"/><path d="M22.41 29.212a.072.072 0 0 1-.061-.108l.846-1.407a.072.072 0 0 1 .122.074l-.845 1.406a.072.072 0 0 1-.062.035Z" fill="#639AAF"/><path d="M21.514 38.987a.072.072 0 0 1-.05-.122l.984-.985a.072.072 0 1 1 .101.102l-.985.984a.072.072 0 0 1-.05.02ZM21.284 38.703a.072.072 0 0 1-.071-.072v-.518a.071.071 0 1 1 .143 0v.518c0 .04-.032.072-.072.072Z" fill="#306277"/><path d="M12.661 26.735c-.485.755-.142 1.899-.401 1.933-.148.02-.287-.306-.414-.264-.172.057-.018.691-.137.736-.174.067-1.12-1.07-1.255-2.474-.116-1.207.32-3.133 1.904-3.774 1.575-.638 3.106.471 3.478.836.098.096.34.334.28.537-.04.131-.198.219-.575.304-.89.202-1.5.05-1.542.177-.052.158.9.432.886.77-.018.438-1.61.267-2.224 1.22Z" fill="#22120E"/><path opacity=".67" d="M19.018 19.422c-1.397 0-2.805-.25-4.152-.748-.253-.094-.54-.211-.758-.42-.205-.196-.326-.45-.443-.696-.07-.147-.143-.299-.232-.433-.304-.458-.848-.794-1.665-1.026-.6-.17-1.228-.27-1.835-.368-.616-.099-1.254-.201-1.868-.376a17.922 17.922 0 0 1-3.403-1.379c-.533-.28-1.071-.608-1.399-1.113-.283-.437-.402-1.004-.334-1.598.139-1.224.889-2.081 1.527-2.692.09-.09.582-.549 1.094-.909.564-.396 1.213-.556 1.426-.608l.044-.01c.892-.233 1.588-.521 2.325-.826.964-.4 1.961-.813 3.481-1.129 1.701-.353 6.22-1.292 7.88.472l.074.081c.241.266.742.818 1.546 1.055.284.084.491.084.8.084.175 0 .37 0 .624.014l.33.018c.74.04 1.503.08 2.24.243.856.188 2.352.702 2.748 2.026.093.307.116.648.07 1.014-.156 1.253-1.124 2.439-2.526 3.094l-.142.066c-.295.134-.599.272-.788.517-.3.389-.24.899-.175 1.439.034.286.07.583.049.867-.115 1.592-1.905 2.401-2.67 2.675a11.5 11.5 0 0 1-3.868.666ZM5.658 7.82c-.564.398-1.066.884-1.07.89-.914.874-1.368 1.669-1.471 2.577-.063.55.045 1.072.305 1.472.32.492.852.8 1.327 1.048a17.727 17.727 0 0 0 3.367 1.364c.604.172 1.235.273 1.846.372.613.098 1.246.2 1.857.373.862.244 1.442.605 1.772 1.104.096.144.172.303.245.456.115.24.224.468.403.64.191.183.447.288.693.379 2.575.953 5.377.981 7.89.08.729-.261 2.436-1.03 2.543-2.51.02-.266-.015-.553-.048-.83-.066-.555-.134-1.128.213-1.578.219-.283.545-.43.86-.574l.14-.065c1.053-.492 2.241-1.524 2.419-2.945.042-.34.02-.655-.064-.937-.369-1.23-1.791-1.715-2.607-1.894-.721-.159-1.477-.2-2.208-.238l-.331-.019a9.032 9.032 0 0 0-.613-.013c-.316 0-.544 0-.855-.092-.855-.251-1.38-.83-1.633-1.11-.027-.03-.05-.056-.072-.078-1.587-1.686-6.03-.763-7.702-.416-1.502.312-2.49.722-3.447 1.118-.743.308-1.446.599-2.35.834l-.046.012c-.205.051-.828.204-1.362.58ZM10.03 19.361c-.075 0-.15-.001-.227-.004-.671-.026-1.3-.161-1.769-.381-.495-.233-.76-.537-.748-.857.024-.64 1.17-1.099 2.603-1.043.671.025 1.3.16 1.769.381.495.233.76.537.748.857-.012.32-.3.603-.811.797-.43.163-.978.25-1.565.25Zm-.363-2.099c-1.19 0-2.173.378-2.191.865-.01.235.224.481.639.677.447.21 1.049.338 1.695.363.646.024 1.255-.058 1.717-.234.428-.163.68-.39.688-.626.01-.235-.224-.482-.639-.677-.447-.21-1.049-.338-1.694-.363a4.988 4.988 0 0 0-.215-.005ZM9.752 23.098c-.028 0-.057 0-.085-.002-.907-.034-1.624-.607-1.599-1.276.012-.33.2-.633.526-.85.318-.212.734-.319 1.165-.302.907.034 1.624.607 1.598 1.276-.024.648-.736 1.154-1.605 1.154Zm-.08-2.242c-.365 0-.708.096-.972.272-.275.183-.432.431-.441.699-.022.564.613 1.048 1.415 1.079.81.034 1.472-.405 1.494-.97.02-.564-.614-1.048-1.416-1.078l-.08-.002Z" fill="#C3DAE4"/><path d="m11.407 10.162-1.427-.055-.05 1.329 1.427.054.05-1.328ZM21.556 10.547l-1.426-.054-.05 1.328 1.426.054.05-1.328Z" fill="#fff"/><path d="m21.104 8.313-10.502-.399-.219 5.756 10.503.398.218-5.755Z" fill="#C3DAE4"/><path d="m12.31 8.406-1.115-.042-.186 4.903 1.116.042.185-4.903ZM13.676 8.458l-1.116-.042-.185 4.902 1.115.043.186-4.903ZM15.397 10.09c.012-.306.075-.527.19-.665a.526.526 0 0 1 .445-.196.533.533 0 0 1 .437.23c.104.145.15.372.139.678-.012.306-.075.527-.19.665a.526.526 0 0 1-.444.196.536.536 0 0 1-.437-.229c-.105-.145-.152-.37-.14-.678Zm.412.01c-.008.214.004.355.036.424s.077.104.133.106c.058.002.106-.03.143-.096.038-.066.06-.205.069-.42.008-.213-.004-.354-.037-.423-.032-.069-.076-.104-.133-.106-.058-.002-.106.03-.143.096-.037.066-.06.206-.069.42Zm.492 2.68-.39-.015 1.599-3.48.376.015-1.585 3.48Zm.882-.848c.012-.307.076-.528.191-.666a.532.532 0 0 1 .448-.196.53.53 0 0 1 .433.23c.105.145.15.372.14.677-.012.307-.076.529-.191.667a.523.523 0 0 1-.444.197.536.536 0 0 1-.437-.23c-.105-.145-.152-.371-.14-.68Zm.411.013c-.008.213.004.354.036.422.031.069.076.104.134.106.058.002.106-.03.143-.095.038-.066.06-.206.069-.418.008-.214-.004-.355-.037-.423-.032-.068-.077-.103-.133-.105-.06-.003-.108.029-.145.095-.036.066-.059.205-.067.418Z" fill="#fff"/></g></g><defs><clipPath id="a"><rect width="48" height="48" rx="24" fill="#fff"/></clipPath><clipPath id="b"><path fill="#fff" d="M0 0h48v48H0z"/></clipPath></defs></svg>