<svg width="48" height="48" fill="none" xmlns="http://www.w3.org/2000/svg"><g clip-path="url(#a)"><rect width="48" height="48" rx="24" fill="#fff"/><g clip-path="url(#b)"><path d="M65.633 30.94v17.324h-80.632V30.94S1.5 27.973 25.317 27.973c24.399 0 40.316 2.967 40.316 2.967Z" fill="#C3DAE4"/><path d="m22.096 42.39-3.03 1.14-4.01-1.14 2.998-.6 4.042.6ZM12.777 42.123l-4.367-.165-1.997 1.828 5.035.183 1.33-1.846ZM13.679 45.773l-4.084 1.94-3.182-2.53 3.792-1.214 3.474 1.804Z" fill="#58AAC8"/><path d="M21.354 44.193 17.207 45.5l-2.453-1.408 3.656-1.252 2.942 1.354ZM26.053 41.79l-3.958.6-6.059-1.49 7.564-.83 2.453 1.72Z" fill="#58AAC8"/><path d="m34.882 34.89 4.893 1.91 15.776 4.139v-9.347h-9.494l-5.38 1.526 7.745 2.402-2.652.745-6.062-1.319-.871.697-3.025-.783-.93.03ZM9.602 40.22-6.77 48.264H51.98l-15.86-7.268-4.138-2.113-2.836.509-2.862-2.476-5.59-.146-2.686 2.5-5.084.184-3.323.766Z" fill="#9CBDC8"/><path d="M34.854 19.494c.015 0 .027 1.275.027 2.848s-.012 2.848-.027 2.848-.028-1.275-.028-2.848.012-2.848.028-2.848Z" fill="#3F5C6B"/><path d="M11.014 17.74c.074-.54-.687-.984-1.26-1.03-.273-.023-.556.02-.815-.07-.56-.196-.784-.92-1.33-1.15-.408-.172-.879-.019-1.275.18-.396.2-.787.45-1.23.48-.385.024-.803-.119-1.14.07-.25.14-.382.428-.613.6-.227.166-.522.201-.803.216-.28.015-.571.019-.827.136-.255.116-.467.387-.414.663l9.707-.096ZM13.5 3.725c.054-.397-.506-.723-.926-.757-.2-.016-.409.015-.599-.051-.411-.144-.576-.675-.978-.845-.3-.126-.645-.013-.937.133-.29.147-.578.33-.903.351-.283.019-.59-.086-.838.052-.184.103-.28.316-.45.44-.167.124-.384.15-.59.16-.206.012-.42.014-.608.1-.188.086-.343.285-.305.488l7.133-.071ZM46.645 11.67c.043-.312-.397-.569-.728-.595-.157-.013-.32.011-.47-.04-.324-.114-.453-.531-.769-.665-.236-.1-.507-.01-.736.105-.229.115-.455.26-.71.276-.223.014-.465-.068-.659.04-.145.081-.22.249-.355.347-.13.097-.3.117-.463.126-.162.009-.33.01-.478.078-.148.068-.27.224-.239.383l5.607-.056ZM43.226 8.191c.082-.598-.762-1.09-1.396-1.141-.303-.025-.617.022-.903-.078-.62-.217-.869-1.02-1.475-1.275-.453-.19-.974-.02-1.413.2-.44.221-.873.5-1.364.531-.426.027-.89-.131-1.263.077-.278.155-.424.476-.68.665-.251.185-.579.224-.89.242-.311.016-.633.02-.917.15-.283.13-.518.429-.459.735l10.76-.106Z" fill="#C3DAE4" opacity=".31"/><path d="M33.234 6.21c.041-.346-.382-.63-.7-.659-.152-.014-.31.013-.453-.045-.312-.125-.436-.587-.74-.734-.227-.11-.489-.012-.709.115-.22.127-.438.287-.684.305-.214.016-.446-.075-.634.045-.14.09-.212.275-.341.384-.126.107-.29.13-.446.139-.156.01-.318.012-.46.086-.142.075-.26.248-.23.424l5.397-.06Z" fill="#fff"/><path d="M21.814 12.827c.09-.65-.827-1.184-1.516-1.24-.328-.026-.67.024-.981-.084-.674-.235-.944-1.106-1.601-1.384-.492-.207-1.058-.022-1.535.217-.477.24-.948.542-1.48.576-.463.03-.967-.142-1.372.084-.303.169-.46.517-.74.723-.271.2-.627.243-.965.261-.338.019-.688.022-.995.163-.308.141-.563.466-.5.799l11.685-.115Z" fill="#C3DAE4" opacity=".31"/><path d="M9.905 14.016c.015 0 .027 1.522.027 3.398 0 1.877-.012 3.397-.027 3.397s-.027-1.52-.027-3.397c0-1.876.012-3.398.027-3.398ZM24.944 12.082c-.015 0-.027-2.948-.027-6.584 0-3.638.012-6.585.027-6.585s.027 2.947.027 6.585c0 3.636-.012 6.584-.027 6.584ZM26.122 16.39c0-.002.003.006.005.002a1.618 1.618 0 0 0 .01-.129c.004-.091.007-.226.01-.399.005-.347.008-.849.01-1.469l-.004-4.844-.01-4.846V3.236l.003-.399.002-.104a.18.18 0 0 1 .003-.035l.003.035.003.104.007.4.017 1.468c.01 1.24.021 2.953.026 4.846.004 1.892 0 3.605-.012 4.845-.007.62-.016 1.122-.028 1.468a9.56 9.56 0 0 1-.02.4.98.98 0 0 1-.011.103.08.08 0 0 1-.008.026c-.008.006-.006-.005-.006-.003ZM8.827 18.462c.015 0 .027 1.247.027 2.784 0 1.539-.012 2.785-.027 2.785S8.8 22.785 8.8 21.246c0-1.537.012-2.784.027-2.784Z" fill="#3F5C6B"/><path d="M26.282 25.316c-.334-.144-2.244.374-2.244.374s-1.629-.574-2.092-.35c0 0-.835-.04-.937 1.636-.054.892.304 3.493.24 4.988-.041.967-.521 1.168-.521 1.168s1.751 1.747 3.576 1.677c2.081-.079 3.352-1.801 3.352-1.801s-.687-.708-.741-2.693c-.06-2.183.3-4.596-.633-4.999Z" fill="#7BB0CB"/><path d="M23.979 28.526s.22 1.551.137 1.752c-.084.2.072.804.086 1.037.014.232.255.815.028 1.012-.228.197-.17.212-.202.375-.031.162.032.393.037.536.005.143-.194.617-.194.617l.309-.011s.05-.128.052-.487c.003-.358-.166-.621-.03-.806.134-.184.237-.547.127-1.188-.109-.641-.167-.998-.109-1.466.06-.468-.241-1.371-.241-1.371Z" fill="#6298AE"/><path d="M24.791 26.209s-.541 1.338-.936 1.748l-.17.006s-.548-.758-.535-1.367l-.084.054s0 .574.49 1.434l.14.407s.006 1.793-.196 2.142c-.201.348.132.64.033.86-.1.219-.51.422-.51.422l.017.456.645-.168s.234-.224.273-.602c.04-.378-.326-.31-.13-.81.197-.501.012-2.305.012-2.305l.121-.417s.725-1.023.84-1.619l-.01-.241Z" fill="#0E3843"/><path d="M24.816 25.655s.278.766.14 1.543l-.422-.4-.6.6-.09.434-.58-.986-.416.45s-.085-1.306.368-1.718c.453-.411 1.6.077 1.6.077Z" fill="#6298AE"/><path d="M24.567 25.91s.082.37.024.63c-.058.258-.762.745-.762.745l-.05.19s-.452-.7-.49-1.003c-.039-.304-.023-.63.155-.765s1.123.203 1.123.203Z" fill="#FAD2C3"/><path d="M22.093 25.346c-.444-.092-1.04.574-1.056 1.112-.015.538.514 2.194.972 2.434.457.24.725.088.933-.28.208-.367-.141-3.118-.85-3.266ZM25.878 25.317c.435-.125 1.08.493 1.136 1.029.056.535-.346 2.226-.784 2.5-.438.274-.717.144-.952-.207-.234-.351-.095-3.121.6-3.322Z" fill="#7BB0CB"/><path d="M24.614 25.103s-.196.707.036.968c0 0-.212.494-.626.53-.479.044-.665-.48-.665-.48s.228-.685-.035-.913l1.29-.105Z" fill="#E1BCB1"/><path d="M23.198 22.566a2.05 2.05 0 0 1 .925-.194c.43.006.926.126 1.193.493.086.119.14.258.16.404.129.959-.305 1.877-.305 1.877l-2.364-.064c-.057-.001-.207-.647-.224-.72-.06-.246-.1-.5-.087-.755.026-.509.313-.849.702-1.04Z" fill="#0E3843"/><path d="M25.22 24.572s.335-.36.394.044c.067.47-.354.676-.443.53-.09-.147.048-.574.048-.574ZM22.778 24.69s-.362-.335-.39.073c-.032.474.404.648.482.494.078-.153-.092-.567-.092-.567Z" fill="#F08765"/><path d="M24.1 26.325c.774-.029 1.192-.551 1.134-2.068-.03-.782-.445-1.246-1.313-1.213-.867.032-1.213.526-1.184 1.308.062 1.63.563 2.004 1.363 1.973Z" fill="#FAD2C3"/><path d="M23.03 25.313c-.01.079.06.153.159.166.097.013.185-.04.196-.118.01-.078-.06-.152-.158-.166-.098-.013-.186.04-.197.118ZM24.624 25.295c.008.079.094.134.193.124.098-.01.171-.082.163-.16-.008-.08-.095-.135-.193-.125-.098.01-.171.082-.163.161Z" fill="#E1BCB1"/><path d="M23.678 24.492a.04.04 0 0 0-.027.014c-.1.12-.288.127-.29.127a.04.04 0 0 0-.038.04c0 .022.019.039.04.038.009 0 .226-.01.347-.155a.039.039 0 0 0-.005-.055.04.04 0 0 0-.027-.009ZM24.263 24.478c-.01 0-.02.004-.026.012a.039.039 0 0 0 .002.054c.139.13.355.112.363.111a.039.039 0 0 0 .035-.042.04.04 0 0 0-.042-.035c-.001 0-.19.015-.304-.09a.04.04 0 0 0-.028-.01ZM23.332 24.925c.043.094.264.086.297-.011Z" fill="#3A2C28"/><path d="M23.94 25.688a.714.714 0 0 0 .174-.032l-.025-.078c-.08.025-.207.043-.236.012-.01-.011-.008-.038.008-.073.102-.242.103-.845.103-.871h-.082c0 .006 0 .612-.097.838-.03.07-.027.123.007.16.033.037.09.047.148.044Z" fill="#E1BCB1"/><path d="M24.503 26.005c.009-.036-.058-.187-.51-.197-.451-.01-.519.1-.517.142.005.165.222-.045.402-.032.18.014.597.204.625.087ZM24.443 24.883c.043.094.264.085.298-.011Z" fill="#3A2C28"/><path d="M24.614 23.555s-.148.375-.454.48c-.306.106.16-.355.16-.355s-.538.216-.728.24c-.19.024-.153-.117-.153-.117s-.503.253-.497.413c.006.162-.131.078-.131.078l-.03.612s-.071-.444-.116-.561c-.045-.116-.128-1.391.887-1.51 1.015-.12 1.64.314 1.64.314s.213 1.04.17 1.189c-.043.15-.149.71-.149.71s-.031-.583-.168-.84c0 0-.099-.095-.16-.402 0 0-.064.338-.175.249-.11-.09-.096-.5-.096-.5Z" fill="#3A2C28"/><path d="M24.997 22.583s-.231-.534-.548-.603c-.318-.068-.091.179-.091.179s-.569-.194-.837-.09c-.267.105.01.25.01.25s-.887.1-1.08.312c-.194.213.057.297.057.297s-.214.035-.26.117c-.047.083.078.199.078.199s-.2.061-.134.355a.618.618 0 0 0 .31.408s-.254-.032-.087.161c.167.194.276.27.276.27s.11-1.507 1.23-1.395c1.119.111 1.435 1.154 1.435 1.154s.348-.187.315-.357c-.034-.17-.092-.222-.092-.222s.238-.169.207-.276c-.03-.108-.222-.14-.222-.14s.172-.128.138-.302c-.033-.173-.229-.149-.229-.149s.289-.068.218-.147c-.07-.078-.581-.076-.581-.076s.232-.045.185-.15c-.047-.105-.256.047-.298.205Z" fill="#3A2C28"/><path d="M24.456 22.874s-.138.005-.152-.061c-.014-.067.265-.091.405-.141.028-.01.125.031.223.082l-.056-.09c-.125-.034-.109-.105-.083-.12.026-.014.204.04.204.04s.175.168.18.184l.131.523.012.04c.047-.08.047-.203.047-.203-.043-.086-.032-.14-.007-.195.025-.054.02.037.093.084.073.047.084.34.103.372.013.024-.07.236-.122.364l.044.175s-.245.274-.433.281c-.188.008-.489-.584-.477-.988l-.202-.12s-.1.067-.173.025c-.073-.042.263-.252.263-.252Z" fill="#FAD2C3"/><path d="M25.509 23.847s-.363.013-.605.32l.054.203s.034 3.406.322 4.094c.289.689.76.348.99-.217.229-.564.01-1.608-.219-2.436-.229-.828-.204-1.521-.448-1.577 0 0-.06-.258-.094-.387Z" fill="#86B7CB"/><path d="M23.324 22.916s.139-.005.147-.073c.01-.067-.27-.07-.414-.11-.029-.007-.122.042-.217.1l.05-.094c.121-.044.1-.114.073-.126-.027-.013-.2.054-.2.054s-.161.181-.166.198c-.004.017-.091.531-.091.531l-.008.04c-.054-.076-.064-.198-.064-.198.037-.089.022-.142-.007-.194-.029-.053-.017.037-.086.09-.07.052-.059.345-.075.38-.01.023.089.23.15.352-.019.106-.03.179-.03.179s.265.255.453.248c.188-.007.442-.62.4-1.021l.192-.136s.105.06.175.012c.069-.047-.282-.232-.282-.232Z" fill="#FAD2C3"/><path d="M22.347 23.967s.363-.014.627.273l-.037.207s.224 3.398-.011 4.106c-.235.709-.731.405-1.003-.141-.272-.545-.132-1.602.032-2.446.166-.843.089-1.532.328-1.607 0 .001.041-.26.064-.392Z" fill="#86B7CB"/><path d="M13.47 37.388c.359.644 1.242.74 1.242.74l4.691-2.65s1.29 1.253 2.186 1.585c.895.331 1.863-.152 2.442-.152.577 0 1.32.215 2.325-.143 1.004-.36 2.902-1.757 2.902-1.757s1.953 3.253 3.01 2.92c.928-.291.717-2.024.717-2.024s-2.676-4.935-3.579-4.778a.213.213 0 0 0-.04.011 1.926 1.926 0 0 0-.15.064c-.952.436-3.063 1.99-3.487 2.194-.446.215-2.99 0-2.99 0s-2.625-1.038-3.658-.915h-.001a.642.642 0 0 0-.286.091c-.535.366-3.907 2.816-5.322 3.845-.386.28-.001.969-.001.969Z" fill="#2D5C6F"/><path d="M24.08 33.332c-.108.317-.58.89-.541 1.195.038.305.03.573.03.573s-.78-.25-1.066-.555c-.287-.305-.657-1.487-1.176-1.641 0 0 .817-.136 1.588 0 .77.136 1.166.428 1.166.428Z" fill="#7BB0CB"/><path d="M14.761 37.644s4.946-3.027 5.196-3.672a1.115 1.115 0 0 0-.877-1.489.644.644 0 0 0-.287.092c-.535.365-3.907 2.815-5.322 3.844 1.306-.022 1.29 1.225 1.29 1.225ZM28.72 32.771c.09.233 1.865 3.44 3.029 4.354 0 0-.019-1.218 1.236-1.218 0 0-2.676-4.935-3.58-4.778a.214.214 0 0 0-.04.011.454.454 0 0 0-.148.063c-.461.3-.575 1.364-.497 1.568Z" fill="#2E5B6A"/><path d="M32.841 36.265s.377.681.771 1.058c.394.376 1.29 1.272 1.702 1.415.412.144.77.394.717.412-.054.018-1.027.18-1.589.18-.561 0-1.063-.287-1.35-.287-.286 0-.86-.287-.86-.287s-.16-.717-.107-.788c.054-.072-.072-.17-.072-.17s-.287-1.479.788-1.533Z" fill="#6B6C6B"/><path d="M32.125 37.967v.825s.448.268.664.34c.215.072.393 0 .393 0s.591.232 1.004.323c.411.09 1.63.09 2.006-.126 0 0-.012-.304-.15-.519a.263.263 0 0 0-.058-.058c-.275-.208-1.288-.516-2.071-1.373a2.065 2.065 0 0 1-.068-.074s-.411 0-.59.125c-.18.126-.144.537-.144.537s-.112-.395-.325-.323c-.213.072-.555.092-.661.323Z" fill="#06262D"/><path d="M33.63 38.128h.529l-.529.36s.968.483 1.54.465c.434-.014.706-.14.813-.201-.275-.208-1.288-.516-2.07-1.373a3.468 3.468 0 0 0-.444.123c-.108.053.161.626.161.626Z" fill="#0E3843"/><path d="M13.47 36.731s-.325.465-.8.732c-.475.266-1.566.912-2 .949-.435.036-.845.19-.797.22.047.032.951.43 1.495.569.544.139 1.1-.014 1.378.057.278.071.905-.064.905-.064s.334-.654.3-.737c-.035-.083.56-.543.56-.543s.18-1.058-1.04-1.183Z" fill="#6B6C6B"/><path d="m13.95 38.456-.071.281-.133.518s-.5.15-.727.166c-.226.015-.381-.098-.381-.098s-.63.078-1.053.063c-.421-.015-1.601-.318-1.912-.62 0 0 .087-.291.274-.465a.258.258 0 0 1 .071-.042c.318-.133 1.376-.18 2.347-.816.029-.018.057-.036.084-.055 0 0 .399.102.542.268.142.166.005.556.005.556s.206-.355.395-.232c.187.122.514.226.56.476Z" fill="#06262D"/><path d="m12.452 38.239-.512-.131.423.479s-1.057.228-1.608.069c-.417-.121-.649-.31-.737-.397.318-.133 1.375-.18 2.346-.816.168.087.353.188.4.229.09.078-.312.567-.312.567Z" fill="#0E3843"/><path d="m29.139 38.388.89-.586s.13-2.093-1.127-2.435c-1.259-.342-1.923.583-1.947 1.96l-.763.201-.139-.168s-1.483.538-1.437.917c.137 1.13 4.523.111 4.523.111Z" fill="#06262D"/><path d="M30.032 37.682v.744l-3.494 1.04-4.354-.575v-.86l4.354-.77s-.627.26.698.42c1.326.162 2.796 0 2.796 0Z" fill="#06262D"/><path d="M26.146 37.634s.383-.177.406-.693l2.967.693s.048.494-.593.699c-.64.205-2.78-.699-2.78-.699Z" fill="#E0E0E0"/><path d="m29.139 37.731-3.165.838-3.766-.53 3.845-.68s-.553.23.618.372c1.17.142 2.468 0 2.468 0Z" fill="#0E3843"/><path d="M29.14 37.731v.657l-3.087.918-3.845-.507s-.142-.11-.107-.411c.036-.3.107-.348.107-.348l3.794.479 3.137-.788Z" fill="#06262D"/><path d="m19.17 38.81 2.926.931-2.926.546-3.133-.907 3.133-.57Z" fill="#E0E0E0"/><path d="m14.755 40.278 4.311-.537 2.288 1.308-4.558.717-2.041-1.488Z" fill="#fff"/><path d="m7.936 40.092 1.862-.909 2.98.365-1.33 1-3.512-.456Z" fill="#E0E0E0"/><path d="m7.033 41.251 3.172-.364 3.474 1.308-3.927.869-2.719-1.813ZM23.6 42.937l4.02-.664 5.127 1.266-4.914 1.392-4.232-1.994Z" fill="#fff"/><path d="M40.022 30.546s4.302.853 5.019.857c.717.004 6.45-1.017 6.522-1.313.071-.296.25-.78-1.541-1.255-1.792-.475-5.496-.79-6.128-.637-.633.152-3.874 1.846-3.872 2.348Z" fill="#06262D"/><path d="M38.226 23.737s5.59.386 6.02.762c.43.376 1.076 6.424.359 7.127-.717.703-5.447-.802-5.806-.981-.358-.18-1.433-6.253-.573-6.908Z" fill="#0E3843"/><path d="M37.94 24.5c.393-.163 4.694.23 4.909.732.215.503.642 5.156.537 5.852-.104.695-3.745.117-4.587-.439-.842-.556-.859-6.146-.859-6.146Z" fill="#06262D"/><path d="M39.624 26.863c.327-.108.968 1.197.591 1.728-.376.53-.591 0-.591 0l-3.527.947-.196-1.017 3.347-.976s-.108-.52.376-.682Z" fill="#4D4C4C"/><path d="M35.899 28.35s1.718-2.196 1.825-2.226c.108-.03-.25-.962-.25-.962l.27-.574s.53.611.556 1.186c.027.575-1.901 3.15-1.901 3.15S38.015 31.47 38.3 31.9c.285.43-.324 1.228-.324 1.228l-.323-.511s.18-.537.18-.645c0-.108-1.864-2.345-1.864-2.345s-1.9 2.4-2.366 2.498c-.465.098-.86-.296-.86-.296l.61-.64s.573-.202.645-.319c.071-.116 1.454-2.01 1.454-2.01s-1.777-2.56-1.956-2.734c-.18-.174-.753 0-.753 0l-.215-.497s.645-.286 1.111.072c.467.358 2.26 2.65 2.26 2.65Z" fill="#6B6C6B"/><path d="M36.096 28.996c0 .262-.144.475-.322.475-.178 0-.323-.213-.323-.475s.145-.475.323-.475c.178 0 .322.213.322.475Z" fill="#4D4C4C"/><path d="M32.804 31.93c.263 0 .477-.258.477-.578 0-.319-.214-.577-.477-.577s-.477.258-.477.577c0 .32.214.578.477.578Z" fill="#333"/><path d="M33.005 31.93c.264 0 .477-.258.477-.578 0-.319-.213-.577-.477-.577-.263 0-.477.258-.477.577 0 .32.214.578.477.578Z" fill="#4D4C4C"/><path d="M37.697 33.314c.263 0 .476-.258.476-.578 0-.319-.213-.577-.476-.577-.264 0-.477.258-.477.577 0 .32.213.578.477.578Z" fill="#333"/><path d="M37.898 33.314c.263 0 .477-.258.477-.578 0-.319-.214-.577-.477-.577-.264 0-.477.258-.477.577 0 .32.213.578.477.578Z" fill="#4D4C4C"/><path d="M37.437 25.618c.263 0 .477-.259.477-.578 0-.32-.214-.578-.477-.578-.264 0-.477.259-.477.578 0 .32.213.578.477.578Z" fill="#333"/><path d="M37.638 25.618c.263 0 .477-.259.477-.578 0-.32-.214-.578-.477-.578s-.477.259-.477.578c0 .32.214.578.477.578Z" fill="#4D4C4C"/><path d="M32.602 26.514c.263 0 .477-.258.477-.578 0-.319-.214-.577-.477-.577s-.477.258-.477.577c0 .32.214.578.477.578Z" fill="#333"/><path d="M32.804 26.514c.263 0 .477-.258.477-.578 0-.319-.214-.577-.477-.577s-.477.258-.477.577c0 .32.214.578.477.578Z" fill="#4D4C4C"/><path d="M39.173 27.567s.182-.045.316.036c.134.08.26.296.289.665.02.253-.155.323-.155.323l-.203.055s.218.374.378.503c.282.228.644.269.873 0 .229-.269.37-1.418-.147-2.15-.505-.715-1.062-.35-1.17-.256-.107.094-.221.457-.18.824Z" fill="#333"/><path d="M17.617 24.144 15.2 17.698l3.654.038-4.905-13.07h3.148L20.951 19.5l-3.292-.014 1.42 4.658h-1.462Z" fill="#C3D2D7"/><path d="m14.977 22.552 3.869 3.582 1.264-3.582h-5.133ZM29.936 25.871l1.398-3.73-2.114.023 2.838-7.564h-1.821l-2.23 8.584 1.905-.008-.822 2.695h.846Z" fill="#C3D2D7"/><path d="m31.463 24.95-2.238 2.073-.732-2.073h2.97Z" fill="#C3D2D7"/><path d="M35.775 16.01c.015 0 .027 1.274.027 2.847 0 1.574-.012 2.848-.027 2.848s-.028-1.275-.028-2.848c0-1.572.012-2.848.028-2.848Z" fill="#3F5C6B"/><path d="m18.573 43.973 1.863-.909 2.98.365-1.33 1-3.513-.456Z" fill="#E0E0E0"/></g></g><defs><clipPath id="a"><rect width="48" height="48" rx="24" fill="#fff"/></clipPath><clipPath id="b"><path fill="#fff" d="M0 0h48v48H0z"/></clipPath></defs></svg>