<svg width="48" height="48" fill="none" xmlns="http://www.w3.org/2000/svg"><g clip-path="url(#a)"><rect width="48" height="48" rx="24" fill="#fff"/><g clip-path="url(#b)"><g opacity=".53" fill="#C3DAE4"><path d="M16.128 9.583h-4.862v15.915h4.862V9.583ZM23.642 12.107h-4.863v13.392h4.863V12.107ZM31.156 14.23h-4.862v11.269h4.862v-11.27ZM39.628 15.243a.543.543 0 0 1-.313-.097l-6.493-4.561H25.19c-.276 0-.5-.197-.5-.44V7.868H17.38c-.277 0-.501-.197-.501-.44V4.374h-5.394c-.276 0-.5-.197-.5-.44 0-.242.224-.439.5-.439h5.894c.276 0 .5.197.5.44v3.053h7.309c.276 0 .5.197.5.44v2.278h7.308c.114 0 .224.034.313.096l6.63 4.658c.216.152.251.428.079.618a.528.528 0 0 1-.391.165Z"/><path d="M39.922 15.501h-5.45c-.277 0-.501-.197-.501-.44 0-.242.224-.439.5-.439h4.95v-4.348c0-.242.225-.44.502-.44.276 0 .5.197.5.44v4.788c0 .243-.224.44-.5.44Z"/></g><path d="M20.155 9.298v3.377h7.29V9.298h-7.29Zm6.918 3.005h-6.547V9.67h6.547v2.634Z" fill="#7B9FAA"/><path d="M27.073 9.67h-6.547v2.633h6.547V9.67Z" fill="#fff"/><path d="M21.396 9.943h-.52v2.087h.52V9.943Z" fill="#5E8189"/><path d="M28.098 10.083h-.649v1.806h.649v-1.806ZM20.155 12.675v.849l1.063-.849h-1.063Z" fill="#7B9FAA"/><path d="M36.81 21.017h-5.48v-.352l4.698-.242-1.599-5.735h-.672v-.594h1.123l1.93 6.923Z" fill="#36464E"/><path opacity=".1" d="m34.344 14.094-.212.594h-.374v-.594h.586Z" fill="#040000"/><path d="m33.998 8.125-.602-.11L31.32 19.46l.603.109 2.075-11.444Z" fill="#36464E"/><path d="m34.628 10.985-1.111 6.127-1.594 2.46 2.075-11.445.63 2.858Z" fill="#445962"/><path d="M30.199 21.017v-.623l-5.481.27v.353h5.48Z" fill="#36464E"/><path d="m18.798 29.912.33 1.981 2.24 13.483h.36L20.1 31.893l-.24-1.981h-1.062Z" fill="#445962"/><path opacity=".1" d="M19.86 29.912h-1.062l.33 1.981h.972l-.24-1.981Z" fill="#040000"/><path d="M11.768 45.376h.36l2.24-13.483.33-1.981h-1.062l-.24 1.981-1.628 13.483Z" fill="#445962"/><path opacity=".1" d="m13.636 29.912-.24 1.981h.971l.33-1.981h-1.061Z" fill="#040000"/><path d="M7.46 45.376h.36l2.24-13.483.33-1.981H9.328l-.24 1.981L7.46 45.376Z" fill="#445962"/><path opacity=".1" d="M9.088 31.893h.971l.33-1.981H9.33l-.241 1.981Z" fill="#040000"/><path d="M8.032 30.843H22.03v-1.729h-6.141l-2.064-12.008H8.658l-.626 13.737Z" fill="#608895"/><path d="M8.032 30.843h.895l.583-13.737h-.852l-.626 13.737Z" fill="#486F79"/><path d="M24.337 45.26c-.316.04-9.002-1.759-9.282-2.03-.034-.03.112-.82.33-1.896l.003-.021c.136-.682 2.485-6.24 2.485-6.24l5.638 1.393-2.39 5.162s1.076.728 2 1.423l.001.003c.57.426 1.063.81 1.169.936.273.329.362 1.233.046 1.27Z" fill="#A86158"/><path d="M24.338 45.26c-.315.04-9.002-1.76-9.283-2.03-.034-.03.113-.819.33-1.896l.004-.02c.05-.255.41-1.188.838-2.257.928.22 4.253 1.013 5.462 1.348l-.566 1.223s1.075.73 1.998 1.423c0 .002.002.002.002.003.57.426 1.063.81 1.168.936.274.33.363 1.234.047 1.27Z" fill="#EBEBEB"/><path d="M24.367 45.3c-.325.038-9.019-1.783-9.306-2.062-.11-.106.04-1.473.47-2.93l5.604 1.18s2.908 2.166 3.19 2.505c.282.34.367 1.27.042 1.307Z" fill="#C3DAE4"/><path d="M24.316 44.926c-1.45-.341-7.33-1.58-8.789-1.807-.012-.002-.013.006-.001.01 1.43.369 7.319 1.56 8.785 1.822.03.005.035-.017.005-.025ZM21.561 41.73c-.582-.13-1.3-.066-1.764.335-.017.016.005.041.024.036a8.244 8.244 0 0 1 1.735-.297c.043-.002.047-.065.005-.074ZM21.975 42c-.582-.13-1.3-.066-1.763.336-.018.015.004.04.023.035a8.245 8.245 0 0 1 1.735-.296c.043-.004.047-.065.005-.075ZM22.388 42.27c-.582-.13-1.3-.066-1.763.335-.018.016.004.041.023.036a8.245 8.245 0 0 1 1.735-.297c.043-.003.047-.065.005-.074ZM22.802 42.54c-.581-.13-1.3-.066-1.763.335-.018.016.004.041.023.036a8.25 8.25 0 0 1 1.735-.297c.043-.003.047-.065.005-.074Z" fill="#8AA6B1"/><path opacity=".1" d="M24.367 45.3c-.1.012-1.015-.156-2.235-.404l.785-2.058c.662.512 1.285 1.006 1.409 1.156.28.338.366 1.268.04 1.306Z" fill="#040000"/><path d="m21.346 41.767-5.984-1.413s5.024-11.06 4.585-11.643c-.22-.292-5.79-.377-7.563-1.88-2.301-1.954-.757-4.937-.757-4.937l6.222-.185s-.075 1.301.168 1.498c.16.13 7.573.754 8.387 3.256 1 3.068-5.058 15.304-5.058 15.304Z" fill="#36555E"/><path d="M21.012 28.195c-.125-.107-.313-.12-.47-.146l-2.694-.453c-.84-.14-1.685-.267-2.522-.428-.693-.134-1.396-.314-1.996-.69a2.898 2.898 0 0 1-1.224-1.602c-.209-.66-.224-1.37-.158-2.054.016-.167.047-.334.078-.499.003-.012-.017-.017-.02-.004-.228 1.276-.248 2.757.708 3.774.466.495 1.106.787 1.759.976.736.212 1.506.313 2.262.44l2.695.45c.432.072.871.128 1.3.218.082.017.175.04.234.103.081.086.059.208.038.312-.044.212-.101.42-.161.629-.49 1.675-4.016 9.533-4.113 9.717-.01.02.02.034.03.016.824-1.47 3.439-7.509 3.983-9.093.14-.405.267-.814.353-1.233.031-.151.05-.32-.082-.433ZM21.622 40.316c-.163-.076-1.734-.45-2.08-.532-.694-.163-2.883-.64-3.285-.687-.01-.001-.014.016-.004.02.34.117 1.733.457 2.08.536.695.16 3.085.691 3.283.694.017 0 .022-.024.006-.031Z" fill="#36464E"/><path d="M33.117 45.394c-.302.102-9.173.07-9.502-.141-.04-.023-.053-.825-.054-1.923v-.022c-.003-.695-.217-6.64-.217-6.64l5.552-.046.346 5.854s1.198.5 2.242.996l.002.003c.644.304 1.203.582 1.332.684.333.268.6 1.136.299 1.235Z" fill="#A86158"/><path d="M33.116 45.394c-.301.101-9.172.07-9.501-.142-.04-.021-.053-.825-.055-1.922v-.022c0-.048 0-.097-.002-.147 0-.036 0-.071-.003-.107l-.003-.159c-.012-.462-.036-1.212-.063-2.035l5.656-.036.098 1.651s1.197.5 2.241.997c.002.001.003 0 .003.002.644.305 1.203.582 1.33.685.334.268.602 1.136.3 1.235Z" fill="#EBEBEB"/><path d="M33.154 45.428c-.311.101-9.193.047-9.53-.169-.13-.081-.254-1.452-.123-2.965l5.726.042s3.281 1.542 3.626 1.819c.343.276.612 1.17.3 1.273Z" fill="#C3DAE4"/><path d="M33.028 45.072c-1.488-.046-7.497-.09-8.972-.022-.012 0-.012.01 0 .01 1.474.077 7.483.072 8.972.036.031 0 .032-.024 0-.024ZM29.693 42.488c-.596-.012-1.288.194-1.662.68-.014.018.013.039.03.03a8.218 8.218 0 0 1 1.642-.636c.041-.012.032-.073-.01-.074ZM30.152 42.67c-.596-.012-1.288.194-1.662.68-.014.018.013.038.03.03a8.243 8.243 0 0 1 1.642-.636c.041-.011.032-.073-.01-.074ZM30.61 42.852c-.595-.012-1.287.194-1.66.68-.015.018.012.039.03.03a8.227 8.227 0 0 1 1.64-.636c.042-.011.034-.073-.01-.074ZM31.07 43.034c-.596-.012-1.288.194-1.662.68-.014.018.013.039.03.03a8.245 8.245 0 0 1 1.642-.636c.04-.012.033-.073-.01-.074Z" fill="#8AA6B1"/><path d="m29.796 42.294-6.505-.058s.077-10.3-.414-10.928c-.654-.836-9.81-.817-11.773-3.546-1.763-2.45-.275-5.919-.275-5.919l6.933-.206s-.216 1.101-.643 2.184c0 0 8.352 1.541 10.692 4.103 1.58 1.73 1.985 14.37 1.985 14.37Z" fill="#36555E"/><path d="M18.34 23.346c-.201.035-.399.116-.588.188-.2.076-.395.162-.587.256-.38.185-.74.396-1.097.62-.011.007 0 .022.011.017.375-.195.762-.37 1.15-.538l.56-.241c.189-.08.389-.15.567-.25.024-.014.01-.057-.017-.052Z" fill="#36464E"/><path d="M17.924 21.634c-.08.317-.15.636-.24.95-.041.143-.082.29-.137.429-.045.118-.115.252-.251.279-.157.03-.202-.104-.19-.235.015-.144.052-.29.08-.432.033-.165.067-.328.096-.493.016-.083.031-.165.045-.248.003-.02.02-.179.03-.224.002.004.004.008.01.007l.004-.001c.005 0 .01-.004.01-.008.002-.013.002-.015-.008-.024-.004-.004-.01-.003-.014 0-.03.016-.032.057-.042.087a14.378 14.378 0 0 0-.2.696l-.113.458c-.028.114-.062.234-.03.352a.268.268 0 0 0 .248.202l-.017.03c-.014.032-.024.065-.036.097a1.334 1.334 0 0 0-.032.1.37.37 0 0 0-.01.048c-.002.018.002.037 0 .055-.004.028.035.046.049.017.008-.016.02-.028.03-.044a.287.287 0 0 0 .022-.053c.01-.031.02-.063.028-.095s.018-.064.024-.097c.003-.019.004-.038.006-.058a.364.364 0 0 0 .182-.07.61.61 0 0 0 .19-.289 5.24 5.24 0 0 0 .12-.403c.093-.334.17-.674.203-1.02.003-.037-.048-.05-.057-.013ZM13.8 22.409c-.029.157-.047.316-.083.472a4.93 4.93 0 0 1-.127.452 1.618 1.618 0 0 1-.193.408c-.083.12-.193.223-.307.313a2.624 2.624 0 0 1-.743.414c-.135.049-.273.09-.413.12a2.494 2.494 0 0 1-.22.04c-.063.008-.123.01-.179.04-.023.014-.02.051.004.063.094.046.227.02.328.01a2.36 2.36 0 0 0 1.015-.341c.202-.12.406-.271.555-.454a1.57 1.57 0 0 0 .296-.65c.066-.284.113-.593.097-.884 0-.018-.027-.02-.03-.003Z" fill="#36464E"/><path d="M23.865 31.726a1.995 1.995 0 0 0-.122-.551c-.144-.37-.45-.555-.822-.65-.438-.11-.89-.176-1.337-.248a62.15 62.15 0 0 0-1.37-.204c-.925-.129-1.852-.248-2.774-.404a22.197 22.197 0 0 1-2.722-.613c-.82-.247-1.66-.553-2.315-1.12-1.41-1.224-1.463-3.274-1.29-4.989.024-.242.054-.483.083-.725.001-.013-.018-.017-.02-.005-.111.966-.242 1.938-.146 2.91.08.796.312 1.594.772 2.255.477.685 1.185 1.128 1.949 1.436.835.338 1.717.565 2.597.749 1.83.383 3.696.545 5.538.86.227.04.453.08.68.125.207.04.42.078.613.165.418.187.537.593.585 1.015.175 1.537.435 8.533.433 8.778 0 .022.034.02.034-.002.05-2.587-.19-6.804-.366-8.782Z" fill="#36464E"/><path d="M23.27 34.827c-.008-.676-.027-.379-.043-1.055-.014-.638 0-1.287-.124-1.916-.05-.254-.095-.59-.368-.706-.14-.06-.295-.093-.442-.131-.16-.042-.322-.083-.484-.118-.747-.161-1.503-.263-2.26-.364-.014-.002-.02.018-.006.02.64.123 1.281.25 1.917.394.318.073.635.149.95.235.128.035.304.06.394.166.094.112.122.292.154.428.146.617.136 1.262.152 1.892.017.653.033.333.052.986.021.733.04 1.468.09 2.2.002.019.031.018.032-.002.015-.676-.004-1.352-.013-2.029ZM29.178 40.967c-.175-.038-1.79-.062-2.146-.066-.713-.007-2.953.003-3.355.045-.01.001-.01.019 0 .02.357.041 1.79.07 2.146.071.713.004 3.162.003 3.356-.038.017-.004.017-.028 0-.032ZM17.163 23.838c1.277.14 2.547.427 3.782.777a26.38 26.38 0 0 1 3.65 1.321c.663.298 1.305.632 1.942.982.012.007 0 .025-.012.019a29.556 29.556 0 0 0-3.55-1.55c-1.205-.439-2.44-.8-3.695-1.073a43.808 43.808 0 0 0-2.13-.392c-.047-.008-.034-.09.013-.084Z" fill="#36464E"/><path d="M20.74 15.228c1.713.37 4.804 1.81 6.116 2.8.892.674 1.005 1.414.834 1.803-.47 1.073-4.547-.698-4.55-.876-.003-.134-1.605-.957-3.203-2.419-.765-.7.066-1.466.802-1.308Z" fill="#A0BCC5"/><path opacity=".1" d="M22.094 18.215a18.69 18.69 0 0 1-2.156-1.679c-.766-.7.065-1.467.801-1.307.117.025.238.055.365.089l.99 2.897Z" fill="#040000"/><path d="M27.592 19.875c-.484.67-1.697.747-4.922 1.33-.446.082-1.859-2.42-1.479-2.721.458-.365 3.02-.856 3.195-.864 1.474-.073 3.534 1.8 3.206 2.255Z" fill="#FAD2C3"/><path d="M21.678 18.26s-1.218.408-1.792.82c-.768.553-1.204 1.346-1.366 1.689-.34.716-.664 2.683-.114 2.876.498.174.729-1.854.729-1.854s-.577 2.029.061 2.128c.639.1.773-2.269.773-2.269s-.545 2.098.129 2.096c.51 0 .752-2.14.752-2.14s-.457 1.806.068 1.828c.579.024.927-1.936.927-1.936 1.341-.17 1.91-.8 2.262-1.296.085-.12-2.43-1.941-2.43-1.941Z" fill="#FAD2C3"/><path d="M19.29 21.077c-.077.236-.156.474-.211.716a8.044 8.044 0 0 0-.134.731c-.08.604-.035.993-.035.969-.003-.577.181-1.445.236-1.687.055-.242.098-.486.153-.727 0-.006-.008-.007-.01-.002ZM20.166 21.26c-.085.306-.18.606-.25.915-.071.308-.111.606-.16.918-.004.023.01.018.015-.006.061-.31.142-.591.208-.9.065-.307.118-.62.194-.925.001-.005-.006-.006-.007-.002ZM20.946 21.283c-.153.46-.22.947-.276 1.427-.003.024.015.014.02-.01.082-.476.144-.85.272-1.412.002-.009-.013-.015-.016-.005Z" fill="#263138"/><path d="m21.64 18.039 2.773 3.178s2.817-.604 3.247-1.328c.283-.477-1.792-2.465-3.415-2.262l-2.604.412Z" fill="#A0BCC5"/><path d="M26.17 18.165c-.26-.193-.988-.645-1.927-.54-.009 0-.01.014 0 .014.707-.01 1.656.373 1.92.538.007.004.013-.007.006-.012ZM25.19 20.703a25.033 25.033 0 0 0-.898-1.066c-.307-.349-.613-.7-.928-1.041-.178-.194-.355-.388-.54-.575-.005-.005-.014.002-.01.008.286.365.59.717.894 1.068.304.351.612.7.924 1.046.175.195.355.387.54.574.008.01.026-.004.018-.014Z" fill="#7599A1"/><path d="M21.636 17.998c.173-.055.351-.082.53-.113.178-.03.356-.058.535-.084.357-.052 1.105-.202 1.761-.191.007 0-.03.034-.038.034-.312-.021-2.556.392-2.74.402a.274.274 0 0 1 .019.038c.003.008-.005.02-.015.014-.023-.016-.04-.036-.06-.053-.018-.014-.015-.04.008-.047Z" fill="#7599A1"/><path d="M10.193 22.069c.005.03 8.568 1.397 8.568 1.397.03-.008.615-.469.727-.709.144-.307-.182-1.48-.026-1.869.93-2.329 1.86-3.168 1.977-4.613.048-.593-.818-1.376-1.53-1.403-5.186-.202-9.731 7.088-9.716 7.197Z" fill="#A0BCC5"/><path d="M19.889 17.09c-.174-.348.162-1.381.593-1.918.03-.037.458-.145.971-.301.311-.096.655-.21.962-.338l.33 2.116s-.722.078-1.255.302a.74.74 0 0 0-.12.065l-.02.012c-.223.138-1.19.608-1.462.062Z" fill="#FAD2C3"/><path d="M21.258 16.836c.028.072.059.135.093.193.008-.005.014-.01.02-.012a.618.618 0 0 1 .12-.065c.532-.225 1.255-.302 1.255-.302l-.306-1.964c-.464.284-1.588 1.102-1.182 2.15Z" fill="#E1BCB1"/><path d="M24.454 13.677c-.77.059-2.615 1.196-2.867 1.857-.366.959.025 2.143 1.09 2.357 1.032.207 3.41-1.317 3.6-2.02.279-1.036-.687-2.28-1.823-2.194Z" fill="#FAD2C3"/><path d="M24.794 17.04c.005-.052 0-.1 0-.151-.002-.059.003-.105-.032-.156-.019-.026-.066-.034-.094-.018-.064.036-.08.108-.082.178a.285.285 0 0 0 .064.196c.045.059.14.02.145-.048ZM24.05 15.703c.044.028.08.06.121.093.046.036.087.06.106.117.01.031-.012.074-.042.087-.068.03-.135 0-.192-.042a.286.286 0 0 1-.118-.169c-.02-.07.067-.122.125-.086ZM22.494 16.461c-.022.045-.057.095-.044.148.012.051.054.102.086.141.003.004 0 .01-.005.009a.202.202 0 0 1-.137-.156c-.01-.068.035-.119.089-.154.008-.004.014.006.011.012ZM22.898 16.635c.168.205.202.36.253.505.01.015.039.044.055.04v-.001l.277-.15c0 .046.01.277.062.248.424-.246.897-.52 1.267-.854.013-.01-.002-.03-.016-.022-.417.22-.793.512-1.209.74-.007-.071-.014-.19-.042-.243-.011-.013-.285.173-.333.191 0 0-.037-.267-.298-.483-.058-.049-.077-.046-.016.029Z" fill="#342D23"/><path d="M22.83 16.968c.047.057.345.063.32-.054-.024-.118-.19-.35-.39-.383-.176-.03.051.259.049.32-.002.05-.012.075.021.117Z" fill="#342D23"/><path d="m22.808 16.851-.001.03c.085-.028.162-.127.11-.282a.38.38 0 0 0-.157-.068c-.175-.029.051.26.048.32Z" fill="#F094B3"/><path d="M23.828 16.18c.004-.004-.013-.006-.017-.002-.126.083-.285.157-.4.067-.003-.002-.009.002-.006.006.108.129.317.028.423-.07Z" fill="#263138"/><path d="M23.69 16.27c-.036.014-.077.021-.121.014a.166.166 0 0 1-.11-.076.148.148 0 0 1-.007-.134.263.263 0 0 1 .073-.096.5.5 0 0 1 .06-.041.323.323 0 0 1 .142-.047.61.61 0 0 0-.162.13c-.044.05-.071.11-.042.152.027.047.085.058.151.043.065-.014.132-.042.198-.071a.47.47 0 0 1-.182.126Z" fill="#342D23"/><path d="M24.28 16.926c.006-.002 0 .014-.006.016-.134.068-.277.169-.256.313 0 .004-.006.007-.008.003-.06-.157.132-.29.27-.332Z" fill="#263138"/><path d="M24.135 17a.231.231 0 0 0-.073.099.165.165 0 0 0 .012.132c.022.04.07.069.113.073a.264.264 0 0 0 .12-.016.494.494 0 0 0 .065-.031.326.326 0 0 0 .112-.1.643.643 0 0 1-.192.076c-.066.014-.131.007-.154-.039-.028-.046-.009-.102.037-.153a1.07 1.07 0 0 1 .16-.136.476.476 0 0 0-.2.095ZM22.636 14.462c.052.326.5.396.714.387.214-.008 1.155-.599 1.489-.582.334.016.622.247.66.517.04.27-.131.72-.035.888.097.168.496.036.552.157.123.269-.409.857-.68 1.04 0 0 1.402-.627.926-1.966-.465-1.306-1.512-1.318-1.94-1.25-.98.156-1.686.81-1.686.81Z" fill="#342D23"/><path d="M23.042 15.015s.453-.708.175-.932c-.278-.223-1.064.493-1.05.885.014.391.377.385.377.385l.498-.338Z" fill="#FAD2C3"/><path d="M22.997 14.294c-.002-.006-.01-.004-.01.002.002.277-.167.494-.36.676.059-.107.067-.223-.066-.307-.007-.004-.014.006-.01.012.062.089.074.166.023.264-.037.07-.093.13-.143.19-.017.02.01.054.031.036l.005-.004c.306-.12.634-.531.53-.87Z" fill="#263138"/><path d="m21.277 17.05-.47.212.046-2.215-.828-.218-.257 3.235 1-.675.069.738.442-.79-.002-.287Z" fill="#EBEBEB"/><path d="m20.025 14.83-.257 3.234 1-.675.069.738.442-.79" fill="#fff"/><path d="m20.025 14.83-.257 3.234 1-.675.069.738.442-.79" stroke="#194E59" stroke-miterlimit="10"/><path d="M23.421 18.264a.375.375 0 1 0 .126.737.424.424 0 1 0 .715-.448l.01-.014a.377.377 0 1 0-.614-.432" fill="#fff"/><path d="M23.421 18.264c-.564.06-.416.883.133.763l-.03-.014c.19.371.764.284.838-.127a.456.456 0 0 0-.077-.35l-.001.033c.341-.437-.316-.932-.625-.462.303-.422.916.047.57.444a.399.399 0 0 1-.103.58.397.397 0 0 1-.565-.163c-.514.141-.66-.624-.14-.704ZM23.601 17.85a3.849 3.849 0 0 0-.495-.487c.15.177.316.34.495.487ZM23.274 18.05a3.262 3.262 0 0 0-.341-.541c.096.192.21.372.341.541Z" fill="#263138"/><path d="M23.526 18.063a3.974 3.974 0 0 0-.435-.551c.128.197.274.38.435.551Z" fill="#263138"/><path d="M19.655 16.483c.264 1.66.305 3.622.505 5.887.222 2.529.24 5.047.277 5.591.048.7-3.542-.602-3.503-1.083.024-.307.152-2.662.275-4.81.122-2.147.68-4.36 1-5.79.37-1.653 1.252-1.019 1.446.205Z" fill="#FAD2C3"/><path d="M20.398 26.837s.032.248.085 1.462c.036.839-.41 2.906-2.57 3.862-.826.366-1.445-.054-.653-.587.558-.376.977-.588 1.124-.761 0 0-1.025-.082-1.33-.594-.137-.23-.495-.863-.703-1.395 0 0 .104-.077.249-.155 0 0-.18-1.121.334-1.79l3.464-.042Z" fill="#FAD2C3"/><path d="M20.39 29.105c-.275.344-.87 1.063-1.561 1.483-.768.466-2.372 1.156-2.71.586-.247-.418.342-.736.342-.736s-.723.146-.864-.28c-.13-.39.341-.608.341-.608s-.453.013-.505-.385c-.063-.48.899-.428 1.255-.967.08-.122 3.702.907 3.702.907Z" fill="#FAD2C3"/><path d="M18.472 29.695c-.311.281-1.182.738-1.995.752-.018 0-.028-.013-.012-.017a8.817 8.817 0 0 0 2.003-.743c.004-.002.008.005.004.008ZM17.98 28.933c-.294.215-1.213.646-2.037.633-.018 0-.027-.015-.01-.018a9.445 9.445 0 0 0 2.043-.622c.005-.002.008.005.004.007Z" fill="#263138"/><path d="M20.671 26.832 16.59 26.6s.233-3.884.354-5.208c.12-1.324.946-4.398 1.305-5.495.359-1.097 1.128-.824 1.424.395.296 1.218.488 5.334.523 5.462.036.127.476 5.078.476 5.078Z" fill="#A0BCC5"/><path d="M18.631 25.933c.27.014.541.021.812.029.13.003.26.008.39.007.14 0 .284.01.423 0 .01-.002.011-.014.001-.016-.138-.024-.281-.027-.42-.041-.13-.014-.26-.021-.39-.03-.27-.02-.54-.038-.81-.05a39.465 39.465 0 0 0-1.625-.038c-.013 0-.014.019-.001.02.54.05 1.079.092 1.62.12ZM16.767 23.8c.057-1.1.062-2.21.238-3.3.216-1.082.5-2.147.83-3.2-.21.953-.535 2.28-.709 3.223-.187 1.083-.203 2.189-.36 3.277Z" fill="#7599A1"/><path d="M17.476 18.59a2.633 2.633 0 0 1 .041-.812c.028.272.015.543-.04.811Z" fill="#7599A1"/><path d="M21.165 45.382h-.418l2.942-22.616h1.158l-3.682 22.616Z" fill="#F5C130"/><path d="M21.165 45.382h-.418l2.942-22.616h1.158l-3.682 22.616Z" fill="#4C717A"/><path opacity=".2" d="m24.846 22.766-.047.291-1.175.208.065-.5h1.157Z" fill="#040000"/><path d="M40.158 21.017H21.837v.567h18.32v-.567Z" fill="#F5C130"/><path d="M40.158 21.017H21.837v.567h18.32v-.567Z" fill="#658D92"/><path d="M39.679 34.399H22.317v.567H39.68v-.567Z" fill="#F5C130"/><path d="M39.679 34.399H22.317v.567H39.68v-.567Z" fill="#4C717A"/><path d="M39.134 21.584H22.861v1.182h16.273v-1.182Z" fill="#F5C130"/><path d="M39.134 21.584H22.861v1.182h16.273v-1.182Z" fill="#4C717A"/><path d="M40.83 45.382h.418l-2.942-22.616h-1.158l3.682 22.616Z" fill="#F5C130"/><path d="M40.83 45.382h.418l-2.942-22.616h-1.158l3.682 22.616Z" fill="#4C717A"/><path opacity=".2" d="m37.148 22.766.048.291 1.175.208-.065-.5h-1.158Z" fill="#040000"/><path d="M38.274 33.571c-.118-.253-.39-1.605-.496-2.417-.106-.812.27-1.874.63-2.433.357-.558.557-.668.643-1.178.085-.51.364-1.184.896-1.868.533-.685.843-.942 1.187-.915.343.026.398.82.46.973.062.154.618.525.56 1.145-.059.62-.22.859-.204 1.065.016.206.276.49.136 1.006-.14.517-1 1.03-1.18 1.316-.18.286-.455 1.054-.796 1.467-.342.414-.956.77-1.205 1.073-.248.304-.631.766-.631.766Z" fill="#F5C130"/><path d="M38.274 33.571c-.118-.253-.39-1.605-.496-2.417-.106-.812.27-1.874.63-2.433.357-.558.557-.668.643-1.178.085-.51.364-1.184.896-1.868.533-.685.843-.942 1.187-.915.343.026.398.82.46.973.062.154.618.525.56 1.145-.059.62-.22.859-.204 1.065.016.206.276.49.136 1.006-.14.517-1 1.03-1.18 1.316-.18.286-.455 1.054-.796 1.467-.342.414-.956.77-1.205 1.073-.248.304-.631.766-.631.766Z" fill="#CCD8DB"/><g opacity=".2" fill="#040000"><path d="M38.302 33.22a28.16 28.16 0 0 1 .524-1.997c.1-.329.208-.656.33-.978.03-.082.063-.16.096-.24.03-.081.067-.16.102-.238.035-.079.072-.156.106-.235.034-.078.065-.158.095-.238.237-.645.396-1.316.565-1.983.083-.333.165-.668.257-1 .046-.165.095-.33.151-.493.057-.163.117-.326.21-.47a2.16 2.16 0 0 0-.2.473c-.052.164-.097.33-.14.496-.087.333-.166.668-.246 1.003-.079.335-.161.67-.25 1.002-.09.332-.186.664-.306.988-.03.08-.062.16-.096.24-.035.08-.073.157-.108.236a4.449 4.449 0 0 0-.103.235c-.032.08-.066.159-.095.24-.124.32-.232.646-.336.974-.103.328-.2.658-.292.99-.092.33-.182.662-.264.996Z"/><path d="M38.303 29.659c-.01.112-.02.224-.024.336a8.405 8.405 0 0 0-.014.336c-.004.225-.002.45.022.672.02.223.059.445.1.665.02.111.042.22.066.33.022.11.048.22.074.33a6.616 6.616 0 0 1-.174-.653 6.503 6.503 0 0 1-.11-.668 4.843 4.843 0 0 1-.012-.677c.012-.225.034-.45.072-.671ZM40.588 30.116a14.25 14.25 0 0 1-.806 1.08c-.074.084-.147.17-.235.245a1.778 1.778 0 0 1-.285.184 4.644 4.644 0 0 1-.617.272 8.454 8.454 0 0 0 .6-.302c.096-.057.192-.115.277-.186.083-.071.154-.158.227-.242.146-.17.284-.347.423-.523l.416-.528ZM39.297 27.87c-.005.084-.012.168-.015.252-.005.084-.01.167-.013.251a11.107 11.107 0 0 0 .004 1.006c.006.084.01.167.021.25.007.084.022.166.032.25a3.353 3.353 0 0 1-.088-.498 6.174 6.174 0 0 1-.024-.505 7.32 7.32 0 0 1 .021-.505c.014-.168.033-.335.062-.5ZM41.638 26.71a4.956 4.956 0 0 1-.357.524 4.736 4.736 0 0 1-.891.9 2.92 2.92 0 0 1-.546.323c.09-.055.185-.102.27-.165.089-.055.17-.121.255-.184.162-.133.318-.274.465-.425a7.3 7.3 0 0 0 .616-.718c.065-.082.127-.168.188-.254ZM41.248 26.292c-.064.135-.14.263-.22.388-.081.125-.169.246-.265.36a2.526 2.526 0 0 1-.315.319c-.116.094-.241.18-.38.234l.096-.057c.032-.018.06-.043.09-.064l.046-.032.042-.035c.028-.024.058-.046.083-.073l.08-.076.077-.08c.026-.025.05-.053.074-.08.025-.029.05-.056.072-.084a5.625 5.625 0 0 0 .397-.534c.043-.06.083-.123.123-.186Z"/></g><path d="m37.122 40.793-.247.018s.128-3.078.452-4.33c.389-1.503.887-2.629.866-3.16l.24.057s-.69 1.962-.903 3.034c-.214 1.071-.408 4.38-.408 4.38Z" fill="#F5C130"/><path d="m37.122 40.793-.247.018s.128-3.078.452-4.33c.389-1.503.887-2.629.866-3.16l.24.057s-.69 1.962-.903 3.034c-.214 1.071-.408 4.38-.408 4.38Z" fill="#CCD8DB"/><path d="M35.711 35.775s-.005-.778.08-1.49c.037-.304-.155-1.309-.327-1.773-.171-.464-.858-1.832-1.178-2.049-.32-.216-1.802-.951-2.432-.909-.63.043-.476.603-.295.99.182.385.724.965.918 1.3.194.337.722 1.852.97 2.274.246.422.63 1.103.935 1.288.305.184 1.107.208 1.33.37Z" fill="#F5C130"/><path d="M35.711 35.775s-.005-.778.08-1.49c.037-.304-.155-1.309-.327-1.773-.171-.464-.858-1.832-1.178-2.049-.32-.216-1.802-.951-2.432-.909-.63.043-.476.603-.295.99.182.385.724.965.918 1.3.194.337.722 1.852.97 2.274.246.422.63 1.103.935 1.288.305.184 1.107.208 1.33.37Z" fill="#CCD8DB"/><g opacity=".2" fill="#040000"><path d="M31.782 29.764c.14.06.269.141.397.223a9.926 9.926 0 0 1 1.091.82c.114.1.228.202.33.317.05.059.095.12.137.184.043.062.084.126.126.19a18.122 18.122 0 0 1 .681 1.184c.07.135.14.27.196.413.112.282.22.566.324.851l.314.854.293.862-.313-.855-.326-.85c-.11-.282-.215-.566-.329-.847a4.39 4.39 0 0 0-.196-.408 18.934 18.934 0 0 0-.678-1.182c-.04-.064-.081-.128-.124-.19a1.863 1.863 0 0 0-.134-.181 4.092 4.092 0 0 0-.323-.317 10.912 10.912 0 0 0-1.075-.837 2.94 2.94 0 0 0-.39-.232Z"/><path d="M32.057 30.808c.069.05.136.1.207.147.07.048.14.095.21.14.143.088.29.176.446.229.04.014.078.024.12.032l.125.027c.082.02.165.04.246.062.164.045.326.093.487.147l-.248-.056-.247-.057-.247-.056a3.941 3.941 0 0 0-.124-.025.897.897 0 0 1-.126-.032 1.553 1.553 0 0 1-.233-.108 2.522 2.522 0 0 1-.217-.135 3.754 3.754 0 0 1-.4-.315ZM34.083 30.608c.07.138.116.287.166.432.049.147.093.295.134.444l.06.224.024.114c.008.039.01.08.008.119a1.433 1.433 0 0 1-.11.451c.02-.075.038-.15.051-.225a1.15 1.15 0 0 0 .024-.227.552.552 0 0 0-.011-.111 2.467 2.467 0 0 0-.028-.111c-.019-.075-.04-.149-.06-.223l-.125-.445a12.23 12.23 0 0 0-.064-.223c-.02-.073-.041-.148-.069-.219ZM33.414 32.913l.188.151c.063.051.125.102.189.151.127.099.253.198.387.284l.05.03.053.027.11.051c.072.035.145.069.217.105l.217.106.214.11c-.075-.028-.149-.06-.224-.09l-.221-.095c-.075-.032-.148-.065-.221-.098l-.11-.05-.056-.027-.053-.032a3.614 3.614 0 0 1-.385-.295 6.295 6.295 0 0 1-.355-.328ZM33.254 33.493c.07.06.141.121.214.18.072.058.144.117.218.172.075.055.149.111.227.162.077.05.156.098.24.135a.8.8 0 0 0 .127.048l.135.034.27.07.27.074c.089.026.178.05.268.078-.092-.018-.182-.038-.274-.057l-.272-.061c-.091-.02-.182-.043-.272-.065l-.136-.032a.785.785 0 0 1-.135-.048 1.67 1.67 0 0 1-.244-.143 2.895 2.895 0 0 1-.225-.168 4.624 4.624 0 0 1-.411-.38Z"/></g><path d="M35.605 35.68c.077.108.301.836.455 1.631.205 1.064.43 3.528.43 3.528l.255-.019s-.375-2.927-.54-3.643c-.163-.716-.514-1.566-.514-1.566l-.086.07Z" fill="#F5C130"/><path d="M35.605 35.68c.077.108.301.836.455 1.631.205 1.064.43 3.528.43 3.528l.255-.019s-.375-2.927-.54-3.643c-.163-.716-.514-1.566-.514-1.566l-.086.07Z" fill="#CCD8DB"/><path d="M37.673 37.43c.067-.343.093-.534.008-.974-.083-.44-.353-.889-.12-1.284.234-.394.774-.68.86-.934.085-.254.349-.937.925-1.434.577-.497 1.293-.86 1.66-1.187.367-.326.807-.904 1.08-.729.273.176-.093 1.953-.312 2.174-.219.221-.486 1.751-.857 2.026-.371.274-.719.325-.802.435-.083.11-.266.474-.581.614-.316.14-1.029.543-1.363.788-.334.246-.498.505-.498.505Z" fill="#E1E9EB"/><g opacity=".2" fill="#040000"><path d="M37.674 37.43c.281-.57.587-1.128.912-1.674.324-.547.675-1.08 1.052-1.59.379-.512.773-1.01 1.147-1.524a35.116 35.116 0 0 0 1.082-1.569 27.946 27.946 0 0 1-1.053 1.59c-.37.517-.764 1.017-1.14 1.529-.189.255-.373.513-.548.778a26.058 26.058 0 0 0-.993 1.625c-.16.275-.313.553-.46.835Z"/><path d="m38.385 36.1.283-.157.282-.159c.188-.107.375-.213.56-.324.187-.108.373-.219.557-.33l.556-.335c-.088.063-.177.125-.267.186-.09.06-.18.12-.27.178-.182.117-.368.228-.553.339-.188.107-.376.214-.567.315a9.56 9.56 0 0 1-.581.288ZM38.827 33.542c-.01.082-.023.164-.03.247a9.189 9.189 0 0 0-.063.742 8.73 8.73 0 0 0-.011.496l.001.124.005.124c0 .083.011.165.014.248a3.845 3.845 0 0 1-.055-.495 4.946 4.946 0 0 1 .001-.5 5.82 5.82 0 0 1 .047-.496c.022-.165.05-.329.091-.49ZM39.586 32.697c-.012.075-.026.148-.037.222a12.664 12.664 0 0 0-.09.668 7.858 7.858 0 0 0-.03.448c-.002.075-.005.15-.002.225-.002.075.006.149.008.224a2.77 2.77 0 0 1-.04-.45 4.513 4.513 0 0 1 .087-.898c.028-.148.06-.295.104-.439ZM41.883 32.405c-.059.055-.123.106-.185.158a5.9 5.9 0 0 1-1.47.857c.07-.04.144-.073.215-.113a11.597 11.597 0 0 0 1.04-.624c.136-.09.269-.183.4-.278Z"/></g><path d="M37.723 37.127c-.3.755-.42 3.653-.42 3.653l.174-.013s.093-3.084.368-3.55l-.122-.09ZM36.784 34.486a2.524 2.524 0 0 0-.744-1.288c-.418-.386-1.138-.986-1.437-2.24-.299-1.255.048-2.477.112-2.782.065-.306.234-.733.375-.77.14-.036.463.11.724.118.261.007.78-.03 1.278.559.498.589 1.123.96 1.527 1.856.403.896.44 2.508-.133 3.044-.574.536-1.146.72-1.388.985-.241.265-.314.518-.314.518Z" fill="#E1E9EB"/><g opacity=".2" fill="#040000"><path d="M35.27 27.55c.117.088.215.2.303.318.088.117.168.241.244.367.15.253.281.517.404.783a11.956 11.956 0 0 1 .486 1.23c.046.14.086.283.117.427.062.289.103.58.14.871.035.292.065.584.083.878.01.147.017.293.019.44.004.149-.012.297-.036.441-.051.29-.129.575-.218.854.082-.282.153-.567.196-.857.052-.29.025-.583.004-.875a18.745 18.745 0 0 0-.09-.875c-.036-.29-.08-.58-.142-.867a6.1 6.1 0 0 0-.258-.838 14.582 14.582 0 0 0-.332-.814 8.873 8.873 0 0 0-.392-.786 4.19 4.19 0 0 0-.234-.372 1.542 1.542 0 0 0-.294-.325Z"/><path d="M34.716 29.57c.146.146.306.276.473.398.167.121.338.237.514.345.176.109.348.222.54.297a7.326 7.326 0 0 0 .586.2 4.132 4.132 0 0 1-.599-.168 1.75 1.75 0 0 1-.283-.133 6.437 6.437 0 0 1-.779-.514 4.455 4.455 0 0 1-.238-.2 2.555 2.555 0 0 1-.214-.226ZM36.994 28.168c.014.154.019.309.018.463 0 .154-.008.309-.03.463-.01.077-.026.154-.05.23a1.75 1.75 0 0 1-.361.593 2.37 2.37 0 0 0 .237-.394c.066-.139.113-.283.13-.435.023-.151.031-.305.04-.458.005-.077.007-.154.01-.23l.006-.232ZM38.437 30.135c-.026.125-.057.248-.087.372-.031.123-.064.246-.098.369a10.08 10.08 0 0 1-.231.728c-.047.118-.094.237-.155.351a1.462 1.462 0 0 1-.236.305 3.935 3.935 0 0 1-.582.493 5.268 5.268 0 0 0 .558-.516c.083-.095.167-.19.224-.301a3.18 3.18 0 0 0 .149-.348c.09-.237.165-.48.24-.722.075-.243.147-.487.218-.73ZM35.258 31.549l.194.241.196.242c.13.16.261.32.399.474.134.156.276.306.432.44.078.067.16.128.248.182.087.054.178.104.278.131a.988.988 0 0 1-.29-.112 1.911 1.911 0 0 1-.258-.175 3.615 3.615 0 0 1-.444-.437 11.02 11.02 0 0 1-.755-.986ZM37.907 30.72a6.75 6.75 0 0 1-.3.843 3.76 3.76 0 0 1-.097.203c-.019.033-.036.066-.057.098l-.032.047-.038.045c-.11.103-.232.193-.367.256a1.74 1.74 0 0 0 .343-.28c.046-.053.08-.12.114-.185.032-.067.064-.134.093-.202.06-.135.116-.273.173-.41l.168-.415Z"/></g><path d="m36.654 40.827-.242.017s.505-5.406.29-6.638l.161.097s.276 3.832-.21 6.524Z" fill="#E1E9EB"/><path d="M38.833 45.382h-3.572l-.398-5.407h4.368l-.398 5.407Z" fill="#E1E9EB"/><path d="m34.863 39.975.104 1.417h4.16l.104-1.417h-4.368Z" fill="#C1D4D8"/><path opacity=".1" d="m38.833 45.382-2.587-1.298-.964-4.109h-.419l.398 5.407h3.572Z" fill="#040000"/></g></g><defs><clipPath id="a"><rect width="48" height="48" rx="24" fill="#fff"/></clipPath><clipPath id="b"><path fill="#fff" d="M0 0h48v48H0z"/></clipPath></defs></svg>