<svg width="48" height="48" fill="none" xmlns="http://www.w3.org/2000/svg"><g clip-path="url(#a)"><rect width="48" height="48" rx="24" fill="#fff"/><g clip-path="url(#b)"><path d="M22.474 44.757c6.421 0 11.627-.388 11.627-.867 0-.48-5.206-.867-11.627-.867-6.422 0-11.627.388-11.627.867s5.205.867 11.627.867Z" fill="#C3D2D7"/><path d="M13.902 37.488c-1.848-2.022-2.504-5.06-1.656-7.664.817-2.507 2.907-4.648 2.887-7.284-.012-1.481-.705-2.863-1.015-4.31-.672-3.14.517-6.434 2.39-9.041 1.695-2.36 4.003-4.333 6.734-5.324 2.732-.99 5.896-.925 8.441.475 2.546 1.4 4.343 4.208 4.242 7.112-.103 2.98-2.066 5.745-1.781 8.715.165 1.721 1.069 3.268 1.679 4.886.758 2.01 1.069 4.209.72 6.327-.348 2.12-1.38 4.148-3.008 5.55-1.535 1.323-3.52 2.038-5.522 2.354-2.372.374-4.796.357-7.176.67-2.526.33-5.208-.576-6.935-2.466Z" fill="#C3DAE4" opacity=".55"/><path d="M38.675 11.472H13.094c.513-.637 1.246-1.22 2.047-1.39.8-.17 1.658-.055 2.385.32-.24-.473-.1-1.107.194-1.548.295-.44.79-.726 1.312-.82a2.405 2.405 0 0 1 1.965.53c.323-1.556 1.609-2.964 3.184-3.167 1.576-.202 3.234.686 3.939 2.11 1.024-.795 2.495-.94 3.655-.362 1.16.578 1.937 1.853 1.918 3.149.808-.406 1.673-.442 2.56-.265.886.177 1.833.757 2.422 1.443Z" fill="#8FAAB3" opacity=".55"/><g opacity=".55" fill="#fff"><path d="M17.669 12.989s.038.659.287 1.197a.242.242 0 1 0 .44-.204c-.248-.538-.727-.993-.727-.993ZM20.918 16.266s.038.66.288 1.197a.243.243 0 1 0 .44-.204c-.25-.538-.728-.993-.728-.993ZM16.803 17.898s.038.66.287 1.197a.243.243 0 1 0 .44-.204c-.249-.538-.727-.993-.727-.993ZM19.717 19.236s.038.66.287 1.197a.242.242 0 1 0 .44-.204c-.249-.538-.727-.993-.727-.993ZM18.936 22.893s.038.66.287 1.198a.242.242 0 1 0 .44-.204c-.25-.538-.727-.994-.727-.994ZM15.233 20.43s.039.66.288 1.198a.243.243 0 1 0 .44-.204c-.25-.538-.728-.994-.728-.994ZM16.427 26.113s.038.66.287 1.198a.242.242 0 1 0 .44-.204c-.249-.538-.727-.994-.727-.994ZM23.696 21.556s.038.66.288 1.197a.243.243 0 1 0 .44-.204c-.249-.538-.728-.993-.728-.993ZM24.845 18.056s.038.66.287 1.197a.242.242 0 1 0 .44-.204c-.25-.538-.727-.993-.727-.993ZM22.331 12.989s.038.659.288 1.197a.242.242 0 1 0 .44-.204c-.25-.538-.728-.993-.728-.993ZM27.586 12.989s.038.659.288 1.197a.242.242 0 1 0 .44-.204c-.25-.538-.728-.993-.728-.993ZM26.873 16.389s.038.66.288 1.197a.242.242 0 1 0 .44-.204c-.25-.538-.728-.993-.728-.993ZM29.456 20.887s.038.66.288 1.197a.242.242 0 1 0 .44-.204c-.25-.538-.728-.993-.728-.993ZM30.06 17.898s.039.66.288 1.197a.243.243 0 1 0 .44-.204c-.249-.538-.727-.993-.727-.993ZM27.186 22.73s.039.659.288 1.197a.242.242 0 1 0 .44-.204c-.249-.538-.728-.994-.728-.994ZM31.88 23.562s.038.66.287 1.198a.242.242 0 1 0 .44-.204c-.248-.538-.727-.994-.727-.994ZM33.306 21.556s.038.66.287 1.197a.243.243 0 1 0 .44-.204c-.249-.538-.727-.993-.727-.993ZM33.306 17.058s.038.66.287 1.197a.243.243 0 1 0 .44-.204c-.249-.538-.727-.993-.727-.993ZM31.37 13.22s.038.66.288 1.198a.242.242 0 1 0 .44-.204c-.25-.538-.728-.994-.728-.994ZM34.71 13.657s.04.66.288 1.198a.242.242 0 1 0 .44-.204c-.248-.538-.727-.994-.727-.994Z"/></g><path d="M14.339 40.523c-.508.28-1.048.694-.728 1.155.32.46 2.012 1.045 5.26.175l1.48-.502.33-1.533c.51-3.325-.256-4.942-.749-5.21-.493-.268-.845.314-1.068.85-.223.535-.4 1.2-.54 1.186-.139-.015-.228-.1-.26-.368-.032-.27-.277-2.733-1.164-3.123-.887-.389-1.592 1.523-1.752 1.76-.16.239-.343.042-.394-.121-.052-.166-.618-2.004-.846-2.851-.227-.847-.609-1.334-1.159-1.279-.53.053-.613.962-.788 1.34-.174.377-.598.074-.598.074s-.821-.974-2.586-2.526c-1.765-1.552-2.376-.666-2.376-.666" fill="#EBEBEB"/><path d="M6.416 28.869s-.79.69.946 2.275c1.736 1.584 2.793 2.294 2.793 2.294s.349.388-.008.602c-.356.215-1.25.397-1.245.93.006.553.532.879 1.398 1.012.867.133 2.756.495 2.926.528.168.033.384.194.164.379-.22.184-2.041 1.095-1.557 1.934.484.84 2.96.813 3.23.816" fill="#EBEBEB"/><path d="M20.554 41.667c-1.291-1.146-3.552-3.22-5.503-4.99-1.95-1.77-3.717-3.37-5.003-4.522l-1.524-1.362a645.14 645.14 0 0 0-.521-.468l-.035-.034.038.03.11.094.42.364c.365.317.89.778 1.535 1.35a639.769 639.769 0 0 1 5.012 4.513c1.951 1.77 4.209 3.848 5.494 5" fill="#E0E0E0"/><path d="M10.163 34.766c0-.004.04-.007.112-.01.073-.004.178-.005.308-.007.26-.002.617.005 1.013.019l1.012.04.307.01a.542.542 0 0 1 .112.008.48.48 0 0 1-.112.01 7.561 7.561 0 0 1-.308.006c-.26 0-.618-.011-1.013-.026l-1.012-.032-.307-.008a.56.56 0 0 1-.112-.01ZM13.092 34.695c-.013 0-.033-.74-.043-1.652-.01-.913-.009-1.653.005-1.653.013 0 .032.74.043 1.652.01.913.009 1.653-.005 1.653ZM15.965 37.548a.56.56 0 0 1 .026-.112l.084-.302a24.187 24.187 0 0 0 .472-2.011c.024-.122.043-.226.06-.308a.541.541 0 0 1 .026-.112c.004 0 0 .041-.008.115a13.903 13.903 0 0 1-.244 1.327 14.27 14.27 0 0 1-.372 1.296.462.462 0 0 1-.044.107ZM13.33 38.196c-.002-.003.034-.016.1-.036l.278-.08a55.98 55.98 0 0 1 1.85-.48l.283-.065a.43.43 0 0 1 .106-.018.462.462 0 0 1-.101.036l-.279.08a56.811 56.811 0 0 1-1.85.48l-.283.065a.462.462 0 0 1-.105.018ZM15.546 41.037a.72.72 0 0 1 .129-.045l.356-.104a94.265 94.265 0 0 1 2.366-.637l.36-.09a.75.75 0 0 1 .134-.026c.001.004-.045.02-.129.045l-.356.104a94.376 94.376 0 0 1-2.365.638l-.36.09a.829.829 0 0 1-.135.025ZM18.805 40.134a.857.857 0 0 1 .029-.143l.093-.386a38.087 38.087 0 0 0 .53-2.569l.067-.392a.9.9 0 0 1 .03-.143.86.86 0 0 1-.011.146 22.69 22.69 0 0 1-.691 3.348.851.851 0 0 1-.047.14Z" fill="#E0E0E0"/><path d="M28.878 42.435c-1.933-2.167-1.747-5.295-1.016-7.974.122-.447.185-.934.493-1.278.308-.345.873-.497 1.232-.211.297.237.35.66.462 1.027.147.488.434.93.818 1.26.251.217.585.392.905.303.44-.122.613-.649.716-1.097l.579-2.51c.103-.45.21-.908.45-1.3.24-.393.642-.715 1.097-.734.454-.018.924.353.91.813-.006.191-.088.372-.12.561-.031.189.007.416.171.51.167.095.376.01.54-.09.57-.343 1.023-.851 1.454-1.362.43-.51.856-1.037 1.393-1.43.537-.395 1.21-.649 1.86-.533.651.116 1.241.674 1.254 1.343.013.67-.507 1.224-1.03 1.64a10.27 10.27 0 0 1-2.554 1.493c-.164.067-.344.14-.437.292-.168.276.045.64.316.808.308.19.68.242 1.019.366.34.124.681.368.736.73.075.501-.422.89-.874 1.116a8.813 8.813 0 0 1-2.883.863c-.358.043-.73.067-1.051.235-.321.169-.577.534-.491.888.085.354.474.553.835.57.36.018.714-.096 1.073-.142.67-.087 1.456.144 1.725.77.176.411.084.904-.146 1.29-.23.386-.581.682-.943.947-1.261.925-2.746 1.558-4.293 1.715-1.547.157-2.903-.023-4.2-.879Z" fill="#F5F5F5"/><path d="M29.27 42.696c.35-1.047-.017-.522.706-1.788.72-1.269 1.625-2.594 2.618-3.947l.74-1c.243-.328.485-.652.74-.955a20.536 20.536 0 0 1 1.57-1.657c.526-.503 1.041-.961 1.527-1.386.487-.424.949-.81 1.384-1.145a16.328 16.328 0 0 1 2.796-1.75c.07-.032.124-.06.165-.079a.364.364 0 0 1 .058-.024.292.292 0 0 1-.054.032l-.162.087c-.141.076-.351.189-.616.34-.532.302-1.288.766-2.15 1.443-.432.336-.89.725-1.374 1.15-.484.427-.998.887-1.52 1.39a20.827 20.827 0 0 0-1.56 1.654c-.254.301-.493.623-.737.952l-.739.999c-.993 1.352-1.897 2.673-2.62 3.936-.724 1.26-.36.728-.717 1.768" fill="#E0E0E0"/><path d="M34.099 35.008a.938.938 0 0 1 0-.201c.007-.13.021-.317.043-.547.042-.462.122-1.097.213-1.797.092-.7.163-1.335.198-1.795.018-.23.03-.417.038-.546a.945.945 0 0 1 .02-.2c.007 0 .01.07.013.2.003.13-.001.318-.012.55a22.51 22.51 0 0 1-.172 1.802l-.239 1.792-.068.544a.896.896 0 0 1-.034.198Z" fill="#E0E0E0"/><path d="M40.118 35.296a1.251 1.251 0 0 1-.237-.027c-.15-.021-.369-.054-.64-.086a28.288 28.288 0 0 0-2.125-.175 31.043 31.043 0 0 0-2.133-.024c-.273.005-.493.016-.646.022a1.256 1.256 0 0 1-.238.002c0-.006.083-.019.236-.036.152-.016.373-.036.647-.049.546-.03 1.304-.038 2.139-.001.834.038 1.587.116 2.128.2.271.04.489.082.638.114.15.034.232.055.23.06ZM30.072 40.818a.293.293 0 0 1-.023-.08l-.05-.231a24.182 24.182 0 0 1-.155-.858 69.052 69.052 0 0 1-.393-2.849 135.627 135.627 0 0 0-.37-2.851l-.128-.861a40.462 40.462 0 0 0-.034-.235.335.335 0 0 1-.006-.083c.003 0 .01.027.023.08l.05.231c.041.202.094.495.154.858.122.726.258 1.734.394 2.85.136 1.114.263 2.122.369 2.85l.128.861.034.235a.28.28 0 0 1 .007.083Z" fill="#E0E0E0"/><path d="M38.315 40.164a.306.306 0 0 1-.083.013l-.24.022-.883.072c-.746.06-1.775.156-2.912.263a93.441 93.441 0 0 1-2.915.238 32.74 32.74 0 0 1-.885.044l-.241.006c-.055 0-.084 0-.085-.004a.31.31 0 0 1 .084-.013l.24-.022.883-.071c.746-.06 1.775-.156 2.912-.264a93.278 93.278 0 0 1 2.915-.238c.373-.022.676-.038.885-.044l.24-.006c.056 0 .085 0 .085.004Z" fill="#E0E0E0"/><path d="M32.369 26.921c1.905 3.48 1.626 11.275-.32 14.42l-.714.477.177-.447-11.059-9.241.354-3.31 11.562-1.899Z" fill="#7BB0CB"/><path d="m32.23 29.15-1.302-1.992-10.122 1.662-.353 3.31 9.697 8.102-.68-5.03a4.963 4.963 0 0 1 1.498-4.26l.094-.09c.505-.48.902-1.06 1.168-1.703Z" fill="#6597AB"/><path d="M20.68 26.358h-.564a2.887 2.887 0 0 0-2.843 2.39l3.055.112.353-2.502ZM16.669 28.417l-.148.037a1.334 1.334 0 0 0-.893.745l-.51 1.128c-.12.264-.15.56-.087.843l.273 1.214a.94.94 0 0 0 .76-.923v-.597l.605-1.381v-1.066Z" fill="#FAD2C3"/><path d="m23.07 33.644-2.373-3.558a2.75 2.75 0 0 0-5.027 1.776l.746 8.177 4.42-.34.577 2.008a3.15 3.15 0 0 0 4.702 1.797l.603-.378-3.649-9.482Z" fill="#9EC1CC"/><path d="m23.662 35.184.378 6.997a1.188 1.188 0 0 1-1.186 1.252h-.194a3.143 3.143 0 0 0 3.455.071l.603-.379-3.056-7.941ZM19.68 31.919l-.047.005.798 7.173.047-.006-.798-7.172ZM19.292 39.122l-.523-7.666.047-.003.524 7.665-.048.004Z" fill="#7DA2AB"/><path d="m16.775 39.172-.005-.047 3.108-.339.004.047-3.107.34Z" fill="#7DA2AB"/><path d="M18.286 41.956h1.16l-.301-2.119-2.024.147.058.787c.014.194-.008.387-.06.57.396-.007.794.055 1.167.192v.423Z" fill="#FAD2C3"/><path d="M14.542 43.432c-.018.039-.038.076-.054.117l-.167.437h5.412l-.078-.554h-5.113Z" fill="#E5E4E1"/><path d="M19.446 41.956h-1.16v-.423c-.372-.137-.77-.2-1.167-.191a1.629 1.629 0 0 1-1.218 1.144l-.236.051a1.63 1.63 0 0 0-1.123.895h5.113l-.209-1.476Z" fill="#037C93"/><path d="m19.146 39.837-2.024.147.045.611 2.011-.53-.032-.228Z" fill="#E1BCB1"/><path d="m26.536 25.34 2.908.752-3.374 1.283.466-2.035Z" fill="#FAD2C3"/><path d="M20.588 28.259a2.342 2.342 0 0 1-1.475-.033c-.16-.057-.332-.155-.366-.322-.047-.235.198-.41.383-.561.522-.427.743-1.114.896-1.771.154-.656.275-1.346.671-1.891.563-.775 1.672-1.098 2.563-.748.38-.344.923-.447 1.426-.349.502.1.952.398 1.29.782.339.385.572.852.742 1.335.233.661.343 1.43-.007 2.036-.307.532-.901.824-1.48 1.028-1.47.516-3.156.032-4.643.494Z" fill="#352B24"/><path d="m26.85 26.778-2.307.61a9.41 9.41 0 0 0-4.131.096l-3.744.933v1.066l9.543 1.38 1.717-.43a6.311 6.311 0 0 0-1.078-3.655Z" fill="#FAD2C3"/><path d="M27.822 31.455a6.29 6.29 0 0 0-.971-4.677l3.188-.844a2.063 2.063 0 0 1 1.387 3.87l-3.604 1.651Z" fill="#7BB0CB"/><path d="M26.852 26.781c.604 1.692.52 3.083.293 3.848l.783-.196a6.309 6.309 0 0 0-1.076-3.652Z" fill="#E1BCB1"/><path d="M27.822 31.455c.065-.337.1-.679.107-1.022l-.626.157c.214.468.519.865.519.865Z" fill="#4F7D8A"/><path d="m27.79 31.496.009-.046a6.224 6.224 0 0 0-.037-2.484l.046-.01c.178.813.194 1.662.047 2.458l3.561-1.632a2.045 2.045 0 0 0 1.19-1.854h.048c0 .814-.479 1.559-1.218 1.898l-3.646 1.67Z" fill="#507D8A"/><path d="m19.584 27.665-2.766.693.012.046 2.766-.693-.012-.046ZM23.572 30.506l-4.937-.714.006-.048 4.937.715-.006.047Z" fill="#E1BCB1"/><path d="M18.762 39.627c1.49 2.061 4.105 1.49 4.105 1.49l.708-1.49-4.178-1.418-.635 1.418Z" fill="#7DA2AB"/><path d="M16.128 43.986h5.04v-.553h-4.752c-.125.164-.224.35-.288.553Z" fill="#fff"/><path d="M20.021 42.233v-.364a2.833 2.833 0 0 0-.876-.405 2.759 2.759 0 0 1-1.597 1.257l-.2.06a1.829 1.829 0 0 0-.933.65h4.753v-1.198H20.02Z" fill="#42A1B7"/><path d="M20.022 42.233h1.147v-.172l1.298-2.252-2.124-1-1.05 2.374c-.043.097-.093.19-.146.282.312.085.61.22.876.405v.363h-.001Z" fill="#FAD2C3"/><path d="M19.88 39.854c.943.098 1.8.78 1.978 1.011l.609-1.056-2.125-1-.462 1.045Z" fill="#E1BCB1"/><path d="m31.512 41.37-4.374-9.943a2.57 2.57 0 0 0-4.698-.016l-3.678 8.216c2.325-.69 4.105 1.49 4.105 1.49l1.416-2.98.797 3.774a2.616 2.616 0 0 0 2.56 2.075h1.257a2.616 2.616 0 0 0 2.615-2.615Z" fill="#9EC1CC"/><path d="M25.868 34.804c.055 2.028-1.227 5.033-1.227 5.033l-.359-1.7 1.586-3.333Z" fill="#7DA2AB"/><path d="m22.888 41.127-.043-.02 3.33-7.003.043.02-3.33 7.003ZM22.422 31.404l-3.687 8.213.044.02 3.686-8.213-.043-.02ZM22.816 40.08a3.837 3.837 0 0 0-3.329-1.299l-.006-.047a3.883 3.883 0 0 1 3.372 1.315l-.037.032Z" fill="#7DA2AB"/><path d="m24.86 34.79-2.56 5.264.043.02 2.56-5.263-.042-.02Z" fill="#7DA2AB"/><path d="M23.977 30.024c.584.248.7 1.164.636 1.791a.268.268 0 0 0 .233.291l.182.024a.269.269 0 0 0 .234.275l.363.047c0 .12.092.218.211.227l.152.01c.121.009.227-.08.241-.2l.016-.138a.404.404 0 0 0 .464-.37c.108-1.396-.706-2.498-1.572-2.498-.953 0-1.112.309-1.16.54Z" fill="#FAD2C3"/><path d="M26.005 32.714h-.018l-.152-.011a.251.251 0 0 1-.232-.229l-.344-.044a.292.292 0 0 1-.255-.278l-.16-.021a.292.292 0 0 1-.254-.317l.047.005a.245.245 0 0 0 .213.265l.203.026v.022a.244.244 0 0 0 .212.25l.385.05v.021c0 .106.083.195.188.203l.152.01a.204.204 0 0 0 .216-.179l.018-.163.025.003a.376.376 0 0 0 .293-.078.377.377 0 0 0 .143-.269 3.03 3.03 0 0 0-.082-.992 2.57 2.57 0 0 0-.28-.679c-.3-.502-.743-.802-1.186-.802-.62 0-.978.129-1.097.395l-.044-.02c.128-.284.501-.422 1.141-.422.46 0 .919.308 1.228.825.124.208.22.44.284.692.083.321.111.66.084 1.007a.425.425 0 0 1-.467.394l-.013.114a.25.25 0 0 1-.248.222Z" fill="#E1BCB1"/><path d="m26.27 32.352-.048-.003c.042-.8-.101-1.356-.103-1.361l.046-.012c.002.005.147.569.104 1.376ZM25.649 32.454l-.047-.003c.076-1.205-.084-1.492-.085-1.495l.04-.024c.008.01.17.294.092 1.522ZM25.052 32.133l-.047-.005c.076-.732 0-1.137 0-1.141l.047-.01c0 .004.078.415 0 1.155Z" fill="#E1BCB1"/></g></g><defs><clipPath id="a"><rect width="48" height="48" rx="24" fill="#fff"/></clipPath><clipPath id="b"><path fill="#fff" d="M0 0h48v48H0z"/></clipPath></defs></svg>