<svg width="48" height="48" fill="none" xmlns="http://www.w3.org/2000/svg"><g clip-path="url(#a)"><rect width="48" height="48" rx="24" fill="#fff"/><path d="M30.43 13.586s-6.31-3.082-12.523-.109c-6.2 2.968-9.36 9.979-12.067 15.57-2.706 5.589-1.175 11.784 3.551 15.087 4.726 3.304 7.957-.353 14.598.241 6.642.594 8.425 1.793 13.947-1.449 5.522-3.242 6.545-12.328 2.217-19.657-4.327-7.328-9.723-9.683-9.723-9.683Z" fill="#C3DAE4"/><g opacity=".42" stroke="#7BB0CB" stroke-width=".089" stroke-miterlimit="10"><path d="M20.215 14.218v11.157M17.689 18.394h5.052v4.674h5.19M30.39 15.465v5.36h-2.458v9.536h14.203M27.932 25.562h12.564M30.731 23.193h8.741"/><path d="M33.122 23.193v-2.306h2.663v-1.184M30.39 18.332h2.594M25.405 18.394h2.527v-3.926M25.337 14.405v6.545M22.946 16.15h2.459M15.094 16.898v8.664M7.513 26.123v1.744h2.253v-2.305h7.853v2.493h5.122v-2.369h2.731v4.737h-10.38"/><path d="M15.093 28.055v4.612h-7.58M9.903 32.729v9.224h5.19M9.835 37.341H7.24M4.509 35.035h2.8"/><path d="M5.466 30.236H12.5v-2.244M12.566 39.585v-4.612h10.312v-2.244h10.243v2.244h2.527V27.93h2.8M30.595 27.992h2.731v-2.43"/><path d="M40.974 38.587v-5.92h-2.663v4.799H22.946v2.368h-2.731v3.49M20.146 42.078H17.55M20.215 37.466h-5.121v6.606M17.689 37.528v2.369M17.757 35.035v-2.243M20.215 30.423v2.369"/><path d="M22.81 43.449V42.14h2.527M25.473 43.574v-3.74M27.999 37.466v4.674h5.19v1.683M30.663 39.772h9.56M35.784 39.834v2.369M30.526 37.528v-2.493M27.999 32.729v2.306M25.405 37.404v-2.307M20.215 23.193H17.69M17.551 20.825H15.23M9.152 23.193H12.5v-3.926M7.172 39.585v1.932"/></g><path opacity=".2" d="M32.497 14.8c-1.143-.79-1.934-1.155-1.934-1.155s-6.367-3.15-12.682-.173c-1.379.65-2.576 1.559-3.686 2.536L7.248 42.413c.58.63 1.24 1.205 1.977 1.712 4.804 3.303 8.088-.353 14.839.24 6.751.594 8.564 1.793 14.177-1.448.504-.29.97-.63 1.399-1.009L32.497 14.8Z" fill="#fff"/><path d="m28.259 42.762 1.259.6.252-1.035-1.511.435ZM26.469 43.167l1.259.6.251-1.035-1.51.435Z" fill="#FBE0D3"/><path d="M28.05 29.592s.36-1.895 0-3.502c-.36-1.607-2.393-2.11-2.393-2.11s-1.686-1.71-3.46.215c-1.966 2.135-1.28 3.167-3.357 5.301-1.942 1.996-2.698 5.522 2.371 5.252 4.439-.236 6.839-5.156 6.839-5.156Z" fill="#2C1B17"/><path d="M19.634 30.672s-.577 2.925-.529 5.276c.048 2.35.525 3.765.525 3.765s2.242-1.736 3.48-2.23c1.239-.494 1.75-3.166 1.75-3.166l-5.226-3.645Z" fill="#538DA3"/><path d="M22.27 27.817s-1.649-.048-2.335 1.104c-.686 1.15 0 5.9 0 5.9l.153-.073 8.25.792 1.35-2.914s-1.11-3.705-1.734-4.257c-.623-.551-1.774-.552-1.774-.552h-3.91Z" fill="#538DA3"/><path d="M25.264 24.855s1.42.18 1.6 1.476c.18 1.295-.288 2.788-1.33 3.4-1.044.61-1.584.017-1.98-.324-.395-.342-.899-1.008-.899-1.008s-.394.235-.638-.368c-.243-.603.027-.999.332-1.017.306-.018.306.27.306.27s1.583-.936 2.608-2.428Z" fill="#FBE0D3"/><path opacity=".37" d="M25.929 27.947s-.055.086.023.2c.078.114.051.183-.042.288-.093.105-.006.17.072.279.078.108-.088.288.016.39.104.101.41-.096.41-.096s-.093-.162-.075-.22c.017-.056.077-.197.03-.248-.049-.051-.102-.075-.049-.186a.304.304 0 0 0-.024-.29c-.039-.052-.03-.077-.03-.077l-.331-.04ZM23.782 27.94s-.13.093-.066.26c.066.169-.216.21-.198.396.018.186.132.306.048.45-.084.144.57.212.57.212s.09-.086.084-.26c-.006-.174-.138-.24-.048-.399.09-.159.253-.195.24-.344a1.292 1.292 0 0 0-.078-.315h-.552Z" fill="#ABCBE6"/><path d="M21.684 34.479s-.804.078-1.151.138c-.348.06-.444.13-.444.13s.972 2.184 1.619 2.304c.647.12-.024-2.572-.024-2.572Z" fill="#EACDC1"/><path d="M22.367 31.271s-.204-1.787.06-2.087c.264-.3 1.019-.515 1.451-.254.432.26.432.594.432.594s.152.144.216.36c.063.215-.045.413-.045.413s.129.26.065.467c-.065.207-.389.243-.389.243s-.045.27-.126.45c-.08.18-.404.459-.404.459s.192 2.952.024 4.2c-.168 1.247-1.212 1.33-1.943.935-.732-.395-.492-1.739-.288-2.47.203-.732.947-3.31.947-3.31ZM29.688 32.626l-1.62-2.014s-.467-1.466-.638-1.637c-.17-.171-1.07-.36-1.43-.072-.36.288-.18.737-.18.737s-.162.288-.162.512c0 .225.27.36.27.36s-.027.369.135.495c.162.125.28.193.28.193s.062.211.296.337c.233.126.521.135.521.135s.405 1.493.837 1.943c.431.45 2.05.09 1.69-.989Z" fill="#FBE0D3"/><path d="M26.901 33.31s1.579-1.548 2.707-.942c1.129.606 1.32 2.86 1.297 4.396-.024 1.535-.6 5.804-.6 5.804s-1.321.335-1.819.048c-.498-.288-1.585-9.306-1.585-9.306Z" fill="#527F91"/><path d="M28.26 42.762s-.109.6-.133.9c-.024.3.066.455.066.455s.677 1.092 1.589 1.56c.911.467 1.895.503 2.206.108.313-.396.169-.936 0-1.32-.168-.383-1.424-2.089-1.424-2.089s-.386-.352-.794-.049c-.407.303-.6.711-.6.711s-.813-.333-.91-.276Z" fill="#4D8596"/><path d="M19.63 39.713s.771 1.799 2.594 2.039c1.822.24 3.435-1.511 3.435-1.511l.81 2.926s.647.096 1.39-.096c.744-.192.914-.29.914-.29s-.41-6.39-.77-8.302c-.359-1.913-1.702-2.608-2.878-1.745-1.175.863-3.31 5.18-3.31 5.18l-2.184 1.8Z" fill="#6C99AF"/><path d="M23.974 40.24c-.574.835-1.593 1.308-2.745 1.194.288.152.618.268.994.318 1.823.24 3.436-1.511 3.436-1.511l-1-3.07s.058 1.99-.685 3.07Z" fill="#527F91"/><path d="M24.66 26.942s-.143.333-.917.441Z" fill="#7BB0CB"/><path d="M24.66 26.942s-.143.333-.917.441" stroke="#22120E" stroke-width=".178" stroke-miterlimit="10" stroke-linecap="round" stroke-linejoin="round"/><path d="M25.847 26.987s.232.482.62.495Z" fill="#7BB0CB"/><path d="M25.847 26.987s.232.482.62.495" stroke="#22120E" stroke-width=".178" stroke-miterlimit="10" stroke-linecap="round" stroke-linejoin="round"/><path d="M24.697 27.77s-.216.35-.954.161M25.722 27.841s.314.234.611.108" stroke="#22120E" stroke-width=".089" stroke-miterlimit="10" stroke-linecap="round" stroke-linejoin="round"/><path d="M24.507 29.31c.024-.012.526-.228.8 0" stroke="#22120E" stroke-width=".044" stroke-miterlimit="10" stroke-linecap="round" stroke-linejoin="round"/><path d="M24.31 29.523s-.001-.054-.03-.135c-.224-.113-.606-.078-.606-.078s.102.03.29.066a.996.996 0 0 1 .345.147ZM23.865 30.054s.162.018.336.084c.174.065.279.159.279.159s.034-.065.053-.16a1.559 1.559 0 0 0-.122-.083c-.203-.126-.546 0-.546 0ZM24.482 30.863a.498.498 0 0 1-.26-.159c-.09-.116-.15-.33-.15-.33s-.024.169.036.324c.06.156.048.31.048.31s.21-.026.326-.145ZM26.342 31.201s.035.117.15.23c-.002-.164.097-.328.1-.507.007-.27-.25-.426-.25-.426s.125.216.07.407c-.052.192-.07.296-.07.296ZM25.818 30.437c.059.048.11.075.11.075s.007-.125.105-.254c.1-.13.22-.263.22-.263s-.333.114-.435.442ZM26.31 29.244s-.339.05-.533.174a.773.773 0 0 0 .044.222s.117-.14.228-.228c.11-.087.26-.168.26-.168Z" fill="#EACDC1"/><path d="M22.63 28.075s-.08-.655-.407-.54" stroke="#EACDC1" stroke-width=".044" stroke-miterlimit="10" stroke-linecap="round" stroke-linejoin="round"/><path d="M31.8 45.694c-.558.27-1.32.072-2.137-.414-.573-.34-1.206-1.153-1.535-1.613-.023.296.066.45.066.45s.677 1.091 1.589 1.56c.911.467 1.894.503 2.206.107a.846.846 0 0 0 .17-.392c-.086.173-.18.216-.359.302Z" fill="#FBDFE2"/><path d="M26.467 43.167s-.108.6-.132.9c-.024.3.066.455.066.455s.677 1.09 1.589 1.559c.911.467 1.895.503 2.207.108.312-.396.168-.936 0-1.32-.168-.383-1.425-2.088-1.425-2.088s-.386-.353-.794-.05c-.407.304-.6.712-.6.712s-.813-.333-.91-.276Z" fill="#538DA3"/><path d="M30.008 46.099c-.558.27-1.32.072-2.137-.414-.573-.34-1.206-1.154-1.535-1.613-.023.295.066.45.066.45s.677 1.09 1.589 1.559c.911.467 1.894.503 2.206.108a.846.846 0 0 0 .17-.393c-.086.174-.18.216-.359.303Z" fill="#FBDFE2"/><path d="M25.096 28.784c0-.006.063-.007.164-.003.025.002.05 0 .057-.016.009-.017.003-.046-.005-.077l-.042-.202c-.058-.289-.095-.524-.084-.527.012-.002.068.23.126.519l.04.203c.004.03.015.065-.004.1a.064.064 0 0 1-.047.03c-.017.003-.031 0-.043 0a.64.64 0 0 1-.162-.027Z" fill="#22120E"/><g opacity=".42" fill="#CEE7F3"><path d="M15.848 10.06a1.22 1.22 0 0 0-1.57-1.168 2.583 2.583 0 0 0-3.032-2.913A2.256 2.256 0 0 0 7.06 7.12l-.038-.001a2.08 2.08 0 1 0 0 4.161h7.642l-.002-.001a1.22 1.22 0 0 0 1.186-1.219ZM13.024 13.069c.499-.173-.546-1.246-.546-1.246s.047 1.418.546 1.246ZM13.375 13.865s.048 1.418.547 1.246c.499-.173-.547-1.246-.547-1.246ZM14.27 15.906s.049 1.418.547 1.246c.499-.172-.546-1.246-.546-1.246ZM11.37 13.082c.499-.173-.547-1.246-.547-1.246s.048 1.418.547 1.246ZM11.719 13.877s.048 1.418.546 1.246c.5-.172-.546-1.246-.546-1.246ZM12.614 15.92s.048 1.417.547 1.245c.499-.173-.547-1.246-.547-1.246ZM9.714 13.094c.498-.172-.547-1.246-.547-1.246s.048 1.419.547 1.246ZM10.063 13.89s.047 1.418.546 1.246c.5-.173-.546-1.246-.546-1.246ZM10.959 15.931s.048 1.419.547 1.246c.499-.172-.547-1.245-.547-1.245ZM7.512 11.861s.048 1.419.546 1.246c.5-.173-.546-1.246-.546-1.246ZM8.41 13.903s.047 1.418.546 1.245c.499-.172-.547-1.245-.547-1.245ZM9.304 15.944s.048 1.419.546 1.246c.499-.173-.546-1.246-.546-1.246Z"/><path d="M13.024 13.069c.499-.173-.546-1.246-.546-1.246s.047 1.418.546 1.246ZM13.375 13.865s.048 1.418.547 1.246c.499-.173-.547-1.246-.547-1.246ZM14.27 15.906s.049 1.418.547 1.246c.499-.172-.546-1.246-.546-1.246ZM11.37 13.082c.499-.173-.547-1.246-.547-1.246s.048 1.418.547 1.246ZM11.719 13.877s.048 1.418.546 1.246c.5-.172-.546-1.246-.546-1.246ZM12.614 15.92s.048 1.417.547 1.245c.499-.173-.547-1.246-.547-1.246ZM9.714 13.094c.498-.172-.547-1.246-.547-1.246s.048 1.419.547 1.246ZM10.063 13.89s.047 1.418.546 1.246c.5-.173-.546-1.246-.546-1.246ZM10.959 15.931s.048 1.419.547 1.246c.499-.172-.547-1.245-.547-1.245ZM7.512 11.861s.048 1.419.546 1.246c.5-.173-.546-1.246-.546-1.246ZM8.41 13.903s.047 1.418.546 1.245c.499-.172-.547-1.245-.547-1.245ZM9.304 15.944s.048 1.419.546 1.246c.499-.173-.546-1.246-.546-1.246Z"/></g><path d="M30.847 24.907a.125.125 0 0 1-.068.076c-.09.04-.178-.036-.253-.116a3.29 3.29 0 0 1-.251-.317 26.563 26.563 0 0 1-.64-.955c-.174-.27-.34-.524-.482-.729l.009.016c.14.254.321.566.514.895.213.365.434.743.593 1.039.267.497.265.584.234.648a.114.114 0 0 1-.09.063c-.148.017-.324-.212-1.107-1.444-.202-.318-.41-.647-.581-.896a6.375 6.375 0 0 0-.16-.224c.029.058.065.129.111.215.135.25.32.567.5.873.2.344.408.698.555.977.225.428.243.552.196.63a.126.126 0 0 1-.118.06c-.096-.004-.212-.085-.464-.467-.167-.253-.36-.586-.545-.907-.162-.28-.314-.543-.445-.749a2.773 2.773 0 0 0-.198-.279c.018.068.06.181.151.368.12.245.286.535.445.815.41.72.508.915.445 1.024a.12.12 0 0 1-.104.06c-.173.001-.383-.286-.82-.975-.062-.098-.13-.207-.192-.3l.03.083c.057.15.13.308.168.368a.094.094 0 1 1-.158.103 2.722 2.722 0 0 1-.2-.443c-.127-.343-.1-.417-.06-.463.026-.032.078-.056.142-.03.079.034.175.178.43.58.126.199.268.424.395.598.052.072.095.126.13.167a3.5 3.5 0 0 0-.058-.117 18.081 18.081 0 0 0-.312-.562c-.167-.294-.341-.599-.465-.855-.165-.344-.204-.517-.137-.618a.13.13 0 0 1 .116-.06c.083.003.174.069.387.397.14.215.302.495.474.793.178.31.363.629.523.874.106.162.18.26.233.319a4.017 4.017 0 0 0-.181-.373c-.143-.267-.338-.6-.526-.921-.702-1.198-.807-1.429-.7-1.542a.118.118 0 0 1 .099-.036c.08.008.175.086.443.474.178.257.398.604.61.938.207.325.42.66.596.917.056.081.104.148.144.203a7.046 7.046 0 0 0-.128-.243 39.295 39.295 0 0 0-.565-.986c-.204-.35-.397-.68-.54-.944-.239-.44-.24-.516-.217-.575a.11.11 0 0 1 .072-.066c.134-.038.26.12.966 1.204.203.312.413.635.589.884.097.137.169.231.222.295a4.51 4.51 0 0 0-.12-.24c-.118-.222-.28-.497-.437-.763-.165-.28-.335-.57-.451-.793-.17-.323-.2-.451-.128-.525a.12.12 0 0 1 .101-.036c.134.013.303.253.715.884.126.192.255.39.364.542.053.074.095.127.127.165a1.737 1.737 0 0 0-.07-.172c-.07-.153-.164-.325-.246-.477-.053-.097-.099-.182-.13-.246a.794.794 0 0 1-.038-.087c-.03-.086.009-.127.034-.143.105-.07.235.04.41.24.117.131.22.269.224.275a.094.094 0 1 1-.151.112c-.001 0-.073-.098-.163-.204.255.472.384.745.335.888a.148.148 0 0 1-.05.07.124.124 0 0 1-.098.024c-.066-.011-.143-.067-.32-.31a14.932 14.932 0 0 1-.386-.573 16.353 16.353 0 0 0-.408-.602l.076.146c.113.21.267.472.417.726.164.28.334.567.456.798.183.347.205.462.181.536v.002Z" fill="#538DA3" opacity=".49"/><path d="M30.807 24.78a.076.076 0 0 1-.01.021.05.05 0 0 1-.046.025c-.124-.004-.383-.438-.795-1.15-.355-.615-.759-1.313-.92-1.32-.013 0-.017.004-.02.008-.019.03.001.146.2.523.145.276.352.63.552.972.195.333.397.677.535.939.206.391.204.476.175.506a.037.037 0 0 1-.032.012c-.12-.012-.455-.527-.993-1.375a31.76 31.76 0 0 0-.632-.97c-.249-.358-.34-.43-.37-.425-.003 0-.005.001-.006.003-.013.028.016.146.232.548.158.295.379.671.592 1.036.489.837.784 1.354.752 1.448a.027.027 0 0 1-.02.019c-.035.01-.1-.025-.33-.35-.154-.218-.345-.511-.546-.822-.222-.34-.45-.692-.637-.95-.267-.371-.348-.409-.372-.398-.003.001-.007.004-.01.012-.037.116.316.716.628 1.245.164.28.334.568.45.79.173.33.169.404.141.431a.043.043 0 0 1-.036.013c-.1-.01-.325-.343-.656-.849-.25-.383-.535-.818-.632-.835-.008-.002-.011 0-.013.002-.093.071.174.563.333.857.157.29.188.354.16.372-.03.02-.092.018-.306-.226a4.869 4.869 0 0 1-.22-.27.014.014 0 1 1 .023-.017c.001.001.105.14.218.269.19.216.25.228.266.222-.001-.033-.085-.187-.166-.336-.24-.443-.43-.815-.326-.894a.045.045 0 0 1 .035-.007c.11.018.374.421.652.848.253.387.54.826.636.835.005 0 .009 0 .012-.004.015-.015.016-.088-.146-.399-.115-.22-.285-.509-.45-.788-.345-.586-.67-1.14-.63-1.268a.044.044 0 0 1 .025-.03c.117-.05.472.48 1.044 1.36.201.31.392.602.546.82.227.319.285.343.3.339 0 0 .015-.015-.036-.136a4.042 4.042 0 0 0-.162-.327c-.143-.265-.342-.604-.551-.963-.53-.908-.874-1.51-.824-1.61a.034.034 0 0 1 .027-.02c.117-.014.467.522 1.03 1.408.402.633.858 1.35.972 1.362.005 0 .007-.001.009-.003.016-.018.015-.103-.18-.474-.138-.261-.34-.605-.534-.938-.497-.849-.819-1.414-.752-1.524.006-.01.02-.023.045-.022.177.008.55.653.943 1.335.322.556.654 1.132.772 1.136.005 0 .013-.001.02-.012.091-.136-.295-.814-.606-1.36-.305-.534-.49-.866-.445-.944.005-.008.015-.019.035-.019.156-.001.472.498.752.938.167.265.325.515.38.538.013.006.016.002.017 0 .05-.057-.163-.614-.268-.776a.014.014 0 0 1 .024-.016c.085.131.336.727.266.811-.007.008-.022.02-.05.007-.06-.026-.188-.225-.393-.549-.248-.39-.586-.926-.727-.924-.007 0-.009.003-.01.005-.012.02-.002.089.11.31.084.167.205.38.334.606.333.586.677 1.19.615 1.37Z" fill="#EBEBEB"/><g opacity=".42" fill="#CEE7F3"><path d="M42.17 13.974a1.428 1.428 0 0 0-1.84-1.368 3.025 3.025 0 0 0-3.55-3.412 2.643 2.643 0 0 0-4.902 1.337l-.044-.002a2.437 2.437 0 0 0 0 4.874h8.948l-.001-.003a1.427 1.427 0 0 0 1.389-1.426ZM38.867 17.497c.584-.202-.64-1.458-.64-1.458s.056 1.66.64 1.458ZM39.274 18.43s.057 1.66.64 1.458c.585-.202-.64-1.459-.64-1.459ZM40.324 20.82s.056 1.66.64 1.459c.585-.203-.64-1.459-.64-1.459ZM36.927 17.512c.584-.202-.64-1.459-.64-1.459s.056 1.661.64 1.459ZM37.337 18.444s.056 1.66.64 1.459c.584-.202-.64-1.46-.64-1.46ZM38.386 20.835s.056 1.661.64 1.459c.584-.203-.64-1.459-.64-1.459ZM34.99 17.527c.583-.202-.641-1.459-.641-1.459s.056 1.661.64 1.459ZM35.398 18.46s.056 1.66.64 1.458c.584-.202-.64-1.459-.64-1.459ZM36.447 20.85s.056 1.66.64 1.458c.585-.202-.64-1.458-.64-1.458ZM32.411 16.083s.056 1.66.64 1.459c.585-.202-.64-1.459-.64-1.459ZM33.459 18.474s.056 1.66.64 1.458c.584-.201-.64-1.458-.64-1.458ZM34.509 20.865s.056 1.66.64 1.459c.585-.203-.64-1.46-.64-1.46Z"/><path d="M38.867 17.497c.584-.202-.64-1.458-.64-1.458s.056 1.66.64 1.458ZM39.274 18.43s.057 1.66.64 1.458c.585-.202-.64-1.459-.64-1.459ZM40.324 20.82s.056 1.66.64 1.459c.585-.203-.64-1.459-.64-1.459ZM36.927 17.512c.584-.202-.64-1.459-.64-1.459s.056 1.661.64 1.459ZM37.337 18.444s.056 1.66.64 1.459c.584-.202-.64-1.46-.64-1.46ZM38.386 20.835s.056 1.661.64 1.459c.584-.203-.64-1.459-.64-1.459ZM34.99 17.527c.583-.202-.641-1.459-.641-1.459s.056 1.661.64 1.459ZM35.398 18.46s.056 1.66.64 1.458c.584-.202-.64-1.459-.64-1.459ZM36.447 20.85s.056 1.66.64 1.458c.585-.202-.64-1.458-.64-1.458ZM32.411 16.083s.056 1.66.64 1.459c.585-.202-.64-1.459-.64-1.459ZM33.459 18.474s.056 1.66.64 1.458c.584-.201-.64-1.458-.64-1.458ZM34.509 20.865s.056 1.66.64 1.459c.585-.203-.64-1.46-.64-1.46Z"/></g></g><defs><clipPath id="a"><rect width="48" height="48" rx="24" fill="#fff"/></clipPath></defs></svg>