<svg width="48" height="48" fill="none" xmlns="http://www.w3.org/2000/svg"><g clip-path="url(#a)"><rect width="48" height="48" rx="24" fill="#fff"/><g clip-path="url(#b)"><g clip-path="url(#c)"><path d="M35.163 11.84H30.23v1.306h4.933v-1.305Z" fill="#C3DAE4" opacity=".38"/><path d="M35.072 25.5H30.14v1.305h4.933V25.5Z" fill="#F5F5F5"/><path d="M44.327 19.457h-4.933v1.306h4.933v-1.306ZM18.843 5.809h-4.934v1.305h4.934V5.81ZM33.077 14.52l-.001-.023c0-.017 0-.04-.002-.067l-.003-.257-.009-.957.015.015-4.933.01c.01-.012-.026.024.025-.025v.663l-.001.642-.024-.025 3.516.012 1.037.007.28.003.074.002h.026c0 .001-.007.002-.022.003-.019 0-.042 0-.07.002l-.276.003-1.032.007-3.533.01h-.024V13.217c.05-.05.013-.014.024-.025l4.934.01h.016v.015l-.009.966-.003.254-.002.064c-.002.014-.002.021-.003.02Z" fill="#C3DAE4" opacity=".38"/><g opacity=".69" fill="#E0E0E0"><path d="M-.065 37.479a5.433 5.433 0 0 1-.055-3.035c.107-.39.287-.801.648-.984.03-.016.067-.03.099-.018.03.012.048.043.063.073.128.268.165.573.152.87-.013.298-.075.59-.136.882-.114.538-.175 1.117-.47 1.581-.07.11-.132.23-.188.348-.056.118-.057.16-.108.253M3.7 38.04c-.28-1.061.016-2.347.685-3.217.05-.064.115-.133.195-.126.123.012.155.176.15.3A5.812 5.812 0 0 1 3.7 38.04ZM4.038 38.272c1.289.335 2.768.009 3.84-.781a3.111 3.111 0 0 0-2.079-.255c-.694.158-1.329.47-1.76 1.036ZM4.325 37.565c.722-1.176 2.106-1.944 3.485-2.015-.159.561-.62.997-1.14 1.26-.52.264-1.1.378-1.672.49-.223.043-.528.09-.673.265ZM3.771 34.137c.196-.67.392-1.345.446-2.04.054-.696-.045-1.422-.407-2.02-.674 1.306-.742 2.83-.06 4.13M6.041 32.99c.788-1.433 2.397-2.578 4.025-2.738-.628 1.564-2.34 2.772-4.025 2.738ZM5.545 33.271c1.176.18 2.178.93 3.277 1.386.235.097.488.175.74.141.253-.033.502-.202.559-.45.047-.206-.047-.424-.195-.575-.148-.152-.343-.246-.538-.327-1.197-.498-2.48-.51-3.742-.208"/><path d="M4.864 34.096c.266.076.358.214.568.393a6.129 6.129 0 0 0 2.485 1.277c.095.023.22.033.267-.053.04-.075-.011-.166-.065-.233-.382-.478-.927-.804-1.5-1.018-.573-.214-1.07-.471-1.755-.416M4.097 29.114a4.704 4.704 0 0 0 3.605 1.227c.06-.006.124-.015.164-.06.09-.098-.018-.25-.124-.332-1.06-.827-2.344-1.17-3.645-.835Z"/><path d="M5.007 28.78a5.025 5.025 0 0 1 4.499-.741c-.567.558-1.353.858-2.144.941-.791.082-1.584-.005-2.355-.2ZM4.646 26.492c-.104-1.058-.037-1.893-.11-2.956-.006-.085-.024-.187-.104-.218-.11-.043-.202.093-.239.206a3.39 3.39 0 0 0 .451 2.945"/><path d="M4.568 26.609c.718-.444 1.255-1.023 1.753-1.704.346-.474.638-1.04.559-1.622-.486-.01-.948.258-1.265.628-.316.37-.504.831-.644 1.296-.14.466-.238.944-.403 1.402ZM6.29 26.13a14.137 14.137 0 0 0 4.314-2.543c-.515-.207-1.105-.083-1.62.125-1.177.475-2.138 1.276-2.715 2.407M5.053 27.188c.796.087 1.605.143 2.395.011.776-.13 1.51-.437 2.236-.743.06-.025.126-.056.152-.115.028-.065-.002-.144-.055-.191a.46.46 0 0 0-.19-.09c-.79-.22-1.64-.117-2.417.145-.776.261-1.412.572-2.121.983ZM.506 29.15c-.543-1.096-.508-2.376-.038-3.506.33.504.37 1.144.31 1.743-.06.6-.243 1.216-.255 1.817M1.848 24.783c.192-.448.328-.917.5-1.373.173-.455.387-.903.713-1.265.327-.362.778-.63 1.264-.655a5.09 5.09 0 0 1-2.452 3.3M1.34 25.374c-.319-.438-.686-1.033-1.118-1.36-.432-.327-.995-.526-1.522-.4a3.543 3.543 0 0 0 2.64 1.76ZM1.442 24.82c-.21-.531-.42-1.067-.504-1.631-.084-.564-.033-1.166.255-1.658.56 1.059.74 2.196.277 3.3M1.853 21.531c.317-1.05 1.278-1.822 2.316-2.177a.865.865 0 0 1 .406-.061c.136.02.27.115.299.25.038.178-.11.338-.249.457a7.87 7.87 0 0 1-2.772 1.531ZM1.864 20.673c.04-.677.083-1.364.303-2.004.22-.642.644-1.243 1.262-1.524.104.683-.197 1.364-.56 1.952-.364.588-.803 1.143-1.021 1.8M1.847 21.139c-.262-.765-.29-1.737-.747-2.403-.32-.466-.833-.784-1.11-1.277-.182.461-.126.992.065 1.45.192.457.509.85.848 1.213.339.362.63.634.944 1.017Z"/><path d="M1.852 43.667c-.02 0-.038-5.103-.04-11.397 0-6.296.014-11.398.035-11.398.02 0 .038 5.102.04 11.398.001 6.294-.014 11.397-.035 11.397Z"/><path d="M6.312 28.38c.001.005-.067.03-.192.072l-.528.179c-.446.151-1.057.37-1.72.643-.658.282-1.278.51-1.631.817a1.195 1.195 0 0 0-.328.433c-.05.12-.06.193-.066.192-.002 0-.002-.019.002-.053a.82.82 0 0 1 .038-.15c.043-.125.141-.3.32-.461.177-.162.424-.307.706-.44a21.389 21.389 0 0 1 2.662-1.032c.225-.07.409-.12.536-.155.128-.033.2-.05.2-.045Z"/><path d="M7.774 24.79a.307.307 0 0 1-.054.057l-.163.154-.612.555-2.034 1.812a31.214 31.214 0 0 0-1.957 1.891c-.238.254-.425.465-.553.612l-.148.169a.319.319 0 0 1-.056.056.29.29 0 0 1 .044-.066c.031-.04.076-.102.137-.178.122-.152.304-.368.538-.628.467-.52 1.15-1.203 1.945-1.91.797-.706 1.522-1.34 2.05-1.796l.626-.538.173-.143a.327.327 0 0 1 .064-.047Z"/><path d="M4.053 28.087c-.021-.01.144-.392.31-.877.166-.484.245-.893.266-.89.02.002-.027.423-.196.914-.084.245-.175.46-.248.613-.072.153-.124.244-.132.24ZM1.857 31.176a.896.896 0 0 1-.122-.143l-.314-.402c-.263-.34-.627-.81-1.035-1.324-.409-.514-.784-.976-1.055-1.31l-.32-.396a.94.94 0 0 1-.111-.152.92.92 0 0 1 .132.133c.082.089.197.22.339.382a40.641 40.641 0 0 1 2.387 3.053c.067.099.103.155.099.159Z"/><path d="M.88 29.92c-.012.013-.273-.296-.41-.766a2.189 2.189 0 0 1-.093-.773l.032.002c-.014.06-.025.09-.03.09-.006-.001-.007-.034-.002-.095l.032.003c.012.137.033.43.131.752.133.455.36.775.34.788ZM1.847 26.32c-.02.005-.162-.492-.32-1.11-.156-.618-.267-1.123-.247-1.128.02-.005.162.492.32 1.11.156.618.267 1.123.247 1.128Z"/><path d="M1.867 26.32c-.022.007-.114-.325-.354-.665-.234-.346-.533-.52-.521-.537.004-.008.086.022.2.103.116.08.259.216.381.392.25.354.312.706.294.707ZM1.852 40.946c-.008.002-.023-.122-.08-.34a4.85 4.85 0 0 0-.341-.883c-.353-.72-.995-1.634-1.81-2.549-.404-.461-.796-.897-1.128-1.314a9.213 9.213 0 0 1-.807-1.164c-.2-.35-.331-.651-.408-.863a3.631 3.631 0 0 1-.08-.247.407.407 0 0 1-.02-.088c.006-.002.043.117.127.325.084.208.22.503.426.847.204.345.48.736.814 1.148.334.412.727.845 1.131 1.308.818.917 1.458 1.842 1.801 2.574.173.366.274.68.322.9.024.11.04.196.045.255.008.06.01.09.008.091Z"/><path d="M5.882 36.395c.002.005-.074.044-.21.118a4.614 4.614 0 0 0-.549.363c-.22.168-.467.39-.72.656-.252.266-.512.576-.778.908-.53.666-1.027 1.255-1.324 1.726a7.07 7.07 0 0 0-.333.568c-.072.137-.11.215-.116.212a.208.208 0 0 1 .02-.06c.015-.038.036-.095.07-.165.065-.143.168-.345.315-.583.288-.482.781-1.08 1.311-1.744.266-.333.53-.643.787-.91a5.89 5.89 0 0 1 .737-.65 3.86 3.86 0 0 1 .566-.347c.07-.035.127-.056.165-.072.038-.016.058-.023.06-.02Z"/><path d="M5.962 37.871c0 .01-.171.032-.447.065-.275.036-.657.081-1.058.209-.4.13-.732.328-.948.497-.219.169-.322.308-.332.3-.003-.002.018-.04.066-.102.048-.063.126-.147.233-.239.213-.183.548-.393.958-.527.41-.13.799-.167 1.076-.19.278-.02.45-.022.452-.013Z"/><path d="M3.307 38.78c-.024-.013.177-.32.333-.734.147-.417.181-.782.207-.779.01.002.01.093-.007.24-.017.146-.053.35-.13.565a2.7 2.7 0 0 1-.26.517c-.079.124-.135.196-.143.191ZM7.187 32.43a.325.325 0 0 1-.071.038l-.21.096c-.092.04-.204.089-.329.155-.126.065-.273.132-.427.224l-.243.139c-.085.048-.168.106-.257.162-.18.108-.36.243-.552.38-.375.284-.77.622-1.15 1.012-.377.393-.7.8-.973 1.184-.13.197-.258.381-.36.564-.053.091-.108.177-.154.263l-.13.248c-.086.156-.149.305-.21.433-.06.128-.107.241-.144.335l-.088.213a.332.332 0 0 1-.035.072.336.336 0 0 1 .021-.077l.076-.219c.032-.095.074-.21.133-.34.057-.13.117-.282.2-.44l.127-.253c.045-.087.099-.174.15-.266.102-.186.228-.373.358-.572.271-.39.596-.801.976-1.197a9.87 9.87 0 0 1 1.163-1.016c.195-.136.377-.27.56-.377.09-.055.175-.111.26-.159l.248-.135c.155-.09.305-.154.434-.216.128-.063.241-.109.335-.145l.216-.082a.359.359 0 0 1 .076-.024Z"/><path d="M3.998 34.567c-.007 0 .029-.125.175-.261.143-.136.404-.262.707-.271.302-.008.564.076.744.145.18.07.285.128.28.136-.003.01-.115-.03-.297-.087a2.249 2.249 0 0 0-.724-.121 1.152 1.152 0 0 0-.675.237c-.147.118-.199.23-.21.222ZM3.521 35.06c-.02-.012.16-.276.2-.654.048-.377-.067-.675-.044-.681.008-.004.048.066.082.19a1.35 1.35 0 0 1-.113.978c-.063.113-.118.171-.125.166Z"/></g><path d="M-1.322 42.156c.11 1.95.698 3.934 1.602 5.94h3.93c.862-1.986 1.41-3.967 1.506-5.94h-7.038Z" fill="#E0E0E0" opacity=".69"/><path d="M4.73 44.833c0 .02-1.295.037-2.891.037-1.597 0-2.89-.016-2.89-.037 0-.02 1.293-.037 2.89-.037 1.596 0 2.89.017 2.89.037ZM4.641 45.54c0 .02-1.213.037-2.71.037-1.496 0-2.71-.017-2.71-.037 0-.02 1.214-.037 2.71-.037 1.497 0 2.71.016 2.71.037ZM-.008 42.958c.02 0 .037.405.037.905s-.017.905-.037.905c-.02 0-.037-.405-.037-.905s.017-.905.037-.905Z" fill="#FBFBFB" opacity=".69"/><path d="M5.241 42.958c0 .02-1.517.037-3.39.037-1.873 0-3.39-.017-3.39-.037 0-.02 1.518-.037 3.39-.037s3.39.016 3.39.037Z" fill="#FBFBFB" opacity=".69"/><path d="M24.903 48.731c11.03 0 19.973-.522 19.973-1.166 0-.644-8.942-1.166-19.973-1.166-11.03 0-19.972.522-19.972 1.166 0 .644 8.942 1.166 19.972 1.166Z" fill="#F5F5F5"/><path d="M14.095 17.423c2.788-.476 4.778-2.446 4.444-4.4-.333-1.955-2.864-3.154-5.652-2.678-2.788.476-4.778 2.447-4.444 4.401.334 1.955 2.864 3.153 5.652 2.677Z" fill="#436EB6"/><path d="M14.095 17.423c2.788-.476 4.778-2.446 4.444-4.4-.333-1.955-2.864-3.154-5.652-2.678-2.788.476-4.778 2.447-4.444 4.401.334 1.955 2.864 3.153 5.652 2.677Z" fill="#C3DAE4"/><path d="M22.608 13.994c.305.638-.186 1.508-1.095 1.943-.91.434-1.895.27-2.2-.368-.305-.638.186-1.508 1.096-1.942.91-.435 1.895-.27 2.2.367Z" fill="#436EB6"/><path d="M22.608 13.994c.305.638-.186 1.508-1.095 1.943-.91.434-1.895.27-2.2-.368-.305-.638.186-1.508 1.096-1.942.91-.435 1.895-.27 2.2.367Z" fill="#C3DAE4"/><path d="M24.24 16.516c.089.383-.282.795-.828.92-.546.127-1.06-.082-1.148-.465-.088-.383.283-.795.829-.92.546-.126 1.06.083 1.148.465Z" fill="#436EB6"/><path d="M24.24 16.516c.089.383-.282.795-.828.92-.546.127-1.06-.082-1.148-.465-.088-.383.283-.795.829-.92.546-.126 1.06.083 1.148.465Z" fill="#C3DAE4"/><path d="M12.525 16.851c-.064 0-.127-.003-.19-.008-.224-.02-.39-.08-.507-.182a.5.5 0 0 1-.162-.286 7.806 7.806 0 0 1-.349-.015c-.258-.015-.525-.044-.712-.216a.587.587 0 0 1-.184-.409c-.204-.063-.399-.19-.485-.404a.65.65 0 0 1 .034-.53 1.373 1.373 0 0 1-.57-1.152.235.235 0 0 1-.117-.117c-.041-.101.011-.22.148-.332l.087-.069c.162-.357.482-.636.86-.745.308-.088.631-.063.944-.04l.016.002c.238-.045.471-.072.691-.085.13-.03.264-.04.396-.03a.81.81 0 0 0 .332-.279c.043-.064.075-.134.109-.208.034-.074.068-.15.115-.22.19-.287.563-.451 1.106-.487.646-.042 1.168.07 1.553.33.153.105.277.232.365.37.2.006.397.053.569.103.26.075.867.304.865.801-.001.165-.074.316-.14.449l-.215.442a.702.702 0 0 1 .013.171c.04.017.081.037.12.059.174.1.356.288.341.516-.009.149-.098.292-.272.435-.218.18-.463.305-.724.398a3.1 3.1 0 0 1-.289.454c-.21.276-.563.633-1.042.761a1.27 1.27 0 0 1-.907-.087 3.547 3.547 0 0 1-.267.16c-.547.299-1.062.45-1.532.45Zm-.766-.475a.407.407 0 0 0 .128.217c.102.089.251.14.456.16.502.045 1.064-.1 1.672-.432.07-.038.146-.082.223-.131a.964.964 0 0 1-.224-.199.344.344 0 0 1-.075-.138c-.134.02-.27.036-.407.048a2.647 2.647 0 0 1-.665.206 1.517 1.517 0 0 1-.344.164c-.247.08-.502.104-.764.105Zm.16-.318a.308.308 0 0 0-.136.125.25.25 0 0 0-.03.103c.256 0 .505-.023.742-.101.043-.014.086-.03.13-.05a1.976 1.976 0 0 1-.705-.077Zm-1.405-.299c.01.104.048.223.152.319.165.152.415.178.656.193.114.006.228.012.34.014a.344.344 0 0 1 .042-.145.376.376 0 0 1 .105-.12 1.815 1.815 0 0 1-.118-.05.207.207 0 0 1-.145.152.305.305 0 0 1-.273-.044c-.107-.081-.155-.21-.187-.333a1.3 1.3 0 0 1-.572.014Zm3.896.423c.235.108.523.134.8.059.454-.123.79-.464.993-.729a3.02 3.02 0 0 0 .235-.357c-.12.037-.24.068-.364.096-.139.126-.337.224-.6.296a4.326 4.326 0 0 1-.595.117 1.495 1.495 0 0 1-.469.518Zm-.382-.344a.27.27 0 0 0 .056.096c.066.08.146.147.236.2.138-.096.274-.212.378-.354.025-.033.047-.067.068-.102l-.194.018a3.289 3.289 0 0 1-.544.142Zm-2.854-.119c.028.11.069.222.155.288.05.038.127.05.19.03.03-.01.069-.032.082-.079a.182.182 0 0 0 .005-.03 1.657 1.657 0 0 1-.336-.247c-.031.014-.063.027-.096.038Zm.914.284a2.1 2.1 0 0 0 .755.012c.035-.024.07-.05.103-.077-.01 0-.021 0-.032.002-.224.01-.457.022-.68.043-.048.005-.097.01-.146.02Zm1-.072-.048.044c.062-.015.123-.032.183-.052l-.136.008Zm-1.388-.06c.07.035.144.064.219.088.097-.04.207-.057.306-.066.225-.022.459-.033.684-.044l.139-.007c.039-.041.074-.085.106-.133a10.673 10.673 0 0 0-1.305.034c-.056.006-.11.016-.132.05-.014.02-.016.046-.017.078Zm1.56-.16a1.014 1.014 0 0 1-.087.124c.111-.006.223-.013.333-.022a2.41 2.41 0 0 0 .184-.094 39.218 39.218 0 0 1-.43-.008Zm-1.906-.075.048.042c.067.056.137.105.21.147a.188.188 0 0 1 .03-.083c.043-.065.12-.081.197-.09a11.01 11.01 0 0 1 1.368-.032.86.86 0 0 0 .053-.127 1.232 1.232 0 0 1-.297.054 4.804 4.804 0 0 1-1.39-.079c-.065.063-.138.12-.219.168Zm2.509.084a2.312 2.312 0 0 1-.11.068l.186-.027a.244.244 0 0 1 .014-.042h-.09Zm.2-.002a.195.195 0 0 0-.018.025l.132-.027a4.283 4.283 0 0 1-.113.002Zm-3.552-.051a1.212 1.212 0 0 0 .555-.009 5.164 5.164 0 0 1-.061-.317 1.138 1.138 0 0 1-.019-.032 4.77 4.77 0 0 1-.296-.112.882.882 0 0 0-.178.453v.017Zm-.468-.813a.553.553 0 0 0-.023.443c.07.177.23.286.402.344a.959.959 0 0 1 .182-.482 5.273 5.273 0 0 1-.133-.06 2.936 2.936 0 0 1-.428-.245Zm1.087.672.023.105a1.03 1.03 0 0 0 .05-.02 1.688 1.688 0 0 1-.073-.085Zm2.177.096c.175.003.352.007.53.007.183-.121.352-.26.508-.411a1.89 1.89 0 0 1-.693-.277c-.014.18-.083.361-.24.475a.66.66 0 0 1-.044.028.945.945 0 0 1-.061.178Zm1.151-.388a3.811 3.811 0 0 1-.462.394h.03a.584.584 0 0 1 .204-.105 5.48 5.48 0 0 1 .69-.164c.025-.063.05-.13.073-.197a1.029 1.029 0 0 1-.535.072Zm.421.225a5.152 5.152 0 0 0-.664.165c.113-.003.226-.008.338-.017.112-.04.221-.09.326-.147v-.001Zm-3.76-.107c.05.078.106.151.169.217.064-.035.122-.078.177-.124a4.639 4.639 0 0 1-.345-.093Zm3.83.171-.02.044c.176-.025.35-.06.522-.107.164-.045.302-.1.412-.166-.166.031-.334.057-.5.084-.082.013-.164.025-.246.04a1.522 1.522 0 0 1-.168.106Zm-3.3-.131c.428.082.868.105 1.306.066a.99.99 0 0 0 .334-.074c.026-.141.019-.286.01-.438a5.654 5.654 0 0 1-.006-.148c-.08.071-.168.13-.263.174-.308.14-.646.114-.956-.016a1.08 1.08 0 0 1-.111-.02l-.036.062c-.067.117-.159.261-.278.394Zm-.567-.147c.151.05.306.091.463.125.133-.135.232-.293.305-.418l.024-.043a1.087 1.087 0 0 1-.287-.152 2.068 2.068 0 0 0-.54.159c.007.114.02.224.034.33Zm4.018-.114-.014.04a8.47 8.47 0 0 1-.062.17l.056-.009c.059-.044.129-.104.19-.177a3.727 3.727 0 0 1-.17-.024Zm-1.718-.424v.033c0 .067.004.134.008.2.006.125.013.252 0 .378.126-.11.172-.285.174-.445a.931.931 0 0 1-.166-.183l-.016.018Zm1.993.458a.953.953 0 0 1-.12.139l.094-.015c.232-.037.46-.073.68-.12l.017-.018c-.1.02-.21.029-.333.03-.112-.001-.225-.006-.338-.016Zm-4.625-.041a5.1 5.1 0 0 0 .178.069 1.64 1.64 0 0 1-.065-.169.772.772 0 0 0-.113.1Zm3.791.025a.919.919 0 0 0 .376-.053 3.565 3.565 0 0 1-.265-.068 4.007 4.007 0 0 1-.11.121Zm-.887-.319c.16.126.35.201.483.243.086.027.184.052.288.066a5 5 0 0 0 .132-.14 1.716 1.716 0 0 1-.69-.41 1.296 1.296 0 0 1-.226-.318c-.02.056-.044.11-.071.161.03.087.055.175.07.267a.974.974 0 0 1 .014.131Zm2.539.283-.015.022a3.76 3.76 0 0 0 .321-.094c.13-.254.224-.527.28-.806a.95.95 0 0 1-.128.072.678.678 0 0 1-.09.55.7.7 0 0 1-.368.256Zm-.764-.034c.095.007.19.01.284.01.162 0 .303-.017.421-.052a.706.706 0 0 0 .018-.634 2.62 2.62 0 0 1-.496-.064l-.09.162c-.027.05-.055.102-.084.152a.523.523 0 0 1 .02.12.579.579 0 0 1-.073.306Zm-5.343-.305c.12.084.26.165.423.243l.152.07a.898.898 0 0 1 .167-.15l.007-.005a1.66 1.66 0 0 1-.047-.592c-.163.034-.324.09-.466.185a.832.832 0 0 0-.236.249Zm5.085.276c.053.008.106.014.16.02a.498.498 0 0 0 .081-.293v-.008a1.18 1.18 0 0 1-.24.281Zm-4.226-.08.02.064a4.02 4.02 0 0 1-.005-.073l-.015.01Zm3.773-.016a3.828 3.828 0 0 0 .322.074c.068-.198.135-.398.199-.599a.92.92 0 0 0-.069-.062c-.142.202-.291.4-.452.587Zm2.17-.806c-.05.293-.14.58-.266.848.218-.085.422-.197.608-.35.154-.128.232-.25.24-.372.012-.187-.145-.346-.296-.431a.935.935 0 0 0-.087-.044l-.01.042a.68.68 0 0 1-.19.307Zm-.64.253c.078.198.083.41.01.59a.572.572 0 0 0 .229-.187.587.587 0 0 0 .08-.462 1.257 1.257 0 0 1-.318.06Zm-3.899.55c.216.045.437.033.643-.061a.981.981 0 0 0 .3-.218c.003-.055.008-.107.016-.156a.964.964 0 0 1-.03-.11 6.978 6.978 0 0 1-.284.09c-.157.229-.345.373-.566.436a1.038 1.038 0 0 1-.079.018Zm2.96-.441-.14.422a1.36 1.36 0 0 0 .214-.289.565.565 0 0 0-.075-.133Zm-1.583-.275c.054.107.123.205.207.29.168.172.395.304.69.4.17-.194.326-.401.475-.614a1.206 1.206 0 0 0-.083-.053 1.44 1.44 0 0 1-.398-.17 1.84 1.84 0 0 0-.428-.073c-.017.01-.035.018-.052.027-.135.07-.272.134-.412.193Zm-2.842.088c-.022.184-.009.375.036.557l.034-.019a3.43 3.43 0 0 1 .016-.551l-.086.013Zm1.21.544c.106.013.21.006.31-.022a.89.89 0 0 0 .449-.311 6.335 6.335 0 0 1-.72.146l-.038.005-.076.147c.025.013.05.024.076.035Zm-1.032-.568c-.022.176-.026.35-.02.52.143-.065.296-.107.453-.137a1.33 1.33 0 0 1-.288-.395 3.436 3.436 0 0 0-.145.012Zm.766.421c.037.025.074.048.111.07l.047-.09a8.794 8.794 0 0 0-.158.02Zm1.629-.104a.786.786 0 0 0 .099.125l-.005-.027a1.497 1.497 0 0 0-.042-.175 1.154 1.154 0 0 1-.052.077Zm-3.967-.93c0 .272.088.542.252.76.073.098.163.189.272.274a.908.908 0 0 1 .259-.27c.158-.106.34-.167.529-.203.013-.082.033-.163.06-.242a6.244 6.244 0 0 1-1.372-.318Zm1.879.59c.098.136.22.262.354.368l.2-.027.112-.015.087-.178.03-.06a.84.84 0 0 1-.327-.138c-.15.027-.305.039-.456.05Zm.88.095a8.72 8.72 0 0 0-.045.092l-.06.124c.268-.04.534-.096.794-.17a2.53 2.53 0 0 0 .287-.655l.036-.121c.058-.199.118-.4.199-.587a1.167 1.167 0 0 0-.037-.065 2.4 2.4 0 0 0-.207.128l-.026.031a1.31 1.31 0 0 1-.098.494c-.152.373-.466.729-.843.729Zm3.092.034c.037.043.071.09.098.14l.048-.087c.023-.043.046-.087.071-.13a2.332 2.332 0 0 1-.19-.008c-.008.028-.017.057-.027.085Zm-1.94.102a.246.246 0 0 0 .008.02 1.18 1.18 0 0 0 .063-.102l-.027-.073a.804.804 0 0 0-.044.155Zm-.104-.675a2.732 2.732 0 0 1-.23.547c.066-.02.133-.042.198-.064a.773.773 0 0 1 .053-.326.494.494 0 0 1-.02-.157Zm1.941.472.032.028.007-.022-.039-.006Zm.925-.07c.016.025.032.052.046.078a1.153 1.153 0 0 0 .336-.059 1.242 1.242 0 0 0-.08-.197.98.98 0 0 1-.302.177Zm-.228.062c.058.008.115.013.17.016a1.124 1.124 0 0 0-.03-.049 1.443 1.443 0 0 1-.14.033Zm-2.566-.15a.676.676 0 0 0-.013.137l.026-.01a.77.77 0 0 1 .02-.037l-.033-.09Zm-.897-.203c-.063.11-.122.222-.178.335.316-.028.58-.342.713-.67.043-.105.076-.226.088-.346-.128.153-.265.3-.424.42l-.02.04a.803.803 0 0 1-.18.221Zm-.517.255a.653.653 0 0 0 .226.077l.013.002c.035-.072.072-.143.11-.214a1.535 1.535 0 0 1-.348.135Zm3.455-.013c.07.021.138.038.201.052.051-.083.106-.164.171-.237l.015-.016a1.707 1.707 0 0 0-.263-.154l-.03.046c-.03.103-.062.206-.094.31Zm.459-.146-.02.021c-.047.053-.089.111-.128.172.097-.007.197-.02.295-.047a1.146 1.146 0 0 0-.147-.146Zm-4.915-.024c-.025.07-.044.141-.057.214l.085-.011c.01-.066.022-.132.036-.197a4.34 4.34 0 0 1-.064-.006Zm2.63.137a.424.424 0 0 0-.065.07l.05-.02.016-.05Zm2.949-.161c.038.073.07.15.095.227a.79.79 0 0 0 .176-.116c.01-.06.018-.122.023-.184a.166.166 0 0 1-.066.02.117.117 0 0 1-.107-.053l-.013-.018.027-.083a.783.783 0 0 1-.12.188l-.015.019Zm-5.424.041a2.323 2.323 0 0 0-.034.175l.093-.008a1.654 1.654 0 0 1-.059-.167Zm3.943.142c.04.01.082.02.123.028l.004-.005c-.2-.087-.383-.219-.475-.425a.747.747 0 0 1-.043-.128 1.08 1.08 0 0 1-.194.192c.052.065.116.12.188.168.13.04.256.092.376.159l.02.011Zm-3.83-.139c.025.05.054.1.088.154h.009c.132-.01.267-.019.399-.037l-.077-.058-.077-.058a3.988 3.988 0 0 1-.342 0Zm4.095.12.007.002.008-.024-.015.022Zm.617-.179c.067.056.125.117.175.18a.89.89 0 0 0 .312-.18 1.627 1.627 0 0 0-.121-.179l-.018-.022a1.045 1.045 0 0 0-.348.201Zm-2.252.164a.152.152 0 0 0 .006.013c.1-.042.2-.088.3-.136a.843.843 0 0 0-.292.066 2.38 2.38 0 0 1-.014.057Zm-.267-.142c.015.05.032.099.05.148a.513.513 0 0 1 .09-.085 1.32 1.32 0 0 1-.048-.226.847.847 0 0 0-.092.163Zm-1.713.028c.048.036.095.071.142.104.1-.02.199-.047.293-.087.1-.041.19-.095.264-.158l.032-.054c-.208.104-.45.17-.731.195Zm3.04-.434a.62.62 0 0 0 .044.143c.084.187.256.306.445.386l.19-.284.015-.052-.052-.021a2.88 2.88 0 0 0-.642-.172Zm2.183.246a3.833 3.833 0 0 1-.014.144.545.545 0 0 0 .09-.216 2.249 2.249 0 0 0-.024-.008l-.003.004a.355.355 0 0 1-.05.076Zm-3.2-.22a1.434 1.434 0 0 1-.01.36c.089-.032.193-.05.314-.054.046-.002.092-.002.14 0 .057-.032.116-.069.172-.108a.731.731 0 0 1-.097-.256 2.912 2.912 0 0 0-.52.058Zm-.136.113c.004.08.016.16.036.237a1.423 1.423 0 0 0 .013-.288 1.403 1.403 0 0 0-.05.051Zm.736.205c.043.005.085.011.128.02a.822.822 0 0 1-.059-.066 2.063 2.063 0 0 1-.069.046Zm-3.145.006c.089.005.174.007.257.007a.745.745 0 0 0-.265-.108l-.009-.002a.156.156 0 0 0-.004.015 1.325 1.325 0 0 0 .021.088Zm.014-.19c.147.028.275.105.397.192.384-.022.695-.113.944-.276l.004-.002c.029-.042.058-.082.089-.121.044-.147.048-.308.053-.476.003-.142.007-.288.037-.427-.1-.021-.206-.019-.304-.01-.11.04-.218.087-.323.141a2.009 2.009 0 0 0-.537.398c-.165.174-.28.372-.36.582Zm-.205.175.052.005.018-.063-.005-.02a.075.075 0 0 0-.017.01.174.174 0 0 0-.048.069Zm4.595-.173c.104.05.197.106.278.165.104-.093.225-.166.356-.216-.102-.103-.268-.226-.43-.158-.09.038-.153.131-.204.209Zm-6.09-.162a6.104 6.104 0 0 0 1.401.326l.001-.005a.287.287 0 0 1 .087-.127.184.184 0 0 1 .051-.027.81.81 0 0 1-.002-.237c-.002-.176.021-.336.07-.48a1.17 1.17 0 0 1 .474-.588c-.075-.003-.15-.01-.223-.014-.68.13-1.283.384-1.763.749a1.268 1.268 0 0 0-.097.403Zm6.881.155c.04.05.076.104.11.16a.701.701 0 0 0 .116-.195 1.13 1.13 0 0 0-.226.035Zm.368.1.012.001c.023-.002.054-.02.082-.049l.003-.074a.715.715 0 0 0-.055-.007l-.042.129Zm-3.247-.16a.202.202 0 0 0-.095.093.178.178 0 0 0-.014.067c.032-.053.068-.104.11-.15v-.01Zm.84-.127.005.026c.017.064.041.122.073.175.07-.056.134-.119.184-.187a3.04 3.04 0 0 0-.263-.014Zm-.824-.397c-.064.161-.115.334-.165.504l-.015.05a.328.328 0 0 1 .166-.13 1.277 1.277 0 0 1 .06-.308 1.28 1.28 0 0 0-.046-.116Zm1.236.338c.23.034.454.094.669.18l.044.017.017-.062c.015-.052.027-.101.01-.139-.025-.053-.103-.07-.176-.08a13.036 13.036 0 0 0-.292-.039.87.87 0 0 1-.028.01l-.005-.014a3.95 3.95 0 0 0-.194-.017.575.575 0 0 1-.045.144Zm1.137-.066c.177 0 .336.137.427.236.103-.03.21-.047.318-.05.063-.253-.004-.54-.148-.767a2.261 2.261 0 0 0-.4-.222l-.033-.007a1.192 1.192 0 0 1-.286.354 2.121 2.121 0 0 1-.567.33l.13.018c.096.013.202.04.245.133.021.046.02.095.01.143.045-.057.1-.11.173-.141a.334.334 0 0 1 .131-.027Zm-4.762.092c.001.045.004.091.008.138.083-.2.198-.389.356-.557.15-.159.338-.298.56-.415-.213.053-.39.13-.535.235a.937.937 0 0 0-.389.6Zm5.796-.197.004.051c.007.087.01.174.01.261l.057-.12a.839.839 0 0 0-.071-.192Zm-.105.3.028.005v-.088l-.028.084Zm-.16-.637c.083.2.113.42.069.626l.103-.314a1.057 1.057 0 0 0-.031-.164 1.22 1.22 0 0 0-.14-.148Zm-3.047.458a.873.873 0 0 0-.012.076l-.003.028.029-.007h.004a1.971 1.971 0 0 0-.018-.097Zm-4.153-.15c-.055.052-.115.128-.087.197a.12.12 0 0 0 .04.048 1.33 1.33 0 0 1 .047-.246Zm4.78.084c-.08.015-.159.037-.236.066a.957.957 0 0 0-.106.047c.114-.016.227-.025.342-.028a.591.591 0 0 1 0-.085Zm.09.084c.106 0 .212.007.317.019a.973.973 0 0 1 .006-.135 2.2 2.2 0 0 0-.32.017.629.629 0 0 0-.003.1Zm-.67-.19c.02.06.036.122.048.185l.024-.033a.51.51 0 0 0 .068-.434 1.265 1.265 0 0 0-.14.282Zm3.299-.072c.04.064.072.13.096.196l.17-.35c.061-.125.13-.266.13-.41.003-.436-.558-.645-.799-.715a2.4 2.4 0 0 0-.491-.096.807.807 0 0 1 .073.57c.055.033.107.068.156.106l.19.013c.188.012.446.053.525.258.044.117.011.239-.03.363l-.02.065Zm-4.148-.54c-.027.127-.031.263-.035.404-.002.109-.005.22-.02.328.108-.118.225-.22.347-.31a.489.489 0 0 0-.182-.36.462.462 0 0 0-.11-.061Zm1.055.241a.655.655 0 0 1 .003.46c.142-.058.292-.126.427-.216a.996.996 0 0 1 .206-.315 1.142 1.142 0 0 0-.244-.158c-.074.017-.15.037-.228.06a1.2 1.2 0 0 0-.164.169Zm.39.375-.017.01.015-.003c0-.002 0-.004.002-.007Zm.552-.015c.069.004.138.01.206.018.231-.088.488-.198.696-.376a1.11 1.11 0 0 0 .25-.301c-.298-.049-.656-.078-.981.031l-.075.18c-.041.103-.08.206-.111.309a.534.534 0 0 1 .014.139Zm-.439-.057a.846.846 0 0 0-.02.065c.106-.012.212-.016.318-.014.008-.045.02-.09.032-.135a.525.525 0 0 0-.074-.154c-.073.093-.16.171-.256.238Zm-2.617-.752a1.112 1.112 0 0 0-.557.613c-.012.034-.023.07-.031.108.073-.123.176-.235.3-.325.221-.16.508-.259.878-.305a5.77 5.77 0 0 1 .057-.007c.129-.045.261-.08.395-.105l.005-.011.003-.006a1.243 1.243 0 0 0-.253-.081h-.134a1.787 1.787 0 0 1-.663.119Zm1.813.593c.017.032.032.065.046.1.041-.093.092-.18.152-.262a.99.99 0 0 0-.023-.049 1.851 1.851 0 0 0-.083.036 1.75 1.75 0 0 0-.092.175Zm3.318.047a.28.28 0 0 0 .011.014c.036-.108.065-.213.03-.301-.06-.157-.283-.19-.446-.2l-.072-.006.027.03c.147.059.282.147.37.284a.722.722 0 0 1 .08.18Zm-4.05-.52c.05.019.098.044.143.077.12.091.184.22.208.363a8.45 8.45 0 0 1 .145-.175 1.424 1.424 0 0 0-.373-.34l-.1.015a.924.924 0 0 0-.022.06Zm-1.945-.164c-.163 0-.324.014-.479.058-.293.084-.549.278-.714.533.422-.29.881-.474 1.332-.588a2.827 2.827 0 0 0-.14-.003Zm3.678.484a.96.96 0 0 0-.082.097.861.861 0 0 0 .082-.097Zm.113-.006a.725.725 0 0 1 .063.098c.024-.068.05-.137.078-.204l.04-.1a.905.905 0 0 0-.118.066.78.78 0 0 1-.063.14Zm-1.171.054.003.006.006-.01-.009.004Zm-.064-.098.015.022c.045-.023.09-.045.134-.065.02-.032.041-.063.063-.094a.641.641 0 0 0-.039-.044c-.06.056-.117.117-.173.18Zm.38-.04.002.004.006-.007a.042.042 0 0 0-.008.003Zm-.728-.32c.109.081.208.178.293.286.052-.059.106-.116.163-.17a.97.97 0 0 0-.197-.122c-.087-.002-.173 0-.259.007Zm1.298.161c.062.037.12.078.172.124a.996.996 0 0 1 .098-.077.659.659 0 0 0 .02-.092 4.417 4.417 0 0 0-.29.045Zm-.625.065.01.014c.069-.026.137-.049.205-.07.025-.02.051-.04.077-.058l-.009-.003a2.577 2.577 0 0 0-.129-.036 1.042 1.042 0 0 0-.154.153Zm-.085-.108.03.033c.03-.037.064-.072.1-.104l-.034-.007a1.57 1.57 0 0 0-.096.078Zm1.094-.013-.005.036a.856.856 0 0 1 .067-.033l.026-.01c-.03.001-.059.004-.088.007Zm-.76-.1a1.61 1.61 0 0 1 .25.09 4.336 4.336 0 0 1 .424-.072.612.612 0 0 0-.027-.195c-.258.006-.47.065-.647.176Zm-1.307.053.036.008.005-.016-.04.008Zm.846-.05.018.012.044.035.041-.035a2.55 2.55 0 0 0-.103-.013Zm1.202-.179.007.03c.012.05.017.102.017.155l.165-.014c.024-.05.05-.1.076-.149a2.4 2.4 0 0 0-.265-.022Zm1.351.18h.011l-.009-.006a.03.03 0 0 0-.002.005Zm-.13-.008.034.002.017-.046a2.11 2.11 0 0 0-.832-.215.872.872 0 0 0-.027.04 4.682 4.682 0 0 1 .809.22Zm-.86-.136a2.201 2.201 0 0 0-.069.129c.2-.01.401-.011.601-.006a6.78 6.78 0 0 0-.234-.062 4.113 4.113 0 0 0-.298-.06Zm-1.237.105.02.004.002-.002c.043-.032.089-.06.135-.085a1.256 1.256 0 0 0-.157.083Zm-.507-.066c.128.004.256.018.383.04.044-.031.09-.06.139-.087.215-.119.455-.172.67-.196a.37.37 0 0 0-.092-.07c-.105-.059-.23-.069-.36-.074-.37-.015-.83.027-1.1.282.124.02.246.054.36.105Zm-.444-.008.045.026a3.1 3.1 0 0 1 .13-.012 1.835 1.835 0 0 0-.163-.031.243.243 0 0 0-.013.017Zm2.333-.24c.305.03.57.1.79.212a.712.712 0 0 0 .014-.156.794.794 0 0 0-.108-.372.934.934 0 0 0-.418.092.88.88 0 0 0-.278.225Zm-2.679.106c.104.002.212.007.32.02.283-.32.802-.373 1.214-.356.135.006.277.017.4.085a.477.477 0 0 1 .156.14 3.627 3.627 0 0 1 .48-.003c.093-.123.205-.226.346-.297a.99.99 0 0 1 .402-.1 1.217 1.217 0 0 0-.308-.296c-.368-.25-.871-.356-1.496-.315-.514.033-.863.184-1.037.447-.043.064-.075.133-.108.207-.034.074-.069.15-.115.22a.86.86 0 0 1-.254.248Zm2.16-.024c.111.001.222.012.328.028l.02-.03a4.797 4.797 0 0 0-.348.002Z" fill="#fff"/><path d="m9.86 29.869.284.551c.062.12.136.233.22.336L8.96 46.98h.35l2.787-15.507h4.357L14.898 46.98h.35l3.142-16.224c.113-.103.218-.215.314-.336l.438-.552H9.86Z" fill="#263138"/><path d="m9.86 29.869.284.551c.062.12.136.233.22.336L8.96 46.98h.35l2.787-15.507h4.357L14.898 46.98h.35l3.142-16.224c.113-.103.218-.215.314-.336l.438-.552H9.86Z" fill="#045983"/><path d="M29.926 46.667h-.62l-3.064-10.35h1.067l2.617 10.35ZM18.86 46.667h.62l3.064-10.35h-1.066l-2.618 10.35ZM35.508 46.667h-.62l-3.064-10.35h1.067l2.617 10.35Z" fill="#6997A9"/><path d="M29.136 23.617c-3.889.836-3.955 5.929-3.56 9.253a2.327 2.327 0 0 1-2.311 2.604h-3.827c-.62 0-.803.843-.24 1.102 1.258.578 3.782 1.168 8.847 1.168 7.704 0 7.39-4.165 8.207-8.198 1.276-6.302-.195-7.418-7.116-5.93Z" fill="#436EB6"/><path d="M29.136 23.617c-3.889.836-3.955 5.929-3.56 9.253a2.327 2.327 0 0 1-2.311 2.604h-3.827c-.62 0-.803.843-.24 1.102 1.258.578 3.782 1.168 8.847 1.168 7.704 0 7.39-4.165 8.207-8.198 1.276-6.302-.195-7.418-7.116-5.93Z" fill="#8EB0C1"/><path d="M24.413 23.824a1.297 1.297 0 0 0-1.728.611l-.035.072-.048.1-.059.12-.123.241c-.086.16-.17.323-.262.477 0 .002-.002.003-.003.005.072-.239.148-.478.228-.716.082-.249.164-.499.252-.748.17-.498.354-1.004.527-1.495l.006-.017a.649.649 0 0 0-1.139-.592c-.33.462-.62.924-.905 1.403a21.85 21.85 0 0 0-.793 1.475 15.02 15.02 0 0 0-.667 1.587c-.095.28-.184.568-.258.875a5.01 5.01 0 0 0-.144 1.012c-.023.547.36 1.042.915 1.143l.084.016c.354.065.732.058 1.077-.014.346-.07.656-.202.926-.351.542-.303.94-.679 1.282-1.06.17-.19.325-.386.467-.585a9.358 9.358 0 0 0 .892-1.544l.072-.167.076-.187a1.3 1.3 0 0 0-.64-1.66Z" fill="#3A718D"/><path d="m22.003 20.57-.027.516c-.011.204.022.41.097.6l.209.528a.683.683 0 0 0 .59.43.679.679 0 0 0 .724-.607c.034-.383-.07-.786-.07-.786l-.059-.654a.454.454 0 0 0-.418-.413l-.558-.042a.455.455 0 0 0-.488.429Z" fill="#FAD2C3"/><path opacity=".2" d="m23.525 21.251-.057-.654a.455.455 0 0 0-.419-.413l-.54-.041c-.06.843.372 1.78.844 2.348a.658.658 0 0 0 .242-.454c.036-.383-.07-.786-.07-.786Z" fill="#040000"/><path d="M28.162 22.684c-1.488.111-3.35.232-4.686.868-.66.315-.837.974-.739 1.698.155 1.15.289 2.068.576 3.038.663 2.239-.667 3.84.825 5.575.654.744 4.665 1.441 7.505.51.407-1.696-.121-5.91-.69-9.745-.2-1.356-1.425-2.047-2.791-1.944Z" fill="#3A718D"/><path d="M26.316 20.883c.073.63.385 1.555.918 1.843.254.137.293.48.076.67-.315.275-.8.517-1.45.65-.85.172-1.032-.083-1.018-.348a.605.605 0 0 1 .148-.343c.274-.338-.005-.601-.17-.799l1.496-1.673Z" fill="#FAD2C3"/><path opacity=".2" d="M25.935 21.832a1.214 1.214 0 0 0-.056-.105l-1.06.83c.108.128.264.285.284.472.547-.326.992-.854.832-1.197Z" fill="#040000"/><path d="M19.336 43.571c.203-.212 1.516-.615 1.516-.615.55 1.56.849 3.011.849 3.011l-1.697.17s-.28-1.718-.668-2.566Z" fill="#FAD2C3"/><path d="M26.839 33.034c-4.906.07-11.363-.193-9.842 4.28.651 1.913.598 2.617 1.36 4.935.327.999.439 1.293.677 1.984.26.62 1.822.504 2.398.262.693-.37.107-1.365.026-1.925-.394-2.736.424-3.781-.437-5.575 1.566.226 5.967.068 6.623-2.622 0 0 .902-1.073-.805-1.339Z" fill="#C3DAE4"/><path d="m19.433 44.562.21.414a.13.13 0 0 0 .137.07c.278-.05 1.106-.182 1.589-.124a.128.128 0 0 0 .142-.12c.01-.162.008-.374.006-.506a.13.13 0 0 0-.13-.127 9.374 9.374 0 0 0-1.866.207.13.13 0 0 0-.088.186Z" fill="#B2D3E0"/><path d="m22.068 47.042-.181-1.192c-.008-.054-.06-.092-.125-.091l-1.74.007c-.138 0-.293.022-.396.107-.391.323-.998.632-1.88.804-.279.054-.16.608.494.605 1.081-.004 1.036-.038 1.959-.042.788-.004.987.036 1.613.042.15.002.275-.116.256-.24Z" fill="#01435C"/><path d="M25.712 19.228c.46 1.055.783 1.645.538 2.473-.37 1.245-1.866 1.526-2.63.654-.689-.785-1.326-2.379-.538-3.376.776-.982 2.17-.806 2.63.249Z" fill="#FAD2C3"/><path d="M24.865 21.764a.99.99 0 0 1 .17.01.03.03 0 1 1-.008.06.8.8 0 0 0-.692.218.03.03 0 0 1-.041.003.03.03 0 0 1-.004-.041.823.823 0 0 1 .575-.25ZM24.39 20.506c-.052.03-.057.12-.01.2l.19-.11c-.047-.08-.127-.12-.18-.09ZM23.399 21.065c-.053.03-.057.12-.01.2l.19-.11c-.048-.08-.128-.12-.18-.09ZM24.132 20.005a.055.055 0 0 1 .056-.02.433.433 0 0 0 .386-.076.054.054 0 1 1 .073.08c-.007.007-.194.176-.486.102a.054.054 0 0 1-.04-.066.078.078 0 0 1 .01-.02ZM23.276 20.49a.055.055 0 0 1 .085.05.539.539 0 0 1-.255.425.054.054 0 0 1-.073-.022.055.055 0 0 1 .022-.074.429.429 0 0 0 .198-.34c0-.016.01-.03.023-.04Z" fill="#22120E"/><path opacity=".2" d="M23.619 21.12s.017.27-.2.406c.48-.068.2-.406.2-.406ZM24.26 20.768s.233.14.452.01c-.261.33-.452-.01-.452-.01Z" fill="#040000"/><path d="M26.582 19.263c-.052-.476-.178-.831-.345-1.072.082.024.16.042.224.049-.424-.644-1.116-.523-1.335-.263-.27-.592-.654-.197-1.089-.122-.435.075-1.254-.24-1.254-.24s.178.314.47.357c-.565.254-.773.692-.923 1.03-.15.337-.601.742-.601.742s.232.028.515-.19c-.057.344-.295.986-.414 1.137.312-.103.599-.482.599-.482s.055.62.346 1.037c-.06-.536.796-1.606.796-1.606s-.057.234.002.693c.387-.326 1.015-1.396 1.015-1.396s.003.446.132.92c.03-.244.22-.496.22-.496-.114.383.176 1.268.176 1.268s-.028-.362.044-.69c.081.264.581.554.786.583-.001 0 .78.062.636-1.259Z" fill="#22120E"/><path d="M26.572 20.223c-.015.301-.167.568-.353.731-.28.246-.58.035-.638-.313-.051-.314.032-.82.378-.932.34-.11.629.17.613.514Z" fill="#FAD2C3"/><path opacity=".2" d="M23.325 37.01a24.51 24.51 0 0 0-.261-2.036 2.98 2.98 0 0 0-.294-.883c-3.291-.438-3.588 2.302-1.41 7.511-.115-2.046.413-3.042-.338-4.607.528.077 1.38.109 2.303.014ZM26.183 20.06l.22.456c.088.181.131.371.127.557l-.01.515c-.005.24-.172.434-.428.501-.356.094-.782-.082-.95-.402a2.353 2.353 0 0 1-.224-.719l-.187-.598c-.064-.202.048-.394.263-.452l.541-.147a.579.579 0 0 1 .648.289Z" fill="#040000"/><path d="m26.31 20.12.17.487c.067.193.092.399.073.603l-.055.566a.682.682 0 0 1-.447.577.678.678 0 0 1-.864-.383c-.14-.359-.15-.775-.15-.775l-.126-.644a.455.455 0 0 1 .288-.514l.524-.194a.455.455 0 0 1 .588.276Z" fill="#FAD2C3"/><path d="M29.782 23.274a1.295 1.295 0 0 0-1.57.942l-.025.1-.049.194-.058.223c-.042.15-.083.3-.13.447-.092.297-.202.584-.317.855l-.006.014a17.16 17.16 0 0 1-.315-1.07c-.07-.259-.137-.521-.199-.785-.063-.264-.127-.53-.186-.797-.121-.532-.234-1.078-.35-1.607l-.003-.016a.647.647 0 0 0-1.28.101 22.21 22.21 0 0 0 .098 3.456c.032.29.073.582.12.876.049.294.105.59.181.892a7.7 7.7 0 0 0 .289.931c.062.162.136.327.23.5.096.174.211.357.38.551.36.413.975.514 1.452.214l.071-.045c.218-.137.42-.29.604-.454.183-.163.343-.34.493-.519.148-.18.28-.363.405-.55a7.679 7.679 0 0 0 .821-1.735c.065-.197.126-.395.176-.597.024-.1.05-.202.07-.305l.031-.159.032-.181c.109-.661-.304-1.31-.965-1.476Z" fill="#3A718D"/><path d="M24.236 43.48c.18-.232 1.447-.766 1.447-.766a25.899 25.899 0 0 1 1.148 2.91l-1.671.341s-.452-1.681-.924-2.486Z" fill="#FAD2C3"/><path d="M27.469 32.706c-4.822.328-8.551.338-6.423 4.555.91 1.805 1.09 2.772 2.082 5.002.427.96.567 1.241.874 1.904.322.59 1.864.318 2.413.02.652-.438-.032-1.37-.169-1.918-.668-2.683.014-3.635-1.009-5.342 1.58.08 5.751.136 6.407-2.555 0 0-.785-1.666-4.175-1.666Z" fill="#C3DAE4"/><path d="m24.433 44.455.25.39a.13.13 0 0 0 .144.056c.271-.077 1.082-.292 1.567-.283a.129.129 0 0 0 .13-.134 6.79 6.79 0 0 0-.046-.505.13.13 0 0 0-.142-.112 9.368 9.368 0 0 0-1.835.395.13.13 0 0 0-.068.193Z" fill="#B2D3E0"/><path d="m27.305 46.58-.346-1.209c-.017-.052-.073-.082-.138-.072l-1.72.26c-.136.02-.287.064-.376.163-.34.376-.816.783-1.698.954-.279.055-.16.608.494.606 1.081-.005 1.035-.143 1.947-.276.69-.101.983-.106 1.607-.163.15-.013.261-.143.23-.264Z" fill="#01435C"/><path d="M8.4 29.869h34.538v-.64H8.4v.64Z" fill="#436EB6"/><path d="M8.4 29.869h34.538v-.64H8.4v.64Z" fill="#045983"/><path opacity=".3" d="M33.57 29.869h9.368v-.64H33.57v.64Z" fill="#436EB6"/><path d="M42.029 46.98h.35l-1.403-16.224c.084-.103.158-.215.22-.336l.284-.552h-9.283l.438.552c.096.12.202.233.314.335l3.143 16.225h.35l-1.558-15.508h4.357L42.03 46.98Z" fill="#263138"/><path d="M42.029 46.98h.35l-1.403-16.224c.084-.103.158-.215.22-.336l.284-.552h-9.283l.438.552c.096.12.202.233.314.335l3.143 16.225h.35l-1.558-15.508h4.357L42.03 46.98Z" fill="#045983"/><path d="M17.164 26.64H8.963v2.717h8.201V26.64Z" fill="#436EB6"/><path d="M17.164 26.64H8.963v2.717h8.201V26.64Z" fill="#C3DAE4"/><path opacity=".3" d="M17.164 26.64h-4.1v2.717h4.1V26.64Z" fill="#436EB6"/><path opacity=".3" d="m10.358 27.657 2.696.227 3.356-.227h-6.052ZM9.164 28.299l1.568.107 1.952-.107h-3.52Z" fill="#436EB6"/><path d="M13.064 26.159c-1.103.528-4.218.122-4.218.122s.41.359.815.359h7.174s.273-.091.273-.189c-1.829.273-3.686-.075-4.044-.292Z" fill="#436EB6"/><path d="M13.064 26.159c-1.103.528-4.218.122-4.218.122s.41.359.815.359h7.174s.273-.091.273-.189c-1.829.273-3.686-.075-4.044-.292Z" fill="#C3DAE4"/><path d="M42.065 27.904h-8.712v1.453h8.712v-1.453Z" fill="#436EB6"/><path d="M42.065 27.904h-8.712v1.453h8.712v-1.453Z" fill="#C3DAE4"/><path opacity=".3" d="M42.064 27.904h-4.356v1.453h4.356v-1.453Z" fill="#436EB6"/><path opacity=".3" d="m39.995 28.748-2.864-.121-3.565.121h6.43ZM41.263 28.404l-1.666-.057-2.073.057h3.74Z" fill="#436EB6"/><path d="M36.909 27.08c-.254.892-3.681.465-3.681.465s.435.359.865.359h7.62s.903-.206.903-.303c-1.942.273-4.908.082-5.707-.522Z" fill="#436EB6"/><path d="M36.909 27.08c-.254.892-3.681.465-3.681.465s.435.359.865.359h7.62s.903-.206.903-.303c-1.942.273-4.908.082-5.707-.522Z" fill="#C3DAE4"/><path d="M24.496 21.517a.677.677 0 0 0-.148.09c-.022.015-.044.028-.06.017-.018-.01-.029-.04-.04-.072l-.075-.205c-.11-.29-.208-.522-.22-.518-.011.005.068.244.178.535l.08.204c.012.029.021.067.058.088.019.01.043.008.06 0 .016-.008.027-.018.038-.026a.698.698 0 0 0 .129-.113Z" fill="#263138"/><path d="M16.746 20.04h-4.933v1.306h4.933v-1.305ZM14.66 22.72l-.001-.023c0-.017 0-.04-.002-.067l-.003-.257-.009-.957.015.015-4.933.01c.01-.012-.026.024.024-.025V22.721l-.024-.025 3.516.011 1.037.008.28.003.074.002h.026c0 .001-.007.002-.022.003l-.07.001-.276.003-1.032.008-3.533.01h-.024V21.417c.05-.05.013-.014.024-.025l4.934.01h.016v.015l-.009.966-.003.253-.002.065c-.002.015-.002.022-.003.02Z" fill="#C3DAE4" opacity=".38"/></g></g></g><defs><clipPath id="a"><rect width="48" height="48" rx="24" fill="#fff"/></clipPath><clipPath id="b"><path fill="#fff" d="M0 0h48v48H0z"/></clipPath><clipPath id="c"><path fill="#fff" d="M0 0h48v48H0z"/></clipPath></defs></svg>