<svg width="48" height="48" fill="none" xmlns="http://www.w3.org/2000/svg"><g clip-path="url(#a)"><rect width="48" height="48" rx="24" fill="#fff"/><g clip-path="url(#b)"><path d="M25.375 4.9c-.183-.043-.332-.085-.331-.095.001-.009.156-.02.343-.023.187-.004.337.038.33.094-.005.056-.16.066-.342.024ZM24.881 5.344c-.016-.187-.022-.342-.012-.344.009-.002.066.142.128.32.061.176.067.33.012.343-.055.01-.112-.133-.128-.32ZM24.307 5.012c.172-.073.318-.127.322-.119.005.008-.114.108-.263.221-.15.113-.295.167-.323.119-.028-.049.091-.148.264-.221ZM24.445 4.363c.122.141.218.263.212.27-.007.007-.138-.075-.291-.182-.154-.107-.25-.23-.213-.27.038-.042.17.04.292.182ZM25.103 4.293c-.096.16-.182.29-.19.286-.01-.004.029-.155.083-.334.055-.179.14-.308.191-.285.051.022.013.173-.084.333Z" fill="#E1E9EB"/><g opacity=".45"><path opacity=".45" d="M41.577 2.339H27.722v22.934h13.855V2.338Z" fill="#A0BCC5"/><path opacity=".45" d="M41.116 2.339H27.26v22.934h13.855V2.338Z" fill="#A0BCC5"/><path opacity=".45" d="M40.526 2.804H27.85v22.004h12.675V2.804Z" fill="#A0BCC5"/><path opacity=".45" d="M38.058 5.663h-7.794v16.285h7.794V5.664Z" fill="#759DA5"/><path opacity=".45" d="M30.264 16.185c-.018-1.521 1.35-3.006 2.856-3.218.719-.102 1.482.041 2.153-.234 1.198-.491 1.58-2.083 2.785-2.555l.055 11.77h-7.849v-5.763Z" fill="#6D8487"/></g><path opacity=".45" d="m19.643 19.049-1.23.572-1.404-4.508-.961.886-1.454-3.7c-2.023-1.445-4.73-1.143-6.068.69-1.043 1.427-.916 3.374.05 4.805 1.495 2.218 5.073 3.452 7.637 3.706 1.469.146 3.944.58 4.59.697l-1.16-3.148Z" fill="#A0BCC5"/><g opacity=".45" fill="#36464E"><path d="M13.006 22.412c.06-.031.11-.083.138-.151l2.002-4.83 4.166-2.126c.151-.077.207-.27.125-.43l-.77-1.51 3.989-2.034c.15-.077.207-.27.125-.431l-1.032-2.023 2.943-1.501c.151-.077.207-.27.125-.431-.082-.161-.27-.229-.422-.152L21.18 8.435c-.151.077-.207.27-.125.43l1.032 2.023-3.989 2.035c-.15.077-.206.27-.125.43l.77 1.51-3.989 2.034a.297.297 0 0 0-.138.151L12.57 21.98a.342.342 0 0 0 .166.43c.091.046.19.043.27.002Z"/><path d="m12.933 22.665 2.975-1.518c.15-.077.206-.27.125-.431-.083-.16-.272-.229-.422-.152l-2.702 1.379-1.47-2.88c-.082-.161-.27-.23-.421-.152-.15.077-.207.27-.125.43l1.618 3.172c.082.161.27.229.422.152Z"/></g><path d="M6.261 18.388c-.158-.025-.285-.059-.284-.074 0-.016.132-.03.292-.032.16-.002.288.03.284.074-.003.044-.134.058-.292.032ZM5.91 18.902c-.077-.14-.13-.26-.118-.27.013-.008.106.086.207.21.101.122.155.243.12.268-.036.025-.13-.07-.208-.208ZM5.291 18.949c.06-.148.122-.265.136-.261.015.004 0 .136-.033.292-.033.156-.095.273-.136.26-.042-.012-.027-.144.033-.291ZM4.869 18.494c.153-.045.283-.07.288-.056.006.014-.106.084-.249.156-.143.071-.272.097-.288.056-.016-.04.096-.11.249-.156ZM4.96 17.88c.13.091.232.177.224.19-.008.014-.132-.03-.277-.097-.145-.067-.246-.153-.224-.19.022-.039.146.005.277.097ZM5.497 17.568c.01.16.006.291-.01.294-.014.002-.058-.123-.096-.278-.038-.155-.034-.287.01-.294.042-.006.086.119.096.278ZM6.076 17.793c-.118.107-.223.187-.235.176-.011-.01.06-.122.156-.249.098-.126.204-.205.236-.176.032.03-.04.141-.157.249Z" fill="#E1E9EB"/><path d="M45.984 18.012c-.238-.04-.432-.09-.43-.114.002-.023.2-.045.442-.048.242-.003.436.047.431.113-.005.066-.204.088-.443.049ZM45.455 18.79c-.118-.212-.2-.394-.18-.408.019-.013.16.13.313.316.153.187.235.37.18.407-.054.037-.195-.105-.313-.316ZM44.517 18.86c.09-.224.183-.401.205-.395.023.007 0 .206-.05.443-.05.236-.143.414-.206.395-.064-.02-.04-.219.05-.443ZM43.876 18.172c.232-.069.429-.108.437-.086.008.022-.161.128-.378.236-.216.109-.412.147-.437.086-.024-.062.146-.168.378-.236ZM44.014 17.241c.198.139.351.269.34.289-.012.02-.201-.047-.42-.148-.22-.102-.373-.231-.34-.289.034-.057.222.01.42.148ZM44.828 16.769c.015.241.009.441-.014.445-.023.004-.09-.185-.147-.42-.057-.235-.051-.435.014-.445.066-.01.131.179.147.42ZM45.704 17.11c-.179.162-.34.282-.357.267-.017-.017.09-.186.238-.377.147-.192.307-.312.356-.267.048.044-.058.214-.237.376Z" fill="#E0E0E0"/><path d="M32.545 38.527c-.158-.026-.285-.06-.284-.075.001-.015.132-.03.292-.032.16-.002.288.031.285.075-.004.043-.136.058-.293.032ZM32.195 39.04c-.078-.14-.131-.26-.119-.27.013-.008.106.086.207.21.102.122.155.243.12.268-.037.025-.13-.07-.208-.208ZM31.576 39.087c.06-.148.121-.265.136-.261.015.004 0 .136-.034.292-.033.156-.094.273-.136.26-.042-.012-.026-.143.034-.291ZM31.153 38.632c.154-.045.283-.07.289-.056.005.014-.107.084-.25.156-.142.071-.272.096-.288.056-.016-.04.096-.11.25-.156ZM31.245 38.018c.13.092.232.177.224.19-.007.014-.132-.03-.277-.097-.145-.067-.246-.152-.224-.19.022-.038.146.006.277.097ZM31.781 37.706c.01.16.006.292-.009.294-.015.002-.059-.123-.096-.278-.039-.155-.035-.287.009-.294.043-.006.086.119.096.278ZM32.36 37.93c-.119.108-.224.187-.236.177-.01-.01.06-.122.157-.249.097-.126.203-.205.235-.176.032.03-.038.142-.157.249Z" fill="#E1E9EB"/><path d="M41.43 27.983a1.146 1.146 0 0 1-.21-.06c0-.006.099-.012.218-.015.118-.002.213.024.21.06-.004.035-.102.041-.218.015ZM41.117 28.265a1.14 1.14 0 0 1-.008-.219c.006 0 .043.09.081.203.04.112.043.21.009.218-.036.007-.072-.084-.082-.202ZM40.752 28.054c.11-.046.202-.08.205-.076.003.006-.073.069-.168.14-.094.072-.187.107-.204.076-.018-.03.058-.094.167-.14ZM40.84 27.641c.077.09.138.168.134.172a1.126 1.126 0 0 1-.184-.116c-.098-.068-.16-.145-.136-.172.024-.026.107.027.185.116ZM41.259 27.597a1.149 1.149 0 0 1-.121.181 1.135 1.135 0 0 1 .053-.212c.034-.113.089-.195.121-.181.033.015.008.11-.053.212Z" fill="#E0E0E0"/><path d="M39.685 34.723c-.187-.023-.34-.06-.338-.082.001-.022.156-.041.346-.043.189-.002.34.035.338.082-.003.047-.158.067-.346.043ZM39.356 35.38c-.129-.14-.222-.265-.207-.28.015-.017.146.068.292.189.146.12.24.246.206.28-.032.034-.163-.05-.291-.19ZM38.68 35.672c-.008-.19.002-.345.024-.348.02-.002.067.147.101.333.035.186.025.342-.022.348-.047.005-.093-.145-.102-.333ZM37.976 35.46c.115-.15.223-.263.24-.251.019.012-.042.155-.135.32s-.201.278-.24.252c-.04-.026.02-.17.135-.32ZM37.572 34.847c.184-.041.34-.059.346-.038.006.02-.133.091-.31.159-.177.066-.332.084-.346.038-.014-.046.126-.117.31-.159ZM37.656 34.117c.168.087.299.173.29.193-.008.02-.16-.016-.34-.079-.178-.062-.308-.148-.29-.192.02-.044.172-.008.34.078ZM38.19 33.611c.074.175.118.325.099.334-.02.01-.113-.115-.21-.278-.097-.162-.142-.312-.099-.333.042-.022.137.103.21.277ZM38.924 33.567c-.055.181-.118.324-.139.32-.02-.005-.013-.161.017-.348.03-.187.093-.33.14-.32.046.012.038.168-.018.348ZM39.515 34.005c-.159.103-.299.173-.312.156-.013-.017.093-.132.237-.256.143-.123.283-.193.312-.155.028.038-.078.153-.237.255Z" fill="#E1E9EB"/><path d="M25.12 17.665a.096.096 0 0 1-.125.05.096.096 0 0 1-.05-.126c.021-.048.197-.217.197-.217s0 .244-.021.293Z" fill="#fff"/><path d="m34.905 16.951-2.664.528 1.947-1.782.717 1.254ZM32.908 19.89l-.952-1.37 1.303.623-.351.747ZM32.347 15.268l-.955 1.366.24-1.59.715.224Z" fill="#01435C"/><path opacity=".45" d="M17.956 7.01c-1.747.337-3 1.837-3.246 3.649l1.511 3.43 1.253-.863 1.06 4.727 1.927.093.936 2.57c.243-.905.488-1.811.729-2.718.66-2.492 1.4-5.034.583-7.586-.687-2.143-2.38-3.76-4.753-3.302Z" fill="#A0BCC5"/><path d="M30.05 14.433c-.834-2.277-3.146-2.826-3.146-2.826-3.86-.882-5.595 2.2-6.41 4.87-.35 1.144-.136 4.171-1.393 5.515-1.048 1.12-.423 1.878-.423 1.878l.675.389c.458 2.635 2.048 4.954 4.378 6.268.678.382 1.27.585 1.592.396l5.178-1.54c.016-.124 4.992-.558 3.048-3.838-1.056-1.78-1.87-3.694-2.325-5.713-.663-2.942-.863-4.552-1.173-5.399Z" fill="#22120E"/><path d="m27.252 12.79-.208-.27-2.803.656a.746.746 0 0 0-.806.606l-1.305 8.602c-.094.582-.055 1.105.225 1.625l.295.546c.673 1.246 2.426 1.423 3.284.297a.94.94 0 0 0 .128-.208c.026-.075.055-.122.069-.186.185-.68.282-1.279.282-1.279.165-.752.229-1.061.228-1.054 0 0 1.645.064 2.402-1.944.377-.998.555-2.424.71-3.83.214-1.946-.946-3.322-2.5-3.56Z" fill="#FBE0D3"/><path d="M29.221 17.647c-.04.028-.21-.162-.497-.221-.286-.062-.526.042-.55 0-.012-.019.034-.074.14-.122a.747.747 0 0 1 .835.176c.075.086.092.155.072.167ZM26.388 17.1c-.043.024-.193-.184-.473-.27-.277-.092-.527-.013-.547-.057-.01-.02.042-.07.152-.107a.746.746 0 0 1 .814.261c.065.093.074.163.054.173Z" fill="#22120E"/><path d="m27.869 18.52-.334-2.092-.047.024c-.048-.029-.113-.004-.148.04a.343.343 0 0 0-.056.155l-.258 1.343c-.04.205-.07.443.065.602.124.145.339.164.53.171.087.004.19-.001.235-.075.03-.049.022-.112.013-.169Z" fill="#EB957A"/><path d="M27.143 18.695c.001-.016.186-.01.482.012.075.008.147.007.17-.04.028-.05.013-.134-.004-.227l-.102-.6c-.137-.855-.22-1.552-.185-1.558.035-.005.173.684.31 1.538l.092.604c.01.088.038.192-.022.294a.188.188 0 0 1-.142.082c-.05.005-.091-.003-.127-.008-.294-.044-.475-.08-.472-.097Z" fill="#22120E"/><path d="M26.64 22.125s-1.414-.198-2.625-1.315c0 0 .402 1.581 2.52 1.815l.106-.5Z" fill="#EACDC1"/><path d="M25.443 15.495c.034-.077.322-.02.668-.04.345-.012.628-.095.669-.02.018.035-.035.106-.152.176a1.11 1.11 0 0 1-.504.14 1.115 1.115 0 0 1-.515-.094c-.122-.059-.181-.125-.166-.162ZM28.314 15.681c.076-.041.26.102.507.2.245.106.477.134.5.217.01.04-.047.09-.162.113a.814.814 0 0 1-.453-.056.806.806 0 0 1-.359-.28c-.064-.097-.068-.172-.033-.194Z" fill="#22120E"/><path d="M22.92 17.46s.792.295 3.046-2.749c.69-.931 2.175-1.82 2.175-1.82l-1.068-.51s-3.042.37-3.097.4c-.055.029-.968 1.394-.968 1.394l-.087 3.284Z" fill="#22120E"/><path d="M23.333 17.285c.027-.136-.063-.487-.192-.535-.345-.13-.994-.233-1.187.67-.263 1.237 1.032 1.247 1.042 1.212.008-.027.242-.88.337-1.348Z" fill="#FBE0D3"/><path d="M22.72 18.083c-.005-.005-.026.01-.065.02a.222.222 0 0 1-.162-.031c-.12-.076-.186-.307-.145-.531a.73.73 0 0 1 .126-.296c.057-.082.129-.133.197-.13a.113.113 0 0 1 .115.086c.01.038-.004.061.002.064.003.004.031-.015.032-.068a.142.142 0 0 0-.032-.088.167.167 0 0 0-.113-.057c-.096-.013-.2.056-.265.144a.748.748 0 0 0-.148.328c-.046.251.032.512.2.601.082.042.16.03.204.01.045-.023.057-.049.053-.052Z" fill="#EACDC1"/><path d="M26.21 17.228c-.012-.028-.043-.04-.071-.05l-.654-.212c-.038-.012-.078-.025-.118-.023-.04.001-.083.02-.101.057-.056.137.238.274.398.35.16.076.364.084.502-.026.03-.024.057-.061.043-.096ZM29.09 17.88c-.011-.028-.043-.04-.07-.05l-.654-.212c-.039-.013-.078-.026-.119-.024-.04.002-.082.021-.1.058-.05.102.237.274.397.35.16.076.364.084.503-.026.029-.024.057-.062.043-.097Z" fill="#EB957A"/><path d="M26.947 19.263c-.123-.006-.195-.04-.317-.029-.105.01-.227.035-.306.106-.078.072-.14.158-.201.244-.052.073-.105.152-.105.24 0 .111.087.208.191.245.104.038.24.075.348.052.347-.072.537-.261.726-.657-.084-.064-.174-.194-.337-.201Z" fill="#EACDC1"/><path d="M26.724 20.078c.005.01-.13.075-.364.07a.632.632 0 0 1-.192-.03.259.259 0 0 1-.172-.168.445.445 0 0 1 .02-.256.717.717 0 0 1 .128-.233.722.722 0 0 1 .436-.257.832.832 0 0 1 .41.036c.11.039.19.095.236.14.047.047.063.08.058.084-.01.011-.102-.104-.315-.16a.829.829 0 0 0-.373-.014.66.66 0 0 0-.493.434.37.37 0 0 0-.023.204c.014.057.06.096.117.118.055.023.114.03.168.037.219.02.356-.02.359-.005ZM34.846 28.257c-.005-.007.036-.049.11-.128a1.18 1.18 0 0 0 .223-.407c.06-.192.088-.445.036-.729a1.933 1.933 0 0 0-.128-.441 1.975 1.975 0 0 0-.253-.446c-.22-.29-.524-.56-.869-.828-.343-.272-.736-.545-1.086-.916a5.203 5.203 0 0 1-.905-1.299 7.735 7.735 0 0 1-.573-1.592c-.283-1.123-.375-2.22-.492-3.201-.06-.491-.123-.956-.202-1.387a11.43 11.43 0 0 0-.28-1.183 7.673 7.673 0 0 0-.346-.94 6.797 6.797 0 0 0-.501-.902l-.118-.165c-.062-.091-.092-.142-.086-.147.006-.005.048.035.123.117.038.041.084.092.137.154l.168.225c.122.173.258.395.396.662.13.271.272.585.386.946.119.36.224.762.313 1.197.09.435.16.903.226 1.396.13.986.228 2.07.505 3.17a7.73 7.73 0 0 0 .55 1.548c.234.475.523.9.856 1.251.327.357.709.63 1.05.913.345.279.656.567.882.882.115.158.197.326.258.49.063.163.101.324.12.478a1.58 1.58 0 0 1-.081.779c-.08.203-.193.334-.276.41-.087.07-.139.1-.143.093ZM22.372 23.566c0-.008.02-.019.058-.032.039-.012.096-.027.167-.052.143-.046.346-.127.564-.277a1.981 1.981 0 0 0 .61-.677c.167-.3.25-.679.206-1.077a2.922 2.922 0 0 0-.342-1.077 5.749 5.749 0 0 0-.524-.79c-.338-.429-.56-.691-.533-.715.022-.02.284.198.661.608.186.207.399.466.587.791.186.325.344.72.387 1.16.022.22.011.44-.033.645a1.878 1.878 0 0 1-.22.563 2.067 2.067 0 0 1-.335.426c-.123.117-.252.21-.374.285-.25.144-.477.204-.633.225a.82.82 0 0 1-.182.01c-.041-.003-.063-.008-.064-.016Z" fill="#22120E"/><path d="M31.097 26.416s.786 1.105 1.252 3.604c.467 2.498 1.081 5.379-.17 6.265-.671.475-2.348-1.736-2.348-1.736l-.486-5.194-.475-1.552 2.227-1.387Z" fill="#FBE0D3"/><path d="m30.703 30.932 2.78-1s-2.512-5.455-3.768-6.166c-.844-.36-2.086-.196-2.086-.196-.59 1.827-4.523 1.67-5.543-.766-.138-.03-2.782.611-3.47 1.17-1.552 1.262-2.063 7.749-2.063 7.749l3.142-.221-.118 4.85-.464.702a.518.518 0 0 0 .171.733l6.69 3.887 3.277-3.365a.777.777 0 0 0-.177-1.22l1.45-6.435.18.278Z" fill="#6C99AF"/><path d="M29.823 26.22c.002 0 .01.015.024.045l.058.136c.025.059.055.131.086.217.03.085.069.182.103.29a8.718 8.718 0 0 1 .39 1.745 8.621 8.621 0 0 1 .034 1.788c-.006.114-.02.217-.03.307-.01.091-.022.168-.032.232l-.025.145a.254.254 0 0 1-.012.05c-.001 0 0-.018.003-.051l.015-.147c.008-.063.017-.14.024-.231.007-.09.019-.193.024-.307a9.793 9.793 0 0 0-.048-1.78 9.85 9.85 0 0 0-.376-1.74c-.032-.11-.067-.207-.096-.292a4.501 4.501 0 0 0-.078-.22l-.05-.138a.23.23 0 0 1-.014-.05ZM21.219 27.167l.004.019.009.057.029.22.098.82.315 2.765.003.023-.023.003-.617.085c-1.241.163-2.367.292-3.18.402l-.961.133-.262.037-.067.008a.076.076 0 0 1-.024.002l.023-.006.067-.013.26-.046c.226-.037.554-.09.96-.147.812-.12 1.937-.253 3.178-.416l.617-.084-.02.026c-.12-1.097-.224-2.067-.3-2.767l-.084-.822-.02-.222-.005-.057v-.02ZM22.964 37.487c0-.002.021 0 .062.003l.175.02c.076.01.169.021.277.03.108.011.231.026.368.035.273.023.598.04.96.047.362.005.76-.002 1.176-.027a15.94 15.94 0 0 0 1.17-.122c.358-.053.679-.111.947-.169.134-.026.254-.056.36-.08.106-.024.197-.046.271-.066.07-.017.128-.03.172-.042a.335.335 0 0 1 .06-.011c0 .002-.02.008-.058.02-.043.014-.1.03-.17.051a5.407 5.407 0 0 1-.27.074c-.105.026-.225.059-.359.087a13.63 13.63 0 0 1-2.12.305 13.08 13.08 0 0 1-2.142-.034c-.137-.011-.26-.028-.369-.04a5.768 5.768 0 0 1-.276-.04c-.072-.012-.13-.02-.175-.029a.265.265 0 0 1-.06-.012ZM24.212 35.577a.761.761 0 0 1 .126-.06 9.095 9.095 0 0 0 1.439-.765 9.091 9.091 0 0 0 1.276-1.014.84.84 0 0 1 .106-.092.804.804 0 0 1-.093.105 7.658 7.658 0 0 1-2.721 1.783.725.725 0 0 1-.133.043Z" fill="#456F80"/><path d="M18.524 23.524c.257-.117.863.013 1.096.172.234.16.418.38.635.56.32.267.724.445 1.14.448.416.003.916-.114 1.234-.382.374-.316.474-.491.551-.846.34-1.578.467-2.1-.478-4.86l-.753.366-1.855 3.716-1.57.826Z" fill="#22120E"/><path d="M23.405 24.575s2.36-2.828 2.596-2.997c.466-.334 1.4-.396 1.7-.145.178.147 2.148 1.9 2.148 1.9l-.589 1.227-2.21 1.692-3.645-1.677Z" fill="#fff"/><path d="m23.405 24.575.07.03.198.088.744.337 2.641 1.203-.02.002 2.209-1.694-.007.008.588-1.226.006.028-.174-.154-1.265-1.12-.602-.534c-.177-.203-.445-.237-.69-.241a2.084 2.084 0 0 0-.368.027c-.12.018-.236.046-.348.083a1.47 1.47 0 0 0-.314.143c-.1.055-.168.146-.247.224-.302.329-.573.644-.822.93l-1.168 1.366-.317.372-.084.096-.03.032.026-.035.08-.1.31-.377c.271-.326.665-.798 1.158-1.375.247-.288.517-.604.818-.935l.117-.122c.02-.02.043-.04.065-.06.022-.02.048-.033.072-.05.1-.06.209-.11.323-.147.114-.038.232-.068.354-.086.122-.02.247-.03.374-.029a1.5 1.5 0 0 1 .382.047c.063.019.127.041.184.078.06.036.102.084.153.126l.603.533c.41.361.833.736 1.267 1.12l.173.154.014.012-.008.016-.59 1.226-.001.005-.005.003-2.213 1.69-.01.007-.011-.005-2.645-1.23-.735-.343-.192-.09a2.92 2.92 0 0 1-.063-.033Z" fill="#fff"/><path d="M20.658 33.208c-.094.094-1.128 1.715-1.128 2.514 0 .798.235 2.301 1.48 1.973 1.245-.329 1.88-1.574 2.842-3.64.964-2.068 2.516-5.37 2.516-5.37L24.5 27.567l-3.841 5.641Z" fill="#FBE0D3"/><path d="m21.194 32.009-.096-.874-3.553.536c.125 1.012.279 2.345.444 2.938.412 1.482 1.411 3.476 2.785 3.02 1.373-.454.42-5.62.42-5.62ZM28.418 27.388l3.762 5.834s1.4 2.1-.229 3.248c-1.629 1.149-3.05-2.127-3.574-3.382-.524-1.255-1.54-4.28-1.54-4.28l1.58-1.42Z" fill="#FBE0D3"/><path d="M27.792 22.317a.3.3 0 0 1 .29.143c.285.444 1.32 2.075 1.39 2.426.081.408-.23.522-.23.522s.104.577-.338.834c0 0 .093.421-.339.658l-.188 1.134-1.54.774-.143-.715.257-.703.362-1.405-.11-2.047s-.018-.47.308-.367c0 0-.258-.358-.094-.612.1-.154.287-.098.287-.098s-.168-.258-.066-.441a.2.2 0 0 1 .154-.103Z" fill="#FBE0D3"/><path d="M28.87 24.897a.368.368 0 0 1-.055-.078 45.66 45.66 0 0 1-1.098-1.929.347.347 0 0 1-.038-.086.366.366 0 0 1 .055.078 50.284 50.284 0 0 1 1.097 1.927.363.363 0 0 1 .039.088ZM28.417 25.389c-.012.006-.245-.433-.521-.981-.277-.548-.492-.997-.48-1.002.012-.006.246.433.522.98.276.548.49.997.479 1.003ZM27.86 25.776c-.013.005-.167-.341-.345-.774-.178-.432-.312-.787-.3-.792.012-.005.166.341.344.774.178.433.312.787.3.792Z" fill="#EACDC1"/><path d="M25.797 22.43s-1.345 2.22-1.447 2.669c-.101.448.163 2.588.163 2.588l1.855.998s.652-.957.734-1.773c.08-.815.101-1.202.101-1.202s.346-1.61.184-1.793c-.163-.184-.265-.143-.265-.143s.413-.794.308-1.019c-.104-.224-.324-.236-.324-.236s.052-.295-.165-.39c-.247-.108-.45.218-.45.218s-.365-.47-.694.082Z" fill="#FBE0D3"/><path d="M26.49 22.348c.012.006-.245.531-.573 1.173-.328.642-.603 1.157-.615 1.151-.011-.005.245-.53.573-1.172.328-.642.604-1.158.615-1.152ZM27.105 22.52a.515.515 0 0 1-.043.1l-.133.27-.443.885c-.173.345-.333.657-.453.88-.06.112-.109.202-.144.263a.484.484 0 0 1-.06.094.48.48 0 0 1 .043-.102l.131-.27.441-.887c.174-.346.335-.657.456-.88.06-.11.11-.2.146-.262a.521.521 0 0 1 .06-.092ZM26.496 25.311l.007-.029.026-.084a15.039 15.039 0 0 1 .559-1.425l.004-.01.01-.001c.07-.01.144 0 .208.04.065.038.106.109.126.18.027.15.007.297-.006.45a13.899 13.899 0 0 1-.179 1.162v-.003l-.134 1.272-.016.144c-.007.048-.016.094-.024.14l-.033.134-.04.127c-.055.166-.119.315-.18.448a7.472 7.472 0 0 1-.419.777.327.327 0 0 1-.038.054l.03-.058.09-.165c.078-.144.188-.353.308-.62.058-.135.12-.284.173-.447a2.11 2.11 0 0 0 .106-.538l.131-1.27v-.002l.037-.205c.059-.33.11-.65.143-.952.014-.15.032-.302.01-.434a.261.261 0 0 0-.107-.157.268.268 0 0 0-.178-.035l.014-.012c-.208.45-.362.832-.465 1.1l-.119.313-.031.082a.114.114 0 0 1-.013.024ZM24.878 25.287c.004.004-.014.033-.06.057a.252.252 0 0 1-.201.012.252.252 0 0 1-.144-.14c-.02-.05-.015-.083-.009-.083.007-.001.014.028.038.067a.267.267 0 0 0 .131.111.265.265 0 0 0 .172.002c.044-.014.069-.031.073-.026ZM25.486 25.672c.004.004-.019.031-.07.053a.29.29 0 0 1-.371-.145c-.023-.05-.022-.086-.016-.087.007-.002.017.03.045.07a.32.32 0 0 0 .144.12.32.32 0 0 0 .187.01c.049-.01.077-.027.081-.021ZM26.098 25.936c.004.004-.014.034-.063.063a.293.293 0 0 1-.214.029.294.294 0 0 1-.174-.127c-.03-.048-.032-.083-.027-.085.007-.002.02.027.054.065a.316.316 0 0 0 .159.1.32.32 0 0 0 .187-.013c.047-.017.073-.037.078-.032ZM24.5 27.567a.495.495 0 0 1-.04.067l-.124.187-.457.683c-.389.576-.928 1.369-1.532 2.239-.605.87-1.164 1.65-1.574 2.21-.206.28-.373.505-.49.66l-.136.178a.47.47 0 0 1-.05.06.51.51 0 0 1 .043-.066l.128-.183.478-.669c.403-.565.957-1.347 1.562-2.217l1.543-2.23.47-.674.13-.182a.399.399 0 0 1 .048-.063ZM32.18 33.222a.346.346 0 0 1-.041-.056l-.11-.165-.396-.609-1.317-2.005a109.85 109.85 0 0 1-1.3-2.016 32.25 32.25 0 0 1-.38-.62c-.042-.07-.076-.127-.1-.17a.32.32 0 0 1-.033-.06c.001-.002.015.018.04.055l.108.166.393.612c.332.516.797 1.225 1.312 2.008.515.782.977 1.494 1.305 2.013.164.26.295.47.384.617l.102.17c.022.038.034.059.033.06Z" fill="#EACDC1"/><path d="M31.507 48.364c-.31-1.551-.603-3.672-.603-3.672s-.215-1.164-.298-2.285c-.087-1.188-1.193-4.624-1.193-4.624-2.63 2.352-10.234-.041-10.234-.041-2.686 3.984-3.056 7.584-2.822 10.633l7.415.069.13-.47.156.434 7.45-.044Z" fill="#A0BCC5"/><path d="M25.114 47.287c.011.01.15-.14.385-.368a9.81 9.81 0 0 1 .971-.83c.402-.296.79-.53 1.076-.688.287-.158.47-.247.464-.261-.005-.011-.198.055-.496.199a7.061 7.061 0 0 0-2.066 1.53c-.224.244-.343.41-.334.418ZM24.219 46.98c.006.002.042-.1.1-.284.059-.185.136-.456.223-.792a23.526 23.526 0 0 0 .733-5.37c.007-.348.005-.63-.003-.823-.006-.194-.013-.302-.02-.302-.006 0-.013.108-.018.302-.005.194-.014.474-.029.82-.03.693-.097 1.648-.24 2.696a29.917 29.917 0 0 1-.491 2.66c-.078.337-.145.61-.192.798-.047.188-.07.294-.063.295ZM24.136 39.255c0-.005-.037-.01-.099.013a.404.404 0 0 0-.204.178.397.397 0 0 0-.003.407.45.45 0 0 0 .448.216.449.449 0 0 0 .35-.353.397.397 0 0 0-.138-.382.403.403 0 0 0-.253-.1c-.065 0-.097.015-.096.02-.003.018.151-.014.301.131.071.07.127.186.096.312a.366.366 0 0 1-.277.274.365.365 0 0 1-.353-.166.327.327 0 0 1-.013-.326c.093-.187.25-.209.24-.224ZM21.24 39.447c.026.01.12-.188.211-.441.09-.253.143-.465.117-.474-.025-.01-.12.188-.21.44-.091.253-.144.465-.118.475ZM20.743 39.32c.027.008.104-.191.173-.444.069-.253.103-.464.076-.471-.027-.008-.104.191-.172.444-.069.253-.103.464-.077.472ZM28.434 39.321c.025.005.082-.213.048-.484-.032-.272-.14-.47-.163-.458-.027.01.035.214.065.47.032.256.021.468.05.472ZM27.886 39.512c.027-.004.028-.2.002-.44-.026-.241-.069-.434-.096-.43-.027.002-.029.2-.003.44.026.24.07.432.096.43Z" fill="#306074"/><g opacity=".56"><path d="M12.627 32.096c-.137-.297-.457-1.878-.58-2.828-.124-.95.317-2.194.736-2.848.42-.653.652-.782.753-1.378.1-.597.426-1.386 1.05-2.187.623-.8.986-1.102 1.388-1.071.401.031.465.96.538 1.14.073.18.724.614.655 1.34-.069.724-.257 1.005-.238 1.246.018.24.323.573.16 1.178-.165.605-1.17 1.205-1.38 1.54-.211.334-.534 1.232-.934 1.716-.4.485-1.118.9-1.41 1.256-.29.356-.738.896-.738.896Z" fill="#F5C130"/><path d="M12.627 32.096c-.137-.297-.457-1.878-.58-2.828-.124-.95.317-2.194.736-2.848.42-.653.652-.782.753-1.378.1-.597.426-1.386 1.05-2.187.623-.8.986-1.102 1.388-1.071.401.031.465.96.538 1.14.073.18.724.614.655 1.34-.069.724-.257 1.005-.238 1.246.018.24.323.573.16 1.178-.165.605-1.17 1.205-1.38 1.54-.211.334-.534 1.232-.934 1.716-.4.485-1.118.9-1.41 1.256-.29.356-.738.896-.738.896Z" fill="#CCD8DB"/><g opacity=".2" fill="#040000"><path d="M12.66 31.686a33.818 33.818 0 0 1 .616-2.336c.116-.386.243-.769.387-1.146.034-.095.073-.188.11-.28.037-.095.08-.187.121-.279.041-.092.085-.182.124-.274.04-.092.076-.186.112-.28.14-.376.254-.763.36-1.15.106-.389.202-.78.3-1.17.097-.391.193-.782.3-1.171.054-.194.11-.388.175-.578.067-.19.136-.381.246-.55a2.553 2.553 0 0 0-.235.553 10.51 10.51 0 0 0-.166.58c-.102.39-.194.782-.288 1.174-.093.392-.19.783-.293 1.172-.106.389-.218.777-.358 1.156a6.581 6.581 0 0 1-.113.281c-.04.093-.085.184-.126.276-.041.09-.084.182-.12.276-.038.092-.077.185-.112.28-.145.375-.271.757-.392 1.14-.12.385-.234.771-.34 1.16-.11.386-.213.775-.309 1.166Z"/><path d="M12.66 27.518a9.772 9.772 0 0 0-.047.787c-.004.263-.003.526.025.787.025.26.069.52.117.779.024.129.05.258.08.386.026.13.056.257.088.385a8.238 8.238 0 0 1-.329-1.546 5.676 5.676 0 0 1-.014-.791c.013-.264.038-.528.08-.787ZM15.334 28.052a17.438 17.438 0 0 1-.945 1.262c-.087.099-.172.2-.275.286a2.12 2.12 0 0 1-.333.216c-.232.125-.473.23-.72.32a8.63 8.63 0 0 0 .704-.35c.112-.066.224-.134.324-.218.097-.083.181-.185.267-.284.17-.198.332-.405.494-.611l.484-.62ZM13.824 25.424c-.007.098-.015.196-.02.294a12.437 12.437 0 0 0-.029.883c-.001.197.006.393.017.589.008.098.014.196.027.293.008.098.026.194.039.292a4.026 4.026 0 0 1-.1-.582 7.29 7.29 0 0 1-.027-.592c.002-.197.008-.394.024-.59.015-.196.035-.393.069-.587ZM16.563 24.068a5.905 5.905 0 0 1-.42.61 7.195 7.195 0 0 1-.486.561c-.175.175-.36.341-.556.493-.2.147-.411.277-.637.379.106-.063.217-.119.317-.191.105-.064.2-.142.299-.216.19-.155.374-.32.545-.496a8.518 8.518 0 0 0 .72-.841c.076-.098.147-.198.218-.3ZM16.107 23.578a4.54 4.54 0 0 1-.57.873c-.028.034-.058.066-.088.098-.03.033-.058.066-.09.096l-.092.092c-.033.03-.066.059-.1.087-.134.111-.28.211-.441.276l.112-.065c.038-.021.071-.05.107-.074l.053-.037.05-.041c.032-.028.067-.054.098-.085a3.6 3.6 0 0 0 .356-.375c.113-.131.215-.271.316-.411.05-.07.1-.142.147-.215a5.67 5.67 0 0 0 .142-.219Z"/></g><path d="m11.28 40.548-.29.02s.15-3.602.529-5.065c.455-1.76 1.037-3.078 1.014-3.699l.281.067s-.807 2.296-1.057 3.55c-.25 1.253-.478 5.127-.478 5.127Z" fill="#F5C130"/><path d="m11.28 40.548-.29.02s.15-3.602.529-5.065c.455-1.76 1.037-3.078 1.014-3.699l.281.067s-.807 2.296-1.057 3.55c-.25 1.253-.478 5.127-.478 5.127Z" fill="#CCD8DB"/><path d="M9.628 34.675s-.006-.91.094-1.744c.043-.355-.182-1.532-.383-2.075-.2-.543-1.005-2.144-1.38-2.398-.374-.253-2.108-1.113-2.845-1.063-.736.05-.557.706-.345 1.157.213.451.847 1.13 1.074 1.524.228.393.846 2.165 1.135 2.66.289.494.737 1.291 1.094 1.507.357.216 1.295.244 1.556.432Z" fill="#F5C130"/><path d="M9.628 34.675s-.006-.91.094-1.744c.043-.355-.182-1.532-.383-2.075-.2-.543-1.005-2.144-1.38-2.398-.374-.253-2.108-1.113-2.845-1.063-.736.05-.557.706-.345 1.157.213.451.847 1.13 1.074 1.524.228.393.846 2.165 1.135 2.66.289.494.737 1.291 1.094 1.507.357.216 1.295.244 1.556.432Z" fill="#CCD8DB"/><g opacity=".2" fill="#040000"><path d="M5.03 27.64c.162.071.313.166.463.262a12.458 12.458 0 0 1 1.276.962c.133.118.266.236.384.37.06.07.112.141.161.215.05.074.098.149.146.223a21.139 21.139 0 0 1 .798 1.386c.082.157.163.316.23.483.13.33.256.662.379.995l.368 1 .345 1.007-.365-1-.38-.995c-.128-.331-.252-.664-.385-.992a5.294 5.294 0 0 0-.23-.479 19.81 19.81 0 0 0-.254-.466c-.173-.31-.351-.617-.54-.917-.047-.075-.095-.15-.145-.223a2.2 2.2 0 0 0-.157-.211 4.733 4.733 0 0 0-.379-.37 12.55 12.55 0 0 0-.827-.669c-.141-.107-.286-.21-.432-.31a3.296 3.296 0 0 0-.457-.27Z"/><path d="M5.35 28.862c.08.059.16.118.24.174.081.056.163.112.247.165.167.104.338.206.522.27.046.015.091.027.14.037l.146.031c.097.023.194.045.29.073.19.052.38.107.57.169l-.58-.136-.289-.066a4.135 4.135 0 0 0-.145-.03c-.048-.008-.1-.02-.146-.037a1.782 1.782 0 0 1-.273-.126 2.92 2.92 0 0 1-.253-.157 4.634 4.634 0 0 1-.47-.367ZM7.72 28.628c.081.162.134.337.192.507a10.371 10.371 0 0 1 .225.782c.01.044.021.088.03.133a.54.54 0 0 1 .01.139c-.01.183-.061.36-.127.528.025-.087.047-.174.063-.263.017-.088.03-.177.03-.265a.642.642 0 0 0-.013-.131 13.35 13.35 0 0 0-.103-.391c-.047-.175-.098-.347-.147-.521-.024-.087-.05-.174-.075-.26-.026-.087-.05-.174-.084-.258ZM6.938 31.326l.22.178c.072.06.145.12.22.177.147.116.295.234.452.334l.06.036.06.03.129.06c.085.041.171.08.255.122l.255.124c.084.042.169.084.252.128-.088-.035-.175-.073-.262-.109l-.259-.112c-.086-.037-.172-.077-.258-.115l-.128-.059-.065-.031-.062-.037a4.63 4.63 0 0 1-.45-.344 7.717 7.717 0 0 1-.419-.382ZM6.751 32.005a9.347 9.347 0 0 0 .504.414c.087.065.174.13.264.19.09.06.184.115.281.16a.89.89 0 0 0 .15.055l.158.04c.106.027.211.053.317.082l.315.085c.105.03.21.058.315.09-.107-.022-.213-.047-.32-.07l-.319-.072c-.106-.024-.212-.05-.318-.076l-.159-.039a.931.931 0 0 1-.157-.056 2.006 2.006 0 0 1-.285-.166 3.44 3.44 0 0 1-.263-.197 5.468 5.468 0 0 1-.483-.44Z"/></g><path d="M9.503 34.565c.09.126.352.978.531 1.907.24 1.245.503 4.129.503 4.129l.3-.021s-.44-3.427-.632-4.264c-.192-.838-.602-1.833-.602-1.833l-.1.082Z" fill="#F5C130"/><path d="M9.503 34.565c.09.126.352.978.531 1.907.24 1.245.503 4.129.503 4.129l.3-.021s-.44-3.427-.632-4.264c-.192-.838-.602-1.833-.602-1.833l-.1.082Z" fill="#CCD8DB"/><path d="M11.924 36.612c.078-.401.108-.624.01-1.14-.099-.515-.414-1.04-.14-1.502.273-.462.904-.797 1.004-1.093.1-.297.41-1.097 1.084-1.679.674-.582 1.512-1.008 1.942-1.39.43-.38.945-1.058 1.264-.852.32.206-.11 2.285-.366 2.544-.255.26-.569 2.05-1.003 2.37-.434.321-.841.38-.938.51-.098.128-.311.555-.68.72-.37.163-1.204.634-1.595.921-.39.288-.582.591-.582.591Z" fill="#E1E9EB"/><g opacity=".2" fill="#040000"><path d="M11.925 36.612c.33-.666.688-1.318 1.07-1.957.38-.64.79-1.263 1.232-1.861.442-.598.903-1.182 1.34-1.783a41.742 41.742 0 0 0 1.263-1.837c-.197.314-.395.63-.601.939-.206.31-.418.615-.634.918-.432.606-.893 1.19-1.333 1.79-.221.298-.437.6-.642.91a33.506 33.506 0 0 0-1.161 1.903c-.184.322-.363.648-.534.978Z"/><path d="M12.757 35.056c.11-.06.222-.12.332-.183.11-.06.22-.122.33-.185.22-.125.44-.249.657-.378.219-.127.435-.256.651-.387l.649-.394c-.104.073-.208.144-.313.215-.106.07-.211.14-.318.207-.212.137-.43.267-.647.397-.219.126-.439.25-.663.37-.223.119-.448.234-.678.338ZM13.275 32.061c-.014.097-.028.193-.039.29a10.287 10.287 0 0 0-.075.868 8.095 8.095 0 0 0-.012.58l.003.146.006.145c.002.098.014.194.018.291a4.702 4.702 0 0 1-.061-.58 6.575 6.575 0 0 1 .16-1.74ZM14.163 31.073c-.015.087-.032.173-.045.26a10.29 10.29 0 0 0-.143 1.305c-.001.088-.005.175-.001.263-.002.088.007.175.01.263a3.318 3.318 0 0 1-.044-.526c0-.177.011-.353.027-.528.02-.175.043-.35.076-.523.033-.173.07-.345.12-.514ZM16.85 30.732c-.07.064-.144.123-.218.183a8.075 8.075 0 0 1-.703.488 7.523 7.523 0 0 1-.497.28 5.837 5.837 0 0 1-.519.236c.084-.046.17-.085.253-.131.084-.044.168-.088.25-.136l.247-.14c.082-.048.163-.096.243-.147.163-.097.321-.201.479-.307.157-.105.313-.214.466-.326Z"/></g><path d="M11.983 36.258c-.352.884-.493 4.274-.493 4.274l.205-.014s.109-3.61.43-4.155l-.142-.105ZM10.884 33.167a2.952 2.952 0 0 0-.87-1.507c-.49-.453-1.333-1.154-1.683-2.623-.349-1.468.056-2.897.132-3.255.076-.358.274-.858.438-.9.165-.042.543.128.848.137.306.009.912-.035 1.495.655.583.69 1.315 1.124 1.787 2.173.471 1.048.516 2.934-.155 3.562-.671.627-1.341.843-1.624 1.153-.283.31-.368.605-.368.605Z" fill="#E1E9EB"/><g opacity=".2" fill="#040000"><path d="M9.111 25.05c.138.103.251.235.355.372.103.138.196.283.284.43.175.297.33.605.473.917a14.34 14.34 0 0 1 .567 1.44c.055.164.1.33.137.499.072.337.12.678.163 1.02.042.34.077.683.099 1.026.01.171.02.343.022.515.005.173-.013.346-.041.516-.06.339-.149.671-.253.999.097-.33.18-.664.232-1.003.06-.339.03-.683.005-1.025-.027-.342-.06-.684-.104-1.024a11.97 11.97 0 0 0-.167-1.015 4.768 4.768 0 0 0-.133-.495c-.053-.163-.11-.325-.17-.486-.118-.321-.25-.639-.388-.952-.14-.314-.29-.623-.46-.92a4.971 4.971 0 0 0-.275-.435c-.1-.14-.21-.273-.346-.38Z"/><path d="M8.463 27.413c.17.173.358.325.552.468.195.143.395.279.602.405.205.127.408.26.633.347a8.846 8.846 0 0 0 .687.232 5.004 5.004 0 0 1-.7-.2 2.026 2.026 0 0 1-.331-.156 7.592 7.592 0 0 1-.911-.6 4.996 4.996 0 0 1-.28-.234 2.937 2.937 0 0 1-.252-.262ZM11.129 25.773c.014.18.02.361.018.542-.002.181-.011.362-.035.542a1.51 1.51 0 0 1-.168.519 2.11 2.11 0 0 1-.311.444 2.714 2.714 0 0 0 .28-.46 1.474 1.474 0 0 0 .154-.51c.028-.176.037-.356.046-.536.005-.09.008-.18.01-.27l.006-.27ZM12.818 28.075c-.031.145-.067.29-.103.434-.037.144-.075.288-.116.431-.08.287-.17.571-.271.852-.055.139-.11.278-.18.41-.018.034-.04.066-.06.098-.02.032-.045.06-.067.09l-.072.087-.076.082a4.688 4.688 0 0 1-.68.58 6.048 6.048 0 0 0 .655-.603c.097-.11.197-.223.264-.352.069-.13.121-.27.174-.408.105-.277.193-.561.28-.845.088-.284.17-.57.252-.856ZM9.098 29.73l.226.283c.075.095.151.19.228.283.153.188.306.375.466.556.158.182.324.358.507.514.092.078.188.15.29.213.103.063.21.12.328.152a1.159 1.159 0 0 1-.338-.133 2.277 2.277 0 0 1-.302-.206 4.279 4.279 0 0 1-.518-.511 13.24 13.24 0 0 1-.887-1.152ZM12.198 28.76a8.123 8.123 0 0 1-.355.984c-.036.08-.074.16-.114.237-.022.039-.042.078-.066.115l-.037.056-.044.051a1.66 1.66 0 0 1-.428.303c.075-.046.146-.096.212-.151.068-.055.132-.113.191-.176.055-.062.095-.141.136-.216.038-.078.075-.157.109-.236.071-.159.136-.32.201-.482l.195-.485Z"/></g><path d="m10.731 40.587-.283.02s.591-6.326.34-7.767l.188.113s.322 4.484-.245 7.634Z" fill="#E1E9EB"/><path d="M13.28 45.918H9.101l-.466-6.328h5.111l-.466 6.328Z" fill="#E1E9EB"/><path d="m8.635 39.59.122 1.659h4.867l.122-1.66H8.635Z" fill="#C1D4D8"/><path opacity=".1" d="M13.28 45.918 10.252 44.4 9.125 39.59h-.49l.466 6.328h4.18Z" fill="#040000"/></g></g></g><defs><clipPath id="a"><rect width="48" height="48" rx="24" fill="#fff"/></clipPath><clipPath id="b"><path fill="#fff" d="M0 0h48v48H0z"/></clipPath></defs></svg>