<svg width="48" height="48" fill="none" xmlns="http://www.w3.org/2000/svg"><g clip-path="url(#a)"><rect width="48" height="48" rx="24" fill="#fff"/><g clip-path="url(#b)"><path opacity=".14" d="M6.776 26.001c-9.939 5.739-9.938 15.042 0 20.78 9.94 5.738 26.053 5.738 35.992 0 9.939-5.738 9.938-15.041 0-20.78-9.94-5.738-26.054-5.738-35.992 0Z" fill="#6D8487"/><path d="M9.578 45.72c-.068.188-.268.304-.602.348l-5.455-3.186-.617-.625c-.036-.036.001-.095.05-.08l1.135.377 5.49 3.166ZM41.046 44.651c.069.188.269.304.602.348l5.456-3.186.617-.625c.036-.036-.001-.095-.05-.08l-1.136.377-5.49 3.166ZM37.98 32.876l5.557-3.208c.143-.083.143-.216 0-.3l-7.443-4.296a.572.572 0 0 0-.518 0l-5.557 3.208c-.143.082-.143.216 0 .299l7.444 4.297a.572.572 0 0 0 .518 0ZM12.362 43.951l6.184-3.57c.159-.092.159-.241 0-.333l-8.283-4.782a.637.637 0 0 0-.577 0l-6.183 3.57c-.159.092-.159.241 0 .333l8.283 4.783c.159.091.417.091.576 0ZM5.726 42.685l6.249 3.613.965.197a.03.03 0 0 0 .032-.043l-.302-.555-6.25-3.613c-.19-.11-.843.316-.694.401ZM44.9 41.617l-6.25 3.613-.965.196a.03.03 0 0 1-.032-.043l.302-.554 6.25-3.614c.19-.11.843.316.694.402ZM38.384 42.151l10.991-6.346-7.144-4.125-10.992 6.347 7.145 4.124Z" fill="#E0E0E0"/><path opacity=".45" d="m14.221 5.089-.005-.003-.505-.294-.007-.004c-.546-.276-1.274-.195-2.059.31-1.575 1.015-2.779 3.355-2.688 5.227.045.933.404 1.573.947 1.855l.005.003.506.294.006.004c.545.277 1.275.196 2.06-.31 1.575-1.015 2.779-3.355 2.688-5.227-.046-.932-.405-1.573-.948-1.855Z" fill="#6D8487"/><path opacity=".45" d="M12.48 12.201c1.576-1.014 2.78-3.354 2.689-5.226-.091-1.872-1.442-2.567-3.018-1.552-1.575 1.014-2.779 3.354-2.688 5.226.09 1.872 1.442 2.567 3.017 1.552Z" fill="#759DA5"/><path d="M11.16 12.07c-.929.046-1.08-.999-1.102-1.45-.08-1.651 1.026-3.802 2.415-4.697.354-.228.699-.356.998-.37.929-.045 1.08 1 1.102 1.45.08 1.652-1.026 3.802-2.415 4.697-.354.228-.699.356-.998.37Z" fill="#fff"/><path opacity=".45" d="M12.498 9.121a.101.101 0 0 1-.101-.1V6.63a.101.101 0 1 1 .202 0v2.095l1.114-1.43a.101.101 0 0 1 .16.123l-1.296 1.663a.1.1 0 0 1-.08.04Z" fill="#6D8487"/><path opacity=".45" d="m11.927 10.885-.014-.001a.042.042 0 0 1-.03-.053l.562-1.89a.043.043 0 1 1 .082.024l-.561 1.89a.043.043 0 0 1-.04.03Z" fill="#6D8487"/><path opacity=".45" d="M12.465 8.543c.186-.12.345-.038.356.182a.764.764 0 0 1-.317.615c-.185.12-.344.038-.355-.183a.764.764 0 0 1 .316-.614Z" fill="#6D8487"/><path d="M24.217 10.32V2.15l9.544 5.51v8.172l-9.544-5.51Z" fill="#FBFBFB"/><path d="m24.242 2.192 9.494 5.482v8.114l-9.494-5.481V2.192Zm-.05-.086v8.23l9.594 5.539v-8.23l-9.595-5.54Z" fill="#EBEBEB"/><path d="M34.06 7.487v8.23l-.275.158v-8.23l.274-.158Z" fill="#E0E0E0"/><path d="m24.191 2.106.275-.158 9.594 5.539-.274.158-9.595-5.54Z" fill="#E0E0E0"/><path d="m24.191 2.106.275-.158 9.594 5.539-.274.158-9.595-5.54Z" fill="#6C99AF"/><path d="m24.191 2.106.275-.158 9.594 5.539-.274.158-9.595-5.54Z" fill="#fff" opacity=".4"/><path d="m34.06 7.487-.275.158v1.583l.274-.159V7.487Z" fill="#6C99AF"/><path d="m34.06 7.487-.275.158v1.583l.274-.159V7.487Z" fill="#040000" opacity=".1"/><path d="m33.786 9.228-9.595-5.54V2.106l9.595 5.539v1.583Z" fill="#6C99AF"/><path d="M33.135 9.738c0 .088-.065.12-.146.074l-.72-.415a.313.313 0 0 1-.146-.243c0-.087.065-.12.146-.074l.72.416a.312.312 0 0 1 .146.242ZM31.921 9.038c0 .087-.065.12-.146.074l-.72-.416a.313.313 0 0 1-.146-.242c0-.088.066-.12.146-.074l.72.415c.08.047.146.155.146.243ZM30.708 8.337c0 .087-.065.12-.146.074l-.72-.415a.313.313 0 0 1-.146-.243c0-.088.066-.12.146-.074l.72.415c.08.047.146.156.146.243ZM29.494 7.636c0 .088-.065.12-.146.074l-.72-.415a.313.313 0 0 1-.146-.243c0-.087.066-.12.147-.073l.72.415c.08.046.145.155.145.242ZM28.28 6.936c0 .087-.065.12-.146.073l-.72-.415a.313.313 0 0 1-.145-.242c0-.088.065-.12.146-.074l.719.415a.313.313 0 0 1 .147.243ZM27.067 6.235c0 .088-.066.12-.146.074l-.72-.415a.313.313 0 0 1-.146-.243c0-.087.065-.12.146-.074l.719.415a.312.312 0 0 1 .147.243ZM25.854 5.535c0 .087-.066.12-.146.073l-.72-.415a.313.313 0 0 1-.146-.242c0-.088.065-.12.146-.074l.72.415c.08.047.146.155.146.243Z" fill="#445962"/><path d="m33.073 10.57-.883-.508v.795l.883.521v-.808ZM33.073 11.687l-.883-.508v.796l.883.52v-.808ZM33.073 12.804l-.883-.508v.796l.883.52v-.808ZM33.073 13.921l-.883-.507v.795l.883.52v-.808ZM31.857 9.869l-.883-.508v.795l.883.52V9.87ZM31.857 10.986l-.883-.508v.795l.883.521v-.808ZM31.857 12.103l-.883-.508v.796l.883.52v-.808ZM31.857 13.22l-.883-.508v.796l.883.52v-.808ZM30.643 9.168l-.882-.508v.795l.882.521v-.808ZM30.643 10.285l-.882-.508v.795l.882.52v-.807ZM30.643 11.402l-.882-.508v.796l.882.52v-.808ZM30.643 12.52l-.882-.508v.795l.882.52v-.808ZM29.429 8.467l-.883-.508v.795l.883.52v-.807ZM29.429 9.583l-.883-.507v.795l.883.52v-.808ZM29.429 10.7l-.883-.507v.795l.883.521v-.808ZM29.429 11.818l-.883-.508v.796l.883.52v-.808ZM28.215 7.765l-.883-.507v.795l.883.52v-.808ZM28.215 8.883l-.883-.508v.795l.883.52v-.807ZM28.215 10l-.883-.508v.796l.883.52V10ZM28.215 11.117l-.883-.508v.795l.883.521v-.808ZM27 7.064l-.883-.508v.796l.883.52v-.808ZM27 8.182l-.883-.508v.795l.883.52v-.807ZM27 9.299l-.883-.508v.795l.883.521v-.808ZM27 10.416l-.883-.508v.796l.883.52v-.808Z" fill="#E0E0E0"/><path d="m25.786 6.363-.883-.507v.795l.883.52v-.808ZM25.786 7.48l-.883-.508v.796l.883.52V7.48ZM25.786 8.598l-.883-.508v.795l.883.52v-.807ZM25.786 9.715l-.883-.508v.795l.883.521v-.808Z" fill="#6C99AF"/><path d="m24.926 5.57-.07.146c-.004.01-.012.013-.021.01l-.154-.06c-.025-.01-.034.025-.017.058l.111.21c.008.013.01.027.009.04l-.026.188c-.004.03.021.07.043.067l.138-.017c.009 0 .019.005.027.016l.138.176c.022.028.047.018.043-.017l-.026-.22c-.002-.013.001-.025.008-.03l.112-.08c.018-.013.008-.058-.017-.077l-.153-.12a.068.068 0 0 1-.023-.034L24.98 5.6c-.012-.035-.043-.053-.054-.03Z" fill="#445962"/><path d="M30.892 12.067c.007-.13.056-.257.188-.304.162-.058.298.07.398.178.027.029-.02.043-.042.023-.104-.099-.296-.197-.408-.065-.11.129-.054.324.003.466.094.238.335.486.61.445.57-.084.024-1.106-.407-1.166-.029-.004-.049-.06-.01-.057.214.023.329.139.441.26.125.135.204.278.269.452.12.32-.057.713-.449.589-.342-.11-.614-.45-.593-.821ZM32.067 11.882c.035-.062.087-.1.132-.153.017-.02.062.004.05.03-.025.061-.078.095-.11.15l-.018.028c.077-.063.243-.086.311-.103.22-.054.429-.016.636.058.02.007.013.026-.005.028-.037.004-.056-.008-.092-.017a1.23 1.23 0 0 0-.333-.024c-.105.004-.357.04-.467.12.11-.018.228-.01.297.073.008.01.008.028-.008.03-.07.008-.129-.018-.199-.016a.81.81 0 0 0-.239.042c-.03.01-.053-.022-.051-.049.003-.077.06-.134.096-.197ZM28.13 10.66c-.045-.09-.112-.173-.168-.258a98.388 98.388 0 0 0-.141-.213l.012-.005c.054-.02.107-.043.162-.064l.083-.034c.021-.01.041-.017.054-.037.006-.01 0-.029-.013-.03-.054-.004-.11.029-.16.049-.055.02-.11.042-.165.064-.003 0-.006.002-.008.003-.116-.176-.224-.364-.36-.525-.013-.015-.025.005-.02.018.038.093.094.18.146.266.053.09.11.179.165.268l-.263.102c-.038.016-.001.071.03.06l.267-.108.135.21c.057.087.11.182.176.261.024.03.091.018.069-.027ZM29.347 11.357c-.045-.09-.112-.173-.168-.258l-.141-.213.012-.005.161-.064.084-.034c.021-.01.041-.017.054-.037.006-.01 0-.03-.013-.03-.054-.004-.11.029-.16.048l-.165.064-.008.004c-.116-.176-.224-.364-.36-.525-.013-.015-.025.005-.02.018.038.093.094.18.145.266.054.09.11.179.166.268l-.264.102c-.037.015 0 .071.031.059.09-.035.178-.07.267-.107l.135.21c.056.087.109.183.176.261.024.03.091.018.068-.027ZM30.542 12.058c-.046-.09-.113-.174-.169-.258a98.394 98.394 0 0 0-.141-.213l.012-.005.162-.064.083-.034c.022-.01.042-.017.055-.037.005-.01-.001-.03-.013-.03-.055-.004-.111.029-.161.048l-.165.064-.008.003c-.116-.175-.224-.364-.36-.524-.013-.015-.025.004-.02.018.038.093.094.18.146.266.053.09.11.179.165.268-.088.034-.176.067-.263.102-.038.015-.001.07.03.059.09-.035.179-.07.268-.107.044.07.088.141.134.21.057.087.11.183.176.261.024.03.092.018.069-.027ZM26.92 9.952c-.046-.09-.113-.173-.169-.258a87.444 87.444 0 0 0-.141-.213l.012-.005c.054-.02.107-.043.162-.064l.083-.034c.022-.01.042-.017.054-.037.006-.01 0-.029-.012-.03-.055-.003-.112.029-.161.049-.055.02-.11.042-.165.064-.003 0-.006.002-.008.003-.116-.176-.224-.364-.36-.525-.013-.015-.025.005-.02.018.038.093.094.18.146.266.053.09.11.179.165.268l-.263.102c-.038.016-.001.071.03.06l.268-.108c.044.07.088.141.134.21.057.087.11.183.176.262.024.028.091.017.069-.028ZM28.13 9.522c-.045-.09-.112-.174-.168-.258a89.435 89.435 0 0 0-.141-.213l.012-.005.162-.064.083-.034c.021-.01.041-.017.054-.037.006-.01 0-.03-.013-.03-.054-.004-.11.029-.16.048l-.165.064-.008.003c-.116-.175-.224-.364-.36-.524-.013-.015-.025.004-.02.018.038.093.094.18.146.266.053.09.11.179.165.268l-.263.102c-.038.015-.001.07.03.059.09-.035.179-.07.267-.107l.135.21c.057.087.11.183.176.261.024.03.091.018.069-.027ZM29.347 10.218c-.045-.09-.112-.173-.168-.258l-.141-.212.012-.005.161-.065c.028-.01.056-.022.084-.034.021-.009.041-.016.054-.037.006-.01 0-.029-.013-.03-.054-.003-.11.03-.16.049l-.165.064c-.003 0-.006.002-.008.003-.116-.176-.224-.364-.36-.525-.013-.015-.025.005-.02.018.038.094.094.18.145.266.054.09.11.18.166.268l-.264.103c-.037.015 0 .07.031.058.09-.034.178-.07.267-.106l.135.21c.056.087.109.182.176.26.024.03.091.018.068-.027ZM30.542 10.92c-.046-.09-.113-.174-.169-.258a98.394 98.394 0 0 0-.141-.213l.012-.005.162-.064.083-.034c.022-.01.042-.017.055-.037.005-.01-.001-.03-.013-.03-.055-.004-.111.029-.161.048l-.165.064-.008.003c-.116-.175-.224-.364-.36-.524-.013-.015-.025.004-.02.018.038.093.094.18.146.266.053.09.11.178.165.267l-.263.103c-.038.015-.001.07.03.059l.268-.107c.044.07.088.14.134.21.057.087.11.182.176.261.024.029.092.018.069-.027ZM26.92 8.813c-.046-.09-.113-.173-.169-.257l-.141-.213.012-.005.162-.065c.028-.01.056-.021.083-.033.022-.01.042-.017.054-.038.006-.01 0-.029-.012-.03-.055-.003-.112.03-.161.049l-.165.064c-.003 0-.006.002-.008.003-.116-.176-.224-.364-.36-.524-.013-.016-.025.004-.02.017.038.094.094.18.146.267.053.09.11.178.165.267l-.263.103c-.038.015-.001.07.03.058.09-.034.179-.07.268-.106.044.07.088.14.134.21.057.087.11.182.176.26.024.03.091.018.069-.027ZM28.13 8.407c-.045-.09-.112-.174-.168-.258a87.447 87.447 0 0 0-.141-.213l.012-.005.162-.064.083-.034c.021-.01.041-.017.054-.037.006-.01 0-.03-.013-.03-.054-.004-.11.029-.16.048l-.165.064-.008.003c-.116-.175-.224-.364-.36-.524-.013-.015-.025.004-.02.018.038.093.094.18.146.266.053.09.11.179.165.267l-.263.103c-.038.015-.001.07.03.059.09-.035.179-.07.267-.107l.135.21c.057.087.11.183.176.261.024.03.091.018.069-.027ZM29.347 9.104c-.045-.09-.112-.174-.168-.258l-.141-.213.012-.005.161-.064.084-.034c.021-.01.041-.017.054-.038.006-.01 0-.028-.013-.03-.054-.003-.11.03-.16.05-.056.02-.11.042-.165.063l-.008.003c-.116-.175-.224-.364-.36-.524-.013-.015-.025.004-.02.018.038.093.094.18.145.266.054.09.11.178.166.267l-.264.103c-.037.015 0 .07.031.059l.267-.107.135.21c.056.087.109.182.176.261.024.029.091.017.068-.027ZM30.542 9.804c-.046-.09-.113-.173-.169-.257a89.44 89.44 0 0 0-.141-.213l.012-.005.162-.065c.028-.01.056-.021.083-.033.022-.01.042-.017.055-.038.005-.009-.001-.029-.013-.03-.055-.003-.111.03-.161.049l-.165.064c-.003 0-.005.002-.008.003-.116-.175-.224-.364-.36-.524-.013-.015-.025.004-.02.017.038.094.094.18.146.267.053.09.11.178.165.267l-.263.103c-.038.015-.001.07.03.059l.268-.107c.044.07.088.14.134.21.057.087.11.182.176.261.024.03.092.017.069-.028ZM31.778 11.65c-.046-.09-.112-.173-.168-.257a98.394 98.394 0 0 0-.142-.213l.012-.005.162-.064.084-.034c.021-.01.041-.017.054-.037.006-.01-.001-.03-.013-.03-.055-.004-.111.029-.16.048l-.166.064-.008.003c-.116-.175-.223-.364-.36-.524-.013-.015-.024.004-.019.018.037.093.093.18.145.266.054.09.11.178.165.267l-.263.103c-.038.015 0 .07.03.059.09-.035.18-.07.268-.107.044.07.089.141.135.21.056.087.108.183.176.261.023.03.09.017.068-.027ZM31.778 10.536c-.046-.09-.112-.174-.168-.258l-.142-.213.012-.005.162-.064.084-.034c.021-.01.041-.017.054-.038.006-.009-.001-.028-.013-.03-.055-.003-.111.03-.16.05-.056.02-.11.042-.166.063l-.008.003c-.116-.175-.223-.364-.36-.524-.013-.015-.024.004-.019.018.037.093.093.18.145.266.054.09.11.178.165.267l-.263.103c-.038.015 0 .07.03.059l.268-.107.135.21c.056.087.108.182.176.261.023.03.09.017.068-.027ZM26.92 7.699c-.046-.09-.113-.174-.169-.258l-.141-.213.012-.005.162-.064.083-.034c.022-.01.042-.017.054-.037.006-.01 0-.03-.012-.03-.055-.004-.112.029-.161.048l-.165.064-.008.003c-.116-.175-.224-.364-.36-.524-.013-.015-.025.004-.02.018.038.093.094.18.146.266.053.09.11.179.165.267l-.263.103c-.038.015-.001.07.03.059.09-.035.179-.07.268-.107.044.07.088.141.134.21.057.087.11.183.176.261.024.03.091.018.069-.027Z" fill="#01435C"/><g opacity=".64"><path d="m42.731 29.578-.197-.106.18-.043c.037.043.039.093.017.149Z" fill="#6C99AF"/><path opacity=".5" d="m42.731 29.578-.197-.106.18-.043c.037.043.039.093.017.149Z" fill="#040000"/><path d="M37.511 32.207c.11.064.29.064.401 0l4.5-2.598-6.736-3.825-.157-.091-4.499 2.534c-.11.064-.11.168 0 .232l6.491 3.748Z" fill="#6C99AF"/><path d="m39.2 27.363 1.57.903 1.015-.586 1.181.683v.788c0 .103-.116.25-.158.226 0 0-.092.02-.225.08-.134.062-.327.242-.327.242l-3.605-2.019.55-.317Z" fill="#6C99AF"/><path opacity=".15" d="m39.2 27.363 1.57.903 1.015-.586 1.181.683v.788c0 .103-.116.25-.158.226 0 0-.092.02-.225.08-.134.062-.327.242-.327.242l-3.605-2.019.55-.317Z" fill="#040000"/><path d="M42.318 28.457v.856a.407.407 0 0 1 .206-.069c.05 0 .093.004.127.03v-1.009l-.333.192Z" fill="#36464E"/><path d="M42.098 29.607a.266.266 0 0 1 .056-.146.529.529 0 0 1 .055-.063l.02-.018.024-.021a1.62 1.62 0 0 1 .065-.046v-.852l-.22.127v-.004 1.023Z" fill="#E0E0E0"/><path opacity=".4" d="M42.966 29.15c0 .104-.116.25-.158.227l-.158-.103v-.65l.159-.272.086-.031.071.041v.789Z" fill="#040000"/><path d="M37.71 31.117v.976c.05 0 .098-.01.134-.031l.494-.285 3.76-2.17v-1.023l-4.387 2.533Z" fill="#EBEBEB"/><path d="M31.132 27.449v.737c0 .085.06.19.133.232l5.82 3.36.492.284a.264.264 0 0 0 .134.031v-.866l-6.58-3.778Z" fill="#F5F5F5"/><path d="m35.676 24.515 6.734 3.889v.09c0 .05.07.068.157.018s.157-.112.157-.199l.009-.085-6.863-3.962-.027-.016a.09.09 0 0 0-.012.042v.042c0 .05-.069.13-.155.18Z" fill="#6C99AF"/><path opacity=".1" d="m35.676 24.515 6.734 3.889v.09c0 .05.07.068.157.018s.157-.112.157-.199l.009-.085-6.863-3.962-.027-.016a.09.09 0 0 0-.012.042v.042c0 .05-.069.13-.155.18Z" fill="#040000"/><path d="m37.912 31.001 4.4-2.54c.055-.029.106-.053.128-.041l-.03-.016-6.734-3.889-.079-.045c-.043-.026-.138-.011-.212.031l-4.365 2.52c-.11.065-.11.169 0 .232l6.491 3.749c.11.063.29.063.401 0ZM35.844 24.25l.027.016 6.862 3.962s.005-.011.015-.02l.023-.012.05-.029.06-.035c.029-.016.055-.013.078.007a.151.151 0 0 1 .029.036.314.314 0 0 1 .032.084.786.786 0 0 1 .01.052c.002.01.003.02.003.031l.003.026a.68.68 0 0 1 .002.06v-.193c0-.107-.09-.245-.2-.309l-6.492-3.748c-.112-.064-.271-.075-.357-.026l-.082.048-.003.002-.035.02a.066.066 0 0 0-.025.028ZM37.912 32.207l.272-.158 4.073-2.351a.258.258 0 0 1 .055-.146.58.58 0 0 1 .179-.157.407.407 0 0 1 .192-.06c.049 0 .092.016.126.042a.7.7 0 0 0 .075-.337h.154c0 .213-.07.427-.156.476l-.078.046c-.044.025-.079.027-.079.003v-.042c0-.046-.07-.044-.157.006-.086.05-.157.128-.157.174v.042c0 .024-.06.077-.133.12l-3.939 2.274-.427.247a.421.421 0 0 1-.2.048v-.178a.415.415 0 0 0 .2-.05Z" fill="#6C99AF"/><path opacity=".3" d="m37.912 32.207.272-.158 4.073-2.351a.258.258 0 0 1 .055-.146.58.58 0 0 1 .179-.157.407.407 0 0 1 .192-.06c.049 0 .092.016.126.042a.7.7 0 0 0 .075-.337h.154c0 .213-.07.427-.156.476l-.078.046c-.044.025-.079.027-.079.003v-.042c0-.046-.07-.044-.157.006-.086.05-.157.128-.157.174v.042c0 .024-.06.077-.133.12l-3.939 2.274-.427.247a.421.421 0 0 1-.2.048v-.178a.415.415 0 0 0 .2-.05Z" fill="#040000"/><path d="M37.91 31.002h.002l.272-.158 3.129-1.805.998-.577c.072-.042.13-.057.133-.035v.048c0 .05.071.05.157 0 .085-.049.122-.11.124-.158v-.049c0-.025.01-.052.023-.059l.023-.013.05-.028.06-.036c.029-.016.055-.013.078.008a.02.02 0 0 1 .008.007c.005.005.01.011.013.018.004.003.005.007.008.01a.314.314 0 0 1 .032.084.786.786 0 0 1 .013.084l.002.025a.68.68 0 0 1 .003.06v.613h-.154v-.613l-.002-.048-.004-.038v-.004c-.014.122-.132.232-.234.29a.386.386 0 0 1-.188.059.206.206 0 0 1-.138-.052l-.014.008-.027.016-3.938 2.274-.427.247-.004.002a.416.416 0 0 1-.196.045v-.178c.08 0 .143-.017.199-.047Z" fill="#6C99AF"/><path opacity=".3" d="M37.91 31.002h.002l.272-.158 3.129-1.805.998-.577c.072-.042.13-.057.133-.035v.048c0 .05.071.05.157 0 .085-.049.122-.11.124-.158v-.049c0-.025.01-.052.023-.059l.023-.013.05-.028.06-.036c.029-.016.055-.013.078.008a.02.02 0 0 1 .008.007c.005.005.01.011.013.018.004.003.005.007.008.01a.314.314 0 0 1 .032.084.786.786 0 0 1 .013.084l.002.025a.68.68 0 0 1 .003.06v.613h-.154v-.613l-.002-.048-.004-.038v-.004c-.014.122-.132.232-.234.29a.386.386 0 0 1-.188.059.206.206 0 0 1-.138-.052l-.014.008-.027.016-3.938 2.274-.427.247-.004.002a.416.416 0 0 1-.196.045v-.178c.08 0 .143-.017.199-.047Z" fill="#040000"/><path d="M30.938 27.135v.181c0 .042.026.083.08.115l.002.001 6.066 3.501.425.247h.001a.42.42 0 0 0 .2.047v-.178a.406.406 0 0 1-.2-.048l-.271-.156h-.001l-6.22-3.592c-.059-.034-.082-.074-.082-.118Z" fill="#6C99AF"/><path opacity=".2" d="M30.938 27.135v.181c0 .042.026.083.08.115l.002.001 6.066 3.501.425.247h.001a.42.42 0 0 0 .2.047v-.178a.406.406 0 0 1-.2-.048l-.271-.156h-.001l-6.22-3.592c-.059-.034-.082-.074-.082-.118Z" fill="#040000"/><path d="M30.938 28.34v.182c0 .042.026.083.08.114l.002.001 6.066 3.502.425.246v.001h.001a.42.42 0 0 0 .2.047v-.178a.405.405 0 0 1-.2-.048l-.271-.156h-.001l-6.22-3.592c-.059-.035-.082-.075-.082-.119Z" fill="#6C99AF"/><path opacity=".2" d="M30.938 28.34v.182c0 .042.026.083.08.114l.002.001 6.066 3.502.425.246v.001h.001a.42.42 0 0 0 .2.047v-.178a.405.405 0 0 1-.2-.048l-.271-.156h-.001l-6.22-3.592c-.059-.035-.082-.075-.082-.119Z" fill="#040000"/><path d="m42.733 27.603-5.26 2.997-6.996-4.015 5.26-2.997 6.996 4.015Z" fill="#6C99AF"/><path opacity=".2" d="m42.733 27.603-5.26 2.997-6.996-4.015 5.26-2.997 6.996 4.015Z" fill="#fff"/><path d="m37.425 30.416 5.11-2.926c-.106-.303-.098-.657.023-1.06l-5.085 2.902s-.078.256-.048 1.084Z" fill="#F5F5F5"/><path d="M37.68 29a.861.861 0 0 0-.392.677v.789c0 .249.176.35.393.225l5.051-2.892v-.196l-4.997 2.847c-.13.075-.235.015-.235-.135l.003-.731c0-.15.106-.331.236-.406l4.993-2.848v-.222l-5.051 2.893Z" fill="#6C99AF"/><path opacity=".4" d="M37.68 29a.861.861 0 0 0-.392.677v.789c0 .249.176.35.393.225l5.051-2.892v-.196l-4.997 2.847c-.13.075-.235.015-.235-.135l.003-.731c0-.15.106-.331.236-.406l4.993-2.848v-.222l-5.051 2.893Z" fill="#fff"/><path d="m42.733 26.109-6.995-4.015-5.052 2.893a.862.862 0 0 0-.392.675v.79c0 .124.043.21.115.252l6.996 4.015c-.072-.041-.115-.129-.116-.253v-.79c0-.248.176-.551.392-.675l5.052-2.892Z" fill="#6C99AF"/><path opacity=".85" d="m42.733 26.109-6.995-4.015-5.052 2.893a.862.862 0 0 0-.392.675v.79c0 .124.043.21.115.252l6.996 4.015c-.072-.041-.115-.129-.116-.253v-.79c0-.248.176-.551.392-.675l5.052-2.892Z" fill="#fff"/><path d="M37.403 29.292a.793.793 0 0 0-.115.384v.79c.001.125.044.212.116.253l-6.996-4.015c-.072-.04-.115-.128-.115-.252v-.79c0-.124.044-.261.115-.384l6.995 4.014Z" fill="#6C99AF"/><path opacity=".6" d="M37.403 29.292a.793.793 0 0 0-.115.384v.79c.001.125.044.212.116.253l-6.996-4.015c-.072-.04-.115-.128-.115-.252v-.79c0-.124.044-.261.115-.384l6.995 4.014Z" fill="#fff"/><path d="M31.33 25.801c-.127.553-.125 1.03 0 1.436l.325.187c-.125-.405-.127-.883 0-1.435l-.325-.188ZM35.977 28.484c-.128.552-.126 1.03 0 1.435l.324.188c-.125-.406-.127-.883 0-1.435l-.325-.188Z" fill="#fff"/><path d="m42.121 25.86-4.61 2.604-7.08-4.063 4.61-2.603 7.08 4.063Z" fill="#6C99AF"/><path opacity=".6" d="m42.121 25.86-4.61 2.604-7.08-4.063 4.61-2.603 7.08 4.063Z" fill="#040000"/><path d="m37.46 28.273 4.455-2.53c-.11-.315-.102-.41.023-.828L37.51 27.42s-.08-.006-.05.853Z" fill="#F5F5F5"/><path d="M37.726 27.077a.893.893 0 0 0-.407.7v.548c0 .259.183.363.407.234l4.394-2.495v-.203l-4.338 2.448c-.134.078-.244.015-.244-.14l.004-.487c0-.155.11-.343.245-.42l4.333-2.45v-.23l-4.394 2.495Z" fill="#6C99AF"/><path opacity=".5" d="M37.726 27.077a.893.893 0 0 0-.407.7v.548c0 .259.183.363.407.234l4.394-2.495v-.203l-4.338 2.448c-.134.078-.244.015-.244-.14l.004-.487c0-.155.11-.343.245-.42l4.333-2.45v-.23l-4.394 2.495Z" fill="#040000"/><path d="m42.12 24.582-7.079-4.063-4.393 2.495a.894.894 0 0 0-.407.701v.548c0 .128.046.219.12.261l7.08 4.063c-.075-.043-.12-.133-.12-.262v-.548c0-.258.181-.572.406-.701l4.394-2.494Z" fill="#6C99AF"/><path opacity=".35" d="m42.12 24.582-7.079-4.063-4.393 2.495a.894.894 0 0 0-.407.701v.548c0 .128.046.219.12.261l7.08 4.063c-.075-.043-.12-.133-.12-.262v-.548c0-.258.181-.572.406-.701l4.394-2.494Z" fill="#040000"/><path d="M37.438 27.379a.82.82 0 0 0-.119.398v.548c.001.129.046.22.12.262l-7.08-4.062c-.073-.043-.118-.133-.119-.262v-.547c0-.13.046-.272.12-.4l7.078 4.063Z" fill="#6C99AF"/><path opacity=".45" d="M37.438 27.379a.82.82 0 0 0-.119.398v.548c.001.129.046.22.12.262l-7.08-4.062c-.073-.043-.118-.133-.119-.262v-.547c0-.13.046-.272.12-.4l7.078 4.063Z" fill="#040000"/><path d="M31.316 23.86c-.132.572-.13.796 0 1.216l.337.195c-.13-.42-.132-.644 0-1.217l-.337-.194ZM35.959 26.528c-.132.573-.13.79 0 1.21l.337.194c-.13-.42-.132-.637 0-1.21l-.337-.194ZM42.95 24.633l-4.61 2.603-7.08-4.062 4.61-2.604 7.08 4.063Z" fill="#6C99AF"/><path opacity=".4" d="m42.95 24.633-4.61 2.603-7.08-4.062 4.61-2.604 7.08 4.063Z" fill="#040000"/><path d="m38.29 27.046 4.455-2.53c-.111-.315-.103-.456.023-.873l-4.428 2.505s-.08.039-.05.898Z" fill="#F5F5F5"/><path d="M38.556 25.804a.893.893 0 0 0-.407.701v.593c0 .258.183.362.407.233l4.394-2.495v-.203l-4.338 2.449c-.134.077-.244.014-.244-.14l.005-.533c0-.154.11-.343.244-.42l4.333-2.45v-.23l-4.394 2.495Z" fill="#6C99AF"/><path opacity=".25" d="M38.556 25.804a.893.893 0 0 0-.407.701v.593c0 .258.183.362.407.233l4.394-2.495v-.203l-4.338 2.449c-.134.077-.244.014-.244-.14l.005-.533c0-.154.11-.343.244-.42l4.333-2.45v-.23l-4.394 2.495Z" fill="#040000"/><path d="m42.949 23.31-7.08-4.063-4.393 2.495a.894.894 0 0 0-.407.701v.593c0 .128.046.22.12.262l7.08 4.062c-.075-.043-.12-.133-.12-.262v-.593c0-.258.182-.572.407-.701l4.393-2.495Z" fill="#6C99AF"/><path d="M38.268 26.106a.822.822 0 0 0-.12.399v.593c.001.129.046.22.12.262l-7.08-4.062c-.073-.043-.118-.133-.119-.262v-.593c0-.129.046-.272.12-.399l7.079 4.062Z" fill="#6C99AF"/><path opacity=".15" d="M38.268 26.106a.822.822 0 0 0-.12.399v.593c.001.129.046.22.12.262l-7.08-4.062c-.073-.043-.118-.133-.119-.262v-.593c0-.129.046-.272.12-.399l7.079 4.062Z" fill="#040000"/><path d="M32.145 22.587c-.132.573-.13.842 0 1.262l.337.195c-.13-.42-.132-.69 0-1.262l-.337-.195ZM36.789 25.259c-.132.573-.13.832 0 1.252l.337.195c-.13-.42-.132-.682 0-1.254l-.337-.193Z" fill="#6C99AF"/><g opacity=".4" fill="#fff"><path d="M32.145 22.587c-.132.573-.13.842 0 1.262l.337.195c-.13-.42-.132-.69 0-1.262l-.337-.195ZM36.789 25.259c-.132.573-.13.832 0 1.252l.337.195c-.13-.42-.132-.682 0-1.254l-.337-.193Z"/></g><path d="m41.948 23.068-.197-.106.18-.043c.036.042.038.092.017.149Z" fill="#6C99AF"/><path opacity=".5" d="m41.948 23.068-.197-.106.18-.043c.036.042.038.092.017.149Z" fill="#040000"/><path d="M36.728 25.697c.11.064.29.064.4 0l4.5-2.598-6.735-3.826-.157-.091-4.499 2.535c-.11.064-.11.168 0 .231l6.49 3.748Z" fill="#6C99AF"/><path d="m38.417 20.852 1.569.904 1.016-.587 1.18.683v.788c0 .104-.115.25-.157.227 0 0-.092.019-.226.08-.133.061-.326.241-.326.241l-3.605-2.018.55-.318Z" fill="#6C99AF"/><path opacity=".15" d="m38.417 20.852 1.569.904 1.016-.587 1.18.683v.788c0 .104-.115.25-.157.227 0 0-.092.019-.226.08-.133.061-.326.241-.326.241l-3.605-2.018.55-.318Z" fill="#040000"/><path d="M41.535 21.947v.855a.407.407 0 0 1 .206-.069c.05 0 .093.005.127.03v-1.008l-.333.192Z" fill="#36464E"/><path d="M41.313 23.096a.266.266 0 0 1 .057-.145.53.53 0 0 1 .055-.064l.02-.018.024-.021.02-.015.045-.03v-.853l-.22.128v-.005 1.023Z" fill="#E0E0E0"/><path opacity=".4" d="M42.183 22.64c0 .103-.116.25-.158.226l-.158-.102v-.651l.158-.272.087-.03.071.04v.79Z" fill="#040000"/><path d="M36.928 24.606v.977c.048 0 .097-.01.133-.032l.494-.284 3.759-2.17v-1.023l-4.386 2.532Z" fill="#EBEBEB"/><path d="M30.349 20.938v.738c0 .085.06.189.133.231l5.82 3.36.492.284a.265.265 0 0 0 .133.032v-.866l-6.578-3.779Z" fill="#F5F5F5"/><path d="m34.893 18.005 6.734 3.888v.09c0 .05.07.07.157.02s.157-.113.157-.2l.008-.086-6.862-3.96-.027-.017a.09.09 0 0 0-.012.042v.042c0 .05-.07.13-.155.18Z" fill="#6C99AF"/><path opacity=".1" d="m34.893 18.005 6.734 3.888v.09c0 .05.07.07.157.02s.157-.113.157-.2l.008-.086-6.862-3.96-.027-.017a.09.09 0 0 0-.012.042v.042c0 .05-.07.13-.155.18Z" fill="#040000"/><path d="m37.128 24.49 4.4-2.54c.055-.029.106-.052.128-.04l-.03-.017-6.734-3.889-.079-.045c-.043-.025-.138-.011-.212.032l-4.365 2.52c-.11.064-.11.168 0 .232l6.491 3.748c.111.064.29.064.401 0ZM35.06 17.74l.027.016 6.862 3.96s.005-.01.015-.018l.023-.013.05-.028.06-.036c.029-.016.055-.013.078.008a.148.148 0 0 1 .029.036.314.314 0 0 1 .032.084.786.786 0 0 1 .013.083l.003.025a.68.68 0 0 1 .002.06v-.193c0-.107-.09-.244-.2-.308l-6.493-3.749c-.11-.064-.27-.075-.356-.025l-.082.048-.003.001a.4.4 0 0 1-.035.02l-.001.001a.072.072 0 0 0-.024.028ZM37.128 25.697l.272-.158 4.073-2.351a.259.259 0 0 1 .055-.146.58.58 0 0 1 .178-.157.406.406 0 0 1 .192-.06c.05 0 .093.016.127.042a.702.702 0 0 0 .075-.337h.154c0 .213-.07.427-.157.476l-.077.046c-.044.025-.079.027-.079.003v-.042c0-.046-.07-.044-.157.006-.087.05-.157.128-.157.174v.042c0 .024-.06.077-.133.12l-3.94 2.274-.426.247a.421.421 0 0 1-.2.048v-.179a.42.42 0 0 0 .2-.049Z" fill="#6C99AF"/><path opacity=".3" d="m37.128 25.697.272-.158 4.073-2.351a.259.259 0 0 1 .055-.146.58.58 0 0 1 .178-.157.406.406 0 0 1 .192-.06c.05 0 .093.016.127.042a.702.702 0 0 0 .075-.337h.154c0 .213-.07.427-.157.476l-.077.046c-.044.025-.079.027-.079.003v-.042c0-.046-.07-.044-.157.006-.087.05-.157.128-.157.174v.042c0 .024-.06.077-.133.12l-3.94 2.274-.426.247a.421.421 0 0 1-.2.048v-.179a.42.42 0 0 0 .2-.049Z" fill="#040000"/><path d="m37.126 24.492.002-.001.272-.158 3.128-1.805 1-.577c.07-.042.128-.056.132-.035v.048c0 .05.07.05.157 0 .085-.048.122-.109.123-.157v-.05c0-.025.01-.051.024-.058l.023-.013.049-.029.06-.035c.03-.016.056-.014.079.007a.02.02 0 0 1 .007.007c.006.005.01.012.014.019l.007.01a.342.342 0 0 1 .032.084.786.786 0 0 1 .01.052l.004.032.002.025c.002.019.002.039.002.06v.612H42.1v-.612l-.001-.048-.004-.039-.001-.004c-.014.123-.131.232-.233.29a.386.386 0 0 1-.188.059.206.206 0 0 1-.139-.051l-.013.008-.028.015-3.939 2.275-.426.246-.001.001-.003.002a.417.417 0 0 1-.197.045v-.178a.416.416 0 0 0 .2-.047Z" fill="#6C99AF"/><path opacity=".3" d="m37.126 24.492.002-.001.272-.158 3.128-1.805 1-.577c.07-.042.128-.056.132-.035v.048c0 .05.07.05.157 0 .085-.048.122-.109.123-.157v-.05c0-.025.01-.051.024-.058l.023-.013.049-.029.06-.035c.03-.016.056-.014.079.007a.02.02 0 0 1 .007.007c.006.005.01.012.014.019l.007.01a.342.342 0 0 1 .032.084.786.786 0 0 1 .01.052l.004.032.002.025c.002.019.002.039.002.06v.612H42.1v-.612l-.001-.048-.004-.039-.001-.004c-.014.123-.131.232-.233.29a.386.386 0 0 1-.188.059.206.206 0 0 1-.139-.051l-.013.008-.028.015-3.939 2.275-.426.246-.001.001-.003.002a.417.417 0 0 1-.197.045v-.178a.416.416 0 0 0 .2-.047Z" fill="#040000"/><path d="M30.154 20.625v.18c0 .043.026.084.08.115l.003.001 6.065 3.502.426.246v.001h.001a.42.42 0 0 0 .2.047v-.178a.405.405 0 0 1-.2-.048l-.272-.156-6.22-3.593c-.06-.034-.083-.074-.083-.117Z" fill="#6C99AF"/><path opacity=".2" d="M30.154 20.625v.18c0 .043.026.084.08.115l.003.001 6.065 3.502.426.246v.001h.001a.42.42 0 0 0 .2.047v-.178a.405.405 0 0 1-.2-.048l-.272-.156-6.22-3.593c-.06-.034-.083-.074-.083-.117Z" fill="#040000"/><path d="M30.154 21.83v.181c0 .042.026.083.08.114l.003.002 6.065 3.502.426.246h.001a.42.42 0 0 0 .2.048v-.178a.406.406 0 0 1-.2-.049l-.272-.156-6.22-3.592c-.06-.034-.083-.074-.083-.118Z" fill="#6C99AF"/><path opacity=".2" d="M30.154 21.83v.181c0 .042.026.083.08.114l.003.002 6.065 3.502.426.246h.001a.42.42 0 0 0 .2.048v-.178a.406.406 0 0 1-.2-.049l-.272-.156-6.22-3.592c-.06-.034-.083-.074-.083-.118Z" fill="#040000"/><path d="m42.998 21.576-5.26 2.995-6.996-4.014 5.26-2.997 6.996 4.016Z" fill="#6C99AF"/><path opacity=".2" d="m42.998 21.576-5.26 2.995-6.996-4.014 5.26-2.997 6.996 4.016Z" fill="#fff"/><path d="m37.69 24.388 5.11-2.926c-.107-.303-.099-.656.022-1.06l-5.084 2.902s-.078.256-.049 1.084Z" fill="#F5F5F5"/><path d="M37.946 22.973a.861.861 0 0 0-.392.675v.79c0 .249.175.35.392.225l5.052-2.892v-.196L38 24.422c-.13.075-.235.014-.235-.135l.004-.731c0-.15.106-.331.235-.406l4.993-2.848v-.222l-5.05 2.893Z" fill="#6C99AF"/><path opacity=".4" d="M37.946 22.973a.861.861 0 0 0-.392.675v.79c0 .249.175.35.392.225l5.052-2.892v-.196L38 24.422c-.13.075-.235.014-.235-.135l.004-.731c0-.15.106-.331.235-.406l4.993-2.848v-.222l-5.05 2.893Z" fill="#fff"/><path d="m42.999 20.08-6.996-4.014-5.051 2.893a.862.862 0 0 0-.392.675v.79c0 .124.043.21.115.252l6.995 4.015c-.071-.041-.114-.129-.115-.253v-.79c0-.248.176-.552.392-.676L43 20.081Z" fill="#6C99AF"/><path opacity=".85" d="m42.999 20.08-6.996-4.014-5.051 2.893a.862.862 0 0 0-.392.675v.79c0 .124.043.21.115.252l6.995 4.015c-.071-.041-.114-.129-.115-.253v-.79c0-.248.176-.552.392-.676L43 20.081Z" fill="#fff"/><path d="M37.669 23.264a.793.793 0 0 0-.115.384v.79c0 .125.044.212.115.253l-6.995-4.014c-.072-.041-.115-.129-.115-.253v-.79c0-.124.044-.262.115-.384l6.995 4.014Z" fill="#6C99AF"/><path opacity=".6" d="M37.669 23.264a.793.793 0 0 0-.115.384v.79c0 .125.044.212.115.253l-6.995-4.014c-.072-.041-.115-.129-.115-.253v-.79c0-.124.044-.262.115-.384l6.995 4.014Z" fill="#fff"/><path d="M31.597 19.773c-.128.553-.126 1.03 0 1.435l.325.188c-.126-.405-.128-.883 0-1.435l-.325-.188ZM36.243 22.456c-.127.552-.125 1.03 0 1.435l.325.188c-.125-.406-.127-.883 0-1.436l-.325-.187Z" fill="#fff"/></g><g opacity=".5"><path d="m38.374 41.643 10.353-5.978-6.614-3.818-10.353 5.977 6.614 3.819Z" fill="#6C99AF"/><path opacity=".15" d="m38.374 41.643 10.353-5.978-6.614-3.818-10.353 5.977 6.614 3.819Z" fill="#040000"/><path d="m43.412 38.575-.002-.185c-.002-.228.406-.879.914-1.172l4.113-2.374v.83l-5.025 2.9Z" fill="#F5F5F5"/><path d="m48.438 34.844-4.113 2.374c-.508.293-.916.944-.914 1.171l.002.185-6.327-3.653-.002-.184c-.002-.229.406-.88.914-1.172l4.11-2.373.003-.002 6.327 3.654Z" fill="#FBFBFB"/><path d="m48.438 34.844-4.113 2.374c-.508.293-.916.944-.914 1.171l.002.185-6.327-3.653-.002-.184c-.002-.229.406-.88.914-1.172l4.113-2.375 6.327 3.654Z" fill="#FBFBFB"/><path d="m43.41 38.403-.393-.229-.519-.3c.29-.034.497.01.64.092a.538.538 0 0 1 .273.437Z" fill="#F0F0F0"/><path d="m43.41 38.403-.393-.229-.519-.3c.29-.034.497.01.64.092a.538.538 0 0 1 .273.437Z" fill="#E0E0E0"/><path d="m38.375 41.815-.001-.172-6.614-3.819v.172l6.615 3.819Z" fill="#6C99AF"/><path opacity=".3" d="m38.375 41.815-.001-.172-6.614-3.819v.172l6.615 3.819Z" fill="#040000"/><path d="m38.375 41.815 10.353-5.977-.001-.173-10.353 5.978.001.172Z" fill="#6C99AF"/><path d="M43.412 38.403c-.002-.228-.418-.418-.927-.127l-4.111 2.356v.852l5.04-2.91-.002-.171Z" fill="#F5F5F5"/><path d="M38.373 41.484v-.852l-6.326-3.653v.853l6.327 3.652Z" fill="#EBEBEB"/><path d="m42.485 38.276-.184.106-3.928 2.25-5.588-3.227-.738-.426 4.111-2.355c.373-.214.582-.197.728-.114l6.414 3.702c-.232-.13-.502-.103-.815.064Z" fill="#FBFBFB"/><path d="m38.085 39.99 3.5-2.02.185-.105.135.077-.184.106-3.501 2.02-.135-.078ZM37.762 39.803l3.501-2.02.184-.105.135.078-.184.105-3.502 2.02-.134-.078ZM37.438 39.617l3.501-2.02.185-.106.134.078-.184.105-3.5 2.02-.136-.078ZM37.115 39.43l3.502-2.02.184-.106.134.078-.184.106-3.501 2.02-.135-.078ZM36.792 39.243l3.5-2.02.185-.105.135.078-.184.105-3.501 2.02-.135-.078ZM36.469 39.056l3.501-2.02.184-.105.135.078-.184.105-3.502 2.02-.134-.078ZM36.145 38.87l3.501-2.02.185-.106.134.078-.184.106-3.5 2.02-.136-.078ZM35.822 38.683l3.502-2.02.184-.105.135.078-.185.105-3.501 2.02-.135-.078ZM35.499 38.496l3.5-2.02.185-.105.135.078-.184.105-3.501 2.02-.135-.078ZM35.175 38.31l3.501-2.02.185-.106.134.078-.184.106-3.502 2.02-.134-.078ZM34.852 38.123l3.502-2.02.184-.105.135.078-.184.105-3.502 2.02-.135-.078ZM34.528 37.937l3.502-2.02.184-.106.135.078-.185.105-3.5 2.02-.136-.078ZM34.205 37.75l3.501-2.02.184-.105.135.077-.184.106-3.501 2.02-.135-.078ZM33.882 37.563l3.501-2.02.185-.105.134.078-.184.105-3.501 2.02-.135-.078ZM33.559 37.377l3.5-2.02.185-.106.135.078-.184.105-3.502 2.02-.134-.077ZM33.235 37.19l3.501-2.02.185-.105.134.077-.184.106-3.501 2.02-.135-.078ZM32.912 37.003l3.501-2.02.184-.105.135.078-.184.105-3.501 2.02-.135-.078Z" fill="#E0E0E0"/><path opacity=".1" d="M42.524 38.056c-.076.007-.237.06-.326.08-.373.083-1.033.384-1.664.7-.844.423-1.64.874-1.64.874l-5.788-3.338 3.052-1.748c.15-.086.273-.134.377-.156a.82.82 0 0 1 .264.09l.04-.07a.404.404 0 0 1 .047.022l6.413 3.703c-.36-.208-.527-.18-.775-.157Z" fill="#040000"/><path d="m38.37 40.818.627-.319-.623.38-.627-.361.622.3Z" fill="#E6E6E5"/><path d="m38.374 41.244 1.15-.664-1.15.62-1.294-.703 1.294.747ZM32.047 37.167l.967.584-.967-.494v-.09ZM32.048 37.5l1.437.878-1.438-.799.001-.078Z" fill="#E6E6E5"/><path d="M42.5 37.874a2.258 2.258 0 0 0-.248.042c-.373.085-1.033.386-1.665.702a41.21 41.21 0 0 0-1.639.874l-6.33-3.651s2.409-1.387 3.353-1.57c.444-.085.716-.025.882.069v-.002l6.285 3.629c-.142-.082-.348-.126-.639-.093Z" fill="#F5F5F5"/><path d="M42.42 37.552c-.142-.082-.349-.126-.64-.092a2.231 2.231 0 0 0-.246.042c-.249.056-.624.208-1.033.397-.206.095-.42.198-.632.305a38.78 38.78 0 0 0-1.307.689l.143.083c.31-.17.8-.435 1.308-.69.21-.105.425-.21.631-.304.41-.19.785-.341 1.034-.397.088-.02.17-.034.246-.042.29-.034.497.01.64.092l-.144-.083Z" fill="#E0E0E0"/><path d="M42.096 37.365c-.143-.082-.349-.126-.64-.093a2.262 2.262 0 0 0-.246.043c-.25.056-.624.208-1.034.397-.205.094-.42.198-.631.304-.508.255-.998.52-1.308.69l.144.083c.31-.17.8-.435 1.307-.69.212-.105.426-.21.632-.304.41-.189.784-.341 1.033-.397.089-.02.171-.034.247-.043.29-.033.497.011.64.093l-.145-.083Z" fill="#E0E0E0"/><path d="M41.771 37.178c-.142-.082-.348-.126-.639-.093a2.237 2.237 0 0 0-.246.043c-.25.056-.625.208-1.034.397-.206.095-.42.198-.631.304-.508.255-.998.519-1.308.69l.144.083c.31-.17.8-.435 1.308-.69.21-.105.425-.21.631-.304.41-.19.785-.341 1.033-.397.089-.02.171-.034.247-.042.29-.034.497.01.64.092l-.145-.083Z" fill="#E0E0E0"/><path d="M41.448 36.991c-.142-.082-.348-.126-.639-.092a2.233 2.233 0 0 0-.247.042c-.249.056-.624.208-1.033.397-.206.094-.42.198-.632.305a38.78 38.78 0 0 0-1.307.689l.144.083c.31-.17.8-.435 1.307-.69.212-.105.426-.209.632-.304.41-.189.784-.341 1.033-.397.089-.02.171-.034.247-.042.29-.034.497.01.64.092l-.145-.083Z" fill="#E0E0E0"/><path d="M41.124 36.804c-.142-.082-.349-.126-.64-.092a2.231 2.231 0 0 0-.246.042c-.249.056-.624.208-1.033.397-.206.094-.42.198-.632.305a38.78 38.78 0 0 0-1.307.689l.144.083c.31-.17.8-.435 1.307-.69.211-.105.425-.21.632-.304.41-.189.785-.341 1.033-.397.089-.02.17-.034.247-.042.29-.034.497.01.639.092l-.144-.083Z" fill="#E0E0E0"/><path d="M40.8 36.617c-.143-.082-.349-.126-.64-.093a2.256 2.256 0 0 0-.246.043c-.249.056-.624.208-1.034.397-.205.094-.42.198-.631.304-.508.254-.998.519-1.308.69l.144.082c.31-.17.8-.434 1.308-.689.211-.106.425-.21.632-.305.409-.188.784-.34 1.033-.397.088-.02.17-.033.246-.042.291-.033.497.01.64.093l-.144-.083Z" fill="#E0E0E0"/><path d="M40.476 36.43c-.142-.083-.348-.126-.639-.093a2.26 2.26 0 0 0-.246.042c-.25.056-.624.209-1.034.397-.206.095-.42.2-.631.305-.508.255-.998.519-1.308.69l.144.083c.31-.17.8-.435 1.307-.69.211-.105.426-.21.632-.304.41-.189.784-.34 1.033-.397.089-.02.17-.034.247-.042.29-.033.497.01.639.092l-.144-.083Z" fill="#E0E0E0"/><path d="M40.152 36.243c-.142-.082-.348-.126-.639-.092a2.233 2.233 0 0 0-.247.042c-.248.056-.624.208-1.033.397-.206.094-.42.198-.631.305a38.78 38.78 0 0 0-1.308.689l.144.083c.31-.17.8-.435 1.307-.69.212-.105.426-.209.632-.304.409-.189.784-.341 1.033-.397.088-.02.17-.034.247-.042.29-.034.496.01.639.092l-.144-.083Z" fill="#E0E0E0"/><path d="M39.334 36.046a2.26 2.26 0 0 0-.247.042c-.374.084-1.033.386-1.665.702-.508.254-.997.519-1.307.69l-.144-.084c.31-.17.8-.434 1.307-.689.632-.316 1.29-.617 1.665-.702.089-.02.17-.033.247-.042.29-.033.497.01.639.093l.143.083c-.142-.082-.348-.126-.638-.093Z" fill="#E0E0E0"/><path d="M39.01 35.86a2.233 2.233 0 0 0-.247.042c-.374.084-1.034.385-1.665.702a38.78 38.78 0 0 0-1.308.689l-.143-.083c.31-.17.799-.435 1.307-.69.632-.316 1.29-.617 1.665-.701.088-.02.17-.034.247-.043.29-.033.496.01.639.093l.143.083c-.142-.082-.348-.126-.639-.092Z" fill="#E0E0E0"/><path d="M38.685 35.672a2.237 2.237 0 0 0-.246.043c-.374.084-1.034.385-1.665.701a38.64 38.64 0 0 0-1.308.69l-.144-.084c.31-.17.8-.434 1.308-.69.631-.316 1.29-.616 1.665-.7.088-.02.17-.035.246-.043.291-.033.497.01.64.092l.144.084c-.143-.082-.349-.126-.64-.093Z" fill="#E0E0E0"/><path d="M38.361 35.485a2.256 2.256 0 0 0-.246.043c-.374.084-1.034.385-1.665.701-.508.255-.998.519-1.308.69l-.144-.083c.31-.17.8-.435 1.308-.69.631-.316 1.29-.617 1.665-.702.088-.02.17-.033.246-.042.29-.033.497.01.64.093l.143.083c-.142-.082-.348-.126-.639-.093Z" fill="#E0E0E0"/><path d="M38.038 35.298a2.256 2.256 0 0 0-.247.042c-.374.084-1.033.386-1.665.702a38.64 38.64 0 0 0-1.308.69l-.143-.084c.31-.17.8-.434 1.307-.689.632-.316 1.291-.617 1.665-.701.089-.02.17-.034.247-.042.29-.034.497.01.639.092l.144.083c-.143-.082-.349-.126-.64-.093Z" fill="#E0E0E0"/><path d="M37.713 35.111a2.258 2.258 0 0 0-.246.043c-.374.084-1.034.385-1.665.701-.508.255-.998.52-1.308.69l-.143-.083c.31-.17.8-.435 1.307-.69.632-.316 1.291-.617 1.665-.701.088-.02.17-.034.247-.043.29-.033.497.011.639.093l.143.083c-.142-.082-.348-.126-.639-.093Z" fill="#E0E0E0"/><path d="M37.389 34.925a2.231 2.231 0 0 0-.247.042c-.373.084-1.033.385-1.665.702a38.78 38.78 0 0 0-1.307.689l-.144-.083c.31-.17.8-.435 1.308-.69.631-.316 1.29-.617 1.665-.701.088-.02.17-.034.246-.043.291-.033.497.011.64.093l.144.083c-.143-.082-.35-.126-.64-.093Z" fill="#E0E0E0"/><path d="M37.066 34.737a2.26 2.26 0 0 0-.247.042c-.374.084-1.033.386-1.665.702-.508.255-.998.519-1.307.69l-.144-.084c.31-.17.8-.434 1.308-.689.631-.316 1.29-.617 1.665-.702.088-.02.17-.033.246-.042.29-.033.497.01.64.093l.143.083c-.143-.082-.349-.126-.64-.093Z" fill="#E0E0E0"/><path d="M36.742 34.55a2.231 2.231 0 0 0-.247.043c-.373.084-1.033.385-1.664.702a38.78 38.78 0 0 0-1.308.689l-.144-.083c.31-.17.8-.435 1.308-.69.631-.316 1.29-.617 1.664-.701.089-.02.171-.034.247-.042.29-.034.497.01.64.092l.143.083c-.142-.082-.348-.126-.639-.092ZM43.733 36.876c-.19.11-.366.27-.512.438l-.131-.076c.146-.169.322-.329.512-.438l3.686-2.123.132.076-3.687 2.123Z" fill="#E0E0E0"/><path d="M43.733 36.876c-.19.11-.366.27-.512.438l-.131-.076c.146-.169.322-.329.512-.438l3.686-2.123.132.076-3.687 2.123ZM43.41 36.69c-.19.109-.366.269-.512.438l-.131-.076c.145-.17.321-.33.512-.439l3.686-2.123.131.076-3.686 2.123ZM43.087 36.503c-.19.109-.366.269-.512.438l-.132-.076c.146-.169.322-.329.512-.438l3.687-2.123.131.076-3.686 2.123ZM42.764 36.316c-.19.11-.367.27-.512.438l-.132-.076c.146-.169.322-.329.512-.438l3.686-2.123.132.076-3.686 2.123ZM42.44 36.129c-.19.11-.367.27-.512.438l-.132-.076c.146-.169.322-.329.512-.438l3.686-2.123.132.076-3.686 2.123ZM42.116 35.942c-.19.11-.366.27-.512.438l-.131-.076c.145-.169.321-.329.512-.438l3.686-2.123.131.076-3.686 2.123ZM41.793 35.756c-.19.109-.366.269-.512.438l-.132-.076c.146-.17.322-.33.512-.438l3.687-2.123.131.075-3.686 2.124ZM41.47 35.569c-.19.11-.367.27-.512.438l-.132-.076c.146-.169.322-.329.512-.438l3.686-2.123.132.076-3.686 2.123ZM41.145 35.382c-.19.11-.366.27-.512.438l-.131-.076c.146-.169.322-.329.512-.438l3.686-2.123.131.076-3.686 2.123ZM40.822 35.195c-.19.11-.366.27-.512.438l-.131-.076c.145-.169.322-.329.512-.438l3.686-2.123.131.076-3.686 2.123ZM40.499 35.008c-.19.11-.366.27-.512.439l-.132-.076c.146-.17.322-.33.513-.439l3.686-2.123.131.076-3.686 2.123ZM40.176 34.822c-.19.11-.366.27-.512.438l-.132-.076c.146-.169.322-.329.512-.438l3.686-2.124.132.076-3.686 2.124ZM39.852 34.635c-.19.109-.367.269-.512.438l-.132-.076c.146-.169.322-.329.512-.438l3.686-2.123.132.075-3.686 2.124ZM39.528 34.448c-.19.11-.366.27-.512.438l-.131-.076c.146-.169.322-.329.512-.438l3.686-2.123.132.076-3.687 2.123ZM39.205 34.261c-.19.11-.366.27-.512.438l-.131-.075c.145-.17.321-.33.512-.439l3.686-2.123.131.076-3.686 2.123ZM38.88 34.075c-.19.109-.365.269-.511.438l-.132-.076c.146-.169.322-.329.512-.438l3.686-2.124.132.076-3.686 2.124ZM38.558 33.888c-.19.11-.367.27-.512.438l-.132-.076c.146-.169.322-.329.512-.438l3.686-2.123.131.076-3.685 2.123Z" fill="#E0E0E0"/><path d="m47.575 35.569.862-.455.001-.07-.863.525ZM48.439 35.368 47 36.17l1.438-.856v.053Z" fill="#E6E6E5"/><path opacity=".02" d="M33.605 35.3c.776-.411 1.818-.923 2.366-1.029.444-.086.716-.026.882.068v-.001l6.285 3.628c-.142-.082-.349-.126-.64-.092 0 0-3.11-1.898-5.118-2.546-2.01-.647-3.776-.029-3.776-.029Z" fill="#040000"/></g><g opacity=".5"><path d="M6.348 41.739c.01.001.02.005.028.01l-.055-.032-.01-.005H6.31c-.003-.003-.007-.004-.01-.005l-.006-.002-.008-.003-.016-.002-.016-.001a.232.232 0 0 0-.116.035.573.573 0 0 0-.26.449c0 .023.003.045.008.064l.003.012.002.006.004.012a.16.16 0 0 0 .022.039.13.13 0 0 0 .038.034l.062.036a.111.111 0 0 1-.028-.022c.042.01.093 0 .149-.032a.572.572 0 0 0 .26-.448c-.001-.064-.02-.114-.05-.145Z" fill="#6C99AF"/><path d="m12.371 45.212-.365.635-.062-.035-5.929-3.426a.111.111 0 0 1-.028-.022.208.208 0 0 1-.048-.146c0-.165.116-.366.26-.448a.235.235 0 0 1 .115-.036c.012 0 .022.002.033.004.01.002.02.005.028.01l.004.002.002.001 5.99 3.461Z" fill="#F0F0F0"/><path d="M12.188 45.23c.143-.082.259-.015.259.15a.573.573 0 0 1-.259.448c-.143.083-.258.016-.258-.149 0-.165.116-.366.258-.448Z" fill="#6C99AF"/><path d="M12.744 45.615a.047.047 0 0 0-.006-.007l-.33-.363v-.001l-.003-.003-.006-.006-.004-.004c-.047-.045-.122-.05-.207 0a.571.571 0 0 0-.258.448c0 .096.039.158.1.178l.004.001a.122.122 0 0 0 .018.004l.004.001h.002l.478.105c.024.005.053 0 .084-.018a.326.326 0 0 0 .148-.256.126.126 0 0 0-.024-.079Z" fill="#E0E0E0"/><path d="M7.914 42.91c0-.001 0-.002-.002-.002l-.008-.004c-.016-.008-.037-.005-.06.008-.05.03-.092.1-.092.16 0 .025.008.044.021.055l.012.007 4.533 2.62.259-.15-4.663-2.695Z" fill="#445962"/><path d="m11.952 45.543.366.21.258-.149-.495-.286a.62.62 0 0 0-.129.225Z" fill="#36464E"/><path d="m12.875 45.788-.299-.33a.18.18 0 0 0-.008-.01c-.033-.032-.087-.035-.148 0-.1.058-.183.2-.183.316 0 .068.027.112.07.126l.003.001.012.003.439.095c.013.003.03 0 .047-.01a.185.185 0 0 0 .083-.144.062.062 0 0 0-.016-.047Z" fill="#6C99AF"/><path opacity=".1" d="m12.875 45.788-.299-.33a.18.18 0 0 0-.008-.01c-.033-.032-.087-.035-.148 0-.1.058-.183.2-.183.316 0 .068.027.112.07.126l.003.001.012.003.439.095c.013.003.03 0 .047-.01a.185.185 0 0 0 .083-.144.062.062 0 0 0-.016-.047Z" fill="#040000"/><path d="M12.892 45.835a.185.185 0 0 1-.083.145.066.066 0 0 1-.048.01l-.222-.048c-.035-.008-.058-.04-.058-.094 0-.084.06-.188.133-.23.044-.026.083-.023.107 0l.006.007.149.163c.01.01.016.026.016.047Z" fill="#6C99AF"/><path opacity=".1" d="M12.809 45.787c.046-.027.083-.005.083.048a.184.184 0 0 1-.083.144c-.046.027-.083.005-.083-.048s.037-.117.083-.144Z" fill="#040000"/><path d="M6.935 42.344c-.017-.01-.04-.009-.065.006-.05.03-.092.1-.092.158 0 .03.01.05.027.06l.968.559c-.013-.011-.02-.03-.02-.056 0-.059.04-.13.091-.16.023-.013.045-.015.06-.008l-.97-.56Z" fill="#FBFBFB"/><path d="M6.961 42.403c0 .058-.04.129-.091.158-.025.015-.048.016-.064.007-.017-.01-.028-.03-.028-.06 0-.058.041-.129.092-.158.025-.015.048-.016.065-.006.016.01.026.03.026.059Z" fill="#F5F5F5"/><path d="m6.757 42.011-.003-.002a.02.02 0 0 0-.004-.002l-.381-.22-.01-.006-.002-.001c-.04-.02-.096-.015-.157.02a.514.514 0 0 0-.233.404c0 .074.026.127.069.15l.386.224.003.001.002.001c.042.023.098.019.161-.017a.516.516 0 0 0 .233-.404c0-.072-.025-.123-.064-.148Z" fill="#6C99AF"/><path opacity=".05" d="m6.757 42.011-.003-.002a.02.02 0 0 0-.004-.002l-.381-.22-.01-.006-.002-.001c-.04-.02-.096-.015-.157.02a.514.514 0 0 0-.233.404c0 .074.026.127.069.15l.386.224.003.001.002.001c.042.023.098.019.161-.017a.516.516 0 0 0 .233-.404c0-.072-.025-.123-.064-.148Z" fill="#040000"/><path opacity=".1" d="M6.587 42.024c.129-.074.233-.014.233.135 0 .148-.104.329-.233.403-.128.074-.233.014-.233-.134 0-.149.104-.33.233-.404Z" fill="#040000"/><path d="m12.998 45.926-.159-.094c-.008-.005-.018-.005-.03.002a.094.094 0 0 0-.043.074c0 .013.005.023.012.027l.157.095a.06.06 0 0 0 .09-.053.06.06 0 0 0-.027-.05Z" fill="#445962"/><path d="M13.006 45.934a.068.068 0 0 0-.009-.007c-.008-.003-.017-.002-.028.004a.095.095 0 0 0-.042.074c0 .013.004.023.012.027a.085.085 0 0 0 .006.003.06.06 0 0 0 .08-.058.056.056 0 0 0-.019-.043Z" fill="#263138"/></g><g opacity=".5"><path d="M44.228 40.815c0 .165.116.366.26.449a.208.208 0 0 0 .148.031.121.121 0 0 1-.028.022l.063-.035a.131.131 0 0 0 .038-.034.163.163 0 0 0 .021-.04l.005-.011a.03.03 0 0 0 .002-.007.265.265 0 0 0 .01-.076.573.573 0 0 0-.26-.448.236.236 0 0 0-.115-.036h-.001l-.016.001-.015.003-.01.002-.005.002-.01.005h-.002l-.01.005-.054.032a.1.1 0 0 1 .027-.01c-.03.031-.048.08-.048.145Z" fill="#6C99AF"/><path d="m38.252 44.144.365.634.062-.035 5.928-3.426a.107.107 0 0 0 .029-.022c.03-.031.047-.08.047-.146a.573.573 0 0 0-.259-.448.235.235 0 0 0-.116-.036.137.137 0 0 0-.06.014l-.005.002-.002.001-5.989 3.462Z" fill="#F0F0F0"/><path d="M38.435 44.162c-.143-.083-.258-.016-.258.15 0 .164.116.365.258.448.143.082.26.015.26-.15a.57.57 0 0 0-.26-.448Z" fill="#6C99AF"/><path d="M37.88 44.546a.053.053 0 0 1 .006-.007l.33-.363.004-.004.006-.006.003-.004c.047-.045.123-.05.207 0a.571.571 0 0 1 .259.448c0 .096-.04.158-.1.178l-.004.001a.142.142 0 0 1-.019.004l-.004.001h-.001l-.479.105c-.024.005-.052 0-.084-.018a.327.327 0 0 1-.148-.256c.001-.034.01-.06.024-.079Z" fill="#E0E0E0"/><path d="M42.711 41.84h.002l.008-.005c.016-.007.037-.005.06.008.05.03.092.101.092.16 0 .026-.008.045-.021.055l-.012.007-4.533 2.62-.258-.15 4.662-2.694Z" fill="#445962"/><path d="m38.673 44.474-.366.21-.258-.149.495-.285a.628.628 0 0 1 .129.224Z" fill="#36464E"/><path d="m37.75 44.719.298-.33.008-.009c.034-.033.088-.036.148-.001.101.058.183.2.183.317 0 .067-.027.111-.07.125l-.002.001-.012.003-.44.095a.065.065 0 0 1-.047-.01.185.185 0 0 1-.083-.144c0-.021.006-.037.016-.047Z" fill="#6C99AF"/><path opacity=".1" d="m37.75 44.719.298-.33.008-.009c.034-.033.088-.036.148-.001.101.058.183.2.183.317 0 .067-.027.111-.07.125l-.002.001-.012.003-.44.095a.065.065 0 0 1-.047-.01.185.185 0 0 1-.083-.144c0-.021.006-.037.016-.047Z" fill="#040000"/><path d="M37.733 44.766c0 .053.038.118.084.145.017.01.034.013.047.01l.222-.048c.035-.008.058-.04.058-.093a.294.294 0 0 0-.133-.231c-.043-.025-.082-.023-.107 0l-.006.007-.148.163c-.01.01-.017.026-.017.047Z" fill="#6C99AF"/><path opacity=".1" d="M37.816 44.718c-.045-.027-.083-.005-.083.048s.038.118.084.144c.045.027.083.005.083-.048a.182.182 0 0 0-.084-.144Z" fill="#040000"/><path d="M43.69 41.275c.017-.01.04-.009.065.006.05.03.091.1.091.159 0 .03-.01.05-.027.06l-.968.558c.014-.01.022-.03.022-.056a.204.204 0 0 0-.092-.16c-.023-.013-.045-.015-.06-.008l.969-.56Z" fill="#FBFBFB"/><path d="M43.663 41.334c0 .058.041.13.092.158.025.015.048.017.064.007.017-.01.028-.03.028-.06 0-.058-.041-.129-.092-.158-.025-.015-.048-.016-.065-.006s-.027.03-.027.059Z" fill="#F5F5F5"/><path d="m43.868 40.942.002-.002a.017.017 0 0 1 .004-.002l.382-.22.009-.006h.002c.042-.021.097-.016.158.019a.514.514 0 0 1 .233.403c0 .075-.026.127-.069.151l-.387.223-.002.002-.002.001c-.042.022-.099.018-.161-.018a.514.514 0 0 1-.233-.403c0-.072.024-.122.064-.148Z" fill="#6C99AF"/><path opacity=".05" d="m43.868 40.942.002-.002a.017.017 0 0 1 .004-.002l.382-.22.009-.006h.002c.042-.021.097-.016.158.019a.514.514 0 0 1 .233.403c0 .075-.026.127-.069.151l-.387.223-.002.002-.002.001c-.042.022-.099.018-.161-.018a.514.514 0 0 1-.233-.403c0-.072.024-.122.064-.148Z" fill="#040000"/><path opacity=".1" d="M44.038 40.955c-.13-.074-.233-.014-.233.135 0 .148.104.33.233.403.128.075.233.015.233-.134a.516.516 0 0 0-.233-.404Z" fill="#040000"/><path d="m37.628 44.857.158-.094c.008-.005.018-.005.03.002a.095.095 0 0 1 .044.074c0 .014-.005.023-.013.027l-.157.095a.061.061 0 0 1-.09-.053c0-.02.01-.04.028-.05Z" fill="#445962"/><path d="m37.618 44.865.008-.007c.008-.003.018-.002.028.004a.094.094 0 0 1 .043.074c0 .013-.005.023-.012.027l-.003.002-.003.001a.06.06 0 0 1-.08-.058c0-.017.007-.032.019-.043Z" fill="#263138"/></g><g opacity=".5"><path d="m4.045 42.131-1.011-.198c-.03-.006-.05.029-.03.051l.686.778.355-.63Z" fill="#F3A4A3"/><path d="M3.004 41.984a.031.031 0 0 1 .03-.051l.197.039a.174.174 0 0 0-.082.16l.002.019-.147-.167Z" fill="#263138"/><path d="m8.17 45.33-.083-.048-.1-.057-4.296-2.463a.463.463 0 0 1 .028-.336c.071-.16.211-.287.327-.294l4.294 2.462.19.11c-.127-.065-.487.56-.36.626Z" fill="#6C99AF"/><path d="m7.855 45.15-.185-.106c-.055-.029-.023-.163.04-.301.085-.184.25-.363.323-.324l.136.078.049.029c-.073-.039-.239.14-.323.324-.061.133-.092.261-.046.297l.006.003Z" fill="#EBEBEB"/><path d="M7.809 45.123c-.127-.067.236-.692.363-.625l.185.106c-.127-.067-.49.558-.363.625l-.185-.105Z" fill="#6C99AF"/><path d="m8.171 45.33-.182-.105c-.125-.065.22-.671.352-.631l.008.002.183.107c-.128-.063-.488.561-.36.627Z" fill="#EBEBEB"/><path opacity=".15" d="m3 41.95.034-.017.735.402 4.502 2.583c.007-.012.013-.012.018-.005-.108.168-.19.38-.118.417l-.083-.047-.1-.057-4.296-2.464-.687-.778A.03.03 0 0 1 3 41.951Z" fill="#040000"/><path d="m8.945 45.774-.775-.444c-.054-.028-.024-.16.038-.298.084-.185.25-.365.323-.328l.778.446c.155.09.013.425-.16.574-.064.056-.135.082-.204.05Z" fill="#01435C"/><path opacity=".1" d="M8.9 45.533c.044-.174.185-.346.316-.382.048-.014.087-.007.116.015.116.109-.02.416-.183.558-.062.056-.133.08-.2.052-.057-.035-.08-.125-.05-.243Z" fill="#040000"/></g><g opacity=".5"><path d="m46.58 41.062 1.01-.198c.03-.006.05.029.03.052l-.686.777-.355-.63Z" fill="#F3A4A3"/><path d="M47.62 40.916a.031.031 0 0 0-.03-.052l-.196.039a.175.175 0 0 1 .081.161l-.001.018.147-.166Z" fill="#263138"/><path d="m42.455 44.261.082-.047.1-.057 4.297-2.464a.463.463 0 0 0-.028-.335c-.072-.16-.211-.287-.327-.295l-4.294 2.463-.191.11c.128-.065.488.56.36.625Z" fill="#6C99AF"/><path d="m42.77 44.081.184-.106c.055-.029.023-.163-.04-.301-.085-.184-.25-.363-.323-.324l-.136.078-.049.029c.073-.038.239.14.323.324.061.133.092.262.046.297a.024.024 0 0 1-.005.003Z" fill="#EBEBEB"/><path d="M42.816 44.055c.127-.067-.236-.693-.363-.626l-.185.106c.126-.067.49.558.363.626l.185-.106Z" fill="#6C99AF"/><path d="m42.455 44.261.182-.104c.125-.065-.22-.672-.352-.632l-.008.003-.183.107c.128-.064.488.56.36.626Z" fill="#EBEBEB"/><path opacity=".15" d="m47.625 40.882-.034-.018-.735.402-4.502 2.583c-.007-.012-.013-.012-.018-.005.108.168.19.38.118.417l.083-.047.1-.057 4.296-2.464.687-.777c.01-.01.01-.024.005-.034Z" fill="#040000"/><path d="m41.68 44.705.775-.444c.054-.028.024-.16-.039-.298-.084-.185-.25-.365-.322-.328h-.001l-.778.446c-.154.09-.012.425.16.575.065.056.136.08.204.049Z" fill="#01435C"/><path opacity=".1" d="M41.725 44.465c-.044-.175-.186-.347-.316-.383-.048-.014-.087-.007-.116.015-.117.109.019.416.182.559.063.055.133.08.2.05.058-.034.08-.123.05-.242Z" fill="#040000"/></g><path d="M19.818 14.08c.013-.13-.08-.24-.174-.317a2.188 2.188 0 0 0-.41-.245 3.858 3.858 0 0 0-.49-.205 4.457 4.457 0 0 0-1.042-.216c-.69-.06-1.385.03-2.051.205-.33.087-.661.188-.974.325a2.952 2.952 0 0 0-.301.153 1.034 1.034 0 0 1-.106-.13c-.092-.135-.09-.268.016-.397.09-.108.204-.195.327-.264.247-.137.527-.202.805-.245a6 6 0 0 1 3.443.5c.041.019.045-.059.012-.075a5.982 5.982 0 0 0-3.02-.586c-.323.022-.65.064-.96.16a1.706 1.706 0 0 0-.435.2c-.127.084-.26.192-.33.329-.106.204.012.403.163.56-.148.096-.284.21-.395.348-.1.124-.149.25-.04.387.107.137.257.251.402.347.177.118.37.21.567.287.084.162.23.298.374.397.081.056.165.106.252.152a.545.545 0 0 0-.044.507c.083.19.26.335.452.426a.405.405 0 0 0 .09.326.356.356 0 0 0 .374.091.356.356 0 0 0 .016.083c.066.193.27.255.442.317.032.012.036-.053.008-.064-.13-.046-.303-.118-.362-.253-.017-.04-.023-.083-.017-.125a.292.292 0 0 0 .12-.162c.01-.04-.025-.089-.068-.071a.227.227 0 0 0-.131.16.3.3 0 0 1-.172.037c-.13-.012-.213-.116-.22-.243 0-.02 0-.04.003-.06.04.016.08.03.119.04a.75.75 0 0 0 .372.017c.1-.024.276-.1.264-.226-.01-.122-.168-.192-.27-.218a.505.505 0 0 0-.37.044.404.404 0 0 0-.179.22c-.175-.082-.34-.213-.406-.384-.057-.15-.02-.295.061-.42a2.883 2.883 0 0 0 1.508.3c.248-.02.692-.054.725-.376a.317.317 0 0 0-.033-.176c.104-.025.207-.055.308-.093.14-.053.296-.125.312-.292.015-.15-.078-.283-.195-.365a.94.94 0 0 0-.092-.056c.177-.013.353-.032.528-.057.314-.044.636-.109.914-.267.125-.07.295-.171.31-.33Zm-3.357 2.358c.052.018.17.063.136.13-.024.05-.114.087-.163.103a.64.64 0 0 1-.346.002 1.06 1.06 0 0 1-.126-.04c.074-.182.303-.263.499-.195Zm-2.2-1.64a1.964 1.964 0 0 1-.185-.146c-.056-.05-.131-.108-.164-.175-.04-.078.019-.15.066-.21.047-.059.1-.113.155-.164.076-.07.159-.13.245-.186.038.035.076.066.111.093.24.189.514.323.804.423l-.038.008c-.269.07-.543.249-.497.563.003.023.01.044.015.066a2.647 2.647 0 0 1-.512-.273Zm.875.634a1.06 1.06 0 0 1-.167-.177c.092.033.187.062.28.09.154.043.31.085.466.122l-.078.06a.925.925 0 0 0-.137.146 1.985 1.985 0 0 1-.364-.24Zm2.445.409c-.116.091-.278.112-.42.13a2.767 2.767 0 0 1-1.292-.139 3.027 3.027 0 0 1-.28-.115c.061-.073.135-.137.209-.186l.055-.035c.426.092.861.148 1.295.129a3.05 3.05 0 0 0 .5-.065.22.22 0 0 1-.067.28Zm-1.585-.42c.18-.084.378-.134.572-.157.26-.031.56-.022.806.08a.67.67 0 0 1 .192.117 3.267 3.267 0 0 1-.711.058 5.48 5.48 0 0 1-.86-.098Zm2.199-.465c.04.054.064.128.046.195-.022.08-.097.125-.168.157-.127.057-.263.1-.398.132-.004 0-.007 0-.01.002a.797.797 0 0 0-.32-.206 1.857 1.857 0 0 0-.872-.06c-.218.034-.44.1-.636.212a8.091 8.091 0 0 1-.691-.184 4.675 4.675 0 0 1-.255-.087.373.373 0 0 1-.016-.267c.085-.246.394-.31.635-.35.324.092.66.148.982.19a7.87 7.87 0 0 0 1.354.056c.127.048.269.103.349.21Zm-2.4-.493a4.242 4.242 0 0 1 1.752.177 7.79 7.79 0 0 1-1.752-.177Zm3.688-.177c-.247.15-.532.22-.814.265-.275.044-.552.07-.83.082a4.434 4.434 0 0 0-2.331-.245c-.17-.05-.338-.11-.499-.182a2.199 2.199 0 0 1-.545-.34c.136-.078.28-.142.425-.198.283-.11.575-.199.868-.273 1.197-.304 2.53-.315 3.627.319.107.061.24.129.301.24.083.15-.091.264-.202.332Z" fill="#445962"/><g opacity=".5" fill="#6C99AF"><path d="m7.214 29.521.358-2.324-.966-1.203.701-3.45 2.373.066-1.584 3.24.548 1.218-1.43 2.453ZM7.935 29.348l2.293-2.717 1.016.875-3.31 1.842ZM6.855 29.14l-.209-1.95-.945-1.34-.309-2.328-1.564-.193.971 2.73 1.467 1.318.589 1.764Z"/></g><path d="M23.162 14.44a.388.388 0 0 1-.15.194c-.074.053-.16.105-.258.156l-.313.164c-.11.058-.216.131-.315.22-.1.087-.188.196-.266.325a1.343 1.343 0 0 0-.164.476c-.033.194-.028.375.015.543.044.169.12.319.228.45.108.133.246.243.413.333.167.09.36.152.576.189a2.061 2.061 0 0 0 1.52-.308l-.178-.425a.206.206 0 0 0-.175-.144.242.242 0 0 0-.135.025 3.067 3.067 0 0 1-.191.075 1.226 1.226 0 0 1-.635.048.87.87 0 0 1-.264-.086.632.632 0 0 1-.194-.154.553.553 0 0 1-.119-.455.717.717 0 0 1 .148-.345c.075-.09.164-.169.264-.235.1-.066.206-.125.317-.176.112-.052.213-.107.306-.167a.94.94 0 0 0 .235-.21.502.502 0 0 0 .102-.3l.04-.617-.63-.107-.177.53Zm1.159-1.786a.588.588 0 0 0-.376-.228.582.582 0 0 0-.427.093.565.565 0 0 0-.226.598.555.555 0 0 0 .25.349.556.556 0 0 0 .214.082.567.567 0 0 0 .658-.468.581.581 0 0 0-.093-.426ZM26.528 19.344a.426.426 0 0 0-.106-.113.405.405 0 0 0-.642.4.385.385 0 0 0 .16.254.418.418 0 0 0 .314.073.408.408 0 0 0 .259-.158.396.396 0 0 0 .067-.15.398.398 0 0 0-.052-.306Zm1.327-2.203a.824.824 0 0 0-.142-.33.967.967 0 0 0-.28-.254 1.325 1.325 0 0 0-.4-.16 1.49 1.49 0 0 0-1.094.152l.107.311c.016.06.056.096.119.11a.17.17 0 0 0 .097-.012c.038-.014.084-.03.139-.045a.869.869 0 0 1 .453-.007.63.63 0 0 1 .184.073.451.451 0 0 1 .131.117.388.388 0 0 1 .065.329.507.507 0 0 1-.12.239.846.846 0 0 1-.199.156 1.79 1.79 0 0 1-.233.112 1.92 1.92 0 0 0-.224.105.675.675 0 0 0-.176.139.359.359 0 0 0-.086.208l-.055.437.443.103.15-.369a.276.276 0 0 1 .114-.132c.055-.034.118-.067.19-.1l.23-.102a1.12 1.12 0 0 0 .234-.143.957.957 0 0 0 .34-.551.909.909 0 0 0 .013-.386Z" fill="#EBEBEB"/><path d="m45.918 26.497-.4-.11c-.072-.02-.12-.09-.108-.155l.626-2.919c.014-.066.083-.103.155-.083l.757.207c.073.02.114.085.093.144l-.954 2.843c-.02.06-.097.093-.169.073ZM45.34 27.819a.448.448 0 0 1-.315-.555.448.448 0 0 1 .554-.315.448.448 0 0 1 .315.554.448.448 0 0 1-.554.316ZM47.13 28.374l-.287-.18c-.052-.032-.073-.098-.047-.146l1.175-2.126c.026-.048.089-.06.14-.028l.541.34c.052.032.07.093.039.134l-1.413 1.99c-.03.041-.097.048-.149.016ZM46.368 29.267a.364.364 0 0 1-.115-.506.365.365 0 0 1 .506-.115c.194.122.21.354.115.505a.364.364 0 0 1-.506.116Z" fill="#6C99AF"/><path d="M17.486 26.65c-.286.974-.324 1.993.139 3.003.462 1.01 2.094 4.049 2.094 4.049l2.743-1.187-2.48-4.335-2.496-1.53Z" fill="#FBE0D3"/><path d="M17.41 31.837c-.736-.172-1.476-.426-1.92-1.051-.178-.249-.336-.513-.553-.728-.247-.245-.558-.414-.829-.634a2.79 2.79 0 0 1-.41-.41c-.054-.066-.142-.142-.212-.093a.144.144 0 0 0-.042.051c-.12.216-.082.487.011.716.094.229.238.434.332.662.04.1.112.31.036.409-.088.114-.336.046-.447.016-.179-.05-.628-.142-1.147-.406a9.57 9.57 0 0 1-.79-.537c-.173-.124-.38-.22-.592-.196a.177.177 0 0 0-.066.017c-.047.027-.065.088-.056.14.008.053.036.1.063.147.048.08.093.163.136.246.052.1.1.157.06.278-.026.075-.067.146-.068.225-.003.155.133.255.192.386.068.15-.014.297.067.45.05.095.128.172.21.242.036.032.075.064.104.103.088.115.09.274.15.406.105.235.343.316.545.446a5.784 5.784 0 0 0 2.49.892c.191.021.383.051.575.074.419.049.538.073.712.136.831.303 3.15 1.134 3.729 1.277.436.108.874.212 1.312.313l.145-3.02c-.001 0-1.971-.144-3.737-.557Z" fill="#FBE0D3"/><path d="M20.176 21.514s-.86.937-1.28 1.602c-.348.555-1.25 2.545-1.41 3.533 0 0 .31 1.19 1.21 2.551.805 1.217 1.324 1.95 1.983 2.142 1.382.401 1.912-.525 1.912-.525.79.499 1.404.833 1.836 1.056.885-.331 2.342-1.037 3.43-2.535.887-1.218 2.712-2.163 3.724-2.317-.91-1.494-3.004-3.42-3.865-4.009-.97-.663-2.306-1.417-3.71-1.857-2.678-.84-3.16.014-3.83.359Z" fill="#6C99AF"/><path d="M16.982 26.404c.083-.215.09-.578-.222-.799-.281-.198-1.463-.603-1.932-.6a2.219 2.219 0 0 0-1.124.307c-.323.195.071.888-.289 1.023-1.973.738-3.115-.503-3.309-1.163-.186-.63-.18-1.337.132-1.608-.282-.494-.245-1.226-.05-1.756.748-2.026 2-2.235 2.41-2.183.006 0 .197-.322.536-.526.572-.345 1.022-.414 1.814-.32.466.056 1.08.234 2.218.923.58.351 1.044.73 1.69.933a.607.607 0 0 1-.535.22c.58.291.889.669.95 1.314-.19-.175-.385-.297-.723-.297.244.187.48.643.183.993-.145.17-.326.272-.54.333-.176.05-.353.083-.534.108-.49.068-.148.692-.087.965.095.42.1.785.057 1.233-.047.496-.378.83-.645.9Z" fill="#22120E"/><path d="M11.805 25.49c.188.138.403.265.607.379.408.224.861.444 1.293.613 1.583.621 2.28.358 2.657.03.236-.206.58-.718.699-1.271l.917.467s.562 1.605 1.483.5c.352-.421.655-1.263.461-2.015-.197-.764-.604-1.183-.604-1.183l-2.091-1.106s.511-.382.213-1.057c-.275-.622-.824-.951-1.364-.773-.54.178-.776.867-.394 1.423.272.397-.092.462-.534.26-.445-.205-.73.08-1.021.127-.991.155-1.07-.296-1.72-.03-.373.152-.786.83-.613 1.557-.837.386-.975 1.354.01 2.079Z" fill="#FBE0D3"/><path d="M14.243 23.054a.304.304 0 1 1-.28.54c-.149-.077-.07-.21.007-.36.077-.149.123-.258.273-.18ZM13.19 24.907a.304.304 0 1 1-.159.587c-.162-.044-.113-.19-.07-.353.045-.162.067-.278.23-.234ZM15.494 25.022a.375.375 0 0 1-.085-.152.598.598 0 0 1-.027-.207c.006-.136.064-.274.187-.34.01-.005.021-.01.033-.007.013.004.02.02.018.034-.007.06-.056.125-.071.185a.69.69 0 0 0-.024.18c0 .057.007.118.03.17.019.043.045.083.064.126.007.016.02.04.01.057a.038.038 0 0 1-.046.014.251.251 0 0 1-.09-.06ZM12.444 24.502l-.176.605a.302.302 0 0 0 .39-.202.33.33 0 0 0-.214-.403ZM13.694 22.453l-.433.456c.122.126.319.125.439-.001a.331.331 0 0 0-.005-.456Z" fill="#22120E"/><path d="M17.06 25.24c.275-1.297.15-2.3-.234-2.724 0 0 .621.271.727.972.112.734-.177 1.914-.177 1.914l-.316-.161Z" fill="#E0C6BD"/><path d="m33.999 46.854.03.065c.056.124.111.258.223.334.17.115.413.051.557-.093.145-.144.211-.348.26-.546.153-.627.276-1.447-.006-2.054-.24-.52-.769-.828-1.214-1.188a4.951 4.951 0 0 1-1.098-1.251c-.16-.258-.323-.555-.614-.64-.15-.043-.31-.02-.466-.015-.387.014-.693-.093-1.032-.253l-.152-.071c-.769-.436-2.647-1.813-3.09-2.16l-1.468 2.664c.972.405 3.246 1.462 3.99 1.765.455.185.9.458 1.322.71a9.84 9.84 0 0 1 1.298.908c.6.505 1.126 1.115 1.46 1.825Z" fill="#FBE0D3"/><path d="M32.23 28.898c1.405 1.987 1.467 4.892-.922 7.112-2.966 2.755-9.864 3.004-11.292 2.06-1.443-.954-1.572-3.014 1.993-4.542 1.914-.82 3.589-.99 5.796-1.224.394-.367 4.046-3.884 4.424-3.406Z" fill="#8BA8AE"/><path d="M19.056 36.372c-.058.96.474 2.35 3.463 3.792 2.715 1.309 4.303 2.007 4.303 2.007s1.333-.752 1.758-2.416c0 0-.952-.766-2.259-1.813-1.307-1.048-4.83-2.91-6.437-3.094-.569.389-.803 1.105-.828 1.524Z" fill="#8BA8AE"/><path d="M22.009 33.529c1.913-.82 3.608-1.808 5.815-2.041.394-.367 4.405-1.97 4.405-1.97" fill="#263138"/><path d="M33.813 47.036c.073.19.235.436.464.512.325.108.65-.2.777-.382.144-.205.358-.673.423-1.175.086-.66.091-1.164-.197-1.63-.248-.401-.594-.616-.954-.916-.316-.264-.685-.463-.976-.758-.286-.29-.394-.704-.616-1.037-.278-.415-.67-.668-1.18-.523-.534.152-.577.082-.785-.006-.25-.106-.282.02-.282.02l.152.072c.317.369-.313 2.013-.539 2.24l-.18-.043s-.063.13.144.215c1.008.406 2.18 1.343 2.926 2.114.358.369.638.819.823 1.297Z" fill="#E0E0E0"/><path d="M35.504 45a.684.684 0 0 0-.547-.138c-.366.076-1.196.808-1.438 1.577.113.192.214.39.293.597.074.19.236.436.464.512.326.108.651-.2.778-.382.144-.205.357-.673.423-1.175.048-.374.069-.696.027-.991ZM32.733 41.65c-.277-.415-.669-.669-1.18-.523-.05.014-.091.025-.133.035.195.578.808 1.287 1.62 1.065-.1-.195-.187-.398-.307-.577Z" fill="#6C99AF"/><path d="M33.342 44.95a.655.655 0 0 0 .45-.104c.317-.194.504-.544.642-.89.13-.329.233-.672.26-1.025a1.979 1.979 0 0 0-.179-1.034c-.125-.252-.313-.465-.484-.688a2.142 2.142 0 0 1-.332-.561c-.034-.094-.036-.184-.059-.279-.026-.11-.06-.218-.084-.329-.062-.278-.098-.572-.255-.81-.275-.415-.784-.51-1.223-.653a15.725 15.725 0 0 0-.324-.102l-.16-.083c-.793-.388-3.223-2.018-3.686-2.339l-1.306 2.889c.996.346 3.055 1.11 3.725 1.427.268.127.542.267.77.46.388.328.697.79.95 1.227.174.3.32.614.452.933.063.152.09.31.123.47.062.309.092.653.189.95.08.244.262.492.53.541Z" fill="#FBE0D3"/><path d="M31.595 38.392c.193.447-.478 2.095-.76 2.246l-.19-.11s-.088.116.194.285c.282.17.682.635.874.895.192.26.672 1.13.76 1.553.09.422.248 1.243.325 1.714.078.472.86.647 1.425-.169.536-.773.737-1.664.542-2.512-.195-.849-.58-1.1-.845-1.477-.264-.377-.215-.821-.357-1.301s-.248-.774-.765-.898c-.517-.123-.972-.231-1.161-.355-.189-.124-.272.007-.272.007l.23.122Z" fill="#F5F5F5"/><path d="M33.698 40.217c-.04-.222-.063-.456-.135-.701-.142-.48-.248-.774-.765-.898a34.83 34.83 0 0 1-.453-.11c-.044.655.407 1.69 1.353 1.709ZM34.314 43.275c-.429-.036-1.041.389-1.6 1.226.033.174.062.34.084.474.077.472.86.647 1.424-.169.26-.375.44-.778.535-1.19-.04-.174-.171-.318-.443-.341Z" fill="#6C99AF"/><path d="M32.317 28.212c1.06 2.65.524 4.753-.829 6.03-2.397 2.263-10.083 2.082-11.587 1.266-1.521-.825-1.308-2.624 2.111-4.456 1.835-.983 3.568-1.635 5.908-2.283.36-.4 2.326-1.858 3.597-1.86.378.476.473.692.8 1.303Z" fill="#A0BCC5"/><path d="M21.65 33.211c.742-.311 4.07.322 5.793.913 1.46.5 2.939.333 4.111-1.234 1.11-1.483 1.155-3.175 1.044-3.862.708 2.135.089 4.082-1.11 5.213-1.552 1.466-5.32 1.906-8.193 1.813L21.65 33.21Z" fill="#91ADB1"/><path d="M19.004 34.13c-.043.95.707 2.199 3.477 3.265a163.841 163.841 0 0 1 4.889 1.968s1.12-1.158 1.4-2.853c0 0-.86-.564-2.253-1.494-1.393-.93-2.85-1.77-4.466-1.814-1.616-.045-3.047.928-3.047.928Z" fill="#A0BCC5"/><path d="m25.662 28.854-3.497-3.629s-2.195-2.109-2.136-3.548c1.083-1.263 2.338-1.302 3.646-.4 1.308.903 4.336 5.22 4.82 5.96.567.867.94 1.303.275 2.579-1.253 2.408-1.914 3.002-2.831 4.582-.576.99-.594 1.128-1.08 2.14-.327.684-.646 1.38-1.169 1.941a3.54 3.54 0 0 1-.115.118c-.128.126-.285.25-.465.242-.054-.003-.11-.017-.16-.001-.036.01-.066.035-.096.058-.176.132-.407.208-.619.151-.056-.015-.11-.039-.168-.038-.06 0-.114.028-.17.05-.246.102-.537.14-.768-.02-.067-.047-.14-.133-.22-.153-.09-.023-.199.005-.288.026a5.524 5.524 0 0 0-.294.075c-.055.016-.112.033-.169.027-.057-.006-.116-.04-.13-.096a.187.187 0 0 1-.002-.074c.033-.226.189-.417.364-.564l.059-.048c.125-.099.603-.514.713-.632.515-.553.694-.916.794-1.09.061-.106.134-.342.038-.465-.082-.106-.32-.088-.435-.072-.263.037-.515.132-.778.168-.263.036-.557.003-.749-.181a.153.153 0 0 1-.042-.057c-.031-.087.071-.157.154-.195.19-.087.37-.194.537-.318.302-.223.561-.502.883-.694.282-.168.6-.262.906-.38.77-.296 1.234-.998 1.61-1.719.904-1.73 1.582-3.743 1.582-3.743Z" fill="#FBE0D3"/><g opacity=".5"><path d="m17.648 40.28-.22-.116.2-.048c.042.046.044.102.02.165Z" fill="#6C99AF"/><path opacity=".5" d="m17.648 40.28-.22-.116.2-.048c.042.046.044.102.02.165Z" fill="#040000"/><path d="M11.839 43.207a.493.493 0 0 0 .446 0l5.006-2.891-7.494-4.257-.175-.102-5.007 2.82c-.122.072-.122.188 0 .258l7.224 4.172Z" fill="#6C99AF"/><path d="m13.72 37.816 1.745 1.005 1.13-.652 1.315.76v.877c0 .114-.13.278-.176.251 0 0-.103.021-.251.09-.149.068-.363.268-.363.268l-4.012-2.246.611-.353Z" fill="#6C99AF"/><path opacity=".15" d="m13.72 37.816 1.745 1.005 1.13-.652 1.315.76v.877c0 .114-.13.278-.176.251 0 0-.103.021-.251.09-.149.068-.363.268-.363.268l-4.012-2.246.611-.353Z" fill="#040000"/><path d="M17.189 39.034v.952l.015-.01a.452.452 0 0 1 .214-.066c.055 0 .103.004.14.033V38.82l-.37.214Z" fill="#36464E"/><path d="M16.943 40.313a.288.288 0 0 1 .063-.162.565.565 0 0 1 .083-.09l.028-.024.023-.017a.93.93 0 0 1 .05-.033v-.949l-.245.142v-.005l-.002 1.138Z" fill="#E0E0E0"/><path opacity=".4" d="M17.91 39.806c0 .114-.13.278-.176.251l-.175-.114v-.724l.176-.303.096-.034.08.046-.001.878Z" fill="#040000"/><path d="M12.063 41.994v1.086a.297.297 0 0 0 .148-.035l.55-.317 4.182-2.415.001-1.138-4.881 2.819Z" fill="#EBEBEB"/><path d="M4.741 37.911v.82c0 .095.067.211.149.258l6.476 3.739.548.317c.04.024.094.035.149.035v-.964L4.74 37.91Z" fill="#F5F5F5"/><path d="m9.797 34.647 7.494 4.327v.1c0 .057.079.077.175.021.097-.056.175-.125.175-.221l.01-.095-7.637-4.408-.031-.018a.106.106 0 0 0-.013.046v.046c0 .056-.077.145-.173.202Z" fill="#6C99AF"/><path opacity=".1" d="m9.797 34.647 7.494 4.327v.1c0 .057.079.077.175.021.097-.056.175-.125.175-.221l.01-.095-7.637-4.408-.031-.018a.106.106 0 0 0-.013.046v.046c0 .056-.077.145-.173.202Z" fill="#040000"/><path d="m12.285 41.865 4.895-2.827c.063-.032.12-.058.143-.046l-.032-.018-7.494-4.327-.088-.051c-.048-.028-.154-.012-.236.035l-4.858 2.805c-.122.071-.122.187 0 .257l7.224 4.171a.491.491 0 0 0 .446 0ZM9.983 34.352l.031.018 7.637 4.408s.005-.012.016-.02l.026-.015.055-.032.068-.04a.07.07 0 0 1 .087.008.149.149 0 0 1 .032.04.52.52 0 0 1 .035.093l.01.057a.22.22 0 0 1 .005.035l.003.029a.795.795 0 0 1 .003.067v-.215c0-.118-.1-.272-.224-.343l-7.224-4.17c-.124-.072-.302-.084-.398-.029l-.09.053-.005.002a.417.417 0 0 1-.038.022l-.001.001a.08.08 0 0 0-.028.031ZM12.286 43.206l.302-.175 4.532-2.617a.292.292 0 0 1 .062-.162.66.66 0 0 1 .198-.174.447.447 0 0 1 .214-.067c.055 0 .103.017.14.046a.779.779 0 0 0 .084-.375h.172c0 .237-.079.474-.175.53l-.086.05c-.05.029-.088.03-.088.004v-.047c0-.051-.078-.048-.175.007-.096.056-.174.143-.174.194v.046c0 .027-.067.086-.149.133L12.76 43.13l-.474.274h-.001a.47.47 0 0 1-.223.053v-.198c.08 0 .162-.016.224-.053Z" fill="#6C99AF"/><path opacity=".3" d="m12.286 43.206.302-.175 4.532-2.617a.292.292 0 0 1 .062-.162.66.66 0 0 1 .198-.174.447.447 0 0 1 .214-.067c.055 0 .103.017.14.046a.779.779 0 0 0 .084-.375h.172c0 .237-.079.474-.175.53l-.086.05c-.05.029-.088.03-.088.004v-.047c0-.051-.078-.048-.175.007-.096.056-.174.143-.174.194v.046c0 .027-.067.086-.149.133L12.76 43.13l-.474.274h-.001a.47.47 0 0 1-.223.053v-.198c.08 0 .162-.016.224-.053Z" fill="#040000"/><path d="m12.283 41.866.002-.001.302-.175 3.483-2.01 1.111-.641c.08-.047.144-.063.148-.039V39.053c0 .056.079.056.175 0 .094-.054.135-.12.137-.175v-.055c0-.028.011-.057.026-.065l.026-.015.055-.032.068-.039c.031-.018.06-.015.087.008a.023.023 0 0 1 .008.007.1.1 0 0 1 .015.02c.004.004.005.008.008.012a.52.52 0 0 1 .035.093c.005.018.008.037.011.058.003.01.004.023.005.035l.002.028a.795.795 0 0 1 .003.067v.682h-.171V39l-.002-.053-.005-.043v-.005c-.016.137-.146.259-.26.323a.43.43 0 0 1-.21.066.23.23 0 0 1-.153-.057l-.015.008-.03.019-4.384 2.53-.474.275h-.001l-.004.002a.467.467 0 0 1-.219.051v-.198c.088 0 .16-.02.221-.052Z" fill="#6C99AF"/><path opacity=".3" d="m12.283 41.866.002-.001.302-.175 3.483-2.01 1.111-.641c.08-.047.144-.063.148-.039V39.053c0 .056.079.056.175 0 .094-.054.135-.12.137-.175v-.055c0-.028.011-.057.026-.065l.026-.015.055-.032.068-.039c.031-.018.06-.015.087.008a.023.023 0 0 1 .008.007.1.1 0 0 1 .015.02c.004.004.005.008.008.012a.52.52 0 0 1 .035.093c.005.018.008.037.011.058.003.01.004.023.005.035l.002.028a.795.795 0 0 1 .003.067v.682h-.171V39l-.002-.053-.005-.043v-.005c-.016.137-.146.259-.26.323a.43.43 0 0 1-.21.066.23.23 0 0 1-.153-.057l-.015.008-.03.019-4.384 2.53-.474.275h-.001l-.004.002a.467.467 0 0 1-.219.051v-.198c.088 0 .16-.02.221-.052Z" fill="#040000"/><path d="M4.523 37.562v.202c0 .046.03.092.089.127l.003.002 6.75 3.896.474.274v.001a.47.47 0 0 0 .223.052v-.198a.453.453 0 0 1-.223-.053l-.301-.174h-.001l-6.922-3.997c-.065-.038-.091-.083-.092-.132Z" fill="#6C99AF"/><path opacity=".2" d="M4.523 37.562v.202c0 .046.03.092.089.127l.003.002 6.75 3.896.474.274v.001a.47.47 0 0 0 .223.052v-.198a.453.453 0 0 1-.223-.053l-.301-.174h-.001l-6.922-3.997c-.065-.038-.091-.083-.092-.132Z" fill="#040000"/><path d="M4.523 38.904v.202c0 .046.03.092.089.127l.003.002 6.75 3.896.474.274a.47.47 0 0 0 .223.053v-.198a.449.449 0 0 1-.223-.053l-.301-.175h-.001l-6.922-3.996c-.065-.04-.091-.084-.092-.132Z" fill="#6C99AF"/><path opacity=".2" d="M4.523 38.904v.202c0 .046.03.092.089.127l.003.002 6.75 3.896.474.274a.47.47 0 0 0 .223.053v-.198a.449.449 0 0 1-.223-.053l-.301-.175h-.001l-6.922-3.996c-.065-.04-.091-.084-.092-.132Z" fill="#040000"/><path d="m17.649 38.084-5.853 3.334L4.01 36.95l5.853-3.335 7.785 4.468Z" fill="#6C99AF"/><path opacity=".2" d="m17.649 38.084-5.853 3.334L4.01 36.95l5.853-3.335 7.785 4.468Z" fill="#fff"/><path d="m11.742 41.213 5.687-3.256c-.119-.337-.11-.73.024-1.179l-5.657 3.23s-.087.283-.054 1.205Z" fill="#F5F5F5"/><path d="M12.027 39.639a.959.959 0 0 0-.437.752v.878c0 .277.195.39.437.25l5.621-3.219v-.217l-5.56 3.169c-.146.083-.263.015-.263-.15l.004-.814c0-.167.118-.368.263-.452l5.556-3.17v-.246l-5.621 3.219Z" fill="#6C99AF"/><path opacity=".4" d="M12.027 39.639a.959.959 0 0 0-.437.752v.878c0 .277.195.39.437.25l5.621-3.219v-.217l-5.56 3.169c-.146.083-.263.015-.263-.15l.004-.814c0-.167.118-.368.263-.452l5.556-3.17v-.246l-5.621 3.219Z" fill="#fff"/><path d="m17.648 36.42-7.785-4.468-5.62 3.22a.96.96 0 0 0-.437.751v.879c0 .138.048.235.128.28l7.785 4.468c-.08-.046-.128-.142-.128-.28v-.88c0-.277.195-.614.436-.752l5.621-3.218Z" fill="#6C99AF"/><path opacity=".85" d="m17.648 36.42-7.785-4.468-5.62 3.22a.96.96 0 0 0-.437.751v.879c0 .138.048.235.128.28l7.785 4.468c-.08-.046-.128-.142-.128-.28v-.88c0-.277.195-.614.436-.752l5.621-3.218Z" fill="#fff"/><path d="M11.718 39.963a.882.882 0 0 0-.128.428v.879c0 .137.049.235.128.28l-7.784-4.467c-.08-.046-.128-.143-.128-.281v-.879c0-.138.049-.291.128-.428l7.784 4.468Z" fill="#6C99AF"/><path opacity=".6" d="M11.718 39.963a.882.882 0 0 0-.128.428v.879c0 .137.049.235.128.28l-7.784-4.467c-.08-.046-.128-.143-.128-.281v-.879c0-.138.049-.291.128-.428l7.784 4.468Z" fill="#fff"/><path d="M4.96 36.078c-.142.615-.14 1.146 0 1.597l.362.209c-.14-.451-.142-.982 0-1.597l-.362-.209ZM10.13 39.063c-.14.615-.139 1.147 0 1.597l.362.21c-.14-.452-.14-.983 0-1.598l-.361-.209Z" fill="#fff"/></g><g opacity=".5"><path d="m18.183 36.326.001.174c.001.176-.092.34-.244.429l-4.688 2.725a.49.49 0 0 1-.493.002l-8.643-4.94a.494.494 0 0 1-.25-.426v-.12l9.138 5.223 5.18-3.067Z" fill="#263138"/><path d="m3.866 34.17 5.1-2.973a.294.294 0 0 1 .293-.001l8.891 5.082a.065.065 0 0 1 0 .113l-5.146 3.002-9.138-5.223Z" fill="#36464E"/><path d="m13.05 38.96 2.75-1.604-8.083-4.62-2.765 1.595 8.098 4.628Z" fill="#445962"/><path d="m14.385 34.53-.051.029-1.348.786-2.41-1.377-.05-.029 1.399-.815 2.46 1.405Z" fill="#263138"/><path d="m14.335 34.559-1.349.786-2.409-1.377 1.349-.787 2.409 1.378Z" fill="#445962"/><path d="m13.004 39.393.001.328a.491.491 0 0 1-.246-.065l-8.643-4.94a.494.494 0 0 1-.25-.426v-.12l9.138 5.223Z" fill="#040000"/><path d="M12.865 39.466a.584.584 0 0 1-.503-.036L3.756 34.51a.585.585 0 0 1-.285-.407l-.965-5.6a.585.585 0 0 1 .163-.512l8.943 5.113a.434.434 0 0 1 .21.3l1.043 6.061Z" fill="#6C99AF"/><path d="M12.865 39.466a.584.584 0 0 1-.503-.036L3.756 34.51a.585.585 0 0 1-.285-.407l-.965-5.6a.585.585 0 0 1 .163-.512l8.943 5.113a.434.434 0 0 1 .21.3l1.043 6.061Z" fill="#6C99AF"/><path d="m13.004 39.393-.06.034a.666.666 0 0 1-.08.04l-1.041-6.061a.433.433 0 0 0-.211-.301l-8.943-5.112a.59.59 0 0 1 .119-.092l8.96 5.122a.434.434 0 0 1 .212.301l1.044 6.07Z" fill="#263138"/><path d="M8.436 34.497c-.065-.375-.455-.872-.87-1.11-.417-.237-.701-.126-.637.249.064.375.454.872.87 1.11.416.237.701.126.637-.25Z" fill="#FBFBFB"/></g><path d="M15 24.944c-.01-.004-.086.092-.2.251-.027.041-.058.078-.096.074-.041 0-.085-.035-.133-.073l-.312-.24c-.446-.34-.823-.6-.84-.585-.018.016.33.304.776.642l.317.237c.048.033.098.08.184.082a.162.162 0 0 0 .11-.047c.024-.024.037-.048.05-.069.099-.165.155-.268.144-.272Z" fill="#22120E"/></g></g><defs><clipPath id="a"><rect width="48" height="48" rx="24" fill="#fff"/></clipPath><clipPath id="b"><path fill="#fff" d="M0 0h48v48H0z"/></clipPath></defs></svg>