<svg xmlns="http://www.w3.org/2000/svg" width="48" height="48" fill="none"><g clip-path="url(#a)"><rect width="48" height="48" fill="#fff" rx="24"/><g clip-path="url(#b)"><g fill="#F8DF88" opacity=".37"><path d="M14.293 8.176c-.05 0-.09-.036-.09-.082V4.416c0-.046.04-.082.09-.082.05 0 .09.036.09.082v3.678c0 .046-.04.082-.09.082Z"/><path d="M12.857 7.637a.096.096 0 0 1-.064-.024.077.077 0 0 1 0-.115l2.874-2.602a.097.097 0 0 1 .128 0 .077.077 0 0 1 0 .116l-2.874 2.601a.094.094 0 0 1-.064.024Z"/><path d="M16.326 6.337h-4.064c-.05 0-.091-.037-.091-.082 0-.045.04-.082.09-.082h4.066c.05 0 .09.037.09.082 0 .045-.04.082-.09.082Z"/><path d="M15.731 7.637a.095.095 0 0 1-.064-.024l-2.874-2.601a.077.077 0 0 1 0-.116.097.097 0 0 1 .128 0l2.874 2.602a.077.077 0 0 1 0 .115.096.096 0 0 1-.064.024Z"/></g><path fill="#F8DF88" d="m32.404 5.6.115.19c.13.215.319.388.544.499l.2.099-.192.115a1.314 1.314 0 0 0-.5.54l-.1.2-.115-.191a1.315 1.315 0 0 0-.543-.498l-.2-.099.191-.115c.215-.129.39-.317.5-.54l.1-.2ZM27.032 41.315a.166.166 0 1 1 .013.332.166.166 0 1 1-.013-.332Zm9.269.355a.27.27 0 1 0 .001-.542.27.27 0 0 0 0 .542Zm.625-32.58-.317 1.148.328.067.555-.886-.566-.328Zm-5.155-7.1 1.074.525.127-.307-.77-.709-.43.492Zm5.057 16.725 1.167.261.052-.329-.916-.51-.303.578Zm1.159-17.046.81-.02.085-.197-.59-.163-.305.38ZM32.696 45.65a.166.166 0 1 0-.013-.333.166.166 0 1 0 .013.332ZM26.771 1.92l1.147.339.074-.324-.878-.572-.343.556Zm5.292 37.878.982-.68-.208-.26-.997.327.223.613Zm-15.798-6.541 1.073.525.127-.308-.77-.709-.43.492Zm21.769 2.393 1.167.26.051-.328-.916-.51-.302.578Zm-1.044-8.052.81-.02.085-.198-.59-.162-.305.38ZM21.7 20.622l.59 1.035.279-.183-.236-1.018-.634.166Zm-.393 8.643 1.175.22.04-.33-.933-.479-.282.589ZM40.33 6.587a.166.166 0 1 0 0-.333.166.166 0 0 0 0 .333Zm1.694 9.42a.166.166 0 1 1 .014.331.166.166 0 0 1-.014-.331Zm4.968 2.729a.27.27 0 0 1 .282.26.27.27 0 0 1-.26.28.27.27 0 1 1-.022-.54Zm-5.433 3.462.803-.882-.262-.206-.897.541.356.547Zm1.764-9.224 1.167.26.052-.328-.916-.51-.303.578Zm-.886 14.14.485.824-.24.12-.616-.573.37-.371Zm5.329 17.193a.166.166 0 1 0-.013-.332.166.166 0 1 0 .013.332ZM9.304 24.56l1.355.302.06-.382-1.064-.592-.351.672Zm9.186-1.126a.27.27 0 1 0 .002-.541.27.27 0 0 0-.001.54Zm-2 4.443a.166.166 0 1 0-.012-.332.166.166 0 1 0 .013.332Zm-1.46-8.031.982-.679-.207-.26-.997.326.223.613ZM13.948 40.14a.166.166 0 1 0-.013-.333.166.166 0 1 0 .013.332ZM1.166 28.424a.27.27 0 1 0 0-.541.27.27 0 0 0 0 .541Zm8.456 11.8 1.167.26.051-.328-.915-.51-.303.578Zm-7.459-6.421a.166.166 0 1 0-.014-.332.166.166 0 1 0 .014.332Zm-2.259-1.471.982-.68-.208-.26-.996.327.222.613Zm12.155-2.916 1.166.26.052-.328-.916-.51-.302.578ZM5.622 18.694l.809-.019.086-.199-.59-.162-.305.38ZM6.889 2.76a.166.166 0 1 1 .013.332.166.166 0 1 1-.013-.332Zm-.467 6.192.803-.882-.261-.206-.898.54.356.548Zm.878 4.915.484.825-.24.12-.614-.573.37-.372Z" opacity=".37"/><g fill="#F8DF88" opacity=".37"><path d="M40.497 46.664c-.054 0-.098-.04-.098-.089V42.59c0-.049.044-.089.098-.089.054 0 .098.04.098.089v3.985c0 .05-.044.09-.098.09Z"/><path d="M38.94 46.08a.103.103 0 0 1-.07-.025.083.083 0 0 1 0-.126l3.115-2.818a.105.105 0 0 1 .138 0 .083.083 0 0 1 0 .126l-3.114 2.818a.105.105 0 0 1-.07.026Z"/><path d="M42.699 44.671h-4.404c-.054 0-.098-.04-.098-.089 0-.049.044-.089.098-.089H42.7c.054 0 .098.04.098.09 0 .049-.044.088-.098.088Z"/><path d="M42.054 46.08a.103.103 0 0 1-.07-.025l-3.114-2.819a.083.083 0 0 1 0-.125.105.105 0 0 1 .14 0l3.113 2.818a.083.083 0 0 1 0 .126.106.106 0 0 1-.069.026Z"/></g><g fill="#F8DF88" opacity=".37"><path d="M45.167 21.333c-.025 0-.045-.018-.045-.04v-1.84c0-.022.02-.04.045-.04.025 0 .046.018.046.04v1.84c0 .022-.02.04-.046.04Z"/><path d="M44.449 21.064a.048.048 0 0 1-.032-.012.038.038 0 0 1 0-.058l1.437-1.3a.049.049 0 0 1 .064 0 .038.038 0 0 1 0 .058l-1.437 1.3a.048.048 0 0 1-.032.012Z"/><path d="M46.184 20.414h-2.032c-.025 0-.046-.019-.046-.041 0-.023.02-.041.046-.041h2.032c.025 0 .046.018.046.04 0 .023-.02.042-.046.042Z"/><path d="M45.886 21.064a.048.048 0 0 1-.032-.012l-1.437-1.3a.038.038 0 0 1 0-.058.049.049 0 0 1 .064 0l1.437 1.3a.038.038 0 0 1 0 .058.048.048 0 0 1-.032.012Z"/></g><path fill="#F8DF88" d="M4.377 25.676a.934.934 0 0 0 .936-.932.934.934 0 0 0-.936-.931.934.934 0 0 0-.936.931c0 .515.42.932.936.932Z" opacity=".37"/><path fill="#F8DF88" d="M5.504 24.879a.803.803 0 0 0-.332-.305Zm29.333 12.119.093.153c.104.172.256.311.437.4l.16.08-.153.092a1.057 1.057 0 0 0-.403.435l-.08.16-.092-.153a1.054 1.054 0 0 0-.437-.4l-.16-.08.153-.092c.173-.104.313-.255.403-.435l.08-.16ZM12.035 16.524l.08.133c.091.15.223.27.38.347l.14.07-.134.08a.913.913 0 0 0-.35.377l-.069.139-.08-.134a.916.916 0 0 0-.379-.347l-.14-.069.134-.08c.15-.09.271-.22.35-.376l.068-.14ZM4.734 34.215l.08.133c.09.15.222.27.379.347l.14.07-.134.08a.914.914 0 0 0-.349.376l-.07.14-.08-.134a.915.915 0 0 0-.378-.347l-.14-.069.133-.08a.91.91 0 0 0 .349-.377l.07-.139Z" opacity=".37"/><path fill="#382926" d="M32.584 12.177a.405.405 0 0 0 .44-.27.41.41 0 0 0-.208-.475.583.583 0 0 0 .08-.118.745.745 0 0 0 .208-.213c.142-.217.254-.589.103-.827-.084-.132-.225-.226-.345-.322-.134-.108-.278-.21-.392-.34-.119-.136-.188-.306-.1-.476.069-.131.2-.201.285-.313.219-.1.408-.234.486-.456.098-.28-.032-.591-.214-.827a1.995 1.995 0 0 0-1.362-.756c.28-.046.229-.525-.036-.63-.264-.105-.556.035-.8.18.139-.252.272-.562.27-.837a.706.706 0 0 0-.022-.323c-.087-.264-.341-.438-.606-.493a1.82 1.82 0 0 0-.973.087 1.2 1.2 0 0 0-.087.039 1.359 1.359 0 0 0-.02-.154 1.06 1.06 0 0 0-.417-.67c.048-.147.076-.302.079-.459a1.647 1.647 0 0 0-.975-1.532 1.619 1.619 0 0 0-1.086-.064.03.03 0 0 0-.018.014c-.84-.01-1.622.55-2.035 1.283-.278-.209-.698-.153-.966.07a1.15 1.15 0 0 0-.349.535 1.636 1.636 0 0 0-.275-.229 1.412 1.412 0 0 0-.544-.216 1.004 1.004 0 0 0-.89.033c-.369.194-.504.564-.597.945-.054.224-.116.481-.24.689a.524.524 0 0 1-.135.036 1.496 1.496 0 0 0-.344-.355.993.993 0 0 0-.564-.142 1.584 1.584 0 0 0-1.469 1.182c-.155.659.188 1.4.79 1.705a.437.437 0 0 0-.41.5c.04.192.237.326.43.322-.417.095-.866.317-.852.726.007.219.157.404.317.553.04.037.081.073.124.109a1.805 1.805 0 0 1-.023.017c-.286.219-.53.502-.639.85-.103.332-.073.717.134 1.001.112.152.263.274.416.38a.714.714 0 0 0 .21.108c.012.008.024.017.037.024-.248.068-.48.177-.6.396-.208.379.07.87.456 1.06.217.108.466.147.708.12a.457.457 0 0 0-.146.36c.025.264.242.468.472.595a1.825 1.825 0 0 0 1.887-.111c.115-.082.233-.182.375-.182.262 0 .392.338.347.599-.044.26-.187.506-.173.77.018.354.323.639.658.746.314.101.652.079.981.048a.415.415 0 0 0-.04.282c.053.22.25.374.454.469a1.7 1.7 0 0 0 1.868-.33.295.295 0 0 0 .298.279.294.294 0 0 0 .264-.312c.352.204.872-.088.885-.497-.078.28.236.516.52.566a1.437 1.437 0 0 0 1.485-.738c-.038.067 0 .166.074.19.113-.06.178-.2.15-.326.302.113.67.009.869-.246a.799.799 0 0 0 .093-.79c.18.23.594.217.9.12.668-.214 1.326-.627 1.58-1.284.252-.655-.09-1.553-.78-1.675Zm-14.206-.78c-.134-.26-.12-.57-.022-.84a1.57 1.57 0 0 1 .455-.624c-.008.05-.016.1-.018.15l-.023.014c-.227.165-.357.445-.396.718-.04.274.02.551.152.786a.953.953 0 0 1-.148-.205Zm3.747-7.92c-.337.19-.511.552-.645.896-.08.205-.174.423-.342.572.176-.385.21-.893.468-1.202a.915.915 0 0 1 .633-.316.791.791 0 0 0-.114.05Zm6.628.439a.8.8 0 0 0-.264-.067 2.1 2.1 0 0 0 .037-.227c.083-.797-.616-1.528-1.408-1.659.715-.063 1.42.377 1.635 1.076.087.287.088.593 0 .877Zm.926 1.138c-.12.046-.25.088-.382.117.012-.078.018-.157.019-.235.048-.023.098-.043.15-.06.26-.082.563-.118.834-.068a.87.87 0 0 1 .347.144c-.285-.118-.66-.015-.968.102Zm2.334 4.055c.029-.049.086-.073.14-.093l.111-.04a.62.62 0 0 0-.11.292c-.017.278.202.49.403.648.133.104.268.205.402.308.17.13.215.28.18.489a.916.916 0 0 1-.184.412c.047-.269-.051-.579-.21-.817-.222-.336-.542-.608-.712-.973-.034-.071-.06-.158-.02-.226Z"/><path fill="#FAD2C3" d="M20.78 15.99c-.649-.258-8.19 3.516-8.667 5.08-.478 1.568 5.171 9.524 5.171 9.524l1.277-1.076s-3.418-6.745-3.341-7.175c.076-.431 4.584-1.549 4.752-1.82.168-.271.808-4.533.808-4.533Z"/><path fill="#D2B670" d="M17.018 28.36a5.576 5.576 0 0 0-.46 1.185c.438.643.727 1.05.727 1.05l1.277-1.077s-.434-.857-.989-1.977a4.025 4.025 0 0 0-.555.818Z"/><path fill="#D0B764" d="M37.407 57.767c.027.93-.33 2.026-.858 2.194-.758.236-.837-.226-3.243-2.133-2.399-1.9-7.63-4.93-9.224-6.686-1.59-1.753-3-11.99-3-11.99s.49 10.3 1.168 11.456c1.345 2.3 1.334 5.374 1.037 8.609-.32 3.47.784 7.673.669 8.354-.037.222-.403.55-.888.814l-.077.039c-1.015.52-2.481.73-2.61-.853-.195-2.39-1.333-14.186-2.122-16.659-.785-2.462-4.852-12.854-4.047-15.654.348-1.21 1.342-2.674 2.353-3.942a.657.657 0 0 1 .037-.046c.002-.002.002-.002.002 0 1.307-1.631 2.635-2.931 2.635-2.931l4.833 1.078.18.04.495.11s3.458 5.352 3.673 8.24c.214 2.898-1.758 9.468-.837 11.007.922 1.542 2.953.91 5.686 4.01 2.747 3.113 3.293 3.095 3.868 3.91.165.23.247.57.268.943.002.03.002.06.002.09Z"/><path fill="#AB9155" d="M21.167 39.067a7.006 7.006 0 0 0-1.16-1.16c-.41-.324-.856-.619-1.338-.818-.034-.014-.057.043-.025.061.456.259.907.52 1.324.843.049.039.096.08.143.119a2.643 2.643 0 0 0-.414-.183 2.033 2.033 0 0 0-.684-.117c-.04.002-.054.069-.01.076.222.037.441.066.658.132.22.066.431.152.632.266.01.006.019.004.027 0 .287.255.556.53.807.822.024.029.062-.013.04-.041Zm-.322-9.02c-.246.365-.413.807-.549 1.226a8.75 8.75 0 0 0-.31 1.308 14.67 14.67 0 0 0-.177 2.737c0 .034.05.034.051 0 .057-.91.063-1.814.206-2.714a9.12 9.12 0 0 1 .287-1.267c.138-.444.334-.85.53-1.267.013-.027-.022-.048-.038-.023Zm-.322-.847c-.521.828-.874 1.774-1.099 2.73a9.656 9.656 0 0 0-.234 2.95c.003.037.06.038.058 0-.043-.984.04-1.969.265-2.926.226-.96.605-1.858 1.063-2.723.018-.035-.032-.066-.053-.031Zm5.628 3.063c-.339.258-.614.586-1.044.693-.43.107-.82-.095-1.118-.4-.3-.307-.526-.689-.744-1.057a9.029 9.029 0 0 1-.646-1.302c-.016-.041-.08-.024-.065.018a8.53 8.53 0 0 0 1.126 2.075c.378.511.927.947 1.586.71.348-.125.708-.397.948-.682.024-.028-.008-.081-.043-.055Zm-6.928-2.703c-.082.346-.303.657-.53.92a4.45 4.45 0 0 1-.795.734c-.27.19-.593.329-.926.279a.839.839 0 0 1-.408-.177l.037-.046c.002-.002.002-.002.002 0 .15.11.345.16.535.152.323-.015.616-.208.86-.41.238-.198.463-.42.66-.66.205-.253.358-.53.514-.812.017-.028.058-.01.051.02Z"/><path fill="#AB9155" d="M37.407 57.767a54.54 54.54 0 0 1-.374-.443 23.304 23.304 0 0 0-5.006-4.405 24.64 24.64 0 0 0-2.906-1.595c-.488-.23-.983-.474-1.375-.85a3.188 3.188 0 0 1-.775-1.238c-.373-1.037-.378-2.2-.31-3.282.074-1.199.28-2.38.479-3.558.202-1.2.398-2.406.432-3.62a11.431 11.431 0 0 0-.427-3.433c-.615-2.158-1.778-4.119-3.074-5.927l.18.041c.124.177.242.354.359.534 1.219 1.86 2.308 3.846 2.787 6.043.242 1.114.297 2.254.214 3.394-.084 1.187-.294 2.362-.488 3.54-.201 1.205-.387 2.419-.41 3.645-.02 1.074.045 2.252.603 3.205.592 1.01 1.725 1.37 2.714 1.874a22.781 22.781 0 0 1 5.364 3.8c.714.676 1.406 1.399 2.01 2.185l.003.09ZM23.068 68.385c-.024.011-.05.025-.077.039-.015-.959-.176-1.916-.245-2.866a54.78 54.78 0 0 1-.125-3.101c-.035-2.057-.03-4.114-.275-6.15-.245-2.036-.82-4.004-1.207-6.003a46.844 46.844 0 0 1-.761-5.946 43.308 43.308 0 0 1 .03-5.99c.003-.03.05-.03.047 0l-.037.737a49.58 49.58 0 0 0 .1 6.025c.162 2.023.46 4.039.887 6.034.217 1.002.468 2 .679 3.008a25.6 25.6 0 0 1 .441 2.98c.179 2.044.154 4.104.205 6.165a41.67 41.67 0 0 0 .18 3.13c.065.643.144 1.29.158 1.938Z"/><path fill="#F8DF88" d="M18.254 28.84s.136-2.48-.457-3.637c-.593-1.154-.652-2.585-.15-4.1.628-1.895 1.798-4.723 2.854-5.161 1.055-.439 9.06 2.853 9.545 4.252.411 1.187-4.66 8.355-5.08 8.79-.419.433.41.212-.043 1.052-.25.467-2.36.764-4.038.479-1.455-.248-2.514-.998-2.631-1.675Z"/><path fill="#D5BD71" d="M22.149 27.384c-.151-.303-.411-.569-.66-.79a4.727 4.727 0 0 0-.85-.594 7.7 7.7 0 0 0-.927-.442c-.354-.14-.723-.296-1.094-.38-.035-.008-.06.042-.026.06.31.16.657.261.982.388.333.13.666.255.983.422.306.162.595.359.853.593.261.236.461.515.692.779.023.027.061-.007.047-.036Zm-.553-5.144a.12.12 0 0 1 .068.157.122.122 0 0 1-.159.068.12.12 0 0 1-.067-.158.122.122 0 0 1 .158-.068Zm.394-.617a.123.123 0 0 1-.172-.005.121.121 0 0 1 .005-.172.123.123 0 0 1 .173.005.12.12 0 0 1-.005.172Zm.132-.799a.122.122 0 1 1 .243 0 .122.122 0 0 1-.243 0Zm.566-.674a.123.123 0 0 1-.172-.005.121.121 0 0 1 .005-.172.123.123 0 0 1 .172.005.121.121 0 0 1-.005.172Z"/><path fill="#FAD2C3" d="M21.44 16.367c-.428-.058-.287 2.269 1.154 3.255 1.444.988 4.803-.12 5.02-.263.218-.143-2.927-2.552-6.174-2.992Z"/><path fill="#FAD2C3" d="M25.683 18.16s-.201.774-1.62.875c-1.42.105-1.288-.733-1.288-.733l-.082-.724-.237-2.086 2.905-.144.08.703.242 2.11Z"/><path fill="#E9C1B5" d="m25.336 15.35-2.88.142.198 1.738c1.143.015 2.227-.853 2.682-1.88Z"/><path fill="#FAD2C3" d="M19.105 29.94c-.06-.117-.555-.625-.827-.83.173.126.31.211.468.343.176.146.449.443.553.303.105-.14.018-.448-.186-.776-.243-.39-.518-.612-.636-.72-.126-.115-.403-.226-.628-.02-.407.372-.779.81-1.032 1.304-.282.547-.08.726.095 1.03.218.38 1.003.61 1.175.38.172-.23-.455-.34-.7-.791.182.333 1.039.701 1.303.488.14-.112-.014-.25-.1-.311-.259-.186-.573-.305-.75-.604.199.172.79.588 1.056.585.249-.003.276-.247.209-.381Z"/><path fill="#F8DF88" d="M22.07 14.42c-.062.76-.628 1.34-1.261 1.289-.633-.05-1.096-.714-1.032-1.473l.014-.112a1.48 1.48 0 0 1 .578-.98c.096-.068.204-.122.32-.161.076-.024.086.08.03.108-.089.043-.175.07-.257.12a.39.39 0 0 0-.051.033 1.22 1.22 0 0 0-.255.256 1.46 1.46 0 0 0-.274.744c-.059.703.362 1.313.936 1.36.574.046 1.09-.49 1.148-1.193.043-.52-.177-.987-.526-1.214.02-.007.039-.016.056-.023a.365.365 0 0 0 .055-.027c.35.256.564.738.52 1.273Z"/><path fill="#FAD2C3" d="M22.607 16.03c1.418.154 3.412-.404 4.392-1.731a5.47 5.47 0 0 0 .948-2.151c.53-2.587-.838-5.013-3.054-5.428-2.214-.415-3.76 1.13-4.493 4.032-.117.46-.207.912-.29 1.34-.447 2.295 1.079 3.783 2.497 3.938Z"/><path fill="#fff" d="M23.306 13.524c-.257-.164-.543.006-1.07-.045-.526-.05-.821-.241-.917-.144-.222.226.094.917.82 1.05.727.133 1.425-.697 1.168-.86Z"/><path fill="#382926" d="M29.915 9.14c-.164-.756-.711-1.338-1.27-1.82-.67-.579-1.41-1.092-2.243-1.3-.868-.217-1.776-.09-2.653.085a8.04 8.04 0 0 0-1.082.281c-.189.085-.383.158-.566.255-.22.117-.416.279-.566.478-.22.29-.463.881-.1 1.146a.4.4 0 0 0 .078.02c.279.034.578-.12.832-.225.224-.093.442-.203.655-.32a.45.45 0 0 0 .028.232c.119.28.457.313.703.272.247-.042.475-.161.677-.325a.76.76 0 0 0 .072.504.953.953 0 0 0 .3.305c.148.107.305.208.474.266.05.181.102.362.16.542.061.192.143.372.238.544-.1.252-.104.556-.04.815.087.352.32.655.637.785.137.056.285.046.423.088 0 .218-.08.42-.168.665-.198.553.204.853.46.307.255-.544.687-.198 1.119-.288.29-.06.603-.02.864-.168.279-.158.43-.49.557-.803.302-.74.581-1.553.41-2.341Z"/><path fill="#FAD2C3" d="M28.623 12.06a.727.727 0 0 1 .356.385c.09.211.089.442.046.653a1.553 1.553 0 0 1-.792 1.057c-.336.179-.905.33-1.238-.034-.147-.16-.174-.39-.163-.596.026-.445.132-.98.484-1.245.312-.233.897-.42 1.307-.22Z"/><path fill="#F8DF88" d="M28.91 15.352c.002.764-.515 1.388-1.15 1.388-.635 0-1.153-.624-1.153-1.388 0-.038.003-.073.004-.112.026-.39.198-.772.494-1.024.09-.076.193-.139.306-.187.073-.03.092.074.038.105-.084.05-.168.085-.246.142a.386.386 0 0 0-.049.036c-.092.08-.17.175-.232.276-.141.228-.21.496-.21.764 0 .707.471 1.282 1.047 1.282.577 0 1.047-.575 1.046-1.282-.001-.521-.26-.971-.628-1.17a.704.704 0 0 0 .055-.027.364.364 0 0 0 .052-.031c.371.227.626.692.627 1.228Z"/><path fill="#E9C1B5" d="M27.465 13.64c.009-.156.03-.3.099-.444.068-.141.161-.27.279-.374.122-.11.28-.19.446-.195a.494.494 0 0 1 .215.04c.062.028.153.086.159.16.003.044-.029.08-.074.076-.053-.004-.1-.05-.15-.07a.404.404 0 0 0-.262-.012.502.502 0 0 1 .103.61.114.114 0 0 1-.052.047c-.031.018-.08-.01-.082-.046 0-.018-.002-.034.003-.051l.016-.041a.51.51 0 0 0 .021-.225.453.453 0 0 0-.129-.243.81.81 0 0 0-.155.117c-.175.165-.313.42-.345.662-.008.06-.096.049-.092-.011Z"/><path fill="#382926" d="M24.983 10.158a1.53 1.53 0 0 0-.784-.454c-.193-.044-.733-.12-.756.19-.022.284.693.205.847.226.291.04.544.174.756.377.105.101.206.223.287.357-.048-.08-.06-.21-.097-.3a1.318 1.318 0 0 0-.253-.396Zm-4.067-.633a.796.796 0 0 1 .56-.22c.137 0 .522.038.538.292.014.233-.495.038-.605.026a.709.709 0 0 0-.54.164 1 1 0 0 0-.206.233c.035-.054.044-.157.07-.223a.768.768 0 0 1 .183-.272Z"/><path fill="#FAD2C3" d="M29.581 19.894c.615.456 4.255 4.253 4.255 4.253L32.492 18.1l1.37-.918s4.087 10.583 2.438 11.15c-1.273.437-7.712-3.706-8.486-4.409-.773-.702-.627-2.22-.269-3.308.358-1.086 1.348-1.231 2.036-.721Z"/><path fill="#FAD2C3" d="M35.344 14.414c-.315.335-.53.715-.61.686-.04-.015.125-.322.351-.762.233-.452.37-.791.2-.919-.17-.127-.897 1.021-1.056 1.362-.159.342.313-1.05.48-1.525.188-.532-.11-.657-.464-.023-.356.634-.558 1.243-.693 1.384-.024-.165.002-.361.187-1.12.138-.563-.135-.605-.398-.077-.146.292-.237.611-.331.924-.053.176-.09.356-.162.525-.048.113-.129.205-.196.307a4.303 4.303 0 0 0-.21.352c-.177.337-.324.704-.367 1.087-.035.309.008.627.087.927.056.212.139.432.29.594.354.38 1.582.246 1.645-.058.294-1.414 1.233-2.78 1.473-3.317.255-.57.13-.725-.226-.347Z"/><path fill="#C8A399" d="M33.67 13.785c-.021.035-.042.07-.065.104-.229.33-.497.628-.744.944l-.014.036c-.048.113-.129.205-.196.307a4.158 4.158 0 0 0-.209.351c.036.255.182.435.354.62.291.314.378.695.368 1.093.146-.326.112-.676.109-1.024 0-.02.006-.038.014-.053.038-.334.222-.628.33-.95.097-.293.1-.601.109-.908-.07.15-.126.26-.175.311-.02-.141-.004-.307.118-.831Z"/><path fill="#FAD2C3" d="M33.376 15.389c.201-.31.275-.7.203-1.064-.007-.034-.02-.075-.054-.085-.038-.012-.073.021-.099.051l-.428.5c-.263.307-.526.617-.713.978a2.054 2.054 0 0 0-.204 1.16c.029.258.098.561.313.732a.373.373 0 0 0 .297.083c.287-.057.433-.442.463-.698.036-.3-.037-.612-.183-.874-.025-.045-.053-.094-.047-.145a.216.216 0 0 1 .033-.08c.12-.2.292-.363.42-.558Z"/><path fill="#E1C361" d="M16.171 8.707c-.107-.188-.189-.932-.189-.932s-.101.707-.22.932c-.12.224-.595.299-.595.299s.445.017.575.222c.13.206.239 1.069.239 1.069s.066-.854.192-1.062c.126-.207.615-.256.615-.256s-.51-.084-.617-.272Zm.946 1.766c-.066-.116-.116-.574-.116-.574s-.063.436-.136.574c-.074.139-.367.185-.367.185s.275.01.355.137c.08.127.147.66.147.66s.04-.528.119-.656c.077-.128.379-.158.379-.158s-.315-.052-.38-.168Zm.302-2.253c-.04-.07-.07-.344-.07-.344s-.038.26-.082.344c-.044.083-.22.11-.22.11s.165.006.213.082c.048.076.088.395.088.395s.025-.315.071-.392c.047-.076.227-.095.227-.095s-.188-.03-.227-.1Zm12.678 3.748a1.106 1.106 0 0 1-.048-.236s-.025.179-.056.236c-.03.056-.15.076-.15.076s.113.004.145.056c.033.052.061.27.061.27s.017-.216.049-.269c.032-.052.156-.065.156-.065s-.13-.02-.157-.068Zm-.464-.812c-.056-.1-.1-.489-.1-.489s-.053.37-.115.489c-.062.117-.312.156-.312.156s.234.01.302.117c.068.108.125.56.125.56s.034-.448.1-.556c.067-.109.323-.134.323-.134s-.267-.045-.323-.143Z"/><path fill="#382926" d="M21.626 10.793a.289.289 0 0 1-.27.3.277.277 0 0 1-.306-.252.289.289 0 0 1 .27-.3c.159-.013.296.1.306.252Zm2.667.906a.289.289 0 0 1-.27.3.277.277 0 0 1-.306-.252.289.289 0 0 1 .27-.3c.159-.013.296.1.306.252Zm-1.86 1.029c.001-.012-.134-.04-.354-.075-.055-.008-.108-.02-.116-.059-.012-.04.013-.1.042-.164l.178-.42c.248-.6.43-1.092.405-1.102-.024-.01-.245.468-.493 1.066l-.17.423c-.024.063-.063.134-.036.219a.14.14 0 0 0 .089.084c.036.012.067.014.095.016.221.02.358.024.36.012Zm-.804-2.316c-.02.022-.142-.075-.316-.076-.172-.003-.3.092-.319.069-.009-.01.012-.051.067-.094a.42.42 0 0 1 .507.006c.053.044.07.085.061.095Zm2.795.878c-.028.008-.065-.14-.197-.234-.13-.096-.283-.086-.285-.116 0-.013.039-.036.106-.042a.371.371 0 0 1 .384.28c.016.066.006.11-.008.112Z"/><g opacity=".9"><path fill="#FAD2C3" d="M11.26 13.907c.06-.248-.147-.6-.4-.695a.725.725 0 0 0 .084-.643c-.08-.235-.358-.485-.615-.46.09-.184.18-.337.133-.533-.194-.804-1.519-.607-2.136-.539-.407.046-.824.164-1.232.134l-2.163 1.515-5.22.528.872 4.74s3.057-.891 3.618-.97c.562-.077 1.142.038 1.926-.07.635-.089 1.614-.318 2.535-.605.308-.095.339-.167.651-.244.277-.068.556-.136.816-.253.318-.143.987-.384 1.01-.91.007-.176-.043-.417-.178-.51a.777.777 0 0 0 .298-.485Z"/><path stroke="#CC9B91" stroke-miterlimit="10" stroke-width=".044" d="M10.96 14.393s-.617.374-1.288.559c-.5.137-.823.177-.938.121-.115-.056-.389-.375-.287-.677.057-.167.153-.29.197-.376 0 0 1.677-.493 2.21-.808m-2.101 1.885a.449.449 0 0 0 .032.5.781.781 0 0 0 .479.276c.19.037.393.024.587-.01"/><path stroke="#CC9B91" stroke-miterlimit="10" stroke-width=".044" d="M8.712 14.013a.716.716 0 0 1-.598-.255.57.57 0 0 1-.06-.596.946.946 0 0 1 .145-.208l2.13-.846"/><path fill="#FAD2C3" d="M-.288 13.214c1.847-.246 3.256-.467 3.662-.607.19-.066.355-.087.504-.22.18-.16.349-.33.53-.488.469-.41.974-.756 1.474-1.126.181-.134.354-.283.488-.463.15-.201.208-.434.305-.659.182-.426.305-.987.579-1.002.528-.028.725.467.669 1.06-.068.709-.465 1.375-.57 2.082-.16 1.08-.53 2.146-1.454 2.825"/><path stroke="#CC9B91" stroke-miterlimit="10" stroke-width=".044" d="M7.513 11.155c-.069.21-.128.42-.16.636-.16 1.08-.53 2.146-1.454 2.825m1.093-5.731s.146.06.146.147a.815.815 0 0 1-.152.427c-.06.058-.163.052-.235.008M8.2 12.955c-.378-.136-.548-.478-.445-.878.068-.264.29-.363.562-.44.44-.124.751-.346 1.207-.432"/><path fill="#E1C361" d="m-1.354 13.213 4.168-.676 1.192 5.417-5.025 2.154"/><path stroke="#C0A34F" stroke-miterlimit="10" stroke-width=".044" d="m2.778 18.48-1.147-5.75"/><path stroke="#BE9F4D" stroke-miterlimit="10" stroke-width=".044" d="M6.15 7.97 5.082 6.89m2.059.718-.318-1.587m1.47 1.509.398-1.425"/></g><g opacity=".9"><path fill="#FAD2C3" d="M38.297 26.078c-.143-.213-.069-.613.136-.786a.732.732 0 0 1-.3-.579c-.006-.247.17-.574.42-.637-.15-.142-.286-.257-.308-.456-.096-.821 1.22-1.077 1.824-1.217.398-.093.831-.12 1.205-.284l2.557.706 5.093-1.238.813 4.75s-3.184.178-3.739.291c-.555.113-1.061.415-1.837.573-.628.128-1.627.238-2.593.275-.323.012-.376-.045-.697-.013-.284.028-.57.056-.855.032-.348-.029-1.061-.033-1.263-.52-.068-.163-.104-.407-.008-.539a.792.792 0 0 1-.448-.358Z"/><path stroke="#CC9B91" stroke-miterlimit="10" stroke-width=".044" d="M38.745 26.436s.71.147 1.405.097c.516-.036.836-.106.924-.197.09-.09.236-.481.037-.732-.11-.139-.244-.223-.315-.288 0 0-1.747.093-2.358-.026m2.626 1.074a.45.45 0 0 1 .142.481c-.05.172-.188.32-.355.419a1.596 1.596 0 0 1-.556.186"/><path stroke="#CC9B91" stroke-miterlimit="10" stroke-width=".044" d="M40.73 25.331a.706.706 0 0 0 .475-.44.57.57 0 0 0-.148-.58.961.961 0 0 0-.21-.147l-2.294-.088"/><path fill="#FAD2C3" d="M48.924 21.587c-.696.145-1.392.288-2.091.418-.47.087-.942.178-1.422.184-.487.007-.91-.102-1.359-.279-.582-.23-1.177-.388-1.775-.57a2.344 2.344 0 0 1-.618-.273c-.21-.14-.346-.339-.515-.519-.318-.34-.627-.827-.89-.75-.506.15-.521.68-.264 1.22.307.645.91 1.14 1.253 1.77.523.963 1.238 1.843 2.341 2.175"/><path stroke="#CC9B91" stroke-miterlimit="10" stroke-width=".044" d="M40.875 22.243c.136.174.265.353.369.545.523.963 1.238 1.843 2.341 2.174m-3.003-5.029s-.116.105-.086.187a.83.83 0 0 0 .208.289c.025.024.05.049.082.063.078.034.172-.005.224-.071m-.162 3.763c.308-.253.35-.631.116-.973-.155-.226-.398-.245-.68-.227-.456.028-.826-.077-1.285-.005"/><path fill="#C0A34F" d="m48.904 21.682-3.757.443.727 5.839 4.844-.504"/><path fill="#E1C361" d="m51.996 20.979-6.15 1.045.806 6.47 5.344-.556"/><path stroke="#C0A34F" stroke-miterlimit="10" stroke-width=".044" d="m48.2 28.332-.817-6.57"/><path stroke="#BE9F4D" stroke-miterlimit="10" stroke-width=".044" d="m38.931 18.838-1.233-1.187m2.11.557-.57-1.548m1.436 1.553.44-1.56"/></g><g opacity=".9"><path fill="#FAD2C3" d="M12.565 41.264c.084-.236-.084-.598-.32-.714a.707.707 0 0 0 .143-.618c-.054-.236-.155-.336-.406-.338.106-.17.216-.405.19-.599-.11-.8-1.574-.808-2.18-.799-.4.006-.819.082-1.212.014l-2.253 1.27-5.13.022.385 4.694s3.062-.58 3.615-.602c.554-.023 1.108.144 1.881.112.626-.026 1.6-.157 2.526-.35.308-.063.345-.13.657-.175.276-.04.554-.08.819-.17.323-.11.998-.28 1.07-.79.025-.17 0-.41-.123-.512a.76.76 0 0 0 .338-.445Z"/><path stroke="#CC9B91" stroke-miterlimit="10" stroke-width=".044" d="M12.15 41.717s-.508.197-1.188.237c-.381.023-.944-.005-1.05-.07-.107-.065-.256-.12-.283-.384a.589.589 0 0 1 .193-.505s1.615.013 2.353-.396m-2.239 1.317a.496.496 0 0 0 .192.775c.174.073.485.088.674.09.244 0 .488-.016.73-.051m-1.71-1.735s-.196-.018-.302-.173a.541.541 0 0 1 0-.585c.042-.07.1-.13.162-.188l2.3-.455"/><path fill="#FAD2C3" d="M1.397 39.501c1.822-.065 2.84-.088 3.25-.187.19-.045.847-.375 1.039-.512.386-.275 1.193-.673 1.613-.894.737-.387.822-.395 1.32-1.107.31-.442.42-1.088.734-1.003.396.107.51.412.473.8-.059.617-.362 1.195-.833 1.998-.544.924-.746 2.279-1.712 2.852"/><path stroke="#CC9B91" stroke-miterlimit="10" stroke-width=".044" d="M9.189 38.233c-.087.198-.353.592-.405.799-.262 1.036-.537 1.843-1.503 2.416"/><path fill="#FAD2C3" d="M9.007 36.06s.219.093.21.178a.797.797 0 0 1-.189.402c-.065.05-.21-.01-.276-.06"/><path stroke="#DEB4A8" stroke-miterlimit="10" stroke-width=".044" d="M9.007 36.06s.219.093.21.178a.797.797 0 0 1-.189.402c-.065.05-.21-.01-.276-.06"/><path stroke="#CC9B91" stroke-miterlimit="10" stroke-width=".044" d="M9.682 40.049c-.323-.153-.498-.49-.306-.822.127-.221.358-.281.593-.338.177-.042.348-.103.522-.158l.77-.247"/><path fill="#DBC58E" d="M-2.672 47.841S2.34 46.57 2.75 46.162c.41-.406.488-1.18.488-1.18l1.876-.465-.63-5.382-1.722.11s-.57-.446-1.052-.493c-.484-.047-4.188.372-4.188.372"/><path stroke="#AC986A" stroke-miterlimit="10" stroke-width=".044" d="m3.236 44.982-.426-5.733"/><path stroke="#BE9F4D" stroke-miterlimit="10" stroke-width=".044" d="m10.638 35.408.67-1.563m-1.682 1.121-.063-1.629m-.958 1.836-.663-1.481"/></g><g opacity=".9"><path fill="#FAD2C3" d="M48.243 11.163s-2.71-.636-3.224-.92c-.38-.212-.867-.447-1.371-.711-.514-.27-1.105-.367-1.505-.823-.346-.393-.458-.89-.506-1.392-.009-.093-.057-.145-.148-.16-.264-.045-.535.107-.682.327-.296.44-.149 1.09.015 1.537 0 0-.878-.162-1.78-.104-.33.021-.859.195-1.038.534-.127.238-.033.523-.033.523s-.333.181-.426.56c-.079.323-.044.638.276.748-.077-.026-.301.222-.336.277a.55.55 0 0 0-.053.447c.071.22.27.386.492.46-.153.09-.196.302-.134.466.062.164.204.287.354.38.582.364 1.343.517 2.008.656 1.029.215 2.8.41 3.129.406.366-.005 2.853.65 3.602.826"/><path stroke="#CC9B91" stroke-miterlimit="10" stroke-width=".044" d="M40.821 9.02c.489-.01 1.622.108 1.622.108m-4.463.842a.755.755 0 0 1 .314-.054c.561-.016 1.123.015 1.678.091m-2.166 1.268a11.78 11.78 0 0 1 1.666.03m-1.565 1.162c.497.031.994.074 1.489.128m2.251-5.187c-.07.011-.15.028-.215.054a.189.189 0 0 0-.087.057.152.152 0 0 0-.024.057.525.525 0 0 0 .035.26c.006.018.012.037.023.053.024.032.066.045.106.05a.907.907 0 0 0 .248-.043"/><path fill="#DBC58E" d="m51.303 11.688-5.823-1.36-1.366 5.114 7.242 2.848"/><path stroke="#AC986A" stroke-miterlimit="10" stroke-width=".044" d="m47.16 10.72-1.202 5.447"/><path stroke="#BE9F4D" stroke-miterlimit="10" stroke-width=".044" d="m41.017 5.759-.172-1.688m1.257 1.757.57-1.549m.152 2.091 1.45-1.082"/></g><g opacity=".9"><path fill="#FAD2C3" d="M50.557 41.218s-2.764-.401-3.304-.664c-.401-.194-.91-.404-1.44-.645-.54-.245-1.138-.285-1.586-.755-.385-.406-.55-.958-.652-1.522-.018-.104-.073-.157-.164-.164-.267-.02-.521.184-.644.452-.247.534-.03 1.255.18 1.744 0 0-.89-.081-1.782.092-.325.063-.832.324-.975.728-.1.286.024.599.024.599s-.312.245-.363.686c-.044.378.024.731.355.818-.08-.02-.277.287-.305.354a.706.706 0 0 0-.004.514.78.78 0 0 0 .538.464c-.142.12-.162.366-.083.545.079.18.233.302.393.391.617.344 1.39.428 2.066.507 1.047.122 2.828.134 3.155.09.364-.048 2.907.402 3.67.513"/><path stroke="#CC9B91" stroke-miterlimit="10" stroke-width=".044" d="M42.947 39.664c.485-.07 1.624-.07 1.624-.07m-4.346 1.485c.09-.064.2-.084.306-.1a9.039 9.039 0 0 1 1.678-.095M40.19 42.58c.55-.098 1.105-.152 1.661-.162m-1.432 1.505c.497-.024.995-.034 1.494-.031m1.682-6.157a.932.932 0 0 0-.208.086.197.197 0 0 0-.08.075.191.191 0 0 0-.018.07c-.008.1.028.197.063.29.007.02.015.04.028.057.027.034.07.044.11.043a.819.819 0 0 0 .243-.076"/><path fill="#fff" d="m53.657 41.417-5.937-.75-.809 5.228 6.468 1.793"/><path stroke="#9F999A" stroke-miterlimit="10" stroke-width=".044" d="m47.133 44.461 1.857.436"/><path stroke="#BE9F4D" stroke-miterlimit="10" stroke-width=".044" d="M42.432 36.563 41.76 35m1.728 1.314.082-1.645m.895 1.659.662-1.482"/></g><g opacity=".9"><path fill="#FAD2C3" d="M.759 25.46c1.277.31 2.557.62 3.856.817.745.112 1.73.281 2.446-.054.466-.218.755-.555 1.002-.993.045-.08.11-.108.196-.085.252.065.43.313.472.573.082.52-.313 1.053-.64 1.395 0 0 .692.18 1.468.598.283.153.7.582.775 1.004.047.265-.111.527-.111.527s.208.275.135.658c-.062.327-.203.518-.531.489.079.007.177.323.184.388a.563.563 0 0 1-.135.428.73.73 0 0 1-.622.22c.098.144.085.226-.037.35-.122.126-.297.18-.469.204a6.07 6.07 0 0 1-2.08-.087c-.998-.22-2.645-.76-2.935-.897-.322-.152-2.79-.562-3.526-.705"/><path stroke="#CC9B91" stroke-miterlimit="10" stroke-width=".044" d="M8.09 27.113c-.48-.14-1.316-.28-1.316-.28m3.441 2.402a3.36 3.36 0 0 0-.803-.6c-.319-.158-.629-.338-.972-.44m1.402 2.193c-.48-.252-.978-.468-1.488-.647m.913 1.692c-.452-.173-.91-.335-1.37-.486m.12-5.637c.056.037.122.086.169.135a.189.189 0 0 1 .053.087.157.157 0 0 1-.002.063.53.53 0 0 1-.137.222.18.18 0 0 1-.041.039c-.034.02-.077.014-.114.001a.875.875 0 0 1-.203-.138"/><path fill="#fff" d="m-2 24.226 5.556 1.74-1.43 5.086-6.455-1.008"/><path stroke="#9F999A" stroke-miterlimit="10" stroke-width=".044" d="m1.953 25.464-1.734 5.29"/><path stroke="#BE9F4D" stroke-miterlimit="10" stroke-width=".044" d="m7.248 24.764-.67-1.563m1.726 1.314-.147-1.665m.985 1.72.704-1.37"/></g></g></g><defs><clipPath id="a"><rect width="48" height="48" fill="#fff" rx="24"/></clipPath><clipPath id="b"><path fill="#fff" d="M0 0h48v48H0z"/></clipPath></defs></svg>