<svg width="48" height="48" fill="none" xmlns="http://www.w3.org/2000/svg"><g clip-path="url(#a)"><rect width="48" height="48" rx="24" fill="#fff"/><g clip-path="url(#b)"><path opacity=".14" d="M14.11 43.816c-5.238 1.035-5.238 2.712.001 3.747 5.24 1.035 13.733 1.035 18.972 0 5.239-1.035 5.239-2.712 0-3.747-5.24-1.034-13.734-1.034-18.972 0Z" fill="#6D8487"/><path opacity=".14" d="M37.074 20.064c-.108-.18-.22-.357-.338-.53-1.564-2.297-4.167-3.87-6.697-4.583a14.416 14.416 0 0 0-3.383-.518c-7.451-.27-10.188 5.874-12.59 7.458-2.4 1.584-6.084 4.29-5.622 9.973.35 4.322 2.81 8.454 7.3 10.335.494.207 1.014.388 1.558.537a14.88 14.88 0 0 0 3.29.506c3.396.151 6.152-.667 8.848-2.727.627-.48 1.25-1.02 2.064-1.079.591-.043 1.152.17.534.74-.726.672.111 1.993 1.955 1.075 3.08-1.532 4.346-4.839 4.943-8.2.731-4.128.376-9.26-1.862-12.987Z" fill="#6D8487"/><path d="M34.222 23.056c-.01-.006.125-.248.302-.539.177-.291.328-.522.339-.516.01.006-.125.247-.302.538-.177.292-.329.523-.339.517Z" fill="#E0E0E0"/><path d="M38.405 10.813a.809.809 0 0 0-.726-.525.943.943 0 0 0-.349-.92.943.943 0 0 0-.981-.082 1.446 1.446 0 0 0-1.262-.898 1.446 1.446 0 0 0-1.326.8c-.112-.03-.16.016-.274.036a.84.84 0 0 0-.664.68 1.05 1.05 0 0 0-.802.067c-.24.133-.412.4-.398.676.014.275.237.535.512.558-.261.444-.112 1.082.32 1.363.432.28 1.076.16 1.376-.26.168.405.61.678 1.048.65.438-.029.84-.354.96-.776a.783.783 0 0 0 .9.416c.347-.1.59-.474.54-.83a.81.81 0 0 0 .892-.09.808.808 0 0 0 .234-.865Z" fill="#EBEBEB"/><path d="M41.97 15.342a.593.593 0 0 0-.53-.385.692.692 0 0 0-.256-.675.69.69 0 0 0-.72-.06 1.059 1.059 0 0 0-.925-.657 1.06 1.06 0 0 0-.972.586c-.081-.022-.117.011-.2.026a.616.616 0 0 0-.486.499.769.769 0 0 0-.588.049.556.556 0 0 0-.292.495c.01.201.173.392.375.409a.77.77 0 0 0 .235.999.77.77 0 0 0 1.008-.191.798.798 0 0 0 .768.476c.32-.02.615-.26.704-.568.109.24.406.378.66.305a.574.574 0 0 0 .395-.61.593.593 0 0 0 .653-.064.592.592 0 0 0 .172-.634ZM12.04 15.624a.594.594 0 0 0-.531-.385.692.692 0 0 0-.256-.675.69.69 0 0 0-.72-.06 1.06 1.06 0 0 0-.924-.657 1.06 1.06 0 0 0-.972.586c-.082-.021-.117.011-.2.027a.616.616 0 0 0-.487.498.77.77 0 0 0-.588.049.557.557 0 0 0-.292.495c.01.202.174.392.375.41a.77.77 0 0 0 .235.998.77.77 0 0 0 1.008-.19.798.798 0 0 0 .768.476c.32-.021.615-.26.704-.569.109.24.406.378.66.305a.574.574 0 0 0 .395-.609.593.593 0 0 0 .653-.065.593.593 0 0 0 .172-.634Z" fill="#F5F5F5"/><path d="M25.271 11.297a1.41 1.41 0 0 0-1.264-.915 1.645 1.645 0 0 0-.608-1.605 1.644 1.644 0 0 0-1.71-.141 2.52 2.52 0 0 0-2.199-1.565 2.518 2.518 0 0 0-2.31 1.394c-.196-.051-.279.028-.477.064a1.465 1.465 0 0 0-1.157 1.185c-.46-.137-.978-.118-1.398.115-.42.233-.719.698-.693 1.178.025.48.413.933.892.973-.456.774-.195 1.885.558 2.375.753.489 1.875.277 2.397-.454.293.707 1.063 1.182 1.826 1.133a1.92 1.92 0 0 0 1.675-1.352c.258.572.964.899 1.567.725.603-.174 1.028-.826.942-1.448a1.41 1.41 0 0 0 1.553-.155 1.41 1.41 0 0 0 .406-1.507Z" fill="#EBEBEB"/><g opacity=".57" fill="#91A7AF"><path d="M16.315 18.882c-.01-.006.125-.247.302-.538.177-.292.328-.523.338-.517.01.006-.124.247-.301.539-.177.291-.329.523-.339.516ZM18.893 21.113c-.01-.006.125-.248.302-.539.177-.291.328-.522.339-.516.01.006-.125.247-.302.538-.177.292-.329.523-.339.517ZM16.19 22.815c-.01-.006.125-.247.302-.539.177-.291.328-.522.338-.516.01.006-.124.247-.301.539-.177.291-.329.522-.339.516ZM12.567 29.792c-.01-.006.125-.248.302-.539.177-.291.328-.522.338-.516.01.006-.125.247-.301.539-.177.291-.329.522-.339.516ZM24.468 41.164c-.01-.006.125-.247.302-.538.177-.292.329-.522.339-.517.01.007-.125.247-.302.539-.177.292-.328.523-.339.516ZM31.338 18.328c-.01-.006.125-.247.302-.538.177-.292.329-.522.339-.517.01.007-.125.247-.302.539-.177.292-.328.523-.339.516ZM35.533 18.517c-.01-.006.125-.247.301-.538.177-.292.329-.523.34-.517.01.006-.126.247-.303.539-.176.291-.328.522-.338.516ZM31.962 22.432c-.01-.006.125-.247.302-.539.177-.291.329-.522.339-.516.01.006-.125.247-.302.539-.177.29-.328.522-.339.516ZM33.642 27.243c-.01-.006.125-.247.302-.538.177-.292.328-.523.339-.517.01.006-.125.247-.302.539-.177.29-.329.522-.339.516ZM33.902 32.8c-.01-.007.125-.248.302-.54.177-.29.328-.521.338-.515.01.006-.125.247-.301.538-.177.292-.329.523-.34.517ZM8.896 40.21c-.01-.006.125-.247.302-.538.177-.292.328-.523.338-.517.01.006-.124.247-.301.539-.177.29-.329.522-.339.516ZM12.188 25.846c-.01-.006.125-.248.302-.539.177-.291.328-.522.338-.516.01.006-.124.247-.301.538-.177.292-.329.523-.339.517ZM16.71 26.937c-.01-.006.125-.248.302-.539.177-.291.329-.522.339-.516.01.006-.125.247-.302.538-.177.292-.328.523-.338.517ZM11.939 34.79c-.01-.006.125-.247.302-.538.177-.292.328-.523.338-.517.01.006-.124.247-.301.539-.177.291-.329.522-.339.516ZM25.2 36.873c-.01-.006.125-.247.302-.538.176-.292.328-.523.338-.517.01.006-.125.247-.302.539-.177.291-.329.523-.338.516ZM28.012 39.34c-.01-.007.125-.248.302-.54.177-.291.328-.522.339-.516.01.006-.125.247-.302.539-.177.29-.328.522-.339.516ZM27.396 25.385c-.01-.006.125-.248.302-.539.177-.291.328-.522.338-.516.01.006-.124.247-.301.539-.177.291-.329.522-.339.516Z"/></g><path d="m31.299 27.032-18.252-.188 5.941-9.449 18.252.189-5.941 9.448Z" fill="#6C99AF"/><path opacity=".15" d="m31.299 27.032-18.252-.188 5.941-9.449 18.252.189-5.941 9.448Z" fill="#040000"/><path d="m22.296 26.742-.137-.233c-.168-.287-1.198-.815-2.094-.824l-7.25-.074.62 1.039 8.86.092Z" fill="#F5F5F5"/><path d="m12.815 25.61 7.25.075c.896.009 1.926.537 2.094.824l.136.233 5.683-9.038-.136-.232c-.168-.288-1.198-.815-2.094-.824l-7.247-.075h-.003l-5.684 9.038Z" fill="#FBFBFB"/><path d="m12.815 25.61 7.25.075c.896.009 1.926.537 2.094.824l.136.233 5.683-9.038-.136-.232c-.168-.288-1.198-.815-2.094-.824l-7.25-.075-5.684 9.038Z" fill="#FBFBFB"/><path d="m22.17 26.525.353-.563.465-.742c-.411.163-.652.363-.78.566a.73.73 0 0 0-.039.74Z" fill="#F0F0F0"/><path d="m22.17 26.525.353-.563.465-.742c-.411.163-.652.363-.78.566a.73.73 0 0 0-.039.74Z" fill="#E0E0E0"/><path d="m31.426 27.249-.127-.217 5.941-9.448.129.215-5.943 9.45Z" fill="#6C99AF"/><path opacity=".3" d="m31.426 27.249-.127-.217 5.941-9.448.129.215-5.943 9.45Z" fill="#040000"/><path d="m31.426 27.249-18.252-.188-.127-.217 18.252.188.127.217Z" fill="#6C99AF"/><path d="M22.17 26.525c-.168-.287.243-.818 1.139-.812l7.234.053.639 1.067-8.885-.091-.127-.217Z" fill="#F5F5F5"/><path d="m31.182 26.833-.638-1.067 5.683-9.038.638 1.068-5.683 9.037Z" fill="#EBEBEB"/><path d="m23.309 25.714.324.002 6.91.05 5.02-7.983.663-1.055-7.234-.052c-.657-.004-.921.164-1.054.371l-5.761 9.162c.21-.328.59-.484 1.132-.495Z" fill="#FBFBFB"/><path d="m30.446 24.758-6.172-.062-.324-.002-.12.193.323.001 6.172.063.121-.193ZM30.737 24.297l-6.171-.063-.325-.002-.12.193.324.002 6.171.062.121-.192ZM31.027 23.835l-6.172-.063-.324-.002-.12.193.323.002 6.172.062.121-.192ZM31.317 23.373l-6.172-.062-.323-.003-.122.193.324.002 6.172.062.121-.192ZM31.608 22.911l-6.172-.062-.324-.002-.12.192.323.002 6.172.063.12-.193ZM31.898 22.45l-6.171-.063-.324-.002-.122.192.324.003 6.172.062.121-.193ZM32.189 21.987l-6.172-.062-.324-.002-.12.193.323.001 6.172.063.12-.193ZM32.48 21.525l-6.172-.062-.325-.002-.12.193.323.002 6.172.062.121-.193ZM32.77 21.064 26.598 21 26.274 21l-.12.192.323.002 6.172.062.12-.192ZM33.06 20.602l-6.171-.062-.325-.003-.12.193.323.002 6.172.062.121-.192ZM33.35 20.14l-6.171-.062-.324-.002-.122.192.325.002 6.171.063.121-.193ZM33.641 19.678l-6.172-.062-.324-.002-.12.192.323.002 6.172.063.121-.193ZM33.931 19.216l-6.171-.062-.324-.002-.122.192.325.003 6.171.062.121-.193ZM34.22 18.754l-6.17-.062-.325-.002-.12.193.323.002 6.172.062.12-.193ZM34.511 18.293l-6.171-.063-.324-.002-.121.193.323.002 6.173.062.12-.192ZM34.802 17.83l-6.172-.061-.324-.003-.12.193.323.002 6.172.062.121-.192ZM35.093 17.369l-6.172-.062-.325-.003-.12.193.324.002 6.172.062.12-.192Z" fill="#E0E0E0"/><path opacity=".1" d="M23.091 25.465c.107-.044.36-.093.493-.13.56-.159 1.664-.247 2.74-.296 1.44-.066 2.836-.061 2.836-.061l5.202-8.264-5.37-.038a2.144 2.144 0 0 0-.618.07c-.131.1-.222.203-.284.3l-.107-.06a.721.721 0 0 0-.044.06l-5.762 9.163c.324-.515.567-.6.914-.744Z" fill="#040000"/><path d="m30.688 25.995-1.074.044 1.114.037.563-.896-.603.815Z" fill="#E6E6E5"/><path d="m31 26.533-2.027-.021 1.994-.035 1.196-1.793-1.162 1.849ZM36.367 16.964l-.85 1.413.917-1.301-.067-.112ZM36.614 17.382l-1.254 2.113 1.315-2.015-.06-.098Z" fill="#E6E6E5"/><path d="M22.988 25.22c.108-.044.227-.085.36-.122.56-.158 1.664-.246 2.74-.295 1.44-.066 2.835-.061 2.835-.061l5.69-9.038s-4.243-.038-5.637.4c-.655.204-.972.471-1.122.706l-.002-.001-5.645 8.977c.128-.203.37-.403.78-.567Z" fill="#F5F5F5"/><path d="M22.853 24.76c.128-.204.37-.404.78-.567a3.47 3.47 0 0 1 .36-.121c.374-.105.988-.18 1.673-.232.345-.026.708-.047 1.069-.063.866-.04 1.716-.054 2.256-.059l-.13.206c-.54.005-1.39.019-2.256.058-.36.017-.723.038-1.068.064-.686.052-1.3.126-1.672.231a3.645 3.645 0 0 0-.36.121c-.412.163-.653.363-.781.567l.129-.205Z" fill="#E0E0E0"/><path d="M23.143 24.297c.128-.203.37-.404.781-.567.108-.043.227-.083.36-.12.373-.106.987-.18 1.673-.232.345-.026.708-.047 1.068-.064.867-.04 1.717-.054 2.257-.058l-.13.205c-.54.005-1.39.019-2.256.059-.36.016-.723.037-1.068.063-.686.052-1.3.126-1.672.232a3.645 3.645 0 0 0-.36.12c-.412.164-.653.364-.781.567l.128-.205Z" fill="#E0E0E0"/><path d="M23.435 23.834c.128-.203.37-.403.78-.566.108-.044.228-.084.36-.121.374-.106.988-.18 1.673-.232.345-.026.708-.047 1.069-.063a64.05 64.05 0 0 1 2.256-.06l-.13.206c-.54.005-1.39.02-2.256.059-.36.016-.723.037-1.068.064-.686.052-1.3.126-1.672.231a3.56 3.56 0 0 0-.36.12c-.412.164-.653.364-.781.568l.129-.206Z" fill="#E0E0E0"/><path d="M23.726 23.372c.128-.203.37-.404.78-.567.108-.043.228-.084.36-.121.374-.105.988-.18 1.673-.232.345-.026.708-.047 1.069-.063a64.26 64.26 0 0 1 2.256-.059l-.13.206c-.54.005-1.39.019-2.256.058-.36.017-.723.038-1.068.064-.686.052-1.3.126-1.672.231a3.636 3.636 0 0 0-.36.121c-.412.163-.654.363-.781.567l.129-.205Z" fill="#E0E0E0"/><path d="M24.017 22.909c.128-.203.37-.403.78-.567.108-.043.229-.084.36-.12.374-.106.988-.18 1.673-.232.345-.026.708-.047 1.069-.064.866-.04 1.716-.053 2.256-.058l-.13.205c-.54.005-1.39.02-2.255.059-.361.016-.724.037-1.069.063-.686.053-1.3.126-1.672.232a3.662 3.662 0 0 0-.36.12c-.412.164-.653.364-.781.567l.129-.205Z" fill="#E0E0E0"/><path d="M24.308 22.446c.128-.203.37-.403.78-.566.108-.043.229-.084.36-.121.374-.106.988-.18 1.673-.232.345-.026.708-.047 1.069-.063.866-.04 1.716-.054 2.256-.06l-.13.206c-.54.005-1.39.02-2.255.059-.361.016-.724.037-1.069.064-.686.052-1.3.126-1.672.231a3.716 3.716 0 0 0-.36.12c-.412.164-.653.364-.781.568l.129-.206Z" fill="#E0E0E0"/><path d="M24.598 21.984c.128-.204.37-.404.781-.567a3.56 3.56 0 0 1 .36-.121c.373-.105.987-.18 1.672-.232.345-.026.708-.047 1.069-.063.866-.04 1.716-.054 2.256-.059l-.13.206c-.54.005-1.39.019-2.256.058-.36.017-.723.038-1.068.064-.686.052-1.299.126-1.672.231a3.645 3.645 0 0 0-.36.121c-.412.163-.654.364-.781.567l.13-.205Z" fill="#E0E0E0"/><path d="M24.89 21.52c.127-.202.368-.403.78-.566.107-.043.227-.084.36-.12.373-.106.987-.18 1.672-.232.345-.026.708-.047 1.069-.064a64.05 64.05 0 0 1 2.256-.058l-.129.205c-.54.005-1.39.02-2.256.059-.36.016-.724.037-1.069.063-.686.052-1.299.126-1.672.232a3.662 3.662 0 0 0-.36.12c-.412.164-.653.364-.781.567l.13-.205Z" fill="#E0E0E0"/><path d="M25.833 20.697c.108-.043.228-.084.36-.12.56-.16 1.664-.247 2.74-.296.867-.04 1.717-.053 2.257-.058l.129-.206c-.54.005-1.39.02-2.256.06-1.077.048-2.18.135-2.74.294a3.543 3.543 0 0 0-.36.121c-.412.163-.654.364-.781.567l-.13.205c.128-.203.37-.404.781-.567Z" fill="#E0E0E0"/><path d="M26.123 20.234c.108-.043.227-.084.36-.12.56-.159 1.664-.247 2.74-.296.867-.04 1.717-.053 2.257-.058l.13-.206c-.54.005-1.39.02-2.257.059-1.077.049-2.18.136-2.74.295a3.68 3.68 0 0 0-.36.121c-.412.163-.653.363-.78.567l-.13.205c.127-.203.369-.403.78-.567Z" fill="#E0E0E0"/><path d="M26.415 19.772c.107-.044.227-.084.36-.121.56-.159 1.663-.247 2.74-.295.866-.04 1.717-.054 2.256-.06l.13-.204c-.54.004-1.39.019-2.256.058-1.078.05-2.18.137-2.741.295a3.645 3.645 0 0 0-.36.12c-.412.164-.653.364-.78.567l-.13.206c.127-.203.369-.403.78-.566Z" fill="#E0E0E0"/><path d="M26.706 19.309c.107-.043.227-.084.36-.12.56-.16 1.663-.247 2.74-.296.866-.04 1.717-.053 2.256-.058l.13-.206c-.54.005-1.39.02-2.256.06-1.078.048-2.18.136-2.741.294a3.636 3.636 0 0 0-.36.121c-.412.163-.653.364-.781.567l-.13.205c.129-.204.37-.404.782-.567Z" fill="#E0E0E0"/><path d="M26.996 18.846c.107-.043.227-.084.36-.12.56-.159 1.663-.247 2.74-.296.867-.04 1.717-.053 2.257-.058l.13-.206c-.54.005-1.39.02-2.256.059-1.078.049-2.18.137-2.741.295a3.707 3.707 0 0 0-.36.12c-.412.164-.653.364-.78.568l-.13.205c.127-.203.368-.403.78-.567Z" fill="#E0E0E0"/><path d="M27.286 18.384c.107-.044.227-.084.36-.121.56-.159 1.663-.247 2.74-.295a64.26 64.26 0 0 1 2.257-.059l.129-.205c-.54.005-1.39.02-2.256.059-1.077.049-2.18.136-2.74.295a3.568 3.568 0 0 0-.36.12c-.413.164-.654.364-.782.567l-.13.206c.128-.204.37-.404.782-.567Z" fill="#E0E0E0"/><path d="M27.577 17.921c.107-.043.227-.084.36-.12.56-.16 1.663-.247 2.74-.296.867-.04 1.717-.054 2.256-.059l.13-.205c-.54.005-1.39.02-2.256.059-1.078.049-2.18.136-2.74.295a3.698 3.698 0 0 0-.36.12c-.412.164-.654.364-.782.567l-.13.206c.129-.203.37-.404.782-.567Z" fill="#E0E0E0"/><path d="M27.868 17.459c.108-.043.227-.084.36-.121.56-.158 1.664-.246 2.741-.295.866-.04 1.717-.054 2.256-.059l.13-.205c-.54.005-1.39.019-2.256.058-1.078.05-2.18.137-2.74.296a3.645 3.645 0 0 0-.36.12c-.412.163-.654.364-.782.567l-.13.205c.128-.203.37-.403.781-.566Z" fill="#E0E0E0"/><path d="M28.16 16.996c.107-.043.227-.084.36-.12.56-.16 1.663-.247 2.74-.296.866-.04 1.717-.054 2.256-.059l.13-.205c-.54.005-1.39.02-2.256.059-1.078.049-2.18.137-2.74.295a3.67 3.67 0 0 0-.36.12c-.412.164-.654.364-.782.567l-.13.206c.129-.204.37-.404.782-.567ZM20.597 24.84c.335.003.69.08 1.01.188l.118-.188a3.316 3.316 0 0 0-1.01-.188l-6.494-.06-.119.187 6.495.061Z" fill="#E0E0E0"/><path d="M20.597 24.84c.335.003.69.08 1.01.188l.118-.188a3.316 3.316 0 0 0-1.01-.188l-6.494-.06-.119.187 6.495.061ZM20.888 24.378c.335.003.69.079 1.01.188l.118-.188a3.315 3.315 0 0 0-1.01-.188l-6.494-.061-.118.188 6.494.06ZM21.178 23.916c.335.003.69.079 1.01.188l.118-.188a3.316 3.316 0 0 0-1.01-.188l-6.494-.061-.118.188 6.494.06ZM21.47 23.453c.335.003.689.08 1.01.188l.117-.188a3.316 3.316 0 0 0-1.01-.188l-6.494-.06-.118.188 6.495.06ZM21.76 22.992c.334.003.688.079 1.01.188l.117-.188a3.316 3.316 0 0 0-1.01-.188l-6.494-.061-.118.188 6.494.06ZM22.05 22.53c.335.002.69.078 1.01.187l.118-.188a3.321 3.321 0 0 0-1.01-.188l-6.494-.06-.118.188 6.494.06ZM22.341 22.067c.335.003.69.08 1.01.188l.118-.188a3.321 3.321 0 0 0-1.01-.188l-6.494-.061-.118.188 6.494.061ZM22.631 21.605c.335.003.69.079 1.01.188l.118-.188a3.316 3.316 0 0 0-1.01-.188l-6.494-.061-.118.188 6.494.06ZM22.922 21.143c.335.003.69.079 1.01.188l.118-.188a3.316 3.316 0 0 0-1.01-.188l-6.494-.062-.118.188 6.494.062ZM23.212 20.68c.335.004.69.08 1.01.189l.118-.188a3.315 3.315 0 0 0-1.01-.188l-6.494-.061-.118.188 6.494.06ZM23.503 20.219c.336.003.69.079 1.01.188l.118-.188a3.316 3.316 0 0 0-1.01-.188l-6.494-.061-.118.188 6.494.06ZM23.794 19.756c.335.004.688.08 1.01.189l.118-.189a3.316 3.316 0 0 0-1.01-.188l-6.495-.06-.118.187 6.495.061ZM24.085 19.294c.335.003.689.08 1.01.188l.117-.188a3.319 3.319 0 0 0-1.01-.188l-6.494-.06-.118.187 6.495.061ZM24.375 18.832c.336.004.69.08 1.01.188l.118-.188a3.321 3.321 0 0 0-1.01-.188L18 18.584l-.118.188 6.494.06ZM24.666 18.37c.335.003.689.08 1.01.188l.118-.188a3.316 3.316 0 0 0-1.01-.188l-6.495-.06-.118.187 6.495.061ZM24.957 17.908c.335.003.688.08 1.01.188l.118-.188a3.316 3.316 0 0 0-1.01-.188l-6.495-.061-.118.188 6.495.061ZM25.247 17.446c.335.003.689.079 1.01.188l.118-.188a3.315 3.315 0 0 0-1.01-.188l-6.495-.061-.118.188 6.495.06Z" fill="#E0E0E0"/><path d="m14.506 25.91-1.487.039-.054-.088 1.541.05ZM13.207 26.267l2.516-.007-2.555-.059.04.066Z" fill="#E6E6E5"/><path opacity=".02" d="M32.894 15.722c-1.341.034-3.11.127-3.918.381-.655.205-.972.472-1.122.707l-.002-.001-5.645 8.977c.128-.203.37-.404.78-.567 0 0 2.72-4.57 4.907-6.799 2.187-2.227 5-2.698 5-2.698Z" fill="#040000"/><path d="M19.978 43.01s.883 1.043.943 1.204c.06.16-.22.622-.341.723-.12.1-.582.461-.823.662-.24.2-.381.401-.04.482.341.08 1.204.1 1.565-.04.362-.14.502-.362.603-.723.1-.361.28-.682.361-.863.08-.18.421-.281.26-.743-.16-.462-.681-.642-.762-.723a3.017 3.017 0 0 1-.361-.521c-.04-.1-1.405.542-1.405.542Z" fill="#FBE0D3"/><path d="M22.144 43.244a2.234 2.234 0 0 1-.058.448c-.08.3-.642 1.405-.843 1.405-.2 0-.662-.16-.662-.16-.12.1-.582.461-.823.662-.24.2-.381.401-.04.482.341.08 1.204.1 1.565-.04.362-.141.502-.362.603-.723.1-.361.28-.682.36-.863.081-.18.422-.281.262-.743a1.026 1.026 0 0 0-.364-.468Z" fill="#6C99AF"/><path d="M30.985 41.295c-.06-.241-.24-.482-.421-.382-.18.1-1.545 1.38-1.545 1.38l1.083.608s-.02.32-.04.42c-.01.054.005.1-.017.243-.027.002-.082.105-.087.112-.05.062-.236.224-.223.448.012.223.397.236.658.236s.696-.15.758-.249a.266.266 0 0 0 .03-.082.208.208 0 0 0 .025-.085c.02-.28-.16-2.408-.22-2.65Z" fill="#FBE0D3"/><path d="M30.564 40.913c-.053.03-.208.161-.4.332.116-.013.387-.023.503.131.15.2.15.87.15 1.368 0 .497.024.77-.125.833-.15.062-.646-.013-.646-.013-.027.002-.082.105-.087.112-.05.062-.236.224-.224.448.012.223.398.236.659.236.26 0 .696-.15.758-.249a.269.269 0 0 0 .03-.082.208.208 0 0 0 .024-.085c.02-.28-.16-2.408-.22-2.65-.06-.24-.241-.481-.422-.38Z" fill="#6C99AF"/><path d="m30.102 42.9.38-.742" stroke="#E5C7BA" stroke-width=".044" stroke-miterlimit="10" stroke-linecap="round" stroke-linejoin="round"/><path d="m22.283 35.438-.505 1.046s-1.974-.62-3.237-.62c-1.262 0-2.25.046-2.41.804-.16.757.574 1.86 1.056 2.663.482.803 2.41 3.374 2.41 3.374s.826-.413 1.125-.62l.298-.206-.918-2.135s1.217.78 2.456.642c1.24-.138 1.722-.321 1.722-.321s.85 5.004 1.056 5.28c.207.276.597.505.919.436.32-.069.65-.22.65-.22s1.246-.059 2.194-1.298c.375-.489.769-1.143.769-1.143l-.85-.826-1.758.86s.931-2.693.992-3.112c.24-1.656.092-2.342-.23-3.512a6.987 6.987 0 0 0-.98-2.063l-4.506.548-.253.423Z" fill="#A0BCC5"/><path d="m20.126 39.537-.85-2.341" stroke="#7C99A0" stroke-width=".044" stroke-miterlimit="10" stroke-linecap="round" stroke-linejoin="round"/><path d="M20.837 41.42s-.299.436-.804.62a2.896 2.896 0 0 1-.895.183s-.069.138.023.276c.092.137.39.505.551.597.161.092.735.023 1.102-.138.367-.161.689-.551.689-.689 0-.138-.46-.895-.46-.895s-.069-.161-.206.046Z" fill="#71949C"/><path d="m27.212 43.39-.611 1.888M24.212 39.84s-.18-.984-.582-1.627c-.401-.642-.622-.843-.622-.843" stroke="#7C99A0" stroke-width=".044" stroke-miterlimit="10" stroke-linecap="round" stroke-linejoin="round"/><path d="M28.415 42.565s.66.33.826.566c.165.236.283.614.283.614s0 .117.212-.19c.213-.306.472-.353.543-.636.07-.283-.33-.614-.637-.826-.306-.213-.4-.189-.519-.094-.118.094-.637.377-.708.566Z" fill="#71949C"/><path d="M27.057 28.786a4.263 4.263 0 0 0-.561-.24c-.692-.235-1.476-.268-2.203-.245l-4.524.402c-.544.049-1.12.28-1.673.373-.572.096-1.295-.059-1.863.055l-1.617-1.687s-.362.545-.764.524c.275.465.42.808.7 1.27.195.322.39.643.59.96.206.322.271.454.672.533.76.149 1.285.383 2.059.399.824.017 1.643-.12 2.466-.149 0 0 .57.67.57.838 0 .168-.205 1.383-.1 1.743.126.435.292.639.56.74.268.1.68.165.68.165l.234.972s1.34.57 2.916.335c1.575-.235 1.843-1.307 1.843-1.307s-.873-.347-.606-3.125c.07.004 1.552.5 1.62.497.534-.026.385-.283.385-.283l.134-1.684c.03-.067-.824-.664-.924-.732a5.53 5.53 0 0 0-.594-.354Z" fill="#6C99AF"/><path d="M16.233 29.131s-.411.105-.364.807M15.584 29.645s.067.424.25.63" stroke="#263138" stroke-width=".044" stroke-miterlimit="10" stroke-linecap="round" stroke-linejoin="round"/><path d="M25.793 33.694c-.217.65-.824.737-1.237.672-.412-.065-.911-.282-1.345-.26-.433.022-.759.217-.759.217s.759-.087 1.121.094 1.148.456 1.636.275c.488-.18.584-.998.584-.998ZM20.339 30.981l-.464-.398.111.404.353-.006Z" fill="#6C99AF"/><path d="M25.58 30.54s.332.685.758.796M25.525 31.101s.292.354.589.428" stroke="#263138" stroke-width=".044" stroke-miterlimit="10" stroke-linecap="round" stroke-linejoin="round"/><path d="m13.852 27.968-.454-.905s-.93-.57-1.32-.762c-.391-.192-.227-.074-.405-.145-.225-.09-.598-.77-.573-.888.014-.065.015-.102.403.336.127.143.716.304.716.304s-.536-.437-.68-.649c-.144-.212-.26-.45-.09-.412.046.01.232.191.462.429.105.109.387.243.387.243s-.55-.774-.532-.869c.019-.095.22.06.401.234.182.173.562.626.607.64.045.016.659.294.659.294s-.194-.328-.214-.536c-.02-.208.094-.284.189-.266.095.02.039.34.187.503.147.162.295.4.296.59 0 .188.005.303.005.303l.718 1.033c.002-.001-.248.642-.762.523Z" fill="#FBE0D3"/><path d="M13.214 26.79s-1.048-.258-1.189-.368c-.14-.11-.342-.604-.44-.725-.099-.12-.099-.196.026-.155.125.041.307.215.405.336.099.12.33.335.33.335s.489-.125.754-.05" fill="#FBE0D3"/><path d="M13.214 26.79s-1.048-.258-1.189-.368c-.14-.11-.342-.604-.44-.725-.099-.12-.099-.196.026-.155.125.041.307.215.405.336.099.12.33.335.33.335s.489-.125.754-.05" stroke="#EBD2C8" stroke-width=".044" stroke-miterlimit="10"/><path d="M27.568 31.582c.087.145.24.246.487.257.656.03 1.192-.41 1.456-.718.16-.186 1.383-1.842 1.963-2.67l-.733-.606c-.478.356-1 .674-1.426.993-.618.463-1.405 1.276-1.672 1.748" fill="#6C99AF"/><path d="m31.404 28.57.586-.758s1.08-.156 1.514-.179c.434-.022.237.022.429.026.242.006.853-.472.877-.59.012-.064.026-.1-.503.15-.174.081-.779-.004-.779-.004s.666-.19.882-.327c.216-.138.416-.311.245-.343-.047-.009-.288.083-.594.211-.14.059-.45.07-.45.07s.81-.494.83-.588c.02-.094-.225-.031-.46.056-.236.088-.763.354-.81.35-.048-.004-.722.01-.722.01s.308-.226.408-.41c.1-.183.026-.297-.069-.317-.094-.02-.17.297-.37.388-.2.09-.43.25-.504.424-.076.173-.125.277-.125.277l-1.048.83s.142.631.663.725Z" fill="#FBE0D3"/><path d="M32.267 27.634s1.064.177 1.236.131c.172-.044.553-.42.692-.492.138-.072.168-.141.037-.152-.131-.012-.367.076-.505.148s-.435.178-.435.178-.4-.308-.673-.344" fill="#FBE0D3"/><path d="M32.267 27.634s1.064.177 1.236.131c.172-.044.553-.42.692-.492.138-.072.168-.141.037-.152-.131-.012-.367.076-.505.148s-.435.178-.435.178-.4-.308-.673-.344" stroke="#EBD2C8" stroke-width=".044" stroke-miterlimit="10"/><path d="M23.544 28.313c-2.696 0-4.904-.258-6.591-.571-3.923-.728-5.915-1.875-5.998-1.924l.284-.486c.02.012 2.013 1.156 5.852 1.863 3.544.654 9.432 1.058 17.35-.725l.123.55c-4.27.96-7.96 1.293-11.02 1.293Z" fill="#6C99AF"/><path d="M35.417 25.144c-7.517 1.693-13.107 1.309-16.473.689-3.644-.672-5.537-1.758-5.556-1.769l-2.15 1.269c.02.012 2.014 1.155 5.852 1.863 3.545.653 9.432 1.058 17.35-.725l.464-.667c.209-.045.419-.09.631-.138l-.118-.522Z" fill="#8CB6C6"/><path d="m34.44 26.47.977-1.326.118.521-.972 1.354-.123-.549Z" fill="#8CB6C6" stroke="#6D96A3" stroke-width=".044" stroke-miterlimit="10" stroke-linecap="round" stroke-linejoin="round"/><path d="M24.348 23.853a4.08 4.08 0 1 0-5.77-5.768 4.08 4.08 0 0 0 5.77 5.768Z" fill="#6C99AF"/><path d="M23.808 23.312a3.315 3.315 0 1 0-4.688-4.687 3.315 3.315 0 0 0 4.688 4.687Z" fill="#91A7AF" stroke="#3B6372" stroke-width=".044" stroke-miterlimit="10"/><path d="m21.248 20.706-1.48-.994-.11.162 1.481.995a.342.342 0 0 1 .109-.163ZM21.219 21.201l-1.368 2.395.169.097 1.368-2.395a.337.337 0 0 1-.17-.097Z" fill="#fff"/><path d="M21.802 20.941a.34.34 0 1 0-.677.054.34.34 0 0 0 .677-.054Z" fill="#fff" stroke="#5D8499" stroke-width=".044" stroke-miterlimit="10" stroke-linecap="round" stroke-linejoin="round"/><path d="M12.071 24.691s.498 1.094 1.502 1.502c1.005.409 2.4.364 2.693 1.555l1.742-3.626s-.4-.773-1.102-.844c-.702-.071-1.288-.027-1.84-.622-.55-.596-.995-1.147-.995-1.147l-2 3.182Z" fill="#fff" stroke="#3B6372" stroke-width=".044" stroke-miterlimit="10"/><path d="m14.87 26.024 1.202-2.31M15.263 26.284l1.367-2.476" stroke="#6C99AF" stroke-width=".044" stroke-miterlimit="10"/><path d="M14.299 22.707s-.097 1.197.581 2.043c.679.846 1.92 1.486 1.596 2.67l3.286-2.321s.026-.87-.552-1.274c-.579-.404-1.113-.65-1.305-1.439-.191-.788-.312-1.485-.312-1.485L14.3 22.707Z" fill="#fff" stroke="#3B6372" stroke-width=".044" stroke-miterlimit="10"/><path d="M16.095 25.233 18.27 23.8M16.311 25.65l2.4-1.497M16.667 26.08l2.39-1.61" stroke="#6C99AF" stroke-width=".044" stroke-miterlimit="10"/><path d="M16.595 24.328s.502 1.092 1.508 1.496c1.006.404 2.401.354 2.7 1.544l1.726-3.633s-.403-.772-1.105-.84c-.703-.068-1.29-.021-1.843-.614-.553-.593-1-1.142-1-1.142l-1.986 3.19Z" fill="#fff" stroke="#3B6372" stroke-width=".044" stroke-miterlimit="10"/><path d="m19.398 25.65 1.193-2.316M19.792 25.907l1.357-2.48" stroke="#6C99AF" stroke-width=".044" stroke-miterlimit="10"/><path d="m20.311 26.108 1.294-2.576" stroke="#263138" stroke-width=".044" stroke-miterlimit="10" stroke-linecap="round" stroke-linejoin="round"/><path d="m25.152 26.935 5.65-.645a.302.302 0 0 0 .265-.334l-.373-3.27a.302.302 0 0 0-.334-.265l-5.65.646a.302.302 0 0 0-.265.333l.373 3.27c.02.165.169.284.334.265Z" fill="#8CAEC0" stroke="#3B6372" stroke-width=".044" stroke-miterlimit="10"/><path d="m30.845 23.995-6.248.713.15 1.31 6.248-.714-.15-1.31ZM26.292 23.52a.18.18 0 1 0 .358-.04.18.18 0 0 0-.358.04ZM25.598 23.6a.18.18 0 1 0 .357-.041.18.18 0 0 0-.357.04ZM24.904 23.679a.18.18 0 1 0 .357-.041.18.18 0 0 0-.357.04Z" fill="#8CAEC0" stroke="#3B6372" stroke-width=".044" stroke-miterlimit="10"/><path d="m28.956 21.944 3.309 4.494a.354.354 0 0 0 .495.075l2.565-1.888a.354.354 0 0 0 .075-.496l-3.31-4.494a.354.354 0 0 0-.495-.075l-2.564 1.888a.355.355 0 0 0-.075.496Z" fill="#8CAEC0" stroke="#3B6372" stroke-width=".044" stroke-miterlimit="10"/><path d="m30.58 20.31-1.061.782 3.728 5.064 1.061-.781-3.728-5.065ZM32.453 21.19a.18.18 0 1 0 .213.29.18.18 0 0 0-.213-.29ZM32.039 20.628a.18.18 0 1 0 .213.29.18.18 0 0 0-.213-.29ZM31.625 20.065a.18.18 0 1 0 .213.29.18.18 0 0 0-.213-.29Z" fill="#8CAEC0" stroke="#3B6372" stroke-width=".044" stroke-miterlimit="10"/><path d="m26.332 23.08.286 3.93-.913-.124" fill="#6C99AF"/><path d="m20.537 23.007 5.794.073s-.148 3.429-.977 4.37l-5.786-.666s1.068-1.13.969-3.777Z" fill="#AED3E0" stroke="#3B6372" stroke-width=".044" stroke-miterlimit="10"/><path d="m21.041 24.012 4.703.188s-.165 1.82-.59 2.504l-4.784-.492s.698-1.158.671-2.2Z" stroke="#3A7799" stroke-width=".044" stroke-miterlimit="10" stroke-linecap="round" stroke-linejoin="round"/><path d="M21.495 24.032s-.188 1.54-.669 2.228M22.121 24.095s-.188 1.54-.669 2.228M22.687 24.106s-.187 1.54-.668 2.228M23.197 24.122s-.187 1.54-.669 2.228M23.736 24.163s-.187 1.54-.669 2.228M23.587 26.52c.481-.689.662-2.313.662-2.313M24.728 24.197s-.206 1.654-.688 2.342M25.211 24.243s-.122 1.647-.604 2.335M21.019 24.437l4.63.335M20.915 24.897l4.662.39M20.782 25.36l4.667.445M20.62 25.796l4.67.474M21.48 23.327c-.162.013-.306-.127-.322-.313-.014-.186.105-.347.268-.36.163-.014.307.126.322.313M22.16 23.357c-.163.013-.307-.127-.322-.313-.015-.186.105-.347.268-.36.162-.013.306.127.321.313M22.84 23.387c-.162.013-.306-.127-.321-.313-.015-.186.105-.347.267-.36.163-.013.307.127.322.313M23.52 23.418c-.162.013-.306-.127-.322-.314-.014-.185.105-.347.268-.36.163-.013.307.127.322.313M24.201 23.448c-.163.013-.307-.127-.322-.313-.015-.186.105-.348.268-.36.162-.014.306.126.322.313M24.882 23.478c-.163.013-.307-.127-.322-.313-.015-.186.105-.347.267-.36.163-.014.307.127.322.313M25.561 23.508c-.162.013-.306-.127-.322-.313-.014-.186.105-.347.268-.36.163-.013.307.127.322.313" stroke="#3A7799" stroke-width=".044" stroke-miterlimit="10" stroke-linecap="round" stroke-linejoin="round"/><path d="M20.581 25.674s-.69-.053-.903.133c-.212.186-.876 1.328-.982 1.912-.107.584.664 1.009.796 1.142.133.133.346.956.213 1.116-.133.159-.425.159-.425.159s.053.266.77.372c.717.106 1.073-.164 1.073-.164s-1.206-2.465-.33-3.262c.877-.797.293-1.514-.212-1.408Z" fill="#301D1A"/><path d="M21.906 30.594s.33 1.142.838 1.142c.507 0 .786-.913.786-1.75 0-.838-.786-.66-1.193-.432-.405.228-.43 1.04-.43 1.04Z" fill="#FBE0D3"/><path d="m22.509 29.98-.371 1.168-.232-.554.603-.614Z" fill="#6C99AF"/><path d="M20.298 26.735s-.467.364-.646 1.19c-.179.825.496 2.238.582 2.374.087.137.721.626.832.67.11.043.388.066.562-.02.174-.084 1.303-1.463 1.316-1.552.012-.09-.926-1.878-.987-1.922-.063-.046-1.37-.314-1.659-.74Z" fill="#FBE0D3"/><path d="M20.553 28.81c-.233-.166-.479.055-.479.055M21.271 28.667s.203-.22.453-.07" stroke="#301D1A" stroke-width=".044" stroke-miterlimit="10" stroke-linecap="round" stroke-linejoin="round"/><path d="m20.625 28.554-.39-.242c-.134-.084-.318.1-.318.1s.163-.057.266.035c.104.092.412.32.442.107ZM21.054 28.442l.277-.366c.095-.126.332-.022.332-.022s-.172.006-.235.13c-.064.122-.269.446-.374.258Z" fill="#301D1A"/><path d="M20.771 29.485s.217.149.341.082a.57.57 0 0 0 .2-.231" stroke="#301D1A" stroke-width=".044" stroke-miterlimit="10" stroke-linecap="round" stroke-linejoin="round"/><path d="M21.678 29.963a.368.368 0 0 0-.338-.155c-.113.009-.265.033-.394.093-.24.113-.29.264-.267.323.022.06.1.247.311.125.166-.096.266-.135.473-.065.207.069.275-.081.256-.221a.236.236 0 0 0-.04-.1Z" fill="#fff" stroke="#301D1A" stroke-width=".044" stroke-miterlimit="10" stroke-linecap="round" stroke-linejoin="round"/><path d="M20.679 30.224s.14-.044.317-.077M21.719 30.062l-.347.02" stroke="#301D1A" stroke-width=".044" stroke-miterlimit="10" stroke-linecap="round" stroke-linejoin="round"/><path d="M20.262 27.188s1.195.877 1.78 1.01c.584.132.69 1.035.557 1.354-.132.319-.424.319-.424.319s-.292.186.637.372c.93.186 1.062-.319 1.355-.664.292-.346.53-.903.372-1.487-.16-.585-1.424-1.88-1.743-2.252-.319-.372-1.152-.537-1.843-.378-.69.16-.744.372-.956.93a.612.612 0 0 0 .265.796Z" fill="#301D1A"/><path d="M12.323 21.298c-.067.11-.135.229-.203.353M13.466 19.905s-.454.357-.97 1.123M12.219 20.653s-.798.948-.947 1.846M35.826 23.348l.184.248M34.714 21.85l.887 1.195M34.962 21.302l1.297 1.745M31.028 30.21c-.348.464-.711.925-.953 1.167M32.02 28.833s-.373.539-.813 1.136M31.77 29.93s-1.047 1.497-1.595 1.895M13.665 29.83s1.048 1.198 1.945 1.497M15.197 31.761c.103.045.208.083.315.115M13.864 30.878s.484.454 1.099.773" stroke="#6C99AF" stroke-width=".044" stroke-miterlimit="10" stroke-linecap="round" stroke-linejoin="round"/><path d="m17.771-10.067-2.09 38.729.075.004 2.09-38.73-.075-.003ZM29.661 28.66c-.017-.15.072-.155.087-.007.001.005.116.504.409.688.126.08.335.1.524.048.151-.043.155.031.004.074-.26.073-.364.07-.556-.052a1.043 1.043 0 0 1-.468-.75Z" fill="#26323F"/><path d="M30.744 29.912c.16.043.124-.222.094-.365.29.327.453.173.44.1-.021-.115-.398-.233-.496-.262-.03.122-.218.478-.038.526Zm.018-.052c-.088-.024-.014-.26.022-.372.015.07.056.393-.022.372Zm.454-.205c.005.03-.116.129-.375-.196.171.057.365.141.375.196ZM14.713 29.476c-.148-.024-.13-.111.017-.085.005 0 .517.027.774-.203.112-.1.19-.295.19-.491.001-.157.073-.141.072.016-.001.27-.033.37-.202.52a1.043 1.043 0 0 1-.85.243Z" fill="#26323F"/><path d="M14.232 29.2c-.099.132.16.196.304.221-.41.15-.327.358-.253.372.114.023.361-.284.424-.364-.102-.075-.365-.38-.475-.23Zm.04.035c.055-.073.248.083.338.157-.07-.011-.385-.092-.337-.157Zm.025.498c-.03-.006-.078-.156.32-.277-.116.138-.266.288-.32.277ZM27.822 43.004c-.022-.202.095-.21.115-.01 0 .006.153.678.537.926.167.108.442.136.69.064.2-.057.206.042.006.1-.343.098-.48.093-.733-.07a1.41 1.41 0 0 1-.615-1.01Z" fill="#26323F"/><path d="M29.248 44.687c.21.058.163-.298.125-.491.382.44.596.233.578.134-.027-.154-.524-.313-.652-.351-.04.164-.287.643-.05.708Zm.025-.07c-.116-.031-.018-.35.028-.499.02.093.074.528-.028.5Zm.598-.276c.006.04-.153.175-.494-.263.225.076.48.19.494.263ZM20.666 43.789c-.16.012-.16-.073 0-.084.004 0 .543-.096.761-.37a.62.62 0 0 0 .094-.5c-.033-.147.046-.148.078-.002.057.252.045.352-.1.532a1.208 1.208 0 0 1-.833.424Z" fill="#26323F"/><path d="M22.223 42.769c.038-.215-.313-.135-.5-.08.402-.42.177-.615.08-.588-.151.042-.263.551-.29.682.167.026.666.227.71-.014Zm-.072-.018c-.021.118-.348.05-.5.018.091-.03.519-.122.5-.018Zm-.33-.57c.04-.01.188.136-.217.516.055-.231.145-.496.217-.516Z" fill="#26323F"/><path d="M20.517 29.154c-.005-.005.043-.052.076-.125.035-.073.04-.14.047-.139M21.311 28.831c-.073-.015-.125-.049-.122-.054M20.597 29.143c.034-.054.052-.104.058-.102M21.505 28.9c0 .007-.053.012-.118.001-.065-.01-.114-.031-.111-.037" stroke="#D5B7AB" stroke-width=".011" stroke-miterlimit="10" stroke-linecap="round" stroke-linejoin="round"/><path d="M19.93 29.066a.134.134 0 0 0-.028.045.075.075 0 0 0 .005.051c.009.022.03.032.053.034.042.006.064-.034.08-.078a.263.263 0 0 0 .003-.153.53.53 0 0 0-.113.101ZM19.985 28.886l-.084.044c-.01.006-.022.013-.024.025-.002.012.01.024.022.026.012.002.025-.004.035-.01a.186.186 0 0 0 .054-.079M21.698 28.73a.097.097 0 0 0-.004.037c.002.012.01.022.02.03.012.012.028.011.044.006.028-.01.03-.042.027-.076a.184.184 0 0 0-.047-.097.363.363 0 0 0-.04.1Z" fill="#F5F5F5"/><path d="m21.597 42.828-.076-.014.812-49.827.076.014-.812 49.827Z" fill="#26323F"/><path d="M21.883 28.934a.1.1 0 0 0 .015.035.05.05 0 0 0 .031.018c.016.003.03-.005.041-.017.02-.022.007-.051-.012-.08a.187.187 0 0 0-.088-.063.346.346 0 0 0 .013.107Z" fill="#F5F5F5"/><path d="m32.719 25.787-.117-.027.087-.048c.025.017.033.043.03.075Z" fill="#6C99AF"/><path opacity=".5" d="m32.719 25.787-.117-.027.087-.048c.025.017.033.043.03.075Z" fill="#040000"/><path d="M30.372 27.883a.24.24 0 0 0 .209-.056l1.976-1.979-4.033-1.057-.095-.026-1.985 1.946c-.049.049-.034.103.032.12l3.896 1.052Z" fill="#6C99AF"/><path d="m30.575 25.123.942.253.446-.447.71.192.109.41c.014.054-.025.147-.05.14 0 0-.046.023-.107.073a.92.92 0 0 0-.136.172l-2.155-.551.241-.241Z" fill="#6C99AF"/><path opacity=".15" d="m30.575 25.123.942.253.446-.447.71.192.109.41c.014.054-.025.147-.05.14 0 0-.046.023-.107.073a.92.92 0 0 0-.136.172l-2.155-.551.241-.241Z" fill="#040000"/><path d="m32.349 25.26.119.446a.215.215 0 0 1 .097-.064c.026-.007.049-.01.07-.002l-.14-.526-.146.146Z" fill="#36464E"/><path d="M32.394 25.89a.147.147 0 0 1 .009-.084.27.27 0 0 1 .02-.04l.007-.013.01-.014.008-.011a.29.29 0 0 1 .02-.022l-.12-.444-.096.097v-.002l.142.533Z" fill="#E0E0E0"/><path opacity=".4" d="M32.782 25.532c.014.053-.026.146-.05.14l-.097-.032-.091-.34.044-.163.04-.028.044.011.11.412Z" fill="#040000"/><path d="m30.323 27.287.136.509a.139.139 0 0 0 .065-.036l.217-.216 1.652-1.654-.143-.534-1.927 1.93Z" fill="#EBEBEB"/><path d="m26.394 26.29.102.384a.16.16 0 0 0 .102.102l3.493.942.296.08a.139.139 0 0 0 .074-.002l-.121-.451-3.946-1.055Z" fill="#F5F5F5"/><path d="m28.346 24.129 4.042 1.09.013.047c.007.027.046.027.084-.012.038-.038.066-.08.054-.126l-.008-.045-4.118-1.111-.017-.004a.045.045 0 0 0 0 .023l.006.021c.006.027-.018.079-.056.117Z" fill="#6C99AF"/><path opacity=".1" d="m28.346 24.129 4.042 1.09.013.047c.007.027.046.027.084-.012.038-.038.066-.08.054-.126l-.008-.045-4.118-1.111-.017-.004a.045.045 0 0 0 0 .023l.006.021c.006.027-.018.079-.056.117Z" fill="#040000"/><path d="m30.412 27.199 1.932-1.935c.025-.023.048-.043.061-.04l-.017-.004-4.043-1.09-.047-.014c-.026-.007-.073.014-.105.046l-1.918 1.92c-.049.05-.034.104.032.121l3.897 1.051a.236.236 0 0 0 .208-.055ZM28.395 23.968l.017.004 4.12 1.111s0-.006.004-.011l.01-.01.022-.022.027-.028c.012-.012.026-.014.041-.007.002 0 .003.002.005.003a.101.101 0 0 1 .03.03.439.439 0 0 1 .032.063l.004.013a.46.46 0 0 1 .01.03l-.027-.1c-.014-.055-.08-.114-.147-.132l-3.896-1.052c-.067-.017-.151 0-.19.037l-.036.036-.001.002a.269.269 0 0 1-.015.015.033.033 0 0 0-.01.018ZM30.58 27.827l.119-.12 1.79-1.791a.14.14 0 0 1 .008-.084.324.324 0 0 1 .07-.106.216.216 0 0 1 .092-.058.111.111 0 0 1 .071.004.375.375 0 0 0-.008-.186l.08-.021c.03.11.023.232-.015.27l-.034.034c-.02.02-.037.025-.04.012l-.006-.021c-.007-.024-.043-.014-.081.024-.038.039-.064.089-.057.113l.006.022c.003.012-.02.048-.053.08l-1.73 1.734-.188.187a.224.224 0 0 1-.098.053l-.025-.093a.216.216 0 0 0 .099-.053Z" fill="#6C99AF"/><path opacity=".3" d="m30.58 27.827.119-.12 1.79-1.791a.14.14 0 0 1 .008-.084.324.324 0 0 1 .07-.106.216.216 0 0 1 .092-.058.111.111 0 0 1 .071.004.375.375 0 0 0-.008-.186l.08-.021c.03.11.023.232-.015.27l-.034.034c-.02.02-.037.025-.04.012l-.006-.021c-.007-.024-.043-.014-.081.024-.038.039-.064.089-.057.113l.006.022c.003.012-.02.048-.053.08l-1.73 1.734-.188.187a.224.224 0 0 1-.098.053l-.025-.093a.216.216 0 0 0 .099-.053Z" fill="#040000"/><path d="m30.411 27.2.001-.001.12-.12 1.374-1.376.439-.44c.03-.031.059-.047.064-.036v.001l.007.024c.007.026.043.016.081-.022.038-.037.048-.074.042-.1l-.006-.025c-.004-.013-.002-.029.004-.034l.01-.01a.495.495 0 0 0 .048-.049c.013-.012.027-.015.042-.007a.01.01 0 0 1 .005.003.053.053 0 0 1 .01.007l.004.005a.171.171 0 0 1 .028.04.41.41 0 0 1 .019.04l.005.013.01.032.085.319-.08.02-.085-.318a.428.428 0 0 0-.008-.025l-.008-.02v-.001c.01.065-.036.139-.08.183a.21.21 0 0 1-.09.057.11.11 0 0 1-.08-.008l-.005.006-.012.012-1.73 1.733-.188.188-.002.002a.227.227 0 0 1-.096.05l-.024-.092a.215.215 0 0 0 .096-.052Z" fill="#6C99AF"/><path opacity=".3" d="m30.411 27.2.001-.001.12-.12 1.374-1.376.439-.44c.03-.031.059-.047.064-.036v.001l.007.024c.007.026.043.016.081-.022.038-.037.048-.074.042-.1l-.006-.025c-.004-.013-.002-.029.004-.034l.01-.01a.495.495 0 0 0 .048-.049c.013-.012.027-.015.042-.007a.01.01 0 0 1 .005.003.053.053 0 0 1 .01.007l.004.005a.171.171 0 0 1 .028.04.41.41 0 0 1 .019.04l.005.013.01.032.085.319-.08.02-.085-.318a.428.428 0 0 0-.008-.025l-.008-.02v-.001c.01.065-.036.139-.08.183a.21.21 0 0 1-.09.057.11.11 0 0 1-.08-.008l-.005.006-.012.012-1.73 1.733-.188.188-.002.002a.227.227 0 0 1-.096.05l-.024-.092a.215.215 0 0 0 .096-.052Z" fill="#040000"/><path d="m26.248 26.153.025.095c.006.022.026.04.058.048h.002l3.64.983.256.069a.228.228 0 0 0 .11-.003l-.025-.093a.219.219 0 0 1-.11.003l-.163-.044-3.734-1.007c-.035-.01-.053-.028-.059-.05Z" fill="#6C99AF"/><path opacity=".2" d="m26.248 26.153.025.095c.006.022.026.04.058.048h.002l3.64.983.256.069a.228.228 0 0 0 .11-.003l-.025-.093a.219.219 0 0 1-.11.003l-.163-.044-3.734-1.007c-.035-.01-.053-.028-.059-.05Z" fill="#040000"/><path d="m26.416 26.781.025.095c.006.022.026.04.058.048h.002l3.64.983.256.069a.226.226 0 0 0 .11-.003l-.025-.093a.217.217 0 0 1-.11.003l-.163-.044-3.734-1.007c-.035-.01-.053-.027-.059-.05Z" fill="#6C99AF"/><path opacity=".2" d="m26.416 26.781.025.095c.006.022.026.04.058.048h.002l3.64.983.256.069a.226.226 0 0 0 .11-.003l-.025-.093a.217.217 0 0 1-.11.003l-.163-.044-3.734-1.007c-.035-.01-.053-.027-.059-.05Z" fill="#040000"/><path d="m32.444 24.757-2.317 2.293-4.195-1.12 2.316-2.292 4.196 1.12Z" fill="#6C99AF"/><path opacity=".2" d="m32.444 24.757-2.317 2.293-4.195-1.12 2.316-2.292 4.196 1.12Z" fill="#fff"/><path d="m30.077 26.961 2.248-2.235c-.097-.143-.142-.329-.136-.555l-2.238 2.219s-.005.144.126.571Z" fill="#F5F5F5"/><path d="M30.012 26.188a.465.465 0 0 0-.11.407l.11.411c.036.13.14.158.236.063l2.223-2.21-.027-.102-2.201 2.179c-.058.057-.12.04-.141-.038l-.1-.382a.278.278 0 0 1 .066-.244l2.198-2.178-.03-.115-2.223 2.209Z" fill="#6C99AF"/><path opacity=".4" d="M30.012 26.188a.465.465 0 0 0-.11.407l.11.411c.036.13.14.158.236.063l2.223-2.21-.027-.102-2.201 2.179c-.058.057-.12.04-.141-.038l-.1-.382a.278.278 0 0 1 .066-.244l2.198-2.178-.03-.115-2.223 2.209Z" fill="#fff"/><path d="m32.235 23.979-4.196-1.12-2.222 2.209a.465.465 0 0 0-.11.407l.11.411c.017.065.052.104.095.116l4.196 1.12c-.043-.012-.078-.051-.095-.116l-.11-.411a.465.465 0 0 1 .11-.407l2.222-2.21Z" fill="#6C99AF"/><path opacity=".85" d="m32.235 23.979-4.196-1.12-2.222 2.209a.465.465 0 0 0-.11.407l.11.411c.017.065.052.104.095.116l4.196 1.12c-.043-.012-.078-.051-.095-.116l-.11-.411a.465.465 0 0 1 .11-.407l2.222-2.21Z" fill="#fff"/><path d="M29.909 26.379a.428.428 0 0 0-.006.216l.11.412c.017.064.052.104.095.115l-4.196-1.12c-.042-.011-.078-.05-.095-.115l-.11-.412a.428.428 0 0 1 .007-.216l4.195 1.12Z" fill="#6C99AF"/><path opacity=".6" d="M29.909 26.379a.428.428 0 0 0-.006.216l.11.412c.017.064.052.104.095.115l-4.196-1.12c-.042-.011-.078-.05-.095-.115l-.11-.412a.428.428 0 0 1 .007-.216l4.195 1.12Z" fill="#fff"/><path d="M26.267 25.404c.01.305.078.554.2.748l.195.052c-.122-.194-.19-.442-.2-.748l-.195-.052ZM29.056 26.156c.01.305.078.554.2.748l.195.052c-.122-.194-.19-.442-.2-.748l-.195-.052Z" fill="#fff"/><path d="m31.883 23.934-2.034 1.998-4.245-1.133 2.032-1.998 4.247 1.133Z" fill="#6C99AF"/><path opacity=".6" d="m31.883 23.934-2.034 1.998-4.245-1.133 2.032-1.998 4.247 1.133Z" fill="#040000"/><path d="M29.797 25.84 31.76 23.9c-.101-.148-.11-.199-.103-.434l-1.952 1.921s-.043.008.093.452Z" fill="#F5F5F5"/><path d="M29.768 25.18a.482.482 0 0 0-.114.421l.077.285c.036.135.145.164.244.066l1.935-1.912-.028-.105-1.913 1.879c-.06.059-.125.042-.146-.04l-.066-.254a.29.29 0 0 1 .068-.253l1.91-1.879-.031-.12-1.936 1.911Z" fill="#6C99AF"/><path opacity=".5" d="M29.768 25.18a.482.482 0 0 0-.114.421l.077.285c.036.135.145.164.244.066l1.935-1.912-.028-.105-1.913 1.879c-.06.059-.125.042-.146-.04l-.066-.254a.29.29 0 0 1 .068-.253l1.91-1.879-.031-.12-1.936 1.911Z" fill="#040000"/><path d="m31.705 23.268-4.246-1.133-1.935 1.911a.483.483 0 0 0-.114.422l.076.285c.019.067.055.108.1.12l4.245 1.133c-.045-.012-.08-.053-.099-.12l-.077-.285a.483.483 0 0 1 .114-.422l1.936-1.911Z" fill="#6C99AF"/><path opacity=".35" d="m31.705 23.268-4.246-1.133-1.935 1.911a.483.483 0 0 0-.114.422l.076.285c.019.067.055.108.1.12l4.245 1.133c-.045-.012-.08-.053-.099-.12l-.077-.285a.483.483 0 0 1 .114-.422l1.936-1.911Z" fill="#040000"/><path d="M29.661 25.377a.445.445 0 0 0-.006.224l.077.286c.018.067.054.108.099.12l-4.246-1.134c-.044-.012-.08-.053-.099-.12l-.076-.285a.45.45 0 0 1 .006-.224l4.245 1.133Z" fill="#6C99AF"/><path opacity=".45" d="M29.661 25.377a.445.445 0 0 0-.006.224l.077.286c.018.067.054.108.099.12l-4.246-1.134c-.044-.012-.08-.053-.099-.12l-.076-.285a.45.45 0 0 1 .006-.224l4.245 1.133Z" fill="#040000"/><path d="M25.988 24.394c.011.317.044.433.17.634l.202.055c-.126-.201-.158-.318-.17-.634l-.202-.055ZM28.773 25.139c.012.317.043.43.169.63l.202.055c-.126-.2-.157-.313-.168-.63l-.203-.055ZM32.143 23.18l-2.033 1.997-4.246-1.133 2.033-1.997 4.246 1.133Z" fill="#6C99AF"/><path opacity=".4" d="m32.143 23.18-2.033 1.997-4.246-1.133 2.033-1.997 4.246 1.133Z" fill="#040000"/><path d="m30.057 25.085 1.963-1.938c-.102-.149-.117-.223-.11-.458l-1.952 1.92s-.037.032.099.476Z" fill="#F5F5F5"/><path d="M30.022 24.4a.482.482 0 0 0-.114.423l.083.309c.036.134.145.163.244.065l1.935-1.911-.028-.106-1.913 1.88c-.06.058-.125.04-.146-.04l-.073-.278a.291.291 0 0 1 .069-.254l1.91-1.879-.032-.12-1.935 1.912Z" fill="#6C99AF"/><path opacity=".25" d="M30.022 24.4a.482.482 0 0 0-.114.423l.083.309c.036.134.145.163.244.065l1.935-1.911-.028-.106-1.913 1.88c-.06.058-.125.04-.146-.04l-.073-.278a.291.291 0 0 1 .069-.254l1.91-1.879-.032-.12-1.935 1.912Z" fill="#040000"/><path d="m31.958 22.49-4.246-1.133-1.935 1.911a.483.483 0 0 0-.114.422l.083.309c.018.067.054.108.098.12l4.246 1.133c-.045-.012-.08-.053-.1-.12l-.082-.31a.483.483 0 0 1 .114-.421l1.936-1.911Z" fill="#6C99AF"/><path d="M29.915 24.598a.444.444 0 0 0-.006.225l.083.309c.018.067.055.108.099.12l-4.246-1.133c-.044-.012-.08-.053-.098-.12l-.083-.309a.45.45 0 0 1 .006-.224l4.245 1.132Z" fill="#6C99AF"/><path opacity=".15" d="M29.915 24.598a.444.444 0 0 0-.006.225l.083.309c.018.067.055.108.099.12l-4.246-1.133c-.044-.012-.08-.053-.098-.12l-.083-.309a.45.45 0 0 1 .006-.224l4.245 1.132Z" fill="#040000"/><path d="M26.242 23.616c.011.317.05.457.176.657l.202.055c-.126-.2-.164-.34-.176-.658l-.202-.054ZM29.027 24.362c.011.317.049.452.175.653l.202.055c-.126-.201-.163-.337-.174-.654l-.203-.054Z" fill="#6C99AF"/><g opacity=".4" fill="#fff"><path d="M26.242 23.616c.011.317.05.457.176.657l.202.055c-.126-.2-.164-.34-.176-.658l-.202-.054ZM29.027 24.362c.011.317.049.452.175.653l.202.055c-.126-.201-.163-.337-.174-.654l-.203-.054Z"/></g><path d="m31.404 22.503-.118-.028.087-.047c.026.017.034.043.03.075Z" fill="#6C99AF"/><path opacity=".5" d="m31.404 22.503-.118-.028.087-.047c.026.017.034.043.03.075Z" fill="#040000"/><path d="M29.057 24.599a.24.24 0 0 0 .208-.056l1.976-1.979-4.033-1.057-.095-.026-1.985 1.946c-.048.049-.034.103.033.12l3.896 1.052Z" fill="#6C99AF"/><path d="m29.26 21.84.941.252.446-.447.71.192.11.41c.014.054-.026.147-.051.14 0 0-.045.023-.106.073a.92.92 0 0 0-.136.171l-2.155-.55.24-.241Z" fill="#6C99AF"/><path opacity=".15" d="m29.26 21.84.941.252.446-.447.71.192.11.41c.014.054-.026.147-.051.14 0 0-.045.023-.106.073a.92.92 0 0 0-.136.171l-2.155-.55.24-.241Z" fill="#040000"/><path d="m31.033 21.976.12.446.005-.006a.215.215 0 0 1 .092-.058c.025-.007.049-.01.07-.002l-.141-.526-.146.146Z" fill="#36464E"/><path d="M31.078 22.606a.146.146 0 0 1 .01-.084.266.266 0 0 1 .02-.04c.001-.005.004-.009.007-.013l.01-.014.008-.011a.29.29 0 0 1 .02-.022l-.12-.444-.096.097v-.002l.141.533Z" fill="#E0E0E0"/><path opacity=".4" d="M31.466 22.248c.014.053-.025.146-.05.14l-.097-.032-.09-.34.044-.163.04-.028.043.011.11.412Z" fill="#040000"/><path d="m29.009 24.003.136.509a.14.14 0 0 0 .065-.036l.217-.216 1.651-1.654-.142-.534-1.927 1.93Z" fill="#EBEBEB"/><path d="m25.078 23.006.103.384c.012.044.058.09.102.102l3.492.942.297.08a.139.139 0 0 0 .073-.002l-.12-.451-3.947-1.055Z" fill="#F5F5F5"/><path d="m27.031 20.845 4.043 1.09.012.047c.008.027.047.027.084-.012.039-.038.067-.08.055-.125l-.008-.046-4.119-1.111-.017-.004a.045.045 0 0 0 0 .023l.006.021c.007.027-.018.078-.056.117Z" fill="#6C99AF"/><path opacity=".1" d="m27.031 20.845 4.043 1.09.012.047c.008.027.047.027.084-.012.039-.038.067-.08.055-.125l-.008-.046-4.119-1.111-.017-.004a.045.045 0 0 0 0 .023l.006.021c.007.027-.018.078-.056.117Z" fill="#040000"/><path d="m29.097 23.915 1.932-1.935c.025-.024.048-.043.06-.04l-.016-.005-4.043-1.09-.047-.013c-.026-.007-.073.014-.106.046l-1.918 1.92c-.048.05-.034.104.033.121l3.897 1.051a.238.238 0 0 0 .208-.055ZM27.081 20.684l.017.004 4.119 1.111s0-.006.005-.011l.01-.01.021-.022.027-.028c.013-.012.027-.014.041-.007.002 0 .004.002.005.003l.015.012.015.018a.512.512 0 0 1 .032.063l.005.013.01.03-.027-.1c-.015-.055-.081-.114-.147-.132l-3.897-1.052c-.067-.017-.15 0-.19.037l-.035.036-.002.002a.23.23 0 0 1-.015.015.036.036 0 0 0-.009.018ZM29.265 24.543l.12-.12 1.789-1.791a.14.14 0 0 1 .008-.084.324.324 0 0 1 .07-.106.216.216 0 0 1 .092-.058.113.113 0 0 1 .072.003.375.375 0 0 0-.008-.186l.08-.021c.03.111.023.232-.015.27l-.034.034c-.02.02-.037.025-.04.013l-.007-.022c-.006-.024-.042-.013-.08.025s-.064.088-.058.112l.006.022c.003.013-.02.049-.053.081l-1.73 1.733-.187.188a.223.223 0 0 1-.098.052l-.025-.092a.217.217 0 0 0 .098-.053Z" fill="#6C99AF"/><path opacity=".3" d="m29.265 24.543.12-.12 1.789-1.791a.14.14 0 0 1 .008-.084.324.324 0 0 1 .07-.106.216.216 0 0 1 .092-.058.113.113 0 0 1 .072.003.375.375 0 0 0-.008-.186l.08-.021c.03.111.023.232-.015.27l-.034.034c-.02.02-.037.025-.04.013l-.007-.022c-.006-.024-.042-.013-.08.025s-.064.088-.058.112l.006.022c.003.013-.02.049-.053.081l-1.73 1.733-.187.188a.223.223 0 0 1-.098.052l-.025-.092a.217.217 0 0 0 .098-.053Z" fill="#040000"/><path d="m29.096 23.915.12-.12 1.375-1.376.438-.44c.031-.031.06-.047.064-.036l.001.001.006.024c.008.026.044.016.082-.022.037-.037.048-.074.042-.099l-.007-.026c-.003-.013-.002-.028.004-.033l.01-.01a.49.49 0 0 0 .022-.022l.027-.028c.012-.012.027-.014.041-.007.002 0 .004.002.005.003a.047.047 0 0 1 .01.008c.002 0 .003.002.005.004.005.005.01.011.014.018a.512.512 0 0 1 .032.063l.005.013a.46.46 0 0 1 .01.03l.085.32-.08.021-.085-.319a.452.452 0 0 0-.007-.025l-.008-.02v-.001c.009.066-.037.14-.081.184a.21.21 0 0 1-.09.056.11.11 0 0 1-.079-.007l-.006.006-.011.012-1.73 1.733-.188.187-.002.002a.227.227 0 0 1-.096.051l-.025-.093a.218.218 0 0 0 .097-.052Z" fill="#6C99AF"/><path opacity=".3" d="m29.096 23.915.12-.12 1.375-1.376.438-.44c.031-.031.06-.047.064-.036l.001.001.006.024c.008.026.044.016.082-.022.037-.037.048-.074.042-.099l-.007-.026c-.003-.013-.002-.028.004-.033l.01-.01a.49.49 0 0 0 .022-.022l.027-.028c.012-.012.027-.014.041-.007.002 0 .004.002.005.003a.047.047 0 0 1 .01.008c.002 0 .003.002.005.004.005.005.01.011.014.018a.512.512 0 0 1 .032.063l.005.013a.46.46 0 0 1 .01.03l.085.32-.08.021-.085-.319a.452.452 0 0 0-.007-.025l-.008-.02v-.001c.009.066-.037.14-.081.184a.21.21 0 0 1-.09.056.11.11 0 0 1-.079-.007l-.006.006-.011.012-1.73 1.733-.188.187-.002.002a.227.227 0 0 1-.096.051l-.025-.093a.218.218 0 0 0 .097-.052Z" fill="#040000"/><path d="m24.933 22.87.025.094c.006.022.025.04.057.048h.002l3.64.983.256.069a.227.227 0 0 0 .11-.003L29 23.968a.218.218 0 0 1-.11.003l-.163-.044-3.734-1.007c-.036-.01-.054-.028-.06-.05Z" fill="#6C99AF"/><path opacity=".2" d="m24.933 22.87.025.094c.006.022.025.04.057.048h.002l3.64.983.256.069a.227.227 0 0 0 .11-.003L29 23.968a.218.218 0 0 1-.11.003l-.163-.044-3.734-1.007c-.036-.01-.054-.028-.06-.05Z" fill="#040000"/><path d="m25.102 23.497.025.095c.006.022.025.04.057.048h.002l3.64.982.256.07a.226.226 0 0 0 .11-.004l-.025-.092a.217.217 0 0 1-.11.003l-.163-.044-3.734-1.008c-.035-.01-.053-.027-.058-.05Z" fill="#6C99AF"/><path opacity=".2" d="m25.102 23.497.025.095c.006.022.025.04.057.048h.002l3.64.982.256.07a.226.226 0 0 0 .11-.004l-.025-.092a.217.217 0 0 1-.11.003l-.163-.044-3.734-1.008c-.035-.01-.053-.027-.058-.05Z" fill="#040000"/><path d="m31.741 21.58-2.316 2.292-4.195-1.12 2.316-2.292 4.195 1.12Z" fill="#6C99AF"/><path opacity=".2" d="m31.741 21.58-2.316 2.292-4.195-1.12 2.316-2.292 4.195 1.12Z" fill="#fff"/><path d="m29.375 23.783 2.248-2.236c-.097-.143-.142-.328-.136-.555l-2.238 2.22s-.005.143.126.571Z" fill="#F5F5F5"/><path d="M29.31 23.01a.466.466 0 0 0-.11.406l.11.412c.035.13.14.158.236.063l2.223-2.21-.028-.102-2.2 2.179c-.058.057-.12.04-.141-.038l-.1-.382a.278.278 0 0 1 .066-.244l2.198-2.178-.031-.116-2.223 2.21Z" fill="#6C99AF"/><path opacity=".4" d="M29.31 23.01a.466.466 0 0 0-.11.406l.11.412c.035.13.14.158.236.063l2.223-2.21-.028-.102-2.2 2.179c-.058.057-.12.04-.141-.038l-.1-.382a.278.278 0 0 1 .066-.244l2.198-2.178-.031-.116-2.223 2.21Z" fill="#fff"/><path d="m31.533 20.8-4.196-1.12-2.222 2.21a.466.466 0 0 0-.11.407l.11.411c.017.065.052.104.095.116l4.196 1.12c-.043-.012-.078-.052-.095-.116l-.11-.412a.465.465 0 0 1 .11-.406l2.222-2.21Z" fill="#6C99AF"/><path opacity=".85" d="m31.533 20.8-4.196-1.12-2.222 2.21a.466.466 0 0 0-.11.407l.11.411c.017.065.052.104.095.116l4.196 1.12c-.043-.012-.078-.052-.095-.116l-.11-.412a.465.465 0 0 1 .11-.406l2.222-2.21Z" fill="#fff"/><path d="M29.207 23.2a.428.428 0 0 0-.007.217l.11.411c.018.065.053.104.096.116l-4.196-1.12c-.043-.012-.078-.051-.095-.116l-.11-.411a.428.428 0 0 1 .007-.217l4.195 1.12Z" fill="#6C99AF"/><path opacity=".6" d="M29.207 23.2a.428.428 0 0 0-.007.217l.11.411c.018.065.053.104.096.116l-4.196-1.12c-.043-.012-.078-.051-.095-.116l-.11-.411a.428.428 0 0 1 .007-.217l4.195 1.12Z" fill="#fff"/><path d="M25.564 22.225c.01.306.078.555.2.748l.195.053c-.122-.194-.19-.442-.2-.748l-.195-.053ZM28.352 22.977c.012.306.079.555.2.748l.196.053c-.122-.194-.19-.442-.2-.748l-.195-.053Z" fill="#fff"/><path d="m27.836 42.944-.36-44.042.076-.003.36 44.042-.076.003ZM29.679 28.63 29.334-12.3l.076-.002.339 40.956-.07-.022Z" fill="#26323F"/><path d="M18.326 25.068c-.01-.008.12-.322.289-.703.169-.38.314-.681.324-.673.01.008-.12.322-.29.703-.168.38-.314.682-.323.673ZM18.07 18.016c-.01-.008.12-.322.289-.703.17-.38.314-.681.324-.673.01.008-.12.322-.29.703-.168.38-.313.681-.323.673ZM18.598 34.883c-.01-.008.12-.323.29-.704.168-.38.313-.681.323-.673.01.008-.12.322-.289.703-.17.38-.314.682-.324.674ZM13.334 36.694c-.01-.008.12-.322.288-.703.17-.38.315-.682.324-.674.01.008-.12.323-.288.703-.17.38-.315.682-.324.674ZM35.408 31.808c-.01-.008.12-.323.289-.703.169-.381.314-.682.324-.674.01.008-.12.322-.29.703-.169.38-.314.682-.323.674ZM29.271 42.188c-.01-.009.12-.323.289-.704.17-.38.314-.681.324-.673.01.008-.12.322-.289.703-.17.38-.314.681-.324.673ZM32.155 46.143c-.01-.008.12-.322.289-.703.169-.38.314-.682.324-.674.01.008-.12.323-.29.703-.168.38-.313.682-.323.674ZM39.006 30.052c-.01-.008.12-.323.29-.703.169-.38.313-.682.323-.674.01.008-.12.323-.289.703-.169.38-.314.682-.324.674ZM39.893 23.476c-.01-.008.12-.323.289-.703.17-.38.314-.682.324-.674.01.008-.12.323-.289.703-.17.38-.314.682-.324.674ZM37.497 14.15c-.01-.009.12-.323.288-.704.17-.38.315-.682.325-.674.01.008-.12.323-.29.704-.168.38-.314.682-.323.673ZM33.786 26.282c-.01-.008.12-.323.289-.703.169-.38.314-.682.324-.674.01.008-.12.323-.29.703-.169.38-.314.682-.323.674ZM37.26 22.165c-.01-.008.12-.323.29-.703.169-.38.313-.682.323-.674.01.008-.12.323-.289.703-.169.38-.314.682-.324.674ZM22.601 16.244c-.01-.008.12-.322.289-.703.17-.38.314-.681.324-.673.01.008-.12.322-.289.703-.17.38-.314.682-.324.673ZM13.947 29.652c-.01-.008.12-.323.289-.704.169-.38.314-.681.324-.673.01.008-.12.322-.29.703-.168.38-.314.682-.323.674ZM18.326 30.24c-.01-.008.12-.323.289-.703.169-.38.314-.682.324-.674.01.008-.12.323-.29.703-.168.38-.314.682-.323.674Z" fill="#91A7AF"/></g></g><defs><clipPath id="a"><rect width="48" height="48" rx="24" fill="#fff"/></clipPath><clipPath id="b"><path fill="#fff" d="M0 0h48v48H0z"/></clipPath></defs></svg>