<svg width="48" height="48" fill="none" xmlns="http://www.w3.org/2000/svg"><g clip-path="url(#a)"><rect width="48" height="48" rx="24" fill="#fff"/><path opacity=".72" fill-rule="evenodd" clip-rule="evenodd" d="M22.346 14.644c-.566.109-6.472 2.286-9.623 3.13-1.51.405-1.054 1.06-1.057 2.2-.008 3.627.315 11.557.11 14.413-.075 1.053.83.377 1.852.002 3.428-1.26 6.65-2.542 9.947-3.788 1.161-.439 1.015-.17 1.015-1.334V15.71c0-2.167.602-1.614-2.244-1.066Z" fill="#A0BCC5"/><path opacity=".72" fill-rule="evenodd" clip-rule="evenodd" d="M25.866 30.538c1.965.589 6.489 2.126 9.119 2.863.357.1.82.173 1.104.258 1.325.397 2.164.856 2.162-.399l-.02-14.686c-.001-1.036-.246-1.474-1.577-1.8-3.077-.756-12.027-2.658-12.244-2.594-.159.047.076.056-.233.049l.04 13.561c.006 1.997-.388 2.137 1.65 2.748Z" fill="#2E4B61"/><path opacity=".72" fill-rule="evenodd" clip-rule="evenodd" d="M18.131 29.021c-.311 1.044-.686 3.255-.686 4.396 0 .643-.066.373.503.137.802-.332 6.038-2.78 6.045-2.793.325-.637.505-4.905.412-5.129-.166-.401 1.386-2.74.87-3.984-.558-2.003-3.42-2.08-4.144.87-1.421.421-8.013 5.523-3 6.503Z" fill="#466C7C" stroke="#466C7C" stroke-width=".044" stroke-miterlimit="10"/><path opacity=".72" fill-rule="evenodd" clip-rule="evenodd" d="M31 32.017c-2.16-.69-4.164-1.346-5.603-1.815-.671-.219-.99-.397-2.341.303-2.284 1.183-9.631 3.909-9.994 4.081-1.189.568-.94.81-.268 1.049 2.782.99 5.9 2.749 8.236 3.627 3.415 1.285 3.88 1.714 5.536 1.035 3.154-1.295 7.74-3.767 10.544-5.407.66-.386.843-.785-.736-1.241-1.768-.51-3.619-1.07-5.373-1.632Z" fill="#233F4F"/><path fill-rule="evenodd" clip-rule="evenodd" d="M20.96 27.037c-1.463.467-1.55-.315-1.29-1.21.48-1.648 1.472-2.092 3.106-2.577 2.2-.654 1.871 2.255-.017 3.113-.66.3-1.441.559-1.8.674Z" fill="#D19C9D"/><path fill-rule="evenodd" clip-rule="evenodd" d="m22.275 26.912 1.694-.825c2.03-.988.7-4.715-2.84-2.244.693 1.039.755 1.878 1.146 3.069Z" fill="#163A43"/><path fill-rule="evenodd" clip-rule="evenodd" d="M18.947 25.777c-.075-1.342 2.123-4.239 3.386-4.576.128-.034.24.024.466.317.236.306-.248.912-.71 1.515-.988 1.29-.539 3.124-1.222 3.912-.515.593-1.825.54-1.92-1.168Z" fill="#E3B2A0"/><path opacity=".72" fill-rule="evenodd" clip-rule="evenodd" d="M33.606 32.996c-2.624-.796-6.087-1.963-7.74-2.458-.868-.26-1.294-.435-1.498-.705.027-1.779.131-4.047.445-5.887-.8-.47-.665-1.779-.363-2.756 1.477-4.784 6.132-.887 6.438 1.647 2.064 1.101 3.08 2.298 1.97 3.951.174 1.005.981 5.37.748 6.208Z" fill="#233F4F"/><path fill-rule="evenodd" clip-rule="evenodd" d="M22.053 23.492c-.3-.324-.766-.06-.62.876.16.41.6.777.774.506.177-.275.136-1.068-.154-1.382Z" fill="#D19F8F"/><path fill-rule="evenodd" clip-rule="evenodd" d="M30.092 31.41c.305-.044.792-6.207-1.345-8.429-.615-.64-1.887-1.527-2.753-1.527-1.358 0-2.556-.222-3.014 2.254-.126.68.029 1.976.015 3.11-.506 1.896-.965 2.663-.393 2.792l5.938 1.34 1.552.46Z" fill="#163A43"/><path fill-rule="evenodd" clip-rule="evenodd" d="M25.861 21.505a2.584 2.584 0 0 0-.191-.053c-1.222-.016-2.268-.02-2.69 2.256-.105.57-.013 1.576.011 2.554.216.3.495.535.842.66 1.796.645 3.17.033 3.444-1.11.494-2.067 1.254-3.458-1.416-4.307Z" fill="#163A43"/><path fill-rule="evenodd" clip-rule="evenodd" d="M27.191 22.218c.17-.06 1.509.486 1.799.637.347.182.68.526.88 1.018.546 1.339-1.375 5.547-2.037 5.924-.225.534-.53.064-.767-.63-.107-.316.105-6.942.125-6.95Z" fill="#D19C9D"/><path opacity=".72" fill-rule="evenodd" clip-rule="evenodd" d="M23.558 36.806c-1.104.946-.2 1.285.84 1.196 1.096-.095 3.095-1.059 3.12-1.059 2.074 1.25 5.597-2.172 6.091-4.062-1.287-.383-1.354-.463-2.608-.864-2.16-.69-4.164-1.346-5.604-1.815-.67-.219-.99-.397-2.34.303-1.099.569-3.368 1.494-5.468 2.321.609.364 2.846.883 2.407 1.127-.77.426-.973.58-1.405.841-.88.535-1.218 1.224.32 1.317.982.06 2.832-.777 3.667-.839 1.601-.118 1.798.525 1.323 1.167 0-.078.168-.046.274-.046 0-.084.328-.045-.045-.045 0 .103-.678.247-.572.458Z" fill="#172F39"/><path fill-rule="evenodd" clip-rule="evenodd" d="M25.117 33.962c.035.705.035 1.123-.28 1.533-.218.283-.794.702-1.29 1.062-1.26.912.744.916 1.006.807.364-.151 2.282-.924 2.202-1.328l-.273-1.383.01-.669-1.357-.278-.018.255ZM19.503 33.327c.093.178.052.324.08.422.089.322-.594.644-1.482 1.227-.418.274-.732.363-.361.524.49.212.575.215.961.139.422-.083 1.987-.64 2.32-.884.084-.062.079-.094.058-.278-.021-.189-.116-.55-.245-.926l-.035-.314-1.296.09Z" fill="#416572"/><path fill-rule="evenodd" clip-rule="evenodd" d="M23.109 36.852c.23-.207.516-.253.725-.18.199.07.511.268.655.556.401-.04 1.204-.494 1.877-.87.303-.169.32-.298.36-.543.04.074.098.174.128.294.034.136.02.3-.284.491-.374.235-1.005.572-1.445.773-.404.184-1.04.312-1.547.227-.36-.06-.928-.336-.469-.748Z" fill="#ECECEB"/><path fill-rule="evenodd" clip-rule="evenodd" d="M26.992 21.966c.174-.064 1.641.514 1.963.674.385.192.776.555 1.03 1.076.352.727.063 2.381-.394 3.71l-2.126-.993c-.225-1.963-.486-4.462-.473-4.467Z" fill="#163A43"/><path fill-rule="evenodd" clip-rule="evenodd" d="M24.67 28.76c-.66-.514-2.214-1.37-3.375-1.854-2.412-1.006-2.58 1.139-2.661 2.904-.048 1.044.247 2.951.52 4.11l2 .053c-.06-.068-.055-.783.08-2.65.035-.494.083-.358.265-.046.451.773 2.036 1.883 3.142 2.403 2.417 1.136.261-3.945.03-4.92Z" fill="#8CABAE"/><path fill-rule="evenodd" clip-rule="evenodd" d="M27.084 22.942c-.32-.432-.753-.846-1.222-1.43-2.154-1.297-.172-.674.14-.545.15.062-.584-.615-.405-.631.185-.017.706.203.874.389.094-.123.354-.085.68.14.777.532.851 1.219 1.083 1.711.57 1.21.214 5.683-.181 6.773-.64 1.767-1.665.5-1.872-.728-.301-1.8.86-4.084.903-5.679Z" fill="#E3B2A0"/><path fill-rule="evenodd" clip-rule="evenodd" d="M26.76 27.692c-.904-.706-2.128-.41-1.879 2.257.034.356 1.57 4.375 1.605 4.38 2.523.336 3.165-.973 3.33-3.048l-1.047-.325c-.483-.808-1.011-2.482-2.01-3.264Z" fill="#84A3A9"/><path fill-rule="evenodd" clip-rule="evenodd" d="M25.22 20.818c-1.276-.406-2.568.234-3.13 1.29-.623 1.17-.344 3.608 1.102 4.127 1.796.645 3.17.033 3.445-1.11.494-2.067 1.254-3.457-1.416-4.307Z" fill="#E3B2A0"/><path fill-rule="evenodd" clip-rule="evenodd" d="m24.68 33.212-.03 1.812 2.151.268c0-.69.416-1.77.633-3.248.119-.81.166-1.768.097-2.576-.092-1.068-.704-2.113-1.537-2.173-2.654-.19-1.295 4.713-1.315 5.917Z" fill="#A0BCC5"/><path fill-rule="evenodd" clip-rule="evenodd" d="M21.796 22.351c-.22.581-.134.991.392.565.368-.298.25-.294.184.209-.158 1.206.376.615.772-.044.168-.278.196-.137.257.453.106 1.015.398 1.06.86.1.275-.572.27-.527.4.06.166.738.53.796.963-.182-.144.147 1.103 2.136 1.67 1.075.509-.951.263-2.214-.433-3.002-1.347-1.524-4.253-1.379-5.066.766Z" fill="#22120E"/><path fill-rule="evenodd" clip-rule="evenodd" d="M24.77 25.883c.162.211.171.253.007.15-.255-.159-.461-.477-.472-.614-.01-.134.023-.132.254-.081.802.178 1.184.537.612.315.109.081.173.265-.143.13.2.188.288.348-.258.1ZM22.738 25.29c.236-.109.43-.082.533-.081.129 0 .084.122.025.241a.886.886 0 0 1-.255.317c-.096.07-.433.247-.211-.069-.235.075-.324.003-.116-.247-.076.03-.276-.021.024-.16Z" fill="#D19F8F"/><path fill-rule="evenodd" clip-rule="evenodd" d="M23.565 25.29c.02-.098-.015-.105-.06-.021-.068.131-.166.399-.104.6.034.113.238.325.553.192.029-.012.217-.166-.049-.07-.234.083-.352-.046-.38-.114-.078-.182.02-.49.04-.587Zm-.225-.441c-.345-.233-.613.009-.726.182-.046.07-.055.12.048.08.16-.06.43-.129.479-.143.049.008.107.017.16.027.115.022.076-.12.04-.146Zm.955.064c.359-.216.796.123.924.332.125.203-.049.096-.16.047l-.366-.163-.327-.03c-.149-.014-.181-.119-.071-.186Zm.184.376c.197.029.394.086.533.14.339.133.192.127-.046.067.01.01-.013.19-.054.229-.052.05-.143.056-.2-.027-.033-.05-.055-.129-.052-.248a3.737 3.737 0 0 1-.178-.076c-.177-.082-.265-.124-.003-.085Zm-1.794-.01c-.14.051-.06.05.164.054 0 0-.008.06.005.126.04.194.247.227.296.014a.246.246 0 0 0-.008-.144c-.041.001.422-.135.238-.14-.303-.008-.52.024-.695.09Z" fill="#262726"/><path fill-rule="evenodd" clip-rule="evenodd" d="M17.539 35.297c.455-.449.995-.193 1.235.229a8.754 8.754 0 0 0 2.01-.673c.414-.21.314-.314.294-.472.039.063.116.27.145.374.033.118.031.179-.28.33-.621.3-2.144.863-2.87.823-.504-.027-.888-.26-.534-.61Z" fill="#ECECEB"/><path fill-rule="evenodd" clip-rule="evenodd" d="M18.288 34.699a.881.881 0 0 1 .28-.069.072.072 0 0 1 .015-.118c.325-.143.82-.102.955.244a.08.08 0 0 1-.14.074c-.23-.21-.396-.29-.718-.198.216.019.408.137.549.35a.075.075 0 0 1-.022.103.075.075 0 0 1-.103-.022c-.255-.247-.4-.297-.754-.22a.078.078 0 0 1-.103-.04.077.077 0 0 1 .04-.104Zm.995-.626c.333-.2.642-.127.88.177a.063.063 0 1 1-.096.08c-.224-.145-.427-.257-.698-.143a.092.092 0 0 1-.02.01c.208.02.388.142.532.361a.075.075 0 0 1-.021.104.075.075 0 0 1-.104-.021c-.24-.242-.392-.341-.736-.223a.08.08 0 0 1-.107-.033.08.08 0 0 1 .033-.108.835.835 0 0 1 .351-.082.07.07 0 0 1-.014-.121ZM24.183 35.84a1.01 1.01 0 0 1 1.101.307c.03.03.024.075-.01.1a.089.089 0 0 1-.114-.008c-.297-.167-.52-.282-.891-.24-.05.021-.11.002-.134-.042-.023-.044-.001-.096.048-.118Zm-.32.274a1.01 1.01 0 0 1 1.1.308c.03.03.025.075-.01.1a.089.089 0 0 1-.114-.008c-.297-.167-.52-.282-.89-.24-.05.021-.11.002-.134-.042-.023-.044-.002-.097.048-.118Zm.966-.827c.39-.109.811-.015 1.046.273.03.024.03.064.001.089a.088.088 0 0 1-.107.001c-.358-.112-.447-.229-.87-.193-.058.016-.12-.009-.139-.056-.02-.047.011-.098.069-.114Zm-.253.282c.369-.12.818-.015 1.041.287.02.024.014.06-.014.078a.07.07 0 0 1-.088-.012c-.235-.113-.569-.2-.837-.179-.055.025-.121.006-.15-.042-.028-.048-.006-.108.048-.133ZM25.382 14.126s-.732.515-.935.812a.312.312 0 0 0 .513.353c.203-.297.422-1.165.422-1.165Zm2.05 1.407s-.731.516-.935.813a.312.312 0 0 0 .513.352c.203-.297.422-1.165.422-1.165Zm2.33 1.233s-.731.516-.935.813a.312.312 0 0 0 .514.352c.203-.297.421-1.165.421-1.165Zm-5.032-4.004s-.732.516-.936.813a.312.312 0 0 0 .514.352c.203-.297.422-1.165.422-1.165Zm2.05 1.408s-.732.515-.935.812a.311.311 0 0 0 .513.353c.203-.297.422-1.165.422-1.165Zm2.33 1.233s-.732.516-.935.812a.311.311 0 0 0 .513.353c.204-.297.422-1.165.422-1.165Zm-6.338 2.525s-.731.516-.935.812a.311.311 0 0 0 .513.353c.204-.297.422-1.165.422-1.165Zm-.652-1.364s-.732.516-.935.813a.311.311 0 0 0 .513.352c.203-.297.422-1.165.422-1.165Zm2.05 1.408s-.732.516-.935.812a.31.31 0 1 0 .513.352c.204-.296.422-1.164.422-1.164Zm-.093-1.945s-.732.515-.935.812a.312.312 0 0 0 .513.353c.204-.297.422-1.165.422-1.165Zm2.05 1.407s-.731.516-.935.812a.311.311 0 1 0 .514.353c.203-.297.421-1.165.421-1.165Zm2.33 1.233s-.731.516-.935.813a.311.311 0 1 0 .514.352c.203-.297.421-1.165.421-1.165Zm-5.032-4.004s-.732.516-.936.813a.312.312 0 0 0 .514.352c.203-.297.422-1.165.422-1.165Zm2.05 1.407s-.732.516-.935.813a.311.311 0 0 0 .513.352c.204-.296.422-1.164.422-1.165Zm2.33 1.234s-.732.516-.935.812a.311.311 0 0 0 .513.352c.204-.296.422-1.164.422-1.164Z" fill="#ECECEB"/><path fill-rule="evenodd" clip-rule="evenodd" d="M29.112 12.443c-.29-1.634-2.853-1.613-3.04-.119-.767-1.346-2.366-.323-2.289.224-2.12-.76-3.34 2.349-.09 2.527-.37.815.887 1.777 2.714 1.018.29.849 1.918.824 2.96.363.624-.277.963-.84.662-1.435 2.654-.466.92-2.934-.917-2.578Z" fill="#6A6A6A"/><path fill-rule="evenodd" clip-rule="evenodd" d="M21.82 13.197c-.13.717.71 1.267 2.416 1.075.082-.01.2-.083.046.085-.57.62.882 1.415 2.311.655-.114.653.442.816 1.102.793 1.23-.044 2.54-.669 1.807-1.196-.09-.065-.13-.127.013-.155.832-.16 2.138-.309 1.712-1.08-.339-.616-1.22-1.105-2.115-.93-.29-1.635-2.852-1.614-3.04-.12-.767-1.346-2.365-.323-2.288.224-.925-.332-1.678.072-1.964.649Z" fill="#939293" stroke="#939293" stroke-width=".01" stroke-miterlimit="22.926"/><path d="M24.2 25.576s-.089-.132.014-.345M24.108 25.576s-.089-.132.014-.345" stroke="#D19F8F" stroke-width=".022" stroke-miterlimit="10" stroke-linecap="round" stroke-linejoin="round"/><path d="m19.147 18.205.558.859-.412-.061.654.644-1.333-.843.582.03-.582-.598.533-.03ZM29.956 18.156l-.694.752.417.009-.754.525 1.456-.607-.578-.068.674-.491-.52-.12Z" fill="#21718B"/><path opacity=".4" d="M24.837 25.72s-.054.005-.054.013c0 .002.025.025.025.028 0 .005.044.029.044.034v.115c0 .043-.015.095-.014.118.001.022.02.107.014.135-.005.029-.003.23-.018.256-.015.027-.022.145.01.116.032-.03.01-.152.021-.175.012-.024.009-.177.009-.209 0-.031-.015-.107-.015-.13 0-.023.013-.098.013-.12v-.084c0-.002.03-.02.033-.032.007-.018.06-.113.06-.116 0-.01-.095.041-.095.041l-.033.01ZM22.879 25.543c0 .002.024.073.038.082.01.006.02.013.029.034l.01.028c.004.02 0 .077.01.101.01.024.014.04.01.049-.005.009-.054.06-.065.086-.01.025-.057.108-.051.137.006.028.037.164.047.187.01.022.04.064.044.083.003.019.014.06.019.063.005.004.008.006.013.005.004-.001.006-.005.005-.007-.002-.002-.012-.004-.016-.014-.004-.009-.004-.046-.007-.055-.005-.015-.049-.072-.05-.082-.003-.01-.042-.181-.043-.19 0-.007.044-.112.051-.123.008-.01.069-.076.073-.09.004-.013-.012-.053-.014-.06-.002-.005-.008-.073-.018-.124a.06.06 0 0 1 .016-.038.158.158 0 0 0 .022-.033c-.002-.009-.044-.008-.065-.016-.017-.005-.06-.028-.058-.023Z" fill="#fff"/></g><defs><clipPath id="a"><rect width="48" height="48" rx="24" fill="#fff"/></clipPath></defs></svg>