<svg width="48" height="48" fill="none" xmlns="http://www.w3.org/2000/svg"><g clip-path="url(#a)"><rect width="48" height="48" rx="24" fill="#fff"/><g clip-path="url(#b)"><path d="M7.815 7.127c-.31-.093-.538.318-.364.561.192.265.564.2.787.017a.816.816 0 0 0 .28-.64.746.746 0 0 0-.377-.629.811.811 0 0 0-.801-.007c-.085.05-.122.171-.067.256a.19.19 0 0 0 .255.067l.054-.028c.023-.013-.043.013-.002.001l.026-.008a.674.674 0 0 1 .051-.013c.004 0 .021-.005.026-.004-.027.004-.03.004-.01.002l.014-.001a.679.679 0 0 1 .06-.001l.026.001c.017.001.038-.006-.003-.001.035-.004.085.017.117.028.004.002.022.006.026.01-.017-.017-.025-.012-.008-.003.018.009.036.017.054.028.01.006.044.02.05.032l-.006-.005.03.027.036.039c.023.024-.001-.004-.005-.007.008.006.014.019.02.027l.03.053c.005.011.018.022-.003-.008.006.008.01.027.013.038l.014.051s.006.024.005.026c.008-.015-.003-.035-.001-.003.002.033.013.095-.003.127.002-.003.009-.046.001-.01l-.005.026a.75.75 0 0 1-.014.052l-.01.032-.004.008-.007.015a.375.375 0 0 1-.016.029l-.032.05c-.008.013-.007.024.005-.005-.002.006-.012.015-.017.02a.54.54 0 0 1-.042.043c-.007.006-.016.018-.025.022.018-.007.022-.015 0-.002l-.051.031c-.008.005-.032.013.005 0L7.9 7.48c-.02.007-.042.011-.063.016-.026.005.033 0 .006-.002h-.042c-.026.002.03.01.008.002-.01-.004-.03-.01-.04-.01-.024 0 .028.013.007.003a.142.142 0 0 1-.018-.01c.017.014.021.017.01.009-.008-.01-.026-.013-.008-.006.009.013.009.012 0 0-.006-.014-.006-.014 0 .002.015.022.004.006.002-.004-.004-.016 0 .046.002.004.002-.024-.012.038-.002.016a.145.145 0 0 0 .009-.033c.004-.023-.015.035-.005.014.017-.035-.014.01-.004.002a.162.162 0 0 0 .015-.015.157.157 0 0 0-.017.013c.014-.007.012-.006-.004 0-.037.018.024-.001-.018.006-.018.001-.02.002-.004.002-.032-.005-.038-.005-.018 0 .094.028.207-.033.23-.13a.191.191 0 0 0-.131-.232ZM40.525 34.741c-.014-.002-.027-.006-.04-.01-.033-.008.036.021.006.003-.007-.004-.018-.015-.026-.016.024.02.029.023.014.01a.371.371 0 0 1-.014-.013c-.013-.014-.018-.035.002.007-.005-.01-.014-.02-.02-.03-.006-.01-.01-.025-.017-.033.021.024.012.03.003.005-.008-.024-.01-.05-.017-.074.014.041.003.026.002.005v-.039c0-.012.004-.028.002-.04.006.034-.005.032 0 .006a.35.35 0 0 1 .01-.038l.005-.016-.006.014c.015-.02.025-.048.04-.07.02-.032-.024.023.005-.007l.029-.03c.013-.014.027-.026.041-.039.028-.026-.028.018.007-.006a1.033 1.033 0 0 1 .214-.118c-.043.02.003 0 .01-.003.063-.025.128-.046.193-.067.093-.03.162-.13.13-.23-.03-.093-.13-.163-.23-.13-.315.103-.674.244-.792.586-.096.279.032.674.351.732.096.018.206-.026.23-.13.02-.09-.029-.21-.132-.229ZM41.26 20.188c.01.06.003.008.002-.006a.718.718 0 0 1-.001-.07c.015-.044.02-.091.037-.136.013-.035-.02.04 0 0a.498.498 0 0 1 .055-.096c.007-.01.018-.02.023-.031-.017.036-.015.018-.002.003a.785.785 0 0 1 .053-.057c.017-.017.043-.032.058-.051a.316.316 0 0 1-.003.003.662.662 0 0 1 .095-.056c.009-.005.022-.008.03-.014a.43.43 0 0 0 .006-.001.71.71 0 0 1 .063-.02l.042-.008c.039-.008-.046.004-.006 0a.741.741 0 0 1 .076-.002l.032.002c.034.003-.047-.008.006.001.096.018.206-.026.23-.13.02-.092-.028-.211-.131-.23a.87.87 0 0 0-.763.241.956.956 0 0 0-.225.346.8.8 0 0 0-.037.41c.007.043.05.09.086.111a.188.188 0 0 0 .256-.067.213.213 0 0 0 .019-.142ZM17.318 26.968a.61.61 0 0 1 .047.026c.013.008.036.018.044.03l-.023-.018.014.01.017.016a.505.505 0 0 1 .038.037c.01.012.02.026.032.038-.042-.047-.003-.003.007.013.02.03.036.062.05.095l-.018-.044a.653.653 0 0 1 .045.163l-.007-.05a.613.613 0 0 1 .002.143.189.189 0 0 0 .187.187.19.19 0 0 0 .131-.055.214.214 0 0 0 .055-.132.806.806 0 0 0-.433-.781c-.087-.043-.206-.027-.255.067-.045.084-.027.21.067.255ZM19.68 36.122a.897.897 0 0 0 .006-.01c.011-.012.02-.025.032-.037a.895.895 0 0 1 .085-.08c.006-.005.031-.026.006-.006-.023.018-.002.002.003-.002l.022-.015a.882.882 0 0 1 .084-.05l.038-.018a.138.138 0 0 0 .007-.004c-.027.012-.003.002.003 0a.862.862 0 0 1 .14-.04l.025-.005a.086.086 0 0 0 .002 0l.007-.001.021-.002a.69.69 0 0 1 .054-.002c.098 0 .191-.086.187-.187a.19.19 0 0 0-.187-.186c-.344 0-.662.176-.857.456-.057.08-.018.211.067.255.096.051.195.02.255-.066ZM25.724 4.675l.091.438a.19.19 0 0 0 .086.111c.04.024.099.034.144.02a.188.188 0 0 0 .111-.087.204.204 0 0 0 .02-.144l-.092-.437a.19.19 0 0 0-.086-.112.188.188 0 0 0-.256.067.207.207 0 0 0-.018.144ZM33.24 2.299a2.77 2.77 0 0 1 .294-.27c.016-.013.009-.008-.003.002l.03-.022.054-.04c.145-.101.3-.188.463-.26.09-.039.118-.177.067-.255-.06-.093-.16-.109-.255-.067-.344.15-.657.374-.913.647-.067.071-.076.195 0 .264.072.067.192.077.264 0ZM27.235 17.653c.013-.042.028-.084.044-.124l.005-.013-.005.012c-.001-.005.009-.02.01-.025l.027-.057c.04-.08.085-.156.136-.228.012-.017.023-.035.036-.05-.008.01-.017.021-.003.005l.022-.028a2.063 2.063 0 0 1 .18-.185l.053-.045c.005-.004.015-.017.021-.018a.235.235 0 0 0-.01.008l.017-.012c.078-.058.126-.165.067-.256-.05-.077-.171-.129-.255-.067a1.936 1.936 0 0 0-.705.985c-.029.093.034.208.13.23.102.022.2-.032.23-.132ZM3.28 23.267l.02.043-.019-.045a.997.997 0 0 1 .06.192c.01.08.011.162.002.242-.006.044.024.102.054.132a.189.189 0 0 0 .133.055.19.19 0 0 0 .132-.055l.029-.038a.185.185 0 0 0 .025-.094 1.13 1.13 0 0 0-.113-.62.188.188 0 0 0-.256-.067.188.188 0 0 0-.086.111.205.205 0 0 0 .02.144ZM8.289 14.232l.012-.03c.006-.016.008-.018 0-.002l.03-.067c.02-.042.04-.084.062-.126a2.85 2.85 0 0 1 .214-.351l.043-.06.02-.026c.017-.023-.018.021 0-.002.061-.074.123-.147.189-.217.068-.07.076-.195 0-.264-.073-.067-.192-.075-.264 0-.288.304-.51.657-.666 1.046-.036.09.04.208.13.23.108.024.19-.033.23-.131ZM22.94 26.948l.17.44a.204.204 0 0 0 .086.112.188.188 0 0 0 .274-.211l-.17-.441a.205.205 0 0 0-.086-.111.19.19 0 0 0-.144-.02.189.189 0 0 0-.112.087c-.021.042-.036.097-.018.144ZM36.615 16.176l.348-.268a.14.14 0 0 0 .052-.048.142.142 0 0 0 .033-.063.187.187 0 0 0-.13-.23c-.045-.01-.105-.011-.144.018l-.347.268a.14.14 0 0 0-.052.048.143.143 0 0 0-.034.064.188.188 0 0 0 .13.23c.046.01.106.01.145-.019ZM41.049 8.616l.693-.797c.064-.074.077-.193 0-.264-.07-.064-.196-.079-.264 0l-.693.797c-.064.074-.078.193 0 .264.07.064.195.079.264 0Z" fill="#CFBFB3"/><path d="M-1.531 38.957c-1.03-.009-2.084-.015-3.06.278-1.336.401-2.393 1.32-3.315 2.276a23.956 23.956 0 0 0-3.565 4.74c-.376.657-.702 1.503-.197 2.087.448.518 43.985.332 65.085.392.814.003 1.655 0 2.402-.292.745-.292 1.374-.959 1.3-1.686-.047-.468-.365-.873-.688-1.242-1.756-2.008-3.752-4.96-5.946-6.583-.766-.568-1.565-1.15-2.525-1.379-.669-.159-1.372-.135-2.063-.11-3.178.117-43.118 1.558-47.428 1.52Z" fill="#6C5B50"/><path d="M24.46 25.49c1.286.038 2.556.295 3.817.552.727.147 1.491.314 2.04.812a.52.52 0 0 1 .18.263.587.587 0 0 1-.031.274 85.344 85.344 0 0 1-5.028 13.576c-.591-.48-1.362-.666-2.107-.83-2.03-.445-4.073-.829-6.126-1.149-.124-.02-.26-.044-.345-.137-.137-.149-.077-.385-.01-.575l.584-1.658c.379-1.076.759-2.154 1.25-3.183 1.25-2.62 3.178-4.845 5.083-7.035l.692-.91Z" fill="#785D53"/><path d="M31.227 30.092a24.54 24.54 0 0 1 4.212-2.172c.217.868.423 1.74.617 2.614.203.912.393 1.84.333 2.773-.047.723-.244 1.428-.327 2.147-.138 1.21.049 2.444-.142 3.646-.19 1.203-.913 2.46-2.103 2.714-1.091.233-2.215-.486-2.774-1.451-.56-.966-.668-2.123-.695-3.239-.057-2.419.214-4.845.802-7.193l.077.161Z" fill="#5D463B"/><path d="M28.729 28.54a60.614 60.614 0 0 1-4.052 12.516 9.098 9.098 0 0 0 4.395.472l.209-3.194c.256.667.52 1.341.939 1.92.42.578 1.02 1.059 1.723 1.184.267.048.547.042.8-.05.35-.13.622-.413.835-.719.941-1.35.913-3.126.85-4.77l-.22-5.648c-.013-.347-.029-.704-.175-1.018-.173-.374-.51-.644-.84-.889a21.083 21.083 0 0 0-2.467-1.574c-.21-.114-.434-.228-.674-.226-.586.006-.923.652-1.128 1.202l-.195.793Z" fill="#5D463B"/><path d="M20.523 37.299a11.196 11.196 0 0 0-.061 3.468 14.417 14.417 0 0 0 3.881-.467c.088-.023.18-.046.266-.017.088.03.147.111.203.186a4.386 4.386 0 0 0 2.079 1.503c.77.262 1.637.32 2.285.813.315.24 2.224 1.406 2.53 1.154.24-.198-1.798-1.436-1.767-1.46.445.483 2.237 1.376 2.89 1.297-.157-.347-1.734-1.372-2.056-1.575l2.065 1.373c.117.062.27.035.343-.076.079-.118.005-.23-.068-.32-.221-.276-1.312-1.272-1.598-1.48.309.276 1.468 1.281 1.81 1.514.1.069.276.112.31-.004.014-.044-.005-.09-.024-.133-.522-1.152-2.238-2.884-3.326-3.528-.996-.588-2.141-.89-3.134-1.483-.249-.15-.491-.319-.767-.41-.287-.094-.596-.099-.898-.103l-3.217-.041-1.746-.211Z" fill="#F9DACE"/><path d="M24.262 26.92a114.812 114.812 0 0 1-4.281 8.982l3.404.57a41.555 41.555 0 0 1-.54 4.34c-3.863.192-7.783.352-11.549-.522-.707-.164-1.455-.396-1.904-.967-.213-.27-.341-.6-.416-.936-.277-1.25.167-2.548.752-3.686 1.565-3.042 4.121-5.434 6.629-7.762.93-.863 1.935-1.766 3.186-1.982.498-.086 1.01-.056 1.514-.017 1.328.103 2.65.27 3.963.5l-.758 1.48Z" fill="#5D463B"/><path d="m27.48 19.56-.553.343-1.452 2.137c.066-.356-.397-.624-.741-.513-.345.11-.563.442-.735.76-.213.393-.403.828-.35 1.272.052.444.436.876.88.826-.323.822-.65 1.671-.644 2.554.007.884.613 2.009 1.42 2.367.759.336 1.645.093 2.401-.248.673-.303 1.127-.865 1.716-1.309-.008.389.388.695.777.71.388.015.752-.187 1.061-.422.305-.233.598-.546.61-.929.012-.383-.425-.762-.753-.564a31.865 31.865 0 0 0 2.462-3.48c-1.32-1.953-3.55-3.265-5.899-3.47l-.2-.035Z" fill="#F9DACE"/><path d="M21.627 36.316c-.305 1.38-.414 2.8-.322 4.212.01.138.225.139.216 0a14.745 14.745 0 0 1 .314-4.155c.03-.135-.178-.192-.208-.057ZM21.833 39.776a.44.44 0 0 0 .163.42.36.36 0 0 0 .425.023.39.39 0 0 0 .17-.395c-.029-.143-.158-.226-.295-.24a.323.323 0 0 0-.344.21c-.018.053.021.12.075.133a.11.11 0 0 0 .133-.075c.004-.013.011-.014-.003.004.003-.003.004-.008.006-.012l.008-.011c.01-.017-.02.018-.004.005l.019-.019c.011-.011-.008.006-.01.007.007-.002.013-.008.019-.011.02-.01.03-.01.003-.003l.027-.009.027-.006c-.03.009-.017.003-.006.002l.017-.001h.027c.022.002-.027-.005-.006 0l.014.002.027.008c.009.003.018.01-.008-.004l.017.008c.01.005.017.012.026.016-.002 0-.02-.017-.01-.006a.243.243 0 0 0 .013.01c.022.024-.007-.013.004.005l.007.012c.009.018.008.015.001 0-.001.003.008.027.01.031.006.023-.001-.026 0-.003v.013c.001.01-.003.023 0 .033-.004-.022.002-.017-.001-.003a.282.282 0 0 1-.005.02c-.001.002-.008.015-.007.018-.003-.01.01-.021.002-.005-.006.011-.011.022-.018.032l-.008.011c-.013.02.017-.017 0 0-.009.01-.017.02-.027.029l-.01.009c-.001-.005.02-.014 0-.001a.218.218 0 0 1-.04.021.151.151 0 0 1-.02.005c-.017.004-.013.004.003.001-.009-.002-.024.002-.034.002-.02-.002-.017-.001 0 0l-.017-.003c-.012-.003-.023-.008-.034-.01-.015-.003.023.012.003.001l-.022-.011-.015-.01-.012-.008.008.006-.03-.03a.336.336 0 0 1-.013-.014c-.014-.016.013.018-.002-.004a.378.378 0 0 1-.023-.038c-.001-.003-.008-.013-.008-.016a.373.373 0 0 1-.012-.046c-.004-.023.002.003 0 .003l-.001-.025v-.018c0-.008.005-.04 0-.008.008-.055-.015-.118-.076-.132-.052-.01-.124.017-.133.077ZM32.043 29.53l-.82 3.478c-.134.572-.262 1.145-.404 1.715a3.98 3.98 0 0 1-.26.774c-.1.21-.23.403-.358.597-.273.412-.563.86-.519 1.377.012.137.228.139.216 0-.04-.459.216-.854.459-1.222.127-.193.257-.384.363-.59.117-.229.2-.473.266-.72.152-.562.272-1.133.405-1.699a2099.328 2099.328 0 0 1 .861-3.652c.03-.135-.177-.193-.209-.057Z" fill="#4E372E"/><path d="M29.79 36.364c.196-.161.42-.31.65-.432.05-.027.07-.1.04-.148a.11.11 0 0 0-.148-.038 4.142 4.142 0 0 0-.694.465c-.044.037-.04.116 0 .153.046.043.106.038.152 0ZM31.705 31.962c1.12.45 2.379.53 3.551.246.33-.08.651-.192.962-.328.127-.056.018-.242-.108-.187a5.656 5.656 0 0 1-4.348.06c-.129-.05-.184.158-.057.209ZM34.986 30.892a.437.437 0 0 0 .22.414.368.368 0 0 0 .464-.08.38.38 0 0 0 .034-.469.432.432 0 0 0-.446-.18.467.467 0 0 0-.346.38c-.008.055.013.118.075.132.05.012.124-.015.132-.075a.4.4 0 0 1 .02-.078c.01-.027-.007.01.002-.004l.008-.016a.445.445 0 0 1 .027-.042c-.013.018.006-.007.012-.013l.032-.03c.005-.004.017-.011 0 0a.228.228 0 0 0 .015-.01c.014-.01.028-.017.043-.024.014-.008-.024.007.003-.001l.017-.005a.437.437 0 0 1 .035-.008c-.024.004-.004 0 .003 0H35.376c-.024 0 0 0 .007.002a.316.316 0 0 1 .04.011c.005.002.022.01.003 0 .005.004.01.006.016.009l.031.019c.024.014-.009-.01.004.002l.02.018.027.03c-.015-.018.007.013.01.018a.765.765 0 0 1 .01.02c-.001-.004-.007-.02 0 0a.36.36 0 0 1 .012.042c-.005-.023 0-.004 0 .003v.018l-.001.022c0-.004.004-.021 0-.002a1.42 1.42 0 0 1-.012.039c-.005.015.012-.02-.002.003l-.013.023-.01.016c.01-.017.003-.005 0 0l-.032.031c-.004.004-.016.011 0 0l-.014.01a.238.238 0 0 1-.015.01c-.008.004-.024.01-.006.004a.346.346 0 0 1-.043.012c-.006.002-.018 0 .003 0l-.018.001h-.013c.017.001-.01-.002-.012-.002a.283.283 0 0 1-.017-.005c-.003-.001-.03-.012-.008-.002a.261.261 0 0 1-.04-.02l-.015-.01c-.02-.014.009.01-.006-.006l-.035-.035c-.012-.012.013.02-.002-.004l-.015-.022-.009-.016c-.002-.003-.012-.03-.004-.007-.005-.014-.01-.028-.013-.043l-.004-.017c.005.025 0 0 0-.007-.001-.018 0-.036.002-.054.007-.056-.054-.11-.108-.107-.064.001-.1.045-.108.105ZM20.23 35.852c-1.13-.23-2.261-.46-3.392-.692-1.04-.212-2.096-.423-3.162-.4a5.533 5.533 0 0 0-1.743.302c-.13.046-.074.254.057.207.993-.354 2.059-.342 3.091-.205 1.076.143 2.14.394 3.203.61l1.888.385c.136.028.194-.18.058-.207Z" fill="#4E372E"/><path d="m12.302 34.597.894.187c.056.012.116-.017.132-.076.015-.053-.018-.12-.075-.132l-.893-.187c-.057-.012-.117.017-.133.075-.014.054.018.12.075.133ZM19.334 25.318c.233.593.164 1.233.058 1.846-.055.316-.12.629-.165.946a8.98 8.98 0 0 0-.076.987c-.02.67-.031 1.332-.213 1.982-.171.612-.443 1.188-.726 1.755-.344.69-.695 1.378-1.042 2.066-.062.124.123.233.186.11l.954-1.891c.289-.573.574-1.152.77-1.764.208-.647.262-1.305.28-1.98.008-.342.015-.684.052-1.024.035-.325.1-.646.158-.967.128-.7.24-1.441-.028-2.125-.05-.126-.258-.07-.208.059ZM23.63 25.645a41.068 41.068 0 0 0-2.16 2.483c-.112.14-.223.278-.332.42-.094.122-.182.257-.209.412-.047.27.077.508.252.704.093.105.197.197.303.288.103.088.232.174.308.288.181.272-.241.584-.402.754a10.1 10.1 0 0 0-1.817 2.664c-.058.125.127.234.186.109a9.97 9.97 0 0 1 1.01-1.7 9.588 9.588 0 0 1 .968-1.12c.109-.111.216-.233.275-.379a.473.473 0 0 0-.02-.413c-.07-.124-.19-.213-.296-.304-.193-.164-.425-.342-.525-.583-.13-.313.12-.571.301-.8a41.282 41.282 0 0 1 2.31-2.67c.096-.102-.056-.254-.151-.153Z" fill="#4E372E"/><path d="M30.892 19.04c-.273.333-.152.78-.076 1.162l.297 1.508.298 1.507c.092.471.176.94.373 1.381.21.467.504.895.655 1.387.04.132.248.076.208-.057-.13-.42-.355-.796-.554-1.185-.1-.194-.19-.392-.254-.6a6.4 6.4 0 0 1-.159-.67l-.574-2.908c-.05-.254-.107-.509-.149-.765-.032-.199-.05-.44.087-.607.088-.106-.064-.26-.152-.152Z" fill="#6D341B"/><path d="M24.532 22.288c.034.432.014.865-.065 1.291-.025.136.183.194.207.058.083-.445.108-.898.073-1.349-.01-.137-.226-.139-.215 0Z" fill="#E1C0B5"/><path d="m24.264 22.895-.018-.014a.66.66 0 0 1 .116.115l-.017-.022a.684.684 0 0 1 .085.145l-.01-.025c.008.022.017.046.024.07.015.054.076.093.132.075.055-.018.092-.075.075-.133a.73.73 0 0 0-.279-.397c-.02-.016-.059-.017-.083-.01a.106.106 0 0 0-.075.132c.01.028.026.046.05.064ZM30.449 27.634l.806-.26a.11.11 0 0 0 .076-.132c-.015-.054-.077-.093-.133-.075l-.806.26a.11.11 0 0 0-.076.132c.015.054.077.092.133.075Z" fill="#E1C0B5"/><path d="m30.672 27.556.188.329c.028.049.099.07.148.038a.11.11 0 0 0 .038-.147l-.188-.329c-.028-.049-.099-.07-.148-.039a.11.11 0 0 0-.038.148ZM29.11 41.88c.84.425 1.622.96 2.32 1.596.102.093.255-.059.152-.152a10.603 10.603 0 0 0-2.364-1.63c-.124-.062-.233.124-.109.186ZM30.464 41.802c.4.227.752.522 1.097.823l1.11.977c.104.091.257-.06.153-.152-.379-.333-.756-.667-1.135-.998-.35-.307-.71-.605-1.116-.836-.121-.068-.23.118-.11.186ZM31.192 41.364l1.975 1.738c.104.091.257-.06.153-.152l-1.975-1.739c-.104-.091-.257.061-.153.153Z" fill="#E1C0B5"/><path d="M29.02 41.89a7.718 7.718 0 0 0 2.742-.776c.123-.062.015-.247-.11-.186a7.43 7.43 0 0 1-2.633.746c-.137.012-.138.228 0 .215ZM24.648 39.117c.025.282.034.565.027.847-.004.14.212.14.215 0a7.401 7.401 0 0 0-.027-.847c-.005-.058-.045-.108-.107-.108-.055 0-.114.05-.108.108Z" fill="#E1C0B5"/><path d="M28.321 24.497c-.487.75-.968 1.502-1.446 2.257l.197.026a3.264 3.264 0 0 1-.223-.95c-.01-.138-.227-.139-.216 0 .028.346.103.684.231 1.007.034.085.144.11.197.026.477-.756.96-1.508 1.445-2.258.077-.116-.11-.224-.185-.108ZM25.668 23.77c.066.574.692 1.002 1.252.823.131-.042.075-.25-.058-.208-.413.133-.928-.173-.979-.615-.007-.058-.045-.107-.107-.107-.054 0-.115.049-.108.107ZM28.787 25.617c.066.574.692 1.002 1.252.823.131-.042.075-.25-.058-.208-.413.133-.928-.173-.979-.615-.006-.058-.045-.107-.107-.107-.054 0-.115.05-.108.107ZM25.997 26.56c.225.226.379.51.45.82.012.058.077.091.132.076a.11.11 0 0 0 .075-.133 1.9 1.9 0 0 0-.505-.916c-.097-.099-.25.054-.152.152ZM28.044 22.84c.045.163-.088.334-.25.38-.162.047-.336-.002-.488-.076-.151-.073-.29-.172-.449-.23-.22-.084-.466-.088-.678-.19.214-.297.586-.474.952-.453.366.022.715.24.893.561l.02.008ZM29.844 24.082c-.167.02-.275.21-.256.377.019.167.132.31.258.421.126.112.27.204.385.326.16.172.259.398.434.555.193-.312.213-.723.054-1.053a1.117 1.117 0 0 0-.86-.611l-.015-.015Z" fill="#332418"/><path d="M25.663 21.71a5.041 5.041 0 0 0-.76 1.602c.452.06.74-.454.924-.872.423-.954 1-1.84 1.703-2.611a2.52 2.52 0 0 0-.01 1.502c.031.101.075.209.167.261.135.078.303.005.434-.078a2.842 2.842 0 0 0 1.033-1.166c-.15.48-.132 1.009.048 1.477.054.141.13.285.263.356.18.098.415.027.566-.112.15-.14.237-.333.32-.521-.038.323-.176.625-.237.945-.06.32-.025.691.22.904.246.213.729.113.767-.21a.611.611 0 0 0-.115.748c.14.235.458.346.714.25 0 .997-.476 1.982-1.255 2.603.116.12.316.092.47.024.152-.067.302-.166.469-.16.167.006.333.195.24.334.852-.742 1.277-1.848 1.67-2.907.18-.486.363-.98.393-1.497.03-.517-.115-1.07-.499-1.417-.244-.221-.567-.346-.788-.59-.282-.312-.35-.764-.589-1.109-.49-.708-1.492-.755-2.325-.975-.835-.22-1.726-.675-2.51-.31-.498.231-.8.74-1.07 1.219l-1.27 2.251a.776.776 0 0 1 .833.33l.194-.27Z" fill="#332418"/><path d="m32.307 29.467.141-2.883c.01-.187.019-.377-.022-.56-.045-.21-.152-.4-.248-.591-.487-.986-.672-2.09-.85-3.176l-.493-2.998c-.018-.108.048-.216.155-.239.118-.024.181.078.228.168.389.75.78 1.576 1.08 2.367-.185-.737-.034-3.605.157-4.23.042-.137.211-.19.318-.094.12.109.303.055.335-.096.037-.178.102-.35.193-.507a.197.197 0 0 1 .342-.002c.224.397.369.839.42 1.292a1.819 1.819 0 0 1 .011-.311c.022-.178.258-.235.357-.086.175.262.26.595.316.912.257 1.46.171 2.989.668 4.385.33-.178.3-.65.258-1.02-.042-.373.049-.87.42-.915.186.532.372 1.07.425 1.631.054.561-.04 1.156-.37 1.612-.258.358-.658.63-.79 1.053-.067.22-.053.455-.038.685.058.892.564 3.676.476 3.731-.856.53-2.47.16-3.457-.042l-.032-.086Z" fill="#F9DACE"/><path d="M32.867 17.35c.171 1.409.34 2.817.508 4.226.016.136.232.138.215 0-.167-1.409-.336-2.818-.507-4.226-.017-.136-.233-.138-.216 0ZM33.825 17.395l.462 4.185c.015.137.23.138.216 0l-.462-4.185c-.016-.136-.231-.138-.216 0Z" fill="#E1C0B5"/><path d="m32.682 21.8 2.118-.145c.138-.01.14-.225 0-.216l-2.118.146c-.138.01-.139.226 0 .216ZM33.765 25.848l1.035.009c.139.001.139-.214 0-.216l-1.035-.009c-.139 0-.139.214 0 .215Z" fill="#E1C0B5"/><path d="M29.372 28.476a.557.557 0 0 0 .097-.02l.053.104-.065.05c-.064.018-.065-.04-.051.025l.017.087.031.157.07.35.13.664.135.681c.02.1.047.201.057.302.011.111-.026.178-.107.25-.153.14-.32.265-.494.38-.15.098-.342.174-.462.31-.13.15-.141.374-.176.56l-.125.667-.287 1.528c-.025.135.183.193.208.057.1-.539.202-1.077.303-1.615l.145-.773c.018-.1.03-.212.103-.29.076-.082.195-.13.289-.188.212-.13.414-.28.603-.443a.608.608 0 0 0 .19-.236.608.608 0 0 0 .008-.327c-.097-.535-.211-1.068-.317-1.602l-.083-.419c-.02-.103-.023-.266-.131-.322-.098-.05-.208.017-.2.127.01.11.126.166.211.088.104-.093-.049-.245-.152-.152ZM31.146 29.2a32.083 32.083 0 0 1-1.976 8.375c-.05.13.158.186.207.057a32.234 32.234 0 0 0 1.984-8.431c.014-.138-.202-.137-.215 0Z" fill="#4E372E"/><path d="M23.774 29.01c.35.478.712.97 1.226 1.283.24.147.509.249.79.282.307.036.6-.042.894-.123l1.093-.304c.133-.036.076-.244-.058-.207l-.89.248c-.28.077-.567.18-.86.182-.555.002-1.044-.333-1.412-.722-.22-.232-.408-.49-.596-.746-.082-.112-.269-.005-.187.107ZM26.262 33.423a77.058 77.058 0 0 1-4.29 1.467c-.131.041-.075.25.058.208a76.44 76.44 0 0 0 4.29-1.468c.128-.048.073-.256-.058-.207ZM25.218 34.964a6.546 6.546 0 0 1-2.41.816c-.136.017-.138.233 0 .215a6.807 6.807 0 0 0 2.52-.845c.12-.07.011-.255-.11-.186Z" fill="#6B4E45"/><path d="M27.803 18.435a1.306 1.306 0 0 0-.626-1.427c.425.25.787.608 1.043 1.03.107-.5.603-.89 1.115-.874a1.232 1.232 0 0 0-.553 1.363l-.979-.092Z" fill="#332418"/><path d="M-9.572 47.08h55.414c.138 0 .138-.216 0-.216H-9.572c-.138 0-.139.215 0 .215ZM34.934 45.073h4.89c.138 0 .138-.216 0-.216H34.933c-.138 0-.139.216 0 .216ZM36.188 43.82h1.63c.138 0 .138-.216 0-.216h-1.63c-.139 0-.139.216 0 .216ZM4.845 43.443h7.899c.138 0 .138-.215 0-.215H4.845c-.138 0-.139.215 0 .215ZM7.478 42.064h3.009c.139 0 .139-.216 0-.216H7.478c-.139 0-.139.216 0 .216ZM11.74 46.076h1.756c.138 0 .138-.216 0-.216H11.74c-.139 0-.139.216 0 .216Z" fill="#463933"/><g opacity=".92"><path d="m40.615 18.273-5.47-2.926a.164.164 0 0 1-.068-.223l1.924-3.597a.165.165 0 0 1 .223-.068l5.471 2.926c.08.043.11.143.068.223l-1.924 3.597a.165.165 0 0 1-.224.068Z" fill="#9E8777"/><path d="m41.818 14.461-1.94-1.037.722-1.35a.19.19 0 0 1 .258-.079l1.604.859a.19.19 0 0 1 .079.258l-.723 1.35Z" fill="#9E8777"/><path d="m42.163 13.07-1.32-.707-.328.613 1.32.707.328-.613ZM40.364 16.85a1.554 1.554 0 1 0-.495-3.07 1.554 1.554 0 0 0 .495 3.07Z" fill="#AB988B"/><path d="M40.113 17.012c-.276 0-.548-.069-.798-.202-.4-.214-.693-.57-.824-1.004a1.686 1.686 0 0 1 .127-1.293c.214-.4.571-.693 1.005-.824a1.686 1.686 0 0 1 1.293.127c.4.214.692.571.824 1.005.131.434.086.893-.128 1.293-.214.4-.57.692-1.004.824-.163.05-.33.074-.495.074Zm.004-3.11a1.4 1.4 0 0 0-1.246.746 1.402 1.402 0 0 0-.106 1.074c.11.361.352.658.685.835.332.178.714.216 1.075.107a1.412 1.412 0 0 0-.408-2.762Z" fill="#594A42"/><path d="m36.874 16.271-1.735-.927a.159.159 0 0 1-.065-.215l1.93-3.608a.158.158 0 0 1 .215-.065l1.734.928-2.08 3.887Z" fill="#6C5B50"/><path d="M40.179 16.335a1.001 1.001 0 1 1 .473-1.881 1.001 1.001 0 0 1-.473 1.881Zm.003-1.964a.965.965 0 1 0 .848 1.419.965.965 0 0 0-.848-1.419Z" fill="#fff"/><path d="M37.966 16.035a.29.29 0 1 1-.512-.274.29.29 0 0 1 .512.274Z" fill="#B5B4B4"/><path d="M37.71 16.26a.363.363 0 1 1 .002-.725.363.363 0 0 1-.002.725Zm.001-.58a.219.219 0 1 0-.001.437.219.219 0 0 0 .001-.438Z" fill="#594A42"/><path d="M37.001 15.519a.29.29 0 1 1-.512-.274.29.29 0 0 1 .512.274Z" fill="#B5B4B4"/><path d="M36.745 15.743a.36.36 0 0 1-.318-.532.36.36 0 0 1 .49-.148.362.362 0 0 1-.172.68Zm.001-.58a.217.217 0 0 0-.21.282.219.219 0 1 0 .21-.282Z" fill="#594A42"/><path d="m37.746 12.507-.987-.529-.291.545.987.528.291-.544Z" fill="#AB988B"/><path d="M39.174 14.239a1.675 1.675 0 0 0-.493 1.511c.013.07.118.04.105-.029a1.56 1.56 0 0 1 .465-1.405c.052-.049-.026-.125-.077-.077ZM39.19 16.44c.062.1.159.176.272.213.027.01.06-.01.067-.038a.056.056 0 0 0-.038-.067.314.314 0 0 1-.018-.006l-.009-.004c-.008-.003-.005 0 0 0-.005 0-.011-.005-.016-.007l-.017-.009a.392.392 0 0 1-.031-.019l-.016-.01-.008-.006c-.003-.003-.006-.008 0 0-.007-.008-.019-.016-.028-.024a.496.496 0 0 1-.024-.025l-.013-.014-.006-.008c-.008-.01.005.007 0 .001a.927.927 0 0 1-.022-.032c-.015-.024-.049-.036-.074-.02-.025.017-.036.05-.02.075ZM41.303 14.749c.054.115.087.242.098.368.003.03.023.054.054.054.028 0 .057-.024.055-.054a1.273 1.273 0 0 0-.113-.423c-.012-.027-.05-.033-.074-.02-.028.017-.032.048-.02.075Z" fill="#4E372E"/><path d="M40.77 12.67c.058.162.137.315.239.454.017.023.047.035.074.02.024-.015.037-.052.02-.076a1.69 1.69 0 0 1-.228-.426c-.01-.028-.036-.046-.067-.038-.027.007-.048.039-.038.067ZM41.03 12.76c.03.06.063.119.094.178.013.025.05.035.075.02a.056.056 0 0 0 .02-.075l-.095-.179a.055.055 0 0 0-.075-.02.056.056 0 0 0-.02.075ZM38.774 12.64l-.34.71c-.03.062.064.117.094.054l.34-.709c.03-.063-.064-.119-.094-.055ZM38.114 13.85l-.055.141c-.005.013-.001.031.005.042a.055.055 0 0 0 .074.02l.012-.009a.051.051 0 0 0 .013-.024l.055-.14c.005-.013.001-.032-.005-.042a.055.055 0 0 0-.074-.02l-.011.009a.053.053 0 0 0-.014.024ZM40.09 17.504c.314-.012.614-.131.853-.335.054-.045-.024-.122-.076-.077a1.284 1.284 0 0 1-.777.303c-.07.003-.07.112 0 .109ZM40.553 17.608a.723.723 0 0 0 .223-.087c.025-.015.036-.05.02-.075-.016-.024-.049-.035-.075-.02a.829.829 0 0 1-.05.028l-.024.01-.007.004a.06.06 0 0 0 .003-.001l-.013.005a.691.691 0 0 1-.106.03c-.028.006-.047.041-.039.068.01.03.038.044.068.038ZM35.933 14.385c-.216.353-.069.768.1 1.106.03.063.125.008.093-.055-.15-.303-.293-.68-.099-.996.037-.06-.057-.115-.094-.055ZM35.547 14.806c-.005.117.006.235.031.35.006.028.04.047.067.038a.056.056 0 0 0 .038-.067 1.193 1.193 0 0 1-.027-.321.055.055 0 0 0-.054-.054.056.056 0 0 0-.055.054Z" fill="#594A42"/><path d="m40.126 15.757.012-.006c.164-.075.294-.21.46-.28.055-.022.117-.037.165.005.043.04.065.1.065.157a.36.36 0 0 1-.08.203.724.724 0 0 1-.418.266.434.434 0 0 1-.182.01.232.232 0 0 1-.151-.096.159.159 0 0 1-.003-.173c.03-.043.083-.064.132-.086ZM40.005 15.352a.242.242 0 0 0-.023.03c-.034.053-.039.13.003.178a.146.146 0 0 0 .098.045.316.316 0 0 0 .162-.039.353.353 0 0 0 .12-.087.167.167 0 0 0 .04-.14c-.028-.12-.187-.106-.273-.07a.36.36 0 0 0-.127.083Z" fill="#fff"/><path d="M39.367 12.544c.386-.724.168-1.694-.505-2.172-.788-.558-2.004-.435-2.464-1.429-.21-.455-.139-1 .222-1.36.415-.413 1.018-.337 1.503-.097.844.417 1.477 1.223 1.753 2.116.304.982.216 2.305-.674 2.966-.055.04-.001.136.055.093.793-.588.991-1.687.837-2.61a3.733 3.733 0 0 0-1.476-2.392c-.404-.291-.916-.542-1.428-.474-.468.063-.838.42-.97.865-.14.465.02.97.334 1.326.34.383.837.536 1.31.682.55.17 1.092.376 1.383.907.255.466.277 1.053.026 1.524-.034.063.06.118.093.055Z" fill="#594A42"/></g><g opacity=".92"><path d="m8.344 27.49-.01.008c.187.3.375.63.349.985-.023.31-.21.587-.446.79-.226.194-.517.335-.814.31-.241-.022-.46-.15-.655-.292-.575-.422-.987-.852-1.58-1.247-.278-.185-.631-.482-.837-.743-.411-.521-.285-1.47.298-1.809.279-.162.608-.23.928-.208.16.012.319.045.468.104.042.016.416.241.413.244.739-.467 1.455-.97 2.144-1.506-.334-.446-.387-1.098-.093-1.573.294-.475.932-.717 1.455-.523.475.178.777.643.984 1.106.325.726.497 1.51.665 2.287.055.251.11.506.104.763-.006.257-.077.521-.248.714-.236.267-.636.353-.983.265-.345-.088-.638-.33-.847-.62l-1.295.946Z" fill="#9E8777"/><path d="M5.844 25.776c-.358-.165-.734-.027-1.004.231a.85.85 0 0 0-.188.957c.147.323.52.517.868.48a.914.914 0 0 0 .763-.663.887.887 0 0 0-.44-1.005c-.061-.031-.117.061-.055.093a.78.78 0 0 1 .413.763.812.812 0 0 1-.582.686.774.774 0 0 1-.808-.293.737.737 0 0 1 .018-.847c.212-.286.619-.466.959-.309.063.03.119-.064.056-.093ZM8.897 23.57c-.026-.31.17-.582.437-.723a.742.742 0 0 1 .863.06c.239.203.308.556.198.843-.117.305-.443.494-.764.484a.777.777 0 0 1-.734-.664c-.008-.068-.116-.07-.108-.002a.886.886 0 0 0 .69.756.922.922 0 0 0 .938-.383.88.88 0 0 0-.045-1.006.845.845 0 0 0-.939-.253c-.365.14-.678.473-.644.886.005.069.113.071.108.002Z" fill="#6C5B50"/><path d="M9.674 22.989a.228.228 0 0 1-.373.26.228.228 0 0 1 .373-.26ZM10.104 23.695a.228.228 0 0 1-.373.26.228.228 0 0 1 .373-.26ZM9.471 23.581a.228.228 0 0 1-.373.26.228.228 0 0 1 .373-.26ZM10.264 23.09a.228.228 0 1 1-.316-.056.228.228 0 0 1 .316.056ZM5.434 26.098a.228.228 0 0 1-.373.26.228.228 0 0 1 .373-.26ZM5.864 26.804a.228.228 0 0 1-.373.26.228.228 0 0 1 .373-.26ZM5.23 26.69a.228.228 0 0 1-.372.26.228.228 0 0 1 .373-.26ZM6.024 26.2a.228.228 0 0 1-.373.26.228.228 0 0 1 .373-.26Z" fill="#fff"/><path d="M5.862 25.34a6.909 6.909 0 0 1 2.455 2.23c.038.058.132.005.094-.054a7.021 7.021 0 0 0-2.494-2.269c-.061-.033-.117.06-.055.093ZM8.249 23.289c.297 1.167.62 2.377 1.427 3.306.046.053.122-.023.077-.076-.794-.913-1.108-2.11-1.4-3.257-.016-.067-.121-.04-.104.027ZM6.757 28.512c.173.133.378.224.592.264.029.005.059-.007.067-.037.008-.026-.008-.061-.037-.067a1.338 1.338 0 0 1-.567-.252c-.023-.018-.06-.004-.074.02-.016.026-.004.055.019.072ZM7.79 28.767l.152-.059c.014-.005.025-.011.033-.025a.055.055 0 0 0 .006-.04.053.053 0 0 0-.025-.034c-.012-.006-.028-.01-.041-.005l-.153.058c-.014.006-.025.012-.033.025a.055.055 0 0 0-.006.041.053.053 0 0 0 .025.033c.012.006.028.011.041.006ZM11.044 26.433c.123-.085.162-.23.19-.37.035-.17.056-.344.063-.518.003-.07-.105-.071-.108-.002-.006.156-.023.31-.053.463-.021.114-.043.262-.146.333-.057.04-.004.134.054.094ZM11.228 24.83l-.045-.214a.055.055 0 0 0-.065-.04.055.055 0 0 0-.04.067c.016.071.03.142.045.214a.055.055 0 0 0 .066.04.055.055 0 0 0 .04-.067ZM7.468 25.963l.219-.171c.022-.018.02-.059 0-.077-.023-.022-.052-.019-.076 0l-.22.171c-.021.018-.02.059 0 .077.024.021.053.019.077 0ZM8.203 25.517c.145-.068.28-.155.403-.257.022-.02.02-.057 0-.077-.022-.022-.054-.019-.076 0a1.77 1.77 0 0 1-.381.24c-.026.012-.034.05-.02.073.015.028.047.033.074.02ZM8.117 26.2a.132.132 0 0 0 .009-.006l.012-.01c.01-.006.019-.012.028-.02l.056-.036c.039-.024.079-.046.12-.067.025-.012.034-.05.02-.073a.055.055 0 0 0-.074-.02c-.088.044-.17.096-.248.156-.022.017-.02.058 0 .076.024.022.052.02.077 0ZM7.51 24.852c-.793-.12-1.639-.442-1.985-1.224-.17-.384-.175-.83.049-1.193.115-.187.275-.319.458-.435.148-.094.303-.186.416-.324.29-.356.155-.83.022-1.22-.023-.066-.128-.04-.105.026.08.232.165.475.148.725-.018.253-.148.438-.352.58-.153.108-.32.194-.458.322a1.3 1.3 0 0 0-.319.463c-.302.748.165 1.554.8 1.95.392.243.844.367 1.296.434.068.01.098-.093.03-.104ZM10.986 25.669l-.971.248a.114.114 0 0 1-.14-.083l-.099-.39a.114.114 0 0 1 .083-.139l.971-.248a.114.114 0 0 1 .14.083l.099.39a.115.115 0 0 1-.083.139ZM7.813 27.612l-.538.74a.103.103 0 0 1-.144.023l-.343-.25a.103.103 0 0 1-.023-.144l.538-.74a.103.103 0 0 1 .144-.023l.343.25a.102.102 0 0 1 .023.144Z" fill="#6C5B50"/></g><g opacity=".92"><path d="M14.625 18.913c.416-.55.903-1.036 1.405-1.507.448-.42.903-.835 1.364-1.243a48.765 48.765 0 0 1 2.834-2.34c1.922-1.462 3.985-2.758 6.216-3.696a19.654 19.654 0 0 1 3.89-1.191c.166-.032.128-.293-.04-.26-2.4.462-4.68 1.404-6.789 2.629-2.138 1.242-4.106 2.754-5.965 4.378-.524.458-1.04.926-1.55 1.4-.56.523-1.112 1.058-1.576 1.67-.102.135.108.295.21.16Z" fill="#9E8777"/><path d="M14.08 20.574c-.084.137-.204.297-.363.274a.385.385 0 0 1-.142-.062 3.324 3.324 0 0 1-.46-.34c-.093-.083-.188-.184-.196-.31-.005-.102.048-.196.1-.284.335-.566.673-1.133 1.067-1.662.287-.384.692-1.068 1.246-.74.135.08.253.188.366.296.143.137.306.272.432.424-.131.15-.308.275-.453.414a10.13 10.13 0 0 0-1.213 1.407c-.134.19-.263.384-.384.583Z" fill="#6C5B50"/><path d="M17.151 18.752a1.046 1.046 0 1 0-1.969-.708 1.046 1.046 0 0 0 1.97.708Z" fill="#9E8777"/><path d="M16.037 19.462a1.074 1.074 0 0 1 .259-2.13 1.074 1.074 0 0 1-.26 2.13Zm.252-2.077a1.021 1.021 0 0 0-.246 2.025 1.021 1.021 0 0 0 .246-2.025Z" fill="#5A4B42"/><path d="M16.624 18.453a.46.46 0 1 1-.915-.11.46.46 0 0 1 .915.11Z" fill="#6C5B50"/><path d="M16.118 18.666c.132.392.256.788.397 1.178a.311.311 0 0 0 .122.17c.071.044.154.036.23.006.082-.032.156-.088.228-.14a3.91 3.91 0 0 0 .232-.18c.065-.053-.016-.157-.082-.103-.123.103-.256.219-.402.29-.067.032-.137.042-.179-.031-.037-.067-.056-.148-.08-.22l-.344-1.023c-.028-.08-.149-.028-.122.053Z" fill="#6C5B50"/><path d="M13.385 19.837c.283.174.54.388.76.636.037.04.103-.012.067-.052a3.451 3.451 0 0 0-.776-.65c-.045-.03-.097.038-.05.066ZM13.836 19.292c.26.156.495.353.693.584.035.04.102-.011.066-.052a2.897 2.897 0 0 0-.708-.6c-.046-.027-.098.04-.051.068ZM14.262 18.515c.272.24.513.51.72.807.032.045.098-.007.067-.052a4.625 4.625 0 0 0-.736-.822c-.04-.036-.091.032-.051.067Z" fill="#5A4B42"/><path d="M17.352 15.645a.757.757 0 0 0 .483.675c.049.016.103.019.146-.014.039-.03.055-.078.067-.124.037-.147.057-.298.065-.45.002-.053-.081-.064-.084-.01a2.328 2.328 0 0 1-.041.342c-.01.047-.016.097-.035.142-.021.047-.058.047-.102.03a.66.66 0 0 1-.351-.333.662.662 0 0 1-.065-.271c-.002-.054-.085-.041-.083.013ZM19.285 13.88a.791.791 0 0 0 .233.553.626.626 0 0 0 .261.166.2.2 0 0 0 .154-.012.25.25 0 0 0 .098-.123.778.778 0 0 0 .054-.42c-.008-.055-.091-.042-.084.012a.677.677 0 0 1-.058.396c-.028.056-.07.083-.132.068a.436.436 0 0 1-.149-.075.707.707 0 0 1-.293-.555c0-.023-.012-.043-.037-.047-.02-.003-.047.014-.047.037ZM21.292 12.473c.031.185.098.384.266.49.148.09.347.09.455-.061a.263.263 0 0 0 .038-.25c-.02-.05-.097-.017-.077.034.027.07-.004.147-.056.197a.232.232 0 0 1-.237.045c-.2-.068-.274-.28-.306-.468-.01-.052-.092-.04-.083.013ZM22.98 11.314c.04.104.051.215.081.322.026.095.07.184.144.252a.265.265 0 0 0 .236.07.282.282 0 0 0 .174-.14.253.253 0 0 0 .009-.242c-.026-.048-.104-.015-.077.033.054.099-.013.237-.12.266-.068.018-.136-.017-.182-.065a.472.472 0 0 1-.108-.217c-.026-.104-.04-.211-.079-.312-.02-.05-.098-.017-.078.033ZM24.908 10.224c-.062.206-.087.449.061.625.063.074.151.13.25.139.09.007.174-.03.235-.094a.255.255 0 0 0 .062-.268c-.02-.05-.097-.017-.077.034.03.08-.018.162-.083.208-.076.054-.174.043-.25-.007-.2-.135-.182-.4-.12-.605.015-.05-.063-.083-.078-.032ZM26.874 9.325c.01.195-.05.398.06.575.043.07.11.129.194.145a.262.262 0 0 0 .216-.064.722.722 0 0 0 .16-.221c.026-.048-.053-.08-.078-.032a.555.555 0 0 1-.154.203.17.17 0 0 1-.22-.017c-.164-.15-.084-.408-.094-.602-.004-.054-.087-.04-.084.013Z" fill="#594A42"/><path d="M16.544 17.382a30.045 30.045 0 0 1 6.216-5.11 30.713 30.713 0 0 1 7.343-3.278c.251-.075.532-.172.671-.41.134-.23.083-.515-.056-.73-.164-.256-.451-.394-.735-.476a6.742 6.742 0 0 0-.94-.186 10.298 10.298 0 0 0-3.961.22 10.218 10.218 0 0 0-3.548 1.668c-.628.462-1.209.984-1.832 1.453-.604.454-1.242.873-1.91 1.227-.632.336-1.367.627-2.093.47-.64-.139-1.154-.637-1.394-1.235-.508-1.27.276-2.98 1.62-3.336.303-.08.617-.073.91.037.052.02.084-.059.033-.077-.561-.21-1.165-.052-1.643.281-.53.37-.897.938-1.064 1.558-.166.617-.12 1.29.202 1.85.285.496.76.883 1.325 1.005.678.146 1.371-.09 1.973-.391a13.555 13.555 0 0 0 1.896-1.178c.643-.468 1.236-.998 1.869-1.48a10.139 10.139 0 0 1 1.788-1.093 10.341 10.341 0 0 1 3.91-.982c.68-.034 1.363 0 2.036.105.346.054.712.107 1.035.248.319.14.621.44.568.818-.05.358-.432.478-.73.567a29.593 29.593 0 0 0-2.879 1.01 30.189 30.189 0 0 0-3.625 1.779 30.167 30.167 0 0 0-7.053 5.615c-.036.04.03.09.068.051Z" fill="#6C5B50"/><path d="m16.856 7.723.577-.03c.169-.009.377-.05.541.006.161.054.165.248.273.36.09.093.216.15.346.152.24.003.483-.193.484-.443.001-.106-.049-.211-.152-.25-.094-.034-.2-.01-.253.077-.029.045.038.097.067.05.035-.056.105-.072.166-.045.078.036.096.132.085.209a.389.389 0 0 1-.24.287.397.397 0 0 1-.37-.036c-.12-.079-.14-.19-.205-.304-.094-.164-.299-.169-.467-.161-.288.012-.576.03-.865.044-.054.003-.04.086.013.084Z" fill="#594A42"/><path d="M17.11 7.981a.462.462 0 1 1-.078-.921.462.462 0 0 1 .078.921Z" fill="#6C5B50"/><path d="M16.61 7.56a.462.462 0 0 0 .5.421l-.078-.921a.463.463 0 0 0-.422.5Z" fill="#9E8777"/></g><g opacity=".92"><path d="M45.282 29.784c.18.885.328 1.777.448 2.672.017.125.032.259-.026.37-.073.141-.238.203-.388.253-.765.253-1.539.481-2.32.684-.24.063-.513.118-.722-.016-.305-.198-.258-.687-.019-.96.24-.273.598-.402.918-.574.123-.066.248-.146.308-.272a.697.697 0 0 0 .045-.301 7.1 7.1 0 0 0-.164-1.485c.607-.12 1.314-.252 1.92-.371Z" fill="#9E8777"/><path d="M42.148 33.638c.145.259.472.218.715.16.334-.079.668-.16 1-.25.327-.087.652-.182.972-.293.16-.056.319-.115.475-.18.12-.047.252-.093.344-.187.11-.11.108-.263.1-.408a2.669 2.669 0 0 0-.093-.556.02.02 0 0 0-.028-.011 1.286 1.286 0 0 0-.595 1.228c.004.024.042.025.04 0a1.248 1.248 0 0 1 .575-1.194l-.028-.012c.042.153.072.309.085.467.013.145.036.327-.069.445-.09.1-.231.147-.352.197-.14.057-.283.11-.426.16-.57.2-1.156.35-1.742.492-.278.068-.754.25-.938-.077-.014-.023-.047-.003-.035.02Z" fill="#6C5B50"/><path d="M42.395 32.685c.121.014.224.094.308.176.078.074.145.16.203.25.117.182.2.382.28.582.01.023.047.013.037-.01a3.267 3.267 0 0 0-.31-.632c-.118-.173-.297-.379-.518-.405-.024-.003-.024.036 0 .039Z" fill="#6C5B50"/><path d="M42.876 32.995c.324-.13.648-.287.894-.542.107-.112.198-.24.259-.384a1.38 1.38 0 0 0 .092-.54 6.763 6.763 0 0 0-.109-1.213c-.027-.155-.052-.333-.167-.452-.087-.09-.23-.138-.345-.07-.152.09-.158.287-.136.441.034.23.08.458.12.686.005.025.042.015.038-.01l-.093-.527c-.029-.164-.084-.37.036-.51.13-.151.333-.043.412.1.075.137.091.307.116.459.057.353.088.712.089 1.07 0 .171-.011.344-.071.506a1.195 1.195 0 0 1-.24.385c-.243.27-.575.43-.906.565-.022.008-.012.046.01.036Z" fill="#6C5B50"/><path d="m45.36 30.2-.076-.4c-.01-.058-.022-.123.012-.177.03-.047.084-.076.132-.102.023-.012.003-.045-.02-.034a.414.414 0 0 0-.133.1c-.04.05-.044.11-.036.171.02.151.056.302.084.452.004.024.042.014.037-.01Z" fill="#79746F"/><path d="M42.71 32.496c.243.096.459.251.63.447.052.06.137-.027.086-.086a1.766 1.766 0 0 0-.684-.478c-.03-.012-.066.013-.075.043-.01.034.012.062.043.074ZM43.19 32.212c.228.096.445.218.647.36.026.02.067.005.083-.021.018-.031.005-.065-.022-.084a3.597 3.597 0 0 0-.675-.372c-.03-.013-.067.013-.075.042-.01.035.012.062.042.075ZM43.5 31.867c.212.023.423.054.634.091.032.006.066-.009.075-.042.008-.03-.01-.07-.043-.076-.22-.039-.442-.07-.666-.095-.032-.004-.06.03-.06.06 0 .037.028.058.06.062ZM43.52 31.38a2.36 2.36 0 0 1 .806-.099c.078.004.078-.117 0-.121a2.462 2.462 0 0 0-.84.102c-.074.022-.042.14.033.117ZM43.434 30.669c.129-.01.251-.048.377-.07a.535.535 0 0 1 .327.023c.07.034.132-.071.06-.106a.632.632 0 0 0-.369-.043c-.132.018-.26.063-.395.074-.077.007-.078.128 0 .122Z" fill="#6C5B50"/><path d="M43.084 34.772a.532.532 0 1 0 0-1.065.532.532 0 0 0 0 1.065Z" fill="#CFBFB3"/><path d="M43.084 34.784a.545.545 0 1 1 .002-1.09.545.545 0 0 1-.002 1.09Zm0-1.065a.52.52 0 1 0 .001 1.042.52.52 0 0 0 0-1.042Z" fill="#6C5B50"/><path d="M43.084 34.463a.224.224 0 1 0 0-.447.224.224 0 0 0 0 .447ZM43.378 33.907c.076.12.114.26.11.402 0 .025.038.025.04 0a.755.755 0 0 0-.116-.421c-.014-.022-.047-.002-.034.02ZM43.429 34.484l.038-.064c.005-.009.002-.021-.007-.026a.02.02 0 0 0-.027.007l-.038.063a.02.02 0 0 0 .007.027.02.02 0 0 0 .027-.007ZM42.748 34.007a.428.428 0 0 0 .042.492c.017.019.044-.009.028-.028a.388.388 0 0 1-.037-.444c.013-.022-.02-.041-.033-.02ZM42.898 34.582a.156.156 0 0 1 .024.007l.004.001s.003.002 0 0l.002.001.002.001a.107.107 0 0 1 .012.007l.01.006.005.003.002.002s.005.003.002.002c-.002-.002 0 0 0 0 .002 0 .002.002.003.002a.829.829 0 0 0 .014.014.02.02 0 0 0 .028 0 .02.02 0 0 0 0-.028.197.197 0 0 0-.098-.055c-.01-.002-.021.003-.024.014-.001.009.004.02.014.023Z" fill="#6C5B50"/><path d="M45.948 33.623a.532.532 0 1 0-1.051-.17.532.532 0 0 0 1.05.17Z" fill="#CFBFB3"/><path d="M45.422 34.085a.545.545 0 1 1 .002-1.09.545.545 0 0 1-.002 1.09Zm0-1.065a.52.52 0 1 0 .001 1.042.52.52 0 0 0 0-1.042Z" fill="#6C5B50"/><path d="M45.645 33.54a.223.223 0 1 1-.447.001.223.223 0 0 1 .447 0ZM45.716 33.208c.075.12.114.26.11.402 0 .025.038.025.04 0a.755.755 0 0 0-.116-.422c-.014-.02-.047-.001-.034.02ZM45.767 33.785l.038-.064c.005-.009.002-.021-.007-.026a.02.02 0 0 0-.027.007l-.038.063a.02.02 0 0 0 .007.027.02.02 0 0 0 .027-.007ZM45.086 33.308a.429.429 0 0 0 .042.492c.016.02.044-.008.028-.028a.388.388 0 0 1-.037-.444c.013-.021-.02-.04-.033-.02ZM45.236 33.883a.168.168 0 0 1 .024.007l.004.002s.003 0 0 0h.002l.002.002a.092.092 0 0 1 .012.006l.01.007c.002 0 .004.002.005.003l.003.002s.004.003 0 0l.002.002.002.002c.002 0 .004.002.005.004l.01.01a.02.02 0 0 0 .027 0 .02.02 0 0 0 0-.028.196.196 0 0 0-.098-.056c-.01-.002-.021.003-.024.014-.002.009.004.02.014.023Z" fill="#6C5B50"/><path d="M43.07 27.955c-.068.901-.165 1.8-.292 2.693-.018.125-.04.258-.127.35-.108.115-.283.13-.44.137-.806.037-1.613.047-2.42.031-.247-.005-.525-.026-.69-.211-.24-.273-.063-.731.242-.93.304-.197.684-.224 1.04-.303.135-.03.277-.074.368-.179a.698.698 0 0 0 .126-.278c.133-.48.215-.976.245-1.474.616.05 1.332.114 1.948.164Z" fill="#9E8777"/><path d="M39.01 30.816c.068.279.378.336.622.347.342.015.685.026 1.027.03.352.006.705.002 1.057-.02.171-.01.343-.025.513-.044.125-.015.263-.024.373-.093.13-.08.166-.231.196-.371a2.66 2.66 0 0 0 .058-.547c0-.012-.012-.022-.024-.018-.466.133-.83.541-.905 1.02-.004.025.034.036.037.01.074-.466.424-.863.878-.993l-.024-.019c-.001.154-.014.308-.042.46-.025.136-.05.31-.163.402-.108.088-.264.096-.397.112a8.777 8.777 0 0 1-.473.041c-.614.04-1.23.023-1.844.001-.28-.01-.764.03-.85-.328-.007-.024-.045-.014-.038.01Z" fill="#6C5B50"/><path d="M39.506 29.966c.201.083.313.344.373.538.066.21.091.429.115.646.003.025.042.025.04 0a3.196 3.196 0 0 0-.135-.712c-.068-.193-.182-.426-.382-.51-.024-.01-.034.028-.011.038Z" fill="#6C5B50"/><path d="M39.884 30.395c.358-.04.724-.105 1.035-.298.135-.083.257-.189.352-.317.107-.145.168-.316.216-.488.106-.383.177-.776.216-1.171.016-.162.042-.35-.049-.496-.066-.108-.194-.183-.32-.138-.162.058-.214.237-.233.39-.028.227-.047.457-.07.686-.003.024.036.024.039 0l.054-.534c.015-.156.017-.348.146-.46.157-.136.345 0 .391.17.044.158.01.34-.009.5a6.95 6.95 0 0 1-.199 1.03 1.5 1.5 0 0 1-.19.456 1.178 1.178 0 0 1-.336.32c-.31.202-.681.27-1.043.31-.025.004-.025.043 0 .04ZM43.032 28.376l.036-.41c.005-.058.013-.123.06-.163.043-.037.1-.05.154-.061.024-.006.014-.043-.01-.038a.398.398 0 0 0-.158.061c-.05.038-.07.095-.08.155-.02.15-.027.305-.04.457-.003.024.036.024.038-.001Z" fill="#6C5B50"/><path d="M39.86 29.87c.208.158.374.366.486.601.014.03.057.038.083.022.03-.017.036-.053.022-.083a1.762 1.762 0 0 0-.53-.645c-.026-.02-.067-.004-.082.022-.02.031-.005.063.021.083ZM40.387 29.717c.197.157.377.336.536.532.021.025.065.021.087 0 .025-.025.02-.06 0-.086a3.513 3.513 0 0 0-.537-.532c-.026-.02-.06-.025-.086 0-.022.021-.026.065 0 .086ZM40.791 29.478c.199.08.394.166.586.26.03.014.065.007.083-.023.015-.026.008-.068-.022-.083a9.952 9.952 0 0 0-.615-.271c-.03-.013-.067.013-.075.043-.009.034.013.061.043.074ZM40.942 29.013a2.36 2.36 0 0 1 .803.124c.074.026.106-.092.032-.117a2.455 2.455 0 0 0-.835-.129c-.079.002-.079.124 0 .122ZM41.052 28.307c.132.025.267.021.4.036.103.01.211.04.29.11.059.051.145-.035.086-.087-.21-.185-.49-.128-.743-.177-.078-.014-.11.103-.033.118Z" fill="#6C5B50"/><path d="M40.26 31.793a.533.533 0 1 1-1.026-.289.533.533 0 0 1 1.025.289Z" fill="#CFBFB3"/><path d="M39.746 32.193a.545.545 0 1 1 .002-1.09.545.545 0 0 1-.002 1.09Zm.001-1.065a.521.521 0 1 0 .001 1.043.521.521 0 0 0-.001-1.043Z" fill="#6C5B50"/><path d="M39.962 31.71a.223.223 0 1 1-.431-.122.224.224 0 1 1 .43.121ZM40.12 31.408c.04.136.04.281-.003.417-.007.024.03.034.038.01a.754.754 0 0 0 .002-.437c-.007-.024-.044-.014-.037.01ZM40.013 31.977l.053-.05a.02.02 0 0 0 0-.028.02.02 0 0 0-.027 0l-.054.05a.02.02 0 0 0 0 .028.02.02 0 0 0 .028 0ZM39.486 31.334a.427.427 0 0 0-.092.485c.01.022.044.003.034-.02a.388.388 0 0 1 .086-.437c.018-.018-.01-.045-.028-.028ZM39.475 31.928a.171.171 0 0 1 .021.013c.002.001.004.004 0 0l.002.002.005.004a.192.192 0 0 1 .01.009l.008.009a.035.035 0 0 1 .004.004c0 .002.002.004 0 0a.206.206 0 0 1 .015.024c.005.009.018.012.027.007a.02.02 0 0 0 .007-.027.196.196 0 0 0-.08-.08c-.008-.004-.021-.002-.026.008-.004.01-.002.022.007.027Z" fill="#6C5B50"/><path d="M42.187 32.142a.532.532 0 1 0 0-1.065.532.532 0 0 0 0 1.065Z" fill="#CFBFB3"/><path d="M42.187 32.154a.546.546 0 1 1 .148-1.07.546.546 0 0 1-.148 1.07Zm0-1.065a.52.52 0 1 0 0 1.039.52.52 0 0 0 0-1.04Z" fill="#6C5B50"/><path d="M42.402 31.67a.223.223 0 1 1-.432-.12.223.223 0 0 1 .432.12ZM42.56 31.369c.04.136.04.28-.002.416-.008.024.03.035.037.01a.753.753 0 0 0 .003-.436c-.008-.024-.045-.014-.038.01ZM42.453 31.937l.054-.05a.02.02 0 0 0 0-.028.02.02 0 0 0-.028 0l-.053.05a.02.02 0 1 0 .027.028ZM41.926 31.295a.427.427 0 0 0-.092.484c.011.023.044.003.034-.02a.387.387 0 0 1 .086-.437c.018-.017-.01-.044-.028-.027ZM41.916 31.888a.19.19 0 0 1 .021.014c.002 0 .004.003 0 0l.002.001.005.004.01.009a.141.141 0 0 1 .011.014c.001.001.002.004 0 0l.002.002.014.021c.005.01.018.013.026.007.01-.005.012-.017.008-.026a.194.194 0 0 0-.08-.08c-.009-.005-.021-.002-.026.007-.005.01-.003.023.007.027Z" fill="#6C5B50"/></g></g></g><defs><clipPath id="a"><rect width="48" height="48" rx="24" fill="#fff"/></clipPath><clipPath id="b"><path fill="#fff" d="M0 0h48v48H0z"/></clipPath></defs></svg>