<svg width="48" height="48" fill="none" xmlns="http://www.w3.org/2000/svg"><g clip-path="url(#a)"><rect width="48" height="48" rx="24" fill="#fff"/><g clip-path="url(#b)"><g opacity=".55"><path d="M51.26 6.945c-1.098.162-2.44.613-3.037.722a225.77 225.77 0 0 1-9.43 1.517c-5.119.712-10.262 1.27-15.4 1.382C15.747 10.732 8.246 9.006.694 8.1-1.1 7.884-6.499 6.573-7.402 9.487c-1.172 3.779-1.123 8.318-1.253 12.268-.139 4.213-.273 8.422-.314 12.63-.013 1.442.098 2.922.64 4.182.68 1.578 1.942 2.255 3.352 2.476 2.552.398 5.147.273 7.723.174 3.483-.135 6.965-.453 10.444-.792 6.021-.584 12.144-1.575 18.172-1.358 4.232.152 8.394.974 12.545 1.798 1.682.335 3.332.851 5.036 1.043 1.38.157 3.489.307 4.623-.966.952-1.07.99-3.57 1.112-4.966.261-3.01.294-6.043.276-9.055-.033-5.645-.102-11.517-.964-17.05-.291-1.877-1.009-3.179-2.73-2.926Z" fill="#93CDA0"/><path d="M51.26 6.945c-1.098.162-2.44.613-3.037.722a225.77 225.77 0 0 1-9.43 1.517c-5.119.712-10.262 1.27-15.4 1.382C15.747 10.732 8.246 9.006.694 8.1-1.1 7.884-6.499 6.573-7.402 9.487c-1.172 3.779-1.123 8.318-1.253 12.268-.139 4.213-.273 8.422-.314 12.63-.013 1.442.098 2.922.64 4.182.68 1.578 1.942 2.255 3.352 2.476 2.552.398 5.147.273 7.723.174 3.483-.135 6.965-.453 10.444-.792 6.021-.584 12.144-1.575 18.172-1.358 4.232.152 8.394.974 12.545 1.798 1.682.335 3.332.851 5.036 1.043 1.38.157 3.489.307 4.623-.966.952-1.07.99-3.57 1.112-4.966.261-3.01.294-6.043.276-9.055-.033-5.645-.102-11.517-.964-17.05-.291-1.877-1.009-3.179-2.73-2.926Z" fill="#F2DDD2"/></g><path d="M32.616 19.93s-1.342.02-1.863 1.443c-.52 1.422.3 8.532.3 8.532l2.664-.42.781-6.39" fill="#93CDA0"/><path d="M32.616 19.93s-1.342.02-1.863 1.443c-.52 1.422.3 8.532.3 8.532l2.664-.42.781-6.39" stroke="#263138" stroke-width=".044" stroke-miterlimit="10"/><path d="M33.684 36.778s-.089-.375-.207-.286c-.12.088 0 .414 0 .414l-.257.296.187.385.208.089s.158-.602.07-.898Z" fill="#F9DACE" stroke="#E1B8AA" stroke-width=".044" stroke-miterlimit="10"/><path d="M33.911 37.084s.07-.396-.01-.455c-.079-.059-.197-.01-.217.148-.02.158-.06.316-.07.346-.01.03-.306.197-.295.286.01.09.03.178.088.178.06 0 .405-.208.455-.257.05-.049.05-.246.05-.246Z" fill="#F9DACE" stroke="#E1B8AA" stroke-width=".044" stroke-miterlimit="10"/><path d="M31.114 30.71s.36 5.188.501 5.528c.14.34.982 1.562 1.061 1.742.08.18.42.1.521.08.1-.02.761-.46.862-.66.1-.2.22-.501.04-.481-.18.02-.28.16-.32.28-.04.12-.381.24-.381.24l-.04-.68s.16-.802-.1-1.202c-.26-.4-.661-.601-.661-.601l.861-4.687-2.344.442Z" fill="#F9DACE" stroke="#E1B8AA" stroke-width=".044" stroke-miterlimit="10"/><path d="M33.898 28.663s-3.125.68-3.125.901c0 .22.02 1.322.18 1.342.16.02 2.865-.3 2.945-.44.08-.14.18-1.223.18-1.503 0-.28.08-.32-.18-.3Z" fill="#93CDA0" stroke="#263138" stroke-width=".044" stroke-miterlimit="10"/><path d="M13.425 24.091h-.434v-5.669l2.82-4.168.36.243-2.746 4.058v5.536Z" fill="#716056"/><path d="M13.208 18.952a.464.464 0 1 0 0-.927.464.464 0 0 0 0 .927Z" fill="#716056"/><path d="M15.899 24.055h-5.443v.587H15.9v-.587Z" fill="#263138" stroke="#263138" stroke-width=".044" stroke-miterlimit="10"/><path d="M17.062 14.055a.99.99 0 1 0-1.4-1.4.99.99 0 0 0 1.4 1.4Z" fill="#5F4D43"/><path d="M17.553 16.386a1.995 1.995 0 1 0 0-3.99 1.995 1.995 0 0 0 0 3.99Z" fill="#fff" stroke="#3C2C21" stroke-width=".044" stroke-miterlimit="10"/><path d="M15.78 19.632H8.113l1.8 4.884h7.664l-1.799-4.884Z" fill="#48342A"/><path d="M15.526 19.843H8.52l1.644 4.463h7.005l-1.644-4.463Z" stroke="#342D24" stroke-width=".044" stroke-miterlimit="10"/><path d="M15.223 19.843H8.521l1.644 4.463h6.703l-1.645-4.463Z" fill="#fff" stroke="#263138" stroke-width=".044" stroke-miterlimit="10"/><path d="m9.951 20.715 1.211 3.33M10.888 20.715l1.21 3.33M11.823 20.715l1.212 3.33M12.759 20.715l1.211 3.33M13.695 20.715l1.211 3.33M9.29 21.375h4.707M9.73 22.56h4.707M10.17 23.743h4.708" stroke="#352A24" stroke-width=".044" stroke-miterlimit="10"/><path d="m15.776 20.522-.25-.68H8.52l.25.68h7.005Z" fill="#716056"/><path d="M9.99 20.274h.568c.05 0 .085-.03.09-.076.008-.081-.08-.17-.167-.17h-.567c-.05 0-.086.03-.09.076-.008.08.08.17.167.17ZM11.323 20.274h.567c.05 0 .085-.03.09-.076.008-.081-.08-.17-.167-.17h-.567c-.05 0-.086.03-.09.076-.009.08.079.17.167.17ZM12.655 20.274h.567c.05 0 .085-.03.09-.076.008-.081-.08-.17-.167-.17h-.567c-.05 0-.086.03-.09.076-.008.08.08.17.167.17ZM13.988 20.274h.567c.05 0 .085-.03.09-.076.008-.081-.08-.17-.167-.17h-.567c-.05 0-.086.03-.09.076-.009.08.079.17.167.17Z" stroke="#342D24" stroke-width=".044" stroke-miterlimit="10"/><path d="M19.681 24.287h-9.77v.35h9.77v-.35Z" fill="#48342A"/><path d="M40.174 35.975c-1.166 0-3.421-.868-3.694-.974l.253-.647c.75.293 2.859 1.03 3.592.917.712-.11 2.768-1.29 2.743-3.931-.024-2.552-1.112-4.087-1.123-4.102l.562-.41c.05.07 1.23 1.718 1.256 4.505.015 1.607-.66 2.7-1.228 3.333-.744.829-1.598 1.214-2.104 1.291a1.706 1.706 0 0 1-.257.018ZM36.055 34.81h-1.04v6.94h1.04v-6.94Z" fill="#3D322D"/><path d="M36.793 34.81h-2.516v.754h2.516v-.754Z" fill="#3D322D"/><path d="M41.182 43.578a.431.431 0 1 0-.862 0 .431.431 0 0 0 .862 0Z" fill="#263138" stroke="#263138" stroke-width=".044" stroke-miterlimit="10"/><path d="M30.72 43.578a.43.43 0 1 0-.862 0 .43.43 0 0 0 .862 0Z" fill="#3D322D"/><path d="M40.868 42.965c-.408-.181-4.574-1.087-4.574-1.087l-.758-.093-.759.093s-4.165.906-4.574 1.087c-.408.182-.499.681-.499.681h.363s.136-.318.34-.408c.205-.09 5.13-.658 5.13-.658s4.924.567 5.127.658c.205.09.341.408.341.408h.363s-.092-.5-.5-.68Z" fill="#3D322D"/><path d="M35.984 43.578a.431.431 0 1 0-.862 0 .431.431 0 0 0 .862 0Z" fill="#3D322D"/><path d="M35.263 41.853h.544l-.081 1.793h-.382l-.081-1.793Z" fill="#3D322D"/><path d="M36.32 41.123H34.75v.755h1.572v-.755ZM40.161 35.114h-9.253a.421.421 0 0 1-.42-.421v-.949c0-.232.188-.42.42-.42h9.253a.42.42 0 0 1 .421.42v.949a.42.42 0 0 1-.42.42ZM43.283 24.164l-1.343 6.118a.823.823 0 0 1-.983.622l-.142-.032a.823.823 0 0 1-.622-.983l1.344-6.117c.1-.444.54-.722.983-.623l.141.032c.444.1.722.54.622.983Z" fill="#3D322D"/><path d="M24.259 32.191s-3.445 7.566-3.516 7.637c-.07.07-.519-.024-.566.142-.047.165-.118.99-.118.99s-1.698.331-1.887.331c-.19 0-1.322-.118-1.416.094-.094.213-.377.449-.189.66.19.213 1.392.826 2.077 1.015.684.19 1.203.307 1.392.378.189.07 2.194.566 2.36.519.165-.047.377-.166.448-.566.07-.401.283-1.44.283-1.44s.354-.4.377-.755c.024-.353.165-1.108.165-1.108l3.091-4.971-2.501-2.926Z" fill="#5D463B"/><path d="M32.375 28.794s-3.822.26-6.252.92c-2.43.66-2.832 1.274-2.667 1.698.166.425 5.774 8.573 5.774 8.573s-.236.613-.118.708c.118.094.755.543.755.543s-.094.212-.024.306c.071.094.071.213.071.213s-.495.825-.684 1.061c-.19.236-.873.472-.897.685-.023.212.213.425.283.425.071 0 1.959-.047 2.124-.07.165-.024.684-.473.684-.473s1.275-1.415 1.605-1.817c.33-.4.684-.967.566-1.298-.118-.33-.92-.849-1.062-.896-.142-.047-.377-.26-.377-.26l-3.791-6.19s5.474.426 7.031.473c1.557.047 2.336-.66 2.336-.66s-4.224-4.012-4.554-4.083c-.331-.07-.803.142-.803.142Z" fill="#5D463B"/><path d="M29.095 19.922s2.17-.354 4.389.283c2.217.637 4.034 3.068 4.624 4.625.59 1.557 1.203 5.214 1.203 5.757 0 .542-.023 1.203-.283 1.486-.26.283-1.439.944-1.699 1.038-.26.094-.472-.826-1.32-1.51-.85-.684-1.889-1.581-2.054-1.77-.165-.189-.85-.637-1.203-.755-.354-.118-.59-.236-.613-.472-.024-.236-.166-3.752-.166-3.752l-2.642-1.462-.543-3.469h.307v.001Z" fill="#8B7468"/><path d="M25.438 19.602s-.148-.796.629-.777c.776.019.74 1.128.74 1.128l1.572.148.444 3.885s-1.35.463-1.905.555c-.555.093-1.277.315-1.943.24-.666-.073-1.017-.166-1.017-.166s-.537-.666-.907-1.443-.425-1.684-.092-1.943c.332-.259.72-.665 1.48-.647.758.018.887-.5.887-.592 0-.092.112-.388.112-.388Z" fill="#F9DACE"/><path d="M24.216 20.934s.222.444.389.444c.166 0 .425-.296.536-.37.111-.074 1.11-.167 1.184-.222.074-.055.204-.24-.037-.351-.24-.111-.5-.278-.5-.278l-.351-.555s-1.295.019-1.757-.092c-.463-.111-.888-.296-1.184-.111-.296.185-1.221 1.628-1.277 2.571-.055.944-.018 1.388.204 1.37.222-.02.555-.445.555-.445s-.333 1.647-.111 1.924c.222.277.573-.185.573-.185s.407.278.888.315c.481.037 1.129-.093 1.203-.24.074-.148-.463-.518-.518-.593-.056-.073.352-.203.24-.407-.11-.203-.37-.166-.628-.407-.26-.24-.296-.592-.296-.592s.351.24.24-.11c-.111-.352-.536-.796-.315-1.056.223-.259.962-.61.962-.61Z" fill="#332418"/><path d="M25.437 21.71s-.536.814-.444.87c.093.056.148.093.277-.055.13-.148.352-.722.352-.87 0-.148-.185.056-.185.056ZM25.715 24.32s-.5-.796-.63-.796c-.129 0-.184.184-.092.314.093.13.648.759.722.481Z" fill="#332418"/><path d="M26.122 21.692s.24.5-.056.74M26.16 23.69s.258.426 0 .703M25.4 23.45s1.85.092 1.813-.13c-.037-.222-.13-.832-.259-.85-.13-.02-.296.147-.296.147" stroke="#3C2F29" stroke-width=".044" stroke-miterlimit="10" stroke-linecap="round" stroke-linejoin="round"/><path d="M28.102 22.488s-.445.26-.352.555c.092.296.48.37.463.222-.019-.148-.185-.315-.111-.5.073-.185.11-.296 0-.277Z" fill="#332418"/><path d="M26.807 19.953s1.054.518 1.424 1.129Z" fill="#fff"/><path d="M26.807 19.953s1.054.518 1.424 1.129" stroke="#263138" stroke-width=".044" stroke-miterlimit="10"/><path d="M28.178 24.65H6.806v2.167h21.372v-2.166Z" fill="#716056"/><path d="M7.211 44.06h-.715l-.153-18.929h1.022l-.154 18.93ZM28.506 44.06h-.715l-.153-18.929h1.021l-.153 18.93Z" fill="#716056"/><path d="M28.642 24.627H6.341v1.036h22.301v-1.036Z" fill="#5F4D43"/><path d="M29.234 24.65H5.75v.7h23.484v-.7Z" fill="#716056"/><path d="m27.98 19.36.802 4.166.62-.501-.46-3.785-.962.12Z" fill="#8B7468" stroke="#796156" stroke-width=".044" stroke-miterlimit="10"/><path d="m32.233 26.41 1.464-2.76M32.54 26.245l.92-1.415M32.493 26.67l1.77-1.274M34.179 27.813c.161.054.305.1.413.132M32.493 27.213s.656.242 1.268.456M34.256 29.587c.541.326 1.125.722 1.635 1.165M32.422 28.628s.683.294 1.537.785M36.522 31.782c.119.145.212.277.265.386M34.758 30.092s.895.747 1.51 1.403" stroke="#796156" stroke-width=".044" stroke-miterlimit="10"/><path d="M30.965 20.562s-1.341.02-1.862 1.442c-.521 1.422.3 8.532.3 8.532l2.664-.42.78-6.39" fill="#8B7468"/><path d="M32.033 37.394s-.09-.375-.208-.286c-.118.088 0 .414 0 .414l-.257.296.188.385.207.089s.159-.602.07-.898Z" fill="#F9DACE" stroke="#E1B8AA" stroke-width=".044" stroke-miterlimit="10"/><path d="M32.26 37.7s.069-.396-.01-.455c-.08-.059-.197-.01-.217.148-.02.158-.06.316-.07.346-.01.03-.306.197-.296.286.01.09.03.178.09.178.058 0 .404-.208.453-.257.05-.049.05-.246.05-.246Z" fill="#F9DACE" stroke="#E1B8AA" stroke-width=".044" stroke-miterlimit="10"/><path d="M29.463 31.341s.36 5.187.5 5.528c.14.34.982 1.562 1.062 1.742.08.18.42.1.521.08.1-.02.76-.46.861-.66.1-.201.22-.502.04-.482-.18.02-.28.16-.32.28-.04.12-.38.241-.38.241l-.04-.68s.16-.802-.1-1.203c-.261-.4-.661-.6-.661-.6l.86-4.687-2.343.441Z" fill="#F9DACE" stroke="#E1B8AA" stroke-width=".044" stroke-miterlimit="10"/><path d="M32.248 29.294s-3.125.68-3.125.901c0 .22.02 1.322.18 1.342.16.02 2.864-.3 2.945-.44.08-.14.18-1.222.18-1.503 0-.28.08-.32-.18-.3Z" fill="#8B7468" stroke="#796156" stroke-width=".044" stroke-miterlimit="10"/><g opacity=".55"><path d="M37.557 17.05c1.783-.607 3.129-2.334 3.28-4.21.042-.53-.003-1.063-.047-1.592-.004-.054-.01-.111-.045-.152-.037-.044-.097-.06-.153-.072l-3.074-.69c-.587-.132-1.192-.265-1.786-.17.517-.097 1.03.308 1.208.803.18.494.096 1.045-.05 1.55a6.67 6.67 0 0 1-2.284 3.377 5.971 5.971 0 0 1 2.126.98c.248.18.6.38.826.174v.001Z" fill="#CFBFB3"/><path d="M37.15 12.772a10.853 10.853 0 0 1 1.356 1.72c.038.06.131.005.094-.054a11.067 11.067 0 0 0-1.375-1.743c-.048-.05-.124.027-.076.077ZM37.657 12.914l1.338 1.642c.044.054.12-.023.077-.076l-1.339-1.643c-.044-.053-.12.023-.076.077Z" fill="#BFAC9F"/></g><g opacity=".55"><path d="M22.23 8.69c-.32.203-.478.585-.569.954-.379 1.536.143 3.26 1.309 4.327.484.444 1.06.773 1.63 1.1.087.049.181.1.28.09a.478.478 0 0 0 .206-.094c.898-.6 1.766-1.245 2.598-1.933a4.257 4.257 0 0 1-2.313-2.294 4.253 4.253 0 0 1 .021-3.257c-1.087.337-2.171.686-3.251 1.048l.09.06Z" fill="#CFBFB3"/><path d="M22.535 11.495a6.568 6.568 0 0 0 3.18.891c.07.002.07-.106 0-.108a6.442 6.442 0 0 1-3.126-.877c-.06-.035-.114.059-.054.094ZM23.35 11.356a6.368 6.368 0 0 0 1.895.318c.07 0 .07-.107 0-.108a6.276 6.276 0 0 1-1.867-.314c-.066-.022-.094.083-.028.104Z" fill="#BFAC9F"/></g><g opacity=".55"><path d="M9.376 8.773c.288.25.051.472-.13.807a10.915 10.915 0 0 1-5.113 4.755 13.01 13.01 0 0 1 2.935 3.662c2.62-.61 4.867-2.625 5.758-5.162a.546.546 0 0 0 .044-.268c-.018-.107-.096-.192-.17-.27l-3.325-3.52.001-.004Z" fill="#CFBFB3"/><path d="M8.734 11.406c.254.59.308 1.24.272 1.874-.037.656-.161 1.305-.288 1.948-.074.38-.162.76-.293 1.124-.023.066.081.094.104.03.12-.334.203-.678.273-1.024.067-.332.13-.665.184-.998.106-.645.182-1.305.11-1.958a3.655 3.655 0 0 0-.269-1.05c-.027-.064-.12-.01-.093.054ZM8.204 13.173a9.966 9.966 0 0 1-.158 2.521c-.013.068.091.097.104.03a10.066 10.066 0 0 0 .161-2.55c-.004-.07-.112-.07-.107-.001ZM10.35 13.596v.141c0 .029.026.055.054.054a.055.055 0 0 0 .054-.054v-.14c0-.029-.025-.056-.054-.054-.029.001-.053.023-.053.053ZM10.91 13.58c-.05.179-.062.364-.037.547.004.029.041.045.066.038.031-.008.042-.037.038-.066a1.206 1.206 0 0 1 .037-.49c.02-.067-.085-.096-.104-.028Z" fill="#BFAC9F"/></g><path d="M24.547 18.517H22.68a.11.11 0 0 1-.11-.11v-.976c0-.06.05-.11.11-.11h1.867c.06 0 .11.05.11.11v.976c0 .061-.05.11-.11.11Z" fill="#fff" stroke="#263138" stroke-width=".044" stroke-miterlimit="10"/><path d="M24.435 17.473h-.246v.892h.246a.118.118 0 0 0 .118-.118v-.656a.118.118 0 0 0-.118-.118ZM24.099 17.475l-.03-.002h-.09v.892h.09c.01 0 .02 0 .03-.002v-.888Z" fill="#716056"/><path d="M22.424 18.166h.143v-.478h-.143a.05.05 0 0 0-.05.05v.378c0 .027.023.05.05.05Z" fill="#fff" stroke="#263138" stroke-width=".044" stroke-miterlimit="10"/><path d="M27.544 17.956c.043-.262.132-.525.31-.727a.926.926 0 0 1 .589-.31c.083-.008.167.001.25 0 .17-.003.346-.026.494-.118a.492.492 0 0 0 .224-.334.33.33 0 0 0-.024-.193c-.035-.071-.097-.12-.158-.168a.426.426 0 0 1-.143-.166.223.223 0 0 1 .002-.183.14.14 0 0 1 .06-.06.026.026 0 0 1 .032.005c.195.17.421.307.664.4.211.08.463.153.686.078a.415.415 0 0 0 .238-.2.542.542 0 0 0 .052-.312c-.028-.237-.2-.428-.38-.571a2.429 2.429 0 0 0-.676-.378 1.915 1.915 0 0 0-.69-.132c-.206.004-.422.057-.574.204-.084.082-.157.195-.116.317.036.111.138.192.228.26a2.802 2.802 0 0 0 1.044.49c.103.025.21.047.316.026a.24.24 0 0 0 .117-.055.198.198 0 0 0 .058-.15.873.873 0 0 0-.023-.176 1.843 1.843 0 0 0-.327-.724 1.886 1.886 0 0 0-1.039-.707c-.208-.053-.455-.078-.649.035-.202.118-.258.368-.21.584.059.252.237.46.401.651a6.407 6.407 0 0 0 2.075 1.593l-.038.022a.962.962 0 0 0-.179-.615.926.926 0 0 0-.529-.354.87.87 0 0 0-.635.07.452.452 0 0 0-.206.235.535.535 0 0 0-.01.3c.05.22.189.41.337.578.154.175.33.331.524.463.196.134.415.26.652.301a.7.7 0 0 0 .35-.024.732.732 0 0 0 .258-.162c.076-.071.14-.156.192-.246a.756.756 0 0 0 .114-.314c.007-.09-.018-.194-.105-.24a.203.203 0 0 0-.193.002.106.106 0 0 0-.048.073l-.043-.025c.279-.31.555-.66.658-1.072.048-.193.05-.397-.01-.587a1.046 1.046 0 0 0-.261-.423 1.49 1.49 0 0 0-.929-.411 1.589 1.589 0 0 0-.612.07 1.23 1.23 0 0 0-.29.137c-.08.052-.153.12-.173.216-.036.173.128.313.256.396.074.048.153.088.235.12a.967.967 0 0 0 .255.072.376.376 0 0 0 .232-.036c.085-.049.124-.138.143-.23a1.193 1.193 0 0 0-.051-.599c-.13-.386-.43-.685-.79-.865-.319-.158-.707-.25-1.056-.15a.664.664 0 0 0-.389.275.671.671 0 0 0-.064.52.994.994 0 0 0 .29.478c.15.14.33.243.515.331.09.043.18.084.273.123l-.038.029a.911.911 0 0 0-.693-.546.593.593 0 0 0-.422.089.479.479 0 0 0-.184.404c.002.17.076.329.171.467.1.143.22.274.345.396.248.245.53.456.837.625.063.035.127.074.198.089.045.01.115.016.149-.022.048-.053-.018-.131-.06-.167a.328.328 0 0 0-.168-.073.394.394 0 0 0-.35.125.526.526 0 0 0-.109.417c.047.328.344.559.626.688.297.137.67.184.961.006a.664.664 0 0 0 .286-.342.494.494 0 0 0-.04-.414c-.07-.119-.194-.21-.336-.208a.385.385 0 0 0-.325.196c-.069.13-.021.277.072.38a.94.94 0 0 0 .39.235c.303.107.638.13.951.054a1.34 1.34 0 0 0 .764-.488 1.3 1.3 0 0 0 .265-.817 1.042 1.042 0 0 0-.099-.415 1.075 1.075 0 0 0-.988-.594.862.862 0 0 0-.197.03.44.44 0 0 0-.192.091c-.059.06-.022.137.033.183a.286.286 0 0 0 .203.058.48.48 0 0 0 .349-.216.554.554 0 0 0 .08-.436c-.068-.329-.34-.587-.623-.747a1.693 1.693 0 0 0-.724-.216.717.717 0 0 0-.233.011c-.057.016-.12.055-.118.121.002.045.036.107.09.09l-.019.031a.626.626 0 0 0-.415-.448.595.595 0 0 0-.585.139.608.608 0 0 0-.18.302c-.007.031-.056.018-.048-.014a.679.679 0 0 1 .45-.476.644.644 0 0 1 .637.155.65.65 0 0 1 .19.33.026.026 0 0 1-.018.03c-.064.022-.12-.025-.141-.083a.152.152 0 0 1 .05-.18.365.365 0 0 1 .22-.061 1.698 1.698 0 0 1 1.233.505c.232.24.406.618.22.936a.556.556 0 0 1-.359.27.382.382 0 0 1-.226-.02c-.07-.031-.137-.095-.148-.175-.01-.085.055-.145.126-.179a.858.858 0 0 1 .209-.066c.144-.027.293-.019.435.018.285.073.543.26.693.513.16.27.18.605.096.903a1.365 1.365 0 0 1-.547.76c-.29.194-.65.271-.996.244a1.762 1.762 0 0 1-.509-.116.874.874 0 0 1-.396-.276.367.367 0 0 1-.025-.418.437.437 0 0 1 .37-.195.45.45 0 0 1 .363.232c.08.138.097.304.046.454a.719.719 0 0 1-.303.369.903.903 0 0 1-.51.125 1.345 1.345 0 0 1-.526-.136 1.383 1.383 0 0 1-.43-.31.765.765 0 0 1-.207-.452.555.555 0 0 1 .15-.44.45.45 0 0 1 .394-.11c.066.013.13.043.18.089.054.049.106.128.073.203-.025.056-.089.073-.145.073a.428.428 0 0 1-.199-.057 3.872 3.872 0 0 1-.915-.662 2.872 2.872 0 0 1-.372-.426.892.892 0 0 1-.176-.504.527.527 0 0 1 .206-.432c.13-.094.301-.117.457-.096.166.022.321.096.45.2a.976.976 0 0 1 .286.382c.01.023-.02.036-.038.028-.377-.165-.8-.35-1.008-.73a.887.887 0 0 1-.11-.554.639.639 0 0 1 .285-.438.965.965 0 0 1 .5-.14c.189-.005.376.03.555.09.397.133.76.39.967.76.103.186.167.395.176.607.008.187-.01.439-.201.532-.161.079-.36.021-.515-.043-.17-.07-.347-.167-.457-.318a.33.33 0 0 1-.068-.233.363.363 0 0 1 .153-.238c.174-.133.399-.206.614-.236.38-.052.775.025 1.099.232.15.097.283.22.38.37.105.16.162.347.169.537.015.442-.232.847-.498 1.18a5.282 5.282 0 0 1-.21.248c-.018.02-.047-.001-.042-.024.033-.172.282-.164.378-.055.076.085.079.212.055.317a1 1 0 0 1-.146.319c-.121.184-.3.344-.52.391-.261.056-.525-.045-.75-.17a2.883 2.883 0 0 1-.6-.449c-.173-.169-.342-.36-.44-.584-.09-.206-.12-.454.032-.64.145-.178.404-.24.625-.229a1 1 0 0 1 .634.266 1.008 1.008 0 0 1 .309.782.026.026 0 0 1-.038.022 6.47 6.47 0 0 1-2.17-1.701 2.097 2.097 0 0 1-.234-.331c-.115-.212-.165-.478-.043-.7.119-.215.37-.28.6-.267.226.013.45.085.651.188a1.964 1.964 0 0 1 1.01 1.282c.012.057.022.114.029.172a.32.32 0 0 1-.027.19c-.048.088-.148.122-.243.129a1.06 1.06 0 0 1-.343-.049 2.86 2.86 0 0 1-1.071-.541c-.09-.076-.179-.175-.188-.297-.01-.125.074-.238.162-.316a.761.761 0 0 1 .28-.154 1.35 1.35 0 0 1 .669-.013c.266.055.525.156.76.294.218.129.44.292.575.512.118.193.153.451.032.653a.468.468 0 0 1-.262.202.791.791 0 0 1-.352.017 1.704 1.704 0 0 1-.37-.104 2.3 2.3 0 0 1-.671-.407l.03.004c-.056.028-.064.094-.051.15.017.073.07.121.127.168.06.049.124.095.165.163.035.057.05.122.05.188 0 .136-.066.27-.162.364-.116.114-.279.164-.436.184-.085.01-.17.013-.256.012-.042 0-.084-.004-.126-.003a.858.858 0 0 0-.54.237c-.177.172-.277.408-.33.646-.01.04-.017.08-.023.12-.002.032-.051.018-.046-.014Z" fill="#CFBFB3"/></g></g><defs><clipPath id="a"><rect width="48" height="48" rx="24" fill="#fff"/></clipPath><clipPath id="b"><path fill="#fff" d="M0 0h48v48H0z"/></clipPath></defs></svg>