<svg width="48" height="48" fill="none" xmlns="http://www.w3.org/2000/svg"><g clip-path="url(#a)"><rect width="48" height="48" rx="24" fill="#fff"/><g opacity=".55"><path d="M23.532 18.275c.712 0 1.289.577 1.289 1.289 0 .028-.003.055-.004.083.416-.11.856-.083 1.264.04.425.127.818.354 1.183.62.73.386 1.18.898 1.45 1.434.597-.6 1.122-.742.845-1.674-.015-.05-.032-.1-.05-.15l-.541-1.896a17.842 17.842 0 0 1-.536-2.43c-.262-1.872-1.349-2.457-3.205-2.411l-4.548.111c-.765.019-1.465.424-1.992.957-.654.662-.811 1.612-.938 2.495a87.817 87.817 0 0 1-.906 5.152c-.073.375-.23.828-.223 1.207-.048.256-.063.553-.148.8-.201 1.086 4.071-3.494 6.012-5.088.005-.003.017-.003.037.002.224-.337.569-.54 1.01-.54Z" fill="#AC9686"/><path d="M27.927 10.58c-.296-.239-.644-.417-.92-.676-.562-.53-.733-1.285-.894-2.04.918-.356 1.547-1.112 1.532-1.978-.02-1.188-1.795-2.504-3.211-2.051-.228.073-.544.055-.865.089-.956-.297-2.055 0-2.69.905-.19.271-.326.55-.354.817-.018.169-.023.35-.126.487-.076.103-.196.166-.31.227-.71.373-1.43.792-1.877 1.436-.448.643-.544 1.572-.013 2.16.078.087.173.177.173.291 0 .11-.092.198-.167.28-.41.447-.515 1.1-.365 1.677.15.577.529 1.083.984 1.49a5.022 5.022 0 0 0 2.532 1.202c.556.09 1.177.07 1.61-.27.4-.313.552-.832.6-1.324.081-.834 1.441-.816 1.592.632.028.263.089.563.33.695.258.142.586.015.822-.155.237-.17.453-.389.743-.45.449-.097.973.207 1.355-.037.141-.091.227-.241.293-.391.445-1.02.116-2.302-.774-3.017Z" fill="#AC9686"/><path d="m27.08 9.242-.003-.054v-.022l-.045-.915-.065-1.378-.007-.153a2.34 2.34 0 0 0-.677-1.538l-.015-.014a.489.489 0 0 1-.295.042c-1.025-.17-1.765.866-2.251 1.96a2.382 2.382 0 0 1-.2.362c-.55.821-1.549 1.124-2.443.883a.889.889 0 0 0-.127.587c.061.464.487.792.954.77l.2-.01c.025.153.063.3.113.442-.02.108-.028.22-.023.335l.123 2.712-1.966.071 1.249 1.77a2.947 2.947 0 0 0 2.199 1.187c1.288.1 2.42-.857 2.592-2.137l.103-.864-.548-.08c-.158-.026-.463-.025-.622-.027l-.056-1.405a2.504 2.504 0 0 0 1.81-2.524Z" fill="#C7B6A8"/><path d="m27.08 9.242-.003-.054a2.35 2.35 0 0 1-4.654.56l-.317.014c.088.544.35 1.025.724 1.39a1.39 1.39 0 0 0 2.12.824l.31-.207a2.504 2.504 0 0 0 1.82-2.527Z" fill="#BAA89B"/><path d="M25.364 10.958a.038.038 0 0 1-.026-.011c-.167-.172-.387-.071-.396-.067a.037.037 0 1 1-.032-.068c.003 0 .276-.128.481.083a.037.037 0 0 1 0 .053.036.036 0 0 1-.027.01ZM24.155 7.588c.068.015.148-.008.226-.026a3.967 3.967 0 0 1 .46-.087c.08-.012.163-.02.22-.059.055-.037.065-.114-.023-.19-.083-.074-.275-.135-.506-.092-.23.044-.384.171-.431.27-.052.103-.011.17.054.184ZM26.9 7.383c-.068.017-.148-.003-.227-.019a4.228 4.228 0 0 0-.462-.072c-.08-.01-.163-.014-.221-.052-.057-.034-.07-.111.016-.19.08-.077.27-.144.503-.109.232.037.389.159.44.256.054.1.016.17-.05.186ZM21.562 9.2a.038.038 0 0 1-.034-.02.037.037 0 0 1 .017-.05l.257-.133-.228-.428a.037.037 0 0 1 .016-.05.037.037 0 0 1 .05.015l.263.496-.324.167a.054.054 0 0 1-.017.003Z" fill="#998678"/><path d="M24.137 9.003s.452.165.896.191c.444.027.183.72-.49.713-.673-.007-.771-.948-.406-.904Z" fill="#fff"/><path d="M25.492 9.104a.037.037 0 0 1 0-.074h.012a.487.487 0 0 0 .481-.498.205.205 0 0 0-.206-.202h-.003l-.162.002-.013-.76c0-.021.016-.039.037-.039.021 0 .037.017.038.037l.011.687.088-.001a.277.277 0 0 1 .2.079.277.277 0 0 1 .084.197.56.56 0 0 1-.554.573h-.013v-.001ZM24.83 8.085a.17.17 0 1 1-.288.176.17.17 0 1 1 .289-.176ZM26.58 7.949a.17.17 0 1 1-.289.176.17.17 0 0 1 .289-.176Z" fill="#998678"/><path d="M24.517 8.46a.037.037 0 0 1-.023-.066c.274-.223.473-.031.475-.03a.038.038 0 0 1 0 .053.037.037 0 0 1-.052 0c-.007-.005-.155-.145-.377.035a.039.039 0 0 1-.023.008ZM26.266 8.306a.037.037 0 0 1-.024-.066c.275-.223.474-.032.476-.03a.038.038 0 0 1 0 .054.037.037 0 0 1-.052 0c-.006-.006-.155-.145-.377.034a.039.039 0 0 1-.023.008Z" fill="#998678"/></g><g opacity=".55"><path d="m25.32 30.377-4.5-.164c-.914-.034-1.82.492-2.366 1.204-.56.731-.635 1.791-.841 2.665-.236.996-.48 1.99-.747 2.978-.15.555-1.05 4.532-1.128 5.1-.282 2.04 1.76.7 3.907.91.07.007.139.012.208.014l8.328.312.284-2.725.6-.93c.442-.687.567-1.588.333-2.398l-1.046-3.615c.092-2.465-.964-3.276-3.032-3.35Z" fill="#B7A595"/><path d="M19.037 27.067c.17-.171.37-.321.48-.544.197-.395.048-.867.015-1.308a2.456 2.456 0 0 1 .553-1.706c.06-.073.125-.14.192-.202l.48-1.196a2.755 2.755 0 0 1 1.863-1.637c-.233-.233-.431-.559-.377-.91.119-.76.577-1.289 1.289-1.289s1.289.577 1.289 1.289c0 .028-.002.055-.004.083.416-.11.856-.083 1.264.04.426.127.818.354 1.183.62.873.461 1.345 1.103 1.59 1.749.032.06.065.119.095.18.383.757.562 1.655.425 2.523-.147.924-.577 1.784-.267 2.713.238.712.757 1.33.774 2.123.005.262-.084.572-.313.658a.637.637 0 0 1-.318.008c-2.871-.412-5.706-.998-8.54-1.612a12.726 12.726 0 0 1-1.327-.337c-.288-.096-.613-.268-.647-.596-.028-.247.129-.478.3-.649Z" fill="#AC9686"/><path d="M22.127 30.237v-.002l.803-3.537c.023-.101.056-.198.096-.29a2.576 2.576 0 0 1 .024-.55l-.275-.061a.92.92 0 0 1-.696-1.1l.019-.084a.92.92 0 0 1 1.1-.697l.148.034c1.961.349 2.547-1.688 2.547-1.688-.043.96.381 1.073 1.09 1.2.072.013.139-.626.139-.626s.037.677.078.682c.068.007.434.156.501.16.043.004.203.088.27.113.404.151.782.258.917.325l-.365 2.076-.136.608-.015.064a2.59 2.59 0 0 1-2.592 2.02l-.326 1.454 1.195.177c-.209 1.91-2.695 2.95-3.98 1.521l-1.646-1.832 1.104.033Z" fill="#C7B6A8"/><path d="m23.362 26.166.002.089c0 .048 0 .096.004.144l.012.099c.005.043.01.087.017.13.005.034.014.067.02.1.01.042.018.083.03.123.009.034.02.067.03.1.012.04.025.078.04.117a2.752 2.752 0 0 0 .138.301 2.454 2.454 0 0 0 .33.47 2.408 2.408 0 0 0 .16.163l.076.069c.032.027.066.053.1.079.027.02.053.041.081.06.036.025.074.049.111.072l.084.051c.04.023.083.043.125.064.028.014.055.028.084.041.047.021.097.04.147.058.024.009.049.02.074.028.075.024.153.046.232.064l.223.05a2.43 2.43 0 0 0 2.904-1.839l-.015.064a2.59 2.59 0 0 1-2.594 2.021l.002.001a1.233 1.233 0 0 1-2.095-.45l-.247-.782a2.58 2.58 0 0 1-.387-1.795l.328.074a2.35 2.35 0 0 0-.016.234Z" fill="#BAA89B"/><path d="M26.555 27.906c.005 0 .01 0 .015-.003a.037.037 0 0 0 .02-.049c-.125-.29-.45-.267-.452-.266a.038.038 0 0 0-.034.04c.001.02.02.035.04.034.011 0 .273-.018.377.222.006.014.02.022.034.022ZM26.13 24.233c.053.022.121.015.188.011a3.286 3.286 0 0 1 .384-.003c.067.002.135.008.187-.016.05-.021.07-.082.01-.157-.057-.072-.203-.15-.397-.148-.193.002-.336.082-.389.156-.056.076-.034.136.017.157ZM28.69 24.844c-.058-.004-.116-.04-.174-.072a3.56 3.56 0 0 0-.344-.173c-.06-.028-.124-.053-.16-.096-.036-.042-.027-.105.06-.145.082-.04.248-.045.422.041.172.087.265.223.28.312.017.092-.03.136-.085.133ZM26.676 25.058a.034.034 0 0 0 .018-.005.037.037 0 0 0 .015-.05c-.002-.003-.14-.243-.465-.106a.037.037 0 0 0-.02.049c.008.019.03.028.049.02.262-.11.366.065.37.073.007.012.02.019.033.019ZM28.328 25.418a.037.037 0 0 0 .035-.052c-.002-.002-.104-.237-.417-.144a.038.038 0 0 0-.026.046c.006.02.027.031.047.025.25-.073.323.095.326.102.006.014.02.023.035.023Z" fill="#998678"/><path d="M22.662 25.116h.008l.383-.081-.131-.59a.038.038 0 0 0-.045-.028.037.037 0 0 0-.028.044l.115.516-.31.065a.038.038 0 0 0-.028.044c.003.018.019.03.036.03Z" fill="#F19065"/><path d="M25.449 25.307s.454.441.973.713c.52.271-.168.964-.973.593-.804-.372-.416-1.556 0-1.306Z" fill="#fff"/><path d="M27.36 26.18a.295.295 0 0 0 .295-.32l-.091-1.196a.038.038 0 0 0-.04-.034.037.037 0 0 0-.035.04l.091 1.197a.22.22 0 0 1-.273.232l-.363-.087a.037.037 0 1 0-.017.072l.363.088a.275.275 0 0 0 .07.009Z" fill="#998678"/></g><path d="m1.586 41.573 7.03.043.173 1.121-7.764-.086.561-1.078Z" fill="#989593"/><path d="M7.227 41.775c.064.317.134.633.209.947l1.353.015-.173-1.121-1.42-.009.031.168Z" fill="#C4C5D1"/><path d="m1.283 42.157-.258.494 7.764.086-.07-.457c-1.948-.043-5.763-.121-7.436-.123Z" fill="#E7D5CD"/><path d="M6.374 24.537S.508 41.788.422 42.436c-.086.647-.043 1.035.474.949.517-.087.82-1.251 1.423-2.933.604-1.683 4.831-13.63 4.831-13.63l-.776-2.285Z" fill="#989593"/><path d="M5.744 28.393c.126.51.22 1.03.302 1.55l1.104-3.12-.776-2.287-.93 2.744c.1.37.209.74.3 1.113Z" fill="#C4C5D1"/><path d="M13.75 5.214s-5.51.052-7.937.046c-1.423-.003-1.567.783-1.552 1.68.011.708.096 1.543.172 2.285.172 1.682 3.528 31.767 3.752 33.168.173 1.078.777 1.725 1.51 1.811 1.69.199 13.802.043 14.32.086.517.043 1.422-.56 1.293-1.682-.13-1.121-4.227-35.497-4.227-35.497s.044-1.725-1.639-1.811c-1.682-.086-5.693-.086-5.693-.086Z" fill="#989593"/><path d="M15.911 43.057c-4.088 0-5.387-.052-5.757-.095-.147-.018-.344-.292-.42-.767-.205-1.281-3.54-31.118-3.743-33.098-.07-.673-.155-1.51-.166-2.178a2.74 2.74 0 0 1 .015-.387c.057-.01.147-.02.277-.02h.407c2.516 0 7.344-.045 7.544-.047.174 0 4.022.003 5.624.085.143.007.44.022.451.54l-.006.104.015.066c.041.344 4.1 34.386 4.227 35.492.02.173-.037.252-.08.285a31.104 31.104 0 0 0-.743-.005c-.6 0-1.504.004-2.565.01-1.489.006-3.341.015-5.08.015Z" fill="#ACADAD"/><path d="m1.586 41.575 7.03.043.173 1.121-7.764-.086.561-1.078Z" fill="#7C6B5F"/><path d="M7.227 41.776c.064.318.134.633.209.948l1.353.015-.173-1.121-1.42-.01.031.168Z" fill="#C4C5D1"/><path d="m1.283 42.158-.258.495 7.764.086-.07-.458c-1.948-.042-5.763-.12-7.436-.123Z" fill="#E7D5CD"/><path d="M6.374 24.538S.508 41.79.422 42.437c-.086.647-.043 1.035.474.949.518-.086.82-1.25 1.423-2.933.604-1.682 4.83-13.63 4.83-13.63l-.775-2.285Z" fill="#907E72"/><path d="M5.744 28.395c.126.51.22 1.03.302 1.55l1.104-3.121-.776-2.286-.93 2.743c.1.371.209.74.3 1.114Z" fill="#C4C5D1"/><path d="M13.75 5.215s-5.51.052-7.937.047c-1.423-.003-1.567.782-1.552 1.678.011.709.096 1.544.172 2.286.172 1.682 3.528 31.767 3.752 33.168.173 1.078.777 1.725 1.51 1.811 1.69.199 13.802.043 14.32.087.517.043 1.422-.561 1.293-1.683-.13-1.121-4.227-35.497-4.227-35.497s.044-1.725-1.639-1.811c-1.682-.086-5.693-.086-5.693-.086Z" fill="#907E72"/><path d="M15.911 43.059c-4.088 0-5.387-.052-5.757-.096-.147-.017-.344-.292-.42-.767C9.529 40.916 6.194 11.08 5.99 9.1c-.07-.673-.155-1.511-.166-2.179a2.74 2.74 0 0 1 .015-.387c.057-.01.147-.02.277-.02h.407c2.516 0 7.344-.045 7.544-.046.174 0 4.022.002 5.624.084.143.007.44.023.451.54l-.006.104.015.066c.041.344 4.1 34.386 4.227 35.492.02.173-.037.252-.08.286a31.104 31.104 0 0 0-.743-.006c-.6 0-1.504.005-2.565.01-1.489.007-3.341.016-5.08.016Z" fill="#ACADAD"/><path d="M24.091 42.953c-.127-1.106-4.185-35.149-4.226-35.492l-.016-.066.007-.105c-.012-.517-.309-.532-.452-.54-1.602-.082-5.45-.084-5.623-.084-.2.002-5.029.047-7.545.047H5.826l.002-.056a3.806 3.806 0 0 0-.003.262c.01.668.096 1.505.166 2.178.203 1.98 3.538 31.817 3.743 33.098.076.475.273.75.42.767.37.043 1.669.095 5.757.095 1.739 0 3.591-.009 5.08-.016a580.01 580.01 0 0 1 3.104-.007c0-.025 0-.051-.004-.081Z" fill="#DBCABD"/><path d="M24.226 43.035h-.017.017Z" fill="#C8E6F0"/><mask id="b" style="mask-type:luminance" maskUnits="userSpaceOnUse" x="5" y="6" width="20" height="38"><path d="M24.091 42.953c-.127-1.106-4.185-35.149-4.226-35.492l-.016-.066.007-.105c-.012-.517-.309-.532-.452-.54-1.602-.082-5.45-.084-5.623-.084-.2.002-5.029.047-7.545.047H5.826l.002-.056a3.806 3.806 0 0 0-.003.262c.01.668.096 1.505.166 2.178.203 1.98 3.538 31.817 3.743 33.098.076.475.273.75.42.767.37.043 1.669.095 5.757.095 1.739 0 3.591-.009 5.08-.016a580.01 580.01 0 0 1 3.104-.007c0-.025 0-.051-.004-.081Z" fill="#fff"/></mask><g mask="url(#b)"><path d="M15.138 41.377h.048s.09.405.63.576c.54.171 1.42.314 1.65.564.23.251.045.415-.555.383-.6-.032-.91-.206-1.583-.112-.672.095-.886.236-1.247.02-.36-.216-.372-1.25-.372-1.25l1.43-.18ZM12.04 42.116s-.066.196.358.482c.477.322 1.15.506 1.403.783.253.278.095.515-.689.403-.337-.049-.762-.18-1.166-.237-.536-.077-1.036-.092-1.254-.267-.383-.308-.29-1.122-.232-1.352.058-.23 1.564-.1 1.58.188Z" fill="#7E6C5E"/><path d="m14.08 42.807.008.005c.306-.521.826-.902 1.421-1.008-.268-.189-.323-.427-.323-.427h-.048l-1.43.18s.012 1.034.373 1.25ZM12.144 42.38c-.137-.163-.103-.264-.103-.264-.017-.288-1.523-.418-1.582-.188-.05.202-.129.853.111 1.217.355-.509.961-.784 1.574-.765Z" fill="#7E6C5E"/><path d="M17.275 28.22s.95 5.93.518 7.807c-.43 1.876-2.372 5.664-2.372 5.664s-.43.317-1.186.309c-.436-.004-.712-.165-.712-.165s2.07-5.636 2.136-6.046c.064-.41-1.144-5.757-1.251-6.06-.108-.301-.237-1.984.065-1.984.3 0 2.802.475 2.802.475Z" fill="#917A69"/><path d="M14.85 31.6c.047-.597.1-1.457.074-1.957-.043-.819.087-1.66.087-1.66l-.051-.175a4.809 4.809 0 0 0-.489-.062c-.302 0-.172 1.682-.065 1.984.04.11.227.896.445 1.87Z" fill="#7B6759"/><path d="M14.622 29.298s-.69 4.162-1.143 6.254c-.453 2.092-1.423 6.6-1.423 6.6s-.388.15-.906.107-.848-.065-.848-.065.87-5.391.934-6.556c.065-1.164-.15-7.354.065-7.526.216-.172 4.249-.237 4.723-.108.474.13-1.402 1.294-1.402 1.294Z" fill="#917A69"/><path d="M11.9 29.54c.945-.431 1.95-.78 2.995-.833.519-.027 1.04.024 1.544.154.343.09.672.219.986.377-.086-.62-.15-1.018-.15-1.018s-2.502-.474-2.803-.474c-.063 0-.107.073-.136.19-1.309.005-2.901.07-3.035.177-.071.057-.095.779-.098 1.76.23-.116.463-.227.697-.334Z" fill="#7B6759"/><path d="M16.24 12.024c0-.611.496-1.192 1.04-1.444.104-.05.86-.396.806-.091-.016.088-.347.301-.424.388-.084.096-.21.214-.213.348.65-.135 2.21.23 2.302 1.055-.38.146-1.137-.076-1.418.216.4.174.854.25 1.176.572.182.183.484.737.458 1.002-.409.018-.755-.271-1.177-.258.362.28.676.727.862 1.145.11.246.238.81.06 1.04-.195-.097-.715-.435-.905-.394.135.292.344.552.457.86.102.277.18.555.264.836.1.333.321 1.198.076 1.486-.14-.211-.432-.809-.709-.827-.034.227 0 .394-.003.623a1.05 1.05 0 0 1-.043.306c-.035.116-.134.182-.17.276-.088.228-.048.517-.126.76-.064.199-.18.426-.325.577-.228.238-.32-.064-.393-.303-.066-.22-.117-.444-.168-.67a5.373 5.373 0 0 0-.456-1.274c-.295-.569-2.016-.06-1.906-.744l.934-5.485Z" fill="#332418"/><path d="M15.636 21.923s.518.798 1.38 1.337c.863.54 1.25.647 1.682.324.431-.324-1.272-5.5-1.596-5.801-.323-.302-1.402-.13-1.703-.302-.302-.173.172 2.437-.043 2.868-.216.431.28 1.574.28 1.574Z" fill="#8B786B"/><path d="M16.412 12.046c.06-.502-.519-.871-.875-1.15-.368-.29-.713-.54-1.202-.528-.025.118.361.544.466.645.168.161.406.292.532.494-.349-.22-.949-.306-1.358-.324-.394-.017-1.208.151-1.454.473.527.057.91.201 1.383.408-.303.19-.675.267-.968.512-.205.172-.554.456-.57.741.37.033 1.385-.646 1.586-.127-.545.358-1.204.538-1.788.817-.173.082-.767.373-.817.588-.077.332.566.105.452.304-.03.051-.26.068-.32.1-.13.07-.207.175-.287.298-.062.096-.242.381-.19.498.026.06.237.136.298.175.118.077.234.167.34.26.245.214.477.456.718.68.421.39.85.782 1.314 1.127.359.266.764.433 1.165.624.223.107.431.299.562.027.117-.244.101-.592.15-.855.128-.68.248-1.361.35-2.046.101-.672.237-1.33.367-1.999.06-.31.172-.667.168-.982-.003-.238-.074-.513.02-.737" fill="#332418"/><path d="M15.011 17.265s.68.272.942.314c.23.037-.274 2.166-.036 3.072.237.905.582 1.898.13 1.79-.454-.108-.734-.389-.691-.065.043.323.776 1.272 1.488 2.781.711 1.51.668 3.106.647 3.235-.022.13-1.855-.582-3.17-.604-1.316-.022-3.127.324-3.192.259-.064-.065-.668-1.683-1.014-3.106-.344-1.423-.884-4.55-.884-6.038 0-1.488 1.09-3.014 1.848-3.68.712-.626 2.451-.74 2.703.833.069.432.56.993 1.229 1.209Z" fill="#7E6C5E"/><path d="M15.356 22.376c-.032-.24.114-.148.377-.04-.187-.132-.867-.578-1.995-.887-1.337-.367-1.725-.216-1.725-.216l-.238 1.143s.97.54 2.07.69c.684.095 1.266-.194 1.61-.427a.99.99 0 0 1-.1-.263Z" fill="#716056"/><path d="M11.28 20.543c-.275.33-1.1 1.245-1.662 1.865.098.588.203 1.157.304 1.652.287-.051.767-.116 1.243-.268 1.258-.403 1.64-2.013 1.812-2.703.172-.69.632-2.847.632-2.847s-1.898 1.783-2.329 2.3Z" fill="#67564B"/><path d="M15.282 16.692s-.172.43-.086.776c.086.345.518 1.186-.194 1.531s-1.553-.474-1.66-1.186c-.109-.712.387-1.833.625-2.135.237-.302 1.315 1.014 1.315 1.014Z" fill="#F9DACE"/><path d="M15.187 17.425a1.848 1.848 0 0 1-.358.015 1.389 1.389 0 0 1-.945-.45 1.957 1.957 0 0 1-.319-.483l-.005-.013c.134-.366.297-.678.406-.816.238-.302 1.316 1.014 1.316 1.014s-.158.396-.095.733Z" fill="#E1C0B5"/><path d="M17.644 14.777c-.051.35-.152.668-.29.88-.257.392-.587.878-1.124 1.188-.23.133-.5.233-.818.278-.685.098-1.107-.076-1.371-.387a1.527 1.527 0 0 1-.052-.065l-.007-.01-.04-.059a1.488 1.488 0 0 1-.117-.214 2.103 2.103 0 0 1-.109-.318c-.087-.443.14-1.388.414-2.176.163-.47.344-.886.485-1.105.387-.604 1.25-.949 1.445-.927 0 0 .95.56 1.359 1.25.253.428.307 1.09.225 1.665Z" fill="#F9DACE"/><path d="M16.316 12.024s-.14.798-.011.982c.13.183.571 1.315.658 1.963.086.647-.011 1.045-.011 1.045s.798-.647.949-1.23c.151-.581.043-1.768-.248-2.123-.292-.356-1.122-.895-1.337-.636Z" fill="#332418"/><path d="M16.391 11.852c.037.588.21 1.03-.41 1.412-.503.312-1.107.422-1.6.74-.155.1-.585.585-.643.209-.033-.214.257-.515.345-.706.131-.287.184-.548.286-.842.106-.304.33-.504.588-.672.374-.244 1.232-.515 1.52-.012M14.752 16.066s.426-.361.744-.156.215.56.215.56-.183-.231-.442-.317c-.18-.061-.517-.087-.517-.087Z" fill="#332418"/><path d="M16.232 14.303c-.06.117-.127.23-.186.347-.046.09-.087.182-.14.27-.045.076-.093.153-.121.238-.015.046-.033.124.01.162.036.03.092.013.133.007.08-.014.159-.017.22.044.076.075.1.194.04.285a.307.307 0 0 1-.222.118.403.403 0 0 1-.293-.103c-.064-.055-.108-.127-.168-.187-.014-.014-.04.005-.028.022.097.127.209.26.374.293.144.029.323-.03.385-.174.063-.149-.058-.332-.217-.339-.033-.001-.067.004-.1.01-.025.003-.065.015-.09.004-.076-.033.018-.208.04-.251.054-.104.114-.204.166-.31.071-.142.149-.28.217-.425.006-.013-.013-.024-.02-.01ZM15.673 14.475c-.171.141-.365.333-.418.44-.01.02-.033.077-.061.15-.121.31-.321.943-.562 1.135-.226.182-.395.22-.471.226l-.12.31a1.527 1.527 0 0 1-.052-.065l-.007-.01-.04-.059a1.74 1.74 0 0 1-.226-.532c-.087-.443.14-1.388.414-2.176.107-.102.222-.21.31-.338.14-.204.285-.372.399-.47.14-.117.26-.18.347-.18a.12.12 0 0 1 .102.047c.023.033.025.076.007.124-.022.06-.102.164-.231.33l-.073.095c.03-.035.061-.067.09-.096.166-.166.385-.346.499-.346.035 0 .056.017.066.03.082.1-.053.264-.223.474-.07.086-.143.176-.19.25l-.08.13a4.51 4.51 0 0 1 .344-.322c.236-.197.328-.22.378-.22.04 0 .065.018.078.033.024.026.03.064.024.112-.011.078-.148.228-.37.467a4.406 4.406 0 0 0-.22.246c.159-.14.341-.283.445-.32a.176.176 0 0 1 .06-.013c.04 0 .069.02.081.053.042.117-.187.4-.3.495Z" fill="#E1C0B5"/><path d="M13.24 16.232s.228-.555.383-1.131c.079-.295.172-.746.215-.834.087-.173.257-.213.403-.395.316-.396.432-.612.623-.775.288-.244.417-.183.374-.068-.043.115-.402.514-.56.787-.159.273-.23.343-.23.343s.416-.501.66-.746c.245-.244.45-.367.49-.32.082.1-.274.435-.418.665l-.373.604s.37-.442.715-.73c.345-.287.41-.222.395-.122-.014.1-.42.493-.55.65-.129.16-.258.389-.258.389s.532-.518.733-.59c.202-.071-.038.302-.21.446-.172.144-.403.35-.46.466-.057.115-.293 1.03-.58 1.26-.288.23-.475.215-.475.215l-.201.518-.719-.403.043-.23Z" fill="#F9DACE"/><path d="M15.573 15.01a.122.122 0 0 0-.1-.078c-.073-.008-.11.078-.096.14.011.05.057.076.106.068.064-.01.114-.064.09-.13ZM16.117 16.056a.076.076 0 0 0-.062-.049c-.045-.005-.069.049-.06.087.007.032.036.048.066.043.04-.006.07-.04.056-.081ZM14.832 16.641a.114.114 0 0 0-.093-.073c-.068-.007-.102.072-.089.13.01.047.053.071.099.064.06-.01.105-.06.082-.12ZM15.94 16.545a.097.097 0 0 0-.08-.063c-.058-.006-.088.062-.076.112.009.04.045.061.085.055.051-.008.091-.051.071-.104Z" fill="#F19999"/><path d="M16.952 16.014s.097-.399.01-1.045a5.16 5.16 0 0 0-.191-.792l.014.251c-.1-.324-.26-.74-.347-.798a.102.102 0 0 0-.058-.02.085.085 0 0 0-.065.03c-.066.082-.027.324-.007.424.016.075.044.223.075.384a1.916 1.916 0 0 0-.033-.085c-.017-.037-.104-.223-.204-.223-.037 0-.083.02-.1.117-.022.126.057.431.14.755.048.18.091.352.115.482.04.217.006.541-.03.856-.017.176-.036.344-.04.495.536-.31.866-.796 1.123-1.188.01-.017.018-.034.026-.05-.222.24-.428.407-.428.407Z" fill="#E1C0B5"/><path d="M16.457 17.49s-.172-.216-.161-.647c.01-.431.136-1.046.072-1.402-.065-.356-.288-1.035-.255-1.219.032-.183.161.022.204.119l.326.717s-.225-.832-.268-1.048c-.043-.215-.046-.445.05-.38.097.064.378.851.41 1.1.033.247.131.306.131.306s-.163-1.198-.13-1.37c.032-.173.15-.07.182.082.033.151.145.532.2.785.048.225.126.439.126.439s.04-.338-.067-.717c-.09-.324-.151-.647-.043-.658.108-.01.18.356.334.81.057.168.142.32.214.482.077.172.091.366.02.539a4.862 4.862 0 0 0-.194.588 4.087 4.087 0 0 0-.147.881c-.011.292.032.4.032.4l-1.035.193Z" fill="#F9DACE"/><path d="M9.511 17.51s-.948 2.645-.632 4.413c.248 1.387.719 1.948 2.272 1.445 1.553-.503.934-3.314.776-3.803-.158-.489-.604-2.128-.906-2.242-.302-.116-1.452 0-1.51.186Z" fill="#7E6C5E"/><path d="M12.93 16.478s-1.845 2.372-2.675 3.58c-.251.366-.118 1.498-.118 1.498s1.617-1.12 2.2-2.091c.581-.97 1.077-2.114 1.1-2.222.021-.108.042-.755.042-.755l-.55-.01Z" fill="#67564B"/><path d="M13.026 16.532s-2.933 3.903-2.954 4.119c-.022.215-.238 1.898.496 2.393.733.497 1.035-.021 1.12-.021.087 0 .82-1.23 1.273-2.718.453-1.488 1.143-3.342 1.143-3.342s-.776-.54-1.078-.431Z" fill="#7E6C5E"/><path d="M14.105 16.963s-.179-.123-.398-.24c-.213.721-1.494 5.005-2.125 6.149-.069.124-.155.297-.218.402.168-.069.33-.217.384-.272.062-.061.76-1.208 1.214-2.696.453-1.489 1.143-3.343 1.143-3.343Z" fill="#8B786B"/><path d="M14.3 16.664s.056.04.017.186c-.021.078-.06.334-.206.355-.098.014-.313-.273-.655-.397-.365-.133-.624-.073-.691-.126-.067-.052.143-.36.25-.483.107-.125.533-.063.81.091.276.154.476.374.476.374Z" fill="#67564B"/><path d="M16.183 17.404s.014 3.28.396 4.422c.383 1.142 1 2.002 1.908 1.917.908-.085.932-1.465.517-2.435-.414-.971-1.395-3.846-1.408-4.02-.013-.175-.026-.276-.026-.276s-.518.005-.908.128c-.39.122-.48.264-.48.264Z" fill="#7E6C5E"/><path d="M17.5 16.712s.076-.003.135.137c.031.076.16.303.038.41-.081.07-.492-.076-.886.033-.422.118-.593.374-.689.373-.095 0-.099-.374-.08-.538.018-.165.45-.376.804-.422.354-.047.678.007.678.007ZM10.935 27.832s.086.41.129.56c.043.152 2.156-.28 3.429-.236 1.272.043 2.803.539 3.019.56.215.022.172-.797.108-.84-.065-.044-1.725-.561-3.257-.496-1.53.064-3.364.323-3.428.452Z" fill="#67564B"/><path d="M14.629 10.017a4.17 4.17 0 0 1 .066-.53c.03-.155.101-.332.09-.49-.003-.034-.023-.06-.058-.062-.271-.025-.492.168-.747.22l.072.06c.005-.204-.065-.392-.133-.581a2.4 2.4 0 0 1-.089-.284c-.02-.09-.006-.206-.056-.285-.011-.016-.035-.024-.05-.008-.12.124-.006.395.04.53.072.202.165.406.17.623 0 .036.033.071.071.06.11-.03.211-.088.314-.138.07-.034.288-.166.362-.096l-.008-.072c-.082.148-.1.35-.128.516a1.67 1.67 0 0 0-.017.547c.01.057.097.046.1-.01ZM12.117 10.723c.11.03.082-.22.077-.263a2.173 2.173 0 0 0-.114-.468c-.018-.05-.09-.06-.127-.028-.04.034-.058.08-.096.114-.051.047-.116.085-.176.12a.858.858 0 0 1-.375.125l.054.051a1.114 1.114 0 0 0-.147-.6 2.834 2.834 0 0 0-.168-.27c-.053-.076-.108-.175-.194-.216-.022-.01-.044.012-.041.034.011.083.079.155.126.22.059.082.117.165.167.253.1.175.167.367.165.57 0 .032.022.052.054.05a.91.91 0 0 0 .389-.123c.058-.032.113-.069.168-.107.058-.04.123-.053.18-.094l-.128-.029c.034.103.065.234.092.348.014.063.03.125.048.187.005.018.024.106.041.09-.011.01-.011.032.005.036ZM10.987 13.085c-.13-.066-.27-.107-.402-.165a2.323 2.323 0 0 1-.39-.22c-.038-.026-.093 0-.104.042-.042.163-.124.32-.208.465-.082.143-.197.344-.366.397-.17.054-.346-.1-.487-.174-.131-.068-.364-.159-.48-.016-.017.021-.014.058.018.065.102.022.203-.005.306.03.093.03.177.086.264.132.149.08.316.14.476.054.332-.177.417-.607.606-.898l-.11.014c.202.195.567.382.855.36.04-.004.066-.064.022-.086Z" fill="#746358"/><path d="M15.22 2.601c-.949 1.04-2.206 1.857-3.25 2.804-.508.461-1.648 1.233-2.079 1.998-.134.237.077.527.341.46.774-.196 1.646-1.003 2.236-1.339.547-.311 1.093-.698 1.66-.993.106-.056.207.082.122.166-2.123 2.083-4.756 3.489-6.648 5.796-.723.881-.639 1.314-.639 2.462 0 1.097-.262 4.962.587 5.801.928.918 2.508-.254 3.4-.758 1.169-.66 2.27-1.402 3.358-2.189.534-.386 2.037-1.7 2.97-2.037.181-.065.348.13.253.297-.588 1.036-2.448 1.998-2.778 3.099a.21.21 0 0 0 .236.27c.506-.088.986-.635 1.362-.906.668-.484 1.364-.91 1.997-1.442 1.174-.988 2.384-1.926 3.586-2.881.529-.42.79-.81 1.165-.187.4.665.302 1.902.357 2.647.05.675.328 1.496-.146 1.932-.277.256-.95.476-1.295.702a19.87 19.87 0 0 0-1.533 1.12c-2.047 1.638-6.002 5.465-6.437 4.997-.273-.294 2.443-2.282 2.687-3.457a.21.21 0 0 0-.27-.244c-.87.284-1.977 1.382-2.631 1.859-.908.661-1.821 1.313-2.703 2.005-.896.704-2.736 1.688-2.895 2.865-.131.974.297.392.434 1.367.136.965.228 1.935.348 2.895.148 1.2.346 2.384.574 3.566.402.062.89-.156 1.239-.362 1.349-.799 3.782-3.048 4.364-2.53.194.172-1.389.915-1.014 1.316.506.54 1.81-.817 2.394-1.187.848-.535 1.568-1.22 2.358-1.837 1.012-.792 2.034-1.563 3.048-2.34.4-.307 2.505-1.8 3.026-1.603.403.153-.106 2.795-.164 3.18-.436-.947-1.848.291-2.405.665-1.215.817-4.461 2.625-3.918 3.19.5.518 3.274-2.16 3.706-1.505.436.66-2.614 1.731-3.203 2.07-1.28.74-2.636 1.518-3.8 2.432-.92.723-1.912 1.343-2.822 2.064-.485.384-1.348.968-1.463 1.62-.146.829.629 1.09 1.368 1.027 1.839-.155 4.192-1.157 5.689-2.108.796-.506 1.612-.99 2.406-1.49.6-.379 1.908-1.556 2.066-1.2.312.702-2.994 2.388-2.772 2.86.313.668 2.735-1.545 3.785-2.26.823-.56 1.575-1.1 2.49-1.483.055.445-.305.594-.619.83-.913.69-1.764 1.422-2.647 2.158-.783.653-1.64 1.208-2.397 1.898-.66.601-1.288 1.383-2.081 1.803-.85.45-2.009.335-2.946.478-1.276.194-2.839.041-4.116.233-1.9.285-1.983-.94-2.428-2.584-.723-2.671-1.254-5.65-1.566-8.396-.133-1.18-.344-2.328-.543-3.496-.253-1.488-.098-2.888-.166-4.376-.093-2.046-.388-4.084-.459-6.125-.052-1.525-.076-2.961-.26-4.474-.079-.636-.23-1.305-.276-1.94-.12-1.647 1.26-2.132 2.374-2.994.668-.517 1-1.059.758-1.504a.607.607 0 0 1 .113-.749c1.276-1.14 2.437-1.813 3.9-2.668.637-.375 1.818-1.289 2.613-1.288Z" fill="#fff"/><path d="M17.683 9.85c.286-.059.556-.18.82-.3.021-.01.03-.038.025-.059-.043-.166-.163-.298-.206-.463-.009-.033-.012-.071-.025-.103-.002-.007 0-.038-.013-.02.014-.022.09-.04.113-.054.146-.085.297-.137.46-.179l.247-.06c.065-.016.149-.035.186-.096.015-.024 0-.05-.024-.06-.073-.029-.173.014-.245.032-.095.025-.19.048-.283.075-.171.05-.31.13-.462.223-.09.055-.087.106-.068.206a.805.805 0 0 0 .081.244c.05.093.109.18.136.284l.025-.06c-.256.12-.51.252-.785.326-.041.01-.024.072.018.064Z" fill="#746358"/></g><path d="M36.607 42.032h-.049s-.092.41-.64.585c-.548.174-1.442.319-1.676.574-.234.255-.047.421.564.389.61-.033.925-.21 1.609-.114.683.095.9.239 1.267.019.366-.22.378-1.27.378-1.27l-1.453-.183ZM39.755 42.783s.069.2-.363.49c-.484.327-1.168.514-1.425.796-.258.282-.097.523.7.409.343-.05.775-.182 1.185-.24.545-.079 1.053-.094 1.276-.273.39-.312.293-1.14.235-1.373-.06-.234-1.59-.103-1.608.19Z" fill="#67564B"/><path d="M36.607 42.032h-.049s-.037.165-.205.33c.136.065.278.114.42.162.241.08.49.16.658.364.14.17.17.385.119.595l-.022.076c.05-.018.1-.042.154-.074.367-.22.379-1.27.379-1.27l-1.454-.183ZM41.363 42.592c-.06-.234-1.59-.103-1.607.19 0 0 .038.113-.124.291.28.026.56.048.832.12.212.055.443.145.563.34a.61.61 0 0 1 .053.465.415.415 0 0 0 .048-.033c.39-.312.294-1.14.235-1.373Z" fill="#343230"/><path d="M35.212 27.425s.536 5.051.635 6.62c.242 3.792.548 8.154.548 8.154s.373.154.921.33c.548.175.79.11.79.11s.372-3.157.57-4.999c.197-1.84.35-2.937.438-4.91.087-1.973.307-5.392.307-5.392l-4.21.087Z" fill="#917A69"/><path d="M37.768 28.953c.119.72.185 1.45.248 2.177.035.402.067.806.102 1.208.035.394.08.786.125 1.179.09.799.157 1.6.222 2.402.055.68.117 1.359.177 2.038l.034-.318c.197-1.84.35-2.937.438-4.91.036-.805.094-1.851.15-2.808l-1.496-.968Z" fill="#7B6759"/><path d="M36.05 27.469s1.582.875 1.9 1.985c.316 1.11.949 5.542 1.096 6.832.147 1.29.325 2.763.464 3.918.138 1.156.102 2.673.102 2.673s.557.141 1.108.172c.552.031.766-.048.766-.048s.086-5.823.087-8.038c.002-2.215-.29-6.263-.442-6.96-.151-.698-.201-.894-.201-.894l-4.88.36Z" fill="#917A69"/><path d="M35.36 28.833c.416-.075.947-.147 1.616-.2 1.516-.119 3.124-.475 4.134-.731-.135-.616-.18-.794-.18-.794l-3.482.257-1.855.203.095.05-.45.039c.024.244.068.662.121 1.176Z" fill="#7B6759"/><path d="M35.497 11.072s-.92-.548-1.841.35c-.92.899-1.074 2.236-.811 3.003.263.767.219 1.228.022 2.368-.198 1.14-.132 1.754.57 2.565.7.81 2.805 1.315 4.669.964 1.863-.35 2.85-2.499 2.828-3.53-.022-1.03-.526-1.512-1.315-2.454-.79-.943-.833-2.39-1.316-3.025-.482-.636-1.512-.79-2.148-.57-.512.177-.658.329-.658.329Z" fill="#332418"/><path d="M38.062 16.713s1.154.087 2.236.906c1.08.818 1.534 2.294 1.636 2.981.103.687.044 1.725-.57 2.236-.613.512-1.46-.204-1.665-.628-.205-.424-1.155-3.64-1.315-4.18a19.786 19.786 0 0 1-.322-1.315Z" fill="#7E6C5E"/><path d="M41.02 27.469c-.088-.022-1.643-.22-2.498-.22-.855 0-3.42.089-3.42-.021s-.036-2.07-.197-3.298c-.019-.142-.04-.337-.06-.574-.139-1.47-.302-4.464-.026-5.159l.011-.025.012-.024.013-.023.01-.016a1.47 1.47 0 0 1 .128-.125l.064-.052a3.919 3.919 0 0 1 .417-.284l.102-.06c.465-.27.952-.488.952-.488s.723-.065 1.227-.196c.504-.133 1.93.482 1.93.482s.438 2.235.635 3.134c.197.9.57 2.039.745 3.902.175 1.863.044 3.07-.044 3.047Z" fill="#7E6C5E"/><path d="M36.265 16.508s.175.438.087.79c-.087.35-.526 1.205.198 1.556.723.35 1.578-.482 1.688-1.206.11-.724-.395-1.863-.636-2.17-.241-.307-1.337 1.03-1.337 1.03Z" fill="#F9DACE"/><path d="M36.36 17.253c.12.017.242.023.364.016.37-.021.71-.185.96-.457.133-.145.24-.314.325-.49l.005-.014c-.137-.372-.302-.689-.413-.83-.241-.307-1.337 1.03-1.337 1.03s.16.403.097.745Z" fill="#E1C0B5"/><path d="M37.843 15.938c-.197.658-.636 1.162-1.71 1.008a2.274 2.274 0 0 1-.83-.282c-.547-.315-.882-.81-1.143-1.208-.141-.215-.244-.539-.296-.895-.083-.584-.028-1.256.23-1.692.416-.701 1.382-1.271 1.382-1.271.197-.022 1.074.328 1.468.942.395.615 1.096 2.74.899 3.398Z" fill="#F9DACE"/><path d="M35.453 11.368s.055.307-.427.844c-.482.537-.647.537-.844 1.074-.178.485-.011 1.6.164 2.17.176.57.68 2.214.581 2.324-.099.11-1.545.47-1.523-.702.021-1.173-.143-3.474.032-4.055.176-.581.33-.976.614-1.228.286-.252 1.327-.515 1.403-.427Z" fill="#332418"/><path d="M34.944 27.278c.011.226.138.504.138.504.013.048.057.074.106.078.361.036 1.711.008 3.092-.088 1.385-.096 2.223-.179 2.627-.248.203-.036.277-.126.285-.232.016-.226.027-.577-.072-.558-.607.12-2.777.324-3.775.388-.921.059-1.957.057-2.318.068a.085.085 0 0 0-.084.088Z" fill="#67564B"/><path d="M34.664 22.098s1.074-.504 3.09-.46c2.018.044 2.74.35 2.74.35s-.723.593-2.652.987c-1.928.394-3.178-.877-3.178-.877Z" fill="#716056"/><path d="M35.576 17.587c-.006.64-.05 2.793-.32 4.489-.089.554-.24.969-.412 1.28-.138-1.471-.3-4.464-.025-5.16l.011-.024.012-.025.013-.022.01-.016a1.47 1.47 0 0 1 .128-.125l.064-.053a3.919 3.919 0 0 1 .417-.283l.102-.06Z" fill="#67564B"/><path d="M35.28 14.091c.092.197.198.387.292.584.043.091.093.19.096.294.003.088-.048.144-.12.188-.059.036-.124.062-.179.104-.043.034-.1.09-.097.15.004.122.198.104.274.085.084-.02.167-.047.247-.08a.522.522 0 0 0 .21-.133c.014-.018-.008-.042-.025-.026a.963.963 0 0 1-.402.198c-.069.019-.147.042-.217.02-.11-.037-.035-.142.026-.189.091-.07.225-.097.288-.2.078-.126-.01-.295-.067-.41-.099-.201-.204-.398-.307-.596-.007-.012-.025-.001-.02.011Z" fill="#E1C0B5"/><path d="M35.23 15.29c-.04.221-.005.55.03.87.018.18.037.35.042.504-.546-.315-.881-.81-1.142-1.208-.141-.215-.085-.496-.137-.852.01-.11.022-.19.038-.306.04-.282.074-.623.069-.818.05-.08.105-.128.162-.128.038.005.062.017.078.04.047.062.027.178-.014.397-.017.09-.037.19-.05.292-.005.041-.01.083-.013.124.03-.152.078-.32.117-.453a4.82 4.82 0 0 0 .055-.204c.022-.108.09-.217.174-.217.034 0 .094.018.116.134.017.09.002.422-.018.74.102-.329.264-.752.353-.81.02-.014.04-.02.059-.02.025 0 .049.01.066.031.067.083.027.329.007.43-.016.077-.044.227-.076.392.014-.04.026-.07.033-.087.017-.038.106-.227.208-.227.037 0 .084.02.102.119.022.128-.058.439-.143.767-.047.184-.091.358-.116.49Z" fill="#E1C0B5"/><path d="M35.07 17.32s.175-.22.164-.659c-.01-.438-.138-1.063-.073-1.425.066-.361.293-1.052.26-1.238-.033-.186-.164.022-.209.12-.044.099-.263.724-.263.724s.161-.84.205-1.06c.043-.219.047-.453-.051-.387-.099.066-.384.866-.417 1.118-.033.252-.066.307-.066.307s.1-1.213.066-1.388c-.033-.176-.153-.07-.186.084-.033.153-.175.57-.197.832a2.1 2.1 0 0 1-.066.406s-.044-.384 0-.724c.044-.34.153-.657.044-.668-.11-.011-.274.34-.34.822-.066.482-.099.976-.055 1.403.044.428.154.833.165 1.129.01.296-.033.405-.033.405l1.052.198Z" fill="#F9DACE"/><path d="M33.911 16.947s.527-.117.921 0c.395.117.673.497.673.497s-.059 4.72-.79 5.67c-.73.95-1.71.35-1.856-.702-.146-1.052.527-3.74.746-4.472.219-.73.306-.993.306-.993Z" fill="#7E6C5E"/><path d="M33.305 21.572c.112-1.523.71-3.958.891-4.667-.166.015-.284.042-.284.042s-.088.263-.307.993c-.22.731-.892 3.42-.745 4.472.064.465.29.84.587 1.034-.14-.346-.214-.883-.142-1.874Z" fill="#8C796B"/><path d="M34.018 16.53s-.081-.003-.143.139c-.033.077-.168.307-.036.416.087.073.527-.072.95.044.453.124.64.387.741.387.103 0 .103-.38.08-.548-.02-.168-.485-.387-.865-.438-.38-.05-.727 0-.727 0Z" fill="#67564B"/><path d="M35.84 16.226c.034-.163.043-.349.223-.42a.436.436 0 0 1 .301-.004c.047.016.09.04.13.067.044.03.083.079.134.091a.056.056 0 0 0 .068-.068c-.015-.06-.087-.105-.136-.135a.653.653 0 0 0-.177-.074.573.573 0 0 0-.362.018.404.404 0 0 0-.217.21.557.557 0 0 0-.037.316c.008.034.065.034.073-.001Z" fill="#E1C0B5"/><path d="M35.453 11.203s-.285.45-.274.581c.011.132 1.337 1.754 1.764 2.28.428.526 1.305 1.82 1.491 1.797.186-.021-.548-3.145-.888-3.606-.34-.46-1.206-.975-1.304-.997-.098-.022-.789-.055-.789-.055Z" fill="#332418"/><path d="M37.842 15.938c.105-.35-.045-1.116-.267-1.848-.257-.469-.61-1.034-.86-1.246-.142-.12-.264-.185-.352-.185-.046 0-.083.018-.104.049-.023.033-.026.077-.008.125.023.06.105.168.236.337l.074.096a2.285 2.285 0 0 0-.091-.098c-.17-.17-.392-.35-.508-.35a.084.084 0 0 0-.067.03c-.084.1.053.268.226.481.072.088.146.18.194.256l.081.13a4.79 4.79 0 0 0-.35-.327c-.24-.2-.334-.223-.384-.223a.1.1 0 0 0-.08.034c-.023.026-.03.065-.024.113.012.08.15.232.377.475.078.083.152.161.194.212l.03.037c-.162-.14-.347-.287-.454-.325a.18.18 0 0 0-.06-.012c-.04 0-.07.02-.082.054-.043.118.19.407.304.502.174.144.319.328.373.436.01.021.033.08.062.154.123.314.38.968.624 1.164.23.184.402.222.479.23l.122.313c.145-.17.245-.383.315-.614Z" fill="#E1C0B5"/><path d="M38.34 16.04s-.366-1.096-.63-1.622c-.262-.526-.73-1.315-1.022-1.563-.293-.249-.424-.187-.38-.07.044.117.41.523.57.8.16.278.204.41.204.41s-.395-.57-.643-.819c-.249-.248-.457-.372-.497-.325-.084.102.278.442.424.676.146.234.38.614.38.614s-.376-.45-.727-.742c-.35-.292-.417-.227-.402-.124.015.102.428.5.56.661.13.161.262.395.262.395s-.54-.526-.745-.599c-.204-.073.038.307.214.453.175.146.327.336.385.453.059.117.38 1.066.672 1.3.293.234.483.22.483.22l.204.526.73-.41-.043-.234Z" fill="#F9DACE"/><path d="M40.32 20.52c-.064-.29-.153-.72-.244-1.168a427.37 427.37 0 0 0-2.361-2.44 4.767 4.767 0 0 1-.206.047c.114.996.52 4.276 1.05 5.35.496 1.01 1.314 1.447 2.177 1.404.09-.005.17-.01.246-.017-.192-1.444-.492-2.4-.663-3.176Z" fill="#67564B"/><path d="M38.73 17.68c.395.637 2.587 3.925 2.587 3.925s-.066-.767-.779-2.116a120.824 120.824 0 0 0-1.388-2.503 4.643 4.643 0 0 0-.96-.258c.038.115.207.416.54.953Z" fill="#67564B"/><path d="M37.477 16.669s.438 2.806.803 4.033c.365 1.228.862 2.207 1.652 2.5.789.292 1.417-.205 1.651-.6.234-.394-.38-1.563-.847-2.44-.468-.877-1.827-3.2-2.032-3.566-.204-.365-.365-.555-.365-.555s-.73.496-.862.628Z" fill="#7E6C5E"/><path d="M38.894 21.112c-.658-1.888-.97-3.992-1.064-4.716-.157.112-.301.22-.353.273 0 0 .438 2.806.803 4.033.365 1.228.862 2.207 1.652 2.5.048.017.096.032.143.044-.371-.413-.812-1.078-1.18-2.134Z" fill="#8C796B"/><path d="M37.283 16.45s-.057.034-.031.185c.014.082.03.343.17.38.095.026.328-.238.672-.324.367-.091.614-.001.684-.046.07-.046-.11-.378-.204-.516-.094-.137-.513-.124-.796 0-.282.123-.495.322-.495.322Z" fill="#67564B"/><path d="M24.378 42.749C24.25 41.643 20.192 7.6 20.15 7.257l-.015-.066.006-.105c-.011-.517-.308-.532-.451-.54-1.602-.082-5.45-.084-5.624-.084-.2.002-5.028.047-7.544.047h-.407c-.13 0-.22.01-.277.02-.006.04-.011.1-.014.18h.004l.406.001c2.516 0 7.344-.045 7.544-.046.174 0 4.022.002 5.624.084.143.007.44.023.452.54l-.007.104.016.066c.04.344 4.098 34.386 4.226 35.492.004.03.004.056.003.081.09.001.156.002.205.004.043-.035.1-.113.08-.286Z" fill="#746358"/><g opacity=".64" fill="#907E72"><path d="m41.821 11.856.486-1.492.641.21a.052.052 0 0 1 .033.066l-.453 1.393a.052.052 0 0 1-.014.022l-.003.003a.05.05 0 0 1-.048.008l-.642-.21ZM40.2 11.09a.235.235 0 0 1 .092-.082.29.29 0 0 1 .067-.024.179.179 0 0 1-.005-.181l.006-.013.008-.013.009-.013a.287.287 0 0 1 .026-.033.174.174 0 0 1 .053-.04.261.261 0 0 1 .109-.027.262.262 0 0 1-.017-.25.386.386 0 0 1 .027-.048.152.152 0 0 1 .043-.046l.004-.003a.268.268 0 0 1 .111-.035.218.218 0 0 1-.009-.01c-.001-.004-.004-.006-.005-.008a.224.224 0 0 1-.017-.027l-.004-.009a.143.143 0 0 1-.011-.037.163.163 0 0 1 .012-.09.221.221 0 0 1 .027-.048.232.232 0 0 1 .009-.012l.005-.005a.193.193 0 0 1 .052-.04l.02-.009.006-.003.014-.004a.281.281 0 0 1 .03-.008l.022-.004a.45.45 0 0 1 .055-.004h.032a.9.9 0 0 1 .049.004l.016.002.047.008.015.003.022.005.013.003a.04.04 0 0 1 .007.002l.013.003.025.007c.05.014.084.027.084.027l.725.236v-.001l.184.06-.486 1.493a.446.446 0 0 0-.202-.008c-.054.009-.093.022-.093.022a1.946 1.946 0 0 0-.283.142c-.236.144-.303.327-.36.417l-.001.001c-.03.045-.055.066-.1.046-.124-.056-.256-.327.218-.87a4.9 4.9 0 0 1-.19-.05c-.004 0-.007-.002-.011-.003h-.002c-.002-.002-.005-.002-.007-.003a3.952 3.952 0 0 1-.204-.065.781.781 0 0 1-.235-.116.152.152 0 0 1-.033-.044l-.003-.006-.004-.011a.178.178 0 0 1-.008-.03l-.002-.013a.216.216 0 0 1 .034-.135Z"/></g><path d="m34.592 7.856.28-.547-1.66-.847-.537 1.052-2.294-1.17.208-.408 1.886.963.537-1.051 2.067 1.054.319-.625.645 1.325-1.451.254Z" fill="#907E72" opacity=".64"/><g opacity=".46" fill="#C8E6F0"><path d="M5.832 6.622c0-.013.002-.025.003-.035l-.003.035ZM5.836 6.58l.004-.032-.004.032ZM24.233 43.012h-.017.017ZM24.306 43.014l-.042-.001h.042Z"/></g><path opacity=".18" d="M24.098 42.93C23.97 41.825 19.91 7.82 19.87 7.476l-.015-.066.006-.105c-.012-.516-.309-.531-.452-.539-1.602-.082-5.452-.084-5.625-.084-.2.002-5.03.046-7.548.046H5.826l.002-.055a3.8 3.8 0 0 0-.003.262c.01.667.097 1.503.166 2.176.203 1.977 3.54 31.782 3.744 33.062.076.474.274.748.421.766.37.043 1.67.095 5.76.095 1.738 0 3.592-.01 5.08-.016a593.446 593.446 0 0 1 3.105-.008c0-.024 0-.05-.003-.08Z" fill="#C4B3A6"/></g><defs><clipPath id="a"><rect width="48" height="48" rx="24" fill="#fff"/></clipPath></defs></svg>