<svg width="48" height="48" fill="none" xmlns="http://www.w3.org/2000/svg"><g clip-path="url(#a)"><rect width="48" height="48" rx="24" fill="#fff"/><g opacity=".51" fill="#CFBFB3"><path d="M40.325 16.863c-1.134-2.943-3.4-4.907-6.119-6.466C28.3 7.009 24.13 6.575 20.136 9.702c-3.996 3.127-7.47 9.12-9.99 10.423-2.518 1.303-4.516 2.954-4.342 7.905.173 4.95 3.735 4.082 4.169 8.078.434 3.996 3.214 7.21 7.818 8.078 4.603.869 6.08-2.432 10.162-3.127 4.083-.695 4.691 1.564 9.99.869 5.298-.696 6.948-9.642 5.906-14.593a39.234 39.234 0 0 0-2.397-7.468c-.42-.97-.74-2.004-1.126-3.004Z"/><path opacity=".7" d="M40.325 16.863c-1.134-2.943-3.4-4.907-6.119-6.466C28.3 7.009 24.13 6.575 20.136 9.702c-3.996 3.127-7.47 9.12-9.99 10.423-2.518 1.303-4.516 2.954-4.342 7.905.173 4.95 3.735 4.082 4.169 8.078.434 3.996 3.214 7.21 7.818 8.078 4.603.869 6.08-2.432 10.162-3.127 4.083-.695 4.691 1.564 9.99.869 5.298-.696 6.948-9.642 5.906-14.593a39.234 39.234 0 0 0-2.397-7.468c-.42-.97-.74-2.004-1.126-3.004Z"/></g><g opacity=".66" stroke="#6C5B50" stroke-width=".044" stroke-miterlimit="10"><path d="M18.956 24.952s-1.752.522-2.707-.314c-.956-.836 1.54-1.776 2.389-1.463.849.313.265 1.359-1.009.888-1.274-.47-2.07-1.254.053-1.515 2.123-.261.902.68.16-.523-.744-1.201 1.326-2.821 2.388-2.508 1.062.314-.796 1.411-1.433.784s-3.344-1.985 1.062-2.194c4.405-.21 3.078 1.097 2.176 1.097-.902 0-3.079-2.194-1.699-2.404 1.38-.208 3.185 1.045 3.132 1.777-.052.731-2.335-1.097-1.168-2.3 1.168-1.201 2.601 0 2.814 1.36.212 1.358-1.38 1.619-.902.156.477-1.463 1.22-2.56 1.91-1.201.69 1.358.797 3.134.425 2.925-.372-.209-.85-4.18 1.008-2.716 1.858 1.463 1.7 2.612 1.328 2.978-.372.366-2.39-4.023.37-2.09 2.761 1.933-.105 3.396.531 4.598.637 1.201 2.548.261 2.07-2.142-.477-2.404-1.645-1.672-2.335-.314-.69 1.359 1.54 4.911 2.336 3.449.192-.355.292-.767.322-1.169.095-1.26-.49-2.421-1.013-1.391-.69 1.358.478 2.455 1.805 2.037 1.327-.417.58-1.861-.106-1.253-.686.608-.85.888-.265 1.724.584.836 1.008 3.24-.743 2.56-1.752-.68.159-2.352 1.857-1.83 1.699.523 1.115 1.307.637 2.09-.477.784-1.805.889-1.433 1.62.372.732 1.274 1.777 1.752.261.477-1.515-1.221-1.985-2.496-1.358"/><path d="M19.221 25.735s-2.282-.627-2.654-2.09c-.371-1.463 1.009-.992.956-.052-.053.94-.372 2.351-1.327 2.09-.956-.262-.637-4.128.796-4.546 1.433-.418 3.185.94 2.336 1.359-.85.417-1.593-1.254-.69-2.56.902-1.307 2.6-.68 2.547-.053-.052.627-2.282-1.776-2.229-2.508.053-.731.85-2.038 1.593-1.15.743.889 2.547 4.076 1.486 2.979-1.062-1.097-1.274-1.985-.266-2.56 1.009-.575 1.699-.68 1.699.627 0 1.306-.366 2.453-.156.338.21-2.114 1.802-3.16 2.386-1.488.584 1.672.69 3.449.212 2.09-.477-1.358 2.654-2.142 2.39-1.62-.266.523-1.912.993-1.38 1.411.53.418 2.919-.574 3.874.262.956.836-.743.679-1.274 1.567-.53.889 2.867-.47 3.08.47.212.94-2.655 1.202-2.814 1.986-.16.783 5.786 2.35 3.769 2.821-2.018.47-2.814.052-2.867.209"/><path d="M18.69 24.377s-2.123 1.41-1.91 1.829c.212.418 2.495-.68 2.123.052-.372.732-1.858 1.202-1.168 1.41.69.21 1.751-.104 2.017-.574"/><path d="M20.177 28.086s-1.327-.522-2.07-1.515c-.743-.993.265-3.291 1.009-3.5"/><path d="M32.107 24.998s2.009.609 3.104-.365c1.096-.974-1.765-2.07-2.738-1.704-.974.365-.305 1.582 1.156 1.035 1.46-.548 2.374-1.461-.06-1.765-2.436-.305-1.036.79-.184-.609.852-1.4-1.52-3.287-2.738-2.921-1.217.365.913 1.643 1.643.913s3.834-2.313-1.217-2.556c-5.052-.244-3.53 1.278-2.495 1.278 1.034 0 3.53-2.556 1.947-2.8-1.582-.243-3.651 1.218-3.59 2.07.06.852 2.677-1.279 1.338-2.678-1.339-1.4-2.982 0-3.225 1.582-.244 1.582 1.582 1.887 1.034.183-.547-1.704-1.4-2.982-2.19-1.4-.792 1.582-.914 3.651-.488 3.408.426-.243.974-4.869-1.156-3.165-2.13 1.704-1.948 3.043-1.522 3.47.427.425 2.739-4.687-.426-2.435-3.165 2.252.122 3.956-.608 5.356s-2.922.304-2.374-2.495c.547-2.8 1.887-1.948 2.678-.366.79 1.582-1.765 5.721-2.678 4.017-.221-.412-.335-.892-.37-1.361-.108-1.468.561-2.82 1.161-1.621.791 1.582-.548 2.86-2.07 2.374-1.52-.488-.664-2.17.122-1.461.787.708.974 1.034.305 2.008-.67.974-1.157 3.774.852 2.982 2.008-.79-.183-2.738-2.13-2.13-.487.152-.81.323-1.013.51"/><path d="M31.803 25.911s2.617-.73 3.043-2.435c.427-1.704-1.156-1.156-1.095-.06.06 1.095.426 2.738 1.521 2.434 1.096-.304.73-4.808-.913-5.295-1.643-.487-3.651 1.096-2.678 1.582.974.487 1.826-1.46.792-2.982-1.035-1.521-2.983-.791-2.922-.06.061.73 2.617-2.07 2.556-2.922-.06-.852-.973-2.374-1.825-1.34-.852 1.035-2.922 4.748-1.704 3.47 1.217-1.279 1.46-2.313.304-2.983-1.157-.669-1.948-.79-1.948.73 0 1.522.42 2.858.18.395-.24-2.464-2.066-3.681-2.736-1.733-.669 1.948-.79 4.017-.243 2.435.547-1.583-3.043-2.495-2.739-1.887.305.608 2.191 1.156 1.582 1.643-.608.487-3.347-.67-4.443.305-1.095.973.852.79 1.461 1.825.609 1.035-3.287-.547-3.53.548-.243 1.095 3.043 1.4 3.226 2.313.183.913-6.634 2.738-4.321 3.286 2.313.548 3.226.061 3.286.244"/><path d="M32.412 24.329s2.434 1.643 2.19 2.13c-.243.487-2.86-.791-2.434.061.426.852 2.13 1.4 1.34 1.643-.792.244-2.01-.122-2.314-.67"/><path d="M30.708 28.65s1.521-.609 2.374-1.765c.852-1.157-.305-3.834-1.157-4.078M25.361 6.97s-1.272-.264-1.492.833c-.22 1.097.132 2.37 1.492 2.326 1.36-.044 2.238.307 2.809-.263.57-.57.92-2.107 0-2.677-.922-.57-2.063-.263-2.326-.263-.264 0-.483.043-.483.043ZM24.969 8.322l.904.265M25.376 7.72l.691.672M26.759 8.676l.78-.035M26.617 8.463l.816-.655"/><path d="M25.412 9.42s.355-.389.78-.354c.425.036.692.497.692.497M28.336 7.914s-.017.195-.195.283l-.177.089M28 8.499s.106-.106.23-.036c.125.072.09.196.09.196M28.567 8.57s-.035-.124.018-.195M32.259 10.33s-.432-.95-1.166-1.036c-.734-.087-1.252.604-1.252 1.122 0 .519 1.295 3.153 1.295 3.153v-.864l.346.043.173-.82h.475l-.26-1.166.389.173v-.605Z"/><path d="M32.69 10.373v.864l-.302.216.13.518-.562.432-.086.604-.345.13-.13.95s.605-.519 1.382-.864c.778-.345 1.986-1.036 1.684-1.9-.302-.864-1.209-1.209-1.77-.95ZM31.08 14.212s-.117.175-.03.19c.087.014.277.058.291 0 .015-.058.03-.131-.014-.19-.044-.058-.117-.13-.117-.13l-.13.13ZM30.86 13.743s.027-.129-.027-.117c-.054.012-.174.031-.169.068.005.037.014.083.053.106.04.024.098.05.098.05l.046-.107ZM30.804 14.26s.027-.128-.027-.116c-.055.012-.174.031-.17.068.006.038.014.083.053.107a.98.98 0 0 0 .099.048l.045-.106ZM18.605 13.44s-.41.306-2.1.92c-1.69.616-2.202 1.128-2.253 1.537-.051.41-.103.717-.256 1.23-.154.512-.717.614-.307 1.075.41.461.973.973 1.587.973.615 0 1.486.102 1.588-.512.102-.615-.051-1.485.205-1.792.256-.307.358-.051.921-.461.564-.41 1.178-.666 1.178-.666l.512-.512.82.256-.359-.922s.102 0 .256-.359c.154-.358.256-.614-.102-.87-.359-.256-.359-.359-.666-.41-.308-.051-1.024.512-1.024.512Z"/><path d="M18.605 14.207c-.103.154-.666.512-.666.512s-.461.461-.717.615c-.256.154-.973.307-1.332.82-.358.511-.665 1.382-.665 1.382M15.839 17.946s.307-.87.46-1.127c.154-.256.922-.666.922-.666l.564-.512 1.127-.973M18.722 7.58s.049.142-1.024.377c-1.072.235-2.388.094-2.582.563-.195.47.195.987-.731 1.363-.926.376-1.56.517-1.657.892-.098.376.536.799.731 1.315.195.517 0 1.315.731 1.644.731.33 1.121-.47 1.803-.704.682-.235.877-.047 1.706-.47.828-.423 1.12-.799 1.462-1.128.341-.328.585-.376.828-.328.244.047.975-.141.975-.141l.79.623c.084.066.207-.008.181-.11-.06-.242-.108-.548.004-.654.195-.188.535-.282.633-.517.097-.235-.244-.61-.537-1.41-.237-.65-.2-1.755-1.08-2.01-.678-.197-1.802.185-2.233.696Z"/><path d="M14.68 11.129s.558-.087.838-.476c.279-.39.139-.736.511-.909.373-.172 1.024-.086 1.35-.216.326-.13.932-.346.932-.346l.651-.52.326-.086M14.912 11.864s.931-.476 1.117-.821c.187-.347.652-.736 1.118-.779.465-.043 1.35-.303 1.536-.52.186-.216.466-.432.698-.432M15.146 12.556s1.163-.562 1.303-.821c.14-.26.465-.952 1.164-1.038.698-.087 1.35-.13 1.769-.39.42-.26.838-.432.838-.432M9.693 14.258l1.025.513.358-.718 1.024 1.025.154-.717 1.075 1.74-1.127-.613-.255.563-.871-.717-.307.41-1.434-.769.358-.717ZM23.52 4.272l-.409.973-.46-.256-.103 1.024-.564-.102.513 1.331.41-.666.46.052.308-.922.41.154.614-1.128-1.178-.46ZM33.087 16.318s.156-.968.823-1.038c.668-.069 1.453.796 1.256 1.28-.196.484-.745.899-.745.899l-.157.657h-.667s-.04-.76.196-.9c.235-.138.785-.31.667-.83-.118-.518-.432-.69-.667-.414-.236.276-.157.657-.51.691-.353.035-.197-.345-.197-.345ZM34.028 18.392s-.55-.069-.55.243c0 .31.157.795.275.795.118 0 .47.034.55-.242.078-.277.039-.346.039-.52 0-.172-.314-.276-.314-.276ZM9.714 9.65s.157-.968.824-1.037c.668-.07 1.452.795 1.256 1.279-.196.484-.745.9-.745.9l-.157.656h-.667s-.04-.76.196-.9c.235-.137.785-.31.667-.829-.118-.519-.432-.691-.667-.415-.236.277-.157.657-.51.692-.353.034-.197-.346-.197-.346ZM10.656 11.724s-.55-.069-.55.243c0 .31.157.795.275.795.118 0 .47.034.55-.242.078-.277.039-.346.039-.52 0-.172-.314-.276-.314-.276ZM12.431 20.403s.157-.968.824-1.037c.667-.07 1.452.795 1.256 1.279-.196.484-.745.899-.745.899l-.157.657h-.668s-.039-.76.196-.9c.236-.137.785-.31.668-.829-.118-.519-.432-.692-.668-.415-.235.277-.156.657-.51.692-.353.035-.196-.346-.196-.346ZM13.373 22.478s-.55-.07-.55.242.157.795.275.795c.118 0 .47.035.55-.242.078-.276.038-.346.038-.519 0-.173-.313-.276-.313-.276ZM30.18 5.444s.099-.614.522-.658c.423-.044.92.505.796.811-.124.307-.473.57-.473.57l-.1.417h-.422s-.025-.482.124-.57c.15-.088.498-.198.423-.526-.074-.33-.273-.44-.423-.264-.15.176-.1.417-.323.44-.224.021-.125-.22-.125-.22ZM30.776 6.76s-.348-.044-.348.153c0 .198.1.505.174.505.075 0 .299.022.348-.154.05-.175.025-.219.025-.328 0-.11-.199-.176-.199-.176ZM23.027 11.252s.1-.613.523-.657c.423-.044.92.504.796.81-.124.308-.473.571-.473.571l-.1.416h-.422s-.025-.482.124-.57c.15-.087.498-.197.423-.526-.075-.329-.274-.439-.423-.263-.15.175-.1.416-.324.439-.224.022-.124-.22-.124-.22ZM23.624 12.569s-.349-.045-.349.153c0 .197.1.504.175.504.074 0 .298.022.348-.153.05-.176.025-.22.025-.329 0-.11-.2-.175-.2-.175ZM34.73 7.617s.099-.613.522-.657c.423-.044.92.504.796.81-.124.308-.473.57-.473.57l-.1.417h-.422s-.025-.482.124-.57c.15-.087.498-.197.423-.526-.075-.329-.274-.439-.423-.263-.15.175-.1.416-.324.438-.224.022-.124-.219-.124-.219ZM35.326 8.933s-.349-.044-.349.153.1.505.175.505c.074 0 .298.021.348-.154.05-.175.025-.219.025-.329 0-.11-.199-.175-.199-.175Z"/><path d="M33.96 9.513c2.413 1.99 1.562 5.101-1.22 5.565-3.073.512-2.813-2.437-5.89-2.56-3.077-.125-1.69.87.051 1.382 1.742.512 1.178 1.639-1.536.46-2.714-1.177-3.688-1.894-5.326-1.792-1.639.103-6.812 2.1-6.71 3.534.103 1.434-.614 2.765.206 3.483.82.717 3.329 2.151 3.943.102.615-2.048 2.56-3.38 3.022-3.483"/><path d="M18.505 6.637c.551-.237 1.037-.428 1.38-.522 1.69-.46 2.56 1.23 3.278 2.765.716 1.537 2.509 3.022 4.148 2.151 1.639-.87 2.356-3.994 5.787-2.099.324.179.61.374.862.58"/><path d="M19.066 5.86s-5.173 1.69-5.583 2.612c-.326.734 2.859-.905 5.022-1.835M8.143 15.648c.876.406 2.626.288 3.855 1.017 1.639.973-.512 2.203-.051 3.227.46 1.024 3.278 1.588 4.66 1.23 1.383-.36 2.254-1.434 2.97-2.97.718-1.537 1.947-2.869 2.51-3.023.564-.153 6.504 1.23 7.477 1.588.973.359 1.127.922 2.254 1.639 1.126.716.973-.41.717-1.076-.256-.666-1.434-.615-2.459-1.588-1.024-.972-1.997-1.997-1.69-1.177.307.82.87 1.638-.563 1.229-1.434-.41-3.72-1.47-3.976-1.47 0 0-1.728-.903-2.316-.55-.59.354.039.432 1.924 1.021l1.884.59"/><path d="M17.776 4.216c-3.11.928-4.824 2.247-4.498 2.207.41-.051 2.612-.717 4.558-1.434 1.946-.717 3.688-.256 1.844.102-1.845.358-5.89 1.895-6.71 2.407-.819.512.154 1.28.205 1.844.052.563-.768.82-1.177 1.382-.41.564.563 2.766.05 2.97-.511.205-4.3.205-4.762 1.23-.115.256.02.432.311.568"/><path d="M27.285 6.245a7.361 7.361 0 0 1-1.972-.642c-1.587-.768 2.97-.41 3.33-.666.358-.256-3.432-2.1-8.195-1.331-.977.157-1.87.37-2.673.61M34.122 6.474s-.154-1.025-1.946-1.742c-1.793-.716-2.458.154-2.92 1.025-.273.516-1.051.636-1.97.488M37.648 13.822c-.198.97-.592 1.541-1.017 1.768-.768.41-1.178.768-.82 1.178.36.41.922.05.973.768.052.716-.307 2.1-1.843 2.714-1.537.614-2.56.307-3.278-.717"/><path d="M32.842 6.935s1.127.921.82.153c-.308-.768-.922-1.331-1.486-.716-.564.614.102 1.433.973 1.587.87.154 2.356 0 3.226 2.714.87 2.715-1.075 2.92-1.23 3.636-.153.717 1.844.359 1.947-1.382.102-1.742-1.075-3.278-1.024-4.046.05-.768 1.177-1.178 1.587 1.792.183 1.327.152 2.367-.008 3.149"/></g><g opacity=".64"><path d="M4.764 32.455s2.448-.516 2.641-.967c.193-.45-.129-1.804.773-2.061.902-.258 2.512.322 2.899.193s1.095-1.675 1.482-1.868c.247-.124 1.182-.089 1.822-.048" stroke="#352824" stroke-width=".089" stroke-linecap="round" stroke-linejoin="round"/><path d="m15.007 27.752-.907.298.234-.346-.183-.375.856.423Z" fill="#352824"/><path d="M7.404 37.48s1.869-.194 2.126-.709c.258-.516-.258-1.288.451-2.126.709-.837 1.418.13 2.126-.193.708-.322 1.224-1.03 1.417-1.16.194-.129.451.065.709-.129.258-.193.966-1.095 1.16-1.352.052-.071.134-.142.225-.207" stroke="#352824" stroke-width=".089" stroke-linecap="round" stroke-linejoin="round"/><path d="m16.166 31.295-.58.759-.002-.418-.364-.206.946-.135Z" fill="#352824"/><path d="M41.999 34.13s-1.868-.065-2.384-.387c-.515-.322-.708-1.16-1.16-1.353-.45-.193-2.06-.45-2.06-.45s-.387-.065-.967-.645c-.58-.58-.129-.387-.58-.58a4.322 4.322 0 0 0-.547-.182" stroke="#342E24" stroke-width=".089" stroke-linecap="round" stroke-linejoin="round"/><path d="m33.688 30.393.944-.147-.287.303.12.4-.777-.556Z" fill="#342E24"/><path d="M43.802 29.17s-.966.128-1.546.128c-.58 0-2.126-.387-2.126-.387l-1.16-.45s-1.224.128-1.61.128c-.387 0-1.353.065-1.353.065l-.34.022" stroke="#342E24" stroke-width=".089" stroke-linecap="round" stroke-linejoin="round"/><path d="m35.04 28.718.859-.419-.186.374.234.347-.907-.302Z" fill="#342E24"/><path d="M38.069 41.087s-.902-1.353-1.418-1.675c-.515-.322-1.546-1.224-1.546-1.224l-.258-1.546-.89-1.146" stroke="#342E24" stroke-width=".089" stroke-linecap="round" stroke-linejoin="round"/><path d="m33.751 34.903.655.696-.412-.066-.263.325.02-.955Z" fill="#342E24"/><path d="M12.687 39.928s.515-1.096.772-1.547c.258-.45.323-.708.644-1.353.323-.644 1.031-1.16 1.031-1.16l.111-.18" stroke="#352824" stroke-width=".089" stroke-linecap="round" stroke-linejoin="round"/><path d="m15.585 35.16-.173.94-.191-.372-.417-.018.781-.55Z" fill="#352824"/></g><path d="M17.821 45.356s-.175.78.016.94c.192.159 1.433.684 5.27.875 3.837.191 7.101-.796 7.34-1.05.238-.255.032-1.417.032-1.417s-1.927 1.13-4.124 1.384c-2.197.255-5.413-.047-6.655-.398-1.242-.35-1.8-.51-1.8-.51l-.079.176Z" fill="#3F342F" stroke="#5D463B" stroke-width=".044" stroke-miterlimit="10"/><path d="M23.117 29.208s-3.07.06-3.31.268c-.238.21-1.252 11.897-1.52 13.03-.268 1.133-.983 2.564-.715 2.951.268.388 4.591 1.193 7.126 1.193 2.534 0 5.128-1.014 5.635-1.58.507-.567.239-1.312.149-1.67-.09-.358-.567-2.803-.537-2.892.03-.09.895-3.041.895-3.041s2.146-4.83 1.848-5.337c-.298-.507-3.31-2.147-3.31-2.147l-5.485-.864-.776.089Z" fill="#5D463B"/><path d="M18.287 42.505s.89-.177 1.631-.138c.742.038 1.274.19 1.274.19s-.837-.989-1.293-1.065c-.456-.075-1.425.267-1.425.267l-.187.746Z" fill="#3F342F" stroke="#5D463B" stroke-width=".044" stroke-miterlimit="10"/><path d="M25.627 30.902c1.469 0 2.66-.854 2.66-1.907 0-1.054-1.191-1.908-2.66-1.908-1.468 0-2.658.854-2.658 1.908 0 1.053 1.19 1.907 2.658 1.907Z" fill="#D9AFA2"/><path d="M24.86 35.71c.146-.104.286-.19.416-.252Z" fill="#5D463B"/><path d="M24.86 35.71c.146-.104.286-.19.416-.252" stroke="#251C14" stroke-width=".044" stroke-miterlimit="10"/><path d="M22.545 38.025s1.047-1.283 1.999-2.07Z" fill="#5D463B"/><path d="M22.545 38.025s1.047-1.283 1.999-2.07" stroke="#251C14" stroke-width=".044" stroke-miterlimit="10"/><path d="M23.774 35.813s-.874 1.12-1.092 1.53Z" fill="#5D463B"/><path d="M23.774 35.813s-.874 1.12-1.092 1.53" stroke="#251C14" stroke-width=".044" stroke-miterlimit="10"/><path d="M24.023 32.51c.055.073.108.137.16.19Z" fill="#5D463B"/><path d="M24.023 32.51c.055.073.108.137.16.19" stroke="#251C14" stroke-width=".044" stroke-miterlimit="10"/><path d="M22.817 30.298s.578 1.29 1.086 2.043Z" fill="#5D463B"/><path d="M22.817 30.298s.578 1.29 1.086 2.043" stroke="#251C14" stroke-width=".044" stroke-miterlimit="10"/><path d="M22.518 30.189s.518 1.666.737 1.993Z" fill="#5D463B"/><path d="M22.518 30.189s.518 1.666.737 1.993" stroke="#251C14" stroke-width=".044" stroke-miterlimit="10"/><path d="M21.686 35.393c.026.162.053.3.08.403Z" fill="#5D463B"/><path d="M21.686 35.393c.026.162.053.3.08.403" stroke="#251C14" stroke-width=".044" stroke-miterlimit="10"/><path d="M21.362 31.967s.124 2.037.293 3.219Z" fill="#5D463B"/><path d="M21.362 31.967s.124 2.037.293 3.219" stroke="#251C14" stroke-width=".044" stroke-miterlimit="10"/><path d="M19.668 45.273c.467.344 1.343.915 2.302 1.162Z" fill="#5D463B"/><path d="M19.668 45.273c.467.344 1.343.915 2.302 1.162" stroke="#251C14" stroke-width=".044" stroke-miterlimit="10"/><path d="M19.315 44.996s.077.067.214.172Z" fill="#5D463B"/><path d="M19.315 44.996s.077.067.214.172" stroke="#251C14" stroke-width=".044" stroke-miterlimit="10"/><path d="M17.563 40.452s-.234.659-.322.85c-.088.19-.03.424.088.527.117.103.351.352.585.395.235.045.308-.014.337-.117l.03-.102s.469.204.79.175c.323-.028.63-.234.63-.234l.484.059.498-1.333-1.01-.322c-.279-.088-1.45-.396-1.773-.322-.322.072-.337.424-.337.424Z" fill="#F9DACE"/><path d="m18.28 42.004-.556-.131" stroke="#D0B39D" stroke-width=".044" stroke-miterlimit="10"/><path d="M20.578 40.7s-.573.738-.6 1.093c-.028.355.272.382.518.464.246.082 1.352-1.638 1.27-1.659-.08-.02-.877-.22-1.188.103Z" fill="#2C1E1A"/><path d="M29.425 33.384s-2.103 4.013-2.485 4.996c-.383.984-.464 1.284-.464 1.284l-.137.819s-4.587-.027-4.914.082c-.328.109-1.502 1.228-.929 1.692.574.464 2.403.874 4.341 1.393 1.94.519 3.359.683 3.687.11.327-.574 3.221-6.063 3.768-7.92.546-1.856 1.747-3.14 1.065-4.204-.683-1.065-3.277-1.147-3.632-1.092" fill="#5D463B"/><path d="M29.425 33.384s-2.103 4.013-2.485 4.996c-.383.984-.464 1.284-.464 1.284l-.137.819s-4.587-.027-4.914.082c-.328.109-1.502 1.228-.929 1.692.574.464 2.403.874 4.341 1.393 1.94.519 3.359.683 3.687.11.327-.574 3.221-6.063 3.768-7.92.546-1.856 1.747-3.14 1.065-4.204-.683-1.065-3.277-1.147-3.632-1.092" stroke="#251C14" stroke-width=".044" stroke-miterlimit="10"/><path d="M31.953 35.322c-.652.532-1.772 1.39-2.571 1.718Z" fill="#5D463B"/><path d="M31.953 35.322c-.652.532-1.772 1.39-2.571 1.718" stroke="#251C14" stroke-width=".044" stroke-miterlimit="10"/><path d="M32.519 34.844s-.128.109-.336.28Z" fill="#5D463B"/><path d="M32.519 34.844s-.128.109-.336.28" stroke="#251C14" stroke-width=".044" stroke-miterlimit="10"/><path d="M30.494 36.697s-.856.428-1.455.656Z" fill="#5D463B"/><path d="M30.494 36.697s-.856.428-1.455.656" stroke="#251C14" stroke-width=".044" stroke-miterlimit="10"/><path d="M26.259 42.818c.06.092.122.172.189.233Z" fill="#5D463B"/><path d="M26.259 42.818c.06.092.122.172.189.233" stroke="#251C14" stroke-width=".044" stroke-miterlimit="10"/><path d="M25.576 40.883s.187.91.495 1.585Z" fill="#5D463B"/><path d="M25.576 40.883s.187.91.495 1.585" stroke="#251C14" stroke-width=".044" stroke-miterlimit="10"/><path d="M24.907 41.247s.02 1.034.122 1.277Z" fill="#5D463B"/><path d="M24.907 41.247s.02 1.034.122 1.277" stroke="#251C14" stroke-width=".044" stroke-miterlimit="10"/><path d="m26.693 41.017 2.711 1.119.315-.437-3.026-.682Z" fill="#3F342F" stroke="#5D463B" stroke-width=".044" stroke-miterlimit="10"/><path d="M26.314 39.14s1.6-.2 1.8-.4c.2-.2.799-.745.98-.78.182-.037 1.037.163 1.237.163.2 0 .49-.364.709-.346.218.019.327.291.254.51-.073.217-.49.453-.582.472-.09.018-.236.073-.236.073s.764.145 1 .236c.236.09.236.309.145.527-.09.218-.182.345-.29.418-.11.073-.346.382-.346.382s.09.309-.055.509-.255.309-.327.364c-.073.054.087.084-.072.274-.111.132-.125.186-.655.27-.17.028-.873-.108-1.363-.272-.49-.164-1.345-.364-1.345-.364l-1.163-.272.31-1.764Z" fill="#F9DACE"/><path d="M31.112 39.555s.018.403-.087.544a.95.95 0 0 1-.263.228s.052.21-.036.403l-.087.193s-.143.172-.09.287" stroke="#D0B39D" stroke-width=".044" stroke-miterlimit="10"/><path d="m25.205 38.928 1.133.179-.328 1.789-.686-.15-.119-1.818Z" fill="#2C1E1A"/><path d="M21.24 29.447s-1.491-.716-2.445-.358c-.955.358-1.014 2.385-1.044 2.653-.03.269-1.073 7.037-1.193 8.14-.119 1.103 5.546 1.64 6.828 1.61 1.282-.03 1.849-.417 1.938-.745.09-.328.537-1.7.238-1.879-.298-.179-5.635-1.312-5.635-1.312l-.298-.357s.656-3.936.775-4.562" fill="#5D463B"/><path d="M21.24 29.447s-1.491-.716-2.445-.358c-.955.358-1.014 2.385-1.044 2.653-.03.269-1.073 7.037-1.193 8.14-.119 1.103 5.546 1.64 6.828 1.61 1.282-.03 1.849-.417 1.938-.745.09-.328.537-1.7.238-1.879-.298-.179-5.635-1.312-5.635-1.312l-.298-.357s.656-3.936.775-4.562" stroke="#251C14" stroke-width=".044" stroke-miterlimit="10"/><path d="M18.133 37.727c-.073.028-.141.06-.203.097Z" fill="#5D463B"/><path d="M18.133 37.727c-.073.028-.141.06-.203.097" stroke="#251C14" stroke-width=".044" stroke-miterlimit="10"/><path d="M19.927 37.556s-.79-.07-1.455.072Z" fill="#5D463B"/><path d="M19.927 37.556s-.79-.07-1.455.072" stroke="#251C14" stroke-width=".044" stroke-miterlimit="10"/><path d="M17.751 36.99s.984-.12 1.58.149Z" fill="#5D463B"/><path d="M17.751 36.99s.984-.12 1.58.149" stroke="#251C14" stroke-width=".044" stroke-miterlimit="10"/><path d="M23.732 29.81s1.226.687 2.152.478c.926-.209.837-2.39.837-2.39l-.747-.508-2.242 2.42Z" fill="#F9DACE"/><path d="m25.954 28.12-.971.34-1.252 1.35s.325.182.767.33l1.456-2.02Z" fill="#D9AFA2"/><path d="M22.004 20.451s-2.371 2.108-2.395 3.832c-.024 1.725 1.078 3.569 1.078 3.569s-1.198 2.011-1.222 2.323c-.024.312.72 1.006.79 1.006.073 0 .79-.599.79-.599l-.406.886 1.221.647s.573-2.179.886-2.874c0 0-1.317-2.442-1.413-3.4-.096-.958-.048-1.845.216-2.3.264-.455 1.533-1.102 1.604-1.15.072-.047 1.7 1.294 1.964 2.42.264 1.125 1.155 3.116 1.155 3.116s-.412 2.176-.604 2.75c-.191.575-.838 1.222-.838 1.222s.958.36 1.341.431c.383.072.48.072.48.072s.574-.958.622-1.03c.048-.072.048.958.048.958s1.006-.072 2.06-.646c1.053-.575 1.676-1.294 1.676-1.294s.647-.287.958-1.245c.31-.958-.36-1.94-1.15-2.874-.79-.934-1.077-1.221-1.34-2.61-.264-1.389-.743-2.85-2.037-3.736-1.293-.886-3.065-.91-3.927-.431-.863.479-1.557.957-1.557.957Z" fill="#332418"/><path d="M23.164 21.503s-1.823 1.404-2.092 1.733c-.27.329-.06 1.046-.12 1.972-.06.927.418 1.913.687 2.42.27.509.987 2.093 1.524 2.212.538.12.568-.03.568-.03s1.973-.926 2.54-1.882c0 0-.358-2.092-.537-2.899-.18-.806-.27-1.016-.27-1.016s-.986-1.314-1.434-1.733c-.448-.419-.866-.777-.866-.777Z" fill="#F9DACE"/><path d="M21.775 25.89s.199-.24.416-.122" stroke="#263138" stroke-width=".044" stroke-miterlimit="10" stroke-linecap="round" stroke-linejoin="round"/><path d="M22.424 26.004c.034.152-.016.292-.111.313-.095.022-.2-.084-.234-.236-.034-.151.016-.291.111-.313.095-.02.2.085.234.236ZM24.39 25.985c.033.151-.016.291-.111.313-.096.021-.2-.085-.234-.236-.034-.152.016-.292.11-.313.096-.021.2.084.235.236Z" fill="#263138"/><path d="M23.706 25.789s.24-.15.533 0" stroke="#263138" stroke-width=".044" stroke-miterlimit="10" stroke-linecap="round" stroke-linejoin="round"/><path d="M23.164 21.503s.716 1.958 2.301 2.51c0 0-1.6-.998-1.853-2.66" fill="#263138"/><path d="M23.164 21.503s.716 1.958 2.301 2.51c0 0-1.6-.998-1.853-2.66" stroke="#263138" stroke-width=".044" stroke-miterlimit="10" stroke-linecap="round" stroke-linejoin="round"/><path d="M23.184 24.842s-.128.127.121.231c.25.105 1.08.288 1.254.164.175-.125-.915-.47-1.375-.395ZM22.08 24.833s-.7.303-.865.472c-.165.168.768-.035.932-.204.165-.168-.067-.268-.067-.268Z" fill="#263138" stroke="#263138" stroke-width=".044" stroke-miterlimit="10" stroke-linecap="round" stroke-linejoin="round"/><path d="M22.326 25.339s.243.4.28.581c.036.181.054.471.054.471M22.714 27.495s-.036.254.054.345c.091.09.308.235.707.036M23.059 28.546s.126.073.38 0M23.109 24.958s-.2-.344 0-.634" stroke="#263138" stroke-width=".044" stroke-miterlimit="10" stroke-linecap="round" stroke-linejoin="round"/><path d="M25.587 23.546a.082.082 0 0 1-.081-.07c-.021-.136-.074-.231-.158-.28-.145-.087-.346-.02-.348-.018a.081.081 0 1 1-.055-.153c.01-.004.273-.095.486.031.128.076.207.209.236.396a.081.081 0 0 1-.08.094ZM26.313 22.924c-.139.02-.234.073-.284.156-.088.145-.019.343-.018.345M26.091 22.613a.516.516 0 0 1-.263-.067c-.128-.075-.207-.209-.236-.396a.081.081 0 0 1 .068-.093.082.082 0 0 1 .093.068c.022.138.075.232.158.282.146.086.346.018.348.017a.082.082 0 0 1 .105.05.08.08 0 0 1-.05.103c-.006.002-.102.035-.223.035ZM24.96 22.84a.08.08 0 0 1-.012-.161c.137-.022.233-.075.283-.157.088-.145.019-.343.018-.345a.081.081 0 0 1 .05-.104.082.082 0 0 1 .105.05c.004.01.095.27-.031.481-.076.127-.211.205-.4.234a.062.062 0 0 1-.013.002Z" fill="#6C5B50"/></g><defs><clipPath id="a"><rect width="48" height="48" rx="24" fill="#fff"/></clipPath></defs></svg>