<svg width="48" height="48" fill="none" xmlns="http://www.w3.org/2000/svg"><g clip-path="url(#a)"><rect width="48" height="48" rx="24" fill="#fff"/><path opacity=".18" d="M15.028 46.605c3.863 0 6.995-1.808 6.995-4.038 0-2.23-3.132-4.039-6.995-4.039s-6.995 1.808-6.995 4.039c0 2.23 3.132 4.038 6.995 4.038ZM6.281 40.054l-4.305-2.481c-.1-.058-.1-.152 0-.21l10.64-6.166a.399.399 0 0 1 .363 0l4.305 2.481c.1.058.1.152 0 .21l-10.64 6.166a.4.4 0 0 1-.363 0ZM19.19 31.775l-3.393-1.956c-.08-.046-.08-.12 0-.165l3.637-2.109a.315.315 0 0 1 .286 0l3.393 1.956c.08.046.08.12 0 .165l-3.637 2.109a.313.313 0 0 1-.286 0Z" fill="#C4B3A6"/><g opacity=".34"><path d="m3.373 24.79.215.014 10.58-6.112-.108-.078L3.373 24.79Z" fill="#BFA999"/><path d="M14.06 18.614 3.588 24.666v-8.867L14.06 9.747v8.867Z" fill="#fff"/><path d="m14.382 9.315-11.009 6.36v9.5l11.009-6.36v-9.5Zm-.215 9.377-10.58 6.112v-9.005l10.58-6.112v9.005Z" fill="#CAB8AB"/><path d="m14.169 18.692-.107-.078V9.747l.107-.06v9.005ZM14.383 9.315l-.107-.062-11.01 6.36.108.062 11.009-6.36ZM3.267 15.613l.107.062v9.5l-.107-.061v-9.5Z" fill="#AD9B8B"/><path d="m3.588 20.221 10.472-6.054.108.065-10.58 6.112v-.123Z" fill="#D9C8BC"/><path d="M14.168 14.232v.24l-10.58 6.112v-.24l10.58-6.112ZM3.588 15.978l10.472-6.05.057.25-10.53 6.086v-.286Z" fill="#CAB8AB"/><path d="M3.588 15.978v.115l10.495-6.066-.023-.1-10.472 6.051Z" fill="#D9C8BC"/><path d="m3.588 16.378 10.472-6.05.057.25-10.53 6.086v-.286Z" fill="#CAB8AB"/><path d="M3.588 16.378v.115l10.495-6.066-.023-.1-10.472 6.051Z" fill="#D9C8BC"/><path d="m3.588 16.778 10.472-6.05.057.25-10.53 6.086v-.286Z" fill="#CAB8AB"/><path d="M3.588 16.778v.115l10.495-6.066-.023-.1-10.472 6.051Z" fill="#D9C8BC"/><path d="m3.588 17.178 10.472-6.051.057.25-10.53 6.087v-.286Z" fill="#CAB8AB"/><path d="M3.588 17.178v.115l10.495-6.066-.023-.1-10.472 6.05Z" fill="#D9C8BC"/><path d="m3.588 17.578 10.472-6.051.057.25-10.53 6.087v-.286Z" fill="#CAB8AB"/><path d="M3.588 17.578v.115l10.495-6.066-.023-.1-10.472 6.05Z" fill="#D9C8BC"/><path d="m3.588 17.978 10.472-6.051.057.25-10.53 6.087v-.286Z" fill="#CAB8AB"/><path d="M3.588 17.978v.115l10.495-6.066-.023-.1-10.472 6.05Z" fill="#D9C8BC"/><path d="m3.588 18.378 10.472-6.051.057.25-10.53 6.087v-.286Z" fill="#CAB8AB"/><path d="M3.588 18.378v.114l10.495-6.066-.023-.1-10.472 6.052Z" fill="#D9C8BC"/><path d="m3.588 18.778 10.472-6.051.057.25-10.53 6.087v-.286Z" fill="#CAB8AB"/><path d="M3.588 18.778v.114l10.495-6.066-.023-.1-10.472 6.052Z" fill="#D9C8BC"/><path d="m3.588 19.178 10.472-6.051.057.25-10.53 6.087v-.286Z" fill="#CAB8AB"/><path d="M3.588 19.178v.114l10.495-6.066-.023-.1-10.472 6.052Z" fill="#D9C8BC"/><path d="m3.588 19.578 10.472-6.052.057.251-10.53 6.087v-.286Z" fill="#CAB8AB"/><path d="M3.588 19.578v.114l10.495-6.066-.023-.1-10.472 6.052Z" fill="#D9C8BC"/><path d="m21.991 19.604-1.906-1.1c-.29-.168-.76-.168-1.05 0l-1.906 1.1c-.29.168-.526.575-.526.91v9.066l2.957 1.707 2.956-1.707v-9.066c0-.335-.235-.742-.525-.91Z" fill="#BFAFA2"/><path d="M19.56 22.221c0-.335.235-.742.525-.91l1.906-1.1c.29-.167.525-.031.525.303v9.066l-2.956 1.707V22.22Z" fill="#D9C8BC"/><path d="M16.604 20.514v9.066l2.956 1.707v-9.066c0-.2.083-.425.213-.611l-2.955-1.707c-.13.186-.215.411-.215.611ZM22.27 21.77l-2.464 1.423v3.275l2.464-1.423V21.77Z" fill="#CCBCB1"/><path d="M21.588 24.652v-2.49l-1.782 1.03v2.492l1.782-1.032Z" fill="#BFAFA2"/><path d="m21.588 24.652.681.393-2.463 1.423v-.784l1.782-1.032Z" fill="#CCBCB1"/><path d="m21.909 21.98-.091.434-.098.056a.303.303 0 0 1-.302 0l-.018-.011-.038-.167.547-.313ZM20.717 22.667l-.092.441-.098.056a.303.303 0 0 1-.302 0l-.018-.011-.038-.17.548-.316Z" fill="#A29388"/><path d="M17.08 18.806c0-.327.248-.657.679-.905.47-.272 1.126-.428 1.8-.428.675 0 1.331.156 1.802.428.43.248.678.579.678.906v.403c0 .327-.247.658-.678.906-.47.272-1.127.428-1.801.428-.675 0-1.331-.156-1.802-.428-.43-.249-.678-.58-.678-.906v-.404Z" fill="#B8A79F"/><path d="M19.56 20.14c.674 0 1.33-.155 1.8-.428.431-.248.679-.579.679-.905 0-.327-.247-.658-.679-.906-.47-.272-1.127-.428-1.8-.428-.675 0-1.331.155-1.802.428-.43.248-.678.579-.678.905 0 .327.247.658.678.906.471.272 1.127.428 1.802.428Z" fill="#CCBCB1"/><path d="M16.857 18.252v-5.238c-.052-.437.207-.883.785-1.217 1.059-.61 2.776-.61 3.835 0 .53.306.795.708.793 1.11v5.578h-.01c-.049.359-.309.71-.784.983-1.059.611-2.775.611-3.834 0-.475-.274-.735-.625-.784-.983h-.002v-.014a.95.95 0 0 1 .001-.219Z" fill="#D9C8BC"/><path d="M19.56 19.58c.664 0 1.283-.147 1.743-.413.36-.208.577-.466.613-.729l.007-.05v-3.61c0-.286-.225-.58-.62-.808-.46-.266-1.08-.412-1.743-.412-.664 0-1.283.146-1.743.412-.427.246-.651.565-.614.873l.003.021v3.409l-.003.02a.58.58 0 0 0 0 .136l.003.023c.041.258.258.511.611.715.46.266 1.079.412 1.743.412Z" fill="#B8A79F"/><path d="M17.817 13.97c.465-.256 1.079-.412 1.743-.412.664 0 1.262.186 1.743.412.397.186.624.518.62.874.004.355-.223.687-.62.873-.48.225-1.079.412-1.743.412-.664 0-1.283-.146-1.743-.412-.427-.247-.613-.553-.613-.873-.02-.332.175-.633.613-.874Z" fill="#C7B7AE"/><path d="M19.56 14.238c.674 0 1.33-.156 1.8-.428.431-.249.679-.579.679-.905 0-.328-.247-.658-.679-.907-.47-.271-1.127-.427-1.8-.427-.675 0-1.331.155-1.802.427-.43.25-.678.58-.678.906 0 .327.247.657.678.906.471.272 1.127.428 1.802.428Z" fill="#BFAFA2"/><path d="m20.504 21.789.105.06-.005.01c.012.019.019.044.019.076a.358.358 0 0 1-.163.28.142.142 0 0 1-.075.023l-.006.009-.105-.061c-.03-.017-.047-.054-.047-.105 0-.104.072-.23.162-.281.045-.025.086-.028.115-.011Z" fill="#B6A89E"/><path d="M20.333 22.142c0 .104.073.146.162.094a.359.359 0 0 0 .162-.28c0-.104-.072-.146-.162-.095a.358.358 0 0 0-.162.281Z" fill="#BFAFA2"/><path d="m21.696 21.108.106.061-.006.01c.012.018.019.044.019.076a.358.358 0 0 1-.162.28.143.143 0 0 1-.076.022l-.005.01-.105-.062c-.03-.017-.048-.053-.048-.105 0-.103.072-.228.162-.28.045-.026.086-.029.115-.012Z" fill="#B6A89E"/><path d="M21.524 21.461c0 .104.073.146.163.094a.358.358 0 0 0 .162-.28c0-.104-.073-.146-.162-.095a.358.358 0 0 0-.163.281Z" fill="#BFAFA2"/><path d="m7.193 37.654-.37 1.834-.36.208-.356-.206-.373-1.836.73-.42.729.42Z" fill="#E0E0E0"/><path d="m7.193 37.654-.37 1.834-.36.208-.356-.206-.373-1.836.73-.42.729.42Z" fill="#B7A595"/><path d="M6.464 39.696v-1.62l.73-.422-.37 1.834-.36.208Z" fill="#AD9B8B"/><path opacity=".05" d="m7.193 37.654-.24 1.185-.49.283-.488-.282-.24-1.186.729-.42.729.42Z" fill="#040000"/><path d="m3.986 35.803-.37 1.834-.36.208-.356-.206-.373-1.836.73-.421.729.421Z" fill="#E0E0E0"/><path d="m3.986 35.803-.37 1.834-.36.208-.356-.206-.373-1.836.73-.421.729.421Z" fill="#B7A595"/><path d="M3.256 37.845v-1.621l.73-.42-.37 1.833-.36.208Z" fill="#AD9B8B"/><path opacity=".05" d="m3.986 35.803-.24 1.185-.49.283-.488-.282-.24-1.186.729-.421.729.421ZM16.678 32.178l-.37 1.834-.36.208-.355-.206-.373-1.836.729-.421.729.42Z" fill="#040000"/><path d="M15.948 34.22v-1.621l.73-.421-.37 1.834-.36.208Z" fill="#EBEBEB"/><path opacity=".05" d="m16.678 32.178-.239 1.185-.49.283-.489-.282-.24-1.186.729-.421.729.42Z" fill="#040000"/><path d="m6.463 38.826-3.974-2.294v-8.6l3.974 2.293v8.6Z" fill="#B7A595"/><path d="m6.463 30.225 10.42-6.016v8.6l-10.42 6.017v-8.6Z" fill="#AD9B8B"/><path d="M16.884 24.209 6.463 30.225l-3.974-2.294 10.421-6.016 3.974 2.294Z" fill="#BFAFA2"/><path d="m7.031 34.486 9.286-5.361v3.156l.104.06-9.285 5.362-.105-.06v-3.157Z" fill="#CFBFB3"/><path d="m7.136 34.546 9.286-5.36v3.155l-9.286 5.362v-3.157Z" fill="#BFAFA2"/><path d="m11.6 32.565.772-.445c.1-.058.181-.032.181.059 0 .09-.081.21-.181.269l-.773.445c-.1.058-.181.032-.181-.059 0-.09.081-.21.181-.269Z" fill="#E0E0E0"/><path d="m7.03 30.675 9.286-5.361v3.156l.105.06-9.286 5.362-.105-.06v-3.157Z" fill="#CFBFB3"/><path d="m7.135 30.735 9.285-5.36v3.155l-9.285 5.361v-3.156Z" fill="#BFAFA2"/><path d="m11.6 28.754.772-.446c.1-.057.181-.031.181.06 0 .09-.081.21-.181.268l-.773.446c-.1.058-.181.032-.181-.059 0-.09.08-.211.181-.269Z" fill="#E0E0E0"/><path d="m32.253 12.818-.135.08-2.758-1.593.135-.08 2.758 1.593Z" fill="#BFA999"/><path d="m29.494 11.225 2.624 1.514V9.992l-2.624-1.513v2.746Z" fill="#fff"/><path d="m29.106 11.451 3.266 1.886V9.845L29.106 7.96v3.491ZM29.36 8.4l2.758 1.592v2.906l-2.758-1.593V8.4Z" fill="#BFAFA2"/><path d="m29.36 11.305.135-.08V8.48l-.135-.08v2.906Z" fill="#AD9B8B"/><path d="m29.106 7.96.137-.078 3.265 1.886-.136.078-3.266-1.886Z" fill="#CAB8AB"/><path d="m32.508 9.768-.136.078v3.49l.136-.077V9.768Z" fill="#AD9B8B"/><path d="m29.597 11.143 2.419 1.397v-.699l-.605-1.396-.377.349.136.585-.836-1.786-.737.852v.698Z" fill="#BFAFA2"/><path d="M31.058 9.77c.098.058.179.197.179.31 0 .115-.08.16-.18.104a.395.395 0 0 1-.178-.31c0-.114.08-.16.179-.103Z" fill="#AD9B8B"/><path d="m32.253 17.606-.135.08-2.758-1.592.135-.08 2.758 1.592Z" fill="#BFA999"/><path d="m29.494 16.014 2.624 1.514V14.78l-2.624-1.513v2.747Z" fill="#fff"/><path d="m29.106 16.24 3.266 1.886v-3.492l-3.266-1.885v3.492Zm.254-3.052 2.758 1.592v2.906l-2.758-1.592v-2.906Z" fill="#BFAFA2"/><path d="m29.36 16.094.135-.08v-2.747l-.135-.079v2.906Z" fill="#AD9B8B"/><path d="m29.106 12.749.137-.078 3.265 1.885-.136.078-3.266-1.885Z" fill="#CAB8AB"/><path d="m32.508 14.556-.136.078v3.492l.136-.079v-3.491Z" fill="#AD9B8B"/><path d="m29.597 15.932 2.419 1.396v-.698l-.605-1.397-.377.35.136.585-.836-1.787-.737.852v.699Z" fill="#BFAFA2"/><path d="M31.057 14.56c.099.056.18.195.18.309 0 .114-.08.16-.18.103a.396.396 0 0 1-.18-.31c0-.114.08-.16.18-.103Z" fill="#AD9B8B"/></g><path d="M18.56 40.368c.098.372.152.543.235 1.009.067.383.11.667.255 1.319.13.595.284 1.035-.143 1.56-.35.428-1.144.556-1.387.115-.279-.505-.168-1.24-.155-1.763.013-.523-.063-.779-.076-1.193-.012-.366.001-.516.009-.832.414-.04.848-.167 1.262-.215Z" fill="#6A5649"/><path d="M18.247 33.132c.361 1.533.194 2.24.231 3.048.049 1.065.056 1.172.044 2.18-.01.866.012 1.518.038 2.007.037.678.311 1.768.231 2.292-.12.787-1.055 1.098-1.218.218-.102-.55-.199-1.762-.284-2.363-.098-.694-.215-1.265-.399-2.115-.183-.851-.666-3.462-.931-5.046l2.288-.221ZM10.554 42.67a3.29 3.29 0 0 0 .335-.313c.076-.08.13-.177.181-.275.2-.387.354-.752.492-1.163.15-.443.232-.762.24-1.146.011-.45-.035-5.354-.114-6.789l2.483.173c.009 1.081-.02 1.49-.184 2.368-.165.886-.652 2.918-.698 3.506-.048.61-.085.745.049.939 0 .002.002.003.003.005.154.223.271.432.255.58-.019.177-.143.33-.246.473-.097.133-.147.273-.217.42-.16.344-.227.718-.299 1.085a1.406 1.406 0 0 1-.093.329c-.166.356-.59.53-.988.6-.388.066-.827.113-1.214.002-.163-.047-.306-.12-.327-.307-.02-.187.1-.286.342-.487Z" fill="#F9DACE"/><path d="m13.28 42.94-.144-.02c-.008-.432.019-.827-.092-1.03l.204-.53.031 1.58Z" fill="#55443A"/><path d="M13.635 40.973c-.033.296-.208.6-.222 1.183-.014.583.014.746.014.746l-.148.038-.03-1.58.386-.387Z" fill="#55443A"/><path d="M10.249 43.34s.007.172.084.228c.077.057.239.228 1.028.182.789-.045 1.065-.233 1.336-.47.27-.237.342-.86.383-1.153.079-.569.325-.867.555-1.154.064-.14.024-.295.024-.295s-.532.095-.816.79c-.284.697-.627 1.376-1.265 1.57-.638.193-1.329.301-1.329.301Z" fill="#55443A"/><path d="M13.59 40.245c-.111-.19-.214-.245-.322-.409-.113.079-.206.25-.255.401-.049.152-.177.899-.369 1.492-.144.446-.384.682-.715.804-.206.076-.431.1-.65.07h-.003c-.41-.054-.313-.338-.313-.338-.095.126-.487.433-.719.66-.132.128-.07.323.03.448.113.095.38.284 1.36.147.87-.123 1.074-.51 1.157-.684.063-.134.117-.42.182-.787a2.422 2.422 0 0 1 .364-.922 3.47 3.47 0 0 1 .207-.266c.06-.07.108-.104.126-.172.018-.164.018-.277-.08-.444Z" fill="#6A5649"/><path d="M18.567 36.104c.026-.992.166-1.582-.227-2.962-.105-3.053.03-6.918-.295-8.418-.356-1.642-.701-2.163-1.083-2.916 0 0-1.287.595-2.599.662-1.493.077-2.398-.606-2.398-.606-.006.246-.18 1.229-.295 2.743-.213 2.782-.132 6.524-.057 8.59.052 1.432.088 3.305.175 4.567.417.27 1.248.447 1.722.167.237-1.13.409-1.441.637-2.67.123-.664.208-1.273.092-2.11.09-.885.455-3.183.583-3.938 0 0 .73 2.962.964 4.08.327 1.573.857 4.134 1.073 4.972.319.205 1.2.165 1.666-.226.01-1.007.014-.87.042-1.935Z" fill="#917A69"/><path d="m14.822 29.213-.603-2.783s-1.068-.236-1.646-.978c0 0 .114.887 1.257 1.265l.549 2.824-.095 3.223.538-3.55Z" fill="#7B6659"/><path d="M16.937 11.034s.495-.042.879.34c.36.359.512 1.04.234 1.772-.272.719-.573 1.338-.267 1.515.364.21.507-.148.507-.148s.145.3-.05.542c-.215.268-.597.154-.597.154s1.55 1.66.244 3.383c-.673.887-3.624 1.433-5.015.362-1.336-1.028-.911-2.438-.42-3.357.531-.995.215-1.912.189-2.393-.047-.881.253-1.397.751-1.555 0 0 .06-.792.896-1.081.835-.29 2.127-.2 2.65.466Z" fill="#332418"/><path d="M13.1 15.967c-.902.07-1.213.527-1.42.862-.227.37-.512.94-1.014 2.399-.295.86-.75 2.308-.42 2.63.293.284 1.059.19 1.059.19l.541-1.236 1.253-4.845Z" fill="#F9DACE"/><path d="M11.992 20.114c-.707-.074-1.255.354-1.255.354s.286-.509 1.255-.633v.279Z" fill="#DEC5BE"/><path d="M14.69 15.992a13.62 13.62 0 0 1 2.226.445c.28.086.415.303.198 1.77-.142.957-.433 2.97-.433 2.97.436.919.852 1.4 1.238 2.791 0 0-.947 1.002-3.531.907-2.27-.084-2.712-.603-2.712-.603l.277-2.816s.051-.93.036-1.499c0 0-.57-.45-.574-1.073-.003-.534.08-.946.626-1.71a7.569 7.569 0 0 1 1.059-1.206s.873-.064 1.59.024Z" fill="#A467A7"/><path d="M14.69 15.992a13.62 13.62 0 0 1 2.226.445c.28.086.415.303.198 1.77-.142.957-.433 2.97-.433 2.97.436.919.852 1.4 1.238 2.791 0 0-.947 1.002-3.531.907-2.27-.084-2.712-.603-2.712-.603l.277-2.816s.051-.93.036-1.499c0 0-.57-.45-.574-1.073-.003-.534.08-.946.626-1.71a7.569 7.569 0 0 1 1.059-1.206s.873-.064 1.59.024Z" fill="#6A594E"/><path d="M15.94 19.329s-.272.78-1.232.837c-.877.052-1.293-.657-1.293-.657s.127 1.001 1.314.897c1.187-.104 1.211-1.077 1.211-1.077Z" fill="#5E4E45"/><path d="m16.026 20.52.255-1.591c.206-1.811.496-2.328.71-2.461.75.207 1.248.507 1.157 1.682-.043.554-.069.96-.222 1.886-.165 1.005-.264 1.313-.436 1.82-.188.555-.474.635-1.154.622a18.682 18.682 0 0 1-2.839-.286c-.447-.077-1.1-.175-1.442-.276-.25-.074-1.205-.305-1.15-.668.015-.103 3.652-.583 3.986-.646.767-.144 1.135-.082 1.135-.082Z" fill="#F9DACE"/><path d="M12.055 21.916c.203.06.516.119.83.173 1.063-.348 2.76-1.473 3.134-1.393.438.094.808.327.929.6 0 0-.028-.52-.922-.776 0 0-.368-.063-1.135.082-.333.063-3.971.543-3.986.645-.002.015-.002.03-.001.045.026.338.912.553 1.151.624Z" fill="#DEC5BE"/><path d="M15.329 20.682c-.87.247-2.978 1.374-4.274 1.38-.398-.114-.443-.309-.564-.83-.122-.52.873-1.139 1.482-1.119 2.7.13 4.054.407 4.054.407s-.284.044-.698.162ZM16.99 11.806c.16.268.38.583.307 1.982-.067 1.278-.333 1.569-.689 1.705-.212.081-.38.077-.772.023l-.044.754s-.454 1.02-1.711 1.017c-1.3-.003-.143-1.106-.143-1.106l.065-1.617s-.291.134-.633-.16c-.374-.32-.352-.79-.145-1.038.229-.274.697-.142.886.215.305.09.423-.32.347-.786 0 0 .602-.208.515-.878.517.362 1.693.43 2.017-.11Z" fill="#F9DACE"/><path d="m16.538 13 .401-.195a.214.214 0 0 1-.094.296.234.234 0 0 1-.307-.1ZM15.783 12.944l-.43-.14a.218.218 0 0 0 .136.284.238.238 0 0 0 .294-.143Z" fill="#332418"/><path d="M15.836 15.516c-.808-.123-1.474-.433-1.615-.764 0 0 .06.354.325.555.362.274 1.278.423 1.278.423l.012-.214Z" fill="#DEC5BE"/><path d="M16.69 13.345c-.013.1.059.195.16.211a.18.18 0 0 0 .208-.153.192.192 0 0 0-.16-.212.179.179 0 0 0-.208.153ZM15.312 13.359c-.013.1.059.195.16.212a.18.18 0 0 0 .209-.154.192.192 0 0 0-.16-.212.18.18 0 0 0-.209.154ZM15.972 14.393a.47.47 0 0 0-.205-.039c-.033.003-.067.003-.098.014-.014.006-.04.017-.031.034.008.015.043.014.058.013.098-.004.2.01.289.054.094.045.16.128.215.214.012.019.023-.01.021-.02-.025-.126-.134-.224-.25-.27Z" fill="#332418"/><path d="m21.216 11.267-1.087.737.162.388-.726.153.18.325-.82.346 1.426-.067-.211-.355.95-.054-.245-.531.865-.097-.494-.845Z" fill="#A467A7"/><path d="m21.216 11.267-1.087.737.162.388-.726.153.18.325-.82.346 1.426-.067-.211-.355.95-.054-.245-.531.865-.097-.494-.845Z" fill="#6A594E"/><path d="m18.62 11.892.351.285-.348.819.845-.899-.267-.249.646-.7-.662-.337-.565 1.08Z" fill="#A467A7"/><path d="m18.62 11.892.351.285-.348.819.845-.899-.267-.249.646-.7-.662-.337-.565 1.08Z" fill="#6A594E"/><path d="m20.6 13.37-.231.389-1.276-.185 1.391.713.223-.349.845.402.128-.769-1.08-.2Z" fill="#A467A7"/><path d="m20.6 13.37-.231.389-1.276-.185 1.391.713.223-.349.845.402.128-.769-1.08-.2Z" fill="#6A594E"/><path d="M16.068 14.123c.001-.007.074-.006.19.001.03.002.058.002.066-.017.011-.02.005-.053-.003-.089l-.045-.235c-.06-.335-.099-.608-.085-.61.013-.003.073.267.134.601l.04.236c.006.035.018.076-.005.116a.073.073 0 0 1-.055.034c-.02.002-.036 0-.05-.003a.764.764 0 0 1-.187-.034Z" fill="#332418"/><g opacity=".57"><path d="M28.47 16.81c-.036-.087.016-.193-.012-.285-.014-.042-.043-.078-.068-.115-.025-.037-.047-.08-.042-.124.012-.1.135-.08.205-.075.096.008.19.028.282.057.184.057.356.147.52.247.087.055.172.112.264.16.063.033.13.061.198.084a.095.095 0 0 0 .05.008c.075-.015.013-.171.01-.218-.005-.118-.012-.288.083-.377.16-.148.119.193.367.515.252.329.235.64.458.893.221.252 1.662 1.415 1.662 1.415s.83-.978 1.503-1.92c.732-1.026 1.033-1.128 1.572-1.252.285.944-.378 2.623-.378 2.623s-1.369 1.535-1.912 1.983c-.375.31-.675.402-1.306-.06-.321-.235-1.27-1.307-1.543-1.616a3.544 3.544 0 0 0-.22-.23c-.075-.072-.171-.117-.262-.166-.204-.11-.414-.21-.61-.333a1.813 1.813 0 0 1-.45-.388c-.032-.039-.062-.08-.088-.123-.02-.034-.03-.071-.051-.104-.056-.089-.117-.166-.134-.274-.012-.078 0-.164-.038-.233-.017-.03-.041-.054-.055-.084-.003-.002-.004-.005-.005-.008Z" fill="#F9DACE"/><path d="M35.425 15.812c-.265.08-.617.155-.956.504-.154.159-.473.57-.974 1.213-.4.512-1.055 1.388-1.055 1.388l-.995-.746s.016.263-.24.534c-.255.27-.554.35-.554.35s.523.623.918 1.017c.323.321.75.704.916.785.166.08.382.004.752-.337s2.453-2.54 2.453-2.54l-.265-2.168Z" fill="#917A69"/><path d="M30.65 19.055s.3-.08.555-.35c.256-.271.24-.535.24-.535l-.369-.315s-.01.15-.224.427a1.19 1.19 0 0 1-.562.37l.36.403Z" fill="#7E6C5E"/><path d="m36.048 37.658-.472-.174.152-.32.291.269.029.225Z" fill="#2C211D"/><path d="m36.53 36.807.025.403c.005.096-.405.399-.507.448l-.028-.225c-.088.089-.14.201-.234.366-.078.139-.178.4-.395.578-.321.265-.824.401-1.338.422-.514.022-.808-.103-.955-.213-.147-.111-.194-.241-.158-.372.036-.13 3.59-1.407 3.59-1.407Z" fill="#43342C"/><path d="m35.15 35.77-.007-.178c-.095-.002-.105.255-.242.482-.184.304-.455.686-.718.928-.518.477-.982.778-1.213.993-.31.288.24.74 1.078.688.416-.026 1.154-.24 1.36-.486.207-.247.332-.631.498-.81.165-.18.522-.362.624-.58.056-.12.025-.397-.011-.633-.032-.217-.04-.55-.163-.521l-.008.111c-.049.095-.164.253-.5.311-.166.029-.666.046-.698-.305Z" fill="#55443A"/><path opacity=".15" d="M35.58 36.085c-.161-.013-.333-.065-.401-.21l-.004-.004s.043.166-.106.343c-.149.176-1.09 1.418-1.09 1.418s.877-1.026 1.044-1.218c.249-.286.328-.32.557-.328v-.001ZM35.372 36.414a.051.051 0 1 0 .102-.012.051.051 0 0 0-.102.012ZM35.126 36.689a.051.051 0 1 0 .102-.012.051.051 0 1 0-.102.012ZM34.88 36.963a.051.051 0 1 0 .045-.057.051.051 0 0 0-.045.057ZM34.634 37.238a.051.051 0 1 0 .102-.012.051.051 0 0 0-.102.012ZM34.388 37.513a.051.051 0 1 0 .102-.012.051.051 0 0 0-.057-.045.051.051 0 0 0-.045.057Z" fill="#040000"/><path d="M35.425 36.428a.02.02 0 0 0 .012-.035c-.01-.01-.258-.247-.58-.227h-.001a.02.02 0 0 0-.019.022c0 .012.01.02.022.02.304-.02.547.212.55.214a.02.02 0 0 0 .016.006Z" fill="#263138"/><path d="M35.18 36.702a.02.02 0 0 0 .012-.035c-.01-.01-.258-.247-.581-.227a.02.02 0 0 0-.02.022c.002.012.011.02.023.02.304-.02.547.212.549.214a.02.02 0 0 0 .016.006ZM34.932 36.978a.02.02 0 0 0 .013-.035c-.01-.01-.258-.247-.581-.227a.02.02 0 0 0-.02.022c.002.012.011.02.023.02.304-.02.547.212.549.214a.02.02 0 0 0 .016.006ZM34.685 37.253c.005 0 .01-.003.013-.007a.02.02 0 0 0 0-.029c-.01-.01-.258-.246-.581-.226a.02.02 0 0 0-.02.022c.002.011.011.02.023.019.303-.02.547.212.549.215a.02.02 0 0 0 .016.006ZM34.44 37.528a.02.02 0 0 0 .013-.036c-.01-.01-.259-.246-.581-.226a.02.02 0 0 0-.02.022c.002.011.011.02.022.019.304-.02.547.212.55.215.005.004.01.006.016.006Z" fill="#382A24"/><path d="M38.94 39.051c-.011.411.028.688.152.94.124.253.391.352.674.306.283-.045.655-.202.765-.548.11-.346.116-.588.086-.973l-1.676.275Z" fill="#43342C"/><path d="M40.303 36.188c.113.02.098.571.116 1.127.019.595.173.854.194 1.342.023.559-.027.803-.25 1.119-.223.316-.936.583-1.231.076-.241-.413-.214-.846-.141-1.395.076-.567.134-.965.148-1.4.015-.415.02-.818.124-.855.003.062.004.14.006.2.002.045-.006.27.058.278a.856.856 0 0 0 .015-.156c0-.047.01-.097.043-.13.034-.034.085-.04.132-.046.114-.012.229-.022.344-.022.057 0 .114.002.171.008.047.004.1.013.143.033.026.013.05.034.057.061.006.02.002.043 0 .064a.45.45 0 0 0 .005.115c.002.016.012.037.029.035.013-.003.02-.019.02-.032.007-.066.003-.115.007-.193.002-.036 0-.086.002-.122a1.11 1.11 0 0 0 .008-.107Z" fill="#55443A"/><path opacity=".15" d="M40.182 38.757a.04.04 0 0 1-.039.04.04.04 0 0 1-.04-.04.04.04 0 0 1 .04-.04.04.04 0 0 1 .04.04ZM40.178 38.373a.04.04 0 0 1-.04.04.04.04 0 0 1-.04-.04.04.04 0 0 1 .04-.04.04.04 0 0 1 .04.04ZM40.174 38.01a.04.04 0 0 1-.04.04.04.04 0 0 1-.04-.039.04.04 0 0 1 .04-.04.04.04 0 0 1 .04.04ZM40.169 37.653a.04.04 0 0 1-.04.04.04.04 0 0 1-.04-.04.04.04 0 0 1 .04-.04.04.04 0 0 1 .04.04ZM39.416 37.635a.04.04 0 0 1-.04.04.04.04 0 0 1-.04-.04.04.04 0 0 1 .04-.04.04.04 0 0 1 .04.04ZM39.42 37.995a.04.04 0 0 1-.04.04.04.04 0 0 1-.04-.04.04.04 0 0 1 .04-.04.04.04 0 0 1 .04.04ZM39.425 38.358a.04.04 0 0 1-.04.04.04.04 0 0 1-.04-.04.04.04 0 0 1 .04-.04.04.04 0 0 1 .04.04ZM39.43 38.742a.04.04 0 0 1-.04.04.04.04 0 0 1-.04-.039.04.04 0 0 1 .08 0ZM39.75 38.951l-.074-2.684.147.01-.073 2.674Z" fill="#040000"/><path d="m40.144 38.778-.007-.001c-.258-.082-.556-.09-.74-.019a.02.02 0 0 1-.026-.011.02.02 0 0 1 .012-.026c.195-.075.496-.069.767.017a.02.02 0 0 1 .013.025.02.02 0 0 1-.02.015ZM40.139 38.394a.02.02 0 0 1-.01-.003c-.194-.113-.526-.097-.736-.016a.02.02 0 0 1-.026-.012.02.02 0 0 1 .011-.026c.22-.084.568-.1.77.02a.02.02 0 0 1 .008.027.02.02 0 0 1-.017.01ZM40.134 38.03c-.004 0-.007 0-.01-.002-.193-.113-.526-.097-.736-.016a.02.02 0 0 1-.015-.038c.22-.084.567-.1.77.02a.02.02 0 0 1 .008.028.02.02 0 0 1-.017.009ZM40.129 37.674a.02.02 0 0 1-.01-.003c-.193-.113-.526-.097-.736-.016-.01.004-.022-.001-.026-.012a.02.02 0 0 1 .011-.026c.22-.084.567-.1.771.02a.02.02 0 0 1 .007.027.02.02 0 0 1-.017.01Z" fill="#382A24"/><path d="M39.4 20.682c.246.485.555 1.42.613 2.045.24 2.571.397 6.53.397 6.53.027.268.073.737.208 1.919.158 1.397.041 6.112.041 6.112s-1.072.453-1.701.047c0 0-.906-6.42-1.106-7.81-.175-1.21-.462-3.415-.462-3.415l-.336 3.449s.124.83.057 1.68c-.064.82-.56 5.257-.56 5.257s-1.1.475-1.929-.15c0 0 .057-5.575.026-6.563-.06-1.938.01-6.098.153-8.09l4.6-1.01Z" fill="#6A5649"/><path opacity=".2" d="m37.39 26.11-.25-1.642s-.933.025-1.43-.414c0 0 .2.591 1.149.653l.24 1.482.011 2.904.28-2.983Z" fill="#040000"/><path d="M37.996 15.28c.783.119 1.605.45 2.114.676.148.119.228.579.169 1.062-.204 1.666-.428 3.56-.428 3.56l.171 2.268c-.642.656-3.709.849-5.289-.17 0 0 .021-3.076.168-5.01.106-1.39.406-1.75.524-1.854 0 0 1.634-.673 2.572-.531Z" fill="#917A69"/><path d="m38.395 13.751.018.648s.12-.414.307-.758c.156-.287.378-.873.396-1.203.017-.319-.142-1.012-.499-1.333-.492-.442-.972-.52-1.6-.507-.473.01-1.004.25-1.195.452-.213.227-.478.709-.378 1.461 0 0 2.685 1.229 2.95 1.24Z" fill="#332418"/><path d="M37.748 11.428c.01.227.132.632.466.897-.023.256-.046.519.018.768a.422.422 0 0 0 .065.15.187.187 0 0 0 .139.08c.074.002.103-.044.123-.104.026-.075.066-.147.102-.22.018-.036.039-.058.062-.087.108-.109.436-.251.606.096.177.36-.095.86-.36.948-.456.15-.572-.16-.572-.16l.041 1.537c-.111.394-.86 1.027-1.88 1.242 0 0-.375-.33.122-1.177l-.015-.543s-.35.034-.605-.062c-.22-.083-.432-.243-.527-.737a5.523 5.523 0 0 1-.049-1.884c.068-.436.333-.829.473-.93 0 .093.099.335.497.381.497.057.945-.032 1.294-.195Z" fill="#F9DACE"/><path d="M36.558 16.576s.12-.25.212-.484c.054-.092.967-.478 1.303-.748.3-.24.35-.396.35-.396l-.04.463s-.457 1.087-1.825 1.165Z" fill="#6F5E52"/><path d="M36.77 16.092c.12-.138.804.508.892.685 0 0 .653-.375.898-.689.263-.336.336-.595.336-.595s-.162-.242-.227-.38c-.113-.24-.188-.349-.246-.33l.002.146c-.121.187-.34.342-.726.589-.572.366-.877.461-.928.574ZM36.679 15.398l-.012-.43s-.061.002-.132.163c-.087.196-.132.24-.302.4-.106.248-.255.477-.132 1.045.133-.413.244-.389.266-.407.145.428.178.401.178.401s-.19-.547.134-1.172Z" fill="#7E6C5E"/><path d="m37.055 12.401.355.196a.212.212 0 0 0-.083-.282.198.198 0 0 0-.272.086ZM35.593 12.454l.363-.16a.192.192 0 0 0-.256-.1.202.202 0 0 0-.107.26Z" fill="#332418"/><path d="M36.665 14.855c.492-.003.852-.15 1.087-.289.172-.1.438-.424.48-.528 0 0-.071.445-.32.652-.45.373-1.242.357-1.242.357l-.005-.192Z" fill="#DEC5BE"/><path d="M36.86 12.878c.002.089.072.16.157.158a.158.158 0 0 0 .153-.163.157.157 0 0 0-.157-.158.158.158 0 0 0-.153.163ZM36.975 13.803l-.37.136a.194.194 0 0 0 .25.124.207.207 0 0 0 .12-.26ZM35.702 12.86c.002.089.072.16.158.159a.16.16 0 0 0 .153-.165.158.158 0 0 0-.157-.159.16.16 0 0 0-.154.164Z" fill="#332418"/><path d="M40.185 23.84c-.024.28-.024.446-.138.616-.07.103-.198.191-.278.273-.237.241-.208.39-.382.612-.136.174-.262.226-.237.274.032.063.15.158.331.083.09-.038.113-.057.254-.168-.01.056-.03.133-.038.152a2.588 2.588 0 0 1-.134.29c-.073.14-.115.194-.208.322-.092.125-.22.241-.29.381-.057.114.06.16.162.16.113 0 .215-.065.33-.049.054.008.095.04.147.056.113.034.18-.011.28-.054.147-.062.301-.105.43-.203.134-.102.248-.232.346-.37.083-.116.154-.24.216-.37.063-.13.094-.27.145-.407.148-.396.26-.919.369-1.445.109-.526.476-2.57.476-2.57l-1.585-.238s-.161 2.234-.196 2.655Z" fill="#F9DACE"/><path d="M39.802 15.823c.315.108.768.228 1.086.522.422.39.51 1.285.735 2.327.226 1.043.282 1.37.36 2.133.019.186.051.334.003.626-.077.464-.398 2.111-.398 2.111s-.812.173-1.375-.203l.139-2.496-.91-2.976s-.142-.949.36-2.044Z" fill="#917A69"/><path d="M40.212 23.34c.563.375 1.375.203 1.375.203l-.133.67s-.227.078-.657.034c-.43-.044-.636-.252-.636-.252l.051-.656Z" fill="#7E6C5E"/><path d="M31.417 37.803c.023 0 .05.224-.073.329-.14.121-.546.33-1.091.26-.546-.071-.84-.226-1.06-.409-.217-.182-.524-.44-.77-.495-.23-.05-.478-.154-.552-.225-.073-.07-.063-.386-.063-.386l3.61.926Z" fill="#55443A"/><path d="M28.04 35.849s-.068 0-.082.074c-.017.086-.032.36-.068.502-.05.199-.103.4-.073.561.112.174.404.274.643.365.244.093.526.284.774.489.256.211.795.431 1.151.428.42-.003.894-.139 1.003-.334.134-.241-.04-.358-.663-.647-.118-.055-.515-.3-.656-.39-.383-.24-.98-.663-1.098-1.166a1.033 1.033 0 0 0-.3.091c-.084.04-.203.086-.201.194 0 .037.011.073.023.108.008.022.014.051-.005.064-.019.013-.043-.001-.059-.016-.065-.059-.387-.273-.388-.323Z" fill="#6A5649"/><path d="M25.43 39.151c-.005.372-.05.62-.172.843-.121.223-.366.303-.62.251-.254-.052-.51-.197-.597-.513-.087-.316-.07-.58-.029-.926l1.418.346Z" fill="#55443A"/><path d="M25.405 38.613c-.048-.515-.132-.873-.129-1.266.003-.375-.005-.753-.034-.78l-.907-.05c-.042-.002-.104.477-.147 1.002-.05.62-.11.81-.172 1.27-.068.5-.025.76.114.983.186.296.81.543 1.096.096.233-.365.225-.757.179-1.255Z" fill="#6A5649"/><path d="M29.25 36.148c-.167-.182-.173-.33-.186-.688-.01-.286.143-2.666.205-3.608l.025-.373v-.01c.047-.735.087-1.562.076-2.129-.027-1.417-.273-6.167-.448-8.192l-3.473-.246c-.235.5-.893 1.32-1.104 1.882-.432 1.15-.226 1.982-.1 3.495.133 1.62.261 2.901.261 2.901-.024.288-.425.85-.476 2.123-.049 1.19.087 2.708.087 2.708.064.907.181 1.684.204 2.505.003.096-.014.483-.049.931-.034.444-.084.967-.043 1.19.115.631.815.742.936.212.08-.35.071-.637.054-1.113-.016-.465.025-.962.026-1.044-.005-.584.223-1.505.398-2.525 0 0 .673-3.228.86-4.717.164-1.3.351-2.35.351-2.35l.508 2.418s-.063.65-.09 1.207c-.014.302.07.875.166 1.407.352 2.102.574 3.482.59 3.632.017.15.006.229.004.28-.009.215.345.444.704.716.142.108.638.484 1.066.672.456.2 1.066.085.923-.146-.497-.32-1.128-.756-1.476-1.138Z" fill="#F9DACE"/><path opacity=".2" d="m26.855 27.101.306-2.504s.717-.065 1.293-.74c0 0-.17.601-1 .923L27.05 27l.313 2.52-.508-2.419Z" fill="#040000"/><path d="M29.485 29.575c-.023-.488-.35-7.067-.563-8.427l-3.812-.006c-.422.704-.928 1.374-1.09 2.76-.163 1.386.325 4.182.312 4.855-.014.673-.41 2.018-.436 2.717 0 0 .372.255.688.347l.355-2.984.105 3.05s.633.286 2.229.194c1.596-.093 2.142-.567 2.142-.567s.092-1.45.07-1.939Z" fill="#7E6C5E"/><path d="M28.059 16.291c.35-.027.735-.086 1.22.534.487.62 1.542 3.267 1.525 3.426-.016.159-.583.922-1.083.733-.5-.189-1.593-3.003-1.593-3.003l-.07-1.69Z" fill="#F9DACE"/><path d="M31.389 21.088s-.826.43-1.363.483c-.386.037-.537-.376-1.067-1.695l2.43 1.212ZM28.028 16.198c.39-.005.69.012.995.246.305.235.48.588.66.635.18.047.271 0 .271 0s.106.284-.135.35c-.24.067-.26.084-.24.231.021.147-.044.25-.268.272-.223.022-.186.186-.308.29-.122.103-.308.043-.308.043l-.667-2.067Z" fill="#917A69"/><path d="M29.086 19.709c.716-.67.515-1.401.255-1.94-.521-1.075-1.078-1.571-1.313-1.571l-1.472-.002c-.704.084-1.31.182-1.463.2-.205.026-.562.493-.587.953-.027.504.125.453.242 1.29 0 0 .353.585.46.944.109.36.15.778.009 1.181-.061.175-.125.286-.271.529a7.69 7.69 0 0 0-.812 1.95s.645.009 1.056-.47c0 0 .56.843 1.946.912 1.387.07 2.072-1.163 2.072-1.163l-.297-1.6c.06-.284.132-.821.175-1.213Z" fill="#917A69"/><path opacity=".1" d="M25.935 19.431s.279.635 1.085.62c.737-.014 1.039-.634 1.039-.634s-.041.846-1.041.837c-1-.01-1.083-.823-1.083-.823Z" fill="#040000"/><path d="M27.271 24.308v.906c0 .02.014.041.04.057l1.638.945a.2.2 0 0 0 .098.023v-2.988l-1.735 1.001c-.027.015-.04.036-.04.056Z" fill="#41322B"/><path d="m29.144 26.215 1.82-1.05c.028-.016.041-.037.041-.057v-.906c0-.02-.013-.04-.04-.056l-1.637-.945a.216.216 0 0 0-.195 0l-.086.05v2.988c.035 0 .07-.008.097-.024Z" fill="#5A453E"/><path d="m28.95 25.31-1.637-.945c-.054-.032-.054-.082 0-.113l1.82-1.051a.215.215 0 0 1 .195 0l1.637.945c.054.03.054.082 0 .113l-1.82 1.05a.216.216 0 0 1-.195 0Z" fill="#5D4B44"/><path d="M30.08 24.47c.01-.015.019-.03.027-.046l.006-.012a.457.457 0 0 0 .017-.04l.004-.012a.33.33 0 0 0 .013-.05v-.001a.399.399 0 0 0 .005-.052v-.015a.312.312 0 0 0-.004-.036l-.003-.018-.008-.034-.005-.017a.399.399 0 0 0-.02-.048l-.009-.014a.459.459 0 0 0-.02-.034c-.005-.006-.01-.012-.014-.02l-.011-.014-.017-.02-.01-.01c-.216-.249-.534-.332-.891-.332-.356 0-.675.084-.892.333l-.008.009-.018.02-.01.016-.014.018a.531.531 0 0 0-.022.036l-.007.013a.436.436 0 0 0-.02.048l-.005.015a.372.372 0 0 0-.009.037c0 .006-.002.01-.003.017a.353.353 0 0 0-.003.038v.013a.35.35 0 0 0 .039.156l.005.01a.41.41 0 0 0 .03.049v.001a.475.475 0 0 0 .041.05l.004.004a.601.601 0 0 0 .044.043l.01.01a.8.8 0 0 0 .047.036l.012.01c.02.014.042.028.065.041.395.228 1.036.228 1.43 0a.953.953 0 0 0 .065-.041l.014-.01.044-.035.013-.01a.533.533 0 0 0 .042-.042l.004-.005a.578.578 0 0 0 .04-.05c0-.003 0-.004.002-.006Z" fill="#A467A7"/><path d="M30.08 24.47c.01-.015.019-.03.027-.046l.006-.012a.457.457 0 0 0 .017-.04l.004-.012a.33.33 0 0 0 .013-.05v-.001a.399.399 0 0 0 .005-.052v-.015a.312.312 0 0 0-.004-.036l-.003-.018-.008-.034-.005-.017a.399.399 0 0 0-.02-.048l-.009-.014a.459.459 0 0 0-.02-.034c-.005-.006-.01-.012-.014-.02l-.011-.014-.017-.02-.01-.01c-.216-.249-.534-.332-.891-.332-.356 0-.675.084-.892.333l-.008.009-.018.02-.01.016-.014.018a.531.531 0 0 0-.022.036l-.007.013a.436.436 0 0 0-.02.048l-.005.015a.372.372 0 0 0-.009.037c0 .006-.002.01-.003.017a.353.353 0 0 0-.003.038v.013a.35.35 0 0 0 .039.156l.005.01a.41.41 0 0 0 .03.049v.001a.475.475 0 0 0 .041.05l.004.004a.601.601 0 0 0 .044.043l.01.01a.8.8 0 0 0 .047.036l.012.01c.02.014.042.028.065.041.395.228 1.036.228 1.43 0a.953.953 0 0 0 .065-.041l.014-.01.044-.035.013-.01a.533.533 0 0 0 .042-.042l.004-.005a.578.578 0 0 0 .04-.05c0-.003 0-.004.002-.006Z" fill="#4B3A31"/><path d="M29.139 23.904c-.016 0-.031 0-.044-.002a.082.082 0 0 0-.082.052c-.083.203-.154.419-.217.645a.087.087 0 0 0 .07.11c.06.012.152.024.273.024.12 0 .212-.012.273-.023a.088.088 0 0 0 .069-.111 5.763 5.763 0 0 0-.217-.645.083.083 0 0 0-.082-.052.446.446 0 0 1-.043.002ZM29.332 23.968c.083.183.154.384.216.6.015.051.067.081.117.062a.971.971 0 0 0 .263-.15c.04-.035.046-.104.015-.147a1.794 1.794 0 0 0-.478-.443c-.044-.029-.1-.038-.125-.026-.026.012-.029.056-.008.104ZM29.503 23.858c.186.12.346.259.477.416.033.04.082.038.094-.014a.298.298 0 0 0 .008-.074c-.001-.053-.048-.124-.088-.159-.14-.12-.31-.21-.465-.25-.051-.014-.092-.008-.096.007-.004.014.026.045.07.074Z" fill="#6C534A"/><path d="M29.417 23.713c-.009-.012.011-.024.05-.027a.434.434 0 0 1 .068.001.794.794 0 0 1 .476.27c.03.04.015.044-.026.01a1.097 1.097 0 0 0-.46-.22c-.052-.01-.1-.022-.108-.034ZM28.945 23.968a4.506 4.506 0 0 0-.215.6c-.015.051-.067.081-.116.062a.97.97 0 0 1-.264-.15c-.04-.035-.046-.104-.015-.147.122-.17.284-.316.478-.443.044-.029.1-.038.125-.026.026.012.029.056.007.104ZM28.775 23.858c-.185.12-.345.259-.476.416-.034.04-.083.038-.095-.014a.298.298 0 0 1-.008-.074c.001-.053.048-.124.088-.159.14-.12.31-.21.465-.25.05-.014.092-.008.096.007.004.014-.026.045-.07.074Z" fill="#6C534A"/><path d="M28.86 23.713c.01-.012-.01-.024-.049-.027a.433.433 0 0 0-.069.001.794.794 0 0 0-.475.27c-.03.04-.015.044.025.01.11-.09.287-.186.46-.22.052-.01.1-.022.108-.034Z" fill="#6C534A"/><path d="M29.99 22.182h-.007c-.075-.002-.168-.054-.183-.192-.014-.133.018-.495.628-.977.517-.41.948-.792.973-1.325.01-.195-.064-.354-.182-.395-.124-.042-.284.056-.429.264-.095.136-.11.302-.09.344l.02-.008a.083.083 0 0 1 .113.039.083.083 0 0 1-.039.112c-.123.06-.194 0-.218-.029-.1-.118-.04-.387.076-.554.274-.392.526-.359.621-.326.193.066.309.286.296.561-.029.603-.487 1.012-1.037 1.448-.444.352-.583.658-.564.828.002.02.007.042.021.042.024.002.079-.03.091-.098a.084.084 0 0 1 .165.03c-.025.134-.136.236-.255.236Z" fill="#A467A7"/><path d="M29.99 22.182h-.007c-.075-.002-.168-.054-.183-.192-.014-.133.018-.495.628-.977.517-.41.948-.792.973-1.325.01-.195-.064-.354-.182-.395-.124-.042-.284.056-.429.264-.095.136-.11.302-.09.344l.02-.008a.083.083 0 0 1 .113.039.083.083 0 0 1-.039.112c-.123.06-.194 0-.218-.029-.1-.118-.04-.387.076-.554.274-.392.526-.359.621-.326.193.066.309.286.296.561-.029.603-.487 1.012-1.037 1.448-.444.352-.583.658-.564.828.002.02.007.042.021.042.024.002.079-.03.091-.098a.084.084 0 0 1 .165.03c-.025.134-.136.236-.255.236Z" fill="#41322B"/><path d="M31.288 20.11c.071.071.183.013.202-.042 0 0 .091-.264.079-.408.165.06.405.315.44.389.024.047.017.118 0 .167-.021.059-.087.088-.112.146-.027.061 0 .134-.018.199-.027.103-.155.157-.174.262-.01.051.01.105.004.157-.008.062-.052.113-.097.157-.06.057-.142.126-.229.131-.167.01-.367-.048-.524-.104-.034-.012-.071-.068-.094-.096l-.09-.113c-.048-.06-.098-.127-.09-.202.006-.046.032-.086.043-.13.016-.067-.004-.138.001-.207.012-.168.168-.295.197-.46.01-.054.005-.11.006-.164a.29.29 0 0 1 .038-.157c.065-.097.278-.13.382-.097.066.02.146.055.146.055a.995.995 0 0 1-.11.517Z" fill="#F9DACE"/><path d="M27.273 20.215c0 .914.316 1.382.681 1.935.433.655 1.01 1.112 1.034 1.573 0 .023.015.045.045.062.06.035.155.035.214 0 .03-.017.045-.04.045-.061.01-.462.601-.918 1.034-1.573.365-.554.68-1.014.68-1.935h-3.733Z" fill="#554239"/><path opacity=".1" d="M27.273 20.229c.003.904.318 1.37.681 1.921.433.655 1.01 1.112 1.034 1.573 0 .023.015.045.045.062a.17.17 0 0 0 .044.018 2.55 2.55 0 0 0-.48-1.394 3.176 3.176 0 0 1-.617-1.88s-.4-.237-.584-.313h-.12a.024.024 0 0 0-.003.012Z" fill="#040000"/><path d="M27.82 20.977c.729.42 1.91.42 2.64 0 .728-.421.728-1.103 0-1.524-.73-.42-1.911-.42-2.64 0-.729.421-.729 1.104 0 1.524Z" fill="#A467A7"/><path d="M27.82 20.977c.729.42 1.91.42 2.64 0 .728-.421.728-1.103 0-1.524-.73-.42-1.911-.42-2.64 0-.729.421-.729 1.104 0 1.524Z" fill="#41322B"/><path d="M28.07 20.832c.59.341 1.548.341 2.139 0 .59-.34.59-.893 0-1.234-.591-.341-1.548-.341-2.139 0-.59.34-.59.894 0 1.235Z" fill="#A467A7"/><path d="M28.07 20.832c.59.341 1.548.341 2.139 0 .59-.34.59-.893 0-1.234-.591-.341-1.548-.341-2.139 0-.59.34-.59.894 0 1.235Z" fill="#554239"/><path opacity=".2" d="M28.526 19.417a1.8 1.8 0 0 0-.456.18c-.59.342-.59.895 0 1.235.107.062.226.113.353.152-.423-.716-.179-1.419.103-1.567Z" fill="#040000"/><path d="M28.336 23.145c-.064 0-.115-.044-.13-.113a.084.084 0 0 1 .15-.067.357.357 0 0 0 .126-.232c.005-.053 0-.123-.048-.16-.041-.032-.152-.07-.436.033-.384.14-.719.243-.934.1-.112-.074-.174-.209-.184-.4-.018-.35.195-.827.464-1.043.134-.107.275-.144.406-.107.088.024.15.106.17.22a.442.442 0 0 1-.181.432.084.084 0 0 1-.117-.023.084.084 0 0 1 .023-.117c.094-.062.122-.181.108-.266-.007-.045-.026-.079-.048-.085-.078-.022-.164.004-.256.077-.225.18-.416.61-.402.903.007.137.043.225.11.27.15.099.469-.005.783-.119.274-.1.475-.102.596-.008.085.065.125.175.112.31-.018.19-.168.385-.302.394h-.01Z" fill="#A467A7"/><path d="M28.337 23.145c-.064 0-.115-.044-.131-.113a.084.084 0 0 1 .15-.067.357.357 0 0 0 .126-.232c.005-.053.001-.123-.047-.16-.042-.032-.153-.07-.437.033-.383.14-.718.243-.933.1-.113-.074-.175-.209-.184-.4-.018-.35.195-.827.464-1.043.134-.107.275-.144.406-.107.088.024.15.106.169.22a.442.442 0 0 1-.18.432.084.084 0 1 1-.094-.14c.094-.062.122-.181.108-.266-.007-.045-.026-.079-.048-.085-.078-.022-.164.004-.256.077-.225.18-.416.61-.401.903.006.137.042.225.109.27.15.099.469-.005.783-.119.274-.1.475-.102.596-.008.085.065.125.175.112.31-.018.19-.168.385-.302.394h-.01Z" fill="#41322B"/><path d="M23.484 17.454c.01.015.02.03.034.043.026.026.058.046.077.077.045.073-.001.168.007.254.01.105.104.187.122.291.01.063-.008.127-.01.19-.006.152.173.239.3.279.108.034.24.056.29.158.028.057.023.126.05.184.046.099.171.131.28.134.105.003.223-.017.282-.103a.351.351 0 0 0 .048-.176c.026-.315-.003-.641-.135-.929-.13-.288-.374-.534-.678-.622-.035-.01-.074-.03-.11-.032-.057-.003-.125.021-.183.026a1.468 1.468 0 0 1-.379-.016.248.248 0 0 0 .005.242Z" fill="#7E6C5E"/><path d="M25.043 16.467c-.71.099-.942.272-1.187.876-.235.58-.846 2.599-1.005 3.146-.162.556-.037.678.338.885.253.14.62.298.94.436.128.055.885.36 1.144.464.259.103.437.243.645.37.24.144.442.367.709.432.09.022.207.004.306-.02.197-.045.34-.094.466-.213.14-.133.155-.381.178-.567a.771.771 0 0 0-.037-.41.916.916 0 0 0-.175-.236c-.021-.023-.049-.064-.078-.055 0 0-.037.054-.049.075-.018.033-.048.085-.07.133-.014.032-.026.069-.059.082-.04.018-.09-.008-.11-.047-.019-.04.004-.083.024-.122.017-.035.03-.067.051-.1l.074-.117a.262.262 0 0 0-.076-.02c-.185-.016-.337.026-.517.066-.058.013-.128.042-.187.035-.04-.005-.084-.022-.122-.033a1.746 1.746 0 0 1-.308-.133c-.366-.189-1.523-.954-1.523-.954l.833-2.084c0 .001.293-1.542-.205-1.889Z" fill="#F9DACE"/><path d="M25.328 18.396c.14-.324.363-1.573-.236-2-.313 0-.593.05-1.019.435-.14.126-.387.369-.602.352-.028.132.131.278.239.321.088.037.187.042.28.061.095.02.192.058.244.14.088.137.011.335.1.471.067.1.188.14.28.212a.26.26 0 0 1 .06.061.235.235 0 0 1 .028.131c-.002.075-.017.15 0 .223a.44.44 0 0 0 .13.209c.01.01.073.053.157.065.065-.13.093-.17.141-.26a5.09 5.09 0 0 0 .198-.421Z" fill="#917A69"/><path d="M24.415 20.441c-.463-.138-.798.045-.798.045s.248-.342.861-.201l-.063.156Z" fill="#DEC5BE"/><path d="M27.044 15.612c-.132-.001-1.04-.028-1.04-.028-.15-.32-.418-.439-.771-.851-.314-.367-.448-.848-.448-1.33 0-1.198.924-2.016 2.123-2.016.23 0 .584.047.975.231 0 0 .712-.185 1.09.643.19.414.006 1.103-.316 1.5-.299.37-.081.899-.405 1.245-.223.238-.5.43-.807.542a1.12 1.12 0 0 1-.4.064Z" fill="#332418"/><path d="M28.205 12.26c.24.136.548.725.55 1.977 0 1.06-.337 1.331-.508 1.41-.17.08-.504.042-.83-.004l.016.637s.918.956.176 1.068c-.37.056-.984-.175-1.272-.455-.295-.286-.407-.597-.407-.597l-.017-1.471c-.054.142-.306.15-.46-.015-.242-.259-.29-.648-.088-.864.203-.216.529-.136.683.162 0 0 .19.01.372-.347 0 0 .52-.014 1.003-.302.588-.351.773-.91.782-1.198Z" fill="#F9DACE"/><path d="M27.446 13.928a.15.15 0 0 1-.135.163.15.15 0 0 1-.158-.142.149.149 0 0 1 .135-.162.15.15 0 0 1 .158.141Z" fill="#332418"/><path d="m27.329 14.648.62.181a.317.317 0 0 1-.395.23.339.339 0 0 1-.225-.411Z" fill="#AB6365"/><path d="M27.425 14.795a.28.28 0 0 0-.097.018c.027.114.11.212.226.246.05.015.1.015.148.006a.277.277 0 0 0-.277-.27Z" fill="#E88B8A"/><path d="m28.565 13.452-.334-.138a.174.174 0 0 1 .23-.102.19.19 0 0 1 .104.24ZM27.294 13.367l-.31.187a.173.173 0 0 1 .055-.245.19.19 0 0 1 .255.058ZM28.492 13.843a.15.15 0 0 1-.136.162.15.15 0 0 1-.157-.141.15.15 0 0 1 .135-.163.15.15 0 0 1 .158.142Z" fill="#332418"/><path d="M27.416 15.643c-.342-.036-1.048-.22-1.164-.495 0 0 .04.173.254.348.214.174.915.36.915.36l-.005-.213Z" fill="#DEC5BE"/><path d="m26.048 14.108.013.372a.38.38 0 0 0 .37-.39l-.012-.329-.371.347ZM27.701 14.587c0-.006.062-.005.16 0 .025.002.048.002.055-.014.01-.016.004-.044-.003-.075l-.038-.198c-.05-.282-.083-.512-.072-.513.012-.002.062.224.113.506l.035.199c.003.03.014.063-.005.098a.062.062 0 0 1-.047.028.66.66 0 0 1-.198-.031ZM36.5 13.658a.633.633 0 0 0-.16 0c-.024.002-.048.002-.055-.014-.01-.016-.004-.044.003-.075l.038-.198c.05-.282.083-.511.072-.513-.012-.002-.062.225-.113.506l-.034.199c-.005.03-.015.064.004.098.01.017.03.027.047.028a.655.655 0 0 0 .198-.031Z" fill="#332418"/></g></g><defs><clipPath id="a"><rect width="48" height="48" rx="24" fill="#fff"/></clipPath></defs></svg>