<svg width="48" height="48" fill="none" xmlns="http://www.w3.org/2000/svg"><g clip-path="url(#a)"><rect width="48" height="48" rx="24" fill="#fff"/><g clip-path="url(#b)"><g opacity=".48"><path d="M4.416 38.753c-1.134-2.318.682-4.691 1.839-7.624.862-2.186-.668-4.373-1.119-6.624-.401-2.004-.367-4.325-.015-6.372.48-2.795 1.712-5.465 3.558-7.208 2.876-2.715 6.827-2.843 10.147-1.53 1.39.55 2.745 1.334 4.218 1.414 2.148.117 4.188-1.264 6.245-2.18 2.8-1.247 5.907-1.642 8.63-.421 3.087 1.384 5.37 5 5.259 9.255-.05 1.928-1.814 5.037-1.545 6.92.274 1.909 3.091 8.097 2.541 12.34-.613 4.733-4.833 6.337-8.372 8.434-7.848 4.65-29.211-1.96-31.386-6.404Z" fill="#F2DDD2"/><path d="M13.2 38.976c-2.074-.424-3.516-2.345-3.36-4.478.116-1.594.346-3.259.796-4.123.763-1.464-.213-3.065-.401-4.65-.168-1.41.001-3.014.384-4.41.523-1.908 1.584-3.685 3.034-4.785 2.259-1.714 5.139-1.575 7.47-.475.977.461 1.914 1.082 2.979 1.223 1.554.205 3.122-.634 4.674-1.15 2.114-.7 4.397-.796 6.3.206 2.157 1.136 3.592 3.77 3.248 6.71-.156 1.332-1.632 3.382-1.552 4.7.08 1.338 1.715 5.777 1.08 8.69-.302 1.389-2.384 2.996-4.7 4.395a13.304 13.304 0 0 1-12.917.461c-2.316-1.176-4.972-1.893-7.034-2.314Z" fill="#CFBFB3"/><path d="M16.435 34.649a1.031 1.031 0 0 1-.073-.072c-.495-.537-.38-1.558-.345-2.232.053-1.025.374-2.036.568-3.037.22-1.142.013-2.155-.032-3.276-.04-.999.153-2.097.478-3.03.444-1.272 1.239-2.4 2.256-3.015 1.587-.96 3.492-.567 4.984.44.625.42 1.215.948 1.915 1.156 1.021.302 2.105-.12 3.162-.318 1.439-.27 2.959-.102 4.172.791 1.375 1.013 2.194 2.993 1.817 5.002-.171.91-.57 1.778-.584 2.704-.014.938.331 1.771.456 2.673.097.702-.65 1.607-1.044 2.12a9.514 9.514 0 0 1-1.906 1.864c-1.427 1.05-3.154 1.7-4.928 1.748-1.973.052-3.897-.592-5.748-1.294a85.013 85.013 0 0 1-4.53-1.866c-.219-.097-.441-.2-.618-.358Z" fill="#DCCFC6"/><path d="M22.537 7.073c.16-.949-.49-1.85-1.453-2.013-.963-.164-1.874.473-2.035 1.421-.16.948.49 1.85 1.453 2.013.963.163 1.874-.473 2.035-1.421ZM6.037 9.898c.188.26.554.322.818.138a.571.571 0 0 0 .136-.805.593.593 0 0 0-.818-.139.571.571 0 0 0-.136.806ZM45.106 11.175c.188.26.554.322.818.138a.571.571 0 0 0 .136-.805.593.593 0 0 0-.817-.139.571.571 0 0 0-.137.806ZM43.898 23.216a.853.853 0 0 0 1.176.2.821.821 0 0 0 .197-1.158.853.853 0 0 0-1.176-.2.821.821 0 0 0-.197 1.158Z" fill="#F2DDD2"/><path d="M.581 33.296c.398.55 1.171.682 1.728.293.557-.389.686-1.15.288-1.701a1.253 1.253 0 0 0-1.727-.293 1.206 1.206 0 0 0-.289 1.701ZM41.08 46.157a.868.868 0 0 0 1.198.203.836.836 0 0 0 .2-1.179.868.868 0 0 0-1.197-.203.837.837 0 0 0-.2 1.18Z" fill="#E0E0E0"/><path d="M44.62 20.89a.264.264 0 0 0 .364.062.255.255 0 0 0 .06-.359.264.264 0 0 0-.364-.061.254.254 0 0 0-.06.359Z" fill="#F2DDD2"/><path d="M35.895 45.388c.123.17.363.211.535.09a.374.374 0 0 0 .09-.527.388.388 0 0 0-.536-.091.375.375 0 0 0-.09.528ZM3.728 41.278c.123.17.363.212.535.09a.374.374 0 0 0 .09-.527.388.388 0 0 0-.536-.09.374.374 0 0 0-.09.527Z" fill="#E0E0E0"/><path d="M20.093 33.636a.636.636 0 0 1-.059-.033c-.404-.249-.5-.904-.588-1.328-.136-.646-.097-1.328-.139-1.983-.047-.747-.346-1.34-.56-2.03a5.36 5.36 0 0 1-.194-1.963c.073-.865.394-1.7.942-2.255.854-.864 2.133-.943 3.251-.57.468.155.931.383 1.412.394.702.015 1.323-.43 1.964-.733.873-.412 1.871-.564 2.791-.214 1.044.396 1.893 1.487 1.984 2.8.04.595-.07 1.201.073 1.778.146.585.503 1.045.731 1.584.177.42-.15 1.108-.316 1.494a6.195 6.195 0 0 1-.909 1.48c-.737.894-1.731 1.59-2.855 1.92-1.25.367-2.584.292-3.88.17a57.12 57.12 0 0 1-3.197-.394 1.515 1.515 0 0 1-.451-.117Z" fill="#CFBFB3"/></g><g opacity=".89"><path d="m36.768 28.425 7.566-.105c2.122-.029 3.87 1.393 3.905 3.178l.398 17.23-17.236.24-.612-15.346c-.056-2.823 2.622-5.15 5.979-5.197ZM33.253 19.41c.068.53.438.968.949 1.212l-.038 1.219c-.02.625.567 1.144 1.31 1.16l6.709.147.01-.335c.623.035 1.185-.337 1.28-.866.064-.35-.092-.686-.38-.909.34-.144.596-.419.658-.76.096-.532-.312-1.03-.924-1.15a2.523 2.523 0 0 0-1.225-1.392.934.934 0 0 0 .018-.336c-.077-.605-.724-1.042-1.444-.977a1.417 1.417 0 0 0-.777.31c-.376-.573-1.158-.907-1.964-.778-.574.091-1.035.397-1.289.8a1.324 1.324 0 0 0-.822-.19c-.64.058-1.103.542-1.034 1.08a.83.83 0 0 0 .037.156c-.709.282-1.163.917-1.074 1.61Z" fill="#B5A094"/><path d="M43.622 22.796c-.01-.545-.544-.98-1.193-.971l-.118.002a1.816 1.816 0 0 1-.886.24c-.886.012-1.617-.583-1.632-1.328a1.16 1.16 0 0 1 .072-.422 1.582 1.582 0 0 1-.267-.185 1.84 1.84 0 0 1-1.246-.304c-.396.381-.973.627-1.622.636a2.499 2.499 0 0 1-1.276-.322 1.275 1.275 0 0 1-.673.33l.09 4.588c.024 1.236 1.235 2.22 2.703 2.2h.053l.035 1.795c.02 1.044 1.043 1.876 2.284 1.859 1.242-.018 2.231-.878 2.21-1.922l-.073-3.748c0-.042-.006-.083-.01-.124.004-.053.006-.106.005-.16l-.02-.975.413-.005c.648-.01 1.165-.459 1.154-1.004l-.003-.18Z" fill="#D6BFB4"/><path opacity=".1" d="M41.633 24.8c.023 1.18-1.096 2.152-2.499 2.172l-1.684.024c-1.403.02-2.559-.922-2.582-2.101l.003.166c.024 1.235 1.235 2.22 2.703 2.2l.103-.002.352.368c.569.593 1.642.594 2.212.002l.88-.913c.596-.418.97-1.051.957-1.755l-.02-.976-.441.007.016.808Z" fill="#040000"/><path d="M37.871 22.52c.002.097.097.175.213.173.116-.001.208-.081.206-.179-.002-.097-.097-.174-.213-.173-.115.002-.208.082-.206.18ZM35.355 22.555c.001.097.097.174.212.173.116-.002.208-.082.206-.18-.002-.096-.097-.174-.213-.172-.115.001-.208.081-.206.179Z" fill="#B5A094"/><path opacity=".57" d="M37.834 22.8a.06.06 0 0 1-.044-.018c-.018-.02-.013-.05.011-.064.321-.2.604-.014.606-.013.024.016.027.045.009.065a.06.06 0 0 1-.077.007c-.009-.006-.221-.142-.473.014a.058.058 0 0 1-.032.01ZM35.28 22.836a.06.06 0 0 1-.044-.019c-.017-.02-.013-.049.012-.064.32-.2.602-.014.606-.012.023.016.027.045.008.064a.06.06 0 0 1-.076.008.446.446 0 0 0-.473.014.06.06 0 0 1-.033.01Z" fill="#B5A094"/><path d="M37.32 26.19a.06.06 0 0 1-.032-.008c-.025-.015-.03-.043-.013-.064.243-.291.661-.192.665-.19.029.006.045.032.037.056-.009.025-.038.038-.068.031-.014-.003-.348-.08-.545.156a.061.061 0 0 1-.045.02Z" fill="#B5A094"/><path d="M38.486 23.676c-.069 0-.14-.005-.21-.015a1.352 1.352 0 0 1-.853-.443.963.963 0 0 1-.23-.82c.056-.29.243-.545.527-.717.283-.172.63-.241.975-.194.713.097 1.198.664 1.083 1.264-.104.54-.661.925-1.292.925Zm-.003-2.02c-.227 0-.448.06-.635.173a.907.907 0 0 0-.44.598.802.802 0 0 0 .192.683c.171.199.423.33.711.37.593.08 1.156-.26 1.252-.76.097-.499-.308-.971-.902-1.052a1.342 1.342 0 0 0-.178-.012ZM35.447 23.758c-.07 0-.14-.004-.21-.014-.714-.097-1.199-.664-1.083-1.264.115-.6.79-1.008 1.502-.91.713.097 1.198.664 1.083 1.263-.105.54-.662.925-1.292.925Zm-.002-2.019c-.525 0-.99.321-1.076.77-.097.5.308.972.902 1.054.594.081 1.156-.26 1.252-.759.096-.5-.308-.971-.902-1.053a1.308 1.308 0 0 0-.176-.012Z" fill="#fff"/><path d="M39.2 21.289c-.111.019-.24-.017-.369-.044a7.293 7.293 0 0 0-.747-.136c-.13-.02-.266-.033-.357-.089-.089-.052-.103-.159.044-.26.14-.099.456-.176.832-.108.376.069.621.25.695.387.08.141.01.233-.097.25ZM35.084 21.357c.112.013.24-.027.366-.06a7.423 7.423 0 0 1 .739-.166c.129-.024.264-.043.352-.102.085-.056.093-.164-.06-.259-.144-.093-.465-.158-.837-.075-.371.085-.606.274-.672.415-.07.146.003.234.111.247ZM42.761 23.265a.062.062 0 0 1-.021-.004l-.482-.177.332-.619c.013-.023.045-.033.073-.023.027.01.04.038.027.061l-.287.535.38.14c.028.01.04.037.029.06a.057.057 0 0 1-.05.027ZM36.788 23.932c-.393 0-.715-.266-.722-.597v-.04c-.004-.167.155-.306.355-.309a.516.516 0 0 0 .331-.12.364.364 0 0 0 .133-.283l-.019-.955c0-.026.024-.047.054-.047h.001c.03 0 .054.02.055.045l.018.955c.006.27-.25.493-.571.497-.14.002-.25.099-.248.216v.04c.006.28.28.506.614.506h.01l.51-.007h.001c.03 0 .055.02.055.046 0 .025-.023.046-.054.046l-.51.008-.013-.001Z" fill="#B5A094"/><path d="M37.175 22.724h-.007l-.469-.025c-.06-.003-.106-.047-.102-.097.004-.05.056-.09.115-.086l.47.025c.06.003.105.047.101.097-.003.049-.051.086-.108.086ZM39.429 23.716s-.663.326-1.352.468c-.69.143-.082.996.973.825 1.055-.172.94-1.44.379-1.293ZM39.629 22.36c-.052 0-.098-.032-.108-.076-.01-.05.03-.097.089-.106l2.257-.33c.06-.009.116.024.127.074.01.05-.03.098-.09.106l-2.257.33a.132.132 0 0 1-.018.002Z" fill="#fff"/></g><g opacity=".89"><path d="m12.658 43.245-.307-15.572-5.511.085.752 15.859-.467 5.779 6.286-.097a.394.394 0 0 1-.07-.178l-.683-5.877Z" fill="#B5A094"/><path d="m16.419 42.114 5.91-2.225-3.86-8.534c-.572-1.265-1.69-2.244-3.078-2.695l-3.04-.988.306 15.573.684 5.876a.393.393 0 0 0 .069.178.455.455 0 0 0 .405.193l3.118-.197c.35-.022.604-.321.548-.645l-1.062-6.536ZM6.84 27.758 2.931 29.11c-1.08.374-1.843 1.283-1.975 2.352L-.69 44.791v5.427l3.65-1.05c-.044.325.22.616.571.627l3.124.101c.239.008.442-.162.46-.385l.01-.116.467-5.779-.753-15.858ZM14.01 20.322c.104-.18.17-.381.185-.598.047-.709-.459-1.33-1.169-1.496-.023-.414-.374-.754-.826-.78a.92.92 0 0 0-.613.185 1.398 1.398 0 0 0-1.006-.629c-.65-.087-1.258.261-1.492.806-.156 0-.312.003-.469.007-3.066.1-3.29 2.44-3.098 3.993a1.033 1.033 0 0 0-.363 1.011c.117.55.666.917 1.251.856l.028.351 6.737-.453c.377-.025.66-.331.634-.684l-.166-2.146a1.2 1.2 0 0 0 .368-.423Z" fill="#B5A094"/><path d="M12.797 20.989a1.27 1.27 0 0 1-.986-.55c-.246.228-.59.361-.962.34-.535-.031-.97-.37-1.121-.822-.561.022-1.002.054-1.145.095-.458.136-.846.492-.982.933-.123.4-.065.84-.073 1.252-.004.19-.001.38-.007.57-.001.066.02.21-.02.27-.317.469-.075-.127-.522-.63l.006.087-.252.017c-.561.038-.984.494-.943 1.019.04.525.528.92 1.09.882l.252-.017.033.442.005.064.044.564c.015.201.058.394.125.576l.037 2.143c.02 1.17 1.062 2.11 2.313 2.092 1.252-.02 2.259-.993 2.238-2.163l-.013-.742c1.041-.319 1.758-1.267 1.675-2.335l-.043-.564-.276-3.582a1.312 1.312 0 0 1-.473.059Z" fill="#D6BFB4"/><path opacity=".1" d="m13.59 25.076-.043-.564c.096 1.259-.917 2.352-2.262 2.443l-1.502.1c-1.345.091-2.515-.855-2.612-2.114l.043.564c.064.832.597 1.526 1.339 1.876l-.001.023c.013.749.673 1.345 1.473 1.333.747-.011 1.352-.549 1.42-1.229 1.287-.143 2.24-1.21 2.145-2.431Z" fill="#040000"/><path d="M6.585 23.748a.045.045 0 0 1-.03-.012.038.038 0 0 1 0-.056l.2-.19-.342-.315a.038.038 0 0 1 0-.056.044.044 0 0 1 .06 0l.4.37-.258.246a.04.04 0 0 1-.03.013Z" fill="#B5A094"/><path opacity=".57" d="M11.434 26.106a.045.045 0 0 1-.029-.01c-.237-.203-.53-.056-.533-.055a.044.044 0 0 1-.057-.015.038.038 0 0 1 .016-.054c.004-.002.35-.175.63.065.018.015.02.04.004.056a.043.043 0 0 1-.031.013Z" fill="#989593"/><path d="M9.57 23.617s.547.28 1.112.377c.565.097.089.979-.775.876-.863-.103-.798-1.361-.338-1.253Z" fill="#fff"/><path d="M8.929 21.974c.104-.008.208-.073.313-.13a6.124 6.124 0 0 1 .618-.31c.109-.05.225-.094.288-.17.063-.074.043-.183-.117-.25-.153-.066-.456-.07-.767.085-.31.157-.473.393-.496.548-.028.16.06.235.16.227ZM12.78 21.57c-.082.018-.179-.009-.274-.029a5.114 5.114 0 0 0-.557-.097c-.097-.014-.198-.022-.267-.067-.067-.041-.08-.13.026-.218.101-.086.334-.158.614-.11.28.05.467.195.525.308.062.118.013.196-.066.212ZM10.98 23.602c-.053 0-.107-.002-.163-.006-.023-.002-.04-.02-.039-.042a.042.042 0 0 1 .046-.037c.12.009.232.008.33-.003.179-.02.328-.102.399-.222a.263.263 0 0 0 .01-.26l-.533-1.049c-.01-.02-.001-.043.02-.052.02-.01.046-.001.056.018l.534 1.048a.336.336 0 0 1-.013.334c-.084.142-.257.24-.462.262-.059.006-.12.01-.186.01ZM10.184 22.658a.197.197 0 0 1-.083.278.226.226 0 0 1-.296-.078.197.197 0 0 1 .082-.277.226.226 0 0 1 .297.077ZM12.625 22.574a.197.197 0 0 1-.083.278.226.226 0 0 1-.296-.078.197.197 0 0 1 .083-.277.226.226 0 0 1 .296.077Z" fill="#B5A094"/></g><path d="M33.018 48.699h-17.5l.85-4.321h15.79l.86 4.32Z" fill="#332418"/><path d="M42.331 30.673s-.222-.208-.248-1.081c-.026-.874.066-1.473 0-1.93-.065-.455-.283-1.211-.004-1.264.278-.052.656.052.852.952.195.9.117 1.199.795 1.29.678.091 1.394-.43 1.629-.665.235-.235 1.265-1.508 1.617-1.588.352-.08.315.337.276.376-.04.04-1.349 1.75-1.515 1.968-.044.058.027.183.209.156.182-.026 1.616-.808 1.864-.964.247-.156.651-.287.704 0 .052.287-.378.598-.378.598s.247.119.026.366c-.222.248-2.438 1.512-2.438 1.512s-.117.47-.208.587c-.091.117-1.525 1.212-1.825 1.238-.3.027-.639.092-.639.092l-.469.273s-.717-1.106-.503-1.723c.016-.047.255-.193.255-.193Z" fill="#F9DACE"/><path d="M45.708 30.476c-.004 0 0-.03.01-.082.01-.052.026-.127.025-.219a.36.36 0 0 0-.123-.277.197.197 0 0 0-.161-.045c-.056.013-.1.067-.145.122a.969.969 0 0 0-.18.315 2.467 2.467 0 0 0-.094.293l-.04-.009c-.002.01.006.019.011.02h.002l-.006.002-.018.004a.737.737 0 0 0-.101.037c-.04.017-.075.033-.103.047a.525.525 0 0 0-.061.035c-.013.01-.016.016-.018.017-.01-.003.013-.04.068-.072a1.135 1.135 0 0 1 .204-.101.27.27 0 0 1 .035-.008l.012.001c.01.002.019.015.016.028l-.04-.009c.018-.09.046-.192.086-.302a.976.976 0 0 1 .186-.33c.044-.055.094-.121.175-.14a.246.246 0 0 1 .204.057c.105.09.134.22.13.316a.81.81 0 0 1-.074.3ZM48.148 28.546c-.003.005-.028-.02-.085-.03a.434.434 0 0 0-.235.043l-.749.35a41.15 41.15 0 0 1-.755.338c-.195.084-.317.132-.32.125-.003-.006.113-.067.303-.16.191-.093.456-.218.75-.352.294-.135.559-.256.758-.337a.422.422 0 0 1 .254-.026c.06.017.081.048.08.049ZM44.475 30.786c.004.005-.064.061-.19.121a1.913 1.913 0 0 1-.524.148c-.21.032-.397.058-.526.103-.13.041-.2.09-.206.083-.004-.004.061-.066.193-.119.13-.055.323-.088.53-.12.208-.031.39-.078.517-.13.128-.05.202-.093.206-.086Z" fill="#DEC5BE"/><path d="M45.417 29.871c-.016.002-.048-.239-.138-.522-.088-.284-.2-.5-.185-.507.012-.008.147.2.237.49.092.29.1.539.086.54ZM43.316 30.39c-.007-.006.05-.077.111-.206a1.2 1.2 0 0 0 .117-.538 1.206 1.206 0 0 0-.142-.532c-.068-.127-.128-.194-.121-.2.004-.004.075.055.154.18a1.104 1.104 0 0 1 .027 1.107c-.073.13-.142.192-.146.188Z" fill="#DEC5BE"/><path d="M1.447 31.08s.93.213 1.514.292c.331.045 1.379.283 1.96.603.427.234.297.715.297.715l1.277-1.973-.24-.673s.137-1.039-.106-1.673c-.226-.591.359-2.235-.027-2.285-.425-.054-.61.319-.823 1.063-.213.743-.346 1.169-.85 1.248-.505.08-2.037-.808-2.646-1.257-.485-.359-1.096-.75-1.237-.466-.146.294.496.991 1.74 1.889.061.029.195.35-.566.02C1.468 28.466.012 27.4-.307 27.56c-.319.16-.11.53.047.708.208.234 1.527 1.056 1.527 1.056s-1.527-.486-1.633-.406c-.106.08-.231.235-.072.468.16.234 1.437.787 1.836.946.398.16 1.06.205 1.06.205-.09 0-.935-.034-1.066.035-.131.068-.177.273-.131.353.044.08.186.155.186.155Z" fill="#F9DACE"/><path d="M4.674 30.577c-.002.003-.027-.015-.068-.053a1.068 1.068 0 0 1-.151-.18 1.26 1.26 0 0 1-.214-.74c.012-.31.142-.57.266-.724.062-.079.12-.135.164-.17.043-.034.07-.05.071-.047.007.007-.092.081-.205.24a1.312 1.312 0 0 0-.242.702c-.01.296.09.555.192.718.101.166.194.247.187.254ZM2.924 28.674c.008.004-.034.097-.09.251-.057.154-.126.37-.176.614-.05.245-.07.47-.078.633-.008.164-.006.266-.014.267-.007 0-.022-.101-.024-.267a3.142 3.142 0 0 1 .257-1.261c.066-.152.12-.24.125-.237ZM2.366 29.655c-.002.014-.264-.02-.577-.108-.314-.088-.554-.197-.549-.21.006-.015.253.071.563.158.31.088.566.145.563.16Z" fill="#DEC5BE"/><path d="m42.785 33.143.6-.519-1.66-2.942c-.004.028-.48.274-.48.274l1.54 3.187Z" fill="#E0E0E0"/><path d="M41.554 29.632c.07.053 1.635 3.858 1.635 3.858s-6.206 3.474-7.634 3.873c-1.428.398-2.27-.346-2.669-.797-.397-.452-1.467-2.283-1.467-2.283l1.163-8.653.4-1.796s.67.328.858 1.258c.187.93.99 7.012.99 7.012s.646-.467.656.286l6.068-2.758Z" fill="#5D463B"/><path d="M34.92 34.513c-.008-.002.008-.124.046-.32a11.93 11.93 0 0 1 .404-1.503c.064-.188.11-.302.117-.3.007.002-.026.12-.081.312a28.507 28.507 0 0 0-.403 1.5c-.047.192-.076.312-.083.31ZM34.064 33.807c-.004 0-.005-.027-.004-.075.003-.048.01-.118.029-.203.034-.17.12-.395.247-.625.126-.23.253-.43.343-.576.09-.144.15-.232.157-.228.006.004-.041.098-.124.248-.082.15-.204.354-.328.582a2.897 2.897 0 0 0-.258.609c-.047.163-.053.269-.062.268Z" fill="#332418"/><path d="m5.434 33.389-.6-.52 1.66-2.941c.005.028.481.273.481.273L5.434 33.39Z" fill="#E0E0E0"/><path d="M6.904 29.877c-.071.054-1.657 3.859-1.657 3.859s6.289 3.474 7.736 3.873c1.446.398 2.3-.346 2.704-.797.403-.452 1.4-1.971 1.4-1.971l-1.396-10.797s-.567.263-.756 1.193c-.19.93-1.217 7.112-1.217 7.112s-.655-.467-.666.287l-6.148-2.759Z" fill="#5D463B"/><path d="M30.304 44.109h-12.88v-.104a.044.044 0 0 0-.035.018c.089-.159.34-2.992.488-4.862L15.86 24.07l4.208-1.069.934-1.104h5.474l.47.695 4.982 1.748-.006.042-2.168 15.143.549 4.583ZM17.5 44.005h12.687l-.536-4.48v-.006l2.163-15.108-4.933-1.73-.46-.678h-5.37l-.924 1.093-4.15 1.053 2.004 15.01v.005c-.001.012-.098 1.239-.208 2.45-.149 1.63-.221 2.195-.273 2.39Z" fill="#fff"/><path d="m24.13 41.943-.051-.106c-.166-.35-4.073-8.585-4.38-10.22-.309-1.638 1.21-8.373 1.278-8.67l.201-1.048h5.307l.012.032c.079.193.469 1.161.469 1.301.002.019.033.16.073.338.742 3.326 1.471 7.666.736 9.454-.995 2.42-3.576 8.747-3.601 8.81l-.044.109Zm-2.866-19.94-.186.965c-.016.07-1.581 7.012-1.277 8.63.286 1.523 3.852 9.095 4.321 10.087.348-.853 2.635-6.457 3.558-8.701.725-1.762-.004-6.08-.742-9.392a3.978 3.978 0 0 1-.076-.36c0-.09-.269-.788-.447-1.23h-5.15Z" fill="#fff"/><path d="m21.709 20.472-1.974 1.723-4.054 1.853.338 5.32 1.488 7.768-1.988 9.972 7.732 1.59.885-3.599.877 3.6 8.392-1.552-2.333-10.47 1.91-12.843-4.793-1.9-1.792-1.74-4.688.278Z" fill="#5D463B"/><path d="M21.709 20.472c.014.11-.87 2.45-.57 3.481.303 1.03 3.011 10.38 3.052 10.33.04-.05 1.824-7.766 2.126-9.149.302-1.382.754-2.128.754-2.994 0-.348-.765-1.82-.765-1.82l-4.597.152Z" fill="#fff"/><path d="M25.162 30.186c.007.002-.013.115-.055.32l-.188.865c-.163.73-.395 1.735-.658 2.844l-.018.08-.045.188-.056-.186c-.323-1.074-.61-2.044-.812-2.748l-.234-.833c-.053-.197-.08-.307-.073-.31.007-.002.046.105.111.299.068.211.158.488.265.824.22.697.518 1.664.843 2.739l-.1.003.018-.08c.263-1.109.506-2.112.688-2.837l.22-.857c.054-.202.087-.313.094-.311Z" fill="#545453"/><path d="M13.628 34.758c-.007.002-.037-.12-.085-.314a33.157 33.157 0 0 0-.403-1.517c-.056-.193-.09-.313-.083-.315.006-.003.053.113.12.303a11.34 11.34 0 0 1 .404 1.52c.037.198.054.322.047.323ZM14.484 34.014c-.01 0-.016-.106-.062-.27a2.853 2.853 0 0 0-.262-.608c-.126-.228-.25-.431-.332-.582-.084-.15-.133-.244-.126-.248.006-.004.066.084.158.229.091.146.22.344.348.575.127.23.216.455.25.626.02.085.027.154.03.203.001.048 0 .074-.004.075ZM15.52 26.08l.005.03.014.083a114.376 114.376 0 0 0 .227 1.514c.159 1.004.406 2.386.696 3.91l.753 3.9.22 1.183.057.323.013.084.003.029c-.001 0-.004-.01-.008-.028l-.02-.083-.065-.32-.238-1.18c-.2-.997-.477-2.374-.768-3.898-.29-1.524-.532-2.908-.681-3.914-.077-.503-.13-.91-.163-1.193l-.037-.325-.008-.085a.107.107 0 0 1 0-.03ZM24.137 45.1c-.016 0-.028-2.316-.028-5.171 0-2.856.012-5.17.027-5.17.016 0 .028 2.314.028 5.17 0 2.855-.012 5.17-.027 5.17Z" fill="#332418"/><path d="M23.83 23.192a.773.773 0 0 1-.085.114l-.25.298c-.213.252-.512.599-.848.984l-.017.02-.02-.016a2.443 2.443 0 0 1-.094-.087c-.386-.38-.722-.734-.966-.99l-.286-.307a.826.826 0 0 1-.1-.118.858.858 0 0 1 .115.103l.298.295c.251.25.593.6.977.978.03.03.061.06.09.084l-.038.003c.337-.385.64-.727.861-.973.107-.116.195-.212.263-.288a.729.729 0 0 1 .1-.1ZM26.867 22.788a.927.927 0 0 1-.102.13c-.069.08-.169.196-.295.337a13.004 13.004 0 0 1-1.263 1.234l-.019.015-.017-.016a31.51 31.51 0 0 1-.91-.904 8.156 8.156 0 0 1-.256-.28.735.735 0 0 1-.086-.108.799.799 0 0 1 .1.095l.269.269c.228.227.553.537.92.889l-.035-.001.218-.188c.43-.381.792-.757 1.052-1.031l.307-.325a.916.916 0 0 1 .117-.116Z" fill="#5D463B"/><path d="M32.816 25.659s0 .01-.003.028l-.013.083-.056.318c-.051.275-.119.674-.203 1.168-.167.987-.385 2.353-.618 3.863l-.587 3.869-.178 1.172-.05.32-.015.082a.122.122 0 0 1-.007.028l.002-.03.009-.083.04-.32c.04-.281.094-.682.161-1.175.14-.991.339-2.36.572-3.872.232-1.51.456-2.875.633-3.861a51 51 0 0 1 .22-1.166l.066-.316a35.955 35.955 0 0 1 .027-.108Z" fill="#332418"/><path d="M16.713 35.401s-.574-5.301-.57-5.28c.003.021.945 4.72.945 4.72l-.375.56Z" fill="#040000" opacity=".3"/><path d="M31.775 40.462c-.401.315-.995.522-1.617.645-.622.122-1.276.168-1.925.213 0 0 .367 1.503.367 1.598 0 .095 2.758-.324 3.614-.723l.247-.152-.686-1.581Z" fill="#332418"/><path d="m31.776 40.462.012.025.037.078.14.31.515 1.16.007.015-.015.01-.247.152-.002.001c-.215.1-.46.174-.72.245-.26.07-.536.135-.826.196-.29.06-.595.118-.91.17-.315.05-.64.101-.976.13-.04.002-.08.005-.122.004-.022 0-.04 0-.07-.007a.054.054 0 0 1-.015-.01.041.041 0 0 1-.01-.019v-.007l-.003-.013a.4.4 0 0 0-.004-.027c-.013-.078-.031-.155-.048-.232l-.104-.455-.206-.862-.007-.03.03-.001a21.059 21.059 0 0 0 1.479-.135c.442-.06.827-.147 1.137-.248.31-.1.544-.213.697-.303a2.66 2.66 0 0 0 .173-.109l.044-.03a.058.058 0 0 1 .014-.008l-.015.013-.04.033a1.852 1.852 0 0 1-.167.116 3.348 3.348 0 0 1-.696.318c-.311.106-.698.197-1.141.261-.444.066-.944.105-1.482.142l.024-.031.207.862.105.455c.017.078.035.155.049.234l.005.032.002.017v.003h-.022c.003 0 .003-.001.003-.002.008-.007.011-.019.01-.015.01.003.032.004.05.004.039 0 .079-.002.119-.005.332-.027.657-.078.97-.128.315-.052.618-.108.908-.167.29-.06.567-.122.826-.191.258-.07.501-.141.714-.237h-.002l.248-.15-.008.024-.49-1.156-.133-.318-.034-.084-.01-.03ZM16.829 40.462c.401.315.995.522 1.617.645.621.122 1.276.168 1.925.213 0 0-.367 1.503-.367 1.598 0 .095-2.758-.324-3.614-.723l-.247-.152.686-1.581Z" fill="#332418"/><path d="m16.829 40.462-.011.03-.035.085-.132.317-.49 1.157-.008-.025.248.151-.002-.001c.212.096.456.168.714.237.26.069.536.132.826.192.29.059.593.115.907.166.314.05.64.101.971.129.04.002.08.005.119.005a.22.22 0 0 0 .05-.005s-.002 0-.002.002a.017.017 0 0 0-.007.013c0 .006 0 0 0 0l.003-.017a.304.304 0 0 1 .004-.032c.015-.08.032-.157.05-.234l.104-.456.208-.862.023.032a19.989 19.989 0 0 1-1.482-.142 6.425 6.425 0 0 1-1.14-.262 3.337 3.337 0 0 1-.696-.318 1.956 1.956 0 0 1-.167-.116l-.04-.033-.015-.013.014.008.044.03c.04.027.096.065.172.11.153.089.388.202.698.302.31.1.694.188 1.137.248.442.063.94.1 1.478.135l.03.002-.007.029-.205.862-.104.455c-.017.077-.034.154-.049.232l-.004.027-.002.013v.007a.041.041 0 0 1-.01.02.062.062 0 0 1-.016.009c-.029.008-.047.006-.07.007-.04 0-.081-.002-.122-.005-.336-.027-.66-.078-.976-.13a21.684 21.684 0 0 1-.91-.17c-.29-.06-.567-.124-.826-.195a4.726 4.726 0 0 1-.72-.245h-.002l-.246-.154-.015-.009.007-.015.515-1.16a93.131 93.131 0 0 1 .189-.413ZM27.928 37.68a.286.286 0 0 1-.063.016l-.181.037c-.158.032-.387.072-.67.118a26.906 26.906 0 0 1-4.476.328c-.287-.003-.52-.01-.68-.019l-.185-.01a.321.321 0 0 1-.065-.007.29.29 0 0 1 .065-.004h.185a33.011 33.011 0 0 0 2.92-.084 32.988 32.988 0 0 0 2.902-.343l.183-.027a.337.337 0 0 1 .065-.006ZM26.823 38.508a.195.195 0 0 1-.05.008l-.144.013-.53.039c-.448.032-1.066.083-1.747.153a59.95 59.95 0 0 0-1.742.208l-.526.07a14.05 14.05 0 0 1-.144.018.18.18 0 0 1-.05.003c0-.002.016-.007.049-.014l.142-.027c.123-.023.302-.054.524-.088a35.108 35.108 0 0 1 4.022-.383l.145-.003c.034 0 .051.002.051.003Z" fill="#332418"/><path d="M34.903 34.586c-.013.059-.023.145.016.192.055.066.139.046.196-.019.057-.065.072-.156.085-.241.103-.7.183-1.43.287-2.128-.184.412-.276.872-.39 1.322-.077.302-.13.573-.194.874Z" fill="#040000" opacity=".3"/><path d="M25.09 37.136a.322.322 0 1 1-.644 0 .322.322 0 0 1 .645 0ZM25.19 39.814a.322.322 0 1 1-.644 0 .322.322 0 0 1 .644 0Z" fill="#332418"/><path d="M28.742 15.572c-.015-.003 1.223-.125 1.223-.125-.089-.31.11-.752.429-.796.32-.044.643.24.64.563.205-.127.516-.006.581.226.066.231-.137.497-.377.495a.658.658 0 0 1-.191.787.658.658 0 0 1-.81-.038c-.023.113-.175.167-.277.113-.103-.053-.15-.183-.133-.297a.568.568 0 0 1 .166-.3l-1.228-.147" fill="#fff" opacity=".81"/><path d="M28.765 16.053c0-.002.03 0 .086.005l.244.024.9.1.038.004-.026.027a.666.666 0 0 0-.128.186.336.336 0 0 0-.02.23c.02.077.08.152.162.164.08.014.177-.032.194-.114l.009-.04.03.027c.185.168.506.21.745.057a.63.63 0 0 0 .216-.777l-.018-.038h.043c.086-.001.178-.04.245-.109a.396.396 0 0 0 .116-.239.31.31 0 0 0-.082-.24c-.117-.13-.327-.172-.469-.083l-.04.024v-.047a.553.553 0 0 0-.246-.444c-.139-.097-.322-.13-.464-.067a.581.581 0 0 0-.287.336.67.67 0 0 0-.028.403l.006.022-.022.002-.897.08a93.029 93.029 0 0 1-.328.026c0-.003.029-.008.084-.016l.242-.03.895-.098-.016.024a.708.708 0 0 1 .024-.428.624.624 0 0 1 .308-.364c.329-.143.776.143.782.554l-.04-.022c.168-.103.4-.056.536.091.07.073.106.18.096.282a.448.448 0 0 1-.132.273.405.405 0 0 1-.283.123l.024-.038a.681.681 0 0 1-.236.844.685.685 0 0 1-.804-.065l.039-.013a.19.19 0 0 1-.099.125.242.242 0 0 1-.15.024c-.105-.018-.172-.108-.196-.196a.375.375 0 0 1 .025-.259.7.7 0 0 1 .138-.195l.012.032-.9-.116-.242-.034a.616.616 0 0 1-.085-.017ZM29.239 16.497c-.004.014-.13-.004-.284-.04-.154-.037-.275-.078-.271-.093.003-.015.13.003.284.04.153.037.274.078.27.093Z" fill="#6D6B6A"/><path d="M29.77 15.919c0 .015-.187.027-.416.027-.23 0-.415-.012-.415-.027s.186-.027.415-.027c.23 0 .416.012.416.027ZM29.3 15.209c.003.014-.149.064-.339.112-.19.047-.348.074-.352.06-.003-.015.148-.065.339-.113.19-.047.348-.074.351-.06Z" fill="#6D6B6A"/><path d="m23.645 8.92-.208.006a4.013 4.013 0 0 0-3.887 3.811c-.096 1.944-.179 4.093-.134 5.133.092 2.152 2.256 2.422 2.256 2.422.005 0-.024.936-.024.936l2.223 1.915 2.49-2.258.605-7.72c.124-2.242-1.077-4.183-3.321-4.245Z" fill="#F9DACE"/><path d="M21.67 20.291s1.36.038 2.78-.915c0 0-.625 1.64-2.78 1.512v-.597Z" fill="#DEC5BE"/><path d="M22.174 16.23c0-.018-.206-.047-.54-.08-.086-.006-.166-.02-.182-.077-.022-.061.01-.153.049-.253l.23-.65c.319-.927.547-1.688.51-1.701-.038-.012-.326.728-.646 1.655l-.22.655c-.028.097-.08.207-.033.333a.212.212 0 0 0 .143.119c.054.014.102.014.144.015.336.008.544.003.545-.015Z" fill="#332418"/><path d="M26.837 14.765c.036-.017 1.467-.483 1.464.99-.002 1.474-1.655 1.16-1.657 1.118-.003-.042.193-2.108.193-2.108Z" fill="#F9DACE"/><path d="M27.269 16.323c.007-.005.026.018.069.038.042.02.115.033.192.004.155-.057.287-.304.294-.57a.85.85 0 0 0-.07-.367c-.046-.108-.115-.183-.194-.197a.13.13 0 0 0-.151.07c-.02.041-.01.07-.018.073-.004.004-.032-.025-.02-.085a.165.165 0 0 1 .058-.093.192.192 0 0 1 .142-.037c.114.008.216.113.268.229.058.116.093.26.088.41-.01.297-.162.575-.375.636a.274.274 0 0 1-.234-.039c-.047-.036-.054-.07-.05-.072Z" fill="#DEC5BE"/><path d="M20.692 14.673c0 .166.138.304.31.308a.299.299 0 0 0 .31-.294.313.313 0 0 0-.308-.308.3.3 0 0 0-.312.294ZM20.18 13.673c.04.04.27-.144.604-.153.334-.014.584.152.62.11.017-.02-.025-.092-.134-.168a.844.844 0 0 0-.976.035c-.1.083-.133.159-.114.176ZM23.677 14.652c-.001.166.137.304.309.308a.299.299 0 0 0 .311-.294.313.313 0 0 0-.308-.308.3.3 0 0 0-.312.294ZM23.457 13.65c.04.04.27-.144.604-.154.334-.014.584.152.62.11.017-.02-.024-.092-.134-.167a.845.845 0 0 0-.976.034c-.1.084-.133.159-.114.177ZM23.339 13.375c.065.073.357-.097.737-.204.378-.115.714-.13.73-.226.007-.045-.077-.104-.23-.137a1.256 1.256 0 0 0-.597.033 1.253 1.253 0 0 0-.52.294c-.11.11-.15.205-.12.24ZM20.399 12.888c.03.1.31.14.61.275.302.126.526.301.618.255.042-.024.035-.112-.045-.23a1.038 1.038 0 0 0-.44-.342 1.03 1.03 0 0 0-.55-.084c-.137.023-.205.079-.193.126Z" fill="#332418"/><path d="M18.95 15.351c-.031 0-1.304-.185-1.265-.185.169-.112.205-.226.137-.408-.07-.188-.24-.253-.438-.278-.188-.024-.388-.026-.556.062-.168.089-.288.291-.227.471-.284-.168-.706 0-.798.317-.091.317.176.683.506.693-.239.12-.35.435-.26.687.09.252.355.423.623.427a.834.834 0 0 0 .678-.366c-.009.189.22.327.4.27.18-.058.286-.256.288-.445.001-.188-.083-.367-.183-.527l1.095-.107" fill="#fff" opacity=".81"/><path d="M18.95 15.962a.557.557 0 0 1-.074.012l-.214.025-.806.087.013-.025c.06.095.12.202.157.327a.62.62 0 0 1-.008.408c-.051.133-.172.27-.343.279a.364.364 0 0 1-.234-.077.28.28 0 0 1-.114-.229l.043.015a.9.9 0 0 1-.443.337.729.729 0 0 1-.589-.048.636.636 0 0 1-.344-.512.596.596 0 0 1 .304-.562l.011.05c-.035-.002-.072-.005-.108-.016a.603.603 0 0 1-.377-.314.532.532 0 0 1-.013-.477c.15-.295.54-.405.804-.251l-.037.03a.385.385 0 0 1 .048-.322.505.505 0 0 1 .24-.201c.193-.078.395-.06.574-.034.091.016.18.043.256.096.075.05.127.13.152.21.027.078.04.167.005.244a.41.41 0 0 1-.158.166l-.009.003c.04-.021-.002-.039.005-.034h.001l.004.001.01.002.017.003.037.006.071.012.138.022.25.039.398.062.249.04.064.01.021.005c0 .002-.03 0-.087-.006l-.25-.03c-.11-.015-.243-.034-.398-.054l-.251-.035-.138-.02-.072-.01-.037-.007-.019-.003-.009-.002h-.005l-.003-.001c.006.004-.038-.014.004-.035l-.01.003A.378.378 0 0 0 17.82 15c.028-.065.018-.143-.008-.217a.357.357 0 0 0-.14-.188.597.597 0 0 0-.238-.087c-.175-.025-.37-.04-.548.034a.461.461 0 0 0-.216.183.333.333 0 0 0-.042.28l.022.064-.06-.034c-.234-.139-.598-.035-.73.23-.136.267.055.638.356.716.032.01.066.011.096.015l.096.008-.084.043a.543.543 0 0 0-.275.51.583.583 0 0 0 .317.47c.17.096.373.107.548.046a.851.851 0 0 0 .42-.316l.047-.068-.004.083a.233.233 0 0 0 .095.19c.059.046.133.07.204.068.146-.006.259-.126.307-.25a.58.58 0 0 0 .01-.382 1.291 1.291 0 0 0-.15-.32l-.014-.023.027-.002.806-.072.215-.017a.375.375 0 0 1 .074-.002Z" fill="#6D6B6A"/><path d="M18.773 15.516c0 .015-.196.027-.437.027-.242 0-.438-.012-.438-.027s.196-.027.438-.027c.241 0 .437.012.437.027ZM18.852 15.106c-.003.015-.143-.003-.313-.039s-.305-.077-.302-.092c.004-.014.144.003.314.04.17.035.305.077.302.091ZM19.004 16.253c.007.014-.114.093-.27.178-.157.085-.29.144-.297.13-.007-.013.114-.093.27-.177.157-.085.29-.143.297-.13Z" fill="#6D6B6A"/><path d="M22.695 17.648c.242.106.454-.104.64-.145.128-.03.428-.03.506-.13.143-.181.21-.311.148-.525-.035-.125-.16-.24-.258-.332-.16-.153-.59-.147-.8-.054-.094.04-.177.07-.255.132a.815.815 0 0 0-.29.468c-.042.2-.01.445.309.586Z" fill="#EDBCAD"/><path d="M22.485 16.81c-.002-.002.002-.013.01-.033.01-.02.027-.05.054-.083a.791.791 0 0 1 .289-.215c.137-.064.317-.121.523-.11a.744.744 0 0 1 .572.305.55.55 0 0 1 .002.638.45.45 0 0 1-.239.169c-.088.027-.172.032-.247.039a.867.867 0 0 0-.341.07c-.074.038-.103.077-.107.073-.001-.001.005-.012.02-.029a.315.315 0 0 1 .076-.062.823.823 0 0 1 .348-.09c.075-.01.157-.017.238-.044a.405.405 0 0 0 .211-.155.502.502 0 0 0-.005-.578.703.703 0 0 0-.531-.286 1.096 1.096 0 0 0-.504.095.831.831 0 0 0-.289.194c-.056.06-.076.104-.08.101Z" fill="#263138"/><path d="M20.084 12.48c1.362-.004 1.79.46 2.422.455.462-.003.863-.308 1.31-.42.318-.081.667-.067.95-.234.193-.114.333-.304.424-.509.092-.205.138-.427.18-.647.022-.118.043-.245-.01-.353-.052-.11-.165-.174-.273-.232-.295-.159-.594-.318-.916-.412-.322-.092-.675-.115-.99.002-.384.143-.666.47-.917.795-.251.324-.5.668-.858.868-.214.12-.455.181-.681.275a5.918 5.918 0 0 1-.772.188s-.059.224.131.224Z" fill="#EDBCAD"/><path d="M18.674 12.068c.922.152 1.87.094 2.615-.472.214-.163.413-.35.597-.552.331-.368.591-.828 1.035-1.048.572-.283 1.253-.078 1.856.131l-.025-.023c.314.145.599.35.835.602a8.391 8.391 0 0 0 .604 4.194c.046.108.13.197.24.242.343.14.241-.32.498-.405.198-.065.293-.023.684-.03.14-.369.23-1.377.351-1.92.326-.339.632-.97.65-1.464.016-.495-.252-1.128-.252-1.128-.366-.713-.578-1.078-1.149-1.28l-.014.005c-.512-.206-1.144-.208-1.564.148-.105-.769-.779-1.377-1.53-1.573-.75-.197-1.953-.079-2.672.212-.491.197-.968.579-1.522 1.129-.074.073-.149.15-.225.228l-.019.02c-.16.1-.357.146-.56.167-.327.033-.53-.072-.75-.317-.066-.074-.15-.168-.246-.139-.06.019-.095.081-.115.141-.11.318.028.682.266.92.116.115.252.204.397.278 0 0-.221.267-.597.324a.751.751 0 0 0-.501.313.516.516 0 0 0-.099.287c-.006.62.61.91 1.212 1.01Z" fill="#332418"/><path d="m18.285 11.418.017.015.054.039a.68.68 0 0 0 .092.059c.037.021.08.047.131.069.2.095.522.189.923.165a2.446 2.446 0 0 0 1.301-.481c.431-.31.809-.767 1.118-1.29.157-.262.284-.53.425-.777a2.86 2.86 0 0 1 .481-.657c.185-.181.4-.316.622-.377a1.047 1.047 0 0 1 .627.02 1.244 1.244 0 0 1 .694.585c.098.199.103.326.111.324l-.002-.023-.01-.066a1.089 1.089 0 0 0-.082-.244 1.261 1.261 0 0 0-.7-.61 1.102 1.102 0 0 0-.65-.026c-.23.061-.453.199-.643.384-.192.184-.35.417-.492.665-.142.25-.27.516-.425.776-.307.519-.679.97-1.102 1.277a2.43 2.43 0 0 1-1.276.484 1.935 1.935 0 0 1-.913-.148c-.2-.089-.297-.168-.3-.163Z" fill="#22170F"/><path d="M18.4 11.017a.327.327 0 0 0 .081.048 2.205 2.205 0 0 0 .607.191c.143.02.301.033.468.027.166-.008.323-.033.463-.066a2.21 2.21 0 0 0 .589-.241.321.321 0 0 0 .077-.055c-.005-.008-.12.062-.318.14a2.54 2.54 0 0 1-1.271.148 2.542 2.542 0 0 1-.367-.08c-.204-.061-.324-.121-.328-.112ZM26.321 11.68c-.006 0-.015.05-.022.14-.006.089-.009.22.004.384.01.083.01.168.042.272.015.051.072.114.146.11.07-.004.12-.043.165-.08l.532-.482-.077-.045a93.21 93.21 0 0 0-.08.315l-.205.836-.034.14.106-.097c.28-.26.473-.521.592-.714.12-.193.17-.316.162-.32-.022-.015-.254.47-.812.97l.07.042c.067-.257.138-.538.214-.834l.078-.316.039-.153-.115.107-.523.489c-.037.034-.08.061-.113.063-.033.002-.06-.02-.076-.059-.028-.077-.036-.174-.048-.251-.042-.319-.031-.516-.045-.516Z" fill="#22170F"/><path d="M26.38 10.47c.005.002-.006.03.006.079a.666.666 0 0 0 .102.19c.026.04.056.082.08.135a.547.547 0 0 1 .04.179.323.323 0 0 1-.047.202.212.212 0 0 1-.207.089.286.286 0 0 1-.19-.117.464.464 0 0 1-.078-.19.689.689 0 0 1 .13-.534c.034-.041.057-.06.06-.057.008.006-.08.09-.13.268a.689.689 0 0 0-.012.315c.021.113.094.245.226.262a.16.16 0 0 0 .157-.066.278.278 0 0 0 .041-.169.535.535 0 0 0-.032-.163c-.02-.049-.047-.092-.07-.132a.572.572 0 0 1-.091-.207c-.006-.058.014-.085.015-.084ZM26.728 10.111c.005.002-.001.02.008.05.009.03.033.07.068.12a.348.348 0 0 1 .08.205.214.214 0 0 1-.031.136.145.145 0 0 1-.143.061.192.192 0 0 1-.129-.079.303.303 0 0 1-.051-.126.445.445 0 0 1 .018-.22c.043-.12.11-.168.113-.163.008.005-.046.061-.076.174a.443.443 0 0 0-.006.2c.014.072.06.151.139.16a.093.093 0 0 0 .092-.037.174.174 0 0 0 .025-.104.337.337 0 0 0-.019-.103c-.012-.03-.03-.058-.044-.084a.373.373 0 0 1-.057-.136c-.003-.038.01-.056.013-.054Z" fill="#fff"/><path d="M20.977 15.208a1.164 1.164 0 0 0-.536-.166c-.192-.01-.405.104-.44.293-.023.129.043.262.142.346.1.085.23.126.358.147.13.021.268.024.391-.024a.4.4 0 0 0 .257-.28c.028-.129-.045-.279-.172-.316ZM23.51 15.367c.279-.097.578-.157.902-.166.323-.01.681.104.739.293.039.128-.07.262-.238.346-.169.085-.386.126-.603.147-.22.021-.45.023-.659-.024-.208-.047-.389-.15-.433-.28-.044-.13.079-.279.292-.316Z" fill="#EDBCAD"/><path d="M23.068 13.263c0 .006-.046.013-.111-.016a.305.305 0 0 1-.17-.21.306.306 0 0 1 .07-.262c.049-.053.093-.065.095-.06.005.008-.03.031-.064.083a.308.308 0 0 0-.048.227c.02.09.083.155.135.188.053.034.094.041.093.05ZM22.28 12.901c.006 0 .017.03.017.08a.386.386 0 0 1-.19.325c-.045.024-.076.029-.078.022-.007-.014.099-.067.168-.188.071-.12.066-.238.082-.239Z" fill="#263138"/><path d="m16.791 10.935.898-.694 1.573 1.656-.864.546 1.27.643-2.223-.532.63-.725-1.284-.894ZM15.611 15.606l.356-.622 1.256.637-.373.519.907.185-1.44.065.365-.628-1.07-.156ZM21.407 10.186l.448-.042.127.874-.4-.004.232.533-.553-.716.453-.04-.307-.605ZM28.456 11.516l.316.32-.598.651-.25-.313-.266.517.205-.881.317.326.276-.62ZM25.643 9.536l.22.201-.4 1.008-.14-.221-.078.709-.152-1.1.394.183.156-.78ZM30.806 18.857l-.06.431-.85-.073.092-.376-.552.101.795-.363-.063.435.638-.155ZM18.692 14.395l.002.006-.003.007c-.004.008-.007.012-.019.01a.448.448 0 0 1-.1-.034 5.246 5.246 0 0 1-.222-.102c-.326-.157-.319-.173-.312-.188.008-.016.015-.018.119.025.06.025.139.061.223.101.112.055.303.15.312.175Zm2.05-2.239a5.752 5.752 0 0 1-.184-.194c-.07-.077-.13-.15-.174-.203-.08-.096-.086-.102-.102-.091l-.007.005-.001.007c-.004.027.109.19.233.328.121.135.27.262.3.265h.01l.005-.006c.013-.015.007-.021-.08-.111Zm2.88-.915.006-.236c.007-.24.007-.238-.015-.242-.017 0-.025-.002-.04.15a4.084 4.084 0 0 0-.013.655c.009.133.016.149.029.15h.005c.022 0 .022 0 .025-.24l.003-.237Zm2.888.38-.006-.003c-.013-.01-.028-.018-.231.296s-.189.324-.174.333c.002.001.004.003.007.003.015.002.052-.032.224-.299.07-.109.188-.296.183-.321l-.003-.008Zm2.018 1.87.003-.008-.007-.013-.006-.003c-.026-.008-.206.074-.312.124a3.786 3.786 0 0 0-.247.125l-.015.006v.002l.022.047.015-.009c.054-.02.151-.062.254-.11.106-.05.285-.137.294-.162Zm.306 2.906-.004-.005c-.016-.02-.214-.047-.331-.06a4.65 4.65 0 0 0-.23-.023c-.1-.006-.11-.003-.113.015-.002.017-.004.034.335.074a3.843 3.843 0 0 0 .23.022c.1.007.11.003.113-.015v-.008Z" fill="#90776A"/></g></g><defs><clipPath id="a"><rect width="48" height="48" rx="24" fill="#fff"/></clipPath><clipPath id="b"><path fill="#fff" d="M0 0h48v48H0z"/></clipPath></defs></svg>