<svg width="48" height="48" fill="none" xmlns="http://www.w3.org/2000/svg"><g clip-path="url(#a)"><rect width="48" height="48" rx="24" fill="#fff"/><g clip-path="url(#b)"><g opacity=".59"><path d="M7.465 31.863c.298 1.04-3.735 5.333 3.7 15.701h17.97c1.458-1.253 2.519-6.268 3.706-7.562 1.333-1.452 2.195-3.669 2.008-5.87-.225-2.665-1.898-5.154-1.351-7.744-.676.416-1.23 1.137-1.534 2-.718-.498-.819-1.791-.516-2.748.303-.956.893-1.72 1.302-2.613.978-2.135.782-5.021-.47-6.918.172 2.345-.882 4.758-2.549 5.84.452-1.496.129-3.312-.787-4.424-.58-.702-1.348-1.12-1.923-1.827-1.897-2.33-1.122-6.928-3.26-8.903l-1.188 5.123c-.987-.496-1.414-1.984-1.427-3.318-.013-1.334.27-2.66.188-3.99-.082-1.33-.687-2.77-1.732-3.018.078.183.163 2.027-.12 2.446-1.746 2.59-3.739 4.499-4.28 7.823-.774-2.025-1.97-3.792-3.437-5.079.983 1.926 1.185 4.445.527 6.578-.406 1.318-1.108 2.46-1.59 3.738-.481 1.278-.722 2.838-.178 4.076-1.113-1.87-2.563-3.423-4.21-4.508.58.654.805 1.68.841 2.657.036.977-.087 1.955-.068 2.933.015.815-.018 1.821-.045 2.9-.707-.943-1.576-1.672-2.435-2.39.376.678.77 1.46.64 2.27-.144.886-.859 1.438-1.165 2.255-.312.836-.15 1.854.239 2.638.388.784.971 1.38 1.55 1.95l1.594-.016Z" fill="#CFBFB3"/><path d="M11.9 45.253c-1.636-2.277-3.39-5.26-3.637-7.847-.145-1.526.285-2.432.665-3.23.346-.728.869-1.827.479-3.188l-.412-1.437.109-4.314.012-.473c.021-.809.041-1.578.037-2.27l3.177-2.569c-.11-.25-.064-.921.237-1.72.165-.44.382-.898.61-1.383.284-.6.599-1.265.864-2.005l1.952 5.108 1.23-7.545c.243-1.494.938-2.653 1.858-3.937v.189c.012 1.096.203 2.157.556 3.07.479 1.242 1.229 2.147 2.168 2.62l2.113 1.06.185-.799c.312 1.048.76 2.086 1.474 2.964.429.527.875.9 1.27 1.229.262.219.51.425.662.61.324.393.453 1.116.293 1.645l-1.911 6.323 3.533-2.292c-.56 2.218.07 4.57 1.54 5.59l1.063.739.169.548c.278.897.54 1.743.602 2.466.104 1.232-.41 2.662-1.31 3.642-.87.948-1.445 2.474-2.111 4.242-.287.76-.584 1.547-.873 2.179-.182.398-.319.64-.41.784H11.9Zm-5.3-15.97c-.226-.248-.41-.485-.526-.719a.985.985 0 0 1-.083-.238c.054-.086.134-.204.197-.298l.084-.123L7.3 29.276l-.702.007Z" fill="#BFAFA2"/><path d="M13.28 41.483c-1.728-2.671-1.993-4.11-2.032-4.525-.024-.24-.024-.25.261-.85 1.597-3.356.964-5.564.726-6.395l-.217-.76.09-3.597.02-.782 1.764-1.426 3.256 8.522 2.378-14.598c.364.293.753.544 1.163.75l1.748.878c.31.559.654 1.07 1.038 1.54.353.436.704.79 1.024 1.084l-4.202 13.904 6.757-4.384c.575 1.312 1.422 2.39 2.455 3.108l.105.072c.08.274.15.533.182.7a1.32 1.32 0 0 1-.278.477c-1.346 1.467-2.08 3.414-2.858 5.475-.102.27-.205.544-.306.806H13.28Z" fill="#AD9B8B"/><path d="m23.157 6.157-.111-.608a2.387 2.387 0 0 1-.055-.524c.016-.398.206-.68.19-1.078.05.203.116.38.166.585.05.204.084.45.062.683-.015.147-.05.275-.085.4l-.153.545" fill="#CFBFB3"/></g><g opacity=".89"><path d="M43.432 27.48H27.078v5.35h16.354v-5.35Z" fill="#6A5649"/><path d="M43.433 32.887H27.078a.057.057 0 0 1-.056-.057v-5.35c0-.03.025-.056.056-.056h16.355c.031 0 .056.025.056.057v5.35a.057.057 0 0 1-.056.056Zm-16.298-.114h16.241v-5.236h-16.24v5.236Z" fill="#332418"/><path d="M43.43 8.075H27.096V31.91H43.43V8.075Z" fill="#E6D5C9"/><path d="M43.43 31.966H27.094a.057.057 0 0 1-.057-.057V8.075c0-.032.025-.057.057-.057h16.334c.031 0 .057.025.057.057v23.834a.056.056 0 0 1-.057.057Zm-16.278-.113h16.22V8.132h-16.22v23.72Z" fill="#332418"/><path d="M43.43 8.075H27.096v1.943H43.43V8.075Z" fill="#6A5649"/><path d="M43.43 10.074H27.094a.057.057 0 0 1-.057-.057V8.075c0-.032.025-.057.057-.057h16.334c.031 0 .057.025.057.057v1.942a.056.056 0 0 1-.057.057Zm-16.278-.113h16.22V8.132h-16.22v1.829Z" fill="#332418"/><path d="M42.832 9.467a.056.056 0 0 1-.04-.016l-.752-.752a.056.056 0 0 1 0-.08.056.056 0 0 1 .08 0l.752.752a.056.056 0 0 1-.04.096Z" fill="#FAF9F7"/><path d="M42.08 9.467a.056.056 0 0 1-.04-.096l.752-.752a.056.056 0 0 1 .08 0 .056.056 0 0 1 0 .08l-.752.752a.055.055 0 0 1-.04.016ZM41.625 9.488h-.772a.057.057 0 0 1-.057-.057V8.66c0-.032.025-.057.057-.057h.772c.032 0 .057.025.057.057v.772a.057.057 0 0 1-.057.057Zm-.715-.113h.659v-.66h-.66v.66ZM40.446 9.467h-.88a.057.057 0 0 1-.056-.057c0-.031.025-.057.057-.057h.879a.057.057 0 1 1 0 .114Z" fill="#FAF9F7"/><mask id="c" style="mask-type:luminance" maskUnits="userSpaceOnUse" x="27" y="10" width="17" height="22"><path d="M43.367 10.017H27.096v21.84h16.271v-21.84Z" fill="#fff"/></mask><g mask="url(#c)"><path d="M35.995 11.86a1.093 1.093 0 0 0-.147-.028c-.444-.544-.723-1.097-1.66-1.14a1.278 1.278 0 0 0-.975.367 1.073 1.073 0 0 0-.098.117c-.025.033-.502.004-.567.01-.458.044-1.049.126-1.343.52-.13.175-.199.385-.244.6a1.076 1.076 0 0 0-.532 1.085l.153.38a.875.875 0 0 0 .033.385l.253.797a.759.759 0 0 1 .133-.049l.036-.007.24.594.064-.61h.233a.857.857 0 0 0 .515-.232l.02-.023.002.003c.17-.17.278-.403.346-.642.758-.075 1.022.705 1.669.261.011.365.56.008.934.38 0 0 .002 0 .003-.002l.018.023c.133.124.301.21.516.232h.392a.731.731 0 0 1 .314.072l.253-.797a.878.878 0 0 0-.005-.544 1.094 1.094 0 0 0-.556-1.752Z" fill="#332418"/><path d="M32.108 19.827h2.97v-3.18h-2.97v3.18Z" fill="#F9DACE"/><path d="M35.077 19.884h-2.97a.057.057 0 0 1-.056-.057v-3.18c0-.032.025-.057.057-.057h2.969c.032 0 .057.025.057.057v3.18a.057.057 0 0 1-.057.057Zm-2.913-.114h2.856v-3.066h-2.856v3.066Z" fill="#332418"/><path d="M35.075 18.358c-.36-.039-.816-.237-1.209-.443.467-.06.886-.27 1.21-.579v1.022Z" fill="#E1C0B5"/><path d="M35.767 14.087a.78.78 0 0 1 0 1.56h-.03v-1.56h.03Z" fill="#F9DACE"/><path d="M35.767 15.703h-.03a.057.057 0 0 1-.057-.057v-1.56c0-.03.025-.056.057-.056h.03a.837.837 0 0 1 0 1.673Zm.026-1.559v1.445a.724.724 0 0 0 0-1.445Z" fill="#332418"/><path d="M31.418 14.087h.03v1.56h-.03a.78.78 0 0 1 0-1.56Z" fill="#F9DACE"/><path d="M31.448 15.703h-.03a.837.837 0 0 1 0-1.673h.03c.031 0 .057.026.057.057v1.56a.057.057 0 0 1-.057.056Zm-.057-1.559a.724.724 0 0 0 0 1.445v-1.445Z" fill="#332418"/><path d="M35.73 13.577c-1.229.17-2.045-.143-3.03-.976-.202.384-.801 1.099-1.246.99a1.96 1.96 0 0 0-.006.125V15.789c0 .608.255 1.156.662 1.546a2.138 2.138 0 0 0 1.483.599c1.184 0 2.144-.96 2.144-2.145v-2.075c0-.046-.003-.092-.007-.138Z" fill="#F9DACE"/><path d="M33.593 17.991c-.086 0-.176-.006-.282-.02a2.179 2.179 0 0 1-1.24-.594 2.181 2.181 0 0 1-.68-1.587v-2.075c0-.097.008-.198.024-.299a.057.057 0 0 1 .112.017 2.242 2.242 0 0 0-.012.11c.395.04.934-.586 1.135-.968a.058.058 0 0 1 .04-.03.056.056 0 0 1 .047.013c1.019.862 1.828 1.122 2.985.963a.056.056 0 0 1 .043.012c.012.01.02.023.021.039.005.048.008.096.008.143v2.075a2.204 2.204 0 0 1-2.201 2.201Zm-2.087-4.335-.001.058v2.075c0 .573.229 1.108.643 1.506.325.312.732.506 1.177.563.102.013.187.02.267.02a2.09 2.09 0 0 0 2.089-2.089v-2.075c0-.024-.001-.049-.003-.073-1.143.145-1.957-.117-2.961-.953-.227.391-.767 1.007-1.211.968Z" fill="#332418"/><path d="M33.066 14.88a.165.165 0 1 1-.33 0 .165.165 0 0 1 .33 0ZM34.995 14.88a.166.166 0 1 1-.331 0 .166.166 0 0 1 .33 0ZM31.038 15.098a.057.057 0 0 1-.036-.1l.12-.101-.139-.1a.057.057 0 0 1 .067-.092l.17.123a.083.083 0 0 1 .005.132l-.15.125a.058.058 0 0 1-.037.013ZM36.122 15.098a.059.059 0 0 1-.036-.013l-.151-.125a.083.083 0 0 1 .004-.132l.17-.123a.057.057 0 0 1 .08.013.057.057 0 0 1-.013.08l-.14.1.122.1c.024.02.027.056.007.08a.056.056 0 0 1-.043.02ZM32.331 14.116c.063-.05.156-.065.246-.086a4.774 4.774 0 0 0 .515-.137c.088-.027.177-.06.255-.049.074.011.123.085.07.206-.048.118-.215.275-.474.345-.259.069-.479.014-.577-.064-.103-.08-.095-.169-.035-.215ZM35.406 13.906c-.066-.043-.16-.05-.25-.062a4.517 4.517 0 0 1-.517-.087c-.09-.02-.18-.044-.255-.025-.073.017-.114.094-.051.209.058.111.237.251.498.296.26.043.472-.03.561-.116.094-.088.078-.175.014-.215ZM34.076 15.585l-.025-.001-.42-.036a.057.057 0 0 1 .01-.113l.42.036a.18.18 0 0 0 .188-.232l-.25-.825a.057.057 0 1 1 .107-.033l.252.825a.294.294 0 0 1-.282.38ZM33.541 16.22h-.006c-.269-.031-.453-.123-.549-.276a.519.519 0 0 1-.045-.42.057.057 0 0 1 .107.038c0 .002-.058.175.035.323.077.12.233.196.465.222a.057.057 0 0 1 .05.062.058.058 0 0 1-.056.05Z" fill="#332418"/><path d="M33.889 17.162s-.13-.129-.372.014Z" fill="#F6C6DC"/><path d="M33.517 17.233a.057.057 0 0 1-.029-.106c.278-.162.434-.012.441-.005a.056.056 0 0 1 0 .08.057.057 0 0 1-.08 0c-.005-.004-.106-.093-.304.022a.055.055 0 0 1-.028.009Z" fill="#332418"/><path d="M27.152 20.583c1.104-1.142 3.014-1.423 4.562-1.566a19.187 19.187 0 0 1 5.232.235c.995.184 1.888.544 2.585 1.265.063.065.201 7.51.201 7.51l-.259 5.336-11.684.083-.602-1.104s-.098-11.694-.035-11.76Z" fill="#7E6C5E"/><path d="M27.63 33.637a.056.056 0 0 1-.042-.017l-1.033-1.064a.056.056 0 0 1-.016-.041c.334-11.81.393-11.875.412-11.895 1.08-1.115 2.863-1.364 4.598-1.524a19.203 19.203 0 0 1 5.248.236c1.143.211 1.974.618 2.615 1.28.02.02.08.082.217 7.549l-.258 5.34a.056.056 0 0 1-.056.054l-11.686.082Zm-.977-1.143 1 1.03 11.607-.083.256-5.282c-.037-1.99-.143-7.167-.195-7.478-.623-.64-1.432-1.033-2.545-1.238a19.078 19.078 0 0 0-5.217-.235c-1.707.158-3.462.402-4.515 1.48-.056.382-.279 7.847-.39 11.806Z" fill="#332418"/><path d="m31.671 20.47 1.686 4.959c.03.087.152.089.184.003l1.838-4.917a.101.101 0 0 0 .006-.034v-1.962a.098.098 0 0 0-.129-.092L33.549 19a.098.098 0 0 1-.065 0l-1.555-.586a.098.098 0 0 0-.132.085l-.13 1.932c-.002.014 0 .027.004.039Z" fill="#AB9483"/><path d="M33.45 25.552h-.002a.153.153 0 0 1-.144-.105l-1.686-4.959a.153.153 0 0 1-.008-.06l.13-1.932a.153.153 0 0 1 .071-.12.153.153 0 0 1 .138-.014l1.555.585a.042.042 0 0 0 .027 0l1.707-.574a.155.155 0 0 1 .204.146v1.962a.16.16 0 0 1-.01.054l-1.837 4.916a.153.153 0 0 1-.145.101Zm-1.555-7.087a.041.041 0 0 0-.041.039l-.131 1.932c0 .005 0 .01.002.016l1.686 4.96a.039.039 0 0 0 .038.027.04.04 0 0 0 .039-.027l1.837-4.916a.041.041 0 0 0 .003-.015V18.52a.041.041 0 0 0-.017-.033.04.04 0 0 0-.037-.006l-1.707.574a.156.156 0 0 1-.103-.002l-1.555-.585a.03.03 0 0 0-.014-.003Z" fill="#332418"/><path d="M31.926 20.508c-.02 0-.04-.01-.05-.03a.057.057 0 0 1 .022-.076l1.591-.876a.056.056 0 0 1 .053 0l1.614.82a.057.057 0 0 1-.051.102l-1.587-.808-1.565.862a.067.067 0 0 1-.027.006Z" fill="#332418"/><path d="m33.962 20.755.409 2.457-.83 2.22a.098.098 0 0 1-.184-.003l-.66-1.94.34-2.9.925.166Z" fill="#9E8777"/><path d="M33.45 25.552h-.003a.153.153 0 0 1-.144-.105l-.66-1.94a.06.06 0 0 1-.002-.025l.34-2.9a.056.056 0 0 1 .066-.05l.924.167a.056.056 0 0 1 .046.046l.41 2.458a.06.06 0 0 1-.003.029l-.83 2.22c-.022.06-.08.1-.144.1Zm-.695-2.07.656 1.929a.04.04 0 0 0 .038.028c.003 0 .03-.002.04-.027l.824-2.206-.4-2.403-.825-.148-.333 2.827Z" fill="#332418"/><path d="m34.4 20.083-.426.543a.58.58 0 0 1-.905.007l-.44-.541.896-.516.876.507Z" fill="#9E8777"/><path d="M33.518 20.903a.633.633 0 0 1-.494-.235l-.44-.54a.056.056 0 0 1-.01-.047.057.057 0 0 1 .027-.04l.896-.515c.018-.01.04-.01.057 0l.876.507a.057.057 0 0 1 .016.084l-.427.543c-.12.152-.301.24-.495.242l-.006.001Zm-.803-.795.397.489a.52.52 0 0 0 .816-.007l.387-.49-.79-.46-.81.468Z" fill="#332418"/></g><mask id="d" style="mask-type:luminance" maskUnits="userSpaceOnUse" x="27" y="10" width="17" height="22"><path d="M43.367 10.017H27.096v21.84h16.271v-21.84Z" fill="#fff"/></mask><g mask="url(#d)"><path d="M42.782 21.185c-.188-.114-.403-.208-.532-.373-.191-.245-.132-.556-.079-.827a2.16 2.16 0 0 0 .02-.845 2.54 2.54 0 0 0-.817-1.395l.005-.041c.156-1.477-.964-2.807-2.5-2.969l-.048-.005c-1.438-.152-2.722.846-2.869 2.229l-.05.471a2.916 2.916 0 0 0-.353.25 2.555 2.555 0 0 0-.889 1.46c-.055.29-.036.56.02.845.053.271.113.582-.079.826-.128.166-.344.26-.532.374-.846.512-1.192 1.567-.778 2.373.04.078.09.159.178.199.08.037.179.034.27.029 1.37-.076 2.727-.29 4.081-.502l.6-.092c.201.03.402.06.602.092 1.354.212 2.71.426 4.08.502.093.005.19.008.27-.03a.405.405 0 0 0 .18-.198c.413-.806.067-1.86-.78-2.373Z" fill="#332418"/><path d="M43.2 23.846c-.032 0-.064-.002-.092-.003-1.342-.074-2.691-.284-3.996-.488l-.09-.014-.592-.091-.592.091-.09.015c-1.305.203-2.654.413-3.996.488a.627.627 0 0 1-.298-.035.459.459 0 0 1-.205-.224c-.423-.826-.065-1.924.8-2.447l.131-.076c.15-.085.293-.165.386-.284.177-.226.119-.521.068-.781a2.194 2.194 0 0 1-.02-.867c.11-.568.433-1.098.91-1.493.103-.086.215-.166.335-.24l.047-.444a2.51 2.51 0 0 1 .971-1.728 2.71 2.71 0 0 1 1.96-.55l.047.005c.758.08 1.44.439 1.923 1.01.482.574.705 1.29.628 2.02l-.002.013c.424.385.713.884.813 1.407.052.268.045.535-.02.866-.05.26-.108.555.069.781.093.12.235.2.385.285.045.025.089.05.132.076.864.523 1.223 1.62.8 2.447a.457.457 0 0 1-.205.224.504.504 0 0 1-.206.037Zm-4.77-.71h.009c.2.03.4.06.601.092l.09.014c1.302.203 2.649.413 3.985.487a.521.521 0 0 0 .244-.023c.072-.034.115-.103.151-.174.398-.774.058-1.805-.757-2.298a4.37 4.37 0 0 0-.129-.074c-.153-.087-.313-.176-.42-.313-.207-.267-.141-.603-.089-.873.062-.316.069-.57.02-.823a2.483 2.483 0 0 0-.799-1.364.057.057 0 0 1-.019-.048l.005-.041c.073-.7-.14-1.386-.603-1.935a2.78 2.78 0 0 0-1.847-.972l-.047-.005a2.604 2.604 0 0 0-1.878.527c-.53.412-.86.998-.928 1.651l-.05.472a.057.057 0 0 1-.027.043c-.124.074-.24.157-.347.245a2.48 2.48 0 0 0-.87 1.427c-.048.252-.042.506.02.823.053.27.119.606-.09.873-.107.137-.266.226-.42.313a6.722 6.722 0 0 0-.127.074c-.815.493-1.155 1.524-.757 2.298.036.07.079.14.151.173.066.031.15.03.244.024 1.337-.074 2.683-.284 3.985-.487l.09-.014.602-.093h.007Z" fill="#332418"/><path d="M39.676 20.18h-2.675v3.182h2.675v-3.181Z" fill="#F9DACE"/><path d="M39.677 23.42H37a.057.057 0 0 1-.057-.058v-3.181c0-.032.026-.057.057-.057h2.676c.031 0 .057.025.057.057v3.181a.057.057 0 0 1-.057.057Zm-2.62-.114h2.563v-3.068h-2.562v3.068Z" fill="#332418"/><path d="M38.016 20.994c.361.227 1.127.672 1.66.729v-1.278a1.832 1.832 0 0 1-1.66.549Z" fill="#E1C0B5"/><path d="m40.546 18.316-.027-.003-.127 1.2c-.007.069-.018.137-.033.203l.039.004a.706.706 0 1 0 .148-1.404Z" fill="#F9DACE"/><path d="M40.474 19.78a.73.73 0 0 1-.082-.004l-.038-.003a.057.057 0 0 1-.05-.069 1.98 1.98 0 0 0 .032-.198l.127-1.2a.054.054 0 0 1 .02-.038.057.057 0 0 1 .042-.012l.027.003c.203.021.385.12.513.278a.757.757 0 0 1 .166.56.757.757 0 0 1-.28.513.75.75 0 0 1-.477.17Zm-.046-.114a.647.647 0 0 0 .69-.58.647.647 0 0 0-.548-.71l-.12 1.142a1.947 1.947 0 0 1-.022.148Z" fill="#332418"/><path d="m36.656 17.905-.027-.003a.706.706 0 0 0-.148 1.405l.038.004c0-.068.003-.137.01-.206l.127-1.2Z" fill="#F9DACE"/><path d="M36.52 19.368h-.006l-.038-.005a.758.758 0 0 1-.513-.279.764.764 0 0 1 .673-1.239l.027.003a.056.056 0 0 1 .05.063l-.126 1.2c-.007.063-.01.13-.01.2a.058.058 0 0 1-.057.057Zm.035-1.413a.65.65 0 0 0-.091 1.292c.001-.05.005-.1.01-.149l.12-1.142a.99.99 0 0 0-.039-.001Z" fill="#332418"/><path d="m38.925 15.858-.038-.006c-.257.85-1.108 1.477-2.174 1.575-.007.04-.014.08-.019.121l-.035.332-.125 1.186a1.93 1.93 0 0 0 1.394 2.047 1.945 1.945 0 0 0 1.804-.386 1.904 1.904 0 0 0 .664-1.253l.126-1.186.035-.332c.005-.053.007-.106.008-.158-.936-.348-1.57-1.103-1.64-1.94Z" fill="#F9DACE"/><path d="M38.474 21.247a2.08 2.08 0 0 1-.562-.08 1.991 1.991 0 0 1-1.434-2.107l.16-1.518c.004-.034.01-.066.015-.098l.005-.027a.058.058 0 0 1 .05-.047c1.038-.095 1.873-.698 2.125-1.535a.056.056 0 0 1 .062-.04l.039.006a.057.057 0 0 1 .048.052c.068.813.698 1.555 1.604 1.891.022.009.037.03.036.055 0 .054-.003.108-.008.162l-.161 1.518a1.947 1.947 0 0 1-.684 1.29c-.367.312-.82.478-1.295.478Zm-1.712-3.768a.952.952 0 0 0-.012.075l-.16 1.518a1.877 1.877 0 0 0 1.68 2.051 1.88 1.88 0 0 0 2.07-1.655l.16-1.518c.004-.038.006-.076.007-.113-.868-.336-1.486-1.034-1.619-1.816-.311.79-1.126 1.353-2.127 1.458Z" fill="#332418"/><path d="M39.052 18.313a.165.165 0 1 0 .328.035.165.165 0 0 0-.328-.035Z" fill="#332418"/><path d="M39.087 18.506s.122-.072.255.027Z" fill="#FAF9F7"/><path d="M39.342 18.59a.057.057 0 0 1-.034-.012.18.18 0 0 0-.193-.023.057.057 0 0 1-.077-.02.056.056 0 0 1 .02-.078c.006-.003.157-.09.317.03.025.02.03.055.012.08a.055.055 0 0 1-.045.022ZM37.31 18.14a.165.165 0 1 0 .328.035.165.165 0 0 0-.328-.035Z" fill="#332418"/><path d="M37.308 18.318s.122-.072.254.026Z" fill="#FAF9F7"/><path d="M37.563 18.401a.057.057 0 0 1-.035-.01.179.179 0 0 0-.192-.024.057.057 0 0 1-.077-.02.056.056 0 0 1 .02-.078c.006-.003.156-.09.317.03.025.02.03.055.012.08a.056.056 0 0 1-.045.022ZM36.219 18.785a.057.057 0 0 1-.032-.104l.113-.076-.111-.098a.056.056 0 0 1-.005-.08.056.056 0 0 1 .08-.005l.143.127a.081.081 0 0 1-.008.128l-.149.098a.058.058 0 0 1-.031.01ZM40.798 19.268a.056.056 0 0 1-.04-.017l-.125-.127a.08.08 0 0 1 .018-.127l.165-.094a.057.057 0 0 1 .056.099l-.128.073.094.097a.057.057 0 0 1 0 .08.057.057 0 0 1-.04.016ZM38.975 17.56c.035.033.09.046.143.063a2.808 2.808 0 0 1 .302.106c.051.02.103.045.15.041.046-.002.079-.045.052-.12-.023-.072-.116-.175-.268-.229-.152-.053-.287-.03-.349.012-.065.043-.064.096-.03.127ZM37.983 17.493c-.037.03-.093.041-.146.055a2.859 2.859 0 0 0-.307.09c-.053.018-.106.04-.153.033-.045-.005-.076-.049-.046-.122.028-.072.125-.17.28-.215.155-.045.288-.016.348.03.063.046.06.1.024.129ZM38.371 19.041h-.008l-.143-.021a.455.455 0 0 1-.383-.515.177.177 0 0 1 .07-.118.179.179 0 0 1 .134-.034.19.19 0 0 0 .215-.16l.051-.352a.057.057 0 1 1 .113.016l-.052.353a.299.299 0 0 1-.119.198.299.299 0 0 1-.224.057.064.064 0 0 0-.049.012.064.064 0 0 0-.026.044.341.341 0 0 0 .288.387l.142.02a.057.057 0 0 1 .048.065.059.059 0 0 1-.057.048Z" fill="#332418"/><path d="M39.336 19.135a.146.146 0 0 0-.179-.007 1 1 0 0 1-.593.18c-.07-.003-.115.071-.094.137.046.144.19.377.57.258.463-.146.427-.453.296-.568Z" fill="#FAF9F7"/><path d="M38.844 19.793c-.296 0-.4-.244-.428-.331a.167.167 0 0 1 .026-.152.145.145 0 0 1 .124-.06.944.944 0 0 0 .559-.168.201.201 0 0 1 .249.01.323.323 0 0 1 .098.305c-.02.092-.1.26-.415.36a.71.71 0 0 1-.213.035Zm-.283-.43a.036.036 0 0 0-.029.016.054.054 0 0 0-.008.048c.04.129.16.328.499.221.193-.06.313-.158.338-.274a.207.207 0 0 0-.062-.196.089.089 0 0 0-.11-.003c-.106.075-.327.2-.627.189h-.001Z" fill="#332418"/><path d="M36.404 19.198a.171.171 0 1 1-.34-.036.171.171 0 0 1 .34.036Z" fill="#fff"/><path d="m36.234 19.408-.024-.001a.228.228 0 1 1 .024.001Zm0-.343a.115.115 0 1 0 .114.127.115.115 0 0 0-.102-.125c-.004-.002-.008-.002-.012-.002Z" fill="#332418"/><path d="M40.864 19.669a.171.171 0 1 1-.34-.036.171.171 0 0 1 .34.036Z" fill="#fff"/><path d="m40.695 19.88-.024-.002a.228.228 0 1 1 .024.001Zm0-.344a.115.115 0 1 0 .012 0h-.013Z" fill="#332418"/><path d="m43.463 26.317 1.52-.613-1.232-2.443c-.443-.879-1.284-1.45-2.22-1.524a2.64 2.64 0 0 0-.205-.008h-1.39l-1.6.358-1.444-.358h-1.08a2.64 2.64 0 0 0-.205.008c-.746.059-1.556.475-2.088 1.012-.322.324-1.958 2.253-1.958 2.253l2.989 3.197.771 4.131s7.833.031 7.93-.038c.195-.14.105-5.78.212-5.975Z" fill="#9E8777"/><path d="M38.933 32.395c-1.252 0-2.56-.004-3.612-.008a.057.057 0 0 1-.056-.047l-.768-4.115-2.978-3.184a.057.057 0 0 1-.002-.076c.067-.079 1.642-1.934 1.961-2.256.563-.568 1.396-.971 2.124-1.029.076-.005.144-.008.21-.008h1.08l.013.001 1.432.356 1.587-.356a.062.062 0 0 1 .012-.001h1.39c.066 0 .134.003.21.009.966.076 1.813.657 2.265 1.555l1.232 2.443c.008.014.008.03.003.045a.056.056 0 0 1-.032.032l-1.495.603c-.036.176-.046 1.258-.056 2.305-.025 2.64-.009 3.595-.124 3.677-.062.045-2.16.054-4.396.054Zm-3.565-.122c2.136.009 7.517.018 7.852-.032.088-.175.106-2.14.12-3.577.015-1.62.025-2.288.073-2.374a.056.056 0 0 1 .028-.025l1.463-.59-1.204-2.388c-.435-.862-1.248-1.42-2.174-1.493a2.55 2.55 0 0 0-.2-.008h-1.384l-1.593.357a.058.058 0 0 1-.026 0l-1.438-.357h-1.073a2.55 2.55 0 0 0-.2.008c-.704.055-1.509.446-2.053.995-.29.294-1.69 1.937-1.922 2.211l2.955 3.16a.054.054 0 0 1 .014.029l.762 4.084Z" fill="#332418"/><path d="m40.147 21.66-.035 1.744a.172.172 0 0 1-.291.12l-1.39-1.334a.172.172 0 0 0-.223-.013l-1.468 1.116a.172.172 0 0 1-.276-.141l.043-1.665a.172.172 0 0 1 .244-.153l1.512.686c.04.018.086.02.128.005l1.527-.53a.173.173 0 0 1 .229.166Z" fill="#fff"/><path d="M39.938 23.63a.227.227 0 0 1-.157-.065l-1.39-1.334a.115.115 0 0 0-.15-.009l-1.467 1.117a.229.229 0 0 1-.368-.188l.044-1.665a.229.229 0 0 1 .324-.203l1.511.685a.114.114 0 0 0 .086.004l1.527-.53a.231.231 0 0 1 .21.03.23.23 0 0 1 .094.19l-.034 1.742a.226.226 0 0 1-.142.208.22.22 0 0 1-.088.018Zm-1.576-1.54c.04.01.077.03.108.06l1.39 1.334c.034.033.08.041.124.024a.113.113 0 0 0 .071-.105l.035-1.743a.114.114 0 0 0-.048-.096.114.114 0 0 0-.105-.015l-1.527.531a.313.313 0 0 1-.048.01Zm-1.683-.714a.112.112 0 0 0-.061.017.114.114 0 0 0-.054.095l-.043 1.665a.113.113 0 0 0 .062.106c.04.021.087.017.123-.011l1.467-1.116a.23.23 0 0 1 .11-.046.255.255 0 0 1-.044-.014l-1.512-.686a.116.116 0 0 0-.048-.01Z" fill="#332418"/><path d="m40.056 22.908 1.033-1.202-.57-.335c-.14-.066-.228-.175-.221-.328a.45.45 0 0 1 .551-.418l2.352.627c.733.196 1.87.83 1.677 1.63l-.209.835a.358.358 0 0 1-.396.267c-.3-.04-.719-.068-.817.07-.087.122-.256.227-.37.322-.13.11-.267.211-.416.294a.767.767 0 0 1-.272.106c-.26.03-.442-.279-.252-.477l.284-.295c-.218.194-.424.362-.57.48a.323.323 0 0 1-.329.05.291.291 0 0 1-.107-.461l.59-.672c-.392.4-.687.636-.873.766a.332.332 0 0 1-.414-.03l-.026-.023c-.132-.122-.192-.367-.071-.499l.07-.088a.446.446 0 0 1-.644-.619Z" fill="#F9DACE"/><path d="M42.363 24.836a.35.35 0 0 1-.346-.406l-.121.098a.376.376 0 0 1-.387.058.349.349 0 0 1-.165-.499c-.065.05-.121.092-.17.126a.39.39 0 0 1-.484-.034l-.027-.024a.48.48 0 0 1-.141-.458.503.503 0 0 1-.508-.827l.988-1.15-.512-.3c-.166-.08-.256-.215-.248-.38a.505.505 0 0 1 .62-.47l2.354.628c.83.22 1.912.894 1.718 1.698l-.208.836a.416.416 0 0 1-.46.31c-.618-.083-.74.014-.763.045-.067.094-.176.178-.273.25a2.364 2.364 0 0 0-.106.084 2.69 2.69 0 0 1-.426.299c-.08.045-.18.1-.292.113a.467.467 0 0 1-.043.003Zm.068-.887c.015 0 .03.005.04.017a.056.056 0 0 1 0 .078l-.282.295a.212.212 0 0 0-.04.249.238.238 0 0 0 .243.133c.09-.011.179-.06.251-.1.13-.072.264-.166.408-.287.034-.028.072-.057.11-.086a1.24 1.24 0 0 0 .25-.227c.034-.047.137-.19.87-.092a.302.302 0 0 0 .334-.224l.209-.836c.176-.729-.852-1.352-1.637-1.561l-2.352-.627a.392.392 0 0 0-.48.365c-.005.12.059.212.189.274l.575.337a.056.056 0 0 1 .014.086L40.1 22.945l-.001.002a.389.389 0 0 0 .021.553.387.387 0 0 0 .54-.012.057.057 0 0 1 .085.075l-.07.088c-.1.11-.045.32.066.422l.026.024a.276.276 0 0 0 .343.024c.178-.124.471-.356.864-.758a.056.056 0 0 1 .083.077l-.59.67a.234.234 0 0 0 .088.372c.085.038.19.02.27-.043.135-.108.343-.278.568-.477a.058.058 0 0 1 .038-.014Z" fill="#E1C0B5"/><path d="M40.63 23.65a.057.057 0 0 1-.04-.016.057.057 0 0 1 0-.08l1.008-1.033a.057.057 0 0 1 .08.08l-1.008 1.032a.057.057 0 0 1-.04.017ZM41.47 23.999a.057.057 0 0 1-.04-.097l.776-.777a.056.056 0 0 1 .08 0 .057.057 0 0 1 0 .08l-.775.777a.057.057 0 0 1-.04.017ZM42.116 24.359a.057.057 0 0 1-.04-.098l.621-.582a.057.057 0 0 1 .078.083l-.62.582a.058.058 0 0 1-.039.015ZM40.919 21.959a.056.056 0 0 1-.04-.096l.435-.458a.056.056 0 1 1 .082.078l-.436.458a.057.057 0 0 1-.041.018Z" fill="#E1C0B5"/><path d="M35.189 24.47s-.497-.405-.874.226c-.082.137.59-1.035.232-1.27-.36-.235-.767.377-1.025 1.068" fill="#F6C6DC"/><path d="M34.308 24.764a.055.055 0 0 1-.027-.007c-.049-.027-.024-.075-.012-.098.317-.623.412-1.077.247-1.185a.23.23 0 0 0-.211-.029c-.232.076-.512.486-.73 1.07a.057.057 0 1 1-.106-.04c.112-.3.415-1.01.8-1.137a.344.344 0 0 1 .309.041c.23.15.127.58-.053 1a.541.541 0 0 1 .21-.085.66.66 0 0 1 .49.134c.023.02.027.055.008.08a.057.057 0 0 1-.08.008c-.002-.002-.185-.148-.4-.11-.147.026-.278.134-.39.32-.018.03-.038.038-.055.038Z" fill="#25284D"/><path d="m33.169 23.144.169-1.88 1.002-.18.055-.01 1.002-.182.817 1.7a1.623 1.623 0 1 1-3.045.551Z" fill="#fff"/><path d="M34.775 25.031c-.34 0-.67-.103-.954-.3a1.668 1.668 0 0 1-.709-1.593l.17-1.878a.057.057 0 0 1 .046-.05l2.06-.373a.057.057 0 0 1 .06.031l.818 1.7c.08.15.135.314.166.484.08.441-.017.887-.273 1.256a1.668 1.668 0 0 1-1.384.723Zm-1.384-3.718-.166 1.836v.002a1.557 1.557 0 0 0 .66 1.487c.345.238.76.329 1.172.254.412-.075.77-.305 1.009-.648a1.556 1.556 0 0 0 .098-1.625l-.8-1.663-1.973.357Zm-.222 1.831h.001-.001Z" fill="#332418"/><path d="m33.408 23.19.053-.43h.004c-.007.114.564.352 1.293.54.51.13.965.2 1.209.196.086 0 .146-.012.172-.033l.015-.004a1.38 1.38 0 1 1-2.746-.268Z" fill="#7E6C5E"/><path d="M34.778 24.805a1.44 1.44 0 0 1-1.427-1.622l.054-.43a.057.057 0 0 1 .037-.046.064.064 0 0 1 .055.01c.014.011.026.027.025.046.028.069.49.286 1.25.481.489.125.946.2 1.194.195.113-.001.137-.02.138-.02a.053.053 0 0 1 .02-.011c.018-.005.045-.003.059.008.014.012.03.028.028.046a1.434 1.434 0 0 1-1.433 1.343Zm-1.276-1.915-.038.308a1.326 1.326 0 0 0 1.76 1.415 1.32 1.32 0 0 0 .866-1.07.734.734 0 0 1-.122.01c-.255.004-.726-.072-1.224-.2-.114-.028-.956-.249-1.242-.463Z" fill="#332418"/><path d="M33.466 22.753c-.029.111.55.356 1.293.546.742.19 1.367.254 1.396.143.028-.112-.55-.356-1.293-.547-.742-.19-1.368-.254-1.396-.142Z" fill="#7E6C5E"/><path d="M35.945 23.553c-.06 0-.135-.004-.226-.013a7.042 7.042 0 0 1-.975-.186c-.143-.037-1.397-.366-1.333-.615.064-.25 1.322.065 1.465.102.362.093.697.201.944.305.373.158.406.245.39.31-.013.05-.059.097-.265.097Zm-2.416-.784c.07.085.523.29 1.244.475.72.184 1.217.223 1.319.181-.07-.085-.523-.29-1.244-.475-.721-.184-1.216-.223-1.32-.181Z" fill="#332418"/><path d="M34.227 23.42a.04.04 0 1 0 .08-.015.04.04 0 0 0-.08.014ZM34.56 23.685a.066.066 0 1 0 .13-.023.066.066 0 0 0-.13.023ZM33.754 23.82c.01.053.06.088.114.08a.098.098 0 0 0-.035-.193.098.098 0 0 0-.079.113Z" fill="#fff"/><path d="M33.34 21.265c.01.06.48.024 1.047-.078.569-.103 1.02-.235 1.01-.295-.01-.06-.48-.024-1.049.079-.568.102-1.02.234-1.009.294Z" fill="#FAF9F7"/><path d="M33.488 21.35c-.157 0-.196-.027-.205-.075a.074.074 0 0 1 .013-.055c.09-.13.945-.287 1.043-.305.276-.05.539-.086.739-.101.3-.023.364.006.375.068a.075.075 0 0 1-.013.054c-.09.13-.945.288-1.043.306-.276.05-.539.086-.739.1a2.264 2.264 0 0 1-.17.009Zm1.757-.43c-.16 0-.473.032-.887.106a6.01 6.01 0 0 0-.868.21c.16 0 .473-.031.887-.106.414-.074.718-.155.868-.21Z" fill="#332418"/><path d="M34.263 27.516c.015.082.573.05 1.246-.072s1.207-.288 1.193-.37c-.015-.081-.573-.049-1.247.073-.673.122-1.207.287-1.192.369Z" fill="#FEF6F8"/><path d="M34.52 27.617c-.174 0-.3-.024-.312-.09-.013-.07.046-.132.377-.235.227-.07.533-.141.86-.2.384-.07 1.28-.211 1.313-.027.012.068-.046.131-.378.234a7.73 7.73 0 0 1-.86.2c-.244.045-.696.118-1 .118Zm-.163-.118c.144.02.556-.005 1.142-.111.586-.106.98-.228 1.109-.296-.144-.02-.557.005-1.143.111-.585.106-.98.227-1.108.296Z" fill="#332418"/><path d="m34.433 27.657.356-.191.837-.45a.624.624 0 0 0 .252-.823l-.046-.092.273-.107a.388.388 0 0 0 .209-.526l-.1-.215.148-.052a.324.324 0 0 0 .212-.363l-.007-.04a.327.327 0 0 0-.306-.27l-.579-.028-.005-.055a.496.496 0 0 0-.498-.451l-.897.17c-.448.09-.903.398-1.261.708-.637.55-.83.926-.906 1.764l-.343 3.715c-.055.72.167 1.434.62 1.997.765.95 2.275.7 2.693-.446.161-.442.21-.917.143-1.383l-.44-3.055" fill="#F9DACE"/><path d="M33.604 32.99c-.486 0-.942-.216-1.257-.606a2.888 2.888 0 0 1-.632-2.037l.344-3.716c.077-.855.276-1.242.925-1.802.318-.274.799-.622 1.287-.72l.898-.17c.298 0 .54.217.565.501v.006l.53.026c.179.009.327.139.358.316l.007.04a.379.379 0 0 1-.249.427l-.089.03.074.158a.439.439 0 0 1 .01.353.44.44 0 0 1-.25.25l-.214.085.018.037a.68.68 0 0 1-.276.898l-.802.43.433 3.016c.068.473.018.96-.146 1.41a1.605 1.605 0 0 1-1.26 1.045 1.578 1.578 0 0 1-.274.023Zm1.58-8.939h-.004l-.887.17c-.463.093-.927.429-1.235.694-.63.543-.811.898-.886 1.726l-.344 3.716a2.771 2.771 0 0 0 .607 1.955c.347.43.88.633 1.424.544.545-.09.983-.454 1.172-.973a2.8 2.8 0 0 0 .141-1.355l-.428-2.975-.284.153a.057.057 0 0 1-.077-.023.057.057 0 0 1 .024-.077l.354-.19.002-.002.836-.448a.567.567 0 0 0 .229-.748l-.046-.092a.057.057 0 0 1 .03-.078l.272-.108a.33.33 0 0 0 .179-.449l-.1-.214a.058.058 0 0 1-.002-.046.056.056 0 0 1 .034-.032l.148-.052a.266.266 0 0 0 .175-.299l-.007-.04a.269.269 0 0 0-.253-.223l-.579-.029a.057.057 0 0 1-.053-.051l-.005-.055a.441.441 0 0 0-.437-.399Z" fill="#E1C0B5"/><path d="m33.998 25.354.154-.204c.157-.207.38-.354.63-.418l.906-.232" fill="#332418"/><path d="M33.998 25.41a.057.057 0 0 1-.045-.091l.154-.203c.163-.217.399-.373.661-.44l.906-.231c.03-.008.061.01.069.04a.057.057 0 0 1-.041.07l-.906.23c-.238.062-.45.203-.599.399l-.154.204a.056.056 0 0 1-.045.023Z" fill="#E1C0B5"/><path d="m36.214 25.253-.873.203a1.993 1.993 0 0 0-.778.371" fill="#706F6E"/><path d="M34.563 25.884a.057.057 0 0 1-.035-.101 2.06 2.06 0 0 1 .8-.382l.873-.202a.057.057 0 0 1 .026.11l-.873.202a1.94 1.94 0 0 0-.756.361.056.056 0 0 1-.035.012Z" fill="#E1C0B5"/><path d="M34.852 25.65s.23.423.172.7l.195-.063s0-.591-.251-.704l-.116.066Z" fill="#FEF6F8" stroke="#FEF6F8" stroke-miterlimit="10"/><path d="m34.966 26.413.015-.072c.056-.259-.165-.667-.167-.671l-.02-.037.17-.097.02.009c.273.122.277.717.277.743v.03l-.295.095Zm-.058-.747c.05.102.181.389.166.623l.1-.033c-.004-.169-.047-.528-.206-.624l-.06.034Z" fill="#fff"/><path d="m35.833 26.101-.627.2a1.22 1.22 0 0 0-.562.34" fill="#F6C6DC"/><path d="M34.644 26.697a.057.057 0 0 1-.041-.096c.16-.17.33-.272.586-.354l.627-.2c.03-.01.062.007.071.037a.057.057 0 0 1-.037.071l-.626.2a1.17 1.17 0 0 0-.539.324.06.06 0 0 1-.041.018Z" fill="#E1C0B5"/></g><path d="M26.824 17.778a3.305 3.305 0 1 0 0-6.61 3.305 3.305 0 0 0 0 6.61Z" fill="#7E6C5E"/><path d="M26.822 17.836a3.35 3.35 0 0 1-1.427-.32 3.34 3.34 0 0 1-1.733-1.902 3.339 3.339 0 0 1 .119-2.57 3.34 3.34 0 0 1 1.901-1.733 3.34 3.34 0 0 1 2.57.119 3.34 3.34 0 0 1 1.734 1.902 3.339 3.339 0 0 1-.12 2.57 3.34 3.34 0 0 1-1.901 1.733 3.36 3.36 0 0 1-1.143.201Zm.004-6.613c-.372 0-.745.064-1.105.194a3.226 3.226 0 0 0-1.837 1.675 3.226 3.226 0 0 0-.115 2.483c.294.817.889 1.47 1.674 1.838.786.369 1.668.41 2.484.115a3.227 3.227 0 0 0 1.837-1.675c.369-.785.41-1.667.115-2.483a3.226 3.226 0 0 0-1.674-1.838 3.243 3.243 0 0 0-1.38-.31Z" fill="#7E6C5E"/><path d="M26.938 17.386a3.305 3.305 0 1 0 0-6.611 3.305 3.305 0 0 0 0 6.61Z" fill="#9E8777"/><path d="M26.933 17.442c-.479 0-.963-.102-1.424-.319a3.34 3.34 0 0 1-1.733-1.901 3.339 3.339 0 0 1 .119-2.57 3.366 3.366 0 0 1 4.472-1.615 3.365 3.365 0 0 1 1.614 4.472 3.367 3.367 0 0 1-3.048 1.933Zm.01-6.61c-1.221 0-2.393.691-2.946 1.867a3.226 3.226 0 0 0-.115 2.484c.295.816.89 1.469 1.675 1.838a3.252 3.252 0 0 0 4.321-1.56 3.252 3.252 0 0 0-2.935-4.63Z" fill="#6A5649"/><path d="M27.29 14.383a.052.052 0 0 0-.063-.064l-.445.12-.08.022a.1.1 0 0 1-.124-.113l.114-.68a.512.512 0 0 0-.1-.403 1.011 1.011 0 0 0-.826-.384.98.98 0 0 0-.959.96c-.017.505.343.894.702 1.199.435.37.872.744 1.325 1.093.003.002.011-.002.023-.01v-.004l.433-1.736Z" fill="#FAF9F7"/><path d="M26.835 16.19a.054.054 0 0 1-.035-.012 32.223 32.223 0 0 1-1.248-1.027l-.08-.068c-.346-.294-.74-.701-.721-1.244.02-.56.456-.997 1.014-1.015.34-.011.658.137.872.405.098.123.139.287.111.449l-.113.68a.043.043 0 0 0 .053.048l.524-.142c.038-.01.078 0 .105.028a.107.107 0 0 1 .028.104l-.432 1.736a.07.07 0 0 1-.024.038c-.01.006-.03.02-.054.02ZM25.8 12.938h-.031a.928.928 0 0 0-.904.906c-.018.493.355.875.681 1.153l.08.067c.387.33.785.669 1.192.984l.417-1.675-.517.143a.156.156 0 0 1-.195-.177l.114-.68a.455.455 0 0 0-.089-.359.95.95 0 0 0-.748-.362Z" fill="#332418"/><path d="M29.203 13.18a1.024 1.024 0 0 0-.853-.728c-.492-.061-.966.2-1.104.688-.078.28-.142.563-.214.844-.005.02.013.04.034.036l.189-.035.453-.084a.052.052 0 0 1 .058.069l-.508 1.682c-.003.008.006.015.012.01.211-.137 1.078-.916 1.175-.997.357-.296.754-.655.793-1.15a.93.93 0 0 0-.035-.334Z" fill="#FAF9F7"/><path d="M27.267 15.72a.07.07 0 0 1-.04-.012.065.065 0 0 1-.024-.072l.509-1.683-.636.122a.086.086 0 0 1-.099-.105l.078-.31c.043-.176.087-.358.137-.535.14-.498.62-.797 1.166-.73.42.052.783.361.9.77a.996.996 0 0 1 .037.354c-.04.509-.424.867-.814 1.19-.023.02-.093.08-.186.163-.31.274-.83.732-.993.838a.068.068 0 0 1-.035.01Zm.45-1.876c.032 0 .062.014.083.039.025.03.032.07.019.107l-.465 1.54c.222-.176.628-.533.865-.742l.19-.166c.37-.307.736-.646.772-1.111a.884.884 0 0 0-.032-.314.973.973 0 0 0-.806-.689c-.49-.06-.917.206-1.042.648-.05.176-.093.356-.136.531l-.067.27.6-.11a.06.06 0 0 1 .02-.003Z" fill="#332418"/><path d="M45.817 14.82a2.678 2.678 0 1 0-4.925-2.105 2.678 2.678 0 0 0 4.925 2.104Z" fill="#7E6C5E"/><path d="M44.108 16.253a2.678 2.678 0 1 0-.913-5.277 2.678 2.678 0 0 0 .913 5.277Z" fill="#917A69"/><path d="M43.647 16.352c-.416 0-.83-.096-1.215-.287a2.716 2.716 0 0 1-1.374-1.578 2.717 2.717 0 0 1 .144-2.088 2.717 2.717 0 0 1 1.578-1.375 2.717 2.717 0 0 1 2.088.144 2.716 2.716 0 0 1 1.374 1.578 2.716 2.716 0 0 1-.143 2.088 2.716 2.716 0 0 1-1.579 1.375c-.286.096-.58.143-.873.143Zm0-5.357a2.625 2.625 0 0 0-2.483 3.456 2.624 2.624 0 0 0 3.32 1.65c.663-.223 1.2-.69 1.513-1.318.312-.627.36-1.338.138-2.001a2.626 2.626 0 0 0-2.487-1.787Z" fill="#6A5649"/><path d="m45.103 14.2-1.134.011c.07.18.084.378.037.566l-.04.162a.427.427 0 0 1-.486.318.108.108 0 0 1-.09-.118l.024-.234a.9.9 0 0 0-.346-.806.128.128 0 0 0 .012-.053l-.014-1.37c.027-.08.1-.136.187-.136l1.574-.016c.08-.001.146.063.147.143v.061a.079.079 0 0 1-.074.08h.02a.167.167 0 0 1 .17.166l.002.127c0 .073-.067.132-.067.132.095 0 .173.076.174.171l.002.173c.001.075-.098.136-.098.136a.204.204 0 0 1 .206.203l.001.073a.21.21 0 0 1-.207.21Z" fill="#FAF9F7"/><path d="M43.55 15.32a.479.479 0 0 1-.08-.007.166.166 0 0 1-.137-.18l.024-.234a.837.837 0 0 0-.324-.755.057.057 0 0 1-.017-.069.069.069 0 0 0 .007-.029l-.014-1.37c0-.006 0-.012.002-.018a.254.254 0 0 1 .24-.175l1.574-.016a.194.194 0 0 1 .143.057.2.2 0 0 1 .06.142l.002.061a.147.147 0 0 1-.008.047.225.225 0 0 1 .125.198v.128a.2.2 0 0 1-.024.097.23.23 0 0 1 .133.206l.001.173c0 .04-.017.077-.038.106a.258.258 0 0 1 .147.232v.073a.263.263 0 0 1-.262.268l-1.056.012a.98.98 0 0 1 .012.524l-.04.161a.486.486 0 0 1-.47.367Zm-.417-1.241c.245.205.37.512.337.832l-.024.233a.052.052 0 0 0 .042.057.373.373 0 0 0 .422-.276l.04-.162a.867.867 0 0 0-.035-.531.057.057 0 0 1 .053-.077l1.135-.012a.15.15 0 0 0 .15-.153l-.002-.073a.147.147 0 0 0-.147-.146h-.002a.057.057 0 0 1-.03-.105c.029-.018.072-.059.072-.087l-.002-.174a.116.116 0 0 0-.116-.114h-.002a.056.056 0 0 1-.037-.1c.013-.011.047-.051.047-.088l-.001-.128a.112.112 0 0 0-.034-.079.12.12 0 0 0-.08-.031h-.02a.057.057 0 0 1-.004-.114c.011 0 .02-.01.02-.022v-.061a.086.086 0 0 0-.027-.062.095.095 0 0 0-.062-.025l-1.574.016a.141.141 0 0 0-.13.09l.014 1.36-.003.032Z" fill="#332418"/><path d="M43.068 14.1a.124.124 0 0 1-.111.071l-.704.007a.124.124 0 0 1-.126-.123l-.014-1.38c0-.068.054-.125.123-.125l.704-.007c.069-.001.125.054.126.123v.01l.014 1.37a.12.12 0 0 1-.012.053Z" fill="#FAF9F7"/><path d="M42.251 14.235a.18.18 0 0 1-.18-.18l-.014-1.38a.18.18 0 0 1 .179-.182l.703-.007a.179.179 0 0 1 .183.18l.014 1.38a.174.174 0 0 1-.017.078.18.18 0 0 1-.162.104l-.703.008h-.003Zm.69-1.636-.704.007a.066.066 0 0 0-.048.02.066.066 0 0 0-.019.049l.014 1.38c0 .018.007.035.02.047.013.013.03.02.047.02h.001l.704-.008a.068.068 0 0 0 .06-.039.07.07 0 0 0 .007-.029l-.014-1.37c0-.047-.03-.077-.068-.077Z" fill="#332418"/><path d="M42.797 13.864a.13.13 0 1 0-.261.003.13.13 0 0 0 .26-.003Z" fill="#FAF9F7"/><path d="M42.667 14.052a.185.185 0 0 1-.187-.184.187.187 0 0 1 .185-.188.185.185 0 0 1 .189.184.187.187 0 0 1-.185.188h-.002Zm0-.26a.072.072 0 0 0-.073.074.074.074 0 0 0 .073.072h.001c.04 0 .073-.033.073-.073a.074.074 0 0 0-.074-.073ZM44.906 12.865h-.356a.057.057 0 0 1-.057-.057c0-.032.026-.057.057-.057h.356c.032 0 .057.025.057.057a.057.057 0 0 1-.057.057ZM45.02 13.293h-.356a.057.057 0 1 1 0-.113h.356c.032 0 .057.025.057.056a.057.057 0 0 1-.057.057ZM45.1 13.773h-.357a.057.057 0 1 1 0-.114h.356c.032 0 .057.026.057.057a.057.057 0 0 1-.057.057Z" fill="#332418"/><path d="M28.368 9.7a1.796 1.796 0 1 0-2.54-2.54 1.796 1.796 0 0 0 2.54 2.54Z" fill="#BFAFA2"/><path d="M29.154 8.5a1.797 1.797 0 1 0-3.546-.579 1.797 1.797 0 0 0 3.546.579Z" fill="#9E8777"/><path d="M27.38 10.064a1.856 1.856 0 0 1-1.854-1.853c0-1.022.832-1.853 1.854-1.853 1.021 0 1.853.831 1.853 1.853a1.855 1.855 0 0 1-1.853 1.853Zm0-3.593c-.96 0-1.74.78-1.74 1.74s.78 1.74 1.74 1.74c.959 0 1.74-.78 1.74-1.74s-.781-1.74-1.74-1.74Z" fill="#6A5649"/><path d="M27.377 8.364a.514.514 0 1 1 0-1.028.514.514 0 0 1 0 1.028Zm0-.914a.4.4 0 1 0 0 .801.4.4 0 0 0 0-.8Z" fill="#fff"/><path d="M27.995 9.216h-1.237a.23.23 0 0 1-.23-.23.7.7 0 0 1 .7-.699h.379c.34 0 .618.277.618.618v.081a.23.23 0 0 1-.23.23Zm-.768-.815a.586.586 0 0 0-.585.585c0 .064.052.117.117.117h1.236a.117.117 0 0 0 .117-.117v-.08a.505.505 0 0 0-.505-.506h-.38Z" fill="#fff"/><path d="M29.53 8.428a.79.79 0 1 1-1.117-1.118.79.79 0 0 1 1.117 1.118Z" fill="#BFAFA2"/><path d="M28.971 8.716a.848.848 0 1 1 .599-1.445.84.84 0 0 1 .248.598.843.843 0 0 1-.847.847Zm0-1.58a.735.735 0 1 0 .519 1.252.73.73 0 0 0-.519-1.252Z" fill="#6A5649"/><path d="m29.234 8.153-.568-.568a.044.044 0 0 1 0-.062.044.044 0 0 1 .063 0l.567.567a.044.044 0 0 1-.062.063Z" fill="#fff"/><path d="M28.666 8.153a.044.044 0 0 1 0-.062l.568-.568a.044.044 0 0 1 .062 0 .044.044 0 0 1 0 .062l-.567.568a.045.045 0 0 1-.063 0Z" fill="#fff"/></g><path d="M24.756 19.983c-.276-.118-.585-.203-.79-.402a.823.823 0 0 1-.213-.345l-.07-1.896c-.07-1.932-1.563-3.488-3.477-3.774a1.694 1.694 0 1 0-2.529-1.392c.03.634.406 1.168.935 1.434-2.08.408-3.613 2.213-3.535 4.32l.062 1.711a.773.773 0 0 1-.082.104c-.197.208-.5.308-.772.438-1.214.585-1.82 1.971-1.364 3.119.045.112.104.227.216.293.105.061.238.07.364.074 1.812.073 3.626-.034 5.434-.141.388.003.776.007 1.163.012 1.868.024 3.74.052 5.603-.11.126-.01.258-.024.36-.09.11-.072.163-.19.202-.303.403-1.168-.267-2.524-1.507-3.052Z" fill="#332418"/><path d="M14.746 23.748c-.416 0-.832-.008-1.247-.024-.113-.005-.269-.011-.39-.083-.13-.075-.194-.204-.24-.32-.464-1.167.16-2.598 1.392-3.192l.187-.085c.208-.092.423-.188.567-.34a.697.697 0 0 0 .067-.082l-.062-1.694c-.076-2.064 1.36-3.868 3.433-4.345a1.755 1.755 0 0 1-.832-1.406 1.74 1.74 0 0 1 .453-1.262c.314-.346.745-.55 1.212-.572.467-.023.916.138 1.262.453.346.314.55.745.572 1.212a1.742 1.742 0 0 1-.757 1.526c1.898.352 3.309 1.929 3.377 3.803l.07 1.888a.761.761 0 0 0 .195.315c.152.146.37.231.583.314.064.025.128.05.191.077 1.258.535 1.948 1.936 1.539 3.122-.041.119-.1.25-.225.332-.119.077-.273.09-.386.1-1.825.158-3.687.135-5.487.111h-.121c-.388-.006-.776-.01-1.163-.013-1.37.081-2.777.165-4.19.165Zm4.626-13.293c-.026 0-.053 0-.08.002-.437.02-.84.21-1.134.534a1.627 1.627 0 0 0-.424 1.18c.029.59.375 1.12.904 1.386.021.01.034.034.03.058a.057.057 0 0 1-.045.048c-2.097.412-3.565 2.204-3.49 4.261l.063 1.713a.056.056 0 0 1-.01.033.872.872 0 0 1-.088.111c-.16.17-.386.27-.604.367-.062.027-.124.055-.184.084-1.179.567-1.778 1.934-1.335 3.046.039.099.092.207.191.265.09.053.206.062.338.067 1.825.073 3.657-.036 5.429-.142.391.003.78.008 1.167.013l.121.001c1.797.023 3.656.047 5.476-.11.13-.012.246-.026.334-.083.096-.063.145-.174.18-.273.39-1.132-.272-2.47-1.476-2.982-.062-.026-.125-.05-.188-.075-.223-.087-.453-.177-.62-.338a.882.882 0 0 1-.23-.384l-.07-1.896c-.068-1.869-1.51-3.433-3.429-3.72a.057.057 0 0 1-.02-.105 1.63 1.63 0 0 0 .828-1.503c-.02-.437-.21-.84-.534-1.133a1.629 1.629 0 0 0-1.1-.425Z" fill="#332418"/><path d="M17.459 27.256h4.223v-5.02h-4.223v5.02Z" fill="#E1C0B5"/><path d="M21.682 27.313h-4.223a.057.057 0 0 1-.057-.057v-5.02c0-.032.026-.057.057-.057h4.223c.032 0 .057.026.057.057v5.02a.057.057 0 0 1-.057.057Zm-4.166-.113h4.109v-4.907h-4.109V27.2Z" fill="#332418"/><path d="M20.08 23.518c-.571.358-1.78 1.06-2.621 1.15v-2.016a2.892 2.892 0 0 0 2.62.866ZM16.338 18.853h.042l.03 1.903c.001.11.009.219.022.325l-.06.001a1.114 1.114 0 1 1-.034-2.229Z" fill="#F9DACE"/><path d="M16.354 21.139a1.172 1.172 0 0 1-.017-2.343h.043c.017 0 .03.005.04.016.01.01.017.024.017.04l.03 1.903c.001.103.008.21.022.32a.056.056 0 0 1-.014.043.058.058 0 0 1-.042.02h-.079Zm-.03-2.229a1.059 1.059 0 0 0 .03 2.115h.015a3.142 3.142 0 0 1-.016-.268l-.028-1.847Z" fill="#332418"/><path d="m22.509 18.76.043-.001a1.114 1.114 0 1 1 .033 2.228l-.06.001c.01-.107.014-.215.012-.325l-.028-1.904Z" fill="#F9DACE"/><path d="M22.525 21.045a.057.057 0 0 1-.056-.062c.01-.11.014-.217.012-.32l-.029-1.903a.057.057 0 0 1 .056-.058h.043c.311-.007.608.112.833.33.225.218.35.51.356.823.005.313-.113.609-.33.833-.218.224-.51.35-.823.356h-.062Zm.041-2.23.028 1.847c.002.086-.001.177-.008.268.282-.005.545-.118.741-.321a1.05 1.05 0 0 0 .298-.753 1.05 1.05 0 0 0-.32-.743 1.05 1.05 0 0 0-.737-.298h-.002Z" fill="#332418"/><path d="M22.505 18.474c-1.693-.354-2.965-1.658-3.225-3.26l-.034.002c-.2 1.527-1.32 2.813-2.871 3.286l.005.31.029 1.882a3.005 3.005 0 0 0 .867 2.064 3.07 3.07 0 0 0 2.78.863 3.045 3.045 0 0 0 2.482-3.02l-.03-1.882-.003-.245Z" fill="#F9DACE"/><path d="M19.47 23.734c-.849 0-1.641-.331-2.235-.936a3.04 3.04 0 0 1-.883-2.103l-.034-2.192c0-.025.016-.047.04-.055 1.523-.464 2.634-1.736 2.831-3.24a.057.057 0 0 1 .053-.049l.036-.001c.027 0 .054.019.059.047.256 1.579 1.533 2.87 3.18 3.214a.057.057 0 0 1 .045.054l.032 2.127c.002.106-.002.216-.013.328-.124 1.36-1.158 2.49-2.514 2.749a3.155 3.155 0 0 1-.546.057h-.051Zm-3.038-5.19.033 2.149a2.93 2.93 0 0 0 .85 2.025 2.994 2.994 0 0 0 2.73.846c1.307-.249 2.303-1.338 2.423-2.647.01-.108.014-.214.012-.316l-.031-2.081c-1.594-.35-2.845-1.568-3.183-3.078-.275 1.438-1.364 2.638-2.834 3.102ZM23.08 20.171a.056.056 0 0 1-.035-.012l-.218-.176a.095.095 0 0 1 .003-.15l.242-.18a.057.057 0 0 1 .068.092l-.223.165.2.16a.057.057 0 0 1-.036.101ZM15.816 20.282a.056.056 0 0 1-.043-.02.056.056 0 0 1 .006-.08l.194-.166-.227-.158a.057.057 0 0 1 .065-.093l.247.171c.024.017.04.044.04.073a.096.096 0 0 1-.032.077l-.213.182a.056.056 0 0 1-.037.014Z" fill="#332418"/><path d="M18.537 19.58a.261.261 0 1 1-.522.008.261.261 0 0 1 .522-.008Z" fill="#332418"/><path d="M18.452 19.878s-.181-.13-.403.006Z" fill="#FAF9F7"/><path d="M18.049 19.94a.057.057 0 0 1-.03-.104c.251-.155.458-.01.467-.004a.057.057 0 0 1-.066.092.314.314 0 0 0-.341.009.057.057 0 0 1-.03.008ZM21.3 19.555a.261.261 0 1 1-.522.008.261.261 0 0 1 .522-.008Z" fill="#332418"/><path d="M21.277 19.835s-.182-.13-.404.006Z" fill="#FAF9F7"/><path d="M20.873 19.898a.057.057 0 0 1-.03-.105.427.427 0 0 1 .467-.005.057.057 0 0 1-.066.093.315.315 0 0 0-.341.008.052.052 0 0 1-.03.009ZM18.02 18.43c.075.006.15.056.225.1a4.401 4.401 0 0 0 .446.238c.078.039.161.074.208.133.044.055.03.138-.085.188-.11.05-.328.05-.552-.069-.224-.12-.341-.301-.358-.419-.02-.122.044-.178.116-.172ZM21.152 18.372c-.074.013-.145.069-.217.118a4.317 4.317 0 0 1-.425.272c-.075.045-.156.087-.197.148-.04.06-.02.141.099.182.113.04.33.024.545-.112.213-.138.316-.328.324-.446.01-.122-.057-.174-.129-.162ZM19.274 21.25a.057.057 0 0 1-.052-.033c-.098-.22-.228-.355-.386-.402-.22-.067-.427.06-.43.062a.056.056 0 0 1-.078-.018.057.057 0 0 1 .018-.078.686.686 0 0 1 .521-.076c.192.058.346.214.459.466a.057.057 0 0 1-.052.08ZM19.454 20.368a.057.057 0 0 1-.003-.114l.227-.013a.567.567 0 0 0 .538-.601.137.137 0 0 0-.145-.13.442.442 0 0 1-.469-.419l-.031-.56a.056.056 0 0 1 .053-.06.057.057 0 0 1 .06.053l.032.56a.33.33 0 0 0 .349.313.252.252 0 0 1 .264.236c.021.376-.268.7-.644.72l-.227.014h-.004Z" fill="#332418"/><path d="M22.722 20.827a.27.27 0 1 0 .54-.009.27.27 0 0 0-.54.009Z" fill="#fff"/><path d="M22.992 21.15a.328.328 0 0 1-.005-.654c.18-.001.33.141.332.322a.325.325 0 0 1-.322.332h-.005Zm0-.541h-.003a.214.214 0 1 0 .003 0Z" fill="#332418"/><path d="M15.645 20.935a.27.27 0 1 0 .54-.009.27.27 0 0 0-.54.009Z" fill="#fff"/><path d="M15.915 21.258a.326.326 0 0 1-.327-.322.327.327 0 1 1 .332.322h-.005Zm0-.541h-.003a.214.214 0 1 0 .003 0Z" fill="#332418"/><path d="M14.813 16.739a.085.085 0 0 1-.014-.17.581.581 0 0 0 .475-.676.586.586 0 0 0-.677-.475.085.085 0 0 1-.03-.168.757.757 0 0 1 .749 1.177.75.75 0 0 1-.503.312ZM16.462 15.617a.75.75 0 0 1-.693-.459.75.75 0 0 1-.006-.577.085.085 0 0 1 .11-.048.085.085 0 0 1 .048.111.58.58 0 0 0 .324.76c.3.12.64-.025.76-.324a.085.085 0 1 1 .158.064.755.755 0 0 1-.7.473ZM17.267 17.328h-.01a.756.756 0 0 1 .165-1.501.085.085 0 0 1-.018.169.585.585 0 0 0-.128 1.162c.047.005.08.047.076.094a.086.086 0 0 1-.085.076ZM16.26 17.673a.085.085 0 0 1-.079-.117.48.48 0 0 0-.267-.628.48.48 0 0 0-.628.268.085.085 0 1 1-.158-.063.65.65 0 0 1 .85-.362.654.654 0 0 1 .362.849.087.087 0 0 1-.08.053Z" fill="#6A5649"/><path d="m26.077 42.948-.78-1.322-.745-1.263-.534-.906-5.25-.027-5.339.027-.534.906-.745 1.263-.78 1.322a14.684 14.684 0 0 0-1.807 4.982h18.321a14.676 14.676 0 0 0-1.807-4.982Z" fill="#6C5B50"/><path d="M27.884 48H9.562a.053.053 0 0 1-.044-.026.08.08 0 0 1-.012-.058c.308-1.802.92-3.488 1.817-5.009l2.06-3.491a.055.055 0 0 1 .046-.029l5.338-.027 5.25.027c.02 0 .037.01.047.029l2.06 3.491a14.683 14.683 0 0 1 1.817 5.009c.003.02-.001.042-.012.058a.055.055 0 0 1-.045.026Zm-18.25-.14h18.18a14.512 14.512 0 0 0-1.783-4.872l-2.043-3.462-5.22-.027-5.309.027-2.043 3.462a14.504 14.504 0 0 0-1.783 4.873Z" fill="#6C5B50"/><path d="M25.137 42.154H12.425c-.031 0-.057-.03-.057-.07 0-.037.026-.069.057-.069h12.712c.032 0 .057.032.057.07 0 .038-.025.07-.057.07Z" fill="#A18D81"/><path d="M18.325 45.082c-.032 0-.057-.031-.057-.07v-2.927c0-.038.025-.07.057-.07s.057.032.057.07v2.927c0 .039-.026.07-.057.07ZM19.582 45.082c-.032 0-.058-.031-.058-.07v-2.927c0-.038.026-.07.058-.07.031 0 .057.032.057.07v2.927c0 .039-.026.07-.057.07ZM11.991 45.119c-.024 0-.047-.02-.055-.049-.01-.036.008-.075.038-.087 1.964-.757 1.614-2.863 1.61-2.884-.006-.038.014-.075.045-.083.03-.007.062.016.068.054.004.022.374 2.25-1.689 3.045a.04.04 0 0 1-.017.004ZM25.091 45.119c-.005 0-.011-.001-.017-.004-2.062-.794-1.692-3.023-1.688-3.045.006-.037.037-.062.068-.053.03.008.05.045.044.082-.015.087-.35 2.129 1.61 2.884.03.012.047.05.038.088-.008.029-.03.048-.055.048Z" fill="#A18D81"/><path d="m12.698 34.992-.597-1.09-3.456-3.109 2.013-3.992c.724-1.436 2.099-2.37 3.627-2.49a4.25 4.25 0 0 1 .335-.014h2.272l2.42 1.876 2.555-1.876h1.764c.112 0 .224.006.335.014 1.22.096 2.543.775 3.412 1.653.525.53 3.2 3.681 3.2 3.681l-4.885 5.224-1.169 5.444s-11.35.142-11.51.028c-.319-.225-.316-5.35-.316-5.35Z" fill="#5D463B"/><path d="M15.619 40.442c-1.501 0-2.582-.014-2.638-.053-.325-.23-.34-4.489-.34-5.382l-.585-1.069-3.45-3.102a.057.057 0 0 1-.012-.067l2.013-3.993c.734-1.455 2.107-2.397 3.673-2.52.122-.01.233-.015.34-.015h2.272c.012 0 .024.004.034.012l2.387 1.85 2.52-1.851a.057.057 0 0 1 .034-.011h1.764c.107 0 .218.004.34.014 1.181.093 2.535.748 3.448 1.67.52.525 3.176 3.653 3.202 3.684a.057.057 0 0 1-.002.076l-4.874 5.212-1.166 5.428a.057.057 0 0 1-.055.045c-1.743.022-6.072.072-8.905.072ZM8.715 30.78l3.424 3.08.012.015.597 1.09a.058.058 0 0 1 .007.027c-.002 2.466.1 5.163.292 5.304.266.08 8.297 0 11.431-.04l1.16-5.398a.056.056 0 0 1 .014-.027l4.85-5.187c-.307-.362-2.678-3.15-3.164-3.64-.895-.903-2.22-1.545-3.376-1.636a4.206 4.206 0 0 0-.33-.014h-1.746l-2.54 1.865a.057.057 0 0 1-.068-.001l-2.405-1.864H14.62c-.105 0-.213.005-.331.014-1.526.12-2.865 1.04-3.581 2.459L8.715 30.78Z" fill="#5D463B"/><path d="m18.373 27.044-3.015-2.747 1.614-.016 2.34 1.813 2.534-1.86 1.482-.015-3.024 2.815a1.425 1.425 0 0 1-1.93.01Z" fill="#FEF6F8"/><path d="M19.333 27.47c-.359 0-.717-.128-.998-.384l-3.015-2.748a.056.056 0 0 1-.014-.062.057.057 0 0 1 .052-.036l1.613-.016c.01-.003.026.004.035.012l2.307 1.786 2.5-1.835a.056.056 0 0 1 .032-.011l1.482-.015c.022-.004.044.014.053.036a.056.056 0 0 1-.014.063l-3.024 2.816a1.479 1.479 0 0 1-1.01.393Zm-.922-.468a1.375 1.375 0 0 0 1.854-.01l2.917-2.715-1.317.013-2.52 1.85a.057.057 0 0 1-.068-.001l-2.324-1.801-1.45.014 2.908 2.65Z" fill="#332418"/><path d="M12.654 34.845c-.005 0-.01 0-.014-.002a.057.057 0 0 1-.042-.068l.832-3.395a.058.058 0 0 1 .068-.041c.03.007.05.038.042.068l-.832 3.394a.056.056 0 0 1-.054.044Z" fill="#504139"/><path d="M6.238 26.703c.162 1.4.506 8.655 1.322 10.534.14.325.307.637.504.926.612.9 1.554 1.58 2.569 1.629 2.655.127 3.252-3.161 2.426-5.335l-2.506-8.43" fill="#F9DACE"/><path d="M10.78 39.852c-.05 0-.1-.001-.15-.004-.964-.046-1.941-.664-2.613-1.652a5.699 5.699 0 0 1-.51-.936c-.634-1.462-.978-6.076-1.184-8.832a55.477 55.477 0 0 0-.141-1.718.057.057 0 1 1 .112-.013c.037.318.084.938.142 1.723.205 2.749.548 7.35 1.175 8.795.146.335.314.644.5.917.651.96 1.595 1.558 2.524 1.603.857.041 1.562-.286 2.042-.946.748-1.03.886-2.844.329-4.312l-2.508-8.433a.057.057 0 1 1 .109-.032l2.506 8.429c.569 1.497.425 3.355-.344 4.415-.475.653-1.16.996-1.99.996Z" fill="#E1C0B5"/><path d="m6.63 27.224-1.158-1.869-1.724-.453a2.155 2.155 0 0 1-.886-.47l-1.125-.997c-.108-.095-.077-.27.06-.341.352-.18.768-.152 1.061.073l.906.695.875-.222-.933-.884a.797.797 0 0 1-.192-.283l-.338-1.089c-.086-.276.093-.579.392-.666.255-.075.392.09.496.314l.549 1.023 1.6 1.278-.723-1.019a1.948 1.948 0 0 1-.357-1.073l-.028-.927c-.008-.264.24-.484.513-.457.303.03.534.252.564.541l.112 1.09 1.508 1.667.19-2.098a.377.377 0 0 1 .471-.318.73.73 0 0 1 .55.705l.004 1.861.48.326a2.605 2.605 0 0 1 1.084 2.739l-.201.933" fill="#F9DACE"/><path d="M10.38 27.36c-.005 0-.009 0-.013-.002a.057.057 0 0 1-.044-.067l.201-.934c.228-1.055-.179-2.082-1.06-2.68l-.48-.325a.056.056 0 0 1-.025-.047l-.004-1.861a.676.676 0 0 0-.508-.651.318.318 0 0 0-.267.048.305.305 0 0 0-.133.22l-.19 2.098a.057.057 0 0 1-.099.033l-1.507-1.665a.056.056 0 0 1-.015-.033l-.111-1.09a.556.556 0 0 0-.513-.491.418.418 0 0 0-.326.112.38.38 0 0 0-.124.286l.027.927c.011.378.131.738.347 1.042l.722 1.02a.057.057 0 0 1-.007.074.056.056 0 0 1-.075.003l-1.6-1.278a.055.055 0 0 1-.014-.018l-.549-1.023c-.12-.259-.245-.341-.43-.287a.527.527 0 0 0-.317.254.44.44 0 0 0-.037.342l.338 1.088a.727.727 0 0 0 .177.258l.933.885c.015.014.021.035.016.055a.058.058 0 0 1-.04.041l-.876.222a.056.056 0 0 1-.048-.01l-.906-.695c-.276-.212-.668-.238-1-.068a.17.17 0 0 0-.094.128c-.006.047.01.09.044.12l1.126.998c.241.214.54.372.862.457l1.724.453a.055.055 0 0 1 .034.025l1.158 1.868a.057.057 0 0 1-.096.06l-1.146-1.848-1.702-.448a2.228 2.228 0 0 1-.91-.481l-1.125-.998a.246.246 0 0 1-.082-.219.285.285 0 0 1 .155-.215c.37-.191.81-.16 1.12.078l.885.678.748-.19-.858-.814a.844.844 0 0 1-.206-.303L3.12 21.4a.556.556 0 0 1 .046-.429c.08-.148.22-.26.385-.309.318-.093.474.152.564.345l.54 1.01 1.277 1.02-.49-.69a2.008 2.008 0 0 1-.367-1.105l-.027-.927a.495.495 0 0 1 .16-.373.53.53 0 0 1 .415-.142c.33.032.582.276.614.592l.11 1.072 1.408 1.556.178-1.969a.418.418 0 0 1 .182-.304.432.432 0 0 1 .362-.064c.352.098.59.403.59.76l.005 1.831.456.31a2.679 2.679 0 0 1 1.107 2.797l-.2.933a.057.057 0 0 1-.056.047Z" fill="#E1C0B5"/><path d="M5.263 24.276a.058.058 0 0 1-.04-.015l-.625-.599a.056.056 0 0 1-.002-.08.057.057 0 0 1 .08-.002l.626.6a.056.056 0 0 1-.039.096Z" fill="#E1C0B5"/><path d="m19.348 24.82.322-1.218.524.718.97-3.492.95 3.22.932-1.494.29 1.572.7-.931.195 2.03a2.484 2.484 0 0 1-3.856 2.3l-.01-.007a2.484 2.484 0 0 1-1.017-2.698Z" fill="#917A69"/><path d="M21.759 28.003c-.493 0-.987-.143-1.415-.431l-.011-.008a2.54 2.54 0 0 1-1.04-2.76l.322-1.217a.057.057 0 0 1 .1-.02l.456.624.939-3.379a.056.056 0 0 1 .054-.041c.026 0 .047.016.054.04l.916 3.1.864-1.387a.057.057 0 0 1 .104.02l.268 1.443.62-.827a.056.056 0 0 1 .061-.02c.023.005.04.025.041.049l.196 2.03a2.539 2.539 0 0 1-2.53 2.785Zm-2.357-3.169c-.265 1 .134 2.06.994 2.637l.011.007a2.427 2.427 0 0 0 2.813-.077 2.442 2.442 0 0 0 .954-2.171l-.181-1.884-.61.814a.057.057 0 0 1-.06.021.057.057 0 0 1-.042-.044l-.264-1.428-.854 1.37a.059.059 0 0 1-.056.026.057.057 0 0 1-.047-.04l-.894-3.03-.917 3.3a.057.057 0 0 1-.1.018l-.454-.621-.293 1.102Z" fill="#6A5649"/><path d="m19.729 25.713.25-.87.406.513.752-2.494.738 2.3.722-1.067.226 1.122.542-.665.152 1.45c.064.614-.223 1.215-.758 1.587a2.062 2.062 0 0 1-2.234.056l-.008-.005c-.682-.421-1-1.195-.788-1.927Z" fill="#7E6C5E"/><path d="M21.6 28.003a2.1 2.1 0 0 1-1.104-.31c-.713-.44-1.04-1.24-.822-1.996l.25-.87a.057.057 0 0 1 .1-.02l.338.429.722-2.39a.057.057 0 0 1 .053-.041c.023-.004.047.015.055.04l.702 2.189.657-.97a.057.057 0 0 1 .058-.024c.023.004.04.022.045.044l.202 1.005.466-.572a.057.057 0 0 1 .06-.02.057.057 0 0 1 .04.05l.152 1.449c.066.63-.234 1.259-.782 1.64a2.093 2.093 0 0 1-1.193.367Zm-1.597-3.038-.22.764c-.203.707.104 1.455.764 1.863a2.01 2.01 0 0 0 2.18-.05c.514-.357.796-.945.733-1.534l-.137-1.314-.456.56a.057.057 0 0 1-.058.018.056.056 0 0 1-.041-.043l-.2-.99-.646.954a.057.057 0 0 1-.055.025.056.056 0 0 1-.046-.039l-.682-2.127-.7 2.32a.056.056 0 0 1-.043.04.057.057 0 0 1-.056-.021l-.337-.426Z" fill="#6A5649"/><path d="m24.013 32.53-4.068-.03c-.106 0-.23-.115-.23-.221l.014-6.605c0-.106.21-.266.317-.266l3.829.034c.107 0 .25.109.25.215l.081 6.679a.194.194 0 0 1-.193.194Z" fill="#CFBFB3"/><path d="M23.713 32.587h-3.551a.55.55 0 0 1-.55-.55v-6.135a.55.55 0 0 1 .55-.55h3.551a.55.55 0 0 1 .55.55v6.134a.55.55 0 0 1-.55.55Zm-3.57-7.123a.419.419 0 0 0-.418.42v6.152c0 .241.195.437.437.437h3.551a.437.437 0 0 0 .437-.437v-6.134a.437.437 0 0 0-.437-.437h-3.57Z" fill="#332418"/><path d="M21.346 26.504h-.895a.284.284 0 0 1-.283-.284v-.058c0-.156.127-.283.284-.283h.894c.157 0 .284.127.284.283v.058a.284.284 0 0 1-.284.284Zm-.895-.512a.17.17 0 0 0-.17.17v.058c0 .094.077.17.17.17h.895a.17.17 0 0 0 .17-.17v-.058a.17.17 0 0 0-.17-.17h-.895Z" fill="#fff"/><path d="m21.702 26.936 2.6.279-.08-1.089c-.04-.25.025-.472.24-.606a.742.742 0 0 1 1.083.358l1.35 3.782c.42 1.179.54 3.384-.693 3.603l-1.792.89s-.638-1.516-1.083-1.525c-.243-.004-.536-.128-.769-.195a4.69 4.69 0 0 1-.885-.337 1.07 1.07 0 0 1-.318-.229c-.286-.326-.035-.861.412-.788l.666.11c-.48-.12-.91-.244-1.208-.334a.51.51 0 0 1-.356-.566.479.479 0 0 1 .529-.404l1.465.172c-.91-.156-1.506-.337-1.856-.468a.546.546 0 0 1-.348-.59l.008-.058c.042-.292.319-.605.611-.563l.185.012a.735.735 0 0 1-.6-.828.739.739 0 0 1 .839-.626Z" fill="#F9DACE"/><path d="M24.41 34.212a.057.057 0 0 1-.052-.035c-.174-.413-.697-1.485-1.032-1.49-.185-.004-.398-.074-.586-.136a5.55 5.55 0 0 0-.197-.062 4.732 4.732 0 0 1-.896-.342 1.13 1.13 0 0 1-.335-.242.542.542 0 0 1-.066-.626.498.498 0 0 1 .352-.255c-.15-.043-.28-.082-.389-.115a.564.564 0 0 1-.396-.628.533.533 0 0 1 .592-.452l.278.032c-.3-.08-.529-.156-.696-.218a.6.6 0 0 1-.384-.651l.008-.058c.04-.275.27-.562.54-.61a.79.79 0 0 1-.343-.77.79.79 0 0 1 .311-.524.79.79 0 0 1 .59-.15l2.532.272-.075-1.02c-.047-.292.045-.522.267-.66a.797.797 0 0 1 1.165.386l1.35 3.784c.337.944.453 2.365.005 3.137-.174.3-.421.482-.733.54l-1.785.887a.067.067 0 0 1-.025.006Zm-2.724-3.082a.38.38 0 0 0-.34.204.43.43 0 0 0 .051.497c.084.096.2.163.302.216.244.126.522.232.875.333a5.4 5.4 0 0 1 .201.064c.18.059.384.126.553.13.434.007.978 1.2 1.11 1.504l1.74-.864a.065.065 0 0 1 .015-.005c.281-.05.504-.214.662-.486.416-.716.32-2.11-.013-3.043l-1.35-3.781a.683.683 0 0 0-.999-.33c-.226.141-.241.377-.214.55l.08 1.093a.055.055 0 0 1-.017.044.056.056 0 0 1-.045.016l-2.6-.28h-.003a.677.677 0 0 0-.507.129.677.677 0 0 0-.266.45c-.052.364.19.7.553.764.03.005.05.033.046.062a.057.057 0 0 1-.06.05l-.185-.012c-.123-.017-.247.033-.356.14a.686.686 0 0 0-.195.375l-.009.058a.487.487 0 0 0 .312.529c.335.125.928.308 1.845.464.03.006.051.034.047.064a.058.058 0 0 1-.063.049l-1.464-.172a.42.42 0 0 0-.467.356c-.034.226.1.437.317.503.278.085.713.212 1.205.334a.057.057 0 0 1-.023.11l-.666-.109a.407.407 0 0 0-.072-.006Z" fill="#E1C0B5"/><path d="m23.654 28.818-.01-.001-2.347-.404a.057.057 0 0 1-.046-.065.057.057 0 0 1 .065-.046l2.347.403a.057.057 0 0 1-.01.113ZM23.402 30.21h-.01l-1.781-.328a.057.057 0 1 1 .02-.111l1.782.327a.057.057 0 0 1-.011.112ZM23.107 31.394c-.004 0-.008 0-.012-.002l-1.371-.297a.057.057 0 1 1 .024-.111l1.37.297a.057.057 0 0 1-.011.113ZM24.906 27.387h-.009l-1.03-.165a.057.057 0 0 1 .018-.112l1.03.164a.057.057 0 0 1-.009.113Z" fill="#E1C0B5"/><path d="m23.48 32.61 1.766 3.834c1.308 2.842 5.245 3.104 6.918.461.602-.95.645-2.149.114-3.14l-2.01-3.75-2.042 2.042-1.524-2.938" fill="#F9DACE"/><path d="M28.845 38.798c-.093 0-.186-.003-.28-.01a3.95 3.95 0 0 1-3.37-2.32l-1.766-3.835a.056.056 0 0 1 .028-.075.056.056 0 0 1 .075.028l1.766 3.835a3.837 3.837 0 0 0 3.274 2.255 3.835 3.835 0 0 0 3.545-1.8c.59-.931.632-2.112.112-3.083l-1.974-3.683-1.988 1.988a.057.057 0 0 1-.09-.014l-1.525-2.939a.057.057 0 1 1 .101-.052l1.489 2.87 1.987-1.987a.057.057 0 0 1 .09.013l2.01 3.75a3.178 3.178 0 0 1-.115 3.198 3.945 3.945 0 0 1-3.37 1.861Z" fill="#E1C0B5"/><path d="M29.267 33.895a.057.057 0 0 1-.05-.029l-1.229-2.128a.057.057 0 1 1 .098-.056l1.23 2.128a.057.057 0 0 1-.05.085ZM17.645 18.016c.311.19.578.251.923.13.301-.104.624-.383.942-.395.126-.005.27.066.35-.05a.212.212 0 0 0 .034-.108c.007-.104-.042-.32-.096-.478-.082-.245-.114-.293-.262-.498a.129.129 0 0 0-.195-.016c-.24.239-.484.567-.715.785-.329.313-.621.59-.982.63Z" fill="#E1C0B5"/></g></g><defs><clipPath id="a"><rect width="48" height="48" rx="24" fill="#fff"/></clipPath><clipPath id="b"><path fill="#fff" d="M0 0h48v48H0z"/></clipPath></defs></svg>