<svg xmlns="http://www.w3.org/2000/svg" width="48" height="48" fill="none"><g clip-path="url(#a)"><rect width="48" height="48" fill="#fff" rx="24"/><g clip-path="url(#b)"><path fill="#FADC9D" d="M35.807 29.977c4.101 0 7.426-3.022 7.426-6.75s-3.325-6.75-7.426-6.75-7.426 3.022-7.426 6.75 3.325 6.75 7.426 6.75ZM10.102 48.59c4.101 0 7.426-3.022 7.426-6.75s-3.325-6.75-7.426-6.75-7.426 3.022-7.426 6.75S6 48.59 10.102 48.59Z" opacity=".29"/><g fill="#FADC9D" opacity=".29"><path d="M43.344 45.29c-.047 0-.084-.033-.084-.076v-3.442c0-.043.038-.077.084-.077.047 0 .085.034.085.077v3.442c0 .043-.038.077-.085.077Z"/><path d="M42.005 44.786a.087.087 0 0 1-.06-.022.072.072 0 0 1 0-.109l2.679-2.434a.09.09 0 0 1 .119 0 .072.072 0 0 1 0 .108l-2.678 2.435a.086.086 0 0 1-.06.022Z"/><path d="M45.24 43.569h-3.788c-.047 0-.085-.034-.085-.077 0-.042.038-.076.085-.076h3.787c.047 0 .085.034.085.077 0 .042-.038.076-.085.076Z"/><path d="M44.683 44.786a.087.087 0 0 1-.06-.022l-2.677-2.435a.072.072 0 0 1 0-.108.09.09 0 0 1 .119 0l2.678 2.434a.072.072 0 0 1 0 .109.086.086 0 0 1-.06.022Z"/></g><g fill="#FADC9D" opacity=".29"><path d="M43.855 26.528c-.02 0-.039-.016-.039-.036v-1.589c0-.02.018-.035.04-.035.02 0 .039.016.039.035v1.589c0 .02-.018.036-.04.036Z"/><path d="M43.238 26.295a.042.042 0 0 1-.027-.01.033.033 0 0 1 0-.05l1.236-1.124a.042.042 0 0 1 .055 0 .033.033 0 0 1 0 .05l-1.236 1.124a.044.044 0 0 1-.028.01Z"/><path d="M44.73 25.733h-1.747c-.022 0-.04-.016-.04-.036 0-.02.018-.035.04-.035h1.748c.02 0 .039.016.039.035 0 .02-.018.036-.04.036Z"/><path d="M44.474 26.295a.042.042 0 0 1-.027-.01L43.21 25.16a.033.033 0 0 1 0-.05.041.041 0 0 1 .055 0l1.236 1.123a.033.033 0 0 1 0 .05.042.042 0 0 1-.028.01Z"/></g><path fill="#FADC9D" d="M8.774 30.28a.805.805 0 1 0 0-1.61.805.805 0 0 0 0 1.61Zm22.714-17.274a.805.805 0 1 0 0-1.61.805.805 0 0 0 0 1.61ZM42.27 36.833a.805.805 0 1 0 0-1.61.805.805 0 0 0 0 1.61Z" opacity=".29"/><path d="M27.695 42.076a.143.143 0 1 1 .012.286.143.143 0 0 1-.012-.286Zm7.972.306a.233.233 0 1 0 0-.467.233.233 0 0 0 0 .467Zm.537-28.142-.272.99.281.059.478-.766-.487-.284ZM31.77 8.106l.924.453.11-.265-.664-.613-.37.425Zm4.35 14.447 1.004.225.044-.283-.787-.44-.26.498Zm.997-14.725.696-.016.074-.172-.508-.14-.262.328ZM34.673.663l.507.894.24-.158-.203-.879-.544.143ZM29.35 3.54a.143.143 0 1 0 .197-.21.143.143 0 0 0-.196.21Zm3.216 42.28a.144.144 0 1 0-.011-.287.144.144 0 0 0 .011.287ZM27.47 8.044l.986.294.064-.28-.755-.494-.294.48Zm4.55 32.721.845-.587-.179-.225-.857.283.192.529Zm-13.586-5.65.923.453.109-.265-.663-.613-.37.425Zm18.722 2.067 1.004.225.044-.284-.788-.44-.26.5Zm-.896-6.956.696-.016.073-.172-.507-.14-.262.328ZM23.107 24.2l.508.894.24-.158-.203-.879-.545.143Zm.218-20.965a.143.143 0 1 0 .196-.209.143.143 0 0 0-.196.21Zm-.555 28.431 1.01.19.035-.285-.803-.413-.242.508Zm16.366-19.59a.144.144 0 1 0-.011-.287.144.144 0 0 0 .011.287Zm1.454 8.137a.144.144 0 1 1 .01.287.144.144 0 0 1-.01-.287Zm4.272 2.359a.233.233 0 1 1 .018.465.233.233 0 0 1-.018-.465Zm-4.673 2.99.69-.762-.225-.178-.771.467.306.473Zm1.517-7.968 1.004.225.044-.284-.787-.44-.26.499Zm-.763 12.214.418.712-.207.104-.529-.495.318-.321Zm4.584 14.852a.144.144 0 1 0-.011-.287.144.144 0 0 0 .01.287Zm-33.08-17.058 1.167.261.051-.33-.915-.511-.303.58Zm7.903-.973a.233.233 0 1 0 0-.467.233.233 0 0 0 0 .467Zm-1.722 3.838a.144.144 0 1 0-.01-.287.144.144 0 0 0 .01.287Zm-1.256-6.937.845-.586-.179-.225-.857.282.191.53Zm-.93 17.53a.143.143 0 1 0-.011-.287.143.143 0 0 0 .011.287ZM5.457 30.939a.233.233 0 1 0-.019-.467.233.233 0 0 0 .019.466Zm7.263 10.194 1.004.225.045-.284-.788-.44-.26.499Zm-6.415-5.547a.144.144 0 1 0-.011-.287.144.144 0 0 0 .011.287Zm-1.942-1.27.844-.587-.179-.225-.857.282.192.53Zm10.453-2.519 1.004.225.044-.284-.787-.44-.26.5ZM9.28 22.535l.696-.016.074-.172-.508-.14-.262.328ZM8.906.348a.143.143 0 1 1 .011.286.143.143 0 0 1-.01-.286Zm1.464 8.423a.144.144 0 1 1 .01.287.144.144 0 0 1-.01-.287Zm-.401 5.349.691-.762-.225-.179-.772.468.306.473Zm.754 4.246.417.712-.206.103-.529-.494.319-.321Z" fill="#F9D789" opacity=".38"/><g fill="#D2B670" opacity=".37"><path d="M18.962 12.666c-.043 0-.077-.031-.077-.07V9.418c0-.04.034-.07.077-.07.044 0 .078.03.078.07v3.178c0 .039-.034.07-.078.07Z"/><path d="M17.727 12.2a.082.082 0 0 1-.055-.02.067.067 0 0 1 0-.1l2.472-2.247a.084.084 0 0 1 .11 0c.03.027.03.072 0 .1l-2.472 2.247a.082.082 0 0 1-.055.02Z"/><path d="M20.71 11.077h-3.495c-.044 0-.078-.031-.078-.07 0-.04.034-.071.078-.071h3.495c.044 0 .078.032.078.07 0 .04-.034.071-.078.071Z"/><path d="M20.2 12.2a.082.082 0 0 1-.056-.02l-2.472-2.247a.067.067 0 0 1 0-.1.084.084 0 0 1 .11 0l2.472 2.247c.03.028.03.072 0 .1a.084.084 0 0 1-.055.02Z"/></g><path fill="#D0B764" d="M45.457 57.003c-.75-3.103-9.254-10.02-9.913-10.63a.594.594 0 0 1-.034-.034c-.171-.204-1.054-1.523-1.565-2.29-.644-.029-1.372-.267-2.018-.248-1.177.035-2.266.327-3.423.561-.137.028-.274.058-.41.09.328 1.73.436 2.287 1.004 3.957.028.079.063.163.104.252.228.496.547.946.93 1.335 1.858 1.88 8.638 8.579 11.583 9.19 2.891.598 4.372.419 3.742-2.183Zm-18.869-7.681c.176-.287.338-.582.48-.888.132-.282.273-.576.36-.821.45-1.26.526-1.791.615-3.136-.585.075-1.169.17-1.748.264a137.4 137.4 0 0 0-3.56.643c-.669.13-1.34-.301-1.99-.104.03.895-.693 1.97-.774 2.146a.884.884 0 0 1-.067.103c-.77 1.1-7.678 9.908-8.002 13.014-.129 1.225-.02 2.034.335 2.49l.005.006.018.022.018.023c.606.695 1.858.467 3.8-.424.404-.186.873-.536 1.384-1.005a16.165 16.165 0 0 0 .99-.997 11.853 11.853 0 0 0 .188-.207c3.434-3.803 7.804-10.87 7.804-10.87s.048-.102.144-.26Z"/><path fill="#F8DF88" d="m27.168 24.346.19.146a12.067 12.067 0 0 0 .477.34c.209.144.419.277.63.408a18.301 18.301 0 0 0 4.032 1.838l.358.107c.118.037.239.07.36.102.12.032.24.066.362.095l.366.086a16.39 16.39 0 0 0 3.005.39c.51.01 1.022.012 1.534-.027.128-.01.256-.017.384-.028l.383-.042.192-.022.048-.005.058-.01.063-.01a4.33 4.33 0 0 0 .25-.05 3.4 3.4 0 0 0 .97-.416c.074-.045.14-.094.209-.144l.1-.076a4.88 4.88 0 0 0 .265-.236 4.57 4.57 0 0 0 .152-.16c.024-.027.051-.056.072-.082l.064-.08a4.316 4.316 0 0 0 .229-.317c.017-.026.035-.053.05-.079l.045-.075c.234-.405.366-.767.466-1.099.098-.331.16-.635.205-.925.045-.29.073-.567.093-.835.037-.536.037-1.04.02-1.534a21.405 21.405 0 0 0-.105-1.443c-.05-.472-.115-.936-.186-1.396a32.06 32.06 0 0 0-.399-2.045l-.082-.34-.043-.171-.19-.733-3.828.666.182 1.248c.022.207.041.414.059.62.04.415.071.83.1 1.24a29.597 29.597 0 0 1 .072 2.406c-.008.383-.027.756-.066 1.094a5.716 5.716 0 0 1-.07.47c-.029.142-.06.267-.09.354-.03.088-.06.136-.049.108l.003-.004.005-.01a.098.098 0 0 1 .014-.02c.006-.008.014-.021.022-.03a.144.144 0 0 1 .014-.016c.004-.004.01-.014.017-.02a.382.382 0 0 1 .04-.042.632.632 0 0 1 .051-.05l.029-.023c.01-.01.022-.019.034-.028.023-.018.047-.032.073-.05a1.17 1.17 0 0 1 .368-.157.63.63 0 0 1 .09-.02l.022-.004.012-.001h.005c.003-.001.003 0 0 0l-.033.003-.136.014-.27.028c-.09.007-.182.011-.272.018a13.28 13.28 0 0 1-1.094.018c-.367-.018-.735-.036-1.103-.084-.184-.019-.369-.05-.553-.075-.092-.012-.184-.032-.276-.048-.092-.017-.185-.03-.276-.052a15.41 15.41 0 0 1-1.103-.26c-.182-.055-.365-.105-.546-.166-.182-.055-.364-.118-.545-.18a18.029 18.029 0 0 1-2.617-1.176l-.12-.067a6.729 6.729 0 0 1-.118-.067l-.112-.066-.05-.029-.02-.012-.01-.005c-.003-.002 0 0 0 0l.002.003-2.484 3.34Z"/><path fill="#DCC273" d="M39.286 17.567a.271.271 0 1 0 .475-.261.271.271 0 0 0-.475.261Z"/><path fill="#DCC273" d="M42.106 17.318c-.766.971-1.748 1.117-2.46 1.058a4.036 4.036 0 0 1-1.466-.417.116.116 0 0 1-.046-.156.116.116 0 0 1 .157-.047c.006.003.613.33 1.382.39 1.016.081 1.824-.315 2.403-1.178a.116.116 0 0 1 .192.129 3.964 3.964 0 0 1-.162.221Z"/><path fill="#DCC273" d="M41.062 18.05a.116.116 0 0 1-.206-.083c.072-.715-.23-1.415-.234-1.421a.116.116 0 0 1 .212-.093c.013.03.33.76.253 1.536a.118.118 0 0 1-.025.06Zm-1.186 6.51a.116.116 0 0 0 .013-.211c-.764-.402-1.507-1.113-1.514-1.12a.116.116 0 0 0-.16.166c.03.03.774.741 1.566 1.16.03.016.065.017.095.006Z"/><path fill="#DCC273" d="m38.755 24.553.003-.001a.115.115 0 0 0 .065-.15c-.003-.008-.311-.788-.355-1.044a.115.115 0 1 0-.227.039c.047.28.354 1.057.367 1.09a.115.115 0 0 0 .147.066Z"/><path fill="#FAD2C3" d="M41.808 15.47s.345-1.789-.372-2.665c-.804-.982-3.385-.14-3.97.372-.733.64.16 1.926.16 1.926s-.397.292-.223.739c.117.303.896.732 1.383.975.31.154.655.223.999.19.65-.063 1.643-.358 2.023-1.537Z"/><path fill="#DFBDB3" d="M38.725 16.052a1.953 1.953 0 0 1-.336-.033.108.108 0 0 1-.086-.125.108.108 0 0 1 .125-.086c.486.092.895-.044.974-.182.01-.018.033-.058-.032-.133-.215-.246-.822-.412-1.038-.456a.107.107 0 1 1 .042-.21c.035.007.851.174 1.158.525.106.12.126.26.056.381-.116.203-.465.324-.863.32Zm1.828-1.517a.107.107 0 0 1-.09-.051c-.02-.034-.497-.82-.512-1.46a.107.107 0 1 1 .215-.004c.014.583.475 1.344.48 1.352a.107.107 0 0 1-.093.163Zm-.881.435a.108.108 0 0 1-.086-.045 2.986 2.986 0 0 1-.494-1.624c0-.06.048-.107.108-.107s.107.05.107.108c-.004.85.45 1.491.454 1.498a.107.107 0 0 1-.09.17Z"/><path fill="#DFBDB3" d="M38.671 15.122a.108.108 0 0 1-.085-.043 2.655 2.655 0 0 1-.44-1.476c0-.06.047-.108.107-.107a.106.106 0 0 1 .107.107c0 .794.395 1.344.399 1.349a.107.107 0 0 1-.088.17Zm1.706 1.026a.107.107 0 0 1-.101-.075c-.22-.708-.958-.984-.966-.987a.108.108 0 0 1 .073-.202c.034.013.846.313 1.098 1.125a.108.108 0 0 1-.104.14Z"/><path fill="#DFBDB3" d="M38.83 15.14a2.924 2.924 0 0 1-.873-.144.107.107 0 0 1-.069-.135.107.107 0 0 1 .135-.069c1.6.523 3.183-.705 3.2-.718a.107.107 0 0 1 .132.169c-.056.044-1.173.912-2.524.896Z"/><path fill="#F8DF88" d="M20.862 24.834a2.028 2.028 0 0 1-1.345 1.639c.195.885.215 1.543-.29 1.188-1.168-.822-6.311-1.865-6.639-1.946-3.712-.847-5.035-1.83-5.652-2.375-.43-.38-.749-.86-.956-1.432-.205-.57-.3-1.232-.283-1.984.02-.87.192-1.908.511-3.085.51-1.88 1.235-3.537 1.265-3.607a2.025 2.025 0 0 1 3.71 1.63 25.302 25.302 0 0 0-.937 2.59c-.534 1.794-.52 2.635-.484 2.936.387.205 1.835.555 5.17 1.228 2.29.463 4.071.332 5.03.36 1.12.033 1.053 1.75.9 2.858Z"/><path fill="#FAD2C3" d="M8.084 12.882s-.366-1.756.326-2.63c.777-.979 3.33-.188 3.915.306.73.62-.13 1.899-.13 1.899s.396.281.232.724c-.164.443-1.733 1.172-1.733 1.172s-2.005.31-2.61-1.471Z"/><path fill="#DFBDB3" d="M10.252 13.053c-.038-.105-.012-.22.075-.322.297-.35 1.098-.527 1.132-.535a.106.106 0 0 1 .045.207c-.213.046-.808.22-1.016.464-.063.075-.04.115-.03.132.08.135.485.262.962.165a.106.106 0 0 1 .125.082.106.106 0 0 1-.082.125c-.515.105-1.036-.011-1.185-.264a.32.32 0 0 1-.026-.054Zm-1.05-1.18a.106.106 0 0 1 .008-.09c.005-.007.448-.765.453-1.338a.106.106 0 1 1 .211.002c-.005.63-.462 1.41-.482 1.443a.106.106 0 0 1-.19-.017Zm.876.414a.107.107 0 0 1 .012-.096 2.77 2.77 0 0 0 .424-1.481.105.105 0 1 1 .211-.004 2.939 2.939 0 0 1-.462 1.606.105.105 0 0 1-.185-.024Z"/><path fill="#DFBDB3" d="M11.066 12.423a.107.107 0 0 1 .013-.098c.005-.007.384-.554.372-1.333a.106.106 0 1 1 .211-.004 2.62 2.62 0 0 1-.41 1.46.106.106 0 0 1-.186-.025Zm-1.663 1.036a.106.106 0 0 1-.002-.066c.235-.803 1.03-1.11 1.063-1.124a.106.106 0 0 1 .136.062v.002a.106.106 0 0 1-.061.134c-.007.003-.73.285-.936.986a.106.106 0 0 1-.2.006Z"/><path fill="#DFBDB3" d="M8.48 11.62a.106.106 0 0 1 .164-.12c.015.011 1.593 1.197 3.16.658a.104.104 0 0 1 .134.066.106.106 0 0 1-.066.134c-1.675.576-3.29-.639-3.357-.69a.1.1 0 0 1-.035-.049Z"/><path fill="#BFA364" d="M9.74 15.435a.266.266 0 1 1-.361-.39.266.266 0 0 1 .361.39Z"/><path fill="#DCC273" d="M7.186 14.325c.413 1.146 1.285 1.587 1.968 1.755.783.192 1.47.073 1.5.068a.114.114 0 0 0-.04-.224 3.81 3.81 0 0 1-1.413-.067c-.973-.24-1.605-.863-1.877-1.849a.114.114 0 0 0-.14-.08.114.114 0 0 0-.08.14c.025.09.053.175.082.257Zm1.415 7.663a.115.115 0 0 0 .197.032c.352-.444.892-1.51.915-1.555a.114.114 0 0 0-.203-.103c-.005.01-.553 1.09-.89 1.516a.113.113 0 0 0-.019.11Z"/><path fill="#DCC273" d="M9.418 21.993a.114.114 0 0 0 .22-.027c.004-.036.088-.884-.037-1.288a.113.113 0 0 0-.143-.075.114.114 0 0 0-.075.143c.112.36.03 1.189.03 1.197a.116.116 0 0 0 .005.05Z"/><path fill="#D0B764" d="M20.552 42.621s-.433 5.115 2.769 5.642c2.244.369 7.884.288 10.441-1.27 1.82-1.109.023-6.147.023-6.147l-13.233 1.775Z"/><path fill="#A9924F" d="M20.572 46.754a.148.148 0 0 1-.032-.292c.007-.002.695-.17 1.024-.763.225-.408.234-.926.025-1.54a.148.148 0 0 1 .28-.095c.237.698.22 1.297-.049 1.781-.393.708-1.18.898-1.213.906a.186.186 0 0 1-.035.003Zm12.706-.491c-1.315-.015-2.133-.714-2.607-1.348a4.731 4.731 0 0 1-.782-1.666.148.148 0 1 1 .29-.061c.001.008.18.82.734 1.557.731.974 1.74 1.369 3.003 1.175a.148.148 0 0 1 .045.293 4.11 4.11 0 0 1-.683.05Z"/><path fill="#A9924F" d="M33.018 47.642a1.53 1.53 0 0 0 .313-.028c.422-.081.742-.314.95-.694.927-1.681-.676-5.8-.745-5.975a.175.175 0 1 0-.325.128c.017.041 1.612 4.14.764 5.679a.98.98 0 0 1-.71.519c-1.14.218-2.082-1.265-2.671-2.547a18.814 18.814 0 0 1-1.038-2.97.175.175 0 0 0-.34.082c.06.246 1.435 5.778 3.802 5.806Zm-5.994.728a.149.149 0 0 1-.074-.021c-.066-.04-1.628-.987-2.592-2.827a.148.148 0 0 1 .262-.138c.926 1.768 2.466 2.702 2.482 2.71a.148.148 0 0 1-.078.276Z"/><path fill="#F8DF88" d="M20.381 22.223s-2.288-4.259 3.773-5.177c4.959-.751 5.276 2.697 4.672 4.214-.605 1.516-6.303 2.372-8.445.963Z"/><path fill="#F8DF88" d="M24.724 19.98s3.778.312 5.27 1.168c2.016 1.158 2.08 8.23 2.748 11.29.668 3.06 2.153 8.272 1.824 9.677-.33 1.404-11.653 2.72-13.934 1.881-1.203-.442-.315-8.67-1.326-12.106-1.01-3.435-2.133-5.735-1.957-7.262.144-1.241 3.693-3.087 3.693-3.087l3.682-1.561Z"/><path fill="#DCC273" d="M21.235 22.991a.113.113 0 0 1-.04-.007c-.64-.24-.951-.883-.964-.91a.117.117 0 0 1 .212-.1c.003.006.284.584.835.79a.117.117 0 0 1-.043.227ZM33.35 41.428c-.011-2.515-.442-5.075-1.311-7.798-1.092-3.42-1.33-8.577-1.333-8.628a.12.12 0 0 0-.24.01c.003.052.243 5.24 1.345 8.69.86 2.698 1.288 5.233 1.299 7.723l.24.003Z"/><path fill="#DCC273" d="M23.637 43.166c-2.141-.025-3.303-.338-3.355-.352a.117.117 0 0 1 .062-.226c.014.004 1.35.363 3.744.345 2.208-.017 5.793-.366 10.329-1.939a.117.117 0 0 1 .076.222c-4.572 1.585-8.188 1.937-10.416 1.952-.151 0-.298 0-.44-.002Zm4.821-5.795c-1.227-.014-2.592-.377-4.04-1.081-1.69-.823-2.914-1.833-2.926-1.842a.123.123 0 1 1 .158-.19 16.01 16.01 0 0 0 2.882 1.813c1.525.742 3.761 1.477 5.75.768a.124.124 0 0 1 .157.075.124.124 0 0 1-.075.158 5.476 5.476 0 0 1-1.906.3Zm-.273 2.102a7.65 7.65 0 0 1-3.124-.725c-.962-.45-1.517-.938-1.54-.958a.124.124 0 0 1 .164-.184c.022.018 2.215 1.925 5.346 1.579a.123.123 0 0 1 .027.245 7.2 7.2 0 0 1-.873.043ZM23.29 23.148c-1.096-.013-1.965-.734-2.005-.767a.124.124 0 0 1 .159-.189c.014.011 1.003.827 2.133.695.646-.076 1.22-.447 1.706-1.1a.123.123 0 1 1 .198.147c-.529.711-1.16 1.114-1.877 1.198a2.58 2.58 0 0 1-.314.016Z"/><path fill="#fff" d="M23.73 39.038a.117.117 0 0 1-.105-.07c-1.207-2.694-1.722-6.86-1.94-9.88-.238-3.268-.19-5.936-.19-5.962a.118.118 0 0 1 .12-.115.117.117 0 0 1 .115.12c-.002.105-.176 10.639 2.109 15.741a.118.118 0 0 1-.108.166Zm4.755-.027a.117.117 0 0 1-.11-.08c-1.98-5.824-3.237-16.204-3.25-16.308a.117.117 0 1 1 .233-.028c.013.104 1.267 10.46 3.238 16.261a.117.117 0 0 1-.111.155Z"/><path fill="#FAD2C3" d="M26.258 19.809s.257.334-1.286 1.009c-.815.356-1.874.28-2.428.053a3.24 3.24 0 0 1-.357-.17c.087-1.256-.238-2.017-.326-2.198a1.363 1.363 0 0 0-.021-.041l3.89-2.683.528 4.03Z"/><path fill="#DFBDB3" d="M25.45 17.444s-.624 2.972-2.886 3.434c-.23-.095-.365-.173-.365-.173.089-1.283-.243-2.06-.333-2.244l3.583-1.017Z"/><path fill="#FAD2C3" d="M25.744 13.898c.124-.848.77-.764.83-.754.062-.003.712-.015.742.841.03.862-.383 1.4-.864 1.342-.484.004-.834-.577-.708-1.43Zm-5.177.862c-.393-.76-.976-.472-1.03-.443-.059.018-.678.217-.428 1.037.25.824.816 1.2 1.252.989.46-.154.602-.817.206-1.582Z"/><path fill="#FAD2C3" d="M26.169 12.575c-.909-3.472-3.556-2.828-3.804-2.76-.258.016-2.97.265-2.704 3.845.268 3.6 2.234 5.653 4.21 5.192 2.019-.205 3.212-2.784 2.298-6.277Z"/><path fill="#3A2C22" d="M22.522 13.608a8.26 8.26 0 0 0-.027 1.01c.007.169.012.337.024.504.01.168.026.335.044.502l.005.045.035.015c.117.048.235.093.353.136.119.042.238.085.36.12a5.403 5.403 0 0 0-.323-.2c-.11-.063-.22-.123-.33-.182l.04.06c0-.169-.004-.337-.012-.505-.006-.168-.019-.335-.031-.503a8.38 8.38 0 0 0-.138-1.002Zm-2.109.082c.136-.108.263-.207.393-.29.13-.084.26-.148.395-.182a.894.894 0 0 1 .417-.013c.075.006.147.036.225.055.078.023.151.059.239.08a1.249 1.249 0 0 0-.169-.2c-.071-.052-.139-.116-.227-.147-.043-.017-.084-.041-.13-.05-.047-.01-.094-.018-.14-.026a.9.9 0 0 0-.287.026.979.979 0 0 0-.468.288 1.006 1.006 0 0 0-.248.46Zm3.339-.556c.136-.109.263-.208.393-.29.13-.084.26-.148.395-.183a.893.893 0 0 1 .417-.012c.075.006.147.036.225.054.078.023.151.059.239.081a1.261 1.261 0 0 0-.169-.201c-.07-.051-.138-.116-.226-.147-.043-.017-.084-.04-.13-.05a2.949 2.949 0 0 0-.141-.025.887.887 0 0 0-.287.025.979.979 0 0 0-.468.288c-.12.134-.212.287-.248.46Zm.318 1.26a1.06 1.06 0 0 1 .13-.434.47.47 0 0 1 .336-.227.534.534 0 0 1 .207-.004.396.396 0 0 1 .178.095c.104.096.17.241.214.392a.663.663 0 0 0-.143-.46.458.458 0 0 0-.22-.142.61.61 0 0 0-.26-.005.53.53 0 0 0-.397.306.758.758 0 0 0-.045.479Zm-3.008.452a1.08 1.08 0 0 1 .131-.434.47.47 0 0 1 .335-.227.534.534 0 0 1 .207-.004.397.397 0 0 1 .178.095c.104.096.17.241.214.392a.663.663 0 0 0-.143-.46.458.458 0 0 0-.22-.142.61.61 0 0 0-.26-.005.53.53 0 0 0-.397.306.758.758 0 0 0-.045.479Z"/><path fill="#3A2C22" d="M19.069 10.965c.06-.754.461-1.008.66-1.089-.192-1.883 4.73-3.054 4.854-2.709.132.369-1.596 1.297-1.596 1.297s3.14-1.412 3.094-.623c-.037.641-1.375.796-1.876.831.708-.029 3.141-.043 2.25 1.203a1.787 1.787 0 0 1-.244.274c.32 1.308.447 4.49.447 4.49l-.276.046-.254-2.161c-.554-.018-1.01-1.247-1.188-1.8-.905.165-1.868.009-2.227-.062.22.06.576.224.28.608-.303.392-1.655.201-2.338.075-.034.525-.18 2.004-.728 2.212l.462 2.127-.277.046s-1.124-3.757-1.043-4.765Z"/><path fill="#3A2C22" d="M19.069 10.965c.06-.753.461-1.008.66-1.089-.035-.344.101-.664.347-.956.366 1.237 1.47 2.157 2.73 2.482-.485.206-1.564.051-2.151-.057-.034.525-.18 2.005-.728 2.213l.462 2.126-.277.046s-1.124-3.757-1.043-4.765Z"/><path fill="#E9C5BA" d="M22.685 17.384a1 1 0 0 0 .374.145c.34.059.632-.066.667-.08a1.118 1.118 0 0 0 .475-.394.912.912 0 0 0 .096-.182 1.04 1.04 0 0 0 .012-.726l-.024-.065-.001.001a2.26 2.26 0 0 1-1.986.75l-.034.012c.037.1.147.36.421.539Z"/><path fill="#fff" d="M23.059 17.53c.34.058.632-.067.667-.082a1.11 1.11 0 0 0 .462-.375.567.567 0 0 0-.584.188.472.472 0 0 0-.407.084.484.484 0 0 0-.138.184Zm-.795-.686c1.436.744 2-.709 2.02-.761a2.26 2.26 0 0 1-1.986.75l-.034.011Z"/></g></g><defs><clipPath id="a"><rect width="48" height="48" fill="#fff" rx="24"/></clipPath><clipPath id="b"><path fill="#fff" d="M0 0h48v48H0z"/></clipPath></defs></svg>