<svg width="48" height="48" fill="none" xmlns="http://www.w3.org/2000/svg"><g clip-path="url(#a)"><rect width="48" height="48" rx="24" fill="#fff"/><g clip-path="url(#b)"><path d="M30.83 23.633c1.886-4.033 4.914-10.35 6.847-14.42l.048-.1.047.1c1.912 4.088 4.885 10.37 6.754 14.42-.865-1.79-2.583-5.39-3.433-7.185l-3.416-7.193h.095c-1.961 4.078-4.981 10.358-6.943 14.378Z" fill="#EACACA"/><path d="M30.83 24.532c0 1.539 3.177 2.96 6.88 2.96 3.71 0 6.883-1.377 6.883-2.96H30.829Z" fill="#F8E3E3"/><path d="M30.439 24.532h14.545v-.899H30.44v.899ZM3.161 29.332c1.887-4.033 4.915-10.35 6.848-14.42l.047-.1.047.1c1.912 4.087 4.886 10.37 6.755 14.42-.865-1.79-2.583-5.39-3.433-7.186l-3.417-7.192h.095a3336.17 3336.17 0 0 1-6.942 14.378Z" fill="#EACACA"/><path d="M3.161 30.23c0 1.54 3.178 2.961 6.882 2.961 3.71 0 6.882-1.377 6.882-2.96H3.16Z" fill="#F8E3E3"/><path d="M2.771 30.23h14.545v-.898H2.771v.898Z" fill="#EACACA"/><path d="M10.245 15.032c.825-.095 1.284-.61 2.186-1.079 1.309-.68 5.293-1.83 7.557-2.095.898-.109 2.896.296 4.22.04 1.322-.254 3.005-1.37 3.876-1.602 2.195-.595 6.245-1.43 7.73-1.29 1.015.098 1.646.404 2.444.185 1.299-.35 1.074-2.172-.595-1.85-1.666.321-2.088.731-4.294 1.119-.953.168-5.608.628-7.212.937-1.609.31-2.329.682-2.329.682s-.812-.076-2.417.234c-1.608.31-5.997 2.031-6.947 2.23-2.188.46-2.741.238-4.41.56-1.67.323-1.147 2.088.19 1.929Z" fill="#F8E3E3"/><path d="M22.58 43.954h2.596s.548-10.623.42-14.17c-.128-3.547-1.22-18.848-1.22-18.848h-.995s-1.093 15.301-1.22 18.848c-.13 3.547.419 14.17.419 14.17ZM23.065 8.614c0 1.287.335 1.638.335 1.638h.956s.334-.351.334-1.638-.63-3.51-.63-3.51h-.36s-.635 2.223-.635 3.51Z" fill="#F8E3E3"/><path d="M22.628 10.771c0 .665.56 1.204 1.25 1.204.691 0 1.251-.539 1.251-1.204 0-.664-.56-1.203-1.25-1.203-.691 0-1.251.54-1.251 1.204ZM22.88 5.104c0 .53.448.96.999.96.55 0 .997-.43.997-.96s-.447-.96-.997-.96c-.552 0-.998.43-.998.96Z" fill="#EACACA"/><path d="M31.226 10.25c.222-.6.036-1.314-.408-1.775-.444-.461-.827-.461-.762-.522.206-.55-.244-1.174-.802-1.357-.559-.184-1.168-.043-1.728.136a2.566 2.566 0 0 0-2.012-1.924c-.97-.17-2.02.294-2.546 1.125-.813-.541-1.966-.508-2.748.078-.78.586-1.133 1.685-.84 2.616a1.714 1.714 0 0 0-.863 1.825c.15.707.81 1.273 1.531 1.315-.015.796.12 1.596.397 2.343l9.492.77s.262-1.636.262-2.215c0-.716.053-1.392.053-1.392.112.01.752-.422.974-1.023Z" fill="#441B13"/><path d="m26.002 7.047-.253-.013a4.888 4.888 0 0 0-5.09 4.249c-.308 2.35-.617 4.95-.665 6.216-.098 2.622 2.503 3.16 2.503 3.16l-.378 3.137 6.37.119 1.13-11.39c.37-2.71-.899-5.183-3.617-5.478Z" fill="#F8C8B4"/><path d="M22.479 20.653s1.668.184 3.483-.834c0 0-.9 1.846-3.504 1.48l.02-.646Z" fill="#E3956B"/><path d="M21.708 13.157a.375.375 0 0 0 .343.396.358.358 0 0 0 .402-.319.375.375 0 0 0-.342-.395.358.358 0 0 0-.403.318ZM25.55 13.343a.375.375 0 0 0 .342.395.358.358 0 0 0 .403-.318.375.375 0 0 0-.342-.396.358.358 0 0 0-.403.319Z" fill="#441B13"/><path d="M23.508 15.777c.003-.023-.245-.078-.648-.15-.102-.016-.199-.041-.213-.112-.02-.076.028-.184.084-.302l.343-.768c.478-1.093.829-1.995.785-2.014-.044-.018-.467.853-.945 1.946-.115.27-.226.527-.33.774-.045.115-.119.244-.074.4a.258.258 0 0 0 .161.16c.065.023.123.027.174.032.407.043.66.057.663.034Z" fill="#263138"/><path d="M29.24 14.635a.712.712 0 0 1 .803-.647c.486.07 1.016.375.934 1.383-.146 1.79-1.912 1.273-1.91 1.222 0-.036.106-1.21.174-1.958Z" fill="#F8C8B4"/><path d="M29.505 15.951c.008-.005.03.025.08.053.05.028.136.051.232.024.195-.054.379-.34.414-.662a1.036 1.036 0 0 0-.051-.454c-.044-.135-.12-.234-.215-.258a.16.16 0 0 0-.19.07c-.029.048-.02.085-.03.087-.005.004-.036-.033-.016-.105a.197.197 0 0 1 .08-.107.236.236 0 0 1 .176-.031c.137.02.251.158.303.304.06.147.087.325.067.507-.041.36-.253.682-.518.735a.334.334 0 0 1-.281-.07c-.051-.05-.057-.09-.051-.093Z" fill="#E3956B"/><path d="m28.515 7.761-3.39-1.417-1.597.684-3.071 1.939-.406.714c.021.046.044.091.07.135.4.715 1.243 1.165 2.062 1.086.869-.084 1.65-.758 1.858-1.606.758.37 1.787.009 2.145-.754 0 0 .309 1.488 1.733.712-.493.574.234 1.874.28 2.384.074.803-.138 1.471.029 2.26.086.407.27 1.326.671 1.435.318.086.636-.566.804-.85.168-.283.2-.625.207-.955.008-.329-.003-.665.095-.98l.195-.098V9.442l-1.685-1.68ZM24.21 17.992c-.016.042-.212 0-.432.08-.222.072-.352.225-.39.201-.017-.01-.006-.069.048-.143a.615.615 0 0 1 .291-.206.612.612 0 0 1 .356-.016c.09.026.134.066.127.084Z" fill="#441B13"/><path d="M21.657 10.733a.354.354 0 0 1-.104.012 1.134 1.134 0 0 1-.301-.033 1.549 1.549 0 0 1-.894-.64 1.564 1.564 0 0 1-.272-.725 1.77 1.77 0 0 1 .146-.876 2.16 2.16 0 0 1 1.547-1.228c.623-.132 1.245-.021 1.75.19l-.075.04c.11-.509.474-.885.856-1.058.39-.18.789-.143 1.074-.043.29.102.48.264.592.384a1 1 0 0 1 .116.148c.023.036.033.055.03.057-.006.005-.056-.069-.172-.18a1.517 1.517 0 0 0-.587-.345 1.38 1.38 0 0 0-1.013.063 1.45 1.45 0 0 0-.789.996l-.013.065-.061-.025c-.49-.201-1.09-.304-1.683-.178a2.068 2.068 0 0 0-1.473 1.158c-.122.273-.171.56-.148.824.024.263.119.5.244.688.25.384.596.571.837.642.246.069.393.05.393.064Z" fill="#2C0E0A"/><path d="M18.016 48.104s-.708 2.74-.451 6.078c.099 1.292 4.458 37.027 4.458 37.027h5.885l-1.654-33.586.482.104s3.213 14.325 3.475 16.644c.235 2.084 2.945 17.229 2.945 17.229l5.38.062-1.718-20.032-2-19.221-.752-5.596-16.05 1.291Z" fill="#C55859"/><path d="M28.828 34.296c.025-.607.96-4.952.96-5.028 0-.076-.925-6.458-.925-6.458l-.205-2-4.486 2.69s-1.907-1.435-1.862-1.51l-1.052 6.326-2.138 19.775s.733.892 3.531 1.301c3.49.511 8.527-1.301 8.527-1.301s-2.376-13.19-2.35-13.795Z" fill="#E0E0E0"/><path d="M18.439 55.02s.659.498 1.061-2.5c.403-2.998 1.593-15.574 1.593-15.574l.858-13.017-2.565 7.581-.947 23.51ZM28.432 45.253s1.178 11.507 1.625 11.284c.447-.224 4.75-1.92 4.75-1.92l-.433-3.72-5.942-5.644Z" fill="#040000" opacity=".3"/><path d="M28.521 23.5c.005.007-.066.06-.197.15l-.561.374c-.477.311-1.14.735-1.874 1.196l-.691.431-.048.03-.029-.046c-.359-.58-.567-1.129-.724-1.512a18.967 18.967 0 0 1-.173-.454c-.039-.107-.057-.166-.05-.169.012-.005.12.217.288.596.175.374.397.916.752 1.478l-.076-.017.689-.434c.735-.462 1.405-.874 1.892-1.168l.58-.343c.14-.078.218-.119.222-.112Z" fill="#E46F6F"/><path d="M22.1 24.337c.01-.007.101.102.244.294.143.19.34.463.562.781h-.09c.09-.127.186-.266.283-.411.283-.422.536-.809.731-1.08.195-.273.33-.43.343-.42.013.01-.099.182-.275.466-.177.282-.419.674-.703 1.099a9.598 9.598 0 0 1-.29.412l-.047.062-.044-.064a32.605 32.605 0 0 1-.528-.805c-.127-.203-.197-.326-.186-.334Z" fill="#E46F6F"/><path d="M11.803 20.824c-.016-.02 1.282-1.03 1.282-.93 0 .099 2.354 3.56 2.354 3.56l-1.396.956-2.337-3.525" fill="#E0E0E0"/><path d="M17.7 54.656a.713.713 0 0 0 1.062-.559l1.388-14.24 2.095-17.591-.738.626s-3.937.285-4.033.349c-.095.063-.883 2.476-1.232 5.46-.35 2.986-.082 12.264-.082 12.264l-1.484 11.684 3.024 2.007Z" fill="#E46F6F"/><path d="M19.777 40.21c-.004-.001-.004-.067 0-.193.001-.126.014-.31.015-.55.008-.478.014-1.169.007-2.023-.008-1.71-.05-4.07-.108-6.677l-.119-4.853v-.03l.026-.015.955-.514-.016.064-.648-.948-.019-.027.023-.022 1.26-1.192.341-.315c.079-.071.12-.107.123-.104a.9.9 0 0 1-.108.119l-.327.33-1.236 1.217.005-.049.66.94.028.04-.044.024-.95.524.026-.045c.047 1.405.095 3.071.135 4.852.058 2.608.087 4.97.075 6.68a51.441 51.441 0 0 1-.045 2.025c-.007.24-.028.424-.037.55-.01.126-.017.191-.021.191Z" fill="#B45353"/><path d="M17.755 23.24s-.649 0-1.104.474c-.44.457-1.385 1.283-1.385 1.283L10.66 26.9l4.016-2.972-2.718-3.577s-4.431 3.02-6.134 4.168c-1.703 1.148-2.672 2.971-2.339 4.193.333 1.222.658 1.71 3.07 2.309.99.246 9.443 1.133 9.443 1.133l1.397-6.391.36-2.523Z" fill="#E46F6F"/><path d="M8.702 29.922c-.01-.017.163-.125.41-.336.25-.21.565-.534.832-.952.266-.419.427-.842.512-1.156.087-.314.111-.516.13-.515.013.001.018.208-.05.535a3.685 3.685 0 0 1-1.372 2.153c-.267.199-.457.282-.462.271ZM16.485 25.868c.008.001.006.115-.005.32l-.054.866c-.046.73-.108 1.74-.158 2.857-.049 1.117-.077 2.128-.096 2.86l-.023.868c-.007.205-.015.318-.023.318s-.015-.113-.023-.318a30.09 30.09 0 0 1-.013-.868c-.003-.734.013-1.747.062-2.865.05-1.118.125-2.129.192-2.859.034-.365.065-.66.09-.864.025-.203.043-.316.05-.315Z" fill="#B45353"/><path d="M28.787 20.995c.156.12 1.932 1.839 1.932 1.839s4.064.454 4.18.575c.083.086.12 8.598.1 8.787-.231 2.008-1.011 8.9-1.011 8.9l3.34 11.636-6.985 2.87s-1.42-7.164-2.083-11.037c-.663-3.874-.468-4.97-.39-8.723.079-3.752.898-13.008.898-13.008l.019-1.84Z" fill="#E46F6F"/><path d="M28.261 39.65c-.004 0 .001-.063.015-.182.015-.119.032-.296.07-.52.07-.45.183-1.1.34-1.898.312-1.598.786-3.797 1.335-6.219.44-1.942.86-3.733 1.206-5.168l.015.046-.826-.703-.035-.03.033-.03.836-.788-.007.035-.394-1-.1-.265a.41.41 0 0 1-.029-.094c.003 0 .018.029.045.087l.115.259.422.989.008.02-.016.015-.823.8-.002-.06.834.695.022.018-.007.028-1.184 5.172a400.228 400.228 0 0 0-1.367 6.21 85.793 85.793 0 0 0-.377 1.889c-.044.223-.068.398-.09.516-.022.117-.035.18-.039.178Z" fill="#B45353"/><path d="M37.33 52.732a.838.838 0 0 1-.132.064l-.386.169-1.451.614-4.996 2.074-.064.026-.012-.068-.476-2.563-1.287-7.068-.378-2.145-.097-.584-.022-.152c-.004-.034-.006-.053-.003-.053a.19.19 0 0 1 .015.05l.033.151.119.58.413 2.138 1.321 7.063.472 2.564-.076-.042 5.011-2.036 1.464-.584.394-.151a.771.771 0 0 1 .138-.047Z" fill="#445962"/><path d="M32.702 43.16c-.015.003-.057-.243-.099-.645a18.31 18.31 0 0 1-.087-1.573c-.008-.615.015-1.173.046-1.575.03-.402.066-.65.081-.648.017.002.011.25.001.652-.01.402-.02.957-.011 1.57.008.612.032 1.167.053 1.568.02.402.032.65.016.652ZM32.94 44.198c-.007.004-.049-.053-.118-.16a8.95 8.95 0 0 1-.277-.463c-.224-.396-.51-.958-.777-1.6a15.466 15.466 0 0 1-.591-1.677 8.85 8.85 0 0 1-.135-.522c-.027-.124-.039-.194-.03-.196.016-.004.1.264.244.693.144.43.354 1.02.62 1.658.266.637.538 1.201.743 1.605.203.405.336.653.32.662Z" fill="#B45353"/><path d="m37.501 40.115-.079-.234-1.319 1.325s-2.77-.022-3.285.162c-.516.183-.452.783-.142.957 0 0-.388.6.11.979l.296.177s-.304.659.174.944c.477.284.425.099.421.365-.004.267.134.631.376.694.242.061 2.925-.964 3.47-1.277.545-.313 1.485-1.348 1.485-1.348l-1.507-2.744Z" fill="#F7BA9B"/><path d="M36.504 24.38c.647.874 1.709 2.506 1.709 2.506s5.681 4.385 7.072 5.522c1.991 1.627.912 3.704.45 4.37-.472.682-6.935 7.18-6.935 7.18l-2.765-3.354 4.135-5.278-.032-.357L35 32.196l-.867 2.022-.015-9.108.544-1.61.24-.09c.63.09 1.344.619 1.603.97Z" fill="#E46F6F"/><path d="M35.399 27.148c.032.003-.079 1.471-.247 3.28-.168 1.808-.33 3.271-.361 3.268-.032-.003.078-1.47.246-3.28.168-1.807.33-3.27.362-3.268ZM43.06 33.546c.01.038-.81.142-1.64.685-.838.53-1.273 1.235-1.303 1.209-.011-.007.08-.19.285-.448a4.005 4.005 0 0 1 2.132-1.372c.32-.08.524-.086.526-.074Z" fill="#B45353"/><path d="M36.487 41.984c-.028.016-.14-.137-.25-.34-.111-.203-.178-.38-.15-.395.03-.016.141.136.252.34.11.203.176.38.148.395Z" fill="#E3956B"/><path d="M13.067 19.766s.482-.552.849-.8c.367-.247 2.087-.887 2.32-.91.234-.021.609-.036.609-.036s.944-.415 1.161.14c0 0 .073.317-.039.43 0 0 .415.045.536.395 0 0 .037.228-.144.472 0 0 .526.416.304.866 0 0 .408.377.333.717-.074.34-.244.39-.574.52-.33.129-.98.23-.98.23s-.226.125-.18.418c.046.293.61.257 1.17.853.433.461.561.818.377.979-.098.086-.398.195-.974-.244-.813-.62-1.165-.288-1.552-.413-.388-.125-1.225-.491-1.225-.491s-2.17-2.347-1.99-3.126Z" fill="#F8C8B4"/><path d="M17.91 18.595c.013.004-.084.21-.373.412-.143.1-.33.192-.545.268a5.15 5.15 0 0 1-.34.105l-.184.05c-.064.018-.168.013-.231-.05-.116-.11-.12-.266-.09-.388a.628.628 0 0 1 .193-.305c.178-.151.383-.196.546-.225l-.033.03a.571.571 0 0 1 .323-.34c.105-.04.169-.033.169-.026.002.01-.058.02-.148.07a.553.553 0 0 0-.262.321l-.007.024-.026.006c-.156.036-.343.089-.49.22a.527.527 0 0 0-.154.253c-.025.096-.011.214.056.274.057.065.19.002.308-.023a6.81 6.81 0 0 0 .335-.097c.211-.068.393-.149.535-.235.286-.175.403-.356.418-.344Z" fill="#E3956B"/><path d="M16.535 19.34c.019.006-.08.14-.012.346.034.097.122.2.249.249.127.05.288.037.452-.006.673-.172 1.149-.5 1.168-.469.02.02-.439.402-1.14.582-.172.045-.363.061-.521-.008a.502.502 0 0 1-.287-.324.426.426 0 0 1 .024-.288c.03-.062.061-.085.067-.081Z" fill="#E3956B"/><path d="M17.025 20.03c.016.014-.157.096-.232.344a.444.444 0 0 0 .283.544c.08.024.174.018.269-.005.19-.05.38-.128.548-.181.17-.058.324-.104.442-.16.247-.107.315-.27.33-.262.006.002 0 .047-.041.116a.682.682 0 0 1-.25.219c-.123.07-.277.125-.445.188-.171.06-.348.137-.557.193a.612.612 0 0 1-.33 0 .505.505 0 0 1-.25-.182.522.522 0 0 1-.078-.496.574.574 0 0 1 .2-.269c.065-.045.108-.056.111-.05Z" fill="#E3956B"/><path d="M17.956 21.691c.003.013-.106.061-.299.081a.73.73 0 0 1-.345-.04c-.137-.06-.226-.188-.286-.328a.305.305 0 0 1 .013-.248.422.422 0 0 1 .147-.168c.12-.063.225-.092.317-.12.181-.054.301-.062.304-.045.002.015-.106.05-.277.122-.084.036-.192.078-.288.135-.077.058-.153.18-.108.281.05.12.13.23.222.273a.754.754 0 0 0 .298.057c.182 0 .298-.018.302 0ZM15.617 20.086c.01-.01.14.098.276.328.067.115.134.261.18.433.026.084.035.185.062.254.026.073.09.089.196.116.407.116.683.41.806.645.129.239.133.41.121.411-.02.006-.052-.156-.192-.369a1.387 1.387 0 0 0-.767-.575c-.044-.013-.097-.022-.15-.05a.251.251 0 0 1-.12-.134c-.037-.107-.037-.19-.06-.272a2.042 2.042 0 0 0-.15-.42c-.11-.23-.216-.354-.202-.367ZM16.82 21.03c-.023.017-.384-.457-.676-1.129-.294-.67-.396-1.258-.367-1.263.034-.008.185.558.475 1.217.285.66.598 1.155.569 1.174Z" fill="#E3956B"/><path d="m37.872 20.007-.253-.039-.671.683-.078.505s-.395-.037-.246-.69c.149-.654.073-.494.073-.494s-.83-.132-.888-.215c-.042-.06.064-.888.125-1.336.03-.226.2-.414.418-.434a.369.369 0 0 1 .091.001c.207.032 1.239.365 1.239.365l.436.068-.246 1.586ZM38.574 20.258l.114-1.753-.433-.067-.264 1.694.583.126Z" fill="#F8E3E3"/><path d="m14.994 13.954-1.51-.088a4.857 4.857 0 1 1 1.042-1.397l.003-.003.465 1.488Z" fill="#fff"/><path d="m14.994 13.954-.027-.094-.086-.284-.34-1.113-.006-.02-.015.016-.002.002.02.014a4.866 4.866 0 0 0 .431-3.084c-.061-.254-.115-.52-.22-.78a4.846 4.846 0 0 0-2.444-2.694 4.844 4.844 0 0 0-4.215-.021 4.788 4.788 0 0 0-1.807 1.47c-.06.08-.12.16-.178.243l-.154.256-.077.128-.065.135-.128.268c-.039.09-.068.185-.103.276-.032.093-.072.183-.092.279-.047.19-.105.376-.126.568a4.947 4.947 0 0 0 .15 2.234 4.898 4.898 0 0 0 4.338 3.418c.28.026.55.006.812-.01.258-.04.51-.068.744-.134a4.839 4.839 0 0 0 2.089-1.152l-.01.003 1.128.059.287.014.096.003-.1-.008a781.736 781.736 0 0 0-1.408-.092h-.005l-.004.003a4.844 4.844 0 0 1-2.082 1.133c-.232.065-.482.091-.739.13-.259.014-.528.033-.805.007a4.823 4.823 0 0 1-3.25-1.582 4.853 4.853 0 0 1-1.036-1.809 4.905 4.905 0 0 1-.148-2.207c.021-.19.08-.375.125-.562.02-.095.06-.184.091-.275.035-.091.064-.184.103-.274l.126-.265.064-.132.076-.127.152-.254c.057-.08.117-.16.176-.24a4.734 4.734 0 0 1 1.785-1.453 4.792 4.792 0 0 1 4.166.016 4.802 4.802 0 0 1 2.425 2.663c.106.256.16.52.223.771a4.867 4.867 0 0 1-.412 3.065l-.04.082.06-.068.002-.002-.021-.004.351 1.1a138.35 138.35 0 0 0 .125.384Z" fill="#E46F6F"/><path d="m12.077 9.092-.686-.652-2.923 3.076.687.652 2.922-3.076Z" fill="#EC6E5C"/><path d="m9.062 8.5-.652.686 3.076 2.922.652-.686-3.076-2.923Z" fill="#EC6E5C"/><path d="M23.011 12.102c-.096-.04-.219-.027-.338-.021-.12.009-.242.014-.347.016a5.936 5.936 0 0 1-.348-.008c-.12-.003-.244-.014-.337.029-.09.04-.127.152-.019.288.101.132.366.274.716.271.349-.005.607-.153.704-.287.102-.139.061-.25-.031-.288ZM25.378 12.132c.114-.03.25.004.384.03.135.029.27.055.389.073.119.018.256.034.393.046.135.016.277.024.375.087.095.06.118.191-.026.327-.136.133-.457.251-.85.191-.393-.06-.66-.269-.746-.436-.093-.172-.03-.29.08-.318ZM22.424 13.926c.026.001.051-.011.065-.035a.072.072 0 0 0-.026-.097c-.474-.276-.855-.054-.872-.045a.071.071 0 0 0-.024.098.07.07 0 0 0 .097.025c.013-.008.328-.187.728.045.01.006.021.009.032.01ZM26.318 14.197c.025 0 .05-.012.064-.035a.072.072 0 0 0-.025-.098c-.474-.275-.856-.054-.872-.044a.071.071 0 0 0-.025.098.07.07 0 0 0 .098.024c.013-.008.328-.186.727.046.01.005.021.008.033.009Z" fill="#441B13"/><path d="M22.812 18.153s.815-.493 1.654-.75c.84-.257.147-1.3-1.133-.967-1.28.334-1.205 1.965-.52 1.717Z" fill="#fff"/><path d="m7.576 37.71.253-.038.67.683.079.505s.395-.037.246-.69c-.15-.654-.073-.494-.073-.494s.83-.132.887-.215c.042-.06-.064-.888-.124-1.337-.03-.225-.201-.413-.419-.434a.369.369 0 0 0-.09.002c-.208.032-1.239.365-1.239.365l-.437.068.247 1.586ZM6.874 37.962l-.113-1.754.433-.067.263 1.695-.583.126Z" fill="#F8E3E3"/></g></g><defs><clipPath id="a"><rect width="48" height="48" rx="24" fill="#fff"/></clipPath><clipPath id="b"><path fill="#fff" d="M0 0h48v48H0z"/></clipPath></defs></svg>