<svg width="48" height="48" fill="none" xmlns="http://www.w3.org/2000/svg"><g clip-path="url(#a)"><rect width="48" height="48" rx="24" fill="#fff"/><g clip-path="url(#b)"><path d="m11.24 4.746 1.952 5.913-7.499-2.687 5 5.452-5.468 1.23 5.78 1.996-6.171 5.223 4.843 1.92-4.452 4.071 8.201-.384-4.687 6.759 5.625-.768-2.11 5.683 7.109-3.61 1.796 6.221 2.266-5.453 4.686 5.377-.312-5.607 7.967 5.07-2.421-6.453 8.123 1.537-5.155-5.07 6.483-1.459-4.765-2.765 5.312-3.456-6.17-1.613 5.701-3.149-5.78-1.69 5.859-4.838-7.187.23L41 5.744l-8.046 1.92 1.094-5.376-6.17 4.916-2.188-4.84-.703 5.147-3.125-5.147L20.85 8.08l-2.815-5.177-.625 5.454-6.17-3.61Z" fill="#F8E3E3"/><path opacity=".19" d="M50.083 42.05H-.777v7.59h50.86v-7.59Z" fill="#D2AEAD"/><path d="M16.51 12.431a.845.845 0 0 1 .438-.809.845.845 0 0 1 .914.1c-.059-.481.604-.781 1.046-.583.442.198.685.67.894 1.107l.426.013a1.426 1.426 0 0 1 1.41.548c.312.433.344 1.05.077 1.512.431.353.599.996.394 1.515-.204.52-.765.875-1.322.839.3.684.036 1.567-.592 1.973-.627.406-1.541.286-2.042-.268a1.312 1.312 0 0 1-1.38-.152 1.312 1.312 0 0 1-.431-1.321 1.445 1.445 0 0 1-1.107-.974 1.445 1.445 0 0 1 .362-1.43c-.479-.277-.693-.936-.47-1.443.225-.506.855-.792 1.384-.627Z" fill="#441B13"/><path d="M18.631 15.4c-.445-.471-.008-1.565.408-2.064-.285-.292-.316-.654-.09-.993.224-.34.199-.41.55-.617.108-.949 1.085-1.707 2.031-1.576.41-.755 1.425-.97 2.27-.812.206.038.414.094.623.072.153-.016.299-.073.448-.108.825-.196 1.713.309 2.116 1.053.065.12.484.415.577.513.122.129.277.174.384.316.367.492.069.754.123 1.135.046.323.163.283.33.564.082.14.218.247.287.396.199.43-.25.935-.112 1.389.028.092.08.176.115.266a.828.828 0 0 1 .008.58c-.053.144-.146.28-.14.432.005.116.067.22.101.33.084.271-.405 1.396-.629 1.57l-7.127.78a1.34 1.34 0 0 1-1.147-1.045c-.018-.09-.03-.19-.093-.256-.054-.057-.135-.077-.207-.107-.484-.2-.603-.826-.607-1.35 0-.073 0-.148-.025-.217-.035-.1-.12-.173-.194-.25Z" fill="#441B13"/><path d="M20.582 15.199c-.137-1.262.52-2.787 1.719-3.52.755-.463 1.372-.523 1.783-.61.922-.195 1.717.197 1.717.197.402.056 1.966 1.243 2.174 2.67.23 1.583.449 3.526.357 4.73-.184 2.42-1.99 2.873-1.99 2.873l.107 1.253-1.6 1.8-3.054-1.834-1.213-7.56Z" fill="#F8C8B4"/><path d="M25.407 14.909c.036-.017.406.686.826 1.571l.291.625c.04.093.104.198.07.327a.211.211 0 0 1-.128.135c-.052.02-.1.025-.141.031-.333.046-.54.064-.543.045-.003-.019.2-.07.528-.14.083-.016.162-.039.171-.098.015-.062-.028-.15-.076-.245l-.302-.62" fill="#441B13"/><path d="M26.341 21.54s-1.61.22-3.281-.606c0 0 .958 1.62 3.33 1.2l-.049-.595Z" fill="#E0B5A6"/><path d="M21.15 17.417c-.016-.178-.255-.58-.433-.594-.476-.035-1.318.072-1.229 1.264.122 1.63 2.034 1.15 2.033 1.104 0-.037-.32-1.16-.372-1.774Z" fill="#F8C8B4"/><path d="M20.813 18.658c-.008-.005-.027.022-.074.047a.286.286 0 0 1-.212.02c-.177-.05-.342-.312-.372-.605a.938.938 0 0 1 .049-.412c.04-.123.111-.212.197-.234.085-.026.15.02.174.065.025.044.017.077.026.08.005.004.033-.03.014-.096a.18.18 0 0 0-.072-.098.214.214 0 0 0-.16-.03c-.124.019-.229.143-.277.276a.968.968 0 0 0-.065.462c.035.327.226.622.467.672.117.022.21-.02.257-.062.048-.045.053-.082.048-.085Z" fill="#E0B5A6"/><path d="M28.718 13.914c-.347-.179-.58-.441-.591-.83-.213.083-.457-.18-.6-.359-.143-.178-.307-.26-.316-.489-.002-.044-.003-.092-.027-.13-.038-.06-.117-.074-.187-.09a1.094 1.094 0 0 1-.78-.699 2.316 2.316 0 0 1-1.102.276.902.902 0 0 1-.732.444.901.901 0 0 1-.765-.386c-.082.212-.283.36-.498.434-.214.074-.445.083-.672.092a.937.937 0 0 1-.528 1.109c-.056.023-.122.046-.144.102-.023.059.013.122.04.18.173.36-.035.85-.415.976.284.184.295.665.021.863-.056.041-.13.09-.115.158.006.026.024.047.042.067.134.15.27.316.301.516.032.2-.086.437-.287.463.114.085.223.198.237.34.014.14-.341.395-.477.355-.058-.017-.403-.226-.697-.641-.45-.636.009-.94-.01-1.718-.018-.78.19-1.553.523-2.258a3.69 3.69 0 0 1 .514-.833c.242-.284.541-.511.841-.733.39-.29.793-.58 1.255-.73.862-.28 1.802-.037 2.653.275.323.118.647.248.927.449.336.24.595.57.826.911.333.494.62 1.033.727 1.62" fill="#441B13"/><path d="M29.462 11.618c-.02.727-.603 1.399-1.32 1.522-.716.122-1.49-.319-1.749-.998a.9.9 0 0 1-.996.304.9.9 0 0 1-.581-.865c-.446.276-1.081.114-1.41-.295-.328-.41-.37-1.001-.19-1.494a1.96 1.96 0 0 1 1.15-1.15 1.96 1.96 0 0 1 1.62.135c.652-.533 1.78-.279 2.14.482.86.107 1.493 1.087 1.237 1.914" fill="#441B13"/><path d="M24.588 9.678c.003-.005-.036-.037-.12-.072a.93.93 0 0 0-.375-.07c-.162.002-.36.043-.549.153a.93.93 0 0 0-.44.547c-.056.195.035.435.227.503l-.023-.082a.87.87 0 0 0-.106.87c.093.207.216.278.219.27.012-.01-.09-.097-.158-.294a.824.824 0 0 1 .126-.78l.046-.056-.069-.026c-.125-.047-.2-.22-.155-.38a.858.858 0 0 1 .386-.485c.168-.106.349-.152.5-.162.306-.021.484.086.491.064Z" fill="#34110D"/><path d="M27.551 15.764c-.03.049-.301-.08-.636-.012-.337.062-.549.283-.593.249-.022-.015.003-.096.095-.195a.874.874 0 0 1 .981-.189c.12.06.55-.157.153.147ZM27.337 14.74c-.018.104-.295.188-.577.368-.288.171-.49.38-.589.348-.046-.017-.05-.107.014-.236.062-.128.2-.29.396-.41s.401-.17.542-.167c.143.003.219.048.214.097ZM23.039 15.997c.039.042.28-.136.623-.133.342-.003.592.174.63.132.018-.018-.022-.093-.131-.173a.874.874 0 0 0-1 0c-.105.08-.634-.158-.122.174ZM23.374 14.844c.011.102.274.186.537.364.27.169.453.376.55.345.045-.017.054-.105 0-.233a.98.98 0 0 0-.362-.405.966.966 0 0 0-.514-.166c-.138.002-.214.047-.21.095Z" fill="#441B13"/><path d="M25.22 18.136c-.27-.182-.71-.332-.959-.114-.124.11-.192.29-.213.467a.748.748 0 0 0 .207.605c.15.141.34.264.533.267.04 0 .142.016.182.012.255-.026.408-.112.625-.453.347-.599-.103-.603-.374-.785Z" fill="#E0B5A6"/><path d="M25.284 19.271a.615.615 0 0 1-.14.07.848.848 0 0 1-.957-.302.87.87 0 0 1-.122-.755.595.595 0 0 1 .24-.328.58.58 0 0 1 .374-.068c.239.047.432.149.587.24.154.094.274.175.363.22.089.046.143.06.142.063a.708.708 0 0 1-.15-.048c-.092-.04-.216-.119-.37-.208a1.855 1.855 0 0 0-.579-.228.544.544 0 0 0-.346.064.557.557 0 0 0-.222.306.84.84 0 0 0 .113.719.789.789 0 0 0 .505.327c.174.033.32.01.415-.019.097-.029.145-.057.147-.053Z" fill="#441B13"/><path d="M23.998 17.113c-.008.186-.349.323-.761.305-.412-.018-.74-.184-.732-.37.008-.186.349-.323.761-.305.413.018.74.183.732.37ZM28.003 16.72c.031.184-.273.39-.68.46-.406.07-.762-.023-.793-.207-.032-.184.272-.39.679-.46.406-.07.762.023.794.207Z" fill="#E1A7A3"/><path d="M27.282 13.458c-.216-.377-.671-.53-1.087-.656l-1.316-.394a1.904 1.904 0 0 0-.44-.095c-.28-.015-.561.093-.837.038l-.325.06c-.284.17-.62.67-.62.67-.123.109-.29.466-.332.794-.027.2.007.421.15.563.18.18.474.178.723.122.25-.056.497-.156.751-.128.24.026.452.162.684.224.45.12.922-.046 1.358-.21l1.053-.394c.098-.037.204-.08.264-.166.086-.123.05-.297-.026-.428Z" fill="#E0B5A6"/><path d="M19.64 17.31c-.001 0-.014-.005-.036-.017-.023-.012-.058-.028-.1-.056a1.389 1.389 0 0 1-.322-.283 1.536 1.536 0 0 1-.303-.581 1.447 1.447 0 0 1 .008-.833l.004.019a1.638 1.638 0 0 1-.384-1.063c-.005-.474.185-.922.48-1.2l-.001.027a.804.804 0 0 1-.14-.385 1.38 1.38 0 0 1 .006-.37 1.2 1.2 0 0 1 .237-.55l.038-.05.04-.04c.027-.026.051-.053.077-.073.053-.039.095-.076.135-.098a12.374 12.374 0 0 0 .123-.065s-.009.008-.029.02a14.98 14.98 0 0 0-.087.056c-.039.023-.08.061-.13.1-.025.021-.047.048-.073.074l-.04.042-.036.048c-.1.131-.189.316-.223.542a1.352 1.352 0 0 0-.002.36.775.775 0 0 0 .133.365l.011.014-.012.012c-.286.272-.47.709-.465 1.172.001.398.145.774.372 1.036l.007.009-.003.01a1.424 1.424 0 0 0-.015.813c.063.24.178.433.291.574.233.283.447.36.438.37Z" fill="#34110D"/><path d="M29.349 38.895s1.06 1.167 2.43 1.063c.616-.047 1.131-.482 1.513-.946a4.526 4.526 0 0 0 .882-1.772c.153-.61.376-1.511.43-1.813.087-.472-.312-1.477-.312-1.477s-.806-5.99-.716-6.735c.186-1.557-1.285-2.57-1.285-2.57L28.84 31.01l.509 7.886ZM14.413 28.748c-.002.062-.436 2.444-.493 3.996-.057 1.551-.048 2.643.493 4.798.541 2.154 1.85 2.64 2.868 2.416 1.91-.42 1.89-1.884 1.867-2.671-.024-.883-2.732-11.08-2.732-11.08l-.4-1.718s-1.563 2.504-1.603 4.26Z" fill="#E46F6F"/><path d="m18.79 23.407 2.985-.899h4.616l2.448 1.003-3.661 2.886-2.786.351-3.602-3.34Z" fill="#F8C8B4"/><path d="M29.362 37.375c-.091-.114.305-1.821.597-3.435.254-1.4.843-4.78.843-4.78s1.458-4.428 1.488-4.514c.03-.086-5.025-1.8-5.025-1.8s-.204 2.18-3.002 2.523c-2.798.343-4.299-2.424-4.299-2.424l-4.217 1.294 1.192 4.78s1.224 4.515 1.438 6.201l-.002.931c-.002.675.413 1.074.137 1.689-.776 1.726-1.695 3.025-1.95 4.288l14.89-.035a38.744 38.744 0 0 0-2.09-4.718Z" fill="#E46F6F"/><path d="M13.934 34.87a.618.618 0 0 1-.014-.186 2.176 2.176 0 0 1 .196-.877.634.634 0 0 1 .091-.162c.012.006-.119.26-.193.6-.078.339-.067.625-.08.625ZM18.712 36.58a.16.16 0 0 1-.02-.035l-.048-.107-.171-.395a35.158 35.158 0 0 0-.586-1.292c-.242-.5-.482-.94-.67-1.25-.047-.078-.091-.147-.13-.208a5.615 5.615 0 0 0-.099-.156l-.063-.099a.133.133 0 0 1-.02-.036c.002 0 .01.01.027.031l.07.095c.03.04.066.092.106.152.04.06.086.128.134.205.196.307.441.747.683 1.247a23.326 23.326 0 0 1 .735 1.7l.04.11a.165.165 0 0 1 .012.038Z" fill="#B24B4B"/><path d="M18.09 34.22c-.009.01-.135-.115-.322-.22-.186-.106-.357-.151-.354-.163.002-.01.182.016.375.127.193.108.31.25.301.256ZM25.431 31.637c.002 0 .004.012.006.038l.008.11c.004.047.008.106.007.174 0 .068.002.146-.004.23-.004.087-.01.18-.023.28-.009.1-.028.207-.047.319a4.89 4.89 0 0 1-.194.712 4.86 4.86 0 0 1-.308.67c-.058.098-.11.191-.168.274-.055.085-.11.16-.163.229-.05.07-.101.127-.145.18a1.939 1.939 0 0 1-.116.13l-.077.078c-.018.018-.028.027-.03.026 0-.001.008-.012.024-.031l.07-.084c.032-.036.07-.08.111-.134.042-.053.092-.113.14-.183.05-.069.104-.145.157-.23.056-.083.107-.177.164-.274.107-.198.212-.423.302-.666a5.13 5.13 0 0 0 .195-.704c.02-.111.04-.216.05-.316.015-.1.022-.192.028-.277.009-.085.008-.162.01-.23a2.327 2.327 0 0 0 .001-.173v-.11c0-.025 0-.038.002-.038Z" fill="#B24B4B"/><path d="M29.924 36.642c.352-.775.791-1.509 1.306-2.186Z" fill="#EC6E5C"/><path d="M31.43 33.002c.003.012-.253.095-.554.232-.302.135-.533.273-.54.262a.624.624 0 0 1 .145-.102 3.472 3.472 0 0 1 .776-.351.654.654 0 0 1 .173-.04ZM31.722 31.996c.008.009-.267.296-.613.642-.347.346-.635.62-.643.61-.008-.008.266-.294.613-.64.346-.346.634-.62.643-.612ZM16.562 42.127l.003-.022.014-.062c.015-.054.028-.137.063-.24.061-.208.171-.505.325-.871.31-.733.808-1.74 1.442-2.883l-.001.002c.26-.594.315-1.317.267-2.047-.029-.452-.097-.89-.176-1.31-.08-.421-.172-.823-.268-1.205-.192-.762-.39-1.443-.55-2.017a37.799 37.799 0 0 1-.363-1.362 13.497 13.497 0 0 1-.084-.374l-.02-.098-.005-.034.01.033.023.097.092.372c.082.322.21.786.376 1.358.164.572.365 1.252.56 2.016.096.382.19.784.27 1.206.08.422.148.862.177 1.316.05.734-.007 1.463-.272 2.066l-.001.001c-.636 1.14-1.137 2.145-1.454 2.873a9.62 9.62 0 0 0-.335.866c-.037.102-.052.184-.069.238l-.017.061-.007.02Z" fill="#B24B4B"/><path d="m31.453 42.093-.011-.025a10.351 10.351 0 0 1-.146-.352l-.422-1.045-1.415-3.547-.002-.004v-.005l.06-.57.076-.585c.243-1.789.763-3.344 1.052-4.484.15-.57.26-1.035.333-1.356l.084-.37a6.817 6.817 0 0 0 .032-.129l-.005.034-.019.097-.076.372a33.56 33.56 0 0 1-.32 1.36c-.282 1.143-.796 2.697-1.04 4.482-.024.197-.05.392-.075.584l-.06.569-.002-.01L30.9 40.66l.41 1.05.108.283a4.835 4.835 0 0 1 .035.099Z" fill="#B24B4B"/><path d="M15.98 29.73s.619-.97.717-1.574a6.12 6.12 0 0 1 .267-1.054s1.672-.758 1.855-1.278c.182-.52.07-.689-.281-.464-.351.225-1.354.947-2.047.762-.693-.186-.735-.734-.735-.734s.828-1.475.73-1.784c-.098-.31-.354-.408-.577-.155-.224.253-.786 1.447-.786 1.447s-.674-.829-.548-1.25c.127-.422.436-.826.23-1.031-.162-.163-.387-.059-.586.254-.155.243-.15.272-.15.272s-.14-.83-.38-.943c-.238-.112-.435-.014-.35.408.084.421.66 2.15.744 2.894.084.744-.281 3.358-.183 4.018.098.66.351 4.482.351 4.482s.67 1.953 1.86 1.49c1.189-.464 1.02-1.883.978-1.897-.04-.013-1.108-3.863-1.108-3.863Z" fill="#F8C8B4"/><path d="M14.385 25.549a.434.434 0 0 1-.042-.09 12.983 12.983 0 0 1-.38-1.095 4.875 4.875 0 0 1-.064-.246 1.342 1.342 0 0 1 .024-.637c.031-.111.068-.196.096-.254a.314.314 0 0 1 .051-.085c.003.002-.012.033-.036.092a1.838 1.838 0 0 0-.082.254c-.027.11-.048.243-.042.391.002.149.047.306.095.473.097.333.199.63.27.846l.084.256c.02.06.029.094.026.095Z" fill="#E0B5A6"/><path d="M32.496 29.974s-.638-1.001-.74-1.625c-.1-.623-.275-1.087-.275-1.087s-1.726-.783-1.914-1.32c-.189-.536-.073-.71.29-.479.363.232 1.398.978 2.113.787.715-.192.759-.758.759-.758s-.856-1.522-.755-1.841c.102-.32.365-.42.596-.16.231.261.812 1.494.812 1.494s.696-.856.565-1.29c-.13-.436-.45-.853-.238-1.065.168-.168.4-.06.606.263.16.251.154.28.154.28s.145-.857.392-.973c.247-.116.45-.014.363.42-.087.436-.682 2.22-.769 2.988-.087.769.29 3.467.189 4.148-.102.682-.363 4.626-.363 4.626s-.692 2.016-1.92 1.538c-1.227-.48-1.053-1.944-1.01-1.958.043-.015 1.145-3.988 1.145-3.988Z" fill="#F8C8B4"/><path d="M34.143 25.658a.472.472 0 0 1 .028-.099l.087-.264c.073-.223.178-.53.278-.873a1.91 1.91 0 0 0 .099-.488 1.451 1.451 0 0 0-.043-.404 1.957 1.957 0 0 0-.085-.262c-.025-.06-.04-.093-.039-.095a.315.315 0 0 1 .053.088 1.5 1.5 0 0 1 .153.675c0 .079-.012.16-.03.245-.018.083-.042.168-.067.254a13.93 13.93 0 0 1-.39 1.13.445.445 0 0 1-.044.093Z" fill="#E0B5A6"/><path d="M29.462 11.469c4.408.036 5.275.253 5.291.866.019.729-4.56 1.437-10.228 1.582-5.667.145-11.372-.198-11.391-.927-.016-.63 1.92-1.512 6.507-1.76" stroke="#E3AEAE" stroke-width="2" stroke-miterlimit="10" stroke-linecap="round" stroke-linejoin="round"/><path d="m29.42 10.826.044-.005" stroke="#F8E3E3" stroke-miterlimit="10"/><path d="M29.553 10.81c4.438-.524 5-.337 5.093.28.107.722-4.352 1.981-9.96 2.814-5.608.832-10.931.93-11.038.209-.088-.592 1.574-1.51 5.749-2.546" stroke="#F8E3E3" stroke-miterlimit="10" stroke-dasharray="2 2"/><path d="m19.44 11.556.043-.011" stroke="#F8E3E3" stroke-miterlimit="10"/><path d="M32.408 10.536a.265.265 0 1 1-.528.05.265.265 0 0 1 .528-.05ZM17.97 12.214a.265.265 0 1 0 0-.53.265.265 0 0 0 0 .53ZM30.736 13.497a.266.266 0 1 1-.53.05.266.266 0 0 1 .53-.05ZM16.616 13.729a.265.265 0 1 1-.528.049.265.265 0 0 1 .528-.05Z" fill="#E3AEAE"/><path d="M50.856 42.102c-28.675 0-51.913-.026-51.913-.058Z" fill="#B24B4B"/><path d="m12.57 43.92 5.738 2.268 3.959-2.268-6.46-1.925-3.237 1.925Z" fill="#EBEBEB"/><path d="m11.163 43.007 4.559-1.541 7.052 2.1-4.371 2.367-5.313-2.037-.447.014a.212.212 0 0 1-.076-.012l-1.407-.49a.212.212 0 0 1 .003-.4Z" fill="#EACACA"/><path d="m18.267 44.56 1.848-.928-.901-.277-1.96.935 1.013.27Z" fill="#E0E0E0"/><path d="m15.184 43.645 5.737 2.269 3.959-2.269-6.46-1.924-3.236 1.924Z" fill="#EBEBEB"/><path d="m13.598 42.752 4.56-1.541 7.051 2.1-4.37 2.367-5.313-2.037-.447.014a.21.21 0 0 1-.077-.012l-1.406-.49a.212.212 0 0 1 .002-.401Z" fill="#E3AEAE"/><path d="m20.702 44.304 1.848-.928-.902-.276-1.959.935 1.013.269Z" fill="#E0E0E0"/><path d="M28.989 15.416a.057.057 0 0 1-.056-.047.057.057 0 0 1 .046-.066.39.39 0 0 0 .319-.455.393.393 0 0 0-.455-.318.057.057 0 1 1-.02-.113.507.507 0 0 1 .175.998h-.01ZM30.095 14.663a.504.504 0 0 1-.465-.308.503.503 0 0 1-.004-.387.057.057 0 0 1 .074-.032c.03.012.044.045.032.075a.391.391 0 0 0 .217.51c.2.08.43-.017.511-.218a.057.057 0 0 1 .074-.031c.03.011.044.045.032.074a.507.507 0 0 1-.47.317ZM30.636 15.811h-.007a.507.507 0 0 1 .11-1.008.057.057 0 0 1 .051.064.058.058 0 0 1-.063.05.393.393 0 0 0-.085.78.057.057 0 0 1 .05.064.058.058 0 0 1-.056.05ZM29.96 16.043a.057.057 0 0 1-.053-.078.322.322 0 0 0-.427-.419.32.32 0 0 0-.175.177.057.057 0 1 1-.105-.043.435.435 0 0 1 .57-.243c.223.09.332.346.242.57a.058.058 0 0 1-.053.036ZM18.794 9.567a.041.041 0 0 1-.04-.034.041.041 0 0 1 .033-.047.28.28 0 0 0 .229-.327.282.282 0 0 0-.326-.229.041.041 0 1 1-.014-.08.365.365 0 0 1 .125.717h-.007ZM19.59 9.026a.364.364 0 0 1-.338-.5.041.041 0 0 1 .076.03.282.282 0 0 0 .523.211.041.041 0 0 1 .076.03.363.363 0 0 1-.337.229ZM19.977 9.851h-.004a.364.364 0 0 1 .079-.724.041.041 0 0 1 .036.045.041.041 0 0 1-.045.037.282.282 0 0 0-.061.56.041.041 0 0 1 .036.046.041.041 0 0 1-.04.036ZM19.492 10.018l-.015-.003a.041.041 0 0 1-.023-.054.232.232 0 0 0-.307-.3.231.231 0 0 0-.125.127.041.041 0 0 1-.076-.031.313.313 0 0 1 .41-.175c.16.065.24.249.174.41a.043.043 0 0 1-.038.026Z" fill="#E3AEAE"/><path d="m36.953 17.282-1.584-.566-.06 1.003-1.732-.806-.025.765-1.21-.448M35.208 14.152l-1.232.38.424.644-1.435.301.336.481-.949.282M11.741 21.212l.974-1.37.623.787.96-1.652.458.612.735-1.06M11.379 17.648l1.228-.394.02.77 1.35-.575-.001.587.939-.312" stroke="#DC8B8B" stroke-width="2" stroke-miterlimit="10" stroke-linecap="round" stroke-linejoin="round"/></g></g><defs><clipPath id="a"><rect width="48" height="48" rx="24" fill="#fff"/></clipPath><clipPath id="b"><path fill="#fff" d="M0 0h48v48H0z"/></clipPath></defs></svg>