<svg width="48" height="48" fill="none" xmlns="http://www.w3.org/2000/svg"><g clip-path="url(#a)"><rect width="48" height="48" rx="24" fill="#fff"/><g clip-path="url(#b)"><path opacity=".19" d="M52.3 41.877H-5.043v8.05h57.345v-8.05Z" fill="#D2AEAD"/><path d="M49.234 41.913c-30.123 0-54.534-.028-54.534-.061Z" fill="#B24B4B"/><path d="M14.12 29.952c.27.793-3.382 4.064 3.35 11.962h16.272c1.32-.954 2.28-4.775 3.356-5.76 1.206-1.106 1.988-2.796 1.818-4.473-.204-2.03-1.72-3.926-1.224-5.9a3.057 3.057 0 0 0-1.39 1.525c-.649-.38-.74-1.365-.465-2.094.274-.728.808-1.31 1.178-1.99.886-1.627.708-3.826-.426-5.27.156 1.786-.798 3.624-2.307 4.448.409-1.14.116-2.523-.714-3.37-.524-.535-1.22-.854-1.74-1.392-1.718-1.776-1.017-5.278-2.953-6.783L27.8 14.758c-.894-.378-1.281-1.511-1.293-2.528-.011-1.016.245-2.026.17-3.04-.073-1.013-.622-2.11-1.568-2.299.071.14.148 1.545-.108 1.863-1.581 1.973-3.386 3.428-3.876 5.96a9.92 9.92 0 0 0-3.111-3.869c.89 1.467 1.073 3.387.477 5.011-.368 1.004-1.004 1.874-1.44 2.848-.435.974-.653 2.162-.161 3.105a11.567 11.567 0 0 0-3.812-3.434c.526.498.73 1.28.762 2.025.033.744-.079 1.49-.062 2.235.014.62-.016 1.387-.04 2.208-.64-.718-1.427-1.273-2.205-1.82.34.517.697 1.113.579 1.73-.13.674-.777 1.094-1.054 1.717-.283.637-.135 1.413.216 2.01.351.597.88 1.05 1.404 1.484l1.442-.012Z" fill="#F8E3E3"/><path d="M18.136 40.153c-1.482-1.734-3.07-4.006-3.294-5.978-.131-1.162.259-1.852.603-2.46.313-.555.786-1.392.433-2.43l-.373-1.094.099-3.286.01-.36c.02-.617.038-1.203.034-1.73l2.878-1.957c-.1-.19-.058-.702.214-1.311.15-.335.346-.684.553-1.053.257-.457.541-.964.782-1.528l1.767 3.892 1.113-5.748c.22-1.138.85-2.021 1.683-3v.144c.01.835.184 1.644.503 2.34.434.945 1.113 1.635 1.964 1.995l1.913.808.168-.609c.282.798.688 1.59 1.334 2.258.389.402.793.686 1.15.936.237.166.462.324.6.464.293.3.41.85.264 1.254l-1.73 4.817 3.199-1.745c-.507 1.69.064 3.48 1.395 4.258l.962.563c.051.142.103.281.153.417.252.683.49 1.328.545 1.879.095.939-.37 2.027-1.186 2.775-.788.722-1.309 1.884-1.912 3.23-.26.58-.529 1.18-.79 1.66a4.778 4.778 0 0 1-.372.599H18.136Zm-4.8-12.166a2.594 2.594 0 0 1-.476-.547.689.689 0 0 1-.076-.182c.048-.066.121-.156.178-.227l.076-.094.932 1.045-.635.005Z" fill="#EEC7C6"/><path d="M19.386 37.28c-1.565-2.034-1.805-3.13-1.841-3.446-.021-.183-.022-.19.236-.648 1.446-2.557.873-4.238.658-4.872l-.198-.579.082-2.74.018-.596 1.597-1.086 2.948 6.492 2.153-11.12c.33.223.682.413 1.053.57l1.584.67c.28.425.592.815.94 1.173.32.331.637.601.927.825l-3.805 10.593 6.118-3.34c.521 1 1.288 1.82 2.223 2.368l.095.055c.073.209.137.406.166.533a.974.974 0 0 1-.252.363c-1.22 1.118-1.884 2.601-2.588 4.172l-.278.614H19.386Z" fill="#fff" opacity=".3"/><path d="m28.328 10.369-.1-.463a1.55 1.55 0 0 1-.05-.4c.014-.303.187-.518.172-.821.046.155.105.29.15.446.046.155.077.343.056.52a1.46 1.46 0 0 1-.076.304l-.138.415" fill="#F8E3E3"/><path d="M27.534 19.078a.442.442 0 0 1 .02-.043c.13-.246.45-.339.737-.386.483-.08.976-.102 1.463-.066.448.033.905.12 1.274.356.505.324.775.88.966 1.427.157.452.42 5.032.159 7.206-.06.5-1.182 4.595-1.67 4.4.023.68-.946-1.537-1.59-1.21-.713.362-3.025.13-2.396-1.067.099-.188.285-.332.367-.527.099-.236.026-.504-.098-.724-.123-.221-.297-.415-.419-.636-.241-.44-.261-.967-.17-1.46.093-.493.29-.965.468-1.439.644-1.715 1.055-3.537.864-5.332-.018-.166-.039-.343.025-.5Z" fill="#441B13"/><path d="M25.006 28.924a.435.435 0 0 1-.032.033c-.192.188-.5.171-.765.123a5.394 5.394 0 0 1-1.29-.41c-.38-.176-.747-.404-.99-.743-.333-.465-.386-1.071-.374-1.643.011-.473.053-1.544.82-3.588.34-.907 1.559-3.65 2.41-4.122.432-.24 1.028-.09 1.387.25a1.84 1.84 0 0 1 1.455-1.24c.737-.109 2.667.852 1.732 1.767-.147.144-.355.218-.49.374-.163.188-.187.46-.15.707.035.245.123.482.156.729.066.488-.087.985-.328 1.416-.24.43-.564.807-.873 1.192-1.117 1.393-2.066 2.96-2.484 4.696-.039.161-.079.333-.184.459Z" fill="#441B13"/><g opacity=".51"><path d="M11.087 38.143s-.494-3.397-.453-5.373c.042-1.977-.002-4.2-.002-4.2h.228s-.155 3.923.013 6.29c.168 2.363.61 3.283.61 3.283h-.396" fill="#E0E0E0"/><path d="M12.559 24.748c-.046-.116-.103-.237-.208-.303-.145-.092-.334-.054-.495.003-.688.243-1.298 1.526-1.576 2.2l.914 3.078c1.648-1.53 1.933-3.536 1.364-4.978Z" fill="#EBEBEB"/><path d="M12.297 24.569a.184.184 0 0 1-.013.04l-.045.112a15.505 15.505 0 0 0-.623 1.8 15.42 15.42 0 0 0-.394 1.865l-.02.12a.183.183 0 0 1-.009.04l.002-.041.012-.12a13.173 13.173 0 0 1 .844-3.26 9.58 9.58 0 0 1 .226-.518.156.156 0 0 1 .02-.038Z" fill="#E0E0E0"/><path d="M10.788 30.463c-.856-.472-1.36-1.362-1.408-2.339-.033-.683.177-1.353.415-1.994.02-.055.045-.115.097-.145.072-.04.162-.004.233.037.623.354 1 1.03 1.2 1.716.133.457.203.94.14 1.412a2.347 2.347 0 0 1-.677 1.314Z" fill="#E0E0E0"/><path d="M10.788 30.463a.179.179 0 0 1-.003-.04l-.003-.119a11.181 11.181 0 0 0-.172-1.856 22.454 22.454 0 0 0-.295-1.4l-.101-.423-.026-.115a.156.156 0 0 1-.007-.041c.001 0 .006.013.014.039l.034.113a17.631 17.631 0 0 1 .42 1.82c.093.554.137 1.06.147 1.428.005.183.005.332.001.435l-.005.118a.175.175 0 0 1-.004.041ZM11.754 35.66c.843.186 1.536.78 2.349 1.07.538.19 1.146.258 1.575.634-.103-.26-.347-.433-.585-.582a10.496 10.496 0 0 0-2.128-1.016c-.383-.132-.798-.242-1.188-.134M10.535 36.412c-1.055-.017-2.166-.916-3.217-.97 1.1-.354 2.673-.065 3.217.97ZM10.947 33.88c.536-.192 1.124-.202 1.687-.114.563.087 1.106.268 1.647.447-.055-.366-.351-.641-.63-.885a4.397 4.397 0 0 0-.661-.508c-.24-.14-.515-.236-.793-.224a1.254 1.254 0 0 0-.875.442 1.45 1.45 0 0 0-.375.843ZM8.782 32.716c-.664-.568-1.67-.512-2.543-.492 1.342.641 2.789 1.52 3.945 2.457.035-.617-.563-1.25-1.402-1.965ZM11.247 31.933a7.416 7.416 0 0 1 1.021-.594c.35-.159.676-.412 1.013-.595.438-.237.817-.567 1.22-.86.401-.294.843-.56 1.335-.637-.401-.083-.82-.038-1.216.07-.395.108-.77.277-1.143.445-.518.233-1.045.472-1.469.851-.423.379-.806.753-.761 1.32Z" fill="#EBEBEB"/><path d="M14.084 36.412s-.012-.004-.034-.015l-.092-.047c-.08-.042-.193-.105-.337-.178a5.587 5.587 0 0 0-.236-.116 5.662 5.662 0 0 0-.273-.126 3.975 3.975 0 0 0-.65-.226 1.395 1.395 0 0 0-.677-.017 1.503 1.503 0 0 0-.81.445c-.06.065-.09.105-.093.103a1.059 1.059 0 0 1 .083-.113 1.359 1.359 0 0 1 .521-.378c.088-.039.188-.065.291-.091.209-.057.454-.045.693.014.241.057.46.146.655.231.098.043.19.086.274.13a7.083 7.083 0 0 1 .684.384ZM9.748 35.889a.25.25 0 0 1 .066.019c.042.014.101.04.172.074a2.092 2.092 0 0 1 .882.847 1.394 1.394 0 0 1 .103.234c-.007.003-.046-.087-.127-.22a2.392 2.392 0 0 0-.38-.476 2.387 2.387 0 0 0-.491-.36c-.136-.076-.227-.112-.225-.118ZM7.414 32.662l.045.014.127.044.2.074c.077.03.161.072.257.114.38.172.885.463 1.374.875a6.7 6.7 0 0 1 1.37 1.618l.071.113a.22.22 0 0 1 .024.041c-.001.001-.011-.012-.03-.036a2.675 2.675 0 0 1-.078-.11c-.067-.096-.161-.235-.284-.403a7.023 7.023 0 0 0-1.098-1.194 6.43 6.43 0 0 0-1.361-.88c-.095-.043-.178-.087-.255-.118l-.197-.08-.124-.05a.226.226 0 0 1-.04-.022ZM12.53 33.287a.36.36 0 0 1-.083-.01l-.097-.018c-.038-.007-.082-.008-.13-.013a1.311 1.311 0 0 0-1.055.388c-.091.09-.16.182-.212.263-.106.162-.139.279-.145.276a.315.315 0 0 1 .021-.082 1.398 1.398 0 0 1 .311-.48 1.286 1.286 0 0 1 1.082-.39c.049.006.093.008.13.017l.097.025a.385.385 0 0 1 .082.024ZM13.591 29.997c0 .002-.013.01-.04.025l-.117.064c-.103.055-.25.136-.429.242a8.895 8.895 0 0 0-.611.397c-.223.16-.462.346-.682.572-.11.114-.21.232-.28.361-.068.133-.134.261-.195.384a6.947 6.947 0 0 0-.294.668 4.11 4.11 0 0 0-.142.47c-.027.112-.037.176-.04.176a1.846 1.846 0 0 1 .026-.18c.022-.114.063-.278.131-.475.07-.197.167-.426.288-.674.06-.124.125-.253.194-.386.072-.135.175-.255.285-.37.223-.23.464-.415.689-.575a8.19 8.19 0 0 1 1.174-.682.326.326 0 0 1 .043-.017ZM10.632 33.192a.43.43 0 0 1-.02-.089 73.236 73.236 0 0 1-.047-.244 6.846 6.846 0 0 0-.2-.791 6.886 6.886 0 0 0-.3-.76l-.103-.225a.42.42 0 0 1-.034-.085.415.415 0 0 1 .047.078c.028.052.068.127.114.221.092.188.215.453.313.76a5.482 5.482 0 0 1 .224 1.044c.006.059.01.091.006.091Z" fill="#E0E0E0"/><path d="M10.556 30.792a2.87 2.87 0 0 0-.343-1.14 3.76 3.76 0 0 0-2.549-1.9l2.36 3.517.305.628c.207-.341.254-.707.227-1.105ZM13.942 37.723H8.455v.972h5.487v-.972Z" fill="#EBEBEB"/><path d="m8.864 38.502.467 3.017h3.643l.557-3.017H8.864Z" fill="#EBEBEB"/><path d="M13.938 38.696c0 .011-1.238.02-2.764.02-1.527 0-2.764-.009-2.764-.02 0-.01 1.237-.019 2.764-.019 1.526 0 2.764.009 2.764.02Z" fill="#E0E0E0"/></g><path d="m34.62 9.028-1.44-2.01-.886 2.3-2.456-.917 1.01 2.666-1.996 1.057 2.488 1.21-1.456 2.708 2.55-1.543 1.918 2.052.68-2.37 2.714.036-1.49-2 1.99-1.505-2.152-.288.64-2.324-2.114.928Z" fill="#fff"/><path d="m37.76 14.194.024.032h-.04l-2.713-.035.02-.015c-.215.753-.445 1.553-.68 2.37l-.01.036-.026-.027-1.918-2.052.027.004-.695.42-1.855 1.122-.068.042.038-.07 1.457-2.707.01.029-2.489-1.211-.035-.017.035-.019 1.998-1.056-.01.023-1.008-2.667-.014-.034.035.013 2.456.92-.019.008.889-2.3.007-.018.01.016 1.066 1.497.275.387.092.133-.094-.127-.277-.383-1.078-1.495.018-.002-.881 2.302-.005.013-.013-.005-2.458-.915.022-.022 1.013 2.665.006.016-.015.008-1.996 1.059v-.036l2.489 1.209.02.01-.01.019c-.473.877-.959 1.781-1.456 2.707l-.03-.029 1.854-1.121.695-.42.016-.01.012.013 1.917 2.052-.037.009.682-2.37.004-.016h.016l2.714.037-.016.032-1.488-2-.01-.015.014-.011 1.99-1.504.008.029-2.151-.29-.016-.002.005-.015.643-2.324.014.012-1.572.685-.408.176c-.091.04-.138.059-.138.059l.14-.064.407-.182 1.563-.692.02-.009-.006.02-.636 2.327-.011-.018 2.152.286.04.005-.032.024-1.988 1.507.003-.025" fill="#263138"/><path d="m34.372 16.627-.061-.065-.013.003.004-.013-1.877-2.008-2.509 1.518-.008.015-.007-.006-.134.081.074-.138-.007-.006.015-.009 1.43-2.656-2.428-1.181-.013.007v-.014l-.082-.04.08-.042v-.013l.013.007 1.946-1.03-.989-2.616-.016-.005.01-.01v-.002l-.03-.08.081.03.01-.01.006.016 2.405.901.87-2.249-.013-.016.02-.003.02-.054.034.047.019-.002-.008.019 1.33 1.87.082.117.122-.056.408-.181 1.548-.687.006-.02.012.011.059-.025-.017.06.013.012-.019.009-.62 2.27 2.095.278.014-.01.004.013.092.012-.074.056.003.013-.017-.003-1.973 1.495 1.433 1.927h.065l-.012.024.01-.007.05.068h-.09l-.007.011-.009-.012-2.66-.034-.663 2.315.009.01-.014.003-.022.085Zm-1.869-2.13 1.827 1.956.644-2.24h-.01l.013-.01.022-.078.08.001.012-.01-.002.01 2.57.035-1.411-1.898-.011.009.002-.02-.04-.054.032-.025 1.916-1.447-2.027-.273-.005.018-.013-.02-.055-.007.015-.054-.013-.02.018.003.617-2.228-1.917.834-.139.059-.009-.02-.017.013-.095-.128-.53-.733-.79-1.096-.846 2.212.017.006-.023.01-.02.052-.052-.02-.024.01.007-.016-2.342-.871.966 2.54.01-.006-.006.018.025.066-.063.034-.006.017-.005-.012-1.88.998 2.375 1.153.006-.01.004.015.069.034-.037.067.005.014-.01-.005-1.36 2.528 2.365-1.43-.006-.006.014.001.07-.042.056.06.014.001-.007.005Z" fill="#B24B4B"/><path d="m34.003 10.527-.18 1.687a.275.275 0 0 1-.548-.01l-.114-1.71a.216.216 0 0 1 .228-.229l.412.024a.216.216 0 0 1 .202.238Zm-.857 2.716a.413.413 0 1 0 .794-.226.413.413 0 0 0-.794.226Z" fill="#B24B4B"/><path d="M5.702 20.438a7.377 7.377 0 0 0-.402.12l-.08.322s.33.331.341.35c.01.02.509-.221.509-.221l-.073-.252-.295-.32Z" fill="#E0B5A6"/><path d="M5.482 19.993c-.02-.012-.49.143-.782.372-.292.23-.274.336-.29.464-.018.128.194.342.376.467.181.126.887.271.975.27.088 0 .585-.17.581-.245-.003-.074-.11-.445-.213-.47-.104-.027-.534.168-.534.168l-.179-.132.064-.116s.194.135.44-.028c.246-.162-.438-.75-.438-.75Z" fill="#F8C8B4"/><path d="M3.922 18.097c.08.02 1.213.693 1.524.89.31.196 1.024.697 1.262.91.238.212 2.84 2.62 2.84 2.62l-1.417 1.2-.868-1.153s-.285.323-1.39-.395c0 0-.591-.026-.769-.138-.177-.112-1-.384-.743-.799.257-.415.874.132 1.224.167.35.034.41-.003.495-.272.084-.27-.901-1.197-1.092-1.535-.19-.338-.895-.597-1.125-1.048-.166-.324.059-.447.059-.447Z" fill="#F8C8B4"/><path d="M3.922 18.097c.002.002-.03.018-.066.069a.297.297 0 0 0-.03.258c.033.113.112.24.232.358.12.12.276.234.452.357.087.061.18.126.271.2a.95.95 0 0 1 .244.276c.14.205.327.402.51.617.093.108.188.218.28.335.092.117.185.238.254.381.016.037.03.075.037.117a.184.184 0 0 1-.004.068l-.019.056c-.027.073-.056.16-.138.206-.08.043-.167.038-.248.036a2.188 2.188 0 0 1-.122-.01l-.063-.012-.06-.017c-.152-.051-.289-.125-.428-.184-.137-.06-.281-.116-.421-.106a.284.284 0 0 0-.18.085.325.325 0 0 0-.087.177.264.264 0 0 0 .054.183.64.64 0 0 0 .14.141c.107.082.225.144.34.201l.172.084c.028.014.057.031.083.046a.491.491 0 0 0 .081.034c.23.068.461.084.668.099h.005l.003.003c.196.126.378.23.546.309.167.078.32.127.447.15.128.022.23.016.295-.005a.289.289 0 0 0 .07-.03c.015-.01.022-.016.023-.015 0 0-.005.008-.02.018a.264.264 0 0 1-.07.036.625.625 0 0 1-.301.014 1.832 1.832 0 0 1-.456-.143 4.645 4.645 0 0 1-.553-.306l.009.003a4.681 4.681 0 0 1-.328-.027 2.015 2.015 0 0 1-.35-.068.473.473 0 0 1-.089-.037c-.028-.016-.053-.03-.081-.044l-.173-.083a2.084 2.084 0 0 1-.347-.203.702.702 0 0 1-.15-.15.308.308 0 0 1-.062-.214.367.367 0 0 1 .099-.203.332.332 0 0 1 .208-.1c.157-.01.304.05.444.108.14.06.277.134.423.182.074.028.153.032.233.037.079.003.16.005.223-.029.062-.034.092-.11.117-.18l.019-.056a.145.145 0 0 0 .002-.048.412.412 0 0 0-.033-.104 2.129 2.129 0 0 0-.247-.373 9.745 9.745 0 0 0-.277-.334c-.183-.216-.368-.413-.51-.625a.91.91 0 0 0-.235-.268c-.09-.074-.18-.139-.268-.202a3.356 3.356 0 0 1-.451-.365.892.892 0 0 1-.232-.37c-.033-.12.001-.221.041-.27.04-.051.074-.063.074-.063Z" fill="#E0B5A6"/><path d="M16.753 42.862s-.008-.131.14-.23c.147-.098 1.097-.516 1.17-.556.074-.041 1.475-.32 1.499-.328.024-.008 2.056-.254 2.097-.262.04-.008.467-.197.467-.197s.753 1.22.729 1.22c-.025 0-.598.467-.95.541-.353.074-1.983.18-2.04.18-.058 0-1.065.156-1.302.131-.238-.024-.246-.237-.246-.237s-.614.123-.868.098c-.254-.024-.263-.155-.263-.155s-.39.092-.446-.015c-.057-.106.013-.19.013-.19Z" fill="#F8C8B4"/><path d="M19.903 42.698c0 .009-.092.012-.236.051-.144.035-.335.113-.554.186-.11.036-.217.064-.317.077-.1.013-.188.017-.261.028a.51.51 0 0 0-.166.047c-.035.02-.049.039-.052.036-.003 0 .006-.025.042-.051a.44.44 0 0 1 .17-.064c.074-.016.164-.024.26-.038.097-.016.201-.044.31-.08.215-.071.411-.145.56-.173a1.1 1.1 0 0 1 .178-.023c.043 0 .066.001.066.004ZM19.53 42.327a.403.403 0 0 1-.093.033c-.061.02-.15.044-.259.075l-.385.105c-.144.041-.3.092-.467.143-.166.05-.326.095-.474.124-.148.032-.286.038-.395.06a.391.391 0 0 0-.228.115c-.039.047-.037.086-.042.085-.001 0-.002-.009 0-.026a.156.156 0 0 1 .027-.07c.037-.057.123-.11.236-.137.114-.027.248-.035.393-.069.146-.032.304-.076.47-.127.165-.05.323-.1.469-.139l.387-.096c.11-.026.2-.047.263-.06a.387.387 0 0 1 .098-.016ZM19.2 42.086a.438.438 0 0 1-.096.027l-.267.061c-.224.05-.531.132-.864.244-.334.11-.633.221-.85.298-.109.039-.197.07-.259.09a.418.418 0 0 1-.096.026c-.001-.003.03-.018.09-.043l.253-.104c.215-.085.512-.2.847-.311a6.614 6.614 0 0 1 1.142-.279c.064-.01.1-.012.1-.009Z" fill="#E0B5A6"/><path d="M18.116 28.164s1.474-1.116 1.952-1.175c.478-.06 1.872.398 1.872.398l1.774-.017.81-.592s2.3.334 3.718.757l1.097.835c-.298-.085 3.17.938 3.207.95l-4.332 9.66.405 2.42-11.317.089s1.53-1.704 1.808-2.82c0 0-.018-4.649-.735-6.203l-.259-4.302Z" fill="#E46F6F"/><path d="m19.624 27.652-4.804-.722-5.207-5.078-2.5 2.61s3.894 4.766 5.428 5.742c1.534.976 6.188 2.212 6.188 2.212l2.825-1.957-1.93-2.807Z" fill="#E46F6F"/><path d="m28.348 27.461-3.869-.356s-.18 3.419-.162 4.902c.02 1.74.413 6.798.413 6.798s1.291-1.974 2.195-4.267c.904-2.294 1.528-5.976 1.528-5.976l-.105-1.1Z" fill="#FBFBFB"/><path d="M24.64 39.573c-.015.015-.111-.16-.258-.48a26.484 26.484 0 0 1-.576-1.38 27.268 27.268 0 0 1-.721-2.098c-.118-.401-.23-.826-.313-1.273-.079-.448-.15-.913-.218-1.39a75.826 75.826 0 0 1-.327-2.667l-.002-.026.026.003.695.08-.017.034-.583-.59-.01-.01.007-.013.995-1.747.277-.48.073-.125.027-.042-.022.045-.069.127-.267.485-.982 1.755-.003-.022.587.588.041.041-.058-.007-.695-.077.024-.023c.088.817.197 1.72.33 2.664.068.477.14.942.217 1.388.082.445.193.869.31 1.27.233.8.487 1.507.71 2.097.224.59.42 1.06.562 1.384.14.323.23.5.24.49ZM24.615 39.653l.022-.03.067-.087.26-.328.957-1.208c.402-.511.88-1.12 1.4-1.806.26-.343.529-.705.799-1.087a5.691 5.691 0 0 0 .689-1.264c.219-.547.378-1.099.505-1.631.124-.533.22-1.048.283-1.532l.02.024-.984-.003h-.078l.069-.035.987-.511-.008.016a114.161 114.161 0 0 0-.24-1.68l-.016-.091a.14.14 0 0 1-.007-.031c.001 0 .005.01.011.03.006.02.013.05.021.09.017.08.038.199.063.353.05.309.119.759.2 1.324v.01l-.01.006c-.292.155-.622.328-.983.517l-.009-.035.985-.003h.024l-.003.024a15.75 15.75 0 0 1-.28 1.537 11.536 11.536 0 0 1-.506 1.638 5.656 5.656 0 0 1-.695 1.273c-.271.382-.541.744-.802 1.086a119.505 119.505 0 0 1-2.376 3l-.268.323-.07.083a.162.162 0 0 1-.027.028ZM20 27.461c.002 0 .007.014.017.04l.039.118c.017.051.036.114.053.189s.041.159.055.254c.018.094.036.198.046.312.015.112.019.234.025.36.005.256-.009.537-.053.828-.048.29-.121.562-.204.803-.046.12-.087.234-.136.336a3.348 3.348 0 0 1-.14.282c-.042.087-.09.16-.13.225-.038.066-.076.12-.108.163l-.073.1a.156.156 0 0 1-.028.033.145.145 0 0 1 .02-.038 17.5 17.5 0 0 1 .066-.105c.03-.044.065-.1.101-.166.037-.067.083-.14.124-.227.044-.085.09-.178.133-.283.048-.102.086-.215.13-.334.08-.24.151-.509.198-.796.044-.289.059-.567.057-.819-.006-.126-.007-.246-.021-.358a3.69 3.69 0 0 0-.04-.31c-.012-.096-.033-.18-.048-.254a2.182 2.182 0 0 0-.045-.19c-.012-.048-.023-.087-.03-.12a.198.198 0 0 1-.008-.043ZM14.52 29.212c-.014-.002.05-.511.142-1.138.091-.627.176-1.134.189-1.132.013.002-.051.512-.143 1.139-.091.626-.176 1.133-.189 1.131ZM14.911 28.986c-.005-.006.079-.075.19-.207a1.888 1.888 0 0 0 .438-1.24c-.003-.172-.025-.278-.016-.28a1.223 1.223 0 0 1 .05.279 1.65 1.65 0 0 1-.01.308c-.016.115-.044.241-.088.368a1.68 1.68 0 0 1-.35.587c-.059.064-.111.113-.15.142a.254.254 0 0 1-.064.043Z" fill="#B24B4B"/><path d="m7.33 24.213-.383-.465 1.98-2.082.436.444-2.033 2.103Z" fill="#EBEBEB"/><path d="M19.243 30.244c.003 0-.002.03-.016.084a10.97 10.97 0 0 1-.712 1.864.292.292 0 0 1-.044.074c-.006-.003.04-.115.116-.296.075-.18.178-.43.284-.71.107-.279.197-.533.261-.718.065-.186.105-.3.111-.298ZM28.177 29.994a.288.288 0 0 1-.045.04l-.136.105-.508.382-.014.011-.01-.015-.787-1.252.036.004-.373.4-.92.982-.015.016-.015-.016-.782-.803c-.091-.095-.165-.172-.218-.23a.694.694 0 0 1-.075-.084.666.666 0 0 1 .084.075c.056.055.132.13.226.22l.794.792h-.03l.917-.984.374-.4.02-.022.016.026.777 1.258-.024-.005.517-.37.141-.099a.29.29 0 0 1 .05-.03ZM24.653 39.624c-.006.012-.61-.25-1.348-.584-.74-.335-1.334-.616-1.328-.627.005-.012.608.25 1.347.584.74.335 1.334.615 1.329.627Z" fill="#B24B4B"/><path d="M26.307 39.558c0 .013-.952.06-2.127.107-1.175.046-2.129.073-2.13.06 0-.013.953-.061 2.128-.107 1.175-.046 2.129-.073 2.13-.06Z" fill="#B24B4B"/><path d="M32.895 35.376c-.056.357-1.272 5.742-1.525 6.02-.252.278-9.208 1.897-9.208 1.897l-.535-2.494 6.396-1.535s-.048-.38.18-.46c.227-.08 2.281-6.44 2.281-6.44l2.06-3.045s1.093.673.519 2.947c0 0 .13 1.236-.168 3.11Z" fill="#E46F6F"/><path d="m31.546 31.504-.015.038-.046.112-.183.433-.702 1.622c-.303.694-.67 1.531-1.095 2.479-.213.473-.44.975-.686 1.497-.123.262-.25.529-.39.797-.034.067-.07.135-.108.2-.02.034-.04.067-.064.1l-.02.024c-.003.007-.025.02-.03.022-.016.007-.032.013-.046.024-.057.04-.088.112-.104.184a.756.756 0 0 0-.011.226l.002.02-.019.004-4.848 1.165c-.524.126-1.04.25-1.547.37l.017-.027.533 2.495-.026-.018c2.692-.488 5.003-.927 6.639-1.258a57.465 57.465 0 0 0 1.907-.413c.221-.053.39-.099.503-.135a.992.992 0 0 0 .125-.046c.028-.012.038-.024.04-.023 0 0-.01.013-.038.026a.946.946 0 0 1-.125.05c-.112.04-.28.087-.501.143-.441.112-1.09.256-1.906.425-1.633.34-3.944.784-6.635 1.276l-.022.004-.004-.021-.535-2.495-.005-.022.022-.005 1.548-.372 4.848-1.161-.017.024a.79.79 0 0 1 .012-.24.337.337 0 0 1 .122-.21c.017-.014.037-.021.055-.03.003 0 .006-.003.007-.002 0-.002.001-.002.002-.003a.019.019 0 0 0 .006-.007c.006-.006.012-.012.017-.02.022-.029.041-.062.06-.094.038-.065.074-.132.11-.198.138-.267.265-.534.39-.795.246-.522.474-1.023.689-1.496.428-.946.798-1.781 1.104-2.473l.713-1.618.19-.43.05-.11c.01-.026.017-.038.017-.038Z" fill="#B24B4B"/><path d="M29.01 39.823c-.01.01-.188-.184-.467-.337-.278-.157-.537-.205-.533-.22 0-.006.066 0 .17.025a1.618 1.618 0 0 1 .72.4.49.49 0 0 1 .11.132ZM29.559 38.968c-.005.014-.3-.083-.678-.125-.377-.045-.687-.018-.688-.032 0-.006.076-.02.202-.029a2.853 2.853 0 0 1 .973.112c.12.037.192.069.19.074ZM32.546 29.73c.005.003-.037.076-.108.19l-.279.448-.276.45a1.046 1.046 0 0 1-.123.181.982.982 0 0 1 .094-.198 8.741 8.741 0 0 1 .556-.9.953.953 0 0 1 .136-.171Z" fill="#B24B4B"/><path d="M24.576 18.72c1.082-1.009 2.45-1.438 3.913-1.23.826.116 1.924.445 2.067 1.106 0 0 .348.201.775.8.43.603.708 1.428.673 2.166-.037.758-.178 1.814-.66 2.53-.422.631-.569 1.19-1.105 1.728l-1.415-.108c-1.057-.13-2.655.824-3.64.422-.986-.402-1.694-1.43-1.9-2.43-.32-1.544.362-4.118 1.292-4.985Z" fill="#441B13"/><path d="m29.453 18.616-.487-.247-2.696.606a.715.715 0 0 0-.778.575l-.877 7.504h-.177l2.25 2.319L28.3 28.15l.055-.595s1.722.104 2.466-1.816c.37-.955.381-2.68.583-4.022.183-1.209-.46-2.86-1.95-3.1Z" fill="#F8C8B4"/><path d="M30.287 23.168a.261.261 0 0 1-.301.204.25.25 0 0 1-.214-.286.261.261 0 0 1 .301-.205.25.25 0 0 1 .214.287ZM30.88 22.542c-.039.026-.201-.158-.476-.216-.273-.062-.505.035-.527-.005-.012-.018.034-.07.135-.116a.717.717 0 0 1 .8.176c.071.083.086.15.068.161ZM29.008 24.296c.002-.016.179-.008.463.015.072.009.14.009.163-.036.028-.047.014-.13-.002-.218l-.093-.578c-.124-.822-.197-1.491-.165-1.496.034-.005.161.657.285 1.479.03.202.057.395.083.58.01.085.036.185-.023.282a.18.18 0 0 1-.137.078c-.048.004-.088-.004-.123-.01-.28-.044-.453-.08-.451-.096Z" fill="#441B13"/><path d="M28.357 27.553s-1.356-.201-2.51-1.283c0 0 .422 1.638 2.452 1.88l.058-.597Z" fill="#E0B5A6"/><path d="M30.819 21.67c-.029.081-.264.11-.518.216-.256.098-.448.24-.524.2-.034-.021-.025-.095.044-.19a.88.88 0 0 1 .378-.276.87.87 0 0 1 .461-.06c.115.023.17.07.159.11ZM27.255 22.861a.26.26 0 0 0 .202.303.25.25 0 0 0 .306-.185.261.261 0 0 0-.202-.303.25.25 0 0 0-.306.185ZM27.212 21.99c.026.04.246-.07.523-.02.276.045.454.223.49.195.017-.012-.005-.079-.082-.158a.71.71 0 0 0-.385-.198.688.688 0 0 0-.423.059c-.096.05-.136.105-.123.123ZM27.656 21.383c-.005.084.196.189.384.37.194.173.313.366.396.354.039-.007.059-.077.032-.188a.803.803 0 0 0-.236-.377.792.792 0 0 0-.392-.206c-.112-.018-.18.008-.184.047Z" fill="#441B13"/><path d="M25.302 22.974c.031-.148-.065-.534-.206-.588-.377-.145-1.088-.265-1.308.725-.301 1.353 1.12 1.376 1.131 1.338.008-.03.274-.963.383-1.475Z" fill="#F8C8B4"/><path d="M24.656 23.872c-.005-.006-.027.01-.07.02a.241.241 0 0 1-.178-.036c-.131-.084-.202-.338-.154-.583a.8.8 0 0 1 .141-.323c.064-.09.143-.145.218-.142.075 0 .117.054.125.096.01.042-.005.067.002.071.003.005.034-.016.035-.075a.156.156 0 0 0-.034-.096.181.181 0 0 0-.122-.064c-.106-.016-.222.06-.293.155a.827.827 0 0 0-.166.36c-.052.274.03.56.214.66.09.046.176.035.224.012.049-.023.063-.052.058-.055Z" fill="#E0B5A6"/><path d="m25.04 22.38.075.108a.48.48 0 0 0 .568.173c5.489-2.138 4.568-3.144 4.874-4.065 0 0-1.156-.524-2.301-.51-1.146.012-3.349.235-3.525 1.555-.177 1.32.31 2.74.31 2.74Z" fill="#441B13"/><path d="M27.737 24.926a.47.47 0 0 1 .205-.26c.184-.113.452.033.606.18.155.147.46.21.119.51a.526.526 0 0 1-.534.232c-.125-.023-.239-.153-.32-.26a.466.466 0 0 1-.076-.402Z" fill="#E0B5A6"/><path d="M28.425 25.564c.001.002-.032.02-.097.033a.553.553 0 0 1-.593-.301.577.577 0 0 1 .005-.508.397.397 0 0 1 .197-.19.388.388 0 0 1 .255-.001c.15.058.264.146.354.223.088.079.156.145.207.185.052.04.084.056.083.06-.001.002-.038-.008-.093-.045-.057-.036-.128-.1-.219-.174a1.217 1.217 0 0 0-.346-.208.348.348 0 0 0-.224.004.353.353 0 0 0-.172.168.542.542 0 0 0-.007.468.512.512 0 0 0 .284.265.572.572 0 0 0 .267.037c.064-.008.098-.02.1-.016Z" fill="#441B13"/><path d="M27.702 23.63c-.033.15-.327.213-.658.141-.33-.072-.573-.252-.54-.4.032-.15.327-.213.658-.141.33.072.572.251.54.4ZM30.38 24.148c.339 0 .613-.124.613-.277 0-.153-.274-.277-.612-.277-.339 0-.613.124-.613.277 0 .153.274.277.613.277ZM28.543 21.485c.38.231.703.305 1.123.159.365-.128.757-.467 1.144-.482.153-.006.329.08.425-.06a.265.265 0 0 0 .042-.131c.008-.127-.051-.388-.117-.582-.1-.297-.14-.356-.319-.605a.156.156 0 0 0-.236-.018c-.292.29-.588.688-.869.954-.4.38-.755.717-1.193.765Z" fill="#F5B2A8"/><path d="M41.294 43.672H30.476l1.887-7.816a.526.526 0 0 1 .505-.412h9.745c.339 0 .587.336.504.681l-1.823 7.547Z" fill="#C99494"/><path d="m41.295 43.672.02-.098.067-.282.257-1.08.948-3.963.316-1.312.167-.697c.014-.06.03-.12.04-.178a.535.535 0 0 0-.187-.485.497.497 0 0 0-.343-.113h-1.185l-1.663.001-3.57.002h-2.854c-.161.001-.327-.002-.485.002a.496.496 0 0 0-.378.248c-.048.075-.063.163-.085.254l-.065.267-.128.533-.254 1.052-.495 2.046-.921 3.807-.02-.026 7.809.01 2.217.006a255.335 255.335 0 0 0 .792.006l-.05.001a44.126 44.126 0 0 1-.735.004l-2.213.006-7.821.01h-.027l.006-.027.918-3.807.494-2.047.254-1.052.128-.532.065-.268c.021-.087.038-.184.09-.267a.544.544 0 0 1 .414-.27c.167-.005.327-.002.49-.003h2.854l3.57.002h1.663l.796.001h.389a.532.532 0 0 1 .367.124.577.577 0 0 1 .2.52c-.011.064-.027.122-.041.182l-.17.7c-.111.456-.217.895-.32 1.313l-.965 3.962-.264 1.075-.069.279-.023.094Z" fill="#AE8181"/><path d="M30.575 43.29h-3.607a.452.452 0 0 0-.452.452l-.005-.074h14.778l.098-.378" fill="#C99494"/><path d="M41.386 43.29s0 .008-.004.023l-.017.07-.07.286-.002.005h-.005c-1.1.01-4.89.017-9.39.017a29022.9 29022.9 0 0 1-5.388-.004l.02-.02.004.074-.038.001a.474.474 0 0 1 .47-.47h.225l.84.002 1.361.005a1699.832 1699.832 0 0 1 1.104.008c.052 0 .078.003.078.003l-.079.003-.23.003-.873.005-1.361.004-.84.002c-.148.006-.306-.023-.437.057a.435.435 0 0 0-.22.377l-.038.002a15.533 15.533 0 0 1-.005-.075l-.002-.02h.021l5.389-.005c4.5 0 8.29.007 9.39.017l-.006.005c.034-.128.06-.221.076-.285l.02-.068.007-.022Z" fill="#AE8181"/><path d="M36.61 39.38a.645.645 0 1 0 1.09.69.645.645 0 0 0-1.09-.69Z" fill="#fff"/><path d="m32.847 35.51-.002.021a58.315 58.315 0 0 1-.057.302l-.18.88a128 128 0 0 1-.646 2.887c-.266 1.125-.524 2.14-.718 2.872a54.838 54.838 0 0 1-.32 1.16.071.071 0 0 1-.009.021s0-.008.003-.021l.015-.062.058-.237.22-.87a185.297 185.297 0 0 0 1.363-5.757l.196-.875.055-.238.015-.062.007-.022Z" fill="#AE8181"/><path d="M33.582 19.009h-.072a.092.092 0 0 1-.092-.093v-.886c0-.05.041-.092.092-.092h.072c.05 0 .092.042.092.092v.886c0 .051-.041.093-.092.093Z" fill="#C68B8C"/><path d="M34.044 18.428v.09c0 .051-.041.093-.092.093h-.812a.092.092 0 0 1-.092-.092v-.091c0-.051.041-.092.092-.092h.812c.05 0 .092.04.092.092ZM36.986 26.102h-.072a.092.092 0 0 1-.092-.092v-.886c0-.05.042-.092.092-.092h.072c.05 0 .092.041.092.092v.886c0 .05-.041.092-.092.092Z" fill="#C68B8C"/><path d="M37.448 25.521v.091c0 .051-.041.092-.092.092h-.812a.092.092 0 0 1-.092-.092v-.09c0-.051.041-.093.092-.093h.812c.05 0 .092.042.092.092ZM17.026 21.65h-.085a.092.092 0 0 1-.092-.092v-.94c0-.05.041-.092.092-.092h.085c.05 0 .091.042.091.092v.94c0 .05-.04.092-.091.092Z" fill="#C68B8C"/><path d="M17.506 21.036v.104c0 .051-.042.093-.092.093h-.862a.092.092 0 0 1-.092-.093v-.104c0-.051.041-.092.092-.092h.862c.05 0 .092.04.092.092ZM22.552 19.608h-.09a.098.098 0 0 1-.099-.099v-1.003c0-.054.044-.098.099-.098h.09c.054 0 .098.044.098.098v1.003a.099.099 0 0 1-.098.099Z" fill="#C68B8C"/><path d="M23.065 18.952v.112a.098.098 0 0 1-.099.098h-.92a.098.098 0 0 1-.098-.098v-.112c0-.055.044-.099.099-.099h.92c.053 0 .098.045.098.099ZM37.207 19.44h-.077a.098.098 0 0 1-.098-.1v-.945c0-.055.044-.099.098-.099h.077c.055 0 .099.044.099.099v.946a.099.099 0 0 1-.099.098Z" fill="#C68B8C"/><path d="M37.7 18.819v.097a.098.098 0 0 1-.098.099h-.867a.098.098 0 0 1-.098-.099v-.097c0-.054.044-.098.098-.098h.867c.054 0 .098.044.098.098ZM20.313 13.717c.179.501.398.984.662 1.44.09.157.287.147.379 0l.169-.268.08-.128.04-.064.017-.026c.045-.063.01-.047-.104.047l-.11-.032c-.007-.004-.025-.032-.031-.032.005 0 .027.047.03.053l.06.107.12.213.248.441.49.869c.06.109.196.15.3.084a.249.249 0 0 0 .078-.322c-.25-.446-.5-.891-.752-1.336l-.18-.32c-.085-.149-.233-.259-.396-.16-.103.061-.165.203-.229.304l-.21.332h.38a8.144 8.144 0 0 1-.618-1.328c-.043-.118-.147-.2-.27-.164-.106.031-.196.17-.153.29ZM35.735 19.773a7.05 7.05 0 0 0-1.399.284c-.157.049-.198.244-.097.373l.186.235.089.112.044.056.018.022c.042.06.038.022-.014-.114l.056-.101c.005-.006.034-.016.036-.022-.002.005-.048.015-.054.016l-.106.032-.214.064-.44.132-.865.26a.23.23 0 0 0-.149.274c.029.116.146.192.255.16l1.333-.4c.106-.031.213-.062.32-.095.148-.046.28-.164.238-.35-.026-.116-.132-.214-.202-.302l-.23-.292-.097.374c.423-.133.86-.226 1.291-.27.112-.01.21-.093.21-.223 0-.112-.096-.237-.21-.226ZM18.03 16.813c.497.051.99.148 1.47.299.164.051.208.257.1.392l-.194.247-.093.118-.047.059-.018.023c-.045.063-.04.023.014-.12l-.059-.106c-.005-.006-.035-.017-.037-.023.002.006.05.015.056.017l.112.034.224.067.462.138.91.272a.242.242 0 0 1 .156.288c-.03.122-.154.203-.268.169l-1.4-.42-.335-.1c-.156-.048-.295-.172-.251-.367.027-.123.138-.225.212-.319l.242-.305.101.392a6.905 6.905 0 0 0-1.355-.283c-.118-.012-.22-.098-.22-.235 0-.118.1-.249.218-.237ZM37.408 23.282a7.102 7.102 0 0 0-1.379-.38c-.161-.027-.276.13-.235.294l.076.298.036.142.018.07.007.03c.014.073.025.036.032-.11l.09-.067c.007-.002.038.001.041-.003-.003.004-.048-.009-.054-.01l-.11-.02-.218-.038-.45-.081-.887-.16a.214.214 0 0 0-.243.18c-.02.119.056.242.168.262l1.364.245.328.06c.152.026.318-.021.353-.209.023-.117-.034-.253-.063-.366a99.664 99.664 0 0 0-.093-.37l-.236.295c.435.072.868.188 1.276.344.106.041.227.01.278-.107.046-.102.008-.258-.099-.3ZM19.088 21.382a6.29 6.29 0 0 1 1.09-.587c.13-.055.254.055.247.2l-.013.264-.006.126-.003.063-.002.025c0 .064-.015.036-.046-.085l-.086-.038c-.006-.001-.031.008-.035.005.003.002.04-.017.044-.019l.088-.038.176-.075.363-.156.715-.306a.178.178 0 0 1 .235.103c.036.095-.007.213-.097.252l-1.1.472-.264.113c-.123.052-.27.045-.331-.105-.039-.094-.015-.22-.01-.32l.016-.326.247.2a5.848 5.848 0 0 0-1.01.538c-.081.055-.188.052-.25-.036-.055-.076-.05-.214.032-.27ZM19.181 15.647c.243 0 .44-.211.44-.472 0-.26-.197-.471-.44-.471-.242 0-.439.21-.439.471 0 .26.197.472.44.472ZM37.118 21.48c.23 0 .418-.202.418-.45s-.187-.45-.418-.45c-.23 0-.418.202-.418.45s.187.45.418.45Z" fill="#C68B8C"/><path d="M29.614 22.013c0 .006-.04.012-.098-.014a.274.274 0 0 1-.152-.188c-.02-.1.02-.189.063-.234.042-.048.082-.058.084-.054.004.007-.027.028-.057.075a.277.277 0 0 0-.043.203c.017.08.075.14.12.168.048.03.084.037.084.044ZM28.909 21.69c.006-.001.016.025.016.07a.345.345 0 0 1-.049.168.34.34 0 0 1-.122.123c-.04.023-.067.027-.07.02-.006-.012.089-.06.15-.168.065-.106.06-.212.075-.213Z" fill="#441B13"/><path d="M21.17 23.72c-.026.007-1.152.154-1.119.145.117-.136.12-.241.02-.38-.105-.142-.264-.157-.44-.131-.165.025-.335.07-.457.186-.12.116-.174.316-.079.455-.281-.075-.6.168-.602.46-.002.29.313.538.596.467-.174.16-.193.453-.056.646a.599.599 0 0 0 .63.214.734.734 0 0 0 .488-.474c.037.163.265.226.404.134.138-.092.182-.286.138-.446-.044-.16-.158-.293-.281-.404l.904-.353" fill="#fff"/><path d="M21.316 24.238c0 .002-.02.01-.06.028l-.175.073-.663.266.004-.025c.074.067.15.144.212.24.06.097.105.22.09.35-.01.125-.08.27-.224.318a.323.323 0 0 1-.217-.008.246.246 0 0 1-.152-.168l.04.003a.793.793 0 0 1-.296.392.642.642 0 0 1-.511.1.562.562 0 0 1-.416-.353.526.526 0 0 1 .124-.55l.022.04c-.03.007-.063.013-.096.013a.531.531 0 0 1-.395-.177.468.468 0 0 1-.126-.402c.057-.286.362-.473.623-.405l-.024.034a.339.339 0 0 1-.036-.284.45.45 0 0 1 .155-.228c.146-.113.321-.146.48-.166a.557.557 0 0 1 .24.02.35.35 0 0 1 .18.141c.041.06.073.133.062.207a.362.362 0 0 1-.094.178l-.008.005c.029-.027-.01-.032-.003-.03h.005l.008-.001.016-.002.033-.004.063-.007.122-.014a53.04 53.04 0 0 0 .575-.07l.22-.025a2.797 2.797 0 0 0 .077-.007.414.414 0 0 1-.075.015l-.22.034-.351.05-.222.03-.122.016-.063.008-.033.004-.016.002-.009.001h-.007c.006.003-.036-.003-.005-.03l-.008.005a.333.333 0 0 0 .085-.163c.009-.061-.018-.125-.058-.182a.313.313 0 0 0-.163-.127.527.527 0 0 0-.224-.015c-.154.02-.324.055-.457.16a.405.405 0 0 0-.14.207.296.296 0 0 0 .031.247l.034.05-.058-.016c-.233-.062-.517.114-.565.37-.053.26.2.53.473.523.03 0 .059-.006.085-.01l.083-.016-.06.056a.48.48 0 0 0-.112.5c.057.17.216.285.381.323.168.04.343 0 .477-.092a.747.747 0 0 0 .28-.37l.025-.069.016.072a.205.205 0 0 0 .127.138c.06.025.129.028.189.01.122-.04.19-.17.2-.286a.514.514 0 0 0-.082-.327 1.146 1.146 0 0 0-.203-.237l-.018-.016.022-.008.668-.254.179-.066c.04-.013.06-.02.061-.019Z" fill="#C68B8C"/><path d="M21.06 23.902c.004.013-.16.07-.365.127-.205.058-.374.095-.378.082-.003-.013.16-.07.365-.128.205-.057.375-.094.378-.081ZM21.029 23.535c0 .013-.123.032-.276.042-.153.01-.277.007-.278-.006-.001-.014.122-.032.275-.042.154-.01.278-.007.279.006ZM21.433 24.473c.009.01-.075.107-.187.216-.113.11-.212.191-.22.182-.01-.01.074-.106.186-.216.113-.11.211-.191.22-.182Z" fill="#C68B8C"/><path d="M13.891 42.342c.257-.314.36-.75.267-1.146a.477.477 0 0 0-.136-.264c-.14-.118-.36-.075-.514.025-.154.1-.274.248-.43.344a.273.273 0 0 1-.158.052c-.056-.004-.105-.035-.153-.063-.21-.12-.461-.187-.696-.129-.234.059-.44.265-.446.507-.006.199.115.378.245.529.253.293.564.544.752.883.068.12.119.253.207.36.172.206.46.286.728.27.268-.014.524-.112.775-.206.185-.069.374-.138.572-.14.107 0 .214.018.32.003.352-.052.548-.5.41-.828-.138-.328-.518-.506-.873-.49-.259.012-.538.107-.765-.018l-.105.311Z" fill="#EEC7C6"/><path d="M14.397 42.776c-.222.272-.676.325-.943.085-.13-.116-.24-.381-.032-.481.21-.1.427.068.585.189l.019-.145c-.168.026-.291-.138-.374-.259-.111-.16-.202-.337-.353-.466a.709.709 0 0 0-.56-.184c-.185.026-.36.143-.419.327-.059.186.012.413.19.506.09.047.17-.089.08-.136-.128-.066-.166-.237-.104-.362.073-.148.265-.205.42-.178.373.064.498.462.717.715.116.134.264.217.444.19.076-.012.065-.109.019-.145-.172-.131-.365-.264-.593-.234-.203.026-.362.185-.345.397.031.402.471.613.832.569a.8.8 0 0 0 .528-.277c.065-.078-.046-.19-.11-.111ZM14.87 42.583c0-.014-.005.015-.001.002l.002-.01c.001.002-.008.015-.003.009a.046.046 0 0 0 .006-.012c.004-.009-.004.008-.005.006l.008-.008c.005-.004-.008.004-.001 0 .005-.002.01-.006.014-.009.013-.008 0 0 0 0l.016-.005c.002 0 .015-.002.017-.004 0 0-.017 0-.008.001h.025c.018 0-.011-.003.001 0l.015.004.01.003c-.002.001-.015-.007-.008-.002a.077.077 0 0 0 .012.007c.008.004-.006-.003-.006-.005l.01.01.006.007-.002-.004a.543.543 0 0 1 .01.019c.008.012-.002-.01.003.003l.006.021c.002.008.002.022.002.007v.038l-.001.013v-.002a.322.322 0 0 1-.012.04l-.004.01.002-.004-.013.023-.01.016-.006.007a.344.344 0 0 1-.054.052c.006-.005-.004.002-.004.002l-.012.009a1.32 1.32 0 0 1-.152.081c-.039.017-.05.075-.03.108.026.039.068.047.109.029a.823.823 0 0 0 .22-.136c.068-.06.111-.14.122-.23a.268.268 0 0 0-.075-.228.231.231 0 0 0-.213-.049.197.197 0 0 0-.155.18c-.002.042.038.082.08.08a.08.08 0 0 0 .078-.079Z" fill="#F8E3E3"/><path d="M17.861 42.933a.914.914 0 0 0-.12-.71c-.06-.091-.141-.175-.247-.197-.167-.037-.33.092-.412.241-.083.15-.114.323-.19.476a.214.214 0 0 1-.052.076c-.036.03-.087.037-.134.043-.297.037-.605.087-.854.257-.247.17-.416.491-.318.775.061.176.214.31.385.384.06.026.124.046.174.088.065.053.1.133.144.204.207.322.646.43 1.022.358.377-.073.706-.29 1.025-.504-.011-.172.037-.342.06-.513.039-.294-.002-.61-.175-.85-.174-.241-.498-.384-.78-.29l.472.162Z" fill="#EEC7C6"/><path d="M17.233 43.015c.269.197.282.643 0 .833a.554.554 0 0 1-.455.08c-.15-.041-.318-.192-.277-.364.025-.102.235-.183.28-.056l.09-.09c-.357-.083-.697-.427-1.083-.246a.369.369 0 0 0-.21.34c0 .135.072.264.208.3.091.024.13-.117.039-.14-.087-.024-.111-.12-.1-.2.018-.121.12-.188.237-.201.315-.037.576.22.87.288.05.012.108-.035.09-.09-.067-.19-.31-.211-.456-.101-.2.15-.112.438.049.58.362.318.986.08 1.062-.39a.693.693 0 0 0-.271-.67c-.076-.054-.148.072-.073.127Z" fill="#F8E3E3"/></g></g><defs><clipPath id="a"><rect width="48" height="48" rx="24" fill="#fff"/></clipPath><clipPath id="b"><path fill="#fff" d="M0 0h48v48H0z"/></clipPath></defs></svg>