<svg width="48" height="48" fill="none" xmlns="http://www.w3.org/2000/svg"><g clip-path="url(#a)"><rect width="48" height="48" rx="24" fill="#fff"/><g clip-path="url(#b)"><path d="M17.389 2.244H4.264L4.091 3.88h13.298V2.244ZM17.389 3.88H4.264l-.173 1.638h13.298V3.881ZM17.389 5.518H4.264l-.173 1.638h13.298V5.518ZM17.389 7.156H4.264l-.173 1.637h13.298V7.156ZM17.389 8.793H4.264l-.173 1.637h13.298V8.793ZM17.389 10.43H4.264l-.173 1.638h13.298V10.43ZM17.389 12.068H4.264l-.173 1.637h13.298v-1.637ZM17.389 13.705H4.264l-.173 1.638h13.298v-1.638ZM17.389 15.343H4.264l-.173 1.637h13.298v-1.637ZM17.389 16.98H4.264l-.173 1.637h13.298V16.98ZM17.389 18.617H4.264l-.173 1.638h13.298v-1.638Z" stroke="#F8E3E3" stroke-width=".089" stroke-miterlimit="10" stroke-linecap="round" stroke-linejoin="round"/><path d="M17.389 20.255H4.264l-.173 1.637h13.298v-1.637ZM17.389 21.893H4.264l-.173 1.637h13.298v-1.637ZM17.389 23.53H4.264l-.173 1.637h13.298V23.53ZM17.389 25.167H4.264l-.173 1.637h13.298v-1.637ZM30.883 2.244H17.758l-.173 1.637h13.298V2.244Z" stroke="#F8E3E3" stroke-width=".089" stroke-miterlimit="10" stroke-linecap="round" stroke-linejoin="round"/><path d="M30.883 3.881H17.758l-.173 1.637h13.298V3.881ZM30.883 5.518H17.758l-.173 1.638h13.298V5.518ZM30.883 7.156H17.758l-.173 1.637h13.298V7.156ZM30.883 8.793H17.758l-.173 1.637h13.298V8.793ZM30.883 10.43H17.758l-.173 1.638h13.298V10.43ZM30.883 12.068H17.758l-.173 1.637h13.298v-1.637ZM30.883 13.705H17.758l-.173 1.638h13.298v-1.638ZM30.883 15.343H17.758l-.173 1.637h13.298v-1.637ZM30.883 16.98H17.758l-.173 1.637h13.298V16.98ZM30.883 18.617H17.758l-.173 1.638h13.298v-1.638Z" stroke="#F8E3E3" stroke-width=".089" stroke-miterlimit="10" stroke-linecap="round" stroke-linejoin="round"/><path d="M30.883 20.255H17.758l-.173 1.637h13.298v-1.637ZM30.883 21.892H17.758l-.173 1.638h13.298v-1.638ZM30.883 23.53H17.758l-.173 1.637h13.298V23.53ZM30.883 25.167H17.758l-.173 1.637h13.298v-1.637ZM31.54.976H3.785V2.21H31.54V.976ZM31.54 2.211v21.754M31.237 2.246V17.17M31.736 23.917h-.374v.554h.374v-.554ZM31.4 17.052h-.373v.555h.374v-.555Z" stroke="#F8E3E3" stroke-width=".089" stroke-miterlimit="10" stroke-linecap="round" stroke-linejoin="round"/><path d="M18.204 12.472c.115.276-1.444 1.416 1.43 4.169h6.95c.563-.333.973-1.664 1.433-2.008.515-.385.848-.973.776-1.558-.088-.707-.734-1.368-.523-2.056-.261.11-.475.302-.593.531-.277-.132-.316-.475-.2-.73.118-.253.346-.456.504-.693a1.475 1.475 0 0 0-.182-1.836c.066.622-.34 1.263-.986 1.55.175-.397.05-.88-.304-1.175-.224-.186-.52-.297-.743-.485-.733-.618-.434-1.839-1.261-2.363l-.46 1.36c-.38-.132-.546-.527-.551-.881-.005-.354.104-.706.073-1.06-.032-.352-.266-.735-.67-.8.03.048.063.538-.046.649-.675.687-1.446 1.194-1.655 2.077a3.7 3.7 0 0 0-1.329-1.349c.38.511.458 1.18.204 1.746-.157.35-.428.653-.614.993-.187.339-.28.753-.07 1.082a4.738 4.738 0 0 0-1.627-1.197c.224.174.31.446.325.706.014.26-.033.519-.027.778.006.217-.006.484-.017.77-.273-.25-.61-.444-.941-.634.145.18.297.388.247.602-.056.236-.332.382-.45.6-.121.22-.058.491.092.7.15.207.376.366.6.517l.615-.005Z" fill="#F8E3E3"/><path d="M19.92 16.027c-.634-.604-1.312-1.396-1.407-2.083-.057-.405.11-.645.257-.857.134-.193.336-.485.185-.846l-.159-.382.042-1.145.005-.126c.008-.215.016-.42.014-.603l1.228-.681c-.042-.067-.024-.245.092-.457.064-.117.148-.239.236-.367.11-.16.231-.336.334-.533l.754 1.357.476-2.004c.094-.396.362-.704.719-1.045v.05c.004.291.078.573.214.815.185.33.475.57.838.696l.817.282.072-.213c.12.279.294.554.57.787.165.14.338.239.49.326.102.058.198.113.256.162a.393.393 0 0 1 .114.437l-.738 1.679 1.366-.609a1.166 1.166 0 0 0 .596 1.484l.41.196.066.146c.108.238.21.463.233.654.04.327-.158.707-.506.967-.337.251-.56.657-.817 1.126-.11.202-.225.41-.337.579-.07.105-.123.17-.159.208H19.92Zm-2.051-4.24a.993.993 0 0 1-.203-.19.204.204 0 0 1-.032-.064l.076-.079.032-.033.398.364-.271.003Z" fill="#EEC7C6"/><path d="M20.453 15.026c-.669-.709-.771-1.091-.786-1.201-.01-.064-.01-.066.101-.226.617-.891.373-1.477.28-1.698l-.083-.202.035-.954.008-.208.682-.379 1.259 2.263.92-3.875c.14.077.29.144.45.199l.675.233c.12.148.253.284.401.409.137.116.273.21.397.288l-1.625 3.69 2.612-1.163c.223.348.55.634.95.825l.04.02c.031.071.059.14.071.185a.35.35 0 0 1-.108.127c-.52.389-.804.906-1.105 1.453l-.118.214h-5.056Z" fill="#fff" opacity=".3"/><path d="M24.271 5.648a19.244 19.244 0 0 0-.043-.161.448.448 0 0 1-.02-.14c.005-.105.079-.18.073-.286.02.054.045.101.064.156.02.054.033.12.024.181a.416.416 0 0 1-.033.106l-.06.145" fill="#F8E3E3"/><path opacity=".19" d="M55.01 43.5H-2.335v8.051H55.01v-8.05Z" fill="#D2AEAD"/><g opacity=".51"><path d="M12.469 39.894s-.551-3.591-.505-5.68c.045-2.09-.003-4.44-.003-4.44h.254s-.172 4.146.015 6.648c.187 2.5.68 3.472.68 3.472h-.441Z" fill="#E0E0E0"/><path d="M14.11 25.733c-.05-.123-.113-.25-.23-.32-.162-.098-.373-.057-.553.003-.767.257-1.447 1.613-1.758 2.326l1.019 3.253c1.839-1.617 2.157-3.738 1.523-5.262Z" fill="#EBEBEB"/><path d="M13.819 25.544a.2.2 0 0 1-.015.042l-.05.119a15.667 15.667 0 0 0-.694 1.904 15.559 15.559 0 0 0-.44 1.97l-.022.126a.184.184 0 0 1-.01.044.17.17 0 0 1 .002-.045l.014-.127a13.276 13.276 0 0 1 1.136-3.88 12.268 12.268 0 0 1 .079-.153Z" fill="#E0E0E0"/><path d="M12.136 31.775a2.928 2.928 0 0 1-1.57-2.474c-.038-.721.197-1.43.462-2.108.023-.058.05-.122.108-.152.08-.044.18-.005.26.038.694.374 1.115 1.088 1.339 1.814.149.484.226.993.157 1.493-.07.5-.371 1.043-.756 1.39Z" fill="#E0E0E0"/><path d="M12.134 31.775a.172.172 0 0 1-.003-.043l-.003-.125a11.895 11.895 0 0 0-.191-1.962 22.545 22.545 0 0 0-.33-1.482l-.113-.447c-.012-.049-.021-.09-.03-.121a.176.176 0 0 1-.007-.043c.002 0 .007.013.016.04l.037.12c.031.105.075.257.126.444.102.376.236.898.342 1.482.106.585.155 1.12.165 1.509.006.194.006.35.001.46l-.005.125a.168.168 0 0 1-.005.043ZM13.213 37.27c.94.195 1.714.824 2.62 1.129.6.202 1.279.274 1.758.671-.115-.275-.388-.458-.652-.614a11.99 11.99 0 0 0-2.375-1.075c-.427-.14-.89-.257-1.324-.142M11.853 38.063c-1.177-.017-2.417-.967-3.588-1.024 1.226-.375 2.981-.069 3.588 1.024ZM12.313 35.388c.598-.204 1.254-.214 1.882-.122.628.093 1.235.283 1.837.474-.06-.388-.391-.679-.702-.936-.233-.194-.469-.389-.737-.537-.269-.149-.575-.25-.885-.237a1.43 1.43 0 0 0-.977.466 1.504 1.504 0 0 0-.418.892ZM9.898 34.156c-.741-.6-1.863-.54-2.837-.52 1.497.678 3.11 1.608 4.4 2.599.04-.653-.627-1.322-1.563-2.079ZM12.646 33.328a8.35 8.35 0 0 1 1.14-.627c.39-.168.754-.436 1.13-.629.49-.25.912-.599 1.36-.91.45-.31.942-.59 1.49-.673-.447-.088-.915-.04-1.355.074-.44.114-.86.293-1.276.47-.578.247-1.166.5-1.639.9-.472.401-.9.796-.85 1.395Z" fill="#EBEBEB"/><path d="M15.812 38.064a.144.144 0 0 1-.037-.016l-.103-.05c-.088-.045-.216-.11-.376-.187a6.173 6.173 0 0 0-.263-.123 6.42 6.42 0 0 0-.306-.133 4.681 4.681 0 0 0-.724-.24 1.64 1.64 0 0 0-.755-.018 2.216 2.216 0 0 0-.32.091 1.634 1.634 0 0 0-.583.38c-.068.07-.102.112-.105.11a1.097 1.097 0 0 1 .092-.12 1.589 1.589 0 0 1 .582-.4 2.17 2.17 0 0 1 .324-.096 1.65 1.65 0 0 1 .774.015c.269.06.513.154.73.244.11.046.212.091.306.137.095.044.183.087.261.129a7.769 7.769 0 0 1 .503.277ZM10.976 37.51a1.756 1.756 0 0 1 .266.1c.158.074.366.2.562.378.195.178.336.37.42.517.043.074.074.135.092.178a.255.255 0 0 1 .024.07c-.007.002-.05-.092-.141-.234a2.56 2.56 0 0 0-.972-.884c-.153-.08-.254-.118-.251-.124ZM8.372 34.1c0-.001.018.004.05.014l.142.048.222.078c.087.03.181.075.288.12.424.182.987.489 1.532.925.269.221.512.447.715.667.202.22.374.428.507.608.134.181.237.331.306.435l.08.12a.267.267 0 0 1 .027.043l-.033-.039a4.146 4.146 0 0 1-.087-.115c-.074-.102-.18-.25-.316-.427a7.565 7.565 0 0 0-1.225-1.262 7.252 7.252 0 0 0-1.518-.93c-.105-.046-.199-.093-.284-.125l-.22-.084a18.174 18.174 0 0 1-.186-.076ZM14.079 34.76a.44.44 0 0 1-.094-.011l-.108-.02c-.042-.007-.09-.007-.144-.012a1.554 1.554 0 0 0-.81.15 1.46 1.46 0 0 0-.367.26 1.58 1.58 0 0 0-.237.277c-.118.17-.154.295-.161.292a.327.327 0 0 1 .024-.087 1.504 1.504 0 0 1 .347-.508c.1-.099.225-.197.375-.269.299-.154.617-.166.831-.144.055.007.104.01.146.02l.108.025a.44.44 0 0 1 .09.028ZM15.264 31.283c0 .001-.015.01-.045.026l-.13.067a14.29 14.29 0 0 0-.48.256 9.995 9.995 0 0 0-.68.42 5.611 5.611 0 0 0-.762.605c-.122.12-.234.246-.312.383-.077.14-.15.276-.219.406-.135.26-.247.5-.327.705-.08.206-.13.377-.159.497-.03.12-.04.187-.045.186a1.879 1.879 0 0 1 .03-.19c.024-.12.07-.294.146-.502a6.66 6.66 0 0 1 .32-.712c.067-.131.14-.267.217-.408.081-.143.195-.27.318-.392.25-.242.518-.438.77-.607a9.08 9.08 0 0 1 1.175-.66l.135-.06a.218.218 0 0 1 .048-.02ZM11.961 34.66a.442.442 0 0 1-.023-.094l-.052-.258a6.937 6.937 0 0 0-.222-.837c-.109-.321-.24-.6-.336-.802l-.115-.24a.438.438 0 0 1-.038-.089.464.464 0 0 1 .053.083c.03.054.075.134.127.233.103.2.24.48.349.803a5.577 5.577 0 0 1 .25 1.105c.007.061.01.096.007.096Z" fill="#E0E0E0"/><path d="M11.877 32.122a2.909 2.909 0 0 0-.383-1.204c-.571-1.024-1.644-1.782-2.843-2.01l2.633 3.719.34.663c.231-.36.282-.746.253-1.168ZM15.653 39.45h-6.12v1.028h6.12V39.45Z" fill="#EBEBEB"/><path d="m9.99 40.274.52 3.19h4.064l.622-3.19H9.989Z" fill="#EBEBEB"/><path d="M15.649 40.48c0 .01-1.381.02-3.084.02-1.704 0-3.084-.01-3.084-.02 0-.012 1.38-.021 3.084-.021 1.703 0 3.084.009 3.084.02Z" fill="#E0E0E0"/></g><path d="M58.33 43.482H-1.754" stroke="#B24B4B" stroke-width=".044" stroke-miterlimit="10"/><path d="M40.33 8.8a4.278 4.278 0 1 0-6.05-6.05 4.278 4.278 0 0 0 6.05 6.05Z" stroke="#F8E3E3" stroke-width=".089" stroke-miterlimit="10" stroke-linecap="round" stroke-linejoin="round"/><path d="M41.212 6.416a3.957 3.957 0 1 0-7.809-1.283 3.957 3.957 0 0 0 7.81 1.283Z" stroke="#F8E3E3" stroke-width=".089" stroke-miterlimit="10" stroke-linecap="round" stroke-linejoin="round"/><path d="M37.645 5.775a.34.34 0 1 1-.68 0 .34.34 0 0 1 .68 0ZM36.966 5.775H35.81M37.305 6.115v2.593" stroke="#F8E3E3" stroke-width=".089" stroke-miterlimit="10" stroke-linecap="round" stroke-linejoin="round"/><path d="m34.162 41.36.026-.02v-3.597h-.517V35.47h1.912v2.273h-.516v3.659l4.573 1.457v.362a.413.413 0 0 1-.827 0v-.051l-3.824-.445v.548a.362.362 0 1 1-.723 0v-.567l-3.98.463v.052a.413.413 0 1 1-.826 0v-.362l4.702-1.498Z" fill="#263138" stroke="#263138" stroke-width=".044" stroke-miterlimit="10" stroke-linecap="round" stroke-linejoin="round"/><path d="M28.363 35.889h12.05c.098 0 .177-.08.177-.178v-2.282a.178.178 0 0 0-.177-.178h-12.05a.178.178 0 0 0-.177.178v2.282c0 .098.08.178.177.178Z" fill="#263138" stroke="#263138" stroke-width=".044" stroke-miterlimit="10" stroke-linecap="round" stroke-linejoin="round"/><g opacity=".65"><path d="m34.741 27.357.022.53h5.992v-1.083l-6.014.553Z" stroke="#C99494" stroke-width=".044" stroke-miterlimit="10" stroke-linecap="round" stroke-linejoin="round"/><path d="m34.454 27.202 6.478-.597v1.482h-6.5s-.066-.221.089-.221h6.124v-1.061l-6.168.574s-.266-.155-.023-.177Z" fill="#C99494"/><path d="m40.69 27.048-2.012.177" stroke="#263138" stroke-width=".044" stroke-miterlimit="10" stroke-linecap="round" stroke-linejoin="round"/><path d="m39.053 27.424-2.432.154" stroke="#C99494" stroke-width=".044" stroke-miterlimit="10" stroke-linecap="round" stroke-linejoin="round"/><path d="m40.6 27.446-.641.066M39.671 27.534l-.287.044" stroke="#263138" stroke-width=".044" stroke-miterlimit="10" stroke-linecap="round" stroke-linejoin="round"/><path d="m34.652 24.873.022.531h5.992v-1.083l-6.014.552Z" stroke="#C99494" stroke-width=".044" stroke-miterlimit="10" stroke-linecap="round" stroke-linejoin="round"/><path d="m34.365 24.719 6.478-.597v1.481h-6.5s-.066-.22.088-.22h6.125V24.32l-6.168.575s-.266-.155-.023-.177Z" fill="#C56262"/><path d="m40.6 24.564-2.012.177" stroke="#263138" stroke-width=".044" stroke-miterlimit="10" stroke-linecap="round" stroke-linejoin="round"/><path d="m38.964 24.94-2.432.155" stroke="#C99494" stroke-width=".044" stroke-miterlimit="10" stroke-linecap="round" stroke-linejoin="round"/><path d="m40.511 24.962-.64.066M39.583 25.05l-.287.045" stroke="#263138" stroke-width=".044" stroke-miterlimit="10" stroke-linecap="round" stroke-linejoin="round"/><path d="m34.611 23.95.078.526 5.958-.622-.112-1.078-5.924 1.175Z" stroke="#C99494" stroke-width=".044" stroke-miterlimit="10" stroke-linecap="round" stroke-linejoin="round"/><path d="m34.31 23.827 6.38-1.267.154 1.473-6.464.675s-.09-.212.064-.228l6.091-.637-.11-1.055L34.35 24s-.28-.126-.04-.173Z" fill="#EA8888"/><path d="m40.494 23.025-1.982.385" stroke="#263138" stroke-width=".044" stroke-miterlimit="10" stroke-linecap="round" stroke-linejoin="round"/><path d="m38.907 23.569-2.403.407" stroke="#C99494" stroke-width=".044" stroke-miterlimit="10" stroke-linecap="round" stroke-linejoin="round"/><path d="m40.449 23.43-.632.133M39.534 23.615l-.281.073" stroke="#263138" stroke-width=".044" stroke-miterlimit="10" stroke-linecap="round" stroke-linejoin="round"/><path d="m40.532 25.84.024.53-5.968.523-.095-1.079 6.039.026Z" stroke="#C99494" stroke-width=".044" stroke-miterlimit="10"/><path d="m40.805 25.66-6.505-.029.13 1.476 6.474-.567s.047-.227-.107-.213l-6.1.534-.093-1.057 6.194.035s.25-.177.007-.178Z" fill="#E46F6F"/><path d="m34.58 26.05 2.02.001M36.243 26.282l2.436-.058M34.703 26.44l.645.01M35.636 26.446l.29.02" stroke="#C99494" stroke-width=".044" stroke-miterlimit="10" stroke-linecap="round" stroke-linejoin="round"/><path d="m40.362 21.788.081.525-5.877 1.164-.21-1.063 6.006-.626Z" stroke="#C99494" stroke-width=".044" stroke-miterlimit="10"/><path d="m40.614 21.58-6.47.673.287 1.453 6.376-1.262s.022-.23-.13-.2l-6.007 1.19-.206-1.041 6.162-.635s.23-.203-.012-.177Z" fill="#C05C5C"/><path d="m34.468 22.64 2.007-.218M36.145 22.69l2.416-.32M34.632 23.013l.642-.06M35.56 22.92l.29-.013" stroke="#C99494" stroke-width=".044" stroke-miterlimit="10" stroke-linecap="round" stroke-linejoin="round"/></g><path d="M41.599 19.307s.075-.409.07-.545c-.005-.136-.1-.272-.06-.409.04-.136-.01-.227.03-.409.038-.181-.114-.59-.114-.59s-.029-.32.01-.502-4.501.027-4.501.027l-.11.681-.026.545.03.202-.028.454.064.5s-.242.818-.191.954c.05.136-.029.454-.029.454l-.252.545.29.454.036.954h.169l-.017.1-.024.546.022.59-.029.454.064.5s-.242.818-.19.954c.05.136-.03.454-.03.454l-.251.545.29.454.035.954h4.906l-.062-.454s.035-.273.068-.591c.033-.318-.015-.409-.015-.409l-.02-.545s-.01-.227.027-.454-.02-.545-.02-.545l-.103-.318s.076-.409.07-.545c-.005-.136-.1-.272-.06-.408.04-.137-.009-.228.03-.41.039-.181-.113-.59-.113-.59s.05-.136.09-.283h.07l-.064-.454s.036-.272.069-.59c.033-.318-.016-.41-.016-.41l-.02-.544s-.009-.227.028-.455c.037-.227-.02-.544-.02-.544l-.103-.317Z" fill="#fff" stroke="#EEC7C6" stroke-width=".044" stroke-miterlimit="10" stroke-linecap="round" stroke-linejoin="round"/><path d="m40.474 17.24-3.128.099M41.38 17.324l-.469-.044M38.454 17.814l2.853-.117M37.382 17.712l.779.074M39.147 18.54l-1.67-.076M40.398 18.596l-.909-.041M37.12 18.925l4.175.22M41.267 19.517l-3.733-.11M37.766 19.825l2.813.087M37 19.802l.344.01M37.483 20.904l-.353-.005M40.21 20.947l-2.404-.038M41.321 20.965l-.691-.012M37.08 21.293l2.654.022M39.355 22.04h-.625M41.274 22.04h-1.538M41.018 18.157h-.745M40.512 22.791l-3.12-.288M41.42 22.876l-.47-.044M38.5 22.977l2.845.271M37.428 22.875l.779.075M39.185 24.091l-1.67-.075M40.437 24.148l-.909-.041M37.16 24.476l4.174.22M41.305 25.068l-3.733-.109M37.805 25.377l2.813.087M37.04 25.354l.343.01M37.52 26.456l-.352-.006M40.249 26.499l-2.404-.038M41.358 26.516l-.691-.01M37.116 26.845l2.655.022M39.394 27.59h-.625M41.312 27.59h-1.537M41.055 23.709h-.745" stroke="#EEC7C6" stroke-width=".044" stroke-miterlimit="10"/><path d="M39.48 19.391h-.967v.502h.968v-.502ZM40.52 24.573h-.967v.502h.968v-.502Z" fill="#EEC7C6"/><path d="M44.944 20.577s.075-.35.07-.467c-.006-.117-.101-.234-.061-.35.04-.117-.009-.195.03-.35.039-.156-.113-.506-.113-.506s.083-.195.121-.35c.039-.156-4.605-.39-4.605-.39l-.11.583-.025.468.022.505-.029.39.065.428s-.242.7-.192.817c.051.117-.028.39-.028.39l-.252.466.29.39.036.817h.169l-.017.087-.025.467.023.506-.029.39.064.427s-.242.7-.191.817c.05.117-.028.39-.028.39l-.252.467.29.39.035.816h4.906l-.063-.389s.035-.233.069-.506c.033-.272-.016-.35-.016-.35l-.02-.467s-.009-.195.028-.39c.037-.194-.02-.466-.02-.466l-.103-.273s.076-.35.07-.467c-.005-.117-.1-.233-.06-.35.04-.117-.009-.195.03-.35.038-.156-.113-.506-.113-.506s.05-.117.09-.242h.069l-.063-.39s.035-.233.069-.506c.033-.272-.016-.35-.016-.35l-.02-.467s-.009-.194.028-.39a1.463 1.463 0 0 0-.02-.466l-.103-.273Z" fill="#fff" stroke="#EEC7C6" stroke-width=".044" stroke-miterlimit="10" stroke-linecap="round" stroke-linejoin="round"/><path d="m43.817 18.806-3.12-.248M44.724 18.877l-.47-.037M41.806 18.965l2.845.232M40.733 18.877l.78.064M42.49 19.92l-1.67-.065M43.742 19.968l-.909-.035M40.464 20.25l4.175.187M44.61 20.756l-3.733-.093M41.108 21.021l2.814.074M40.344 21.001l.344.009M40.825 21.945l-.352-.005M43.553 21.982l-2.404-.032M44.664 21.997l-.691-.01M40.422 22.279l2.655.018M42.698 22.918h-.626M44.617 22.918H43.08M44.361 19.592h-.746M43.857 23.562l-3.12-.247M44.764 23.634l-.47-.037M41.845 23.722l2.845.232M40.773 23.634l.779.064M42.53 24.676l-1.67-.064M43.782 24.724l-.909-.035M40.504 25.006l4.175.188M44.65 25.513l-3.733-.093M41.15 25.778l2.813.074M40.384 25.758l.344.009M40.866 26.702l-.353-.005M43.593 26.739l-2.404-.033M44.704 26.754l-.691-.01M40.46 27.035l2.655.02M42.738 27.674h-.626M43.12 27.674h1.536M44.4 24.348h-.745" stroke="#EEC7C6" stroke-width=".044" stroke-miterlimit="10"/><path d="M42.871 22.385h-.968v.502h.968v-.502Z" fill="#fff" stroke="#EEC7C6" stroke-width=".044" stroke-miterlimit="10"/><path d="M44.109 20.306h-.968v.502h.968v-.502Z" fill="#EEC7C6"/><mask id="c" style="mask-type:luminance" maskUnits="userSpaceOnUse" x="23" y="28" width="33" height="17"><path d="M55.325 28.343h-31.66v15.732h31.66V28.343Z" fill="#fff"/></mask><g mask="url(#c)"><path d="M23.664 44.074h31.66V28.343h-31.66v15.731Z" fill="#fff" stroke="#263138" stroke-width=".044" stroke-miterlimit="10" stroke-linecap="round" stroke-linejoin="round"/></g><path d="M23.665 44.074h31.66v-15.73h-31.66v15.73Z" stroke="#F8E3E3" stroke-width=".089" stroke-miterlimit="10" stroke-linecap="round" stroke-linejoin="round"/><path opacity=".44" d="M23.684 29.107h31.628v-.409H23.686v.409Z" fill="#C56262"/><path d="M23.474 28.747h32.424V28.1H23.473v.646Z" stroke="#F8E3E3" stroke-width=".089" stroke-miterlimit="10" stroke-linecap="round" stroke-linejoin="round"/><path d="M40.912 31.613s.076-.35.07-.467c-.005-.117-.1-.233-.06-.35.04-.117-.009-.195.03-.35.039-.156-.113-.506-.113-.506s.082-.195.12-.35c.04-.156-4.604-.39-4.604-.39l-.11.584-.026.467.023.506-.029.39.064.427s-.242.7-.19.817c.05.117-.03.39-.03.39l-.251.467.29.39.035.817h.17l-.017.086-.025.467.022.506-.028.39.064.427s-.242.7-.191.818c.05.117-.029.39-.029.39l-.252.466.29.39.036.817h4.906l-.063-.39s.035-.233.069-.505c.033-.273-.016-.35-.016-.35l-.02-.468s-.009-.194.028-.389-.02-.467-.02-.467l-.103-.273s.075-.35.07-.467c-.005-.117-.1-.233-.06-.35.04-.117-.01-.194.03-.35.038-.156-.113-.506-.113-.506s.049-.117.09-.242h.069l-.063-.39s.035-.233.068-.505c.034-.273-.015-.35-.015-.35l-.02-.468s-.009-.194.028-.389-.02-.467-.02-.467l-.104-.273ZM39.786 29.842l-3.12-.247M40.693 29.914l-.47-.037M37.773 30.002l2.846.232M36.701 29.914l.78.064M38.46 30.956l-1.67-.065M39.71 31.004l-.908-.035M36.433 31.286l4.175.188M40.578 31.793l-3.732-.094M37.078 32.058l2.813.073M36.313 32.038l.344.009M36.794 32.982l-.353-.005M39.522 33.019l-2.404-.033M40.633 33.034l-.692-.01M36.39 33.315l2.655.019" stroke="#C99494" stroke-width=".044" stroke-miterlimit="10" stroke-linecap="round" stroke-linejoin="round"/><path d="M38.667 33.954h-.626M40.586 33.954h-1.537" stroke="#263138" stroke-width=".044" stroke-miterlimit="10" stroke-linecap="round" stroke-linejoin="round"/><path d="M40.33 30.628h-.746" stroke="#C99494" stroke-width=".044" stroke-miterlimit="10" stroke-linecap="round" stroke-linejoin="round"/><path d="m39.825 34.599-3.12-.248M40.733 34.671l-.47-.037M37.813 34.758l2.846.232M36.741 34.67l.78.064M38.499 35.712l-1.67-.064M39.75 35.76l-.908-.034M36.473 36.042l4.175.188M40.618 36.55l-3.732-.094M37.118 36.815l2.813.073M36.352 36.794l.345.01M36.835 37.739l-.354-.005M39.562 37.775l-2.404-.032M40.673 37.79l-.692-.01M36.43 38.072l2.654.019M38.707 38.71h-.625M39.088 38.71h1.537M40.37 35.385h-.746" stroke="#263138" stroke-width=".044" stroke-miterlimit="10" stroke-linecap="round" stroke-linejoin="round"/><path d="M38.84 33.422h-.968v.502h.968v-.502Z" stroke="#C99494" stroke-width=".044" stroke-miterlimit="10" stroke-linecap="round" stroke-linejoin="round"/><path d="M40.078 31.342h-.968v.502h.968v-.502Z" fill="#C99494"/><path d="m30.4 36.35.023.53h5.99v-1.083l-6.013.553Z" fill="#fff" stroke="#263138" stroke-width=".044" stroke-miterlimit="10" stroke-linecap="round"/><path d="m30.113 36.195 6.478-.597v1.482h-6.5s-.066-.221.088-.221h6.125v-1.062l-6.169.575s-.265-.155-.022-.177Z" fill="#263138" stroke="#263138" stroke-width=".044" stroke-miterlimit="10" stroke-linecap="round"/><path d="m36.348 36.04-2.012.177M34.712 36.416l-2.432.155M36.26 36.438l-.642.067M35.33 36.526l-.287.045" stroke="#263138" stroke-width=".044" stroke-miterlimit="10" stroke-linecap="round" stroke-linejoin="round"/><path d="m30.31 33.866.022.531h5.99v-1.084l-6.012.553Z" fill="#fff" stroke="#C99494" stroke-width=".044" stroke-miterlimit="10" stroke-linecap="round" stroke-linejoin="round"/><path opacity=".66" d="m30.023 33.712 6.478-.597v1.481H30s-.067-.22.088-.22h6.124v-1.062l-6.168.575s-.266-.155-.022-.177Z" fill="#C56262"/><path d="m36.258 33.557-2.012.177" stroke="#C99494" stroke-width=".044" stroke-miterlimit="10" stroke-linecap="round" stroke-linejoin="round"/><path d="m34.621 33.932-2.431.155M36.168 33.955l-.64.066M35.24 34.043l-.288.044" stroke="#263138" stroke-width=".044" stroke-miterlimit="10" stroke-linecap="round" stroke-linejoin="round"/><path d="m30.27 32.944.078.525 5.959-.622-.113-1.078-5.924 1.175Z" fill="#fff" stroke="#C99494" stroke-width=".044" stroke-miterlimit="10" stroke-linecap="round" stroke-linejoin="round"/><path opacity=".71" d="m29.97 32.82 6.38-1.267.153 1.473-6.464.675s-.089-.212.065-.229l6.09-.636-.11-1.055-6.075 1.212s-.28-.126-.04-.173Z" fill="#E46F6F"/><path d="m36.154 32.018-1.983.385M34.566 32.562l-2.403.406M36.106 32.423l-.63.133M35.193 32.607l-.282.074" stroke="#C99494" stroke-width=".044" stroke-miterlimit="10" stroke-linecap="round" stroke-linejoin="round"/><path d="m36.19 34.833.024.53-5.968.523-.095-1.08 6.039.027Z" fill="#fff" stroke="#263138" stroke-width=".044" stroke-miterlimit="10" stroke-linecap="round"/><path d="m36.463 34.654-6.505-.03.13 1.476 6.474-.568s.047-.226-.107-.212l-6.1.534-.093-1.057 6.195.035s.25-.177.006-.178Z" fill="#263138" stroke="#263138" stroke-width=".044" stroke-miterlimit="10" stroke-linecap="round"/><path d="m30.238 35.043 2.02.001M31.901 35.275l2.436-.058M30.361 35.432l.645.01M31.294 35.44l.29.018" stroke="#263138" stroke-width=".044" stroke-miterlimit="10" stroke-linecap="round" stroke-linejoin="round"/><path d="m36.285 30.751.051.486-6.111 1.232-.21-1.062 6.27-.656Z" fill="#fff" stroke="#C99494" stroke-width=".044" stroke-miterlimit="10" stroke-linecap="round" stroke-linejoin="round"/><path opacity=".58" d="m36.272 30.573-6.47.673.287 1.453 6.376-1.263s.022-.23-.13-.2c-.151.031-6.007 1.19-6.007 1.19l-.206-1.04 6.162-.635s.231-.203-.012-.178Z" fill="#C99494"/><path d="m30.126 31.633 2.008-.218M31.804 31.684l2.416-.321M30.29 32.006l.642-.06M31.218 31.912l.29-.012" stroke="#C99494" stroke-width=".044" stroke-miterlimit="10" stroke-linecap="round" stroke-linejoin="round"/><path d="m28.924 33.861-.9 2.452h1.509l-.61-2.452Z" fill="#F6D0CF"/><path d="M39.884 33.861h-10.96v10.266h10.96V33.861Z" fill="#E6BEBE"/><path d="M42.511 33.861h-10.96v10.266h10.96V33.861Z" fill="#F8E3E3"/><path d="m31.55 33.861.805 2.647H43.16l-.648-2.647h-10.96Z" fill="#F6D0CF"/><path d="M15.109 20.665s-.306 1.022-.92 2.043c-.612 1.02-1.735 2.348-1.735 2.348L8.369 23.32s.92-.92 1.94-2.45c1.022-1.532 1.26-1.849 1.26-1.849s2.585 1.307 3.54 1.644ZM32.37 28.827s-.993-.387-1.962-1.079c-.97-.692-2.203-1.917-2.203-1.917l2.056-3.934s.843.99 2.288 2.13c1.445 1.14 1.742 1.403 1.742 1.403s-1.509 2.473-1.92 3.397ZM30.102 12.44l2.609 2.32s.676-2.078 1.836-2.706c1.16-.628 2.319-1.015 2.319-1.015L33.29 8.817s-3.624 1.4-3.19 3.623ZM8.784 13.893l2.61 2.32s.676-2.078 1.835-2.706a16.426 16.426 0 0 1 2.32-1.014l-3.576-2.223s-3.624 1.4-3.189 3.623Z" fill="#F8E3E3"/><path d="M24.759 4.235c-.169.494-.372.977-.606 1.444.142-.06.287-.11.435-.152-.124.342-.515 1.371-.515 1.371l1.268-2.058-.666.387.567-.985-.483-.007ZM22.936 4.902c.035.229.055.46.059.69.043-.052.09-.101.14-.148.021.16.08.644.08.644l.073-1.068-.18.288.019-.503-.191.097ZM20.09 5.392c.103.512.242 1.017.415 1.51a3.872 3.872 0 0 0-.412-.206c.079.356.334 1.426.334 1.426l-.992-2.204.61.47-.435-1.05.48.054Z" fill="#E46F6F"/><path d="m27.618 8.573-1.12.634M25.863 6.33l-.488 1.073M20.694 6.33l.488.926M17.964 8.524l1.414.585M22.938 6.281v.732" stroke="#B24B4B" stroke-width=".044" stroke-miterlimit="10" stroke-linecap="round" stroke-linejoin="round"/><path d="M15.93 19.811s-.04-.638.06-.857c.1-.22.28-.06.48.239.199.299.518.718.418.817-.1.1-.299.3-.518.3-.22 0-.44-.499-.44-.499Z" fill="#B24B4B"/><path d="m27.908 43.635.11.836s.703 1.043 1.155 1.646c.452.603.528 2.185-.527 2.21-1.055.026-1.482-1.206-1.533-1.532-.05-.327-.296-.538-.49-.733-.196-.196-.363-.39-.336-.781.028-.391-.083-1.552-.083-1.552l1.704-.094Z" fill="#F8C8B4"/><path d="M26.287 45.281c.015-.204-.009-.618-.034-.967.284.42.791.73.791.73s.028-.441.413-.607c.386-.165.662.22.662.22l.027.001c.242.352.687 1.006 1.027 1.46.452.602.528 2.185-.528 2.21-1.055.025-1.482-1.206-1.532-1.533-.05-.326-.296-.538-.491-.733-.195-.195-.363-.39-.335-.781Z" fill="#E46F6F"/><path d="M27.113 46.795c-.05-.326-.296-.538-.49-.733-.194-.192-.358-.386-.336-.767.106.096.225.209.344.327.343.341.436.518.634 1.188.199.67.546 1.066 1.315 1.19.456.074.737-.253.89-.532-.062.461-.307.847-.824.86-1.055.025-1.482-1.206-1.533-1.533Z" fill="#B24B4B"/><path d="m18.444 43.635-.11.836s-.704 1.043-1.156 1.646c-.452.603-.528 2.185.527 2.21 1.055.026 1.482-1.206 1.533-1.532.05-.327.296-.538.49-.733.196-.196.363-.39.336-.781-.028-.391.083-1.552.083-1.552l-1.703-.094Z" fill="#F8C8B4"/><path d="M20.064 45.281c-.015-.204.008-.618.034-.967-.285.42-.791.73-.791.73s-.028-.441-.414-.607c-.386-.165-.661.22-.661.22l-.027.001c-.243.352-.687 1.006-1.027 1.46-.452.602-.528 2.185.527 2.21 1.055.025 1.482-1.206 1.533-1.533.05-.326.296-.538.49-.733.196-.195.363-.39.335-.781Z" fill="#E46F6F"/><path d="M19.237 46.795c.05-.326.296-.538.491-.733.193-.192.358-.386.335-.767-.105.096-.224.209-.343.327-.344.341-.437.518-.635 1.188-.198.67-.546 1.066-1.315 1.19-.455.074-.736-.253-.89-.532.063.461.308.847.824.86 1.056.025 1.483-1.206 1.533-1.533ZM27.629 35.498s.145-2.179.24-4.686c.095-2.508-.382-4.54-.382-4.54l-2.65 2.073-1.1-1.194-1.216-.082-1.152 1.066-2.5-1.863s-.389 2.349-.294 4.856c.095 2.508.153 4.37.153 4.37s-.426 2.65-.332 3.5c.095.852.048 4.637.048 4.637l1.703.095s1.514-5.535 1.561-6.67c.047-1.136.568-3.502.568-3.502l.97-3.857.065.007.77 3.85s.52 2.366.567 3.501c.047 1.136 1.561 6.67 1.561 6.67l1.703-.094s-.047-3.785.047-4.636c.096-.852-.33-3.501-.33-3.501Z" fill="#B24B4B"/><path d="M18.782 26.765s-.486.463.39.902c.878.438 3.11 1.036 4.664.996 1.555-.04 3.587-.917 3.867-1.355.279-.438-.12-1.036-.24-1.036s-2.59 1.036-4.942.797c-2.351-.24-3.348-.678-3.348-.678s-.344-.048-.391.374Z" fill="#D47878"/><path d="M21.772 13.571s-2.612.459-3.35 1.177c-.738.717-.618 2.352-.538 2.91.08.558-.08 1.595-.08 1.595l-.438-.378s-.24.578-.658.917c-.419.339-.777.14-.777.02 0-.12.598 1.555.717 1.834.12.279.22.758.599.997.378.239 1.455.259 1.575.259.12 0-.016 1.862-.087 2.134-.319 1.236-.092 1.351.047 1.73.14.379 2.672 1.196 4.446 1.196 1.774 0 4.176-.953 4.316-1.371.077-.232.558.16-.04-2.63-.2-.933-.03-1.657-.03-1.657s.837.358 1.495-.4c.658-.757 1.735-1.973 1.735-1.973l.319-1.634s-.858.438-1.216.219c-.359-.22-.14-1.336-.14-1.336l-.618 1.117s.04-.818-.22-1.436c-.258-.618-.358-2.033-1.016-2.632-.658-.598-1.675-.618-1.675-.618l-4.366-.04Z" fill="#E46F6F"/><path d="M21.632 13.85s.259 1.535 1.156 1.715c.898.18 1.316-.718 1.316-1.336 0-.617-2.133-.598-2.472-.379ZM22.31 16.22c.114.155.237.297.367.41M21.542 14.796s.238.613.597 1.175M24.395 14.832l-.359.957M18.821 22.901s.798-.02 1.057-.438c.259-.42-.379-1.914-.858-2.393-.478-.479-.857-.758-.857-.758" stroke="#B24B4B" stroke-width=".044" stroke-miterlimit="10" stroke-linecap="round" stroke-linejoin="round"/><path d="M18.303 18.515s1.076 1.576 1.415 2.752M18.682 17.34s.458 1.215.538 1.395M19.392 19.576l.067.435M19 17l.337 2.222M27.633 17.253v1.88c0 1.994-.16 3.17-.16 3.17M27.633 16.562v.364M28.33 16.86s-.438 2.054-.657 2.453M29.049 18.296l-.22.479s-.657.279-.936.777c-.28.498-.12 1.256.04 1.376" stroke="#B24B4B" stroke-width=".044" stroke-miterlimit="10" stroke-linecap="round" stroke-linejoin="round"/><path d="m17.366 18.874-.454-.808s-.11-.541-.21-.74c-.1-.2-.155-.387-.177-.464-.022-.077-.022-.74-.122-.895-.1-.155-.265-.288-.387-.2-.121.089-.066.222-.044.343.023.122.1.464.066.608a1.038 1.038 0 0 1-.088.243s-.542-.298-.597-.397c-.055-.1-.453-.62-.73-.885-.276-.265-.64-.376-.662-.276-.023.1.132.188.232.354.1.165.497.619.497.619s-.486-.255-.608-.343c-.122-.089-.387-.055-.31.088.078.144.454.454.586.553.133.1.387.343.387.343s-.033.143.066.21c.1.066.266.232.354.331.089.1.53.652.708 1.106.177.453.674 1.193.674 1.193s.466-.164.819-.983Z" fill="#F8C8B4"/><path d="M15.818 17.967s-.442-.387-.64-.52c-.2-.132-.377-.398-.432-.431-.055-.033.011-.1.2-.1.187 0 .508.244.508.244s.31.188.442.276c.133.088.166.143.166.143M14.69 16.375s.343.155.564.442" stroke="#E0B5A6" stroke-width=".044" stroke-miterlimit="10" stroke-linecap="round" stroke-linejoin="round"/><path d="M16.228 18.398s.01-.398-.166-.597c-.177-.2.154-.277.254-.221.1.055.133.243.166.298.033.055.199.122.265.298.066.177.066.244.066.244" stroke="#E0B5A6" stroke-width=".044" stroke-miterlimit="10" stroke-linecap="round" stroke-linejoin="round"/><path d="M29.667 17.18s.056-.465.028-.616c-.029-.152-.105-.58-.18-.77-.077-.19-.067-.636.056-.655.124-.02.228-.01.295.2.067.208.114.607.218.816.105.209.143.37.466.37.323 0 1.12-.636 1.463-.93.341-.295.664-.437.854-.361.19.076-.057.2-.294.37-.238.171-.97.902-1.007.988-.038.085.323.067.323.067s1.292-.19 1.482-.105c.19.086.066.171-.114.238-.18.066-.93.237-.93.237l-.865.2s.446.142.74.19c.295.047.371.094.248.208-.123.114-.038.114-.4.133-.36.019-.873.01-.873.01s-.048.322-.114.398c-.066.076-.04.128-.04.128s-.064.072-.435.176c-.37.105-.546.115-.781.043-.235-.071-.235-.688-.226-.926.01-.237.086-.41.086-.41Z" fill="#F8C8B4"/><path d="m31.176 17.77-.228-.01M30.93 17.855s-.124 0-.276-.048c-.152-.047-.304-.037-.323.143-.019.18.105.209.18.228.076.02.162.104.266.104M30.854 16.525s-.095.133-.133.323c-.038.19-.161.513-.161.513M29.807 18.515s.012-.318.04-.45c.028-.134.352-.314.352-.314" stroke="#E0B5A6" stroke-width=".044" stroke-miterlimit="10" stroke-linecap="round" stroke-linejoin="round"/><path d="M19.983 10.942s.034.393-.205.606c-.24.214-.617.377-.583.82.035.443.446.607.36.705-.086.098-.822.066-.977.524-.154.46.172.623.343.607.171-.016-.068.279.103.524.17.246.839.197.839.197s-.223.246-.137.492a.51.51 0 0 0 .65.312c.292-.098.138-.377.12-.574-.017-.197.446-.016.669-.443.222-.426.102-.54.12-.64.017-.097.137-.228.137-.228l2.774.081s.052.427.309.443c.257.016.48-.05.48-.05s-.275.378-.018.673c.257.295.702.311.72.442.017.131-.292.214-.24.345.051.13.479.246.736-.017.257-.262.068-.655.068-.655s.309.13.548-.345c.24-.475-.068-.901-.102-.95-.034-.05.29-.263.29-.263s.48.033.549-.245c.068-.279-.257-.755-.274-.886-.018-.13.17-.475-.103-.852-.274-.377-.908-.705-1.13-1l-.223-.295-5.823.672Z" fill="#441B13"/><path d="M21.102 11.587s.063 1.02.318 1.529c.255.51.816 1.517 1.058 1.657.242.14.663.191.905.076.242-.114.956-1.172 1.134-1.542.178-.37.28-1.287.28-1.53 0-.241.217-1.248-.395-2-.611-.752-1.58-.816-1.707-.777-.128.038-.93.089-1.173.548-.242.458-.331 1.338-.331 1.49 0 .154-.09.549-.09.549Z" fill="#F8C8B4"/><path d="M23.686 11.643s.44-.081.603-.081M21.668 11.464s.456.147.52.18" stroke="#441B13" stroke-width=".033" stroke-miterlimit="10" stroke-linecap="round" stroke-linejoin="round"/><path d="M23.93 11.29c0 .094-.059.17-.131.17-.074 0-.133-.076-.133-.17 0-.093.06-.17.133-.17.072 0 .132.077.132.17ZM22.33 11.29c0 .094-.06.17-.133.17-.073 0-.133-.076-.133-.17 0-.093.06-.17.133-.17.073 0 .132.077.132.17Z" fill="#441B13"/><path d="M22.339 12.477c.033-.234.35-.492.35-.492s-.067.158-.017.225c.05.066.145.181.288.173.142-.009.413-.106.438-.165.025-.058-.066-.217-.066-.217s.317.234.4.493" stroke="#441B13" stroke-width=".033" stroke-miterlimit="10" stroke-linecap="round" stroke-linejoin="round"/><path d="M23.739 13.136s-.301-.354-.677-.386c-.376-.032-.763.322-.784.494-.022.172.204.87.59.956.387.086.516-.075.634-.28.118-.204.237-.784.237-.784Z" fill="#441B13"/><path d="M22.433 13.007c.105.051.297.114.607.108.297-.006.462-.07.549-.122-.124-.102-.313-.224-.527-.243-.237-.02-.478.112-.63.257ZM23.589 13.62c-.075-.172-.097-.054-.14.053-.043.108-.075.258-.172.323-.097.064-.408.064-.537-.011-.13-.075-.108-.44-.215-.42-.08.017-.023.259.012.382.09.124.201.223.332.253.387.085.516-.075.634-.28.035-.06.07-.156.103-.26l-.017-.04Z" fill="#FFFCF9" stroke="#441B13" stroke-width=".033" stroke-miterlimit="10" stroke-linecap="round" stroke-linejoin="round"/><path d="M23.396 11.153s.45-.305.633-.305c.182 0 .343.15.343.15M22.6 11.16s-.494-.333-.687-.377c-.194-.043-.408.183-.408.183M22.826 11.063s.097-.075.065-.193c-.032-.118-.043-.172-.043-.172M23.061 10.934s0 .075.076.108" stroke="#441B13" stroke-width=".033" stroke-miterlimit="10" stroke-linecap="round" stroke-linejoin="round"/><path d="M23.164 8.255c-.02-.19-.174-.311-.412-.342-.128-.074-.393-.161-.834-.019-.66.214-1.518 1.25-1.643 1.769-.125.517-.09.589-.107.696-.018.107-.175.13-.185.583-.007.295.141.579.29.722l-.021.06s.512.424.892.175c.38-.248.85-2.107.981-2.517.132-.41.762-.308.762-.308s.306-.526.277-.82Z" fill="#441B13"/><path d="m25.518 10.468.288-.199s-.172-.232-.297-.714-.375-.964-1-1.429c-.449-.333-1.1-.29-1.432-.238-.28.018-.454.088-.454.088s.03.893.264 1.098c0 0 .732.117.951.439.22.322.22.82.527 1.127l.308.307s0 .425.073.718c.074.293.425.63.732.6.308-.03.79-.293.776-.513-.014-.2-.43-.584-.736-1.284Z" fill="#441B13"/><path d="M25.391 20.945c-.327.493-.847 1.126-1.515 1.46M25.79 20.253s-.046.1-.135.26M24.235 21.688l-.963.699" stroke="#B24B4B" stroke-width=".044" stroke-miterlimit="10" stroke-linecap="round" stroke-linejoin="round"/><path d="M24.084 10.565c-.016.06-.183.095-.358.184-.178.084-.307.196-.364.172-.025-.013-.023-.065.02-.137a.631.631 0 0 1 .255-.219.621.621 0 0 1 .327-.068c.084.009.126.04.12.068ZM21.851 10.549c.015.058.175.085.343.167.17.077.294.182.348.156.025-.013.023-.066-.02-.135a.576.576 0 0 0-.243-.206.571.571 0 0 0-.313-.055c-.08.012-.12.044-.115.072Z" fill="#441B13"/></g></g><defs><clipPath id="a"><rect width="48" height="48" rx="24" fill="#fff"/></clipPath><clipPath id="b"><path fill="#fff" d="M0 0h48v48H0z"/></clipPath></defs></svg>