<svg width="48" height="48" fill="none" xmlns="http://www.w3.org/2000/svg"><g clip-path="url(#a)"><rect width="48" height="48" rx="24" fill="#fff"/><path d="m14.022 5.245 1.478 6.788-5.675-3.085 3.784 6.26-4.139 1.41 4.375 2.292-4.67 5.994 3.665 2.204-3.37 4.673 6.207-.44-3.546 7.757 4.256-.881-1.596 6.523 5.38-4.143 1.36 7.141 1.714-6.26 3.547 6.172-.237-6.436 6.03 5.819-1.833-7.405L36.9 41.39 33 35.572l4.907-1.675-3.607-3.174 4.02-3.967-4.67-1.852 4.316-3.614-4.375-1.94 4.434-5.554-5.439.265 3.96-7.67-6.088 2.204.827-6.171-4.67 5.642-1.655-5.554-.532 5.907-2.365-5.907-.765 6.558-2.131-5.941-.473 6.26-4.67-4.144Z" fill="#F8E3E3"/><path d="M8.714 25.975c1.167-1.82 2.324-3.615 3.473-5.392 2.326 1.284 4.234 3.548 6.692 4.52-1.167 1.82-2.324 3.615-3.474 5.392-2.325-1.284-4.233-3.548-6.691-4.52Z" fill="#D2AEAD"/><path d="m17.5 25.087-1.905 2.938a10.489 10.489 0 0 1-.173-.114l1.902-2.929c.058.036.117.07.176.105ZM17.057 24.817c-.633.976-1.265 1.947-1.896 2.915a22.11 22.11 0 0 1-.17-.12c.63-.965 1.26-1.934 1.893-2.907l.173.112ZM16.622 24.528c-.63.969-1.26 1.935-1.889 2.897a22.851 22.851 0 0 1-.168-.125l1.886-2.891.17.119ZM16.193 24.223c-.921 1.412-1.84 2.817-2.757 4.22l-.165-.13 2.753-4.214.169.124ZM15.77 23.906l-2.751 4.208-.165-.132 2.75-4.205.166.129ZM15.35 23.58l-2.748 4.202-.165-.131 2.748-4.202.165.13ZM14.932 23.25l-2.75 4.202-.165-.13 2.749-4.204.166.131ZM14.516 22.918l-2.752 4.209a20.938 20.938 0 0 0-.167-.126l2.753-4.214.166.13ZM14.097 22.589c-.918 1.403-1.836 2.81-2.758 4.223l-.17-.122 2.76-4.23.168.129ZM13.676 22.266c-.92 1.408-1.84 2.822-2.766 4.242a12.93 12.93 0 0 0-.172-.115c.927-1.425 1.85-2.841 2.77-4.252l.168.125ZM13.25 21.954c-.922 1.415-1.847 2.836-2.776 4.268a9.703 9.703 0 0 0-.175-.108 2706.6 2706.6 0 0 1 2.782-4.28l.17.12ZM12.819 21.655a2332.79 2332.79 0 0 0-2.79 4.3 9.646 9.646 0 0 0-.18-.099c.938-1.45 1.87-2.887 2.797-4.315.058.038.116.075.173.114Z" fill="#E4BEBE"/><path d="m27.82 19.102 4.302 4.7c4.74.082 3.423-6.28 8.089-6.278l-3.193-3.49c-1.273-.419-2.33-.61-3.253-.656-2.335 1.532-2.189 5.705-5.945 5.724Z" fill="#EBC4C4"/><path d="M37.018 14.035c-1.272-.42-2.33-.61-3.252-.657l1.119 1.223c.546-.364 1.23-.582 2.133-.566Z" fill="#D2AEAD"/><path d="M37.888 17.537 35.474 14.9a3.355 3.355 0 0 0-.227.141l2.417 2.641c.073-.05.147-.098.224-.144ZM37.351 17.93l-2.421-2.644c-.066.057-.13.117-.192.178l2.423 2.647a4.03 4.03 0 0 1 .19-.18ZM36.893 18.41l-2.426-2.651a5.689 5.689 0 0 0-.165.207l2.428 2.652c.053-.071.107-.14.163-.209ZM36.498 18.952l-3.56-3.889c-.05.075-.098.15-.146.228l3.562 3.89c.047-.077.095-.153.144-.229ZM36.143 19.54l-3.563-3.892c-.046.079-.09.159-.135.239l3.565 3.893.133-.24ZM35.81 20.15l-3.565-3.894c-.044.08-.087.162-.13.243l3.564 3.894.13-.243ZM35.477 20.762l-3.563-3.894-.135.24L35.342 21l.136-.238ZM35.129 21.355l-3.562-3.89a7.757 7.757 0 0 1-.146.226l3.56 3.889c.05-.074.1-.15.148-.225ZM34.742 21.907l-3.557-3.885c-.053.07-.109.14-.165.206l3.553 3.883c.059-.066.114-.134.169-.204ZM34.296 22.4l-3.55-3.878c-.062.061-.126.12-.192.177l3.546 3.874a3.46 3.46 0 0 0 .196-.174ZM33.776 22.81l-3.54-3.869c-.073.05-.15.096-.228.14l3.536 3.864a3.35 3.35 0 0 0 .232-.135ZM33.158 23.117l-3.53-3.856a3.257 3.257 0 0 1-.27.094l3.524 3.851c.095-.026.187-.056.276-.089Z" fill="#FCE8E7"/><path d="M34.574 26.367c-.678 1.886-1.364 3.798-2.057 5.738 3.452-2.175 4.652 3.328 7.906 1.827l1.337-3.611.51-1.28c-3.396 1.938-4.505-3.915-7.696-2.674Z" fill="#D2AEAD"/><path d="m39.11 33.702 1.434-3.854a2.286 2.286 0 0 1-.207-.034l-1.432 3.846c.067.017.136.03.205.042ZM38.603 33.565l1.43-3.838a2.683 2.683 0 0 1-.194-.079l-1.429 3.836c.064.03.129.056.194.081ZM38.123 33.337l1.43-3.837a3.76 3.76 0 0 1-.184-.113l-1.43 3.838c.06.04.122.076.184.111ZM37.664 33.04l1.435-3.854a6.268 6.268 0 0 1-.176-.139l-1.438 3.862.179.131ZM37.216 32.7l1.442-3.88a14.432 14.432 0 0 1-.17-.154l-1.447 3.892.175.141ZM36.775 32.338c.487-1.314.971-2.619 1.454-3.916l-.17-.162c-.483 1.303-.97 2.615-1.458 3.935l.174.143ZM36.332 31.981c.492-1.332.981-2.654 1.468-3.967a20.982 20.982 0 0 0-.17-.159l-1.476 3.991c.06.044.119.089.178.135ZM35.88 31.652l1.488-4.032a8.6 8.6 0 0 0-.174-.146 6553.89 6553.89 0 0 0-1.496 4.06c.062.039.123.078.183.118ZM35.415 31.375c.508-1.383 1.01-2.752 1.51-4.11a5.329 5.329 0 0 0-.18-.125c-.502 1.37-1.01 2.75-1.52 4.144.064.028.128.059.19.09ZM34.928 31.173a3018.6 3018.6 0 0 1 1.537-4.2 3.35 3.35 0 0 0-.189-.093c-.512 1.4-1.029 2.813-1.549 4.24.068.015.135.033.201.053ZM34.41 31.072c.526-1.45 1.049-2.885 1.567-4.305a2.237 2.237 0 0 0-.201-.053c-.523 1.435-1.05 2.885-1.58 4.35.071 0 .143.002.214.008ZM33.856 31.094l1.602-4.423a2.186 2.186 0 0 0-.216-.002l-1.617 4.473a2.55 2.55 0 0 1 .231-.048Z" fill="#E4BEBE"/><path d="M38.186 5.193a3.728 3.728 0 0 1-5.949 2.992l-1.826.467.76-1.7a3.728 3.728 0 1 1 7.015-1.758Z" fill="#fff" stroke="#B24B4B" stroke-width=".044" stroke-miterlimit="10"/><path d="m33.743 3.188-.868.09.39 3.19.75-.078-.272-3.202ZM33.387 7.619l.75-.078-.078-.75-.75.078.078.75ZM35.922 2.866l-.867-.099-.305 3.2.75.085.422-3.186ZM34.619 7.116l.75.085.084-.75-.749-.085-.085.75Z" fill="#B24B4B"/><path d="M40.24 24.24a2.248 2.248 0 1 0-4.445-.687 2.248 2.248 0 0 0 4.444.686Z" stroke="#B24B4B" stroke-width=".044" stroke-miterlimit="10" stroke-linecap="round" stroke-linejoin="round"/><path d="M37.511 23.623c0 .184-.075.333-.167.333-.092 0-.166-.15-.166-.333 0-.184.074-.334.166-.334.092 0 .167.15.167.334ZM38.678 23.623c0 .184-.075.333-.167.333-.092 0-.166-.15-.166-.333 0-.184.074-.334.166-.334.092 0 .167.15.167.334ZM36.877 22.756l.9.5M38.845 22.622l-.734.434M36.777 24.957s.234-.5 1.134-.5c.9 0 1.234.5 1.234.5M33.274 38.045a1.445 1.445 0 1 0 0-2.89 1.445 1.445 0 0 0 0 2.89Z" stroke="#B24B4B" stroke-width=".044" stroke-miterlimit="10" stroke-linecap="round" stroke-linejoin="round"/><path d="M32.95 36.424c0 .118-.048.214-.108.214-.059 0-.107-.096-.107-.214 0-.119.048-.215.108-.215.059 0 .107.096.107.215ZM33.593 36.638c.059 0 .107-.096.107-.214 0-.119-.048-.215-.108-.215-.059 0-.107.096-.107.215 0 .118.048.214.108.214ZM32.542 35.866l.579.322M33.806 35.78l-.471.28M32.477 37.28s.15-.32.73-.32c.578 0 .793.32.793.32M14.097 19.595a1.573 1.573 0 1 0 0-3.146 1.573 1.573 0 0 0 0 3.146Z" stroke="#B24B4B" stroke-width=".044" stroke-miterlimit="10" stroke-linecap="round" stroke-linejoin="round"/><path d="M13.744 17.831c0 .129-.053.233-.117.233s-.116-.104-.116-.233.052-.233.116-.233c.065 0 .117.104.117.233ZM14.56 17.831c0 .129-.052.233-.116.233s-.117-.104-.117-.233.052-.233.117-.233c.064 0 .116.104.116.233ZM13.3 17.224l.63.35M14.677 17.131l-.513.304M13.23 18.765s.164-.35.794-.35.863.35.863.35M15.35 35.223a2.248 2.248 0 1 0 0-4.497 2.248 2.248 0 0 0 0 4.497Z" stroke="#B24B4B" stroke-width=".044" stroke-miterlimit="10" stroke-linecap="round" stroke-linejoin="round"/><path d="M15.334 34.22c.505 0 .914-.07.914-.155 0-.085-.41-.155-.914-.155-.505 0-.915.07-.915.155 0 .086.41.155.915.155ZM13.705 32.608s.372.434 1.333.527M16.991 32.608s-.372.434-1.333.527" stroke="#B24B4B" stroke-width=".044" stroke-miterlimit="10" stroke-linecap="round" stroke-linejoin="round"/><path d="M14.408 33.086c0 .094-.057.17-.128.17-.07 0-.128-.076-.128-.17 0-.094.058-.17.128-.17.071 0 .128.076.128.17ZM16.556 33.086c0 .094-.058.17-.128.17s-.128-.076-.128-.17c0-.094.057-.17.128-.17.07 0 .128.076.128.17ZM17.982 41.07a1.36 1.36 0 1 0 0-2.718 1.36 1.36 0 0 0 0 2.718Z" stroke="#B24B4B" stroke-width=".044" stroke-miterlimit="10" stroke-linecap="round" stroke-linejoin="round"/><path d="M17.972 40.464c.305 0 .553-.042.553-.094s-.248-.094-.553-.094c-.306 0-.553.042-.553.094s.247.094.553.094ZM16.987 39.49s.225.262.806.318M18.974 39.49s-.225.262-.806.318" stroke="#B24B4B" stroke-width=".044" stroke-miterlimit="10" stroke-linecap="round" stroke-linejoin="round"/><path d="M17.335 39.882c.043 0 .078-.046.078-.103 0-.057-.035-.104-.078-.104s-.077.047-.077.104c0 .056.034.103.077.103ZM18.633 39.882c.043 0 .077-.046.077-.103 0-.057-.034-.104-.077-.104s-.077.047-.077.104c0 .056.034.103.077.103ZM31.972 30.746a1.36 1.36 0 1 0 0-2.718 1.36 1.36 0 0 0 0 2.718Z" stroke="#B24B4B" stroke-width=".044" stroke-miterlimit="10" stroke-linecap="round" stroke-linejoin="round"/><path d="M31.962 30.14c.305 0 .553-.042.553-.094s-.248-.094-.553-.094c-.305 0-.553.042-.553.094s.248.094.553.094ZM30.979 29.165s.224.263.805.32M32.965 29.165s-.225.263-.806.32" stroke="#B24B4B" stroke-width=".044" stroke-miterlimit="10" stroke-linecap="round" stroke-linejoin="round"/><path d="M31.403 29.455c0 .057-.035.103-.078.103-.042 0-.077-.046-.077-.103 0-.057.035-.103.077-.103.043 0 .078.046.078.103ZM32.702 29.455c0 .057-.035.103-.078.103s-.077-.046-.077-.103c0-.057.035-.103.077-.103.043 0 .078.046.078.103ZM34.562 12.306a1.359 1.359 0 1 0 0-2.718 1.359 1.359 0 0 0 0 2.718Z" stroke="#B24B4B" stroke-width=".044" stroke-miterlimit="10" stroke-linecap="round" stroke-linejoin="round"/><path d="M34.553 11.7c.305 0 .553-.042.553-.094s-.248-.094-.553-.094c-.305 0-.553.042-.553.094s.248.094.553.094ZM33.568 10.726s.225.262.806.318M35.555 10.726s-.225.262-.806.318" stroke="#B24B4B" stroke-width=".044" stroke-miterlimit="10" stroke-linecap="round" stroke-linejoin="round"/><path d="M33.993 11.015c0 .056-.034.103-.077.103-.042 0-.077-.046-.077-.103 0-.057.035-.104.077-.104.043 0 .078.047.078.104ZM35.291 11.015c0 .056-.034.103-.077.103s-.077-.046-.077-.103c0-.057.034-.104.077-.104s.077.047.077.104ZM12.854 12.871a1.36 1.36 0 1 0 0-2.718 1.36 1.36 0 0 0 0 2.718Z" stroke="#B24B4B" stroke-width=".044" stroke-miterlimit="10" stroke-linecap="round" stroke-linejoin="round"/><path d="M12.844 12.266c.305 0 .553-.042.553-.094s-.248-.094-.553-.094c-.305 0-.553.042-.553.094s.248.094.553.094ZM11.86 11.291s.225.262.806.319M13.847 11.291s-.225.262-.806.319" stroke="#B24B4B" stroke-width=".044" stroke-miterlimit="10" stroke-linecap="round" stroke-linejoin="round"/><path d="M12.208 11.684c.043 0 .078-.046.078-.103 0-.057-.035-.104-.078-.104s-.077.047-.077.104c0 .056.034.103.077.103ZM13.505 11.684c.043 0 .077-.046.077-.103 0-.057-.034-.104-.077-.104s-.077.047-.077.104c0 .056.034.103.077.103ZM29.737 43.092a1.466 1.466 0 1 0 0-2.931 1.466 1.466 0 0 0 0 2.931Z" stroke="#B24B4B" stroke-width=".044" stroke-miterlimit="10" stroke-linecap="round" stroke-linejoin="round"/><path d="M30.322 42.338c0 .056-.267.1-.596.1-.33 0-.596-.045-.596-.1 0-.056.267-.101.596-.101.33 0 .596.045.596.1ZM28.666 41.388s.243.283.869.343M30.807 41.388s-.242.283-.868.343" stroke="#B24B4B" stroke-width=".044" stroke-miterlimit="10" stroke-linecap="round" stroke-linejoin="round"/><path d="M29.123 41.7c0 .06-.037.11-.083.11-.046 0-.083-.05-.083-.11 0-.062.037-.111.083-.111.046 0 .083.05.083.11ZM30.523 41.7c0 .06-.038.11-.083.11-.047 0-.084-.05-.084-.11 0-.062.038-.111.084-.111.045 0 .083.05.083.11Z" stroke="#B24B4B" stroke-width=".044" stroke-miterlimit="10" stroke-linecap="round" stroke-linejoin="round"/><path opacity=".89" d="M23.602 47.652c3.688 0 6.677-.889 6.677-1.984 0-1.096-2.99-1.984-6.677-1.984-3.688 0-6.678.888-6.678 1.984 0 1.095 2.99 1.984 6.678 1.984Z" fill="#D3A0A0"/><path d="m23.779 27.582 1.226 6.935s-.13.355-.13.516v.29l-.967 3.55 1.516 1.354s2.871-4.871 3.065-5.581c.193-.71.322-3.742.322-3.742l-.161-6.162-.064-1.42s-3.42.42-5.355.485c-1.936.064-3.065-.033-3.065-.033l-.226-.097s-.258.29-.064.71" fill="#C55C5C"/><path d="m24.49 30.831.18.828c.433-.91 1.497-3.286 1.574-3.557.078-.272-1.332 2.034-1.755 2.729ZM28.811 30.904l-.135-5.182c-1.324 2.452-3.205 5.378-3.897 6.439l.226 2.356s-.13.355-.13.516v.29l-.967 3.549 1.516 1.355s2.871-4.871 3.065-5.581c.193-.71.322-3.742.322-3.742Z" fill="#E46F6F"/><path d="M24.973 40.808s-.129.807-.129 1.033c0 .225.58 1.096.807 1.29.225.193.774.42.903.677.129.258-.097.903-.162 1-.064.097-.677.29-1.29.033-.613-.259-1.226-1.13-1.742-1.678s-1.29-1.258-1.225-1.774c.064-.516 1.484-1.677 1.484-1.677s1.063 1.064 1.354 1.096Z" fill="#FADCDC" stroke="#BC4644" stroke-width=".044" stroke-miterlimit="10"/><path d="M24.7 40.933s-.17.568-.283.91c-.114.34.369.653.51.737.143.086.256 0 .143-.255-.114-.256-.227-.485-.227-.485l.129-1.032-.271.125ZM26.392 44.808c.064-.097.29-.742.161-1-.082-.163-.332-.314-.562-.452-.274.038-.64.12-.793.29-.258.291-.451.517-.451.517s-1.711-1.409-2.555-2.948a.566.566 0 0 0-.058.173c-.065.517.71 1.226 1.225 1.775.516.548 1.13 1.42 1.742 1.677.614.258 1.226.065 1.29-.032Z" fill="#B24B4B"/><path d="M23.896 38.424c.164.145.294.464.415.588.404.412.99.597 1.55.666.182.022.227.162.13.42s-.502.904-.76 1c-.258.098-1-.354-1.29-.677-.29-.322-.903-1-.839-1.225.062-.216.311-.676.506-.805.107-.072.202-.044.288.033Z" fill="#B24B4B"/><path d="M21.231 42.647s-.452 1.677-.71 2.226c-.258.548-.742 1.225-.774 1.612-.032.388.226.742.226.742s.322.29 1.322.42c1 .129 2.033-.194 2.226-.387.194-.194.258-.516.258-.742 0-.226-.193-2.129-.225-2.549-.033-.42-.033-1.354-.033-1.354l-2.29.032Z" fill="#FADCDC" stroke="#BC4644" stroke-width=".044" stroke-miterlimit="10"/><path d="M23.78 46.528c-.415.348-1.075.75-1.904.732-.924-.02-1.691-.368-2.127-.618.032.321.224.586.224.586s.322.29 1.322.42c1 .128 2.033-.194 2.226-.388.192-.191.256-.507.258-.732Z" fill="#fff" stroke="#263138" stroke-width=".044" stroke-miterlimit="10" stroke-linecap="round" stroke-linejoin="round"/><path d="M23.779 46.528s-.355-.559-1.968-.817a3.52 3.52 0 0 0-1.858.21c-.11.216-.194.413-.206.565-.032.387.226.741.226.741s.322.29 1.322.42c1 .129 2.033-.194 2.226-.387.191-.19.256-.507.258-.732ZM21.876 42.937s-.097.968-.323 1.452c-.226.483.065.515.355.515s.58-.128.58-.387v-1.613l-.612.033Z" fill="#B24B4B"/><path d="M20.747 41.066s-.226.226-.193.451c.032.226.032.968.193 1.259.162.29 1.136.536 1.75.536.612 0 1.121-.472 1.283-.762.161-.291.064-.71 0-1.097-.065-.388-.323-.452-.71-.549-.387-.097-1.58-.128-2.323.162Z" fill="#B24B4B"/><path d="m25.199 26.743-.872 1.13-.322.322s-.194.71-.226 1.064c-.032.355-.71 6.226-.71 6.226s.259 1.807.355 3c.097 1.194.097 2.646 0 3-.097.355-.936.516-1.516.452s-1.129-.323-1.161-.645c-.033-.323-1.588-4.455-1.678-5.097-.701-5.03-.265-7.465-.193-9 .095-2.03.355-3.517.355-3.517s1.096.161 2.451.193c1.355.033 4.097-.129 4.097-.129" fill="#C55C5C"/><path d="M21.338 25.49c.676.468 1.846 1.359 2.183 2.124M20.844 25.162l.22.142M23.602 27.112c.057.105.107.209.145.309M22.683 25.872s.33.356.635.79M23.067 35.778s-.127.933-.643 1.642M22.94 36.873s-.29.71-.71 1.354" stroke="#E46F6F" stroke-width=".044" stroke-miterlimit="10" stroke-linecap="round" stroke-linejoin="round"/><path d="M21.264 9.549s-3.526 2.952-4.462 4.016c-.935 1.065-.935 1.194-.774 1.646.161.451 2.59 4.629 2.752 5.145.16.516.322 2.71.322 3.193 0 .484.387.775.774.839.388.064 3.646.452 5.613.097 1.968-.355 3.065-.58 3.194-1 .13-.42.162-1.42.162-1.613 0-.193.42-6.355.42-6.355l3.29-1s-.936-4.645-1.098-5.033c-.16-.387-3.452-.665-4.71-.71-1.257-.043-4.322.614-4.742.646-.42.032-.741.129-.741.129Z" fill="#B24B4B"/><path d="M23.368 23.896c.905-.357 2.231-.944 3.4-1.704M22.285 24.292s.216-.069.573-.2M28.054 21.756c.084-.071.169-.143.254-.218M25.273 23.592s1.076-.504 2.343-1.484M29.232 15.323 28.07 12.71M20.49 15.517s.064-.839 0-1.484M28.683 14.033s-1.097-.355-1.387-1.032" stroke="#E46F6F" stroke-width=".044" stroke-miterlimit="10" stroke-linecap="round" stroke-linejoin="round"/><path d="m30.264 18.614-.03.13c-.119.529-.564 2.532-.648 3.257-.097.839-.838 3.161-.838 3.161s-1.355.033-1.581.065c-.226.032-.323.548-.323.774 0 .226-.226.742-.226.935 0 .194.387.355.387.355s-.032.387.065.452c.097.064.387.29.613.161.225-.129.42-.29.42-.29s.644.097.773.097c.13 0 .355-.13.516-.13.162 0 .323.098.452-.096.129-.193.258-.807.29-1 .033-.193 2.742-5.613 3.097-6.452.355-.839.387-1.161.387-1.452 0-.29-.129-.71-.129-.71l-3.29.517.064.226Z" fill="#F8C8B4"/><path d="M29.489 17.614s-.807-1.968-.58-2.194c.225-.226 2.45-1.226 3.419-1.226.968 0 1 .161 1 .387s-.323 2.355-.323 2.355-1.936-.129-3.516.678ZM21.199 11.775s-.226 1.484-.29 2.258c-.065.774.484 1.935.484 1.935s.806-.806 1.096-1.032c.29-.226 1.065-.323 1.065-.323s.613.097.871.258c.258.162 1 .936 1 .936s.407-.999.323-2.323c-.085-1.324-.484-2.193-.484-2.193l-4.065.484Z" fill="#E46F6F"/><path d="m22.844 14.549.774 1.548.42-1.516-1.194-.032Z" fill="#FAFAFA" stroke="#E46F6F" stroke-width=".044" stroke-miterlimit="10" stroke-linecap="round" stroke-linejoin="round"/><path d="M20.813 9.25s-.376-.065-.444.342c-.068.407.385 1.266.475 1.447.09.18.203.135.226-.046.023-.18.023-1.288.023-1.288s-.153-.457-.28-.455ZM26.125 9.247s.38-.033.413.379c.032.412-.492 1.228-.598 1.4-.105.173-.214.118-.22-.064-.008-.182.088-1.285.088-1.285s.191-.444.317-.43Z" fill="#F8C8B4"/><path d="M21.017 10.082s-.104 1.974.035 2.217c.138.243.692 1.94.797 2.079.097.13.99.75 2.536.306a.656.656 0 0 0 .422-.365c.258-.59.853-1.969.853-2.159 0-.242.243-2.563.243-2.563s.069-1.282-.381-1.594c-.45-.312-3.707-.243-4.157.034-.452.278-.348 2.045-.348 2.045Z" fill="#F8C8B4"/><path d="M25.211 11.288c-.008.148-.835.22-1.845.161-1.011-.058-1.824-.226-1.815-.374.008-.148.835-.22 1.846-.161 1.01.059 1.823.226 1.814.374Z" fill="#E0B5A6"/><path d="M24.762 12.403c-.104-.415-.693-.728-.693-.728s.104.278 0 .416c-.104.138-.381.347-.693.347-.312 0-.693-.347-.762-.485-.07-.138.173-.277.173-.277s-.693.242-.727.658M23.774 10.567c.163.26.857-.534 1.49-.623M22.752 10.533c-.017.268-.566-.474-1.005-.659" stroke="#441B13" stroke-width=".044" stroke-miterlimit="10" stroke-linecap="round" stroke-linejoin="round"/><path d="M24.502 11.017c.086 0 .156-.108.156-.242s-.07-.243-.156-.243-.156.109-.156.243.07.242.156.242ZM22.353 11.017c.086 0 .156-.108.156-.242s-.07-.243-.156-.243-.156.109-.156.243.07.242.156.242Z" fill="#441B13"/><path d="m23.41 10.013-.034.589.139.104M23.064 10.013v.589" stroke="#441B13" stroke-width=".044" stroke-miterlimit="10" stroke-linecap="round" stroke-linejoin="round"/><path d="M24.613 13.262a1 1 0 0 0-.66-.372c-.34-.048-.936-.189-1.38-.041-.728.243-.826.802-.549 1.148.277.346.785-.342 1.443-.168.658.173.775.48 1.087.064.208-.277.2-.447.059-.631Z" fill="#fff" stroke="#441B13" stroke-width=".044" stroke-miterlimit="10" stroke-linecap="round" stroke-linejoin="round"/><path d="M21.934 13.403s.369.07.894.042Z" fill="#fff"/><path d="M21.934 13.403s.369.07.894.042" stroke="#441B13" stroke-width=".044" stroke-miterlimit="10" stroke-linecap="round" stroke-linejoin="round"/><path d="M24.675 13.403s-.526.057-.838.042Z" fill="#fff"/><path d="M24.675 13.403s-.526.057-.838.042M21.815 10.971c-.008.002.133-.024.361.09M24.572 11.107s.181-.113.294-.09" stroke="#441B13" stroke-width=".044" stroke-miterlimit="10" stroke-linecap="round" stroke-linejoin="round"/><path d="m21.61 8.661.484-.069s-.554.762.104.97c.659.208 2.634-.831 2.807-1.074.173-.243-.035.312.138.38.174.07.347-.138.347-.138s-.243.45 0 .658c.243.208.416.208.416.208l-.07.901.347-1.281s.242-.174.277-.659c.035-.485-.139-.658-.104-.831.035-.174.277-.174.312-.554.035-.381-.38-1.11-.727-1.248-.347-.138-.936-.104-.936-.104s-.831-.554-2.079-.623c-1.247-.07-2.286.797-2.182 1.143.104.347.277.38.277.38s-1.42.832-1.178 1.248c.243.416 1.11.554 1.11.554s-.278.45-.14.728c.14.277.209 1.212.209 1.212s-.035-.242.242-.693c.276-.45.415-.761.346-1.108Z" fill="#441B13"/><path d="m22.102 18.872 7.258-1.613s.646-1.678.774-1.872c.13-.193.581-.387.807-.516.226-.128.516-.451.646-.612.128-.162.258-.259.387 0a.713.713 0 0 1 0 .677c-.097.161-.402.383-.402.383s1.08-.512 1.208-.512c.13 0 .323.032.387.226.065.193.065.226-.032.387s-.193.226-.193.226.29 0 .42.097c.128.096.192.29.192.42 0 .128-.072.341-.168.405-.097.065-.122.207-.122.207l.452.065s.193.387.129.58c-.065.193-.355.29-.355.29s.323.162.161.387c-.16.226-.387.194-.484.194-.096 0-3.225.58-3.225.58l-8.097 4c-.001.001-.098-2.967.257-4Z" fill="#F8C8B4" stroke="#E0B5A6" stroke-width=".044" stroke-miterlimit="10"/><path d="M32.523 15.765s-.06.178-.208.208c-.149.03-.357 0-.357 0l-.535.387M32.88 16.866s-.03.149-.208.178c-.178.03-.387-.09-.387-.09l-.535.268M31.572 15.32s-1.041.237-1.07.327a.867.867 0 0 1-.09.178" stroke="#E0B5A6" stroke-width=".044" stroke-miterlimit="10" stroke-linecap="round" stroke-linejoin="round"/><path d="m19.908 14.065 2.033 4.871-2.226 3.549s-2.945-3.758-3.655-5.63c-.71-1.87-.225-2.128-.193-2.225.032-.097 1.097-.903 1.097-.903" fill="#B24B4B"/><path d="M21.747 18.388s-.387.097-1.258 1.161c-.871 1.065-1.452 2.065-1.452 2.42s.42.774 1.226 1.097c.807.323 1.903.032 1.903-.323 0-.354-.032-2.742-.032-3.194 0-.451.096-.741.096-.741s-.192-.355-.483-.42Z" fill="#E46F6F"/><path d="M16.362 7.792c.014-.03.028-.059.039-.09a.653.653 0 0 0 .773-.22l1.657.44-1.531-.823a.654.654 0 0 0-.037-.213 1.05 1.05 0 1 0-1.308-1.594.794.794 0 0 0-1.546.204l-.017.013a.652.652 0 0 0-.487 1.203c.017.158.063.307.13.444a.564.564 0 1 0 .787.808.905.905 0 0 0 1.381.063l1.323-.05-1.164-.185ZM28.908 4.776c-.024-.022-.049-.043-.071-.067a.65.65 0 0 1-.796.113l-1.338 1.073 1.067-1.373a.66.66 0 0 1-.053-.21 1.05 1.05 0 1 1 .55-1.986.794.794 0 0 1 1.496-.44l.02.005a.652.652 0 0 1 .932.902c.049.151.067.306.062.458a.565.565 0 1 1-.393 1.058.905.905 0 0 1-1.237.618l-1.229.49.99-.641Z" fill="#D2AEAD"/><path d="M25.072 9.658c-.023.09-.274.142-.536.276-.267.127-.461.294-.545.258-.039-.02-.036-.099.03-.207a.948.948 0 0 1 .382-.327.937.937 0 0 1 .49-.102c.124.013.188.06.18.102ZM21.9 9.772c.022.088.262.128.514.251.255.115.44.273.522.234.037-.02.034-.098-.03-.203a.863.863 0 0 0-.364-.309.853.853 0 0 0-.47-.081c-.12.017-.18.066-.172.108Z" fill="#441B13"/><path d="M19.932 7.035a.057.057 0 0 1-.01-.114.39.39 0 0 0 .319-.454.393.393 0 0 0-.454-.319.057.057 0 0 1-.066-.046.057.057 0 0 1 .046-.066.507.507 0 0 1 .174.998h-.009ZM21.038 6.282a.504.504 0 0 1-.465-.308.503.503 0 0 1-.004-.387.057.057 0 0 1 .074-.032c.03.012.044.045.032.074a.391.391 0 0 0 .218.511c.2.08.43-.017.51-.218a.057.057 0 0 1 .075-.031c.029.011.043.045.031.074a.507.507 0 0 1-.47.317ZM21.579 7.43h-.006a.507.507 0 0 1 .11-1.008.057.057 0 0 1 .05.063.058.058 0 0 1-.063.051.393.393 0 0 0-.085.78.057.057 0 0 1 .05.064.058.058 0 0 1-.056.05ZM20.902 7.662a.057.057 0 0 1-.053-.078.322.322 0 0 0-.428-.419.32.32 0 0 0-.172.177.057.057 0 0 1-.075.031.057.057 0 0 1-.031-.074.435.435 0 0 1 .57-.243c.224.09.333.346.243.57a.057.057 0 0 1-.053.036ZM24.823 8.877a.037.037 0 0 1-.036-.03.036.036 0 0 1 .03-.043.25.25 0 0 0 .204-.29.251.251 0 0 0-.29-.204.036.036 0 0 1-.043-.03.036.036 0 0 1 .03-.042.325.325 0 0 1 .111.639h-.006ZM25.532 8.395a.322.322 0 0 1-.298-.197.32.32 0 0 1-.002-.25.037.037 0 0 1 .068.028.25.25 0 0 0 .14.327.252.252 0 0 0 .326-.14.037.037 0 0 1 .068.028.326.326 0 0 1-.302.204ZM25.878 9.13h-.004a.325.325 0 0 1 .07-.645.037.037 0 0 1-.007.073.252.252 0 0 0-.055.5c.02.002.035.02.032.04a.037.037 0 0 1-.036.032ZM25.445 9.279c-.005 0-.01-.001-.014-.003a.037.037 0 0 1-.02-.048.207.207 0 0 0-.274-.268.207.207 0 0 0-.111.114.037.037 0 0 1-.068-.027.28.28 0 0 1 .365-.156.28.28 0 0 1 .155.365.035.035 0 0 1-.033.023Z" fill="#B24B4B"/><path d="M20.258 10.399c-.017.005-.741.1-.72.093.075-.087.078-.155.012-.244-.067-.091-.169-.102-.281-.085a.531.531 0 0 0-.295.12c-.078.075-.112.204-.05.292-.182-.048-.386.109-.388.296-.001.187.201.346.383.3-.112.103-.124.292-.036.416a.386.386 0 0 0 .406.138.474.474 0 0 0 .314-.304c.024.104.17.145.26.085.09-.059.117-.183.089-.286a.567.567 0 0 0-.181-.26l.582-.227" fill="#fff"/><path d="m20.352 10.733-.038.017-.114.047-.426.171.002-.015a.742.742 0 0 1 .136.154c.04.062.068.14.059.224-.008.081-.052.174-.145.206a.206.206 0 0 1-.14-.006.16.16 0 0 1-.097-.108l.026.002a.509.509 0 0 1-.19.252.414.414 0 0 1-.33.065.361.361 0 0 1-.267-.228.338.338 0 0 1 .08-.353l.014.026c-.02.003-.04.008-.062.008a.344.344 0 0 1-.254-.114.304.304 0 0 1-.08-.259.34.34 0 0 1 .4-.26l-.015.022a.218.218 0 0 1-.024-.183.284.284 0 0 1 .1-.147.613.613 0 0 1 .31-.107.36.36 0 0 1 .154.013c.048.016.09.051.115.09a.19.19 0 0 1 .04.134.234.234 0 0 1-.06.114l-.005.004c.018-.018-.007-.02-.003-.02H19.558l.021-.003.04-.005a7.762 7.762 0 0 0 .222-.027l.227-.027.141-.017.037-.004h.012a.214.214 0 0 1-.048.01l-.141.021c-.063.01-.138.02-.226.032l-.143.02-.078.01a3.469 3.469 0 0 1-.041.005l-.021.003-.01.002H19.537c.004.002-.023-.002-.003-.02l-.005.004a.212.212 0 0 0 .054-.104c.006-.04-.012-.081-.038-.118a.202.202 0 0 0-.105-.081.336.336 0 0 0-.143-.01.593.593 0 0 0-.295.102.261.261 0 0 0-.09.134.191.191 0 0 0 .02.159l.022.032-.037-.01c-.15-.04-.333.073-.364.239-.034.166.129.34.305.336.019 0 .037-.004.054-.007l.053-.01-.039.036a.309.309 0 0 0-.071.322c.036.109.138.184.245.207.108.027.22.001.307-.059a.483.483 0 0 0 .18-.237l.016-.045.01.046c.01.041.043.073.082.09a.18.18 0 0 0 .122.005c.078-.026.121-.109.128-.184a.332.332 0 0 0-.053-.21.73.73 0 0 0-.13-.152l-.012-.01.015-.006.43-.163.114-.042a.293.293 0 0 1 .042-.013Z" fill="#C68B8C"/><path d="M20.187 10.515a1.03 1.03 0 0 1-.235.083c-.132.037-.24.06-.243.052a1.035 1.035 0 0 1 .235-.082c.132-.037.24-.06.243-.053ZM20.166 10.28c0 .009-.079.02-.177.027a.533.533 0 0 1-.18-.004c0-.009.08-.02.178-.027.098-.006.179-.005.179.004ZM20.426 10.883a.551.551 0 0 1-.12.139.559.559 0 0 1-.143.117.554.554 0 0 1 .121-.139.587.587 0 0 1 .142-.117Z" fill="#C68B8C"/><path d="M26.769 10.197c.015.01.583.497.564.485-.118.003-.171.048-.194.158-.024.115.038.2.128.273.085.07.183.134.294.143.11.008.232-.054.257-.161.088.17.347.22.491.092.144-.127.126-.39-.033-.498.155.015.307-.105.341-.257a.395.395 0 0 0-.172-.404.485.485 0 0 0-.448-.03c.063-.09-.006-.23-.112-.257-.107-.028-.22.036-.28.128a.58.58 0 0 0-.074.316l-.572-.288" fill="#fff"/><path d="m26.959 9.897.04.017.113.054.423.208-.014.008c0-.065.005-.136.025-.21a.36.36 0 0 1 .131-.198c.067-.05.169-.079.256-.03a.21.21 0 0 1 .09.11.162.162 0 0 1-.014.149l-.017-.021a.524.524 0 0 1 .323-.028c.11.025.216.1.274.207a.37.37 0 0 1 .01.36.348.348 0 0 1-.324.181l.01-.029c.016.012.034.025.048.042a.352.352 0 0 1 .088.272.308.308 0 0 1-.142.239.348.348 0 0 1-.474-.127l.028-.004a.224.224 0 0 1-.124.144.297.297 0 0 1-.18.024.629.629 0 0 1-.293-.162.368.368 0 0 1-.096-.127.233.233 0 0 1-.01-.15.197.197 0 0 1 .074-.122.237.237 0 0 1 .129-.032h.005c-.025 0-.01.02-.012.016h-.001l-.002-.002-.004-.004-.008-.007-.016-.014-.031-.028-.061-.053-.111-.098-.177-.154-.11-.097a1.905 1.905 0 0 0-.036-.034l.04.03.114.093.18.15.112.096.062.052.032.028.016.014.008.007.004.004.002.002.002.001c-.002-.004.014.02-.013.016l.006.002a.22.22 0 0 0-.117.03c-.035.023-.054.064-.064.109a.207.207 0 0 0 .01.135.605.605 0 0 0 .371.27c.054.01.112.003.163-.022a.195.195 0 0 0 .108-.124l.009-.039.018.036c.073.141.284.203.431.114.15-.089.172-.332.048-.463-.013-.015-.029-.026-.043-.037l-.044-.034.054.005a.317.317 0 0 0 .295-.166.34.34 0 0 0-.01-.33.393.393 0 0 0-.255-.193.496.496 0 0 0-.305.025l-.045.019.028-.04A.136.136 0 0 0 28 9.865a.184.184 0 0 0-.08-.096c-.073-.043-.166-.019-.228.027a.342.342 0 0 0-.124.185.752.752 0 0 0-.026.204v.015l-.014-.007-.419-.216a9.192 9.192 0 0 0-.15-.08Z" fill="#C68B8C"/><path d="M26.905 10.171c.005-.007.105.048.224.123.119.075.211.142.207.15-.005.007-.105-.049-.224-.124-.119-.075-.211-.141-.207-.149ZM26.74 10.348c.006-.006.07.046.142.117.072.07.125.133.12.139-.007.006-.07-.046-.142-.117-.073-.07-.127-.133-.12-.139ZM27.023 9.736c0-.008.084-.01.188-.003s.187.02.186.028c0 .01-.085.01-.188.003-.103-.006-.187-.019-.186-.028Z" fill="#C68B8C"/></g><defs><clipPath id="a"><rect width="48" height="48" rx="24" fill="#fff"/></clipPath></defs></svg>