<svg width="48" height="48" fill="none" xmlns="http://www.w3.org/2000/svg"><g clip-path="url(#a)"><rect width="48" height="48" rx="24" fill="#fff"/><path opacity=".7" d="M40.4 10.072c-1.596-1.653-3.423-3.027-5.366-3.99-2.959-1.465-6.217-2.172-9.475-2.214C16.036 3.745 15.31 15.6 12.382 17.249c-2.928 1.649-8.235 1.843-8.418 8.437-.116 4.147.798 8.411 3.367 11.643 2.353 2.96 5.81 4.459 9.215 5.568 3.825 1.244 7.881 2.465 11.903 1.625 4.128-.861 7.03-4.326 10.42-6.666 2.134-1.474 4.05-3.026 5.368-5.392.157-.282.305-.57.445-.864 1.764-3.675 2.11-7.914 1.138-11.89-.872-3.57-2.844-6.968-5.42-9.638Z" fill="#EFEFEF"/><path d="M23.467 20.605h-4.67v1.235h4.67v-1.235Z" fill="#F5F5F5"/><path d="m21.491 23.142-.002-.022c0-.017 0-.038-.002-.064l-.003-.242-.008-.907.014.015-4.67.01c.01-.011-.024.023.024-.025v1.236l-.023-.023 3.328.01.982.007.266.003c.029 0 .052 0 .07.002h.024l-.022.002c-.017 0-.04 0-.066.002l-.26.002c-.232.003-.564.004-.977.007l-3.345.01h-.023v-1.258l.024-.024 4.67.01h.015v.014l-.008.915-.004.24c0 .025 0 .045-.002.06 0 .013 0 .02-.002.02Z" fill="#E0E0E0"/><path d="m37.599 23.764-.22-.736a2.56 2.56 0 1 0-.614.683l-.001.001.835.052Z" fill="#fff"/><path d="m37.599 23.764-.052-.001-.159-.008-.626-.032c-.005 0-.01-.006-.01-.012 0-.002 0-.005.002-.007l.016.015a2.541 2.541 0 0 1-1.977.512 2.567 2.567 0 0 1-1.647-.98 2.586 2.586 0 0 1-.468-1.001 2.584 2.584 0 0 1 2.775-3.134 2.6 2.6 0 0 1 1.826 1.051c.392.54.523 1.16.488 1.668a2.55 2.55 0 0 1-.382 1.197l.001-.008.159.553.04.14a.282.282 0 0 1 .014.047s-.007-.017-.017-.05l-.045-.141-.169-.543.001-.008a2.55 2.55 0 0 0-.124-2.83 2.566 2.566 0 0 0-.753-.683 2.527 2.527 0 0 0-3.201.513 2.54 2.54 0 0 0-.565 2.217 2.555 2.555 0 0 0 1.212 1.649c.28.161.576.259.862.304.286.046.562.045.811.003.502-.08.886-.296 1.147-.494a.01.01 0 0 1 .015.002.012.012 0 0 1 0 .014h-.001l-.008-.017.618.045.16.012.057.007Z" fill="#6B6C6D"/><path d="M34.48 21.687a.26.26 0 1 1-.52.001.26.26 0 0 1 .52 0ZM35.516 21.687a.26.26 0 1 1-.52 0 .26.26 0 1 1 .52 0ZM36.558 21.556a.26.26 0 1 1-.45.26.26.26 0 0 1 .45-.26Z" fill="#777"/><g opacity=".49"><path d="m22.104 24.122.35-2.444c.158-1.907.123-4.223.407-4.828.524-1.117 2.108-1.144 2.108-1.144 2.104-.045 2.397 1.585 2.534 3.063.024.25.107.698.216 1.216.256 1.08.59 2.194 1.33 2.956.281.291.46.69.507 1.093.047.402-.19.872-.592.92.194.204.287.5.245.779a.942.942 0 0 1-.466.67c-.347.195-.773.148-1.165.082-.388-.065-.795-.152-1.091-.413-.297-.261-.435-.656-.536-1.038a9.042 9.042 0 0 1-.254-1.404l-3.593.492Z" fill="#353535"/><path d="m24.66 16.285.138-.118 1.388.644a.396.396 0 0 1 .354.402l-.446 4.734c-.015.313.11.465-.092.705l-1.386 1.599c-.483.576-.375-.742-.701-1.42-.023-.046.095-.213.088-.246-.006-.041-.015-.07-.016-.105-.023-.373-.01-.696-.01-.696-.005-.409-.005-.577-.005-.573 0 0-.863-.144-1.041-1.27-.089-.56-.028-1.32.042-2.07.102-1.038.853-1.629 1.688-1.586Z" fill="#D6D6D6"/><path d="M24.627 18.677a.145.145 0 0 0 .14.146.138.138 0 0 0 .148-.13.145.145 0 0 0-.14-.146.14.14 0 0 0-.148.13ZM23.198 18.603a.145.145 0 0 0 .14.146.138.138 0 0 0 .148-.13.145.145 0 0 0-.139-.146.138.138 0 0 0-.149.13ZM23.103 18.173c.018.02.127-.062.283-.061.155-.002.27.079.286.06.009-.01-.01-.043-.06-.08a.404.404 0 0 0-.229-.07.38.38 0 0 0-.224.073c-.049.035-.065.07-.056.078ZM24.682 18.269c.02.017.12-.075.274-.09.155-.018.276.05.291.03.008-.01-.014-.042-.067-.073a.395.395 0 0 0-.451.048c-.044.042-.057.078-.047.085ZM24.087 19.37c0-.008-.096-.026-.253-.046-.04-.004-.077-.012-.083-.039-.01-.029.007-.071.026-.118l.118-.303c.163-.43.28-.784.264-.79-.018-.006-.165.337-.328.767-.04.106-.077.208-.112.305-.015.045-.041.096-.021.155.01.03.04.051.065.058.025.008.048.009.067.01.158.01.256.01.257.001Z" fill="#353535"/><path d="M23.98 21.21s.758.049 1.509-.402c0 0-.38.78-1.507.674l-.002-.272ZM24.279 19.662c.055-.074.221-.19.32-.179.066.008.111.056.152.112.041.054-.002.206-.04.258-.042.058-.122.102-.197.081-.074-.02-.171-.13-.232-.18a.18.18 0 0 1-.044-.045c-.01-.018.027-.032.04-.047Z" fill="#B1B1B2"/><path d="M24.561 17.658c.02.04.172.004.355.008.184 0 .335.038.355-.002.009-.019-.02-.055-.083-.09a.593.593 0 0 0-.27-.065.59.59 0 0 0-.273.06c-.062.033-.093.07-.084.089ZM23.162 17.509c.027.035.135-.001.263-.003.13-.006.238.024.264-.014.01-.018-.006-.053-.054-.086a.361.361 0 0 0-.214-.057.364.364 0 0 0-.21.07c-.046.036-.061.072-.049.09Z" fill="#353535"/><path d="M26.415 19.18s-.806.208-1.157-1.774c-.12-.678-.713-1.252-.713-1.252l.255-.063s1.544.52 1.569.541c.025.021.354.83.354.83l-.308 1.719Z" fill="#353535"/><path d="M26.22 19.098c0-.083.097-.281.18-.294.221-.035.62-.017.623.545.005.768-.767.614-.769.592 0-.017-.035-.553-.034-.843Z" fill="#D6D6D6"/><path d="M26.491 19.65c.004-.004.013.009.037.018.021.01.06.017.1.002.08-.03.148-.159.151-.297a.437.437 0 0 0-.038-.191c-.024-.056-.06-.095-.101-.102a.068.068 0 0 0-.079.037c-.01.021-.005.037-.01.039-.002.002-.016-.013-.01-.044a.08.08 0 0 1 .03-.048.1.1 0 0 1 .074-.02c.06.003.113.057.14.117.03.061.049.136.048.215-.004.154-.083.3-.193.333a.147.147 0 0 1-.123-.02c-.024-.022-.029-.039-.026-.04Z" fill="#353535"/><path d="M25.895 18.78c0-.003-.043-.005-.114-.03a.698.698 0 0 1-.265-.171.943.943 0 0 1-.133-.174 1.323 1.323 0 0 1-.105-.23c-.06-.167-.093-.362-.136-.565a5.638 5.638 0 0 0-.148-.564 3.198 3.198 0 0 0-.178-.443 2.376 2.376 0 0 0-.16-.277c-.022-.032-.04-.055-.053-.071-.012-.017-.018-.024-.019-.024l.016.026c.011.017.028.04.048.073.042.063.097.158.156.28.059.122.119.272.173.442.054.17.102.36.146.563.043.202.077.398.139.568.03.085.066.163.107.232.043.068.09.127.139.175.098.096.2.148.272.17.072.02.114.02.114.02Z" fill="#2E353A"/><path d="M22.345 22.291s-1.181 1.073-.907 2.442c.273 1.369.255 4.23.255 4.23s-.117 1.111-.277 2.322a97.658 97.658 0 0 1-.481 3.055l1.269.545s1.112-3.625 1.262-4.768c.193-1.473-.2-4.886-.2-4.886l-.921-2.94Z" fill="#C6C6C6"/><path d="m20.935 34.156-2.62.508s-.124.165.124.185c.248.02 3.733 0 3.733 0l-1.237-.693Z" fill="#AE7461"/><path d="M31.666 35.123s3.178.228 4.725.129c.938-.06 1.678-1.096.82-1.835-.415-.357-5.618-1.51-5.618-1.51-.992.697-.412 2.42.073 3.216Z" fill="#D6D6D6"/><path d="M37.383 33.536c-.004.01-.692-.212-1.538-.498-.846-.286-1.529-.527-1.525-.537.004-.011.693.212 1.538.498.846.286 1.529.527 1.525.537Z" fill="#6D6C6C"/><path d="M33.507 29.006s2.897 1.367 4.157 2.27c.764.547.844 1.817-.275 1.99-.54.084-5.567-1.689-5.567-1.689-.47-1.117.853-2.152 1.685-2.57Z" fill="#D6D6D6"/><path d="m29.372 27.901.282.262s1.014-.514 2.636.184c.986.425 3.436 1.647 3.436 1.647s-1.391.47-1.367 1.656c.024 1.186-.024 1.193-.415 1.446-.39.254-1.83.12-1.977 1.06-.146.94-.195 1.021-.195 1.021s-4.144-.132-5.364-.67c-1.22-.536-1.666-3.55-1.666-3.55l-.15-.605 4.78-2.45Z" fill="#8E8E8E"/><path d="M33.647 32.352a.44.44 0 0 1-.061-.015 17.792 17.792 0 0 0-.175-.049l-.64-.189-2.107-.636a6.215 6.215 0 0 0-1.181-.241 3.102 3.102 0 0 0-.977.064 2.15 2.15 0 0 0-.817.38 1.365 1.365 0 0 1 .194-.149c.132-.085.34-.19.615-.259.274-.07.614-.103.988-.074.373.03.776.12 1.19.24.825.246 1.566.48 2.104.648l.636.201c.072.024.13.042.172.057.04.013.06.02.06.022ZM30.316 30.118c.012.008-.16.208-.256.51-.101.301-.074.563-.089.563a.473.473 0 0 1-.018-.17 1.36 1.36 0 0 1 .25-.775.498.498 0 0 1 .113-.128Z" fill="#6D6C6C"/><path d="m23.722 28.463.92 1.89s3.561-.97 4.126-1.638c.563-.667.751-.949.751-.949l-1.362-2.497-.293-3.213-1.55-.234c-.825.42-1.963.515-2.29.04 0 0-.924.006-1.591.38l-.675 1.804 1.964 4.417Z" fill="#A5A4A4"/><path d="M21.406 26.64h1.82l-.643-4.463s-1.007.34-1.177 1.388c-.146.899 0 3.075 0 3.075Z" fill="#A5A4A4"/><path d="M22.283 23.836c.001 0 .004.015.007.046l.012.132c.005.058.01.128.02.21.01.081.018.173.034.275a9.171 9.171 0 0 0 .968 3.05c.046.092.093.173.132.245.039.072.074.132.104.182l.066.115a.365.365 0 0 1 .021.042l-.027-.038-.073-.111a3.752 3.752 0 0 1-.11-.18c-.042-.07-.091-.15-.14-.242a8.33 8.33 0 0 1-.632-1.484 8.535 8.535 0 0 1-.34-1.577c-.013-.103-.02-.196-.026-.277a3.445 3.445 0 0 1-.014-.21l-.005-.133a.27.27 0 0 1 .003-.045Z" fill="#848383"/><path d="M27.805 22.054s1.116-.016 1.56 1.113c.432 1.092.509 2.51.509 2.51l-2.298.488.252-1.962s-.272-.8-.298-1.258c-.063-1.105.275-.891.275-.891Z" fill="#A5A4A4"/><path d="M29.874 25.678s-.014.006-.041.012l-.12.027-.445.091-1.484.29-.022.004-.003-.023-.014-.117-.186-1.58a315.33 315.33 0 0 1-.062-.61.164.164 0 0 1 0-.047l.009.045.019.13.064.478.197 1.58.014.117-.024-.018 1.486-.277.447-.079.122-.02c.028-.003.043-.004.043-.003Z" fill="#848383"/><path d="m29.762 25.702-1.703.303.091.527-.654-.06-1.337.628s1.117 1.207 1.81 1.535c.694.327 1.816.482 1.961-.733.099-.821-.168-2.2-.168-2.2Z" fill="#D6D6D6"/><path d="M29.467 27.366c-.006.003-.06-.07-.162-.177a2.109 2.109 0 0 0-.974-.579c-.142-.038-.233-.05-.232-.058a1.238 1.238 0 0 1 .24.029 1.867 1.867 0 0 1 .988.588c.05.056.086.104.108.14.023.035.035.055.032.057Z" fill="#A5A4A4"/><path d="M26.53 25.69s.188-.245.327-.3c.14-.055.202-.07.202-.07s-.07-.256.194-.28c0 0 .1.086.186.086.085 0 .148.023.171.124.023.1.085.38 0 .513-.085.131-.241.264-.17.62 0 0-.094.396-.296.497-.201.1-.302.093-.302.093s-.186.225-.342.194c-.155-.03-.224-.038-.224-.038s-.124.192-.396.04c0 0-.147.106-.302.021-.073-.04-.427-.395-.443-.667-.015-.272-.005-.459.063-.559.1-.15.244-.014.244-.014s.036-.258.137-.358c.1-.101.178-.086.178-.086s-.03-.31.21-.334c.24-.023.216.264.224.42l.008.155s.096-.227.332-.056Z" fill="#D6D6D6"/><path d="M26.532 25.69c.001.005-.03-.02-.092-.043a.184.184 0 0 0-.117-.003.2.2 0 0 0-.112.109l-.02.044-.003-.049c-.004-.066-.01-.14-.013-.223-.004-.08-.005-.172-.044-.253-.035-.086-.156-.1-.243-.054-.088.05-.116.175-.109.287l.003.025h-.028c-.07-.004-.16.062-.201.14a.904.904 0 0 0-.085.284l-.006.046-.035-.031c-.048-.042-.12-.068-.17-.029-.05.04-.074.114-.085.187a1.425 1.425 0 0 0-.013.235c.003.08.001.165.02.239.045.152.148.294.262.422.029.032.06.063.09.093.017.015.033.029.049.041.013.01.034.02.052.025a.276.276 0 0 0 .233-.034l.015-.01.016.008c.072.04.161.068.242.045a.212.212 0 0 0 .115-.078l.011-.016.017.003.16.028c.027.003.057.01.079.012a.165.165 0 0 0 .067-.008c.09-.03.17-.103.235-.176l.009-.01h.015a.614.614 0 0 0 .214-.056.383.383 0 0 0 .177-.122 1.09 1.09 0 0 0 .178-.39v.011a.66.66 0 0 1 .06-.468c.037-.067.088-.125.123-.181a.392.392 0 0 0 .034-.192c0-.067-.01-.133-.02-.196-.014-.063-.02-.13-.054-.168a.114.114 0 0 0-.07-.033c-.025-.006-.056 0-.089-.01a.444.444 0 0 1-.155-.085l.013.005c-.07.006-.134.033-.163.087a.248.248 0 0 0-.018.17l.003.013-.014.005-.141.047c-.045.015-.086.027-.118.05-.067.044-.116.094-.156.133-.04.04-.068.072-.087.093a.223.223 0 0 1-.03.032 1.618 1.618 0 0 1 .106-.135c.037-.042.084-.094.153-.142a.444.444 0 0 1 .122-.057l.142-.05-.01.019a.28.28 0 0 1 .017-.194c.035-.067.113-.102.19-.109h.008l.006.004c.04.032.09.063.14.075.044.01.127-.005.18.052.026.027.039.06.047.093a1.253 1.253 0 0 1 .045.298c.001.07 0 .146-.038.217-.04.066-.086.119-.121.183a.606.606 0 0 0-.05.433v.006l-.002.005c-.038.143-.09.287-.188.413a.386.386 0 0 1-.09.084c-.036.024-.07.037-.108.054a.659.659 0 0 1-.24.06l.023-.01a.65.65 0 0 1-.262.196.232.232 0 0 1-.09.01c-.032-.003-.054-.008-.082-.012l-.157-.027.028-.013a.27.27 0 0 1-.149.102.392.392 0 0 1-.286-.051l.03-.002a.33.33 0 0 1-.285.042.232.232 0 0 1-.069-.034 1.282 1.282 0 0 1-.148-.142 1.201 1.201 0 0 1-.272-.447c-.023-.088-.018-.17-.021-.252a1.37 1.37 0 0 1 .014-.244c.014-.079.037-.164.108-.221a.149.149 0 0 1 .127-.024c.043.01.076.03.107.059l-.042.015a.959.959 0 0 1 .093-.302.341.341 0 0 1 .104-.114.216.216 0 0 1 .146-.046l-.026.024a.49.49 0 0 1 .023-.184.244.244 0 0 1 .11-.141.265.265 0 0 1 .168-.026c.057.008.105.05.126.098.043.094.04.188.043.268 0 .082.005.156.007.222l-.023-.004a.218.218 0 0 1 .13-.117.2.2 0 0 1 .126.01c.065.03.086.056.09.058Z" fill="#A5A4A4"/><path d="M27.348 25.623c0 .008-.028.014-.072.003a.29.29 0 0 1-.216-.247c-.003-.045.006-.071.013-.071.016-.001.024.102.1.19.078.088.178.11.175.125ZM27 26.41c-.017.005-.087-.176-.216-.376-.126-.2-.267-.335-.255-.348.009-.013.173.107.304.317.134.207.18.403.166.407ZM26.203 25.686c.01.002-.006.075.02.187.022.114.095.257.187.414.044.078.084.157.112.233.029.076.036.15.052.204.028.113.103.142.1.148-.001.003-.023.004-.052-.016a.24.24 0 0 1-.087-.119c-.022-.059-.033-.127-.063-.197a2.033 2.033 0 0 0-.112-.224c-.092-.156-.164-.313-.176-.435-.017-.124.013-.198.02-.195ZM26.076 26.746c-.004.005-.068-.039-.156-.128a.612.612 0 0 1-.126-.185.885.885 0 0 1-.054-.267c-.035-.378.007-.686.022-.684.017.001 0 .306.036.678.009.093.017.18.046.253.028.072.07.13.107.177.077.094.131.15.125.156ZM25.646 26.817c-.008.003-.034-.045-.095-.11-.03-.034-.068-.072-.104-.125a.404.404 0 0 1-.067-.195c-.011-.146.026-.268.037-.357.014-.088.014-.143.022-.144.007 0 .023.056.019.149-.002.092-.03.217-.02.348.007.133.092.223.146.298.054.075.07.134.062.136Z" fill="#A5A4A4"/><path d="M24.527 19.947c-.002-.008.065-.005.137-.068a.232.232 0 0 0 .077-.138.228.228 0 0 0-.154-.244l.015-.001c-.218.09-.352.208-.36.198-.006-.005.118-.14.342-.239l.007-.002.008.001c.044.013.087.04.12.078a.262.262 0 0 1 .063.215.25.25 0 0 1-.098.155c-.087.065-.16.049-.157.045Z" fill="#353535"/><path d="m12.786 17.027.1-.006c1.018-.057 1.908.655 2.049 1.636.13.912.262 1.92.285 2.412.047 1.019-.991 1.236-.991 1.236l.037.413c.062.684-.287 1.683-.99 1.74l-.243-.142c-.695.056-1.237-.696-1.303-1.371l-.372-3.779c-.157-1.052.342-2.017 1.428-2.14Z" fill="#D6D6D6"/><path d="M14.235 22.301s-.666.077-1.395-.314c0 0 .366.715 1.405.565l-.01-.25Z" fill="#B1B1B2"/><path d="M14.643 19.602c.008.077-.054.146-.135.155-.082.008-.155-.046-.163-.122-.007-.077.054-.146.136-.155.082-.01.154.045.162.122ZM14.74 19.166c-.018.02-.136-.054-.297-.046-.162.007-.275.094-.293.076-.009-.008.007-.043.056-.083a.418.418 0 0 1 .47-.023c.053.034.072.068.063.076ZM13.243 19.698c.007.077-.054.146-.136.155-.081.008-.154-.046-.162-.123-.008-.077.054-.146.135-.155.082-.008.155.046.163.123ZM13.156 19.284c-.017.02-.135-.055-.296-.046-.16.006-.274.094-.293.076-.009-.008.007-.044.056-.083a.418.418 0 0 1 .47-.024c.053.034.072.068.063.077ZM13.812 20.41c0-.008.098-.031.259-.06.041-.007.08-.016.084-.044.008-.03-.011-.071-.034-.117l-.14-.298c-.194-.423-.338-.773-.32-.78.018-.008.19.329.385.753l.134.3c.018.044.048.094.03.155a.103.103 0 0 1-.064.063c-.025.01-.048.01-.069.013-.163.018-.264.025-.265.015ZM13.165 18.669c-.014.043-.175.033-.363.065-.189.03-.337.091-.365.055-.013-.017.011-.06.07-.104a.623.623 0 0 1 .267-.107.638.638 0 0 1 .288.016c.072.022.108.054.103.075ZM14.648 18.718c-.026.037-.14.006-.273.012-.133.001-.244.037-.272.002-.013-.017.003-.054.05-.09a.387.387 0 0 1 .219-.071.39.39 0 0 1 .221.06c.048.033.067.068.055.087Z" fill="#2E353A"/><path d="M14.808 18.195s-.313-.622-.638-.752c-.394-.159-.534.259-.904.18-.37-.079-.746-.231-1.103.064-.39.323-.187.523-.186.976.006 1.836-.307 2.373-.456 1.517-.016-.095-.29-.154-.354-.552-.082-.514-.14-1.14-.043-1.515.082-.315.25-.54.563-.793.491-.402 1.197-.449 1.68-.428.482.018 1.439.503 1.441 1.303Z" fill="#353535"/><path d="M11.59 20.147a.283.283 0 0 0-.323-.25c-.194.03-.405.15-.368.541.064.695.768.489.767.469 0-.015-.046-.47-.076-.76Z" fill="#D6D6D6"/><path d="M11.48 20.658c-.002-.002-.011.01-.031.021a.13.13 0 0 1-.093.01c-.078-.02-.153-.132-.167-.256a.38.38 0 0 1 .019-.177c.017-.053.048-.091.085-.1.038-.012.067.007.077.026.012.018.008.033.013.034.002.002.014-.014.005-.042a.082.082 0 0 0-.031-.04.09.09 0 0 0-.07-.012c-.055.008-.1.062-.12.119a.406.406 0 0 0-.025.197c.017.14.103.264.209.285a.136.136 0 0 0 .112-.028c.019-.02.02-.035.018-.037ZM14.961 17.442c-.11-.08-.26-.092-.37-.173-.199-.148-.208-.485-.44-.573-.14-.052-.295.012-.442-.003-.24-.024-.332-.2-.694-.2-.472-.002-.624.34-.624.34s-.259-.137-.542.05c-.213.14-.228.42-.228.42s-.074-.036-.3.138c-.144.11-.261.348-.314.52-.078.254.036.523.148.765.06.132.135.276.276.322.17.056.359-.074.425-.237.067-.163.173-.327.253-.483.141-.272.285-.525.166-.699a.84.84 0 0 1 .503-.003c.165.053.307.156.47.211.164.056.37.053.48-.075.083.192.38.256.537.113.128.205.43.3.642.175.213-.124.252-.464.054-.608Z" fill="#353535"/><path d="M11.077 18.563c.007-.003.035.061.082.159.025.048.06.105.119.141.058.037.14.04.221.025a.531.531 0 0 0 .214-.088.896.896 0 0 0 .14-.13c.073-.084.115-.14.12-.136a.625.625 0 0 1-.096.153.777.777 0 0 1-.14.143.539.539 0 0 1-.231.098.349.349 0 0 1-.25-.033.347.347 0 0 1-.124-.16.662.662 0 0 1-.055-.172Z" fill="#262626"/><path d="M11.105 19.1c.005-.006.046.045.141.075a.42.42 0 0 0 .17.015.499.499 0 0 0 .198-.073.96.96 0 0 0 .268-.276c.058-.082.093-.134.098-.131a.515.515 0 0 1-.072.146.853.853 0 0 1-.271.295.51.51 0 0 1-.215.076.413.413 0 0 1-.186-.025c-.101-.04-.136-.102-.131-.103Z" fill="#262626"/><path d="M13.357 20.667c-.032.077-.031.152-.04.234-.011.082.025.14.077.206a.303.303 0 0 0 .231.104h.003a.332.332 0 0 0 .33-.277l.027-.173c-.167-.044-.616-.082-.628-.094Z" fill="#B1B1B2"/><path d="M13.791 21.16c-.001-.003-.021.001-.058.006a.513.513 0 0 1-.15 0 .299.299 0 0 1-.185-.104.353.353 0 0 1-.072-.244.34.34 0 0 1 .039-.14l-.022.01c.161.024.301.042.402.053.1.012.161.017.162.012a.687.687 0 0 0-.157-.037c-.1-.02-.24-.044-.4-.069l-.015-.002-.007.014a.37.37 0 0 0-.044.158.374.374 0 0 0 .086.272c.06.07.143.103.21.11a.44.44 0 0 0 .16-.015c.034-.012.052-.022.051-.024Z" fill="#353535"/><path d="m10.301 31.78-2.305-1.976-.26 2.524 4.541 3.342 1.57-.202 1.254-.562s2.618-3.563 2.618-3.806l-1.04.419-6.378.26Z" fill="#8E8E8E"/><path d="M10.302 31.78c.048.14 3.582 3.529 3.582 3.529l-2.1 2.32s-4.083-3.551-4.779-4.098c-.696-.547-1.612-1.63-1.685-2.343-.072-.713.884-1.653.884-1.653s.94 0 1.47.172c.531.173 2.628 2.073 2.628 2.073Z" fill="#8E8E8E"/><path d="M9.333 37.088c.054-.29.112-.587.27-.835.159-.247.444-.438.735-.397.194.028.362.15.553.196.187.044.382.01.574.008.192-.002.52-.003.64.145l1.43.978c-.441.31-1.192.344-1.726.417-.533.073-1.078.112-1.585.292-.221.079-.469.183-.678.078-.145-.073-.23-.235-.252-.397-.023-.162.008-.325.039-.485Z" fill="#A5A4A4"/><path d="M9.48 37.895a.339.339 0 0 1-.006-.085c-.001-.055 0-.135.004-.234.008-.197.025-.471.108-.764.084-.293.235-.533.376-.674a1.07 1.07 0 0 1 .18-.15.26.26 0 0 1 .076-.04c.005.007-.103.066-.234.211a1.702 1.702 0 0 0-.355.665c-.083.286-.104.557-.12.753-.015.196-.024.318-.03.318ZM10.702 37.655c-.013-.004.06-.249.101-.56.044-.31.039-.565.052-.566.006 0 .015.063.016.167a2.607 2.607 0 0 1-.108.801.532.532 0 0 1-.061.158ZM11.207 37.432c-.012-.006.07-.178.107-.407.04-.228.02-.418.033-.42.01-.002.051.19.011.428-.04.236-.142.405-.15.4ZM11.67 37.045c-.002-.003.031-.019.084-.056a.766.766 0 0 0 .238-.273c.013-.028.03-.058.035-.087.005-.03-.007-.054-.037-.06a.16.16 0 0 0-.098.017.339.339 0 0 0-.163.156.362.362 0 0 0-.03.241.457.457 0 0 0 .316.338c.035.01.075.022.104.021.03-.003.032-.022.011-.046-.045-.043-.102-.08-.15-.112-.198-.127-.341-.167-.338-.175a.349.349 0 0 1 .1.027c.062.022.151.06.254.12.052.033.104.064.161.116.013.014.028.035.022.064-.005.03-.036.044-.057.045-.046.002-.081-.01-.12-.02a.53.53 0 0 1-.217-.13.463.463 0 0 1-.13-.24.403.403 0 0 1 .037-.27.38.38 0 0 1 .186-.174.2.2 0 0 1 .124-.017c.02.005.044.02.054.04a.103.103 0 0 1 .009.065c-.008.039-.026.068-.041.098a.725.725 0 0 1-.26.27c-.058.034-.094.045-.095.042ZM12.712 34.866s4.172-3.16 4.851-3.715c.68-.556 2.392-1.675 3.068-.236.678 1.439-.223 1.91-.61 2.603-.386.694-2.748 2.662-3.684 3.28-.754.497-2.126.497-2.126.497l-.955.66-1.705-2.154 1.161-.935Z" fill="#8E8E8E"/><path d="M16.338 36.156c.276-.201.483-.342.693-.256.21.086.353.286.455.49.134.268.219.56.302.848.075.261.14.575-.044.776-.12.131-.316.168-.491.138s-.334-.117-.49-.202c-.465-.257-1.484-.658-1.95-.914l1.525-.88Z" fill="#A5A4A4"/><path d="M16.945 36.056a.293.293 0 0 1 .055.065 3.475 3.475 0 0 1 .57 1.298c.026.127.048.244.048.344.002.1-.02.182-.044.232-.026.05-.049.072-.05.07-.008-.001.075-.104.062-.3a2.06 2.06 0 0 0-.056-.337 4.03 4.03 0 0 0-.426-1.098c-.097-.17-.165-.27-.16-.274ZM16.26 37.37c-.01.006-.093-.173-.093-.41-.002-.238.08-.417.09-.41.013.003-.048.181-.046.41 0 .227.062.405.048.41ZM15.717 37.171c-.009.008-.077-.072-.098-.196-.022-.123.015-.221.026-.217.013.003-.003.097.017.21.02.112.067.195.055.203Z" fill="#8E8E8E"/><path d="M17.237 31.41s-.008.009-.027.023l-.081.066-.318.25-1.188.926a8862.81 8862.81 0 0 0-4.058 3.144l.004-.03 1.194 1.508.51.645-.03-.004.835-.61.002-.002.003-.001c.478-.195.927-.42 1.348-.652.421-.232.814-.474 1.176-.718.363-.243.688-.496.985-.741.298-.243.574-.468.822-.676a28.358 28.358 0 0 0 1.443-1.283l.077-.073.027-.024-.024.027-.074.076c-.065.066-.163.163-.292.286a24.83 24.83 0 0 1-1.138 1.012c-.247.21-.522.436-.82.68-.294.246-.622.502-.984.746-.362.245-.756.488-1.177.722-.422.235-.871.46-1.352.656l.005-.003-.835.612-.018.012-.013-.016c-.168-.212-.339-.427-.51-.645l-1.194-1.51-.015-.015.017-.013 4.067-3.132 1.198-.915.322-.245.085-.063.028-.02ZM9.947 31.71c.008-.009.675.565 1.49 1.282.815.717 1.47 1.306 1.46 1.315-.007.01-.675-.564-1.49-1.281-.814-.717-1.467-1.307-1.46-1.315Z" fill="#6D6C6C"/><path d="M20.259 26.164c-.024-.014-.42-.43-.259-.965.163-.535.42-.848.561-1.059.141-.211.33-.806.457-.77.128.036.24.139.234.352-.005.213-.344.62-.219.83.092.152.253.065.253.065s.75-.406 1.037-.62c.286-.216.594-.33.647-.219.052.112.031.204-.205.381-.237.178-.655.418-.638.487.016.07.124.053.263-.05.14-.102.828-.534.926-.488.098.047.14.188.063.272l-.125.158s.178.068.148.189c-.031.12-.226.206-.226.206l-.93.548s-.016.087.035.107c.05.02.731-.48.788-.406.055.073.142.069-.038.254-.18.186-.718.522-.944.593-.228.07-1.06.543-1.06.543l-.768-.408Z" fill="#D6D6D6"/><path d="M21.94 25.246c.007.017.32-.113.687-.309.367-.196.646-.383.637-.398-.011-.017-.306.145-.67.34-.365.194-.663.35-.654.367ZM21.225 25.526c.004.005.07-.04.12-.152a.53.53 0 0 0-.022-.462c-.047-.082-.107-.146-.156-.204a.72.72 0 0 1-.111-.163c-.05-.1-.031-.173-.042-.174-.006-.005-.046.073-.003.192a.62.62 0 0 0 .106.183c.048.062.105.125.145.198a.53.53 0 0 1 .035.414c-.033.105-.082.16-.072.168Z" fill="#A5A4A4"/><path d="m18.948 27.573 1.074-1.878 1.017.952s-.752 2.206-1.158 2.842c-.406.638-.864.866-.864.866s-.801-.382-1.155-.86c-.355-.479-1.284-2.102-1.284-2.102l1.316-1.345 1.054 1.525Z" fill="#D6D6D6"/><path d="M18.894 28.481c-.011.001-.041-.22-.019-.492.02-.273.084-.487.094-.484.013.003-.03.218-.05.487-.02.27-.012.488-.025.49ZM18.433 26.538s-.843-1.744-1.285-2.484c-.442-.74-2.058-.864-2.058-.864l.91 4.122.464.481 1.969-1.255Z" fill="#A5A4A4"/><path d="M16.693 25.695c.01.001-.007.146-.045.376l-.152.898-.152.899-.044.273a.46.46 0 0 1-.021.1.43.43 0 0 1 .004-.102c.005-.066.016-.16.03-.275.03-.231.077-.551.139-.901.06-.352.12-.669.165-.897l.054-.27c.014-.066.019-.1.022-.1ZM16.873 25.023c-.013-.003.039-.252.057-.565.02-.313-.002-.567.012-.568a.557.557 0 0 1 .027.166 2.734 2.734 0 0 1-.048.806.535.535 0 0 1-.048.161Z" fill="#7C7B7B"/><path d="M16 23.354s.583 2.842.332 3.947l-.151 2.678s.463 1.354.396 1.545c-.066.191-1.82 1.82-3.322 1.725-1.502-.096-2.562-1.087-2.695-1.183-.132-.095-.7-.455-.7-.455l.095-1.192-.111-3.923-.27-2.965 1.754-.429.364-.529 1.967 1.652.648-1.652.214.469 1.478.312Z" fill="#A5A4A4"/><path d="M11.492 30.37c.003-.005.065.04.196.072a.99.99 0 0 0 .557-.044 2.65 2.65 0 0 0 .731-.415c.257-.189.527-.413.793-.668a8.133 8.133 0 0 0 1.488-1.945l.075-.136a.265.265 0 0 1 .029-.046.24.24 0 0 1-.021.05l-.068.14a6.69 6.69 0 0 1-.283.5A7.634 7.634 0 0 1 13 30.014c-.256.192-.511.34-.745.412a.982.982 0 0 1-.572.03c-.033-.007-.061-.02-.085-.029a.284.284 0 0 1-.06-.03.202.202 0 0 1-.045-.028ZM13.599 24.46a.26.26 0 0 1-.045-.05l-.12-.145.02-.002c-.067.127-.152.3-.27.509a.12.12 0 0 1-.088.053.16.16 0 0 1-.1-.031c-.056-.039-.097-.087-.147-.13l-.302-.287c-.323-.308-.615-.59-.824-.795l-.247-.245a.764.764 0 0 1-.086-.094.769.769 0 0 1 .098.082l.256.234c.215.2.51.477.833.785l.3.287c.05.045.094.096.14.128.049.036.105.035.134-.011.116-.197.21-.375.28-.497l.01-.016.01.015.111.152a.263.263 0 0 1 .037.058ZM14.558 23.186a.378.378 0 0 1-.001.095 3.603 3.603 0 0 1-.412 1.365l-.023.044-.015-.047c-.081-.238-.148-.444-.194-.59l.025.002c-.08.139-.128.218-.132.216a1.628 1.628 0 0 1 .108-.229l.014-.028.01.03c.053.143.126.348.209.585l-.04-.003a4.157 4.157 0 0 0 .387-1.096c.044-.212.056-.345.064-.344Z" fill="#7C7B7B"/><path d="m9.352 26.817-1.335 1.692s.266.557.332.735c.065.179 1.179 1.938 1.179 1.938l-1.092.556s-1.735-1.58-2.291-2.227a1.508 1.508 0 0 1-.338-1.27c.087-.424 2.02-2.75 2.02-2.75l1.243.145.282 1.18Z" fill="#D6D6D6"/><path d="M9.528 31.182s.675 1.696.739 1.893c.064.197.107 1.407.054 1.604-.054.196-.353.775-.481.818-.129.043-.226.11-.15-.218.076-.328.181-.556.181-.556l.022-.655s-.155.516-.267.578c-.114.063-.45-.054-.45-.054v-.11s-.3.043-.341-.065c-.044-.11.039-.313.039-.313s-.167.335-.338.226c-.17-.11-.032-.175 0-.393a2.487 2.487 0 0 0 0-.775c-.049-.281-.129-.48-.16-.665-.032-.185.061-.759.061-.759l.612-.637.479.08Z" fill="#D6D6D6"/><path d="M7.302 25.872s1.407-1.727 1.758-2.094c.352-.366.912-.24.963-.24.05 0 .64.936.54 1.859-.1.922-.71 1.41-.71 1.41L9 27.872l-1.7-2.001ZM9.383 33.785c.012.002-.004.187-.066.408-.06.221-.141.39-.152.385-.011-.005.05-.178.11-.396.06-.218.096-.399.108-.397ZM8.942 33.579c.011-.001.03.164-.01.363-.04.199-.119.344-.129.34-.012-.005.047-.155.085-.349.038-.194.041-.354.054-.354Z" fill="#A5A4A4"/><path d="M10.024 26.468a.727.727 0 0 1 .056-.119c.038-.075.093-.183.157-.32.122-.272.286-.666.292-1.124a1.59 1.59 0 0 0-.111-.626 1.342 1.342 0 0 0-.286-.433c-.214-.21-.408-.254-.401-.264l.033.008a.776.776 0 0 1 .092.034c.078.033.187.096.299.2.11.105.224.253.302.44.08.186.121.41.118.642-.007.47-.178.867-.309 1.136a4.92 4.92 0 0 1-.17.315.727.727 0 0 1-.072.111Z" fill="#7C7B7B"/><path d="M7.525 27.647a.647.647 0 0 1 .141.14 2.131 2.131 0 0 1 .434.85c.029.12.035.196.03.197-.014.003-.068-.297-.238-.626-.167-.331-.379-.552-.367-.56Z" fill="#A5A4A4"/><path d="M26.159 27.638c.023.41-.317.766-.725.726a.698.698 0 0 1-.063-.009c-.232-.043-.426-.195-.61-.343l-1.05-.841c-.162-.13-.326-.261-.448-.428-.122-.167-.2-.377-.168-.581l.059-.014c.175-.317.532-.514.893-.533.36-.019.72.13.991.37.189.165.337.374.526.539 0 0 .364.041.488.376.063.174.092.483.107.738Z" fill="#353535"/><path d="M23.313 26.22a1.153 1.153 0 0 0-.489-.241.685.685 0 0 0-.526.1c-.138.1-.223.257-.32.397-.098.14-.22.312-.39.336-.029.005-.063.01-.085.031-.038.037-.017.069.031.09.048.023.105.011.157-.001a.551.551 0 0 1-.33.185.241.241 0 0 0 .296.17c-.049.199-.098.4-.097.604.001.204.058.416.197.565.152.165.401.258.468.473" fill="#353535"/><path d="m24.786 33.425-2.733-.036.305-2.327s-.187-.04-.2-1.052c-.012-1.013-.058-2.733-.058-2.733a3.519 3.519 0 0 1 3.536.444l.15.116-1 5.588Z" fill="#D6D6D6"/><path d="M25.471 29.083c.017-.007.696-.205.674.487-.022.692-.712.527-.713.508-.001-.021.039-.995.039-.995ZM22.218 28.938c-.018-.008-.635-.174-.613.518.022.693.712.528.713.508.001-.02-.1-1.026-.1-1.026Z" fill="#D6D6D6"/><path d="M25.691 29.005c-.104.58-.084.885-.179 1.272-.151.614-.456 1.083-1.008 1.39-.552.306-1.3.3-1.774-.117-.329-.289-.562-.616-.611-1.051-.05-.436-.178-1.254-.18-1.691-.006-.79.02-1.5.02-1.5l2.258-.409 1.286.764.188 1.342Z" fill="#353535"/><path d="M23.365 32.017c-.003.016.174.06.396.035.222-.024.385-.106.378-.12-.007-.018-.174.034-.386.057-.211.024-.386.01-.388.028Z" fill="#2E353A"/><path d="M25.585 29.992c.066-.594.11-1.274.201-1.9.035-.236.12-.575.098-.812-.02-.238-.085-.165-.19-.38-.132-.269-.634-.448-.927-.507-.294-.058-.33-.313-.555-.115a.753.753 0 0 0-.775-.307.752.752 0 0 0-.561.616.524.524 0 0 0-.616-.066.525.525 0 0 0-.224.577.507.507 0 0 0-.374.29.504.504 0 0 0 .039.471c.104.161.292.25.409.403a.579.579 0 0 1 .034.625" fill="#353535"/><path d="M22.674 29.869c-.015-.004-.046.284.078.608.122.327.335.52.344.508.015-.012-.17-.218-.286-.53-.119-.31-.117-.587-.136-.586ZM22.374 29.363c-.014-.007-.102.24-.044.549.055.309.224.508.234.497.017-.01-.12-.216-.172-.509-.055-.292.001-.534-.018-.537Z" fill="#282828"/><path d="M25.215 26.97c-.171-.27-.407-.511-.704-.63-.298-.118-.664-.094-.907.115" fill="#353535"/><path d="M25.159 28.502c-.011-.003 0-.08.022-.204.021-.124.054-.293.053-.48a1.059 1.059 0 0 0-.104-.46c-.053-.108-.11-.164-.1-.174.006-.008.077.036.15.146a.923.923 0 0 1 .134.486c.003.199-.042.372-.077.493-.038.123-.067.196-.078.193ZM24.69 28.73c-.02-.01.035-.147.09-.319.055-.172.088-.316.111-.313.022.002.023.158-.034.338-.058.18-.148.306-.167.295ZM22.523 28.553c-.007.006-.086-.079-.156-.247a1.229 1.229 0 0 1 .265-1.326c.13-.129.234-.177.239-.17.008.011-.083.075-.197.208a1.34 1.34 0 0 0-.295.6c-.052.26-.013.503.042.667.054.167.113.262.102.268ZM24.992 25.978c-.006.01-.089-.033-.223-.095a1.313 1.313 0 0 0-.544-.133c-.22 0-.402.1-.494.208-.096.107-.113.201-.126.198-.01.001-.012-.104.082-.233a.6.6 0 0 1 .21-.176.746.746 0 0 1 .327-.077c.24-.003.441.09.571.164.13.075.202.135.197.144ZM21.904 26.62c-.01-.003.007-.08.08-.184a.75.75 0 0 1 .88-.255c.117.048.172.105.166.111-.006.011-.072-.026-.184-.057a.83.83 0 0 0-.443 0 .834.834 0 0 0-.375.237c-.078.086-.113.153-.124.148ZM22.648 29.164c-.002-.01.112-.04.294-.122.182-.082.431-.222.668-.452l.131-.127-.072.169a1.51 1.51 0 0 0-.098.33c-.012.056-.02.128.001.137.015.018.078-.013.129-.05.184-.117.34-.261.464-.41l.12-.144-.054.178-.153.496-.052-.032c.317-.3.427-.567.443-.557a.595.595 0 0 1-.078.18c-.06.111-.162.265-.32.423l-.085.084.032-.116c.044-.151.09-.32.14-.499l.066.035a2.044 2.044 0 0 1-.48.43c-.027.017-.053.036-.088.052-.032.014-.085.027-.131-.006-.044-.035-.046-.087-.044-.12a1.537 1.537 0 0 1 .122-.442l.06.043c-.25.234-.513.368-.703.44-.192.071-.31.087-.312.08Z" fill="#282828"/><path d="M23.97 26.494a.353.353 0 0 0-.218-.168.633.633 0 0 0-.281-.007c-.228.04-.441.164-.59.341-.033.04-.064.103-.028.141.02.02.05.024.078.027.34.028.684.016 1.02-.036" fill="#353535"/><path d="M18.205 39.454s-2.074-1.188-2.764-1.149c-.63.036-1.297.228-1.59.754-.293.526-.225 1.322.112 1.8.338.48 3.732 3.193 3.776 3.305.045.112 1.342 1.65 3.98 1.663 2.62.012 4.084.03 4.31-.308.224-.337.37-3.986.37-3.986l-8.194-2.079Z" fill="#8E8E8E"/><path d="M30.42 37.028c-.44-.409-1.136-.384-1.745-.222-.668.178-2.27 1.952-2.27 1.952l-.69 6.932c1.364-.45 2.13-2.264 2.435-2.745.066-.102 2.551-3.609 2.723-4.17.172-.56-.01-1.338-.452-1.747Z" fill="#8E8E8E"/><path d="M17.947 36.65s.018-2.258.476-3.006c.458-.748.78-.934 1.46-1.02.68-.084 2.345-.17 2.345-.17l2.973.204s2.48-.037 2.48.612c0 .119-.916 3.065-.916 8.595 0 .053.457.201.182.825-.386.876-1.69 2.618-3.993 2.618-1.887 0-3.97-.91-4.14-2.237-.17-1.324.459-5.18.459-5.18v-1.292l-1.326.052Z" fill="#A5A4A4"/><path d="M27.422 32.958s.872.253 1.092 1.191c.222.938.7 2.983.7 2.983l-2.456.204s-.136-1.55-.102-2.19c.034-.64.576-2.067.766-2.188Z" fill="#A5A4A4"/><path d="M20.02 39.047a.232.232 0 0 1-.019-.05l-.04-.15a56.673 56.673 0 0 1-.53-2.373 32.588 32.588 0 0 1-.32-1.84c-.032-.236-.053-.428-.065-.562l-.01-.153a.192.192 0 0 1 0-.054c.002 0 .005.018.011.053l.021.152c.018.133.045.324.084.559.075.471.194 1.12.336 1.834.142.714.28 1.359.378 1.825l.116.554.03.15c.008.036.01.054.008.055ZM27.353 34.55c.002 0 0 .019-.004.055l-.021.158-.081.576a39.897 39.897 0 0 0-.204 1.912c-.064.749-.109 1.427-.145 1.918l-.045.582c-.005.063-.011.115-.015.157a.182.182 0 0 1-.01.055.188.188 0 0 1-.002-.056l.005-.158.027-.583c.025-.491.064-1.171.128-1.921.062-.749.147-1.426.222-1.912.038-.244.072-.44.099-.575l.031-.156c.007-.034.013-.054.015-.053ZM22.737 43.349c0 .004-.06.005-.167.002a1.41 1.41 0 0 1-.196-.014c-.076-.01-.164-.015-.258-.037a2.61 2.61 0 0 1-.307-.074c-.11-.028-.224-.073-.344-.118a3.956 3.956 0 0 1-.73-.398 4.008 4.008 0 0 1-.62-.554c-.082-.098-.162-.19-.225-.285a2.457 2.457 0 0 1-.172-.265c-.053-.081-.088-.162-.122-.23a1.285 1.285 0 0 1-.078-.18.914.914 0 0 1-.054-.159c.013-.005.09.222.29.548.05.082.106.17.175.259.064.092.145.181.227.277.171.184.376.373.613.542.239.167.485.297.716.397.118.045.229.092.337.12.107.037.208.06.302.08.374.08.614.075.613.089Z" fill="#7C7B7B"/><path d="M20.241 41.726c-.175-.393-.35-.787-.527-1.18.083.092.21.143.334.133.13-.982.174-1.726-.252-2.62.194 1.715-.492 3.452-1.24 4.914.23.01.529-.459.63-.665.101-.206.3-.438.515-.356.174.066.273.32.456.286.099-.018.161-.124.164-.225a.67.67 0 0 0-.08-.287Z" fill="#000" opacity=".3"/><path d="M20.115 41.194c-.011.01-.173-.156-.314-.403-.142-.245-.226-.458-.213-.464.016-.008.124.193.262.434.139.243.277.422.265.432ZM26.765 42.026a.324.324 0 0 1-.024.065c-.019.041-.042.105-.082.182a4.26 4.26 0 0 1-1.14 1.406c-.32.256-.712.492-1.157.66a4.3 4.3 0 0 1-2.389.169 3.932 3.932 0 0 1-.7-.218c-.08-.032-.14-.065-.181-.083a.319.319 0 0 1-.062-.034c.001-.002.024.006.066.023.044.016.103.045.185.073.16.06.398.138.7.198a4.373 4.373 0 0 0 2.36-.182 4.336 4.336 0 0 0 1.899-1.412c.187-.244.317-.458.398-.61.043-.075.069-.136.09-.176.024-.04.035-.062.037-.061Z" fill="#7C7B7B"/><path d="M26.886 37.565c-.003.006-.098-.05-.285-.11a2.273 2.273 0 0 0-.82-.088c-.35.016-.758.118-1.196.274-.439.151-.911.36-1.44.483-.263.06-.527.096-.784.09a2.15 2.15 0 0 1-.725-.135c-.44-.174-.774-.443-1.06-.646a5.274 5.274 0 0 0-.7-.449c-.176-.087-.28-.12-.278-.127a2.103 2.103 0 0 1 .288.106c.18.08.426.232.713.436.289.198.623.462 1.054.63.432.167.96.162 1.478.038.52-.121.992-.327 1.434-.477.44-.154.856-.253 1.211-.265a2.2 2.2 0 0 1 .829.107 1.595 1.595 0 0 1 .281.133Z" fill="#fff"/><path d="M18.2 36.645v2.352s-.596 1.494-.825 2.393c-.228.9-.822 3.187-.822 3.187l.823.731s1.433-2.759 1.8-3.674c.365-.915.524-1.714.524-1.714s.153-.647.162-1.137c.009-.518-.4-2.139-.4-2.139H18.2v.001Z" fill="#D6D6D6"/><path d="M13.284 45.774s.812-.84.858-.832c.046.01 1.312-.23 1.312-.23l.895-.074.236-.09.808.736s-.102.388-.332.452c-.23.065-1.218.11-1.218.11l-.314-.083-.35.028s-.545.277-.656.277c-.11 0-.23-.065-.23-.065s-.02-.102.165-.212l.324-.194-.812.36-.684-.018v-.165h-.002Z" fill="#D6D6D6"/><path d="M15.79 45.334c-.002.01-.092.005-.234.036a3.052 3.052 0 0 0-.54.173c-.205.086-.384.18-.507.257-.123.076-.191.135-.198.128-.005-.005.055-.075.175-.162.12-.087.3-.189.508-.275.209-.087.407-.142.555-.16.148-.023.241-.004.24.003ZM15.337 45.007c.002.008-.116.035-.304.07-.187.04-.439.131-.72.214l-.038.011.01-.004c-.226.171-.424.336-.568.45-.144.116-.235.186-.24.18-.005-.006.076-.087.214-.21s.331-.292.559-.466l.003-.003.005-.001.039-.012c.283-.082.536-.169.73-.198.191-.026.308-.038.31-.031Z" fill="#A5A4A4"/><path d="m27.058 37.285.833 3.745 2.925 4.55.679-.805-1.892-4.59-.481-3.057-2.064.157Z" fill="#D6D6D6"/><path d="m34.178 45.677-1.546-.9-1.314-.053-.503.837s.155.212.619.232c.463.02.85 0 .85 0s.677.328.812.232c.136-.097.271-.116.271-.116s.483.287.56.133c.078-.152.252-.23.252-.23v-.135Z" fill="#D6D6D6"/><path d="M32.019 45.392c-.001-.007.076-.025.204-.036a.99.99 0 0 1 .229.008.603.603 0 0 1 .263.107c.304.25.53.465.52.477-.01.014-.257-.187-.554-.43-.15-.113-.332-.118-.456-.121-.127 0-.206.004-.206-.005ZM32.194 45.051c0-.004.03-.009.082-.01.053-.002.13.004.224.022.188.033.434.136.678.286.246.151.457.3.62.39.162.092.27.136.266.144-.002.007-.116-.024-.285-.11-.17-.082-.388-.226-.63-.375a2.449 2.449 0 0 0-.659-.296c-.178-.045-.296-.04-.296-.051Z" fill="#A5A4A4"/><path d="M26.763 42.026c-.092.565-.317 1.054-.727 1.454-.66.644-1.243 1.049-2.14 1.26-.897.213-2.124.17-2.726-.527 0 0 1.57.624 2.88.198 2.07-.672 2.713-2.385 2.713-2.385Z" fill="#000" opacity=".3"/><path d="M22.087 26.344c-.09.134-.173.282-.312.364-.073.044-.159.066-.238.101-.078.034-.157.086-.19.166-.033.08-.003.19.08.216-.11.041-.176.164-.165.28.01.116.088.22.188.28.1.058.222.076.338.068l.669-1.767c-.16.024-.28.158-.37.292Z" fill="#353535"/></g><path d="M44.218 25.06c-.02-.656.053-1.312-.001-1.966-.055-.653-.258-1.327-.735-1.775-.477-.448-1.277-.592-1.795-.19l-.084.561c.323 2.515.41 5.08.733 7.595.042.33.325.618.489.908.164.29.477.521.808.486.433-.046.699-.5.815-.92.423-1.521-.178-3.122-.23-4.7Z" fill="#3F4142"/><path d="M42.812 21.624c-.082-.149-.168-.3-.292-.416-.125-.117-.296-.195-.465-.168-.079.014-.16.056-.188.132-.028.075.026.177.106.173l.017.015c.174.161.352.32.532.474.046.04.094.079.15.097.057.02.126.013.167-.031.067-.073.021-.19-.027-.276Z" fill="#2D3133"/><path d="M43.135 22.215c-.576-.738-1.361-1.173-2.296-1.21-.528-.021-.75.084-1.131.178-.382.094-.73.29-.964.605-.279.377-.515.799-.576 1.263-.063.476-.127.955-.102 1.435.025.48.144.965.417 1.36l1.213.24c.672.039 1.355.077 2.013-.061.66-.138 1.305-.476 1.67-1.043.505-.786.331-2.028-.244-2.767Z" fill="#3F4142"/><path d="m42.051 22.183-1.61-.684-.425.04c-.955-.02-1.638 1.018-1.663 1.792-.027.86-.026 1.91.096 2.546.245 1.28 1.33 1.411 1.33 1.411s-.039.678-.056 1.106l.905 1.487 1.586-1.609.257-5.643a.453.453 0 0 0-.42-.446Z" fill="#F4CDB8"/><path d="M38.672 24.363c0 .087.073.16.164.161a.158.158 0 0 0 .165-.154.165.165 0 0 0-.164-.162.159.159 0 0 0-.165.155ZM38.635 23.767c.02.021.143-.076.32-.08.178-.008.31.079.33.057.01-.01-.013-.048-.071-.087a.455.455 0 0 0-.519.019c-.053.042-.07.082-.06.09ZM39.742 25.184c.002-.01-.11-.026-.29-.043-.044-.003-.088-.01-.096-.042-.012-.032.005-.081.026-.135l.122-.35c.171-.497.293-.905.273-.911-.02-.007-.175.39-.346.888l-.117.351c-.015.052-.043.111-.018.178a.116.116 0 0 0 .077.065c.03.008.055.008.078.009.18.003.29 0 .291-.01Z" fill="#2E353A"/><path d="M39.776 27.286s.867.029 1.708-.513c0 0-.431.906-1.722.826l.014-.313Z" fill="#D8BCAF"/><path d="M38.709 23.148c.03.042.165.01.325.017.16.003.292.046.325.006.016-.02-.004-.062-.06-.103a.483.483 0 0 0-.26-.083.48.48 0 0 0-.265.065c-.059.037-.08.077-.066.098ZM40.624 24.332a.164.164 0 0 1-.16.165.157.157 0 0 1-.169-.15.165.165 0 0 1 .16-.165.159.159 0 0 1 .17.15ZM41.036 23.754c-.02.021-.145-.072-.323-.072-.177-.002-.308.088-.327.066-.01-.01.011-.048.07-.09a.442.442 0 0 1 .261-.078.43.43 0 0 1 .257.084c.053.041.072.08.062.09ZM40.942 23.184c-.036.04-.172-.003-.337-.006-.164-.007-.304.025-.336-.017-.015-.02.008-.06.069-.099a.511.511 0 0 1 .274-.064.503.503 0 0 1 .268.082c.059.043.078.084.062.104Z" fill="#2E353A"/><path d="M42.2 24.782c-.004-.096.1-.325.194-.342.252-.047.708-.042.732.6.033.876-.854.73-.857.704-.002-.02-.06-.63-.07-.962Z" fill="#F4CDB8"/><path d="M42.499 25.414c.004-.003.015.01.042.021a.15.15 0 0 0 .114-.002c.091-.037.164-.187.163-.345a.506.506 0 0 0-.051-.217c-.03-.063-.072-.107-.12-.113a.078.078 0 0 0-.088.045c-.01.025-.005.042-.01.044-.001.002-.019-.015-.013-.051a.1.1 0 0 1 .033-.057.116.116 0 0 1 .083-.026c.069.002.13.063.166.13a.52.52 0 0 1 .062.242c0 .177-.083.345-.208.387a.161.161 0 0 1-.14-.019c-.031-.018-.036-.037-.033-.039Z" fill="#D8BCAF"/><path d="m42.429 24.443-.228.225c-.939-.941-2.764-3.288-2.662-3.148 0 0 .665-.256 1.376-.118.711.139 2.058.527 2.018 1.37-.04.842-.504 1.67-.504 1.67Z" fill="#3F4142"/><path d="M43.706 24.28a.923.923 0 0 0-.07-.19 1.275 1.275 0 0 0-.355-.421c-.182-.149-.438-.273-.729-.372-.29-.101-.619-.184-.94-.33a4.229 4.229 0 0 1-.853-.505 4.45 4.45 0 0 1-.942-.975l-.085-.123a.297.297 0 0 0-.032-.041.237.237 0 0 0 .024.046c.018.03.043.073.079.127.071.109.18.264.334.44a4.24 4.24 0 0 0 1.458 1.072c.326.148.656.229.945.328.29.097.541.215.723.357.184.14.298.29.36.403.061.114.079.184.083.183Z" fill="#2D3133"/><path d="M43.449 24.411s.01-.071-.03-.192a.896.896 0 0 0-.32-.42c-.18-.14-.438-.23-.724-.303a4.294 4.294 0 0 1-.901-.309 3.897 3.897 0 0 1-1.34-1.077c-.14-.173-.233-.327-.3-.433-.029-.05-.053-.091-.07-.125a.17.17 0 0 0-.029-.042.3.3 0 0 0 .02.046l.064.129c.062.108.152.267.29.443a3.742 3.742 0 0 0 1.346 1.097c.307.152.625.241.91.31.286.07.54.155.716.288.179.13.28.286.322.4.044.117.04.189.046.188Z" fill="#2D3133"/><path d="M42.367 25.925c0-.006.075-.013.206-.045.13-.033.314-.108.496-.262a1.76 1.76 0 0 0 .471-.686c.12-.293.196-.639.213-1.006a2.619 2.619 0 0 0-.03-.531c-.03-.17-.076-.33-.134-.479a2.546 2.546 0 0 0-.436-.717c-.318-.364-.586-.513-.576-.526 0-.002.017.008.047.026.03.02.076.046.131.087.11.08.265.205.428.386.164.18.332.424.456.724.06.151.109.314.14.489.03.174.04.358.032.544a3.044 3.044 0 0 1-.222 1.024c-.125.298-.3.543-.494.697a1.225 1.225 0 0 1-.518.253c-.066.016-.12.016-.155.021a.242.242 0 0 1-.055.001Z" fill="#2D3133"/><path d="M40.334 25.491a.236.236 0 0 1 .086-.018.161.161 0 0 1 .074.024c.098.056.133.15.083.226-.05.076-.18.13-.315.13-.134 0-.295-.045-.376-.194.14-.05.307-.118.448-.168Z" fill="#D8BCAF"/><path d="M40.255 25.855c-.002-.006.09-.002.192-.052.05-.025.098-.064.113-.114s-.003-.11-.062-.157c-.029-.022-.066-.044-.1-.041-.035.003-.077.023-.115.036l-.203.072a1.47 1.47 0 0 1-.194.062 1.06 1.06 0 0 1 .176-.079l.2-.079c.039-.013.07-.033.132-.04a.183.183 0 0 1 .085.015c.023.01.04.023.059.036.067.055.086.123.066.18-.02.058-.078.101-.136.126a.39.39 0 0 1-.213.035Z" fill="#2E353A"/><path d="m36.392 41.027-2.894-1.013c-.51-.114-1.046-.226-1.55-.086s-.954.625-.864 1.14c.07.415.466.713.877.8.411.086.837.002 1.246-.09.41-.094.827-.198 1.244-.153.279.03.546.125.82.178.275.054.574.062.82-.072s.41-.446.3-.704Z" fill="#444"/><path d="M32.944 33.305c-.554.406-1.048.772-1.04 2.295.007 1.522.17 2.226.17 2.226l6.174.595.624-1.773c.001 0-4.59-4.323-5.928-3.343Z" fill="#5B5D5E"/><path d="M35.2 37.578a.67.67 0 0 1-.057-.12 11.878 11.878 0 0 0-.705-1.38 10.78 10.78 0 0 0-.896-1.265.751.751 0 0 1-.08-.106.735.735 0 0 1 .094.094 8.542 8.542 0 0 1 1.604 2.652c.029.08.043.124.04.125Z" fill="#444"/><path d="m38.972 36.35-.794.967-.362.176s-3.907-1.247-4.962-1.468c-1.055-.22-3.181-.55-3.462 1.164-.282 1.715 1.467 2.332 2.187 2.726.72.393 2.994.956 2.994.956s3.132.886 4.212.928c1.133.044 3.33-.162 3.893-.746.564-.583 1.147-2.503 1.147-2.503l-4.853-2.2Z" fill="#5B5D5E"/><path d="M35.222 41.053a.225.225 0 0 1-.053-.01l-.153-.036a14.435 14.435 0 0 1-.555-.152 18.075 18.075 0 0 1-3.502-1.459 12.48 12.48 0 0 1-.5-.286l-.133-.082a.27.27 0 0 1-.045-.032.208.208 0 0 1 .05.023l.138.074a23.105 23.105 0 0 0 2.223 1.078 21.857 21.857 0 0 0 2.33.817l.15.045.05.02ZM37.99 37.577a.27.27 0 0 1-.063-.019l-.176-.065a29.563 29.563 0 0 0-2.806-.922 28.903 28.903 0 0 0-2.209-.51 36.94 36.94 0 0 0-.677-.123l-.184-.034a.237.237 0 0 1-.063-.015c0-.002.023 0 .065.004l.185.024a24.645 24.645 0 0 1 5.055 1.304c.272.103.491.19.64.254l.172.073a.266.266 0 0 1 .06.03Z" fill="#444"/><path d="m38.147 37.017.784-1.817-.42-2.575 1.203-4.227 2.488-.879s1.409.546 1.912 2.533c.554 2.188.389 4.976.267 6.088-.122 1.113-.7 3.126-.7 3.126s-1.399.585-3.86-.68c-1.86-.956-1.946-1.144-1.946-1.144s.033-.345.272-.425Z" fill="#848484"/><path d="M39.086 32.795s-2.69-2.635-3.125-2.885l-.68.347v.822l2.429 3.24s1.001-.376 1.376-1.524Z" fill="#F4CDB8"/><path d="M43.229 30.636s-2.366 4.55-3.67 4.55c-1.788 0-2.439-1.446-2.439-1.446l1.08-1.807.53.354s1.748-3.457 2.122-3.949c.373-.491 1.544-.704 2.082-.216.517.47.896 1.58.295 2.514Z" fill="#848484"/><path d="m43.23 30.637.022-.043.068-.123c.027-.055.058-.125.09-.21l.045-.139c.016-.05.024-.105.037-.162.044-.23.056-.525-.024-.852a2.106 2.106 0 0 0-.187-.502 1.712 1.712 0 0 0-.363-.477 1.146 1.146 0 0 0-.602-.25 1.883 1.883 0 0 0-.716.05c-.24.06-.488.168-.674.357-.021.024-.045.047-.064.074l-.057.084c-.038.056-.072.116-.108.175-.07.119-.142.24-.21.365a109.97 109.97 0 0 0-1.735 3.313l-.012.022-.02-.013-.53-.353.03-.007-.238.4-.842 1.407v-.02c.29.558.776.988 1.316 1.218.27.117.557.174.836.202.14.005.282.026.412-.004l.097-.028c.032-.012.061-.027.092-.04.063-.025.117-.066.176-.098.224-.145.415-.327.591-.508.175-.185.333-.373.481-.558.294-.374.546-.735.768-1.07.442-.67.765-1.226.985-1.61l.249-.444.063-.115c.015-.029.024-.041.024-.041l-.02.04-.06.117a26.963 26.963 0 0 1-1.216 2.067c-.22.336-.471.699-.765 1.074a8.424 8.424 0 0 1-.482.562 3.475 3.475 0 0 1-.597.516c-.06.033-.115.074-.18.1-.032.014-.063.03-.096.042l-.102.03c-.141.033-.283.01-.425.007a2.848 2.848 0 0 1-.848-.205 2.71 2.71 0 0 1-1.339-1.24l-.004-.009.006-.01.841-1.408.24-.399.01-.02.02.012.53.354-.032.008a106.156 106.156 0 0 1 1.74-3.312c.069-.125.14-.246.211-.366.038-.059.071-.119.11-.175l.058-.086c.02-.027.045-.051.068-.078.195-.196.448-.304.692-.366.247-.061.496-.08.73-.047.232.033.453.116.617.26.16.145.277.317.367.488.091.17.148.344.186.51a2 2 0 0 1 .017.86c-.014.057-.023.113-.039.163l-.046.139a2.85 2.85 0 0 1-.095.21c-.03.052-.055.092-.072.12-.015.028-.025.042-.025.042Z" fill="#575859"/><path d="M36.065 29.982s-.688-.547-2.007-.645c-1.319-.098-2.02-.056-2.02.098s.014.144.126.197c.113.055 1.081.04 1.165.18.084.141-.015.113-.015.113s-1.587.238-1.6.407c-.027.35.21.267.21.267s1.306-.295 1.39-.225c.084.07.154.015.084.07-.07.056-1.516.534-1.488.632.028.098.112.253.267.197.154-.056 1.319-.52 1.389-.45.07.07.098.169 0 .225-.098.056-1.039.879-.982.924.055.045.112.172.267.073.154-.098 1.08-.814 1.29-.87.211-.056 1.32-.098 1.32-.098" fill="#F4CDB8"/><path d="m35.462 31.076-.046.004-.134.008-.517.031c-.112.008-.237.018-.372.031-.069.007-.14.015-.212.028-.07.012-.136.053-.205.093-.27.167-.563.385-.886.623-.083.059-.16.122-.255.179a.213.213 0 0 1-.082.025.142.142 0 0 1-.086-.025.323.323 0 0 1-.062-.058c-.01-.01-.018-.02-.028-.028l-.004-.003c-.003-.004-.008-.01-.008-.014-.001-.01 0-.014.003-.02.003-.008.007-.015.011-.02.068-.093.15-.168.231-.248a12.954 12.954 0 0 1 .529-.475c.047-.04.094-.08.142-.118.025-.02.048-.039.076-.058.024-.014.045-.034.05-.058a.109.109 0 0 0-.012-.078.215.215 0 0 0-.024-.037l-.015-.016-.004-.004h-.005c-.053-.004-.12.016-.18.032a6.745 6.745 0 0 0-.374.12c-.25.088-.504.185-.764.285-.032.011-.066.028-.107.03a.174.174 0 0 1-.112-.034.349.349 0 0 1-.12-.187l-.001-.004-.001-.01c0-.006.002-.01.004-.015a.079.079 0 0 1 .011-.016c.008-.009.016-.015.023-.02.016-.012.032-.02.047-.03.032-.018.065-.034.097-.05.066-.03.133-.058.2-.086.268-.109.544-.209.824-.314l.209-.08c.034-.014.071-.025.094-.047l.008-.007-.001.002c-.006.01 0 .022.006.025l.005.003h-.002l-.03-.004a.188.188 0 0 1-.059-.023c-.01-.005-.017-.012-.026-.018l-.005-.002-.01-.002c-.017-.002-.035-.002-.053-.002-.036 0-.074.005-.112.009-.075.008-.151.02-.226.032-.328.056-.65.124-.965.193h.003a.192.192 0 0 1-.15-.013.19.19 0 0 1-.081-.125c-.012-.047-.01-.094-.009-.14a.067.067 0 0 1 .015-.043.11.11 0 0 1 .03-.027.359.359 0 0 1 .062-.035c.169-.072.341-.108.511-.149.341-.074.676-.132 1-.183H33.318c.008.003.02.001.02 0 0 .001.002-.005 0-.016a.246.246 0 0 0-.03-.066c-.021-.028-.078-.045-.125-.057a2.527 2.527 0 0 0-.303-.045c-.203-.02-.403-.028-.598-.047-.048-.007-.101-.008-.148-.035-.022-.01-.044-.02-.067-.035a.1.1 0 0 1-.046-.07c-.004-.026-.004-.05-.005-.075 0-.014-.002-.021.002-.04a.088.088 0 0 1 .022-.04c.041-.037.089-.05.135-.063.185-.043.368-.046.544-.05.354-.005.685.011.992.03.306.019.59.042.845.088.509.09.892.244 1.141.37a2.544 2.544 0 0 1 .345.208c.014.011.022.017.021.018l-.023-.016a2.848 2.848 0 0 0-.349-.199c-.25-.12-.633-.27-1.139-.356a7.419 7.419 0 0 0-.842-.083 12.999 12.999 0 0 0-.989-.026c-.174.006-.358.01-.535.052a.283.283 0 0 0-.119.053c-.014.014-.013.025-.012.053.001.023.001.047.005.068.004.022.011.035.029.047.017.011.04.021.061.031.038.023.087.024.135.031.194.02.395.026.599.046.101.01.205.022.309.046a.47.47 0 0 1 .077.023c.025.011.053.022.074.052.014.024.028.047.035.079.003.014.007.04-.016.058-.022.013-.039.01-.056.006l.009.001c-.324.051-.659.109-.998.185-.168.039-.343.077-.503.146-.036.018-.084.04-.08.068a.434.434 0 0 0 .007.127c.01.04.028.08.06.097.032.02.077.02.114.009l.002-.001c.316-.07.637-.138.967-.194a4.454 4.454 0 0 1 .344-.042c.02 0 .04-.001.06.003l.018.004a.067.067 0 0 1 .02.01l.02.014c.015.01.03.015.045.018l.027.004h.006l.012.005c.007.003.014.018.008.031l-.006.008c-.005.006-.01.009-.013.012-.034.03-.072.04-.106.055l-.21.08c-.28.104-.557.204-.824.313a3.243 3.243 0 0 0-.196.085c-.032.015-.065.03-.095.047a.503.503 0 0 0-.043.027c-.013.008-.026.026-.02.017a.31.31 0 0 0 .104.165.131.131 0 0 0 .085.025c.03 0 .06-.015.094-.027.26-.098.515-.196.766-.284a5.75 5.75 0 0 1 .377-.12c.064-.015.123-.036.197-.033.007-.002.031.012.032.016.006.006.012.012.017.02.011.013.02.027.028.043.016.03.025.068.015.105a.141.141 0 0 1-.068.082c-.024.014-.05.035-.073.053l-.143.117a14.362 14.362 0 0 0-.528.472c-.08.079-.165.156-.227.24-.003.006-.007.011-.008.015-.002.002.003.003-.007.002l-.003.001.007-.008.003.004c.012.01.021.02.03.031a.31.31 0 0 0 .056.052c.04.03.09.022.134-.001.087-.052.17-.117.25-.175.326-.236.619-.452.893-.618.069-.04.139-.082.215-.094.074-.013.145-.02.213-.026.136-.013.26-.02.373-.027.225-.012.4-.02.518-.023l.134-.004.047.001Z" fill="#E0B8A6"/><path d="M38.837 33.67c-.012.001-.037-.306-.056-.685-.018-.38-.023-.688-.011-.689.012 0 .037.307.056.686.018.38.023.687.011.688ZM39.332 35.68c.002-.012.743.077 1.656.197.913.12 1.652.228 1.65.24-.002.012-.743-.076-1.656-.196-.913-.12-1.652-.228-1.65-.24ZM40.287 35.495c-.003-.011.42-.136.944-.277.524-.141.952-.246.955-.234.003.011-.42.136-.944.277-.524.142-.952.247-.955.234Z" fill="#575859"/><path d="M42.236 19.757a.22.22 0 1 1-.437.054.22.22 0 0 1 .437-.054Z" fill="#6D6D6D"/><path d="M42.236 19.757c.032.312-.425.379-.477.06-.028-.325.432-.37.477-.06Zm0 0c-.042-.267-.424-.208-.395.049.034.256.42.22.395-.05ZM45.038 17.617c.527 1.403-.909 2.756-2.282 2.148-.854-.368-1.253-1.433-.85-2.27.637-1.361 2.608-1.284 3.133.122Zm0 0c-.527-1.385-2.462-1.443-3.068-.093-.375.795.009 1.824.814 2.177 1.343.62 2.766-.693 2.255-2.084Z" fill="#6D6D6D"/><path d="M42.579 18.808a.648.648 0 0 0 .173.107c.09.145.23.216.343.25.133.039.263.045.385.026.2-.03.382-.119.551-.229l.015-.01c.033-.023.066-.045.098-.069a1.48 1.48 0 0 0 .145-.119 1.44 1.44 0 0 0 .24-.232.63.63 0 0 0 .142-.427.77.77 0 0 0-.2-.488 1.008 1.008 0 0 0-.165-.145 1.023 1.023 0 0 0-.603-.226.976.976 0 0 0-.417-.032 1.178 1.178 0 0 0-.7.358c-.097.1-.182.22-.251.356-.06.12-.1.269-.042.454.043.132.118.25.206.342a.48.48 0 0 0 .08.084Zm1.595-.04c-.056.04-.113.076-.174.108a.931.931 0 0 1-.02-.032.556.556 0 0 0 .068-.057c.106-.07.203-.158.287-.265.075-.094.14-.203.194-.325a.905.905 0 0 1-.302.524l-.053.046ZM42.9 17.593a1.71 1.71 0 0 1 .093-.053.77.77 0 0 0-.15.266.848.848 0 0 0-.028.402.718.718 0 0 0-.048.179.473.473 0 0 0-.07.152l-.014-.018a.559.559 0 0 1-.067-.435.964.964 0 0 1 .168-.359.787.787 0 0 1 .116-.134Zm-.03 1.153c.02.01.04.02.059.027 0 .02.002.043.006.065a.543.543 0 0 1-.065-.092Zm1.092.11.02.03a1.496 1.496 0 0 1-.265.11 2.407 2.407 0 0 0 .245-.141Zm-.149-.177a1.56 1.56 0 0 1-.805.22.28.28 0 0 1-.02-.107.853.853 0 0 0 .396.001c.133-.027.258-.077.383-.126.009-.003.01-.012.01-.023l.005.005.031.03Zm-.77.063a.453.453 0 0 1-.047-.009.208.208 0 0 1 .102-.12.732.732 0 0 1 .327-.116c.1-.006.207.032.31.112-.216.085-.44.17-.693.133Zm.821-.01a.624.624 0 0 1 .04.049h-.002a1.1 1.1 0 0 1-.046.027l-.069.031c-.12.048-.248.077-.38.087a1.6 1.6 0 0 0 .457-.194Zm.025-.015c.063-.04.124-.086.182-.135a.217.217 0 0 1-.052.108.4.4 0 0 1-.092.076l-.038-.049Zm-.446.28a.689.689 0 0 1-.192.02l-.055-.002-.033-.012-.02-.01c.1.012.202.013.3.003Zm-.607-.33a.531.531 0 0 1-.03-.217.467.467 0 0 1 .075-.086c.026.025.057.04.09.045.067.012.135.016.199.016.238 0 .457-.073.641-.209.063.03.125.072.178.132.036.04.066.092.079.145-.072.064-.148.12-.228.168l-.045-.047c-.123-.119-.254-.18-.378-.18a.751.751 0 0 0-.35.107.24.24 0 0 0-.133.166l-.001.006a.467.467 0 0 1-.097-.046Zm1.272-.95a.199.199 0 0 1-.02.09.873.873 0 0 0-.377-.137.794.794 0 0 0-.652.186.911.911 0 0 0-.204.266v-.016a.737.737 0 0 1 .394-.675l.013-.005a1.27 1.27 0 0 1 .621-.036l.012.008c.086.06.21.184.213.32Zm-1.244.508c.043-.101.1-.188.167-.259a.76.76 0 0 1 .573-.244c.112 0 .23.025.347.072a.646.646 0 0 1 .112.057l-.035.048a1.14 1.14 0 0 1-.228.238l-.007-.003c-.265-.119-.51-.064-.724.027a.835.835 0 0 0-.195.11l-.01-.046Zm.11.072c.097-.06.206-.102.317-.128a.768.768 0 0 1 .442.017 1.007 1.007 0 0 1-.445.163 1.23 1.23 0 0 1-.277 0c-.028-.003-.059-.004-.088-.019a.42.42 0 0 1 .05-.033Zm1.285-.164c.015.134-.055.228-.117.29l-.027.026a.538.538 0 0 0-.246-.277c.091-.077.18-.17.245-.284a.366.366 0 0 1 .145.245Zm-1.478.496a.645.645 0 0 1-.036-.034.352.352 0 0 1 .02-.063c0 .012.002.025.004.038.003.02.007.039.012.059Zm1.758-.632a1.462 1.462 0 0 1-.216.431 1.233 1.233 0 0 1-.19.203.311.311 0 0 0 .002-.104l.003-.003c.075-.07.156-.156.17-.298a.43.43 0 0 0-.043-.221.494.494 0 0 0-.127-.162.277.277 0 0 0 .01-.185.528.528 0 0 0-.15-.24.955.955 0 0 1 .315.14.52.52 0 0 1 .167.197.687.687 0 0 1 .059.242Zm-1.64.89a.959.959 0 0 1-.13-.042.37.37 0 0 1-.034-.195.542.542 0 0 0 .075.06.66.66 0 0 0 .114.182l-.025-.005Zm-.33-.162a.625.625 0 0 1-.143-.676.797.797 0 0 1 .258-.302l.016-.013c-.057.09-.101.193-.13.31a.657.657 0 0 0 .052.458c.018.035.04.064.061.092a.467.467 0 0 0 .02.221.808.808 0 0 1-.133-.09Zm.784-1.448c-.11.026-.213.066-.308.122a.977.977 0 0 0-.157.114c-.06.036-.12.075-.176.117-.191.142-.431.333-.374.729a.427.427 0 0 0 .007.038.468.468 0 0 1-.006-.333c.05-.138.13-.252.21-.351a1.18 1.18 0 0 1 .804-.436Zm1.184 1.133c-.004.007-.009.012-.012.02a.881.881 0 0 0 .066-.401.321.321 0 0 0 .006-.076l-.002-.016a.578.578 0 0 1-.059.473Zm-1.602.613a.496.496 0 0 1-.095-.077c.044.012.088.019.131.023.003 0 .006 0 .01.002h.002c.04.066.097.102.151.118.07.019.139.022.204.018a.732.732 0 0 0 .172 0 .852.852 0 0 1-.211.02.695.695 0 0 1-.364-.104Z" fill="#6D6D6D"/><path opacity=".57" d="m41.853 23.855-.001-.007c-.005-.03-.061-.28-.061-.28l-.064-.287-.063.287s-.071.312-.071.389c0 .177.06.322.133.322.074 0 .134-.144.134-.322a.836.836 0 0 0-.007-.102ZM42.12 24.503v-.005a8.836 8.836 0 0 0-.054-.202l-.053-.209-.054.209s-.06.226-.06.281c0 .129.05.233.114.233.063 0 .114-.104.114-.233a.454.454 0 0 0-.007-.074Z" fill="#fff"/></g><defs><clipPath id="a"><rect width="48" height="48" rx="24" fill="#fff"/></clipPath></defs></svg>