<svg width="48" height="48" viewBox="0 0 48 48" fill="none" xmlns="http://www.w3.org/2000/svg">
<g clip-path="url(#clip0_1146_49381)">
<rect width="48" height="48" rx="24" fill="white"/>
<g clip-path="url(#clip1_1146_49381)">
<path d="M20.9473 4.16831C20.9876 3.87743 20.5767 3.63743 20.2676 3.61247C20.1207 3.60095 19.9671 3.62303 19.8279 3.57407C19.5255 3.46847 19.4046 3.07871 19.1099 2.95391C18.8891 2.86079 18.6356 2.94335 18.4215 3.05087C18.2075 3.15839 17.9963 3.29375 17.7582 3.30911C17.5508 3.32255 17.3252 3.24575 17.1428 3.34655C17.0075 3.42239 16.9364 3.57791 16.8116 3.67007C16.6897 3.76031 16.5303 3.77951 16.3787 3.78719C16.227 3.79583 16.0705 3.79679 15.9323 3.86015C15.794 3.92351 15.6798 4.06943 15.7086 4.21823L20.9473 4.16831Z" fill="#F5F5F5"/>
<path d="M13.5489 9.68062C13.6238 9.13822 12.8577 8.69086 12.2817 8.64478C12.0071 8.6227 11.722 8.66494 11.4618 8.57374C10.8983 8.37694 10.6737 7.64926 10.1236 7.4179C9.71272 7.24414 9.23944 7.3987 8.84104 7.59934C8.44264 7.79998 8.04904 8.05246 7.6036 8.08126C7.21672 8.10622 6.79624 7.96222 6.45736 8.15134C6.20488 8.29246 6.0724 8.58334 5.84008 8.75518C5.61256 8.92318 5.31592 8.9587 5.03272 8.97406C4.75048 8.98942 4.45768 8.9923 4.2004 9.11038C3.94312 9.22846 3.73 9.50014 3.78376 9.77758L13.5489 9.68062Z" fill="#F5F5F5"/>
<path opacity="0.7" d="M38.644 10.4015C37.1301 8.87416 35.3963 7.60504 33.5522 6.71608C30.7451 5.36248 27.653 4.70968 24.5608 4.67128C15.5234 4.558 14.8351 15.5078 12.0568 17.0303C9.27857 18.5529 4.24145 18.7314 4.06769 24.8217C3.95825 28.6521 4.82513 32.591 7.26353 35.5746C9.49649 38.3078 12.7768 39.693 16.0082 40.7164C19.637 41.8655 23.4866 42.9935 27.3035 42.2178C31.2213 41.422 33.9736 38.2223 37.1906 36.0614C39.2162 34.7001 41.0344 33.2668 42.2853 31.0828C42.435 30.8217 42.5752 30.5548 42.7086 30.285C44.3829 26.8905 44.7112 22.9756 43.7877 19.3026C42.9602 16.006 41.0891 12.8668 38.644 10.4015Z" fill="#EFEFEF"/>
<g opacity="0.54">
<path d="M6.99206 25.0258H7.4375V23.0798H6.99206V25.0258Z" fill="#A6A7AD" stroke="#686868" stroke-width="0.072" stroke-miterlimit="10"/>
<path d="M6.55566 25.4428H7.87374L7.71918 24.6882H6.71118L6.55566 25.4428Z" fill="#A6A7AD" stroke="#686868" stroke-width="0.072" stroke-miterlimit="10"/>
<path d="M5.76172 25.7606H8.6686L8.35852 25.0656H6.0718L5.76172 25.7606Z" fill="#A6A7AD" stroke="#686868" stroke-width="0.072" stroke-miterlimit="10"/>
<path d="M8.68736 21.021C9.25472 21.021 9.71456 21.501 9.71456 22.0933C9.71456 22.6856 9.25472 23.1656 8.68736 23.1656C8.12 23.1656 7.66016 22.6856 7.66016 22.0933C7.66016 21.501 8.12 21.021 8.68736 21.021ZM8.68736 22.892C9.11072 22.892 9.45344 22.534 9.45344 22.0924C9.45344 21.6508 9.11072 21.2927 8.68736 21.2927C8.264 21.2927 7.92128 21.6508 7.92128 22.0924C7.92128 22.5349 8.264 22.892 8.68736 22.892Z" fill="#A6A7AD" stroke="#686868" stroke-width="0.072" stroke-miterlimit="10"/>
<path d="M5.58677 21.021C6.15413 21.021 6.61397 21.501 6.61397 22.0933C6.61397 22.6856 6.15413 23.1656 5.58677 23.1656C5.01941 23.1656 4.55957 22.6856 4.55957 22.0933C4.55957 21.501 5.01941 21.021 5.58677 21.021ZM5.58677 22.892C6.01013 22.892 6.35285 22.534 6.35285 22.0924C6.35285 21.6508 6.01013 21.2927 5.58677 21.2927C5.16341 21.2927 4.82069 21.6508 4.82069 22.0924C4.82069 22.5349 5.16341 22.892 5.58677 22.892Z" fill="#A6A7AD" stroke="#686868" stroke-width="0.072" stroke-miterlimit="10"/>
<path d="M7.2149 23.6159C7.93202 23.6159 8.51378 23.0207 8.51378 22.2863V20.9164H5.91602V22.2863C5.91602 23.0207 6.49778 23.6159 7.2149 23.6159Z" fill="#A6A7AD" stroke="#686868" stroke-width="0.072" stroke-miterlimit="10"/>
<path d="M7.25049 21.3541L7.08345 21.8802H6.54297L6.97977 22.2066L6.81273 22.7336L7.25049 22.4072L7.68825 22.7336L7.52121 22.2066L7.95897 21.8802H7.41753L7.25049 21.3541Z" fill="#686868"/>
</g>
<path d="M32.6279 13.632V13.6329L32.627 13.6339L32.6279 13.632Z" fill="#F5F5F5"/>
<path d="M32.619 13.6444L32.6229 13.6482H32.6133L32.619 13.6444Z" fill="#F5F5F5"/>
<path d="M32.6132 13.6483H32.6074L32.6113 13.6464L32.6132 13.6483Z" fill="#F5F5F5"/>
<path d="M32.6299 13.6454L32.6308 13.6406L32.6548 13.6339L32.6337 13.6483L32.6299 13.6454Z" fill="#F5F5F5"/>
<path d="M32.6298 13.6415V13.6453L32.627 13.6434L32.6298 13.6415Z" fill="#F5F5F5"/>
<path d="M32.6084 13.6434L32.6094 13.6444L32.6084 13.6454V13.6434Z" fill="#F5F5F5"/>
<path d="M32.6123 13.6464H32.6142L32.6133 13.6483L32.6123 13.6464Z" fill="#F5F5F5"/>
<path d="M32.6269 13.6434L32.625 13.6425H32.6269V13.6434Z" fill="#F5F5F5"/>
<path d="M32.6104 13.6415L32.6132 13.6424L32.6113 13.6434L32.6104 13.6415Z" fill="#F5F5F5"/>
<path d="M33.5998 6.68921L32.6187 13.5695L31.6462 6.68825C31.6414 6.68921 31.6357 6.69017 31.6309 6.69017L30.3301 -2.58151C31.0597 -2.68135 31.8046 -2.73511 32.5621 -2.73511C33.3762 -2.73511 34.1768 -2.67463 34.9592 -2.55847L33.6286 6.69305C33.619 6.69209 33.6094 6.69017 33.5998 6.68921Z" fill="#F5F5F5"/>
<path d="M29.7056 7.2575L32.6039 13.6271L21.9258 1.22678C23.0979 0.212061 24.417 -0.637539 25.8464 -1.2865L29.721 7.25078C29.7162 7.2527 29.7104 7.25462 29.7056 7.2575Z" fill="#F5F5F5"/>
<path d="M39.3428 11.6764L48.2065 9.08153C47.7773 7.56665 47.1322 6.14201 46.3095 4.84121L32.6621 13.629H32.6391L32.6458 13.6204L32.6314 13.63V13.629H32.6295L32.6314 13.6262L32.6362 13.5954L32.6257 13.6194L32.6266 13.629H32.6209L32.618 13.6348L32.6093 13.629L32.6103 13.6194L32.5978 13.5916L32.6045 13.629L32.6026 13.6281V13.629L32.5844 13.6175L32.594 13.629H32.57L18.8756 4.74329C18.0375 6.04697 17.3809 7.47737 16.9412 8.99993L32.569 13.629H32.5383L32.6007 13.6473L32.5757 13.631L32.6065 13.6406L32.6074 13.6473L32.6045 13.6492H32.6055H32.6036L25.6119 13.6415C25.6119 13.6377 25.6119 13.6338 25.6119 13.629H16.3057C16.3162 15.2332 16.5581 16.7817 17.0007 18.2438L25.898 15.6287C25.897 15.6239 25.8951 15.6191 25.8941 15.6143L32.6045 13.6502L32.5825 13.6646L32.6093 13.653L32.6055 13.6502H32.6074L32.6103 13.653V13.6511L32.6141 13.6521L32.617 13.653L32.6161 13.6511L32.6199 13.654L32.6247 13.6502H32.6161L32.6218 13.6463L32.6257 13.6502L32.6276 13.6482L32.6266 13.6473H32.6285L32.6333 13.6482V13.6473L32.6362 13.6492H32.6372L32.6362 13.6482L32.7005 13.629H32.6746L39.3428 11.6764C39.3428 11.6754 39.3428 11.6754 39.3428 11.6764ZM32.6074 13.6482L32.6113 13.6463L32.6132 13.6482H32.6074ZM32.6093 13.6444L32.6074 13.6454V13.6434L32.6093 13.6444ZM32.6132 13.6425L32.6113 13.6434L32.6103 13.6415L32.6132 13.6425ZM32.6141 13.6463L32.6132 13.6482L32.6122 13.6463H32.6141ZM32.6247 13.6425L32.6266 13.6415L32.6257 13.6425H32.6247ZM32.6295 13.6454L32.6266 13.6434L32.6295 13.6415V13.6454ZM32.6545 13.6338L32.6324 13.6482L32.6295 13.6463L32.6305 13.6415L32.6545 13.6338Z" fill="#F5F5F5"/>
<path d="M37.213 8.34042L32.6348 13.6233L35.5388 7.26139C35.5378 7.26139 35.5368 7.26042 35.5368 7.26042L39.4191 -1.22021C40.837 -0.559735 42.1426 0.298505 43.3032 1.31995L37.2149 8.34235C37.214 8.34139 37.213 8.34042 37.213 8.34042Z" fill="#F5F5F5"/>
<path d="M18.9697 22.4505L26.7217 17.4461C26.7227 17.448 26.7246 17.4499 26.7256 17.4518L32.5902 13.6752L28.0168 18.9504C28.0206 18.9533 28.0244 18.9571 28.0283 18.96L22.0216 25.9046C20.8484 24.9053 19.8203 23.7417 18.9697 22.4505Z" fill="#F5F5F5"/>
<path d="M32.6094 13.6636L32.6103 13.6626L32.6094 13.6636Z" fill="#F5F5F5"/>
<path d="M32.6259 13.6502L32.6269 13.6522L32.6298 13.6502L32.6288 13.656L32.6278 13.655L32.6288 13.656L32.624 13.6541L32.6259 13.6531L32.624 13.6502L32.623 13.6512L32.624 13.6502L32.623 13.6483H32.6298L32.6259 13.6502Z" fill="#F5F5F5"/>
<path d="M32.6597 13.6645L32.6318 13.6568L32.6309 13.6501L32.6328 13.6482L32.6597 13.6645Z" fill="#F5F5F5"/>
<path d="M32.6475 13.678L38.4967 17.4729C38.5015 17.4652 38.5063 17.4585 38.5102 17.4517L46.1767 22.413C45.3348 23.7004 44.3163 24.861 43.1537 25.8594L36.3185 17.9413L32.6475 13.678Z" fill="#F5F5F5"/>
<path d="M39.3394 15.6344L32.6348 13.6482L48.8204 13.6655C48.8069 15.2514 48.5669 16.7826 48.1301 18.2293L39.3394 15.6354V15.6344Z" fill="#F5F5F5"/>
<path d="M39.2934 28.3295C37.9167 28.9564 36.4374 29.3961 34.8879 29.6178L32.6377 13.701L39.2934 28.3295Z" fill="#F5F5F5"/>
<path d="M32.6084 13.655L32.6074 13.6521L32.6093 13.6531L32.6084 13.655Z" fill="#F5F5F5"/>
<path d="M30.3271 29.6313C28.7728 29.4172 27.2887 28.9852 25.9072 28.365L32.6003 13.701L30.3271 29.6313Z" fill="#F5F5F5"/>
<path d="M32.6257 13.6752L32.618 13.728L32.6113 13.6771L32.619 13.6598L32.6257 13.6752Z" fill="#F5F5F5"/>
<path d="M32.6104 13.6541H32.6113L32.6104 13.655V13.6541Z" fill="#F5F5F5"/>
<g opacity="0.7">
<path d="M23.9993 5.11016C23.9993 5.13224 23.838 5.14952 23.6403 5.14952C23.4416 5.14952 23.2803 5.13128 23.2803 5.11016C23.2803 5.08808 23.4416 5.0708 23.6403 5.0708C23.839 5.0708 23.9993 5.08808 23.9993 5.11016Z" fill="#A6A7AD"/>
<path d="M24.3821 4.13184C24.4042 4.13184 24.4215 4.29504 24.4215 4.49664C24.4215 4.69824 24.4033 4.86144 24.3821 4.86144C24.3601 4.86144 24.3428 4.69824 24.3428 4.49664C24.3428 4.296 24.3601 4.13184 24.3821 4.13184Z" fill="#A6A7AD"/>
<path d="M24.7891 5.08697C24.7891 5.06489 24.9503 5.04761 25.1481 5.04761C25.3468 5.04761 25.5081 5.06585 25.5081 5.08697C25.5081 5.10809 25.3468 5.12633 25.1481 5.12633C24.9494 5.12633 24.7891 5.10905 24.7891 5.08697Z" fill="#A6A7AD"/>
<path d="M24.4056 6.06517C24.3835 6.06517 24.3662 5.90197 24.3662 5.70037C24.3662 5.49877 24.3845 5.33557 24.4056 5.33557C24.4277 5.33557 24.4449 5.49877 24.4449 5.70037C24.4449 5.90101 24.4277 6.06517 24.4056 6.06517Z" fill="#A6A7AD"/>
<path d="M24.9877 5.64573C24.9704 5.66013 24.9003 5.60253 24.8293 5.51805C24.7582 5.43357 24.715 5.35389 24.7323 5.33949C24.7496 5.32509 24.8197 5.38269 24.8907 5.46717C24.9608 5.55165 25.005 5.63133 24.9877 5.64573Z" fill="#A6A7AD"/>
<path d="M24.9544 4.53595C24.9698 4.55131 24.9237 4.62427 24.8498 4.69819C24.7768 4.77211 24.7048 4.81915 24.6885 4.80379C24.6731 4.78843 24.7192 4.71547 24.7931 4.64155C24.8671 4.56859 24.9391 4.52059 24.9544 4.53595Z" fill="#A6A7AD"/>
<path d="M24.1311 4.81927C24.1167 4.83655 24.0495 4.80295 23.9795 4.74439C23.9094 4.68679 23.8643 4.62535 23.8787 4.60903C23.8931 4.59175 23.9603 4.62535 24.0303 4.68391C24.0995 4.74151 24.1446 4.80199 24.1311 4.81927Z" fill="#A6A7AD"/>
<path d="M24.098 5.3078C24.1144 5.3222 24.0731 5.3942 24.0068 5.46716C23.9406 5.54012 23.8734 5.58716 23.8571 5.57276C23.8408 5.55836 23.882 5.48636 23.9483 5.4134C24.0145 5.34044 24.0817 5.29244 24.098 5.3078Z" fill="#A6A7AD"/>
<path d="M41.7683 13.6848C41.7683 13.6973 41.6771 13.7078 41.5639 13.7078C41.4515 13.7078 41.3594 13.6973 41.3594 13.6848C41.3594 13.6723 41.4506 13.6617 41.5639 13.6617C41.6771 13.6617 41.7683 13.6723 41.7683 13.6848Z" fill="#A6A7AD"/>
<path d="M41.984 13.13C41.9965 13.13 42.007 13.2231 42.007 13.3374C42.007 13.4516 41.9965 13.5447 41.984 13.5447C41.9715 13.5447 41.9609 13.4516 41.9609 13.3374C41.9619 13.2222 41.9715 13.13 41.984 13.13Z" fill="#A6A7AD"/>
<path d="M42.2158 13.6714C42.2158 13.6589 42.307 13.6483 42.4203 13.6483C42.5326 13.6483 42.6248 13.6589 42.6248 13.6714C42.6248 13.6838 42.5336 13.6944 42.4203 13.6944C42.307 13.6944 42.2158 13.6838 42.2158 13.6714Z" fill="#A6A7AD"/>
<path d="M41.9996 14.2272C41.9871 14.2272 41.9766 14.1341 41.9766 14.0199C41.9766 13.9056 41.9871 13.8125 41.9996 13.8125C42.0121 13.8125 42.0226 13.9056 42.0226 14.0199C42.0217 14.1341 42.0121 14.2272 41.9996 14.2272Z" fill="#A6A7AD"/>
<path d="M42.3277 13.9881C42.3181 13.9958 42.2777 13.9641 42.2374 13.9161C42.1971 13.8681 42.1721 13.823 42.1817 13.8144C42.1913 13.8067 42.2317 13.8384 42.272 13.8864C42.3133 13.9353 42.3373 13.9805 42.3277 13.9881Z" fill="#A6A7AD"/>
<path d="M42.3106 13.3594C42.3192 13.368 42.2933 13.4093 42.2511 13.4515C42.2098 13.4938 42.1685 13.5206 42.1599 13.512C42.1512 13.5034 42.1771 13.4621 42.2194 13.4198C42.2607 13.3766 42.301 13.3498 42.3106 13.3594Z" fill="#A6A7AD"/>
<path d="M41.8416 13.5196C41.834 13.5292 41.7956 13.51 41.7552 13.4773C41.7159 13.4447 41.69 13.4101 41.6976 13.4005C41.7053 13.3909 41.7437 13.4101 41.784 13.4428C41.8244 13.4754 41.8503 13.51 41.8416 13.5196Z" fill="#A6A7AD"/>
<path d="M41.824 13.797C41.8336 13.8057 41.8096 13.846 41.7721 13.8873C41.7347 13.9285 41.6963 13.9554 41.6867 13.9468C41.6771 13.9381 41.7011 13.8978 41.7385 13.8565C41.7769 13.8153 41.8144 13.7884 41.824 13.797Z" fill="#A6A7AD"/>
<path d="M23.6297 18.0854C23.6297 18.0979 23.5385 18.1085 23.4252 18.1085C23.3129 18.1085 23.2207 18.0979 23.2207 18.0854C23.2207 18.0729 23.3119 18.0624 23.4252 18.0624C23.5385 18.0633 23.6297 18.0729 23.6297 18.0854Z" fill="#A6A7AD"/>
<path d="M23.8463 17.5305C23.8588 17.5305 23.8693 17.6236 23.8693 17.7379C23.8693 17.8521 23.8588 17.9452 23.8463 17.9452C23.8338 17.9452 23.8232 17.8521 23.8232 17.7379C23.8232 17.6236 23.8338 17.5305 23.8463 17.5305Z" fill="#A6A7AD"/>
<path d="M24.0762 18.073C24.0762 18.0605 24.1674 18.0499 24.2807 18.0499C24.393 18.0499 24.4851 18.0605 24.4851 18.073C24.4851 18.0854 24.3939 18.096 24.2807 18.096C24.1683 18.095 24.0762 18.0854 24.0762 18.073Z" fill="#A6A7AD"/>
<path d="M23.8609 18.6279C23.8485 18.6279 23.8379 18.5347 23.8379 18.4205C23.8379 18.3063 23.8485 18.2131 23.8609 18.2131C23.8734 18.2131 23.884 18.3063 23.884 18.4205C23.883 18.5347 23.8734 18.6279 23.8609 18.6279Z" fill="#A6A7AD"/>
<path d="M24.19 18.3897C24.1804 18.3974 24.14 18.3657 24.0997 18.3177C24.0594 18.2697 24.0344 18.2246 24.044 18.216C24.0536 18.2083 24.094 18.24 24.1343 18.288C24.1756 18.336 24.1996 18.3821 24.19 18.3897Z" fill="#A6A7AD"/>
<path d="M24.1709 17.7599C24.1796 17.7686 24.1537 17.8098 24.1114 17.8521C24.0701 17.8943 24.0289 17.9212 24.0202 17.9126C24.0116 17.9039 24.0375 17.8626 24.0797 17.8204C24.122 17.7782 24.1623 17.7513 24.1709 17.7599Z" fill="#A6A7AD"/>
<path d="M23.703 17.9202C23.6953 17.9298 23.6559 17.9106 23.6166 17.878C23.5772 17.8453 23.5513 17.8108 23.559 17.8012C23.5666 17.7916 23.605 17.8108 23.6454 17.8434C23.6857 17.8761 23.7106 17.9106 23.703 17.9202Z" fill="#A6A7AD"/>
<path d="M23.6853 18.1977C23.6949 18.2063 23.6709 18.2466 23.6335 18.2879C23.596 18.3292 23.5576 18.3561 23.548 18.3474C23.5384 18.3388 23.5624 18.2985 23.5999 18.2572C23.6383 18.2159 23.6757 18.189 23.6853 18.1977Z" fill="#A6A7AD"/>
<path d="M38.6472 29.5835C38.6472 29.5959 38.556 29.6065 38.4428 29.6065C38.3304 29.6065 38.2383 29.5959 38.2383 29.5835C38.2383 29.571 38.3295 29.5604 38.4428 29.5604C38.556 29.5604 38.6472 29.571 38.6472 29.5835Z" fill="#A6A7AD"/>
<path d="M38.8629 29.0276C38.8754 29.0276 38.8859 29.1207 38.8859 29.2349C38.8859 29.3492 38.8754 29.4423 38.8629 29.4423C38.8504 29.4423 38.8398 29.3492 38.8398 29.2349C38.8398 29.1207 38.8504 29.0276 38.8629 29.0276Z" fill="#A6A7AD"/>
<path d="M39.0928 29.57C39.0928 29.5576 39.184 29.547 39.2973 29.547C39.4096 29.547 39.5017 29.5576 39.5017 29.57C39.5017 29.5825 39.4105 29.5931 39.2973 29.5931C39.184 29.5921 39.0928 29.5825 39.0928 29.57Z" fill="#A6A7AD"/>
<path d="M38.8746 30.1249C38.8621 30.1249 38.8516 30.0318 38.8516 29.9176C38.8516 29.8033 38.8621 29.7102 38.8746 29.7102C38.8871 29.7102 38.8976 29.8033 38.8976 29.9176C38.8976 30.0328 38.8871 30.1249 38.8746 30.1249Z" fill="#A6A7AD"/>
<path d="M39.2066 29.8867C39.197 29.8944 39.1566 29.8627 39.1163 29.8147C39.076 29.7667 39.051 29.7216 39.0606 29.7129C39.0702 29.7053 39.1106 29.7369 39.1509 29.7849C39.1912 29.8339 39.2162 29.879 39.2066 29.8867Z" fill="#A6A7AD"/>
<path d="M39.1866 29.257C39.1952 29.2656 39.1693 29.3069 39.127 29.3491C39.0858 29.3914 39.0445 29.4183 39.0358 29.4096C39.0272 29.401 39.0531 29.3597 39.0954 29.3175C39.1366 29.2752 39.1779 29.2483 39.1866 29.257Z" fill="#A6A7AD"/>
<path d="M38.7196 29.4173C38.7119 29.4269 38.6735 29.4077 38.6332 29.3751C38.5938 29.3424 38.5679 29.3079 38.5756 29.2983C38.5832 29.2887 38.6216 29.3079 38.662 29.3405C38.7013 29.3731 38.7272 29.4077 38.7196 29.4173Z" fill="#A6A7AD"/>
<path d="M38.7029 29.6947C38.7125 29.7033 38.6885 29.7436 38.651 29.7849C38.6136 29.8262 38.5752 29.8531 38.5656 29.8444C38.556 29.8358 38.58 29.7955 38.6174 29.7542C38.6549 29.7139 38.6933 29.687 38.7029 29.6947Z" fill="#A6A7AD"/>
<path d="M38.9422 10.6752L38.9652 10.7318C39.0065 10.8297 39.0843 10.9075 39.1832 10.9478L39.2446 10.9728L39.186 10.9968C39.0862 11.0371 39.0065 11.1168 38.9662 11.2166L38.9499 11.2579L38.9249 11.2061C38.8798 11.112 38.8001 11.04 38.7022 11.0045L38.6484 10.9853L38.7185 10.9517C38.8059 10.9094 38.875 10.8365 38.9124 10.7462L38.9422 10.6752Z" fill="#A6A7AD"/>
<path d="M41.5609 9.69312L41.5725 9.72096C41.5926 9.76992 41.632 9.80928 41.6819 9.82944L41.7126 9.84191L41.6829 9.85344C41.6329 9.8736 41.5936 9.91392 41.5734 9.96384L41.5648 9.984L41.5523 9.95808C41.5302 9.91104 41.4899 9.87456 41.4409 9.85728L41.4141 9.84768L41.4486 9.8304C41.4928 9.80928 41.5273 9.7728 41.5456 9.72768L41.5609 9.69312Z" fill="#A6A7AD"/>
<path d="M21.2475 5.65918L21.259 5.68702C21.2791 5.73598 21.3185 5.77534 21.3684 5.7955L21.3991 5.80798L21.3694 5.8195C21.3195 5.83966 21.2801 5.87998 21.2599 5.9299L21.2513 5.95006L21.2388 5.92414C21.2167 5.8771 21.1764 5.84062 21.1275 5.82334L21.1006 5.81374L21.1351 5.79646C21.1793 5.77534 21.2139 5.73886 21.2321 5.69374L21.2475 5.65918Z" fill="#A6A7AD"/>
<path d="M22.3656 20.7753L22.3771 20.8031C22.3973 20.8521 22.4367 20.8914 22.4866 20.9116L22.5173 20.9241L22.4876 20.9356C22.4376 20.9557 22.3983 20.9961 22.3781 21.046L22.3695 21.0661L22.357 21.0402C22.3349 20.9932 22.2946 20.9567 22.2456 20.9394L22.2188 20.9298L22.2533 20.9125C22.2975 20.8914 22.332 20.8549 22.3503 20.8098L22.3656 20.7753Z" fill="#A6A7AD"/>
<path d="M38.0209 27.3965L38.0324 27.4243C38.0526 27.4733 38.0919 27.5126 38.1419 27.5328L38.1726 27.5453L38.1428 27.5568C38.0929 27.577 38.0535 27.6173 38.0334 27.6672L38.0247 27.6874L38.0123 27.6614C37.9902 27.6144 37.9499 27.5779 37.9009 27.5606L37.874 27.551L37.9086 27.5338C37.9527 27.5126 37.9873 27.4762 38.0055 27.431L38.0209 27.3965Z" fill="#A6A7AD"/>
<path d="M26.2543 2.73022L26.2658 2.75806C26.286 2.80702 26.3253 2.84638 26.3753 2.86654L26.406 2.87902L26.3762 2.89054C26.3263 2.9107 26.2869 2.95102 26.2668 3.00094L26.2581 3.0211L26.2457 2.99518C26.2236 2.94814 26.1833 2.91166 26.1343 2.89438L26.1074 2.88478L26.142 2.8675C26.1861 2.84638 26.2207 2.8099 26.2389 2.76478L26.2543 2.73022Z" fill="#A6A7AD"/>
<path d="M24.4813 22.4851L24.5043 22.5417C24.5456 22.6397 24.6233 22.7174 24.7222 22.7577L24.7837 22.7827L24.7251 22.8067C24.6253 22.847 24.5456 22.9267 24.5053 23.0265L24.4889 23.0678L24.464 23.016C24.4189 22.9219 24.3392 22.8499 24.2413 22.8144L24.1875 22.7952L24.2576 22.7616C24.3449 22.7193 24.4141 22.6464 24.4515 22.5561L24.4813 22.4851Z" fill="#A6A7AD"/>
</g>
<path d="M26.706 20.7676L27.2868 21.2197L28.963 22.0175C28.963 22.0175 28.1882 24.3637 27.9271 24.5317C27.666 24.6988 25.457 22.1001 25.457 22.1001L26.706 20.7676Z" fill="#DBDCDD"/>
<path d="M37.5551 10.9247C37.5983 10.6127 37.1577 10.3554 36.8265 10.3295C36.669 10.317 36.5049 10.341 36.3551 10.2892C36.0316 10.1759 35.902 9.75733 35.5852 9.62389C35.349 9.52405 35.0764 9.61333 34.8479 9.72853C34.6185 9.84373 34.3919 9.98869 34.1365 10.005C33.9138 10.0194 33.6719 9.93685 33.477 10.0453C33.3321 10.126 33.2562 10.294 33.1218 10.3919C32.9913 10.4889 32.8204 10.509 32.6581 10.5177C32.4959 10.5263 32.3279 10.5282 32.1801 10.5954C32.0322 10.6636 31.9103 10.8191 31.9401 10.9794L37.5551 10.9247Z" fill="#FAFAFA"/>
<path d="M29.3204 14.9509C29.3204 14.9509 26.4663 21.0604 28.6138 26.758C30.7614 32.4556 38.6506 40.6175 39.5252 41.0485C39.5252 41.0485 37.5015 37.869 41.1956 37.8949C44.8906 37.9208 46.7463 37.0213 47.1428 35.7253C47.5393 34.4293 45.3486 30.2466 47.3646 29.2415C49.3796 28.2364 51.8382 28.5378 53.4855 27.1429C53.4855 27.1429 49.6426 26.8232 46.8058 26.5343C43.827 26.2309 34.8769 19.9967 34.154 15.4108" fill="#CA515B"/>
<path d="M29.3204 14.9509C29.3204 14.9509 26.4663 21.0604 28.6138 26.758C30.7614 32.4556 38.6506 40.6175 39.5252 41.0485C39.5252 41.0485 37.5015 37.869 41.1956 37.8949C44.8906 37.9208 46.7463 37.0213 47.1428 35.7253C47.5393 34.4293 45.3486 30.2466 47.3646 29.2415C49.3796 28.2364 51.8382 28.5378 53.4855 27.1429C53.4855 27.1429 49.6426 26.8232 46.8058 26.5343C43.827 26.2309 34.8769 19.9967 34.154 15.4108" fill="#888889"/>
<path d="M39.7022 25.4764C39.7012 25.4773 39.7185 25.4908 39.7521 25.5148C39.7905 25.5407 39.8395 25.5743 39.9019 25.6165C40.0315 25.7049 40.2235 25.8268 40.4625 25.9737C40.9406 26.2674 41.6174 26.6485 42.3892 27.0191C43.162 27.3887 43.8839 27.6767 44.4119 27.8658C44.6759 27.9609 44.891 28.0329 45.0417 28.0789C45.1127 28.101 45.1703 28.1183 45.2145 28.1317C45.2539 28.1433 45.275 28.149 45.2759 28.1471C45.2769 28.1452 45.2567 28.1375 45.2174 28.1231C45.1742 28.1077 45.1175 28.0876 45.0475 28.0617C44.8996 28.0098 44.6865 27.933 44.4235 27.8341C43.8983 27.6373 43.1812 27.3455 42.4094 26.9769C41.6385 26.6073 40.9617 26.2309 40.4798 25.9449C40.2388 25.8018 40.0449 25.6847 39.9115 25.6012C39.8481 25.5628 39.7963 25.5311 39.7569 25.5071C39.7223 25.486 39.7031 25.4754 39.7022 25.4764Z" fill="#666668"/>
<path d="M37.2754 28.8661C37.2745 28.8671 37.2956 28.8844 37.3359 28.9141C37.3801 28.9468 37.4396 28.99 37.5154 29.0457C37.6719 29.158 37.8965 29.3241 38.173 29.5305C38.725 29.9442 39.4738 30.5337 40.2668 31.2258C41.0597 31.9189 41.7442 32.5813 42.229 33.0729C42.4709 33.3186 42.6658 33.5193 42.7983 33.6585C42.8626 33.7257 42.9145 33.7785 42.9529 33.8188C42.9884 33.8553 43.0076 33.8735 43.0085 33.8725C43.0095 33.8716 42.9932 33.8505 42.9596 33.813C42.9231 33.7717 42.8741 33.717 42.8117 33.6469C42.6831 33.5029 42.4921 33.2985 42.253 33.0498C41.774 32.5525 41.0914 31.8844 40.2985 31.1903C39.5045 30.4972 38.7509 29.9106 38.1941 29.5036C37.9157 29.3001 37.6873 29.1378 37.5279 29.0303C37.4501 28.9785 37.3887 28.9372 37.3436 28.9065C37.2994 28.8786 37.2764 28.8642 37.2754 28.8661Z" fill="#666668"/>
<path d="M37.6026 29.8675C37.6017 29.8685 37.6103 29.88 37.6295 29.9011C37.6525 29.9261 37.6804 29.9558 37.713 29.9913C37.786 30.0691 37.8945 30.1795 38.0308 30.3139C38.3025 30.5827 38.6874 30.9446 39.13 31.3248C39.5735 31.7049 39.9892 32.0304 40.2964 32.2579C40.45 32.3721 40.5757 32.4624 40.6631 32.5229C40.7034 32.5507 40.737 32.5728 40.7649 32.592C40.7889 32.6073 40.8013 32.615 40.8023 32.6131C40.8032 32.6121 40.7927 32.6016 40.7706 32.5843C40.7437 32.5632 40.7121 32.5382 40.6737 32.5085C40.5834 32.4384 40.4625 32.3453 40.3156 32.232C40.0141 31.9977 39.6023 31.6685 39.1597 31.2893C38.7181 30.9101 38.3303 30.5529 38.0529 30.2899C37.9185 30.1622 37.8081 30.0566 37.7255 29.9779C37.69 29.9443 37.6602 29.9165 37.6353 29.8934C37.6151 29.8761 37.6036 29.8665 37.6026 29.8675Z" fill="#666668"/>
<path d="M35.853 15.0085L33.1784 14.4143L30.931 14.5074L28.9717 15.1295L30.0862 20.7196L34.3525 21.0978L35.853 15.0085Z" fill="#888889"/>
<path d="M33.586 14.5073L36.3997 15.1304L34.9933 22.6664C34.9933 22.6664 36.249 25.7259 36.3997 28.5646L32.2343 28.3448C32.2343 28.3448 31.9472 24.5988 32.0461 23.1579C32.144 21.716 32.2103 19.1931 32.2103 19.1931L33.586 14.5073Z" fill="#C4C4C4"/>
<path d="M41.6307 18.8313C41.6307 18.8313 40.6755 17.8627 39.68 17.3423C38.9456 16.9583 37.5066 16.4774 36.9354 15.8582C36.5686 15.4607 36.3987 15.1305 36.3987 15.1305L35.7363 18.6815L38.5606 19.1279C38.5606 19.1279 38.1402 19.3574 38.4032 19.5215L36.6339 21.5932L37.8464 23.8799C37.8445 23.878 41.7939 20.4691 41.6307 18.8313Z" fill="#C4C4C4"/>
<path d="M30.9314 14.5074C30.9314 14.5074 30.34 14.5785 29.9205 14.7177C29.3224 14.9154 28.3096 15.1305 28.3096 15.1305L29.7515 22.7654C29.7515 22.7654 27.796 25.1826 28.3096 28.1394C28.3096 28.1394 31.011 28.3526 32.2331 28.3458L32.2494 19.055C32.2494 19.055 31.2261 17.7513 31.0946 16.4735C30.964 15.1948 30.9314 14.5074 30.9314 14.5074Z" fill="#C4C4C4"/>
<path d="M28.311 15.1295C28.311 15.1295 26.6991 16.799 25.8111 17.4287C24.9241 18.0585 23.8076 19.0022 23.8076 19.5033C23.8076 19.799 23.9123 20.1686 23.9977 20.422C24.0601 20.6082 24.1532 20.782 24.2713 20.9385C24.6783 21.479 25.7574 22.8863 26.4697 23.5535L28.263 21.6604L26.5551 19.7759C26.5551 19.7759 28.8476 18.8313 28.9609 18.573C29.0742 18.3167 28.311 15.1295 28.311 15.1295Z" fill="#C4C4C4"/>
<path d="M32.2676 20.062C32.2686 20.063 32.283 20.0505 32.3089 20.0246C32.3377 19.9958 32.3742 19.9584 32.4212 19.9123C32.5211 19.8096 32.6612 19.6656 32.834 19.487C33.1864 19.1193 33.674 18.6086 34.2328 18.0259L34.2414 18.0172L34.2385 18.0048C34.179 17.7561 34.1176 17.496 34.0532 17.2281C34.0254 17.112 33.9985 16.9977 33.9707 16.8844L33.9476 16.9132C34.2596 16.9132 34.5592 16.9123 34.8395 16.9123H34.8702L34.8606 16.8835C34.6436 16.2249 34.4574 15.6604 34.323 15.2553C34.2568 15.0585 34.203 14.9011 34.1646 14.7888C34.1464 14.7379 34.132 14.6966 34.1204 14.6649C34.1099 14.6371 34.1041 14.6227 34.1032 14.6227C34.1022 14.6227 34.106 14.638 34.1137 14.6668C34.1233 14.6995 34.1358 14.7408 34.1512 14.7926C34.1867 14.9068 34.2356 15.0652 34.2971 15.263C34.4267 15.6691 34.6072 16.2355 34.8184 16.8969L34.8395 16.8681C34.5592 16.8681 34.2596 16.8672 33.9476 16.8672H33.9179L33.9246 16.896C33.9515 17.0083 33.9793 17.1235 34.0062 17.2396C34.0705 17.5075 34.1329 17.7676 34.1924 18.0163L34.1982 17.9952C33.6443 18.5836 33.1604 19.0972 32.812 19.4678C32.643 19.6502 32.5067 19.7971 32.4088 19.9027C32.3646 19.9516 32.3291 19.991 32.3022 20.0208C32.2782 20.0467 32.2667 20.0611 32.2676 20.062Z" fill="#888889"/>
<path d="M32.234 28.3448C32.2464 28.3448 32.2637 26.2491 32.2724 23.6639C32.281 21.0786 32.2772 18.9829 32.2637 18.9829C32.2512 18.9829 32.234 21.0786 32.2253 23.6639C32.2167 26.2491 32.2205 28.3448 32.234 28.3448Z" fill="#888889"/>
<path d="M30.5002 14.5756C30.4993 14.5756 30.4945 14.5928 30.4877 14.6264C30.481 14.6639 30.4714 14.7128 30.4609 14.7743C30.4378 14.9077 30.4071 15.094 30.3677 15.3244C30.2909 15.7986 30.1853 16.4543 30.0644 17.206L30.0596 17.2367L30.0903 17.2328C30.2497 17.2117 30.4167 17.1887 30.5866 17.1666L30.5626 17.133C30.53 17.1983 30.4954 17.2693 30.4609 17.3404C30.3927 17.4796 30.3245 17.6168 30.2602 17.7474L30.2535 17.7608L30.2631 17.7724C30.7815 18.4204 31.2404 18.9935 31.5725 19.4092C31.7367 19.6108 31.8692 19.7749 31.9652 19.892C32.0093 19.9458 32.0458 19.988 32.0727 20.0207C32.0977 20.0495 32.1111 20.0648 32.1121 20.0639C32.113 20.0629 32.1015 20.0466 32.0794 20.0159C32.0535 19.9823 32.0199 19.9372 31.9786 19.8824C31.8865 19.7634 31.7569 19.5964 31.5975 19.3909C31.2682 18.9724 30.8132 18.3964 30.3005 17.7445L30.3034 17.7695C30.3677 17.6389 30.4349 17.5016 30.5041 17.3624C30.5386 17.2914 30.5732 17.2213 30.6058 17.1551L30.625 17.1157L30.5818 17.1215C30.4109 17.1445 30.2439 17.1676 30.0855 17.1887L30.1114 17.2146C30.2266 16.462 30.3265 15.8053 30.3985 15.3301C30.4321 15.0988 30.4589 14.9116 30.4781 14.7772C30.4858 14.7157 30.4925 14.6668 30.4973 14.6284C30.5002 14.5928 30.5012 14.5756 30.5002 14.5756Z" fill="#888889"/>
<path d="M32.6258 25.3084C32.7208 25.1922 32.907 25.1241 32.9963 25.245L32.9925 25.2431C33.0808 25.3189 33.1221 25.4505 33.0789 25.5589C33.0222 25.6981 32.835 25.7682 32.7035 25.6962C32.571 25.6233 32.5298 25.4245 32.6258 25.3084Z" fill="#888889"/>
<path d="M32.5753 22.8815C32.6703 22.7653 32.8566 22.6972 32.9458 22.8181L32.942 22.8162C33.0303 22.8921 33.0716 23.0236 33.0284 23.1321C32.9718 23.2713 32.7846 23.3413 32.653 23.2693C32.5215 23.1973 32.4802 22.9977 32.5753 22.8815Z" fill="#888889"/>
<path d="M26.1544 22.6818C26.2494 22.5656 26.4357 22.4975 26.5249 22.6184L26.5211 22.6165C26.6094 22.6923 26.6507 22.8239 26.6075 22.9324C26.5509 23.0716 26.3637 23.1416 26.2321 23.0696C26.1006 22.9967 26.0593 22.798 26.1544 22.6818Z" fill="#888889"/>
<path d="M37.8614 22.9064C37.9565 22.7902 38.1427 22.7221 38.232 22.843L38.2281 22.8411C38.3165 22.917 38.3577 23.0485 38.3145 23.157C38.2579 23.2962 38.0707 23.3662 37.9392 23.2942C37.8077 23.2222 37.7664 23.0226 37.8614 22.9064Z" fill="#888889"/>
<path d="M38.3751 19.5541C38.3808 19.5695 38.6736 19.3861 39.0864 19.3525C39.4983 19.3141 39.818 19.4437 39.8218 19.4283C39.8237 19.4235 39.7479 19.3851 39.6154 19.3496C39.4829 19.3141 39.2928 19.2882 39.0826 19.3064C38.8733 19.3247 38.69 19.3832 38.5652 19.4408C38.4404 19.4984 38.3722 19.5503 38.3751 19.5541Z" fill="#888889"/>
<path d="M39.8202 19.1269C39.8221 19.1221 39.7549 19.0856 39.6378 19.0492C39.5207 19.0127 39.3517 18.981 39.1636 18.982C38.9754 18.9839 38.8064 19.0184 38.6903 19.0568C38.5731 19.0952 38.5069 19.1317 38.5088 19.1375C38.5136 19.1528 38.7949 19.03 39.1636 19.029C39.5332 19.0242 39.8154 19.1423 39.8202 19.1269Z" fill="#888889"/>
<path d="M35.65 19.1375C35.6529 19.1384 35.6663 19.0847 35.6884 18.9867C35.7124 18.8821 35.7431 18.7429 35.7815 18.5749C35.866 18.2207 35.9793 17.7455 36.1041 17.2203C36.2298 16.6904 36.3297 16.2075 36.3854 15.8552C36.4132 15.6786 36.4334 15.5355 36.4439 15.4367C36.4545 15.3378 36.4593 15.2821 36.4554 15.2821C36.4526 15.2821 36.442 15.3359 36.4257 15.4338C36.4103 15.5317 36.3854 15.6738 36.3527 15.8495C36.2884 16.1999 36.1838 16.6808 36.058 17.2098C35.9323 17.7387 35.819 18.2187 35.7489 18.5682C35.7134 18.7429 35.6865 18.885 35.6702 18.9839C35.6548 19.0827 35.6471 19.1375 35.65 19.1375Z" fill="#888889"/>
<path d="M28.4089 15.3024C28.406 15.3033 28.4127 15.359 28.429 15.4608C28.4463 15.5693 28.4703 15.7142 28.4981 15.8889C28.5586 16.2576 28.6392 16.7529 28.7285 17.3001C28.8188 17.8512 28.9052 18.3494 28.9733 18.7094C29.0069 18.8889 29.0357 19.0349 29.0569 19.1347C29.078 19.2345 29.0914 19.2902 29.0943 19.2893C29.0972 19.2883 29.0905 19.2326 29.0741 19.1309C29.0569 19.0224 29.0329 18.8784 29.005 18.7027C28.9445 18.3341 28.8639 17.8387 28.7746 17.2915C28.6844 16.7405 28.598 16.2422 28.5298 15.8822C28.4962 15.7027 28.4674 15.5568 28.4463 15.4569C28.4252 15.3571 28.4117 15.3014 28.4089 15.3024Z" fill="#888889"/>
<path d="M25.3438 18.8457C25.3447 18.8534 25.4436 18.8448 25.602 18.8534C25.7566 18.864 25.9869 18.8947 26.1674 19.0541C26.3469 19.2125 26.4276 19.4265 26.4842 19.5734C26.5389 19.7232 26.5677 19.8182 26.5745 19.8163C26.5802 19.8144 26.562 19.7174 26.5149 19.5629C26.466 19.4121 26.3892 19.1894 26.1972 19.0195C26.1021 18.935 25.9898 18.8841 25.8852 18.8573C25.7805 18.8294 25.6826 18.8227 25.602 18.8208C25.5214 18.8198 25.4561 18.8256 25.4109 18.8313C25.3677 18.8371 25.3438 18.8429 25.3438 18.8457Z" fill="#888889"/>
<path d="M24.9151 19.2651C24.916 19.2728 25.0139 19.267 25.1723 19.2757C25.3298 19.2853 25.5477 19.316 25.7771 19.3919C26.0056 19.4687 26.1986 19.5733 26.3311 19.6607C26.4635 19.748 26.5384 19.8123 26.5442 19.8056C26.5461 19.8027 26.5298 19.7855 26.4971 19.7538C26.4655 19.7221 26.4155 19.6808 26.3503 19.6328C26.2216 19.5368 26.0258 19.4245 25.7925 19.3467C25.5583 19.269 25.3355 19.2421 25.1743 19.2421C25.0936 19.2411 25.0293 19.245 24.9842 19.2507C24.9391 19.2575 24.9141 19.2622 24.9151 19.2651Z" fill="#888889"/>
<path d="M34.3186 22.8815C34.3243 22.893 34.4568 22.8364 34.6219 22.7749C34.787 22.7125 34.9243 22.6693 34.9205 22.6559C34.9176 22.6434 34.7736 22.6674 34.6056 22.7308C34.4376 22.7941 34.3128 22.8709 34.3186 22.8815Z" fill="#888889"/>
<path d="M34.2033 21.9771C34.1956 21.9886 34.4059 22.1326 34.642 22.3371C34.8792 22.5406 35.0529 22.7268 35.0635 22.7182C35.0731 22.7105 34.9137 22.508 34.6728 22.3016C34.4337 22.0942 34.2091 21.9675 34.2033 21.9771Z" fill="#888889"/>
<path d="M28.3105 28.1375C28.3096 28.1499 30.1201 28.2565 32.3541 28.3736C34.588 28.4917 36.3995 28.5762 36.4005 28.5637C36.4014 28.5512 34.5909 28.4447 32.3569 28.3275C30.1221 28.2095 28.3105 28.125 28.3105 28.1375Z" fill="#888889"/>
<g opacity="0.3">
<path d="M26.6421 19.7241C26.7621 19.3804 26.6258 18.9647 26.3253 18.7583C26.261 18.7142 26.1842 18.6787 26.1074 18.6921C26.0306 18.7065 25.9653 18.79 25.996 18.862C26.0152 18.9081 26.0642 18.9321 26.1064 18.959C26.2456 19.0463 26.3416 19.1903 26.4012 19.343C26.4607 19.4956 26.4876 19.6588 26.5135 19.821" fill="black"/>
</g>
<g opacity="0.3">
<path d="M34.8394 16.8892C34.8221 16.9372 34.5015 16.9746 34.44 17.1071C34.3796 17.2396 34.4007 17.3951 34.4352 17.5372C34.4698 17.6793 34.5159 17.8233 34.5005 17.9682C34.4727 18.2293 34.2596 18.4252 34.0599 18.5961C33.5021 19.0722 32.8244 19.5858 32.2666 20.062C32.7668 19.4706 33.4128 18.8629 33.962 18.3157C34.0436 18.2351 34.1271 18.1506 34.1645 18.0421C34.2116 17.9058 34.176 17.757 34.1396 17.6178C34.0925 17.4335 34.0445 17.2492 33.9975 17.0649C33.985 17.0178 33.9581 16.9372 33.9514 16.9113C33.9514 16.9113 34.1012 16.8873 34.153 16.894C34.1549 16.894 34.6311 16.8613 34.8394 16.8892Z" fill="black"/>
</g>
<path d="M37.9356 23.1205C37.9385 23.1186 37.9279 23.0927 37.9068 23.0466C37.8857 23.0005 37.8521 22.9343 37.8089 22.8546C37.7215 22.6952 37.589 22.4812 37.423 22.2584C37.2559 22.0367 37.087 21.8495 36.9574 21.7218C36.893 21.6575 36.8393 21.6076 36.8009 21.5749C36.7625 21.5413 36.7404 21.524 36.7375 21.5269C36.7327 21.5317 36.8114 21.6124 36.9334 21.7448C37.0553 21.8783 37.2194 22.0664 37.3855 22.2863C37.5506 22.5071 37.687 22.7164 37.7801 22.8709C37.8742 23.0264 37.9289 23.1244 37.9356 23.1205Z" fill="#888889"/>
<path d="M37.2698 20.8943C37.264 20.9 37.3686 20.9999 37.5232 21.1727C37.6778 21.3455 37.8794 21.5951 38.0694 21.8927C38.2595 22.1912 38.3997 22.4792 38.4909 22.6924C38.5821 22.9055 38.6291 23.0418 38.6358 23.0389C38.6387 23.038 38.6301 23.0034 38.6118 22.94C38.5936 22.8776 38.5629 22.7884 38.5216 22.6789C38.4381 22.461 38.3008 22.1672 38.1088 21.8668C37.9168 21.5663 37.7094 21.3176 37.5472 21.1496C37.4666 21.0652 37.3984 20.9999 37.3494 20.9576C37.2995 20.9144 37.2717 20.8914 37.2698 20.8943Z" fill="#888889"/>
<path d="M25.6818 22.7115C25.6846 22.7134 25.7096 22.6875 25.7538 22.6386C25.8046 22.5819 25.867 22.5128 25.94 22.4322C26.0984 22.2584 26.3221 22.0222 26.5755 21.7688C26.8299 21.5154 27.0661 21.2926 27.2408 21.1352C27.3224 21.0622 27.3915 20.9998 27.4482 20.949C27.4971 20.9048 27.524 20.8798 27.5221 20.877C27.5202 20.8741 27.4894 20.8952 27.4366 20.9346C27.3838 20.9739 27.309 21.0334 27.2187 21.1102C27.0382 21.2619 26.7973 21.4818 26.5419 21.7362C26.2875 21.9906 26.0667 22.2306 25.915 22.411C25.8382 22.5003 25.7787 22.5752 25.7394 22.628C25.7 22.6789 25.6798 22.7096 25.6818 22.7115Z" fill="#888889"/>
<path d="M36.8843 22.0665L36.2958 22.3833L34.9893 22.7539C34.9893 22.7539 35.2619 24.5414 35.4289 24.6931C35.5969 24.8457 37.5073 23.2406 37.5073 23.2406L36.8843 22.0665Z" fill="#DBDCDD"/>
<path d="M34.0134 9.06323C34.0297 9.52307 34.6431 9.80147 34.6354 10.2623C34.6316 10.46 34.5097 10.6367 34.4857 10.8335C34.453 11.0965 34.6009 11.3461 34.6546 11.6053C34.767 12.141 34.455 12.7055 33.9932 12.9983C33.5314 13.2911 32.9516 13.3477 32.4102 13.2728" fill="#888889"/>
<path d="M30.31 8.94995C30.3282 9.19667 30.165 9.41747 30.0009 9.60275C29.8367 9.78803 29.6543 9.98099 29.6188 10.2258C29.5554 10.6597 29.9807 11.0629 29.8933 11.493C29.8463 11.7234 29.6581 11.9087 29.6245 12.141C29.5919 12.3656 29.7129 12.5864 29.8626 12.7573C30.0124 12.9282 30.1852 12.9032 30.3177 13.0885C30.4569 13.2834 30.6815 13.4831 30.8917 13.5983C31.3679 13.8594 31.9401 13.4821 32.1695 13.414" fill="#888889"/>
<path d="M34.1047 9.32728C34.1114 9.1036 33.9041 8.9308 33.6957 8.84824C33.4874 8.76664 33.2561 8.73496 33.0698 8.61016C32.9057 8.49976 32.7943 8.32696 32.6551 8.18584C32.3133 7.83928 31.7805 7.69624 31.3111 7.82392C30.8417 7.9516 30.4548 8.34616 30.3367 8.81848C30.257 9.1372 30.3117 9.51448 30.5623 9.72664C30.8541 9.9724 31.2861 9.91768 31.6605 9.84184C32.034 9.76504 32.4573 9.69016 32.7693 9.90904C32.9575 10.0415 33.065 10.2566 33.1802 10.4562C33.2954 10.6559 33.4394 10.8594 33.6573 10.9343C33.8753 11.0092 34.17 10.8796 34.1786 10.6502" fill="#888889"/>
<path d="M33.2183 9.37298C33.4113 9.3941 33.5572 9.55922 33.5524 9.7541L33.3287 14.8133C33.3191 15.4104 32.4455 15.7464 31.8061 15.732C31.1601 15.7167 31.1389 15.3999 31.1313 14.8315C31.1178 13.8821 31.1188 13.525 31.1188 13.5307C31.1188 13.5307 30.3028 13.3935 30.1357 12.3279C30.0532 11.7979 30.081 10.9291 30.1281 10.2197C30.1693 9.58034 30.5946 8.79794 31.2311 8.8661L33.2183 9.37298Z" fill="#DBDCDD"/>
<path d="M30.4669 10.8289C30.464 10.9009 30.5226 10.9623 30.5984 10.9671C30.6733 10.971 30.7367 10.9162 30.7395 10.8442C30.7424 10.7722 30.6839 10.7098 30.608 10.706C30.5331 10.7022 30.4698 10.7569 30.4669 10.8289Z" fill="#888889"/>
<path d="M30.3177 10.6721C30.335 10.6903 30.4387 10.6135 30.5856 10.6145C30.7325 10.6135 30.84 10.6894 30.8563 10.6711C30.864 10.6635 30.8467 10.6308 30.7996 10.5963C30.7536 10.5617 30.6749 10.5291 30.5827 10.5291C30.4915 10.5291 30.4137 10.5627 30.3696 10.5972C30.3245 10.6318 30.3091 10.6644 30.3177 10.6721Z" fill="#888889"/>
<path d="M31.8917 10.8288C31.8888 10.9008 31.9474 10.9622 32.0232 10.967C32.0981 10.9708 32.1615 10.9161 32.1643 10.8441C32.1672 10.7721 32.1087 10.7097 32.0328 10.7059C31.957 10.702 31.8936 10.7568 31.8917 10.8288Z" fill="#888889"/>
<path d="M31.76 10.7022C31.7773 10.7205 31.881 10.6437 32.0279 10.6446C32.1748 10.6437 32.2823 10.7195 32.2986 10.7013C32.3063 10.6936 32.289 10.661 32.242 10.6264C32.1959 10.5918 32.1172 10.5592 32.025 10.5592C31.9338 10.5592 31.856 10.5928 31.8119 10.6274C31.7677 10.6619 31.7514 10.6946 31.76 10.7022Z" fill="#888889"/>
<path d="M31.2268 11.7915C31.2277 11.7828 31.1365 11.7675 30.9877 11.7483C30.9503 11.7444 30.9148 11.7367 30.9081 11.7108C30.8994 11.6839 30.9148 11.6436 30.933 11.5995C30.9685 11.5083 31.006 11.4132 31.0444 11.3143C31.1999 10.9073 31.3122 10.5732 31.2949 10.5675C31.2786 10.5617 31.1394 10.8862 30.9849 11.2923C30.9474 11.3921 30.9119 11.4881 30.8783 11.5793C30.8639 11.6215 30.8399 11.6705 30.8581 11.7262C30.8677 11.754 30.8956 11.7742 30.9196 11.7809C30.9436 11.7886 30.9647 11.7886 30.9829 11.7895C31.1337 11.7991 31.2258 11.8001 31.2268 11.7915Z" fill="#888889"/>
<path d="M31.123 13.5308C31.123 13.5308 31.8392 13.5788 32.5506 13.1536C32.5381 13.1564 32.1579 13.8937 31.1374 13.7824L31.123 13.5308Z" fill="#BBBBBC"/>
<path d="M31.2901 12.1457C31.3429 12.0756 31.436 12.0381 31.5281 12.0477C31.5915 12.0545 31.6568 12.0852 31.6952 12.138C31.7336 12.1898 31.7422 12.2638 31.7067 12.3137C31.6673 12.3694 31.5838 12.3818 31.5137 12.3617C31.4437 12.3415 31.3832 12.2954 31.3265 12.2493C31.3112 12.2369 31.2949 12.2234 31.2843 12.2061C31.2747 12.1889 31.2728 12.1658 31.2843 12.1514" fill="#BABABA"/>
<path d="M31.659 11.8942C31.635 11.8932 31.634 12.0526 31.4977 12.1649C31.3614 12.2782 31.1914 12.2599 31.1895 12.282C31.1876 12.2916 31.227 12.3127 31.299 12.3156C31.369 12.3185 31.4727 12.2955 31.5562 12.2263C31.6398 12.1572 31.6753 12.0641 31.681 11.9988C31.6878 11.9326 31.6705 11.8932 31.659 11.8942Z" fill="#888889"/>
<path d="M31.6981 10.4455C31.7125 10.4859 31.8594 10.4667 32.0322 10.4878C32.205 10.5051 32.3442 10.5559 32.3673 10.5204C32.3778 10.5031 32.3538 10.4657 32.2972 10.4273C32.2415 10.3889 32.1522 10.3515 32.0495 10.3399C31.9458 10.3284 31.8508 10.3447 31.7884 10.3697C31.7241 10.3947 31.6914 10.4263 31.6981 10.4455Z" fill="#888889"/>
<path d="M30.37 10.2471C30.396 10.2807 30.4967 10.2462 30.6187 10.2452C30.7406 10.2395 30.8433 10.2683 30.8673 10.2337C30.8779 10.2164 30.8615 10.1828 30.8164 10.1511C30.7723 10.1195 30.6984 10.0935 30.6139 10.0964C30.5304 10.0993 30.4574 10.1291 30.4152 10.1627C30.3729 10.1963 30.3585 10.2308 30.37 10.2471Z" fill="#888889"/>
<path d="M33.6728 12.9368C33.38 12.9963 33.354 12.8465 33.1351 12.643C32.9163 12.4395 32.803 12.1275 32.8404 11.8318C32.8731 11.5707 33.0142 11.3038 32.924 11.0561C32.804 10.7288 32.3451 10.628 32.2231 10.3016C32.1521 10.1115 32.2155 9.88973 32.1358 9.70349C32.0599 9.52877 31.8766 9.42797 31.6971 9.36269C31.5176 9.29837 31.3255 9.25325 31.1758 9.13613C31.0251 9.01901 30.9319 8.79821 31.0289 8.63501C31.8238 8.73005 32.6071 8.92013 33.3569 9.20045C33.5307 9.26573 33.7131 9.34349 33.8158 9.49805C33.9243 9.66125 33.9195 9.87245 33.9099 10.0693C33.8657 11.0254 33.8206 11.9825 33.7764 12.9387" fill="#888889"/>
<path d="M34.3425 10.7644C34.3761 10.413 34.6622 10.102 35.0088 10.0386C35.3553 9.97527 35.7336 10.1653 35.8891 10.4821C36.0369 10.7826 35.9861 11.1493 35.8478 11.4546C35.6837 11.8175 35.3467 12.1497 34.9493 12.1314C34.5749 12.1141 34.2734 11.7858 34.1649 11.4268C34.0574 11.0677 34.1006 10.6828 34.1448 10.3103" fill="#888889"/>
<path d="M34.5515 12.2226C34.5525 12.2235 34.5775 12.2053 34.6072 12.1611C34.6379 12.117 34.6715 12.044 34.6869 11.948C34.7023 11.852 34.6994 11.7359 34.6773 11.6111C34.6552 11.4853 34.613 11.3547 34.5823 11.2146C34.5506 11.0754 34.5362 10.94 34.5592 10.82C34.5813 10.701 34.637 10.6002 34.661 10.5071C34.6879 10.4139 34.684 10.3314 34.6677 10.2795C34.6504 10.2267 34.6274 10.2056 34.6264 10.2066C34.6226 10.2085 34.6399 10.2335 34.6504 10.2834C34.661 10.3333 34.6591 10.4091 34.6303 10.4975C34.6034 10.5858 34.5439 10.6837 34.517 10.8123C34.4901 10.94 34.5045 11.0831 34.5371 11.2251C34.5688 11.3672 34.612 11.4978 34.6351 11.6187C34.6591 11.7397 34.6648 11.8511 34.6543 11.9432C34.6341 12.1304 34.5419 12.2178 34.5515 12.2226Z" fill="#666668"/>
<path d="M34.5666 10.944C34.5628 10.9468 34.6136 11.0208 34.7298 11.1043C34.844 11.1868 35.0322 11.2723 35.253 11.2761C35.4738 11.28 35.6648 11.2012 35.782 11.1225C35.901 11.0438 35.9548 10.9708 35.9509 10.9689C35.9452 10.9632 35.8847 11.0256 35.7647 11.0947C35.6466 11.1638 35.4632 11.2329 35.254 11.2291C35.0447 11.2252 34.8632 11.1494 34.748 11.0764C34.6309 11.0035 34.5724 10.9382 34.5666 10.944Z" fill="#666668"/>
<path d="M34.6197 11.111C34.6149 11.1129 34.6418 11.182 34.7099 11.278C34.7781 11.374 34.8942 11.494 35.0488 11.5881C35.2043 11.6812 35.3646 11.7273 35.4818 11.7427C35.5989 11.758 35.6718 11.7494 35.6718 11.7436C35.6718 11.736 35.5998 11.7331 35.4875 11.71C35.3752 11.687 35.2235 11.638 35.0738 11.5478C34.924 11.4576 34.8098 11.3462 34.7368 11.2579C34.6629 11.1696 34.6264 11.1072 34.6197 11.111Z" fill="#666668"/>
<path d="M34.3525 12.5796C34.3534 12.5806 34.3573 12.5758 34.364 12.5662C34.3707 12.5566 34.3822 12.5432 34.3938 12.524C34.4178 12.4856 34.4466 12.4232 34.4638 12.3377C34.4811 12.2523 34.4821 12.1428 34.4466 12.0228C34.413 11.9038 34.3304 11.7761 34.1989 11.6897C34.0722 11.6004 33.908 11.539 33.8034 11.3969C33.7515 11.3278 33.7294 11.2376 33.7458 11.1464C33.7602 11.0552 33.8014 10.9649 33.8389 10.8699C33.9205 10.6788 33.9214 10.4408 33.8254 10.2344C33.7774 10.1316 33.7054 10.0356 33.6094 9.96555C33.5144 9.89355 33.3973 9.85611 33.283 9.83019C33.1678 9.80427 33.0526 9.78891 32.9461 9.75627C32.8395 9.72459 32.7378 9.67659 32.6638 9.60171C32.588 9.52779 32.5554 9.42507 32.541 9.32235C32.5266 9.21963 32.5189 9.11211 32.491 9.01227C32.4392 8.81259 32.3374 8.63595 32.204 8.50827C32.0706 8.38059 31.9064 8.30667 31.7518 8.28363C31.5963 8.25963 31.4504 8.28843 31.34 8.34603C31.2286 8.40267 31.1518 8.48139 31.1019 8.55243C31.052 8.62443 31.029 8.68875 31.0184 8.73291C31.0069 8.77707 31.0078 8.80107 31.0078 8.80107C31.0146 8.80395 31.0165 8.70123 31.1163 8.56203C31.1672 8.49483 31.243 8.42091 31.3515 8.36907C31.4581 8.31627 31.5982 8.29131 31.7461 8.31627C31.8939 8.34027 32.0504 8.41227 32.1771 8.53611C32.3038 8.65899 32.4008 8.82987 32.4498 9.02283C32.4757 9.11979 32.4824 9.22155 32.4978 9.32811C32.5112 9.43371 32.5467 9.55083 32.6322 9.63339C32.7147 9.71691 32.8232 9.76683 32.9336 9.80043C33.0459 9.83403 33.1611 9.84939 33.2734 9.87531C33.3857 9.90123 33.4952 9.93675 33.5825 10.003C33.6718 10.0673 33.739 10.1566 33.7851 10.2536C33.8754 10.4484 33.8773 10.6712 33.8005 10.8545C33.765 10.9486 33.7227 11.0408 33.7074 11.1396C33.6891 11.2385 33.716 11.3441 33.7745 11.419C33.8907 11.5716 34.0597 11.6312 34.1826 11.7166C34.3102 11.7982 34.389 11.9163 34.4245 12.0305C34.461 12.1448 34.4629 12.2513 34.4485 12.3339C34.4158 12.5028 34.3448 12.5768 34.3525 12.5796Z" fill="#666668"/>
<path d="M34.2803 9.60565C34.2803 9.60565 34.2899 9.59029 34.2938 9.55669C34.2976 9.52405 34.2928 9.47029 34.2583 9.41557C34.2256 9.36085 34.1661 9.30229 34.0797 9.26869C33.9923 9.23509 33.8848 9.23605 33.7735 9.25813C33.6621 9.27925 33.5459 9.32341 33.4192 9.34837C33.2944 9.37237 33.1466 9.37621 33.0343 9.28789C32.921 9.20149 32.8643 9.05269 32.8058 8.90485C32.7491 8.75317 32.6685 8.60053 32.56 8.46613C32.3431 8.19541 32.0483 8.01013 31.7536 7.94485C31.6058 7.91317 31.4579 7.91605 31.3283 7.95637C31.1987 7.99669 31.0903 8.06965 31.0163 8.15797C30.9415 8.24629 30.905 8.34997 30.8983 8.44021C30.8906 8.53141 30.9088 8.61013 30.9338 8.66869C30.9587 8.72821 30.9904 8.76757 31.0144 8.79061C31.0384 8.81461 31.0528 8.82325 31.0538 8.82229C31.0595 8.81845 30.9952 8.77813 30.9511 8.66197C30.9299 8.60437 30.9155 8.52949 30.9251 8.44309C30.9338 8.35669 30.9693 8.26165 31.0423 8.18005C31.1133 8.09845 31.217 8.03029 31.3399 7.99381C31.4627 7.95733 31.6039 7.95541 31.745 7.98805C32.0272 8.05333 32.3133 8.23477 32.5235 8.49685C32.6291 8.62837 32.7069 8.77333 32.7635 8.92309C32.8221 9.06997 32.8807 9.22741 33.0083 9.32437C33.0707 9.37237 33.1466 9.39637 33.2186 9.40309C33.2915 9.40981 33.3616 9.40117 33.4269 9.38869C33.5584 9.36181 33.6727 9.31477 33.7802 9.29269C33.8867 9.26869 33.9895 9.26677 34.0701 9.29461C34.1507 9.32341 34.2083 9.37717 34.2419 9.42709C34.2765 9.47797 34.2832 9.52693 34.2832 9.55861C34.2842 9.58837 34.2775 9.60469 34.2803 9.60565Z" fill="#666668"/>
<path d="M26.7256 29.758L27.9438 28.8739C28.06 28.0166 28.4065 27.1795 28.996 26.4614C30.6894 24.3964 33.7365 24.095 35.8024 25.7884C37.8673 27.4819 38.1688 30.5289 36.4753 32.5948C34.7819 34.6598 31.7349 34.9612 29.6689 33.2678C28.8069 32.5603 28.2529 31.6176 28.0225 30.6076V30.6105L26.7256 29.758Z" fill="white"/>
<path d="M26.7256 29.758C26.7256 29.758 26.7505 29.7763 26.8053 29.8137C26.8629 29.8521 26.9435 29.9068 27.0491 29.9788C27.2699 30.1267 27.5934 30.3436 28.0139 30.6249C28.0216 30.6297 28.0321 30.6278 28.0369 30.6201C28.0389 30.6172 28.0398 30.6143 28.0398 30.6115V30.6086L28.0062 30.6115C28.1425 31.2182 28.4421 32.0035 29.0824 32.7359C29.2408 32.9183 29.4213 33.0959 29.6209 33.263C29.8283 33.4195 30.0385 33.5913 30.2833 33.7247C30.7624 34.007 31.3221 34.2249 31.9355 34.3276C32.548 34.4313 33.2123 34.4179 33.8718 34.2604C34.5304 34.1039 35.1841 33.8006 35.7563 33.3513C36.3313 32.9059 36.8085 32.3039 37.1377 31.6127C37.4651 30.9215 37.6437 30.1334 37.6024 29.3356L37.5861 29.0361L37.5429 28.7404L37.5208 28.5926L37.4862 28.4486L37.4152 28.1606C37.3883 28.0655 37.3518 27.9743 37.3201 27.8812C37.2856 27.79 37.2606 27.695 37.2145 27.6076C37.131 27.4319 37.0581 27.2515 36.9525 27.0892C36.5656 26.422 36.0309 25.8662 35.4232 25.4611C34.8117 25.0598 34.131 24.8131 33.4571 24.7142C32.7832 24.6143 32.1169 24.6614 31.5141 24.8188C30.9102 24.9753 30.3697 25.2422 29.9157 25.5667C29.6843 25.7241 29.4875 25.9103 29.2965 26.0879C29.1227 26.2828 28.9461 26.4633 28.8078 26.662C28.2366 27.4492 28.0062 28.2575 27.9275 28.871L27.9342 28.8595C27.5406 29.1503 27.2373 29.375 27.0289 29.5295C26.9301 29.6035 26.8542 29.6601 26.8005 29.7004C26.7496 29.7388 26.7256 29.758 26.7256 29.758C26.7256 29.758 26.7553 29.7388 26.8091 29.7004C26.8648 29.6611 26.9435 29.6054 27.0462 29.5334C27.2545 29.3846 27.5589 29.1686 27.9534 28.8873C27.9573 28.8844 27.9592 28.8806 27.9601 28.8758C28.0456 28.2681 28.2798 27.4694 28.8491 26.6937C28.9873 26.4979 29.163 26.3193 29.3358 26.1283C29.5259 25.9545 29.7208 25.7702 29.9502 25.6156C30.3995 25.2969 30.9333 25.0358 31.5304 24.8831C32.1256 24.7295 32.7822 24.6854 33.4465 24.7852C34.1099 24.8841 34.78 25.1289 35.3809 25.5244C35.979 25.9238 36.5051 26.4719 36.8843 27.1286C36.988 27.2879 37.059 27.4655 37.1416 27.6383C37.1857 27.7238 37.2107 27.8169 37.2453 27.9071C37.276 27.9983 37.3125 28.0886 37.3384 28.1817L37.4085 28.4649L37.443 28.607L37.4641 28.7519L37.5073 29.0428L37.5237 29.3375C37.564 30.1228 37.3893 30.8975 37.0677 31.5782C36.7441 32.2579 36.2747 32.8521 35.7093 33.2908C35.1467 33.7334 34.5045 34.0339 33.8555 34.1894C33.2056 34.3468 32.5509 34.3612 31.9461 34.2604C31.3403 34.1615 30.7873 33.9484 30.3131 33.671C30.0702 33.5404 29.8619 33.3715 29.6565 33.2179C29.4577 33.0537 29.2792 32.8799 29.1217 32.6995C28.4853 31.9785 28.1819 31.2028 28.0398 30.6019C28.0379 30.5932 28.0293 30.5875 28.0197 30.5894C28.012 30.5913 28.0072 30.598 28.0062 30.6057V30.6086L28.0321 30.5951C27.6117 30.3244 27.2881 30.1161 27.0664 29.9731C26.9569 29.903 26.8734 29.8502 26.8149 29.8118C26.7573 29.7763 26.7256 29.758 26.7256 29.758Z" fill="#8E8E8E"/>
<path d="M32.8535 32.4133C34.354 32.4133 35.5703 31.197 35.5703 29.6965C35.5703 28.1961 34.354 26.9797 32.8535 26.9797C31.3531 26.9797 30.1367 28.1961 30.1367 29.6965C30.1367 31.197 31.3531 32.4133 32.8535 32.4133Z" fill="#FF725E"/>
<path d="M32.8535 32.4133C34.354 32.4133 35.5703 31.197 35.5703 29.6965C35.5703 28.1961 34.354 26.9797 32.8535 26.9797C31.3531 26.9797 30.1367 28.1961 30.1367 29.6965C30.1367 31.197 31.3531 32.4133 32.8535 32.4133Z" fill="#919191"/>
<path d="M33.8793 31.9107C35.2682 31.343 35.9337 29.7568 35.366 28.368C34.7982 26.9792 33.2121 26.3136 31.8233 26.8814C30.4344 27.4492 29.7689 29.0353 30.3366 30.4241C30.9044 31.8129 32.4905 32.4785 33.8793 31.9107Z" fill="#A6A7AD"/>
<path d="M34.1394 30.6835C34.8502 29.9727 34.8502 28.8203 34.1394 28.1094C33.4286 27.3986 32.2762 27.3986 31.5654 28.1094C30.8545 28.8203 30.8545 29.9727 31.5654 30.6835C32.2762 31.3943 33.4286 31.3943 34.1394 30.6835Z" fill="white"/>
<path d="M32.8528 30.287C33.3448 30.287 33.7437 29.8881 33.7437 29.3961C33.7437 28.9041 33.3448 28.5052 32.8528 28.5052C32.3608 28.5052 31.9619 28.9041 31.9619 29.3961C31.9619 29.8881 32.3608 30.287 32.8528 30.287Z" fill="#A6A7AD"/>
<path d="M34.7468 27.407L34.6729 26.8271L35.2633 26.1964L35.3055 26.8214L34.7468 27.407Z" fill="#7C7C7C"/>
<path d="M36.0135 26.9462L35.4154 26.8972L34.8154 27.4742L35.4154 27.5385L36.0135 26.9462Z" fill="#7C7C7C"/>
<path opacity="0.3" d="M32.9727 29.3837L35.0501 27.7978C34.9791 27.6922 34.8898 27.5866 34.7899 27.481L32.9727 29.2435V29.3837Z" fill="black"/>
<path d="M35.3303 26.734C35.048 27.0163 34.7667 27.2985 34.4845 27.5798C34.0371 28.0272 33.5898 28.4745 33.1424 28.9219C33.0397 29.0246 32.937 29.1273 32.8343 29.23C32.7363 29.328 32.889 29.4787 32.9869 29.3808C33.2691 29.0985 33.5504 28.8163 33.8327 28.535C34.28 28.0876 34.7274 27.6403 35.1747 27.1929C35.2775 27.0902 35.3802 26.9875 35.4829 26.8848C35.5799 26.7868 35.4272 26.6361 35.3303 26.734Z" fill="#5B5B5B"/>
<g opacity="0.42">
<path d="M17.1057 8.8761H15.4785V11.5756H17.1057V8.8761Z" fill="#A6A7AD"/>
<path d="M19.0813 7.72034H17.4541V11.5757H19.0813V7.72034Z" fill="#A6A7AD"/>
<path d="M21.0579 6.93213H19.4307V11.5756H21.0579V6.93213Z" fill="#A6A7AD"/>
<path d="M23.0334 5.88098H21.4062V11.5757H23.0334V5.88098Z" fill="#A6A7AD"/>
<path d="M22.0736 4.18652L20.7613 4.59836L21.1088 4.91804L20.1767 5.93276L17.9898 6.3494L15.6896 8.11484C15.5956 8.18684 15.5773 8.3222 15.6503 8.41724C15.6925 8.47196 15.7568 8.50172 15.8212 8.50172C15.8672 8.50172 15.9133 8.48732 15.9517 8.45756L18.1712 6.75452L20.3984 6.3302L21.4276 5.20988L21.7751 5.52956L22.0736 4.18652Z" fill="#A6A7AD"/>
</g>
<path d="M18.2432 12.8046C18.2432 12.8046 21.6982 11.8407 23.2966 16.4871C24.5379 20.0958 24.4822 29.4346 24.4822 29.4346C24.4822 29.4346 19.5065 29.3521 19.35 29.3934C19.1936 29.4346 18.2432 12.8046 18.2432 12.8046Z" fill="#38302D"/>
<path d="M23.5925 26.5728C23.5925 26.5728 23.5916 26.5594 23.5916 26.5344C23.5916 26.5066 23.5925 26.4691 23.5925 26.4211C23.5944 26.3213 23.5944 26.1735 23.6021 25.9843C23.6232 25.6051 23.6645 25.057 23.7615 24.384C23.8546 23.7111 23.9986 22.9162 24.1311 22.0291C24.2597 21.1431 24.3816 20.1591 24.3183 19.1261C24.3154 19.0618 24.3116 18.9975 24.3087 18.9331C24.301 18.8698 24.2943 18.8055 24.2866 18.7421C24.2712 18.6154 24.2597 18.4896 24.2405 18.3648C24.1906 18.1181 24.156 17.8723 24.0869 17.6391C23.9612 17.1687 23.7884 16.7299 23.5877 16.3296C23.389 15.9283 23.1576 15.5693 22.9205 15.2496C22.8053 15.0864 22.6786 14.9424 22.5624 14.7984C22.4367 14.6631 22.3224 14.5267 22.1996 14.4096C21.7224 13.9287 21.278 13.6003 20.9631 13.3911C20.8076 13.2826 20.6799 13.2096 20.5944 13.1578C20.5532 13.1328 20.5205 13.1127 20.4975 13.0983C20.4754 13.0848 20.4648 13.0771 20.4648 13.0771C20.4648 13.0771 20.4773 13.0829 20.4994 13.0954C20.5234 13.1088 20.556 13.1271 20.5983 13.1511C20.6847 13.201 20.8143 13.272 20.9717 13.3776C21.2904 13.584 21.7378 13.9085 22.2207 14.3895C22.3445 14.5056 22.4597 14.6429 22.5864 14.7773C22.7036 14.9213 22.8322 15.0663 22.9484 15.2285C23.1874 15.5482 23.4216 15.9091 23.6223 16.3114C23.8248 16.7136 23.9996 17.1543 24.1263 17.6275C24.1964 17.8627 24.2319 18.1104 24.2818 18.3581C24.301 18.4829 24.3125 18.6096 24.3279 18.7373C24.3356 18.8007 24.3423 18.865 24.35 18.9293C24.3528 18.9936 24.3567 19.0579 24.3596 19.1232C24.4229 20.161 24.2991 21.1479 24.1685 22.0349C24.0341 22.9229 23.8863 23.7168 23.7893 24.3888C23.6895 25.0599 23.6434 25.6071 23.6175 25.9853C23.6079 26.1744 23.605 26.3223 23.6002 26.4221C23.5983 26.4711 23.5964 26.5085 23.5954 26.5354C23.5944 26.5594 23.5925 26.5728 23.5925 26.5728Z" fill="#231D1B"/>
<path d="M22.6802 15.6366C22.6793 15.6376 22.6697 15.6251 22.6524 15.6001C22.6332 15.5713 22.6082 15.5349 22.5785 15.4907C22.5477 15.4427 22.5093 15.3841 22.4594 15.3189C22.4105 15.2536 22.3586 15.1768 22.2924 15.099C22.2597 15.0597 22.2261 15.0174 22.1906 14.9752C22.1551 14.932 22.1148 14.8907 22.0745 14.8456C21.9957 14.7544 21.9026 14.6661 21.8057 14.571C21.6079 14.3867 21.3775 14.1976 21.1193 14.0229C20.8591 13.851 20.5961 13.7099 20.3513 13.5976C20.2265 13.5448 20.1093 13.492 19.9951 13.4536C19.9385 13.4334 19.8847 13.4113 19.8309 13.395C19.7772 13.3787 19.7263 13.3633 19.6773 13.3489C19.5804 13.3173 19.4892 13.2981 19.4105 13.2779C19.3317 13.2568 19.2636 13.2433 19.2069 13.2328C19.1541 13.2222 19.1119 13.2136 19.0773 13.2069C19.0476 13.2001 19.0322 13.1963 19.0322 13.1953C19.0322 13.1934 19.0485 13.1953 19.0783 13.1992C19.1129 13.204 19.1561 13.2097 19.2089 13.2174C19.2655 13.2251 19.3356 13.2366 19.4153 13.2549C19.4949 13.2731 19.5871 13.2894 19.685 13.3201C19.7349 13.3345 19.7868 13.3489 19.8405 13.3643C19.8943 13.3797 19.949 13.4008 20.0066 13.4209C20.1218 13.4584 20.2409 13.5102 20.3666 13.5621C20.6153 13.6744 20.8802 13.8145 21.1423 13.9883C21.4025 14.1649 21.6338 14.356 21.8316 14.5432C21.9276 14.6392 22.0207 14.7294 22.0994 14.8216C22.1388 14.8677 22.1791 14.9099 22.2146 14.9531C22.2492 14.9973 22.2828 15.0395 22.3145 15.0798C22.3797 15.1595 22.4306 15.2373 22.4777 15.3045C22.5257 15.3707 22.5621 15.4312 22.5909 15.4801C22.6178 15.5262 22.6399 15.5646 22.6581 15.5944C22.6735 15.6222 22.6812 15.6357 22.6802 15.6366Z" fill="#231D1B"/>
<path d="M14.9278 15.5278L18.3271 13.9409L19.242 13.9937C21.2878 13.8814 22.6279 16.0126 22.7393 17.6686C22.867 19.578 23.1434 21.8312 22.9284 23.1761C22.4858 25.9371 20.3844 26.298 20.3844 26.298C20.3844 26.2942 20.7377 28.4724 20.8087 29.3873C20.9364 31.0318 19.3783 31.0212 17.73 31.076C16.1585 31.1288 14.8327 29.9172 14.7425 28.3476L14.0628 16.5166C14.0503 16.0116 14.4266 15.5825 14.9278 15.5278Z" fill="#EFCDBB"/>
<path d="M20.3883 26.297C20.3883 26.297 18.5316 26.4238 16.6865 25.3236C16.6865 25.3236 17.6782 27.234 20.4411 26.9662L20.3883 26.297Z" fill="#D3AF9F"/>
<path d="M20.1303 15.5241C20.1303 15.5222 20.1293 15.5222 20.1303 15.5241Z" fill="#E3E3E3"/>
<path d="M20.3213 16.296C20.3261 16.297 20.3299 16.296 20.3318 16.296H20.3213Z" fill="#E3E3E3"/>
<path d="M20.3183 16.4265L20.3174 16.4275C20.3203 16.4275 20.3222 16.4265 20.3183 16.4265Z" fill="#E3E3E3"/>
<path d="M20.2255 16.0147C20.2255 16.0138 20.2246 16.0128 20.2227 16.0128C20.2246 16.0138 20.2255 16.0138 20.2255 16.0147Z" fill="#E3E3E3"/>
<path d="M20.0566 15.3005C20.0576 15.3005 20.0586 15.2995 20.0595 15.2986L20.0566 15.3005Z" fill="#E3E3E3"/>
<path d="M20.0642 15.3014C20.0622 15.3052 20.0584 15.3024 20.0574 15.3014C20.0526 15.3062 20.0526 15.3091 20.0565 15.311C20.0613 15.3091 20.0594 15.3033 20.0642 15.3014Z" fill="#E3E3E3"/>
<path d="M19.9395 14.8925L19.9423 14.8934C19.9414 14.8925 19.9404 14.8925 19.9395 14.8925Z" fill="#E3E3E3"/>
<path d="M19.916 16.0896C19.915 16.0886 19.915 16.0886 19.9141 16.0876C19.9141 16.0896 19.9141 16.0896 19.916 16.0896Z" fill="#E3E3E3"/>
<path d="M19.9482 14.9587L19.9588 14.9568C19.954 14.9577 19.9511 14.9577 19.9482 14.9587Z" fill="#E3E3E3"/>
<path d="M20.2704 17.1561L20.2743 17.1551L20.2666 17.1542C20.2676 17.1551 20.2685 17.1561 20.2704 17.1561Z" fill="#E3E3E3"/>
<path d="M20.1184 17.1437C20.1136 17.1446 20.1098 17.1446 20.1184 17.1437Z" fill="#E3E3E3"/>
<path d="M20.2617 17.1744H20.2694C20.2675 17.1725 20.2646 17.1725 20.2617 17.1744Z" fill="#E3E3E3"/>
<path d="M19.6911 15.7765C19.6902 15.7775 19.6902 15.7756 19.6911 15.7765Z" fill="#E3E3E3"/>
<path d="M20.3223 15.6892C20.3223 15.6892 20.3223 15.6901 20.3232 15.6901C20.3223 15.6872 20.3223 15.6853 20.3223 15.6892Z" fill="#E3E3E3"/>
<path d="M20.0342 15.7401C20.0332 15.7401 20.0332 15.7411 20.0332 15.742C20.0342 15.7411 20.0342 15.7401 20.0342 15.7401Z" fill="#E3E3E3"/>
<path d="M19.5342 15.8198C19.5342 15.8188 19.5342 15.8179 19.5332 15.8169L19.5342 15.8198Z" fill="#E3E3E3"/>
<path d="M19.5351 15.8121C19.5371 15.815 19.5351 15.8179 19.5342 15.8189C19.5371 15.8246 19.539 15.8246 19.5409 15.8217C19.5409 15.816 19.5371 15.8169 19.5351 15.8121Z" fill="#E3E3E3"/>
<path d="M19.2461 15.8754L19.2471 15.8726C19.2461 15.8735 19.2461 15.8745 19.2461 15.8754Z" fill="#E3E3E3"/>
<path d="M20.0849 16.0549C20.0849 16.0559 20.084 16.0559 20.084 16.0569C20.084 16.0569 20.084 16.0559 20.0849 16.0549Z" fill="#E3E3E3"/>
<path d="M19.292 15.8764L19.291 15.8658C19.292 15.8706 19.292 15.8735 19.292 15.8764Z" fill="#E3E3E3"/>
<path d="M20.4043 15.6853C20.4043 15.6882 20.4053 15.6911 20.4062 15.693L20.4043 15.6853Z" fill="#E3E3E3"/>
<path d="M20.832 15.7939C20.832 15.7929 20.832 15.791 20.831 15.79L20.8301 15.7977C20.831 15.7968 20.832 15.7958 20.832 15.7939Z" fill="#E3E3E3"/>
<path d="M20.5203 15.7151C20.5203 15.7141 20.5203 15.7132 20.5203 15.7112C20.5184 15.7084 20.5126 15.7084 20.5068 15.7093L20.5078 15.7218L20.5203 15.7151Z" fill="#E3E3E3"/>
<path d="M20.8262 15.9436C20.8271 15.9522 20.8271 15.9494 20.8262 15.9436Z" fill="#E3E3E3"/>
<path d="M20.5839 15.7323H20.5849L20.5801 15.7208L20.5839 15.7323Z" fill="#E3E3E3"/>
<path d="M20.7178 15.7074C20.7111 15.7055 20.7111 15.7074 20.713 15.7113C20.7149 15.7113 20.7169 15.7103 20.7178 15.7074Z" fill="#E3E3E3"/>
<path d="M20.8729 15.9206C20.8758 15.9206 20.8739 15.9158 20.872 15.91C20.8691 15.912 20.8662 15.912 20.8662 15.912C20.8681 15.9148 20.871 15.9187 20.8729 15.9206Z" fill="#E3E3E3"/>
<path d="M20.8445 15.8035V15.7958C20.8435 15.7987 20.8435 15.8006 20.8445 15.8035Z" fill="#E3E3E3"/>
<path d="M13.9739 26.9731C13.9739 26.9731 9.85547 28.3123 8.28107 29.8599C7.08011 31.0397 6.51275 34.7165 6.44747 35.3069C6.38219 35.8973 5.50475 42.3917 5.70155 43.3104C5.80523 43.7952 6.27467 44.5805 6.69419 45.2151C7.03019 45.7229 7.77035 45.7411 8.13227 45.2506L9.89675 42.865L11.595 40.5735L11.9982 31.6205L13.9739 26.9731Z" fill="#7B7C7C"/>
<path d="M22.4707 28.1818C22.4707 28.1818 25.3987 28.7578 26.4681 30.5654C26.9856 31.441 28.1443 34.2912 28.2413 36.5635C28.5561 43.9757 27.8985 44.7446 27.8985 44.7446C27.8985 44.7446 28.1491 43.08 26.4422 41.833C24.7353 40.5859 24.4733 39.7325 24.4733 39.7325L25.0973 33.9235L22.4707 28.1818Z" fill="#7B7C7C"/>
<path d="M13.9736 26.9731C14.0063 27.072 14.7263 29.4288 17.6139 29.4624C20.5016 29.496 20.8347 27.6471 20.8347 27.6471L22.4706 28.1827L25.4571 32.6784L25.245 45.8477H9.49235L9.04883 34.9431L9.41843 29.0026L13.9736 26.9731Z" fill="#7B7C7C"/>
<path d="M19.1498 44.9473C19.1489 44.9482 19.1325 44.9319 19.1018 44.9002C19.0692 44.8657 19.025 44.8186 18.9693 44.7601C18.9117 44.6996 18.8417 44.6238 18.7639 44.5345C18.6852 44.4452 18.594 44.3444 18.498 44.2292C18.3031 44.0017 18.0794 43.7223 17.8413 43.4065C17.6042 43.0887 17.3537 42.7326 17.105 42.3476C16.8583 41.9617 16.6385 41.5854 16.4474 41.2378C16.2593 40.8894 16.098 40.5706 15.9713 40.298C15.906 40.1636 15.8522 40.0388 15.8042 39.9294C15.7553 39.8209 15.7159 39.7258 15.6842 39.6481C15.6545 39.5732 15.6305 39.5137 15.6122 39.4695C15.5959 39.4282 15.5882 39.4062 15.5901 39.4062C15.5911 39.4052 15.6017 39.4263 15.6209 39.4666C15.641 39.5098 15.6669 39.5684 15.7005 39.6423C15.7341 39.7191 15.7754 39.8122 15.8263 39.9198C15.8772 40.0273 15.9319 40.1511 15.9991 40.2846C16.1287 40.5543 16.2919 40.8711 16.482 41.2186C16.674 41.5642 16.8948 41.9396 17.1405 42.3246C17.3882 42.7076 17.6378 43.0647 17.8721 43.3825C18.1082 43.6993 18.329 43.9796 18.521 44.209C18.6151 44.3252 18.7044 44.427 18.7812 44.5182C18.858 44.6094 18.9252 44.6862 18.9818 44.7486C19.0346 44.809 19.0769 44.858 19.1085 44.8935C19.1364 44.9281 19.1508 44.9463 19.1498 44.9473Z" fill="#2E353A"/>
<path d="M20.4984 44.1514C20.4974 44.1523 20.4782 44.1389 20.4427 44.112C20.4043 44.0822 20.3525 44.0429 20.2872 43.993C20.1518 43.8893 19.9598 43.7347 19.7275 43.5379C19.4942 43.3421 19.2235 43.1002 18.9298 42.8246C18.6379 42.5472 18.323 42.2342 18.0053 41.8944C17.6885 41.5536 17.3995 41.2176 17.1432 40.9066C16.8888 40.5936 16.667 40.3066 16.4885 40.0598C16.309 39.8141 16.1678 39.6115 16.0738 39.4685C16.0286 39.3994 15.9931 39.3456 15.9662 39.3043C15.9422 39.2669 15.9298 39.2467 15.9307 39.2458C15.9317 39.2448 15.9461 39.264 15.973 39.2995C16.0008 39.3389 16.0392 39.3926 16.0872 39.4589C16.1851 39.5981 16.3291 39.7978 16.5115 40.0416C16.693 40.2854 16.9176 40.5706 17.173 40.8816C17.4302 41.1907 17.7202 41.5248 18.036 41.8656C18.3528 42.2045 18.6658 42.5174 18.9557 42.7958C19.2475 43.0723 19.5163 43.3162 19.7467 43.5149C19.9771 43.7146 20.1653 43.873 20.2978 43.9795C20.3611 44.0323 20.411 44.0736 20.4485 44.1043C20.4821 44.1341 20.4994 44.1504 20.4984 44.1514Z" fill="#2E353A"/>
<g opacity="0.2">
<path d="M12.5869 45.6778C14.6135 45.143 16.2532 43.3594 16.616 41.2954C16.9175 41.6669 17.3024 41.9702 17.7335 42.1766C17.8631 41.6525 17.2468 41.0688 17.0269 40.5754C17.0269 40.5754 17.4224 40.1107 17.6807 39.408C18.4448 37.3306 19.2935 35.2166 20.0029 33.12C20.0768 32.9021 20.1469 32.6554 20.0423 32.4509C19.9386 32.2454 19.5757 32.1955 19.5028 32.4134L12.5869 45.6778Z" fill="black"/>
</g>
<g opacity="0.2">
<path d="M24.3078 45.095C23.3382 40.6483 21.6832 36.3849 20.0358 32.1427L19.8438 33.1113C19.5347 33.9158 20.0675 34.7683 20.3161 35.5929C20.5821 36.4771 20.5168 37.4208 20.5475 38.3433C20.6022 39.9638 20.967 41.5728 21.616 43.0579C22.0643 44.0851 22.6845 45.0902 23.6397 45.6758C23.7981 45.7728 23.9977 45.8582 24.1619 45.7709C24.3798 45.6537 24.3606 45.3379 24.3078 45.095Z" fill="black"/>
</g>
<path d="M11.3092 40.5753C11.3083 40.5753 11.3054 40.5686 11.3006 40.5552C11.2948 40.5388 11.2871 40.5187 11.2785 40.4928C11.2593 40.438 11.2353 40.3555 11.2027 40.2508C11.1393 40.0396 11.051 39.7344 10.9444 39.3561C10.7303 38.5996 10.4395 37.5523 10.1207 36.3955C9.80393 35.2396 9.51593 34.1923 9.30761 33.432C9.10025 32.6726 8.96777 32.2051 8.96777 32.2051C8.96873 32.2051 8.97161 32.2118 8.97641 32.2252C8.98217 32.2416 8.98985 32.2617 8.99945 32.2876C9.01961 32.3424 9.04361 32.424 9.07625 32.5296C9.14057 32.7398 9.22889 33.046 9.33641 33.4243C9.55145 34.1808 9.84329 35.2281 10.1611 36.3849C10.787 38.6668 11.2487 40.3536 11.3092 40.5753Z" fill="#2E353A"/>
<path d="M11.3098 40.5754C11.3089 40.5763 11.2973 40.5687 11.2762 40.5533C11.2513 40.5351 11.2215 40.512 11.186 40.4851C11.1476 40.4544 11.1005 40.417 11.0401 40.3824C11.0103 40.3642 10.9786 40.344 10.945 40.3239C10.9277 40.3133 10.9114 40.3027 10.8932 40.2922C10.874 40.2826 10.8548 40.2739 10.8356 40.2643C10.5255 40.1021 10.057 39.9552 9.52325 39.9101C9.25733 39.8851 9.00101 39.8784 8.76965 39.8861C8.53733 39.8909 8.32901 39.9072 8.15333 39.9226C7.97861 39.9389 7.83749 39.9562 7.73957 39.9677C7.69445 39.9725 7.65797 39.9773 7.62725 39.9811C7.60133 39.984 7.58789 39.984 7.58789 39.9831C7.58789 39.9821 7.60133 39.9783 7.62629 39.9725C7.65701 39.9667 7.69349 39.96 7.73765 39.9514C7.83461 39.9351 7.97573 39.913 8.15045 39.8928C8.32517 39.8736 8.53541 39.8535 8.76869 39.8467C9.00197 39.8371 9.25925 39.8419 9.52805 39.8679C10.0666 39.913 10.5409 40.0666 10.8509 40.2375C10.8701 40.248 10.8893 40.2576 10.9085 40.2672C10.9258 40.2787 10.9431 40.2903 10.9604 40.3008C10.993 40.3229 11.0247 40.3431 11.0545 40.3632C11.1149 40.3997 11.1601 40.44 11.1975 40.4727C11.2321 40.5024 11.2599 40.5274 11.2829 40.5475C11.3021 40.5648 11.3117 40.5744 11.3098 40.5754Z" fill="#2E353A"/>
<path d="M25.563 31.5408C25.5745 31.5427 25.3441 32.8963 25.0494 34.5629C24.7537 36.2304 24.5051 37.5801 24.4936 37.5782C24.4821 37.5763 24.7125 36.2227 25.0072 34.5552C25.3029 32.8886 25.5515 31.5389 25.563 31.5408Z" fill="#2E353A"/>
<g opacity="0.3">
<path d="M17.0243 30.2217C16.9322 28.8288 16.84 27.4358 16.7478 26.0428L11.4717 30.8793C11.9066 31.1606 12.4365 31.2412 12.9482 31.3161C13.7181 31.4284 14.488 31.5408 15.2579 31.6531C15.8157 31.7347 16.4896 31.7721 16.8323 31.3238C17.0646 31.0204 17.0493 30.6019 17.0243 30.2217Z" fill="black"/>
</g>
<g opacity="0.2">
<path d="M9.68409 34.584C9.86169 36.3273 10.3666 38.448 10.7382 40.1606C10.0143 39.8621 9.10041 39.767 8.50329 39.9878C8.38809 40.0301 8.27097 40.0838 8.19801 40.1827C8.12505 40.2816 8.11641 40.4371 8.21049 40.5158C8.28057 40.5753 8.38137 40.5753 8.47353 40.5725C9.42777 40.5417 9.65625 40.1433 11.3113 40.5753C10.7593 38.6102 10.2351 36.5491 9.68409 34.584Z" fill="black"/>
</g>
<path d="M9.86885 35.4941C9.86885 35.497 9.81701 35.4941 9.72581 35.4864C9.67973 35.4816 9.62405 35.4768 9.55877 35.4739C9.49349 35.4711 9.41957 35.4643 9.33701 35.4643C9.17285 35.4586 8.97605 35.4615 8.75909 35.4749C8.54213 35.4903 8.30405 35.5181 8.05733 35.5623C7.81061 35.6093 7.57925 35.6688 7.37093 35.7322C7.16357 35.7975 6.97925 35.8647 6.82757 35.929C6.75077 35.9587 6.68357 35.9914 6.62405 36.0183C6.56357 36.0442 6.51365 36.0691 6.47237 36.0893C6.38981 36.1296 6.34277 36.1507 6.34181 36.1479C6.34085 36.145 6.38405 36.1191 6.46565 36.0739C6.50597 36.0509 6.55589 36.024 6.61541 35.9962C6.67493 35.9674 6.74117 35.9328 6.81701 35.9011C6.96773 35.833 7.15205 35.7619 7.36037 35.6947C7.56965 35.6295 7.80197 35.568 8.05061 35.521C8.29925 35.4759 8.53925 35.4499 8.75717 35.4355C8.97605 35.424 9.17285 35.424 9.33797 35.4336C9.42053 35.4355 9.49541 35.4442 9.56069 35.4499C9.62597 35.4547 9.68261 35.4624 9.72773 35.4691C9.81797 35.4826 9.86885 35.4912 9.86885 35.4941Z" fill="white"/>
<path d="M8.2863 45.1805C8.28534 45.1814 8.27286 45.1728 8.25078 45.1546C8.2287 45.1354 8.1951 45.1094 8.15478 45.071C8.07318 44.9971 7.96182 44.8819 7.8399 44.7274C7.59606 44.4202 7.32342 43.9267 7.22454 43.3286C7.12566 42.7296 7.2255 42.1757 7.35798 41.8061C7.42326 41.6198 7.49238 41.4758 7.54518 41.3789C7.57014 41.3299 7.59414 41.2944 7.60854 41.2694C7.6239 41.2445 7.63254 41.232 7.6335 41.233C7.63638 41.2349 7.60758 41.2877 7.55862 41.3866C7.50966 41.4845 7.4463 41.6304 7.38486 41.8157C7.26102 42.1843 7.1679 42.7315 7.26486 43.3219C7.36182 43.9123 7.62582 44.4 7.86198 44.7091C7.98006 44.8656 8.08662 44.9818 8.16438 45.0595C8.24406 45.1373 8.28822 45.1776 8.2863 45.1805Z" fill="white"/>
<path d="M17.6808 31.8364C17.6818 31.8479 15.7714 32.0341 13.4146 32.2521C11.0568 32.47 9.14452 32.637 9.14356 32.6255C9.1426 32.614 11.052 32.4277 13.4108 32.2098C15.7676 31.9919 17.6799 31.8249 17.6808 31.8364Z" fill="white"/>
<path d="M13.4121 37.9026C13.415 37.9142 12.8467 38.0735 12.143 38.2588C11.4393 38.4441 10.8662 38.5852 10.8633 38.5737C10.8604 38.5622 11.4287 38.4028 12.1324 38.2175C12.8371 38.0322 13.4092 37.8911 13.4121 37.9026Z" fill="white"/>
<path d="M21.0059 37.0311C21.0078 37.0426 20.2993 37.1597 19.4248 37.2912C18.5492 37.4237 17.8388 37.5216 17.8369 37.5101C17.835 37.4986 18.5435 37.3824 19.418 37.2499C20.2936 37.1184 21.004 37.0195 21.0059 37.0311Z" fill="white"/>
<path d="M24.6469 36.2169C24.6469 36.2284 24.4501 36.2428 24.2072 36.2495C23.9644 36.2563 23.7666 36.2515 23.7666 36.2399C23.7666 36.2284 23.9634 36.214 24.2063 36.2073C24.4492 36.2006 24.6469 36.2054 24.6469 36.2169Z" fill="white"/>
<path d="M27.9781 34.8902C27.9771 34.8931 27.9378 34.8787 27.8686 34.8499C27.7995 34.8211 27.6987 34.7818 27.5739 34.7338C27.3243 34.6387 26.9749 34.5206 26.5794 34.4237C26.1838 34.3277 25.8181 34.271 25.5531 34.2403C25.4206 34.225 25.3131 34.2144 25.2382 34.2077C25.1634 34.201 25.123 34.1962 25.123 34.1923C25.123 34.1894 25.1643 34.1894 25.2392 34.1904C25.3141 34.1914 25.4226 34.1981 25.556 34.2096C25.8229 34.2326 26.1906 34.2845 26.589 34.3814C26.9864 34.4784 27.3368 34.6022 27.5845 34.704C27.7083 34.7549 27.8072 34.799 27.8744 34.8326C27.9426 34.8682 27.979 34.8883 27.9781 34.8902Z" fill="white"/>
<path d="M18.2703 43.9921C18.2703 43.993 18.2521 43.9978 18.2175 44.0055C18.1781 44.0132 18.1282 44.0237 18.0658 44.0362C17.9285 44.0631 17.7394 44.1015 17.5071 44.1476C17.0357 44.2426 16.3858 44.3818 15.6725 44.5565C14.9593 44.7313 14.3189 44.9079 13.8562 45.0423C13.6287 45.1085 13.4434 45.1633 13.309 45.2017C13.2476 45.2189 13.1986 45.2333 13.1602 45.2439C13.1257 45.2535 13.1074 45.2573 13.1074 45.2564C13.1074 45.2554 13.1247 45.2477 13.1573 45.2362C13.1948 45.2237 13.2437 45.2065 13.3042 45.1863C13.4319 45.1431 13.6172 45.0845 13.8476 45.0135C14.3084 44.8724 14.9477 44.6909 15.662 44.5153C16.3753 44.3405 17.0271 44.2061 17.5004 44.1178C17.7375 44.0737 17.9295 44.041 18.062 44.0199C18.1253 44.0103 18.1762 44.0026 18.2156 43.9969C18.2521 43.993 18.2703 43.9911 18.2703 43.9921Z" fill="white"/>
<path d="M19.8412 43.6262C19.8441 43.6301 19.7894 43.6819 19.6924 43.7549C19.5954 43.8288 19.4562 43.9219 19.293 44.0112C19.1298 44.0995 18.9753 44.1667 18.861 44.208C18.7468 44.2493 18.6738 44.2675 18.6719 44.2627C18.67 44.2569 18.7391 44.2281 18.8495 44.1801C18.9599 44.1321 19.1116 44.0621 19.2729 43.9747C19.4342 43.8864 19.5753 43.7981 19.6751 43.7309C19.7759 43.6646 19.8374 43.6214 19.8412 43.6262Z" fill="white"/>
<path d="M22.4071 42.6614C22.408 42.6642 22.3677 42.6767 22.2938 42.6978C22.2199 42.719 22.1133 42.7468 21.9808 42.7804C21.7159 42.8476 21.3482 42.933 20.9402 43.0185C20.5322 43.1039 20.1607 43.173 19.8919 43.2191C19.7575 43.2422 19.648 43.2594 19.5722 43.269C19.4964 43.2796 19.4541 43.2844 19.4541 43.2815C19.4532 43.2786 19.4944 43.269 19.5693 43.2527C19.6519 43.2364 19.7584 43.2153 19.8861 43.1894C20.154 43.1366 20.5236 43.0626 20.9316 42.9772C21.3396 42.8918 21.7072 42.8102 21.9741 42.7516C22.1018 42.7238 22.2074 42.7007 22.29 42.6825C22.3648 42.6662 22.4061 42.6585 22.4071 42.6614Z" fill="white"/>
<path d="M25.5631 31.5407C25.5631 31.5523 24.7845 31.5619 23.8245 31.5628C22.8635 31.5628 22.0859 31.5542 22.0859 31.5427C22.0859 31.5311 22.8645 31.5215 23.8245 31.5206C24.7845 31.5196 25.5631 31.5292 25.5631 31.5407Z" fill="white"/>
<path d="M11.3092 40.5753C11.3092 40.5763 11.2919 40.5744 11.2593 40.5686C11.2228 40.5609 11.1758 40.5523 11.1172 40.5408C11.0538 40.5273 10.979 40.512 10.8935 40.4937C10.8062 40.4755 10.7044 40.4688 10.594 40.4534C10.1524 40.4016 9.51977 40.392 8.86793 40.6013C8.54057 40.6982 8.24969 40.8489 7.99721 41.0006C7.74377 41.1533 7.53641 41.3222 7.37033 41.472C7.20233 41.6208 7.08233 41.7571 6.99785 41.8502C6.95561 41.8973 6.92585 41.9357 6.90377 41.9597C6.88169 41.9846 6.87017 41.9971 6.86921 41.9961C6.86825 41.9952 6.87785 41.9808 6.89705 41.9539C6.91721 41.927 6.94505 41.8877 6.98537 41.8387C7.06601 41.7427 7.18313 41.6016 7.35017 41.4499C7.51529 41.2963 7.72169 41.1225 7.97705 40.967C8.23049 40.8115 8.52521 40.6579 8.85641 40.56C9.51593 40.3478 10.1562 40.3632 10.5998 40.4227C10.7111 40.44 10.8129 40.4496 10.9002 40.4697C10.9857 40.4909 11.0606 40.5081 11.123 40.5235C11.1806 40.5379 11.2266 40.5504 11.2631 40.559C11.2938 40.5686 11.3102 40.5734 11.3092 40.5753Z" fill="#2E353A"/>
<g opacity="0.2">
<path d="M24.2373 37.0444L24.4936 37.6732C24.7586 35.9913 25.0773 34.6521 25.2799 32.9539C24.6395 34.2191 24.2805 35.6265 24.2373 37.0444Z" fill="black"/>
</g>
<path d="M28.2794 41.7168C28.2785 41.7178 28.2679 41.7043 28.2497 41.6784C28.2285 41.6486 28.2026 41.6112 28.17 41.5642C28.098 41.4605 28.0001 41.3174 27.8801 41.1437C27.6333 40.7904 27.2906 40.3008 26.8413 39.8218C26.3921 39.3418 25.9082 38.9866 25.5271 38.7859C25.338 38.6842 25.1777 38.615 25.0653 38.5718C25.0097 38.5488 24.9645 38.5354 24.9357 38.5229C24.906 38.5114 24.8906 38.5046 24.8906 38.5037C24.8906 38.5027 24.9069 38.5066 24.9377 38.5152C24.9684 38.5248 25.0135 38.5354 25.0701 38.5565C25.1844 38.5949 25.3476 38.6602 25.5405 38.759C25.9274 38.9539 26.4189 39.3091 26.8711 39.792C27.3233 40.2749 27.6631 40.7683 27.9041 41.1264C28.0241 41.3059 28.1181 41.4528 28.1825 41.5546C28.2122 41.6026 28.2362 41.6419 28.2554 41.6726C28.2727 41.7014 28.2804 41.7158 28.2794 41.7168Z" fill="white"/>
<path d="M8.77924 31.6128C8.7706 31.6205 8.569 31.4016 8.329 31.1232C8.089 30.8448 7.9018 30.6135 7.91044 30.6058C7.91908 30.5981 8.12068 30.817 8.36068 31.0954C8.60068 31.3738 8.78788 31.6051 8.77924 31.6128Z" fill="white"/>
<path d="M19.288 12.744C16.9975 12.1555 15.5479 12.552 14.3949 13.5043C13.5683 14.0582 12.905 14.8608 12.4298 15.743C11.8077 16.8969 11.4784 18.1852 11.2231 19.4716C10.5712 22.7548 10.8506 26.158 10.6154 29.4643C10.5818 29.9337 10.7152 30.4473 11.0589 30.7699C11.4832 31.1683 12.1475 31.1116 12.7226 31.0214C13.6087 30.8822 14.2202 31.2566 15.0995 31.0771C15.5171 30.9916 16.217 31.2326 16.4608 30.8832C16.6499 30.6124 16.6951 29.3712 16.7056 29.0409C16.8093 25.5974 16.913 22.1529 17.0167 18.7094C18.1802 16.8182 19.216 14.9731 19.288 12.744Z" fill="#38302D"/>
<path d="M16.3809 18.3359C16.3799 18.3349 16.3991 18.3253 16.4347 18.309C16.4702 18.2917 16.5239 18.2706 16.5902 18.238C16.7246 18.1756 16.9156 18.0757 17.1383 17.9327C17.5838 17.6495 18.1521 17.158 18.5735 16.4649C18.9959 15.7717 19.1707 15.0412 19.2177 14.5151C19.2427 14.2511 19.2427 14.0361 19.2369 13.8873C19.2359 13.8133 19.2302 13.7557 19.2292 13.7164C19.2273 13.677 19.2273 13.6569 19.2283 13.6569C19.2302 13.6569 19.2331 13.677 19.2369 13.7164C19.2407 13.7557 19.2494 13.8124 19.2532 13.8873C19.2647 14.0361 19.2686 14.2521 19.2475 14.518C19.2081 15.0479 19.0363 15.7861 18.61 16.4869C18.1847 17.1868 17.6068 17.6793 17.1547 17.9577C16.9281 18.0988 16.7342 18.1948 16.5969 18.2533C16.5287 18.2841 16.474 18.3033 16.4375 18.3177C16.4011 18.3311 16.3809 18.3378 16.3809 18.3359Z" fill="#2E353A"/>
<path d="M17.8187 31.0387C17.8177 31.0387 17.8139 31.0291 17.8052 31.0089C17.7966 30.9868 17.7841 30.9571 17.7688 30.9196C17.7534 30.8803 17.7332 30.8323 17.7121 30.7737C17.692 30.7152 17.6689 30.647 17.643 30.5712C17.5412 30.2659 17.4241 29.8137 17.3368 29.2454C17.1572 28.1059 17.1544 26.5142 17.0852 24.7632C17.0267 23.0102 16.9902 21.4233 16.9816 20.2742C16.9758 19.7001 16.9758 19.2345 16.9777 18.9129C16.9796 18.7545 16.9806 18.6297 16.9816 18.5433C16.9825 18.503 16.9835 18.4704 16.9835 18.4473C16.9844 18.4252 16.9844 18.4147 16.9854 18.4147C16.9864 18.4147 16.9873 18.4262 16.9873 18.4473C16.9883 18.4713 16.9883 18.503 16.9892 18.5433C16.9902 18.6297 16.9921 18.7545 16.994 18.9129C16.9979 19.2364 17.0046 19.7011 17.0113 20.2732C17.0276 21.4224 17.0689 23.0092 17.1275 24.7612C17.1966 26.5123 17.1947 28.104 17.3665 29.2406C17.45 29.808 17.5624 30.2601 17.6593 30.5664C17.6843 30.6422 17.7054 30.7104 17.7246 30.7689C17.7457 30.8265 17.763 30.8755 17.7774 30.9158C17.7908 30.9542 17.8014 30.984 17.8091 31.006C17.8158 31.0281 17.8196 31.0387 17.8187 31.0387Z" fill="#2E353A"/>
<path d="M11.3213 31.0828C11.3213 31.0828 11.3203 31.0655 11.3203 31.031C11.3203 30.9955 11.3213 30.9455 11.3213 30.8793C11.3222 30.7459 11.3251 30.55 11.3318 30.2975C11.3434 29.7926 11.3654 29.062 11.4125 28.1596C11.4586 27.2572 11.5306 26.1839 11.641 24.9945C11.6976 24.4003 11.7562 23.7763 11.8387 23.1311C11.9222 22.487 12.0336 21.8198 12.2198 21.1545C12.4042 20.4892 12.6691 19.8604 13.0147 19.3065C13.3622 18.7535 13.7885 18.2851 14.2138 17.8665C14.64 17.447 15.0682 17.0735 15.4579 16.7135C15.8496 16.3555 16.2019 16.0079 16.4986 15.6681C16.7942 15.3283 17.0371 14.999 17.2214 14.6918C17.4048 14.3846 17.5354 14.1033 17.6189 13.8652C17.7034 13.6281 17.7494 13.4371 17.7763 13.3065C17.7878 13.2422 17.7974 13.1932 17.8042 13.1577C17.8109 13.1241 17.8147 13.1068 17.8147 13.1068C17.8147 13.1068 17.8128 13.1241 17.808 13.1577C17.8022 13.1932 17.7946 13.2422 17.785 13.3075C17.761 13.438 17.7178 13.63 17.6352 13.87C17.5536 14.11 17.425 14.3932 17.2426 14.7023C17.0592 15.0115 16.8173 15.3436 16.5216 15.6863C16.2259 16.0291 15.8736 16.3785 15.4829 16.7385C15.0931 17.0995 14.6669 17.4739 14.2416 17.8934C13.8182 18.3119 13.3949 18.7785 13.0502 19.3276C12.7075 19.8777 12.4454 20.5017 12.2611 21.1651C12.0749 21.8275 11.9635 22.4918 11.88 23.135C11.7974 23.7791 11.737 24.4031 11.6803 24.9974C11.569 26.1859 11.4931 27.2591 11.4432 28.1606C11.3923 29.062 11.3654 29.7926 11.3491 30.2975C11.3414 30.5491 11.3357 30.7449 11.3309 30.8793C11.329 30.9446 11.327 30.9945 11.3261 31.031C11.3232 31.0655 11.3213 31.0828 11.3213 31.0828Z" fill="#231D1B"/>
<path d="M12.482 30.6066C12.482 30.6066 12.481 30.5893 12.482 30.5567C12.483 30.5221 12.4839 30.4741 12.4849 30.4107C12.4887 30.2821 12.4916 30.093 12.4935 29.8491C12.4993 29.3615 12.4906 28.6559 12.4782 27.7832C12.4695 26.9115 12.4542 25.8699 12.5511 24.7189C12.6039 24.1439 12.6826 23.5419 12.8209 22.9285C12.8526 22.7749 12.8948 22.6213 12.9332 22.4667C12.9774 22.3131 13.0186 22.1576 13.0705 22.0031C13.1175 21.8475 13.1761 21.6949 13.2308 21.5394C13.2922 21.3867 13.3518 21.2312 13.4228 21.0805C13.6916 20.469 14.0468 19.916 14.427 19.4168C14.81 18.9176 15.2161 18.4674 15.6049 18.0411C15.9937 17.6159 16.3671 17.2136 16.6964 16.8219C17.0276 16.4312 17.3127 16.0472 17.5498 15.6824C17.787 15.3167 17.9732 14.9691 18.1105 14.6514C18.2487 14.3336 18.3361 14.0485 18.3966 13.8123C18.4244 13.6943 18.4503 13.5887 18.4638 13.4955C18.4801 13.4034 18.4945 13.3247 18.4993 13.2613C18.507 13.1989 18.5118 13.1509 18.5156 13.1163C18.5194 13.0837 18.5223 13.0674 18.5223 13.0674C18.5223 13.0674 18.5223 13.0847 18.5194 13.1173C18.5166 13.1519 18.5127 13.1999 18.507 13.2632C18.5031 13.3275 18.4897 13.4063 18.4753 13.4984C18.4628 13.5915 18.4388 13.6971 18.4119 13.8171C18.3543 14.0543 18.2679 14.3413 18.1316 14.661C17.9962 14.9807 17.811 15.3311 17.5748 15.6987C17.3386 16.0664 17.0545 16.4523 16.7233 16.845C16.394 17.2386 16.0215 17.6418 15.6337 18.068C15.2458 18.4943 14.8407 18.9445 14.4596 19.4427C14.0804 19.941 13.7281 20.4901 13.4602 21.0987C13.3902 21.2495 13.3316 21.4031 13.2692 21.5557C13.2145 21.7103 13.1559 21.8619 13.1089 22.0175C13.057 22.1711 13.0158 22.3256 12.9716 22.4792C12.9332 22.6338 12.8919 22.7864 12.8593 22.94C12.721 23.5515 12.6414 24.1515 12.5886 24.7256C12.4897 25.8738 12.5012 26.9144 12.506 27.7861C12.5146 28.6587 12.5185 29.3643 12.5079 29.853C12.5031 30.0968 12.4974 30.2859 12.4906 30.4146C12.4878 30.4779 12.4849 30.5259 12.4839 30.5605C12.4839 30.5893 12.482 30.6066 12.482 30.6066Z" fill="#231D1B"/>
<path d="M11.3813 20.2962C11.3803 20.2962 11.3813 20.2876 11.3822 20.2713C11.3841 20.2521 11.3861 20.2281 11.3889 20.1974C11.3957 20.1321 11.4043 20.0361 11.4273 19.9132C11.4696 19.6684 11.556 19.3151 11.7336 18.9052C11.7749 18.8015 11.8305 18.6988 11.8833 18.5884C11.9419 18.4818 12.0005 18.3695 12.0715 18.2591C12.2088 18.0354 12.3701 17.805 12.5601 17.5804C12.7493 17.3548 12.9643 17.1302 13.2033 16.917C13.4424 16.703 13.7064 16.5014 13.9838 16.3055C14.5397 15.9148 15.0907 15.5759 15.5601 15.2245C16.0315 14.8751 16.4184 14.5103 16.6939 14.1628C16.9713 13.8162 17.1374 13.4946 17.2305 13.2652C17.2757 13.15 17.3083 13.0588 17.3256 12.9954C17.3352 12.9657 17.3419 12.9426 17.3477 12.9244C17.3525 12.9081 17.3563 12.9004 17.3563 12.9004C17.3573 12.9004 17.3553 12.909 17.3515 12.9254C17.3467 12.9436 17.3409 12.9676 17.3333 12.9974C17.3189 13.0617 17.2881 13.1538 17.2459 13.27C17.1576 13.5023 16.9944 13.8287 16.7179 14.1801C16.4433 14.5324 16.0565 14.902 15.5841 15.2543C15.1137 15.6095 14.5627 15.9493 14.0088 16.3391C13.7323 16.534 13.4693 16.7346 13.2312 16.9468C12.9931 17.159 12.779 17.3807 12.5899 17.6044C12.3998 17.8271 12.2385 18.0556 12.1013 18.2764C12.0302 18.3858 11.9717 18.4972 11.9121 18.6028C11.8593 18.7113 11.8027 18.813 11.7614 18.9157C11.5819 19.3209 11.4907 19.6713 11.4446 19.9142C11.4187 20.0351 11.4072 20.1311 11.3985 20.1964C11.3937 20.2271 11.3899 20.2511 11.387 20.2703C11.3841 20.2876 11.3822 20.2962 11.3813 20.2962Z" fill="#231D1B"/>
<path d="M11.6162 40.1269L17.093 33.0863L19.5065 33.7237C19.5065 33.7237 17.022 39.3119 15.6002 42.0153C14.9004 43.3468 13.0284 45.5298 12.0588 46.1461C11.0892 46.7625 10.3634 46.8873 9.55318 46.4437C8.74294 46.0002 8.2207 45.1103 8.2207 45.1103L11.6162 40.1269Z" fill="#EFCDBB"/>
<path d="M20.7345 34.3803C20.7345 34.3803 20.3688 34.293 20.2641 33.7534C20.1595 33.2139 20.0635 31.0203 20.0635 31.0203L20.1451 24.9493C20.1451 24.9493 20.1249 24.5259 20.7345 24.5778L20.7182 25.1672L21.012 25.1346C21.012 25.1346 21.1003 26.684 21.1867 27.4328C21.274 28.1816 21.5179 30.0267 21.7617 30.6536C22.0056 31.2805 22.6248 33.0862 22.6248 33.0862" fill="#EFCDBB"/>
<path d="M22.6235 33.0863C22.6235 33.0863 22.6177 33.0738 22.6081 33.0489C22.5985 33.022 22.5851 32.9845 22.5678 32.9365C22.5323 32.8357 22.4804 32.6898 22.4132 32.5007C22.2779 32.1215 22.0859 31.5685 21.8324 30.8841C21.7681 30.7141 21.6951 30.5346 21.6471 30.3397C21.5953 30.1458 21.5531 29.9413 21.5108 29.7292C21.4283 29.3039 21.3553 28.8441 21.2862 28.3573C21.219 27.8706 21.1489 27.3561 21.1067 26.8165C21.0615 26.277 21.0241 25.7154 20.9905 25.1356L21.0135 25.1548C20.9214 25.1653 20.8206 25.1759 20.7198 25.1874L20.6958 25.1903L20.6967 25.1663C20.7015 24.9801 20.7073 24.7794 20.7121 24.5769L20.7313 24.598C20.6238 24.5903 20.5105 24.5922 20.4059 24.6287C20.3003 24.6623 20.2119 24.7449 20.1793 24.8533C20.1678 24.8917 20.163 24.9292 20.1639 24.9714L20.162 25.0972C20.1611 25.1807 20.1601 25.2642 20.1582 25.3468C20.1563 25.5129 20.1534 25.678 20.1515 25.8412C20.1467 26.1685 20.1428 26.4911 20.138 26.8079C20.1294 27.4415 20.1207 28.053 20.1121 28.6357C20.1035 29.2185 20.0958 29.7714 20.0881 30.2898C20.0843 30.549 20.0814 30.7986 20.0775 31.0386C20.0891 31.2786 20.0996 31.509 20.1102 31.7289C20.1332 32.1685 20.1563 32.5669 20.1822 32.9154C20.1956 33.0901 20.2081 33.2524 20.2235 33.4012C20.2388 33.55 20.2532 33.6863 20.2811 33.8053C20.3348 34.0453 20.4587 34.2047 20.5595 34.2825C20.6094 34.3228 20.6535 34.3458 20.6833 34.3602C20.7131 34.3737 20.7294 34.3794 20.7294 34.3794C20.7294 34.3794 20.7121 34.3765 20.6814 34.3641C20.6507 34.3516 20.6055 34.3295 20.5537 34.2892C20.4491 34.2124 20.3214 34.0521 20.2647 33.8092C20.2359 33.6882 20.2196 33.5519 20.2033 33.4031C20.187 33.2543 20.1726 33.0921 20.1582 32.9173C20.1303 32.5679 20.1044 32.1705 20.0795 31.7308C20.0679 31.5109 20.0564 31.2805 20.0439 31.0396C20.0468 30.7986 20.0487 30.549 20.0516 30.2898C20.0583 29.7714 20.0651 29.2185 20.0718 28.6357C20.0795 28.053 20.0871 27.4415 20.0948 26.8079C20.0987 26.4911 20.1035 26.1685 20.1073 25.8412C20.1092 25.677 20.1121 25.5129 20.114 25.3468C20.115 25.2642 20.1159 25.1807 20.1169 25.0972L20.1188 24.9714C20.1179 24.9292 20.1227 24.8821 20.1361 24.8409C20.1707 24.7199 20.2743 24.6249 20.3886 24.5893C20.5028 24.5509 20.6209 24.549 20.7323 24.5567L20.7524 24.5577L20.7515 24.5778C20.7457 24.7804 20.7409 24.981 20.7351 25.1673L20.7121 25.1461C20.8129 25.1346 20.9137 25.1241 21.0059 25.1135L21.0279 25.1106L21.0289 25.1327C21.0625 25.7125 21.0999 26.2741 21.1431 26.8127C21.1844 27.3513 21.2535 27.8649 21.3188 28.3516C21.387 28.8383 21.458 29.2972 21.5387 29.7225C21.5799 29.9346 21.6212 30.1391 21.6721 30.3321C21.7201 30.526 21.7911 30.7026 21.8545 30.8745C22.1041 31.5609 22.2923 32.1148 22.4228 32.4949C22.4871 32.6841 22.5361 32.8319 22.5707 32.9327C22.587 32.9817 22.5985 33.0191 22.6081 33.046C22.6206 33.0729 22.6235 33.0863 22.6235 33.0863Z" fill="#D3AF9F"/>
<path d="M17.0928 33.0863C17.0928 33.0863 18.3504 30.6306 18.9014 28.4629C19.4678 26.2338 19.5465 24.4338 19.5465 24.4338C19.5465 24.4338 20.0313 24.4146 20.0505 24.9138C20.0505 24.9138 20.4422 24.9522 20.4288 25.7193C20.4153 26.4863 20.4288 26.7167 20.4288 26.7167C20.4288 26.7167 20.6073 27.2351 20.6073 27.9685C20.6073 28.6588 20.447 30.1449 20.2809 31.4169C20.2061 31.989 19.8326 33.4741 19.5062 33.7429C19.1798 34.0117 18.9014 34.174 18.9014 34.174" fill="#EFCDBB"/>
<path d="M18.9005 34.175C18.9005 34.175 18.911 34.1673 18.9331 34.1529C18.9562 34.1375 18.9878 34.1164 19.0301 34.0886C19.1146 34.031 19.2394 33.9455 19.393 33.8246C19.4698 33.7641 19.5571 33.6979 19.6157 33.5932C19.6762 33.4915 19.7338 33.3753 19.7846 33.2447C19.8902 32.9855 19.9824 32.6793 20.0736 32.3366C20.2685 31.6521 20.3395 30.7996 20.449 29.8483C20.4989 29.3721 20.5478 28.8691 20.5757 28.343C20.6074 27.8188 20.5728 27.263 20.4086 26.7244L20.4077 26.7215V26.7196C20.3971 26.4076 20.4019 26.0927 20.4067 25.7721C20.4086 25.6127 20.4038 25.4524 20.3606 25.2979C20.3376 25.222 20.3078 25.1471 20.2618 25.0838C20.2157 25.0214 20.1533 24.9676 20.0803 24.9436C20.0698 24.9407 20.0573 24.9369 20.0486 24.9359L20.0304 24.934L20.0294 24.9158C20.0237 24.7871 19.9814 24.6566 19.8854 24.575C19.7923 24.4924 19.6637 24.4569 19.5466 24.4559L19.5667 24.4358C19.5302 25.0713 19.4534 25.6847 19.3642 26.2742C19.273 26.8627 19.1645 27.4252 19.0426 27.9551C18.8035 29.0179 18.4762 29.9395 18.1747 30.6959C17.8742 31.4543 17.5987 32.0505 17.4067 32.4595C17.3088 32.6639 17.232 32.8214 17.1782 32.927C17.1514 32.9788 17.1312 33.0182 17.1168 33.047C17.1024 33.0739 17.0947 33.0873 17.0947 33.0873C17.0947 33.0873 17.1005 33.0729 17.1139 33.0451C17.1274 33.0163 17.1466 32.9759 17.1725 32.9231C17.2234 32.8147 17.2982 32.6563 17.3942 32.4527C17.5824 32.0419 17.8541 31.4438 18.1498 30.6854C18.4474 29.9279 18.7718 29.0073 19.007 27.9465C19.128 27.4166 19.2355 26.855 19.3258 26.2675C19.4141 25.6799 19.4899 25.0665 19.5264 24.4339L19.5274 24.4137H19.5466C19.6762 24.4147 19.8106 24.4521 19.9152 24.5433C20.0218 24.6335 20.0669 24.7785 20.0726 24.9139L20.0534 24.8937C20.0688 24.8956 20.0813 24.8995 20.0938 24.9033C20.1782 24.9311 20.2454 24.9907 20.2963 25.0588C20.3472 25.1279 20.3779 25.2067 20.4019 25.2863C20.447 25.4467 20.4518 25.6118 20.4499 25.7721C20.4451 26.0918 20.4403 26.4086 20.4509 26.7167L20.4499 26.711C20.616 27.2591 20.6496 27.8179 20.617 28.3449C20.5882 28.8729 20.5382 29.3759 20.4874 29.8521C20.4365 30.3283 20.3808 30.7785 20.327 31.1961C20.281 31.6166 20.1907 31.9996 20.1014 32.3433C20.0083 32.687 19.9133 32.9932 19.8058 33.2524C19.7539 33.383 19.6944 33.5001 19.633 33.6028C19.6157 33.6278 19.5984 33.6518 19.5821 33.6748C19.5648 33.6979 19.5427 33.7171 19.5245 33.7372C19.4842 33.7747 19.4419 33.8044 19.4045 33.8351C19.249 33.9551 19.1232 34.0387 19.0368 34.0943C18.9936 34.1222 18.96 34.1423 18.9379 34.1548C18.9158 34.1673 18.9005 34.175 18.9005 34.175Z" fill="#D3AF9F"/>
<path d="M20.447 26.7523C20.4441 26.7571 20.4163 26.7206 20.3472 26.7014C20.2761 26.6842 20.1677 26.7293 20.0813 26.8282L20.0851 26.8186C20.0861 26.9683 20.087 27.1478 20.088 27.3485C20.0841 27.551 20.0995 27.7757 20.0861 28.0138C20.0659 28.4659 19.9785 28.8691 19.895 29.1523C19.8537 29.2944 19.8125 29.4067 19.7827 29.4835C19.752 29.5603 19.7328 29.6016 19.7309 29.6006C19.728 29.5997 19.7414 29.5555 19.7673 29.4778C19.7913 29.399 19.8288 29.2858 19.8662 29.1437C19.9421 28.8605 20.0237 28.4602 20.0438 28.0118C20.0573 27.7766 20.0429 27.552 20.0496 27.3485C20.0525 27.1478 20.0553 26.9683 20.0573 26.8186V26.8128L20.0611 26.809C20.1561 26.7062 20.2752 26.6621 20.3529 26.6861C20.3904 26.6986 20.4153 26.7149 20.4297 26.7293C20.4413 26.7437 20.448 26.7514 20.447 26.7523Z" fill="#D3AF9F"/>
<path d="M20.0734 24.9187C20.0734 24.9206 20.0523 24.9225 20.011 24.9235C19.9707 24.9254 19.9083 24.9225 19.8325 24.936L19.8401 24.9254C19.8545 25.0992 19.8728 25.3689 19.867 25.7001C19.8622 26.0313 19.8344 26.423 19.7787 26.8397C19.7 27.432 19.5781 27.96 19.4734 28.3373C19.4216 28.5264 19.3736 28.6771 19.339 28.7808C19.3227 28.8288 19.3083 28.8681 19.2977 28.8998C19.2881 28.9267 19.2824 28.9411 19.2805 28.9401C19.2795 28.9401 19.2824 28.9248 19.2891 28.8969C19.2977 28.8643 19.3093 28.8249 19.3227 28.776C19.3525 28.6713 19.3957 28.5187 19.4437 28.3296C19.5406 27.9513 19.6577 27.4243 19.7365 26.8349C19.7921 26.4201 19.8219 26.0294 19.8305 25.7001C19.8401 25.3709 19.8277 25.1021 19.82 24.9273V24.9187L19.8286 24.9177C19.9093 24.9072 19.9697 24.9139 20.011 24.9149C20.0523 24.9158 20.0734 24.9168 20.0734 24.9187Z" fill="#D3AF9F"/>
<path d="M20.4026 25.4064C20.3978 25.4045 20.4065 25.3747 20.4333 25.3334C20.4602 25.2931 20.5092 25.2432 20.5745 25.2067C20.6407 25.1702 20.7089 25.1558 20.7569 25.1549C20.8058 25.1539 20.8346 25.1625 20.8346 25.1673C20.8346 25.1798 20.7156 25.1741 20.5946 25.2432C20.4727 25.3094 20.4141 25.4131 20.4026 25.4064Z" fill="#D3AF9F"/>
<path d="M20.6052 34.2086C20.6052 34.2086 21.5153 40.7539 22.8248 43.608C24.1342 46.462 25.4811 47.4499 26.7704 46.2384C28.0596 45.0268 27.8907 44.206 27.8907 44.206C27.8907 44.206 27.6785 42.3984 26.6177 41.4144C25.5569 40.4304 25.0097 39.0038 25.0097 39.0038C25.0097 39.0038 22.1297 31.8192 22.1009 31.8355L20.5352 32.4057L20.6052 34.2086Z" fill="#EFCDBB"/>
<path d="M18.8918 18.1189C18.8726 18.2197 18.5154 18.2303 18.1132 18.3445C17.7081 18.4511 17.3961 18.6239 17.3279 18.5471C17.2972 18.5097 17.3404 18.4117 17.4594 18.2985C17.5775 18.1852 17.7753 18.0642 18.0172 17.998C18.2591 17.9317 18.4914 17.9356 18.6508 17.9721C18.8111 18.0085 18.8994 18.0709 18.8918 18.1189Z" fill="#38302D"/>
<path d="M21.9822 18.3475C21.8987 18.4176 21.6232 18.2986 21.2795 18.2496C20.9377 18.191 20.6373 18.2208 20.5806 18.1286C20.5566 18.0845 20.6123 18.0106 20.7496 17.951C20.8849 17.8915 21.1029 17.8579 21.3381 17.8944C21.5733 17.9309 21.7691 18.0298 21.8785 18.1277C21.9899 18.2246 22.0187 18.312 21.9822 18.3475Z" fill="#38302D"/>
<path d="M20.3951 23.1042C20.3615 23.0543 20.0447 23.2981 19.6118 23.2002C19.1788 23.1033 18.9542 22.7394 18.9081 22.7701C18.8851 22.7807 18.9043 22.893 19.0099 23.038C19.1126 23.181 19.3142 23.3509 19.5791 23.4105C19.8441 23.469 20.0822 23.3989 20.2204 23.3097C20.3625 23.2204 20.4134 23.1244 20.3951 23.1042Z" fill="#38302D"/>
<path d="M21.9683 18.8915C21.9414 18.9366 21.6918 18.8243 21.3865 18.8915C21.0812 18.9549 20.8912 19.1603 20.8499 19.1306C20.8297 19.1171 20.8508 19.0432 20.9334 18.951C21.014 18.8589 21.1628 18.7552 21.3529 18.7139C21.543 18.6736 21.7187 18.7082 21.8262 18.76C21.9356 18.8109 21.9827 18.8704 21.9683 18.8915Z" fill="#38302D"/>
<path d="M18.9056 19.1548C18.872 19.1941 18.6426 19.0434 18.3315 19.0607C18.0195 19.0732 17.7987 19.246 17.7632 19.2095C17.7459 19.1932 17.7786 19.1231 17.8746 19.0453C17.9686 18.9676 18.1328 18.8889 18.3267 18.8793C18.5216 18.8697 18.6886 18.933 18.7866 19.0012C18.8864 19.0703 18.9229 19.1375 18.9056 19.1548Z" fill="#38302D"/>
<path d="M20.1475 21.5778C20.1456 21.5605 20.3376 21.5164 20.6496 21.4597C20.7293 21.4473 20.8032 21.4271 20.8138 21.3724C20.8291 21.3138 20.7917 21.2293 20.7485 21.1391C20.663 20.95 20.5738 20.7522 20.4806 20.5449C20.1072 19.6981 19.8326 19.0002 19.8672 18.9858C19.9018 18.9714 20.232 19.6453 20.6045 20.4921C20.6947 20.7013 20.7802 20.9001 20.8627 21.0901C20.8973 21.1794 20.9549 21.2793 20.9203 21.4002C20.9021 21.4607 20.8454 21.5068 20.7955 21.5241C20.7456 21.5423 20.7005 21.5452 20.6611 21.55C20.3462 21.5836 20.1494 21.5951 20.1475 21.5778Z" fill="#38302D"/>
<path d="M22.3138 19.7722C22.3387 19.9278 22.3243 20.0881 22.2639 20.2282C22.14 20.522 21.8223 20.7073 21.516 20.6506C21.2098 20.594 20.9688 20.2916 20.9314 19.9662C20.8651 19.3758 21.3989 18.9486 21.8482 19.1281C21.9375 19.1636 22.0248 19.2231 22.1016 19.3124C22.2139 19.4391 22.2869 19.6033 22.3138 19.7722Z" fill="#32292B"/>
<path d="M22.3139 19.7721C22.2688 19.823 22.2073 19.8633 22.1286 19.8882C21.9673 19.9401 21.7926 19.8326 21.7331 19.653C21.6745 19.4802 21.7264 19.2585 21.8483 19.1279C21.9376 19.1634 22.0249 19.223 22.1017 19.3122C22.2141 19.439 22.287 19.6031 22.3139 19.7721Z" fill="#F8FAFB"/>
<path d="M21.6032 20.2387C21.5974 20.1763 21.631 20.1091 21.6809 20.0698C21.8125 19.9661 22.1187 20.041 22.0179 20.2531C21.9363 20.4259 21.6233 20.4471 21.6032 20.2387Z" fill="#F8FAFB"/>
<path d="M21.2515 19.6378L21.2371 19.5015L21.3158 19.6195C21.3676 19.6973 21.4579 19.7386 21.551 19.728L21.6652 19.7136L21.5606 19.7837C21.4857 19.8336 21.4435 19.921 21.4521 20.0112L21.4665 20.1677L21.382 20.0333C21.3331 19.9546 21.2438 19.9104 21.1516 19.9191L21.0537 19.9277L21.1411 19.8711C21.2179 19.8202 21.2611 19.7299 21.2515 19.6378Z" fill="#FFBD00"/>
<path d="M19.1273 20.0977C19.1522 20.2532 19.1378 20.4135 19.0773 20.5537C18.9535 20.8474 18.6357 21.0327 18.3295 20.9761C18.0233 20.9204 17.7823 20.617 17.7449 20.2916C17.6786 19.7012 18.2124 19.274 18.6617 19.4535C18.7509 19.489 18.8383 19.5486 18.9151 19.6378C19.0265 19.7655 19.1004 19.9287 19.1273 20.0977Z" fill="#32292B"/>
<path d="M19.1274 20.0975C19.0823 20.1484 19.0208 20.1887 18.9421 20.2137C18.7808 20.2655 18.6061 20.158 18.5466 19.9785C18.488 19.8057 18.5399 19.5839 18.6618 19.4534C18.7511 19.4889 18.8384 19.5484 18.9152 19.6377C19.0266 19.7654 19.1005 19.9286 19.1274 20.0975Z" fill="#F8FAFB"/>
<path d="M18.4176 20.5652C18.4119 20.5028 18.4455 20.4356 18.4954 20.3962C18.6269 20.2925 18.9332 20.3674 18.8324 20.5796C18.7517 20.7514 18.4388 20.7735 18.4176 20.5652Z" fill="#F8FAFB"/>
<path d="M18.0659 19.9631L18.0515 19.8268L18.1302 19.9449C18.1821 20.0226 18.2723 20.0639 18.3654 20.0533L18.4797 20.0389L18.375 20.109C18.3002 20.1589 18.2579 20.2463 18.2666 20.3365L18.281 20.493L18.1965 20.3586C18.1475 20.2799 18.0582 20.2357 17.9661 20.2444L17.8682 20.253L17.9555 20.1964C18.0333 20.1465 18.0765 20.0562 18.0659 19.9631Z" fill="#FFBD00"/>
</g>
</g>
<defs>
<clipPath id="clip0_1146_49381">
<rect width="48" height="48" rx="24" fill="white"/>
</clipPath>
<clipPath id="clip1_1146_49381">
<rect width="48" height="48" fill="white"/>
</clipPath>
</defs>
</svg>
