<svg width="48" height="48" fill="none" xmlns="http://www.w3.org/2000/svg"><g clip-path="url(#a)"><rect width="48" height="48" rx="24" fill="#fff"/><g clip-path="url(#b)"><path opacity=".3" d="M47.278 18.842c-.912.12-2.026.455-2.52.536-2.604.425-5.214.801-7.828 1.127-4.249.529-8.518.942-12.783 1.026-6.347.124-12.573-1.159-18.841-1.83-1.491-.161-5.971-1.135-6.721 1.03-.973 2.805-.932 6.176-1.04 9.11-.115 3.128-.226 6.254-.26 9.379-.011 1.07.08 2.17.531 3.104C-1.62 43.496-.572 44 .598 44.163c2.118.296 4.272.202 6.41.129 2.891-.1 5.782-.337 8.67-.588 4.997-.435 10.08-1.17 15.083-1.009 3.513.113 6.968.723 10.413 1.335 1.396.248 2.766.632 4.18.775 1.145.116 2.897.228 3.837-.717.79-.794.823-2.65.924-3.688.217-2.235.244-4.487.23-6.724-.029-4.193-.085-8.553-.8-12.662-.242-1.394-.837-2.36-2.267-2.172Z" fill="#9B9A9A"/><path d="M-5.06 45.532h56.032" stroke="#263238" stroke-width=".096" stroke-miterlimit="10" stroke-linecap="round" stroke-linejoin="round"/><path d="M6.938 31.804s.596-6.976 1.153-7.515c.557-.54 29.859-.724 31.486 0 .655.29 1.75 6.436 1.948 7.284.199.847.08 4.547.08 4.547H6.58l.358-4.316Z" fill="#B5B5B5" stroke="#686868" stroke-width=".096" stroke-miterlimit="10" stroke-linecap="round" stroke-linejoin="round"/><path d="M13.496 24.293s-3.617.108-4.572.326c-.954.218-2.107.4-2.306.4-.198 0-1.55-.327-1.63-.073-.08.254.04.726.04.726s.08 1.85.198 2.904c.12 1.053.239 1.451.12 1.742-.12.29-.16.617-.239.98-.08.363-.119.58.2.58.317 0 1.51-.798 3.18-.616 1.67.181 3.14.145 4.81.036 1.67-.108 4.215-.762 4.453-.944.238-.181-.04-.435-.16-.508-.119-.073-1.51-3.81-1.988-4.61-.477-.798-.438-1.306-.636-1.343-.199-.036-.715.109-.875.145-.157.037-.595.255-.595.255Z" fill="#fff" stroke="#686868" stroke-width=".096" stroke-miterlimit="10" stroke-linecap="round" stroke-linejoin="round"/><path d="M11.082 27.454c.481.256.748.3.748.3Z" fill="#fff"/><path d="M11.082 27.454c.481.256.748.3.748.3" stroke="#686868" stroke-width=".096" stroke-miterlimit="10" stroke-linecap="round" stroke-linejoin="round"/><path d="M8.24 26.174s1.471.395 2.293.948Z" fill="#fff"/><path d="M8.24 26.174s1.471.395 2.293.948" stroke="#686868" stroke-width=".096" stroke-miterlimit="10" stroke-linecap="round" stroke-linejoin="round"/><path d="M11.614 27.2s.606.277 1.125.317Z" fill="#fff"/><path d="M11.614 27.2s.606.277 1.125.317" stroke="#686868" stroke-width=".096" stroke-miterlimit="10" stroke-linecap="round" stroke-linejoin="round"/><path d="m39.538 34.16-3.06 2.396-11.392 1.053-11.391-1.053-3.06-2.396-5.527.254s.128 3.34.596 6.534c.467 3.194 2.21 3.158 2.72 3.122.51-.037 16.662 0 16.662 0s16.152-.037 16.662 0c.51.036 2.253.073 2.72-3.122.468-3.194.596-6.534.596-6.534l-5.526-.254Z" fill="#D3D3D3" stroke="#686868" stroke-width=".096" stroke-miterlimit="10" stroke-linecap="round" stroke-linejoin="round"/><path d="M32.66 35.14s5.288-.473 5.765-.508c.477-.036 1.232.073 1.312.87.08.8.16 4.066-.16 4.284-.317.218-1.152.218-1.47.218-.318 0-27.352.145-27.749.145-.397 0-.596-4.283-.516-4.683.08-.4.477-.689.636-.654.16.037 6.798.327 6.798.327l3.498.108 11.886-.107Z" fill="#D3D3D3" stroke="#686868" stroke-width=".096" stroke-miterlimit="10" stroke-linecap="round" stroke-linejoin="round"/><path d="M44.071 34.78c-1.222-.084-2.445-.171-3.67-.195-.742-.014-2.337.205-2.693-.716-.238-.617.596-2.432 2.067-2.831 1.47-.4 4.215.181 4.97.799.755.617.993 1.597.755 2.178-.286.7-.837.807-1.429.766Z" fill="#D3D3D3" stroke="#686868" stroke-width=".096" stroke-miterlimit="10" stroke-linecap="round" stroke-linejoin="round"/><path d="M43.68 34.583c.418.037.728.06.801.049.146-.024.582-.217.582-.217" fill="#D3D3D3"/><path d="M43.68 34.583c.418.037.728.06.801.049.146-.024.582-.217.582-.217" stroke="#686868" stroke-width=".096" stroke-miterlimit="10" stroke-linecap="round" stroke-linejoin="round"/><path d="M39.83 32.005a1.195 1.195 0 0 0-.367.653c-.17.804.098 1.316.634 1.608.535.293 1.145.122 2.143.195.327.024.664.053.974.08" fill="#D3D3D3"/><path d="M39.83 32.005a1.195 1.195 0 0 0-.367.653c-.17.804.098 1.316.634 1.608.535.293 1.145.122 2.143.195.327.024.664.053.974.08" stroke="#686868" stroke-width=".096" stroke-miterlimit="10" stroke-linecap="round" stroke-linejoin="round"/><path d="M40.389 31.708s-.127.025-.288.108Z" fill="#D3D3D3"/><path d="M40.389 31.708s-.127.025-.288.108" stroke="#686868" stroke-width=".096" stroke-miterlimit="10" stroke-linecap="round" stroke-linejoin="round"/><path d="M5.444 34.99c1.222-.084 2.445-.172 3.67-.196.742-.014 2.337.206 2.693-.716.238-.617-.596-2.432-2.067-2.831-1.47-.4-4.215.181-4.97.799-.755.617-.993 1.597-.755 2.178.286.699.837.807 1.429.766Z" fill="#D3D3D3" stroke="#686868" stroke-width=".096" stroke-miterlimit="10" stroke-linecap="round" stroke-linejoin="round"/><path d="M5.835 34.791c-.418.037-.728.06-.801.05-.146-.025-.582-.218-.582-.218" fill="#D3D3D3"/><path d="M5.835 34.791c-.418.037-.728.06-.801.05-.146-.025-.582-.218-.582-.218" stroke="#686868" stroke-width=".096" stroke-miterlimit="10" stroke-linecap="round" stroke-linejoin="round"/><path d="M9.684 32.213c.157.143.304.352.368.654.17.803-.098 1.315-.634 1.608-.536.292-1.145.121-2.144.194-.326.024-.663.053-.973.081" fill="#D3D3D3"/><path d="M9.684 32.213c.157.143.304.352.368.654.17.803-.098 1.315-.634 1.608-.536.292-1.145.121-2.144.194-.326.024-.663.053-.973.081" stroke="#686868" stroke-width=".096" stroke-miterlimit="10" stroke-linecap="round" stroke-linejoin="round"/><path d="M9.126 31.917s.127.025.288.108Z" fill="#D3D3D3"/><path d="M9.126 31.917s.127.025.288.108" stroke="#686868" stroke-width=".096" stroke-miterlimit="10" stroke-linecap="round" stroke-linejoin="round"/><path d="M18.456 44.37c-.16.118-.288.849-.349 1.053-.115.393-.231.835-.15 1.246.159.807 1.347 1.297 2.078 1.003.373-.151.892-.524.875-.891-.083-1.828.034-2.41.034-2.41s-1.454-.77-2.488-.002Z" fill="#fff" stroke="#263238" stroke-width=".096" stroke-miterlimit="10" stroke-linecap="round" stroke-linejoin="round"/><path d="M17.957 46.668c.16.807 1.348 1.297 2.078 1.003.374-.151.892-.523.876-.891-.02-.45-.029-.825-.03-1.134-.04.32-.092.707-.136.885a1.169 1.169 0 0 1-.803.803c-.415.11-1.052.138-1.55-.25s-.283-1.662-.283-1.662c-.117.393-.234.836-.152 1.246ZM30.328 44.37c.16.118.288.849.349 1.053.115.393.231.835.15 1.246-.159.807-1.348 1.297-2.078 1.003-.373-.151-.892-.524-.876-.891.084-1.828-.033-2.41-.033-2.41s1.454-.77 2.488-.002Z" fill="#fff" stroke="#263238" stroke-width=".096" stroke-miterlimit="10" stroke-linecap="round" stroke-linejoin="round"/><path d="M30.827 46.668c-.159.807-1.348 1.297-2.078 1.003-.373-.151-.892-.523-.876-.891.02-.45.03-.825.03-1.134.04.32.092.707.137.885.083.332.387.692.802.803.416.11 1.052.138 1.55-.25.499-.388.284-1.662.284-1.662.117.393.233.836.151 1.246Z" fill="#fff" stroke="#263238" stroke-width=".096" stroke-miterlimit="10" stroke-linecap="round" stroke-linejoin="round"/><path d="M17.373 31.465s-1.037.645-1.244 1.29a2.36 2.36 0 0 0 .092 1.705c.207.46 2.258 9.194 2.258 9.194s-.3.046-.277.207c.023.162.254.507.254.507l.568.267c.39.184.839.192 1.236.023l.685-.29s.092-.577.115-.853c.023-.277-.138-.415-.138-.415l-.115-7.834h6.567l.53 7.903s-.276.139-.276.23c0 .093.069.807.069.807l.285.136c.684.328 1.419.506 2.067.11l.279-.084s.018-.576.018-.783c0-.207-.046-.507-.115-.6-.07-.091 1.636-9.17 1.636-9.493 0-.322-.161-.668-.184-.737-.023-.069-.922-.921-1.544-1.221-.622-.3-2.097-.622-2.189-.622-.092 0-1.152.484-3.133.622-1.982.138-4.931-.83-4.931-.83s-1.868.139-2.513.76Z" fill="#353535" stroke="#263238" stroke-width=".096" stroke-miterlimit="10" stroke-linecap="round" stroke-linejoin="round"/><path d="M19.871 32.964a2.349 2.349 0 0 0-.218-.277M20.806 35.267s.046-.46.046-.69c0-.149-.446-.847-.796-1.353M21.198 33.239s1.337 1.175 1.544 1.935M27.373 35.267s-.184-.299-.184-.898c0-.6 1.036-2.028 1.036-2.028M27.442 32.732s-.322.369-.391.737M26.705 33.216s-.046.783.277 1.313M20.439 32.847s.184.484.299 1.106M23.964 34.36c.308-.482.794-1.152 1.404-1.697M23.595 34.991s.052-.102.149-.269M25.29 34.071c.092-.054.18-.102.263-.14M23.756 35.221s.644-.563 1.256-.974" stroke="#999" stroke-width=".096" stroke-miterlimit="10" stroke-linecap="round" stroke-linejoin="round"/><path d="M22.861 21.028s-3.72 1.268-4.296 1.707c-.575.44-.761.778-.896 1.303-.136.524-1.117 5.345-1.083 5.953.033.609 1.234.913 1.59.948.355.033.947-.153.947-.153s1.556.642 2.3.964c.744.322 2.334.693 3.688.372 1.352-.321 2.638-.997 2.773-1.048.135-.05 2.098-.05 2.098-.05s.592-.982.626-2.216c.033-1.235.524-3.062.321-3.975-.202-.913-.575-1.37-1.387-2.03-.812-.659-2.757-1.454-2.757-1.454s-1.995-.71-3.924-.321Z" fill="#6D6D6D"/><path d="m20.156 25.527-.22 1.32.541-1.388M22.704 25.11c.03.14.065.265.108.366M22.574 22.398s-.066 1.47.085 2.466M22.084 22.872s-.119 1.285-.034 1.81M28.139 27.337l1.167-1.776M28.207 26.998l.389-1.2" stroke="#565656" stroke-width=".096" stroke-miterlimit="10" stroke-linecap="round" stroke-linejoin="round"/><path d="M30.607 28.808c.014-.504.104-1.107.192-1.707l-2.66.591-.254 3.383c.135-.05 2.097-.05 2.097-.05s.592-.982.625-2.216Z" fill="#FCDAC8" stroke="#D6AF9F" stroke-width=".096" stroke-miterlimit="10"/><path d="M17.316 25.71c-.328 1.627-.751 3.878-.728 4.281.033.609 1.234.913 1.59.948.355.033.947-.153.947-.153l.812-3.94-2.622-1.135ZM22.742 19.122s-.282-.4-.474.207.593 1.584.593 1.584l.09-1.494-.21-.297ZM24.74 25.399c1.038 0 1.88-1.34 1.88-2.99 0-1.652-.842-2.991-1.88-2.991-1.038 0-1.88 1.339-1.88 2.99 0 1.652.842 2.99 1.88 2.99Z" fill="#FCDAC8"/><path d="m22.941 23.362 1.43-.031-1.482-1.56c.001 0-.066.86.052 1.591Z" fill="#E0BFB1"/><path d="M22.949 19.419s-.192 1.835-.06 2.354c.134.518 1.066 1.643 1.273 1.791.208.148.519.503 1.052.415.532-.088 1.761-1.391 1.865-1.747.104-.356.696-3.213.696-3.213s.177-.34-.311-1.302c-.489-.962-2.384-1.54-2.872-1.377-.488.163-1.406 1.362-1.51 1.718-.103.354-.133 1.36-.133 1.36Z" fill="#FCDAC8" stroke="#EAC8B9" stroke-width=".096" stroke-miterlimit="10"/><path d="M23.837 15.896s-.532-.311-.814-.148a1.52 1.52 0 0 0-.444.4s.355-.09.4-.06c.043.03.191.089.191.089s-.607.237-.65.415c-.045.177-.075.325-.075.325l.696-.355s-.444.237-.562.77c-.118.533 0 1.036.044 1.199.044.163.09.503.09.503l.34.636-.014-.754s.355-.385.429-.503c.074-.118.207-.445.207-.445l-.014.666s.267-.295.414-.576c.148-.282.385-1.11.385-1.11l.267.355.09-.311s.414.68.548.8c.133.118.74.399.74.399l-.06-.607s.814.83.918.932c.104.104.622.533.622.533l.044.548s.4-.192.489-.267c.09-.073.163-.34.163-.34l.134.548s.31-.548.414-1.007c.104-.46.015-.904-.148-1.273-.163-.37-.473-.77-.473-.77l.311.074s-.03-.222-.251-.415c-.222-.192-1.836-1.08-1.984-1.095l-.147-.015.562-.06s-.622-.25-.947-.25c-.326 0-1.036.34-1.2.518-.163.177-.28.325-.28.325l-.015-.489c-.005 0-.449.34-.42.815Z" fill="#332E2A" stroke="#332E2A" stroke-width=".096" stroke-miterlimit="10" stroke-linecap="round" stroke-linejoin="round"/><path d="M27.567 20.13s.237-.015.267.117c.03.134.014.563-.163.814-.178.252-.46.593-.46.593l.356-1.525Z" fill="#FCDAC8"/><path d="M23.796 19.568s1.26-.1 1.264-.194c.003-.095-.09-.34-.09-.34s-.266.164-.441.202c-.175.04-.725.121-.808.184-.082.062-.12.184-.12.184l.195-.036ZM27.054 19.76s-1.207.379-1.245.291c-.038-.087-.043-.349-.043-.349s.308.053.484.024c.176-.029.718-.158.817-.13.1.026.18.125.18.125l-.193.04Z" fill="#332E2A"/><path d="M24.784 21.432s0 .178.118.237c.118.06.296.148.43.104.133-.044.266-.237.266-.237M24.178 22.483s.518-.192.83-.192c.31 0 .502.09.502.09M23.809 19.936s.295.548.873.208M25.495 19.108s-.044.325-.163.444" stroke="#332E2A" stroke-width=".096" stroke-miterlimit="10" stroke-linecap="round" stroke-linejoin="round"/><path d="M25.688 20.085s0 .237.074.459c.074.222.296 1.466.296 1.466s-.666 1.021-.666 1.494c0 .474.207 1.066.207 1.066l1.614 5.596s.65 1.229 1.05 1.466c.4.237 1.11.355 1.348.118.237-.237.533-.74.592-1.332.06-.593-.34-1.214-.754-1.718-.415-.503-1.866-3.316-2.088-3.775a11.93 11.93 0 0 1-.399-.917c-.014-.045.918-1.495 1.007-1.688.09-.192.044-.948-.06-1.11-.103-.163-.532-.977-.65-1.08l-.118-.104s-.37-.326-.489-.296c-.118.03-.163.207-.163.207s-.311-.133-.4-.074c-.089.06-.089.267-.089.267s-.194-.312-.312-.045Z" fill="#FCDAC8" stroke="#D6AF9F" stroke-width=".096" stroke-miterlimit="10"/><path d="M25.999 20.13s.34 1.095.415 1.376c.074.281.03.429.03.429" fill="#FCDAC8"/><path d="M25.999 20.13s.34 1.095.415 1.376c.074.281.03.429.03.429" stroke="#D6AF9F" stroke-width=".096" stroke-miterlimit="10"/><path d="M26.488 19.936s.533 1.347.563 1.555c.03.207.03.34.03.34" fill="#FCDAC8"/><path d="M26.488 19.936s.533 1.347.563 1.555c.03.207.03.34.03.34" stroke="#D6AF9F" stroke-width=".096" stroke-miterlimit="10"/><path d="M26.96 19.907s.37.904.504 1.259c.133.355.192.65.178.696" fill="#FCDAC8"/><path d="M26.96 19.907s.37.904.504 1.259c.133.355.192.65.178.696" stroke="#D6AF9F" stroke-width=".096" stroke-miterlimit="10"/><path d="M22.838 28.12c.376-.498-.167-.905-.019-1.395M23.584 28.12c.175-.366.175-.76.11-1.152-.055-.338-.195-.703-.13-1.05M24.331 28.12c.385-.51-.17-.895-.02-1.395" stroke="#565656" stroke-width=".096" stroke-miterlimit="10" stroke-linecap="round" stroke-linejoin="round"/><path d="M19.648 29.637s.863-.88 1.049-.981c.186-.102 1.217.102 1.319.135.102.034.473.626.473.626s-.033.153-.084.254c-.051.101-.018.237-.034.372-.017.136-.017.338-.05.457-.034.118-.034.338-.103.389-.067.05-.879.152-.879.152s-.49.271-.812.373c-.322.102-1.32-.135-1.387-.153-.067-.017-.88.254-1.523.406-.642.153-1.234-.169-1.387-.592-.153-.423 0-1.42.406-1.776.406-.355 1.494-.376 2.013-.067.628.371 1 .405 1 .405Z" fill="#FCDAC8"/><path d="m21.205 29.197 1.201.474M21.238 29.941l1.134.102M21.238 30.618l1.083-.119M19.648 29.637l-.625.406" stroke="#D6AF9F" stroke-width=".096" stroke-miterlimit="10" stroke-linecap="round" stroke-linejoin="round"/><path opacity=".72" d="M30.37 16.392c-.051 0-.103-.002-.153-.007-.18-.016-.315-.064-.41-.146a.402.402 0 0 1-.13-.231c-.093-.002-.187-.007-.282-.011-.208-.013-.424-.036-.575-.175a.474.474 0 0 1-.149-.33c-.164-.051-.322-.154-.392-.327a.523.523 0 0 1 .028-.429 1.108 1.108 0 0 1-.46-.93.195.195 0 0 1-.094-.093c-.033-.082.01-.177.12-.268.022-.02.046-.038.07-.056.131-.288.39-.513.695-.602.248-.07.51-.05.762-.032l.013.002a4.57 4.57 0 0 1 .558-.07c.105-.024.213-.031.32-.023.104-.05.2-.123.268-.225.034-.052.06-.109.087-.168.027-.06.055-.121.093-.178.155-.232.455-.365.894-.393.521-.034.942.055 1.254.266.123.085.223.187.294.299.162.005.32.043.46.083.21.061.699.246.697.647 0 .133-.06.255-.112.362l-.174.358a.622.622 0 0 1 .01.138.91.91 0 0 1 .098.047c.14.08.288.232.275.416-.008.12-.08.236-.22.352a1.92 1.92 0 0 1-.584.321 2.511 2.511 0 0 1-.233.367c-.17.223-.455.51-.842.615a1.02 1.02 0 0 1-.732-.072 2.45 2.45 0 0 1-.216.13c-.442.241-.857.363-1.238.363Zm-.618-.384a.332.332 0 0 0 .104.176c.082.072.203.114.367.128.406.037.86-.08 1.35-.348a3.18 3.18 0 0 0 .18-.106.776.776 0 0 1-.18-.16.282.282 0 0 1-.061-.112c-.109.017-.218.03-.329.039-.166.077-.349.134-.536.166a1.23 1.23 0 0 1-.278.133c-.2.064-.406.084-.617.084Zm.13-.256a.25.25 0 0 0-.11.1.211.211 0 0 0-.026.083c.207 0 .407-.02.6-.082.034-.011.069-.024.104-.04a1.582 1.582 0 0 1-.568-.061Zm-1.136-.241c.008.084.04.18.124.257.133.123.334.144.53.155.092.006.183.01.274.012a.274.274 0 0 1 .035-.117.303.303 0 0 1 .084-.096 2.076 2.076 0 0 1-.095-.04l-.003.01a.168.168 0 0 1-.114.113.247.247 0 0 1-.22-.036.473.473 0 0 1-.151-.269 1.032 1.032 0 0 1-.464.01Zm3.147.34c.19.088.421.109.645.048.367-.098.639-.374.803-.588.07-.091.133-.188.19-.289-.096.03-.195.056-.295.078a1.157 1.157 0 0 1-.484.239 3.579 3.579 0 0 1-.48.095 1.191 1.191 0 0 1-.088.136 1.341 1.341 0 0 1-.291.281Zm-.308-.277a.223.223 0 0 0 .045.078c.053.064.117.119.191.162.111-.078.22-.172.305-.286a1.55 1.55 0 0 0 .055-.082c-.052.006-.105.011-.157.015-.143.05-.29.086-.44.113Zm-2.305-.096c.023.088.055.18.125.232.04.031.102.04.153.024a.097.097 0 0 0 .072-.088 1.274 1.274 0 0 1-.212-.145c-.021-.017-.04-.035-.06-.054-.026.01-.052.022-.078.031Zm.737.23c.198.04.406.04.61.008.029-.019.056-.04.083-.062h-.026c-.181.01-.368.019-.549.036-.037.005-.078.01-.118.018Zm.808-.059a.717.717 0 0 1-.039.036c.05-.013.099-.026.148-.043l-.11.007Zm-1.12-.048c.057.028.115.052.176.071a.87.87 0 0 1 .247-.054c.182-.017.371-.027.552-.035l.113-.006a.845.845 0 0 0 .086-.108 8.58 8.58 0 0 0-1.054.027c-.044.005-.088.013-.106.04-.012.017-.014.039-.015.065Zm1.259-.13a.823.823 0 0 1-.07.101c.09-.005.18-.01.27-.018.05-.023.1-.049.148-.076a17.56 17.56 0 0 1-.318-.006h-.03Zm-1.538-.061.038.034c.054.045.11.084.17.119a.15.15 0 0 1 .024-.068c.036-.051.097-.065.16-.072.365-.038.74-.033 1.104-.027a.889.889 0 0 0 .044-.101.98.98 0 0 1-.24.044 3.86 3.86 0 0 1-1.123-.064.98.98 0 0 1-.177.135Zm2.024.068a.088.088 0 0 1-.012.008l-.077.047c.051-.006.1-.014.15-.021a.199.199 0 0 1 .012-.034h-.073Zm.163 0a.162.162 0 0 0-.016.02 2.12 2.12 0 0 0 .107-.023l-.091.002Zm-2.869-.042a.958.958 0 0 0 .447-.007 4.692 4.692 0 0 1-.05-.255l-.014-.026a3.828 3.828 0 0 1-.24-.091.708.708 0 0 0-.143.379Zm-.377-.657a.447.447 0 0 0-.02.358c.058.143.187.23.326.278a.783.783 0 0 1 .146-.39c-.035-.014-.072-.032-.107-.048a2.372 2.372 0 0 1-.345-.198Zm.877.543.019.084.04-.015a1.022 1.022 0 0 1-.059-.07Zm1.758.077c.141.003.284.006.427.006a2.87 2.87 0 0 0 .411-.332 1.522 1.522 0 0 1-.56-.224.508.508 0 0 1-.23.407.725.725 0 0 1-.048.143Zm.93-.313c-.117.116-.24.223-.374.32h.025a.47.47 0 0 1 .164-.085c.18-.058.369-.098.558-.133.02-.05.04-.104.058-.16a.845.845 0 0 1-.432.058Zm.34.182a4.069 4.069 0 0 0-.537.134 6.15 6.15 0 0 0 .273-.014c.09-.034.179-.073.263-.12Zm-3.036-.087c.039.063.085.122.135.176a.834.834 0 0 0 .143-.1 3.602 3.602 0 0 1-.278-.076Zm3.092.139c-.006.011-.01.023-.017.034.143-.02.283-.048.422-.086.132-.037.244-.08.333-.135-.134.025-.27.048-.404.069l-.199.031-.044.031c-.03.02-.06.038-.091.056Zm-2.665-.107c.346.066.702.086 1.055.054a.803.803 0 0 0 .269-.06 1.5 1.5 0 0 0 .008-.354l-.005-.12a.86.86 0 0 1-.213.141c-.248.114-.52.092-.771-.012a.74.74 0 0 1-.09-.018l-.029.051a1.811 1.811 0 0 1-.224.318Zm-.458-.118c.123.04.248.074.373.1.108-.109.189-.235.247-.336.007-.012.014-.023.02-.036a.849.849 0 0 1-.232-.123c-.152.027-.3.064-.436.128.006.093.015.183.028.267Zm3.245-.092a3.685 3.685 0 0 1-.062.17l.045-.008a.899.899 0 0 0 .153-.143c-.045-.006-.091-.011-.136-.02Zm-1.387-.342v.026c0 .054.002.109.005.162.006.1.01.203 0 .306.102-.09.14-.23.141-.36a.763.763 0 0 1-.134-.148l-.012.014Zm1.61.37a.811.811 0 0 1-.098.111l.075-.012c.188-.03.372-.059.55-.097l.014-.015a1.51 1.51 0 0 1-.269.024 3.21 3.21 0 0 1-.273-.011Zm-3.735-.034c.047.02.095.039.143.056a1.406 1.406 0 0 1-.053-.137.597.597 0 0 0-.09.081Zm3.06.021a.743.743 0 0 0 .304-.043 1.896 1.896 0 0 1-.213-.055l-.09.098Zm-.716-.258c.129.102.283.162.39.196.07.022.149.041.232.053.037-.037.073-.075.107-.114a1.383 1.383 0 0 1-.557-.33 1.07 1.07 0 0 1-.183-.257 1.043 1.043 0 0 1-.058.13c.024.07.044.141.058.215.007.035.01.07.011.107Zm2.05.229-.011.017a3.24 3.24 0 0 0 .259-.075 2.56 2.56 0 0 0 .226-.652.782.782 0 0 1-.103.059c.033.154.02.31-.073.443a.566.566 0 0 1-.298.207Zm-.616-.028c.076.005.152.008.23.008.13 0 .244-.014.339-.042a.57.57 0 0 0 .013-.512 2.13 2.13 0 0 1-.4-.051 4.233 4.233 0 0 0-.072.13 3.14 3.14 0 0 1-.068.123.44.44 0 0 1-.042.344Zm-4.315-.246a2.324 2.324 0 0 0 .465.252.761.761 0 0 1 .134-.12l.006-.004a1.317 1.317 0 0 1-.037-.479 1.039 1.039 0 0 0-.377.15.66.66 0 0 0-.19.2Zm4.106.223.129.016a.401.401 0 0 0 .066-.236v-.007a.981.981 0 0 1-.195.227Zm-3.412-.065c.004.018.01.035.017.052a1.183 1.183 0 0 1-.005-.058.05.05 0 0 0-.012.006Zm3.047-.013.097.026c.054.013.108.025.163.034.055-.16.11-.321.161-.483a.85.85 0 0 0-.055-.051 6.604 6.604 0 0 1-.366.474Zm1.752-.651c-.04.237-.113.468-.215.685.175-.069.34-.159.49-.283.124-.103.187-.2.194-.3.01-.15-.117-.279-.239-.348a.678.678 0 0 0-.07-.035.561.561 0 0 1-.16.281Zm-.517.204c.063.16.066.332.008.476a.463.463 0 0 0 .184-.15.471.471 0 0 0 .064-.374.963.963 0 0 1-.256.048Zm-3.148.444a.818.818 0 0 0 .519-.049.804.804 0 0 0 .243-.176c.002-.044.005-.086.012-.125a.452.452 0 0 1-.024-.088c-.076.025-.152.05-.228.071a.834.834 0 0 1-.457.354c-.023.004-.044.01-.065.013Zm2.389-.356a14.62 14.62 0 0 1-.114.34c.068-.066.122-.145.174-.233a.443.443 0 0 0-.06-.107Zm-1.278-.221c.044.086.1.165.167.234.136.14.32.246.558.323.137-.157.263-.324.384-.496a.799.799 0 0 0-.067-.043 1.204 1.204 0 0 1-.322-.137 1.504 1.504 0 0 0-.346-.059 5.225 5.225 0 0 1-.374.178Zm-2.294.07c-.018.15-.007.303.03.45l.026-.015a2.676 2.676 0 0 1 .014-.446l-.07.011Zm.977.44c.084.01.169.006.25-.017a.717.717 0 0 0 .362-.252c-.19.05-.385.09-.58.118l-.031.005c-.02.04-.04.08-.062.119.02.008.04.018.06.028Zm-.833-.458a2.68 2.68 0 0 0-.017.418c.116-.051.24-.085.366-.11a1.064 1.064 0 0 1-.233-.32l-.116.012Zm.618.34c.03.02.06.038.09.055l.037-.073-.042.006-.085.012Zm1.315-.085c.023.037.05.071.08.102a1.009 1.009 0 0 0-.038-.163 1.2 1.2 0 0 1-.042.061Zm-3.204-.75a1.04 1.04 0 0 0 .423.835.73.73 0 0 1 .208-.218c.128-.087.275-.136.427-.165.011-.067.027-.132.05-.195a5.01 5.01 0 0 1-1.108-.258Zm1.518.475c.08.11.178.212.286.297l.163-.022.09-.011.07-.144.025-.05a.695.695 0 0 1-.264-.11 3.486 3.486 0 0 1-.37.04Zm.71.077-.036.075-.049.1c.217-.031.431-.078.641-.137.09-.137.167-.313.232-.53l.029-.097c.047-.16.095-.324.16-.474l-.03-.052a2.19 2.19 0 0 0-.167.103l-.02.025c.002.136-.032.279-.08.399-.122.301-.375.588-.68.588Zm2.498.028c.03.035.056.072.078.114l.039-.072c.019-.034.037-.07.057-.104a1.4 1.4 0 0 1-.089-.003l-.063-.004-.022.07Zm-1.567.082.007.015a.869.869 0 0 0 .05-.081l-.022-.059a.638.638 0 0 0-.035.125Zm-.084-.544a2.196 2.196 0 0 1-.186.441 4.54 4.54 0 0 0 .16-.052.614.614 0 0 1 .043-.263.4.4 0 0 1-.017-.126Zm1.567.38.026.023.006-.019-.032-.003Zm.747-.057a.623.623 0 0 1 .036.064c.062-.002.121-.008.18-.02a.6.6 0 0 0 .092-.028 1.027 1.027 0 0 0-.064-.159.79.79 0 0 1-.244.143Zm-.184.051c.047.006.092.01.137.012l-.025-.039c-.035.01-.073.02-.112.027Zm-2.072-.121a.53.53 0 0 0-.01.11l.02-.007.017-.031a2.102 2.102 0 0 1-.027-.072Zm-.725-.164c-.05.088-.098.18-.143.27.255-.021.469-.275.576-.54a1.06 1.06 0 0 0 .071-.28 2.205 2.205 0 0 1-.342.34l-.015.03a.65.65 0 0 1-.147.18Zm-.417.205a.52.52 0 0 0 .183.063h.01c.03-.057.058-.115.089-.172a.985.985 0 0 1-.282.11Zm2.79-.01c.056.018.11.031.163.043A1.28 1.28 0 0 1 33 14.09l.011-.014a1.394 1.394 0 0 0-.212-.124l-.025.037-.075.25Zm.37-.117-.015.016c-.039.042-.072.09-.104.14.079-.007.16-.018.238-.038a.864.864 0 0 0-.12-.118Zm-3.968-.02a1.08 1.08 0 0 0-.046.173 1.77 1.77 0 0 1 .068-.01c.008-.052.019-.106.03-.159a.827.827 0 0 1-.052-.005Zm2.125.11a.332.332 0 0 0-.053.057l.04-.016.013-.04Zm2.38-.13c.03.06.057.121.076.185a.64.64 0 0 0 .142-.095c.008-.049.015-.098.02-.148a.16.16 0 0 1-.053.016.093.093 0 0 1-.087-.043l-.011-.015.022-.067a.598.598 0 0 1-.11.167Zm-4.38.034c-.01.047-.02.094-.028.142l.075-.007a1.627 1.627 0 0 1-.047-.135Zm3.183.115c.033.009.067.016.1.022l.003-.004c-.161-.07-.309-.176-.384-.342a.505.505 0 0 1-.034-.104.89.89 0 0 1-.157.154.66.66 0 0 0 .152.136c.104.031.207.075.304.127l.016.011Zm-3.092-.113c.02.04.043.081.071.124l.007-.001c.107-.008.216-.015.323-.03l-.063-.046-.062-.047a2.637 2.637 0 0 1-.276 0Zm3.307.097c.002 0 .004 0 .006.002l.006-.02-.012.018Zm.498-.144c.053.045.1.094.14.146a.705.705 0 0 0 .252-.147 1.256 1.256 0 0 0-.098-.144c-.003-.005-.008-.012-.014-.018a.878.878 0 0 0-.28.163Zm-1.818.131.004.01c.082-.034.162-.07.242-.11a.686.686 0 0 0-.235.053 1.727 1.727 0 0 1-.011.047Zm-.216-.114c.012.04.025.08.04.119a.444.444 0 0 1 .052-.052l.02-.017a1.078 1.078 0 0 1-.039-.182.814.814 0 0 0-.073.132Zm-1.383.023c.038.029.077.058.115.084.082-.017.16-.039.236-.07a.792.792 0 0 0 .214-.128 9.86 9.86 0 0 1 .026-.043 1.64 1.64 0 0 1-.59.157Zm2.455-.35a.46.46 0 0 0 .035.116c.068.15.207.246.36.31l.153-.229c.004-.014.009-.027.012-.042a2.365 2.365 0 0 0-.56-.156Zm1.762.197-.01.117a.45.45 0 0 0 .073-.174.106.106 0 0 1-.02-.007l-.001.004a.395.395 0 0 1-.042.06Zm-2.584-.176.005.07c.003.075-.002.148-.012.22a.868.868 0 0 1 .254-.043c.037-.002.075-.002.112 0 .047-.026.094-.056.14-.088a.592.592 0 0 1-.07-.167l-.01-.04a2.275 2.275 0 0 0-.419.048Zm-.11.091c.004.064.014.129.03.192.01-.068.015-.138.012-.21l-.001-.023a.54.54 0 0 0-.04.041Zm.595.165.103.015a.591.591 0 0 1-.047-.052 1.416 1.416 0 0 1-.056.037Zm-2.54.005c.073.004.14.006.208.006a.594.594 0 0 0-.214-.088h-.008c0 .003-.003.007-.004.01l.014.062.005.01Zm.011-.153a.81.81 0 0 1 .32.155c.31-.018.562-.091.763-.223l.004-.002c.023-.033.046-.066.071-.098a1.46 1.46 0 0 0 .042-.384c.003-.115.006-.232.03-.344a.813.813 0 0 0-.245-.008 2.09 2.09 0 0 0-.26.113c-.173.09-.319.199-.434.32a1.435 1.435 0 0 0-.29.471Zm-.165.141.042.004.015-.05-.005-.017-.013.008a.14.14 0 0 0-.039.055Zm3.71-.14c.084.041.159.086.225.134a.908.908 0 0 1 .287-.175c-.082-.084-.216-.182-.346-.128-.073.031-.124.107-.166.17Zm-4.918-.131.02.006c.359.128.733.214 1.111.257l.002-.004a.227.227 0 0 1 .07-.103.153.153 0 0 1 .042-.022.603.603 0 0 1-.002-.191 1.145 1.145 0 0 1 .056-.387.943.943 0 0 1 .382-.475l-.18-.012c-.548.105-1.035.31-1.423.605l-.03.078a1.05 1.05 0 0 0-.048.248Zm5.558.125c.032.04.061.085.09.13a.584.584 0 0 0 .092-.157.897.897 0 0 0-.182.027Zm.297.081.01.001c.018 0 .042-.017.065-.04l.003-.059a.352.352 0 0 0-.044-.006l-.035.104Zm-2.622-.13a.166.166 0 0 0-.077.075.146.146 0 0 0-.012.054.774.774 0 0 1 .089-.122v-.007Zm.677-.102.005.02a.51.51 0 0 0 .059.142.844.844 0 0 0 .149-.15 2.598 2.598 0 0 0-.213-.012Zm-.664-.32a4.67 4.67 0 0 0-.133.406l-.012.04a.27.27 0 0 1 .135-.105 1.024 1.024 0 0 1 .047-.249 1.589 1.589 0 0 0-.037-.093Zm.998.273a2.446 2.446 0 0 1 .576.158l.014-.05c.011-.042.021-.081.008-.112-.02-.043-.083-.057-.142-.065l-.237-.031-.022.008-.004-.011a2.744 2.744 0 0 0-.156-.013.543.543 0 0 1-.037.116Zm.917-.053c.143 0 .271.111.345.191.084-.024.17-.038.257-.04a.82.82 0 0 0-.12-.62 1.833 1.833 0 0 0-.322-.18l-.027-.005a.947.947 0 0 1-.232.285c-.139.12-.301.2-.457.267l.104.015c.079.01.164.032.199.107a.185.185 0 0 1 .008.116.359.359 0 0 1 .139-.113.243.243 0 0 1 .106-.023Zm-3.844.074c0 .036.002.074.006.111.066-.161.16-.314.287-.45.121-.128.273-.24.453-.334a1.213 1.213 0 0 0-.433.189.758.758 0 0 0-.313.484Zm4.68-.16c0 .015.002.028.003.042.006.07.008.14.007.21l.047-.097a.696.696 0 0 0-.057-.154Zm-.086.243.023.003v-.07l-.023.067Zm-.128-.514c.066.161.09.34.054.505l.083-.254a.822.822 0 0 0-.025-.132 1.355 1.355 0 0 0-.112-.119Zm-2.461.37-.01.062c0 .008-.002.015-.003.023l.024-.006h.002a.63.63 0 0 0-.013-.079Zm-3.352-.123c-.045.043-.093.105-.07.16a.096.096 0 0 0 .031.04.938.938 0 0 1 .039-.2Zm3.859.069c-.065.012-.129.03-.192.052a.764.764 0 0 0-.086.039c.092-.013.184-.02.276-.022 0-.023 0-.046.002-.07Zm.072.068c.085 0 .17.006.256.015a.836.836 0 0 1 .005-.11c-.086 0-.174.004-.26.015a.54.54 0 0 0-.001.08Zm-.542-.153c.017.05.03.099.04.15l.019-.027a.412.412 0 0 0 .056-.35 1.011 1.011 0 0 0-.115.227Zm2.664-.058a.8.8 0 0 1 .078.158l.137-.282c.05-.101.105-.214.105-.33.002-.353-.451-.52-.645-.577a1.945 1.945 0 0 0-.396-.078.691.691 0 0 1 .058.46c.044.027.087.055.127.086l.153.01c.152.011.36.043.425.21.035.094.01.192-.024.293l-.018.05Zm-3.349-.436a1.769 1.769 0 0 0-.028.325 2.44 2.44 0 0 1-.016.265 1.89 1.89 0 0 1 .28-.25.395.395 0 0 0-.147-.291.383.383 0 0 0-.089-.05Zm.852.194a.527.527 0 0 1 .002.371c.115-.047.237-.103.345-.176a.817.817 0 0 1 .166-.254.952.952 0 0 0-.197-.128c-.06.014-.122.03-.184.05a1.099 1.099 0 0 0-.131.137Zm.314.303a.215.215 0 0 1-.013.008.06.06 0 0 1 .012-.002l.001-.006Zm.447-.012c.055.003.112.008.167.014a1.89 1.89 0 0 0 .561-.303.889.889 0 0 0 .202-.244c-.24-.04-.529-.063-.792.025-.021.048-.04.096-.06.146a2.844 2.844 0 0 0-.09.248c.007.03.01.059.012.09v.024Zm-.354-.046-.017.052c.086-.01.171-.013.257-.011.006-.037.015-.073.026-.109a.407.407 0 0 0-.061-.124.91.91 0 0 1-.205.192Zm-2.113-.608a.896.896 0 0 0-.476.582.897.897 0 0 1 .243-.262c.178-.128.41-.209.709-.245l.046-.005c.104-.037.21-.065.319-.086l.004-.008.002-.004a.96.96 0 0 0-.204-.065l-.109-.001c-.18.074-.38.093-.534.094Zm1.464.479c.013.026.026.053.037.08a1.06 1.06 0 0 1 .123-.21.48.48 0 0 0-.02-.04 1.077 1.077 0 0 0-.067.029c-.026.045-.05.092-.073.14Zm2.679.038.009.012c.028-.088.051-.172.025-.243-.05-.127-.23-.154-.361-.162l-.059-.004a.52.52 0 0 1 .022.023.62.62 0 0 1 .299.23c.029.045.05.094.065.144Zm-3.27-.42a.448.448 0 0 1 .283.355c.039-.046.077-.094.117-.14a1.15 1.15 0 0 0-.3-.275l-.08.013c-.008.015-.014.031-.02.048Zm-1.571-.133c-.132 0-.261.012-.386.047a1.033 1.033 0 0 0-.577.431c.34-.233.711-.383 1.075-.475a2.104 2.104 0 0 0-.112-.003Zm2.97.392a.718.718 0 0 0-.066.079.737.737 0 0 0 .066-.079Zm.09-.005c.02.025.037.052.051.08.02-.056.04-.111.062-.166l.033-.08a.74.74 0 0 0-.096.053.499.499 0 0 1-.05.113Zm-.944.043.002.005.005-.008-.008.003Zm-.052-.078.011.017c.036-.018.072-.036.109-.052l.05-.076a.384.384 0 0 0-.031-.036 2.893 2.893 0 0 0-.14.147Zm.307-.033c0 .001 0 .002.002.003a.027.027 0 0 0 .005-.006.044.044 0 0 0-.007.003Zm-.589-.257c.089.065.168.143.238.23.042-.047.085-.093.131-.137a.825.825 0 0 0-.16-.099 1.9 1.9 0 0 0-.209.006Zm1.049.13c.05.03.097.062.139.1a.992.992 0 0 1 .079-.063.629.629 0 0 0 .016-.074 2.745 2.745 0 0 0-.234.036Zm-.504.051.007.012a2.49 2.49 0 0 1 .166-.057.96.96 0 0 1 .063-.047l-.008-.002-.104-.03a.839.839 0 0 0-.124.124Zm-.07-.087.025.027a.958.958 0 0 1 .08-.085l-.027-.006-.077.064Zm.884-.01-.004.028c.018-.01.036-.018.055-.027l.02-.008-.071.006Zm-.614-.081.05.014c.05.015.101.036.152.059a3.344 3.344 0 0 1 .342-.058.483.483 0 0 0-.022-.158.993.993 0 0 0-.522.143Zm-1.055.043.03.006c0-.005.002-.01.003-.013l-.033.007Zm.684-.041a.33.33 0 0 1 .05.04l.033-.029a1.462 1.462 0 0 0-.083-.011Zm.97-.144.005.023c.01.04.014.083.014.125.044-.005.088-.008.133-.011.02-.041.04-.082.061-.12a2.155 2.155 0 0 0-.214-.018Zm1.09.145h.009l-.008-.004-.001.004Zm-.104-.006c.009 0 .019 0 .028.002a.799.799 0 0 0 .014-.037 1.71 1.71 0 0 0-.672-.174l-.023.033c.077.014.15.03.216.046.137.032.287.073.437.13Zm-.695-.11-.055.104c.16-.009.323-.009.484-.005a3.382 3.382 0 0 0-.43-.099Zm-.998.084c.005 0 .01.002.015.004l.002-.002a.958.958 0 0 1 .11-.07.866.866 0 0 0-.08.04l-.047.028Zm-.41-.052c.104.003.206.014.31.033.035-.026.072-.05.111-.071.174-.096.368-.14.542-.159a.306.306 0 0 0-.075-.057.636.636 0 0 0-.29-.059c-.3-.013-.671.022-.888.227.099.018.198.044.29.086Zm-.36-.008a.684.684 0 0 1 .037.021l.105-.01a1.524 1.524 0 0 0-.132-.024c-.002.005-.006.008-.01.013Zm1.884-.193c.247.023.46.08.638.171a.563.563 0 0 0 .011-.126.632.632 0 0 0-.087-.3.752.752 0 0 0-.338.075.726.726 0 0 0-.224.18Zm-2.162.086a3 3 0 0 1 .258.016c.228-.258.648-.301.98-.287.11.005.224.014.322.068.05.028.093.066.126.114a2.945 2.945 0 0 1 .387-.002.805.805 0 0 1 .28-.24.789.789 0 0 1 .325-.081.969.969 0 0 0-.249-.238c-.297-.202-.703-.287-1.208-.255-.415.027-.697.15-.838.361-.035.052-.06.108-.088.167-.027.06-.055.121-.093.178a.666.666 0 0 1-.202.199Zm1.744-.02c.09.002.18.01.266.023l.015-.024a2.99 2.99 0 0 0-.281 0Z" fill="#5E5E5E"/><path opacity=".56" d="M19.286 16.148c.052 0 .104.002.154.007.18.016.315.064.409.146.064.056.115.14.13.231.093.002.187.007.282.012.209.012.425.035.576.174.09.084.142.2.148.33.164.052.323.154.392.327a.523.523 0 0 1-.028.43 1.109 1.109 0 0 1 .46.93c.041.02.076.05.094.093.034.081-.009.176-.119.267-.023.02-.047.038-.07.056-.132.288-.39.514-.695.602-.249.071-.51.05-.762.032l-.014-.001c-.192.036-.38.057-.558.069a1.054 1.054 0 0 1-.32.023.652.652 0 0 0-.267.226c-.035.051-.06.108-.087.168a1.17 1.17 0 0 1-.094.177c-.154.232-.455.365-.893.394-.522.033-.943-.056-1.254-.267a1.036 1.036 0 0 1-.295-.299 1.863 1.863 0 0 1-.459-.083c-.21-.06-.7-.246-.698-.647.001-.133.06-.255.113-.362l.174-.357a.616.616 0 0 1-.011-.139.902.902 0 0 1-.097-.047c-.141-.08-.288-.232-.276-.416.008-.12.08-.236.22-.352a1.92 1.92 0 0 1 .584-.321c.067-.129.145-.252.233-.367.171-.223.455-.51.842-.614.255-.07.521-.04.733.07a2.48 2.48 0 0 1 .216-.128c.441-.242.857-.364 1.237-.364Zm.618.384a.332.332 0 0 0-.103-.175c-.083-.072-.204-.115-.368-.13-.405-.036-.86.081-1.35.35a3.18 3.18 0 0 0-.18.105c.068.044.13.098.18.16a.28.28 0 0 1 .062.113c.108-.018.218-.03.328-.04.167-.077.35-.134.537-.166.09-.058.187-.103.277-.132.2-.065.406-.085.617-.085Zm-.13.256a.25.25 0 0 0 .111-.1.211.211 0 0 0 .025-.083c-.206 0-.407.02-.599.082-.035.011-.07.025-.105.04a1.58 1.58 0 0 1 .569.061Zm1.136.241a.39.39 0 0 0-.123-.257c-.134-.123-.334-.144-.53-.155a6.52 6.52 0 0 0-.275-.012.276.276 0 0 1-.034.117.305.305 0 0 1-.085.096l.095.04.003-.01a.167.167 0 0 1 .114-.112.247.247 0 0 1 .221.035.473.473 0 0 1 .15.269 1.032 1.032 0 0 1 .464-.01Zm-3.146-.34a.957.957 0 0 0-.646-.048c-.366.099-.638.374-.802.588-.07.091-.134.188-.19.29a3.67 3.67 0 0 1 .294-.079c.112-.101.272-.181.484-.239.159-.043.319-.074.481-.095a1.204 1.204 0 0 1 .378-.417Zm.309.277a.222.222 0 0 0-.046-.078.708.708 0 0 0-.19-.162c-.112.078-.221.172-.306.286-.019.027-.037.054-.054.082.051-.006.104-.01.157-.015.141-.05.288-.086.439-.113Zm2.304.096c-.023-.088-.056-.18-.125-.232a.177.177 0 0 0-.154-.024.098.098 0 0 0-.072.088c.074.04.145.088.212.145.021.017.04.036.06.054l.079-.03Zm-.738-.23a1.689 1.689 0 0 0-.61-.008c-.028.02-.056.04-.083.062h.026c.182-.01.369-.019.55-.036.038-.004.077-.01.117-.017Zm-.807.06a.717.717 0 0 1 .038-.036c-.05.012-.099.026-.147.042l.109-.007Zm1.12.047a1.334 1.334 0 0 0-.176-.07.87.87 0 0 1-.248.053c-.181.017-.37.027-.552.035l-.112.006a.845.845 0 0 0-.087.108c.35.006.707.01 1.054-.027.044-.005.089-.013.107-.04.011-.017.013-.039.014-.065Zm-1.26.13a.823.823 0 0 1 .07-.101c-.09.005-.179.01-.269.018-.05.023-.1.05-.149.076a17.56 17.56 0 0 1 .349.007Zm1.539.061c-.013-.011-.025-.023-.039-.033a1.205 1.205 0 0 0-.17-.12.15.15 0 0 1-.024.068c-.035.052-.097.065-.159.072-.366.038-.74.033-1.105.027a.889.889 0 0 0-.043.102.98.98 0 0 1 .24-.045 3.86 3.86 0 0 1 1.122.065.98.98 0 0 1 .178-.136Zm-2.025-.068a.088.088 0 0 1 .013-.008l.076-.047-.15.021a.19.19 0 0 1-.012.034h.073Zm-.162.001a.154.154 0 0 0 .015-.02 2.147 2.147 0 0 0-.106.022l.09-.002Zm2.868.041a.958.958 0 0 0-.447.007c.017.077.035.163.05.255l.014.026c.08.028.16.058.24.092a.708.708 0 0 0 .143-.38Zm.378.657a.447.447 0 0 0 .019-.358.507.507 0 0 0-.326-.277.782.782 0 0 1-.146.388l.108.05c.132.063.247.128.345.197Zm-.878-.542-.018-.085-.04.015c.02.023.04.046.058.07Zm-1.758-.078c-.14-.003-.284-.006-.427-.006-.149.098-.284.21-.41.332a1.522 1.522 0 0 1 .56.224.508.508 0 0 1 .23-.407.719.719 0 0 1 .047-.143Zm-.929.313c.116-.115.24-.223.374-.319h-.025a.47.47 0 0 1-.165.085c-.18.057-.368.098-.557.132-.02.05-.04.105-.059.16a.848.848 0 0 1 .432-.058Zm-.34-.182a4.069 4.069 0 0 0 .536-.134 6.15 6.15 0 0 0-.273.014c-.09.034-.177.073-.263.12Zm3.036.087a1.2 1.2 0 0 0-.136-.176.837.837 0 0 0-.143.1c.093.022.187.047.279.076Zm-3.092-.139.016-.034c-.142.02-.282.048-.421.086-.133.037-.244.081-.334.135.135-.025.27-.047.405-.068l.198-.032.044-.03c.031-.021.06-.04.092-.056Zm2.665.107a3.806 3.806 0 0 0-1.055-.054.803.803 0 0 0-.27.06 1.495 1.495 0 0 0-.008.354l.006.12a.859.859 0 0 1 .212-.141c.249-.113.521-.092.772.012.03.004.06.01.09.018l.028-.051c.055-.095.128-.211.225-.318Zm.457.118a3.6 3.6 0 0 0-.373-.1 1.686 1.686 0 0 0-.267.372c.082.028.16.069.233.123.151-.027.3-.064.435-.128a3.17 3.17 0 0 0-.027-.267Zm-3.244.092a3.872 3.872 0 0 1 .061-.17l-.045.008a.902.902 0 0 0-.153.143c.046.006.092.012.137.02Zm1.387.342v-.026c0-.054-.003-.108-.006-.162-.006-.1-.01-.203 0-.305-.102.089-.139.23-.141.36a.76.76 0 0 1 .134.148c.004-.005.01-.01.013-.015Zm-1.609-.37a.798.798 0 0 1 .098-.11c-.025.003-.051.007-.076.012-.187.03-.372.058-.55.097l-.014.014c.081-.015.17-.023.27-.024.09 0 .18.004.272.011Zm3.734.034a3.749 3.749 0 0 0-.143-.056c.02.045.038.09.053.137a.706.706 0 0 0 .09-.08Zm-3.061-.021a.743.743 0 0 0-.303.043 1.89 1.89 0 0 1 .213.055l.09-.098Zm.716.258a1.234 1.234 0 0 0-.39-.196 1.399 1.399 0 0 0-.232-.052 2.927 2.927 0 0 0-.107.113c.236.08.419.189.557.331.074.076.136.163.184.256.016-.045.035-.088.057-.13a1.474 1.474 0 0 1-.057-.215.94.94 0 0 1-.012-.107Zm-2.05-.228.012-.018a3.24 3.24 0 0 0-.26.075c-.104.206-.18.426-.226.652a.783.783 0 0 1 .104-.058.548.548 0 0 1 .073-.444.566.566 0 0 1 .297-.207Zm.617.028a3.032 3.032 0 0 0-.23-.01c-.131 0-.244.015-.34.043a.57.57 0 0 0-.013.512c.14.002.276.026.4.052.025-.043.05-.088.072-.13a3.14 3.14 0 0 1 .069-.124.447.447 0 0 1 .042-.343Zm4.314.245a2.322 2.322 0 0 0-.465-.252.761.761 0 0 1-.134.12l-.006.005c.042.155.055.317.038.478.132-.028.262-.072.376-.15a.66.66 0 0 0 .191-.2Zm-4.106-.222a2.786 2.786 0 0 0-.129-.017.402.402 0 0 0-.066.236v.007a.984.984 0 0 1 .195-.226Zm3.413.064c-.006-.017-.01-.035-.017-.052l.004.059a.05.05 0 0 0 .013-.007Zm-3.047.013a2.351 2.351 0 0 0-.26-.06c-.056.16-.11.322-.162.484a.878.878 0 0 0 .055.05c.117-.164.237-.323.367-.474Zm-1.752.651c.04-.237.112-.468.215-.685-.176.069-.34.16-.49.283-.124.103-.188.2-.195.3-.01.15.118.279.24.348a.678.678 0 0 0 .07.035.563.563 0 0 1 .16-.281Zm.516-.204a.646.646 0 0 1-.007-.475.463.463 0 0 0-.185.15.472.472 0 0 0-.064.373.973.973 0 0 1 .256-.048Zm3.15-.444a.818.818 0 0 0-.52.05.801.801 0 0 0-.242.175 1.013 1.013 0 0 1-.013.126l.013.039a.451.451 0 0 1 .011.049 4.65 4.65 0 0 1 .229-.072.833.833 0 0 1 .457-.353l.064-.014Zm-2.39.356c.036-.114.074-.227.113-.34a1.136 1.136 0 0 0-.174.233.479.479 0 0 0 .06.107Zm1.277.221a.964.964 0 0 0-.167-.234 1.332 1.332 0 0 0-.557-.323 5.851 5.851 0 0 0-.384.496.799.799 0 0 0 .067.043c.115.032.226.077.322.137.112.033.228.053.345.059l.042-.022c.109-.056.22-.108.332-.156Zm2.296-.07c.017-.15.007-.302-.03-.45l-.027.015c.007.144.005.295-.013.446l.07-.01Zm-.978-.44a.643.643 0 0 0-.25.018.717.717 0 0 0-.363.251c.191-.05.385-.089.58-.118l.032-.005.061-.119a3.008 3.008 0 0 1-.06-.027Zm.834.458a2.68 2.68 0 0 0 .016-.418c-.116.052-.239.085-.366.11.012.01.023.022.035.034.079.08.146.176.199.286l.116-.012Zm-.62-.34c-.03-.02-.059-.038-.089-.055l-.037.073.041-.006.086-.011Zm-1.315.085a.635.635 0 0 0-.08-.102l.005.022c.007.048.02.095.034.141l.041-.061Zm3.204.75a1.04 1.04 0 0 0-.422-.834.73.73 0 0 1-.209.217 1.142 1.142 0 0 1-.427.166c-.01.066-.027.131-.049.194.376.044.749.13 1.107.258Zm-1.517-.474a1.501 1.501 0 0 0-.286-.298l-.162.022-.09.012-.071.143c-.008.017-.017.033-.024.05a.695.695 0 0 1 .264.11c.122-.021.246-.032.37-.04Zm-.711-.078.036-.075.05-.1a5.02 5.02 0 0 0-.642.137c-.09.138-.166.313-.231.53l-.03.097c-.046.16-.094.324-.16.474l.03.052c.057-.031.113-.065.167-.102l.02-.025a1.07 1.07 0 0 1 .08-.4c.122-.301.375-.588.68-.588Zm-2.497-.028a.629.629 0 0 1-.079-.113l-.038.07-.058.105.09.003.063.004.022-.07Zm1.567-.082-.007-.015a.89.89 0 0 0-.05.082l.021.058a.631.631 0 0 0 .036-.125Zm.083.545a2.19 2.19 0 0 1 .186-.442 4.54 4.54 0 0 0-.16.052c.006.09-.01.18-.042.263a.4.4 0 0 1 .016.127Zm-1.567-.381-.026-.023-.005.019c.01 0 .02.003.031.003Zm-.746.057a.605.605 0 0 1-.037-.064 1.004 1.004 0 0 0-.18.02.6.6 0 0 0-.092.028c.017.054.039.107.065.16a.792.792 0 0 1 .244-.144Zm.184-.05a1.753 1.753 0 0 0-.138-.013l.026.04c.035-.011.072-.02.112-.028Zm2.072.12a.53.53 0 0 0 .01-.11l-.021.008-.016.03.027.072Zm.724.164c.051-.088.098-.18.143-.27-.254.022-.468.275-.576.541-.034.085-.06.183-.07.28.103-.123.213-.243.341-.34l.015-.031a.648.648 0 0 1 .147-.18Zm.418-.205a.52.52 0 0 0-.183-.063h-.011a7.053 7.053 0 0 1-.088.172.994.994 0 0 1 .282-.11Zm-2.79.01a2.013 2.013 0 0 0-.163-.043 1.288 1.288 0 0 1-.138.191l-.012.014c.063.045.133.086.212.125l.025-.038.075-.25Zm-.37.118.015-.017c.038-.042.072-.089.104-.139-.08.006-.16.017-.238.037.034.043.073.081.119.119Zm3.967.02a1.07 1.07 0 0 0 .046-.174 1.77 1.77 0 0 1-.068.01 2.347 2.347 0 0 1-.03.159c.018 0 .035.003.052.005Zm-2.123-.112a.325.325 0 0 0 .052-.056l-.04.016-.012.04Zm-2.381.131a1.104 1.104 0 0 1-.077-.184.644.644 0 0 0-.142.094 2.595 2.595 0 0 0-.02.149.16.16 0 0 1 .054-.017.094.094 0 0 1 .087.043l.01.015-.021.067a.6.6 0 0 1 .096-.152c.004-.005.01-.01.013-.015Zm4.38-.034c.01-.047.02-.094.027-.142l-.075.007c.018.044.034.09.047.135Zm-3.184-.115a1.118 1.118 0 0 0-.1-.022l-.003.004c.162.07.31.177.384.343a.511.511 0 0 1 .035.103.886.886 0 0 1 .156-.154.66.66 0 0 0-.151-.136 1.625 1.625 0 0 1-.305-.127l-.016-.01Zm3.092.113a1.184 1.184 0 0 0-.07-.123h-.008c-.106.008-.216.015-.322.03l.062.046.063.047c.087-.004.18-.004.275 0Zm-3.307-.096c-.002-.002-.004-.002-.006-.002l-.005.019.011-.017Zm-.497.143a.964.964 0 0 1-.141-.145.705.705 0 0 0-.252.146c.03.051.063.1.098.144l.014.019a.877.877 0 0 0 .28-.163Zm1.818-.131-.005-.01a4.572 4.572 0 0 0-.242.11.686.686 0 0 0 .235-.053l.012-.047Zm.216.114a2.873 2.873 0 0 0-.04-.119.438.438 0 0 1-.052.052l-.021.017c.018.06.031.121.04.183a.821.821 0 0 0 .073-.133Zm1.382-.023a2.98 2.98 0 0 0-.115-.083c-.081.016-.16.038-.236.07a.79.79 0 0 0-.213.127l-.026.044a1.64 1.64 0 0 1 .59-.158Zm-2.454.35a.465.465 0 0 0-.036-.116c-.067-.15-.206-.246-.359-.31a19.48 19.48 0 0 0-.153.229c-.004.014-.01.028-.013.042l.042.017c.167.066.341.113.519.139Zm-1.763-.197.01-.117a.45.45 0 0 0-.072.174l.019.007.002-.004a.403.403 0 0 1 .041-.06Zm2.584.176-.004-.07a1.285 1.285 0 0 1 .011-.22.869.869 0 0 1-.253.044 2.102 2.102 0 0 1-.113 0 1.686 1.686 0 0 0-.14.087c.032.051.056.107.071.167l.009.04c.141-.003.282-.019.42-.048Zm.11-.09a1.018 1.018 0 0 0-.03-.193c-.01.068-.014.138-.011.21v.024a.54.54 0 0 0 .04-.042Zm-.594-.166c-.035-.004-.068-.01-.103-.015a.608.608 0 0 1 .047.053c.017-.013.036-.025.056-.038Zm2.539-.005a3.91 3.91 0 0 0-.207-.005.594.594 0 0 0 .214.087h.007l.004-.01-.013-.062-.005-.01Zm-.01.153a.81.81 0 0 1-.321-.155c-.31.018-.562.092-.763.223l-.003.002a2.65 2.65 0 0 1-.072.098 1.46 1.46 0 0 0-.042.384c-.003.115-.006.232-.03.345.08.017.167.015.245.007.09-.031.177-.07.26-.113.173-.09.32-.199.434-.32.133-.142.227-.302.291-.471Zm.164-.141-.042-.004-.014.05.005.017.013-.008a.14.14 0 0 0 .038-.055Zm-3.71.14a1.56 1.56 0 0 1-.225-.133.91.91 0 0 1-.287.174c.083.084.216.183.347.128.073-.03.124-.107.165-.169Zm4.918.131-.02-.006a4.969 4.969 0 0 0-1.11-.257l-.003.004a.227.227 0 0 1-.07.103.153.153 0 0 1-.041.022.623.623 0 0 1 .002.191c.002.142-.017.272-.057.387a.943.943 0 0 1-.382.475l.18.012c.549-.105 1.035-.31 1.423-.605l.03-.078a1.05 1.05 0 0 0 .048-.247Zm-5.557-.125a1.425 1.425 0 0 1-.09-.13.584.584 0 0 0-.093.158.896.896 0 0 0 .183-.028Zm-.297-.08c-.003-.002-.007-.002-.01-.002-.019.001-.043.017-.066.04 0 .02-.002.04-.003.059a.35.35 0 0 0 .044.006l.035-.104Zm2.622.129a.166.166 0 0 0 .077-.075.148.148 0 0 0 .011-.054.774.774 0 0 1-.088.122v.007Zm-.678.102-.005-.02a.507.507 0 0 0-.058-.142.851.851 0 0 0-.15.15c.072.008.142.011.213.012Zm.665.321c.052-.13.093-.27.134-.407l.011-.04a.27.27 0 0 1-.134.105.943.943 0 0 1-.047.249c.01.032.023.062.036.093Zm-.998-.273a2.446 2.446 0 0 1-.54-.145l-.036-.014-.014.05c-.012.042-.022.082-.008.112.02.044.082.057.142.066l.236.03.022-.008.004.011c.052.006.105.01.156.014a.548.548 0 0 1 .038-.116Zm-.918.052c-.143 0-.27-.111-.345-.19-.083.023-.17.038-.257.04a.82.82 0 0 0 .12.62c.102.072.211.13.323.18l.027.004a.95.95 0 0 1 .231-.285c.14-.12.301-.2.458-.267l-.105-.014c-.078-.01-.164-.033-.198-.108a.185.185 0 0 1-.008-.116.359.359 0 0 1-.14.113.243.243 0 0 1-.106.023Zm3.845-.074c-.001-.036-.003-.074-.007-.111-.066.161-.16.314-.287.45-.12.128-.272.24-.452.334.173-.042.316-.104.432-.189a.755.755 0 0 0 .314-.484Zm-4.68.16-.004-.042a2.17 2.17 0 0 1-.007-.21l-.047.097c.012.051.032.103.058.155Zm.085-.243-.023-.003.001.071.022-.068Zm.129.514a.858.858 0 0 1-.055-.505l-.082.254a.822.822 0 0 0 .025.132l.038.046c.023.024.048.05.074.073Zm2.46-.37a1.234 1.234 0 0 0 .013-.085l-.023.006-.003.001a.648.648 0 0 0 .014.078Zm3.354.123c.045-.042.093-.105.07-.16a.102.102 0 0 0-.032-.039c-.007.067-.019.133-.038.199Zm-3.86-.068c.065-.013.128-.03.192-.053a.755.755 0 0 0 .085-.039c-.091.013-.183.02-.276.022l-.001.07Zm-.072-.069a2.562 2.562 0 0 1-.257-.015.854.854 0 0 1-.005.11c.087 0 .174-.003.26-.015a.54.54 0 0 0 .002-.08Zm.541.153a1.306 1.306 0 0 1-.04-.15l-.018.027a.412.412 0 0 0-.056.35.97.97 0 0 0 .114-.227Zm-2.664.059a.806.806 0 0 1-.078-.159l-.137.282c-.049.101-.105.215-.105.33-.002.353.452.521.646.578.12.034.257.068.396.077a.69.69 0 0 1-.059-.46 1.264 1.264 0 0 1-.126-.086l-.154-.01c-.152-.011-.36-.043-.424-.21-.036-.094-.01-.192.024-.293l.017-.05Zm3.35.435c.022-.102.024-.212.027-.325a2.44 2.44 0 0 1 .017-.265 1.885 1.885 0 0 1-.28.25c.01.116.053.221.146.291.027.02.058.037.09.05Zm-.853-.194a.526.526 0 0 1-.002-.371 1.939 1.939 0 0 0-.345.176.815.815 0 0 1-.166.254c.058.05.126.092.197.128.06-.014.122-.03.184-.05.049-.041.093-.088.132-.137Zm-.314-.303.014-.008a.06.06 0 0 1-.013.002v.006Zm-.446.013a4.53 4.53 0 0 1-.167-.015 1.89 1.89 0 0 0-.562.304.892.892 0 0 0-.202.243c.24.04.53.063.792-.025.022-.047.04-.096.06-.145.034-.083.066-.166.09-.25a.45.45 0 0 1-.011-.088v-.024Zm.354.046a.814.814 0 0 0 .016-.053c-.085.01-.17.013-.256.011a1.031 1.031 0 0 1-.026.109.407.407 0 0 0 .06.125.93.93 0 0 1 .206-.192Zm2.113.607a.896.896 0 0 0 .475-.582.897.897 0 0 1-.243.262c-.177.128-.41.209-.708.245l-.046.005c-.104.037-.21.066-.32.086l-.004.008a.008.008 0 0 0-.002.004.96.96 0 0 0 .205.066h.108c.18-.073.381-.093.535-.094Zm-1.464-.479a1.046 1.046 0 0 1-.038-.08 1.055 1.055 0 0 1-.122.21.449.449 0 0 0 .019.04c.022-.008.045-.018.067-.028.027-.046.052-.093.074-.142Zm-2.678-.038-.01-.012c-.028.088-.051.172-.024.243.049.127.23.154.36.163l.06.003-.023-.023a.613.613 0 0 1-.297-.23.519.519 0 0 1-.066-.144Zm3.268.42a.423.423 0 0 1-.115-.063.448.448 0 0 1-.168-.293c-.038.047-.077.095-.117.141.084.11.186.204.3.275l.081-.013a.295.295 0 0 0 .02-.047Zm1.572.133c.131 0 .26-.012.386-.047.237-.068.443-.225.577-.431-.341.233-.712.383-1.076.475.038.002.075.003.113.003Zm-2.97-.392a.73.73 0 0 0 .066-.078.737.737 0 0 0-.066.078Zm-.09.005a.532.532 0 0 1-.052-.08c-.019.056-.04.112-.062.166l-.033.081a.747.747 0 0 0 .096-.054.499.499 0 0 1 .05-.113Zm.944-.043-.003-.005-.005.009.008-.004Zm.052.079-.012-.018a2.246 2.246 0 0 1-.108.052c-.016.026-.033.051-.051.076.01.012.02.025.032.036a2.24 2.24 0 0 0 .139-.146Zm-.307.032-.002-.003-.005.006a.044.044 0 0 0 .007-.003Zm.588.258a1.255 1.255 0 0 1-.237-.23 2.577 2.577 0 0 1-.132.136.82.82 0 0 0 .16.099c.07.002.139 0 .21-.006Zm-1.048-.13a.908.908 0 0 1-.14-.1.976.976 0 0 1-.078.062.65.65 0 0 0-.017.074 2.76 2.76 0 0 0 .235-.036Zm.504-.052-.008-.011a2.49 2.49 0 0 1-.166.056.988.988 0 0 1-.062.047l.007.002.105.03a.839.839 0 0 0 .124-.124Zm.069.087-.024-.026a.959.959 0 0 1-.08.084l.026.006c.027-.021.053-.041.078-.064Zm-.883.011c0-.01.003-.02.003-.029l-.054.027a4.076 4.076 0 0 1-.02.009l.07-.007Zm.613.082-.049-.015a1.258 1.258 0 0 1-.152-.058 2.758 2.758 0 0 1-.342.057.479.479 0 0 0 .022.158 1.01 1.01 0 0 0 .521-.142Zm1.056-.045a2.935 2.935 0 0 1-.029-.005l-.003.012.032-.007Zm-.683.042a.32.32 0 0 1-.05-.04.502.502 0 0 1-.034.028l.084.012Zm-.971.144-.006-.023a.554.554 0 0 1-.013-.126 3.02 3.02 0 0 1-.134.011c-.019.042-.04.082-.061.12.075.01.147.016.214.018Zm-1.09-.145-.01-.001.008.005c0-.001 0-.003.002-.004Zm.104.005-.028-.001a.946.946 0 0 0-.013.036c.183.096.408.155.672.174.008-.01.014-.021.022-.033a3.427 3.427 0 0 1-.216-.046 3.407 3.407 0 0 1-.437-.13Zm.694.11c.02-.034.038-.068.056-.104a6.221 6.221 0 0 1-.485.005 3.382 3.382 0 0 0 .43.099Zm.999-.084-.016-.003-.002.002a.958.958 0 0 1-.11.069.88.88 0 0 0 .08-.04l.048-.028Zm.41.052a2.091 2.091 0 0 1-.31-.032 1.106 1.106 0 0 1-.112.07c-.174.097-.368.14-.541.159.02.021.045.041.075.058a.636.636 0 0 0 .29.058c.299.013.67-.022.887-.227a1.141 1.141 0 0 1-.29-.086Zm.359.008a.684.684 0 0 1-.037-.021l-.105.01c.044.01.088.018.132.024l.01-.013Zm-1.884.193a1.745 1.745 0 0 1-.637-.171.563.563 0 0 0-.012.126.633.633 0 0 0 .087.3.752.752 0 0 0 .338-.075.724.724 0 0 0 .224-.18Zm2.163-.086a2.998 2.998 0 0 1-.258-.016c-.229.258-.648.302-.98.287a.713.713 0 0 1-.322-.068.386.386 0 0 1-.127-.113 2.945 2.945 0 0 1-.387.002.806.806 0 0 1-.28.24.789.789 0 0 1-.325.08c.064.089.147.17.25.238.297.202.703.287 1.208.255.415-.027.697-.149.838-.361.034-.052.06-.108.087-.167.027-.06.056-.121.093-.178a.666.666 0 0 1 .203-.199Zm-1.743.02c-.09-.001-.18-.01-.266-.022l-.016.024c.052.002.105.002.16.002l.122-.003Z" fill="#5E5E5E"/></g></g><defs><clipPath id="a"><rect width="48" height="48" rx="24" fill="#fff"/></clipPath><clipPath id="b"><path fill="#fff" d="M0 0h48v48H0z"/></clipPath></defs></svg>