<svg width="48" height="48" fill="none" xmlns="http://www.w3.org/2000/svg"><g clip-path="url(#a)"><rect width="48" height="48" rx="24" fill="#fff"/><path d="m15.225 11.907.461.192s.162-.388.568-.227a.403.403 0 0 1 .262.39.448.448 0 0 1-.19.36c-.132.097-.352.142-.64-.042l-.434 1.041.457.19.254-.609s.71.102 1.003-.605c.281-.675-.26-1.085-.518-1.192-.197-.083-.892-.317-1.223.502ZM15.626 14.027l-.464-.193-.18.433.463.193.18-.433Z" fill="#EBEBEB"/><path d="m7.434 15.351.494-.084s-.071-.414.358-.495a.405.405 0 0 1 .43.188.448.448 0 0 1 .033.405c-.06.152-.221.309-.563.308l.19 1.112.489-.084-.113-.65s.654-.295.523-1.05c-.123-.72-.8-.776-1.076-.729-.212.036-.924.211-.765 1.08ZM8.909 16.928l-.495.085.08.462.494-.085-.08-.462ZM13.506 11.294l-.803.226s.19.674-.507.883a.675.675 0 0 1-.745-.237.746.746 0 0 1-.126-.666c.073-.263.314-.55.882-.608l-.51-1.808-.793.223.299 1.06s-1.032.601-.687 1.827c.33 1.173 1.46 1.15 1.91 1.022.343-.096 1.493-.51 1.08-1.921ZM10.789 8.937l.805-.227-.212-.752-.805.227.212.752Z" fill="#F5F5F5"/><path d="M32.54 13.031c-.001.004.036.006.095.03a.435.435 0 0 1 .263.344.368.368 0 0 1-.037.204.424.424 0 0 1-.387.237.422.422 0 0 1-.357-.281.356.356 0 0 1-.012-.207.447.447 0 0 1 .301-.311c.062-.017.098-.014.098-.018 0 0-.008-.002-.026-.002a.29.29 0 0 0-.075.009.44.44 0 0 0-.324.316.391.391 0 0 0 .01.221.45.45 0 0 0 .382.303.452.452 0 0 0 .416-.256.388.388 0 0 0 .036-.22.44.44 0 0 0-.358-.37l-.025.001ZM32.715 10.884v-.054l-.003-.16-.003-.117c0-.043.006-.09.01-.14l.012-.165a.503.503 0 0 1 .012-.09l.018-.095c.038-.262.134-.577.3-.915a3.31 3.31 0 0 1 .771-1.01c.044-.04.09-.079.135-.118.048-.038.1-.072.15-.109l.075-.054c.025-.019.05-.038.079-.052.054-.032.11-.065.166-.096l.084-.05.09-.04.181-.083c.061-.026.128-.045.192-.068l.098-.034.049-.016.05-.012c.137-.03.273-.069.417-.081.072-.008.144-.021.216-.025l.221-.006c.038 0 .074-.004.112-.002l.112.009c.075.007.15.01.227.019.15.029.304.046.453.095l.113.032.056.016.056.021.223.087c.073.032.144.072.217.107.035.02.073.035.107.057l.104.065c.142.083.27.19.402.29l.184.174.046.043.042.047.084.096.084.096.076.104.076.104.037.053c.012.018.022.037.033.056l.131.225.11.24c.134.324.22.674.253 1.034.023.361-.007.72-.09 1.062l-.07.254-.094.242-.024.06-.03.058-.058.116-.058.114-.068.108-.069.108-.034.054-.038.05-.155.198c-.115.121-.224.247-.352.35l-.092.08c-.031.027-.066.048-.098.073-.067.047-.131.096-.198.14l-.207.12-.05.03-.054.025-.108.05c-.14.071-.289.112-.433.163-.073.021-.148.036-.22.054l-.11.026c-.036.008-.074.01-.11.015l-.22.03c-.072.006-.145.005-.216.008-.144.01-.285-.007-.424-.016l-.052-.004c-.018-.002-.035-.006-.051-.009l-.102-.017c-.067-.013-.134-.021-.2-.038l-.192-.053a3.476 3.476 0 0 1-.095-.027l-.09-.035-.18-.07c-.03-.01-.057-.024-.086-.038l-.083-.043c-.055-.028-.11-.054-.164-.083l-.152-.096a3.326 3.326 0 0 1-.919-.879c-.028-.038-.056-.075-.08-.113l-.068-.115a17.3 17.3 0 0 1-.065-.111c-.01-.019-.022-.036-.03-.055l-.027-.056-.097-.21c-.029-.067-.048-.135-.07-.198a4.731 4.731 0 0 0-.032-.091.657.657 0 0 1-.026-.087 9.848 9.848 0 0 0-.039-.16c-.011-.05-.024-.096-.031-.139-.006-.042-.01-.082-.016-.116l-.022-.157a2.814 2.814 0 0 0-.01-.05l.006.054c.005.037.01.09.02.159.003.034.008.074.014.116.008.042.02.088.03.138.012.05.025.104.037.161a.598.598 0 0 0 .025.088l.03.092c.023.062.042.13.07.199.032.067.063.138.097.212l.025.055c.009.019.02.037.03.055.022.037.044.074.065.113l.067.116c.026.037.054.075.08.114.218.309.521.628.922.886l.153.097c.054.03.11.056.164.084l.084.043a.702.702 0 0 0 .086.039l.18.07.092.036.095.027.194.054c.065.017.133.025.201.039l.103.018c.017.003.035.007.052.008l.053.004c.14.01.282.027.427.018.072-.003.146-.002.219-.01l.22-.027c.037-.006.075-.008.112-.015l.11-.026c.074-.018.15-.033.223-.054.145-.052.296-.093.437-.165l.108-.049c.018-.009.037-.016.054-.025l.052-.03.208-.12c.068-.045.133-.095.199-.142.033-.025.068-.046.099-.074l.093-.081c.129-.104.239-.23.355-.353l.156-.2.039-.051.035-.054.069-.108.069-.11.058-.115.059-.116.03-.059.024-.06.095-.246.072-.255a3.56 3.56 0 0 0 .09-1.072 3.604 3.604 0 0 0-.255-1.043l-.11-.241c-.045-.076-.09-.152-.133-.228l-.034-.056-.038-.053-.076-.106-.076-.104-.084-.098-.084-.097-.042-.048-.046-.044-.186-.174c-.133-.103-.262-.21-.406-.293l-.104-.066c-.035-.022-.073-.039-.109-.058-.073-.036-.145-.075-.219-.108l-.224-.088-.056-.022-.057-.016-.115-.032c-.15-.049-.306-.067-.457-.095-.076-.01-.152-.012-.228-.018l-.114-.009c-.037-.002-.074.001-.112.002l-.223.007c-.073.005-.146.017-.218.026-.144.012-.282.052-.419.082l-.05.012-.05.016-.099.034c-.065.023-.13.042-.193.069-.061.028-.123.057-.183.083l-.09.042c-.03.015-.057.032-.086.049l-.167.097a.708.708 0 0 0-.08.052l-.076.055c-.05.037-.102.072-.15.11l-.136.12c-.357.317-.607.68-.773 1.018-.164.341-.26.657-.296.92l-.016.097a.597.597 0 0 0-.012.09 20.95 20.95 0 0 1-.011.165c-.003.051-.008.098-.009.141l.004.117.006.16.006.055Z" fill="#7B7C7C"/><path d="M34.842 9.805h.65s0-.545.567-.555a.525.525 0 0 1 .509.336.583.583 0 0 1-.046.526c-.11.181-.351.346-.79.27v1.464h.642v-.858s.901-.233.901-1.226c0-.95-.852-1.17-1.217-1.17-.278 0-1.229.067-1.216 1.213ZM36.381 12.149h-.651v.608h.651v-.608Z" fill="#7B7C7C"/><path d="M24.482 10.043a.808.808 0 0 0 .564-.59.809.809 0 0 0-.257-.775.575.575 0 0 0 .19-.764.575.575 0 0 0-.765-.181.659.659 0 0 0-.339-.604.657.657 0 0 0-.69.054.78.78 0 0 0-.761-.091.778.778 0 0 0-.457.616.655.655 0 0 0-.704-.28.657.657 0 0 0-.475.59c-.26-.059-.567-.106-.762.075-.183.169-.176.456-.155.705.025.294.05.592.138.874.136.436.426.822.805 1.075.368.354.98.418 1.414.148" fill="#373B3D"/><path d="M24.863 11.046c.295-.245.326-.747.063-1.026-.264-.28-.766-.278-1.028.003-.073.079-.14.18-.246.194-.1.013-.189-.061-.277-.113a.714.714 0 0 0-.753.029.714.714 0 0 0-.286.697c-.362-.13-.85-.057-1.007.294-.14.313.067.697.371.854.305.156.67.134 1.006.065a3.983 3.983 0 0 0 2.097-1.183" fill="#444"/><path d="M29.842 18.71c.513-.183.825-.803.666-1.325.6-.43.685-1.418.167-1.944a.969.969 0 0 0 .218-1.033.967.967 0 0 0-.877-.589 1.3 1.3 0 0 0-.279-1.248 1.3 1.3 0 0 0-1.221-.378 1.197 1.197 0 0 0-.598-1.135 1.197 1.197 0 0 0-1.279.1c-.618-.74-1.934-.707-2.515.062-.754-.4-1.816-.002-2.122.793-.5-.413-1.32-.205-1.721.306-.402.51-.462 1.215-.37 1.86a1.098 1.098 0 0 0-.569.92c-.01.378.198.753.522.947-.555.78-.316 2.006.49 2.522a2.124 2.124 0 0 0 1.171 2.05" fill="#373B3D"/><path d="m21.956 15.43-.317-.756 4.74-1.055c1.464-.2 3.1 1.223 3.238 2.696.155 1.636.278 3.64.122 4.868-.314 2.471-2.19 2.843-2.19 2.843l.087 3.864-5.423.11-.258-12.57Z" fill="#EFCDBB"/><path d="M28.596 18.052a.315.315 0 0 1-.294.327.302.302 0 0 1-.335-.274.316.316 0 0 1 .294-.328.303.303 0 0 1 .335.275ZM29.131 17.376c-.037.042-.282-.127-.622-.116-.338.007-.582.19-.62.15-.019-.019.018-.094.124-.176a.87.87 0 0 1 .992-.027c.108.076.146.15.126.169ZM25.256 18.14a.315.315 0 0 1-.295.328.302.302 0 0 1-.334-.274.316.316 0 0 1 .293-.329.304.304 0 0 1 .335.276ZM25.722 17.54c-.037.042-.282-.127-.622-.115-.339.006-.583.189-.62.148-.02-.018.017-.093.124-.175a.87.87 0 0 1 .992-.027c.107.077.145.15.126.169ZM27.108 20.021c-.001-.019.208-.062.549-.116.086-.011.168-.031.18-.09.018-.064-.021-.156-.066-.256l-.277-.652c-.384-.928-.666-1.694-.628-1.709.037-.015.38.725.765 1.654l.266.657c.035.098.096.207.055.339a.22.22 0 0 1-.138.131c-.055.018-.104.021-.147.025-.343.029-.557.037-.559.017Z" fill="#2E353A"/><path d="M27.555 24.034s-1.736.155-3.406-.779c0 0 .885 1.696 3.423 1.392l-.017-.613Z" fill="#DDB9A8"/><path d="M23.973 16.038c.014-.097.355-.121.736-.247.384-.118.676-.296.744-.226.031.035-.006.13-.116.244-.081.118-.231.249-.522.31-.23.073-.451.079-.606.05-.155-.03-.242-.085-.236-.131ZM27.945 16.46c.065-.073.293.022.573.044.28.031.522-.018.572.066.02.04-.021.115-.13.181a.787.787 0 0 1-.474.095.797.797 0 0 1-.448-.185c-.094-.084-.121-.166-.093-.201Z" fill="#2E353A"/><path d="M24.311 13.706c.077.188.16.385.32.513.16.126.419.152.553 0 .226.242.688.182.843-.11a.747.747 0 0 0 .904.034l.742.115c.27.042.601.058.75-.17.035-.053.059-.118.114-.148.056-.03.124-.013.188-.01.21.015.41-.118.533-.291.122-.173.182-.382.24-.586.088-.314.148-.716-.115-.908-.102-.076-.234-.098-.36-.118-.258-.04-.525-.08-.776-.011-.31.086-.553.33-.73.598.06-.167-.068-.357-.236-.411-.168-.055-.354-.004-.51.077a1.365 1.365 0 0 0-.543.522 1.11 1.11 0 0 0-.954.666.807.807 0 0 0-.636-.075c-.074.023-.15.061-.183.13-.034.07 0 .173.076.184" fill="#373B3D"/><path d="M26.69 13.708c-.107.333.03.73.321.925.291.195.71.172.978-.054.13.33.528.528.869.432.017.418.283.818.663.995a.91.91 0 0 0 .023.671c.06.134.16.26.296.311.164.063.349.013.505-.066.22-.111.42-.294.485-.532.067-.238-.04-.53-.27-.62a1.96 1.96 0 0 0 .449-.732c.053-.157.084-.335.01-.482-.073-.148-.292-.226-.41-.11a.74.74 0 0 0-.1-.765.74.74 0 0 0-.732-.242.616.616 0 0 0-.388-.517.616.616 0 0 0-.632.134M23.74 13.61c.004-.298-.296-.533-.594-.556-.298-.023-.585.11-.844.258a1.052 1.052 0 0 0-1.18-.227c-.388.181-.619.578-.93.871-.163.156-.358.291-.466.49-.108.2-.087.495.116.6a.782.782 0 0 0-.469.627.78.78 0 0 0 .33.71c.071.05.158.093.191.173.028.067.012.145-.008.215-.095.336-.258.655-.308 1.001-.049.347.049.75.352.923.08.046.178.08.218.163a.29.29 0 0 1 .008.179c-.039.196-.14.372-.215.557-.075.185-.123.394-.055.581.068.188.29.329.472.246-.108.384-.072.831.191 1.131.263.3 1.078.393 1.539.073l-.024-1.127c-.075-.194.169-1.267.028-1.474 0 0-.293.752.459.584.25.053.682-.7.7-.957.017-.256-.159-.498-.386-.616.411-.35.507-1.016.209-1.466a.634.634 0 0 0 .492-.58.637.637 0 0 0-.443-.619c.69-.209 1.059-1.12.707-1.75" fill="#373B3D"/><path d="M20.08 14.055c-.003-.002-.036.023-.08.09a.639.639 0 0 0-.095.328.635.635 0 0 0 .207.491c.157.143.419.23.679.143l-.066-.057a.513.513 0 0 0 .365.582c.27.07.581-.134.616-.44l-.115.01c.039.159.173.289.331.34.101.033.214.036.315-.002a.449.449 0 0 0 .234-.204.505.505 0 0 0-.037-.558l-.067.087c.34.158.71.139.992.023a1.181 1.181 0 0 0 .73-1.012c.006-.12-.008-.183-.013-.183-.022-.004.023.272-.193.639a1.123 1.123 0 0 1-.558.467c-.262.101-.604.112-.908-.035l-.23-.11.164.196c.09.11.099.292.02.43a.334.334 0 0 1-.41.15.38.38 0 0 1-.255-.255l-.083-.344-.032.352c-.02.226-.272.397-.472.342a.412.412 0 0 1-.295-.455l.018-.087-.083.03a.614.614 0 0 1-.592-.109.583.583 0 0 1-.204-.431c-.006-.284.135-.412.117-.418ZM29.15 12.149c-.007.005.038.046.035.139a.176.176 0 0 1-.072.137.183.183 0 0 1-.196.01l-.104-.062.056.11a.485.485 0 0 1-.087.53c-.141.158-.453.184-.637.005l-.062-.06-.029.082a.871.871 0 0 1-.634.546.876.876 0 0 1-.77-.23l-.038-.038-.04.037a1.477 1.477 0 0 1-.685.366c-.232.056-.448.051-.62.023-.351-.057-.528-.192-.536-.174-.003.005.037.04.122.092.086.05.22.111.4.15a1.59 1.59 0 0 0 1.399-.377h-.078c.206.21.54.33.87.265a.973.973 0 0 0 .718-.624l-.091.021c.24.223.61.18.784-.02a.56.56 0 0 0 .08-.628l-.048.047a.24.24 0 0 0 .264-.029.216.216 0 0 0 .076-.18c-.014-.11-.076-.143-.076-.138ZM24.742 10.94c.006.008.05-.025.14-.035.087-.011.228.01.345.116.115.104.18.302.145.51-.03.21-.16.42-.318.62l.09.076.001-.002c.054-.06.193-.019.235.06.05.085.04.2.01.3a1.39 1.39 0 0 1-.279.504c-.221.251-.425.334-.414.352.003.007.055-.007.143-.05.086-.044.208-.121.332-.247.123-.126.247-.302.322-.528.034-.111.059-.255-.016-.39a.304.304 0 0 0-.18-.137c-.073-.022-.173-.014-.238.054l-.005.005.089.076c.162-.206.304-.435.333-.678.033-.238-.05-.47-.199-.589a.47.47 0 0 0-.408-.098c-.096.028-.132.076-.128.08ZM20.788 12.071c.01.016.147-.1.425-.13a.9.9 0 0 1 .475.083.9.9 0 0 1 .42.429l.045.097.054-.092c.101-.17.338-.286.558-.233a.53.53 0 0 1 .39.454l.006.068.065-.018a.707.707 0 0 1 .579.098.682.682 0 0 1 .27.39c.068.272-.02.438-.002.44.005.003.031-.033.055-.11a.733.733 0 0 0-.268-.798.793.793 0 0 0-.664-.129l.071.049a.638.638 0 0 0-.474-.559.638.638 0 0 0-.682.29l.1.005a.98.98 0 0 0-.483-.468.924.924 0 0 0-.847.053c-.067.044-.096.076-.093.081ZM20.572 8.174c.012.009.047-.108.215-.196a.42.42 0 0 1 .318-.03c.12.037.244.14.286.29l.066.226.024-.235a.625.625 0 0 1 .428-.512.61.61 0 0 1 .694.296l.027.052.052-.026a.552.552 0 0 1 .22-.057c.276-.018.54.159.608.399a.63.63 0 0 1-.17.641l-.134.114.172-.028c.19-.03.372.072.46.201.092.13.089.285.054.395-.075.228-.23.286-.217.297.002.004.038-.005.094-.044a.516.516 0 0 0 .178-.235.506.506 0 0 0-.041-.458.564.564 0 0 0-.542-.254l.04.086a.727.727 0 0 0 .215-.749c-.081-.294-.398-.505-.722-.483a.675.675 0 0 0-.267.07l.078.025a.714.714 0 0 0-.83-.345.712.712 0 0 0-.486.606l.089-.008a.513.513 0 0 0-.354-.333.468.468 0 0 0-.363.054.444.444 0 0 0-.162.165c-.029.048-.033.075-.03.076Z" fill="#4D4E4F"/><path d="M17.196 9.224c.006.015.103-.118.347-.126a.45.45 0 0 1 .368.17.482.482 0 0 1 .048.51l-.18.334.255-.28a.459.459 0 0 1 .56-.067c.184.111.252.41.115.607l.1.055a.506.506 0 0 1 .593-.27c.256.08.392.405.3.632l.087-.024c-.068-.052-.07-.174-.016-.248.05-.075.157-.103.25-.087.196.032.313.222.37.392l.086-.036c-.043-.08-.017-.185.041-.253a.285.285 0 0 1 .224-.106.555.555 0 0 1 .39.178c.171.185.238.322.25.313.004-.003-.01-.036-.042-.097-.033-.06-.08-.152-.17-.252a.604.604 0 0 0-.43-.216.368.368 0 0 0-.287.126c-.074.084-.122.223-.06.35l.087-.036a.88.88 0 0 0-.143-.282.49.49 0 0 0-.298-.185c-.12-.023-.272.005-.359.127-.079.112-.091.292.037.402l.059.05.03-.073a.613.613 0 0 0-.37-.787.619.619 0 0 0-.734.337l.1.055a.553.553 0 0 0-.152-.762.554.554 0 0 0-.687.095l.075.053a.56.56 0 0 0-.072-.602.5.5 0 0 0-.428-.175.506.506 0 0 0-.275.102c-.054.042-.072.074-.07.076ZM31.628 20.236c0-.007-.036-.001-.096-.02a.327.327 0 0 1-.186-.18.42.42 0 0 1 .017-.394c.076-.143.222-.268.39-.395l-.061-.076c-.183.15-.487.188-.74.063-.26-.116-.398-.445-.316-.747a.701.701 0 0 1 .135-.267c.06-.072.15-.146.217-.147.064-.006.119.078.119.157.005.08-.049.142-.124.178-.153.07-.34.033-.484-.033a.859.859 0 0 1-.344-.282.87.87 0 0 1-.146-.628c.024-.157.068-.237.058-.242-.004-.002-.064.071-.103.234a.885.885 0 0 0 .122.683c.084.127.21.245.372.324.16.075.364.128.57.043a.358.358 0 0 0 .135-.104.274.274 0 0 0 .056-.174.309.309 0 0 0-.055-.174.214.214 0 0 0-.178-.095.312.312 0 0 0-.178.068.745.745 0 0 0-.286.432.81.81 0 0 0 .036.518.697.697 0 0 0 .344.358c.295.142.64.093.851-.088l-.061-.076c-.166.133-.32.269-.4.435a.479.479 0 0 0 .003.456c.063.115.16.172.229.182.07.01.106-.007.104-.01ZM24.343 9.506c-.002.004.023.021.073.048.05.027.124.066.23.1a.615.615 0 0 0 .402.011.48.48 0 0 0 .212-.152.336.336 0 0 0 .068-.293l-.058.054a.43.43 0 0 0 .522-.218c.1-.21-.017-.5-.268-.577l-.016.108c.23.006.418-.197.445-.422.034-.243-.159-.464-.381-.528a.599.599 0 0 0-.291-.018l.039.109c.337-.193.372-.685.102-.91-.273-.215-.665-.127-.823.115l.076-.006a.628.628 0 0 0-.64-.163.57.57 0 0 0-.361.355.579.579 0 0 0-.024.324c.017.073.04.106.043.105.018 0-.07-.159.031-.408a.515.515 0 0 1 .334-.3c.169-.049.399-.01.545.153l.042.047.035-.053c.124-.191.462-.257.67-.084.209.166.174.582-.085.723l-.325.176.365-.067a.479.479 0 0 1 .232.015c.183.054.327.229.302.402-.019.175-.17.331-.327.326l-.477-.019.46.127c.18.05.28.279.207.428a.34.34 0 0 1-.4.178l-.08-.029.022.083c.045.16-.096.307-.22.356a.591.591 0 0 1-.364.007c-.204-.058-.313-.114-.317-.103Z" fill="#2E353A"/><path d="M22.324 18.466c-.035-.017-1.42-.484-1.433.948-.014 1.432 1.427 1.15 1.43 1.109.003-.04.003-2.056.003-2.056Z" fill="#EFCDBB"/><path d="M21.893 19.977c-.007-.005-.025.017-.068.036a.25.25 0 0 1-.186.002c-.15-.057-.275-.299-.28-.557a.813.813 0 0 1 .073-.356c.045-.105.113-.177.189-.19a.126.126 0 0 1 .147.07c.019.04.01.07.017.071.004.004.03-.024.02-.082a.159.159 0 0 0-.055-.09.188.188 0 0 0-.138-.038c-.11.007-.211.107-.263.22a.846.846 0 0 0-.09.398c.007.29.152.56.358.622.1.027.185-.002.229-.035.043-.037.051-.068.047-.071Z" fill="#DDB9A8"/><path d="M37.85 35.123c-.126-1.302-1.723-3.067-2.143-3.737-.42-.67-.546-1.685-.546-1.685s-.42-1.719-.757-2.433c-.16-.342-.62-.818-1.055-1.222l-.002-.002c-.473-.44-.917-.793-.917-.793l-4.86-.605s.186 2.726-2.198 2.915c-2.385.189-3.225-2.894-3.225-2.894l-1.553.078s-2.48 0-3.365 1.164c-.522.687-3.87 6.884-5.049 9.179-.378.737-.35 1.63.113 2.318.295.44.725.734 1.33.423 1.42-.732 1.85-1.98 2.883-2.066a23.67 23.67 0 0 1 1.138-.06l-.757 2.807h15.824l-.51-1.986s2.414 2.294 3.924 1.986c1.512-.308 1.85-2.085 1.725-3.387Z" fill="#7B7C7C"/><path d="M25.968 20.587a.576.576 0 0 1 .458-.233.58.58 0 0 1 .46.231c.062.085.1.199.06.296-.032.08-.109.132-.188.165a.667.667 0 0 1-.758-.203c-.045-.059-.08-.146-.032-.204" fill="#DDB9A8"/><path d="M26.982 21.071c-.017.006-.05-.059-.13-.132a1.195 1.195 0 0 0-.378-.213c-.326-.122-.615-.135-.615-.169 0-.014.073-.03.194-.028.12.003.287.026.461.092a.902.902 0 0 1 .396.264c.078.1.085.183.072.186Z" fill="#2E353A"/><path d="M19.83 29.355c.002 0-.003.01-.013.028l-.044.08c-.041.07-.092.178-.154.318-.118.283-.237.714-.306 1.26-.036.271-.065.572-.1.892a8.858 8.858 0 0 1-.16 1.022 9.538 9.538 0 0 1-.338 1.09l-.419 1.151c-.019.05-.033.098-.057.148a.201.201 0 0 1-.123.112.48.48 0 0 1-.16.015c-.051 0-.103-.005-.155-.012-.205-.026-.398-.089-.59-.139a1.8 1.8 0 0 0-.569-.077 2.016 2.016 0 0 0-.537.125l-1.817.657-1.226.44-.334.118-.087.03a.13.13 0 0 1-.03.008l.03-.012.085-.034.33-.125L14.279 36l1.813-.664a2.08 2.08 0 0 1 .547-.128c.193-.014.388.027.58.077.192.05.384.111.585.137.05.007.1.012.15.012.052.002.102 0 .148-.014.097-.026.118-.141.156-.237l.42-1.15c.134-.372.257-.733.338-1.086.082-.353.125-.696.163-1.016.036-.321.067-.622.105-.894.073-.547.196-.979.319-1.262.063-.14.116-.247.16-.316l.047-.078c.015-.017.02-.026.021-.025Z" fill="#525454"/><path d="M19.936 30.332c.008.01-.19.157-.373.393-.18.238-.27.467-.282.461a.554.554 0 0 1 .055-.15c.04-.09.105-.212.197-.333.093-.121.194-.215.271-.278a.602.602 0 0 1 .132-.093ZM27.748 31.057s-.01.01-.031.025l-.093.066c-.04.029-.09.063-.151.1-.06.037-.127.082-.203.125-.153.09-.34.189-.55.29a7.36 7.36 0 0 1-.707.285 7.032 7.032 0 0 1-1.346.314c-.087.013-.168.019-.237.026-.07.007-.13.01-.18.013l-.114.005a.157.157 0 0 1-.04-.001c0-.001.014-.004.04-.007l.113-.011c.05-.005.11-.01.179-.02.069-.008.149-.016.236-.031.175-.025.381-.063.609-.114.226-.054.474-.122.73-.209a7.585 7.585 0 0 0 1.256-.563c.077-.04.144-.084.204-.12.06-.035.112-.067.154-.093l.097-.06a.118.118 0 0 1 .034-.02ZM27.684 27.183l-.015.016-.044.042a3.354 3.354 0 0 1-.176.155c-.157.131-.404.3-.736.453-.081.04-.172.07-.266.108-.093.035-.194.063-.296.093-.106.022-.212.055-.327.07l-.172.026c-.059.006-.119.01-.179.017a3.487 3.487 0 0 1-1.545-.235 3.514 3.514 0 0 1-1.271-.91l-.116-.136c-.036-.046-.07-.094-.105-.14-.07-.09-.125-.187-.185-.277-.052-.094-.104-.183-.148-.273-.04-.092-.085-.177-.115-.263a3.312 3.312 0 0 1-.224-.973l-.005-.099-.002-.061v-.021s.002.006.003.02a3.544 3.544 0 0 1 .014.16 3.426 3.426 0 0 0 .24.963c.029.085.075.17.115.26.043.09.096.178.15.27.059.09.113.186.184.274.035.046.069.093.105.138l.116.134a3.468 3.468 0 0 0 1.26.898c.257.102.52.169.778.207.258.041.512.04.751.027l.177-.015c.057-.007.115-.018.17-.026.114-.015.22-.045.324-.068.103-.03.202-.056.295-.09.092-.036.183-.064.265-.105a3.482 3.482 0 0 0 .842-.524l.075-.065.047-.04.016-.01Z" fill="#525454"/><path d="m16.636 35.259.004-.001c-.029-.006-.029-.005-.004 0ZM16.64 35.257c.005 0 .007 0 .011.002l-.01-.002ZM16.652 35.259c.038.006.016.002 0 0Z" fill="#F4B99F"/><path d="M30.408 36.152c-.387 0-2.66.827-2.66.827s-8.283-1.31-10.576-1.695a2.12 2.12 0 0 0-1.106.11l-3.261 1.189s.523 2.623 1.636 2.623c2.231 0 14.01.116 14.01.116s1.483.273 1.87-.027c.388-.302.13-.087.474-.044.345.044 1.463-.043 1.463-.043s.645-.043.861-.386c.215-.345.517-1.205.517-1.335 0-.13-2.84-1.335-3.228-1.335Z" fill="#EFCDBB"/><path d="M31.828 38.01a.349.349 0 0 1-.065.041 35.182 35.182 0 0 1-.786.433c-.118.065-.235.12-.325.189a.386.386 0 0 0-.163.24.271.271 0 0 0 .037.194c.028.039.053.051.05.054l-.018-.007a.199.199 0 0 1-.044-.039.274.274 0 0 1-.05-.205.332.332 0 0 1 .05-.14.525.525 0 0 1 .117-.125c.094-.074.21-.129.329-.194a32.98 32.98 0 0 1 .797-.413c.045-.02.07-.03.07-.029Z" fill="#DDB9A8"/><path d="M32.324 38.259c0 .005-.035.012-.092.008a.522.522 0 0 1-.383-.21c-.034-.046-.047-.08-.043-.082.01-.007.081.116.23.195.146.083.288.077.288.089Z" fill="#DDB9A8"/><path d="M28.139 21.94s-.724-.216-.652-.578a1.34 1.34 0 0 1 .324-.615s.473-.724.653-.76c.18-.037.399.18.399.18s.325-.298.579-.186c.253.113.76.44.76.44s.652-.037.76.144c.109.18.532 1.096.532 1.096s.01.665-.216.849c-.18.147-1.603 1.595-1.603 1.595s2.653 4.71 3.56 6.164c.696 1.117 3.336 4.52 3.41 5.098.071.58.398 1.376 0 1.882-.399.507-.326 1.701-1.303 1.954-.978.254-.964.384-1.593 0s-2.714-1.41-3.728-5.283c-1.013-3.873-3.076-8.47-3.076-8.47s-.723-.868-.723-1.013c0-.145-.109-.833.398-1.231.505-.396 1.519-1.265 1.519-1.265Z" fill="#EFCDBB"/><path d="M29.937 22.196c-.002-.003.031-.027.083-.076.052-.05.122-.127.194-.233.072-.107.145-.242.22-.395.037-.076.078-.156.108-.242a.496.496 0 0 0 .024-.273.526.526 0 0 0-.139-.237c-.062-.066-.132-.122-.199-.177-.132-.108-.25-.207-.352-.286a4.698 4.698 0 0 0-.248-.178c-.06-.04-.093-.063-.092-.066.001-.002.038.016.1.053.062.037.152.093.255.17.105.077.225.174.358.28.068.053.139.11.204.178a.56.56 0 0 1 .149.254.52.52 0 0 1-.025.293c-.03.09-.074.17-.113.247a2.93 2.93 0 0 1-.229.394 1.26 1.26 0 0 1-.205.23.788.788 0 0 1-.093.064Z" fill="#DDB9A8"/><path d="M30.962 20.565c0 .001-.01-.014-.035-.036a.407.407 0 0 0-.137-.062 2.063 2.063 0 0 0-.586-.04h-.002l-.002-.001a10.76 10.76 0 0 0-.57-.339c-.11-.055-.229-.144-.37-.115a.829.829 0 0 0-.388.203l-.007.007-.008-.007a.728.728 0 0 0-.263-.167c-.05-.014-.109-.022-.155.002a.58.58 0 0 0-.128.106c-.16.166-.3.366-.445.575a2.027 2.027 0 0 0-.19.337c-.053.12-.099.25-.119.383 0 .016-.005.032-.002.049l.008.049a.35.35 0 0 0 .044.089c.038.056.09.104.148.144.116.08.25.14.39.183l.026.009-.02.018a111.274 111.274 0 0 1-1.218 1.025c-.072.06-.145.119-.219.178-.036.03-.076.058-.11.09l-.052.046-.048.052a1.08 1.08 0 0 0-.244.513c-.04.191-.034.392-.018.591.008.042.037.088.062.13.027.042.055.085.084.127.058.083.119.166.181.247.125.165.257.327.39.489l.002.002v.002a72.477 72.477 0 0 1 2.013 5.068c.14.392.27.781.397 1.161.121.382.244.756.35 1.124.113.367.21.728.305 1.079l.149.514c.025.084.047.169.075.25l.085.243c.03.081.057.16.085.238l.041.119.048.114.188.445.206.416.05.1.055.098.11.19c.293.499.608.92.917 1.26.312.337.615.595.873.79.258.195.473.326.62.415a17.758 17.758 0 0 0 .221.136l-.058-.032-.168-.098a6.473 6.473 0 0 1-1.503-1.198c-.312-.34-.63-.76-.925-1.26l-.11-.19-.056-.098-.051-.102-.208-.416-.189-.447a4.348 4.348 0 0 1-.048-.114l-.042-.118-.085-.239c-.03-.08-.058-.161-.087-.243-.028-.081-.05-.167-.076-.251l-.15-.516c-.096-.35-.192-.71-.306-1.076-.106-.368-.23-.74-.351-1.122-.128-.38-.257-.77-.397-1.16a74.291 74.291 0 0 0-2.01-5.064l.002.003a16.574 16.574 0 0 1-.39-.49 6.302 6.302 0 0 1-.268-.379c-.024-.046-.054-.085-.067-.144a2.14 2.14 0 0 1 .02-.602c.039-.195.12-.383.252-.528.016-.018.032-.037.05-.053l.055-.049c.035-.033.074-.06.11-.09l.219-.176c.143-.12.284-.236.423-.35l.795-.673.006.026a1.443 1.443 0 0 1-.398-.189.63.63 0 0 1-.155-.152.382.382 0 0 1-.048-.098l-.009-.054c-.003-.018.002-.037.002-.055.021-.14.068-.268.121-.392a1.94 1.94 0 0 1 .194-.34c.145-.21.287-.41.45-.578a.622.622 0 0 1 .135-.109c.056-.028.118-.017.17-.002a.733.733 0 0 1 .272.174h-.014a.858.858 0 0 1 .398-.207.354.354 0 0 1 .208.03c.061.028.119.059.174.09.222.123.41.242.569.343H30.2c.26-.01.46.01.59.046a.38.38 0 0 1 .137.066c.014.01.02.022.025.028l.01.01Z" fill="#DDB9A8"/><path d="M28.753 21.423c.002 0 .002.019-.004.051a.552.552 0 0 1-.048.13.622.622 0 0 1-.344.297.613.613 0 0 1-.57-.104c-.024-.022-.036-.036-.034-.038.005-.005.058.046.162.089a.628.628 0 0 0 .43.017.628.628 0 0 0 .333-.274c.057-.097.069-.169.075-.168ZM29.065 22.387c-.002-.003.034-.024.091-.07.057-.046.136-.119.217-.223.083-.102.167-.235.258-.385.045-.075.093-.152.127-.239a.45.45 0 0 0 .03-.277.602.602 0 0 0-.138-.248c-.062-.07-.129-.132-.191-.195-.125-.123-.23-.24-.324-.335a3.386 3.386 0 0 0-.228-.213c-.057-.048-.09-.073-.088-.075a1.319 1.319 0 0 1 .096.063c.06.045.143.114.239.206.096.092.203.207.328.33.062.06.131.121.195.195.062.073.123.16.147.263a.488.488 0 0 1-.033.3c-.037.09-.087.169-.133.244-.092.148-.18.28-.266.384a1.302 1.302 0 0 1-.228.218.807.807 0 0 1-.099.057Z" fill="#DDB9A8"/><g opacity=".5"><path d="m28.929 33.283-.782.848-.95.637a.143.143 0 0 0-.033.206.14.14 0 0 0 .118.054c.294-.012 1.373-.064 1.433-.146.072-.094.97-1.065.97-1.065l-.756-.534Z" fill="#D1D1D1"/><path d="M29.684 33.818a9.498 9.498 0 0 1-.143.165l-.398.442-.275.305a5.152 5.152 0 0 1-.074.085l-.038.043-.018.022c-.006.006-.01.015-.024.025-.041.022-.08.028-.12.036-.04.008-.08.014-.122.02-.331.042-.695.062-1.078.081l-.113.005a.16.16 0 0 1-.116-.045.162.162 0 0 1-.006-.226c.03-.03.061-.044.09-.066l.09-.06.172-.116.627-.417-.003.002.573-.613.16-.168.044-.043.015-.014-.012.018-.04.046c-.038.042-.09.1-.154.174l-.564.62v.002h-.003l-.624.423-.173.116-.088.06c-.028.02-.063.039-.084.06a.124.124 0 0 0 .094.208c.037-.003.075-.003.113-.005.382-.02.747-.039 1.075-.08a2.31 2.31 0 0 0 .121-.017c.038-.008.08-.016.108-.031a.1.1 0 0 0 .017-.017l.02-.023.037-.044.076-.083.279-.302.407-.434.112-.117a.291.291 0 0 1 .04-.037Z" fill="#D1D1D1"/><path d="M37.086 17.682a.256.256 0 0 1 .13-.224.256.256 0 0 1 .257.008.182.182 0 0 1 .215-.126c.09.024.15.127.124.216a.21.21 0 0 1 .214.05.21.21 0 0 1 .046.213c.069.051.106.14.096.223a.248.248 0 0 1-.146.194.208.208 0 0 1 .148.188.207.207 0 0 1-.136.197c.041.074.083.162.045.238-.035.071-.123.094-.2.11-.09.02-.184.039-.277.037a.641.641 0 0 1-.398-.148.377.377 0 0 1-.172-.415" fill="#565656"/><path d="M38.002 18.7c-.004-.002.029-.023.04-.082a.137.137 0 0 0-.019-.099.14.14 0 0 0-.113-.061h-.075l.069-.027a.198.198 0 0 0 .117-.176.194.194 0 0 0-.152-.184l-.018-.004.003-.018a.168.168 0 0 0-.003-.072c-.019-.086-.097-.15-.175-.149a.201.201 0 0 0-.18.11l-.023.05-.007-.054a.15.15 0 0 0-.102-.121.14.14 0 0 0-.124.019c-.063.043-.067.095-.071.092-.001 0-.002-.011.004-.033a.155.155 0 0 1 .056-.074.162.162 0 0 1 .143-.03.179.179 0 0 1 .126.142l-.03-.005a.231.231 0 0 1 .208-.132.223.223 0 0 1 .212.175c.006.03.007.06.003.088l-.015-.021a.227.227 0 0 1 .18.22.224.224 0 0 1-.14.202l-.006-.028a.16.16 0 0 1 .132.078.15.15 0 0 1-.019.18c-.012.012-.02.016-.021.015Z" fill="#707070"/><path d="M37.157 18.942c.051-.006.098-.046.13-.097a.653.653 0 0 0 .07-.17c.085-.29.117-.597.093-.891-.01-.134-.04-.277-.13-.348a.37.37 0 0 0-.12-.053c-.072-.021-.165-.032-.21.046a.26.26 0 0 0-.029.116 3.414 3.414 0 0 0-.006.297c.002.275.012.549.032.821a.54.54 0 0 0 .05.227c.037.063.112.098.173.056" fill="#CECECE"/><path d="M34.746 18.78a.278.278 0 0 1-.192-.316.333.333 0 0 1-.08-.48.242.242 0 0 1-.074-.252.24.24 0 0 1 .205-.163.326.326 0 0 1 .044-.315.323.323 0 0 1 .296-.118.297.297 0 0 1 .126-.294.298.298 0 0 1 .32 0c.139-.197.466-.215.626-.035a.393.393 0 0 1 .542.154c.116-.112.323-.076.433.042.11.119.139.292.129.454.086.037.15.124.159.217a.275.275 0 0 1-.11.245.46.46 0 0 1-.073.636.529.529 0 0 1-.25.532" fill="#565656"/><path d="m36.701 17.814-.006-.198-1.197-.168c-.367-.021-.745.364-.75.733-.006.41.003.91.066 1.21.127.608.6.663.6.663l.124.926 1.354-.05-.19-3.116Z" fill="#D1D1D1"/><path d="M34.912 18.575a.08.08 0 0 0 .08.076.076.076 0 0 0 .078-.075.08.08 0 0 0-.08-.076c-.044 0-.079.033-.078.075ZM34.891 18.435c.01.01.068-.037.152-.04.084-.006.149.035.157.024.004-.005-.006-.023-.034-.041a.217.217 0 0 0-.247.012c-.025.021-.033.04-.028.045ZM35.756 18.557a.08.08 0 0 0 .08.076.076.076 0 0 0 .077-.075.08.08 0 0 0-.08-.076.076.076 0 0 0-.077.075ZM35.716 18.41c.01.01.067-.037.152-.04.084-.005.149.035.157.024.004-.004-.006-.023-.034-.04a.217.217 0 0 0-.247.012c-.025.022-.033.04-.028.045ZM35.446 19.052a.556.556 0 0 0-.138-.018c-.022-.002-.042-.005-.047-.02-.006-.015.002-.04.011-.064l.056-.167c.077-.238.131-.434.122-.437-.01-.003-.08.187-.158.425l-.052.168c-.007.025-.02.054-.007.086a.055.055 0 0 0 .037.03c.015.003.026.003.037.003.085 0 .139-.002.139-.006Z" fill="#565656"/><path d="M35.42 20.056s.434.004.83-.26c0 0-.172.45-.808.425l-.022-.165Z" fill="#AAACAD"/><path d="M35.693 18.173c.01.022.093.008.193.015.1.004.181.03.193.008.006-.01-.01-.03-.043-.052a.327.327 0 0 0-.145-.043.316.316 0 0 0-.15.025c-.035.017-.052.036-.048.047ZM34.88 18.145c.016.018.074-.003.144-.008.07-.007.13.006.142-.015.006-.01-.005-.029-.032-.046a.194.194 0 0 0-.118-.026.196.196 0 0 0-.112.044c-.023.021-.03.042-.023.051ZM36.02 17.428a.307.307 0 0 1-.07.133c-.037.035-.1.046-.137.01-.05.065-.167.06-.211-.01a.187.187 0 0 1-.224.027l-.181.043c-.066.016-.148.026-.19-.027-.009-.012-.017-.027-.03-.034-.015-.007-.032-.001-.048.002-.052.007-.105-.021-.138-.063a.464.464 0 0 1-.071-.14c-.028-.077-.051-.175.01-.228.024-.021.057-.03.088-.037a.453.453 0 0 1 .192-.018.337.337 0 0 1 .193.134c-.019-.04.01-.09.05-.106.04-.017.088-.008.128.01.059.024.11.066.145.119a.274.274 0 0 1 .25.146.201.201 0 0 1 .156-.031c.02.003.039.012.048.029.01.016.004.043-.015.046" fill="#565656"/><path d="M35.431 17.476a.209.209 0 0 1-.061.236.209.209 0 0 1-.244.006.188.188 0 0 1-.207.125.292.292 0 0 1-.145.26.224.224 0 0 1 .007.167.146.146 0 0 1-.067.083c-.04.018-.086.01-.127-.007a.225.225 0 0 1-.131-.122c-.021-.058-.001-.133.055-.16a.478.478 0 0 1-.126-.173c-.016-.037-.028-.081-.012-.119.015-.038.068-.061.1-.035a.182.182 0 0 1 .009-.192.184.184 0 0 1 .176-.075c0-.057.035-.112.087-.136a.153.153 0 0 1 .16.02M36.05 17.427c-.076.163.034.382.21.42a.16.16 0 0 0-.098.162.16.16 0 0 0 .133.135.288.288 0 0 0 .08.36c-.053.034-.092.097-.083.16.01.064.077.116.138.098 0 .093.068.183.158.207a.182.182 0 0 0 .002.18.182.182 0 0 0 .156.085c-.041.034-.026.103.013.139.074.066.201.038.26-.042.06-.08.06-.19.026-.284.047.017.099-.022.112-.07.014-.048-.003-.099-.026-.143-.022-.044-.05-.086-.064-.134-.004-.015-.007-.031-.001-.044.009-.021.032-.032.05-.046.073-.049.09-.15.07-.236-.02-.084-.065-.161-.096-.243-.007-.017-.013-.035-.007-.052.007-.021.027-.033.044-.047a.195.195 0 0 0 .068-.183.195.195 0 0 0-.13-.147c.049-.03.048-.103.017-.15-.03-.047-.081-.077-.126-.113-.082-.067-.147-.16-.247-.198a.263.263 0 0 0-.29.08.37.37 0 0 0-.214-.047c-.074.012-.143.076-.136.15" fill="#565656"/><path d="M35.859 16.75c-.001.002-.013-.005-.036-.006a.111.111 0 0 0-.083.036c-.027.028-.039.079-.026.13.011.051.048.1.091.147l-.021.02h-.001c-.014-.014-.048 0-.057.02-.01.022-.005.05.003.075.02.05.05.09.08.119.06.058.112.075.11.08-.002.001-.015 0-.037-.01a.343.343 0 0 1-.178-.18c-.01-.027-.02-.062-.004-.097a.077.077 0 0 1 .043-.037.061.061 0 0 1 .06.008l.001.001-.021.02a.353.353 0 0 1-.096-.16c-.013-.06.003-.119.037-.15.035-.033.075-.038.1-.033.025.005.036.016.035.017ZM36.862 16.953c-.002.003-.038-.022-.108-.024a.222.222 0 0 0-.116.03.227.227 0 0 0-.096.115l-.01.025-.014-.023a.133.133 0 0 0-.144-.047.133.133 0 0 0-.088.12v.018l-.016-.003a.176.176 0 0 0-.142.036.17.17 0 0 0-.06.102c-.011.07.015.109.01.11-.001 0-.009-.008-.017-.027a.18.18 0 0 1 .05-.203.195.195 0 0 1 .164-.045l-.017.013a.158.158 0 0 1 .107-.147.159.159 0 0 1 .175.058l-.024.003a.24.24 0 0 1 .239-.153.228.228 0 0 1 .082.023c.018.01.026.017.025.019Z" fill="#707070"/><path d="M37.425 18.253c.019.11.055.218.107.318.053.101.133.2.244.223a.274.274 0 0 0 .203-.044.408.408 0 0 0 .137-.163c.018-.036.031-.078.018-.116a.162.162 0 0 0-.055-.065c-.152-.125-.34-.201-.492-.327.127-.013.23-.108.33-.185.042-.03.086-.06.112-.104a.325.325 0 0 0 .036-.158c0-.024 0-.05-.015-.07-.017-.023-.048-.029-.076-.031a.706.706 0 0 0-.12-.002.285.285 0 0 0-.114.026.289.289 0 0 0-.099.094 1.52 1.52 0 0 0-.156.302l-.079.183" fill="#CECECE"/><path d="M37.287 18.516c-.01.114 0 .229.043.335.041.105.114.2.211.258.066.04.14.062.204.102a.52.52 0 0 1 .222.473.618.618 0 0 0 .105-.349.476.476 0 0 0-.047-.256c-.105-.185-.378-.219-.487-.403-.084-.143-.04-.33-.11-.482a.661.661 0 0 0-.144.36" fill="#CECECE"/><path d="M35.453 19.268c.017.035.034.07.06.098.026.029.063.05.101.048a.122.122 0 0 0 .099-.064.197.197 0 0 0 .02-.12c-.006-.037-.026-.08-.063-.08-.016-.002-.03.006-.044.013l-.188.094" fill="#D6D6D6"/><path d="M35.545 19.422c.002-.006.045.008.102-.02a.15.15 0 0 0 .072-.078.155.155 0 0 0-.007-.126c-.005-.01-.013-.02-.02-.028-.008-.008-.006-.007-.015-.005l-.03.014-.03.016-.107.052a.37.37 0 0 1-.103.04.355.355 0 0 1 .092-.061c.028-.018.064-.038.103-.06l.03-.015c.01-.006.02-.012.035-.018a.048.048 0 0 1 .028-.002.05.05 0 0 1 .023.016c.01.01.019.022.025.034.027.051.026.11.007.155a.168.168 0 0 1-.176.097c-.02-.003-.029-.009-.029-.01Z" fill="#565656"/><path d="m37.286 18.555.001-.009.001-.029-.002.038Z" fill="#fff" opacity=".7"/><path d="M35.33 29.789c-.043.049-.26 2.193-.26 2.193l-2.662.42-.016.827 3.283.012c.306 0 .58-.19.683-.478l.876-2.425-1.905-.55ZM32.56 29.477s-1.434 1.305-1.624 1.425c-.19.12-2.205 2.629-2.205 2.629l.79.473 4.022-3.676-.983-.851Z" fill="#C4C4C4"/><path d="m38.808 22.08.454 2.205 1.766 1.664-.453.448-2.2-1.62-.656-2.475 1.09-.222Z" fill="#D1D1D1"/><path d="M40.477 26.139c.024.011.047.244.177.37.13.125.504.197.504.197s.152.229.2.38c0 0-.19.126-.174.195.016.07.05.108.116.121.067.013.25-.047.346-.088.095-.041.206-.296.206-.296l-.17-.53-.806-.694-.398.345Z" fill="#D1D1D1"/><path d="M41.075 26.344c.001-.002.023.012.06.037.037.025.09.063.153.111s.139.106.219.176c.018.018.043.035.055.068a.073.073 0 0 1 0 .052.104.104 0 0 1-.031.04c-.027.02-.064.027-.096.02a.125.125 0 0 1-.047-.019l-.038-.022a1.552 1.552 0 0 0-.313-.127 1.29 1.29 0 0 1-.267-.09.423.423 0 0 1-.152-.115.207.207 0 0 1-.027-.044l-.008-.017c.004-.003.016.02.044.053.029.033.08.07.153.102.072.033.161.059.264.082.104.027.212.07.321.128l.04.023a.115.115 0 0 0 .036.016c.025.004.051 0 .07-.015.019-.015.03-.036.021-.056-.006-.02-.026-.037-.046-.055-.076-.07-.151-.13-.213-.18l-.146-.119c-.034-.03-.053-.047-.052-.049Z" fill="#B5B5B5"/><path d="M41.507 26.823c.004 0 .018.033.037.088.01.027.021.06.032.098.005.02.004.05-.012.07-.013.022-.032.035-.05.05a.211.211 0 0 0-.073.089.098.098 0 0 0 .004.087c.027.048.07.044.07.05 0 .001-.01.006-.028.004a.093.093 0 0 1-.061-.041.124.124 0 0 1-.014-.11.231.231 0 0 1 .082-.105c.037-.027.062-.053.052-.087l-.024-.099c-.014-.057-.02-.093-.015-.094Z" fill="#B5B5B5"/><path d="M41.455 27.389c0 .002-.011.003-.032 0-.02-.003-.05-.007-.083-.026a.14.14 0 0 1-.047-.043.107.107 0 0 1-.017-.074c.006-.055.047-.102.095-.132.024-.016.048-.027.065-.042.016-.014.02-.032.018-.053a.433.433 0 0 0-.038-.114c-.031-.063-.062-.095-.058-.099.003-.003.04.024.079.087.019.032.037.071.048.121a.085.085 0 0 1-.026.082c-.022.02-.047.032-.068.046-.044.028-.077.066-.083.108-.008.04.018.074.045.093.028.019.056.026.074.032.018.007.029.01.028.014Z" fill="#B5B5B5"/><path d="M37.82 21.567a.176.176 0 0 1 .02.052c.01.034.024.084.039.145a3.293 3.293 0 0 1 .07.984 2.204 2.204 0 0 1-.017.149c-.006.035-.01.054-.013.054-.005-.001.001-.08.007-.205a4.377 4.377 0 0 0-.07-.977c-.023-.125-.04-.2-.036-.202Z" fill="#2E353A"/><path d="M35.451 20.45s-.724.11-1.04.348c-.317.24-1.003 1.371-1.003 1.371l1.076.622.329 1.498.017.08 2.901-.005.233-1.61 1.151-.376s-.548-1.25-.766-1.532c-.33-.427-1.49-.515-1.49-.515a2.735 2.735 0 0 1-1.408.119ZM34.867 24.37s-.666.674-.895.94c-.339.393-.638 1.284-.99 2.212-.353.929-2.043 1.719-2.33 2.322-.288.602.223 1.358.61 1.544.91.439 3.534-.083 4.29.094.6.141 1.279.963 1.577.527.257-.373.553-2.057.746-3.915.136-1.3-.144-3.73-.144-3.73l-2.864.005Z" fill="#AFAFAF"/><path d="M37.739 24.346c0 .002-.01.004-.029.01l-.082.02a6.748 6.748 0 0 1-2.374.076 4.859 4.859 0 0 1-.31-.055l-.083-.018a.121.121 0 0 1-.029-.009l.03.002.084.013a7.843 7.843 0 0 0 1.34.106 7.975 7.975 0 0 0 1.339-.127l.084-.014c.02-.004.03-.004.03-.004ZM34.31 21.96c.01 0 .024.2.076.442.051.242.12.432.11.434a.482.482 0 0 1-.055-.12 2.242 2.242 0 0 1-.132-.623.5.5 0 0 1 .001-.132Z" fill="#6C6D6D"/><path d="M34.768 25.842a.24.24 0 0 1 .022-.061 4.117 4.117 0 0 1 .857-1.251.24.24 0 0 1 .05-.042c.003.003-.06.072-.155.185a5.695 5.695 0 0 0-.656.959c-.071.13-.113.212-.118.21ZM35.087 26.913a.555.555 0 0 1 .013-.098 14.208 14.208 0 0 1 .507-1.979c.036-.107.067-.194.09-.253a.437.437 0 0 1 .038-.091.533.533 0 0 1-.026.095 22.72 22.72 0 0 0-.538 1.967l-.058.262a.467.467 0 0 1-.026.097ZM37.445 26.483a14.77 14.77 0 0 0 .013.193c.004.062.007.138.01.226.001.088.004.188.002.3a11.62 11.62 0 0 1-.324 2.665c-.07.286-.142.541-.21.752-.031.107-.066.2-.094.284a7.527 7.527 0 0 1-.149.393.323.323 0 0 1 .014-.048l.045-.135c.02-.059.045-.13.071-.215.027-.083.059-.178.09-.285.064-.212.133-.466.201-.751.066-.285.13-.601.183-.935a12.65 12.65 0 0 0 .147-1.724c.004-.11.002-.212.002-.3.001-.088 0-.164-.003-.226l-.002-.143.004-.051Z" fill="#6C6D6D"/><path d="m34.216 22.626-.729-.41-.387.527-1.22-1.46-.462-.873-.434-.175s-.151.012-.378.152l.185.098.14.032c.138.08.157.354.157.354s-.012.38.082.536c.093.155.315.23.322.254 0 0 .61 1.53.895 1.903.243.317.572.662 1.025.41.194-.108 1.052-1.194 1.052-1.194l-.248-.154Z" fill="#D1D1D1"/><path d="M31.425 21.033a.284.284 0 0 0-.022-.066 4.489 4.489 0 0 0-.197-.426c-.014-.022-.025-.05-.054-.07a.072.072 0 0 0-.05-.01.101.101 0 0 0-.047.022.119.119 0 0 0-.042.089.12.12 0 0 0 .008.049l.013.042c.03.116.05.23.055.334.002.105.01.202.03.28.018.08.047.14.077.175a.254.254 0 0 0 .038.037c.01.006.013.011.014.01.004-.003-.016-.02-.041-.055a.463.463 0 0 1-.066-.171 1.453 1.453 0 0 1-.022-.276 1.504 1.504 0 0 0-.066-.386.112.112 0 0 1-.007-.038c0-.025.012-.05.03-.065.02-.015.042-.02.06-.01.018.011.03.035.044.057.05.092.092.177.128.248l.083.17a.3.3 0 0 0 .034.06Z" fill="#B5B5B5"/><path d="M34.465 22.78s-.004.008-.014.02l-.045.06-.174.22c-.077.096-.171.212-.284.347-.114.133-.241.287-.398.445a.853.853 0 0 1-.131.113 5.53 5.53 0 0 1-.081.04c-.028.011-.058.02-.086.03a.578.578 0 0 1-.38-.03 1.072 1.072 0 0 1-.327-.245 1.982 1.982 0 0 1-.264-.345 8.813 8.813 0 0 1-.415-.836 26.497 26.497 0 0 1-.393-.929l-.001-.003c.002.007-.001.001-.005 0l-.014-.01-.032-.017a.797.797 0 0 1-.19-.127.387.387 0 0 1-.095-.127.671.671 0 0 1-.043-.153c-.02-.12-.026-.24-.024-.359v.002a.805.805 0 0 0-.042-.19.28.28 0 0 0-.105-.15l.005.002c-.047-.01-.094-.02-.14-.032h-.004l-.002-.001a17.08 17.08 0 0 1-.184-.098l-.029-.016.028-.016c.12-.073.246-.134.386-.155l.004-.002.005.002.434.176.005.003.003.006.461.872-.002-.003 1.215 1.465h-.014l.291-.39c.033-.041.058-.075.076-.1l.027-.032s-.007.013-.023.036l-.072.102c-.066.09-.162.223-.284.394l-.007.009-.008-.009-1.225-1.456v-.001l-.002-.002-.463-.872.008.008-.434-.175.009.001a1.02 1.02 0 0 0-.369.15v-.03l.184.097-.005-.002.141.032h.003l.002.002c.063.04.098.104.122.168a.798.798 0 0 1 .044.2v.002c-.002.117.003.236.023.352.009.05.02.1.04.144.02.044.052.081.088.115a.798.798 0 0 0 .118.086c.02.013.042.024.063.037l.033.018.016.01c.006.005.012.006.02.024v-.002c.129.321.26.631.39.928.133.296.263.58.41.834.075.127.165.238.26.34.094.102.2.187.316.241a.563.563 0 0 0 .647-.143c.156-.155.285-.308.4-.44.113-.132.21-.247.287-.342a78.743 78.743 0 0 1 .227-.273l.019-.02Z" fill="#B5B5B5"/><path d="M33.076 23.485c-.01 0 .003-.171.013-.382.01-.21.013-.38.024-.38.01 0 .024.17.013.382-.01.212-.04.382-.05.38Z" fill="#B5B5B5"/><path d="m31.142 22.292-.063-.037.065-.034.037-.062.034.064.063.038-.066.032-.036.064-.034-.065ZM36.946 22.729l-.106-.066.114-.054.066-.106.054.114.106.066-.114.054-.067.105-.053-.113ZM36.936 26.611l-.106-.067.113-.053.068-.107.052.114.106.067-.113.053-.067.106-.053-.113ZM33.361 27.819l-.105-.067.113-.053.066-.106.054.113.106.067-.114.053-.067.106-.053-.113ZM34.687 21.487l-.107-.067.114-.053.067-.107.053.114.106.067-.113.052-.068.107-.052-.113ZM37.22 22.31l-.072-.008.045-.058.008-.072.057.046.073.008-.046.056-.008.073-.057-.046ZM35.684 23.999l-.072-.008.045-.056.01-.073.056.046.073.008-.046.057-.008.072-.058-.046ZM37.08 25.616l-.072-.009.046-.057.008-.073.056.046.073.008-.046.058-.008.072-.056-.045ZM32.66 29.062l-.072-.008.046-.056.008-.073.056.046.073.007-.046.058-.008.072-.056-.046ZM33.635 28.596l-.073-.008.046-.057.007-.073.058.046.073.008-.046.058-.009.072-.056-.046ZM34 26.821l-.073-.007.046-.058.008-.073.057.046.073.009-.046.056-.008.073-.057-.046Z" fill="#FAFAFA"/><path d="m33.083 32.293-1.831.233.141 1.83c.174-.024.447-1.127.447-1.127l1.18.002.063-.938Z" fill="#D1D1D1"/><path d="M33.019 33.232c0 .001-.007.002-.021.002l-.062.002-.236.004c-.208 0-.502.003-.859.005l.014-.012c-.042.171-.093.357-.156.554-.032.099-.066.2-.108.302-.02.05-.043.101-.07.152a.565.565 0 0 1-.048.074c-.018.023-.038.049-.077.059l-.02.004-.002-.02-.048-.634-.092-1.197v-.017l.016-.002 1.32-.16c.16-.02.286-.034.377-.044l.1-.01.035-.002a6.118 6.118 0 0 0-.134.022l-.376.053-1.318.175.015-.018.094 1.196.049.633-.021-.014c.017-.004.038-.023.054-.044a.573.573 0 0 0 .044-.07 1.75 1.75 0 0 0 .07-.148c.041-.1.076-.2.108-.299.064-.195.116-.38.16-.55l.003-.012h.011l.86.008.235.004.062.002.021.002Z" fill="#D1D1D1"/><path d="m36.788 32.119-.015-.007-.045-.023a8.876 8.876 0 0 1-.169-.093c-.146-.08-.353-.21-.619-.347a1.653 1.653 0 0 0-.457-.16 2.297 2.297 0 0 0-.557-.026c-.395.02-.827.068-1.283.112-.228.022-.451.04-.666.051-.216.01-.425.017-.624 0a2.71 2.71 0 0 1-1.016-.275 1.588 1.588 0 0 1-.546-.452l-.063-.093c-.017-.027-.027-.053-.038-.072l-.022-.045a.118.118 0 0 1-.007-.016l.01.014a2.7 2.7 0 0 0 .026.043c.011.02.023.044.04.07l.065.09c.1.133.282.3.547.438.265.133.612.235 1.006.265.196.015.404.007.619-.003.215-.012.438-.03.665-.051.455-.044.889-.092 1.285-.11.2-.01.39-.005.565.03.175.034.33.098.463.168.266.141.47.274.614.357.07.041.125.075.166.1l.043.025.013.01Z" fill="#6C6D6D"/></g><g opacity=".5"><path d="m33.57 20.031-.079-.05.086-.04.05-.08.04.086.08.05-.086.04-.05.08-.04-.086Z" fill="#AFAFAF"/><path d="m33.57 20.031-.079-.05.086-.04.05-.08.04.086.08.05-.086.04-.05.08-.04-.086Z" fill="#AFAFAF" opacity=".6"/><path d="m39.206 21.466-.081-.05.085-.04.051-.08.04.085.08.051-.085.04-.051.08-.04-.085Z" fill="#AFAFAF"/><path d="m39.206 21.466-.081-.05.085-.04.051-.08.04.085.08.051-.085.04-.051.08-.04-.085Z" fill="#AFAFAF" opacity=".6"/><path d="m39.334 27.005-.08-.05.085-.04.05-.08.04.085.08.051-.085.04-.051.08-.04-.086Z" fill="#AFAFAF"/><path d="m39.334 27.005-.08-.05.085-.04.05-.08.04.085.08.051-.085.04-.051.08-.04-.086Z" fill="#AFAFAF" opacity=".6"/><path d="m33.141 19.61-.136-.068.131-.078.069-.136.077.131.138.068-.132.078-.069.137-.078-.131Z" fill="#AFAFAF"/><path d="m33.141 19.61-.136-.068.131-.078.069-.136.077.131.138.068-.132.078-.069.137-.078-.131Z" fill="#AFAFAF" opacity=".6"/><path d="m39.933 20.28-.136-.07.131-.077.069-.136.077.131.138.068-.132.078-.069.137-.078-.131Z" fill="#AFAFAF"/><path d="m39.933 20.28-.136-.07.131-.077.069-.136.077.131.138.068-.132.078-.069.137-.078-.131Z" fill="#AFAFAF" opacity=".6"/><path d="m38.797 28.697-.138-.069.132-.078.069-.136.078.13.136.07-.132.078-.068.136-.078-.13Z" fill="#AFAFAF"/><path d="m38.797 28.697-.138-.069.132-.078.069-.136.078.13.136.07-.132.078-.068.136-.078-.13Z" fill="#AFAFAF" opacity=".6"/></g><g opacity=".5"><path d="m19.726 21.792-.134.524-.122.23.462.3.221-.174.355-.62s.397-.23.443-.324c.045-.094.02-.112.02-.112l-.533.259s.02-.08.128-.15c.108-.07.315-.176.326-.253.012-.077-.017-.08-.017-.08l-.425.197s.312-.203.322-.265a.105.105 0 0 0-.03-.096l-.285.08-.399.136-.332.348Z" fill="#D1D1D1"/><path d="M19.763 22.155c-.001-.002.016-.014.049-.035.032-.02.08-.05.14-.084.06-.035.13-.076.212-.118a.2.2 0 0 1 .07-.024.138.138 0 0 1 .136.073.119.119 0 0 1 0 .085.226.226 0 0 1-.061.095c-.027.025-.056.044-.084.064a2.84 2.84 0 0 1-.159.1l.005-.012a.302.302 0 0 1 .014.152.274.274 0 0 1-.094.163.079.079 0 0 1-.022.014c-.002-.002.029-.023.063-.076a.262.262 0 0 0 .037-.103.299.299 0 0 0-.017-.142l-.003-.008.008-.005c.049-.03.101-.064.156-.102.027-.019.056-.039.08-.062a.217.217 0 0 0 .055-.085.096.096 0 0 0 .001-.067.109.109 0 0 0-.046-.047c-.04-.02-.087-.013-.126.009-.08.04-.152.08-.213.113l-.144.077c-.037.017-.057.027-.057.025ZM20.463 21.568a1.008 1.008 0 0 1-.3.131l.01-.013c-.003.065-.029.112-.046.145-.018.032-.035.049-.038.047-.003-.002.009-.02.023-.054.014-.033.035-.082.036-.137v-.01l.01-.002a.467.467 0 0 0 .055-.016c.137-.05.247-.098.25-.09Z" fill="#B5B5B5"/><path d="M15.87 21.172s.59-.145 1.109.218c.517.363 1.638 2.179 1.638 2.179l.726-1.164.817.38s-.818 1.761-.99 2.012c-.043.062-.142.189-.25.231-.534.205-.964-.1-1.208-.525l-1.173-1.645" fill="#595B5B"/><path d="M16.657 17.174a.437.437 0 0 1 .412.047c.117.084.187.23.178.375.105-.074.263-.04.344.06.08.1.087.247.035.364.104.079.08.27-.038.32.149.035.218.231.152.37-.015.032-.036.07-.019.1.01.018.029.026.045.038.105.068.112.243.013.318-.023.019-.054.037-.051.067.003.029.035.042.058.06.057.04.068.126.038.188a.267.267 0 0 1-.16.127c.081.038.128.136.108.223a.204.204 0 0 1-.195.152c.036.031.072.063.092.105.02.042.02.098-.013.13-.026.026-.065.032-.102.037l-.22.029c.067.044.023.16-.052.183-.076.024-.157-.01-.228-.045-.116.078-.66.009-.776-.069" fill="#565656"/><path d="M17.05 19.056a.29.29 0 0 0 .216-.32.35.35 0 0 0 .11-.498.253.253 0 0 0 .09-.26.253.253 0 0 0-.206-.181.34.34 0 0 0-.03-.333.34.34 0 0 0-.303-.139.312.312 0 0 0-.116-.314.312.312 0 0 0-.334-.017c-.135-.212-.476-.248-.653-.07a.411.411 0 0 0-.575.134c-.115-.123-.334-.098-.456.021-.12.119-.16.299-.158.469a.284.284 0 0 0-.178.219.288.288 0 0 0 .103.263.482.482 0 0 0 .041.669.555.555 0 0 0 .234.57" fill="#565656"/><path d="m15.044 17.942.017-.207 1.261-.112c.386-.003.76.421.747.806-.015.429-.05.95-.133 1.264-.165.629-.663.661-.663.661l-.178.962-1.414-.123.364-3.251Z" fill="#D1D1D1"/><path d="M16.902 18.84a.083.083 0 0 1-.088.075.078.078 0 0 1-.076-.083.083.083 0 0 1 .087-.075c.045.002.08.04.077.083ZM16.912 18.688c-.011.01-.069-.042-.156-.051-.089-.01-.158.029-.165.017-.004-.005.007-.023.038-.041a.226.226 0 0 1 .257.027c.024.023.031.043.026.048ZM16.041 18.78a.083.083 0 0 1-.087.075.078.078 0 0 1-.077-.083.083.083 0 0 1 .087-.075c.046.003.08.04.077.083ZM16.034 18.618c-.011.01-.069-.043-.156-.051-.089-.01-.158.029-.166.017-.004-.005.007-.023.038-.041a.227.227 0 0 1 .257.027c.025.024.032.044.027.048ZM16.295 19.303c0-.005.056-.009.146-.012.023 0 .044-.002.05-.017.006-.015 0-.041-.009-.068l-.05-.178c-.068-.253-.115-.46-.104-.462.01-.003.073.2.142.453.016.062.031.122.047.178.005.027.017.057.003.09a.056.056 0 0 1-.04.029c-.015.002-.029.001-.04.001a.583.583 0 0 1-.145-.014Z" fill="#565656"/><path d="M16.268 20.355s-.454-.018-.854-.317c0 0 .17.469.838.476l.017-.159Z" fill="#B5B5B5"/><path d="M16.03 19.338c.014.002.005.096.08.172.075.076.178.076.178.09.001.005-.025.016-.068.013a.239.239 0 0 1-.149-.07.212.212 0 0 1-.061-.143c0-.04.013-.063.02-.061ZM16.108 18.502c-.02.018-.092-.033-.19-.07-.097-.04-.186-.052-.188-.077-.001-.012.023-.025.063-.03.04-.005.098 0 .156.023a.328.328 0 0 1 .13.089c.03.032.037.058.029.065ZM16.928 18.351c-.013.022-.076.008-.15.014-.072.004-.133.028-.15.01-.007-.01 0-.032.026-.054a.205.205 0 0 1 .118-.046c.05-.004.096.01.123.028.029.017.04.037.033.048ZM15.79 17.575a.32.32 0 0 0 .064.143c.037.038.103.053.143.018.05.07.172.07.222 0 .057.063.159.08.232.04l.189.054c.068.02.153.036.2-.018.01-.013.018-.029.034-.035.015-.006.033.001.049.004.054.01.11-.017.148-.057.037-.04.06-.093.081-.143.034-.078.063-.181.001-.24a.202.202 0 0 0-.09-.042.476.476 0 0 0-.199-.029.354.354 0 0 0-.209.13c.021-.04-.006-.094-.047-.114-.041-.02-.091-.014-.134.003a.355.355 0 0 0-.159.116.29.29 0 0 0-.269.14.21.21 0 0 0-.162-.041c-.02.003-.04.01-.052.027-.011.018-.006.045.014.05" fill="#565656"/><path d="M16.406 17.657a.218.218 0 0 0 .052.25c.068.06.178.068.254.02.023.089.12.154.21.14-.009.109.047.221.139.28a.235.235 0 0 0-.017.174c.011.037.033.072.067.09.04.022.09.016.132 0a.238.238 0 0 0 .144-.12c.025-.06.008-.139-.049-.17a.51.51 0 0 0 .141-.175c.02-.038.034-.083.02-.124-.015-.04-.069-.068-.103-.042a.191.191 0 0 0 0-.2.195.195 0 0 0-.181-.088.162.162 0 0 0-.083-.147.16.16 0 0 0-.168.014M15.76 17.572c.068.175-.057.397-.243.428a.167.167 0 0 1 .094.175.167.167 0 0 1-.147.133.302.302 0 0 1-.103.373c.054.038.092.106.078.172-.013.066-.086.118-.15.096a.228.228 0 0 1-.175.208.187.187 0 0 1-.012.186.188.188 0 0 1-.168.082c.042.036.023.11-.02.144-.081.065-.214.029-.272-.058-.058-.086-.052-.203-.012-.298-.05.015-.103-.03-.114-.08-.012-.051.008-.104.034-.149.026-.045.058-.087.074-.137.005-.016.009-.032.004-.046-.008-.023-.031-.036-.05-.05-.074-.055-.085-.162-.06-.25.025-.09.077-.166.113-.25.008-.017.014-.036.01-.055-.006-.022-.027-.037-.043-.051a.206.206 0 0 1-.062-.195.205.205 0 0 1 .142-.147c-.049-.033-.044-.11-.01-.158.035-.048.09-.076.138-.111.09-.066.163-.16.27-.194a.274.274 0 0 1 .297.099.392.392 0 0 1 .228-.039c.075.016.146.087.134.164M17.458 19.511c0-.002-.01-.002-.024-.008a.088.088 0 0 1-.042-.053.108.108 0 0 1 .018-.102.36.36 0 0 1 .114-.09l-.013-.02a.183.183 0 0 1-.193-.009c-.064-.038-.089-.128-.057-.203a.167.167 0 0 1 .044-.065c.018-.016.043-.032.062-.03.017 0 .027.023.026.045-.001.02-.018.034-.039.042-.042.012-.09-.003-.124-.025a.229.229 0 0 1-.08-.084.226.226 0 0 1-.016-.168c.012-.039.026-.06.023-.06 0-.001-.019.016-.034.057a.23.23 0 0 0 .094.276.18.18 0 0 0 .146.03.097.097 0 0 0 .038-.021.07.07 0 0 0 .02-.043.082.082 0 0 0-.008-.047.056.056 0 0 0-.044-.031.085.085 0 0 0-.047.011.204.204 0 0 0-.09.103.211.211 0 0 0-.008.135.182.182 0 0 0 .076.105.208.208 0 0 0 .223.006l-.013-.021a.357.357 0 0 0-.118.099.125.125 0 0 0-.015.118c.013.031.036.05.053.054a.057.057 0 0 0 .028 0Z" fill="#565656"/><path d="M16.478 17.026a.33.33 0 0 0-.002-.368.332.332 0 0 0-.347-.127c-.027.007-.054.018-.08.015-.047-.006-.078-.047-.114-.077a.265.265 0 0 0-.273-.037.267.267 0 0 0-.153.23c-.198-.129-.507-.008-.565.222a.432.432 0 0 0-.546-.002.433.433 0 0 0-.082.54c-.133 0-.194.193-.116.3.016.022.035.043.035.068 0 .048-.06.067-.106.08a.371.371 0 0 0-.253.217c-.04.11 0 .247.102.303-.056-.073-.178-.048-.243.017-.14.14-.077.42.11.487a.348.348 0 0 0-.18.303.348.348 0 0 0 .186.299c.038.019.084.035.103.075.028.06-.027.12-.059.178a.295.295 0 0 0 .142.401c.04.016.084.023.12.047.029.02.05.05.074.076.052.06.122.113.202.12.08.006.168-.045.18-.125a.26.26 0 0 0 .286.123.26.26 0 0 0 .188-.248c.082.011.135-.097.117-.179-.019-.081-.076-.149-.101-.228-.032-.1-.01-.207.01-.309.024-.113.048-.227.088-.337.019-.054.043-.108.055-.165a.445.445 0 0 0-.117-.4" fill="#565656"/><path d="M14.418 17.093c-.166-.034-.34.127-.32.296-.066-.027-.146.004-.191.059a.311.311 0 0 0-.063.201c0 .02 0 .04-.01.057-.015.023-.047.027-.074.034a.216.216 0 0 0-.152.247.236.236 0 0 0-.206.162.234.234 0 0 0 .08.248c-.136.093-.122.334.024.412-.11.107-.058.327.09.372l.09-.062c.048.039.099.078.16.084.06.006.13-.037.129-.098a.304.304 0 0 0 .308-.282c.001-.039-.005-.078.009-.114.016-.045.06-.074.09-.11a.253.253 0 0 0 .06-.2c-.007-.041-.024-.08-.026-.123-.002-.062.03-.12.048-.18a.454.454 0 0 0-.023-.322" fill="#565656"/><path d="m5.573 29.108-1.037-.416s-.772.913-.97.856l.735-2.04 1.642.582-.37 1.018Z" fill="#595B5B"/><path d="M4.852 28.093A.089.089 0 0 0 4.778 28a.086.086 0 0 0-.092.073c-.004.043.035.097.079.097.043 0 .093-.043.087-.086M4.3 27.507l.163.065-.766 1.932s-.072.076-.133.043l.736-2.04Z" fill="#fff" opacity=".6"/><path d="M4.531 28.728c-.01-.004.004-.055-.01-.116-.013-.06-.047-.102-.04-.11.005-.008.06.029.076.103.017.073-.017.13-.026.123ZM4.366 28.91c-.011 0-.012-.05-.043-.1-.029-.05-.07-.074-.067-.084.002-.01.063.004.099.066.037.06.02.121.01.118ZM4.069 28.94c0-.01.055-.007.1.038.046.046.05.1.04.101-.01.003-.028-.038-.066-.075-.036-.036-.077-.054-.074-.065ZM4.782 28.797c-.007-.008.024-.048.04-.106.017-.057.014-.107.025-.11.01-.003.03.053.01.12-.02.068-.068.104-.075.096ZM4.992 28.877c-.004-.001.004-.043.038-.102a.479.479 0 0 1 .122-.142c.01-.008.02-.016.036-.022.014-.008.043-.004.055.014a.057.057 0 0 1 .006.052c-.004.015-.012.026-.019.037a.365.365 0 0 1-.141.128c-.06.03-.104.034-.105.029-.001-.006.038-.017.092-.053a.405.405 0 0 0 .123-.125c.014-.019.02-.037.013-.047-.003-.003-.004-.004-.013-.002a.376.376 0 0 0-.076.06.57.57 0 0 0-.073.085c-.036.052-.053.09-.058.088Z" fill="#2E353A"/><path d="M4.982 28.859c0-.004.043-.011.109.008a.357.357 0 0 1 .16.103c.015.02.037.043.027.084-.007.02-.029.031-.044.032-.016.002-.029 0-.041-.003a.252.252 0 0 1-.16-.107c-.038-.058-.035-.104-.031-.104.005-.002.012.04.052.09a.24.24 0 0 0 .144.086c.023.005.044.003.045-.006.003-.01-.007-.034-.02-.048a.348.348 0 0 0-.142-.102c-.058-.025-.1-.027-.099-.033Z" fill="#2E353A"/><path d="m8.225 31.75-1.099-.204s-.576 1.048-.783 1.03l.318-2.144 1.726.247-.162 1.07Z" fill="#595B5B"/><path d="M7.32 30.895a.09.09 0 0 0-.09-.075.086.086 0 0 0-.076.089c.004.043.053.087.097.08.043-.01.082-.06.068-.102M6.662 30.431l.172.032-.37 2.044s-.055.09-.12.069l.318-2.145Z" fill="#fff" opacity=".6"/><path d="M7.132 31.582c-.01-.002-.008-.055-.034-.111-.025-.058-.066-.09-.06-.1.003-.01.063.015.094.084.03.07.01.13 0 .127ZM7.003 31.794c-.01 0-.02-.047-.06-.09-.037-.043-.085-.06-.083-.07 0-.01.063-.008.11.046.049.052.044.115.033.114ZM6.72 31.881c-.001-.01.054-.016.106.02.054.035.07.087.06.09-.01.005-.036-.031-.08-.06-.043-.03-.087-.04-.086-.05ZM7.39 31.6c-.008-.005.013-.052.018-.111.006-.06-.007-.108.003-.113.009-.005.04.046.033.116-.005.07-.046.115-.053.108ZM7.606 31.638c-.004-.001-.004-.043.017-.108a.507.507 0 0 1 .093-.164c.008-.008.016-.02.03-.029.012-.01.04-.012.056.004a.06.06 0 0 1 .018.05.39.39 0 0 1-.124.192c-.054.043-.095.054-.097.05-.003-.005.033-.025.079-.069a.42.42 0 0 0 .096-.146c.01-.022.012-.041.002-.048-.003-.003-.004-.003-.012.001-.007.004-.014.013-.022.021a.65.65 0 0 0-.097.15c-.024.056-.033.097-.039.096Z" fill="#2E353A"/><path d="M7.597 31.622c-.001-.004.04-.02.107-.013a.349.349 0 0 1 .177.07c.02.015.045.035.044.076-.002.021-.021.036-.036.04-.016.005-.028.005-.042.005a.247.247 0 0 1-.176-.073c-.05-.05-.056-.096-.052-.096.006-.003.02.037.069.077a.24.24 0 0 0 .158.057c.023 0 .043-.006.043-.015.001-.01-.013-.032-.03-.043a.376.376 0 0 0-.158-.072c-.062-.013-.103-.008-.104-.013Z" fill="#2E353A"/><path d="M13.07 25.559c.031.018-.59.477-.726.826-.164.42-.519.878-.519.878l-2.294 1.686-3.844-.957-.319 1.034 4.06 1.818c.24.1.513.084.74-.043l3.732-2.384 1.533-1.341-2.364-1.517Z" fill="#595B5B"/><path d="m8.176 30.64 3.738.176 2.555-4.436 1.216.749-.441 1.161c-.708 1.443-1.867 3.927-2.22 4.101-.491.243-5-.678-5-.678" fill="#595B5B"/><path d="M14.437 27.167c-.003.004.022.02.023.06 0 .02-.007.044-.025.059-.018.015-.047.015-.071 0-.024-.014-.039-.04-.033-.062a.076.076 0 0 1 .04-.05c.035-.019.062-.003.064-.008 0-.001-.004-.008-.017-.012a.08.08 0 0 0-.055.001.092.092 0 0 0-.058.063c-.01.034.012.075.044.094.033.02.078.02.104-.006a.093.093 0 0 0 .028-.08.077.077 0 0 0-.025-.05c-.012-.01-.02-.01-.02-.01ZM12.55 26.38a.708.708 0 0 0 .126.135.937.937 0 0 0 .848.178.792.792 0 0 0 .171-.073c-.002-.005-.065.027-.175.052a1.01 1.01 0 0 1-.435.008 1.012 1.012 0 0 1-.396-.181c-.09-.068-.135-.122-.14-.12Z" fill="#4D5A64"/><path d="M13.374 22.927c.002.024.356 1.775.355 1.8a.709.709 0 0 1-.422.641c-.95.513-1.052 1.148-1.242 1.547 1.565 1.429 3.3 1.076 3.3 1.076 1.191-2.155 1.167-3.916 1.244-4.508.078-.59-.095-1.946-.095-1.946l-.387-.368-.528-.085-.901-.3-.015.11-.356.087c-.352-.067-.648.048-.648.048-.206.106-.316.289-.365.518-.075.43-.03.897.06 1.38Z" fill="#595B5B"/><path d="M15.34 17.362a.907.907 0 0 0-.043-.539c-.048-.116-.12-.225-.14-.348 0-.005-.002-.011 0-.016.004-.01.015-.012.025-.013.082-.008.147.061.199.124.168.202.345.426.352.689 0 .013 0 .028-.004.04a.1.1 0 0 1-.023.034.263.263 0 0 1-.204.076.26.26 0 0 1-.19-.107" fill="#323333"/><path d="M16.012 20.698c-.027-.016-.268-.51-.262-.596.006-.086.049-.371.049-.371s-.088-.268-.07-.306c.016-.039.033-.076.114-.03.108.064.108.24.108.24s.21-.32.27-.331c.06-.01.138.018.138.018s.08-.056.137-.048c.056.008.152.075.152.075.076-.003.143.005.184.047l.023.044-.008.057s.088-.047.072.073c-.015.12-.085.61-.085.65 0 .04-.077.234-.126.338a.64.64 0 0 1-.082.143l-.614-.003Z" fill="#D1D1D1"/><path d="m16.012 20.698.042-.002.12-.001.45-.001-.006.003c.05-.066.087-.151.124-.241a2.435 2.435 0 0 0 .078-.218c.002-.007.002-.012.002-.018 0-.008 0-.015.002-.022l.005-.04.045-.35.025-.185c.003-.031.011-.064.007-.092-.002-.014-.007-.026-.018-.03-.01-.003-.027 0-.038.006l-.019.01.003-.02.008-.057.001.007-.023-.044.002.003c-.04-.042-.11-.047-.175-.044h-.004l-.003-.002a.695.695 0 0 0-.085-.05c-.03-.015-.061-.028-.094-.02a.297.297 0 0 0-.097.044l-.005.002-.006-.002a.272.272 0 0 0-.136-.015c-.034.02-.067.063-.096.098-.058.074-.111.15-.162.226l-.018.027-.001-.033a.341.341 0 0 0-.052-.18.17.17 0 0 0-.067-.06c-.027-.014-.057-.018-.07.006a.09.09 0 0 0-.016.036.156.156 0 0 0 .005.042 3.302 3.302 0 0 0 .066.248l.001.002v.002l-.03.22c-.004.035-.01.07-.013.102a.82.82 0 0 1-.007.05c0 .014.004.03.008.044.036.12.083.218.12.3.037.082.068.144.09.186.022.042.037.063.037.063-.006.003-.06-.083-.137-.245-.037-.082-.086-.18-.124-.3-.004-.016-.01-.032-.01-.05l.007-.049.012-.102.028-.222v.004a2.348 2.348 0 0 1-.068-.25c-.003-.016-.006-.03-.005-.048.002-.02.01-.032.018-.047a.056.056 0 0 1 .047-.027c.019 0 .035.007.05.015.029.014.056.036.074.064a.372.372 0 0 1 .056.192l-.02-.006c.05-.076.103-.152.162-.227.032-.037.057-.076.105-.105.055-.013.103.001.152.015l-.01.001a.32.32 0 0 1 .105-.048c.04-.01.078.007.109.022a.603.603 0 0 1 .088.053l-.007-.002c.067-.002.142.001.191.051l.001.001.001.001c.008.015.017.03.023.044l.002.003v.004l-.007.057-.017-.012c.017-.008.035-.013.056-.008.022.008.03.031.033.047.003.037-.005.068-.008.1l-.026.185-.047.347-.005.042c0 .006 0 .013-.002.019a.087.087 0 0 1-.003.022c-.005.028-.015.052-.024.078-.018.05-.037.096-.056.142-.04.092-.076.176-.129.245l-.002.003h-.004a66.193 66.193 0 0 0-.57-.008l-.04-.001Z" fill="#B5B5B5"/><path d="M15.859 20.014a.812.812 0 0 1 .04-.208c.031-.113.056-.204.063-.203.006.001-.01.095-.04.209a1.27 1.27 0 0 1-.063.202ZM16.362 19.316a.874.874 0 0 1-.096.166.85.85 0 0 1-.115.155.787.787 0 0 1 .096-.166.777.777 0 0 1 .115-.155ZM16.655 19.33a.748.748 0 0 1-.102.192.748.748 0 0 1-.138.169c-.005-.004.052-.082.118-.182.067-.099.117-.181.122-.178ZM16.85 19.464a.424.424 0 0 1-.086.153.445.445 0 0 1-.126.122c-.005-.004.05-.06.107-.136.06-.076.1-.142.105-.139Z" fill="#B5B5B5"/><path d="M13.855 20.98s.46.317.745.561c.53.455 1.2 1.086 1.2 1.086l.014-1.973.882.018s.564 2.473.274 2.994c-.256.457-.69.582-1.122.49-.434-.09-2.506-1.407-2.506-1.407s-.103-.562-.051-1.054c.073-.697.564-.715.564-.715Z" fill="#595B5B"/><path d="M14.476 21.325c0-.001.01.006.025.02.018.017.04.04.07.067l.266.256.974.95-.023.01.01-1.973v-.019h.018c.282.005.578.01.882.017h.014l.003.014c.078.356.13.73.184 1.113.027.2.054.397.087.59.03.194.08.38.11.57.027.188.034.383-.025.563a.801.801 0 0 1-.333.422 1.09 1.09 0 0 1-.485.167 1.436 1.436 0 0 1-.483-.044c-.305-.078-.562-.223-.789-.358-.226-.136-.429-.263-.616-.357-.187-.093-.357-.158-.489-.227a1.33 1.33 0 0 1-.284-.187c-.057-.053-.082-.085-.082-.085l.022.02a1.4 1.4 0 0 0 .351.239c.132.066.302.129.49.22.19.093.394.22.62.354.228.133.484.275.783.35.15.038.31.058.472.043.162-.017.326-.07.47-.163a.767.767 0 0 0 .318-.405c.056-.17.05-.36.022-.546-.029-.186-.08-.374-.11-.57-.032-.193-.06-.39-.088-.59a14.964 14.964 0 0 0-.181-1.11l.017.014-.882-.017.018-.017-.017 1.972v.033l-.023-.023-.965-.958-.261-.262a3.225 3.225 0 0 1-.067-.07l-.023-.023Z" fill="#2E353A"/><path d="m8.73 22.054.024.002.072.008.28.019c.12.01.271.018.438.075a.886.886 0 0 1 .454.366c.119.186.173.44.114.695a.767.767 0 0 1-.188.352c-.096.103-.221.174-.345.246-.123.073-.255.14-.362.242-.107.101-.193.23-.251.372a1.312 1.312 0 0 0-.01.933c.114.308.333.56.58.744.25.186.53.306.805.378a2.745 2.745 0 0 0 2.03-.285c.073-.045.14-.086.201-.128.059-.046.115-.083.16-.122l.122-.106c.034-.032.06-.061.083-.083l.052-.051a.088.088 0 0 1 .018-.017.146.146 0 0 1-.015.02l-.05.053c-.021.023-.047.054-.08.087l-.12.108c-.047.04-.102.08-.16.125-.06.043-.129.086-.202.133a2.752 2.752 0 0 1-2.05.3 2.341 2.341 0 0 1-.817-.382 1.715 1.715 0 0 1-.595-.76 1.344 1.344 0 0 1 .012-.96c.06-.147.15-.28.261-.384.113-.107.246-.174.37-.247.124-.072.246-.142.338-.24a.734.734 0 0 0 .181-.336.893.893 0 0 0-.106-.673.865.865 0 0 0-.44-.361c-.16-.058-.31-.068-.431-.08a5.863 5.863 0 0 1-.278-.026.708.708 0 0 1-.096-.017Z" fill="#919191"/><path d="m9.089 22.65-1.01-.758 1.343-.184-.46.38.127.561Z" fill="#323333"/><path d="m9.422 21.707-.46.38-.884-.195 1.344-.184Z" fill="#000" opacity=".3"/><path d="M8.95 30.63c0-.001.005 0 .016.005l.047.017.181.068.288.107c.057.019.117.04.181.06.063.018.136.014.208.002.147-.026.294-.102.438-.202l.48-.301c.338-.21.71-.44 1.1-.684.39-.244.757-.483 1.085-.708.328-.225.615-.44.855-.622a19.365 19.365 0 0 0 .712-.56c.034-.03.051-.045.052-.044l-.011.013a3.138 3.138 0 0 1-.18.165c-.13.11-.32.263-.558.447-.238.184-.523.403-.851.63-.328.227-.694.467-1.084.712-.39.245-.763.472-1.102.68l-.48.298c-.146.1-.3.177-.451.203a.474.474 0 0 1-.218-.007 2.524 2.524 0 0 1-.183-.062 10.946 10.946 0 0 1-.464-.188l-.046-.02-.016-.01ZM15.593 23.984a.598.598 0 0 1-.182.07c-.117.03-.284.057-.47.044a.914.914 0 0 1-.452-.136.373.373 0 0 1-.064-.051c-.018-.018-.033-.031-.042-.046-.02-.028-.03-.045-.028-.045.005-.005.047.059.148.12.1.062.26.108.44.12.18.013.345-.01.461-.033.117-.023.186-.05.19-.043ZM14.028 25.448c-.007.007-.125-.106-.22-.283-.098-.175-.13-.337-.12-.338.01-.003.058.15.153.32.092.172.196.295.187.302Z" fill="#2E353A"/><path d="M14.42 23.909c.17.266.409.53.723.561.19.02.417-.04.548.1.04.041.062.096.099.14.126.148.382.12.52-.019.137-.138.175-.347.168-.542 0-.032-.006-.07-.033-.087-.018-.011-.04-.011-.062-.01-.223.009-.454.014-.664-.063-.025-.008-.051-.019-.077-.019-.032 0-.061.016-.09.03-.361.17-.787.108-1.131-.091ZM13.268 28.816c-.152.108-.25.101-.358.254-.108.152-.257.454-.257.454.02 0-.352.583-.521.915l.172-.123c.33-.167.684-.326.903-.624.132-.18.204-.395.3-.595.172-.361.432-.68.75-.924-.345.112-.664.414-.989.643Z" fill="#000" opacity=".3"/><path d="M13.921 24.735a.233.233 0 0 1-.015-.035l-.039-.102a8.434 8.434 0 0 1-.481-2.402c-.01-.223-.02-.427.008-.596a.74.74 0 0 1 .149-.37.44.44 0 0 1 .08-.075c.02-.015.031-.021.031-.021.002.002-.045.027-.105.1-.06.073-.12.2-.14.368-.025.167-.015.37-.003.593a8.963 8.963 0 0 0 .348 2.018c.048.162.09.293.12.383.015.041.025.076.035.104.01.022.013.035.012.035ZM16.193 23.851l-.027.003-.077.003c-.066.001-.163.003-.283-.01-.12-.01-.26-.046-.404-.113a15.418 15.418 0 0 1-1.287-.66 10.959 10.959 0 0 1-.308-.185l-.022-.015.024.012.067.037.247.138c.208.116.498.272.825.433.327.156.619.322.86.337.118.015.215.015.281.017l.077.001c.017 0 .027.001.027.002ZM15.048 23.946a.925.925 0 0 1-.305-.02.484.484 0 0 1-.196-.094c-.043-.037-.06-.067-.059-.07.003-.002.024.026.069.058a.549.549 0 0 0 .192.086c.08.02.156.025.21.03a.317.317 0 0 1 .09.01ZM12.259 26.923l.004-.023a3.542 3.542 0 0 1 .083-.302c.068-.195.183-.465.387-.71a1.48 1.48 0 0 1 .334-.3c.117-.075.233-.12.321-.174a.572.572 0 0 0 .184-.155c.034-.047.043-.078.045-.077 0 0-.005.032-.038.081a.562.562 0 0 1-.183.164c-.089.056-.204.103-.317.18a1.487 1.487 0 0 0-.328.295 2.354 2.354 0 0 0-.39.701 3.53 3.53 0 0 0-.075.234c-.007.024-.013.045-.02.064-.003.015-.006.022-.007.022ZM11.85 27.51a2.561 2.561 0 0 0-.08.057l-.226.15a38.154 38.154 0 0 0-1.463 1.01l-.22.157-.059.043c-.013.01-.02.014-.022.013 0 0 .006-.007.02-.017l.057-.046c.05-.04.123-.095.214-.164a24.672 24.672 0 0 1 1.464-1.011 8.44 8.44 0 0 1 .314-.191ZM9.032 29.042l-.03-.005-.083-.018c-.079-.02-.181-.043-.305-.073a41.443 41.443 0 0 1-1.998-.546l-.3-.092-.081-.026-.028-.011.029.007.082.022.303.085a80.395 80.395 0 0 0 2.3.626l.083.022a.11.11 0 0 1 .028.009ZM14.75 20.888c.005.004-.012.03-.022.064-.01.034-.01.065-.016.066-.005.002-.018-.032-.005-.073.011-.04.04-.062.044-.057ZM18.196 24.808a3.21 3.21 0 0 1-.153-.156 5.896 5.896 0 0 1-.715-.982.355.355 0 0 1-.027-.053.283.283 0 0 1 .033.048l.088.133a8.244 8.244 0 0 0 .631.842l.104.121a.29.29 0 0 1 .039.047ZM15.867 22.46a.27.27 0 0 1-.005-.062 11.643 11.643 0 0 1 .041-1.504.256.256 0 0 1 0 .06l-.007.169a30.015 30.015 0 0 0-.025 1.107v.168a.524.524 0 0 1-.004.061Z" fill="#fff"/></g></g><defs><clipPath id="a"><rect width="48" height="48" rx="24" fill="#fff"/></clipPath></defs></svg>