<svg xmlns="http://www.w3.org/2000/svg" width="48" height="48" fill="none"><g clip-path="url(#a)"><rect width="48" height="48" fill="#fff" rx="24"/><path fill="#F7DF8E" d="M44.786 29.46s2.17-11.477-3.742-17.99c-5.219-5.748-13.48-7.984-20.216-3.23-2.4 1.693-4.146 4.982-6.95 5.998-3.143 1.14-7.183 1.547-10.102 6.431-2.919 4.885-1.87 11.153 2.02 14.49 3.892 3.338 10.702.082 16.839-.162 6.136-.245 18.933 8.628 22.15-5.536Z" opacity=".44"/><path fill="#E5CA92" d="m26.546 16.916 3.463.028s.229-.028.286.144c0 0 .601 1.516.63 2.06.028.544-.115.458.114 1.173.23.716.888 2.404 1.26 3.778.5 1.846.63 3.806.662 5.711.005.306.188 2.937-.288 2.937-.395 0-4.038.483-4.082-.22-.175-2.799.33-5.534-.642-8.257-.378-1.057-.81-2.174-1.131-3.28-.322-1.11-.377-2.256-.586-3.388-.144-.772.314-.686.314-.686Z"/><path fill="#A28C61" d="M26.208 17.26c.034-.4.34-.344.34-.344l3.462.029s.229-.029.286.143c0 0 .6 1.517.63 2.06.01.21-.004.327-.013.432l-.073.112s-.115 1.002-1.488 1.06c-1.374.056-2.146-.573-2.432-1.174-.287-.601-.4-1.574-.63-2.146a2.09 2.09 0 0 0-.082-.173Z"/><path fill="#A28C61" d="M27.01 18.377c.233.836.093 1.068.326 2.508.232 1.44 1.068 3.065 1.393 4.551.326 1.487.186 6.735.14 6.967-.018.089-.023.23-.021.373-.156-.058-.25-.138-.258-.248-.175-2.8.331-5.535-.641-8.257-.378-1.058-.811-2.175-1.131-3.28-.322-1.111-.377-2.256-.586-3.388-.088-.475.05-.625.17-.67l.005.004s.371.604.604 1.44Z"/><path fill="#263138" stroke="#263138" stroke-linecap="round" stroke-linejoin="round" stroke-miterlimit="10" stroke-width=".044" d="m33.699 39.51.023-.019V36.26h-.465v-2.044h1.72v2.044h-.465v3.288l4.11 1.31v.325a.371.371 0 1 1-.743 0v-.046l-3.437-.4v.492a.325.325 0 1 1-.65 0v-.508l-3.577.416v.046a.371.371 0 1 1-.743 0v-.326l4.227-1.346Z"/><path fill="#263138" stroke="#263138" stroke-linecap="round" stroke-linejoin="round" stroke-miterlimit="10" stroke-width=".044" d="M28.506 34.591H39.3c.098 0 .178-.08.178-.178V32.4a.178.178 0 0 0-.178-.178H28.506a.178.178 0 0 0-.178.178v2.014c0 .099.08.178.178.178Z"/><path fill="#D8D8D8" d="M41.21 22.7h-4.105v4.742h4.106V22.7Z"/><path fill="#BB843B" d="M36.787 27.654h4.636v-4.282H39.23l-2.442 4.282Z"/><path fill="#BB843B" d="M42.416 27.892h-2.652a.192.192 0 0 1 0-.383h2.652a.455.455 0 0 0 .437-.576l-.94-3.372a.192.192 0 1 1 .369-.103l.94 3.372a.838.838 0 0 1-.807 1.063Z"/><path fill="#FFFFFE" stroke="#BB843B" stroke-miterlimit="10" stroke-width=".044" d="m42.088 19.128-.6-.072-.931 7.763.6.072.93-7.763Z"/><path fill="#BB843B" d="M42.088 19.128s1.066 3.806-.93 7.763l.93-7.763Z"/><mask id="b" width="30" height="16" x="15" y="27" maskUnits="userSpaceOnUse" style="mask-type:luminance"><path fill="#fff" d="M44.674 27.875h-29.3v14.558h29.3V27.875Z"/></mask><g mask="url(#b)"><path fill="#fff" stroke="#263138" stroke-linecap="round" stroke-linejoin="round" stroke-miterlimit="10" stroke-width=".044" d="M15.375 42.434h29.3V27.876h-29.3v14.558Z"/></g><path stroke="#A68C51" stroke-miterlimit="10" stroke-width=".044" d="M15.375 42.434h29.3V27.876h-29.3v14.558Z"/><path fill="#A68C51" d="M15.394 28.582h29.27v-.378h-29.27v.378Z"/><path fill="#D0BA90" d="M15.198 28.249h30.007v-.598H15.198v.598Z"/><path fill="#fff" stroke="#D2C67F" stroke-linecap="round" stroke-miterlimit="10" stroke-width=".044" d="M15.683 21.797s-.277.924-.831 1.848c-.555.924-1.571 2.125-1.571 2.125L9.585 24.2s.831-.832 1.755-2.218c.925-1.386 1.141-1.672 1.141-1.672s2.339 1.182 3.202 1.487Zm1.014 9.383s-.876.406-1.935.604c-1.06.199-2.633.235-2.633.235l-1.277-3.807s1.175.07 2.825-.158c1.65-.229 2.008-.256 2.008-.256s.667 2.534 1.011 3.382Zm19.035 1.571s-.875.406-1.935.604c-1.06.198-2.632.235-2.632.235l-1.277-3.808s1.173.07 2.824-.158c1.65-.228 2.008-.256 2.008-.256s.667 2.535 1.012 3.383Zm-.337-8.725s-.899-.35-1.776-.976-1.993-1.735-1.993-1.735l1.86-3.56s.763.896 2.071 1.927c1.308 1.032 1.576 1.27 1.576 1.27s-1.364 2.237-1.738 3.074Z"/><path fill="#fff" stroke="#D2C67F" stroke-linecap="round" stroke-miterlimit="10" stroke-width=".044" d="m28.326 23.54 2.36 2.1s.613-1.88 1.662-2.45a14.917 14.917 0 0 1 2.099-.918l-3.236-2.01s-3.279 1.267-2.885 3.278ZM11.6 18.089l2.361 2.099s.612-1.88 1.661-2.449a14.917 14.917 0 0 1 2.099-.918l-3.235-2.011s-3.28 1.268-2.886 3.279Z"/><path stroke="#A68C51" stroke-miterlimit="10" stroke-width=".044" d="M9.929 12.038a3.76 3.76 0 1 0 0-7.52 3.76 3.76 0 0 0 0 7.52Z"/><path stroke="#A68C51" stroke-miterlimit="10" stroke-width=".044" d="M13.26 9.097A3.43 3.43 0 1 0 6.6 7.458a3.43 3.43 0 0 0 6.66 1.639Z"/><path stroke="#A68C51" stroke-miterlimit="10" stroke-width=".044" d="m10.459 9.463-.53-1.185V5.52"/><path fill="#A68C51" d="M10.139 8.278a.209.209 0 1 1-.418 0 .209.209 0 0 1 .418 0Z"/><path fill="#F7DF8E" d="M23.654 45.56c6.047 0 10.95-.6 10.95-1.34 0-.74-4.903-1.34-10.95-1.34s-10.95.6-10.95 1.34c0 .74 4.902 1.34 10.95 1.34Z" opacity=".44"/><path fill="#A68C51" d="m17.234 41.992-.346.436s-1.037.406-1.233.586c-.195.18-.587.948-.587.948l.166.226s.692.045 1.113.03c.42-.015.947-.18 1.068-.256.12-.075.511-.631.586-.722.075-.09.24-.045.451-.15.211-.105.18-.932.18-.932l-1.398-.166Z"/><path fill="#FAD2C3" d="m17.926 42.082.013.067c.023.102.072.287.137.309.09.03.556-.301.556-.301"/><path fill="#A68C51" d="m30.427 41.992.346.436s1.038.406 1.234.586c.195.18.586.948.586.948l-.165.226s-.692.045-1.113.03c-.421-.015-.948-.18-1.068-.256-.12-.075-.512-.631-.587-.722-.075-.09-.24-.045-.45-.15-.211-.105-.181-.932-.181-.932l1.398-.166Z"/><path fill="#FAD2C3" d="m29.736 42.082-.013.067c-.023.102-.072.287-.137.309-.09.03-.557-.301-.557-.301"/><path fill="#FBEAB9" d="m30.493 42.14-3.176-13.734-.627-3.578-2.858.038-2.859-.038-.626 3.578L17.17 42.14l1.476.134 5.185-12.515 5.185 12.515 1.476-.134Z"/><path stroke="#DCCB9D" stroke-miterlimit="10" stroke-width=".044" d="m23.044 28.48.153.231M18.036 40.98l-.165.53m3.819-12.26-3.423 10.99m11.464.648.09.313m-2.233-7.781 2.046 7.125m-3.385-11.787 1.247 4.344m-5.78-6.629 1.07 1.617m2.549-.755a.876.876 0 0 0-.107.205m.999-1.55s-.4.58-.694 1.03"/><path fill="#FAD2C3" stroke="#D4B1A5" stroke-miterlimit="10" stroke-width=".044" d="m15.819 5.796-.224.09a.094.094 0 0 1-.122-.051l-.293-.726a.094.094 0 0 1 .052-.122l.224-.09a.094.094 0 0 1 .122.051l.293.726a.094.094 0 0 1-.052.122Zm-.388.264-.224.09a.094.094 0 0 1-.122-.052l-.293-.726a.094.094 0 0 1 .052-.122l.224-.09a.094.094 0 0 1 .122.052l.293.725a.094.094 0 0 1-.052.122Zm-.352.31-.224.091a.094.094 0 0 1-.123-.052l-.292-.725a.094.094 0 0 1 .052-.122l.223-.09a.094.094 0 0 1 .123.051l.293.725a.094.094 0 0 1-.052.123Z"/><path fill="#FAD2C3" stroke="#D4B1A5" stroke-miterlimit="10" stroke-width=".044" d="m14.718 6.552-.224.09a.094.094 0 0 1-.122-.051l-.237-.588a.094.094 0 0 1 .052-.123l.224-.09a.094.094 0 0 1 .122.052l.237.588a.094.094 0 0 1-.052.122Z"/><path fill="#FAD2C3" d="m31.978 5.514-.814 1.898-4.98 8.199-.745.474-1.592.06-1.593-.06-.745-.474-4.981-8.2-.813-1.897-1.254 1.084s.576.95.711 1.017c.136.067.678.27.678.27l2.169 6.98 2.575 5.896.357 2.76s-.37 1.079-.185 1.356c.253.379 1.165.541 1.565.672.95.311 1.867.334 2.826.066.534-.149 1.435-.236 1.77-.738.184-.277-.186-1.355-.186-1.355l.358-2.761 2.575-5.896 2.168-6.98s.543-.202.678-.27c.136-.068.712-1.017.712-1.017l-1.254-1.084Z"/><path fill="#FAD2C3" stroke="#D4B1A5" stroke-miterlimit="10" stroke-width=".044" d="m31.873 5.796.224.09a.094.094 0 0 0 .122-.051l.293-.726a.094.094 0 0 0-.052-.122l-.224-.09a.094.094 0 0 0-.122.051l-.293.726a.094.094 0 0 0 .052.122Zm.389.264.224.09a.094.094 0 0 0 .122-.052l.293-.726a.094.094 0 0 0-.052-.122l-.224-.09a.094.094 0 0 0-.122.052l-.293.725a.094.094 0 0 0 .052.122Zm.351.31.224.091a.094.094 0 0 0 .123-.052l.292-.725a.094.094 0 0 0-.052-.122l-.224-.09a.094.094 0 0 0-.122.051l-.293.725a.094.094 0 0 0 .052.123Z"/><path fill="#FAD2C3" stroke="#D4B1A5" stroke-miterlimit="10" stroke-width=".044" d="m32.974 6.552.224.09a.094.094 0 0 0 .122-.051l.237-.588a.094.094 0 0 0-.052-.123l-.224-.09a.094.094 0 0 0-.122.052l-.237.588a.094.094 0 0 0 .052.122Z"/><path fill="#D2B670" d="m29.674 14.865 1.274-4.1-1.459-.596-3.305 5.442-.745.474-1.593.06-1.592-.06-.745-.474-2.845-4.683-1.598.872.953 3.065 2.575 5.896.357 2.76s-.37 1.079-.185 1.356c.212.318.936.459 1.27.573 1.046.36 1.918.54 2.993.206.476-.149 1.601-.333 1.898-.78.185-.276-.185-1.354-.185-1.354l.357-2.761 2.575-5.896Z"/><path stroke="#A68C51" stroke-miterlimit="10" stroke-width=".044" d="m21.217 17.499-.045.307m.275-1.883-.184 1.263m6.002 1.212.028-.396m-.194 2.758.136-1.94m-6.641 1.94-.01-2.012m1.297-2.562s-.276 2.013-.08 3.229m3.609-3.061s.236.902.314 2.237m2.934-3.727c.01.129.025.247.047.352m.275-3.844s-.322 1.708-.336 2.981m-.095-2.079s-.197 1.451-.197 2.08m-8.945-2.002s.196 2.158.354 3.375m.285.823c0 .173-.003.344-.012.51m-.274-3.491s.243 1.323.28 2.67"/><path fill="#A68C51" d="m18.549 10.661-1.61.876a.202.202 0 0 0-.1.23l.2.752a.202.202 0 0 0 .29.127l1.767-.939a.202.202 0 0 0 .085-.271l-.356-.69a.202.202 0 0 0-.276-.085Zm10.956-.945 1.698.689a.203.203 0 0 1 .124.217l-.113.77a.202.202 0 0 1-.274.158l-1.862-.734a.202.202 0 0 1-.114-.26l.276-.725a.202.202 0 0 1 .265-.115Z"/><path fill="#FAD2C3" d="m16.392 7.242-.306-1.53a.178.178 0 0 0-.197-.142 9.98 9.98 0 0 1-.784.08c-.203 0-.271.406-.102.406.17 0 .474.102.474.102s-.237.847.305 1.152"/><path stroke="#D4B1A5" stroke-miterlimit="10" stroke-width=".044" d="m16.392 7.242-.306-1.53a.178.178 0 0 0-.197-.142 9.98 9.98 0 0 1-.784.08c-.203 0-.271.406-.102.406.17 0 .474.102.474.102s-.237.847.305 1.152"/><path fill="#FAD2C3" d="m31.3 7.242.306-1.53a.178.178 0 0 1 .197-.142c.232.03.642.08.784.08.203 0 .271.406.102.406-.17 0-.474.102-.474.102s.237.847-.305 1.152"/><path stroke="#D4B1A5" stroke-miterlimit="10" stroke-width=".044" d="m31.3 7.242.306-1.53a.178.178 0 0 1 .197-.142c.232.03.642.08.784.08.203 0 .271.406.102.406-.17 0-.474.102-.474.102s.237.847-.305 1.152"/><path fill="#A68C51" d="m23.045 17.639.523 1.14-.523 5.79.862.986.74-1.171-.71-5.544.648-1.356-.77-.585-.77.74Z"/><path fill="#E8CF96" d="M22.508 15.71s-.303-.064-.432.13c-.13.195-.195.346-.195.346l.562 2.68 1.34-1.167L25.1 19.06s.26-1.34.26-2.312c0-.972-.692-1.21-.865-1.275-.172-.065-1.988.238-1.988.238Z"/><path fill="#FAD2C3" d="m22.205 15.084.195 1.296s.626 1.276 1.145 1.34c.519.065.93-.324 1.145-.908l.216-.583.152-1.189-2.853.044Z"/><path fill="#C8A399" d="M25.058 15.254s-1.113 1.113-1.467 1.265c-.354.152-1.341-1.215-1.341-1.215l2.808-.05Z"/><path fill="#2F1F1C" d="M21.886 14.024s-.557-.433-.578-1.237c-.02-.804.165-1.463.248-1.36.082.103.123.268.123.268s.042-1.093.495-1.402c.453-.31.392.433.392.433s1.195-1.072 2.02-.928c.824.145.309.413.309.413s1.195.453 1.402.927c.206.474-.846.846-.846.846s.578.144.495.288c-.083.144-.33.206-.33.206s-.041 1.093-.165 1.196c-.123.103-.185.268-.35-.062-.165-.33-.433-1.113-1.03-1.216-.598-.103-1.65-.144-1.794.227-.144.37.103 1.257-.083 1.443-.185.185-.308-.042-.308-.042Z"/><path fill="#FAD2C3" d="M24.014 11.483s-.862-.153-1.37.152c-.507.305-.736.913-.736 1.142v.99s-.558-.407-.66-.026c-.1.38.026.94.229.99.203.05.38-.101.38-.101s.102.609.559.812c.456.203 1.081.51 1.335.484.254-.026 1.253-.662 1.355-.763.101-.102.203-.66.203-.66s.22.213.336.14c.323-.202.374-.597.374-.901 0-.305-.609-.178-.609-.178s-.253-1.446-.482-1.776c-.229-.33-.914-.305-.914-.305Z"/><path stroke="#263138" stroke-linecap="round" stroke-miterlimit="10" stroke-width=".044" d="M23.507 11.863s.254-.533.507-.38c.254.152.102.761.102.761"/><path stroke="#2F1F1C" stroke-linecap="round" stroke-linejoin="round" stroke-miterlimit="10" stroke-width=".044" d="M22.745 12.726s.482.305.863.305c.38 0 .837-.254.837-.254"/><path stroke="#2F1F1C" stroke-linecap="round" stroke-linejoin="round" stroke-miterlimit="10" stroke-width=".044" d="M22.913 12.691s-.229-.067-.31.121m1.682-.108s.189.04.256.176"/><path fill="#2F1F1C" stroke="#2F1F1C" stroke-miterlimit="10" stroke-width=".044" d="M22.966 12.893s.23 1.157.7 1.198c.472.04.552-1.171.552-1.171s-.426.114-.61.11c-.184-.002-.655-.19-.655-.19l.014.053Z"/><path fill="#fff" stroke="#2F1F1C" stroke-linecap="round" stroke-linejoin="round" stroke-miterlimit="10" stroke-width=".044" d="m22.953 12.84.014.053s.015.078.046.194c.176.082.613.228 1.184.026.016-.115.021-.193.021-.193s-.426.113-.61.11c-.184-.002-.655-.19-.655-.19ZM24 13.841a2.057 2.057 0 0 1-.694-.03c.098.153.218.268.36.28.146.012.254-.095.334-.25Z"/><path stroke="#2F1F1C" stroke-linecap="round" stroke-linejoin="round" stroke-miterlimit="10" stroke-width=".044" d="M22.563 12.126s.228-.283.538-.215m1.117.013s.296-.067.525.121"/><path stroke="#2F1F1C" stroke-linecap="round" stroke-linejoin="round" stroke-miterlimit="10" stroke-width=".089" d="M23.047 11.6s-.404.028-.566.297m1.832-.309s.39.013.578.323"/></g><defs><clipPath id="a"><rect width="48" height="48" fill="#fff" rx="24"/></clipPath></defs></svg>