<svg width="48" height="48" fill="none" xmlns="http://www.w3.org/2000/svg"><g clip-path="url(#a)"><rect width="48" height="48" rx="24" fill="#fff"/><g clip-path="url(#b)"><path opacity=".43" d="M31.568 5.574s-7.617-2.992-14.901 1.23C9.382 11.029 5.883 19.718 2.864 26.672c-3.018 6.954-.98 14.17 4.76 17.595 5.739 3.424 9.453-1.285 17.375-1.298 7.922-.014 10.085 1.222 16.54-3.241 6.454-4.463 7.348-15.403 1.94-23.667C38.072 7.795 31.569 5.574 31.569 5.574Z" fill="#B7B7B6"/><path opacity=".8" d="M13.261 22.375c5.494 0 9.948-4.454 9.948-9.949 0-5.494-4.454-9.948-9.948-9.948-5.494 0-9.948 4.454-9.948 9.948 0 5.495 4.454 9.949 9.948 9.949Z" fill="#E8E8E8"/><g opacity=".8"><path d="M8.924 9.119c-.158-.489-.047-.912.054-1.388.084-.397.12-1.156-.162-1.452-.283-.295-.724-.313-.929-.135-.254.22-.347.529-.365.918-.03.64.178 2.094.16 2.53-.017.436 1.242-.473 1.242-.473Z" fill="#474747"/><path d="m14.97 15.263-.663 3.943.412.155.349-.216s.371-1.314.514-1.869c.142-.556.128-1.71.128-1.71l-.74-.303Z" fill="#C4C4C4"/><path d="M14.367 18.881h-.004c-.007-.002-.013.002-.02.005-.105.054-.202.126-.298.193-.092.064-.184.129-.278.19-.04.026-.08.052-.121.075-.022.012-.048.029-.074.032-.103.01-.373-.073-.439.095a.928.928 0 0 0-.047.15.133.133 0 0 0 .063.143c.106.063.343.155.821.142l1.174-.032c.09-.003.142-.028.156-.075.014-.048.008-.17-.025-.323-.022-.107-.053-.284-.111-.379a.079.079 0 0 0-.127-.01c-.076.089-.209.12-.32.11a.406.406 0 0 1-.22-.083.25.25 0 0 1-.072-.09c-.019-.041-.015-.09-.04-.128-.006-.006-.011-.012-.018-.015Z" fill="#666665"/><path d="m13.495 19.598.077-.222c-.103.01-.373-.073-.439.095a.925.925 0 0 0-.047.15.133.133 0 0 0 .063.143c.106.063.343.155.821.142l1.174-.032c.09-.003.142-.028.156-.075a.56.56 0 0 0-.002-.194l-.007.001c-1.366.162-1.796-.008-1.796-.008Z" fill="#E2E2E2"/><path d="m14.12 18.984-.099.067a.048.048 0 0 0-.013.066c.034.051.094.142.122.173.04.046.18-.027.175-.081-.002-.033-.076-.15-.118-.212a.048.048 0 0 0-.066-.013ZM13.833 19.151l-.1.067a.048.048 0 0 0-.013.066c.034.052.094.142.121.173.04.046.18-.027.176-.081-.002-.033-.077-.15-.118-.211a.047.047 0 0 0-.066-.014Z" fill="#878787"/><path d="m18.602 16.484 1.679 2.271.373-.052.173-.396s-.756-1.559-1.184-2.072c-.427-.513-.57-.606-.57-.606l-.47.855Z" fill="#C4C4C4"/><path d="m20.096 18.494-.004.002c-.007.003-.01.01-.014.016-.058.101-.1.215-.145.324-.042.104-.084.208-.13.311-.018.043-.038.087-.06.129-.011.022-.024.05-.044.067-.08.064-.352.142-.316.319a.955.955 0 0 0 .043.151c.02.054.072.089.13.086.122-.005.371-.058.765-.33l.967-.667c.075-.052.104-.1.09-.148-.014-.048-.087-.145-.198-.257-.077-.078-.2-.21-.3-.257a.079.079 0 0 0-.111.061c-.016.116-.11.214-.21.266a.408.408 0 0 1-.23.051.266.266 0 0 1-.109-.036c-.038-.023-.061-.067-.103-.085a.032.032 0 0 0-.021-.003Z" fill="#666665"/><path d="m19.757 19.572-.058-.229c-.08.064-.352.142-.316.319a.952.952 0 0 0 .043.151c.02.054.072.089.13.086.122-.005.371-.058.764-.33l.967-.667c.075-.052.104-.1.09-.148a.562.562 0 0 0-.108-.16l-.006.003c-1.053.881-1.506.974-1.506.974Z" fill="#E2E2E2"/><path d="m19.945 18.714-.047.112c-.01.024.001.052.024.061.058.025.157.067.197.079.06.016.136-.12.103-.164a1.018 1.018 0 0 0-.214-.113c-.025-.01-.053.001-.063.025ZM19.796 19.01l-.047.112c-.01.024.001.052.024.062.058.025.157.067.197.078.06.017.135-.12.103-.164a1.013 1.013 0 0 0-.215-.112c-.024-.01-.052 0-.062.025Z" fill="#878787"/><path d="M19.427 11.597s.276.406.27 1.046c-.006.6-.523 2.386-.523 2.386s.773 1.11.768 1.258c-.005.147-.946.922-1.14.808-.194-.114-.945-1.205-1.047-1.584-.108-.403-.078-1.408-.078-1.408s-1.33 1.099-1.439 1.34c-.108.24-.341 1.738-.341 1.738-.354.278-1.283.024-1.525-.232 0 0 .292-1.835.448-2.196.157-.36 1.793-2.165 1.793-2.165 1.009-.064 1.974-.54 2.814-.991Z" fill="#8E8E8E"/><path opacity=".2" d="M17.676 14.123a.021.021 0 0 1-.021-.02l.006-.665-.317.084a.021.021 0 0 1-.026-.015.021.021 0 0 1 .014-.026l.343-.09a.02.02 0 0 1 .018.004c.005.004.008.01.008.016l-.006.692c.002.01-.007.02-.019.02ZM15.572 16.847c-.589 0-1.092-.28-1.098-.283a.021.021 0 0 1-.007-.029.021.021 0 0 1 .028-.008c.007.004.707.394 1.416.244a.021.021 0 0 1 .025.017.022.022 0 0 1-.016.024 1.733 1.733 0 0 1-.348.035ZM18.592 16.833a.02.02 0 0 1-.02-.016.02.02 0 0 1 .015-.025c.007-.002.672-.18 1.132-.804a.02.02 0 0 1 .029-.005.02.02 0 0 1 .005.029c-.469.637-1.148.818-1.155.82h-.006Z" fill="#000"/><path d="m16.36 7.135.802 1.526-.782.407-.73-1.347s.614-.615.71-.586Z" fill="#C4C4C4"/><path d="M16.352 7.372c.126-.015.138-.547.055-.869-.08-.314-.214-.58-.503-.717-.256-.122-.503-.02-.503-.02s.05-.12.302-.106c-.252-.102-.408-.005-.428.114-.006-.095-.119-.11-.227-.078 0 0 .076.028.116.075 0 0-.485-.235-.75-.088-.267.147-.418.47-.347.646 0 0-.146.394.138.652l.996-.74.713 1.198.438-.067Z" fill="#474747"/><path d="M16.29 6.57c.26.478.01 1.271-.454 1.714-.289.275-.572.375-.881.073-.186-.182-.317-.404-.536-.808-.218-.402-.495-1.124.27-1.538.565-.306 1.179-.221 1.601.558Z" fill="#C4C4C4"/><path d="M15.932 8.206a.023.023 0 0 1-.014-.005.021.021 0 0 1-.002-.03c.138-.154.253-.343.334-.545.005-.01.017-.016.027-.011a.02.02 0 0 1 .012.027 1.94 1.94 0 0 1-.341.556.02.02 0 0 1-.016.008Z" fill="#707070"/><path d="M14.462 7.615c.08.105.094.407.12.484.026.077.3-.04.3-.04l-.42-.444Z" fill="#C4C4C4"/><path d="M14.407 7.526c-.026-.037-.06-.121-.06-.121.016-.031.024-.048.055-.077.096-.085.207-.108.227-.075.021.033-.054.114-.133.195a.736.736 0 0 1-.089.078Z" fill="#707070"/><path d="M14.682 5.995c-.477.258-.767.679-.67.864.095.185.287.264.472.19.16-.065.1-.246.1-.246s.089.181.242.185c.153.004.313-.107.313-.107s.064.202.186.283c.128.085.356.142.356.142s.028-.262.115-.251c.01.076-.018.163.058.168.125.008-.074-.043.038-.099.064.094.174.277.307.3.134.025.197-.05.242-.156.038-.088-.034-.559-.156-.783-.428-.79-1.031-.799-1.603-.49Z" fill="#474747"/><path d="M16.162 7.209c.025.206-.082.388-.237.407-.156.018-.302-.134-.326-.34-.025-.207.082-.389.237-.407.155-.02.3.133.326.34Z" fill="#C4C4C4"/><path d="M15.908 7.411c-.003 0-.006 0-.009-.002a.02.02 0 0 1-.01-.027c.076-.158.066-.25.03-.282-.011-.01-.022-.015-.032-.014-.017.002-.032.016-.037.022-.007.01-.02.01-.029.004a.02.02 0 0 1-.005-.029.1.1 0 0 1 .066-.04.085.085 0 0 1 .065.026c.06.055.052.18-.021.33-.004.008-.01.012-.018.012ZM14.525 7.69l-.01-.002a.034.034 0 0 1-.022-.044.158.158 0 0 1 .095-.095.197.197 0 0 1 .17.016c.017.01.023.03.013.047a.036.036 0 0 1-.047.013.13.13 0 0 0-.111-.011c-.027.01-.047.03-.054.051a.034.034 0 0 1-.034.024Z" fill="#707070"/><path d="M14.921 8.322a1.589 1.589 0 0 1-.104-.12l.122-.094a.078.078 0 0 1 .11.015.08.08 0 0 1-.014.11l-.114.09Z" fill="#fff"/><path d="M12.465 9.648c-.151-.079-.311-.16-.394-.207-.082-.048-.142-.382-.19-.452-.05-.07-.239-.06-.309-.081a.256.256 0 0 0-.269.087c-.075.098-.213.303-.222.389-.008.084.144.154.338.278.193.124.356.13.445.203.088.073.262.154.262.154l.339-.371Z" fill="#C4C4C4"/><path d="M11.49 9.169a.1.1 0 0 1-.035-.006c-.027-.01-.042-.029-.043-.055-.002-.054.035-.136.14-.202.005-.004.013-.002.016.004.004.006.002.013-.004.016-.096.06-.13.136-.128.182.001.019.015.027.027.032.028.01.064.002.08-.016.033-.039.08-.09.081-.091a.013.013 0 0 1 .018-.001.013.013 0 0 1 0 .017 3.339 3.339 0 0 0-.08.09.096.096 0 0 1-.072.03ZM11.411 9.475c-.054 0-.107-.056-.11-.06-.005-.004-.004-.012 0-.017.006-.004.013-.003.018.001.018.02.075.067.112.048.03-.014.047-.034.05-.055.003-.02-.005-.042-.028-.063 0 0-.087-.075-.146-.093-.038-.011-.085.033-.139.085-.02.02-.042.04-.066.06a.013.013 0 0 1-.017 0 .013.013 0 0 1 0-.018c.024-.02.045-.04.066-.06.06-.056.111-.105.163-.09.064.02.152.095.156.098.034.035.038.065.035.084-.005.03-.027.055-.063.073a.074.074 0 0 1-.03.007Z" fill="#AAA9A9"/><path d="M11.495 9.376a.018.018 0 0 1-.007-.002.011.011 0 0 1-.003-.016c0-.001.058-.085.011-.146-.051-.057-.139-.13-.168-.114-.044.023-.067.044-.13.1l-.016.015c-.004.005-.012.004-.017 0-.004-.006-.004-.013.001-.018l.016-.016a.613.613 0 0 1 .135-.103c.056-.03.174.095.197.12.058.077-.007.172-.01.175a.012.012 0 0 1-.01.005ZM11.279 9.049a.009.009 0 0 1-.007-.003c-.005-.004-.006-.011-.002-.016.003-.004.07-.092.146-.065l.053.02c.006.002.009.01.007.015-.003.006-.01.01-.016.007l-.051-.02c-.059-.02-.119.056-.12.057-.003.003-.006.005-.01.005Z" fill="#AAA9A9"/><path d="M11.531 9.244a.011.011 0 0 1-.007-.003c-.005-.005-.006-.012-.001-.017.023-.027.06-.08.056-.105 0-.006-.003-.008-.005-.01-.004-.004-.005-.011-.001-.017a.012.012 0 0 1 .016-.002.036.036 0 0 1 .013.026c.004.044-.055.114-.063.122-.001.005-.004.006-.008.006Z" fill="#AAA9A9"/><path d="M15.981 8.327s-1.248 1.046-1.782 1.568l-2.187-.604-.36.529s2.269 1.076 2.637.986c.37-.09 1.91-1.217 1.91-1.217l-.218-1.262Z" fill="#606060"/><path d="M20.457 10.572c0 .125-.007.334.041.466.048.133.136.492.104.59-.033.1-.383.235-.511.241-.128.007-.211.008-.261-.024-.05-.032-.013-.17-.021-.207-.009-.037-.105-.063-.142-.127-.039-.063.05-.224.09-.309.04-.086.103-.22.15-.312.048-.092-.03-.348-.03-.348l.58.03Z" fill="#C4C4C4"/><path d="M20.041 11.875h-.005a.022.022 0 0 1-.016-.026l.041-.188a.022.022 0 0 1 .025-.016.022.022 0 0 1 .016.025l-.04.188a.02.02 0 0 1-.021.017ZM20.242 11.832h-.005a.021.021 0 0 1-.016-.025l.035-.16a.022.022 0 0 1 .024-.016.022.022 0 0 1 .017.025l-.035.16a.02.02 0 0 1-.02.016ZM20.466 11.74a.02.02 0 0 1-.02-.021l.009-.15a.021.021 0 0 1 .022-.018.02.02 0 0 1 .02.022l-.01.149c0 .01-.01.019-.02.019ZM19.826 11.748a.021.021 0 0 1-.021-.02c0-.028.005-.168.06-.208a.055.055 0 0 1 .051-.009c.056.017.041.109.038.127a.02.02 0 0 1-.024.016c-.011-.002-.019-.013-.016-.024.007-.033.004-.075-.009-.08a.017.017 0 0 0-.015.003c-.028.02-.041.114-.042.173-.001.014-.01.022-.022.022Z" fill="#AAA9A9"/><path d="M16.566 8c-.02-.02 3.252-.37 3.71-.057.352.241.3 3.008.3 3.008l-.745.012-.241-2.093-1.679.132L16.565 8Z" fill="#606060"/><path d="M16.137 8.113c.37-.242 1.149-.165 1.41.086.342.327.817.545 1.212 1.41.452.991 1.087 2.3.968 2.436-.1.114-.769.556-1.439.513-.77-.05-1.608.077-1.678.028-.127-.09-.04-.933-.167-1.574-.112-.562-.264-.928-.435-1.555-.17-.627-.242-1.101.129-1.344Z" fill="#606060"/><path d="M8.376 8.31s-.349-.077-.487-.361-.286-.374-.327-.634c-.039-.261.044-.448.044-.448s-.178-.292.193-.497c0 0 .067-.416.465-.475 0 0 .074-.162.267-.11 0 0 .167-.248.404-.103 0 0 .473-.202.761.176 0 0 .469.08.274.572-.194.493-1.594 1.88-1.594 1.88Z" fill="#474747"/><path d="m8.303 8.053.472 1.658 1.134-.307-.4-1.48c-.001 0-1.156.042-1.206.13Z" fill="#C4C4C4"/><path d="M7.962 7.596c.143.525.87.929 1.512.929.399 0 .673-.123.689-.556.008-.26-.05-.512-.17-.953-.12-.442-.416-1.155-1.256-.929-.62.168-1.006.654-.775 1.51Z" fill="#C4C4C4"/><path d="M9.475 8.545c-.001 0-.001 0 0 0a1.9 1.9 0 0 1-.77-.174.021.021 0 0 1-.01-.028c.004-.01.017-.015.027-.01.241.11.508.17.753.17.066 0 .126-.004.181-.011.012 0 .022.007.023.018a.02.02 0 0 1-.018.023 1.251 1.251 0 0 1-.186.012Z" fill="#707070"/><path d="M10.008 7.09c.014.133.212.36.247.434.034.075-.245.177-.245.177l-.002-.61Z" fill="#C4C4C4"/><path d="M9.986 6.989a.95.95 0 0 0-.04-.13c-.033-.01-.05-.018-.094-.017-.128.005-.224.064-.216.102.008.039.118.046.23.05a.56.56 0 0 0 .12-.005Z" fill="#707070"/><path d="M9.865 6.528c-.21-.346-.463-.66-1.066-.496-.691.187-1.121.727-.863 1.68.06.22.237.416.44.599.117-.083.228-.356.339-.63 0 0-.33-.03-.04-.074.29-.044.278-.282.278-.282.233-.064.22-.267.22-.267.3-.072.423-.426.423-.426s.138-.002.269-.104Z" fill="#474747"/><path d="M8.496 7.97c.125.166.328.225.453.131.124-.094.125-.304 0-.47-.124-.168-.327-.226-.452-.132-.124.094-.125.305 0 .47Z" fill="#C4C4C4"/><path d="M8.806 7.947 8.8 7.946c-.157-.059-.248-.143-.243-.225.002-.028.011-.049.03-.063.03-.024.07-.017.074-.017a.02.02 0 0 1 .017.024.02.02 0 0 1-.024.017c-.007-.001-.029-.002-.041.009-.01.006-.014.017-.014.032-.003.048.053.122.216.184.01.003.016.016.013.026a.022.022 0 0 1-.02.014ZM9.818 7.245a.036.036 0 0 1-.017-.005.033.033 0 0 1-.011-.047.167.167 0 0 1 .107-.075c.05-.01.102 0 .146.031.015.01.02.033.009.048a.035.035 0 0 1-.048.009c-.028-.02-.062-.027-.093-.02a.098.098 0 0 0-.062.042.037.037 0 0 1-.03.017Z" fill="#707070"/><path d="M10.162 7.92c0-.052-.002-.105-.007-.159l-.153.017a.08.08 0 0 0-.07.087.08.08 0 0 0 .088.07l.143-.015Z" fill="#fff"/><path d="m7.812 18.045-.466 1.103-.265.064-.411-.24.387-.667.755-.26Z" fill="#C4C4C4"/><path d="M7.461 18.753h.004c.007 0 .014.002.02.006.101.06.193.138.286.21.088.069.176.139.266.206.039.028.076.056.117.082.02.013.046.031.072.036.101.016.376-.05.433.12a.998.998 0 0 1 .038.153.135.135 0 0 1-.071.139c-.109.057-.35.134-.828.094l-1.17-.099c-.09-.008-.139-.035-.15-.083-.012-.048.002-.17.043-.321.028-.107.069-.281.132-.373a.08.08 0 0 1 .128-.001c.07.092.201.13.314.126a.406.406 0 0 0 .224-.07.273.273 0 0 0 .077-.085c.021-.04.02-.09.048-.125a.029.029 0 0 1 .017-.015Z" fill="#666665"/><path d="m8.291 19.52-.064-.227c.102.016.376-.05.433.12a1 1 0 0 1 .038.153.135.135 0 0 1-.07.139c-.11.057-.351.134-.828.094L6.63 19.7c-.09-.008-.14-.035-.151-.083a.544.544 0 0 1 .013-.193H6.5c1.353.24 1.792.096 1.792.096Z" fill="#919191"/><path d="m7.7 18.87.096.073a.047.047 0 0 1 .01.066c-.038.05-.102.136-.132.166-.043.044-.177-.038-.17-.091.004-.033.086-.145.13-.205a.046.046 0 0 1 .066-.01ZM7.977 19.053l.096.073a.047.047 0 0 1 .01.066c-.037.05-.102.137-.132.166-.043.045-.177-.037-.17-.09.004-.033.086-.146.131-.205a.046.046 0 0 1 .065-.01Z" fill="#878787"/><path d="m12.693 17.628-.511 1.661-.26.08-.426-.211.236-1.221.961-.309Z" fill="#C4C4C4"/><path d="m12.273 18.888.004-.001c.006 0 .013.002.02.006.105.053.202.124.3.19.093.063.185.128.28.188.039.026.08.05.12.074.023.012.049.029.075.032.102.01.372-.076.44.09.025.064.04.114.048.15a.135.135 0 0 1-.061.145c-.105.063-.341.157-.82.147l-1.173-.022c-.09-.002-.141-.026-.157-.074-.014-.048-.008-.17.022-.322.021-.109.05-.285.109-.38a.078.078 0 0 1 .127-.01c.076.087.209.116.321.106a.403.403 0 0 0 .22-.085.283.283 0 0 0 .07-.09c.02-.04.014-.09.04-.128.002-.007.008-.014.015-.016Z" fill="#666665"/><path d="m13.15 19.598-.08-.222c.104.01.373-.076.44.09.027.064.04.114.05.15a.135.135 0 0 1-.062.145c-.105.063-.34.156-.819.147l-1.174-.022c-.09-.002-.141-.026-.156-.074a.553.553 0 0 1 0-.194c.002 0 .005 0 .007.002 1.364.151 1.794-.022 1.794-.022Z" fill="#919191"/><path d="m12.518 18.988.101.066a.047.047 0 0 1 .014.065 2.248 2.248 0 0 1-.121.175c-.04.046-.18-.026-.176-.08.002-.033.076-.15.116-.213a.05.05 0 0 1 .066-.013ZM12.807 19.153l.101.066a.047.047 0 0 1 .014.065 2.25 2.25 0 0 1-.121.175c-.04.046-.18-.026-.176-.08.002-.033.076-.15.116-.213a.048.048 0 0 1 .066-.013Z" fill="#878787"/><path d="M7.912 13.223c-.373.745.781 2.913.781 2.913l-2.13 2.516a.038.038 0 0 0 .026.06c.386.056.786.05 1.197-.01 0 0 2.15-1.887 2.32-2.383.143-.42-.201-1.93-.201-1.93l1.79 1.714-.373 2.762c.401.143.79.18 1.155 0 0 0 .772-2.862.55-3.448-.225-.597-2.607-2.687-2.607-2.687l-2.508.493Z" fill="#606060"/><path opacity=".2" d="M9.905 14.409a.02.02 0 0 1-.02-.017l-.136-.676a.022.022 0 0 1 .017-.025.022.022 0 0 1 .025.016l.135.677a.022.022 0 0 1-.016.025h-.005Z" fill="#000"/><path d="M13.857 6.29c.206-.08.235-.468.29-.565.055-.098.162-.187.26-.178.098.009.353.043.414.112.063.07.144.349.066.423-.078.074-.24.088-.24.088s-.06.13-.143.19c-.083.06-.435.23-.435.23l-.212-.3Z" fill="#C4C4C4"/><path d="M14.647 6.191a.02.02 0 0 1-.021-.021l.003-.11a.02.02 0 0 1 .021-.02c.011 0 .02.01.02.02l-.003.111c.001.012-.008.02-.02.02ZM14.814 5.724l-.004-.001-.248-.058a.02.02 0 0 1-.015-.025.02.02 0 0 1 .024-.015l.248.057a.02.02 0 0 1 .016.025c-.003.01-.011.017-.02.017ZM14.869 5.84l-.005-.001-.199-.047a.02.02 0 0 1-.015-.025.02.02 0 0 1 .025-.016l.199.047a.02.02 0 0 1 .015.025.02.02 0 0 1-.02.017ZM14.889 5.945h-.004l-.206-.034a.02.02 0 0 1-.018-.024.02.02 0 0 1 .024-.017l.207.034a.02.02 0 0 1 .017.024c0 .01-.01.017-.02.017Z" fill="#AAA9A9"/><path d="m13.857 6.29-2.522 1.282c.226.348.285.512.4.912l2.333-1.894-.211-.3Z" fill="#C4C4C4"/><path d="M10.361 7.942c-.938.457-1.154 1.035-.794 1.468.361.433.915.12 1.492-.241.17-.106.517-.376.924-.707-.114-.399-.234-.795-.46-1.144l-1.162.624Z" fill="#8E8E8E"/><path d="M7.161 11.12c-.08.49.7 2.38.7 2.38l.327-.37-.286-1.696.613-.912c-.302-.121-.368-.246-.642-.428-.073.126-.698.937-.712 1.026Z" fill="#C4C4C4"/><path d="M8.965 8.81s-1.244 1.238-1.668 1.981c.273.182.56.335.861.457l.687-.947.12-1.492Z" fill="#8E8E8E"/><path d="M10.072 8.111s-.27.168-.68.385c-.409.217-.878.54-.9.998-.02.428-.08 1.365-.206 2.267-.162 1.156-.666 2.007-.575 2.087.091.08 1.15-.384 1.56-.504.408-.12 1.282-.125 1.595-.366 0 0-.087-.405-.261-.772 0 0-.1-2.217-.028-3.084.073-.867-.505-1.01-.505-1.01Z" fill="#8E8E8E"/><path opacity=".2" d="M10.067 9.744a.02.02 0 0 1-.018-.01c-.006-.01-.002-.024.007-.03l.485-.27c.01-.006.023-.002.029.008a.022.022 0 0 1-.008.028l-.485.271a.02.02 0 0 1-.01.003ZM10.051 12.805a.022.022 0 0 1-.018-.011.02.02 0 0 1 .008-.029c.452-.267.512-.52.512-.523a.022.022 0 0 1 .025-.016.021.021 0 0 1 .017.025c-.002.01-.063.273-.533.55a.014.014 0 0 1-.01.004ZM8.651 13.403c-.143 0-.283-.009-.383-.034a.02.02 0 0 1-.015-.025.02.02 0 0 1 .025-.015c.296.074.983-.005.99-.005.01-.001.021.007.022.018.001.012-.006.022-.018.023-.018.002-.328.038-.621.038Z" fill="#000"/></g><path opacity=".8" d="M37.864 25.826c5.443 0 9.855-4.412 9.855-9.855 0-5.443-4.412-9.856-9.855-9.856-5.443 0-9.855 4.413-9.855 9.856s4.412 9.855 9.855 9.855Z" fill="#E8E8E8"/><g opacity=".8"><path d="M40.71 12.127c.181-.449.054-.837-.064-1.275-.098-.364-.14-1.061.185-1.333.325-.271.832-.286 1.068-.123.293.202.4.486.421.842.035.587.215.755.504.832.318.085.68.726.7 1.128.021.401-2.814-.071-2.814-.071Z" fill="#474747"/><path d="M37.668 12.945s-.07-.022-.113-.07c-.04-.045-.078-.085-.13-.1-.046-.012-.102-.071-.116-.08-.03-.015-.06.012-.06.012l.03.121.128.539.158.015.103-.437Z" fill="#C4C4C4"/><path d="M37.752 14.433s.122-.257-.05-.446c0 0 .128-.378-.15-.56 0 0 .099-.41-.25-.505.065-.201-.146-.438-.315-.46 0 0 .086-.243-.291-.405 0 0 .169-.19-.166-.527 0 0 .22-.486-.1-.746l-.337.117s-.088.463.289.692c0 0-.195.344.146.554.007.201.072.37.305.44-.038.04.03.41.363.397 0 0-.05.261.21.487 0 0-.058.301.168.53 0 0-.091.147.049.428-.022.246-.066.335-.2.576a.572.572 0 0 0 .177.065.47.47 0 0 0 .045-.15s0 .072-.025.154a.655.655 0 0 0 .395-.063 1.33 1.33 0 0 1-.263-.578Z" fill="#474747"/><path d="M37.022 12.865c.005.03.055.048.111.038.057-.008.1-.04.095-.07-.005-.03-.055-.048-.111-.038-.058.009-.1.04-.095.07Z" fill="#C4C4C4"/><path d="M37.027 12.97c.01.03.061.039.116.02.055-.018.091-.055.082-.085-.01-.028-.062-.038-.117-.02-.054.018-.09.056-.081.086Z" fill="#C4C4C4"/><path d="M37.069 13.059c.01.029.061.038.116.02.055-.018.091-.056.082-.085-.01-.03-.062-.039-.117-.02-.054.018-.09.056-.081.085Z" fill="#C4C4C4"/><path d="M37.131 13.13c.007.022.046.029.087.015.042-.013.069-.042.062-.063-.007-.022-.046-.029-.087-.015-.042.012-.07.04-.062.063Z" fill="#C4C4C4"/><path d="M35.717 11.259a.587.587 0 0 0 .478.054c.096-.03.2-.222.227-.318.035-.125-.014-.258-.002-.388.002-.037.01-.082-.019-.106-.03-.028-.078-.015-.112.006a.658.658 0 0 0-.178.187l-.279.386c-.03.043-.06.103-.025.141l-.09.038Z" fill="#474747"/><path d="M34.66 9.544a.473.473 0 0 1 .141-.242.972.972 0 0 1 .266-.16c.084-.036.173-.07.264-.084.102-.017.204-.011.307-.005.103.006.207.011.305.038.114.032.217.09.32.149.084.048.194.099.24.19.05.104.022.226.046.335.032.14.127.24.077.392-.02.06-.056.112-.068.173-.016.069 0 .14-.005.21a.375.375 0 0 1-.2.298.9.9 0 0 0-.283.255.855.855 0 0 1-.262.213c-.192.1-.414.082-.533-.093-.11-.162-.118-.361-.18-.546a.302.302 0 0 0-.067-.133c-.069-.062-.176-.044-.263-.076-.139-.05-.058-.15-.076-.296-.026-.192-.078-.422-.03-.618Z" fill="#474747"/><path d="m35.065 10.935-.203.421a.201.201 0 0 1-.19.112l-.185.261.537.407.52-.363c-.028-.18-.032-.36.038-.532l-.517-.306Z" fill="#C4C4C4"/><path d="M36.226 10.461c-.163.618-.822 1.008-1.27.89-.28-.074-.457-.328-.452-.64.003-.187.111-.369.163-.614.051-.244.149-1.046 1.006-.818.448.117.716.565.553 1.182Z" fill="#C4C4C4"/><path d="M35.126 11.388a.685.685 0 0 1-.26-.053c-.01-.004-.012-.014-.01-.021.004-.009.014-.013.022-.009a.613.613 0 0 0 .083.029c.14.036.3.025.469-.036a.017.017 0 0 1 .02.01.017.017 0 0 1-.009.021.933.933 0 0 1-.315.059ZM34.983 10.565a.098.098 0 0 1-.091-.06.1.1 0 0 1 .17-.1c.003.005.002.012-.003.015-.004.004-.011.003-.014-.002a.072.072 0 0 0-.034-.025.08.08 0 0 0-.101.044.08.08 0 0 0 0 .06.08.08 0 0 0 .044.041.079.079 0 0 0 .042.004.01.01 0 0 1 .012.008.01.01 0 0 1-.008.013c-.006.002-.012.002-.017.002ZM35.571 10.69c-.021.055-.103.072-.184.04-.08-.032-.13-.1-.109-.154.022-.053.104-.07.185-.039.08.032.13.1.108.154ZM34.63 10.243c-.021.07-.045.135-.067.197.077.025.152.006.171-.044.021-.053-.026-.12-.104-.153Z" fill="#707070"/><path d="M35.353 10.056c-.015.033.044.102.133.161.09.06.182.092.205.073.022-.019-.027-.107-.124-.18-.097-.074-.2-.087-.214-.054ZM34.72 10.014c.106-.01.19-.043.193-.079.003-.033-.085-.07-.199-.057-.012.05-.022.097-.03.138a.4.4 0 0 0 .035-.002Z" fill="#474747"/><path d="M34.875 10.243a.024.024 0 0 1-.02-.012.114.114 0 0 0-.156-.045c-.012.006-.027.002-.034-.01-.007-.011-.002-.027.01-.034a.164.164 0 0 1 .222.065.025.025 0 0 1-.01.033.022.022 0 0 1-.012.003ZM35.493 10.45a.024.024 0 0 1-.022-.012.114.114 0 0 0-.155-.045.025.025 0 0 1-.034-.01.025.025 0 0 1 .01-.033.166.166 0 0 1 .223.064c.006.012.002.027-.01.034a.034.034 0 0 1-.012.003Z" fill="#707070"/><path d="M35.755 9.225a.994.994 0 0 0-.619-.007c-.208.078-.382.318-.478.512.07-.046.001.058.066.007.09-.069.164-.27.296-.264.047.001.087.034.134.038.048.004.094-.024.142-.032.086-.013.168.039.253.06.054.013.113.015.156.052.04.034.054.094.099.124.042.03.101.027.14.06.037.032.045.086.039.134-.006.048-.021.094-.02.143 0 .048.018.095.025.142.015.103-.042.182-.042.28 0 .052.026.101.022.152-.003.037-.02.072-.026.107-.006.037.005.08.04.094.024.01.054-.002.073-.021.02-.02.084-.003.095-.028.075-.18.203-.372.229-.566.025-.194-.004-.463-.119-.621a1.233 1.233 0 0 0-.452-.347l-.053-.02Z" fill="#474747"/><path d="M35.796 11.091c.074.063.294.026.38-.073.102-.117.113-.274.026-.35a.156.156 0 0 0-.068-.036.196.196 0 0 0-.157.046c-.03.031-.234.369-.181.413Z" fill="#C4C4C4"/><path d="M35.947 10.985a.016.016 0 0 1-.015-.012c-.002-.009.002-.017.01-.02.126-.036.17-.087.172-.123 0-.012-.003-.02-.01-.025-.009-.009-.024-.01-.03-.009a.016.016 0 0 1-.017-.014c-.001-.009.006-.016.014-.017.003 0 .034-.003.055.016a.06.06 0 0 1 .018.049c0 .061-.073.119-.193.154h-.004ZM35.022 10.935a.09.09 0 0 1-.052-.042.104.104 0 0 0-.065-.053.106.106 0 0 0-.083.009.087.087 0 1 1-.082-.154.284.284 0 0 1 .384.117.087.087 0 0 1-.035.118.096.096 0 0 1-.067.005Z" fill="#707070"/><path d="M35.024 10.936a.149.149 0 0 0-.27-.081.09.09 0 0 0 .068-.006.114.114 0 0 1 .084-.009.11.11 0 0 1 .064.053.086.086 0 0 0 .054.043Z" fill="#969696"/><path d="M34.916 10.734a.41.41 0 0 0 .165.017.288.288 0 0 0-.125-.079.288.288 0 0 0-.166 0 .405.405 0 0 0 .126.062ZM34.245 9.806c-.149.121.093.255.304.28 0 0-.157-.399-.304-.28ZM36.054 10.497c.065-.18-.212-.17-.405-.083 0 0 .34.26.405.083ZM34.243 10.261c.002.13.171.061.275-.039.002-.002 0-.006-.002-.007-.043-.011-.275-.07-.273.046ZM35.624 10.857c.128-.007.053-.173-.05-.273-.001-.002-.005-.001-.006.002-.01.043-.061.276.056.27Z" fill="#fff"/><path d="m32.972 22.619-.05.257-.905.038-.07-.127s.193-.102.304-.22c.11-.118.222-.226.274-.482l.538.014-.09.52Z" fill="#C4C4C4"/><path d="M31.985 22.765s.264.168.976-.142c0 0 .012-.015.026.005.015.02.102.149.037.283 0 0-.008.054-.108.065-.1.01-1.022.033-1.104.035-.097.003-.183-.043-.195-.098-.013-.053.368-.148.368-.148Z" fill="#606060"/><path d="m35.071 22.619-.05.257-.905.038-.071-.127s.194-.102.304-.22c.11-.118.142-.3.148-.482l.6.014-.026.52Z" fill="#C4C4C4"/><path d="M34.083 22.765s.264.168.975-.142c0 0 .013-.015.027.005s.102.149.037.283c0 0-.008.054-.108.065-.1.01-1.022.033-1.104.035-.097.003-.183-.043-.195-.098-.013-.053.368-.148.368-.148Z" fill="#606060"/><path d="m32.895 16.363-.37 5.723a.508.508 0 0 0 .538.014l1.019-5.364-1.187-.373Z" fill="#C4C4C4"/><path d="m33.928 17.012.569 5.074a.595.595 0 0 0 .6.014l.087-5.228-1.256.14ZM34.5 11.461s-.255.006-.367.04c-.18.055-1.27.918-1.27.918l-2.223-.213-.1.367s2.225.62 2.428.555c.202-.064 1.407-.774 1.407-.774l.124-.893Z" fill="#C4C4C4"/><path d="M35.863 11.994c.105.088.177.221.212.403.035.183-.445 1.22-.584 1.691-.18.61-.221 1.623-.221 1.623.325 1.187.477 3.157.344 3.247-.148.099-1.785.772-2.977.005 0 0 .169-3.285.422-4.578.226-1.15.608-1.701.879-2.13.227-.36.561-.794.561-.794l.172.006s-.054.227.149.363c.202.135.723-.059.723-.059s.216.137.32.223Z" fill="#606060"/><path d="M35.607 12.033c.444-.022.516.781.232 1.264-.284.483-.795 1.257-1.093 1.356-.297.1-2.729-.566-2.729-.566s-.148-.073-.077-.328l2.6.217s.48-1.915 1.067-1.943ZM30.64 12.206c-.1-.05-.211-.484-.298-.48-.086.004-.008.313-.008.313s-.058.02-.151-.022c-.093-.041-.358-.265-.42-.213-.063.053.032.101.06.128.03.027.216.156.216.156s-.328-.12-.397-.11c-.069.01-.086.06-.042.091.044.03.38.152.38.152s-.34-.017-.386-.015c-.045.001-.052.073-.006.094.046.019.39.084.39.084s-.3.029-.341.048c-.042.02-.03.082.034.098s.66.034.83.038c.01 0 .023.002.038.005.033-.123.111-.36.1-.367Z" fill="#C4C4C4"/><path d="M31.939 13.759s-.27-.053-.468-.095c-.196-.043-.301-.065-.364-.05-.064.016-.33.074-.341.101-.01.028-.007.075.077.09 0 0-.128.033-.142.068-.013.037.084.066.153.054.07-.013.219-.048.274-.033 0 0-.306.203-.318.24-.012.037.023.054.07.046.047-.008.316-.205.404-.195 0 0-.028.013-.056.04-.03.028-.165.208-.154.235.01.027.048.036.087.008.039-.03.194-.17.272-.18.079-.012.257.05.33.048.073-.003.254-.052.254-.052l-.078-.325Z" fill="#C4C4C4"/><path opacity=".2" d="M34.642 16.06a.018.018 0 0 1-.016-.01.018.018 0 0 1 .009-.025c.275-.137.623-.328.626-.33a.018.018 0 0 1 .025.008.018.018 0 0 1-.008.025c-.004.002-.351.193-.628.33-.002.003-.005.003-.008.003Z" fill="#000"/><path d="m43.495 22.17-.068-1.076-.575-.105.187 1.061.456.12Z" fill="#C4C4C4"/><path d="M43.212 21.91c.153-.005.288.086.293.222.004.136.124.324.142.392.016.069.015.14-.003.162-.018.02-.701.01-.761-.013-.061-.022-.023-.168.028-.22.051-.053.068-.127.094-.216.027-.09-.025-.185.022-.248.048-.064.096-.077.185-.08Z" fill="#666665"/><path d="M43.092 22.138c.013-.014.319-.02.333-.007.015.012.015.09.001.093a2.701 2.701 0 0 1-.343-.009c-.008-.012-.003-.064.01-.077ZM43.048 22.304c.012-.014.41-.003.425.008.014.013.015.08.003.084a4.296 4.296 0 0 1-.433-.017c-.009-.011-.008-.062.005-.075ZM43.645 22.686c.018-.021.02-.093.003-.161l-.003-.012a2.081 2.081 0 0 0-.763-.016c-.033.065-.046.16.002.176.06.023.743.034.761.013Z" fill="#919191"/><path d="m39.823 20.771-.274 1.385.256.181.235-.124.348-1.36-.565-.082Z" fill="#C4C4C4"/><path d="m39.568 22.017-.003-.001c-.005-.001-.01.002-.013.004-.07.035-.135.084-.2.128a6.299 6.299 0 0 1-.186.128l-.08.05c-.015.008-.032.019-.05.02-.068.008-.25-.048-.294.064a.546.546 0 0 0-.031.101.09.09 0 0 0 .042.096c.07.042.23.103.55.094l.785-.021c.06-.002.094-.018.103-.05a.585.585 0 0 0-.016-.216c-.015-.072-.036-.19-.075-.253a.053.053 0 0 0-.086-.007c-.05.058-.139.08-.214.073a.28.28 0 0 1-.146-.055.174.174 0 0 1-.048-.06c-.013-.027-.011-.06-.027-.086-.002-.004-.006-.008-.01-.01Z" fill="#666665"/><path d="m38.985 22.497.051-.15c-.068.008-.25-.048-.294.064a.546.546 0 0 0-.031.101.09.09 0 0 0 .042.096c.07.042.23.103.55.094l.785-.021c.06-.002.094-.018.103-.05a.364.364 0 0 0-.002-.13h-.005c-.91.109-1.199-.004-1.199-.004ZM39.404 22.085l-.067.045a.031.031 0 0 0-.009.043c.024.035.064.095.082.116.027.03.12-.018.117-.055a.687.687 0 0 0-.078-.14.032.032 0 0 0-.045-.01Z" fill="#919191"/><path d="m39.212 22.196-.067.045a.031.031 0 0 0-.009.043c.023.035.063.095.082.117.027.03.12-.019.117-.055a.696.696 0 0 0-.079-.141.032.032 0 0 0-.044-.009Z" fill="#919191"/><path d="M40.51 16.353s-1.112 5.355-1.026 5.432c.088.076.738.046.83 0 .094-.046 1.614-4.376 1.614-4.376s.798 4.3.886 4.376c.087.076.688.09.774 0 .088-.089-.152-4.66-.33-5.477l-2.748.045Z" fill="#606060"/><path opacity=".2" d="M41.933 17.22a.154.154 0 0 1-.106-.043c-.031-.03-.045-.076-.044-.133.007-.16.025-.426.025-.43a.019.019 0 0 1 .02-.017c.011.001.019.01.018.02 0 .003-.017.268-.025.429-.002.046.009.081.032.105a.119.119 0 0 0 .064.031l.032-.6c.001-.011.01-.018.02-.018s.018.01.017.019l-.034.62c0 .01-.008.018-.018.018.002 0 .001 0 0 0ZM43.17 21.625c-.177 0-.344-.029-.394-.073a.018.018 0 1 1 .024-.028c.038.034.175.06.33.063.176.004.334-.02.424-.066.01-.005.02 0 .026.009.004.01 0 .02-.01.025a.978.978 0 0 1-.4.07ZM39.95 21.629c-.156 0-.31-.015-.415-.05a.019.019 0 0 1-.013-.022.019.019 0 0 1 .023-.013c.188.06.598.063.83.004.01-.003.02.004.023.014a.018.018 0 0 1-.014.022c-.11.029-.272.045-.435.045Z" fill="#000"/><path opacity=".2" d="M40.123 21.617c-.003 0-.005 0-.007-.002a.018.018 0 0 1-.01-.024l1.806-4.191a.018.018 0 0 1 .024-.01c.01.004.013.016.01.024l-1.806 4.192c-.002.007-.01.011-.017.011Z" fill="#000"/><path d="M40.943 11.813s-.633.178-.825.321c-.192.144-.824 1.155-.824 1.155s-1.534-.425-1.581-.426c-.089-.002-.31.58-.2.654.074.05 1.718.62 1.991.57.274-.052.848-.652.848-.652l.591-1.622Z" fill="#8E8E8E"/><path d="m40.944 11.813 1.045-.08.713.882s.737 2.666.644 3.774c.034.195-1.625.492-2.055.444-.431-.048-.892-.287-.913-.362-.021-.075.398-1.23-.004-2.943-.006-.03-.147-.542-.154-.573l.724-1.142Z" fill="#8E8E8E"/><path opacity=".2" d="M40.352 13.454a.019.019 0 0 1-.019-.014l-.056-.274-.071-.346a.018.018 0 0 1 .013-.022c.01-.003.02.004.022.013l.072.348.056.272c.002.01-.004.02-.014.023h-.003Z" fill="#000"/><path d="M44.171 15.295c0 .03.03.175.03.185-.012.103-.296.345-.264.418.032.073.274-.093.274-.093s.034.043.028.137c-.005.093-.114.393-.048.43.065.037.075-.06.09-.094.013-.034.066-.235.066-.235s.002.32.032.377c.03.057.08.056.092.007.012-.048.01-.376.01-.376s.094.299.11.336c.015.039.08.022.081-.024.002-.046-.05-.363-.05-.363s.12.249.15.279c.029.03.079-.001.072-.062a11.53 11.53 0 0 0-.204-.782.232.232 0 0 1-.008-.035c-.118.014-.346-.084-.46-.105Z" fill="#C4C4C4"/><path opacity=".2" d="M42.504 14.994a.018.018 0 0 1-.017-.01c-.004-.01 0-.02.008-.025l.656-.337c.008-.005.02-.001.025.008.005.01 0 .02-.008.024l-.656.337a.015.015 0 0 1-.008.003Z" fill="#000"/><path d="M41.99 11.732s.582.07.79.14c.21.07 1.3 1.167 1.446 1.458.146.29.562 2.007.536 2.08-.026.075-.623.14-.684.103-.06-.037-.475-1.731-.475-1.731l-1.017-.67-.597-1.38Z" fill="#8E8E8E"/><path opacity=".2" d="M42.884 13.34c-.004 0-.007-.002-.01-.004l-.47-.3a.019.019 0 0 1-.006-.026.019.019 0 0 1 .026-.006l.47.3a.019.019 0 0 1 .007.027.019.019 0 0 1-.017.008Z" fill="#000"/><path d="M42.088 10.357s.299-.575-.041-.856c0 0-.017-.258-.223-.354-.205-.096-.465-.032-.465-.032s-.133-.115-.37-.073c-.235.043-.306.221-.306.221s-.168-.041-.29.066c-.122.108-.157.268-.104.355 0 0-.153.137-.112.392.04.255.27.573.27.573l1.641-.292Z" fill="#474747"/><path d="m41.898 11.117-.05.596.14.02s-.282.423-.643.411c-.362-.012-.403-.331-.403-.331l.153-.042-.016-.216.134-.018.685-.42Z" fill="#C4C4C4"/><path d="M42.126 10.384c.032.689-.519 1.304-1.017 1.327-.311.014-.577-.19-.672-.513-.058-.194-.005-.415-.032-.684-.027-.268-.185-1.124.77-1.168.497-.022.92.351.951 1.038Z" fill="#C4C4C4"/><path d="M41.094 11.733a.017.017 0 0 1-.016-.015c0-.009.006-.017.016-.018.162-.011.387-.078.533-.233.006-.007.017-.007.023 0 .007.005.007.016.001.022-.151.162-.386.232-.555.243l-.002.001ZM40.946 10.929a.106.106 0 0 1-.07-.027.102.102 0 0 1-.034-.072.103.103 0 0 1 .099-.109.11.11 0 0 1 .054.013c.006.003.008.01.005.015a.011.011 0 0 1-.015.005.084.084 0 0 0-.043-.01.082.082 0 0 0-.078.085.082.082 0 0 0 .128.064c.004-.003.011 0 .015.004.004.005.002.012-.003.015a.106.106 0 0 1-.053.018l-.005-.001Z" fill="#707070"/><path d="M41.263 11.066c.03.037-.123.205-.275.207-.147.002-.259-.14-.236-.195.023-.055.481-.048.51-.012Z" fill="#fff"/><path d="M40.761 10.296c.003.037-.083.084-.192.113-.108.03-.205.033-.22.006-.016-.026.062-.098.183-.137.12-.04.227-.018.23.018ZM41.072 10.292c.005.037.095.064.207.066.111.001.211-.022.22-.051.008-.03-.085-.08-.21-.089-.127-.01-.223.038-.218.074Z" fill="#474747"/><path d="M41.173 9.338c-.71.033-.865.33-.856.687l.01.095s.596-.1.567-.42c0 0 .098.208.421.267 0 0-.096-.09-.107-.196 0 0 .263.192.437.096-.018.145.064.58.305.782.041.035.139-.053.172-.052.01-.07.013-.141.01-.214-.032-.692-.457-1.068-.959-1.045Z" fill="#474747"/><path d="M42.338 10.632c.048-.155-.008-.31-.123-.345-.116-.036-.25.06-.297.214-.048.155.007.309.123.345.116.036.249-.06.297-.214Z" fill="#C4C4C4"/><path d="M42.101 10.698a.016.016 0 0 1-.012-.005.017.017 0 0 1 .002-.024c.103-.087.124-.155.11-.19-.005-.011-.01-.018-.02-.02-.012-.005-.027.002-.032.005-.008.005-.017.002-.022-.007-.005-.007-.002-.017.006-.022a.077.077 0 0 1 .058-.006c.018.005.03.019.039.038.025.058-.02.144-.12.227-.001.003-.005.004-.009.004ZM40.518 10.702a.022.022 0 0 1-.015-.006.024.024 0 0 1-.003-.034.163.163 0 0 1 .23-.02.025.025 0 1 1-.031.038.114.114 0 0 0-.162.014.024.024 0 0 1-.019.008ZM41.169 10.675a.022.022 0 0 1-.016-.006.024.024 0 0 1-.003-.034.162.162 0 0 1 .23-.02c.011.01.012.025.004.035a.024.024 0 0 1-.035.003.11.11 0 0 0-.083-.027.11.11 0 0 0-.078.04.027.027 0 0 1-.02.01Z" fill="#707070"/></g><path d="m32.996 18.38-4.396.115-.087 1.542 4.218.726s.01-1.444.4-2.35" fill="#FCDAC8"/><path d="M34.607 18.312s.13-.269-.173-.336-1.41 0-1.578 0c-.168 0-.697.538-.782 1.545-.084 1.007-.01 1.544.194 1.645.204.1 1.577-.034 1.577-.034s.283-1.242.543-1.813c.259-.571.219-1.007.219-1.007Z" fill="#434444"/><path d="M30.688 50.166c.282-2.008.608-4.54.594-5.438-.025-1.574-.07-1.823-.07-1.823H19.239l-.12.29s-.296 2.278-.007 4.806c.152 1.327.278 2.619.364 3.547 1.527-.472 3.187-1 5.131-1.269l.064-4.431.491-.373.23 4.713a18.5 18.5 0 0 1 1.777-.089c1.327-.004 2.482.031 3.519.067Z" fill="#353535" stroke="#263238" stroke-width=".096" stroke-miterlimit="10"/><path d="M22.142 27.328h6.587l.754 16.24s-.948.33-2.357.29c-1.41-.042-1.665-.498-2.985-.124-1.32.372-1.398.662-2.354.456l-.956-.208 1.311-16.654Z" fill="#fff"/><path d="M25.493 39.27c-.065.19-.116.35-.147.463M26.916 35.41s-.766 1.994-1.24 3.329M25.137 37.361l-.171.384M26.308 34.716l-.86 1.942" stroke="#6D6D6D" stroke-width=".096" stroke-miterlimit="10" stroke-linecap="round" stroke-linejoin="round"/><path d="m26.915 28.687.081 7.32-.004 10.308s1.712 0 2.75-.269c1.036-.268 2.323-1.679 2.323-1.679s-1.402-8.024-1.453-9.132c-.051-1.108.36-6.984.36-6.984s5.886-6.932 6.26-7.488c.591-.873.748-1.578.609-1.948-.14-.37-3.234-.638-3.568-.538-.334.101-.834 2.451-.834 2.451s-2.123 1.646-2.889 2.082c-.765.436-1.232.638-2.199 1.04-.97.404-1.73 1.11-1.73 1.11l.294 3.727Z" fill="#757575" stroke="#6D6D6D" stroke-width=".096" stroke-miterlimit="10"/><path d="M29.798 27.035c.003.212.01.407.021.578Z" fill="#757575"/><path d="M29.798 27.035c.003.212.01.407.021.578" stroke="#6D6D6D" stroke-width=".096" stroke-miterlimit="10"/><path d="M29.92 23.415s-.117 1.777-.124 3.187Z" fill="#757575"/><path d="M29.92 23.415s-.117 1.777-.124 3.187" stroke="#6D6D6D" stroke-width=".096" stroke-miterlimit="10"/><path d="M30.32 23.18s-.245 1.579-.3 2.384Z" fill="#757575"/><path d="M30.32 23.18s-.245 1.579-.3 2.384" stroke="#6D6D6D" stroke-width=".096" stroke-miterlimit="10"/><path d="M33.438 20.73s1.133-.889 1.406-.935Z" fill="#757575"/><path d="M33.438 20.73s1.133-.889 1.406-.935" stroke="#6D6D6D" stroke-width=".096" stroke-miterlimit="10"/><path d="m23.788 28.485-.327 9.099-.495 9.032s-1.348-.303-2.666-.84c-1.318-.537-2.032-1.107-2.032-1.107s.525-2.921.868-4.533c.344-1.612.795-4.936.787-5.473-.009-.538-.08-2.854-.3-4.097-.22-1.242-1.22-2.82-1.222-2.988-.003-.168 3.468-1.545 4.1-1.88.633-.337 1.136-.404 1.136-.404l.169.067-.018 3.124Z" fill="#757575" stroke="#6D6D6D" stroke-width=".096" stroke-miterlimit="10"/><path d="M23.73 24.893s-.633.302-.758.906c-.125.605-.559 2.921-.587 3.257-.027.336.104.202.368-.1.264-.303.558-.806.694-.672l.648.638h2.485s.2-.067.332-.235c.131-.168.36-.572.496-.437.136.134.486 1.007.584.805.098-.201-.378-2.686-.525-3.458-.144-.771-1.461-1.242-3.736-.704Z" fill="#434444"/><path d="M23.81 25.665s-.12 3.055.16 3.66c.278.604 1.026 1.174 1.726.939.702-.235 1.2-.639 1.22-1.377.023-.738-.185-3.257-.185-3.257l-2.92.035Z" fill="#FCDAC8"/><path d="M26.917 28.888c.022-.738-.185-3.257-.185-3.257l-2.92.034s-.044 1.102-.018 2.113c.293-.031.853-.132 1.351-.468.713-.48 1.065-1.021 1.065-1.021l.663 2.918c.024-.098.04-.204.044-.319Z" fill="#E5CEC3"/><path d="M21.833 20.748s-.255-.372-.494.187c-.24.558.238 1.335.459 1.521.22.186.814.435.81.156-.006-.28-.242-1.49-.435-1.925-.193-.436-.34.061-.34.061ZM28.881 20.842s.243-.373.5.186c.258.559-.195 1.335-.41 1.521-.215.187-.801.435-.805.156-.005-.28.194-1.49.373-1.925.18-.435.342.062.342.062Z" fill="#FCDAC8"/><path d="M22.257 22.052s.274 1.646.472 2.39c.198.745 1.902 2.453 2.523 2.484.62.03 2.251-.963 2.639-1.987.388-1.024.486-2.67.484-2.763-.002-.093.21-2.329-.391-3.135-.603-.808-3.115-.684-4.347-.031-1.232.652-1.9 1.645-1.38 3.042Z" fill="#FCDAC8"/><path d="M24.39 23.464c.002.197-.085.357-.196.357-.112 0-.205-.16-.208-.357-.003-.197.085-.357.196-.357.112.001.205.16.208.357ZM26.781 23.464c.003.197-.084.357-.196.357-.111 0-.204-.16-.207-.357-.003-.197.084-.357.196-.357.111.001.203.16.207.357Z" fill="#3A3939" stroke="#3A3939" stroke-width=".096" stroke-miterlimit="10"/><path d="m24.558 22.3-1.17.59M26.36 22.331l1.16.683" stroke="#3A3939" stroke-width=".192" stroke-miterlimit="10" stroke-linecap="round" stroke-linejoin="round"/><path d="M25.864 24.676c.003.212-.184.383-.418.383-.235 0-.428-.172-.431-.383M25.143 25.81s.267-.136.563 0M23.558 23.805l.474.09M27.318 23.805l-.515.157" stroke="#263238" stroke-width=".096" stroke-miterlimit="10" stroke-linecap="round"/><path d="M23.901 16.03s-1.602.744-2.107 2.235c-.504 1.49.172 3.042.272 3.446.1.404.165.621.165.621s.457-.528.795-.776c.338-.249 1.018-.373 1.42-.466.403-.093 1.795-.435 2.162-.807.366-.373.488-.528.488-.528s.305 1.583.715 2.049c.411.465.512.962.512.962s.27-.62.478-1.18c.209-.558.355-3.135-.221-4.222-.576-1.086-3.015-2.142-4.679-1.335Z" fill="#3A3939" stroke="#3A3939" stroke-width=".096" stroke-miterlimit="10"/><path d="M27.096 19.755s-1.252 1.335-2.701 1.955c-1.45.621-2.976 2.267-2.839 3.105.137.838 1.168 1.15 1.043 1.15-.124 0-1.65-.28-1.639-1.522.011-1.243 1.304-1.988 1.982-2.298.678-.31 3.539-1.987 4.154-2.39ZM27.39 20.686s.428 1.49.684 1.987c.256.497.71 1.676.381 2.515-.328.838-.575.963-.575.963s1.106-.776 1.086-2.048c-.02-1.272-1.376-2.548-1.575-3.417ZM27.167 16.503c.03-.848-.772-1.565-1.792-1.6-1.02-.037-1.872.621-1.902 1.469-.03.848.773 1.564 1.793 1.6 1.02.037 1.871-.621 1.901-1.47Z" fill="#3A3939" stroke="#3A3939" stroke-width=".096" stroke-miterlimit="10"/><path d="M26.432 15.184c.015-.497-.465-.915-1.073-.934-.609-.02-1.115.368-1.13.865-.016.497.464.915 1.073.935.608.019 1.114-.368 1.13-.866Z" fill="#3A3939" stroke="#3A3939" stroke-width=".096" stroke-miterlimit="10"/><path d="m16.166 39.13.08 5.07s-.402 2.215-.198 2.383c.204.168.885.772 1.022.94.137.168.407.235.609.269.202.033.77-.135.664-.437-.105-.302-.234.067-.336-.034-.103-.1-.274-.37-.274-.37l.19-.737s.045.704.213.738c.168.033.2-.101.196-.37-.004-.269-.072-.336-.047-.839.026-.504-.182-.873-.287-1.141-.105-.27-.314-.772-.35-.94-.037-.168 1.075-4.164 1.075-4.164s-.73.47-2.557-.368Z" fill="#FCDAC8"/><path d="M18.4 27.579s-.962.772-1.11 1.948c-.15 1.175-.19 2.854-.316 3.391-.126.538-.63 4.769-.63 4.769s.477.47.883.672c.406.201 1.31.033 1.444 0 .133-.034.4-.168.4-.168s.552-3.291.577-3.861c.025-.572.242-1.713.242-1.713s-.024-3.695-1.49-5.038Z" fill="#757575" stroke="#6D6D6D" stroke-width=".096" stroke-miterlimit="10"/><path d="M19.032 34.025c-.074.13-.137.244-.181.331Z" fill="#757575"/><path d="M19.032 34.025c-.074.13-.137.244-.181.331" stroke="#6D6D6D" stroke-width=".096" stroke-miterlimit="10"/><path d="M19.89 32.615s-.353.56-.66 1.072Z" fill="#757575"/><path d="M19.89 32.615s-.353.56-.66 1.072M19.085 33.353l-.702 1.17" stroke="#6D6D6D" stroke-width=".096" stroke-miterlimit="10"/><path d="M16.233 37.014s.68.605 1.322.805c.641.202 1.178.168 1.412.101.234-.067.333-.168.37.1.038.27-.182 1.21-.178 1.478.004.27-.094.404-.63.504-.535.101-1.68-.1-2.02-.336-.34-.235-.58-.57-.55-.872.028-.303.152-.974.182-1.209.03-.235-.04-.504.092-.571Z" fill="#434444"/><path d="M23.385 32.092a.166.166 0 0 0-.026-.02c-.238-.15-1.457.167-1.765.167-1.002 0-1.417-.274-1.457.09-.04.366-.125.73-.03.913.093.182.409 0 .684.045.274.045.826.365 1.054.365.227 0 .815-.365.951-.365s.458.136.547 0c.141-.224.24-1.005.042-1.195Z" fill="#fff" stroke="#fff" stroke-width=".096" stroke-miterlimit="10"/><path d="M21.962 33.175a.195.195 0 0 1-.196.198c-.11 0-.2-.089-.201-.198a.195.195 0 0 1 .195-.199c.11 0 .2.09.202.199Z" stroke="#263238" stroke-width=".096" stroke-miterlimit="10" stroke-linecap="round"/><path d="M30.405 32.092a.136.136 0 0 0-.026-.02c-.238-.15-1.457.167-1.765.167-1.003 0-1.417-.274-1.458.09-.039.366-.124.73-.03.913.094.182.41 0 .684.045.275.045.827.365 1.054.365.228 0 .815-.365.951-.365.137 0 .458.136.548 0 .14-.224.24-1.005.042-1.195Z" fill="#fff" stroke="#fff" stroke-width=".096" stroke-miterlimit="10"/><path d="M29.017 33.225a.195.195 0 0 1-.196.198c-.11 0-.2-.089-.202-.198a.195.195 0 0 1 .196-.199c.11 0 .2.09.202.199Z" stroke="#263238" stroke-width=".096" stroke-miterlimit="10" stroke-linecap="round"/><path opacity=".55" d="m41.025 8.745-.357-.62-.358-.62h1.431l-.358.62-.358.62ZM8.863 5.336l-.358-.62-.358-.62H9.58l-.358.62-.358.62Z" fill="#8C8C8C"/><path d="M18.958 16.98h-7.463a.564.564 0 0 0-.563.564v2.394c0 .311.252.564.563.564h6.161l1.582 1.17-.544-1.17h.264a.564.564 0 0 0 .564-.564v-2.394a.564.564 0 0 0-.564-.564Z" fill="#474747" stroke="#474747" stroke-width=".096" stroke-miterlimit="10"/><path d="M19.049 16.837h-7.463a.564.564 0 0 0-.563.564v2.394c0 .311.252.564.563.564h6.161l1.49 1.314-.452-1.314h.264a.564.564 0 0 0 .564-.564v-2.394a.563.563 0 0 0-.564-.564Z" fill="#fff" stroke="#666" stroke-width=".096" stroke-miterlimit="10"/><path d="M12.278 17.754v1.598h-.177v-1.598h.177ZM12.555 18.177h-.073l.057-.201h-.066v-.222h.17v.204l-.088.219ZM13.415 19.35h-.171l-.265-1.271v1.274h-.156v-1.598h.249l.262 1.276.253-1.276h.249v1.598h-.169v-1.286l-.252 1.283ZM15.065 18.138v.043h-.17v-.052c0-.144-.054-.229-.182-.229-.127 0-.182.085-.182.226 0 .358.537.392.537.842 0 .242-.117.399-.361.399s-.358-.157-.358-.4v-.09h.167v.1c0 .144.06.229.187.229.128 0 .187-.085.187-.229 0-.356-.534-.39-.534-.84 0-.246.115-.4.355-.4.24.002.354.16.354.401ZM15.208 18.14c0-.244.121-.401.365-.401.246 0 .367.157.367.401v.827c0 .242-.12.401-.367.401-.244 0-.365-.16-.365-.401v-.827Zm.177.835c0 .146.061.23.189.23.13 0 .189-.084.189-.23v-.844c0-.144-.06-.23-.19-.23-.127 0-.188.086-.188.23v.844ZM16.465 17.754c.251 0 .357.128.357.365v.13c0 .175-.062.285-.199.328.146.043.2.162.2.333v.249c0 .07.003.137.032.192h-.18a.424.424 0 0 1-.03-.194v-.252c0-.18-.084-.237-.232-.237h-.126v.683h-.178v-1.598h.356v.001Zm-.045.754c.141 0 .226-.046.226-.219v-.153c0-.144-.053-.218-.185-.218h-.174v.59h.133ZM17.365 17.754c.25 0 .356.128.356.365v.13c0 .175-.061.285-.199.328.146.043.201.162.201.333v.249c0 .07.002.137.032.192h-.18a.424.424 0 0 1-.03-.194v-.252c0-.18-.085-.237-.233-.237h-.126v.683h-.177v-1.598h.356v.001Zm-.045.754c.14 0 .225-.046.225-.219v-.153c0-.144-.052-.218-.185-.218h-.174v.59h.134ZM18.169 18.78l-.338-1.025h.185l.249.786.25-.786h.17l-.34 1.025v.573h-.176v-.573Z" fill="#515151"/></g></g><defs><clipPath id="a"><rect width="48" height="48" rx="24" fill="#fff"/></clipPath><clipPath id="b"><path fill="#fff" d="M0 0h48v48H0z"/></clipPath></defs></svg>