<svg width="48" height="48" viewBox="0 0 48 48" fill="none" xmlns="http://www.w3.org/2000/svg">
<g clip-path="url(#clip0_1146_49385)">
<rect width="48" height="48" rx="24" fill="white"/>
<path opacity="0.54" d="M24.8467 10.6483H8.0947C7.81246 10.6483 7.58398 10.8768 7.58398 11.159V40.9718C7.58398 41.2541 7.81246 41.4826 8.0947 41.4826H24.8477C25.1299 41.4826 25.3584 41.2541 25.3584 40.9718V11.159C25.3574 10.8768 25.1289 10.6483 24.8467 10.6483ZM24.8467 11.7821V40.9718H8.0947V11.7821" fill="#9B9A9A"/>
<g opacity="0.54">
<path opacity="0.7" d="M24.3662 10.9036H8.57423C8.16815 10.9036 7.83887 11.2328 7.83887 11.6389V40.4917C7.83887 40.8978 8.16815 41.2271 8.57423 41.2271H24.3662C24.7723 41.2271 25.1016 40.8978 25.1016 40.4917V11.6389C25.1016 11.2328 24.7723 10.9036 24.3662 10.9036Z" fill="#EFEFEF"/>
<mask id="mask0_1146_49385" style="mask-type:luminance" maskUnits="userSpaceOnUse" x="7" y="10" width="19" height="32">
<path d="M24.3652 10.9036H8.57325C8.16717 10.9036 7.83789 11.2328 7.83789 11.6389V40.4917C7.83789 40.8978 8.16717 41.2271 8.57325 41.2271H24.3652C24.7713 41.2271 25.1006 40.8978 25.1006 40.4917V11.6389C25.1006 11.2328 24.7713 10.9036 24.3652 10.9036Z" fill="white"/>
</mask>
<g mask="url(#mask0_1146_49385)">
<path d="M19.7459 28.1289L21.5431 33.9734H23.3363L21.7715 26.829C21.7715 26.829 21.6314 20.2482 20.1309 19.5935C19.4714 19.3055 18.1447 19.3804 17.2509 19.4754V19.2009V18.5577C17.6781 18.2015 17.9517 17.6668 17.9517 17.0706V16.967C18.1293 16.5609 18.3731 15.7535 18.2042 14.6226C18.1975 14.5756 18.1888 14.5305 18.1802 14.4863C18.0928 14.0591 17.8797 13.7078 17.5946 13.4476C17.5946 13.4476 16.3149 12.1017 14.4592 13.2642C14.6791 13.3314 14.6791 13.3314 14.6791 13.3314C14.6791 13.3314 14.0195 13.5071 13.6672 14.4316C13.8208 14.3001 13.9754 14.2559 13.9754 14.2559C13.9754 14.2559 13.3581 15.2639 14.0791 16.5455V17.0716C14.0791 17.6678 14.3527 18.2034 14.7799 18.5586V19.4284C14.6743 19.4409 14.5648 19.4582 14.4525 19.4802C13.5587 19.3833 12.2061 19.3036 11.5379 19.5945C10.0384 20.2492 10.3466 26.83 10.3466 26.83L9.60449 33.9743H11.3978H20.104L19.1671 28.4332C19.1066 27.9014 19.0845 27.3666 19.097 26.8319C19.336 27.3695 19.5587 27.8217 19.7459 28.1289Z" fill="#A8A8A8"/>
<path d="M14.6436 15.8121C14.754 16.1606 15.1504 16.3535 15.5248 16.2374C15.2916 15.7372 14.6436 15.8121 14.6436 15.8121Z" fill="#4F4E4E"/>
<path d="M16.2637 16.2384C16.6381 16.3536 17.0346 16.1616 17.145 15.8131C17.145 15.8121 16.4979 15.7372 16.2637 16.2384Z" fill="#4F4E4E"/>
<path d="M25.4701 26.4133C25.3175 26.3039 24.7972 26.373 24.1991 26.5036C23.4647 25.9295 25.1466 25.4936 25.3434 23.8703C25.5508 22.1653 24.5677 22.1432 24.1281 21.3042C23.7805 20.6418 24.2596 19.5292 24.3882 18.8591C24.5927 17.7954 24.5553 16.6501 23.9197 15.7276C23.4474 15.0421 22.6583 14.6312 21.8298 14.8405C21.2903 14.9768 20.7834 15.3474 20.578 15.86C19.6189 15.692 18.5754 15.9388 17.769 16.6904C17.2727 17.1532 16.785 17.781 16.4106 18.6296C15.9066 19.7711 16.1255 20.8021 16.5585 21.622V22.4869C16.5585 23.5784 17.1277 24.5423 17.9831 25.0991L17.9581 25.102V27.4866C17.9581 27.4866 14.3812 26.95 13.9617 27.4866C13.5421 28.0232 10.2676 40.9717 10.2676 40.9717H28.449C27.7348 30.2284 25.8877 26.7109 25.4701 26.4133Z" fill="#8E8E8E"/>
<path d="M17.0098 21.0844C17.1797 21.6239 17.7931 21.9206 18.373 21.743C18.011 20.9683 17.0098 21.0844 17.0098 21.0844Z" fill="#4F4E4E"/>
<path d="M19.5166 21.742C20.0955 21.9206 20.7089 21.623 20.8798 21.0834C20.8788 21.0844 19.8776 20.9682 19.5166 21.742Z" fill="#4F4E4E"/>
<path d="M17.7275 32.6083C17.5518 32.279 16.8117 31.8537 16.0907 31.5014C16.5592 30.31 16.4046 28.4236 15.9448 27.6777C15.4427 26.8636 16.564 26.3049 16.2558 25.2307C17.0478 25.2576 17.5585 19.8019 12.5291 19.8019C12.5291 19.8019 10.6014 19.8748 9.89774 21.0921C9.19406 22.3094 7.39022 22.8153 7.63214 24.2457C7.87406 25.6761 8.53454 25.5158 8.4683 26.3328C8.40206 27.1497 7.61006 27.1056 7.61006 27.1056C7.61006 27.1056 7.88846 27.6038 8.64398 27.3033C6.84014 28.9315 9.12781 30.4416 8.81965 31.1385C8.51149 31.8355 7.60909 31.5052 7.60909 31.5052C7.60909 31.5052 7.77902 31.8038 8.25614 31.9267C7.80974 32.087 7.4027 32.2406 7.14734 32.3491C6.29102 32.7158 4.7627 40.9718 4.7627 40.9718H20.4184C20.4184 40.9718 18.0942 33.2947 17.7275 32.6083Z" fill="#6D6C6C"/>
<path d="M11.7412 24.3339C11.9111 24.8735 12.5246 25.1701 13.1044 24.9925C12.7425 24.2178 11.7412 24.3339 11.7412 24.3339Z" fill="#4F4E4E"/>
<path d="M14.2471 24.9925C14.826 25.1711 15.4394 24.8735 15.6103 24.3339C15.6103 24.3339 14.609 24.2178 14.2471 24.9925Z" fill="#4F4E4E"/>
</g>
<path d="M15.165 11.2771H17.7109C17.7762 11.2771 17.829 11.2243 17.829 11.159C17.829 11.0937 17.7762 11.0409 17.7109 11.0409H15.165C15.0997 11.0409 15.0469 11.0937 15.0469 11.159C15.0469 11.2243 15.0997 11.2771 15.165 11.2771Z" fill="#777777"/>
<path d="M14.4355 11.2771C14.5008 11.2771 14.5536 11.2243 14.5536 11.159C14.5536 11.0937 14.5008 11.0409 14.4355 11.0409C14.3702 11.0409 14.3174 11.0937 14.3174 11.159C14.3164 11.2243 14.3702 11.2771 14.4355 11.2771Z" fill="#777777"/>
<path d="M18.4413 11.2771C18.5066 11.2771 18.5594 11.2243 18.5594 11.159C18.5594 11.0937 18.5066 11.0409 18.4413 11.0409C18.3761 11.0409 18.3233 11.0937 18.3233 11.159C18.3223 11.2243 18.3761 11.2771 18.4413 11.2771Z" fill="#777777"/>
</g>
<g opacity="0.82">
<path d="M26.1512 9.38013H22.3755C21.644 9.38013 21.0459 9.97821 21.0459 10.7097C21.0459 11.4412 21.644 12.0393 22.3755 12.0393H22.4398V12.8073L23.2078 12.0393H26.1512C26.8827 12.0393 27.4808 11.4412 27.4808 10.7097C27.4808 9.97821 26.8827 9.38013 26.1512 9.38013Z" fill="white" stroke="#606060" stroke-width="0.096" stroke-miterlimit="10"/>
<path d="M23.7828 10.7952C23.7828 10.7952 23.6695 10.9401 23.5246 11.0803C23.3796 11.2195 23.5514 11.4835 23.4382 11.5046C23.3249 11.5257 23.2231 11.4134 23.2606 11.1504C23.2817 10.968 23.1367 10.8921 23.1367 10.8921V10.1021C23.1367 10.1021 23.5668 10.0003 23.7809 10.2153C23.9585 10.2153 23.969 10.2153 23.969 10.2153V10.7923L23.7828 10.7952Z" fill="#A3A3A3"/>
<path d="M22.9347 10.7164H23.191C23.2505 10.7164 23.2995 10.7654 23.2995 10.8249C23.2995 10.8844 23.2505 10.9334 23.191 10.9334H22.9347C22.8751 10.9334 22.8262 10.8844 22.8262 10.8249C22.8271 10.7644 22.8751 10.7164 22.9347 10.7164Z" fill="#A3A3A3"/>
<path d="M22.9347 10.4995H23.191C23.2505 10.4995 23.2995 10.5485 23.2995 10.608C23.2995 10.6675 23.2505 10.7165 23.191 10.7165H22.9347C22.8751 10.7165 22.8262 10.6675 22.8262 10.608C22.8271 10.5485 22.8751 10.4995 22.9347 10.4995Z" fill="#A3A3A3"/>
<path d="M22.9347 10.2834H23.191C23.2505 10.2834 23.2995 10.3324 23.2995 10.3919C23.2995 10.4514 23.2505 10.5004 23.191 10.5004H22.9347C22.8751 10.5004 22.8262 10.4514 22.8262 10.3919C22.8271 10.3324 22.8751 10.2834 22.9347 10.2834Z" fill="#A3A3A3"/>
<path d="M22.9729 10.0896H23.2024C23.2561 10.0896 23.2993 10.1328 23.2993 10.1866C23.2993 10.2403 23.2561 10.2835 23.2024 10.2835H22.9729C22.9192 10.2835 22.876 10.2403 22.876 10.1866C22.876 10.1328 22.9201 10.0896 22.9729 10.0896Z" fill="#A3A3A3"/>
<path d="M25.2425 11.6218C25.7006 11.6218 26.072 11.2504 26.072 10.7923C26.072 10.3342 25.7006 9.96289 25.2425 9.96289C24.7844 9.96289 24.4131 10.3342 24.4131 10.7923C24.4131 11.2504 24.7844 11.6218 25.2425 11.6218Z" fill="#636262"/>
<path d="M25.5764 11.1418C25.5744 11.1398 25.5735 11.1389 25.5716 11.137C25.3901 10.9574 25.0944 10.9574 24.913 11.137C24.9111 11.1389 24.9101 11.1398 24.9082 11.1418" stroke="white" stroke-width="0.0868896" stroke-miterlimit="10" stroke-linecap="round" stroke-linejoin="round"/>
<path d="M24.8584 10.6925C24.8584 10.7472 24.9026 10.7923 24.9582 10.7923C25.013 10.7923 25.0581 10.7482 25.0581 10.6925C25.0581 10.6378 25.0139 10.5927 24.9582 10.5927C24.9035 10.5936 24.8584 10.6378 24.8584 10.6925Z" fill="white"/>
<path d="M25.4268 10.6925C25.4268 10.7472 25.4709 10.7923 25.5266 10.7923C25.5813 10.7923 25.6264 10.7482 25.6264 10.6925C25.6264 10.6378 25.5823 10.5927 25.5266 10.5927C25.4709 10.5936 25.4268 10.6378 25.4268 10.6925Z" fill="white"/>
<path d="M25.3877 10.6195C25.3877 10.6195 25.4568 10.4765 25.6661 10.4889" stroke="white" stroke-width="0.0868896" stroke-miterlimit="10" stroke-linecap="round" stroke-linejoin="round"/>
<path d="M25.0977 10.6195C25.0977 10.6195 25.0286 10.4765 24.8193 10.4889" stroke="white" stroke-width="0.0868896" stroke-miterlimit="10" stroke-linecap="round" stroke-linejoin="round"/>
</g>
<g opacity="0.84">
<path d="M4.70167 18.3906H8.47735C9.20887 18.3906 9.80695 18.9887 9.80695 19.7202C9.80695 20.4517 9.20887 21.0498 8.47735 21.0498H8.41303V21.8178L7.64503 21.0498H4.70167C3.97015 21.0498 3.37207 20.4517 3.37207 19.7202C3.37207 18.9887 3.97111 18.3906 4.70167 18.3906Z" fill="white" stroke="#606060" stroke-width="0.096" stroke-miterlimit="10"/>
<path d="M8.01799 20.4329C8.3879 20.1548 8.46227 19.6294 8.18409 19.2595C7.90591 18.8896 7.38053 18.8152 7.01061 19.0934C6.6407 19.3715 6.56633 19.8969 6.84451 20.2668C7.12268 20.6368 7.64807 20.7111 8.01799 20.4329Z" fill="#898989"/>
<path d="M7.7716 20.2377C7.81384 20.2454 7.84456 20.1974 7.82056 20.1618C7.76584 20.0831 7.66984 19.9862 7.52584 19.9775V19.9766C7.522 19.9766 7.51912 19.9775 7.51528 19.9775C7.51144 19.9775 7.50856 19.9766 7.50472 19.9766V19.9775C7.36072 19.9862 7.26472 20.0841 7.21 20.1618C7.18504 20.1974 7.21672 20.2454 7.25896 20.2377C7.42792 20.206 7.60264 20.206 7.7716 20.2377Z" fill="#28201E"/>
<path d="M7.16797 19.7712L7.37629 19.5619" stroke="#28201E" stroke-width="0.0868896" stroke-miterlimit="10" stroke-linecap="round" stroke-linejoin="round"/>
<path d="M7.15918 19.5619L7.36846 19.7712" stroke="#28201E" stroke-width="0.0868896" stroke-miterlimit="10" stroke-linecap="round" stroke-linejoin="round"/>
<path d="M7.66211 19.7712L7.87139 19.5619" stroke="#28201E" stroke-width="0.0868896" stroke-miterlimit="10" stroke-linecap="round" stroke-linejoin="round"/>
<path d="M7.65332 19.5619L7.8626 19.7712" stroke="#28201E" stroke-width="0.0868896" stroke-miterlimit="10" stroke-linecap="round" stroke-linejoin="round"/>
<path d="M6.37301 20.1465C6.37301 19.8489 6.11285 19.7538 6.11285 19.7538C6.11285 19.7538 6.14453 19.5023 5.96789 19.3045C5.62709 18.9205 5.29493 19.0357 5.29493 19.0357C5.29493 19.0357 5.48405 19.1173 5.21621 19.3669C5.02229 19.5474 5.04629 19.7538 5.04629 19.7538C5.04629 19.7538 4.78613 19.8489 4.78613 20.1465C4.78613 20.4498 5.03093 20.6015 5.57909 20.6015C6.12821 20.6015 6.37301 20.4508 6.37301 20.1465Z" fill="#5B5A5A"/>
<path d="M5.353 19.8594C5.40072 19.8594 5.4394 19.8208 5.4394 19.773C5.4394 19.7253 5.40072 19.6866 5.353 19.6866C5.30528 19.6866 5.2666 19.7253 5.2666 19.773C5.2666 19.8208 5.30528 19.8594 5.353 19.8594Z" fill="#E2E2E2"/>
<path d="M5.80515 19.8594C5.85287 19.8594 5.89155 19.8208 5.89155 19.773C5.89155 19.7253 5.85287 19.6866 5.80515 19.6866C5.75743 19.6866 5.71875 19.7253 5.71875 19.773C5.71875 19.8208 5.75743 19.8594 5.80515 19.8594Z" fill="#E2E2E2"/>
</g>
<g opacity="0.54">
<path d="M9.7654 16.5742H12.2134C12.6876 16.5742 13.0755 16.9621 13.0755 17.4363C13.0755 17.9105 12.6876 18.2984 12.2134 18.2984H12.1712V18.7966L11.6729 18.2984H9.7654C9.29116 18.2984 8.90332 17.9105 8.90332 17.4363C8.90428 16.9621 9.29212 16.5742 9.7654 16.5742Z" fill="white"/>
<path d="M11.8383 17.6849C11.9497 17.6849 12.0399 17.5947 12.0399 17.4833C12.0399 17.372 11.9497 17.2817 11.8383 17.2817C11.727 17.2817 11.6367 17.372 11.6367 17.4833C11.6367 17.5947 11.727 17.6849 11.8383 17.6849Z" fill="#28201E"/>
<path d="M10.142 17.2817C10.2534 17.2817 10.3436 17.372 10.3436 17.4833C10.3436 17.5947 10.2534 17.6849 10.142 17.6849C10.0307 17.6849 9.94043 17.5947 9.94043 17.4833C9.94043 17.372 10.0307 17.2817 10.142 17.2817Z" fill="#28201E"/>
<path d="M10.9897 17.2817C11.101 17.2817 11.1913 17.372 11.1913 17.4833C11.1913 17.5947 11.101 17.6849 10.9897 17.6849C10.8783 17.6849 10.7881 17.5947 10.7881 17.4833C10.7881 17.372 10.8793 17.2817 10.9897 17.2817Z" fill="#28201E"/>
</g>
<path opacity="0.72" d="M18.7168 38.4114V37.5685H7.84961V38.4114V42.7966H18.7168V38.4114Z" fill="#7B7C7B"/>
<path d="M18.2969 37.1488H7.42969V42.377H18.2969V37.1488Z" fill="white"/>
<path d="M17.2617 42.3722L17.8752 43.5991L17.6275 42.3722H17.2617Z" fill="#F5F5FA"/>
<path d="M18.2969 37.1488H7.42969V37.9917H18.2969V37.1488Z" fill="#606060"/>
<path d="M8.06367 37.7289C8.15116 37.7289 8.22207 37.658 8.22207 37.5705C8.22207 37.483 8.15116 37.4121 8.06367 37.4121C7.97619 37.4121 7.90527 37.483 7.90527 37.5705C7.90527 37.658 7.97619 37.7289 8.06367 37.7289Z" fill="white"/>
<path d="M10.953 37.413H8.51172V37.7288H10.953V37.413Z" fill="white"/>
<path d="M9.21173 40.9727L9.53525 39.1669C9.37973 38.9385 9.11765 38.7887 8.82101 38.7887C8.34293 38.7887 7.95605 39.1756 7.95605 39.6537C7.99157 40.6924 9.25589 41.4892 9.56405 41.6687L9.86357 40.3093L9.21173 40.9727Z" fill="#898989"/>
<path d="M11.3784 39.6527C11.3784 39.1746 10.9916 38.7877 10.5135 38.7877C10.2543 38.7877 10.022 38.902 9.86356 39.0834L9.65332 40.2575L10.3455 39.5519L9.89716 41.5832C10.3541 41.2808 11.4495 40.4658 11.3784 39.6527Z" fill="#898989"/>
<path d="M12.2896 39.3886V40.5281H12.1517V39.3886H12.2896ZM13.0069 40.5281V39.3886H13.1449V39.896H13.7524V39.3886H13.8904V40.5281H13.7524V40.0184H13.1449V40.5281H13.0069ZM14.2134 40.5281H14.0687L14.4871 39.3886H14.6296L15.0479 40.5281H14.9033L14.5628 39.5689H14.5539L14.2134 40.5281ZM14.2668 40.083H14.8499V40.2054H14.2668V40.083ZM15.03 39.511V39.3886H15.8846V39.511H15.5263V40.5281H15.3883V39.511H15.03ZM16.0975 40.5281V39.3886H16.7852V39.511H16.2355V39.896H16.7496V40.0184H16.2355V40.4057H16.7941V40.5281H16.0975Z" fill="#595959"/>
<path d="M12.0537 40.7816H12.2117L12.5278 41.3135H12.5411L12.8571 40.7816H13.0151L12.6034 41.4514V41.921H12.4654V41.4514L12.0537 40.7816ZM14.1014 41.3513C14.1014 41.4715 14.0797 41.5753 14.0363 41.6629C13.9929 41.7504 13.9334 41.8179 13.8577 41.8654C13.7821 41.9129 13.6957 41.9366 13.5985 41.9366C13.5013 41.9366 13.4149 41.9129 13.3392 41.8654C13.2635 41.8179 13.204 41.7504 13.1606 41.6629C13.1172 41.5753 13.0955 41.4715 13.0955 41.3513C13.0955 41.2311 13.1172 41.1273 13.1606 41.0397C13.204 40.9522 13.2635 40.8847 13.3392 40.8372C13.4149 40.7897 13.5013 40.766 13.5985 40.766C13.6957 40.766 13.7821 40.7897 13.8577 40.8372C13.9334 40.8847 13.9929 40.9522 14.0363 41.0397C14.0797 41.1273 14.1014 41.2311 14.1014 41.3513ZM13.9679 41.3513C13.9679 41.2526 13.9514 41.1694 13.9184 41.1015C13.8857 41.0336 13.8414 40.9822 13.7854 40.9474C13.7298 40.9125 13.6675 40.8951 13.5985 40.8951C13.5295 40.8951 13.467 40.9125 13.411 40.9474C13.3553 40.9822 13.311 41.0336 13.278 41.1015C13.2454 41.1694 13.229 41.2526 13.229 41.3513C13.229 41.45 13.2454 41.5332 13.278 41.6011C13.311 41.669 13.3553 41.7204 13.411 41.7552C13.467 41.7901 13.5295 41.8075 13.5985 41.8075C13.6675 41.8075 13.7298 41.7901 13.7854 41.7552C13.8414 41.7204 13.8857 41.669 13.9184 41.6011C13.9514 41.5332 13.9679 41.45 13.9679 41.3513ZM15.0812 40.7816H15.2192V41.536C15.2192 41.6139 15.2008 41.6835 15.1641 41.7447C15.1277 41.8055 15.0764 41.8535 15.01 41.8888C14.9436 41.9236 14.8657 41.941 14.7763 41.941C14.6869 41.941 14.609 41.9236 14.5426 41.8888C14.4762 41.8535 14.4247 41.8055 14.388 41.7447C14.3516 41.6835 14.3334 41.6139 14.3334 41.536V40.7816H14.4714V41.5249C14.4714 41.5805 14.4836 41.63 14.5081 41.6734C14.5326 41.7165 14.5675 41.7504 14.6127 41.7753C14.6583 41.7997 14.7129 41.812 14.7763 41.812C14.8397 41.812 14.8942 41.7997 14.9399 41.7753C14.9855 41.7504 15.0204 41.7165 15.0445 41.6734C15.0689 41.63 15.0812 41.5805 15.0812 41.5249V40.7816Z" fill="#595959"/>
<g opacity="0.65">
<path opacity="0.7" d="M44.9024 6.06135V12.2092H37.2627V6.06135V5.38647H44.9024V6.06135Z" fill="#9B9A9A"/>
<path d="M45.1247 5.16467H37.5811V11.8914H45.1247V5.16467Z" fill="white"/>
<path d="M45.0769 5.2127V11.8434H37.6292V5.2127H45.0769ZM45.1729 5.1167H37.5332V11.9394H45.1729V5.1167Z" fill="#898989"/>
<path d="M38.1073 11.9568H38.2839L37.9873 12.5481L38.1073 11.9568Z" fill="#F5F5FA"/>
<path d="M38.2445 11.9807L38.0468 12.3763L38.1265 11.9807H38.2445ZM38.3223 11.9327H38.0871L37.9277 12.7209L38.3223 11.9327Z" fill="#7C7B7B"/>
<path d="M37.5322 5.79224L45.1719 5.79224L45.1719 5.11736L37.5322 5.11736L37.5322 5.79224Z" fill="#A8A8A8"/>
<path d="M44.6658 5.58132C44.7358 5.58132 44.7925 5.52459 44.7925 5.4546C44.7925 5.38462 44.7358 5.32788 44.6658 5.32788C44.5958 5.32788 44.5391 5.38462 44.5391 5.4546C44.5391 5.52459 44.5958 5.58132 44.6658 5.58132Z" fill="#7C7C7C"/>
<path d="M42.2051 5.58105L44.3018 5.58105L44.3018 5.32761L42.2051 5.32761L42.2051 5.58105Z" fill="white"/>
<path d="M41.0955 8.6726L41.4978 10.5264L40.2939 7.8038L41.4987 8.327L40.9765 6.81596C41.1147 6.78524 41.2587 6.76892 41.4066 6.76892C41.5352 6.76892 41.661 6.7814 41.7829 6.80444L42.2581 9.43292L41.0955 8.6726Z" fill="#919191"/>
<path d="M41.8908 10.4909L41.5029 11.2752L41.8514 9.94657L42.1356 10.4813L42.3813 9.78625C42.4399 9.81505 42.4965 9.85057 42.5503 9.89281C42.5964 9.93025 42.6386 9.97057 42.676 10.0138L42.0914 11.0986L41.8908 10.4909Z" fill="#AAA9A9"/>
<path d="M43.0309 6.87069L43.1413 6.56349L43.389 6.65277L43.4552 6.35901L43.7835 6.47709L43.7173 6.77085L43.9199 6.84381L43.9861 6.55005L44.3144 6.66813L44.2482 6.96189L44.5352 7.06557L44.4248 7.37277L44.1771 7.28349L44.1147 7.55325L44.4018 7.65693L44.2914 7.96413L44.0437 7.87485L43.9775 8.16861L43.6491 8.05053L43.7154 7.75677L43.5128 7.68381L43.4466 7.97757L43.1183 7.85949L43.1845 7.56573L42.8975 7.46205L43.0079 7.15485L43.2555 7.24413L43.3179 6.97437L43.0309 6.87069ZM43.5839 7.36125L43.7864 7.43421L43.8488 7.16445L43.6463 7.09149L43.5839 7.36125Z" fill="#7C7C7C"/>
<path d="M37.9235 10.1663L38.0339 9.85914L38.2816 9.94842L38.3478 9.65466L38.6761 9.77274L38.6099 10.0665L38.8124 10.1395L38.8787 9.8457L39.207 9.96378L39.1408 10.2575L39.4278 10.3612L39.3174 10.6684L39.0697 10.5791L39.0073 10.8489L39.2944 10.9526L39.184 11.2598L38.9363 11.1705L38.87 11.4643L38.5417 11.3462L38.608 11.0524L38.4054 10.9795L38.3392 11.2732L38.0108 11.1551L38.0771 10.8614L37.79 10.7577L37.9004 10.4505L38.1481 10.5398L38.2105 10.27L37.9235 10.1663ZM38.4755 10.6569L38.678 10.7299L38.7404 10.4601L38.5379 10.3871L38.4755 10.6569Z" fill="#AAA9A9"/>
<path d="M37.9022 6.80064L37.8436 6.77952C37.81 6.76704 37.7918 6.7296 37.8043 6.696L37.8273 6.63168C37.8398 6.59808 37.8772 6.57984 37.9108 6.59232L37.931 6.6C37.9675 6.61344 38.0078 6.59136 38.0164 6.55296L38.0241 6.5184C38.0328 6.48 38.0731 6.45792 38.1096 6.47136L38.1854 6.4992C38.2161 6.51072 38.2344 6.5424 38.2267 6.57504L38.2113 6.64128C38.2036 6.67296 38.2219 6.7056 38.2526 6.71712C38.2891 6.73056 38.3294 6.70848 38.338 6.67008L38.3457 6.63552C38.3544 6.59712 38.3947 6.57504 38.4312 6.58848L38.507 6.61632C38.5377 6.62784 38.556 6.65952 38.5483 6.69216L38.5329 6.7584C38.5252 6.79008 38.5435 6.82272 38.5742 6.83424L38.6337 6.85536C38.6673 6.86784 38.6856 6.90528 38.6731 6.93888L38.65 7.0032C38.6376 7.0368 38.6001 7.05504 38.5665 7.04256L38.5454 7.03488C38.5089 7.02144 38.4686 7.04352 38.46 7.08192L38.4513 7.1184C38.4436 7.15008 38.4619 7.18272 38.4926 7.19424L38.5512 7.21536C38.5848 7.22784 38.603 7.26528 38.5905 7.29888L38.5675 7.3632C38.555 7.3968 38.5176 7.41504 38.484 7.40256L38.4638 7.39488C38.4273 7.38144 38.387 7.40352 38.3784 7.44192L38.3707 7.47648C38.362 7.51488 38.3217 7.53696 38.2852 7.52352L38.2094 7.49568C38.1787 7.48416 38.1604 7.45248 38.1681 7.41984L38.1835 7.3536C38.1912 7.32192 38.1729 7.28928 38.1422 7.27776C38.1057 7.26432 38.0654 7.2864 38.0568 7.3248L38.0491 7.35936C38.0404 7.39776 38.0001 7.41984 37.9636 7.4064L37.8878 7.37856C37.8571 7.36704 37.8388 7.33536 37.8465 7.30272L37.8619 7.23648C37.8696 7.2048 37.8513 7.17216 37.8206 7.16064L37.7611 7.13952C37.7275 7.12704 37.7092 7.0896 37.7217 7.056L37.7448 6.99168C37.7572 6.95808 37.7947 6.93984 37.8283 6.95232L37.8494 6.96C37.8859 6.97344 37.9262 6.95136 37.9348 6.91296L37.9435 6.87648C37.9512 6.8448 37.9339 6.81216 37.9022 6.80064ZM38.1403 6.96384L38.1316 7.00032C38.124 7.032 38.1422 7.06464 38.1729 7.07616C38.2094 7.0896 38.2497 7.06752 38.2584 7.02912L38.267 6.99264C38.2747 6.96096 38.2564 6.92832 38.2257 6.9168C38.1883 6.90336 38.1489 6.92544 38.1403 6.96384Z" fill="#AAA9A9"/>
<path d="M42.694 9.03159L42.6201 8.83287L42.7804 8.77335L42.6902 8.59959L42.9024 8.52087L42.9926 8.69463L43.1241 8.64567L43.0339 8.47191L43.246 8.39319L43.3363 8.56695L43.5225 8.49783L43.5964 8.69655L43.4361 8.75607L43.5177 8.91639L43.704 8.84727L43.7779 9.04599L43.6176 9.10551L43.7078 9.27927L43.4956 9.35799L43.4054 9.18423L43.2739 9.23319L43.3641 9.40695L43.152 9.48567L43.0617 9.31191L42.8755 9.38103L42.8016 9.18231L42.9619 9.12279L42.8803 8.96247L42.694 9.03159ZM43.174 9.04407L43.3056 8.99511L43.224 8.83479L43.0924 8.88375L43.174 9.04407Z" fill="#7C7C7C"/>
<path d="M39.6052 7.03769L39.5312 6.83897L39.6916 6.77945L39.6013 6.60569L39.8135 6.52697L39.9037 6.70073L40.0353 6.65177L39.945 6.47801L40.1572 6.39929L40.2474 6.57305L40.4336 6.50393L40.5076 6.70265L40.3473 6.76217L40.4289 6.92249L40.6151 6.85337L40.689 7.05209L40.5287 7.11161L40.6189 7.28537L40.4068 7.36409L40.3165 7.19033L40.185 7.23929L40.2753 7.41305L40.0631 7.49177L39.9729 7.31801L39.7866 7.38713L39.7127 7.18841L39.873 7.12889L39.7914 6.96857L39.6052 7.03769ZM40.0852 7.05017L40.2167 7.00121L40.1351 6.84089L40.0036 6.88985L40.0852 7.05017Z" fill="#7C7C7C"/>
<path d="M40.4408 10.6838L40.0607 10.8575L38.5967 8.34521L39.7064 7.65881L40.4408 10.6838ZM40.5109 11.3375C40.3468 11.4124 40.1826 11.3548 40.1202 11.2195C40.0578 11.0831 40.124 10.9267 40.2882 10.8518C40.4524 10.7769 40.6146 10.8287 40.677 10.9651C40.7384 11.1004 40.6751 11.2617 40.5109 11.3375Z" fill="#7C7C7C"/>
<path d="M43.1888 11.2723L42.9372 11.0908L44.0182 9.22363L44.8688 9.68635L43.1888 11.2723ZM42.7932 11.5574C42.6848 11.4787 42.6617 11.352 42.726 11.2627C42.7913 11.1724 42.9161 11.1571 43.0256 11.2358C43.135 11.3145 43.16 11.4374 43.0947 11.5276C43.0294 11.6179 42.9017 11.6361 42.7932 11.5574Z" fill="#919191"/>
</g>
<path d="M36.7847 15.2782C36.1031 12.9214 35.168 12.2465 35.168 12.2465C34.8109 11.8529 34.3962 11.5179 33.9402 11.2558C34.186 11.0369 34.2532 10.6942 33.9364 10.1595C32.9389 8.48333 30.0148 9.12365 29.5069 9.91469C29.1181 10.5195 29.2285 10.9237 29.4119 11.1675C27.8768 11.9221 27.2768 13.1547 26.5271 14.0504C26.3629 14.2462 26.1728 14.419 25.9645 14.5678C25.7485 14.7233 25.5143 14.8549 25.2647 14.948C24.752 15.139 24.0445 15.2629 23.1642 15.0785C23.098 15.4328 23.2439 15.6737 23.4186 15.8302C22.5133 16.3851 21.8989 17.1829 21.8768 18.7083C21.8423 21.1582 19.4471 21.6987 20.0548 23.8904C20.6624 26.082 23.3975 26.6081 28.1927 25.5281C32.9879 24.4481 36.0704 22.9323 37.0592 20.3902C37.3309 19.6923 37.3252 18.7313 37.1764 17.7041C38.0394 18.0699 38.3216 17.4747 38.3216 17.4747C38.3216 17.4747 37.4663 17.635 36.7847 15.2782Z" fill="#49372A"/>
<path d="M32.1191 16.6481C32.1191 16.6481 36.8135 17.1127 40.6718 22.3284C44.53 27.5441 45.7444 32.9028 44.53 35.0465C43.3156 37.1902 41.5703 36.9377 39.6715 34.505C37.7726 32.0714 32.1191 16.6481 32.1191 16.6481Z" fill="#605A5A"/>
<path d="M40.356 42.0728C40.356 42.0728 44.2209 42.3128 44.2209 43.4772C39.0878 43.4772 38.1211 43.4772 38.1211 43.4772V42.0728H40.356Z" fill="#515151"/>
<path d="M36.6564 22.3736C35.9067 20.445 33.1198 18.0872 29.1185 18.8015C29.1185 18.8015 25.6174 19.0155 23.3316 24.7314C22.3323 27.2303 20.1003 29.6303 19.4897 31.2162C18.7879 33.0402 18.8148 34.6914 20.154 36.0805C20.9566 36.9138 22.0596 37.3909 23.2107 37.509L26.1079 37.8066C27.4951 33.572 28.122 31.2517 30.0017 29.2751C31.2468 27.9656 33.1841 27.5039 34.8305 28.2488C35.1483 28.3928 35.4315 28.5762 35.6225 28.8095C37.2516 27.381 39.139 27.9733 39.139 27.9733C39.139 27.9733 37.4062 24.3023 36.6564 22.3736Z" fill="#605A5A"/>
<path d="M35.7286 19.0366C35.7286 19.0366 34.952 20.3182 35.2285 22.1413C35.5059 23.9643 35.7008 24.6008 35.7008 24.6008" stroke="#222221" stroke-width="0.0868896" stroke-miterlimit="10" stroke-linecap="round" stroke-linejoin="round"/>
<path d="M21.9169 28.4158C21.9169 28.4158 21.8286 31.3227 23.3953 33.7803C24.3208 33.0046 24.5233 32.9767 24.5233 32.9767L21.9169 28.4158Z" fill="#28201E"/>
<path d="M41.215 27.9195C40.4508 25.7691 38.4175 22.9371 35.9455 24.5672C33.7942 25.9861 32.2543 30.0181 31.2905 32.5467H27.4755C27.4755 32.5467 24.0463 40.6914 30.3814 43.4782H36.6454C37.6678 43.4782 36.3641 42.9483 36.6473 42.2552L41.5298 42.2043C41.5298 42.2034 42.8278 32.4594 41.215 27.9195Z" fill="#878787"/>
<path d="M35.8965 26.4411C35.8965 26.4411 36.5483 24.6517 37.4766 27.5039C38.405 30.356 38.9608 33.3493 38.5509 42.1851" stroke="white" stroke-width="0.096" stroke-miterlimit="10"/>
<path d="M35.0615 25.5886C35.0615 25.5886 36.6234 26.8779 37.4366 30.8485C38.1297 34.2363 37.8782 42.0728 37.8782 42.0728L37.8714 42.1841" stroke="#222221" stroke-width="0.0868896" stroke-miterlimit="10" stroke-linecap="round" stroke-linejoin="round"/>
<path d="M35.6792 42.0728C35.6792 42.0728 39.5442 42.3128 39.5442 43.4772C34.4111 43.4772 33.4443 43.4772 33.4443 43.4772V42.0728H35.6792Z" fill="#515151"/>
<path d="M36.427 27.9194C35.6629 25.769 33.8254 23.6033 31.1576 24.5671C28.7336 25.4436 27.4664 30.018 26.5025 32.5466C25.0587 32.5822 23.2433 32.6321 22.4187 33.6238C22.4187 33.6238 21.7477 36.5882 21.9157 38.0436C22.1547 40.123 22.8776 42.2839 25.5944 43.4782H31.8584C32.3566 42.8954 32.7358 42.9031 33.019 42.209L36.764 42.1553C36.763 42.1543 38.0398 32.4593 36.427 27.9194Z" fill="#878787"/>
<path d="M25.6387 38.1579C25.6387 38.1579 25.7731 33.7265 27.2889 30.2725" stroke="#222221" stroke-width="0.0868896" stroke-miterlimit="10" stroke-linecap="round" stroke-linejoin="round"/>
<path d="M23.3059 32.9873C23.3059 32.9873 22.4822 37.4561 24.5232 40.3755C25.2758 41.4526 26.4835 42.4587 27.8083 41.6878C29.5037 40.7019 30.0768 38.5332 30.4147 36.7399C30.7574 34.9217 30.9187 33.0737 31.1059 31.2353C31.2259 30.0612 31.3258 28.8718 31.5706 27.715C31.6474 27.3492 31.8077 26.2443 32.3539 26.2443C33.8275 26.2443 35.351 35.899 34.656 42.186" stroke="white" stroke-width="0.096" stroke-miterlimit="10"/>
<path d="M21.3018 35.1272C21.3018 35.1272 22.0688 32.5947 25.3885 32.5371" stroke="#222221" stroke-width="0.0868896" stroke-miterlimit="10" stroke-linecap="round" stroke-linejoin="round"/>
<path d="M31.6514 22.7921L33.796 20.5697" stroke="#222221" stroke-width="0.0868896" stroke-miterlimit="10" stroke-linecap="round" stroke-linejoin="round"/>
<path d="M33.4439 37.5493C33.4439 37.5493 33.4439 42.3916 31.3242 43.4773C33.8049 43.4773 33.4439 43.4773 33.4439 43.4773V37.5493Z" fill="#28201E"/>
<path d="M33.6387 35.3988C33.6387 35.3988 33.6176 35.9134 34.9309 36.7428C36.2441 37.5722 36.8307 37.986 37.1225 37.5895C37.8137 37.9486 37.8819 37.6961 38.0403 37.5626C38.6077 37.6471 38.4464 37.2746 38.1123 37.0702C37.7782 36.8657 36.7385 36.1946 36.7385 36.1946L37.6889 36.6055C37.6889 36.6055 38.2438 36.906 38.3321 36.7025C38.4205 36.499 36.0867 35.0474 36.0867 35.0474C36.0867 35.0474 37.207 35.3902 37.6064 34.9793C37.8013 34.7614 36.8864 34.6884 35.9264 34.2535C34.9664 33.8186 34.1369 34.2458 34.1369 34.2458L33.6387 35.3988Z" fill="#FCDAC8"/>
<path d="M42.9372 34.8018C43.1493 35.2923 43.0216 35.8645 42.6204 36.2168C42.4418 36.3733 42.2085 36.549 41.9032 36.7429C40.59 37.5723 40.0034 37.9861 39.7106 37.5896C39.0194 37.9486 38.9512 37.6962 38.7928 37.5627C38.2255 37.6472 38.3867 37.2747 38.7208 37.0702C39.0549 36.8658 40.0946 36.1947 40.0946 36.1947L39.1442 36.6056C39.1442 36.6056 38.5893 36.9061 38.501 36.7026C38.4127 36.499 40.7464 35.0475 40.7464 35.0475C40.7464 35.0475 39.6261 35.3902 39.2268 34.9794C39.0319 34.7614 39.9468 34.6885 40.9068 34.2536C41.2389 34.1029 41.5548 34.0558 41.8264 34.0587C42.3112 34.0606 42.7452 34.3573 42.9372 34.8018Z" fill="#FCDAC8"/>
<path d="M29.3708 16.7643C29.3708 16.7643 25.1736 17.3259 23.102 20.6129C21.0303 23.9 21.6332 30.7918 23.3775 32.4833C26.1826 35.203 28.6392 33.9022 29.7615 35.2597C30.8837 36.6171 34.0488 37.5473 35.3141 34.9736C36.5794 32.3998 36.0994 30.4011 30.6696 27.1861C26.4917 24.7121 28.5605 19.5041 29.9285 16.9457C30.3384 16.1797 29.3708 16.7643 29.3708 16.7643Z" fill="#605A5A"/>
<path d="M31.1031 16.5156L28.5342 19.0558L31.0494 22.7921L33.6481 19.5271L31.1031 16.5156Z" fill="#FCDAC8"/>
<path d="M29.1516 16.6904C29.1516 16.6904 28.7916 18.4971 29.7574 18.5807C30.7231 18.6642 30.6857 15.9925 29.7631 15.9128C29.1833 15.8629 29.1516 16.6904 29.1516 16.6904Z" fill="#FCDAC8"/>
<path d="M29.7215 18.7986C29.7215 18.7986 29.613 20.9279 31.9736 21.6315C32.0821 21.4952 32.9298 20.4296 32.9298 20.4296L29.7215 18.7986Z" fill="#28201E"/>
<path d="M36.6156 17.4247C36.6156 17.4247 36.6578 19.266 35.693 19.1825C34.7273 19.099 35.2245 16.4734 36.1481 16.553C36.7279 16.6039 36.6156 17.4247 36.6156 17.4247Z" fill="#FCDAC8"/>
<path d="M32.4973 21.3521C34.1898 21.499 35.6951 20.2347 35.842 18.5422L35.9965 16.7614C36.1434 15.0689 34.8791 13.5636 33.1866 13.4168C31.4941 13.2699 29.9888 14.5342 29.842 16.2267L29.6874 18.0075C29.5405 19.7 30.8048 21.2052 32.4973 21.3521Z" fill="#FCDAC8"/>
<path opacity="0.69" d="M35.1955 17.4852C35.1955 17.4852 35.5248 17.5812 35.449 18.4491C35.3837 19.1988 35.0938 19.6779 35.0938 19.6779C35.0938 19.6779 35.4749 19.7575 35.5546 19.1076C35.6381 18.427 35.7158 17.6705 35.1955 17.4852Z" fill="white"/>
<path d="M33.2059 16.2958L33.2971 17.947C33.2971 17.947 33.8318 18.0132 33.7195 18.2868C33.6072 18.5595 33.1973 18.4865 33.1973 18.4865" stroke="#49372A" stroke-width="0.072" stroke-miterlimit="10" stroke-linecap="round" stroke-linejoin="round"/>
<path d="M33.2408 19.5396C33.2408 19.5396 32.8136 19.2247 31.9727 19.3486" stroke="#49372A" stroke-width="0.072" stroke-miterlimit="10" stroke-linecap="round" stroke-linejoin="round"/>
<path opacity="0.6" d="M29.9297 17.4958C29.9143 17.6686 30.0881 17.8251 30.3165 17.8453C30.545 17.8654 30.7428 17.7406 30.7581 17.5678C30.7735 17.395 30.5997 17.2386 30.3713 17.2184C30.1418 17.1992 29.9441 17.323 29.9297 17.4958Z" fill="#F2B0AD"/>
<path opacity="0.6" d="M34.8642 17.9249C34.8489 18.0977 35.0226 18.2542 35.2511 18.2743C35.4796 18.2945 35.6773 18.1697 35.6927 17.9969C35.7081 17.8241 35.5343 17.6676 35.3058 17.6475C35.0773 17.6283 34.8796 17.7521 34.8642 17.9249Z" fill="#F2B0AD"/>
<path d="M31.0486 22.7921C31.0486 22.7921 28.9548 21.0286 28.4316 18.6698C28.5939 17.5956 28.9664 16.8382 28.9664 16.8382C28.9664 16.8382 26.7353 16.1431 24.3094 17.8471C22.5257 19.1009 23.6604 20.8538 23.6604 20.8538C23.6604 20.8538 26.8745 25.5252 31.0486 22.7921Z" fill="#605A5A"/>
<path opacity="0.69" d="M31.3121 17.3604C31.3121 17.3604 31.0692 17.3345 31.0568 17.7531C31.0462 18.1265 30.9819 18.4039 30.8283 18.2964C30.6939 18.2033 30.8878 17.2299 31.3121 17.3604Z" fill="white"/>
<path d="M27.6315 14.3028C26.9604 15.2062 27.2283 16.4628 28.1547 17.1022C28.1911 17.1272 28.2276 17.154 28.2631 17.1819C29.1223 17.8606 30.3655 17.4881 30.8667 15.6574C31.3678 13.8267 32.8692 15.8955 34.1326 14.0408C34.6231 15.6449 35.371 16.3054 35.922 16.5771C36.2551 16.7412 36.6343 16.4667 36.5931 16.098C36.4423 14.755 35.7761 11.8539 32.8423 11.8539C30.3099 11.8529 28.7038 12.859 27.6315 14.3028Z" fill="#49372A"/>
<path d="M30.36 16.9188C30.3245 17.6321 30.8746 18.2388 31.5879 18.2744C32.3011 18.3099 32.9079 17.7598 32.9434 17.0465C32.9789 16.3332 32.4288 15.7265 31.7155 15.691C31.0023 15.6564 30.3955 16.2056 30.36 16.9188Z" stroke="#7C7C7C" stroke-width="0.0868896" stroke-miterlimit="10"/>
<path d="M33.5397 17.0772C33.5042 17.7905 34.0543 18.3972 34.7676 18.4328C35.4808 18.4683 36.0876 17.9182 36.1231 17.2049C36.1586 16.4916 35.6085 15.8849 34.8952 15.8494C34.182 15.8139 33.5752 16.364 33.5397 17.0772Z" stroke="#7C7C7C" stroke-width="0.0868896" stroke-miterlimit="10"/>
<path d="M32.9434 17.0475L33.5395 17.0772" stroke="#7C7C7C" stroke-width="0.0868896" stroke-miterlimit="10"/>
<path d="M27.5088 17.8481C27.5088 17.8481 29.5555 20.0081 31.1337 23.0715" stroke="#222221" stroke-width="0.0868896" stroke-miterlimit="10" stroke-linecap="round" stroke-linejoin="round"/>
<path d="M23.5342 20.0207C23.5342 20.0207 24.8503 18.6411 26.4708 18.7995C28.0913 18.9579 29.0139 20.3125 29.4324 21.4511C29.851 22.5906 29.3575 26.0715 29.3575 26.0715" stroke="#222221" stroke-width="0.0868896" stroke-miterlimit="10" stroke-linecap="round" stroke-linejoin="round"/>
<path d="M26.0225 25.8987C26.0225 25.8987 27.1159 25.4936 28.9389 26.0705" stroke="#222221" stroke-width="0.0868896" stroke-miterlimit="10" stroke-linecap="round" stroke-linejoin="round"/>
<path d="M27.4795 25.4005C27.4795 25.4005 28.2955 25.3717 28.8427 25.7615" stroke="#222221" stroke-width="0.0868896" stroke-miterlimit="10" stroke-linecap="round" stroke-linejoin="round"/>
<path d="M29.6003 34.6664C29.6003 34.6664 29.3948 32.805 31.1334 31.5397" stroke="#222221" stroke-width="0.0868896" stroke-miterlimit="10" stroke-linecap="round" stroke-linejoin="round"/>
<path d="M40.5645 24.9973C40.5645 24.9973 40.8525 24.6709 41.7539 24.7861" stroke="#222221" stroke-width="0.0868896" stroke-miterlimit="10" stroke-linecap="round" stroke-linejoin="round"/>
<path d="M29.5654 22.124L30.8221 23.6504" stroke="#222221" stroke-width="0.0868896" stroke-miterlimit="10" stroke-linecap="round" stroke-linejoin="round"/>
<path d="M42.0225 31.2843C42.0225 31.2843 43.6698 31.5829 44.4541 32.8328" stroke="#222221" stroke-width="0.0868896" stroke-miterlimit="10" stroke-linecap="round" stroke-linejoin="round"/>
<path d="M42.2168 34.1268C42.2168 34.1268 43.6645 34.868 42.6997 36.14" stroke="#222221" stroke-width="0.0868896" stroke-miterlimit="10" stroke-linecap="round" stroke-linejoin="round"/>
<path d="M33.4443 42.2023L37.8719 42.1851" stroke="#222221" stroke-width="0.0868896" stroke-miterlimit="10" stroke-linecap="round" stroke-linejoin="round"/>
<path d="M41.5297 42.2033L37.8721 42.1851" stroke="#222221" stroke-width="0.0868896" stroke-miterlimit="10" stroke-linecap="round" stroke-linejoin="round"/>
<path d="M36.8223 42.7754L37.2917 42.2474" stroke="#222221" stroke-width="0.0868896" stroke-miterlimit="10" stroke-linecap="round" stroke-linejoin="round"/>
<path d="M37.292 42.907L37.7614 42.379" stroke="#222221" stroke-width="0.0868896" stroke-miterlimit="10" stroke-linecap="round" stroke-linejoin="round"/>
<path d="M37.7617 43.0395L38.2312 42.5115" stroke="#222221" stroke-width="0.0868896" stroke-miterlimit="10" stroke-linecap="round" stroke-linejoin="round"/>
<path d="M41.5117 42.7754L41.9812 42.2474" stroke="#222221" stroke-width="0.0868896" stroke-miterlimit="10" stroke-linecap="round" stroke-linejoin="round"/>
<path d="M41.9814 42.907L42.4509 42.379" stroke="#222221" stroke-width="0.0868896" stroke-miterlimit="10" stroke-linecap="round" stroke-linejoin="round"/>
<path d="M42.4512 43.0395L42.9206 42.5115" stroke="#222221" stroke-width="0.0868896" stroke-miterlimit="10" stroke-linecap="round" stroke-linejoin="round"/>
<path opacity="0.69" d="M30.809 19.7268C30.809 19.7268 30.7927 20.2145 30.809 20.442C30.8253 20.6695 30.9405 21.0852 31.2967 20.9134C30.9636 20.5639 30.8897 20.4583 30.809 19.7268Z" fill="white"/>
<path d="M23.5342 15.9109C23.5342 15.9109 24.1467 16.291 24.9934 16.0107" stroke="#33251C" stroke-width="0.072" stroke-miterlimit="10" stroke-linecap="round" stroke-linejoin="round"/>
<path d="M27.6064 16.0126C27.6064 16.0126 28.2324 16.5521 29.2442 16.1143" stroke="#33251C" stroke-width="0.072" stroke-miterlimit="10" stroke-linecap="round" stroke-linejoin="round"/>
<path d="M28.3428 15.9108C28.3428 15.9108 29.2221 16.0385 29.7761 14.946" stroke="#33251C" stroke-width="0.072" stroke-miterlimit="10" stroke-linecap="round" stroke-linejoin="round"/>
<path d="M29.6006 11.1118C29.6006 11.1118 30.0364 10.6702 31.2143 10.6702" stroke="#33251C" stroke-width="0.072" stroke-miterlimit="10" stroke-linecap="round" stroke-linejoin="round"/>
<path d="M33.7355 11.1118C33.7355 11.1118 33.2959 10.7806 32.6143 10.7441" stroke="#33251C" stroke-width="0.072" stroke-miterlimit="10" stroke-linecap="round" stroke-linejoin="round"/>
<path d="M36.7354 16.8008C36.7354 16.8008 36.8304 17.2798 37.1222 17.5323" stroke="#222221" stroke-width="0.0868896" stroke-miterlimit="10" stroke-linecap="round" stroke-linejoin="round"/>
<path d="M25.786 36.3416C25.786 36.3416 25.211 36.8043 25.043 37.6683" stroke="#222221" stroke-width="0.0868896" stroke-miterlimit="10" stroke-linecap="round" stroke-linejoin="round"/>
<path d="M32.082 17.0916C32.0666 17.1886 32.0282 17.2808 31.9658 17.3528C31.8362 17.5035 31.6116 17.5524 31.4407 17.4612C31.2698 17.37 31.1844 17.1444 31.2247 16.9428C31.2977 16.58 31.697 16.4273 31.9294 16.6203C31.9764 16.6587 32.0158 16.7105 32.0446 16.7777C32.0868 16.8747 32.0993 16.986 32.082 17.0916Z" fill="#49372A"/>
<path d="M32.0814 17.0917C32.0439 17.1128 31.9998 17.1253 31.9489 17.1253C31.8442 17.1253 31.7598 17.0274 31.7588 16.9103C31.7578 16.796 31.8298 16.6741 31.9278 16.6204C31.9748 16.6588 32.0142 16.7106 32.043 16.7778C32.0862 16.8748 32.0986 16.9861 32.0814 17.0917Z" fill="#F8FAFB"/>
<path d="M35.2802 17.1675C35.2735 17.2596 35.2437 17.3499 35.19 17.4219C35.0796 17.5736 34.8722 17.6369 34.7042 17.563C34.5362 17.49 34.4383 17.2836 34.4613 17.0916C34.5026 16.7441 34.8674 16.5704 35.0997 16.7345C35.1468 16.7672 35.1881 16.8132 35.2207 16.8747C35.2677 16.963 35.2879 17.0667 35.2802 17.1675Z" fill="#49372A"/>
<path d="M35.2809 17.1676C35.2482 17.1906 35.207 17.206 35.159 17.2098C35.0601 17.2175 34.9737 17.1321 34.9631 17.0217C34.9526 16.9142 35.013 16.7942 35.1004 16.7356C35.1474 16.7682 35.1887 16.8143 35.2214 16.8758C35.2684 16.9631 35.2885 17.0668 35.2809 17.1676Z" fill="#F8FAFB"/>
<path d="M31.3478 16.9054C31.3334 16.9908 31.3939 17.083 31.4784 17.1032C31.5629 17.1233 31.6589 17.0667 31.6819 16.9832C31.7424 16.7576 31.3891 16.6606 31.3478 16.9054Z" fill="#F8FAFB"/>
<path d="M34.5669 17.0476C34.5602 17.1292 34.6235 17.2117 34.7051 17.2242C34.7867 17.2367 34.8722 17.1762 34.8875 17.0956C34.9269 16.8786 34.5871 16.8143 34.5669 17.0476Z" fill="#F8FAFB"/>
<path d="M31.1976 16.7845C31.1669 16.7845 31.1391 16.7634 31.1323 16.7317C31.1247 16.6952 31.1477 16.6597 31.1842 16.652C31.3675 16.6136 31.5317 16.4917 31.6229 16.3275C31.6411 16.2949 31.6815 16.2834 31.7141 16.3016C31.7467 16.3199 31.7583 16.3602 31.74 16.3928C31.6306 16.5906 31.4328 16.7365 31.212 16.7826C31.2072 16.7835 31.2024 16.7845 31.1976 16.7845Z" fill="#49372A"/>
<path d="M35.2959 16.8296C35.2921 16.8296 35.2883 16.8296 35.2844 16.8296C35.0876 16.8095 34.9004 16.7355 34.742 16.6175C34.7142 16.5963 34.7084 16.557 34.7295 16.5291C34.7507 16.5013 34.79 16.4955 34.8179 16.5167C34.958 16.6213 35.1241 16.6856 35.2979 16.7039C35.3324 16.7077 35.3574 16.7384 35.3545 16.773C35.3507 16.8037 35.3257 16.8277 35.2959 16.8296Z" fill="#49372A"/>
<path d="M35.3497 15.4971C35.2969 15.5912 35.0003 15.5749 34.6652 15.6479C34.3283 15.7112 34.0604 15.8418 33.9769 15.7755C33.9395 15.7429 33.9664 15.6546 34.0729 15.5528C34.1776 15.452 34.3676 15.3445 34.599 15.2975C34.8294 15.2504 35.0444 15.2754 35.1788 15.3282C35.3152 15.381 35.3718 15.452 35.3497 15.4971Z" fill="#49372A"/>
<path d="M31.4024 15.2734C31.4379 15.3723 31.7201 15.3925 32.0244 15.5067C32.3326 15.6104 32.5649 15.7726 32.6542 15.7179C32.6945 15.6901 32.683 15.5998 32.5976 15.4866C32.514 15.3742 32.3509 15.2456 32.1406 15.1707C31.9304 15.0958 31.723 15.0939 31.5886 15.1294C31.4523 15.163 31.388 15.2254 31.4024 15.2734Z" fill="#49372A"/>
<path d="M33.8262 15.9051C33.8262 15.9099 33.7878 15.9156 33.7331 15.8926C33.6793 15.8705 33.6102 15.8139 33.5901 15.7265C33.5709 15.6382 33.6093 15.5604 33.6496 15.5201C33.6899 15.4779 33.7273 15.4683 33.7293 15.4731C33.7331 15.4788 33.7043 15.4971 33.6745 15.5383C33.6457 15.5787 33.6189 15.6459 33.6342 15.7179C33.6505 15.7889 33.7043 15.8407 33.7485 15.8667C33.7926 15.8926 33.8272 15.8983 33.8262 15.9051Z" fill="#49372A"/>
<path d="M33.0833 15.4548C33.0862 15.451 33.1198 15.4692 33.1476 15.5192C33.1754 15.5672 33.1918 15.6526 33.1495 15.7332C33.1063 15.8129 33.0238 15.8523 32.9662 15.86C32.9067 15.8696 32.8711 15.8552 32.8721 15.8504C32.873 15.8436 32.9076 15.8465 32.9585 15.8312C33.0074 15.8168 33.0737 15.7793 33.1092 15.714C33.1438 15.6488 33.1361 15.5768 33.1188 15.5307C33.1015 15.4836 33.0785 15.4596 33.0833 15.4548Z" fill="#49372A"/>
<path d="M34.8485 14.1704C34.8264 14.1704 34.8072 14.155 34.8034 14.132C34.7986 14.107 34.8158 14.083 34.8408 14.0792C34.9243 14.0648 34.9963 14.0187 35.0453 13.9496C35.0942 13.8805 35.1125 13.7969 35.0981 13.7134C35.0683 13.5416 34.9042 13.4264 34.7323 13.4561C34.7074 13.4609 34.6834 13.4437 34.6795 13.4187C34.6747 13.3937 34.692 13.3697 34.717 13.3659C34.9387 13.3275 35.1509 13.4763 35.1893 13.6981C35.2085 13.8056 35.1835 13.9141 35.1211 14.0033C35.0587 14.0926 34.9646 14.1521 34.8571 14.1713C34.8542 14.1704 34.8514 14.1704 34.8485 14.1704Z" fill="#D3ACAB"/>
<path d="M35.7405 13.5637C35.6896 13.5637 35.6388 13.5541 35.5888 13.5339C35.488 13.4936 35.4084 13.4159 35.3652 13.3151C35.322 13.2152 35.321 13.1039 35.3623 13.0031C35.3719 12.9791 35.3988 12.9675 35.4218 12.9771C35.4458 12.9867 35.4564 13.0136 35.4477 13.0367C35.416 13.1154 35.417 13.2008 35.4506 13.2786C35.4842 13.3563 35.5447 13.4168 35.6234 13.4475C35.7847 13.5128 35.97 13.4341 36.0343 13.2719C36.0439 13.2479 36.0708 13.2363 36.0938 13.2459C36.1178 13.2555 36.1284 13.2824 36.1197 13.3055C36.0564 13.4667 35.9028 13.5637 35.7405 13.5637Z" fill="#D3ACAB"/>
<path d="M36.1759 14.4891C36.174 14.4891 36.173 14.4891 36.1711 14.4891C35.9474 14.4642 35.7852 14.2626 35.8102 14.0389C35.8351 13.8152 36.0358 13.653 36.2604 13.6779C36.2854 13.6808 36.3036 13.7039 36.3007 13.7288C36.2978 13.7538 36.2748 13.772 36.2498 13.7691C36.0761 13.7499 35.9206 13.8757 35.9014 14.0495C35.8822 14.2232 36.0079 14.3787 36.1817 14.3979C36.2066 14.4008 36.2249 14.4239 36.222 14.4488C36.2191 14.4709 36.199 14.4891 36.1759 14.4891Z" fill="#D3ACAB"/>
<path d="M35.6311 14.6754C35.6253 14.6754 35.6196 14.6744 35.6138 14.6725C35.5898 14.6629 35.5792 14.636 35.5879 14.613C35.6138 14.5487 35.6128 14.4776 35.586 14.4133C35.5591 14.349 35.5082 14.3 35.4429 14.2741C35.3786 14.2482 35.3076 14.2492 35.2432 14.276C35.1789 14.3029 35.13 14.3538 35.1031 14.4191C35.0935 14.4431 35.0666 14.4536 35.0436 14.445C35.0196 14.4354 35.009 14.4085 35.0176 14.3855C35.0532 14.2981 35.1204 14.23 35.2068 14.1925C35.2932 14.1551 35.3892 14.1541 35.4765 14.1896C35.657 14.2626 35.7453 14.468 35.6724 14.6485C35.6666 14.6648 35.6493 14.6754 35.6311 14.6754Z" fill="#D3ACAB"/>
</g>
<defs>
<clipPath id="clip0_1146_49385">
<rect width="48" height="48" rx="24" fill="white"/>
</clipPath>
</defs>
</svg>
