<svg width="48" height="48" fill="none" xmlns="http://www.w3.org/2000/svg"><g clip-path="url(#a)"><rect width="48" height="48" rx="24" fill="#fff"/><g clip-path="url(#b)"><g opacity=".7" fill="#EFEFEF"><path d="M45.593 21.065c-.098-.434-2.293-11.463-11.571-16.917-9.279-5.454-14.082-5.008-18.34-1.67-4.258 3.34-7.64 11.241-11.789 15.581C-.255 22.4-4.62 28.187-1.129 36.535c3.494 8.347 13.536 5.23 21.396 3.784 7.86-1.447 10.37 3.005 18.885.111 8.514-2.893 7.423-15.025 6.44-19.365Z"/><path opacity=".7" d="M45.659 21.065c-.098-.434-2.292-11.463-11.57-16.917-9.28-5.454-14.082-5.008-18.34-1.67C11.492 5.819 8.108 13.72 3.96 18.06-.189 22.4-4.555 28.187-1.062 36.535c3.493 8.347 13.536 5.23 21.395 3.784 7.86-1.447 10.37 3.005 18.885.111 8.515-2.893 7.424-15.025 6.441-19.365Z"/></g><g opacity=".64"><path d="M28.676 12.822s-.168.46-.21.797c-.041.335.252.628.252.628s-.628 1.426-.46 1.635c.168.21.67.335.67.335s.21 1.803.546 1.887c.335.083 1.593-.503 1.593-.503l.671 1.845s-1.257 2.557-1.342 2.892l-.083.335s-.88.043-1.048.378c-.168.335-.21.503 0 .628.209.126-.335.923-.126 1.3.21.378.46.335.46.587 0 .251-.125.251.084.46.21.21.755.378.755.378s.083 3.563.083 4.695c0 1.132 0 1.552.335 1.803l.335.252s-.46 2.809-.503 4.443a955.36 955.36 0 0 0-.078 3.313h3.738c.125-.495.434-1.733.534-2.264.125-.671.503-1.76.503-1.76l.677 4.024h3.192c-.101-.735-.432-3.217-.432-4.318v-3.857c0-.587-.042-1.006-.042-1.006s1.006-.252 1.594-1.468c.586-1.216.42-4.109.377-5.618-.042-1.509-.88-2.851-1.383-3.396-.503-.546-1.132-.964-1.132-.964s-1.468-1.383-2.18-1.845c-.713-.461-1.803-.838-1.803-.838l-.503-1.217s.168-1.509.251-1.802c.084-.294.378-1.552.084-2.39-.294-.838-1.426-1.174-1.971-1.258-.545-.083-1.677-.209-1.594-.083.084.126.335.46.335.46s-2.096-.502-2.138-.25c-.042.25.755.544.755.544s-2.138.169-2.264.587c-.125.421 1.468.63 1.468.63Z" fill="#263238"/><path opacity=".5" d="M28.676 12.822s-.168.46-.21.797c-.041.335.252.628.252.628s-.628 1.426-.46 1.635c.168.21.67.335.67.335s.21 1.803.546 1.887c.335.083 1.593-.503 1.593-.503l.671 1.845s-1.257 2.557-1.342 2.892l-.083.335s-.88.043-1.048.378c-.168.335-.21.503 0 .628.209.126-.335.923-.126 1.3.21.378.46.335.46.587 0 .251-.125.251.084.46.21.21.755.378.755.378s.083 3.563.083 4.695c0 1.132 0 1.552.335 1.803l.335.252s-.46 2.809-.503 4.443a955.36 955.36 0 0 0-.078 3.313h3.738c.125-.495.434-1.733.534-2.264.125-.671.503-1.76.503-1.76l.677 4.024h3.192c-.101-.735-.432-3.217-.432-4.318v-3.857c0-.587-.042-1.006-.042-1.006s1.006-.252 1.594-1.468c.586-1.216.42-4.109.377-5.618-.042-1.509-.88-2.851-1.383-3.396-.503-.546-1.132-.964-1.132-.964s-1.468-1.383-2.18-1.845c-.713-.461-1.803-.838-1.803-.838l-.503-1.217s.168-1.509.251-1.802c.084-.294.378-1.552.084-2.39-.294-.838-1.426-1.174-1.971-1.258-.545-.083-1.677-.209-1.594-.083.084.126.335.46.335.46s-2.096-.502-2.138-.25c-.042.25.755.544.755.544s-2.138.169-2.264.587c-.125.421 1.468.63 1.468.63Z" fill="#fff"/></g><g opacity=".81" fill="#848484"><path d="M33.5 22.18c.22.11 1.374.605 1.374.605l-.33-.385c-.33-.385-.33-.33-.33-.55 0-.22.55.11.935.384.385.275.55.66.55.66l.44 1.155 1.21 1.044.939-3.031.38-2.576.33-.22c.14-.066-.378-1.022-.102-1.026.234-.003.526-.007.884-.048l.155-.018c.002-.468.114-.871.177-1.062.045-.135.086-.272.119-.408a5.925 5.925 0 0 1-.443-1.124 5.06 5.06 0 0 1-.112-.51c-.343-.162-1.278-.628-1.47-.942-.256-.42.88-2.069 1.992-2.892 1.142-.845 2.62-.734 3.492-.187.804.506 1.098 1.344 1.334 2.018l.076.213c.078.214.171.411.276.599 0 0 1.62 1.769 2.361 2.276.846.578 2.607 1.78 1.785 3.423-.042.085-.087.166-.129.246-.302.563-.54 1.009 0 1.946.142.246.283.458.42.663.468.704.807 1.213.432 2.066l-.062.141c-.325.749-.772 1.773-1.92 2.063-.108.202-.284.44-.538.521-.115.037-.248.07-.389.096.25.9.782 2.741 1.138 3.494.263.556.354.922.272 1.089-.024.049-.06.073-.076.075-.031.013-.371.157-.852.286.012.207.016.4.006.572-.114 1.977-1.244 5.898-1.256 5.937a.062.062 0 0 1-.042.043c-.01.002-.343.09-.849.202a4.922 4.922 0 0 0 .01 1.891h-5.365a15.269 15.269 0 0 0-.52-1.676c-.671-.148-1.108-.301-1.117-.304a.06.06 0 0 1-.039-.05c-.008-.052-.62-4.41-.612-7.209a1.73 1.73 0 0 1-.624.141h-.017a.057.057 0 0 1-.03-.011l-.003-.001-.005-.006-.01-.008-.003-.007a.044.044 0 0 1-.003-.01c-.002-.008-.002-.013-.002-.02l-.001-.007c.005-.03.362-1.985.612-3.733-.193-.035-.412-.088-.543-.167-.275-.165-2.86-2.365-2.86-2.365l.386-.77s-1.539-.824-1.87-1.099c-.33-.274-.439-1.155-.439-1.704 0-.549.658.166.877.277Z"/><path opacity=".2" d="M33.5 22.18c.22.11 1.374.605 1.374.605l-.33-.385c-.33-.385-.33-.33-.33-.55 0-.22.55.11.935.384.385.275.55.66.55.66l.44 1.155 1.21 1.044.939-3.031.38-2.576.33-.22c.14-.066-.378-1.022-.102-1.026.234-.003.526-.007.884-.048l.155-.018c.002-.468.114-.871.177-1.062.045-.135.086-.272.119-.408a5.925 5.925 0 0 1-.443-1.124 5.06 5.06 0 0 1-.112-.51c-.343-.162-1.278-.628-1.47-.942-.256-.42.88-2.069 1.992-2.892 1.142-.845 2.62-.734 3.492-.187.804.506 1.098 1.344 1.334 2.018l.076.213c.078.214.171.411.276.599 0 0 1.62 1.769 2.361 2.276.846.578 2.607 1.78 1.785 3.423-.042.085-.087.166-.129.246-.302.563-.54 1.009 0 1.946.142.246.283.458.42.663.468.704.807 1.213.432 2.066l-.062.141c-.325.749-.772 1.773-1.92 2.063-.108.202-.284.44-.538.521-.115.037-.248.07-.389.096.25.9.782 2.741 1.138 3.494.263.556.354.922.272 1.089-.024.049-.06.073-.076.075-.031.013-.371.157-.852.286.012.207.016.4.006.572-.114 1.977-1.244 5.898-1.256 5.937a.062.062 0 0 1-.042.043c-.01.002-.343.09-.849.202a4.922 4.922 0 0 0 .01 1.891h-5.365a15.269 15.269 0 0 0-.52-1.676c-.671-.148-1.108-.301-1.117-.304a.06.06 0 0 1-.039-.05c-.008-.052-.62-4.41-.612-7.209a1.73 1.73 0 0 1-.624.141h-.017a.057.057 0 0 1-.03-.011l-.003-.001-.005-.006-.01-.008-.003-.007a.044.044 0 0 1-.003-.01c-.002-.008-.002-.013-.002-.02l-.001-.007c.005-.03.362-1.985.612-3.733-.193-.035-.412-.088-.543-.167-.275-.165-2.86-2.365-2.86-2.365l.386-.77s-1.539-.824-1.87-1.099c-.33-.274-.439-1.155-.439-1.704 0-.549.658.166.877.277Z"/></g><g opacity=".65"><path d="M9.316 20.603c.174.816.965.86 1.097 1.272.13.413.267 1.18-.345 2.306-.611 1.126-.787 1.903-.53 2.374.258.472 1.204 1.107 1.204 1.107s-.7 1.914-.69 3.02c.01 1.107.538 1.52.538 1.52s-.087.389.156.593c.243.203.272.34.272.34s.349 4.02.48 4.83c.13.811.376 1.44.2 1.748-.147.258-.201.914-.216 1.2h3.284c.081-.285.177-.916.227-1.365.063-.568.165-1.884.165-1.884l1.105 3.248h3.175l-.637-7.088.722-.01.35-4.34s-.548-5.811-.61-6.039c-.063-.228-1.072-2.286-1.447-2.903-.373-.616-1.48-1.403-1.48-1.403l.049-.835s2.166.417 2.263-.058c.097-.476.14-1.666.14-1.666s.637-.15.622-.417c-.015-.267-.51-.986-.51-.986l-.029-.534s.772.22 1.053-.325c.282-.545-.208-.908-.208-.908s.675-.5.219-1.568c-.456-1.069-1.898-1.229-2.374-.928-.476.301-.554.603-.903.564-.35-.04-1.986-.044-2.68.63-.695.676-.9 2.511-1.074 2.89-.175.378-2.461 1.45-3.297 2.199-.835.748.282 2.243.282 2.243s-.748.357-.573 1.173Z" fill="#263238"/><path opacity=".5" d="M9.316 20.603c.174.816.965.86 1.097 1.272.13.413.267 1.18-.345 2.306-.611 1.126-.787 1.903-.53 2.374.258.472 1.204 1.107 1.204 1.107s-.7 1.914-.69 3.02c.01 1.107.538 1.52.538 1.52s-.087.389.156.593c.243.203.272.34.272.34s.349 4.02.48 4.83c.13.811.376 1.44.2 1.748-.147.258-.201.914-.216 1.2h3.284c.081-.285.177-.916.227-1.365.063-.568.165-1.884.165-1.884l1.105 3.248h3.175l-.637-7.088.722-.01.35-4.34s-.548-5.811-.61-6.039c-.063-.228-1.072-2.286-1.447-2.903-.373-.616-1.48-1.403-1.48-1.403l.049-.835s2.166.417 2.263-.058c.097-.476.14-1.666.14-1.666s.637-.15.622-.417c-.015-.267-.51-.986-.51-.986l-.029-.534s.772.22 1.053-.325c.282-.545-.208-.908-.208-.908s.675-.5.219-1.568c-.456-1.069-1.898-1.229-2.374-.928-.476.301-.554.603-.903.564-.35-.04-1.986-.044-2.68.63-.695.676-.9 2.511-1.074 2.89-.175.378-2.461 1.45-3.297 2.199-.835.748.282 2.243.282 2.243s-.748.357-.573 1.173Z" fill="#fff"/></g><path opacity=".85" d="m12.076 40.912-.318-.535.019.014s.067-2.157-.135-2.832c-.202-.674-1.349-2.225-1.349-2.225l-1.685-5.73a618.973 618.973 0 0 0-.418-5.675c-.08-.887-1.047-2.585-1.535-3.393l.005-.016.914.77-.29-1.732-.754-.476.265-1.472.799.188.524-.104.49-2.273.581-.498-.463-1.054.196-.49-.342-1.269.003-.002.011-.012.014-.014.013-.014a.183.183 0 0 0 .018-.02.217.217 0 0 0 .015-.015l.024-.026.014-.016.032-.034.011-.013c.016-.016.031-.034.046-.053l.003-.003.044-.052a.29.29 0 0 0 .015-.018l.033-.042.018-.022.03-.04.019-.023.029-.039.019-.025.026-.038.018-.026a.817.817 0 0 0 .024-.037l.016-.026.022-.038a1.433 1.433 0 0 1 .034-.063l.01-.02a.605.605 0 0 0 .022-.055c.047-.142-.005-.37-.136-.597-.1-.172-.39-.583-.931-.691-.703-.141-3.897-.203-4.702.25-.495.279-.615.782-.621 1.297a7.04 7.04 0 0 0 .036.692c.008.092.016.181.021.266l.007.074.004.032.007.053.005.038.01.057.008.044.01.059.01.05.013.06.012.056.013.063.014.059.015.066.014.062.017.067.016.066.017.07.018.066.018.072.018.07.02.072c.005.023.012.047.019.071l.019.073.02.076c.007.023.012.047.02.07l.02.077.02.069.022.08.019.067.022.079.019.068.022.075.02.069.022.075.02.066.022.076.018.061.022.075.018.061.02.069.02.064c.005.02.011.037.017.056a2.037 2.037 0 0 1 .036.123l.02.066.015.048.02.066.01.034.023.073.006.022a3.663 3.663 0 0 0 .027.085l.091.293-.171 1.202-.127-.102-.393.673s-3.502 1.969-3.57 2.374c-.066.404-.336 3.641-.471 4.18-.135.54-1.619 5.259-1.416 5.596.133.221 1.554 2.17 2.508 3.474l-.566 3.038.025.017c.008.005.479.316 1.168.6l-.22 3.775h11.544v.001Z" fill="#848484"/><path d="M24.686 35.757s.783 1.566 1.265 2.41c.482.843 1.928 2.59 2.41 3.192.482.602 1.325 1.686 1.355 1.837.03.15-.33.512-.723.964-.391.452-.873.482-.903.753-.03.27 1.265.27 1.687.24.421-.03.993-.722 1.265-.903.27-.18.542-.392.512-.723-.03-.33-.482-.632-.663-.964-.18-.33-1.174-2.86-1.656-4.065-.482-1.205-1.024-2.048-1.144-2.289-.12-.24-.36-.662-.36-.662l-.061-.602-3.132.572.148.24Z" fill="#FCDAC8" stroke="#3A3A3A" stroke-width=".096" stroke-miterlimit="10" stroke-linecap="round" stroke-linejoin="round"/><path d="M31.552 43.526c-.02-.215-.216-.416-.401-.623-.476.566-1.014.864-1.014.864s-.211-.27-.301-.36c-.09-.09-.12-.212-.12-.212.03.151-.332.512-.723.964-.392.452-.874.482-.904.753-.03.27 1.266.27 1.687.24.422-.029.994-.722 1.265-.903.27-.18.54-.391.511-.723Z" fill="#505151" stroke="#263238" stroke-width=".096" stroke-miterlimit="10"/><path d="M31.552 43.526c-.002-.024-.008-.047-.013-.07-.14.143-.295.285-.445.39-.458.318-1.044 1.017-1.447 1.097-.34.069-1.254-.074-1.528-.12a.23.23 0 0 0-.03.088c-.03.27 1.266.27 1.687.24.422-.029.994-.722 1.265-.903.27-.18.54-.39.511-.721Z" fill="#fff" stroke="#263238" stroke-width=".096" stroke-miterlimit="10"/><path d="M24.264 35.395s-.21.692-.33 1.325c-.12.633-.543 4.457-.754 5.39-.21.934-.33 1.446-.33 1.446s-1.447.12-1.838-.06c-.392-.18-.723-.06-.633.24.09.302 1.144.994 1.777 1.266.633.271 1.506.452 1.687.27.18-.18.331-1.355.36-1.565.03-.211 1.778-3.132 2.109-4.217.331-1.083.27-2.198.361-2.59.09-.391.602-1.505.602-1.505h-3.01Z" fill="#FCDAC8" stroke="#3A3A3A" stroke-width=".096" stroke-miterlimit="10" stroke-linecap="round" stroke-linejoin="round"/><path d="M21.01 43.497c-.39-.18-.722-.06-.632.24.09.302 1.145.994 1.777 1.266.633.27 1.505.452 1.687.27.127-.126.238-.742.304-1.17-.881.132-1.539-.185-1.539-.185l.241-.36c0-.002-1.445.12-1.837-.061Z" fill="#505151" stroke="#263238" stroke-width=".096" stroke-miterlimit="10"/><path d="M23.841 45.273a.516.516 0 0 0 .095-.184 4.14 4.14 0 0 1-1.978-.52c-.936-.526-1.388-.881-1.566-1.037-.032.053-.04.122-.015.206.09.301 1.144.993 1.777 1.265.634.27 1.507.451 1.687.27Z" fill="#fff" stroke="#263238" stroke-width=".096" stroke-miterlimit="10"/><path d="M22.321 26.031s0 2.44.18 3.855c.181 1.415.212 4.397.212 4.698 0 .301 1.746.964 3.372.964 1.627 0 3.404-.482 3.795-.602.392-.12.573-.211.573-.211s.3-3.464.3-5.39c0-1.928-.963-3.765-1.234-4.096-.27-.331-.632-.723-.632-.723s-2.26 1.084-3.885 1.144c-1.627.06-2.53-.09-2.53-.09l-.15.451Z" fill="#444"/><path d="M23.707 17.274s-1.485.496-2.44.742c-.953.248-.953 1.874-1.025 2.44-.07.565-.317 1.662-.672 2.687-.353 1.025-.46 1.803.177 2.015.637.212 1.06-.141 1.45-.425.389-.283.848-.848.848-.848s-.212 2.44 0 2.828c.212.389 1.379.53 2.828.495 1.45-.035 3.112-.884 3.536-1.52.425-.637.495-.849.353-1.627-.14-.777-1.378-4.03-2.546-5.55-1.165-1.52-2.509-1.237-2.509-1.237Z" fill="#7B7C7C"/><path d="M21.381 21.547a3.526 3.526 0 0 1-.076-.512M21.977 23.723s-.309-.971-.508-1.79" stroke="#666" stroke-width=".096" stroke-miterlimit="10" stroke-linecap="round" stroke-linejoin="round"/><path d="M23.706 17.274s-1.248.416-2.191.676c.019.488.173 1.648 1.202 1.87 1.247.269 1.819-1.678 1.9-2.473-.53-.152-.91-.073-.91-.073Z" fill="#FCDAC8" stroke="#666" stroke-width=".096" stroke-miterlimit="10" stroke-linecap="round" stroke-linejoin="round"/><path d="m22.196 18.942-.2-1.166-.443.322c-.523.2-1.287-.684-1.728-1.367-.443-.684-1.046-2.653-1.046-2.653s0-.28 2.01-1.085c2.01-.804 2.935-.724 3.457-.403.523.322.724.804.684 1.327-.04.522-.322.965-.522 1.125-.2.16-.443.523-.443.523s-.16.28-.16.764c0 .482.2 1.768.2 1.768" fill="#FCDAC8"/><path d="m22.196 18.942-.2-1.166-.443.322c-.523.2-1.287-.684-1.728-1.367-.443-.684-1.046-2.653-1.046-2.653s0-.28 2.01-1.085c2.01-.804 2.935-.724 3.457-.403.523.322.724.804.684 1.327-.04.522-.322.965-.522 1.125-.2.16-.443.523-.443.523s-.16.28-.16.764c0 .482.2 1.768.2 1.768" stroke="#3A3A3A" stroke-width=".096" stroke-miterlimit="10" stroke-linecap="round" stroke-linejoin="round"/><path d="m20.468 15.083.16 1.205.443-.12" fill="#FCDAC8"/><path d="m20.468 15.083.16 1.205.443-.12" stroke="#3A3A3A" stroke-width=".096" stroke-miterlimit="10" stroke-linecap="round" stroke-linejoin="round"/><path d="M21.352 15.284s.482.281.964-.08Z" fill="#FCDAC8"/><path d="M21.352 15.284s.482.281.964-.08" stroke="#3A3A3A" stroke-width=".096" stroke-miterlimit="10" stroke-linecap="round" stroke-linejoin="round"/><path d="M19.486 15.446s.295.232.737.021Z" fill="#FCDAC8"/><path d="M19.486 15.446s.295.232.737.021" stroke="#3A3A3A" stroke-width=".096" stroke-miterlimit="10" stroke-linecap="round" stroke-linejoin="round"/><path d="M21.634 15.383s.042.21.189.19c.147-.022.168-.19.168-.19s-.232.021-.357 0ZM19.677 15.552s.042.21.189.19c.147-.022.168-.19.168-.19s-.232.021-.357 0Z" fill="#3A3A3A" stroke="#3A3A3A" stroke-width=".096" stroke-miterlimit="10" stroke-linecap="round" stroke-linejoin="round"/><path d="M21.212 14.5s.59-.147 1.114.126Z" fill="#FCDAC8"/><path d="M21.212 14.5s.59-.147 1.114.126" stroke="#3A3A3A" stroke-width=".192" stroke-miterlimit="10" stroke-linecap="round" stroke-linejoin="round"/><path d="M20.182 14.605s-.59-.042-.925.253Z" fill="#FCDAC8"/><path d="M20.182 14.605s-.59-.042-.925.253" stroke="#3A3A3A" stroke-width=".192" stroke-miterlimit="10" stroke-linecap="round" stroke-linejoin="round"/><path d="m21.98 17.745 1.006-.814-.863 1.514-.143-.7Z" fill="#DDBBA2"/><path d="m20.826 17.034.32-.063" stroke="#3A3A3A" stroke-width=".096" stroke-miterlimit="10" stroke-linecap="round" stroke-linejoin="round"/><path d="M25.482 12.182c-.402-1.606-1.54-1.658-1.587-1.66l-.44-.012.432-.082c.028-.006.69-.13 1.238.033l-.026.092c-.309-.09-.663-.086-.905-.066.399.124 1.089.505 1.38 1.673l-.092.022Z" fill="#353535" stroke="#353535" stroke-width=".096" stroke-miterlimit="10"/><path d="M24.116 16.425c-.265-.332-.202-.844-.2-.866l.055-.42.04.422a.66.66 0 0 0 .224.41c.136.108.321.15.553.12l.012.095c-.258.032-.47-.016-.626-.142a.664.664 0 0 1-.162-.192c.014.16.06.36.18.512l-.076.06Z" fill="#353535"/><path d="M22.009 9.952s-1.798.1-3.647 1.547c-1.85 1.447-1.352 3.061-.75 3.182.604.121 1.488-.362 1.488-.362s1.125.362 1.849.04c.724-.32 1.689-1.406 1.689-1.406s-.282 1.287.321 1.287.925-.362.925-.362.402-.925.562-.724c.16.2.482.643.2 1.045-.28.403-.683.523-.683.523s-.24.562 0 .844c.241.28.884-.242 1.125-.765.241-.522.121-1.889-.08-2.613-.2-.724-.548-1.392-1.112-1.713 0 0 .522 0 .643-.523.121-.522-.522-1.326-1.487-1.367-.965-.04-1.97.403-1.768.925.202.523.725.442.725.442Z" fill="#353535" stroke="#353535" stroke-width=".096" stroke-miterlimit="10"/><path d="M22.328 26.922s-.192-.512-.32-.576c-.127-.064-.73.835-1.216 1.44-.33.413-.736 1.216-.511 1.632.223.416 1.44.736 1.92.576.48-.16.511-.672.511-1.248s.065-1.375-.031-1.6c-.096-.224-.353-.224-.353-.224Z" fill="#263238" stroke="#263238" stroke-width=".096" stroke-miterlimit="10"/><path d="M21.305 29.739c.07.122.233.223.436.293.18.012.343.003.46-.037.48-.16.512-.672.512-1.248s.065-1.376-.031-1.6c-.096-.224-.353-.224-.353-.224s-1.153 2.591-1.024 2.816Z" fill="#3E4649" stroke="#263238" stroke-width=".096" stroke-miterlimit="10"/><path d="M24.506 17.195s-1.951 7.423-2.047 8c-.096.575-.192 2.43-.192 2.43h.192l.192-2.4 2.143-7.967-.288-.063Z" fill="#263238" stroke="#263238" stroke-width=".096" stroke-miterlimit="10"/><path d="M20.468 23.852c.53-.141 2.146-.85 2.146-.85s.071.46-.035.848c-.106.389-1.239 1.684-1.982 2.065-1.023.524-1.533-.278-1.481-.842.025-.276.075-.652.226-1.105" fill="#7B7C7C"/><path d="M23.89 22.32s.414 0 .477.083c.062.083.082.518-.042.58-.123.063-.268-.082-.268-.207 0-.125-.228-.063-.228-.063l.061-.392Z" fill="#FCDAC8" stroke="#666" stroke-width=".096" stroke-miterlimit="10" stroke-linecap="round" stroke-linejoin="round"/><path d="M22.26 23.25s.317-.778.46-1.097c.14-.318.388-.424.495-.424.106 0 .813.388.813.53 0 .14-.248 1.237-.424 1.343-.177.105-.212.212-.425.247-.212.036-.813-.177-.813-.177s-.106-.034-.106-.423Z" fill="#FCDAC8" stroke="#666" stroke-width=".096" stroke-miterlimit="10" stroke-linecap="round" stroke-linejoin="round"/><path d="m23.922 22.648-.92-.424M22.896 22.86l.92.283M22.939 23.335l.666.267" stroke="#666" stroke-width=".096" stroke-miterlimit="10" stroke-linecap="round" stroke-linejoin="round"/><path d="M26.997 19.29s-1.379-2.37-2.227-2.228c-.849.141-.778 1.45-.248 2.758.53 1.309 1.91 4.313 2.015 4.526 0 0-1.945.07-2.263.035-.317-.035-.6-.141-.6-.141s-.53-.389-.92-.672c-.389-.283-.601-.036-.601.106 0 .14.035.283.035.283s-.176.317-.176.636c0 .318.105.425.317.53.213.106.885 0 1.343 0 .46 0 .99.354.99.354s1.343.741 2.475.741c1.132 0 1.803-.46 1.839-1.697.037-1.236-1.979-5.232-1.979-5.232Z" fill="#FCDAC8" stroke="#666" stroke-width=".096" stroke-miterlimit="10" stroke-linecap="round" stroke-linejoin="round"/><path d="M26.997 19.29s-1.378-2.37-2.227-2.228c-.849.141-.778 1.45-.248 2.758.53 1.309 1.91 4.313 2.015 4.526 0 0-1.55.056-2.108.043l-.142.887c.218.096.376.2.376.2s1.343.742 2.475.742c1.132 0 1.803-.46 1.839-1.697.036-1.236-1.98-5.232-1.98-5.232Z" fill="#767777" stroke="#666" stroke-width=".096" stroke-miterlimit="10" stroke-linecap="round" stroke-linejoin="round"/><path d="m26.808 24.984.1.234M26.537 24.346l.193.457" stroke="#666" stroke-width=".096" stroke-miterlimit="10" stroke-linecap="round" stroke-linejoin="round"/><path d="M25.036 24.387c-.241.004-.459.006-.608.002l-.142.887c.218.096.377.2.377.2s.059.033.164.085l.209-1.174Z" fill="#263238"/></g></g><defs><clipPath id="a"><rect width="48" height="48" rx="24" fill="#fff"/></clipPath><clipPath id="b"><path fill="#fff" d="M0 0h48v48H0z"/></clipPath></defs></svg>