<svg width="48" height="48" fill="none" xmlns="http://www.w3.org/2000/svg"><g clip-path="url(#a)"><rect width="48" height="48" rx="24" fill="#fff"/><g clip-path="url(#b)"><path d="M46.57 25.71c-.223 1.962-.989 3.857-2.153 5.45-1.755 2.4-5.138 2.99-7.549 1.25a4.576 4.576 0 0 0-.771-.455c-1.332-.615-3.15-.382-3.941.852-.878 1.37-.18 3.165-.292 4.788-.122 1.775-1.268 3.363-2.728 4.379a9.229 9.229 0 0 1-1.617.89c-1.06.462-2.201.76-3.339.99-3.756.76-7.762.82-11.37-.38-.72-.239-1.42-.528-2.103-.871-4.104-2.068-7.247-6.392-7.014-10.98.081-1.621.83-3.475 2.414-3.825.535-.117 1.093-.043 1.638-.095.688-.067 1.447-.419 1.444-1.239a1.416 1.416 0 0 0-.214-.718c-.443-.731-1.258-1.062-1.798-1.68-.84-.96-.834-2.449-.293-3.603.54-1.155 1.52-2.04 2.52-2.83 7.014-5.555 16.74-8.403 25.604-6.558 2.543.53 4.977 1.654 6.95 3.357.064.054.126.11.188.166 2.525 2.263 4.194 5.51 4.459 8.872.06.745.05 1.495-.035 2.24Z" fill="#EFEFEF"/><path d="M46.606 23.471c-.533.202-1.063.4-1.586.591-1.103 1.504-3.122 1.763-4.857 2.448-.957.379-2.053.703-2.961 1.185a1.374 1.374 0 0 1-1.618-.284 1.297 1.297 0 0 1-.103-1.586c-.413-.14-.86-.142-1.298-.167-.437-.025-.888-.079-1.263-.303-.376-.225-.57-.636-.64-1.069-.155-.962-.26-1.965-.417-2.928-2.015.205-4.031.41-6.046.617-.253.026-.518.05-.749-.057-.23-.107-.466-.497-.352-.723l6.877-2.691c-.064-.342.152-.672.437-.872.285-.199.634-.281.972-.36.942-.218 1.882-.437 2.824-.654 2.157-.5 4.244-1.24 6.32-2.018 2.526 2.263 4.195 5.509 4.46 8.871Z" fill="#F4CDB8"/><path d="m31.632 18.48 4.129-1.774M35.44 25.823c.641-.948 1.304-1.891 1.947-2.839-.675-.735-1.354-1.435-2.029-2.17l-3.506.572M45.324 23.387l-.378.794M35.389 23.825l.392-2.518" stroke="#0D0B0D" stroke-width=".096" stroke-miterlimit="10" stroke-linecap="round" stroke-linejoin="round"/><path d="M27.52 42.865c-1.06.462-2.2.76-3.338.99-3.757.76-7.763.82-11.37-.38-.429-1.735-.818-3.486-.85-5.268-.035-2.007.423-4.087 1.66-5.668 4.302-.224 8.58-.503 12.881-.726.366 3.677.667 7.37 1.018 11.052Z" fill="#666"/><path d="m20.865 44.122-.748-4.322M13.277 34.604c-.54.817-.747 1.818-.753 2.798-.007.979.175 1.948.357 2.911l.603 3.204" stroke="#0D0B0D" stroke-width=".096" stroke-miterlimit="10" stroke-linecap="round" stroke-linejoin="round"/><path d="M12.655 36.47a4.134 4.134 0 0 0 2.206-2.031M22.128 33.37l4.487.245M25.559 33.624a20.827 20.827 0 0 0 1.314 2.927" stroke="#0D0B0D" stroke-width=".096" stroke-miterlimit="10" stroke-linecap="round" stroke-linejoin="round"/><path d="M24.752 22.592c-1.016-.322-1.983-.61-2.998-.932a2.397 2.397 0 0 1-1.888.861c-.715-.02-1.38-.416-1.803-.994-.913.262-1.811.541-2.72.82-.773.237-1.518.626-2.008 1.27l-1.442 1.899c.685.31 1.39.598 2.076.908.083 1.982.159 4 .241 5.982l11.172.339c.391-2.105.74-4.247.959-6.376.57-.363 1.16-.708 1.732-1.071-.757-1.223-1.948-2.271-3.321-2.706Z" fill="#A7A7AA"/><path d="m24.09 26.635 3.462-1.908M15.323 26.724l-.122-1.167M12.537 24.8c.877.476 1.783.902 2.71 1.273M16.889 30.25c.145.486.619.856 1.127.878a1.265 1.265 0 0 0 1.199-.779" stroke="#0D0B0D" stroke-width=".096" stroke-miterlimit="10" stroke-linecap="round" stroke-linejoin="round"/><path d="m15.509 22.856.304.518M14.234 23.83l.36.13M16.785 24.98l-.426.198M15.948 26.808l.394.459M17.701 26.879l.393-.165M17.665 28.069l.26.427M19.44 28.72c-.076.152-.152.305-.23.458M16.519 28.945l-.166.294M20.513 30.91c.197.061.395.123.593.183M20.227 31.537l.229.262M17.868 30.324l.328-.13M22.094 31.668a.395.395 0 0 0-.096.36M22.486 23.543h.46M23.867 22.886l.265.49M23.14 24.994c.186.053.371.108.557.162M22.304 22.194l-.128.394M25.697 24.075l.492.03M25.074 25.083v.262M23.96 25.771h.427" stroke="#fff" stroke-width=".077" stroke-miterlimit="10" stroke-linecap="round" stroke-linejoin="round"/><path d="M20.174 19.499a2.1 2.1 0 0 1 1.99-.76 2.1 2.1 0 0 1 1.595 1.415" stroke="#0D0B0D" stroke-width=".096" stroke-miterlimit="10" stroke-linecap="round" stroke-linejoin="round"/><path d="M22.47 19.94c.259.146.488.331.673.557l.464-.241a2.498 2.498 0 0 0-.317-.587 2.193 2.193 0 0 0-.62-.581 1.96 1.96 0 0 0-1.304-.265c-.448.068-.891.29-1.19.63a1.84 1.84 0 0 0-1.443.21c-.424.266-.73.713-.822 1.204-.087.46.236.914.605 1.2.37.284.847.407 1.314.405a2.049 2.049 0 0 0 1.013-.249c.304-.176.552-.462.64-.802l.215-.174c.35-.18.697-.361 1.044-.542a1.801 1.801 0 0 0-.271-.765Z" fill="#0D0B0D"/><path d="M21.197 22.468a.735.735 0 0 0 .748-.39.79.79 0 0 0-.107-.845.853.853 0 0 0-.815-.27c-.017.182-.05.365-.068.549a.621.621 0 0 1-.389-.051.576.576 0 0 1-.25-.284l-.208-.07a.868.868 0 0 1-.744.208.868.868 0 0 1-.607-.476c-.101.057-.24.098-.34.155.302.829.573 1.685.875 2.514.75-.002 1.52-.397 1.905-1.04Z" fill="#F4A89F"/><path d="m21.291 21.688.318-.37M19.13 21.489c.175.09.369.144.564.153M19.314 22.06l.259-.025" stroke="#0D0B0D" stroke-width=".096" stroke-miterlimit="10" stroke-linecap="round" stroke-linejoin="round"/><path d="M28.91 28.765c-.363-1.602-1.239-3.296-1.239-3.296l-3.141 1.518c-1.072-.96-2.1-1.926-3.171-2.886.093-.387.1-.83-.04-1.201-.303-.804-.593-1.627-.896-2.431-.223-.016-.427.214-.457.435-.09.666-.178 1.333-.267 2-.276-.307-.579-.604-.856-.91-.126-.618-.256-1.206-.382-1.823-.036-.174-.205-.334-.381-.312l-.03.326c.018-.097-.04-.22-.107-.294a.326.326 0 0 0-.266-.104c-.037.227-.096.457-.134.684a.454.454 0 0 0-.193-.285.218.218 0 0 0-.182-.015c-.06.333-.124.68-.186 1.013-.025.025-.057.041-.082.066l-.487 2.204c.736.965 1.482 1.982 2.219 2.946 1.497 1.962 2.89 4.018 4.61 5.788.704.725 1.768.95 2.776.88 1.008-.071 1.988-.59 2.567-1.418.58-.828.547-1.899.324-2.885Z" fill="#F4CDB8"/><path d="m18.034 20.03-.075 2.199M17.554 20.275l-.232 2.225M16.985 21.149l-.16 1.769M21.388 24.096l-.074.282M24.547 26.958l1.622 1.521" stroke="#0D0B0D" stroke-width=".096" stroke-miterlimit="10" stroke-linecap="round" stroke-linejoin="round"/><path d="M25.7 36.419c.138.001.31-.076.353-.208-.757-1.024-1.537-2.07-2.6-2.774-.569-.377-1.208-.646-1.858-.85-1.953-.616-3.907-1.336-5.815-2.082l-.428-3.816-2.784-1.036c-.371 1.402-.693 2.8-1.073 4.2-.219.805-.278 1.659-.113 2.477.165.817.563 1.595 1.17 2.166.61.57 1.44.813 2.258.971 1.842.357 3.684.695 5.502 1.027.562.522 1.309.903 1.699 1.564.27.458.579.894.923 1.3.051.06.106.122.18.149.074.028.201.022.235-.05-.184-.473-.351-.957-.535-1.431.454.43.909.86 1.363 1.292.084.08.172.163.282.204.11.041.264.04.34-.048-.017-.035-.012-.073-.03-.107a.431.431 0 0 0 .539.092c-.328-.817-.618-1.643-.946-2.46.353.523.673 1.1 1.083 1.58.123.143.36.2.524.103-.356-.866-.73-1.742-1.086-2.608.14.076.282.15.424.22.125.062.255.123.393.125Z" fill="#F4CDB8"/><path d="M15.175 30.258c.213.07.426.138.64.207M24.527 35.173l.418.982M23.518 37.494l1.306 1.969" stroke="#0D0B0D" stroke-width=".096" stroke-miterlimit="10" stroke-linecap="round" stroke-linejoin="round"/><path d="M23.279 16.66a.3.3 0 1 0-.6 0 .3.3 0 0 0 .6 0ZM36.765 34.805a.3.3 0 1 0-.6 0 .3.3 0 0 0 .6 0Z" fill="#868687" stroke="#868687" stroke-width=".096" stroke-miterlimit="10"/><path d="M40.406 14.095a.3.3 0 1 0-.601 0 .3.3 0 0 0 .6 0Z" fill="#868687" stroke="#868687" stroke-width=".096" stroke-miterlimit="10" stroke-linecap="round" stroke-linejoin="round"/><path d="M10.524 12.26a.3.3 0 1 0-.6 0 .3.3 0 0 0 .6 0ZM28.149 36.648a.3.3 0 1 0-.6 0 .3.3 0 0 0 .6 0ZM6.089 32.028a.3.3 0 1 0 0-.6.3.3 0 0 0 0 .6ZM18.976 17.937a.12.12 0 1 0-.24 0 .12.12 0 0 0 .24 0ZM42.584 29.557a.12.12 0 1 0-.24 0 .12.12 0 0 0 .24 0ZM29.447 11.839a.12.12 0 1 0-.24 0 .12.12 0 0 0 .24 0ZM29.814 26.225a.12.12 0 1 0 0-.24.12.12 0 0 0 0 .24ZM14.479 17.185l-.513.887h1.024l-.511-.887Z" fill="#868687" stroke="#868687" stroke-width=".096" stroke-miterlimit="10"/><path d="m6.39 41.87-.513.886H6.9l-.511-.887ZM45.136 33.727l.511-.886h-1.024l.513.886Z" fill="#868687" stroke="#868687" stroke-width=".096" stroke-miterlimit="10" stroke-linecap="round" stroke-linejoin="round"/><path d="m34.034 14.386.513-.888h-1.025l.512.888Z" fill="#868687" stroke="#868687" stroke-width=".096" stroke-miterlimit="10"/><path d="m17.227 14.516-.826.826M16.401 14.516l.826.826" stroke="#868687" stroke-width=".096" stroke-miterlimit="10" stroke-linecap="round"/><path d="m32.045 28.083-.825.825M31.22 28.083l.825.825" stroke="#868687" stroke-width=".096" stroke-miterlimit="10" stroke-linecap="round" stroke-linejoin="round"/><path d="m10.635 38.944-.825.826M9.81 38.944l.825.826M39.964 9.614l-.825.827M39.139 9.614l.825.827M5.175 23.912l-.825.825M4.35 23.912l.825.825" stroke="#868687" stroke-width=".096" stroke-miterlimit="10" stroke-linecap="round"/></g></g><defs><clipPath id="a"><rect width="48" height="48" rx="24" fill="#fff"/></clipPath><clipPath id="b"><path fill="#fff" d="M0 0h48v48H0z"/></clipPath></defs></svg>