<svg width="48" height="48" fill="none" xmlns="http://www.w3.org/2000/svg"><g clip-path="url(#a)"><rect width="48" height="48" rx="24" fill="#fff"/><g clip-path="url(#b)"><path opacity=".7" d="M36.103 39.645a19.06 19.06 0 0 1-.938 1.827c-4.027 6.769-15.469 10.453-21.54 3.457-1.448-1.668-2.018-3.683-3.028-5.595-2.297-4.35-6.337-6.95-8.98-10.978C-.43 25.234-.359 21.233.551 17.858c.989-3.667 2.906-6.23 6.07-8.176 3.547-2.183 7.474-1.577 11.45-.817 1.79.341 3.632.69 5.44.56 2.26-.164 4.472-.822 6.709-1.141 2.326-.332 4.752-.411 7.04.313 7.329 2.32 9.535 13.191 6.848 19.419-.951 2.204-2.655 3.905-4.232 5.63-1.7 1.864-2.713 3.687-3.773 6Z" fill="#EFEFEF"/><g opacity=".37" fill="#898989"><path d="M11.486 13.63a2.55 2.55 0 0 1 2.305 1.374c.242.446.356.907.338 1.38a2.565 2.565 0 0 1-.424 1.324 2.96 2.96 0 0 1-1.092.99 2.947 2.947 0 0 1-1.429.382 2.577 2.577 0 0 1-1.338-.365 2.64 2.64 0 0 1-.975-1.034 2.582 2.582 0 0 1-.332-1.368c.02-.47.162-.907.426-1.312a2.977 2.977 0 0 1 1.097-.99c.464-.252.939-.379 1.424-.382Zm-1.26 1.945c-.112.2-.167.42-.166.661.001.242.063.477.187.704.124.228.288.408.492.543.203.134.42.209.649.226.23.017.442-.028.64-.135a1.09 1.09 0 0 0 .448-.457 1.3 1.3 0 0 0 .148-.657 1.569 1.569 0 0 0-.2-.705 1.549 1.549 0 0 0-.48-.544 1.273 1.273 0 0 0-.625-.23 1.1 1.1 0 0 0-.63.133c-.199.108-.352.261-.464.461ZM13.07 12.483l1.435-.782 2.574 1.846-.16-3.16 1.437-.781 2.457 4.514-1.178.64-1.459-2.678.187 2.795-.869.473-2.246-1.673 1.457 2.678-1.178.642-2.458-4.514ZM23.248 9.764l1.153-.627.999 1.835a3.667 3.667 0 0 1-.677.918c-.3.309-.61.55-.932.725-.46.25-.93.374-1.41.37a2.577 2.577 0 0 1-1.326-.366 2.644 2.644 0 0 1-.97-1.032c-.242-.441-.35-.9-.327-1.374.023-.475.172-.917.445-1.328.275-.411.65-.746 1.126-1.005a3.418 3.418 0 0 1 1.132-.374 3.03 3.03 0 0 1 1.152.032l-.262 1.328a2.044 2.044 0 0 0-.74-.065 1.728 1.728 0 0 0-.682.196c-.215.117-.379.277-.495.478a1.284 1.284 0 0 0-.169.664c.003.24.066.474.19.701.126.232.291.415.495.549.203.134.422.206.656.217.234.012.46-.04.674-.158.193-.105.387-.29.58-.558l-.611-1.126Z"/></g><path d="M28.738 16.343c-.317-.368-.575-.756-.622-1.149-.127-1.057-1.1-2.03-2.537-2.198-1.437-.17-1.184.464-2.198.042-1.015-.423-2.283-1.353-3.72-.38-1.437.972-1.184 1.987-.634 2.325.55.338.127.93-.38.888-.507-.042-2.072.549-2.41 1.395-.337.845.423 2.874-.422 3.297-.846.423-3.17-.676-5.157 1.353-1.987 2.03-.422 3.297-.338 4.185.084.888-1.057.38-.93 1.732.126 1.353 1.606 2.832 3.635 2.41 2.03-.422 2.325-1.015 2.79-.042.465.972 2.917 2.916 4.988 2.03 2.072-.889 2.705-1.311 3.255-1.142.549.169 2.916-.592 3.424-1.31.507-.72-.085-1.776.338-2.072.422-.296 1.395-.212 1.268-1.564-.127-1.353.55-2.748 1.31-3.212.762-.465 1.48-1.86.93-3.467-.549-1.606-.676-.846-1.394-1.818-.287-.388-.79-.83-1.196-1.303Z" fill="#353535"/><path d="M22.613 28.46s-1.601-.075-2.458 0c-.856.075-7.149 2.234-7.149 2.234s-6.334 4.232-5.92 4.766c.414.534.856.707 1.601.707s7.596-1.154 7.596-1.154.596 5.622.632 6.256c.038.632-1.973 6.701-1.973 6.701h14l.707-6.404s.856-1.042 1.302-2.457c.447-1.415 1.118-6.107 1.118-6.107s8.414-1.191 9.16-1.899c.744-.707-2.607-3.239-3.5-3.611-.895-.373-4.32-.075-4.73-.075-.41 0-.931-.224-3.053.075-2.122.297-4.803.819-4.803.819l-2.53.15Z" fill="#898989"/><path d="M22.315 26.45s-.075 1.75-.224 2.234c-.148.484 3.388 4.692 3.873 4.617.484-.075 1.49-3.91 1.564-4.32.075-.41-.149-2.568-.149-2.568s-.633 1.452-2.085 1.154c-1.452-.298-2.979-1.117-2.979-1.117Z" fill="#F4CDB8"/><path d="m22.278 27.002-.186 1.682 2.816.281-2.63-1.963Z" fill="#D3B0A1"/><path d="m32.57 30.884-.5 2.119 1.34-2.383M32.852 29.69l-.137.58M15.166 33.003l1.116 2.011-1.526-1.49M20.832 43.262l4.647-1.658M20.155 43.502l.311-.11M26.721 41.698l-1.65.725M27.527 41.343l-.412.181" stroke="#606060" stroke-width=".096" stroke-miterlimit="10" stroke-linecap="round" stroke-linejoin="round"/><path d="M27 17.71s-.547.15-1.092-.486c-.546-.636-.728-.272-1.123.607-.394.88-1.122 1.91-2.122 1.335-1-.576-1.304.606-1.364 1.03-.06.425-1.144 2.568-1.026 2.997.117.43.238 1.673.541 2.31.303.636 3.73 3.486 4.821 3.426 1.092-.06 1.36-.413 2.452-2.293 1.091-1.88 1.375-3.566.823-5.955C28.358 18.292 27 17.71 27 17.71Z" fill="#F4CDB8" stroke="#D3B0A1" stroke-width=".096" stroke-miterlimit="10"/><path d="M25.21 19.287s.09 1.182.212 1.334c.12.152.636.576.455.88-.182.303-.91.546-.91.546" stroke="#3A3A3A" stroke-width=".096" stroke-miterlimit="10" stroke-linecap="round" stroke-linejoin="round"/><path d="M26.294 23.53a.797.797 0 0 0-.573-.39c-.31-.049-.78-.061-1.27.149-.848.364-.788 1.303-.758 2.183.03.88 1.122 1.97 2.001 1.728.88-.243 1.183-1.304 1.032-2.366a3.661 3.661 0 0 0-.432-1.303Z" fill="#383838"/><path d="M26.18 26.079c-.181.455-.88.606-1.212.484-.334-.12-.456-.636-.759-.788-.303-.151-.273.395-.273.395l.004.052c.377.633 1.12 1.154 1.755.978.72-.199 1.053-.946 1.068-1.792a.63.63 0 0 0-.249-.057c-.243 0-.152.273-.334.728ZM24.452 23.804c.485-.212.759-.272 1.244-.182.233.044.48.052.674.05a3.616 3.616 0 0 0-.074-.141.798.798 0 0 0-.573-.392c-.31-.048-.78-.06-1.27.15-.364.156-.561.418-.665.736a3.49 3.49 0 0 0 .664-.22Z" fill="#fff" stroke="#3A3A3A" stroke-width=".096" stroke-miterlimit="10" stroke-linecap="round" stroke-linejoin="round"/><path d="M23.118 21.075c.15 0 .273-.217.273-.485s-.122-.485-.273-.485c-.15 0-.272.217-.272.485s.122.485.272.485ZM26.514 20.439c.15 0 .273-.218.273-.485 0-.268-.123-.485-.273-.485-.15 0-.273.217-.273.485 0 .267.122.485.273.485Z" fill="#383838"/><path d="M22.39 19.59s.668-.697 1.335-.243M25.726 18.802s.606-.759 1.243-.091" stroke="#3A3A3A" stroke-width=".096" stroke-miterlimit="10" stroke-linecap="round" stroke-linejoin="round"/><path d="M18.036 24.755s-.643-2.665-.735-3.155c-.092-.49.061-1.072.183-1.439.123-.368.398-1.042.796-1.593.398-.55.643-.275.582-.061-.062.214-.582.888-.644 1.133-.061.245-.03 1.531-.03 1.531l.674-1.837s.857-1.562 1.132-1.47c.276.092.184.367.093.49-.093.122-.736 1.775-.736 1.775l-.123 1.225s.92-1.806 1.042-2.021c.123-.214.796-1.379.95-1.103.153.275-.154.795-.154.795l-.98 2.113-.092.674s.673-.55.949-.919c.275-.367.705-.98.888-.98.183 0 .183.215.061.43-.122.214-1.163 1.715-1.194 1.806-.03.092-.429 1.042-.429 1.042s0 1.868-.183 2.511c-.184.643-.95 1.531-.95 1.531s-7.749 7.412-8.146 7.84c-.399.43-1.287.92-3.492.92s-1.041-2.88.214-3.952c1.256-1.072 3.43-2.42 3.736-2.542.307-.123 5.82-3.614 6.126-3.92.31-.304.462-.824.462-.824Z" fill="#F4CDB8"/><path d="M28.42 17.16s.735.673 1.01 1.163c.276.49.767 2.297.767 2.297l-1.777-3.46Z" stroke="#3A3A3A" stroke-width=".096" stroke-miterlimit="10" stroke-linecap="round" stroke-linejoin="round"/><path d="M30.319 25.98s-1.348-.858-1.256-1.93c.055-.641-.49-2.91-.49-2.91s-1.47-2.573-1.317-2.848c.154-.276.306-.062.46.03.154.093 1.44 2.206 1.44 2.206s-.49-1.746-.797-2.236c-.306-.49-.95-1.41-.52-1.5.43-.093 1.41 1.929 1.593 2.297.183.367.949 1.93 1.01 2.756.062.826.368 2.542.368 2.542s8.974 2.113 9.74 2.848c.765.736 2.48 2.267 2.021 3.093-.46.827-1.715 1.5-3.981.307-2.267-1.195-5.452-3.002-6.126-3.37-.676-.367-2.145-1.285-2.145-1.285Z" fill="#F4CDB8"/><path d="M30.124 41.96a.093.093 0 0 1 .103-.154.35.35 0 0 0 .276.024.604.604 0 0 0 .35-.3c.114-.23.11-.508.107-.778v-.08c-.003-.317.023-.674.238-.933.112-.133.261-.228.405-.32.196-.123.38-.24.431-.432.04-.154-.017-.317-.077-.49-.058-.163-.117-.332-.102-.513.02-.234.167-.433.285-.593.126-.17.231-.326.241-.5a.345.345 0 0 0-.1-.258.194.194 0 0 0-.15-.06.093.093 0 0 1-.1-.086.093.093 0 0 1 .086-.1.377.377 0 0 1 .294.114.533.533 0 0 1 .154.401c-.012.224-.138.411-.276.6-.11.148-.233.316-.25.498-.012.14.039.283.092.434.068.192.138.39.083.599-.07.264-.294.406-.512.543-.132.083-.27.17-.362.281-.175.212-.198.516-.195.812v.081c.003.292.007.592-.126.863a.79.79 0 0 1-.462.395.522.522 0 0 1-.422-.04l-.01-.008Z" fill="#545354"/><path d="M31.332 41.48a.09.09 0 0 1-.02-.022.094.094 0 0 1 .025-.13c.14-.091.152-.308.147-.43l-.008-.126c-.011-.155-.023-.317.033-.473.093-.262.328-.402.556-.538.189-.112.366-.219.46-.386.107-.19.082-.438.053-.61-.007-.048-.017-.097-.027-.146-.033-.18-.069-.366-.05-.558.024-.247.169-.53.437-.609a.093.093 0 0 1 .052.179c-.186.054-.287.264-.305.448-.017.165.015.33.048.505.01.05.019.101.027.151.032.199.06.49-.074.73-.118.212-.327.336-.528.456-.209.123-.405.24-.476.44-.043.12-.033.255-.022.398l.008.133c.01.277-.07.487-.23.591a.09.09 0 0 1-.106-.003ZM16.095 40.744a.092.092 0 0 1 .024.12.093.093 0 0 1-.127.035.347.347 0 0 0-.276-.021.607.607 0 0 0-.348.302c-.112.231-.107.51-.102.78l.001.08c.005.316-.019.674-.232.934-.11.135-.26.23-.403.323-.195.125-.378.243-.428.437-.04.154.019.317.081.488.059.164.12.332.106.512-.018.234-.164.434-.28.595-.125.172-.229.328-.238.501a.349.349 0 0 0 .102.258c.032.03.084.066.15.06a.092.092 0 0 1 .015.184.38.38 0 0 1-.294-.112.532.532 0 0 1-.158-.4c.012-.224.135-.412.273-.601.108-.149.231-.319.246-.5.011-.14-.04-.284-.096-.434-.069-.191-.14-.388-.087-.598.067-.265.291-.408.508-.547.132-.085.268-.172.36-.285.175-.213.195-.517.19-.813v-.08c-.007-.292-.012-.593.12-.864a.792.792 0 0 1 .459-.399.524.524 0 0 1 .423.037c.004.004.008.005.01.008Z" fill="#545354"/><path d="M14.889 41.234a.093.093 0 0 1-.004.15c-.138.094-.15.31-.144.432l.008.126c.013.156.026.317-.028.474-.092.263-.326.405-.552.541-.189.113-.366.22-.458.39-.105.19-.078.44-.05.61l.029.147c.035.18.072.366.054.557-.022.247-.165.532-.434.612a.093.093 0 0 1-.052-.177c.185-.056.285-.266.301-.45.014-.165-.018-.33-.052-.505l-.028-.151c-.034-.198-.064-.49.07-.732.116-.21.323-.337.524-.458.207-.126.404-.245.473-.444.042-.12.03-.254.02-.397a7.23 7.23 0 0 1-.01-.134c-.013-.276.067-.486.225-.593a.09.09 0 0 1 .108.002ZM32.263 22.84a.093.093 0 0 1-.016-.184c.229-.041.361-.311.355-.55-.004-.21-.082-.411-.166-.624l-.058-.152c-.087-.233-.186-.579-.057-.889.054-.128.142-.24.227-.35.131-.166.244-.311.218-.48-.03-.18-.209-.288-.399-.402-.198-.12-.403-.242-.484-.466-.072-.198-.017-.393.037-.58.033-.117.064-.226.066-.334a.589.589 0 0 0-.312-.518.588.588 0 0 0-.603.055.093.093 0 0 1-.13-.017.093.093 0 0 1 .017-.13.77.77 0 0 1 .799-.073c.252.127.42.404.413.687a1.522 1.522 0 0 1-.073.38c-.047.167-.093.326-.04.467.058.161.227.262.405.37.22.13.445.265.487.531.04.249-.11.44-.254.624a1.425 1.425 0 0 0-.202.307c-.105.25-.016.55.06.753l.056.148c.086.219.174.444.18.688.006.311-.17.675-.51.735a.033.033 0 0 1-.016.003Z" fill="#545354"/><path d="M33.108 22.005a.093.093 0 0 1-.087-.125c.06-.163-.027-.34-.12-.527-.093-.193-.191-.391-.154-.61.031-.178.14-.31.247-.439.05-.061.099-.12.137-.18a.815.815 0 0 0-.069-.934 1.734 1.734 0 0 0-.235-.212c-.095-.076-.193-.153-.275-.252a.947.947 0 0 1-.063-1.086.092.092 0 0 1 .128-.028.093.093 0 0 1 .028.129.766.766 0 0 0 .05.868c.069.083.155.151.246.224.09.071.183.145.261.236.271.316.308.801.086 1.153-.045.071-.1.137-.151.2-.095.115-.184.224-.206.352-.028.16.052.324.138.499.104.214.213.434.127.672a.094.094 0 0 1-.088.06ZM8.518 30.174c.024.031.026.075.003.102-.026.03-.074.027-.107-.005-.151-.148-.388-.12-.531-.005-.128.1-.207.25-.292.41-.02.037-.04.076-.061.112-.096.171-.254.403-.515.452-.108.02-.226.009-.339-.003-.175-.017-.325-.032-.414.065-.095.103-.062.284-.027.475.035.199.073.405-.02.567-.082.144-.233.194-.377.242-.09.03-.174.058-.24.106-.131.095-.192.286-.147.466.044.18.194.35.364.411.041.016.07.06.06.103-.007.041-.047.062-.089.048a.807.807 0 0 1-.483-.545c-.06-.243.019-.492.195-.618.082-.06.18-.092.274-.123.128-.043.25-.084.309-.187.067-.117.036-.286.005-.465-.04-.22-.08-.446.06-.6.13-.143.33-.123.522-.103.102.01.209.021.298.005.21-.04.346-.243.43-.392l.059-.11c.087-.163.177-.332.324-.448a.553.553 0 0 1 .74.04Z" fill="#545354"/><path d="M7.545 29.946c.006.008.01.017.014.026.016.043-.003.086-.042.095-.132.033-.194.178-.258.33-.066.158-.135.321-.29.395-.125.06-.267.042-.404.024a1.428 1.428 0 0 0-.186-.016.551.551 0 0 0-.535.482c-.012.084-.006.173-.001.268.006.104.012.212-.005.316a.637.637 0 0 1-.63.548c-.042 0-.081-.036-.088-.08-.007-.043.021-.079.064-.079a.517.517 0 0 0 .504-.439c.014-.088.01-.182.003-.282-.005-.098-.01-.2.002-.298a.67.67 0 0 1 .66-.596c.069 0 .139.009.206.018.123.015.238.03.33-.014.113-.053.17-.188.229-.331.074-.175.15-.356.343-.403a.089.089 0 0 1 .084.036Z" fill="#545354"/><path d="M30.618 35.27a1.108 1.108 0 0 0-.561-.939c-.49-.29-.898-.17-1.155-.017-.173.103-.3.231-.372.315a1.547 1.547 0 0 0-.317-.37c-.23-.19-.613-.375-1.142-.165-.476.188-.645.56-.703.838-.108.519.082 1.148.46 1.53.49.492 1.387 1.418 1.397 1.427.012.013.028.02.044.021a.071.071 0 0 0 .047-.013c.01-.008 1.043-.78 1.604-1.189.435-.317.722-.909.698-1.438Z" fill="#606060"/><path d="M27.141 35.843c.02.001.038-.01.046-.027l.089-.208.118.928a.046.046 0 0 0 .09.005l.31-1.228.1.742c.003.02.018.036.039.039.02.003.039-.007.048-.026l.147-.305.044.136c.006.017.022.03.04.032l.342.027c.019.002.038-.01.046-.028l.089-.205.118.925c.003.022.02.038.042.04h.001a.046.046 0 0 0 .047-.034l.31-1.23.101.743c.003.02.018.036.039.04.02.002.039-.008.048-.027l.147-.305.045.136c.005.018.02.03.04.032l.797.063c.015-.028.029-.058.042-.088l-.803-.068-.07-.215a.047.047 0 0 0-.041-.032h-.001a.046.046 0 0 0-.044.026l-.13.27-.111-.825a.045.045 0 0 0-.043-.04.046.046 0 0 0-.047.035l-.31 1.224-.108-.848a.046.046 0 0 0-.04-.04.048.048 0 0 0-.048.027l-.143.328-.278-.022-.07-.215a.047.047 0 0 0-.041-.032h-.001a.045.045 0 0 0-.044.026l-.13.27-.111-.825a.044.044 0 0 0-.043-.04.046.046 0 0 0-.047.035l-.31 1.224-.108-.849a.046.046 0 0 0-.087-.012l-.142.318-.718-.05c.008.032.018.065.028.097.228.016.716.056.716.056Z" fill="#fff"/><path d="m46.844 21.515-10.571 2.841a1.146 1.146 0 0 1-1.434-.803l-.812-3.02a1.16 1.16 0 0 1 .82-1.421L45.42 16.27a1.16 1.16 0 0 1 1.421.82l.812 3.02c.166.617-.201 1.254-.808 1.404Z" fill="#fff" stroke="#777477" stroke-width=".096" stroke-miterlimit="10" opacity=".7"/><path d="m36.694 20.703.365.095-.03.123-.37-.1.098.363-.118.032-.095-.364-.27.273-.09-.091.272-.265-.37-.093.033-.127.37.104-.1-.363.117-.032.098.364.27-.276.087.094-.267.263ZM39.786 20.685c.117.435.024.735-.24.806-.165.045-.306-.028-.364-.202a.588.588 0 0 1-.437.417c-.364.098-.71-.106-.813-.493-.103-.384.094-.73.458-.828.22-.06.428-.01.579.132l-.07-.258.167-.045.26.97c.04.143.125.176.212.152.158-.042.208-.268.115-.612-.161-.602-.701-.886-1.32-.719-.628.17-.942.704-.78 1.31.164.608.7.92 1.323.752.153-.042.333-.128.461-.245l.077.113a1.29 1.29 0 0 1-.503.262c-.703.19-1.315-.165-1.498-.844-.183-.68.178-1.288.885-1.478.693-.187 1.307.14 1.488.81Zm-.71.22c-.083-.31-.346-.453-.623-.38-.284.078-.435.335-.352.642.083.307.343.46.627.383.277-.074.433-.332.348-.645ZM41.114 19.807l.078.556.364-.098.037.14-.381.104.072.502-.138.037-.072-.502-.526.141.07.503-.139.037-.072-.502-.363.098-.038-.14.381-.104-.078-.555-.365.098-.039-.142.384-.102-.072-.502.141-.039.07.503.528-.142-.073-.502.139-.037.072.502.36-.097.038.14-.378.103Zm-.138.036-.525.141.074.556.528-.142-.077-.555ZM43.465 20.454l-.317-.19a.82.82 0 0 1-.533.405c-.35.094-.651-.023-.724-.294-.058-.212.024-.401.3-.68-.221-.132-.302-.226-.34-.364-.06-.228.074-.43.35-.504.254-.068.454.022.514.244.048.18-.026.333-.272.581l.628.374a1.18 1.18 0 0 0 .028-.378l.16.007c.01.17-.007.322-.048.455l.326.195-.072.149Zm-1.445-1.172c.03.106.087.17.296.291.219-.218.28-.33.245-.458-.036-.133-.155-.197-.32-.152-.181.048-.26.176-.22.32Zm.991.901-.69-.41c-.242.24-.299.376-.255.535.052.195.26.275.519.206a.643.643 0 0 0 .426-.331ZM43.248 19.068c-.078-.291.034-.53.274-.595.238-.064.456.084.536.378.078.294-.036.53-.274.595-.24.064-.458-.086-.535-.378Zm.681-.183c-.062-.233-.21-.342-.376-.297-.17.046-.24.215-.177.446.063.23.208.343.377.297.166-.046.239-.213.176-.446Zm.683-.691.15-.04-.742 2.12-.15.04.742-2.12Zm-.039 1.424c-.078-.292.036-.531.274-.596.24-.064.457.086.535.378.078.292-.033.53-.274.595-.237.064-.456-.086-.535-.377Zm.682-.183c-.062-.23-.207-.343-.376-.296-.166.045-.24.212-.177.445.062.233.21.342.376.297.17-.047.238-.215.177-.446Z" fill="#2E353A"/><path d="m37.362 24.114-1.354 2.484.386-2.186.968-.298Z" fill="#fff" stroke="#777477" stroke-width=".096" stroke-miterlimit="10" opacity=".7"/><path d="M2.633 15.855s.28 6.448 6.824 9.814M25.45 38.127s3.67 5.31 11.002 4.675M32.822 40.283s4.31 1.55 8.281-1.84M6.128 19.284s1.523 4.32 6.662 5.252M40.894 32.066s-.638-4.535-5.492-6.467" stroke="#898989" stroke-width=".192" stroke-miterlimit="10" stroke-linecap="round" stroke-linejoin="round"/></g></g><defs><clipPath id="a"><rect width="48" height="48" rx="24" fill="#fff"/></clipPath><clipPath id="b"><path fill="#fff" d="M0 0h48v48H0z"/></clipPath></defs></svg>