<svg xmlns="http://www.w3.org/2000/svg" width="48" height="48" fill="none"><g clip-path="url(#a)"><rect width="48" height="48" fill="#fff" rx="24"/><path fill="#FBE8B5" d="M31.685 27.572c4.965 0 8.99-3.827 8.99-8.548 0-4.722-4.025-8.549-8.99-8.549s-8.99 3.827-8.99 8.549c0 4.72 4.025 8.548 8.99 8.548Z" opacity=".19"/><path fill="#FBE8B5" d="M17.667 39.134c4.525 0 8.194-3.335 8.194-7.448 0-4.114-3.669-7.448-8.194-7.448-4.526 0-8.194 3.334-8.194 7.448 0 4.113 3.668 7.448 8.194 7.448Z" opacity=".23"/><path d="M27.587 36.119c.049-.002.09.03.091.073.002.042-.036.077-.084.079-.05.002-.09-.031-.092-.073-.002-.042.037-.078.085-.08Zm-1.01 5.253c.049-.002.09.03.092.072.002.043-.036.078-.085.08-.05.001-.09-.032-.092-.073-.002-.042.036-.078.085-.08Zm4.42 1.286c.08-.002.146.05.15.119.002.068-.06.126-.139.128-.079.003-.145-.05-.148-.118-.004-.068.058-.126.137-.129Zm1.493-6.378c.08 0 .144-.054.144-.123 0-.068-.065-.123-.144-.123-.079 0-.143.055-.143.123 0 .069.064.124.143.124Zm-4.99 7.793.424-.404-.138-.095-.475.248.189.25Zm5.32-22.721-.167.526.173.03.294-.406-.3-.15Zm-2.726-3.254.567.24.068-.14-.408-.325-.227.225Zm-2.222-5.026.617.119.027-.151-.484-.233-.16.265Zm.561 26.774.617.119.027-.15-.484-.234-.16.265Zm4.336-14.084.617.12.027-.15-.484-.235-.16.265Zm.613-7.812.428-.008.045-.09-.312-.076-.161.175Zm-1.183 22.2.256.379-.127.055-.325-.263.196-.17Zm-.321-26 .312.474.148-.084-.125-.466-.335.076Zm-3.273 1.526a.099.099 0 0 0 .125-.004.069.069 0 0 0-.004-.107.098.098 0 0 0-.125.004.069.069 0 0 0 .004.107Zm-7.843 27.989c.05-.001.087-.036.085-.079-.001-.042-.043-.074-.091-.073-.049.002-.087.037-.085.08.002.041.043.074.091.072Zm9.821-5.56c.049-.002.087-.037.085-.08-.002-.041-.043-.074-.092-.072-.049.002-.087.037-.085.079.002.042.043.075.092.073Zm-3.135-20.04.607.156.039-.148-.465-.262-.18.254Zm3.032-6.344.622.101.022-.15-.494-.22-.15.27Zm-.232 23.703.52-.312-.111-.12-.527.15.118.282Zm-8.358-2.998.568.24.068-.14-.408-.325-.227.225Zm11.516 1.097.618.12.027-.151-.485-.234-.16.265Zm-.551-3.69.428-.009.045-.09-.312-.075-.161.174Zm-8.089-3.197.312.474.147-.083-.125-.467-.334.076Zm.133-11.122a.099.099 0 0 0 .125-.003.07.07 0 0 0-.004-.108.098.098 0 0 0-.125.004.068.068 0 0 0 .004.107Zm-5.386-2.806.606.156.04-.149-.465-.262-.181.255Zm5.045 17.889.621.1.022-.15-.494-.22-.15.27ZM34.62 20.204c.05 0 .09-.034.09-.076 0-.041-.04-.076-.09-.076-.048 0-.088.035-.088.076 0 .042.04.076.089.076Zm.898 4.316c.048 0 .09.032.091.074.002.042-.036.077-.085.079-.049.002-.09-.031-.091-.073-.002-.042.036-.077.085-.08Zm2.627 1.252c.079-.003.145.05.149.119.003.068-.06.126-.138.128-.08.003-.146-.05-.15-.118-.002-.069.06-.126.139-.129Zm.365 16.378c.08-.002.146.051.149.12.003.068-.059.125-.138.128-.079.002-.146-.05-.149-.119-.003-.068.058-.126.138-.128Zm-3.239-14.792.425-.404-.138-.094-.475.248.188.25Zm.934-4.227.617.12.027-.151-.484-.234-.16.265Zm-.47 6.48.257.378-.127.055-.326-.263.196-.17Zm2.819 7.879c.05-.002.087-.037.085-.08-.001-.041-.043-.074-.091-.072-.049.002-.087.037-.085.079.002.042.043.075.091.073Zm-2.02-27.5c.049-.002.087-.037.085-.079-.002-.042-.043-.075-.092-.073-.049.002-.086.037-.085.08.002.041.044.074.092.072Zm.857 3.383.52-.311-.11-.12-.528.15.118.28ZM18.209 28.44l.717.14.032-.175-.563-.272-.186.308Zm4.859-.516c.08 0 .144-.055.144-.123s-.064-.124-.144-.124c-.079 0-.143.056-.143.124s.064.123.143.123ZM22.01 29.96c.048-.001.086-.036.084-.079-.001-.042-.043-.074-.091-.073-.049.002-.087.037-.085.08.002.041.043.074.092.072Zm-.772-3.68.52-.31-.11-.12-.528.15.118.28Zm-.572 9.3c.049-.002.087-.037.085-.08-.002-.041-.043-.074-.092-.072-.049.002-.086.037-.085.08.002.04.043.073.092.072Zm-6.425 6.748c.05-.002.09.03.092.072.002.043-.036.078-.085.08-.049.001-.09-.031-.092-.073-.002-.042.036-.078.085-.08Zm4.425 1.534c.08 0 .144-.056.144-.124s-.065-.123-.144-.123c-.08 0-.143.055-.143.123 0 .069.064.124.143.124Zm-4.763-13.651c.08 0 .144-.055.144-.123 0-.069-.064-.124-.144-.124-.079 0-.143.055-.143.124 0 .068.064.123.143.123Zm8.79 11.082-.168.526.173.031.294-.406-.3-.15ZM11.507 12.028l.568.24.067-.14-.408-.325-.227.225Zm4.59 28.774.617.12.027-.151-.484-.234-.16.265Zm2.28-5.183.617.119.027-.15-.484-.234-.16.265Zm.333-25.005.428-.009.045-.09-.312-.075-.161.174Zm-5.125 33.939.257.378-.127.054-.325-.262.195-.17Zm.845-11.877c.05-.002.087-.037.085-.08-.001-.041-.043-.074-.091-.072-.05.002-.087.037-.085.08.002.04.043.074.091.072Zm-1.194-.674.52-.31-.11-.12-.528.15.118.28Zm6.429-1.336.617.12.027-.15-.484-.235-.16.265Zm-3.405-4.913.429-.009.045-.091-.312-.075-.161.175Zm-.229-11.771c.05-.002.09.031.092.073.002.042-.036.078-.085.08-.049.001-.09-.032-.092-.074-.001-.041.036-.077.085-.079Zm.899 4.469c.05-.002.09.031.092.073.002.042-.036.077-.085.08-.049 0-.09-.032-.091-.074-.002-.042.036-.078.085-.079Zm-.246 2.837.425-.404-.138-.095-.475.249.189.25Zm.464 2.252.256.379-.127.055-.325-.263.196-.17Z" fill="#FBE8B5" opacity=".61"/><path fill="#fff" d="M23.186 9.46c-.03 0-.052-.02-.052-.047V7.28c0-.026.023-.047.052-.047.029 0 .052.021.052.047v2.132c0 .026-.023.047-.052.047Z"/><path fill="#fff" d="M22.357 9.148a.054.054 0 0 1-.037-.013.044.044 0 0 1 0-.067l1.658-1.508a.056.056 0 0 1 .074 0c.02.02.02.049 0 .068l-1.658 1.507a.057.057 0 0 1-.037.013Z"/><path fill="#fff" d="M24.359 8.395h-2.345c-.029 0-.052-.022-.052-.048 0-.026.023-.047.052-.047h2.345c.029 0 .052.02.052.047 0 .026-.023.048-.052.048Z"/><path fill="#fff" d="M24.014 9.149a.054.054 0 0 1-.037-.014L22.32 7.628a.044.044 0 0 1 0-.067.056.056 0 0 1 .074 0l1.658 1.507c.02.018.02.048 0 .067a.056.056 0 0 1-.037.014Z"/><g opacity=".32"><path fill="#EEC04D" d="m19.064 19.74-.147.217.654.443.147-.218-.654-.443Zm-8.822-3.669.027.335 1.004-.078-.026-.335-1.005.078Zm.225 15.35.278.188.565-.834-.278-.188-.565.834Z"/><path fill="#DAB03A" d="m21.193 8.134-.069.31.933.207.069-.312-.933-.205Z"/><path fill="#F5A941" d="m9.417 15.197-.29-.133-.399.868.29.133.399-.868Z"/><path fill="#DDC653" d="m23.133 10.487-.185.107.32.556.186-.107-.32-.556Z"/><path fill="#EEC04D" d="m36.675 10.028-.152-.151-.453.453.151.152.454-.454Zm1.356 11.254-.151-.152-.454.454.152.151.453-.453Z"/><path fill="#DAB03A" d="m9.525 26.577-.069.311.933.206.069-.311-.933-.206Zm12.521-5.932-.607.737.245.203.608-.737-.246-.203Z"/><path fill="#DDC653" d="m12.849 28.1-.264-.178-.536.79.264.18.536-.792Zm16.921 3.42-.197.152.458.592.198-.152-.458-.593ZM12.658 8.344l-.185.107.32.555.186-.106-.321-.556Z"/><path fill="#EEC04D" d="m19.287 22.927.18.114.344-.542-.181-.114-.343.542Z"/><path fill="#F5A941" d="m15.838 9.05.078.198.597-.235-.079-.199-.596.235Zm-4.614 15.935.079.2.596-.236-.078-.199-.597.235Z"/><path fill="#DAB03A" d="m37.25 31.606-.597.235.079.2.596-.236-.078-.199Z"/><path fill="#F5A941" d="m28.249 29.188-.085.196.589.254.085-.196-.59-.255Zm8.722-4.771.185-.107-.32-.556-.185.107.32.556ZM21.432 23.24l.079.2.596-.236-.078-.199-.597.236Zm-.77-7.796.078.199.597-.236-.078-.198-.597.235Z"/><path fill="#DDC653" d="m20.503 25.03-.201.07.212.606.201-.071-.212-.605Z"/><path fill="#F5A941" d="m33.589 9.247-.036.211.632.108.036-.21-.632-.109Z"/><path fill="#DAB03A" d="m29.867 8.373-.658.563.188.22.658-.564-.188-.22Zm6.74 4.67-.659.564.188.22.658-.564-.187-.22Z"/><path fill="#EEC04D" d="M36.956 27.753a.47.47 0 0 0-.053-.147c-.131-.24-.471-.445-.828-.477a.864.864 0 0 0-.503.12v.001a.57.57 0 0 1-.018-.075c-.023-.14-.007-.249.049-.325a.32.32 0 0 1 .19-.115h.002l-.017-.13-.016-.136a.579.579 0 0 0-.372.218c-.103.136-.136.315-.101.532a.876.876 0 0 0 .06.203.911.911 0 0 0-.066.076c-.242.305-.291.724-.14 1.181.181.545.043.973-.16 1.14-.146.119-.334.122-.53.009l-.135.232c.052.03.104.053.156.072a.674.674 0 0 0 .678-.106c.34-.277.294-.92.102-1.499-.157-.472-.009-.84.239-.862.118.155.279.294.464.393.278.15.556.181.764.088.175-.078.263-.225.235-.393Zm-.411.17c-.126.026-.292-.01-.46-.1a1.171 1.171 0 0 1-.391-.334.61.61 0 0 1 .357-.094c.35.032.617.264.64.402.004.021.01.065-.08.106a.3.3 0 0 1-.066.02Z"/><path fill="#C0962E" d="M36.553 27.922a.307.307 0 0 0 .058-.02c.09-.04.083-.084.08-.105-.023-.138-.29-.37-.64-.402a.61.61 0 0 0-.358.094s-.098-.115-.122-.239a.86.86 0 0 1 .504-.121c.357.032.696.237.828.477.01.226-.292.303-.35.316Z"/><path fill="#DAB03A" d="M12.03 20.632a.471.471 0 0 0-.025-.153c-.087-.26-.384-.523-.73-.619a.864.864 0 0 0-.516.03.549.549 0 0 1-.004-.077c.002-.142.038-.247.107-.311a.32.32 0 0 1 .208-.08h.001l.007-.13.008-.137a.58.58 0 0 0-.404.148c-.126.116-.191.286-.195.505a.903.903 0 0 0 .023.211.998.998 0 0 0-.08.063c-.291.256-.415.66-.348 1.137.08.569-.132.965-.363 1.092-.164.09-.35.06-.523-.087l-.174.205a.927.927 0 0 0 .14.099c.225.13.468.138.686.017.384-.211.454-.852.37-1.456-.07-.493.14-.828.389-.806.088.174.22.34.386.47.246.197.515.278.735.223.187-.044.3-.173.302-.344Zm-.435.095c-.128.003-.285-.062-.435-.181a1.173 1.173 0 0 1-.324-.399.614.614 0 0 1 .368-.028c.338.094.56.37.558.51 0 .021 0 .066-.098.09a.291.291 0 0 1-.06.008h-.01Z"/><path fill="#C0962E" d="M11.605 20.727a.31.31 0 0 0 .06-.009c.096-.024.097-.068.097-.09.003-.14-.22-.415-.558-.509a.614.614 0 0 0-.368.028s-.076-.13-.077-.257a.86.86 0 0 1 .517-.029c.345.096.643.358.729.618-.03.224-.342.246-.4.248Z"/></g><path fill="#F7C3AB" d="M24.798 11.042s.787 3.617 1.343 4.556c.286.483 2.708 3.12 2.708 3.12l1.06-1.806-2.5-2.312-1.614-3.704-.997.146Z"/><path fill="#F7C3AB" d="M24.752 10.043c-.007-.025-.095-.318-.037-.407.057-.088.18-.08.18-.08s.04-.13.135-.182c.094-.051.227-.019.227-.019l.08-.064c.117-.093.203-.052.203-.052s.106.072.216.06c.11-.012.276.283.365.422.095.147.213.323.087.553a6.454 6.454 0 0 1-.446.671l-.903.17s-.133-.1-.176-.424a1.61 1.61 0 0 1 .069-.648Z"/><path fill="#F1956B" d="M24.895 9.556a.862.862 0 0 1 .075.165 15.532 15.532 0 0 1 .175.466c.002.007.003.006.006.02 0 .008 0 .016-.004.023a.073.073 0 0 1-.024.031c-.04.028-.08.034-.117.04a.156.156 0 0 1-.111-.025.274.274 0 0 1-.069-.067.481.481 0 0 1-.063-.118c-.01-.03-.014-.047-.011-.048.006-.003.028.064.096.15.033.04.087.086.152.074a.246.246 0 0 0 .1-.035.04.04 0 0 0 .013-.015c.002-.006.002-.003-.003-.017l-.022-.059c-.058-.16-.109-.305-.144-.41a.87.87 0 0 1-.049-.175Z"/><path fill="#F1956B" d="M25.258 9.355c.005 0 .02.055.043.146.022.09.05.217.078.358v-.004l.005.016a.416.416 0 0 1 .022.213.177.177 0 0 1-.116.134.223.223 0 0 1-.119.004c-.027-.007-.04-.015-.04-.017.002-.002.016 0 .043.002a.234.234 0 0 0 .106-.014.153.153 0 0 0 .091-.116.403.403 0 0 0-.023-.194l-.005-.013v-.003h-.001c-.029-.142-.052-.27-.068-.361a.662.662 0 0 1-.016-.15Z"/><path fill="#F1956B" d="M25.541 9.24a1.3 1.3 0 0 1 .002.226l-.001-.006c.047.112.107.264.172.432l.041.108.003.007-.003.007a.34.34 0 0 1-.074.101.177.177 0 0 1-.108.05.125.125 0 0 1-.1-.04.27.27 0 0 1-.05-.072.5.5 0 0 1-.041-.116c-.006-.028-.007-.044-.005-.045.006-.001.019.06.067.149.024.04.065.098.127.09.061-.004.117-.065.15-.132v.015l-.043-.108a20.215 20.215 0 0 1-.163-.435l-.001-.004v-.002a1.28 1.28 0 0 1 .027-.226Z"/><path fill="#A48B3B" d="m23.855 11.442-.324-.072s-.34-.474-.453-1.141c-.105-.62-.101-1.426-.101-1.426l3.37-1.815.286 1.637-2.778 2.817Z"/><path fill="#fff" d="m26.815 9.402.013-2.203-.267-.119-3.468 1.89s-.112 1.427.5 2.328l.217.05 3.005-1.946Z"/><path fill="#A48B3B" d="m23.855 11.442 3.082-1.982s-.053-1.937.21-2.286l-3.691 2.129c-.001 0-.347.59.399 2.14Zm2.78-4.302a.853.853 0 0 1-.129.082l-.361.207a119.157 119.157 0 0 1-2.408 1.325l-.368.194a.986.986 0 0 1-.139.066.993.993 0 0 1 .13-.081l.361-.207A132.292 132.292 0 0 1 26.13 7.4l.368-.194a1.23 1.23 0 0 1 .138-.066Zm.151.07a1.42 1.42 0 0 1-.13.08l-.36.208a119.13 119.13 0 0 1-2.408 1.325c-.15.08-.275.145-.369.194a.985.985 0 0 1-.138.066.996.996 0 0 1 .13-.081l.36-.207a132.538 132.538 0 0 1 2.408-1.326c.15-.08.275-.145.369-.194.087-.045.136-.068.138-.066Z"/><path fill="#F7BB9B" d="M25.762 10.945s.444-.648.446-.671c.002-.024-.173-.706-.297-.83a6.938 6.938 0 0 0-.291-.265s-.176.045-.085.308c.09.263.204.53.204.53l-.15.224s-.576.163-.536.715"/><path fill="#E4AE98" d="M25.055 10.956a.347.347 0 0 1-.005-.07.408.408 0 0 1 .005-.083c0-.033.012-.07.023-.111a.659.659 0 0 1 .165-.26.906.906 0 0 1 .344-.206l-.009.006.149-.224-.001.016a8.895 8.895 0 0 1-.159-.395c-.024-.07-.055-.14-.07-.22a.284.284 0 0 1 .004-.123.178.178 0 0 1 .117-.124l.009-.003.008.007.158.145.078.07c.025.026.052.044.074.076.043.059.067.121.093.182a5.36 5.36 0 0 1 .182.604l.004.02.001.014-.005.013a.583.583 0 0 1-.021.035l-.082.124a21.2 21.2 0 0 1-.255.367l-.07.098a.169.169 0 0 1-.028.033.2.2 0 0 1 .021-.037l.066-.102.244-.373.08-.124.018-.032.002-.002v-.001h.008c-.01-.002-.007-.003-.007-.003v-.002l-.001-.003-.004-.018-.02-.079a5.968 5.968 0 0 0-.1-.338c-.021-.06-.041-.12-.066-.18-.025-.059-.05-.122-.088-.173-.017-.025-.048-.047-.072-.07a34.687 34.687 0 0 1-.235-.214l.017.003a.135.135 0 0 0-.03.014c-.062.039-.075.12-.062.19.013.072.043.144.068.214.051.139.103.271.155.394l.004.01-.006.007-.15.223-.004.005-.006.001a.9.9 0 0 0-.335.194.65.65 0 0 0-.165.248c-.052.158-.033.258-.041.257Z"/><path fill="#F8DF88" d="M26.198 11.823c.496.733.672 1.684 1.226 2.379.262.328-.013.274.276.525.561.49 1.566 1.333 2.05 1.818.148.148.657-.156.913.25.095.15-.609.488-.674.655-.3.768-.115 1.724-.416 2.492-.807-.707-1.921-1.755-2.622-2.558-.701-.801-1.188-1.552-1.504-2.551a18.426 18.426 0 0 1-.579-2.281l.11-.236-.072-.341 1.153-.47.139.318Z"/><path fill="#A48B3B" d="M38.152 18.025c-.157-.27-.823-.776-1.287-.95-.378-.143-2.397-.38-2.633.224l-.087 4.763c-.135.505-.271 1.014-.29 1.53-.02.517.088 1.048.405 1.467a1.878 1.878 0 0 0 2.606.363c.504-.39.709-1.008.844-1.594.259-1.115.363-2.25.467-3.382.052-.564.104-1.13.11-1.695.001-.249-.008-.508-.135-.726Z"/><path fill="#CEB575" d="m37.536 33.306 1.947-.314s.972 1.874 1.337 1.851l-.472-3.797-3.053.364.24 1.896Z"/><path fill="#E0E0E0" d="M39.179 31.838a.156.156 0 0 1 .163-.13.15.15 0 0 1 .13.162c-.01.075-.1.152-.174.135-.075-.016-.144-.11-.116-.182"/><path fill="#A48B3B" d="m40.343 31.047-.306.05.567 3.621s.095.16.211.126l-.472-3.797Z"/><path fill="#fff" d="M39.478 33.057c.02-.003.016-.096.064-.195.046-.1.12-.157.11-.173-.005-.016-.112.025-.169.146-.057.119-.021.228-.005.222Zm.202.377c.018.002.04-.082.11-.155.069-.075.151-.102.148-.12.001-.018-.109-.017-.195.075-.087.092-.081.202-.063.2Zm.502.168c.002-.018-.094-.032-.19.028s-.125.152-.109.158c.017.008.064-.055.143-.103.079-.05.156-.065.156-.083Zm-1.162-.524c.016-.01-.02-.091-.027-.197-.008-.105.017-.192 0-.2-.014-.008-.073.08-.064.204.008.125.077.204.09.193Z"/><path fill="#CEB575" d="m34.51 33.842 1.947-.313s.972 1.874 1.338 1.85l-.472-3.796-3.053.363.24 1.896Z"/><path fill="#E0E0E0" d="M36.147 32.375a.157.157 0 0 1 .163-.13.15.15 0 0 1 .13.162c-.01.076-.1.152-.174.136-.075-.017-.144-.111-.116-.183"/><path fill="#A48B3B" d="m37.328 31.583-.306.049.567 3.622s.094.16.21.126l-.471-3.797Z"/><path fill="#fff" d="M36.445 33.593c.019-.003.016-.097.064-.195.046-.1.12-.157.11-.173-.005-.017-.112.025-.169.145-.057.12-.021.23-.005.223Zm.219.378c.019.002.04-.082.11-.155.07-.075.152-.101.149-.12 0-.017-.11-.017-.196.076-.086.09-.08.2-.063.2Zm.5.166c.002-.017-.093-.031-.19.029-.095.06-.125.152-.108.158.016.008.064-.055.143-.103.078-.05.156-.065.155-.084Zm-1.162-.521c.016-.01-.02-.092-.026-.198-.008-.105.017-.191 0-.199-.015-.009-.073.08-.065.204.008.124.078.203.091.193Z"/><path fill="#FBEAB9" d="M29.445 25.544s-1.224 3.501-1.413 4.203c-.189.701-.707 2.546-.164 3.372.542.825 1.708.73 2.223.548.516-.183 4.401-2.463 4.401-2.463l-.06-1.283-3.433.478.738-3.34.11-1.93-2.402.415Z"/><path fill="#FBEAB9" d="m31.094 27.545.278.323s-.803 3.521-.767 4.272c.029.619-.01 1.564 1.057 1.98a2.29 2.29 0 0 0 1.282.098l1.503-.197 4.28-.669-.227-2.256-4.573.096.819-2.314s.463-1.095.587-1.873c.125-.778.354-1.54.298-1.559-.21-.07-.621-.816-.621-.816l-3.754-.061-.325 2.093.163.883Z"/><path fill="#CEB575" d="M34.747 28.877a.869.869 0 0 1-.039.14l-.12.373a98.89 98.89 0 0 1-.412 1.226l-.231.673a6.27 6.27 0 0 1-.393.893.76.76 0 0 1-.075.123.895.895 0 0 1 .059-.131 7.226 7.226 0 0 0 .368-.898c.067-.208.146-.436.227-.675.164-.477.315-.91.426-1.221l.134-.369a.867.867 0 0 1 .056-.134Zm-4.13 3.462a.79.79 0 0 1-.112.17 4.007 4.007 0 0 1-.687.703.753.753 0 0 1-.168.116c-.009-.01.233-.205.5-.479.267-.272.456-.519.467-.51Z"/><path fill="#CEB575" d="M31.043 33.713a.3.3 0 0 1-.05-.04.832.832 0 0 1-.116-.137 1.693 1.693 0 0 1-.227-.62c-.013-.07-.02-.142-.03-.218a2.401 2.401 0 0 1-.024-.237c-.005-.082-.012-.167-.01-.254 0-.088-.003-.178.003-.27a8.75 8.75 0 0 1 .145-1.193c.155-.837.343-1.584.465-2.128l.145-.643.04-.175c.01-.04.017-.06.018-.06a.301.301 0 0 1-.008.062l-.032.176a26.1 26.1 0 0 1-.13.647c-.114.546-.297 1.294-.452 2.13a9.13 9.13 0 0 0-.148 1.186c-.006.091-.005.18-.006.268-.002.087.004.17.008.252.003.082.012.16.022.235.009.075.016.148.027.216.045.274.13.485.21.617.082.13.154.182.15.186Zm7.457-2.617a.172.172 0 0 1-.045.005c-.036 0-.08.003-.133.004l-.484.013-1.6.048c-.625.02-1.191.032-1.601.034-.205 0-.37 0-.486-.002l-.132-.003a.16.16 0 0 1-.045-.005c0-.002.016-.003.045-.005.036 0 .08-.003.132-.005l.485-.012 1.6-.048a64.11 64.11 0 0 1 1.601-.034c.205-.001.37 0 .485.002.053 0 .097.002.133.003.03.002.045.003.045.005Zm-7.266-4.728c.013 0 .02.28.066.62.045.342.114.613.1.617a.635.635 0 0 1-.06-.174 3.593 3.593 0 0 1-.118-.88c0-.113.005-.183.012-.183Z"/><path fill="#F8DF88" d="M35.439 14.758c-.222-.308-.6-.476-.978-.511-.378-.035-.757.048-1.118.163A6.695 6.695 0 0 0 30.707 16c-.136.134-.273.283-.311.47-.039.187.063.415.251.446l2.362.826c.422-.044.848-.09 1.252-.218.405-.128.792-.348 1.05-.684.253-.331.365-.755.37-1.171.005-.32-.055-.652-.242-.911Z"/><path fill="#F8DF88" d="M31.147 16.517c-.067.024-1.542.415-1.69.67-.146.255-.433 5.053-.396 5.361.019.154.098.503.171.813.085.355-.007.545-.194.868-.21.362-.36.507-.32.936.017.172.232.593.282.777l-.15.487s1.453.024 3.803.1c2.35.075 2.861.163 2.861.163l.006-.533s.302-.661.419-1.52c.078-.571-.777-2.377-.777-2.377l.753-4.287.074-.663s-.388-.507-1.126-.74c-.738-.234-3.716-.055-3.716-.055Z"/><path fill="#040000" d="M32.27 21.027c.163.359.368.755.745.869.178.053.368.034.552.054.319.035.61.184.903.312a7.47 7.47 0 0 0 1.472.47c.286.06.584.103.867.036.285-.067.554-.265.63-.547l-5.17-1.194Z" opacity=".3"/><path fill="#DBBF64" d="M36.102 17.473c-.012.01-.19-.27-.511-.508-.319-.243-.636-.337-.63-.351a.705.705 0 0 1 .206.06 1.955 1.955 0 0 1 .821.617.7.7 0 0 1 .114.181Z"/><path fill="#A48B3B" d="m32.886 20.156 1.525-2.62.663-.895c-.356-.198-.668-.298-1.062-.203-.029.066-.29.326-.59.866a35.06 35.06 0 0 0-1.281 2.6l.08 1.022 3.71 4.27.277-1.07-1.424-1.067s-1.676-1.698-1.656-1.765c.02-.067-.242-1.138-.242-1.138Z"/><path fill="#DBBF64" d="M29.376 18.02c.012.001-.034.609-.104 1.357-.07.748-.137 1.354-.15 1.353-.013-.002.034-.609.104-1.357.07-.749.137-1.354.15-1.353Zm1.824-.12a.782.782 0 0 1-.15-.142 3.475 3.475 0 0 1-.558-.823.8.8 0 0 1-.077-.192c.013-.006.147.278.365.598.216.32.432.55.42.559Zm2.854-1.55a.533.533 0 0 1-.069.092 2.902 2.902 0 0 1-.213.227 6.094 6.094 0 0 1-.8.645 6.081 6.081 0 0 1-.892.51c-.12.055-.22.092-.29.116a.54.54 0 0 1-.11.03c0-.003.037-.02.105-.047.067-.029.165-.07.281-.129.236-.114.55-.294.88-.518.33-.226.612-.453.804-.63.096-.088.171-.163.222-.216a.495.495 0 0 1 .082-.08Zm-3.698 6.48a.277.277 0 0 1-.001.076 1.579 1.579 0 0 1-.031.204 2.216 2.216 0 0 1-.671 1.166c-.065.059-.12.103-.161.13a.247.247 0 0 1-.065.039c-.005-.006.08-.071.204-.192.122-.12.277-.303.409-.53a2.6 2.6 0 0 0 .253-.62c.042-.167.055-.274.063-.273Zm3.579 1.649a1.082 1.082 0 0 1-.169-.166 2.06 2.06 0 0 1-.333-.467c-.1-.204-.13-.415-.111-.562a.675.675 0 0 1 .04-.171c.015-.039.027-.058.03-.057.007.003-.03.087-.038.23-.01.143.023.343.12.54.098.197.225.354.316.466.092.112.15.182.145.187Zm1.086 1.576c0 .002-.02.001-.059-.002l-.167-.014-.614-.053a41.51 41.51 0 0 0-2.03-.118 41.124 41.124 0 0 0-2.033-.014l-.616.013-.168.003a.28.28 0 0 1-.059-.002.25.25 0 0 1 .059-.007l.167-.012a31.449 31.449 0 0 1 5.296.173l.166.023a.241.241 0 0 1 .058.01Zm-2.114-3.364c-.003.007-.132-.03-.344-.076a5.91 5.91 0 0 0-.837-.12 5.938 5.938 0 0 0-.846.005c-.216.017-.35.036-.35.028a.42.42 0 0 1 .091-.022c.06-.012.147-.026.256-.038a4.803 4.803 0 0 1 1.694.116c.105.027.19.052.248.072.057.02.088.032.088.035Z"/><path fill="#F8DF88" d="M35.99 17.312s1.533 1.878 1.765 2.307c.232.429.68 1.441.56 1.887-.121.446-.434.857-.885.988-.452.13-1.951-.238-1.951-.238s.142-1.48.192-1.417c.05.063.395-.107.395-.107l-.837-.804-.064-1.353.825-1.263Z"/><path fill="#DBBF64" d="M37.462 20.748c-.004.015-.324-.1-.734-.09-.41.005-.726.132-.73.117a.725.725 0 0 1 .204-.083 1.968 1.968 0 0 1 1.053-.02.72.72 0 0 1 .207.076Zm-1.579-2.443c.003 0 0 .032-.006.088a19.397 19.397 0 0 1-.394 2.033.327.327 0 0 1-.028.084.36.36 0 0 1 .01-.088l.045-.236.154-.78.149-.779.047-.236a.304.304 0 0 1 .023-.086Z"/><path fill="#040000" d="M34.479 16.185c-.048-.042-.12-.045-.18-.023a.45.45 0 0 0-.157.106c-.588.57-1.038 1.044-1.932 1.474.656-.195 1.628-.608 2.19-1.201a.482.482 0 0 0 .116-.167c.022-.065.014-.144-.037-.19Z" opacity=".3"/><path fill="#F7C3AB" d="M33.635 20.463s-.128-.644-.182-.734c-.054-.089-1.008-.246-1.008-.246s-.517.016-.507.23c.01.216.114.254.114.254s-.17.112-.146.24c.024.128.072.152.072.152s-.127.058-.093.186a.517.517 0 0 0 .148.226s-.06.097.037.197c.097.099.287.133.287.133s.417.498.593.516c.176.018.739 0 .739 0l1.794.58.154-1.266-2.002-.468Z"/><path fill="#E4AE98" d="M32.53 19.953c0 .013-.112.027-.25.031-.139.005-.251-.001-.252-.014 0-.013.111-.027.25-.032.138-.004.25.002.251.015Zm-.12.413c.001.013-.091.026-.205.028-.115.003-.207-.005-.208-.018 0-.013.092-.025.206-.028.114-.003.207.005.208.018Zm.024.348c.002.013-.085.033-.192.045-.108.012-.197.011-.198-.001-.001-.013.085-.033.193-.045.107-.012.196-.012.197 0Zm.07-.118c-.006.002-.018-.01-.023-.038a.138.138 0 0 1 .023-.101.147.147 0 0 1 .083-.062c.026-.006.042-.001.043.005.002.012-.053.028-.088.083-.037.052-.027.108-.038.113Zm.236-.332c-.006.002-.017-.009-.022-.031a.119.119 0 0 1 .018-.087.127.127 0 0 1 .068-.054c.022-.006.037-.002.038.004.002.013-.04.03-.067.075-.03.044-.024.088-.036.093Zm.183-.444c-.012.004-.028-.046.004-.093s.082-.052.085-.04c.004.012-.025.033-.047.066-.023.032-.029.066-.042.067Zm.687 1.041c-.013-.001-.02-.088-.016-.194.004-.107.017-.193.03-.193.013 0 .02.086.016.194-.004.108-.018.195-.03.193Z"/><path fill="#040000" d="M34.042 14.758c-.053-.028-.117-.022-.177-.013-.163.025-.322.07-.473.133-.08.034-.162.078-.2.155a.39.39 0 0 0-.024.176l.022 1.124.107-.121c.3-.305.554-.655.76-1.03a.567.567 0 0 0 .08-.222c.007-.08-.025-.166-.095-.202Z" opacity=".3"/><path fill="#DBBF64" d="M33.161 15.019c0-.002.012-.014.038-.036.027-.02.066-.052.121-.085.109-.068.285-.14.514-.173.056-.008.118-.018.184-.006.066.01.134.061.151.136.03.15-.062.286-.138.41a7.33 7.33 0 0 1-1.848 2.046 6.41 6.41 0 0 1-.446.308l-.126.076a.202.202 0 0 1-.046.024.23.23 0 0 1 .04-.032c.033-.021.073-.049.122-.083a7.834 7.834 0 0 0 2.267-2.361c.04-.064.081-.125.108-.189a.325.325 0 0 0 .03-.19.149.149 0 0 0-.121-.11.512.512 0 0 0-.173.004 1.39 1.39 0 0 0-.509.156c-.11.062-.165.108-.168.105Z"/><path fill="#F7C3AB" d="m31.636 11.675-.088.008A1.71 1.71 0 0 0 29.99 13.4c.006.829.007 1.579.052 2.02.092.912 1.029 1.008 1.029 1.008.002 0 .021.372.034.64l.355.747c.63-.458 1.331-1.035 1.732-1.481l-.039-2.934c-.002-.956-.56-1.752-1.516-1.723Z"/><path fill="#E4AE98" d="M31.074 16.426s.58-.017 1.159-.457c0 0-.225.712-1.145.71l-.014-.253Z"/><path fill="#352B24" d="M30.367 14.204a.178.178 0 0 0 .187.163.17.17 0 0 0 .169-.176.178.178 0 0 0-.187-.164.17.17 0 0 0-.169.177Zm-.152-.418c.017.016.11-.066.25-.078.14-.014.25.049.263.03.007-.008-.012-.037-.06-.066a.358.358 0 0 0-.41.039c-.04.036-.052.068-.043.075Zm1.39-.091c.018.016.11-.066.25-.078.14-.014.25.049.264.03.007-.008-.013-.037-.06-.066a.36.36 0 0 0-.41.039c-.04.037-.052.069-.044.075Zm-.415 1.125c0-.008-.088-.016-.231-.02-.036-.001-.07-.005-.08-.03-.01-.025.002-.065.015-.108l.082-.283c.113-.401.191-.73.175-.735-.016-.005-.12.318-.233.72l-.078.283c-.01.042-.029.09-.006.142a.09.09 0 0 0 .064.047.218.218 0 0 0 .061.003c.143-.004.232-.011.232-.019Zm.32-1.559c.022.035.155-.015.321-.033.165-.022.306-.005.32-.043.005-.019-.025-.048-.087-.072a.538.538 0 0 0-.25-.027.536.536 0 0 0-.238.085c-.053.038-.076.074-.066.09Zm-1.334.112c.032.03.144-.012.282-.024.137-.015.256.003.28-.032.01-.017-.01-.048-.064-.074a.447.447 0 0 0-.232-.036.432.432 0 0 0-.22.081c-.046.036-.06.07-.046.085Z"/><path fill="#F7C3AB" d="M33.138 14.082c.015-.008.611-.241.646.385.035.627-.6.533-.603.515-.002-.018-.043-.9-.043-.9Z"/><path fill="#E4AE98" d="M33.356 14.734c.003-.002.012.007.03.015a.11.11 0 0 0 .082-.003c.065-.028.115-.137.111-.25a.36.36 0 0 0-.04-.154c-.021-.045-.053-.075-.086-.08a.055.055 0 0 0-.063.034c-.007.018-.002.03-.005.032-.002.002-.015-.01-.01-.036a.068.068 0 0 1 .022-.04.085.085 0 0 1 .06-.02c.048 0 .094.043.119.09a.371.371 0 0 1 .048.173c.003.127-.055.248-.144.28a.118.118 0 0 1-.101-.011c-.021-.015-.025-.028-.023-.03Z"/><path fill="#352B24" d="M28.685 12.634a.15.15 0 0 1 .065-.09c.07-.048.152-.047.232-.053.198-.014.393-.077.565-.177a.65.65 0 0 1-.176-.108c-.107-.095-.174-.246-.136-.385.007-.025.02-.053.046-.062.04-.015.078.023.108.053.1.098.188.138.327.116a.56.56 0 0 0 .234-.085l.007-.009c.031-.035.06-.07.09-.102.223-.248.416-.422.62-.518.298-.14.807-.22 1.13-.155.325.065.626.307.69.63.17-.161.438-.175.661-.1l.006-.003c.247.072.4.32.486.564l.014.04c.09.125.207.23.345.3.024.012.052.027.056.054.005.027-.017.05-.038.067a.482.482 0 0 1-.191.093c.026.057.055.113.09.166.03.045.066.098.045.148-.017.038-.063.056-.105.053a.312.312 0 0 1-.116-.045l.093.19a.574.574 0 0 1-.265-.002c-.038.234-.051.665-.102.825-.166.013-.208-.003-.29.03-.106.042-.054.232-.198.186-.074-.024-.2-.29-.228-.362a3.583 3.583 0 0 1-.243-1.505 1.148 1.148 0 0 0-.37-.236l.011.01c-.261-.075-.556-.145-.792-.01-.184.104-.283.306-.415.47-.25.312-.543.487-.94.528-.02.278-.004.731-.003.99l-.25-.503v.002c-.02-.03-.036-.059-.052-.088l-.006-.01c-.025-.048-.05-.096-.081-.143l-.002.002c-.133.131-.35-.045-.248-.202a.372.372 0 0 1 .073-.083.257.257 0 0 1-.24.077.197.197 0 0 1-.152-.19.17.17 0 0 1 .093-.142.579.579 0 0 1-.331-.053c-.067-.034-.134-.091-.117-.173Z"/><path fill="#372519" d="M32.204 11.812c-.002.002.04.022.097.078a.66.66 0 0 1 .159.296c.018.07.032.147.037.232.005.084.004.175.002.27 0 .096-.001.198.01.302.007.052.017.105.03.157a.332.332 0 0 0 .075.15.139.139 0 0 0 .132.036.203.203 0 0 0 .112-.072c.055-.073.064-.16.075-.238l-.02.003a.767.767 0 0 0 .123.186c.05.052.117.084.184.087a.175.175 0 0 0 .093-.023.158.158 0 0 0 .075-.15.113.113 0 0 0-.033-.069l-.008.01a.598.598 0 0 0 .29.16.13.13 0 0 0-.021-.008.61.61 0 0 1-.26-.162l-.01.01c.034.03.039.088.015.136a.141.141 0 0 1-.055.06.16.16 0 0 1-.084.018.257.257 0 0 1-.172-.082.757.757 0 0 1-.118-.182l-.015-.029-.004.032a.46.46 0 0 1-.071.228.184.184 0 0 1-.101.065c-.04.01-.084 0-.112-.03a.312.312 0 0 1-.068-.14 1.048 1.048 0 0 1-.03-.155 2.363 2.363 0 0 1-.012-.299c0-.095.002-.186-.005-.272a1.178 1.178 0 0 0-.04-.235.65.65 0 0 0-.167-.298c-.06-.056-.103-.072-.103-.072Zm-2.787 1.058.007.005.024.016a.354.354 0 0 0 .041.023c.016.008.035.018.057.026a.813.813 0 0 0 .397.047c.168-.02.368-.09.541-.236a1.8 1.8 0 0 0 .444-.576c.06-.115.108-.232.161-.34.054-.109.114-.21.189-.291a.631.631 0 0 1 .255-.176.437.437 0 0 1 .267-.007.525.525 0 0 1 .308.232c.047.082.053.136.056.134l-.001-.01a.454.454 0 0 0-.157-.263.536.536 0 0 0-.335-.127.457.457 0 0 0-.144.024.639.639 0 0 0-.264.179 1.236 1.236 0 0 0-.193.295c-.054.109-.102.226-.162.34a1.794 1.794 0 0 1-.436.57c-.17.144-.365.216-.531.237a.82.82 0 0 1-.392-.04c-.088-.034-.13-.065-.132-.062Z"/><path fill="#372519" d="M29.313 12.471a.672.672 0 0 0 .135.064.973.973 0 0 0 .708-.018.72.72 0 0 0 .13-.071c-.002-.004-.05.025-.136.058a1.071 1.071 0 0 1-.698.018c-.087-.028-.137-.055-.14-.05Z"/><path fill="#E4AE98" d="M31.846 15.097c-.012-.018-.026-.035-.05-.042-.029-.008-.06.005-.086.017l-.584.27-.093.038c.06.154.223.285.423.311.2.027.423-.067.483-.22.047-.125-.012-.26-.093-.374Z"/><path fill="#352B24" d="M31.525 15.71c-.004-.01.115-.016.24-.108a.351.351 0 0 0 .14-.197.308.308 0 0 0-.068-.266.395.395 0 0 0-.063-.06l.046.005c-.438.18-.785.308-.794.293-.01-.014.32-.167.757-.35l.025-.01.02.015c.028.02.054.045.076.072.08.097.101.214.074.312a.388.388 0 0 1-.175.22c-.152.093-.281.08-.278.075Z"/><path fill="#040000" d="M29.133 26.434c.302.221.668.35 1.042.378.373.03.748-.006 1.122-.028 1.342-.076 2.708.043 4.048.152l.053-.259-2.561-.143-3.704-.1Zm.819-1.264.025.027c.39.237.866.277 1.322.31.368.028.739.055 1.104.008.366-.047.73-.175 1.005-.421a8.135 8.135 0 0 1-3.456.076Z" opacity=".3"/><path fill="#F7BB9B" d="M24.808 14.912s-.481 3.605-.95 4.57c-.242.495-2.402 3.272-2.402 3.272l-1.184-1.684 2.264-2.464 1.284-3.758.988.064Z"/><path fill="#F7BB9B" d="M24.773 13.93c.005-.026.067-.32.004-.402-.063-.082-.183-.064-.183-.064s-.05-.125-.146-.167c-.097-.042-.225 0-.225 0l-.083-.057c-.123-.081-.204-.034-.204-.034s-.097.078-.206.076c-.109-.003-.247.298-.324.442-.082.152-.183.334-.041.548.19.288.49.622.49.622l.9.095s.121-.109.137-.43a1.595 1.595 0 0 0-.119-.63Z"/><path fill="#F1956B" d="M24.592 13.464a.824.824 0 0 0-.06.168 14.9 14.9 0 0 0-.118.41l-.016.06c-.002.007-.003.006-.004.019 0 .009.001.016.005.023a.07.07 0 0 0 .027.028c.04.024.08.027.117.03.04.003.08-.012.107-.034a.269.269 0 0 0 .062-.07.493.493 0 0 0 .052-.122c.009-.03.01-.047.008-.047-.006-.002-.023.066-.082.154-.03.042-.078.092-.144.085a.236.236 0 0 1-.1-.026.035.035 0 0 1-.013-.014c-.003-.007-.003-.004.001-.017l.017-.06c.044-.16.082-.307.107-.413a.826.826 0 0 0 .034-.174Z"/><path fill="#F1956B" d="M24.223 13.296a.617.617 0 0 0-.03.146 8.65 8.65 0 0 0-.05.357l.002-.003-.005.015a.41.41 0 0 0-.004.21.178.178 0 0 0 .124.123c.05.012.09.002.116-.006.026-.009.04-.018.038-.02-.001-.002-.015.002-.041.006a.233.233 0 0 1-.106-.005.152.152 0 0 1-.098-.107.395.395 0 0 1 .01-.205l.001-.002v-.001c.017-.14.03-.268.037-.36a.607.607 0 0 0 .006-.148Z"/><path fill="#F1956B" d="M23.935 13.205c-.005.001.002.086.017.223v-.006c-.037.113-.084.267-.134.436-.01.038-.021.074-.032.11l-.002.008.004.006a.331.331 0 0 0 .081.092.17.17 0 0 0 .11.04.124.124 0 0 0 .094-.046.265.265 0 0 0 .044-.075.509.509 0 0 0 .03-.117c.004-.028.004-.044.002-.044-.006-.002-.014.06-.054.15-.02.043-.055.102-.117.1-.06 0-.12-.055-.157-.118l.001.014.033-.11c.05-.169.094-.324.124-.439l.001-.003v-.002a1.302 1.302 0 0 0-.045-.219Z"/><path fill="#F7BB9B" d="M23.855 14.894s-.488-.6-.49-.622c-.004-.023.113-.705.224-.836.112-.13.264-.283.264-.283s.175.03.108.295c-.068.264-.158.534-.158.534l.165.208s.578.113.583.658"/><path fill="#F1956B" d="M24.553 14.848a.356.356 0 0 0 0-.069.395.395 0 0 0-.012-.082c-.004-.032-.019-.067-.032-.107a.65.65 0 0 0-.183-.242.897.897 0 0 0-.354-.174l.01.006-.165-.209.003.016c.042-.125.084-.259.123-.4.018-.07.043-.14.051-.22a.283.283 0 0 0-.013-.122.178.178 0 0 0-.124-.112l-.01-.002-.006.008-.144.154-.07.076c-.023.027-.048.046-.067.079-.037.061-.056.124-.076.186-.02.062-.034.124-.05.183a5.618 5.618 0 0 0-.08.423l-.002.02v.013a.097.097 0 0 0 .006.014l.024.033a14.235 14.235 0 0 0 .447.543.18.18 0 0 0 .029.03.2.2 0 0 0-.024-.035l-.072-.094-.27-.346a59.978 59.978 0 0 1-.087-.116l-.02-.03-.002-.001-.001-.001c-.002 0 .003-.002-.008 0l.007-.002v-.002l.001-.003.002-.018.013-.08a5.59 5.59 0 0 1 .122-.52c.02-.06.04-.123.072-.177.014-.025.043-.05.065-.074a165.99 165.99 0 0 1 .212-.229l-.016.006a.16.16 0 0 1 .03.011c.064.033.083.111.076.182-.007.071-.03.143-.049.213-.039.14-.08.275-.12.399l-.003.009.006.007.166.207.004.004.005.002a.883.883 0 0 1 .344.163.64.64 0 0 1 .182.229c.062.153.052.252.06.25Z"/><path fill="#F7BB9B" d="m17.837 39.176-2.965 2.932 1.034 1.065 3.07-2.276-1.139-1.721Z"/><path fill="#A48B3B" d="m16.064 43.156.148-.113c-.461-.423-.768-.937-.878-1.517l-1.054.553 1.77 3.143c.294-.176.014-2.066.014-2.066Z"/><path fill="#E0E0E0" d="m14.282 42.08.258-.136 1.604 3.07s.017.172-.092.208l-1.77-3.143Z"/><path fill="#7D6733" d="M16.037 43.114c-.016.007-.066-.066-.158-.115-.091-.052-.18-.056-.182-.074-.005-.015.1-.04.212.021.11.061.144.164.128.168Z"/><path fill="#E0E0E0" d="M15.072 42.253a.098.098 0 0 1-.13-.041.09.09 0 0 1 .04-.125.099.099 0 0 1 .13.041.09.09 0 0 1-.04.125Z"/><path fill="#7D6733" d="M16.037 43.084c-.002.002-.022-.017-.052-.056-.028-.038-.076-.097-.09-.189a.273.273 0 0 1 0-.071.168.168 0 0 1 .025-.077c.015-.028.058-.044.091-.034a.127.127 0 0 1 .079.064.36.36 0 0 1-.032.378l-.035-.035a.418.418 0 0 1 .484.015c.013.01.028.022.038.041a.07.07 0 0 1 0 .062.128.128 0 0 1-.077.061.307.307 0 0 1-.164.005c-.1-.023-.161-.078-.204-.109a.301.301 0 0 1-.063-.055.264.264 0 0 1 .074.04c.046.026.109.074.2.09a.271.271 0 0 0 .142-.01c.022-.008.044-.023.052-.041.008-.018 0-.032-.026-.05a.373.373 0 0 0-.427-.01.026.026 0 0 1-.035-.005.024.024 0 0 1 0-.03.322.322 0 0 0 .033-.327c-.021-.046-.076-.061-.097-.028a.217.217 0 0 0-.023.123c.006.08.047.141.07.182.026.041.04.064.037.066Zm.068.363c-.009.007-.073-.073-.186-.119-.112-.048-.214-.038-.216-.049-.004-.01.107-.038.231.015.125.05.18.15.171.153Zm.021.277c-.008.008-.078-.048-.18-.085-.102-.038-.193-.042-.193-.053-.001-.01.095-.023.206.018.11.04.174.113.167.12Z"/><path fill="#F7BB9B" d="m17.042 37.369-4.112.301.067 1.442 3.76.251.285-1.994Z"/><path fill="#A48B3B" d="m13.123 39.199.183.01c-.064-.605.046-1.179.345-1.679l-1.142-.255-.748 3.446c.332.055 1.362-1.522 1.362-1.522Z"/><path fill="#E0E0E0" d="m12.51 37.275.278.062-.824 3.287s-.1.139-.203.096l.748-3.445Z"/><path fill="#7D6733" d="M13.134 39.152c-.016-.004-.005-.09-.041-.185-.034-.096-.097-.155-.087-.17.007-.014.101.034.143.15.042.115 0 .213-.015.205Z"/><path fill="#E0E0E0" d="M12.982 37.904a.094.094 0 0 1-.068-.112.092.092 0 0 1 .11-.068c.05.012.081.062.07.112a.092.092 0 0 1-.112.068Z"/><path fill="#7D6733" d="M13.153 39.129c-.003 0-.004-.026-.002-.074.004-.047.007-.12.058-.197a.28.28 0 0 1 .046-.053.178.178 0 0 1 .068-.042c.03-.01.071.004.09.033a.12.12 0 0 1 .016.096.363.363 0 0 1-.271.26l-.004-.047a.398.398 0 0 1 .349.316.12.12 0 0 1 .001.055.069.069 0 0 1-.04.046.128.128 0 0 1-.097-.004.29.29 0 0 1-.125-.1c-.058-.08-.068-.16-.08-.209a.289.289 0 0 1-.009-.08c.003 0 .014.026.028.076.017.048.032.124.089.192a.259.259 0 0 0 .111.084c.022.008.048.01.066.002.017-.008.02-.024.013-.053a.357.357 0 0 0-.31-.277.024.024 0 0 1-.002-.048.324.324 0 0 0 .239-.222c.014-.048-.017-.093-.054-.082a.219.219 0 0 0-.098.077c-.048.064-.057.134-.066.18-.008.046-.012.071-.016.071Zm-.19.311c-.01 0-.006-.1-.06-.205-.05-.106-.133-.164-.126-.173.003-.01.104.04.161.157.058.116.035.224.025.221Zm-.164.219c-.011 0-.027-.085-.079-.177-.05-.092-.115-.152-.107-.16.005-.009.086.042.14.142.056.1.056.195.046.195Z"/><path fill="#D2B670" d="M20.513 28.468c-.034.06-.198 1.9-.198 1.9s.97 2.996 1.448 4.42c.446 1.328.75 2.972.356 3.724-.393.752-4.17 3.268-4.17 3.268l-1.522-1.341 2.89-3.022-1.225-5.717.565-3.663 1.856.431Z"/><path fill="#D2B670" d="M15.976 27.43s-1.252 1.977-1.328 3.009c-.088 1.183.69 2.516 1.074 3.341.352.758 1.666 3.384 1.666 3.384l-3.033.29s-.18 1.3.194 2.076c0 0 3.848-.084 4.466-.122.618-.038 1.5-.377 1.479-1.502-.021-1.124-1.252-5.071-1.252-5.071l-.005-.672.19-.83.486-3.005-2.243-.89-1.694-.008Z"/><path fill="#040000" d="m20.392 29.605.054-.616-2.587-1.475-2.089-.007-.608 1.533s1.743-.663 2.256-.618c.512.046 2.925 1.626 2.925 1.626l.05-.443Z" opacity=".3"/><path fill="#7D6733" d="m19.605 31.254-.03.035-.093.1-.36.38.002-.009.163.906v-.001l.585 2.234.36 1.379.194.738c.062.253.097.518.094.787a2.15 2.15 0 0 1-.111.702 1.14 1.14 0 0 1-.165.31 1.415 1.415 0 0 1-.244.246 1.752 1.752 0 0 1-.594.303 1.27 1.27 0 0 1-.321.054l-.315.008-2.197.06-1.481.037-.403.007-.105.001-.035-.001.035-.004.105-.005.402-.016 1.481-.051 2.197-.07.313-.008a1.26 1.26 0 0 0 .31-.054c.206-.06.406-.158.58-.296a1.128 1.128 0 0 0 .393-.536c.075-.215.106-.45.108-.687a3.145 3.145 0 0 0-.093-.775l-.192-.738-.357-1.38-.574-2.238-.154-.908v-.005l.003-.004.368-.374.097-.096.034-.031Z"/><path fill="#7D6733" d="M17.405 37.144c.012-.005.12.193.258.434s.252.435.242.442c-.01.007-.143-.177-.282-.42-.14-.241-.229-.45-.218-.456Zm-1.102-7.91c.002-.007.096.014.25.038.154.023.368.043.606.037.237-.007.45-.039.603-.07.152-.031.246-.058.248-.051.002.005-.089.043-.241.083a2.767 2.767 0 0 1-1.221.033 1.021 1.021 0 0 1-.245-.07Zm1.521 1.094c.004-.004.09.064.22.185a6.587 6.587 0 0 1 .907 1.046c.101.145.157.24.152.244-.006.004-.07-.085-.178-.225a10.924 10.924 0 0 0-.904-1.041c-.123-.126-.201-.203-.197-.209Zm1.187 1.14a.445.445 0 0 1 .024-.102l.079-.273c.066-.23.152-.55.234-.906a17.712 17.712 0 0 0 .23-1.198.475.475 0 0 1 .022-.102.47.47 0 0 1-.005.104 10.785 10.785 0 0 1-.543 2.38.446.446 0 0 1-.04.097Z"/><path fill="#A48B3B" d="M12.663 26.648s-.107-3.48.01-4.202c.147-.912 1.404-1.375 2.083-1.524.679-.15 1.849.085 1.849.085s-.16 5.985-.2 6.028a83.85 83.85 0 0 0-.902 1.446s-2.482-.128-2.714-.539c-.233-.41-.126-1.294-.126-1.294Z"/><path fill="#352B24" d="M20.354 16.839c.129.64.027 1.01.329 1.383s.802.574 1.278.511a.581.581 0 0 1-.352.515.583.583 0 0 1-.612-.118c.126.197.273.38.437.546-.03.215-.256.366-.474.36-.216-.008-.413-.143-.546-.315a.799.799 0 0 0 .341.527 1.3 1.3 0 0 1-.886.34 1.302 1.302 0 0 1-.879-.357l1.364-3.392Zm-4.562.766c.285-.441.482-.934.804-1.35.322-.417 1.241-.849 1.776-.801l-.857 3.867c-.14.487.253 1.059-.248 1.2-.204.007-1.358-.075-1.572-.455l.19-.258a.423.423 0 0 1-.415.04c-.176-.08-.29-.245-.397-.402.232-.123.421-.32.53-.553a.75.75 0 0 1-.655.145c-.223-.065-.4-.277-.388-.502.53-.082.947-.491 1.232-.931Z"/><path fill="#352B24" d="M17.167 17.028c.06-.176.028-.369.048-.554.044-.407.359-.744.731-.915.346-.16.777-.142 1.205-.02.293.084.573.238.774.467.268.304.374.743.274 1.136l-2.085-.23c-.189.167-.382.337-.614.435a.428.428 0 0 1-.216.042c-.073-.009-.146-.056-.166-.127-.022-.078.022-.157.049-.234Z"/><path fill="#F7BB9B" d="m19.216 16.11-1.797.447a.339.339 0 0 0-.305.342l.158 3.92c.01.267.11.524.281.73l.18.217c.412.494 1.208.415 1.489-.163a.445.445 0 0 0 .038-.105c.005-.035.013-.059.014-.088l.021-.384c.005-.35-.004-.704-.004-.7 0 0 .738-.12.895-1.081.078-.479.057-1.263.02-1.905-.034-.578-.414-1.288-.99-1.23Z"/><path fill="#352B24" d="M20.04 17.746c-.015.016-.108-.053-.24-.053-.133-.003-.231.065-.246.049-.007-.007.01-.036.052-.067a.34.34 0 0 1 .387.003c.041.032.055.061.048.068Zm-1.268.012c-.015.016-.109-.053-.241-.054-.133-.002-.23.066-.245.05-.007-.008.008-.036.05-.068a.337.337 0 0 1 .389.004c.04.032.055.06.047.068Zm.432.995c0-.008.082-.022.216-.038.034-.004.067-.01.072-.033.008-.025-.005-.061-.022-.1l-.099-.26c-.138-.367-.237-.67-.222-.676.015-.005.139.288.276.657.034.09.065.177.095.26.013.039.035.082.017.133a.085.085 0 0 1-.056.05c-.021.006-.04.006-.057.007-.136.007-.219.007-.22 0Z"/><path fill="#F1956B" d="M19.282 20.324s-.647.04-1.287-.349c0 0 .328.68 1.292.595l-.005-.246Z"/><path fill="#352B24" d="M18.82 17.245c-.013.036-.145.018-.301.037-.157.015-.283.06-.303.027-.01-.015.013-.05.064-.084a.504.504 0 0 1 .224-.077c.094-.01.18.005.236.029.057.023.086.05.08.068Zm1.176-.079c-.024.03-.115-.002-.225-.004-.11-.006-.203.02-.224-.012-.01-.015.005-.045.046-.074a.31.31 0 0 1 .183-.048.31.31 0 0 1 .18.061c.038.03.05.062.04.077Z"/><path fill="#352B24" d="M16.824 16.76c.168-.558.963-1.338 1.544-1.306l.937.544a.897.897 0 0 1-.597.694c-.164.053-.361.07-.457.212-.098.146-.036.355-.127.505-.125.208-.477.203-.57.427-.04.099-.017.215-.06.312-.056.13-.38.298-.515.257-.135-.041-.076.072-.135-.041-.144-.273-.192-.723-.164-.989.03-.276.064-.349.144-.615Z"/><path fill="#352B24" d="M17.379 18.512c0-.071-.082-.24-.153-.252-.189-.03-.53-.017-.534.463-.008.656.652.528.654.51.001-.015.033-.474.033-.72Zm1.731-2.706c.07.264.487.592.672.794.354.384.425.514.452 1.399.15-.312.179-.607.155-.952-.024-.345-.251-.788-.5-1.029-.248-.24-.439-.274-.779-.212Z"/><path fill="#251A13" d="M14.264 18.108c.002-.004.043.017.123.039s.2.04.347.024c.146-.015.318-.066.487-.165.168-.098.329-.246.474-.42.145-.174.268-.353.375-.52l.286-.44.196-.296a.728.728 0 0 1 .077-.105.733.733 0 0 1-.062.115l-.184.303-.277.447a4.966 4.966 0 0 1-.376.526 1.867 1.867 0 0 1-.488.427c-.175.1-.353.15-.505.161a.892.892 0 0 1-.355-.04.58.58 0 0 1-.118-.056Z"/><path fill="#263138" d="M21.797 18.192s-.01.008-.028.018a.882.882 0 0 1-.435.102.974.974 0 0 1-.502-.152.89.89 0 0 1-.23-.215 1.19 1.19 0 0 1-.156-.297c-.08-.216-.109-.432-.14-.625a3.147 3.147 0 0 0-.113-.505c-.091-.282-.233-.41-.225-.416a.67.67 0 0 1 .09.094c.051.066.116.17.166.312.052.14.09.315.124.508s.065.407.142.617c.038.104.089.2.15.285a.857.857 0 0 0 .215.206.959.959 0 0 0 .821.11c.078-.024.118-.047.12-.042Z"/><path fill="#251A13" d="M16.283 16.003c.006-.008.148.107.41.233.26.128.647.258 1.09.28.22.012.431-.005.62-.04.189-.031.355-.084.483-.148.263-.13.348-.305.355-.297.002.001-.003.011-.013.03a.552.552 0 0 1-.054.079.874.874 0 0 1-.273.217c-.13.07-.299.127-.49.162a2.634 2.634 0 0 1-.63.044 2.729 2.729 0 0 1-1.103-.297 2.41 2.41 0 0 1-.296-.182.688.688 0 0 1-.099-.08Zm-.055.645c.004-.007.108.056.288.132a2.556 2.556 0 0 0 1.496.142c.191-.04.305-.084.308-.076a.292.292 0 0 1-.078.037 1.642 1.642 0 0 1-.223.07 2.312 2.312 0 0 1-1.516-.143 1.585 1.585 0 0 1-.206-.112.308.308 0 0 1-.07-.05Zm-.719 1.577c0-.009.15.004.389-.039.238-.04.555-.15.88-.325.323-.176.6-.366.808-.493.103-.064.188-.114.247-.147a.446.446 0 0 1 .095-.046.492.492 0 0 1-.085.061l-.24.16c-.202.133-.476.327-.804.505a2.758 2.758 0 0 1-.896.317 1.63 1.63 0 0 1-.288.018.396.396 0 0 1-.106-.01Zm-.275.319c.001-.015.302.01.664-.052.364-.057.64-.176.646-.163a.654.654 0 0 1-.178.086 2.379 2.379 0 0 1-.46.123c-.184.03-.354.035-.476.03a.654.654 0 0 1-.196-.024Z"/><path fill="#F1956B" d="M18.774 19.416a.82.82 0 0 1 .065-.272c.008-.02.019-.044.043-.05a.09.09 0 0 1 .04.001c.232.046.464.09.696.137-.005.081-.059.16-.103.235a.558.558 0 0 1-.265.216.422.422 0 0 1-.351-.025.28.28 0 0 1-.125-.242Z"/><path fill="#352B24" d="M19.38 19.653c.003.003-.015.023-.06.041a.5.5 0 0 1-.48-.09c-.085-.08-.097-.198-.068-.31a.48.48 0 0 1 .077-.156c.008-.01.017-.026.04-.04a.112.112 0 0 1 .073-.013l.085.016.282.059c.16.035.257.061.254.07-.003.01-.106.001-.27-.021l-.286-.044-.08-.012h-.011a.437.437 0 0 0-.08.153c-.026.094-.012.198.046.254.063.06.15.095.225.109.154.032.247-.028.253-.016Z"/><path fill="#DBC58E" d="M19.634 21.204c.061.058 1.804 2.315 1.672 3.117-.131.802-.216 1.065-.291 1.641-.181 1.393.047 2.143-.016 2.763-.063.62-.377.86-.438.822-.061-.038-1.84-1.26-2.79-1.718-1.722-.826-2.085.87-2.485.824-.4-.045-.466-.223-.466-.223s.576-.06.646-.361c.069-.301.878-3.128.878-3.128l-.419-3.747 1.144-.418 2.02.229.545.2Z"/><path fill="#DBC58E" d="M18.98 21.153s.11-.113.317-.114c.206 0 .834-.154.834-.154l.693-.556c.577.149 1.9 1.47 1.547 1.869l-.91.922-.194.902-1.463-1.777-.824-1.092Z"/><path fill="#F7BB9B" d="M19.295 21s.856.9.717 1.32c-.14.422-.524.246-.876.13-.891-.291-1.86-1.655-1.86-1.655l2.019.205Z"/><path fill="#A48B3B" d="M21.283 24.145s.468-1.012.116-1.92c-.352-.908-1.062-1.75-2.107-1.901l.004.214s1.62 1.248 1.782 2.045c.16.797.127.815.127.815l.078.747Z"/><path fill="#CAB077" d="M20.834 22.296a.461.461 0 0 1 .05.086c.031.057.071.142.116.249a4.02 4.02 0 0 1 .294 1.77 2.88 2.88 0 0 1-.028.271.42.42 0 0 1-.02.099c-.009-.001.009-.143.016-.372a4.678 4.678 0 0 0-.06-.893 4.711 4.711 0 0 0-.232-.864c-.081-.214-.144-.343-.136-.346Zm-3.998 4.265c0-.001.014-.005.04-.009a.91.91 0 0 1 .12-.008c.105 0 .259.02.433.092.175.069.366.192.554.351.189.16.38.35.592.536.42.378.84.674 1.172.841.164.085.304.14.4.178.097.034.152.054.15.057a.153.153 0 0 1-.04-.008c-.027-.007-.066-.017-.116-.032a3.192 3.192 0 0 1-.41-.165c-.336-.161-.764-.457-1.186-.836-.214-.187-.405-.38-.59-.538a2.103 2.103 0 0 0-.538-.354 1.258 1.258 0 0 0-.42-.104c-.103-.005-.16.004-.161 0Zm-3.407-4.296s.013.366.242.771c.15.266 1.174 1.34 1.326 1.258.153-.082-.7-1.893-.7-1.893l-.868-.136Z"/><path fill="#F7BB9B" d="M14.28 22.666c-.058.042-3.07 1.999-3.14 2.602-.044.382.243.818.65 1.096.566.384 1.932 1.252 1.932 1.252l.754-.708s-1.406-1.18-1.574-1.453l2.48-1.47-1.102-1.319Z"/><path fill="#F1956B" d="M12.295 25.103c0-.006.043-.015.114-.009a.632.632 0 0 1 .462.277c.04.06.052.102.047.105-.012.007-.092-.15-.271-.254-.177-.109-.353-.105-.352-.12Z"/><path fill="#DBC58E" d="M16.457 20.999s-.659.125-1.063.323c-.403.198-1.965.942-1.965.942s.529.22.895.688c.366.469.673 1.342.673 1.342l1.246-.67.214-2.625Z"/><path fill="#A48B3B" d="M16.51 20.434s.659-.102.76.54c.1.643-.032 1.798-.17 2.354-.139.556-.908 1.358-.908 1.358l-.033-.841s.44-.806.39-1.869c-.052-1.063-.093-1.288-.268-1.361-.176-.073-.569.57-.569.57l-.196.07c0 .001.237-.858.995-.821Z"/><path fill="#F8DF88" d="m15.584 27.94 1.137-2.846-1.755-1.522-.417.015-1.469 3.1 2.021 1.614.35-.021.133-.34Z"/><path fill="#C6AE61" d="M14.995 28.153a.647.647 0 0 1 .046-.116l.138-.31a55.74 55.74 0 0 0 1.002-2.38.66.66 0 0 1 .052-.114.65.65 0 0 1-.035.12 24.333 24.333 0 0 1-.988 2.387c-.063.13-.115.234-.152.305a.685.685 0 0 1-.063.108Z"/><path fill="#F7BB9B" d="M14.475 26.907s.472-.29.542-.35c.07-.06.505-.037.586-.12.08-.084.258-.031.2.172-.058.204-.353.386-.577.366 0 0 .681.357.685.458.003.1-.037.181-.15.22 0 0 .229.201-.074.37 0 0 .1.17-.192.28 0 0 .07.121-.148.19-.217.067-.43.17-.578.02-.15-.15-.957-.831-.957-.831l-.884-.648.352-1.18 1.195 1.053Z"/><path fill="#F1956B" d="M15.313 27.532c.005-.012.104.027.228.065.123.038.226.063.224.076-.001.012-.11.008-.238-.032s-.22-.098-.214-.109Zm-.163.464c.001-.012.118-.016.26-.008.143.008.259.024.258.037-.001.013-.118.016-.26.008-.143-.007-.258-.024-.258-.037Zm-.058.313c-.001-.013.089-.03.201-.04.112-.008.204-.005.205.008 0 .012-.089.03-.201.039-.112.009-.204.006-.205-.007Zm.008-.9c-.006-.012.038-.046.05-.11.016-.062-.008-.112.002-.12.005-.003.02.005.033.029a.15.15 0 0 1 .01.102.15.15 0 0 1-.053.086c-.022.016-.04.018-.042.013Zm-.137.352c-.008-.01.027-.05.037-.112.013-.06-.005-.111.007-.117.009-.009.054.047.039.126-.015.08-.077.115-.083.103Zm-.123.432c-.006-.011.037-.044.055-.104.02-.059.004-.11.015-.116.005-.003.018.007.028.032a.15.15 0 0 1 0 .099.15.15 0 0 1-.058.08c-.022.013-.038.015-.04.01Z"/><path fill="#C6AE61" d="M15.516 21.275a.681.681 0 0 1 .075-.229c.065-.134.171-.316.357-.461a.328.328 0 0 1 .163-.063.266.266 0 0 1 .159.041.39.39 0 0 1 .16.214.816.816 0 0 1 .039.238c-.009.002-.019-.091-.069-.227a.38.38 0 0 0-.152-.189.227.227 0 0 0-.133-.033.293.293 0 0 0-.14.056 1.114 1.114 0 0 0-.216.222 1.588 1.588 0 0 0-.138.216c-.07.13-.098.217-.105.215Z"/><path fill="#C6AE61" d="M16.195 20.612c.008.011-.12.106-.23.262-.112.155-.16.306-.174.302-.011-.002.019-.165.137-.328.117-.165.262-.247.267-.236Z"/><path fill="#CAB077" d="M15.804 24.343c-.01-.01.142-.185.285-.43.144-.244.222-.462.236-.458.01.003-.05.232-.196.481-.147.25-.317.415-.325.407Z"/><path fill="#fff" d="m16.598 25.074-1.69-1.5-.288.01 1.682 1.5.296-.01ZM30.48 14.166c.025-.01.038-.035.03-.055-.008-.02-.036-.026-.06-.016-.026.011-.04.036-.031.056.008.02.035.026.06.015Zm.134.13c.036-.016.055-.051.043-.079-.012-.028-.05-.038-.087-.023-.036.016-.055.051-.043.08.012.027.05.037.087.022Z"/><path fill="#352B24" d="M31.713 14.11a.178.178 0 0 0 .187.164.17.17 0 0 0 .168-.176.178.178 0 0 0-.186-.164.17.17 0 0 0-.169.176Z"/><path fill="#fff" d="M31.825 14.073c.026-.011.04-.036.03-.056-.008-.02-.035-.026-.06-.015-.026.01-.04.035-.03.055.008.02.035.027.06.016Zm.135.129c.035-.015.055-.05.043-.079-.012-.028-.051-.038-.087-.022-.036.015-.056.05-.044.079.012.027.051.038.087.022Z"/><path fill="#352B24" d="M18.327 18.148a.178.178 0 0 0 .187.164.17.17 0 0 0 .169-.176.178.178 0 0 0-.187-.164.17.17 0 0 0-.169.176Z"/><path fill="#fff" d="M18.433 18.112c.025-.01.039-.035.03-.055-.008-.02-.036-.027-.06-.016-.026.011-.04.036-.031.055.008.02.035.027.06.016Zm.133.129c.036-.015.056-.05.044-.079-.012-.028-.052-.038-.088-.022-.036.015-.055.05-.043.078.012.028.05.039.087.023Z"/><path fill="#352B24" d="M19.673 18.056a.178.178 0 0 0 .187.164.17.17 0 0 0 .168-.176.177.177 0 0 0-.186-.164.17.17 0 0 0-.169.176Z"/><path fill="#fff" d="M19.912 18.148c.036-.016.055-.05.043-.079-.012-.028-.05-.038-.087-.022-.036.015-.055.05-.043.078.012.028.05.038.087.023Zm-.113-.139c.025-.01.039-.035.03-.055-.008-.02-.035-.027-.06-.016-.026.01-.04.036-.031.055.008.02.036.027.06.016Z"/></g><defs><clipPath id="a"><rect width="48" height="48" fill="#fff" rx="24"/></clipPath></defs></svg>