<svg width="48" height="48" fill="none" xmlns="http://www.w3.org/2000/svg"><g clip-path="url(#a)"><rect width="48" height="48" rx="24" fill="#fff"/><g clip-path="url(#b)"><g opacity=".55" fill="#F2BD8D"><path d="M27.524 40.965a.166.166 0 1 1 .013.332.166.166 0 0 1-.013-.332ZM36.753 41.32a.27.27 0 1 0 0-.541.27.27 0 0 0 0 .54ZM37.375 8.74l-.315 1.148.325.067.553-.886-.563-.329ZM32.243 1.64l1.069.525.126-.308-.767-.709-.428.492ZM38.432 1.319l.805-.02.085-.198-.587-.162-.303.38ZM33.163 45.3a.166.166 0 1 0-.013-.333.166.166 0 0 0 .013.332ZM27.265 1.568l1.14.34.074-.324-.874-.571-.34.555ZM32.532 39.448l.978-.68-.207-.26-.992.327.221.613ZM16.804 32.907l1.068.525.127-.308-.767-.709-.428.492ZM38.477 35.3l1.162.26.051-.328-.912-.51-.3.578ZM37.438 27.248l.806-.02.085-.198-.587-.162-.303.38ZM22.214 20.271l.588 1.036.278-.183-.235-1.018-.631.165ZM21.823 28.915l1.17.22.04-.331-.929-.478-.28.589ZM40.769 6.236a.166.166 0 1 0-.013-.332.166.166 0 0 0 .013.332ZM42.45 15.656a.166.166 0 1 1 .013.332.166.166 0 0 1-.012-.332ZM47.397 18.386a.27.27 0 1 1 .021.54.27.27 0 0 1-.021-.54ZM41.987 21.848l.8-.882-.26-.207-.894.541.354.548ZM43.744 12.623l1.162.261.051-.329-.912-.51-.3.579ZM42.86 26.764l.483.824-.238.12-.613-.573.369-.372ZM48.168 43.956a.166.166 0 1 0-.013-.332.166.166 0 0 0 .013.332ZM9.873 24.21l1.35.302.06-.382-1.06-.592-.35.671ZM19.02 23.083a.27.27 0 1 0 0-.54.27.27 0 0 0 0 .54ZM17.028 27.526a.166.166 0 1 0-.013-.332.166.166 0 0 0 .013.332ZM15.575 19.496l.977-.68-.207-.26-.992.327.222.613ZM14.497 39.788a.166.166 0 1 0-.013-.332.166.166 0 0 0 .013.332ZM1.78 28.072a.27.27 0 1 0-.02-.54.27.27 0 0 0 .02.54ZM10.19 39.873l1.161.26.052-.328-.912-.51-.301.578ZM2.762 33.452a.166.166 0 1 0-.013-.332.166.166 0 0 0 .013.332ZM.515 31.982l.978-.68-.208-.26-.992.327.222.613ZM12.615 29.066l1.162.26.051-.328-.912-.51-.3.578ZM6.206 18.343l.806-.019.085-.198-.587-.163-.304.38ZM7.467 2.41a.166.166 0 1 1 .013.333.166.166 0 0 1-.013-.333ZM7.004 8.602l.8-.882-.26-.207-.895.542.355.547ZM7.877 13.517l.483.825-.239.12-.612-.573.368-.372Z"/></g><g opacity=".56" fill="#F4D7BF"><path d="M43.479 46.51c-.039 0-.07-.028-.07-.063v-2.85c0-.035.031-.063.07-.063.039 0 .07.028.07.063v2.85c0 .035-.032.063-.07.063Z"/><path d="M42.37 46.093a.073.073 0 0 1-.049-.019.06.06 0 0 1 0-.09l2.217-2.015a.075.075 0 0 1 .099 0 .06.06 0 0 1 0 .09l-2.217 2.015a.073.073 0 0 1-.05.019Z"/><path d="M45.047 45.085h-3.135c-.04 0-.07-.028-.07-.063s.03-.064.07-.064h3.135c.038 0 .07.029.07.064s-.032.063-.07.063Z"/><path d="M44.587 46.093a.073.073 0 0 1-.049-.019l-2.217-2.015a.06.06 0 0 1 0-.09.075.075 0 0 1 .099 0l2.217 2.015a.06.06 0 0 1 0 .09.073.073 0 0 1-.05.019Z"/></g><path d="M45.188 21.333c-.024 0-.044-.018-.044-.04v-1.84c0-.022.02-.04.044-.04.025 0 .045.018.045.04v1.84c0 .022-.02.04-.045.04Z" fill="#fff"/><path d="M44.473 21.064a.048.048 0 0 1-.032-.012.038.038 0 0 1 0-.058l1.431-1.3a.048.048 0 0 1 .064 0 .038.038 0 0 1 0 .058l-1.431 1.3a.046.046 0 0 1-.032.012Z" fill="#fff"/><path d="M46.2 20.414h-2.023c-.025 0-.045-.018-.045-.041 0-.023.02-.041.045-.041H46.2c.025 0 .045.018.045.04 0 .023-.02.042-.045.042Z" fill="#fff"/><path d="M45.904 21.064a.048.048 0 0 1-.032-.012l-1.43-1.3a.038.038 0 0 1 0-.058.048.048 0 0 1 .063 0l1.43 1.3a.038.038 0 0 1 0 .058.047.047 0 0 1-.03.012Z" fill="#fff"/><path opacity=".56" d="M42.918 36.283a1.142 1.142 0 1 0 0-2.284 1.142 1.142 0 0 0 0 2.284Z" fill="#EEB995"/><path d="M12.711 6.684c-.05 0-.09-.036-.09-.082V2.924c0-.046.04-.082.09-.082.05 0 .09.036.09.082v3.678c0 .045-.04.082-.09.082Z" fill="#fff"/><path d="M11.28 6.145a.093.093 0 0 1-.063-.024.077.077 0 0 1 0-.115l2.861-2.602a.097.097 0 0 1 .128 0 .077.077 0 0 1 0 .116l-2.862 2.601a.096.096 0 0 1-.064.024Z" fill="#fff"/><path d="M14.735 4.844h-4.047c-.05 0-.09-.036-.09-.081 0-.046.04-.082.09-.082h4.047c.05 0 .09.036.09.082 0 .045-.04.081-.09.081Z" fill="#fff"/><path d="M14.142 6.145a.094.094 0 0 1-.063-.024L11.216 3.52a.077.077 0 0 1 0-.116.097.097 0 0 1 .127 0l2.862 2.602a.077.077 0 0 1 0 .115.096.096 0 0 1-.064.024Z" fill="#fff"/><path d="m4.363 42.644.141.236c.16.264.391.478.668.615l.247.121-.236.142c-.264.16-.478.39-.615.668l-.121.246-.142-.235a1.613 1.613 0 0 0-.668-.615l-.246-.122.235-.141c.265-.16.478-.391.615-.668l.122-.247Z" fill="#F4D7BF" opacity=".56"/><path d="m32.504 3.703.1.166c.113.187.277.338.472.435l.175.086-.167.1a1.142 1.142 0 0 0-.435.473l-.086.174-.1-.167a1.141 1.141 0 0 0-.472-.434l-.175-.087.167-.1c.187-.113.338-.277.435-.472l.086-.174Z" fill="#fff"/><g opacity=".44"><path d="M23.832 26.438h.003-.003ZM23.824 26.438h.007l-.005-.002-.002.002ZM23.815 26.433l-.005.006h.013l-.008-.006ZM23.806 26.432l.001-.002h-.002v.002ZM23.803 26.416l.002.002-.002-.002ZM23.83 26.431l-.002.002.002.001v-.003ZM23.8 26.435v-.007l-.034-.01.03.02.004-.003Z" fill="#F2BD8D"/><path d="M23.8 26.429v.006l.004-.003-.003-.003ZM23.827 26.429h-.004l.003.003.001-.003ZM23.824 26.436h-.002l.001.001.001-.001Z" fill="#F2BD8D"/><path d="m21.02 7.093 1.397 9.718.04-.006 1.358 9.524 1.347-9.525.021.003 1.342-9.561a20.881 20.881 0 0 0-5.505-.153ZM36.447 11.765a20.73 20.73 0 0 0-4.652-2.925l-3.967 8.742.02.01-4.011 8.817 12.61-14.644Z" fill="#F2BD8D" opacity=".87"/><path d="m14.507 23.708 9.235 2.704h-.036l.088.026h.001l.004-.002h.007l-.001-.003.001.002h.002v.001l.002.003.005-.006.007.006h-.012l.006.005.005-.004-.001.003.004-.001.006-.002v.002l.004-.003h.002l-.005.004.037.017-.03-.02 9.288 2.72-.006.02 10.307 3.029a20.799 20.799 0 0 0 .453-5.798H33.517v.017l-9.679.01h-.003l-.003-.002.001-.009.043-.013-.035.023.086-.026h-.042l18.867-5.588a20.652 20.652 0 0 0-2.565-4.992L23.88 26.411h-.034l.014-.015-.025.015v-.001l-.001.002.009-.052-.018.039.002.012-.012.009-.004-.009h-.008l.002-.013-.015-.033.006.043.003.003h-.003v.002l-.02-.013.01.012h-.032L6.569 15.344a20.683 20.683 0 0 0-2.822 5.213l10.761 3.151Zm9.325 2.73h.003-.003Zm-.009 0 .003-.002.005.003h-.008Zm.007-.007v.003l-.002-.001.002-.002Zm-.003-.002-.001.003-.003-.002.004-.001Zm-.003.007-.001.002-.001-.003h.002Zm-.02-.004v-.002h.003l-.002.002Zm-.002-.016.003.002-.003-.001v-.002Zm-.001.013.003.003-.004.003v-.006Zm-.002-.001v.007l-.004.003-.03-.02.034.01Z" fill="#F2BD8D" opacity=".87"/><path d="M17.454 19.092h.002l6.337 7.312-4.02-8.808h.003l-4.196-9.17a20.68 20.68 0 0 0-4.945 2.8l6.82 7.866ZM31.979 31.695l-.006.008-8.117-5.227 6.33 7.302-.016.013 7.531 8.707a20.796 20.796 0 0 0 3.632-4.765l-9.354-6.038Z" fill="#F2BD8D" opacity=".87"/><path d="m23.829 26.46-.002-.002.001.002ZM23.806 26.44l-.001.003-.004-.002.002.007.006-.002-.003-.002.002-.003h.002v-.002h-.01l.006.002ZM23.799 26.45v-.01l-.002-.001-.037.022.039-.012Z" fill="#F2BD8D"/><path d="m23.775 26.48-8.097 5.253-.02-.03-10.241 6.629a20.813 20.813 0 0 0 3.981 4.816l9.295-10.767 5.082-5.901ZM14.514 29.188l9.28-2.75-21.273.023a20.762 20.762 0 0 0 .54 6.108l11.454-3.38-.001-.002ZM23.79 26.512 14.657 46.58a20.574 20.574 0 0 0 6.055 1.689l3.076-21.757Z" fill="#F2BD8D" opacity=".87"/><path d="m23.832 26.443-.003.002.002.003v-.005Z" fill="#F2BD8D"/><path d="m23.84 26.51 3.079 21.575a20.565 20.565 0 0 0 5.853-2.006L23.84 26.51Z" fill="#F2BD8D" opacity=".87"/><path d="m23.806 26.476.01.072.01-.07-.01-.024-.01.022ZM23.828 26.446h-.002l.002.001v-.001Z" fill="#F2BD8D"/></g><path d="M37.358 41.236a.658.658 0 0 1-.342-.34c-.027-.063-.027-.16.04-.174.04-.008.078.023.107.053l.298.296a.626.626 0 0 1 .02-.485c.026-.054.08-.11.135-.09.044.016.057.07.066.116l.071.428c.04-.166.12-.321.234-.448.042-.046.108-.091.16-.058.047.029.045.096.035.15a2.135 2.135 0 0 1-.112.39.737.737 0 0 1 .463-.183c.05-.001.107.005.137.045.047.058.006.144-.043.2-.146.165-.489.208-.709.193" fill="#C77859"/><path d="M38.675 41.588c-.533-.42-1.471-.48-2.089-.197-.697.32-1.154 1.062-1.222 1.773-.065.676.261 1.362.538 1.982l2.695.012c.323-.534.66-1.132.682-1.756.023-.624-.113-1.428-.604-1.814Z" fill="#E59F65"/><path d="m37.467 41.217-.012.004-.036.008-.057.012a1.524 1.524 0 0 0-.534.24c-.177.12-.36.306-.52.54a3.104 3.104 0 0 0-.385.835 2.045 2.045 0 0 0-.045.914c.046.28.129.525.203.727.074.202.141.363.185.476l.05.13.013.033a.046.046 0 0 1 .003.012.05.05 0 0 1-.005-.011l-.015-.033-.055-.128c-.047-.11-.116-.271-.193-.473a3.813 3.813 0 0 1-.21-.73 2.06 2.06 0 0 1 .045-.924 3.12 3.12 0 0 1 .39-.842c.163-.235.348-.422.53-.541a1.488 1.488 0 0 1 .542-.232l.058-.01a.937.937 0 0 0 .048-.007ZM38.251 45.137l.012-.04.04-.114c.036-.099.088-.242.148-.419s.129-.39.188-.63.106-.508.12-.793a2.755 2.755 0 0 0-.083-.796 2.163 2.163 0 0 0-.253-.601c-.099-.158-.2-.272-.275-.344-.036-.038-.07-.062-.089-.08a.331.331 0 0 1-.03-.03l.033.025c.021.018.055.041.093.078.078.07.181.183.284.342.102.157.196.364.26.605.064.24.096.515.085.803a4.015 4.015 0 0 1-.123.797c-.06.241-.13.454-.193.63-.062.178-.117.319-.155.417l-.045.112a.21.21 0 0 1-.017.038ZM37.73 41.233c.002 0-.002.014-.01.04l-.035.111a4.822 4.822 0 0 0-.055.177c-.02.069-.045.147-.068.235a11.478 11.478 0 0 0-.3 1.385c-.04.274-.066.536-.083.776-.005.12-.013.233-.015.34l-.003.154v.142c0 .091.004.173.006.245.002.072.006.134.01.185l.007.117a.248.248 0 0 1 0 .04l-.005-.04-.012-.116a3.016 3.016 0 0 1-.013-.185c-.004-.072-.01-.154-.01-.245l-.002-.143.001-.155c0-.107.008-.22.013-.34a10.1 10.1 0 0 1 .08-.78 10.4 10.4 0 0 1 .307-1.386c.026-.087.051-.165.073-.234.022-.068.042-.127.06-.175l.039-.11a.25.25 0 0 1 .016-.038ZM35.45 43.38a.862.862 0 0 1-.184.097.866.866 0 0 1-.195.075.863.863 0 0 1 .184-.098.87.87 0 0 1 .195-.075ZM35.536 42.605a1 1 0 0 1-.203-.102 1.048 1.048 0 0 1-.19-.125.997.997 0 0 1 .203.102c.108.063.193.119.19.125ZM36.028 41.965a.67.67 0 0 1-.09-.158.648.648 0 0 1-.066-.17.672.672 0 0 1 .09.159c.042.09.072.166.066.17ZM36.703 41.361a.441.441 0 0 1-.098-.11.426.426 0 0 1-.077-.126.443.443 0 0 1 .098.11.439.439 0 0 1 .077.126ZM35.755 44.325a.976.976 0 0 1-.189.116.965.965 0 0 1-.2.095.987.987 0 0 1 .188-.117.98.98 0 0 1 .201-.094Z" fill="#925933"/><path d="M36.56 43.854a.718.718 0 0 1-.171-.082.767.767 0 0 1-.16-.105c.003-.005.08.031.172.083a.768.768 0 0 1 .16.104ZM36.784 42.778a.524.524 0 0 1-.166.088.504.504 0 0 1-.181.047c-.002-.007.077-.033.172-.07.096-.037.172-.071.175-.065ZM37.04 41.967c-.005.003-.043-.054-.07-.132-.027-.078-.033-.145-.026-.147.007 0 .024.063.05.139.027.076.053.136.046.14ZM36.47 44.91a.765.765 0 0 1 .072-.18.77.77 0 0 1 .095-.17.77.77 0 0 1-.072.18.764.764 0 0 1-.096.17ZM37.827 44.621a.551.551 0 0 1-.157-.14.546.546 0 0 1-.115-.178c.006-.004.06.073.134.161.075.087.143.152.138.157ZM38.298 43.436a.967.967 0 0 1-.188.123 1.028 1.028 0 0 1-.2.1.97.97 0 0 1 .187-.122.974.974 0 0 1 .2-.1ZM37.982 42.708a.897.897 0 0 1 .145-.156.908.908 0 0 1 .164-.136.92.92 0 0 1-.146.155.905.905 0 0 1-.163.137ZM37.996 41.934a.656.656 0 0 1-.149-.104.651.651 0 0 1-.132-.124.653.653 0 0 1 .148.104.67.67 0 0 1 .133.124ZM38.894 41.423a.684.684 0 0 1-.148.11.7.7 0 0 1-.16.091.68.68 0 0 1 .147-.111.66.66 0 0 1 .161-.09ZM39.24 42.132a.477.477 0 0 1-.154.023.478.478 0 0 1-.156-.002c0-.007.068-.017.154-.023a.468.468 0 0 1 .155.002ZM39.465 42.97a.773.773 0 0 1-.196-.007.748.748 0 0 1-.194-.031c.001-.008.089-.004.197.006.107.01.194.024.193.031ZM39.353 44.05a1.2 1.2 0 0 1-.18-.164 1.222 1.222 0 0 1-.163-.182c.005-.005.086.068.18.164.096.096.168.177.163.182ZM39.059 44.882a.81.81 0 0 1-.182-.176.818.818 0 0 1-.141-.211c.006-.004.07.088.16.194.09.107.168.188.163.193Z" fill="#925933"/><path d="M38.028 41.29c.004-.006.058.02.146.08.088.062.208.164.326.318.118.154.228.362.297.61.072.246.103.527.1.82a3.513 3.513 0 0 1-.11.816 4.41 4.41 0 0 1-.214.635c-.15.35-.277.548-.291.542-.018-.01.08-.222.207-.575.125-.351.276-.853.282-1.42a3.034 3.034 0 0 0-.086-.788 1.894 1.894 0 0 0-.258-.587 1.943 1.943 0 0 0-.284-.333c-.077-.07-.12-.11-.115-.118ZM37.711 41.193c.018.004-.017.226-.084.583-.065.356-.163.847-.247 1.391-.04.273-.073.533-.097.77-.01.119-.022.232-.028.338-.009.105-.013.204-.017.294-.016.36-.013.585-.032.587-.016 0-.051-.223-.058-.588a5.19 5.19 0 0 1 .002-.298c0-.108.009-.222.016-.343.018-.24.047-.504.089-.779.084-.55.196-1.04.284-1.392.09-.352.155-.567.172-.563ZM37.395 41.165c.003.01-.06.033-.168.083-.108.049-.263.125-.434.248a2.241 2.241 0 0 0-.519.518 2.24 2.24 0 0 0-.412 1.277c0 .151.013.297.033.435.041.276.113.52.177.722.066.203.127.366.167.48.04.112.06.176.051.18-.008.004-.042-.054-.097-.162a5.358 5.358 0 0 1-.206-.468 3.94 3.94 0 0 1-.208-.734 2.815 2.815 0 0 1-.042-.453 2.234 2.234 0 0 1 .442-1.346c.176-.234.38-.406.564-.523.185-.119.35-.185.466-.221.117-.036.184-.044.186-.036Z" fill="#040000" opacity=".3"/><path d="M39.629 45.128h-4.987v.884h4.987v-.884Z" fill="#B77545"/><path d="m35.015 45.836.606 2.642h2.972l.664-2.642h-4.242Z" fill="#B77545"/><path d="M39.627 46.013c0 .01-1.125.017-2.513.017s-2.512-.008-2.512-.017c0-.01 1.125-.017 2.512-.017s2.513.007 2.513.017Z" fill="#925933"/><path d="m19.811 27.685 1.705 2.303 2.33 2.255 1.317-1.871-.023-1.864-.019-1.563s2.071-.318 2.1-2.388c.013-1-.126-3.06-.273-4.923a3.857 3.857 0 0 0-3.84-3.553h-.2c-2.152.123-3.252 2.02-3.07 4.17l-.027 6.91" fill="#F9CBB6"/><path d="M25.125 26.944s-1.308.105-2.697-.77c0 0 .635 1.49 2.7 1.307l-.003-.537Z" fill="#987163"/><path d="M25.348 21.054c.033-.042.272.102.588.07.317-.027.534-.212.571-.176.02.015-.012.088-.106.171a.81.81 0 0 1-.925.085c-.105-.065-.144-.131-.128-.15ZM22.282 21.17c.035-.04.266.115.583.1.317-.01.544-.182.58-.145.018.016-.016.087-.115.166a.811.811 0 0 1-.929.035c-.1-.07-.137-.139-.12-.157ZM24.526 23.06c-.002-.017.196-.051.516-.092.081-.008.158-.024.172-.08.02-.058-.014-.145-.054-.24l-.239-.619c-.332-.88-.572-1.605-.537-1.618.036-.013.334.69.667 1.572l.229.622c.03.092.083.197.042.319a.205.205 0 0 1-.134.118c-.052.016-.098.017-.138.02-.323.016-.523.017-.524-.001Z" fill="#22120E"/><path d="M20.006 21.784c-.035-.016-1.421-.423-1.378.992.043 1.415 1.455 1.08 1.456 1.04.001-.042-.078-2.032-.078-2.032Z" fill="#F9CBB6"/><path d="M19.635 23.292c-.006-.004-.024.018-.065.038a.246.246 0 0 1-.184.01c-.151-.05-.284-.284-.299-.54a.812.812 0 0 1 .058-.354c.04-.105.105-.18.18-.195a.126.126 0 0 1 .147.063c.02.04.012.068.02.07.004.004.03-.025.016-.083a.158.158 0 0 0-.058-.087.187.187 0 0 0-.137-.032c-.11.01-.204.114-.25.227a.835.835 0 0 0-.074.397c.017.285.172.547.378.6.1.023.182-.01.224-.044.043-.036.05-.067.044-.07Z" fill="#987163"/><path d="M23.656 23.837c.008-.027.304.035.674.068.37.035.673.028.675.057.003.025-.304.076-.684.04-.38-.035-.672-.14-.665-.165ZM29.062 18.976l.134-.856c-.852.168-1.67-.65-2.075-1.14a6.767 6.767 0 0 0-.902-.897c-.684-.567-1.237-.944-1.783-1.098-.707-.2-1.851-.187-2.537.075-.686.262-1.258.904-1.277 1.637-.44-.297-1.049-.222-1.513.035-.465.257-.822.667-1.185 1.054-.364.387-.76.77-1.26.947l.627.011-.47.408c.218.331.737.41 1.042.156a1.19 1.19 0 0 1-.314.548c.14.227.5.333.587.308 0 0 .62-.15.59-.395l.609 1.967c.212-.032.372-.03.524.08.206.149.406.36.705.206a.58.58 0 0 0 .292-.398 7.974 7.974 0 0 0-.02-3.39 2.4 2.4 0 0 1 .702-.628c.546-.259 1.166-.522 1.733-.314.44.161.732.568 1.082.88.662.59 1.582.856 2.468.798.092.568.13 1.33.222 1.899l.39-1.144c.294.61 1.063.53 1.063.53l.184-.73c-.502-.021-1.001-.593-1.001-.593s.911.445 1.383.044Z" fill="#22120E"/><path d="m28.949 18.14-.02.016-.06.042a1.747 1.747 0 0 1-.247.139c-.223.1-.575.21-1.018.183-.22-.014-.461-.06-.703-.158a1.975 1.975 0 0 1-.686-.458c-.205-.21-.373-.468-.54-.735-.169-.266-.34-.546-.57-.784a2.556 2.556 0 0 0-2.471-.675 2.723 2.723 0 0 0-.654.276 2.785 2.785 0 0 0-.938.904l-.04.062a.083.083 0 0 1-.015.02s.057-.124.204-.322a2.708 2.708 0 0 1 1.432-.979 2.589 2.589 0 0 1 2.517.68c.236.244.408.527.575.793.167.267.333.522.533.729.2.206.433.357.67.452.236.097.472.145.689.16.436.031.785-.072 1.008-.166.111-.051.196-.094.25-.13l.063-.037.02-.012ZM18.822 19.605c-.004-.01.174-.049.422-.209a1.762 1.762 0 0 0 .704-.915l.023-.07.022.07a2 2 0 0 1 .09.782l-.042-.018a2.967 2.967 0 0 0 .735-1.582c.013-.095.02-.147.023-.146.002 0 .002.013.002.038-.002.026-.002.063-.007.11a2.873 2.873 0 0 1-.717 1.613l-.048.053.006-.071a2.01 2.01 0 0 0-.086-.764h.045a1.7 1.7 0 0 1-.33.581 1.71 1.71 0 0 1-.72.496c-.038.014-.069.02-.09.027a.11.11 0 0 1-.032.005Z" fill="#3D210C"/><path d="M12.393 37.364s.265-6.823 2.47-7.693l.44-.253 1.786 7.784-.364.405-4.332-.243Z" fill="#D19D74"/><path d="M33.973 37.606s-.855-5.21-1.332-6.122a7.26 7.26 0 0 0-.876-1.292 3.94 3.94 0 0 0-2.021-1.274l-4.578-1.214s-2.88 2.596-5.452-.116c0 0-4.083 1.495-4.65 1.98-.566.487.244 3.18.244 3.18l1.053 3.724.206 12.04h14.102L29.593 37.78l4.38-.175Z" fill="#D19D74"/><path d="M28.79 41.272a173.768 173.768 0 0 0-4.018-6.505c-.421-.65-.933-1.355-1.697-1.48-.536-.088-1.085.144-1.493.501-.409.357-.699.828-.97 1.299-1.786 3.106-2.917 6.187-4.113 9.566l.007.25c2.578-1.155 4.551-3.504 5.27-6.236.091-.348.166-.707.348-1.018.181-.31.499-.57.859-.569.565.002.923.589 1.172 1.096.633 1.288 1.313 2.567 2.236 3.665.924 1.098 2.114 2.014 3.497 2.395-.009-1.066-.557-2.044-1.097-2.964Z" fill="#040000" opacity=".3"/><path d="M25.736 42.323a.444.444 0 0 1-.047.06l-.143.169c-.062.073-.14.162-.232.262-.093.1-.196.217-.316.339a18.664 18.664 0 0 1-3.187 2.665c-.379.25-.727.465-1.026.634-.148.088-.285.16-.405.226-.12.066-.224.12-.31.162l-.198.1a.461.461 0 0 1-.07.03l.066-.04.193-.106c.085-.045.188-.101.306-.17.118-.067.254-.142.401-.23a20.802 20.802 0 0 0 2.212-1.508 20.914 20.914 0 0 0 1.994-1.786c.122-.121.227-.235.32-.334.095-.098.174-.185.238-.256l.15-.162a.376.376 0 0 1 .054-.055ZM30.742 29.26a.854.854 0 0 1-.074.125 7.98 7.98 0 0 0-.77 1.503 7.969 7.969 0 0 0-.432 1.633.79.79 0 0 1-.028.143.84.84 0 0 1 .009-.145c.009-.093.027-.227.056-.392a6.935 6.935 0 0 1 .929-2.424c.088-.142.164-.254.22-.329a.813.813 0 0 1 .09-.114ZM16.551 32.948a.82.82 0 0 1-.055-.132 9.94 9.94 0 0 0-.703-1.501 9.888 9.888 0 0 0-.946-1.36.83.83 0 0 1-.086-.114.812.812 0 0 1 .1.1 8.279 8.279 0 0 1 1.525 2.503c.058.153.102.279.128.366a.81.81 0 0 1 .037.138ZM16.456 33.834a.16.16 0 0 1 .004.045v.13c0 .113-.003.276-.008.478l-.047 1.575a43.717 43.717 0 0 0-.01 2.182c0 .03-.001.045-.003.045a.165.165 0 0 1-.007-.044 10.747 10.747 0 0 1-.033-.607 28.16 28.16 0 0 1 .005-1.577c.017-.616.042-1.172.06-1.575l.025-.477.008-.13a.149.149 0 0 1 .006-.045ZM29.431 33.35c.002 0 .005.017.008.05l.014.144c.011.124.025.305.04.528a61.89 61.89 0 0 1 .133 4.168.24.24 0 0 1-.004.05.204.204 0 0 1-.006-.05l-.006-.144-.017-.53a182.64 182.64 0 0 0-.058-1.746c-.026-.682-.055-1.3-.076-1.746l-.024-.53-.005-.144.001-.05Z" fill="#A17354"/><path d="M33.752 37.614s.158 1.75.221 2.819c.098 1.648-.79 4.806-1.559 5.008-.769.202-1.295.182-2.145-.547-.85-.729-2.855-2.733-3.786-4.595l-2.733-5.345 1.518-1.442s3.768 4.618 4.07 4.803c.3.185.307.285.307.285l-.023-.88 4.13-.106ZM12.436 37.366s-.098.808-.164 1.86c-.092 1.455-.244 6.438 1.923 6.58 2.166.141 4.514-3.847 5.081-5.122.567-1.276 2.591-5.588 2.591-5.588l-2.085-.688-3.1 3.577-.079-.379-4.167-.24Z" fill="#F9CBB6"/><path d="M19.782 34.425s.644-.92.788-1.143c.144-.222.288-.55.274-.758-.012-.21.001-.995.001-.995s-.157-.026-.236-.274c-.079-.249-.04-.576-.04-.576s-.104-.366-.052-.693c.053-.327.21-.733.21-.733s.72-1.02.955-1.138c.235-.118.353-.13.589 0 .235.13.353.21.353.21s.38-.328.576-.236c.196.091 1.046.732 1.164 1.033.118.301.118.144.196.563.079.419.053 1.19 0 1.203l-.052.013-.144-.013s.085 1.086.245 1.387c.16.301.66 1.255.66 1.255l-1.519 1.442s-.106-.408-.315-.617c-.21-.21-.641-.364-.694-.699-.052-.335-.013-.06-.013-.06s.092.484-.117.732c-.21.249-.49.244-.743.785l-2.086-.688Z" fill="#F9CBB6"/><path d="M22.687 33.488a.174.174 0 0 1-.007-.048l-.01-.14-.026-.514-.07-1.705.01.019a1.268 1.268 0 0 1-.37-.457l.022.013c-.225.02-.44-.041-.608-.144l.031-.012a.62.62 0 0 1-.47.4l.013-.023a.48.48 0 0 1-.1.489.41.41 0 0 1-.112.084.16.16 0 0 1-.046.017c-.003-.005.065-.024.143-.114a.482.482 0 0 0 .1-.188.428.428 0 0 0-.016-.275l-.008-.02.02-.003a.587.587 0 0 0 .435-.38l.009-.026.023.014a.97.97 0 0 0 .582.133l.016-.001.008.014c.072.15.177.29.312.404l.044.036.01.007v.012l.055 1.704.011.515a14.984 14.984 0 0 1-.001.189Z" fill="#987163"/><path d="M20.98 30.075s-.023-.03-.04-.094a.471.471 0 0 1-.017-.123.302.302 0 0 1 .062-.158.53.53 0 0 1 .159-.141c.067-.04.146-.07.231-.098a8.069 8.069 0 0 1 1.305-.326 1.7 1.7 0 0 1 .413-.017c.144.012.287.06.42.13.135.067.263.15.401.218.07.034.142.066.212.108.07.042.137.1.174.18a.64.64 0 0 1 .044.25l.008.248.016.509.006.168v.02l-.02.004a.462.462 0 0 1-.338-.068.655.655 0 0 1-.231-.245c-.107-.198-.126-.417-.148-.616l.022.02c-.514-.043-.97-.192-1.383-.28-.206-.046-.404-.089-.585-.057-.18.032-.328.126-.456.211-.128.089-.244.167-.338.244-.094.077-.167.15-.22.217-.104.134-.128.226-.133.224 0 0 .004-.023.022-.064s.048-.1.099-.17a1.38 1.38 0 0 1 .218-.224c.094-.08.208-.16.336-.25.128-.088.277-.186.466-.222.19-.035.393.008.6.052.416.087.871.233 1.377.274l.02.001.002.02c.02.199.042.411.143.597.05.091.123.171.213.227.09.056.2.084.303.061l-.019.025a75.232 75.232 0 0 1-.005-.168l-.016-.508-.008-.25a.601.601 0 0 0-.04-.23.383.383 0 0 0-.155-.16c-.065-.04-.137-.072-.208-.107-.14-.07-.268-.154-.4-.22a1.085 1.085 0 0 0-.404-.127 1.69 1.69 0 0 0-.404.014 8.682 8.682 0 0 0-1.302.312 1.205 1.205 0 0 0-.228.092.514.514 0 0 0-.154.133.293.293 0 0 0-.064.147.484.484 0 0 0 .013.12c.014.065.032.096.03.097Z" fill="#987163"/><path d="M21.675 29.038c.013-.002.037.085.018.193-.018.109-.07.183-.08.177-.013-.006.016-.085.032-.185.018-.1.017-.183.03-.185Z" fill="#987163"/><path d="M20.727 29.253a.429.429 0 0 1 .062-.089c.044-.053.104-.136.197-.221.047-.042.101-.084.157-.13.057-.046.115-.098.182-.148.133-.099.297-.196.493-.223a.908.908 0 0 1 .531.102c.15.077.264.18.348.272.084.093.142.177.18.236.037.06.054.094.052.095-.008.006-.087-.129-.257-.307a1.275 1.275 0 0 0-.343-.256.881.881 0 0 0-.504-.095 1.075 1.075 0 0 0-.473.211c-.066.048-.126.098-.184.143-.058.045-.112.085-.16.125-.093.079-.157.158-.205.208a.421.421 0 0 1-.076.077Z" fill="#987163"/><path d="M22.915 28.107c.007.012-.126.102-.274.231-.149.13-.256.248-.267.24-.01-.008.082-.145.235-.277.152-.132.3-.205.306-.194ZM23.357 29.18c-.003.005-.037-.005-.08-.04a.397.397 0 0 1-.132-.396c.014-.054.035-.082.04-.08.014.004-.035.132.017.281.047.15.163.223.155.235ZM24.024 29.272c.01.008-.011.059-.068.092-.057.034-.112.03-.113.016-.002-.013.042-.03.088-.058.047-.027.082-.058.093-.05ZM22.67 30.464c.01.005-.054.113-.192.165-.138.053-.258.015-.252.003.002-.014.113 0 .235-.048.124-.046.197-.13.208-.12ZM23.093 30.896c.01.006-.07.117-.222.166-.153.05-.282.009-.277-.003.002-.015.123.003.262-.043.139-.044.226-.13.237-.12ZM23.149 29.985c-.012.007-.064-.063-.096-.163s-.03-.187-.017-.188c.014-.002.033.078.064.173.03.095.06.171.049.178ZM16.704 37.96a.198.198 0 0 1-.027.04c-.02.025-.046.064-.086.11-.076.092-.197.219-.366.355a3.852 3.852 0 0 1-.64.403c-.252.132-.537.26-.83.406a6.177 6.177 0 0 0-.795.46c-.233.16-.42.333-.558.496-.277.328-.34.598-.353.59a.17.17 0 0 1 .013-.046c.01-.03.022-.076.047-.13.046-.112.13-.267.266-.436.136-.168.325-.347.559-.51.232-.167.506-.322.8-.468.293-.146.579-.272.83-.402.253-.127.47-.26.64-.39.169-.131.292-.253.373-.342.081-.087.124-.139.127-.136ZM33.235 40.93c-.013.006-.054-.256-.303-.58-.242-.326-.71-.664-1.285-.892-.289-.115-.57-.213-.822-.31a7.4 7.4 0 0 1-.66-.284 4.335 4.335 0 0 1-.42-.24c-.049-.03-.085-.056-.11-.074a.175.175 0 0 1-.035-.029c.002-.003.056.03.154.087.098.058.243.137.427.224.183.088.408.18.66.274.253.095.533.191.824.306.582.231 1.055.58 1.295.918.121.166.193.318.23.427.02.053.028.098.037.127.007.03.01.045.008.045Z" fill="#987163"/><path d="M25.269 33.512s-.01-.014-.026-.044l-.071-.13-.268-.499-.192-.36a91.113 91.113 0 0 1-.11-.205 1.184 1.184 0 0 1-.086-.24 8.114 8.114 0 0 1-.171-1.162l-.002-.022.022.002.144.012h-.006l.052-.012-.005.002.002-.002.003-.01a.279.279 0 0 0 .006-.024c.007-.034.011-.07.015-.106a5.603 5.603 0 0 0 .004-.683 2.938 2.938 0 0 0-.065-.477c-.018-.08-.033-.16-.074-.23-.044-.073-.076-.157-.11-.232a.93.93 0 0 0-.15-.203 2.702 2.702 0 0 0-.185-.185 5.777 5.777 0 0 0-.637-.506c-.038-.025-.077-.051-.116-.074-.04-.023-.076-.045-.119-.043a.552.552 0 0 0-.254.085c-.08.045-.158.1-.23.16l-.014.012-.016-.01-.228-.135c-.078-.046-.156-.096-.24-.13a.399.399 0 0 0-.237-.025.843.843 0 0 0-.227.092 1.026 1.026 0 0 0-.182.164c-.056.06-.11.123-.163.187-.21.253-.404.514-.587.77l.003-.005a4.152 4.152 0 0 0-.207.715 1.76 1.76 0 0 0 .049.696v.008a1.68 1.68 0 0 0 .016.483c.017.076.04.15.08.213a.294.294 0 0 0 .161.133l.017.004v.016c-.005.242-.008.474-.008.694 0 .11 0 .217.005.321a.938.938 0 0 1-.06.301c-.067.186-.154.35-.251.488l-.265.38-.37.528-.099.138c-.022.031-.035.046-.035.046l.03-.05.094-.14.362-.534c.148-.235.379-.496.504-.866a.921.921 0 0 0 .056-.29 7.588 7.588 0 0 1-.007-.321c0-.22.002-.453.005-.695l.016.02a.325.325 0 0 1-.189-.15.678.678 0 0 1-.086-.226 1.709 1.709 0 0 1-.018-.496v.008a1.786 1.786 0 0 1-.05-.715c.041-.244.118-.484.207-.725v-.003l.003-.003c.183-.257.376-.518.587-.774.053-.064.108-.127.166-.188.058-.062.115-.124.192-.173a.895.895 0 0 1 .242-.098.45.45 0 0 1 .265.028c.09.035.168.087.247.133l.23.136-.03.002c.076-.063.155-.119.24-.166a.596.596 0 0 1 .278-.09l.039.003c.013.003.026.008.038.012.024.01.045.021.065.033.04.024.08.05.119.076a5.779 5.779 0 0 1 .641.511c.065.061.13.123.188.189.06.065.116.133.156.215.037.08.065.156.108.229.045.077.06.164.079.244.036.161.055.325.063.483a5.42 5.42 0 0 1-.006.689.949.949 0 0 1-.023.138c-.002.006-.003.01-.007.016l-.006.009a.041.041 0 0 1-.015.01l-.052.013h-.006l-.144-.013.02-.02c.038.43.083.822.163 1.157.022.084.046.163.082.234l.107.206.187.362.26.505.066.132c.015.031.02.047.02.047Z" fill="#987163"/><path d="M22.61 34.311c-.004-.003.023-.032.05-.095a.807.807 0 0 0 .066-.28 1.706 1.706 0 0 0-.03-.43l-.003-.015v-.012c0-.002-.002.002 0-.01 0-.004.003-.01.009-.014a.025.025 0 0 1 .018-.003c.008.002.01.004.01.005.004.004.007.01.008.015v.004l.002.008.002.016.011.063c.007.043.014.086.024.125a.536.536 0 0 0 .143.22c.132.13.291.22.422.321a.905.905 0 0 1 .277.343c.056.113.088.21.108.276.02.068.026.106.023.107-.008.002-.046-.148-.16-.367a.9.9 0 0 0-.275-.323c-.129-.097-.29-.185-.43-.322a.582.582 0 0 1-.153-.24 1.265 1.265 0 0 1-.025-.133l-.01-.062-.003-.016v-.008l-.001-.003.001.004.002.002.001.001a.185.185 0 0 0 .015-.013c0-.001-.017.023-.004.02a.023.023 0 0 0 .018-.002.022.022 0 0 0 .01-.012c.002-.011 0-.006 0-.006l.001.003v.008l.003.015c.026.16.035.314.02.439a.748.748 0 0 1-.083.286.319.319 0 0 1-.066.085Z" fill="#987163"/><path d="M41.36 48.512c0 .013-8.174.024-18.255.024-10.085 0-18.258-.01-18.258-.024 0-.013 8.173-.025 18.258-.025 10.08.001 18.256.012 18.256.025Z" fill="#F4D7BF" stroke="#EEB995" stroke-width="3" stroke-miterlimit="10" opacity=".56"/><path d="M23.488 20.024c-.03.097-.383.068-.792.138-.411.062-.737.198-.796.115-.026-.04.027-.133.157-.232.128-.1.336-.197.582-.237.246-.038.474-.01.627.044.155.054.234.126.222.172ZM26.392 19.97c-.058.083-.304.011-.595.021-.291 0-.534.08-.595-.002-.027-.04.008-.121.112-.202a.82.82 0 0 1 .477-.154c.2-.003.377.061.482.138.106.077.144.158.119.199Z" fill="#22120E"/><path d="M21.78 23.018c.035.173.452.265.93.205.48-.06.839-.248.804-.42-.035-.174-.452-.266-.93-.206-.48.06-.84.248-.804.42ZM27.11 22.012c.014.132.027.264.037.41.006.091.01.119.016.242l.002.083c0 .045.003.09.002.134-.641.072-1.134-.038-1.124-.26.009-.212.464-.477 1.067-.609Z" fill="#E8A3A0"/><path d="M18.822 9.546c-.039 0-.07-.029-.07-.064v-2.85c0-.034.031-.063.07-.063.038 0 .07.029.07.064v2.85c0 .034-.032.063-.07.063Z" fill="#F4D7BF"/><path d="M17.71 9.128a.073.073 0 0 1-.05-.018.06.06 0 0 1 0-.09l2.223-2.015a.075.075 0 0 1 .1 0 .059.059 0 0 1 0 .09L17.759 9.11a.074.074 0 0 1-.05.018Z" fill="#F4D7BF"/><path d="M20.393 8.12H17.25c-.04 0-.07-.028-.07-.063s.03-.063.07-.063h3.143c.04 0 .07.028.07.063s-.03.064-.07.064Z" fill="#F4D7BF"/><path d="M19.933 9.128a.073.073 0 0 1-.05-.018L17.66 7.095a.06.06 0 0 1 0-.09.075.075 0 0 1 .1 0l2.223 2.015a.059.059 0 0 1 0 .09.075.075 0 0 1-.05.018Z" fill="#F4D7BF"/></g></g><defs><clipPath id="a"><rect width="48" height="48" rx="24" fill="#fff"/></clipPath><clipPath id="b"><path fill="#fff" d="M0 0h48v48H0z"/></clipPath></defs></svg>