<svg xmlns="http://www.w3.org/2000/svg" width="48" height="48" fill="none"><g clip-path="url(#a)"><rect width="48" height="48" fill="#fff" rx="24"/><g clip-path="url(#b)"><path fill="#F4D7BF" d="M9.103 31.574c4.103 0 7.43-2.83 7.43-6.32s-3.327-6.318-7.43-6.318c-4.104 0-7.431 2.829-7.431 6.319 0 3.49 3.327 6.319 7.43 6.319ZM33.958 45.68c6.452 0 11.683-4.754 11.683-10.62 0-5.864-5.231-10.619-11.683-10.619-6.453 0-11.684 4.755-11.684 10.62 0 5.865 5.231 10.62 11.684 10.62Z" opacity=".35"/><g fill="#EBEBEB" opacity=".5"><path d="M34.376 20.902 15.38 20.72l-5.757-.028-1.566.003c-.175.002-.31.005-.407.005a.9.9 0 0 0-.138.008c0 .003.047.006.138.009l.407.01c.364.004.89.01 1.565.02l5.757.03 18.997.012c7.414 0 14.128.01 18.989.045 2.43.018 4.396.04 5.756.067.68.013 1.207.027 1.565.04.358.015.546.029.546.042 0 .013-.188.025-.547.036-.357.01-.885.018-1.565.025-1.36.012-3.326.015-5.756.007-4.86-.013-11.575-.072-18.988-.149Z"/><path d="M34.228 22.576 15.49 19.442a24630.1 24630.1 0 0 1-5.682-.922l-1.547-.239-.403-.057a.881.881 0 0 0-.138-.014c0 .003.045.014.135.03l.4.074 1.544.263 5.682.926 18.764 2.962c7.325 1.151 13.956 2.203 18.752 2.994 2.397.395 4.337.724 5.676.961.669.119 1.188.215 1.54.284.35.07.534.113.532.126-.003.014-.19-.003-.545-.049-.355-.045-.878-.119-1.55-.218a491.616 491.616 0 0 1-5.689-.887c-4.8-.769-11.423-1.871-18.734-3.1Z"/><path d="M33.82 24.206 15.81 18.16l-5.466-1.805-1.49-.48-.389-.12a.746.746 0 0 0-.134-.035c0 .003.043.02.129.053l.384.135 1.482.503 5.465 1.81L33.855 24.1c7.052 2.29 13.435 4.372 18.046 5.909 2.306.767 4.17 1.397 5.454 1.843.642.222 1.14.399 1.476.523.336.124.51.196.505.209-.004.012-.187-.034-.53-.134-.344-.1-.849-.256-1.497-.46a505.271 505.271 0 0 1-5.477-1.77 2758.146 2758.146 0 0 1-18.013-6.014Z"/><path d="m33.16 25.75-16.833-8.804-5.115-2.642-1.395-.708-.366-.18a.823.823 0 0 0-.127-.056.852.852 0 0 0 .12.07c.084.047.203.11.357.194l1.385.73c1.211.627 2.957 1.53 5.112 2.647l16.913 8.65a2763.015 2763.015 0 0 1 16.891 8.676 507.08 507.08 0 0 1 5.096 2.677c.6.321 1.063.574 1.375.749.313.175.474.273.467.285-.006.012-.179-.062-.502-.216a87.023 87.023 0 0 1-1.406-.69c-1.216-.607-2.97-1.5-5.13-2.611A2785.017 2785.017 0 0 1 33.16 25.75Z"/><path d="m32.267 27.171-15.25-11.326-4.638-3.41a2990.9 2990.9 0 0 0-1.268-.918l-.333-.234a.794.794 0 0 0-.117-.076.832.832 0 0 0 .107.09l.323.247 1.254.937c1.098.81 2.681 1.974 4.636 3.413l15.353 11.188A2746.89 2746.89 0 0 1 47.662 38.29a508.392 508.392 0 0 1 4.614 3.441c.542.411.96.733 1.242.955.28.221.424.344.416.354-.008.011-.167-.09-.463-.292a84.733 84.733 0 0 1-1.28-.9 501.059 501.059 0 0 1-4.66-3.382 2762.5 2762.5 0 0 1-15.264-11.296Z"/><path d="M31.163 28.436 17.86 14.876l-4.052-4.09-1.11-1.104-.292-.284a.877.877 0 0 0-.103-.092.81.81 0 0 0 .091.104l.281.295 1.093 1.12c.96.971 2.341 2.368 4.049 4.093l13.426 13.44A2785.5 2785.5 0 0 1 44.64 41.813c1.706 1.73 3.081 3.138 4.023 4.117.471.49.835.873 1.078 1.136.243.263.366.406.356.415-.01.01-.15-.114-.411-.36-.26-.246-.64-.613-1.125-1.09-.97-.952-2.363-2.34-4.076-4.064a2734.749 2734.749 0 0 1-13.322-13.532Z"/><path d="M29.875 29.514 18.843 14.049l-3.366-4.67-.925-1.263-.244-.326a.82.82 0 0 0-.088-.108.826.826 0 0 0 .074.118l.232.334.905 1.277 3.362 4.673 11.173 15.364c4.365 5.993 8.309 11.426 11.141 15.377a508.571 508.571 0 0 1 3.334 4.692c.39.558.689.992.888 1.29.199.297.298.458.287.466-.01.008-.131-.137-.35-.42-.22-.284-.537-.705-.942-1.251-.81-1.092-1.97-2.68-3.395-4.649-2.85-3.937-6.753-9.4-11.054-15.44Z"/><path d="m28.435 30.378-8.478-17-2.595-5.139c-.308-.601-.55-1.069-.716-1.392l-.19-.36a.866.866 0 0 0-.07-.12.835.835 0 0 0 .055.128l.176.367.694 1.403 2.591 5.14 8.633 16.923a2732.025 2732.025 0 0 1 8.6 16.929 509.795 509.795 0 0 1 2.56 5.156 86.2 86.2 0 0 1 .675 1.413c.15.325.223.498.21.505-.011.006-.108-.156-.28-.47-.172-.314-.42-.78-.735-1.383a502.198 502.198 0 0 1-2.626-5.122 2732.37 2732.37 0 0 1-8.504-16.978Z"/><path d="M26.878 31.005 21.18 12.883 19.427 7.4l-.488-1.487-.132-.386a.778.778 0 0 0-.05-.13.892.892 0 0 0 .033.136l.117.39.464 1.495 1.75 5.484 5.864 18.069c2.294 7.05 4.361 13.438 5.83 18.071.735 2.317 1.32 4.195 1.716 5.495.197.65.347 1.157.444 1.502.097.344.142.527.128.532-.013.004-.082-.17-.203-.508-.12-.338-.292-.837-.508-1.481a490.772 490.772 0 0 1-1.788-5.472 2775.578 2775.578 0 0 1-5.726-18.105Z"/><path d="M25.244 31.38 22.47 12.585l-.87-5.69-.248-1.545-.069-.402a.863.863 0 0 0-.03-.136.887.887 0 0 0 .013.138l.053.404.224 1.55.865 5.69c.755 4.808 1.796 11.44 2.948 18.767a2745.079 2745.079 0 0 1 2.913 18.765c.361 2.403.645 4.35.83 5.696.093.673.161 1.197.203 1.552.042.356.057.544.044.546-.014.002-.055-.182-.121-.534a83.349 83.349 0 0 1-.269-1.542c-.224-1.341-.533-3.284-.904-5.686a2777.277 2777.277 0 0 1-2.807-18.78Z"/><path d="m23.567 31.493.171-18.996.025-5.757-.005-1.565-.006-.407a.9.9 0 0 0-.007-.139.893.893 0 0 0-.01.139l-.008.407-.02 1.565-.027 5.757v18.996c.005 7.415 0 14.129-.033 18.99-.016 2.43-.038 4.396-.063 5.756-.013.68-.027 1.207-.04 1.565-.014.358-.028.546-.041.546-.014 0-.026-.188-.036-.546a90.62 90.62 0 0 1-.026-1.565c-.013-1.36-.017-3.327-.012-5.757.01-4.861.066-11.575.138-18.989Z"/><path d="m21.892 31.346 3.122-18.738.918-5.683.238-1.547.058-.403a.866.866 0 0 0 .013-.138.803.803 0 0 0-.03.135l-.073.4-.262 1.544-.923 5.682-2.95 18.766a2719.381 2719.381 0 0 1-2.982 18.754 502.1 502.1 0 0 1-.957 5.676 85.37 85.37 0 0 1-.283 1.54c-.07.351-.113.535-.126.532-.014-.002.003-.19.048-.544.046-.355.119-.879.218-1.551.198-1.345.5-3.289.882-5.688.767-4.8 1.865-11.424 3.089-18.736Z"/><path d="m20.262 30.939 6.035-18.012 1.801-5.468c.207-.644.367-1.145.479-1.49l.12-.39a.807.807 0 0 0 .035-.133.83.83 0 0 0-.052.128l-.135.384-.502 1.483-1.806 5.466-5.868 18.068a2724.793 2724.793 0 0 1-5.897 18.05 504.233 504.233 0 0 1-1.84 5.454c-.222.643-.398 1.14-.522 1.476-.124.336-.196.51-.208.506-.013-.004.033-.187.133-.53.1-.344.255-.849.458-1.497a491.95 491.95 0 0 1 1.768-5.48c1.512-4.619 3.64-10.987 6-18.015Z"/><path d="m18.719 30.28 8.793-16.838 2.64-5.116.707-1.397.18-.365a.823.823 0 0 0 .056-.127.852.852 0 0 0-.071.119l-.194.358-.729 1.385-2.643 5.114-8.64 16.919a2742.725 2742.725 0 0 1-8.665 16.896 512.684 512.684 0 0 1-2.675 5.098c-.32.6-.572 1.063-.748 1.376-.175.312-.272.473-.284.467-.012-.006.062-.18.216-.503.153-.323.385-.798.688-1.406a511.44 511.44 0 0 1 2.608-5.132c2.22-4.324 5.324-10.277 8.76-16.847Z"/><path d="m17.297 29.388 11.317-15.257 3.406-4.64.917-1.27.235-.332a.793.793 0 0 0 .075-.117.832.832 0 0 0-.089.107l-.247.324-.937 1.254-3.41 4.638-11.177 15.36a2735.195 2735.195 0 0 1-11.2 15.334 509.502 509.502 0 0 1-3.439 4.617c-.41.542-.731.961-.953 1.242-.222.281-.344.425-.355.417-.01-.008.09-.167.292-.463.203-.296.506-.728.9-1.281.79-1.107 1.943-2.7 3.379-4.661a2718.99 2718.99 0 0 1 11.286-15.272Z"/><path d="m16.033 28.285 13.552-13.312 4.087-4.054 1.103-1.11.284-.292a.865.865 0 0 0 .092-.104.812.812 0 0 0-.104.092l-.295.28-1.12 1.094-4.09 4.051-13.43 13.435A2789.139 2789.139 0 0 1 2.662 41.77a512.9 512.9 0 0 1-4.114 4.026c-.49.471-.872.835-1.135 1.078-.263.243-.406.366-.415.357-.01-.01.114-.151.36-.412.246-.26.612-.64 1.088-1.126.952-.97 2.34-2.365 4.062-4.079 3.445-3.43 8.23-8.138 13.524-13.33Z"/><path d="M14.951 26.999 30.41 15.957l4.668-3.369 1.262-.925.325-.245a.862.862 0 0 0 .108-.087.851.851 0 0 0-.118.074l-.334.231-1.277.906-4.67 3.366L15.017 27.09A2769.407 2769.407 0 0 1-.353 38.24a512.046 512.046 0 0 1-4.691 3.338c-.557.39-.992.689-1.29.889-.297.199-.457.298-.465.287-.008-.011.137-.131.42-.35.284-.22.705-.538 1.25-.943 1.092-.811 2.68-1.972 4.648-3.398A2725.42 2725.42 0 0 1 14.95 26.999Z"/><path d="m14.088 25.56 16.995-8.488 5.137-2.598 1.392-.717.36-.19a.872.872 0 0 0 .12-.071.84.84 0 0 0-.128.055l-.367.176-1.403.695-5.139 2.595L14.14 25.66c-6.6 3.38-12.581 6.43-16.924 8.612a502.683 502.683 0 0 1-5.155 2.562 83.64 83.64 0 0 1-1.412.676c-.325.15-.499.223-.505.21-.006-.011.155-.108.47-.28.313-.172.78-.42 1.381-.735 1.205-.63 2.955-1.53 5.121-2.63a2769.496 2769.496 0 0 1 16.973-8.515Z"/><path d="m13.459 24.003 18.118-5.708 5.482-1.758c.642-.21 1.142-.375 1.487-.489l.385-.131a.8.8 0 0 0 .13-.05.856.856 0 0 0-.135.033l-.39.117-1.495.465-5.483 1.753-18.065 5.876a2723.165 2723.165 0 0 1-18.068 5.841 499.242 499.242 0 0 1-5.494 1.72c-.65.197-1.156.348-1.5.445-.345.097-.528.142-.532.129-.004-.013.17-.083.508-.204.336-.121.835-.293 1.48-.51a502.038 502.038 0 0 1 5.471-1.79 2711.9 2711.9 0 0 1 18.1-5.739Z"/><path d="M-12.92 26.364c.351-.067.871-.158 1.541-.27a501.16 501.16 0 0 1 5.685-.908c4.803-.746 11.443-1.737 18.778-2.819l18.791-2.787 5.69-.873 1.546-.25.401-.069a.877.877 0 0 0 .136-.029.887.887 0 0 0-.138.013l-.403.053-1.55.225-5.69.869-18.765 2.959A2733.27 2733.27 0 0 1-5.66 25.403c-2.403.363-4.35.647-5.696.834-.673.093-1.197.161-1.553.204"/><path d="M-13.338 20.607c.357-.01.885-.02 1.565-.027 1.36-.014 3.326-.019 5.756-.015 4.86.008 11.575.059 18.989.126l18.996.16 5.757.02 1.565-.005.407-.007a.884.884 0 0 0 .139-.007.92.92 0 0 0-.139-.01l-.407-.008-1.565-.018-5.757-.024-18.996.011c-7.414.01-14.129.009-18.99-.021-2.43-.015-4.396-.035-5.756-.06a89.127 89.127 0 0 1-1.565-.038"/><path d="m13.115 19.018 18.74 3.11 5.684.914 1.547.238.403.056a.856.856 0 0 0 .139.014.802.802 0 0 0-.136-.03l-.4-.073-1.544-.261-5.683-.919-18.768-2.939a2741.555 2741.555 0 0 1-18.755-2.97 506.36 506.36 0 0 1-5.677-.953 82.675 82.675 0 0 1-1.54-.282c-.351-.07-.534-.112-.532-.126.002-.013.19.004.545.049.355.045.878.118 1.55.216 1.346.198 3.29.498 5.69.88 4.8.762 11.424 1.856 18.737 3.076Z"/><path d="m13.52 17.387 18.016 6.023 5.47 1.798 1.49.478.39.12a.86.86 0 0 0 .134.035.832.832 0 0 0-.13-.052l-.383-.135-1.483-.501-5.467-1.802-18.072-5.857C6.43 15.214.045 13.14-4.569 11.608a507.288 507.288 0 0 1-5.456-1.836 84.225 84.225 0 0 1-1.476-.521c-.337-.124-.51-.195-.507-.208.005-.013.187.033.53.133.345.1.85.255 1.498.458 1.298.406 3.17 1.008 5.48 1.764 4.62 1.508 10.99 3.633 18.02 5.989Z"/><path d="m14.178 15.843 16.845 8.782 5.118 2.636 1.397.707.365.18c.083.04.126.058.128.056a.834.834 0 0 0-.12-.072l-.358-.193-1.386-.728-5.115-2.64-16.924-8.629A2788.371 2788.371 0 0 1-2.774 7.287a510.1 510.1 0 0 1-5.1-2.671c-.6-.32-1.063-.572-1.376-.747-.312-.174-.473-.272-.467-.284.007-.012.18.062.503.215.324.154.798.385 1.407.688 1.217.606 2.97 1.496 5.133 2.605 4.325 2.218 10.28 5.317 16.852 8.75Z"/><path d="m15.07 14.42 15.265 11.307 4.643 3.404 1.269.916.333.234a.856.856 0 0 0 .117.076.87.87 0 0 0-.107-.09l-.324-.247-1.254-.935-4.64-3.407L15.003 14.51c-6-4.354-11.429-8.306-15.341-11.19a504.022 504.022 0 0 1-4.62-3.436c-.542-.41-.96-.73-1.242-.952-.281-.221-.425-.344-.417-.354.008-.011.168.09.463.291.296.202.728.505 1.282.9 1.108.788 2.7 1.94 4.664 3.375C3.718 6.01 9.116 10.002 15.07 14.42Z"/><path d="M16.175 13.153c5.2 5.29 9.908 10.075 13.32 13.544l4.056 4.085 1.112 1.102c.125.123.222.216.292.284a.873.873 0 0 0 .104.093.818.818 0 0 0-.092-.105l-.281-.294-1.094-1.12-4.054-4.087-13.443-13.423C10.845 7.998 6.097 3.25 2.681-.207A498.379 498.379 0 0 1-1.348-4.32c-.472-.49-.835-.872-1.079-1.134-.243-.263-.366-.406-.357-.415.01-.01.151.115.412.36s.64.612 1.127 1.088c.971.95 2.366 2.337 4.081 4.06a2792.28 2792.28 0 0 1 13.339 13.514Z"/><path d="m17.457 12.075 11.051 15.45 3.372 4.666c.4.545.711.97.927 1.262l.244.325c.056.073.086.11.088.108a.826.826 0 0 0-.074-.117l-.232-.335-.906-1.276-3.37-4.668-11.191-15.35A2729.752 2729.752 0 0 1 6.206-3.223a508.26 508.26 0 0 1-3.34-4.689 88.3 88.3 0 0 1-.89-1.288c-.2-.298-.299-.458-.288-.466.011-.008.132.137.351.42.22.283.538.704.944 1.25.811 1.09 1.973 2.677 3.4 4.645a2768.32 2768.32 0 0 1 11.074 15.425Z"/><path d="m18.897 11.209 8.5 16.989 2.6 5.135.718 1.392.191.359c.044.08.068.121.07.12a.831.831 0 0 0-.055-.127l-.176-.367-.696-1.402-2.597-5.138-8.655-16.91a2726.802 2726.802 0 0 1-8.622-16.92 493.205 493.205 0 0 1-2.566-5.152 80.678 80.678 0 0 1-.676-1.412c-.151-.325-.224-.499-.212-.505.012-.006.109.156.281.47.173.313.421.779.737 1.381a508.456 508.456 0 0 1 2.633 5.12 2759.778 2759.778 0 0 1 8.525 16.967Z"/><path d="m20.452 10.58 5.721 18.114 1.761 5.481.49 1.487.132.385c.03.087.048.13.05.13a.875.875 0 0 0-.034-.135l-.117-.39-.466-1.495-1.757-5.482-5.886-18.061A2748.961 2748.961 0 0 1 14.492-7.45a493.033 493.033 0 0 1-1.722-5.493 88.602 88.602 0 0 1-.447-1.5c-.098-.345-.142-.528-.13-.532.014-.004.084.17.205.507.12.337.293.836.51 1.48a504.815 504.815 0 0 1 1.794 5.47 2646.605 2646.605 0 0 1 5.75 18.098Z"/><path d="M22.09 10.203c1.092 7.337 2.081 13.977 2.799 18.79l.876 5.69.25 1.545.07.4c.016.09.026.136.03.136a.856.856 0 0 0-.013-.138l-.054-.403-.226-1.55-.872-5.69-2.972-18.763a2753.487 2753.487 0 0 1-2.937-18.76c-.364-2.403-.65-4.35-.837-5.696A83.307 83.307 0 0 1 18-15.788c-.042-.355-.057-.543-.044-.545.013-.003.055.181.121.533.067.352.158.872.27 1.542.227 1.34.538 3.283.912 5.684.75 4.803 1.744 11.443 2.831 18.777Z"/><path d="m23.765 10.087-.148 18.996-.016 5.757.006 1.565.006.407a.79.79 0 0 0 .009.14.91.91 0 0 0 .008-.14l.01-.407.016-1.565.02-5.757-.023-18.996c-.015-7.415-.017-14.129.01-18.99.012-2.43.032-4.396.055-5.756.012-.68.025-1.207.038-1.565.014-.358.027-.546.04-.546.014 0 .026.188.038.546.01.358.02.886.027 1.565.015 1.36.021 3.327.019 5.757a2872.16 2872.16 0 0 1-.115 18.99Z"/><path d="M25.438 10.232 22.34 28.974l-.91 5.684-.237 1.547-.057.403a.775.775 0 0 0-.013.139.794.794 0 0 0 .03-.136l.073-.4.26-1.544.915-5.683 2.927-18.77c1.136-7.327 2.176-13.96 2.958-18.757.39-2.399.715-4.339.95-5.678.117-.67.212-1.189.28-1.54.07-.351.112-.535.126-.533.014.002-.003.19-.048.545-.044.355-.117.878-.215 1.55-.197 1.346-.495 3.29-.876 5.69-.76 4.801-1.85 11.426-3.065 18.74Z"/><path d="m27.07 10.637-6.012 18.02-1.795 5.47-.476 1.491-.12.39a.873.873 0 0 0-.035.134c.003.001.02-.042.052-.129l.134-.384.5-1.483 1.8-5.468 5.844-18.075a2723.843 2723.843 0 0 1 5.874-18.058c.763-2.307 1.39-4.172 1.833-5.457.221-.643.397-1.14.52-1.476.124-.336.195-.511.208-.507.013.005-.033.187-.133.531-.1.344-.254.849-.456 1.498a493.39 493.39 0 0 1-1.76 5.48c-1.507 4.62-3.627 10.991-5.979 18.023Z"/><path d="m28.614 11.293-8.77 16.85-2.634 5.12-.705 1.398-.18.365a.827.827 0 0 0-.055.127.845.845 0 0 0 .07-.12c.047-.084.111-.204.194-.358l.727-1.386 2.637-5.117 8.618-16.93c3.358-6.61 6.409-12.59 8.643-16.907a503.723 503.723 0 0 1 2.668-5.101c.32-.6.571-1.064.746-1.377.175-.312.272-.473.284-.467.012.006-.062.179-.215.503-.153.323-.384.798-.687 1.407a505.63 505.63 0 0 1-2.601 5.135 2833.1 2833.1 0 0 1-8.74 16.858Z"/><path d="M30.038 12.184 18.74 27.456l-3.4 4.645-.916 1.27-.234.333a.847.847 0 0 0-.076.117.893.893 0 0 0 .09-.107l.246-.324.935-1.255 3.404-4.642 11.158-15.375c4.35-6.004 8.299-11.435 11.18-15.35a510.223 510.223 0 0 1 3.433-4.62c.41-.543.73-.962.952-1.244.221-.28.343-.425.354-.417.011.008-.089.168-.29.463a83.11 83.11 0 0 1-.9 1.282 500.92 500.92 0 0 1-3.371 4.666 2772.465 2772.465 0 0 1-11.267 15.286Z"/><path d="M31.305 13.286 17.77 26.615l-4.083 4.059-1.101 1.112-.284.292a.864.864 0 0 0-.092.104.814.814 0 0 0 .104-.092l.295-.28 1.118-1.096 4.085-4.056 13.414-13.452A2733.658 2733.658 0 0 1 44.658-.216a515.394 515.394 0 0 1 4.11-4.031c.488-.472.87-.837 1.133-1.08.262-.244.405-.367.415-.358.01.01-.115.152-.36.413-.245.26-.611.64-1.087 1.126-.95.972-2.336 2.368-4.057 4.085-3.44 3.434-8.22 8.148-13.507 13.347Z"/><path d="M32.383 14.57 16.939 25.632l-4.664 3.375-1.261.927-.325.245a.967.967 0 0 0-.108.088.851.851 0 0 0 .117-.074l.335-.232 1.275-.908 4.666-3.372L32.317 14.48c5.985-4.377 11.41-8.331 15.356-11.171a511.22 511.22 0 0 1 4.686-3.343c.557-.39.991-.69 1.288-.89.298-.2.458-.299.465-.288.008.01-.136.131-.42.351-.282.22-.703.538-1.248.944-1.09.813-2.676 1.976-4.643 3.404A2746.496 2746.496 0 0 1 32.383 14.57Z"/><path d="m33.251 16.008-16.983 8.51-5.134 2.605-1.39.718-.36.191a.866.866 0 0 0-.12.07.832.832 0 0 0 .127-.054l.367-.177 1.402-.697 5.136-2.6L33.2 15.907a2741.867 2741.867 0 0 1 16.913-8.633c2.17-1.095 3.93-1.972 5.151-2.57.61-.298 1.087-.526 1.411-.677.325-.151.498-.224.505-.212.006.012-.156.108-.47.281-.313.173-.78.422-1.381.738a497.393 497.393 0 0 1-5.118 2.636c-4.33 2.208-10.33 5.22-16.96 8.537Z"/><path d="m33.881 17.564-18.11 5.732-5.48 1.764-1.487.492-.385.132a.86.86 0 0 0-.129.05c0 .003.047-.009.135-.034l.39-.117 1.493-.467c1.3-.418 3.17-1.019 5.481-1.76l18.058-5.9c7.046-2.307 13.43-4.387 18.06-5.864 2.316-.74 4.192-1.329 5.492-1.726.65-.199 1.156-.35 1.5-.448.345-.098.528-.142.532-.13.004.013-.17.084-.508.205a83.86 83.86 0 0 1-1.48.511c-1.288.435-3.156 1.05-5.468 1.798a2705.603 2705.603 0 0 1-18.094 5.762Z"/><path d="M34.257 19.2 15.47 22.012c-2.399.37-4.34.671-5.689.88l-1.545.25-.4.07a.827.827 0 0 0-.137.03c0 .003.047-.001.138-.012l.404-.055 1.549-.226 5.69-.876 18.76-2.983c7.322-1.17 13.953-2.22 18.759-2.95a500.15 500.15 0 0 1 5.695-.84 81.504 81.504 0 0 1 1.552-.207c.355-.042.543-.058.545-.044.002.013-.182.055-.533.122-.352.067-.872.158-1.542.271-1.34.227-3.282.54-5.683.916A2762.02 2762.02 0 0 1 34.257 19.2Z"/></g><path fill="#D44F43" d="M15.426 17.157c.026-.008 1.674-.176 1.674-.176s-.154.7-.767.763c-.612.064-.907-.587-.907-.587Z"/><path fill="#fff" d="M15.757 17.3c.051.026.91-.056 1.026-.102.05-.02.05-.092.063-.19-.327.033-.885.09-1.195.123.029.064.073.153.106.169Z"/><path fill="#E46F60" d="M16.338 17.744a.764.764 0 0 0 .455-.21c-.403-.136-.734.027-.84.152.11.048.238.074.385.058Z"/><g fill="#F4D7BF" opacity=".43"><path d="M28.614 43a.166.166 0 1 1 .012.333.166.166 0 0 1-.012-.332ZM37.842 43.356a.27.27 0 1 0 0-.54.27.27 0 0 0 0 .54ZM38.464 10.776l-.316 1.148.326.067.553-.886-.563-.329ZM33.332 3.676l1.069.525.127-.307-.768-.71-.428.492ZM38.366 20.401l1.162.26.051-.328-.912-.51-.3.578ZM39.52 3.355l.806-.02.086-.198-.588-.162-.303.38ZM34.252 47.335a.166.166 0 1 0-.013-.332.166.166 0 0 0 .013.332ZM28.354 3.604l1.14.34.075-.324-.875-.571-.34.555ZM33.621 41.484l.978-.68-.208-.26-.992.327.222.613ZM17.893 34.943l1.069.525.126-.308-.767-.709-.428.492ZM39.566 37.336l1.162.26.052-.328-.912-.51-.302.578ZM38.527 29.284l.806-.02.086-.198-.588-.162-.304.38ZM23.303 22.307l.587 1.036.279-.183-.236-1.018-.63.165ZM22.912 30.95l1.17.22.04-.33-.929-.478-.28.589ZM41.858 8.272a.166.166 0 1 0-.013-.332.166.166 0 0 0 .013.332ZM43.54 17.692a.166.166 0 1 1 .012.332.166.166 0 0 1-.012-.332ZM43.075 23.884l.8-.882-.26-.207-.893.542.353.547ZM44.833 14.66l1.162.26.05-.329-.91-.51-.302.579ZM43.95 28.8l.483.824-.24.12-.612-.573.368-.371ZM10.962 26.245l1.35.303.06-.382-1.06-.592-.35.671ZM20.11 25.12a.27.27 0 1 0-.001-.541.27.27 0 0 0 0 .54ZM18.117 29.563a.166.166 0 1 0-.013-.333.166.166 0 0 0 .013.333ZM16.664 21.532l.978-.68-.207-.26-.993.327.222.613ZM15.586 41.824a.166.166 0 1 0-.013-.332.166.166 0 0 0 .013.332ZM2.87 30.108a.27.27 0 1 0-.022-.54.27.27 0 0 0 .021.54ZM11.278 41.91l1.162.26.051-.329-.911-.51-.302.578ZM3.851 35.488a.166.166 0 1 0-.013-.332.166.166 0 0 0 .013.332ZM1.604 34.018l.977-.68-.207-.26-.992.327.222.613ZM13.704 31.102l1.162.26.051-.328-.912-.51-.3.578ZM7.296 20.38l.805-.02.086-.198L7.599 20l-.303.38ZM8.556 4.446a.166.166 0 1 1 .013.333.166.166 0 0 1-.013-.333ZM8.093 10.638l.8-.882-.26-.207-.894.542.354.547ZM8.966 15.553l.483.825-.238.12-.613-.573.368-.372Z"/></g><g fill="#F4D7BF" opacity=".44"><path d="M14.572 7.641c-.05 0-.09-.036-.09-.082V3.88c0-.045.04-.081.09-.081.05 0 .09.036.09.081V7.56c0 .045-.04.082-.09.082Z"/><path d="M13.14 7.103a.094.094 0 0 1-.063-.024.077.077 0 0 1 0-.116l2.862-2.601a.097.097 0 0 1 .127 0 .076.076 0 0 1 0 .115L13.205 7.08a.097.097 0 0 1-.064.024Z"/><path d="M16.595 5.802h-4.047c-.05 0-.09-.037-.09-.082 0-.045.04-.082.09-.082h4.047c.05 0 .09.037.09.082 0 .045-.04.082-.09.082Z"/><path d="M16.002 7.103a.093.093 0 0 1-.063-.024l-2.862-2.602a.077.077 0 0 1 0-.115.097.097 0 0 1 .128 0l2.861 2.601a.076.076 0 0 1 0 .116.095.095 0 0 1-.064.024Z"/></g><g fill="#F4D7BF" opacity=".5"><path d="M44.382 18.877c-.025 0-.045-.018-.045-.04v-1.84c0-.022.02-.04.045-.04.025 0 .045.018.045.04v1.84c0 .022-.02.04-.045.04Z"/><path d="M43.665 18.608a.047.047 0 0 1-.032-.012.038.038 0 0 1 0-.058l1.432-1.3a.048.048 0 0 1 .063 0 .038.038 0 0 1 0 .058l-1.431 1.3a.047.047 0 0 1-.032.012Z"/><path d="M45.393 17.957h-2.024c-.025 0-.045-.018-.045-.04 0-.023.02-.042.045-.042h2.024c.025 0 .045.019.045.041 0 .023-.02.041-.045.041Z"/><path d="M45.097 18.608a.048.048 0 0 1-.032-.012l-1.431-1.3a.038.038 0 0 1 0-.058.048.048 0 0 1 .063 0l1.431 1.3a.038.038 0 0 1 0 .058.046.046 0 0 1-.031.012Z"/></g><path fill="#fff" d="M3.77 23.22a.932.932 0 1 0 0-1.863.932.932 0 0 0 0 1.863Z"/><g opacity=".5"><path fill="#EC6E5C" d="m30.898 41.707-.115-.175-13.991-.476-1.79 4.72 16.749-.02-.853-4.05Z"/><path fill="#E0B598" d="m30.898 41.707-.115-.175-13.991-.476-1.79 4.72 16.749-.02-.853-4.05Z"/><path fill="#EC6E5C" d="M37.61 28.803a.638.638 0 0 0-.302-.5c-2.678-1.773-4.695-5.7-4.899-9.026l-.018-.575v-.003c-.154-4.754-.855-10.52-1.483-12.058-1.161-2.839-5.093-3.106-5.093-3.106-5.22-.373-6.152 3.638-6.679 7.291-.327 2.272-1.59 10.387-1.59 10.387l.96.371c1.13 3.35 3.675 6.058 6.983 7.304.962.362 1.777.508 2.16.196a13.132 13.132 0 0 0 5.492 3.335c.843.256 1.727.428 2.604.345.57-.053 1.17-.241 1.51-.701a1.34 1.34 0 0 0 .1-1.398 1.34 1.34 0 0 0-1.222-.687c.197-.642 1.499-.453 1.476-1.175Z"/><path fill="#D19D74" d="M37.61 28.803a.638.638 0 0 0-.302-.5c-2.678-1.773-4.695-5.7-4.899-9.026l-.018-.575v-.003c-.154-4.754-.855-10.52-1.483-12.058-1.161-2.839-5.093-3.106-5.093-3.106-5.22-.373-6.152 3.638-6.679 7.291-.327 2.272-1.59 10.387-1.59 10.387l.96.371c1.13 3.35 3.675 6.058 6.983 7.304.962.362 1.777.508 2.16.196a13.132 13.132 0 0 0 5.492 3.335c.843.256 1.727.428 2.604.345.57-.053 1.17-.241 1.51-.701a1.34 1.34 0 0 0 .1-1.398 1.34 1.34 0 0 0-1.222-.687c.197-.642 1.499-.453 1.476-1.175Z"/><path fill="#E0B598" d="m26.51 5.012-.326-.311-3.53 1.422a.985.985 0 0 0-.93.954l.032 11.498c-.005.78.151 1.455.622 2.076l.496.655c1.13 1.492 3.455 1.37 4.35-.275.062-.115.105-.215.124-.297.02-.103.047-.17.053-.258a18.47 18.47 0 0 0 .11-1.727c.064-1.015.084-1.432.085-1.423 0 0 2.161-.248 2.745-3.023.291-1.38.236-3.278.155-5.146-.114-2.585-1.907-4.148-3.986-4.145Z"/><path fill="#D19D74" d="M25.787 10.706a.359.359 0 0 1-.364.345.343.343 0 0 1-.354-.342.36.36 0 0 1 .364-.345c.198 0 .357.152.354.342ZM29.435 10.804a.359.359 0 0 1-.364.344.344.344 0 0 1-.354-.341.36.36 0 0 1 .363-.345c.2 0 .357.153.355.342ZM30.123 9.896c-.047.045-.308-.17-.695-.188-.385-.024-.678.16-.718.11-.02-.02.03-.103.158-.187a.985.985 0 0 1 1.128.062c.114.097.15.183.127.203ZM26.209 9.936c-.051.04-.29-.2-.672-.259-.38-.063-.691.09-.726.037-.016-.024.04-.1.177-.17a.983.983 0 0 1 .59-.087.948.948 0 0 1 .526.264c.103.107.13.198.105.215ZM27.557 12.746c0-.023.242-.052.633-.082.099-.005.193-.02.213-.087.027-.07-.009-.178-.051-.295l-.254-.766c-.351-1.088-.6-1.982-.556-1.996.044-.013.365.858.716 1.947l.241.768c.032.114.09.245.032.39a.247.247 0 0 1-.17.136c-.064.016-.12.014-.168.014-.393.003-.635-.008-.636-.03Z"/><path fill="#DDAD8D" d="M27.595 17.326s-1.888.027-3.696-1.186c0 0 .845 1.983 3.657 1.861l.039-.675Z"/><path fill="#D19D74" d="M26.512 8.541c-.076.082-.412-.113-.851-.24-.437-.134-.825-.154-.844-.264-.007-.052.09-.118.265-.155.175-.036.428-.034.69.043.263.079.475.215.602.342.127.126.173.235.138.274ZM29.875 8.975c-.06.093-.333.024-.653.044-.32.01-.585.106-.654.02-.03-.043.005-.134.117-.226.11-.091.299-.174.519-.185.22-.01.416.054.534.135.12.08.164.167.137.212Z"/><path fill="#EC6E5C" d="M21.794 11.983s1.977.616 3.096-4.263c.383-1.668 1.929-3.02 1.929-3.02l-.627-.188S22.294 5.61 22.228 5.66c-.066.049-.984 2.016-.984 2.016l.55 4.307Z"/><path fill="#E0B598" d="M22.282 11.802c.01-.209-.206-.712-.41-.754-.545-.113-1.538-.119-1.617 1.276-.108 1.906 1.828 1.622 1.835 1.567.004-.043.157-1.37.192-2.09Z"/><path fill="#DDAD8D" d="M21.548 13.136c-.008-.007-.034.021-.092.044a.334.334 0 0 1-.248-.009c-.197-.085-.349-.415-.338-.759.005-.173.05-.337.12-.47.066-.136.161-.228.264-.24a.169.169 0 0 1 .19.102c.023.055.01.092.019.096.005.005.043-.03.032-.109a.212.212 0 0 0-.069-.124.253.253 0 0 0-.18-.06c-.148.003-.288.13-.364.277-.084.147-.14.33-.145.525-.01.385.166.755.438.85a.356.356 0 0 0 .306-.033c.061-.044.073-.087.067-.09Z"/><path fill="#D19D74" d="M21.794 11.983s1.977.616 3.096-4.263c.383-1.668 1.929-3.02 1.929-3.02l-.627-.188S22.294 5.61 22.228 5.66c-.066.049-.984 2.016-.984 2.016l.55 4.307Z"/><path fill="#EC6E5C" d="M26.408 12.956c.063 0 .043.418.387.733.343.317.792.292.792.35.005.027-.104.077-.292.072a1.045 1.045 0 0 1-.663-.268.91.91 0 0 1-.297-.614c-.008-.176.044-.277.073-.273Z"/><path fill="#D19D74" d="M26.408 12.956c.063 0 .043.418.387.733.343.317.792.292.792.35.005.027-.104.077-.292.072a1.045 1.045 0 0 1-.663-.268.91.91 0 0 1-.297-.614c-.008-.176.044-.277.073-.273Z"/><path fill="#E0B598" d="M41.382 13.079s2.549 5.127 2.981 6.204c.375.932 2.445 5.301 1.805 6.513-.64 1.212-1.209 1.15-2.1 1.198-.893.05-6.696-.19-8.2-.253-1.916-.08-4.021-.623-4.021-.623l.987-5.252 7.672 1.427-1.296-8.336 2.172-.878Z"/><path fill="#E0B598" d="M41.398 13.117s-.443-.785-.716-.973c-.274-.188-2.498-2.138-2.498-2.138s-.872-.924-1.112-.873c-.24.051-2.515 1.574-2.531 1.814-.017.24.102.376.24.41.136.035-.07.188.29.548 0 0-.342-.018-.325.308.017.325 0 .77.222.787.222.017.924.222.958-.154l.068-.154s.6.428 1.147.65c.547.223 1.42.206 1.42.206s.24.359.65.41c.41.05 2.187-.841 2.187-.841Z"/><path fill="#DDAD8D" d="M37.987 11.712c-.007-.006-.083.08-.119.257-.038.174-.017.431.102.676.12.244.288.423.41.543.124.12.208.187.216.179.01-.01-.06-.092-.17-.221-.11-.13-.264-.31-.376-.54a1.172 1.172 0 0 1-.12-.627c.017-.166.07-.26.057-.267ZM36.94 12.164c-.005.003-.002.019.018.037.02.018.06.032.105.03a.425.425 0 0 0 .29-.171.493.493 0 0 0 .106-.317c-.005-.087-.033-.134-.043-.13-.013.003-.008.053-.02.127a.585.585 0 0 1-.113.265.462.462 0 0 1-.228.163c-.07.02-.106-.012-.116-.004Z"/><path fill="#DDAD8D" d="M37.793 9.987c.004-.002-.081-.041-.218.017a.555.555 0 0 0-.203.164c-.066.078-.123.177-.191.28a8.294 8.294 0 0 1-.856 1.087c-.06.065-.129.136-.169.233a.34.34 0 0 0 .033.308c.054.09.127.156.195.22.069.062.139.122.209.18.143.112.277.218.428.303.075.04.161.07.248.068a.483.483 0 0 0 .234-.07.827.827 0 0 0 .3-.297.4.4 0 0 0 .026-.348.259.259 0 0 0-.206-.162.22.22 0 0 0-.162.038c-.03.024-.039.043-.037.044.003.01.058-.072.193-.048a.22.22 0 0 1 .167.147.352.352 0 0 1-.036.3c-.06.1-.16.194-.28.262a.42.42 0 0 1-.2.056.447.447 0 0 1-.209-.062 3.43 3.43 0 0 1-.411-.299 4.968 4.968 0 0 1-.205-.177.946.946 0 0 1-.179-.2.25.25 0 0 1-.027-.23c.03-.076.09-.142.15-.207a7.175 7.175 0 0 0 .845-1.112c.067-.107.12-.207.178-.284a.547.547 0 0 1 .18-.163c.121-.063.203-.039.203-.048Z"/><path fill="#DDAD8D" d="M37.39 11.622c-.01.005 0 .046.038.099a.45.45 0 0 0 .206.148c.095.034.189.034.252.018.064-.015.096-.04.092-.052-.008-.024-.152.013-.315-.048-.164-.057-.251-.178-.273-.165ZM36.897 9.679a.752.752 0 0 0-.13.135c-.08.09-.193.223-.332.389l-.482.584-.282.346c-.096.12-.205.243-.287.395-.082.147-.12.343-.036.5.08.153.214.242.324.329.23.17.423.335.613.452.096.055.195.09.286.092.091.003.168-.02.223-.052.112-.067.125-.148.12-.146-.007-.006-.031.065-.136.115a.402.402 0 0 1-.204.034.593.593 0 0 1-.257-.097c-.174-.116-.37-.29-.595-.462-.11-.089-.233-.177-.296-.304-.067-.126-.039-.283.036-.42.075-.139.18-.26.276-.382l.279-.35.467-.596c.132-.17.238-.31.31-.406a.74.74 0 0 0 .103-.156ZM36.155 9.855c-.022-.016-.301.416-.77.83-.118.104-.232.207-.32.317a.88.88 0 0 0-.175.33c-.056.215.017.346.023.339.015-.003-.03-.13.037-.32a.91.91 0 0 1 .177-.298c.086-.1.198-.198.316-.303.238-.211.424-.434.544-.604.12-.17.178-.286.168-.291Z"/><path fill="#DDAD8D" d="M35.081 12.293c0 .031.251 0 .522.092a.72.72 0 0 1 .296.199c.062.07.085.127.098.122.01-.002.008-.07-.047-.159a.625.625 0 0 0-.317-.245.944.944 0 0 0-.393-.047c-.1.008-.16.026-.159.038ZM40.526 22.24c-.01.004.029.12.118.292a3.582 3.582 0 0 0 .97 1.162c.155.118.26.177.267.168.016-.022-.373-.303-.747-.754-.376-.447-.584-.88-.608-.868Z"/><path fill="#D19D74" d="m34.882 26.665.87-5.257.593.11-.684 5.213-.78-.066Z"/><path fill="#E0B598" d="M5.79 11.032s-2.548 5.127-2.98 6.204c-.376.933-2.446 5.302-1.806 6.514.64 1.212 1.209 1.149 2.1 1.198.893.049 6.696-.19 8.2-.253 1.916-.08 4.021-.623 4.021-.623l-.987-5.253-7.672 1.427 1.296-8.335-2.172-.879Z"/><path fill="#E0B598" d="M5.775 11.07s.443-.785.716-.973C6.765 9.91 8.99 7.96 8.99 7.96s.872-.923 1.112-.872c.24.05 2.514 1.573 2.531 1.813.017.24-.102.377-.24.41-.136.035.07.189-.29.548 0 0 .24-.006.325.308.08.302.096.608-.222.787-.242.136-.819.273-1.02-.293l-.007-.014s-.598.427-1.146.65c-.547.222-1.42.205-1.42.205s-.24.36-.65.411c-.41.05-2.187-.842-2.187-.842Z"/><path fill="#DDAD8D" d="M9.186 9.665c.007-.005.082.081.12.258.038.174.017.43-.103.676a2.03 2.03 0 0 1-.41.543c-.124.12-.208.186-.216.178-.009-.009.06-.091.17-.22.11-.131.264-.311.377-.54.111-.228.14-.463.12-.628-.019-.165-.072-.26-.058-.267ZM10.233 10.117c.004.003.002.019-.019.037a.152.152 0 0 1-.105.03.425.425 0 0 1-.29-.171.493.493 0 0 1-.106-.316c.005-.087.033-.134.043-.131.013.003.008.053.02.128a.585.585 0 0 0 .113.265.463.463 0 0 0 .228.163c.07.02.106-.012.116-.005Z"/><path fill="#DDAD8D" d="M9.38 7.94c-.004-.002.081-.04.218.018.067.028.14.084.204.163.065.079.122.177.19.28a8.28 8.28 0 0 0 .856 1.087c.06.066.13.136.17.233a.34.34 0 0 1-.034.308c-.053.09-.127.157-.195.22a4.518 4.518 0 0 1-.209.18 3.34 3.34 0 0 1-.428.303.518.518 0 0 1-.248.068.482.482 0 0 1-.233-.07.827.827 0 0 1-.3-.296.4.4 0 0 1-.027-.348.258.258 0 0 1 .207-.163.22.22 0 0 1 .161.038c.031.024.04.043.037.045-.002.01-.058-.073-.193-.049a.22.22 0 0 0-.166.147.351.351 0 0 0 .035.3c.06.1.161.194.281.263a.42.42 0 0 0 .198.056c.07 0 .142-.025.21-.063.136-.078.274-.188.412-.298.069-.057.137-.116.204-.178a.941.941 0 0 0 .179-.2.25.25 0 0 0 .027-.23.72.72 0 0 0-.15-.207 7.184 7.184 0 0 1-.845-1.112c-.067-.107-.12-.207-.177-.283a.548.548 0 0 0-.18-.164c-.122-.063-.204-.039-.204-.048Z"/><path fill="#DDAD8D" d="M9.783 9.576c.01.005.001.046-.038.099a.45.45 0 0 1-.205.148.451.451 0 0 1-.253.018c-.064-.015-.096-.041-.092-.052.008-.024.153.013.315-.049.164-.057.25-.178.273-.164ZM10.275 7.632a.752.752 0 0 1 .13.136c.08.09.194.223.332.388l.482.584.282.347c.096.12.206.243.287.395.082.146.12.343.036.5-.08.153-.214.242-.324.329-.23.17-.423.335-.612.452a.625.625 0 0 1-.287.092.422.422 0 0 1-.222-.052c-.112-.067-.125-.148-.122-.146.008-.006.032.065.138.115.051.024.122.04.203.034a.591.591 0 0 0 .258-.097c.173-.116.369-.29.594-.462.11-.089.233-.178.297-.304.066-.126.038-.283-.037-.42-.074-.139-.18-.26-.276-.382-.096-.12-.19-.237-.278-.35l-.468-.596c-.132-.17-.237-.31-.309-.407a.768.768 0 0 1-.104-.156ZM11.017 7.808c.022-.015.3.416.77.83.118.105.232.207.32.317.09.109.149.227.175.331.056.214-.017.346-.023.338-.015-.002.03-.13-.037-.32a.91.91 0 0 0-.177-.297c-.086-.101-.198-.198-.316-.303a3.67 3.67 0 0 1-.544-.604c-.12-.17-.178-.286-.168-.292Z"/><path fill="#DDAD8D" d="M12.141 10.28c0 .032-.25.002-.521.093a.72.72 0 0 0-.297.199c-.061.07-.085.127-.098.122-.01-.002-.007-.07.048-.159a.625.625 0 0 1 .317-.245.943.943 0 0 1 .393-.047c.1.009.16.026.158.038Z"/><path fill="#DDAD8D" d="M6.647 20.194c.01.004-.03.119-.118.292a3.58 3.58 0 0 1-.97 1.162c-.155.118-.26.177-.267.168-.017-.023.372-.303.746-.754.377-.448.584-.88.609-.868Z" opacity=".3"/><path fill="#040000" d="m12.885 24.556-.993-5.282-.568.106.678 5.268.883-.092Z" opacity=".2"/><path fill="#C99978" d="M16.57 37.938s-1.246-8.471-1.243-9.698c.001-.484-.258-3.664-.258-3.664l-2.149.193-1.088-5.79s4.27-.765 5.417-.826c1.143-.06 5.01.531 5.01.531l6.869 1.084s1.903.305 1.883.286l4.76 1.232-.896 5.417-2.834-.11.018 3.427c-.037.259.185 1.554-1.518 3.628l-.287 3.608 1.278 6.565H15.758l.813-5.883Z"/><path fill="#D19D74" d="M27.52 19.514c.014.009-.024.107-.137.254a2.368 2.368 0 0 1-.583.525c-.278.183-.649.349-1.082.434-.11.017-.22.04-.334.053-.115.008-.233.021-.352.025-.12-.001-.24 0-.364-.004l-.376-.038a3.428 3.428 0 0 1-1.344-.49 3.205 3.205 0 0 1-.852-.796 2.94 2.94 0 0 1-.382-.681c-.066-.172-.08-.275-.064-.28.016-.005.062.084.152.238.09.154.227.373.432.613s.48.499.835.71c.354.212.786.37 1.26.438.472.07.938.055 1.346-.014.409-.068.76-.206 1.034-.36a3.06 3.06 0 0 0 .602-.438c.13-.121.193-.198.208-.189Z"/><path fill="#D19D74" d="M27.517 28.54c.027-.008.159.322.187.89.015.282-.003.622-.077.991-.074.37-.21.765-.416 1.15-.21.382-.468.711-.737.974a4.02 4.02 0 0 1-.79.605c-.491.285-.84.354-.848.327-.014-.037.306-.165.753-.476a4.586 4.586 0 0 0 1.402-1.55c.393-.724.523-1.48.537-2.02.017-.544-.051-.882-.011-.89Z" opacity=".3"/></g><path fill="#382B22" d="M6.757 36.321a.55.55 0 0 1 .26-.432c2.31-1.529 4.052-4.919 4.228-7.789l.015-.496v-.002c.134-4.103.738-9.08 1.28-10.406 1.002-2.45 4.396-2.68 4.396-2.68 4.504-.322 5.309 3.14 5.764 6.292.282 1.96 1.372 8.963 1.372 8.963l-.828.321c-.975 2.89-3.172 5.228-6.026 6.303-.83.313-1.534.438-1.864.17a11.333 11.333 0 0 1-4.74 2.877c-.728.221-1.49.37-2.247.298-.492-.046-1.01-.208-1.303-.605a1.156 1.156 0 0 1-.086-1.207c.202-.374.63-.615 1.055-.592-.171-.554-1.295-.39-1.276-1.015Z"/><path fill="#F4D5C9" d="m16.336 15.79.282-.268 3.045 1.227a.85.85 0 0 1 .803.823l-.027 9.923c.004.673-.131 1.256-.537 1.792l-.428.565c-.975 1.288-2.981 1.182-3.753-.237a1.079 1.079 0 0 1-.108-.256c-.016-.089-.04-.147-.045-.222-.09-.798-.096-1.49-.096-1.49-.054-.877-.072-1.237-.073-1.229 0 0-1.865-.214-2.369-2.609-.25-1.19-.204-2.829-.133-4.441.098-2.232 1.645-3.58 3.439-3.578Z"/><path fill="#382B22" d="M16.964 20.705a.31.31 0 0 0 .314.297c.17 0 .308-.131.305-.295a.31.31 0 0 0-.314-.297.296.296 0 0 0-.305.295ZM13.813 20.789a.31.31 0 0 0 .314.297c.17 0 .307-.13.305-.295a.31.31 0 0 0-.314-.297.297.297 0 0 0-.306.295ZM13.219 20.005c.04.039.266-.146.6-.162.332-.021.585.138.619.096.017-.02-.026-.09-.136-.163a.851.851 0 0 0-.974.054c-.098.083-.13.158-.11.175ZM16.596 20.04c.045.034.25-.174.58-.224.328-.055.597.078.626.032.015-.02-.035-.087-.152-.148a.85.85 0 0 0-.963.153c-.089.094-.112.172-.09.186ZM15.432 22.464c.001-.019-.207-.044-.545-.07-.086-.005-.167-.018-.184-.075-.023-.06.008-.154.044-.255l.219-.66c.303-.94.518-1.711.48-1.723-.038-.012-.315.74-.617 1.68l-.209.663c-.027.099-.077.211-.027.336.026.063.09.106.146.118.055.013.103.012.145.013.339.001.548-.008.548-.027Z"/><path fill="#E1BCB1" d="M15.398 26.417s1.628.023 3.189-1.025c0 0-.73 1.712-3.156 1.607l-.033-.582Z"/><path fill="#382B22" d="M16.424 22.646c-.054 0-.037.36-.333.633-.296.273-.684.252-.684.302-.004.023.09.066.252.063a.9.9 0 0 0 .572-.232.784.784 0 0 0 .256-.53c.007-.152-.038-.24-.063-.236ZM16.277 18.741c.047.085.37-.008.763-.02.394-.021.723.044.762-.044.017-.042-.05-.118-.19-.186a1.267 1.267 0 0 0-.587-.109c-.236.01-.443.08-.575.159-.133.078-.193.16-.173.2ZM13.264 18.574c.062.073.288-.017.564-.035.275-.027.512.026.562-.056.021-.04-.02-.113-.125-.18a.784.784 0 0 0-.465-.1.78.78 0 0 0-.442.174c-.093.082-.122.162-.094.197Z"/><path fill="#382B22" d="M20.405 21.807s-1.706.531-2.672-3.68c-.33-1.44-1.665-2.605-1.665-2.605l.542-.163s3.364.948 3.42.99c.057.043.85 1.74.85 1.74l-.475 3.718Z"/><path fill="#F4D5C9" d="M19.985 21.65c-.009-.18.177-.614.354-.65.47-.098 1.327-.103 1.395 1.1.093 1.645-1.577 1.4-1.583 1.353a36.08 36.08 0 0 1-.166-1.803Z"/><path fill="#E1BCB1" d="M20.618 22.801c.007-.005.03.019.08.038.048.02.13.03.214-.008.17-.073.3-.357.292-.654a.945.945 0 0 0-.104-.406c-.057-.117-.14-.197-.228-.207a.147.147 0 0 0-.165.087c-.02.048-.007.08-.015.083-.005.005-.037-.025-.028-.094a.182.182 0 0 1 .06-.107.217.217 0 0 1 .155-.05c.128.001.248.112.314.238.073.127.12.284.125.453.009.332-.143.652-.377.734a.307.307 0 0 1-.265-.029c-.053-.038-.064-.075-.058-.078Z"/><path fill="#263138" d="M20.599 33.675c.005.003.044-.056.113-.164.07-.108.168-.264.295-.454.252-.38.616-.898 1.06-1.434.448-.533.897-.978 1.263-1.25.362-.278.626-.387.618-.4a.998.998 0 0 0-.184.074c-.061.024-.127.067-.206.112-.08.044-.166.104-.26.17-.378.265-.838.709-1.288 1.246-.448.54-.806 1.064-1.048 1.453a9.415 9.415 0 0 0-.275.468c-.06.113-.092.177-.088.179Z"/><path fill="#D19D74" d="m21.962 41.843 2.727-12.141-2.783-1.488c-.058-.083-1.467-.719-1.467-.719a5.22 5.22 0 0 1-1.444 1.524c-1.687 1.02-3.379.188-3.523-1.373l-1.544.433-2.982.515S8.517 34.923 8.839 37.4c.322 2.477-.127 6.76-.127 6.76l-.25 1.416 2.535.052h.416l5.653-.031 4.934-.02c-.58-1.673-.038-3.733-.038-3.733Z"/><path fill="#F4D5C9" d="M6.79 42.87c-.977.036-1.918-.453-2.392-1.308a1.87 1.87 0 0 1-.252-.909c0-1.318.82-3.21 1.093-3.89.393-.983 4.138-7.779 4.588-7.682.45.096.695.131.695.131L8.39 38.884l6.782 1.113-.745 2.591-7.637.282Z"/><path fill="#D19D74" d="m6.614 32.636 3.447 1.828 1.139-5.87s-1.46.13-1.942.743-2.644 3.299-2.644 3.299Z"/><path fill="#F4D5C9" d="m10.793 39.279-.928-2.016-.406-1.491-1.234-.957s-.41.048-.282.366c.127.317.746.889.746.889l.366 1.019-.594-1.035-.868-.43-.857.064s-.159.382.238.397h.429l.65.524.408.985-.614-.953-.905-.321-.572.147s-.158.254.127.285c.286.032.477.032.477.032l.524.305.46.965-.81-.667-1.047-.125s-.175.252.095.347c.27.096.81.382.81.382l.583.806 3.204.482Z"/><path fill="#E1BCB1" d="m10.793 39.279-3.206-.466H7.58l-.004-.006-.585-.805.006.005a11.593 11.593 0 0 0-.575-.282c-.05-.023-.101-.045-.153-.066-.05-.023-.107-.035-.16-.07a.19.19 0 0 1-.084-.164.352.352 0 0 1 .06-.174l.005-.01h.013l1.048.125h.006l.005.005.811.666-.035.027-.46-.965.008.01-.524-.305.012.004a4.959 4.959 0 0 1-.429-.027c-.068-.008-.163-.01-.218-.088a.17.17 0 0 1-.021-.125.362.362 0 0 1 .043-.114l.005-.008.01-.003.572-.147.007-.002.007.003.905.321.008.003.005.007.613.953-.044.023-.218-.528-.189-.457.008.01-.651-.524.015.005H7.15c-.085-.002-.165.007-.254-.009-.085-.013-.18-.07-.203-.163a.41.41 0 0 1 .02-.26l.005-.013.016-.001.858-.064h.006l.006.003.867.43.007.003.003.006.593 1.035-.041.02-.364-1.02.005.009a5.446 5.446 0 0 1-.6-.65 1.515 1.515 0 0 1-.119-.182.392.392 0 0 1-.054-.212c.004-.078.062-.142.122-.178a.551.551 0 0 1 .2-.068l.008-.002.007.006 1.232.959.004.003.002.006.402 1.492v-.003l.915 2.022-.94-2.01-.001-.001v-.002l-.41-1.49.006.01-1.235-.955.015.004a.506.506 0 0 0-.184.063c-.054.034-.1.085-.103.149-.008.129.086.25.166.363.172.227.38.437.598.644l.004.004.001.005.367 1.019-.042.019-.594-1.035.01.01-.868-.429.013.002-.858.064.02-.015a.362.362 0 0 0-.017.226c.018.073.09.115.165.13.075.013.163.005.245.007h.261l.006.006.651.524.005.004.003.005.188.457.219.528-.044.023-.613-.952.012.01-.905-.322h.014l-.572.147.015-.01c-.034.057-.058.137-.024.187a.13.13 0 0 0 .078.05c.032.01.068.013.105.016.145.015.288.025.424.027h.007l.005.003.524.305.006.003.003.007.46.966.044.092-.078-.065-.81-.668.011.005-1.048-.126.02-.009a.31.31 0 0 0-.053.153c0 .052.024.1.068.13.042.03.098.043.15.066.053.021.104.044.155.067.202.092.393.19.576.286l.004.001.003.004.581.807-.01-.007 3.2.498Z"/><path fill="#040000" d="M22.017 42.61s-.788 1.65-1.81 2.133c-.95.448-1.553.544-2.684.463-.552-.04-2.351-.39-3.003-.577l-4.386-1.882 9.222 1.453 2.66-1.59Z" opacity=".3"/><path fill="#F4D5C9" d="M24.268 30.303s1.65-.584 1.682 3.114c.032 3.698-4.31 9.905-5.05 10.516-.739.611-1.584 1.023-3.813.692-2.795-.414-6.81-1.878-6.81-1.878l2.456-2.287 4.984-.225 4.052-8.33c0 .001 1.116-1.762 2.499-1.602Z"/><path fill="#F4D5C9" d="M14.428 42.588s1.236.778 2.63.738c1.396-.04 2.632.41 2.811.285.18-.126.2-.345 0-.444-.199-.1-1.044-.22-1.044-.22l-.73-.299s2.492.22 2.691.12c.2-.1.399-.24.32-.458-.08-.22-.28-.22-.28-.22s.538.02.518-.199c-.02-.219-.219-.418-.299-.458-.08-.04-1.125-.465-1.125-.465l-1.344-.267 1.291-.051 1.128.314s.45.051.35-.328c-.1-.379-1.476-.797-1.476-.797l-1.754-.121s1.355-.199 1.495-.617c.14-.419-.1-.658-.1-.658s-.957.379-1.415.458c-.458.08-1.016.26-1.754.558-.737.3-1.17.539-1.17.539"/><path fill="#E1BCB1" d="M15.172 39.997s.024-.015.071-.04a13.081 13.081 0 0 1 1.05-.488c.37-.15.824-.335 1.372-.486.138-.037.28-.07.43-.098.148-.027.298-.07.452-.118.306-.096.625-.212.957-.342l.012-.005.008.01c.124.14.17.338.14.528l-.013.07-.02.07a.358.358 0 0 1-.078.13.89.89 0 0 1-.243.171c-.179.09-.373.153-.572.208-.2.053-.406.097-.619.13l-.002-.042 1.755.12h.004c.353.113.709.242 1.052.423.085.046.17.096.248.155.04.03.078.063.112.1.033.038.065.08.08.134.011.05.021.102.01.156a.206.206 0 0 1-.083.138.464.464 0 0 1-.303.065h-.003l-1.128-.314h.007l-1.29.052.003-.049.96.19.384.077h.003l.002.002c.378.155.751.31 1.12.463.096.053.16.133.218.217.055.086.1.18.1.291-.006.062-.056.106-.102.129a.523.523 0 0 1-.146.047 1.41 1.41 0 0 1-.296.023l.001-.05a.329.329 0 0 1 .232.115.36.36 0 0 1 .089.24.328.328 0 0 1-.121.222.956.956 0 0 1-.205.135.232.232 0 0 1-.06.024 1.578 1.578 0 0 1-.182.016c-.08.002-.16 0-.238 0-.156-.004-.312-.01-.466-.018a52.675 52.675 0 0 1-1.782-.128l.01-.043c.25.102.492.201.73.3l-.005-.002c.268.04.53.083.784.14.064.016.126.031.189.052.061.02.125.05.171.1a.234.234 0 0 1 .056.193.313.313 0 0 1-.095.171.344.344 0 0 1-.036.032.142.142 0 0 1-.045.027c-.034.011-.065.011-.097.012-.063 0-.124-.008-.184-.017-.12-.016-.236-.039-.351-.06-.23-.044-.453-.086-.67-.12a8.614 8.614 0 0 0-1.225-.116c-.095-.002-.188 0-.279 0-.091 0-.181 0-.269-.003-.087-.008-.172-.012-.256-.02-.082-.013-.163-.024-.241-.035a5.527 5.527 0 0 1-1.74-.624c-.076-.043-.113-.07-.113-.07l.03.016.086.048a5.628 5.628 0 0 0 1.74.605l.241.033c.083.008.168.012.254.019.087.003.176.001.267.003.092-.002.185-.004.28-.003.383.005.795.044 1.23.112.218.034.442.076.672.119.115.02.231.043.35.06.059.007.119.014.178.015.029-.001.06-.002.084-.01a.226.226 0 0 0 .066-.05.276.276 0 0 0 .083-.15.193.193 0 0 0-.047-.158.338.338 0 0 0-.154-.09 2.031 2.031 0 0 0-.185-.049 10.58 10.58 0 0 0-.781-.139h-.006l-.73-.3-.135-.054.146.012c.57.048 1.164.094 1.78.126.153.008.308.014.465.017.078.001.156.002.234 0a1.466 1.466 0 0 0 .173-.015.172.172 0 0 0 .05-.02.926.926 0 0 0 .194-.127c.057-.05.1-.117.104-.19a.31.31 0 0 0-.077-.205.285.285 0 0 0-.195-.097l.001-.049c.094.002.192-.003.284-.022a.477.477 0 0 0 .132-.042c.04-.02.072-.051.075-.09a.483.483 0 0 0-.091-.26.62.62 0 0 0-.2-.2l-1.116-.46h.004c-.127-.024-.255-.05-.384-.076l-.96-.19-.206-.042.21-.008 1.291-.052h.004l.004.001 1.127.315h-.003a.423.423 0 0 0 .268-.056c.074-.052.08-.154.055-.243-.026-.083-.101-.151-.174-.208a1.913 1.913 0 0 0-.242-.152 6.397 6.397 0 0 0-1.042-.42h.004a2165.7 2165.7 0 0 0-1.753-.122l-.19-.013.188-.03c.21-.032.416-.076.614-.128.198-.053.39-.116.565-.203a.857.857 0 0 0 .233-.163.319.319 0 0 0 .07-.114l.019-.067.013-.067a.615.615 0 0 0-.129-.497l.02.004c-.334.13-.654.244-.962.339-.154.047-.305.09-.456.117a5.04 5.04 0 0 0-.428.094c-.546.148-1 .33-1.371.477a14.792 14.792 0 0 0-1.125.51Z"/><path fill="#E1BCB1" d="M18.16 41.697c0 .011.16.017.419.032.258.016.614.046 1.003.105.39.059.738.136.99.197.25.062.405.104.409.093.003-.008-.147-.07-.396-.144a7.355 7.355 0 0 0-2.004-.303c-.26-.003-.42.011-.42.02Z"/><path fill="#A67552" d="m9.421 34.532-.126.594c-.028.141-.041.22-.036.22a1.28 1.28 0 0 0 .065-.213l.149-.59c.123-.498.288-1.188.466-1.95a90.72 90.72 0 0 0 .588-2.643l.005-.026-.021.014a.538.538 0 0 0-.103.079.554.554 0 0 0 .114-.061l-.016-.012a92.197 92.197 0 0 0-.64 2.63"/><path fill="#D19D74" d="m19.742 34.815 5.568 2.482s2.162-6.671-1.023-7.746l-1.597.373-2.948 4.891Z"/><path fill="#E1BCB1" d="M14.428 42.588c0 .014-1.71.088-3.818.166-2.11.078-3.82.13-3.82.116 0-.014 1.708-.088 3.818-.166 2.11-.077 3.82-.13 3.82-.116ZM7.59 38.797c0 .01-.11.02-.282.062-.17.044-.404.126-.629.275a1.697 1.697 0 0 0-.492.475c-.098.147-.132.253-.141.25-.003-.001.003-.028.02-.076.016-.048.045-.116.092-.193.09-.156.261-.348.494-.498.231-.153.473-.231.649-.268.089-.016.16-.026.21-.028.051-.002.079-.002.079.001Z"/><path fill="#A67552" d="M20.704 34.023a.208.208 0 0 1-.017.052l-.056.146c-.05.127-.124.308-.219.531-.19.447-.469 1.057-.797 1.72a52.007 52.007 0 0 1-1.15 2.187l-.08.136a.25.25 0 0 1-.03.045.227.227 0 0 1 .022-.05l.07-.14.263-.51c.223-.431.532-1.026.86-1.69a51.03 51.03 0 0 0 1.043-2.237l.065-.142a.268.268 0 0 1 .026-.048Z"/><path fill="#F4D7BF" d="m34.34 6.42.116.19c.129.215.317.388.54.5l.2.098-.19.115a1.311 1.311 0 0 0-.499.54l-.099.2-.115-.19a1.311 1.311 0 0 0-.54-.499l-.2-.099.19-.115a1.31 1.31 0 0 0 .5-.54l.098-.2Z" opacity=".5"/><path fill="#DDAD8D" d="M4.89 22.423a.803.803 0 0 0-.33-.305Z"/><path fill="#F4D7BF" d="m9.686 13.74.142.236c.159.264.39.477.667.614l.247.122-.236.142c-.264.159-.478.39-.614.667l-.122.247-.142-.236a1.613 1.613 0 0 0-.667-.614l-.247-.122.235-.142c.265-.159.478-.39.615-.667l.122-.247ZM4.123 31.76l.08.132c.09.15.22.27.376.348l.14.068-.133.08c-.15.09-.27.221-.347.377l-.07.14-.08-.133a.913.913 0 0 0-.376-.348l-.14-.068.133-.08c.15-.09.27-.221.347-.377l.07-.14Z"/></g></g><defs><clipPath id="a"><rect width="48" height="48" fill="#fff" rx="24"/></clipPath><clipPath id="b"><path fill="#fff" d="M0 0h48v48H0z"/></clipPath></defs></svg>