<svg width="45" height="33" viewBox="0 0 45 33" fill="none" xmlns="http://www.w3.org/2000/svg">
<g clip-path="url(#clip0_1141_49346)">
<g clip-path="url(#clip1_1141_49346)">
<path fill-rule="evenodd" clip-rule="evenodd" d="M19.146 13.7788C18.6613 14.1302 18.7385 14.8216 18.8844 15.324C19.0993 16.0637 19.5273 16.7484 20.0155 17.3387C20.8817 18.3858 22.3521 19.5616 23.7076 18.6423C24.9146 17.8236 25.676 16.1716 25.9388 14.7801C26.02 14.3501 26.1282 13.7094 25.7466 13.3861C25.1823 12.9082 24.1871 12.9951 23.506 13.0566C23.0574 13.0971 22.6246 13.2346 22.1813 13.1701C21.1514 13.02 20.0051 13.156 19.146 13.7788Z" fill="#85C5D6"/>
<path fill-rule="evenodd" clip-rule="evenodd" d="M17.8041 7.68976C18.1401 7.6526 18.4821 7.64282 18.8205 7.64829L18.9206 7.65007C19.1525 7.65171 19.8743 7.63079 19.9443 7.89061C19.9928 8.0706 19.7504 8.02121 19.6299 8.02587C19.4479 8.03293 19.2655 8.03444 19.0838 8.04762L19.006 8.05404C18.8096 8.07231 18.3806 8.05485 18.2487 8.23C18.1069 8.41816 18.3769 8.74801 18.4752 8.91803L18.4803 8.92698C18.8588 9.60323 19.0945 10.3295 19.7725 10.7785C20.4131 11.2027 21.2509 11.3865 21.9893 11.5821L22.1606 11.6277C22.4062 11.6943 22.4682 11.7311 22.564 12.0017L22.5752 12.0339C22.6734 12.3212 22.7095 12.1195 22.7828 11.9289L22.786 11.9206C22.8948 11.6428 23.1052 11.7677 23.3749 11.7872C23.785 11.8168 24.2356 11.7668 24.6431 11.6993L24.6918 11.6911C25.4663 11.559 26.2876 11.3806 26.9013 10.8599C27.53 10.3265 27.9266 9.54937 28.1704 8.77483L28.1193 8.76869C27.9291 8.74682 27.7141 8.72985 27.5466 8.64184C27.2889 8.50645 27.4211 8.30012 27.6577 8.22678C28.0343 8.11011 28.5118 8.16971 28.8927 8.21809C29.3704 8.27879 29.8502 8.3181 30.3306 8.35067L30.4616 8.3594C32.2167 8.47457 33.892 8.68367 35.5563 9.28445C37.1258 9.85095 38.6074 10.6593 39.9454 11.6539C41.3007 12.6614 42.4231 13.8763 43.3905 15.2557C43.9041 15.9881 44.2672 16.7394 44.5841 17.574C44.7272 17.951 44.8269 18.3186 44.8823 18.7186C44.9375 19.117 44.8659 19.5466 44.9541 19.9384L44.9641 19.9802C45.0793 20.4285 44.8511 21.0301 44.7187 21.457C44.5491 22.0037 44.2807 22.519 43.9475 22.9842C42.7225 24.6942 40.5631 25.5559 38.526 25.7723C37.9495 25.8335 37.3714 25.8443 36.7922 25.8482C36.578 25.8496 36.3592 25.873 36.146 25.8453C35.9363 25.8181 35.8421 25.7173 35.6732 25.6234C35.4798 25.5159 35.1954 25.5026 34.9811 25.4583L34.7227 25.4056C34.522 25.3646 34.3219 25.322 34.1238 25.2675C33.8991 25.2056 33.6766 25.1468 33.45 25.0961L33.3525 25.0749C33.1381 25.0294 32.8991 24.9338 32.6775 24.9914C33.1676 25.7604 33.7229 26.5402 34.3734 27.1838C34.9494 27.7538 35.6535 28.2244 36.1669 28.8554C36.2941 29.0117 36.475 29.4154 36.7065 29.4284C36.8204 29.4349 36.8817 29.2944 37.0018 29.3308C37.1324 29.3703 37.1323 29.574 37.1018 29.6729C36.8989 30.3328 35.6819 30.481 35.1199 30.4442L35.1031 30.4431C34.6567 30.4101 34.1897 30.3976 33.7507 30.3092C33.3508 30.2287 32.9768 30.0307 32.5663 30.0017C31.7668 29.9454 31.0682 30.6207 30.5031 31.1125L30.3798 31.2189C29.8169 31.7028 29.1018 32.3018 28.3382 32.3334C27.428 32.3711 26.5217 31.9382 25.6825 31.6451C24.8766 31.3637 24.0439 31.1345 23.2203 30.9019L22.9301 30.8196C22.0626 30.5723 21.1773 30.2813 20.2685 30.4802C19.5263 30.6427 18.7226 31.0941 18.2358 31.6831L18.2089 31.7162C17.9994 31.9774 17.8182 32.2852 17.4686 32.3645C17.1482 32.437 16.8434 32.3331 16.62 32.1021C16.1366 31.6024 15.894 30.9021 15.6363 30.2655L15.5906 30.1539C15.2455 29.3208 15.039 28.473 14.8788 27.5874C14.7901 27.0966 14.7035 26.6052 14.6311 26.1117C14.5983 25.8875 14.5682 25.6629 14.5427 25.4378C14.5281 25.3091 14.5536 25.0724 14.4937 24.9497C14.364 24.6844 13.908 25.0389 13.7021 25.1353L13.5444 25.2061C13.1959 25.3618 12.8496 25.5125 12.4854 25.6329C12.0829 25.7659 11.6841 25.9281 11.2723 26.0282C11.1241 26.0642 10.9578 26.0899 10.8206 26.1613C10.7063 26.2207 10.6657 26.3603 10.5722 26.4089C10.4405 26.4774 10.3056 26.3485 10.1651 26.337C9.97958 26.3219 9.77404 26.3818 9.59344 26.4194C9.17927 26.5056 8.77634 26.6199 8.3517 26.6452C7.48319 26.697 6.61796 26.4873 5.79917 26.2153L5.75287 26.1999C4.17467 25.67 2.5466 25.0139 1.79641 23.4167C0.352854 20.3436 1.09679 16.3384 3.44494 13.9315C5.89118 11.4242 9.13761 9.68369 12.4896 8.73917C14.2173 8.2523 16.0187 7.88721 17.8041 7.68976ZM18.4605 17.8586C17.5556 18.1428 16.6608 18.4759 15.8496 18.9733C15.1768 19.3859 14.5142 19.8283 13.8578 20.2715L13.3032 20.6463C12.6765 21.069 11.998 21.5127 11.2951 21.7814C11.0513 21.8746 10.6572 21.947 10.516 22.1946C10.3896 22.4163 10.4605 22.7608 10.4636 23.0031C10.4706 23.5582 10.41 24.1204 10.383 24.6771L10.3783 24.7815C10.3725 24.9255 10.3078 25.3066 10.435 25.4149C10.553 25.5154 10.8965 25.3805 11.0158 25.3472L11.1467 25.3103C12.543 24.9157 13.9433 24.458 15.1558 23.6416C15.8556 23.1704 16.4601 22.5731 17.0913 22.0176C17.4345 21.7154 17.8176 21.4451 18.1358 21.1161C18.2516 20.9962 18.3464 20.8638 18.4791 20.7617C18.6056 20.6643 18.7556 20.6143 18.8611 20.4874C18.9514 20.3789 19.0615 20.2809 19.1053 20.1419C18.8381 20.1419 18.0618 20.607 17.9276 20.2085C17.7893 19.7978 18.5495 19.3542 18.7738 19.1072C18.5129 19.1465 18.2559 19.2069 18.0065 19.293C17.8555 19.3451 17.6093 19.5062 17.4428 19.5012C17.0993 19.4908 17.2268 19.0878 17.3513 18.9097C17.4919 18.7084 17.6848 18.5417 17.8776 18.3855L18.0213 18.27C18.0706 18.2302 18.5024 17.9467 18.4605 17.8586ZM27.4925 17.5292L27.4276 17.4696C27.1528 17.2185 26.7809 16.9271 26.3871 17.0185C26.5472 17.4129 26.8681 17.7569 27.1708 18.053L27.1967 18.0783C27.323 18.2012 27.7281 18.4803 27.6425 18.7025C27.5035 19.0634 26.906 18.6848 26.7317 18.5805C26.3394 18.3455 25.9198 18.1766 25.469 18.0892C25.7316 18.4016 26.014 18.6992 26.3443 18.9404L26.4537 19.0188C26.6355 19.1514 26.8513 19.3397 26.6261 19.5214C26.1447 19.9098 25.2872 19.1406 24.8228 19.0182C24.7647 19.2846 24.9073 19.4237 25.0931 19.6019C25.2997 19.7998 25.5529 19.7727 25.7381 20.0067C26.1078 20.4735 26.4941 20.9119 26.9236 21.3281C27.8451 22.2212 28.8768 22.7962 30.0478 23.2989C31.2744 23.8254 32.5973 24.1617 33.8977 24.455L34.0081 24.4799C34.2798 24.5441 35.7281 24.9212 35.7357 24.7911L35.7516 24.5189C35.8051 23.5784 35.8335 22.6109 35.4661 21.7243C35.3197 21.371 35.1504 21.2523 34.7742 21.236L34.7545 21.2352C34.2527 21.2184 33.7704 21.1727 33.2759 21.0735C32.2681 20.8714 31.2546 20.5833 30.309 20.1762C29.8952 19.998 29.4921 19.7826 29.1474 19.4901L29.1006 19.4499C28.9365 19.3074 28.7712 19.1445 28.6643 18.9571C28.5604 18.7747 28.5314 18.575 28.3983 18.4059C28.1505 18.0912 27.7929 17.8034 27.4925 17.5292ZM14.2487 13.6128C14.116 13.4609 13.7284 13.638 13.5774 13.6948L13.5691 13.6979C12.8092 13.9771 11.9976 14.2031 11.279 14.5753C10.3344 15.0645 9.43278 15.644 8.59744 16.3013C7.76115 16.9592 6.98951 17.6858 6.30232 18.4986L6.26692 18.5405C5.71059 19.2022 5.08225 20.0416 5.18405 20.9533C5.27173 21.7391 6.03707 22.0256 6.72867 22.1125C7.21484 22.1737 7.65498 22.0991 8.12759 21.9963L8.31714 21.9549C8.78068 21.8544 9.24063 21.758 9.6904 21.5998C10.2609 21.3991 10.7877 21.112 11.3288 20.8464C11.8214 20.6045 12.3378 20.4158 12.8254 20.163L12.8566 20.147C13.1353 20.0061 13.6159 19.8007 13.724 19.4962C13.7824 19.3317 13.6947 19.1172 13.6849 18.9487C13.6684 18.6648 13.6938 18.3689 13.7113 18.0836L13.7149 18.0226C13.777 16.9319 13.9118 15.8462 14.0239 14.7602L14.0395 14.6036C14.0587 14.4179 14.0834 14.2398 14.1594 14.0625L14.167 14.0457C14.2225 13.9271 14.3529 13.7321 14.2487 13.6128ZM24.6114 21.9775C24.8048 21.9175 24.568 21.1657 24.3726 21.2676C24.1677 21.3745 24.3978 22.0439 24.6114 21.9775ZM21.2494 21.2009L21.2562 21.1771C21.3371 20.9008 21.0405 21.0462 20.9487 21.1615C20.7881 21.3635 20.8044 21.7262 20.9701 21.9228C21.1453 21.7234 21.1801 21.4478 21.2494 21.2009ZM31.9983 14.4645L31.917 14.4408C31.6737 14.3711 31.5197 14.3479 31.3953 14.6257C31.2823 14.8778 31.2584 15.1742 31.2178 15.4458L31.2127 15.4796C31.144 15.9183 31.0909 16.3593 31.0203 16.7977L31.0034 16.9007C30.8628 17.7433 30.6467 18.7579 30.9706 19.5735C31.0962 19.8897 31.5299 19.9449 31.8299 20.0443L31.8459 20.0496C32.3006 20.2053 32.768 20.3349 33.2386 20.4327C34.1115 20.6142 35.0036 20.6812 35.894 20.6886C37.3767 20.7008 39.0462 20.504 40.0282 19.2583C40.3375 18.8659 39.959 18.3952 39.7053 18.0936C39.377 17.7034 39.0246 17.371 38.6156 17.0647C37.8083 16.4604 36.9304 16.0314 36.0254 15.5968C35.1102 15.1573 34.2315 14.8472 33.2244 14.6934C32.8118 14.6304 32.3997 14.5817 31.9983 14.4645ZM24.055 13.4813C23.5122 13.4728 22.9631 13.8209 22.6235 14.2225L22.5889 14.2639C22.4138 14.4724 22.3414 14.4996 22.1621 14.2703L22.131 14.2309C21.9797 14.0405 21.8091 13.8536 21.5768 13.7658C21.1364 13.5996 20.538 13.71 20.1264 13.9089C19.6732 14.1279 19.4236 14.6029 19.35 15.0857C19.1763 16.2248 20.3143 17.4653 21.2445 17.9716C21.5136 18.118 21.8139 18.1842 22.0751 18.3478L22.1268 18.3799C22.327 18.5025 22.5016 18.5831 22.7294 18.4412C22.9609 18.2968 23.2001 18.1064 23.4075 17.9279C23.6433 17.725 23.9363 17.5927 24.1618 17.3817L24.227 17.3202C24.6378 16.9305 25.0027 16.5272 25.2539 16.0112C25.342 15.8304 25.4103 15.6672 25.4317 15.4695L25.4323 15.4609C25.4345 15.3968 25.4222 15.1003 25.4224 15.1001C25.7067 14.8706 25.4604 14.3553 25.2906 14.0519L25.2574 13.9934C25.2158 13.9209 25.1436 13.7779 25.0713 13.7322C25.0427 13.7141 24.975 13.7544 24.9337 13.735C24.9001 13.7192 24.8815 13.6725 24.8481 13.6571C24.6012 13.5434 24.329 13.4856 24.055 13.4813ZM17.3406 17.058C17.5437 16.7198 16.8925 16.7259 16.8624 17.0193C16.8273 17.3621 17.2303 17.2416 17.3406 17.058ZM28.0923 16.7463L28.0899 16.7605C28.0731 16.8687 28.0591 17.1872 28.2233 17.0113C28.3493 16.8762 28.0911 16.7527 28.0923 16.7463ZM17.0474 14.5757C16.9257 14.4873 16.7213 14.5245 16.5849 14.5432C16.3553 14.5748 16.3223 14.8571 16.5171 14.9592C16.6314 15.0192 16.9022 15.0011 17.0179 14.935C17.1644 14.8514 17.206 14.691 17.0474 14.5757ZM5.08096 10.3365C4.98228 10.6552 4.48285 10.8665 4.2338 11.0602C3.36265 11.7379 2.51139 12.4435 1.72382 13.217C1.33077 13.603 1.02959 14.0669 0.691871 14.4989L0.638664 14.5666C0.550382 14.6817 0.403561 14.9026 0.241817 14.8807C0.0557062 14.8556 0.0180798 14.5351 0.0240142 14.3951C0.0443425 13.9177 0.480327 13.4567 0.791249 13.128C1.141 12.7584 1.51492 12.3982 1.8968 12.0616C2.31726 11.6911 2.77351 11.3726 3.23847 11.0608C3.69504 10.7547 4.13279 10.4009 4.6076 10.1236L4.62325 10.1148C4.84809 9.99096 5.19988 9.95235 5.08096 10.3365ZM29.1595 14.6853C29.1626 14.4143 28.6238 14.3056 28.6191 14.6221C28.6152 14.8793 29.1565 14.941 29.1595 14.6853ZM29.4828 12.3965C29.5084 11.9885 28.5669 12.3142 28.5133 12.5483C28.3997 13.046 29.4699 12.6011 29.4828 12.3965ZM17.191 11.8842C16.7981 11.8806 17.315 12.3222 17.4414 12.3778L17.4452 12.3794C17.5903 12.4378 17.7914 12.4519 17.7425 12.2396C17.6899 12.0116 17.3682 11.9529 17.191 11.8842ZM35.5324 7.31017C35.8961 7.32163 36.2509 7.4409 36.5938 7.55162C37.3482 7.79522 38.0666 8.13314 38.7751 8.48633C40.0171 9.10541 41.2124 9.85447 42.308 10.7061C42.5207 10.8714 42.7384 11.0076 42.9678 11.1427L43.0506 11.1911C43.2073 11.2812 43.4113 11.3924 43.469 11.5709C43.625 12.0539 42.8376 11.5691 42.7259 11.4998L42.333 11.2564C40.0803 9.86356 37.8202 8.52586 35.2723 7.72523C35.1318 7.68109 35.0881 7.5558 35.1618 7.43159C35.2417 7.29699 35.3974 7.30592 35.5324 7.31017ZM4.97487 8.3211C4.95851 8.46384 4.8011 8.49956 4.68913 8.5447L4.67908 8.54883C4.25986 8.72493 3.83018 8.8751 3.4121 9.05411C2.63613 9.38633 1.92353 9.86848 1.1136 10.1206C0.928514 10.1783 0.901204 9.99153 0.950755 9.86442C1.00595 9.72255 1.17171 9.62294 1.29159 9.54088C1.63744 9.30396 2.02967 9.13363 2.41372 8.96907C2.79448 8.80578 3.18652 8.68228 3.57691 8.54541C3.93974 8.41817 4.36086 8.18138 4.75049 8.16389L4.80883 8.16112C4.91335 8.15723 4.99227 8.16804 4.97487 8.3211ZM21.1618 6.20772L21.1923 6.13757C21.2711 5.95321 21.5792 5.13307 21.8111 5.17945C22.0332 5.22382 21.4736 6.68094 21.4175 6.84201L21.4159 6.84649C21.085 7.8172 20.9291 8.83946 20.9291 9.86506C20.6993 9.65815 20.5599 9.60704 20.5377 9.26939C20.51 8.84629 20.576 8.42238 20.6543 8.00782L20.6634 7.96002C20.7776 7.3634 20.9223 6.7666 21.1618 6.20772ZM25.8574 0.277437C26.3612 0.284568 26.8354 0.42561 27.3053 0.592639L27.6315 0.709585C27.9963 0.841098 28.3633 0.986586 28.6544 1.24648C29.2924 1.81624 29.4586 2.75964 29.563 3.56678C29.6932 4.57396 29.2598 5.41898 28.8951 6.33017C28.5539 7.18239 27.9278 7.87277 27.1835 8.39884C26.8066 8.66522 26.3914 8.82952 25.9568 8.97194L25.9118 8.9866C25.4538 9.13474 25.0103 9.33315 24.5203 9.33239C23.7762 9.33132 22.8235 8.97789 22.5065 8.24476C22.3641 7.91542 22.499 7.85269 22.78 8.02534L22.7915 8.03246C23.2105 8.29566 23.6143 8.57969 24.1039 8.69644C25.0533 8.92295 26.1904 8.57205 27.023 8.10906C27.8552 7.6462 28.4139 6.9509 28.7873 6.0851C29.164 5.21167 29.3104 4.35099 29.1651 3.40935C29.042 2.61138 28.797 1.88248 28.078 1.4493C26.5256 0.514297 24.4341 0.589631 23.0536 1.80475C22.8958 1.94357 22.7396 2.07927 22.579 2.2127L22.4488 2.31975C22.3335 2.41541 22.2135 2.53032 22.23 2.68974L22.2313 2.69943C22.2581 2.86271 22.5568 3.41312 22.1802 3.23943C21.8686 3.09564 21.6992 2.81458 21.3217 2.77979C20.92 2.74272 20.4407 3.05138 20.3205 3.43985C20.2059 3.81052 20.4103 4.31765 20.7305 4.53026C20.9102 4.64958 21.1062 4.64406 21.309 4.63803L21.3721 4.63628C21.4839 4.63363 21.795 4.59732 21.8689 4.71547C21.9998 4.92442 21.5381 5.14404 21.3892 5.19026C21.0266 5.30272 20.5982 5.17037 20.3898 4.84675C20.1779 4.51776 20.0329 4.13699 20.0037 3.74504C19.9758 3.36951 20.0611 2.98931 20.2826 2.68096C20.5182 2.35305 20.9986 1.98541 21.4292 2.09933C21.6161 2.14877 21.7662 2.34187 21.9496 2.37856C22.0654 2.40167 22.0167 2.41821 22.1126 2.3324C22.1735 2.27797 22.231 2.1775 22.2873 2.11297L22.4953 1.87222C22.7509 1.57676 23.0148 1.28229 23.3255 1.04895C24.0348 0.516444 24.9775 0.264934 25.8574 0.277437ZM24.1796 7.84664C24.2698 7.96266 24.4819 8.05293 24.4727 8.22407C24.4576 8.50659 24.0725 8.45418 23.9441 8.3068C23.798 8.13901 23.8133 7.82803 23.8961 7.63384C23.98 7.4372 24.1341 7.78798 24.1796 7.84664ZM26.6319 6.29617C26.8397 6.61992 26.5865 6.96938 26.4223 7.25592C26.2652 7.52989 26.1193 7.8396 25.9365 8.09717C25.633 8.52481 24.9727 8.0622 24.9531 7.62268C24.9385 7.29545 25.1636 7.42504 25.3166 7.54799L25.3504 7.57539C25.4938 7.69035 25.5689 7.71358 25.7265 7.57865C26.0585 7.29415 26.2077 6.81845 26.4373 6.45827C26.4828 6.38685 26.5652 6.3439 26.6319 6.29617ZM27.2242 6.40027C27.2777 6.55683 27.1653 6.97169 27.4778 6.93021C27.6504 6.90731 27.6872 6.6596 27.778 6.55148C28.0832 6.18804 27.9896 6.87544 27.9099 7.04749C27.7341 7.42667 27.2421 7.68793 26.9981 7.20689C26.9105 7.03411 26.9078 6.81761 26.9492 6.62975L26.9539 6.60973C26.979 6.50497 27.1253 6.11114 27.2242 6.40027ZM36.3941 5.76432C36.6399 5.78274 36.8775 5.89878 37.1106 5.96878C37.7986 6.17537 38.4381 6.40064 39.0806 6.71487L39.1622 6.75532C39.281 6.81614 39.6752 7.03749 39.3969 7.13763C39.1963 7.20974 38.728 6.90032 38.5559 6.8261C37.7993 6.49988 36.9864 6.30955 36.1943 6.08681C35.8236 5.98253 36.1738 5.74784 36.3941 5.76432ZM24.4382 5.65876C24.4106 5.84144 24.2389 6.20539 24.4485 6.33607C24.6091 6.4362 24.8732 6.25994 25.0327 6.14378L25.1122 6.0851C25.2665 5.96799 25.5788 5.69101 25.5915 6.06461C25.5982 6.26185 25.4007 6.4985 25.2598 6.61213L25.2402 6.62756C24.9328 6.86342 24.33 7.06213 24.1132 6.61571C23.9925 6.36724 24.0585 6.01351 24.1383 5.76313L24.1426 5.75027C24.2154 5.54627 24.5036 5.22671 24.4382 5.65876ZM28.3283 4.59794L28.4371 4.72415C28.5724 4.88348 28.7719 5.14591 28.6353 5.32123C28.4535 5.55449 28.1596 5.13545 28.0383 5.00816L28.0334 5.0031C27.9271 4.89433 27.7033 4.58458 27.7987 4.42028C27.9359 4.18418 28.1927 4.44384 28.3283 4.59794ZM26.458 4.04697C26.8539 4.30485 26.3426 4.49126 26.1113 4.51758L26.0565 4.52303C25.7888 4.54807 25.4619 4.55737 25.2232 4.42985C24.8643 4.23812 24.9839 3.94852 25.3318 3.87919C25.6884 3.80816 26.1477 3.84478 26.458 4.04697ZM21.26 3.21774L21.3235 3.23034C21.6008 3.28684 21.897 3.37231 21.99 3.66997C22.0918 3.99625 21.9493 4.10784 21.658 4.0399L21.5754 4.01996C21.3018 3.95521 20.939 3.87643 20.7944 3.62671C20.6067 3.30242 20.9873 3.16475 21.26 3.21774Z" fill="#212529"/>
</g>
</g>
<defs>
<clipPath id="clip0_1141_49346">
<rect width="45" height="32.8125" fill="white"/>
</clipPath>
<clipPath id="clip1_1141_49346">
<rect width="45" height="32.7273" fill="white"/>
</clipPath>
</defs>
</svg>
