<svg viewBox="76.8 51.2 870.4 665.6" xmlns="http://www.w3.org/2000/svg" overflow="visible" width="870.4" height="665.6"><g fill="none" fill-rule="evenodd"><path d="m350 354.115 9.42 95.106 51.283-29.263v91.205c0 1.68-.997 7.45 0 8.905.846 1.233 7.11 1.269 8.59 1.477a1004.475 1004.475 0 0 0 29.057 3.628c25.57 2.824 52.94 6.87 78.608 3.625 22.312-2.821 43.943-10.757 64.328-19.991a355.91 355.91 0 0 0 21.14-10.42c1.468-.786 6.799-2.642 7.597-4.242.652-1.308-.878-5.901-1.082-7.275l-2.584-17.378-12.03-80.888 22.726 22.695c1.78 1.778 5.161 6.826 7.625 7.614 1.806.578 6.28-1.21 8.065-1.554l38.606-7.44c2.998-.578 9.755-.556 12.282-2.367 1.36-.976 1.425-2.96 1.905-4.842l9.416-36.888c.566-2.215 3.72-9.198 2.918-11.429-.288-.8-1.68-1.346-2.531-1.867l-58.268-35.589-31.92-19.495c-4.456-2.723-9.931-7.628-14.981-9.15-3.135-.946-7.696-.238-10.94-.33l-19.777-.565c-1.032-.03-4.647-.765-5.516-.157-.723.506-.423 1.211-.66 2.417-.58 2.946-.584 6.122-.87 9.112-.229 2.4.226 6.8-.855 8.971-.69 1.388.185.835-.75 1.506-1.112.799-4.664.542-5.988.695l-19.38 2.251c-7.68.892-15.446 2.566-23.162 1.795-11.698-1.168-24.311-1.11-35.798-3.574-2.985-.641-4.06-2.323-6.363-4.622-4.494-4.488-8.943-9.028-13.487-13.468-2.227-2.176-1.273-1.807-3.569-.982-2.877 1.034-5.795 3.53-8.399 5.116l-29.932 18.232-60.912 37.104-3.812 2.322" fill="#c37979"/><path d="M532.446 52.988c34.801-.392 69.85 7.082 97.402 29.494 22.468 18.278 38.128 47.947 38.908 77.18.382 14.3-3.74 28.38-13.197 39.287-10.965 12.644-26.828 18.845-42.087 24.588-8.47 3.188-16.92 6.435-25.55 9.165-7.964 2.521-16.819 3.57-24.289 7.428-6.755 3.488-9.512 9.944-14.127 15.553-2.076 2.523-4.125 6.239-6.679 8.252-2.395 1.89-5.83 2.346-8.572 3.549-8.083 3.543-2.457 8.895 3.22 12.18 3.714 2.15 7.158 4.137 11.38 2.336 3.602-1.537 6.267-3.891 10.184-4.885 8.041-2.038 17.5-2.034 25.205 1.194 7.912 3.315 16.43 3.97 24.05 8.02 16.4 8.71 31.767 19.942 47.236 30.187 8.324 5.514 16.35 11.752 25.036 16.677 7.024 3.98 14.37 7.34 21.57 10.973 7.07 3.57 10.129 8.611 14.93 14.52 1.956 2.407 2.554 5.771 4.82 7.87 2.41 2.233 6.59 3.045 9.543 4.463 16.188 7.77 34.254 16.475 52.334 18.166 7.593.712 15.57 1.28 23.203 1.092 2.527-.062 6.272-.14 6.702-3.123.392-2.723-2.448-7.898-3.342-10.337-5.612-15.306-12.133-29.646-10.136-46.374 1.577-13.202 6.673-28.01 17.729-36.227 1.576-1.172 3.006-2.054 4.87-2.575 1.157-.322 2.803-.01 3.855-.613 2.143-1.228 1.76-2.898 1.661-5.334-.222-5.47-.892-11.272 3.383-15.607 5.124-5.195 14.524-1.811 19.9 1.317 6.175 3.594 10.972 9.122 14.913 15.002 4.828 7.198 9.84 14.927 13.024 23.02 3.375 8.576 4.121 18.022 8.391 26.274 1.09-8.903 1.985-17.821 3.476-26.671 1.15-6.83 1.99-15.21 6.363-20.886 4.914-6.378 10.619-.999 12.877 4.68 2.82 7.088 2.362 15.036 2.887 22.503 2.619-6.342 7.796-24.819 17.144-23.477 6.2.889 9.477 10.076 10.811 15.2 1.906 7.32 2.125 14.97 2.356 22.49 1.11 36.19-12.61 71.706-31.465 102.024-16.548 26.606-39.096 47.131-69.737 55.782-15.386 4.344-31.69 6.227-47.634 4.76-17.261-1.587-33.759-7.185-49.8-13.487-15.298-6.01-30.699-11.606-44.607-20.436-2.195-1.393-10.566-8.445-13.34-7.753-4.542 1.134-2.126 8.45-8.74 7.168-5.179-1.003-9.825-6.025-13.54-9.406-4.949-4.503-9.78-9.13-14.703-13.66-13.137-12.09-26.33-24.028-39.169-36.448-1.952 11.915 1.817 24.107 3.515 35.83 1.781 12.298 4.536 24.24 8.68 35.966 2.147 6.073 4.361 12.044 5.771 18.34.636 2.846.867 5.744 3.277 7.658 3.863 3.067 10.378 4.089 14.891 5.937 5.608 2.298 11.144 4.772 16.819 6.905 11.887 4.471 21.984 11.24 32.932 17.531 21.406 12.302 44.284 22.04 64.652 36.133 19.11 13.224 38.609 26.724 52.285 45.895 11.26 15.786 23.267 34.91 23.655 54.925.427 22.098-19.724 37.312-37.097 47.413-10.873 6.321-21.21 3.641-33.1 3.474-13.432-.189-26.893 1.407-40.355 1.323-26.635-.165-52.652-2.197-78.891-6.723-12.812-2.211-25.793-2.99-38.517-5.783-12.412-2.727-24.177-7.434-36.157-11.563-11.406-3.93-22.719-7.547-33.627-12.781-5.429-2.605-10.919-5.317-16.126-8.344-4.015-2.334-7.399-5.684-11.64-7.638-5.252-2.419-9.334.526-14.573 1.634-5.69 1.204-11.293 2.929-16.981 4.217-12.653 2.864-24.715 7.828-37.313 10.907-6.495 1.586-13.126 2.036-19.685 3.234-5.99 1.094-11.844 2.838-17.82 4.02-13.27 2.626-26.807 4.21-40.005 7.129-12.392 2.74-23.946 7.187-36.544 9.177-13.13 2.074-25.998 5.708-39.09 8.03-12.397 2.2-25.758 5.238-38.368 5.064-11.718-.162-24.439.3-35.691-3.43-21.641-7.174-32.419-30.556-28.374-52.339 4.169-22.458 21.48-40.258 38.605-54.025 19.732-15.862 41.54-29.657 63.02-43.013 22.634-14.075 46.463-24.736 70.893-35.204 5.208-2.232 10.288-4.863 15.638-6.729 3.508-1.222 7.467-2.075 10.635-4.096 4.492-2.866 1.812-6.364 2.972-10.73 1.139-4.279 5.108-7.955 6.633-12.35 3.683-10.615 3.913-22.074 7.237-32.796 1.803-5.812 4.07-11.486 4.885-17.557.858-6.384.405-12.856.405-19.273-10.59 6.588-19.693 15.26-30.252 21.925-4.635 2.925-8.816 6.447-13.363 9.431-5.521 3.627-5.174-1.34-9.303-3.43-1.08 2.535-1.742 5.209-2.636 7.81v-.002l-.074-.182c-.86-2.079-1.784-2.1-2.774-.062l-.085.18.232-2.613c-1.378 1.796-4.474 2.67-3.413 5.51-3.617 0-4.497.205-7.677 2.836-3.208 2.655-5.747 5.044-9.506 6.952-9.367 4.76-18.323 10.239-27.846 14.703-18.092 8.479-37.487 14.78-57.391 17.222-8.938 1.095-17.938 1.527-26.891 2.461-9.073.946-17.907 2.035-27.058 1.435-16.886-1.108-33.31-6.26-48.115-14.403-26.871-14.778-47.005-39.25-55.762-68.704-5.347-17.987-6.198-36.462-5.337-55.1.444-9.594 2.275-19.045 2.068-28.653-.188-8.696.507-16.845 3.515-25.077 2.086-5.707 6.244-15.042 12.883-16.56 7.827-1.79 9.545 9.57 10.004 14.958.795 9.32-.94 18.691-.96 28.02-.006 3.692.02 7.3-.273 10.976-.158 1.976-1.02 6.226.66 7.882 4.123-23.014 6.358-45.827 16.197-67.336 2.096-4.582 7.07-15.292 13.337-9.763 7.43 6.554 1.061 18.428 4.864 26.431 6.963-13.142 16.31-29.403 31.526-33.98 8.213-2.47 18.614-.729 25.724 4.012 6.554 4.369 14 13.69 16.51 21.212.986 2.957.3 7.324 2.1 9.86 1.81 2.552 5.813 3.322 7.836 6.155 5.857 8.2 6.86 19.811 5.985 29.518-.971 10.785-5.202 20.326-11.233 29.218-3.099 4.566-6.581 8.974-10.675 12.693-3.176 2.885-7.254 5.126-9.555 8.859 7.99 1.968 16.496-.496 24.496-1.25 9.28-.875 18.395-1.94 27.585-3.562 18.772-3.31 36.869-7.788 54.824-14.202 8.479-3.03 16.497-6.511 24.06-11.447 5.348-3.491 13.904-6.725 15.627-13.341.967-3.716 1.278-6.255 4.107-9.047 2.85-2.815 6.403-4.897 9.682-7.163 7.543-5.209 14.248-11.67 21.185-17.653 13.477-11.624 26.194-25.759 41.738-34.645 7.4-4.232 15.435-6.795 24.015-6.2 9.563.662 19.066 2.24 28.632 2.985 5.485.427 11.493 1.688 13.724-4.69 1.027-2.935 1.497-7.665.425-10.64-1.146-3.179-4.037-4.15-6.905-5.47-1.916-.882-5.579-3.67-7.763-2.875-1.393.508-1.564 1.986-2.488 2.978-5 5.368-9.22-2.375-14.858.02-8.315 3.532-16.033 8.736-24.453 12.275-5.74 2.413-11.584 4.717-17.629 6.249-11.456 2.904-24.414 2.583-27.92-10.903-2.224-8.562-.78-17.678-.796-26.4-.015-7.985-4.503-6.925-11.029-6.195-21.046 2.35-49.042 3.832-66.891-9.642-22.092-16.678-16.66-48.939 1.454-66.047 22.43-21.187 53.25-29.328 83.318-28.888 18.05.264 36.645 1.924 54.298-2.844 4.156-1.121 7.392-3.154 11.061-5.275 2.92-1.688 6.811-2.358 8.979-5.066 3.873-4.84 1.444-12.087.734-17.579-1.751-13.532.207-28.524 11.978-37.095 13.629-9.923 33.12-12.06 49.453-12.245Zm95.969 451.258c-3.1-1.31-7.676-2.539-10.512-.017-2.207 1.963-3.59 5.189-5.901 7.315-.147-1.304-.418-2.647-1.69-3.333 1.114 3.22-2.12 4.049-3.84 5.903-1.883 2.03-1.815 4.822-5.193 4.174-2.063-.394-4.134-3.654-4.985.875-.423 2.26 2.192 3.314-1.2 4.466 1.335-7.452-6.552 1.245-8.386 2.136-1.204.585-2.52-.214-3.64.456-1.086.65-1.877 2.934-2.783 3.787-.81.762-1.273-.036-2.222 1.32-.692.986-.548 2.77-1.064 3.902l-2.583-1.947c-.17 4.326-5.53 1.214-4.392 4.572-4.446-2.847-10.781 3.766-14.12 5.944-3.99 2.603-8.508 4.56-12.753 6.717-7.159 3.639-14.646 5.259-22.588 5.92-3.686.306-7.632 1.09-11.327.622-3.04-.385-4.99-2.209-7.737-3.307.722 5.524-6.26 2.51-7.137-.85a5.127 5.127 0 0 1-1.051 1.632c-.232.125-.655-3.799-3.024-2.005-2.713 2.053 1.131 3.1-3.662 3.37-6.483.365-9.135-6.811-15.89-5.91l1.305 2.5c-1.94.611-7.43.038-7.257-2.806-.125.197-1.26 2.36-1.858 2.549-.136.044-1.071-2.396-1.272-2.614-2.763 2.136-4.255 2.547-6.756-.1-.754-.799-2.549-4.53-3.972-3.658-.032.019.721 3.089.7 3.333-4.498-1.056-8.037-4.18-10.595-7.916-.282 1-.57 5.271-2.063 5.385l-1.045-3.243c-1.708 1.556-5.53.493-7.322-.39-2.917-1.439-2.795-3.14-3.839-5.878l-4.664 2.126-.613-3.665c-5.307 3.391-12.272-3.944-16.065-6.92-4.823-3.784-8.2-9.35-14.3-5.9-12.292 6.95-24.5 13.742-37.137 20.075-26.326 13.194-52.897 26.586-77.401 43.006-10.828 7.256-21.244 15.102-32.07 22.368-10.115 6.79-19.756 14.422-28.336 23.094-13.806 13.953-29.28 36.717-16.667 56.231 12.542 19.405 46.19 15.232 65.532 12.24 25.904-4.008 51.399-11.097 77.404-14.279 5.823-.712 11.42-3.785 17.215-5.069 5.921-1.311 11.908-2.3 17.896-3.253 13.078-2.082 26.02-4.765 39.053-7.091 12.908-2.302 25.43-4.908 38.005-8.696 12.318-3.71 25.212-5.352 37.412-9.375 12.259-4.042 24.215-8.688 36.645-12.274 12.425-3.584 24.945-6.834 37.323-10.581 25.106-7.603 49.91-15.238 75.94-19.205-4.391-4.292-13.334-4.43-18.952-6.606-17.84-6.912-36.777-14.373-52.798-24.966-7.67-5.07-12.48-7.885-21.773-5.221-8.76 2.511-17.752 4.945-26.67 6.832-37.226 7.875-73.499 19.38-109.597 31.307-4.13 1.364-7.542 1.775-10.582 5.2-2.387 2.688-3.962 6.023-5.982 8.975-5.13 7.5-11.487 14.57-17.937 20.946-6.286 6.211-12.573 12.446-19.142 18.358-5.04 4.538-11.031 10.23-17.94 11.497-7.363 1.35-8.962-5.578-14.66-8.085-3.318-1.459-5.62-1.36-7.233-5.229-1.27-3.041-1.563-7.386-1.844-10.666-.745-8.678 2.72-18.166 5.84-26.143 2.807-7.182 5.953-15.08 10.586-21.254 2.07-2.76 3.212-5.914 5.168-8.754 2.331-3.38 5.077-6.399 7.327-9.857 4.686-7.206 9.412-14.433 15.13-20.883 5.264-5.936 11.95-11.493 19.494-14.222 7.69-2.782 16.117-2.058 24.053-.838 9.423 1.45 17.938 4.845 26.672 8.531 4.32 1.824 8.779 3.327 12.849 5.673 3.13 1.803 6.005 3.738 9.503 4.78 7.73 2.308 16.792 3.617 24.792 4.378 8.117.771 18.204-4.029 26.025-6.207 18.887-5.262 38.103-8.727 57.35-12.347 18.223-3.427 39.401-9.147 57.664-3.12 14.97 4.94 25.886 17.674 36.476 28.684 5.712 5.938 11.163 12.096 16.773 18.11 5.494 5.89 11.414 4.098 18.593 3.051 5.06-.738 16.931.213 14.842 8.452-1.403 5.534-13.485 4.765-17.718 5.279-9.52 1.154-19.196 1.943-28.464 4.519-9.726 2.702-18.774 5.284-28.884 6.202-19.648 1.785-37.854 7.055-56.495 13.336-17.71 5.967-36.075 10.305-53.356 17.487 19.528 8.285 42.096 10.168 61.821 15.094 4.648 1.16 8.449 4.088 12.97 5.418 5.175 1.523 10.557 2.812 15.847 3.93 12.374 2.615 24.916 4.444 37.46 6.014 22.236 2.783 44.395 5.026 66.462 9.03 22.886 4.153 44.52 5.93 67.743 4.047 4.343-.351 9.27-.023 13.494-1.213 3.472-.98 6.02-3.727 8.699-5.987 7.073-5.97 15.43-12.272 20.333-20.273 5.105-8.331.832-19.448-3.108-27.457-4.333-8.81-9.862-17.71-15.768-25.555-11.49-15.264-27.663-26.288-43.195-37.024-8.71-6.02-17.739-11.506-26.803-16.97-8.906-5.367-18.741-8.984-27.527-14.55-8.622-5.46-17.755-10.198-26.202-15.919-9.24-6.26-18.11-12.334-28.355-16.88-9.246-4.1-17.197-10.71-26.5-14.64Zm-198.462 70.61c-16.675-3.8-39.48-13.78-54.61-.862-3.598 3.072-5.898 7.316-9.183 10.567-3.019 2.987-4.084 6.72-5.988 10.469-5.065 9.98-9.782 20.058-14.464 30.23-3.293 7.157-7.085 14.902-9.139 22.565-2.004 7.477 4.219 4.261 8.327 1.817 5.484-3.264 10.247-7.525 15.586-10.987 8.438-5.47 14.849-12.318 21.828-19.556 7.548-7.83 14.209-15.69 22.602-22.762 8.372-7.053 15.923-15.382 25.041-21.482Zm186.29-9.282c-14.052-4.805-28.489-.398-42.507 2.17-.406 3.135 19.598 9.723 22.156 10.775 14.817 6.087 28.98 13.65 44.194 18.783 3.831 1.293 7.236 2.928 10.314 5.543 1.84 1.565 3.192 2.99 5.54 3.6 1.817.472 9.51 1.1 10.5-1.202 1.429-3.321-14.54-13.748-17.12-16.038-9.897-8.775-20.294-19.26-33.077-23.631Zm-157.689 13.661c-4.605-1.505-8.815-3.212-13.452-.867-4.123 2.084-7.264 5.814-10.92 8.56 4.016-.16 7.489-2.333 11.224-3.554 4.383-1.434 9.012-1.971 13.148-4.139Zm149.541-94.1c-1.388-2.33-1.838-1.93-4.638-1.716-2.893.222-5.51.262-8.42.17-2.566-.082-3.533 1.236-5.431 1.533-.67.104-2.35-.928-3.14-1.086-1.613-.324-3.664.072-5.322.065-3.602-.017-7.195.066-10.793.257-3.71.198-8.47-.693-12.04.077-2.289.493-1.782 1.882-2.886 2.193-.841.238-.796-.295-1.559-.246.693-.044-1.527-1.42-1.438-1.395-1.708-.465-4.74.586-6.73.334-2.678-.342-3.46.415-5.822.775-4.285.654-9.16-.28-13.523-.077-5.096.237-10.143.73-15.242.86-2.896.075-8.09-.276-10.115 2.3-1.456-3.4-9.234-.368-12.155-.364-6.404.007-12.745-.125-19.152.193-3.041.151-6.098.312-9.124.655-2.363.267-5.208 1.723-7.514 1.711-1.354-.006-2.05-.893-3.727-.994-1.126-.067-2.559.331-3.716.43-3.474.297-6.961.374-10.42.847-2.742.375-5.093 1.758-7.528 2.337-1.6.38-4.783-.323-7.182.031-1.46.215-6.028 1.057-4.311 3.492 1.513 2.146-1.187 3.432-.463 5.318.822 2.143 4.324 1.661 6 1.503 3.296-.312 6.474-1.087 9.723-1.615 3.092-.5 5.676.112 8.74.388 6.97.627 13.882-1.768 20.911-1.509 1.646.061 4.812.574 6.062.083 1.692-.665 1.558-1.212 2.611-3.227 2.334 5.03 3.899 1.838 7.65 1.619 2.378-.14 1.629 1.107 3.312 1.483 1.361.304 3.65-.713 5.045-1.327.618-.273 2.773-2.04 3.405-1.897.551.123.495.993.87 1.122.415.142.431 1.244 1.034 1.386.837.198 1.21-.949 1.792-1.048 2.634-.446 3.841.768 5.293-1.947.35 2.212.712 2.415 2.749 2.824.785.159 1.455-.945 1.79-.873 1.857.401 2.038 1.154 4.001.86 1.53-.23 8.382-4.798 8.923-1.353l3.783-1.85c-.806 4.272 7.424 1.965 9.906 1.433.964.386 1.75.193 2.355-.582l.577-.992c1.677-.168.88.195 1.959.304.087.008.374 1.01 1.142 1.068 1.041.077 1.225-.544 1.959-.91 1.978-.99 1.322-1.682 4.474-1.322 1.215.138 2.44.623 3.671.626.478.001.964-.116 1.444-.269-1.302-.891-.762-3.62-.83-4.813.753.016 2.737.471 1.603 1.679-.636.959-.8 1.973-.49 3.04.777-.264 1.53-.576 2.196-.571l-.095.004c.012.055 3.431.387 3.141.627l-.008.004.053-.018c.474-.162 1.463-.522 1.258-.588l-.049-.008c.133.01.821-.656 1.688-.545 1.004.13 1.286 1.832 2.479 1.855-.992-3.154 2.965-2.87 4.43-4.672-.273 5.515 2.742 2.372 3.865-.657.675 1.686.137 4.025 1.757 5.059 1.778 1.134 5.447-.841 6.438-2.253 1.075 4.252 3.78-1.544 4.072 1.959 1.09-1.135.334-3.584 2.23-3.555 1.415.021 1.59 2.319 2.627 2.94 2.087 1.247 2.27-.173 4.003-.522 1.97-.395 3.54.533 5.617.493 1.993-.04 4.046-.548 6.068-.61 1.922-.058 3.31-.992 5.076-1.144 1.434-.122 3.836 1.579 5.034.825 1.938-1.22-.085-3.422-1.73-3.314 2.532-1.571 2.153-4.581.777-6.893ZM189.579 289.108c-13.385-1.827-24.495 8.035-31.71 18.394-8.057 11.569-12.986 25.747-15.196 39.59-1.167 7.316-2.763 16.485-1.511 23.855.473 2.784 6.039 10.004.976 10.795-5.471.855-8.652-9.395-9.16-12.888-.986-6.788-.374-14.005-.34-20.838.087-17.035 2.293-33.716 3.124-50.689-4.106-1.105-9.7 22.226-10.394 25.412-1.902 8.738-2.869 17.668-4.237 26.499-1.37 8.834-3.304 17.661-4.345 26.538-.56 4.78-2.006 13.431-8.19 7.446-4.177-4.044-6.384-11.318-7.29-16.778-3.004-18.126 1.761-36.717.25-54.961-8.784 3.548-9.044 17.395-10.288 25.187-1.807 11.327-2.724 22.782-3.056 34.244-.551 19.058.75 37.793 7.618 55.757 6.391 16.721 17.231 31.327 30.556 43.204 6.816 6.075 14.73 9.872 22.847 13.883 3.759 1.858 8.755 5.039 13.006 5.31 3.941.252 7.096-1.515 11.1-.847 3.594.6 5.978-1.563 7.955 1.864 1.346 2.335 1.383 3.541 4.403 1.306.178-.132-.727-1.02.167-1.494.512-.27 3.723-.097 3.98-.057.767.12 1.094-.18 1.868.074.849.28.533 1.744 1.008 1.875 1.115.306 2.315-1.076 3.654-.795 1.276.268 1.97 2.078 3.476 2.393a15.092 15.092 0 0 1-1.155-2.523c2.177.391 4.504.789 6.721.75 2.337-.039 4.152-1.085 6.41-1.338 1.874-.212 3.65.469 5.553.27 2.667-.279 5.434-1.466 8.082-1.998 5.192-1.043 9.841-2.277 14.815-3.986 4.058-1.397 4.936 2.42 8.533 1.716-1.413-3.976.889-4.214 4.25-4.871 3.45-.672 6.618-1.967 10.06-2.697a8.985 8.985 0 0 0 2.633.082 12.718 12.718 0 0 0 2.364-1.963c1.621-.73 3.657-.072 5.294-.76 1.39-.582 2.121-2.457 3.859-2.17 1.544.256 1.839 2.186 2.999 2.974 0-4.648 2.822-4.736 6.468-5.734 1.949-.534 4.429-2.705 6.306-2.861 1.368-.114 2.037 1.318 2.692 1.141-.28-4.286 7.817-6.603 10.745-7.792 5.8-2.355 11.755-4.838 17.303-7.73 3.33-1.737 6.419-3.568 9.942-4.903 2.372-.899 3.803-2.295 5.8-3.27 1.205-.59 2.859-.116 4.016-.832.636-.392.84-1.456 1.44-1.923 1.724-1.343 3.771-1.921 5.728-2.91 4.37-2.207 2.77-7.58 2.328-11.426-.719-6.253-.785-12.631-1.048-18.918-.54-12.952-2.01-25.814-3.175-38.72-28.842 20.858-63.553 32.202-98.727 36.809-17.114 2.24-36.446 5.192-53.589 1.983-3.465-.65-12.12-1.772-13.133-5.721-.925-3.604 4.582-7.96 6.74-9.897 7.293-6.545 14.341-11.5 20.401-19.424 6.953-9.092 13.03-19.785 14.655-31.285 1.118-7.905-.441-20.07-11.477-17.917-8.614 1.68-6.18 13.501-5.675 19.727 1.26 15.554-10.041 35.87-25.045 41.518-22.585 8.501-28.717-29.43-26.423-43.922 1.702-10.748 6.916-22.208 16.066-28.617 5.333-3.737 12.167-5.377 18.544-4.014 5.208 1.114 12.786 4.853 17.471.182 5.147-5.131-3.734-9.788-5.989-13.886-2.873-5.222-7.335-6.642-13.053-7.423ZM585.893 490c1.543 1.316 1.34 1.266.21 3-1.364-1.408-1.497-.857-.21-3Zm-332.988-7.174c.384-1.445-1.109 2.923.272 2.202 1.882-.728 1.79-1.462-.272-2.202ZM836.72 283.135c8.903 16.77 22.983 29.64 28.377 48.313 4.398 15.22 8.776 35.145.092 49.666-3.558 5.952-9.589 11.834-17.066 11.094-7.058-.7-11.84-7.275-15.145-12.922-8.634-14.748-10.891-32.677-10.028-49.503.217-4.245 6.875-25.053 1.938-25.45-4.496-.36-9.103 8.324-10.937 11.516-3.882 6.752-5.654 14.11-4.894 21.892.874 8.97 4.522 17.417 7.449 25.846 1.508 4.341 2.744 8.727 3.643 13.237.509 2.548.259 7.442 1.854 9.535 1.832 2.402 5.216.887 6.377 4.106.915 2.536-1.044 5.736-2.677 7.482-4.576 4.89-12.618 7.835-19.025 9.107-8.487 1.684-17.62.248-26.088-.938-9.325-1.307-18.548-3.395-27.514-6.284-16.524-5.323-32.486-13.577-43.986-26.905-3.33 15.513-8.608 30.5-13.04 45.71-1.302 4.47-5.861 13.421-2.566 17.626 3.09 3.943 10.62 6.682 15.016 8.784 5.562 2.66 11.39 4.46 16.89 7.359 5.411 2.853 10.698 5.819 16.45 7.948 12.216 4.523 25.21 8.572 37.816 11.852 5.131 1.335 10.513 1.654 15.562 3.306 1.9.622 3.604 2.03 5.426 2.592 2.338.721.538-.027 2.622-.067 1.163-.022 2.186-.194 3.409-.06 12.848 1.407 24.882-1.382 37.251-5.076 50.879-15.195 76.132-67.174 88.69-114.845 2.176-8.269 3.092-16.608 3.28-25.137.156-6.96.572-14.352-1.881-21-.544-1.472-1.842-5.64-3.6-6.25-2.421-.838-3.592 1.99-4.68 3.771-3.926 6.42-5.837 13.756-7.687 20.985-1.76 6.885-2.405 14.87-5.563 21.272-3.185 6.455-5.754 1.166-6.225-3.621-.72-7.326.749-14.956.69-22.327-.04-4.973-.335-9.94-.545-14.91-.085-2.015.289-10.69-2.044-11.855-3.026-1.514-3.872 4.094-4.297 6.115-2.515 11.958-3.448 24.29-5.548 36.33-1.186 6.806-2.665 13.58-4.03 20.351-.597 2.953-1.987 12.63-6.04 12.992-3.664.327-3.787-7.672-3.794-10.312v-.257c-.01-7.002.995-13.964-.461-20.898-2.883-13.723-8.73-27.883-16.24-39.677-6.821-10.713-13.939-19.157-27.231-20.493ZM601.797 443.226c-2.164-1.547-4.6-.452-6.863.073-3.467.807-6.275-.122-9.762-.297-7.73-.387-15.94.28-23.669.774-13.525.866-26.905.833-40.888.783-3.212-.012-20.096-2.134-20.672 2.222-3.916-3.185-9.346-1.77-13.845-1.08-4.817.74-9.312-.18-14.128-.058-5.859.149-11.72.47-17.565.92-2.784.215-30.833 2.022-30.174 5.303 1.125 5.59-4.316 10.166 4.815 8.84 3.14-.457 6.185-.286 9.245-1.018 3.237-.775 2.504-1.144 5.056.129-.167-.083 3.488-1.444 3.255-1.452 1.268.046 2.485 1.412 3.835 1.23l1.48.183.357-1.295c.408-.074 1.556.914 1.831.714-.104.076 1.823-1.948 1.175-1.783 2.047-.524 1.992.399 4.015 1.213 1.964.788 4.446.454 6.538.285 6.206-.505 11.96-1.898 18.244-1.717 1.51.043 3.262.337 4.76.027.438-.09.963-.923 1.426-.855 2.514.37 1.283-.316 1.086 1.636.005-.043 3.324-1.447 3.61-2.549 4.052 3.414 8.783 1.961 13.37 1.098 2.913-.548 6.469 1.858 7.824-.823a10.267 10.267 0 0 0 2.645 2.58c.145-.748.967-5.46.443-4.847v-.002l.142-.159c2.196-2.408 2.985.701 4.282 1.687l.084.06c1.565 1.059 3.743.735 5.495.569 4.591-.438 5.8-1.36 9.122 2.004.82-.887 1.36-2.975 2.162-3.633 1.385-1.136 1.731.41 1.179 2.044 1.832-.822 3.289-1.463 4.135.89l5.46-4.15c.57 1.825 1.247 3.103 2.824 1.098-1.067 3.107 1.908.893 2.948.942.39.018.743-.6 1.087-.537.317.059.49 1.029.821 1.085.52.087.74 1.193 1.415 1.248.727.058.107-1.358.257-1.472 1.007-.764 1.283-3.096 2.562-4.081 1.662 4.035 2.07 4.942 5.856 1.665 1.877 3.034 3.486 3.486 6.63 2.04.92-.423 1.666-1.685 2.844-1.549 1.568.183-.24 2.404-1.483 2.186 3.104 2.9 8.046.384 11.65.115-.22.017 2.426-.574 1.91-.368 3.182-1.268 5.5-.546 8.62-.05 2.029.324 3.153.531 4.423-1.34 1.744-2.566.662-8.716-1.87-10.528Zm-193.412-28.41c7.394-8.236-5.795-8.506-4.4-3.059-3.13-3.771-6.503-3.066-11.023-2.65-4.766.438-9.524.717-14.283 1.198-1.906.191-20.057-.209-18.907 4.636-.14-.59 3.498 1.54 3.051 1.36 3.187 1.29 4.985 1.21 6.625-2.164.865 1.057.943 2.046 1.085 3.354a8.63 8.63 0 0 1 2.636-2.02c.062.883.126 1.765.19 2.648 2.062-2.268 6.42-.371 8.904-.397 3.065-.033 4.612-1.131 7.108-2.857.535.807-.3 2.22-.368 3.015 2.373-.906 4.893-.652 7.32-1.25a8.165 8.165 0 0 0 2.828-.994c.764-.766 1.305-.62 1.622.441 2.958.435 4.951 1.702 7.612-1.262Zm192.38-16.75c-3.904-3.497-15.224-.81-19.935-.568-6.915.356-13.793.631-20.705 1.14-6.733.496-13.51.173-20.288.627-2.881.192-6.77-.345-9.507.353-2.633.67-3.096 2.05-6.112 1.63-5.692-.797-12.589-.935-18.282.36-.9.206-2.998 1.738-3.712 1.68-.39-.03-2.164-1.59-3.02-1.765-2.593-.53-5.138 1.147-7.81.407-1.985-.549-1.89 1.67-2.811 2.736-2.401-3.648-8.434-2.993-12.115-2.63-4.89.483-9.256 1.626-14.048 1.23-6.144-.508-13.02.61-19.155 1.142-3.702.322-9.762-.323-13.126 1.42-4.915 2.545-2.21 8.342 2.203 9.385 2.931.693 5.375-.772 8.204-1.078 1.963-.214 3.685.075 5.26.257 2.411.279 5.964-.353 8.527-.962 2.901-.69 5.099-.446 8.068-.507 3.35-.068 11.283.873 12.481-3.063 2.69 3.108 7.926-1.476 9.653 1.741 1.78-1.946 2.708-.475 4.793-.073-.13-1.049-.261-2.097-.393-3.145 2.673 2.512 4.055 1.804 6.21 4.376 1.653-2.795 4.643-.05 6.064-3.364 1.406 1.135 2.544 2.182 4.424 2.377-.346-1.939-.33-3.234 1.577-3.681 1.993-.467 2.323 1.529 3.454 1.875 1.26.386 2.598-.154 3.66-.271.219-.024.472.71 2.068.55.777-.079 1.582-.708 2.242-1.099 1.748-1.037 1.977-2.347 3.995-1.618.947.342 1.281 2.195 3.098 2.46 4.876.71 4.648-3.168 7.375-5.494-.168 1.603.255 3.473 1.527 4.573 3.754-3.271 2.67-.701 6.492-.438 1.38.094 3.332-1.783 4.462-1.445 2.157.644-.096 1.934 1.182 2.688 1.858 1.097 7.122-1.446 8.837-1.814 3.463-.744 7.745-1.426 11.734.706l-.612-3.567c3.009 4.123 6.748 3.236 11.168 2.917 2.028-.147 9.106.799 10.232-1.42 1.817 2.231 1.107-.174 3.143-.37 1.788-.171 2.942 1.626 5.35.774 3.22-1.143 7.368-6.15 4.148-9.032Zm82.654 3.417c2.186-6.141.164-7.482-5.947-6.936-5.765.515-11.744 1.14-17.39 1.424-6.028.304-13.084-.422-19.534-.19-7.367.266-14.725.773-22.086 1.199 1.58 2.769 4.209 4.613 5.86 7.323 1.083-3.656 5.072.095 7.459.43 3.852.544 8.085-.487 11.998-.235 2.739.176 3.419-.903 5.85-1.298.609.099 1.123.36 1.545.785.44.583.969.55 1.586-.102a6.542 6.542 0 0 1 2.158-1.002c.613-.105 1.09.086 1.434.573 1.385-.03.256 1.875 2.725.22-.98-.668-2.259.378-2.185-1.463 1.583.275 1.588-.969 2.793-1.233a2.702 2.702 0 0 0 1.253-.978c.44.293.817.65 1.132 1.07 2.624.324 5.885.979 8.735 1.391 2.206.32 11.535 2.052 12.614-.978Zm153.121-94.01c-.615 2.363-1.179 4.74-1.854 7.088-4.281 14.914-4.281 30.578.954 45.236 2.372 6.64 7.598 20.12 16.97 16.36 11.507-4.617 7.75-20.837 5.338-29.788-3.716-13.775-11.973-28.154-21.408-38.895Zm-641.821 15.612c-7.073-1.446-13.022-1.751-19.166 2.648-10.282 7.362-13.54 21.952-11.896 33.893 1.577 11.448 11.177 21.865 22.504 13.352 5.532-4.158 10.667-11.353 13.241-17.724 3.202-7.926 1.37-16.68.87-24.914-.222-.008-.022-5.009-.245-5.395-.95-1.65-3.647-1.52-5.308-1.86Zm326.028 37.088c-1.091-6.449-13.717.736-16.213.36-1.388-.21-1.976-2.24-4.358-2.269-3.377-.043-7.01.75-10.403.942-3.853.219-7.68.21-11.522.283-2.337.044-4.439 1.664-6.405 1.73-1.157.04-1.636-1.1-2.752-1.209-.856-.083-1.63.472-2.445.52-1.93.117-3.604-.074-5.549-.173-6.229-.32-12.95.678-19.197 1.005-6.08.319-12.199.397-18.268.84-4.694.34-8.442 2.11-13.07 1.77-5.99-.44-12.182.094-18.115.998-4.967.756-9.83.317-14.763.768-2.237.205-3.455 2.108-5.2 2.373-1.415.216-2.424-.998-4.04-1.248-4.917-.762-9.978 2.472-15.006 1.859 1.575 4.213 4.777 5.853 9.496 5.898 2.386.023 4.443-1.227 6.828-1.378 2.418-.153 2.88.842 4.524-1.633.1 1.73 1.649 3.474 3.584 2.788.621-.22.93-1.458.31-1.282.115-.032.19-1.487 1.175-.936 1.085.607-.218 2.083.855 2.817 1.943-.942 4.126-.838 6.23-.783-2.468-.065 3.066-.639 3.708-.346l.02.011.21-.13c.954-.62 1.92-1.41 2.97-1.432l.245.009c1.071.103 1.596 1.623 2.625 1.741 1.585.181 1.369-1.053 2.96-1.569.617-.2 1.817.612 2.436.707 1.196-.897 1.904-.854 2.122.13.144.354.3.702.468 1.044-.39-.102.904.436.81.396.641.273 2.65.039 3.43-.107 2.467-.464 4.356-1.016 6.891-1.186 2.342-.157 4.535-.455 6.277-2.2.06.966.2 1.92.421 2.86l3.504-3.15.99 2.494c2.332-1.164 1.811-.178 3.078-.25 1.569-.086 2.9-.263 4.694-.682 2.26-.527 4.881.483 7.02-.059 1.372-.346 1.895-2.024 2.766-2.235 2.548-.617 1.46 1.594 3.311 2.027 1.387.325 1.936-.861 3.33-1.127 1.636-.312 2.7.548 4.384-.21.284-.128 2.15-1.547 2.012-1.56 1.016.09 1.702 1.72 2.724 2.116 1.604.623 1.899.276 3.398.016 3.084-.534 4.49-.584 5.828-3.453 1.635 1.273-.195 2.378-.268 3.811-.085.215 9.684-4.79 10.826-5.865l.027-.029-.026.078c-.6 1.773-1.418 4.94 1.234 5.25l.19.018c1.454.09 2.137-1.533 3.2-2.584 4.435-4.394 3.997 2.194 8.358.762 1.906-.625 1.736-2.36 4.387-1.617 1.484.415.168 1.32 2.112 1.392.593.022 1.87-1.125 2.655-1.215.515-.06-.076 1.705 1.154 1.49.804-.142 1.604-1.802 2.37-1.765 1.454.068.221 1.058 1.082 1.533.955.528 2.06 1.582 3.237 2.17l.25-2.62c.306.26 1.625 2.112 2.015 1.908.124-.064 2.763-1.995-.191-1.182.503-2.326 2.988-3.21 4.755-4.36-.797 6.33 3.846 1.206 5.147 5.943 1.469-1.058 1.525-2.103 1.634-3.802 2.58 1.093 4.158 3.149 7.078 2.564 1.729-.345 1.147-2.046 3.936-1.15 2.05.658 2.312 2.274 4.516 1.182.76-.377 2.667-2.848 2.934-3.698l.08.231c1.445 3.842 6.215 2.959 9.51 2.734l.192-.012c3.491-.212 5.587 1.704 7.319-1.01 1.386 1.695 9.16 3.905 6.83-.188 4.729 1.95 9.49 1.942 14.448 1.137.695-.113 1.941-.765 2.637-.596 1.01.248.885.759 1.469.955.48.164.826.79 1.631.983.894.215 2.07-.397 2.947-.547 2.127-.36 4.944-1.206 7.124-.866 2.213.346 2.724 1.057 5.04.809 3.039-.325 4.479.414 5.136-3.063 1.467 1.261-.233 1.692 1.88 2.813 1.41.747 4.322.531 5.873.392.606-.136.997-.506 1.175-1.11.588.598 1.273.804 2.057.618 1.424-.553 1.549.393 2.153-1.802 2.78 2.93 4.077.55 7.114.417 2.869-.124 2.74 2.218 5.006 2.483-.179-.02 1.745-1.32 1.669-1.28 3.273-1.745 2.488-3.162 5.302-1.029 2.953 2.24 1.377.929 5.03.202 3.487-.695 12.547 4.259 13.338.304 3.264 3.8 6.224-.581 9.102.29.53.16.624 1.52 1.52 1.62 1.028.114 1.055-.839 1.686-.84 1.734 0 1.339-1.605 3.448.967 1.947-2.083 2.031-2.393 4.003-2.083 2.062.325 4.286 2.843 7.301 1.823-.99-.321-1.676-.961-2.063-1.92 2.005-.435 1.064 1.092 1.893 1.164.707.062 3.558.332 4.228.549 2.618.85 6.099-.525 6.863-3.313.99-3.616-1.138-2.749-3.652-3.504-.225 2.079 1.804 4.385-1.29 5.113l-.824-5.039c-2.233 1.371-2.673.31-4.788.323-2.52.013-4.139 1.683-6.531 1.987.429-1.577 1.568-2.455 2.69-3.53-4.436.732-8.772-.834-13.16-1.177l.9 2.985c-2.844-3.17-7.486-3.28-11.417-3.309-3.647-.026-7.194-.561-10.822-.672-4.345-.133-8.732.47-13.087.213-2.426-.144-4.733-.67-7.173-.607-3.165.083-1.948.32-3.747 1.935l.032-.03.003-.01c-.038-.303-2.75-2.195-3.3-2.408l-.05-.017c-1.776-.41-3.83.044-5.605.146-3.984.228-7.822-.125-11.795-.5-9.591-.909-19.497-1.273-29.126-.88-9.463.387-19.035-.58-28.434.505-7.317.845-16.132-2.964-22.705 1.535Zm139.214 9.776c-1.722-2.14-1.13-3.114 1.78-2.926.658 2.244.064 3.22-1.78 2.926ZM516.11 317.063c-19.544.064-39.356-.938-58.829 1.003-9.476.945-19.024 1.236-28.534 1.78-2.97.17-14.96-.191-16.048 3.666-2.73-3.14-2.822.304-3.53 2.629-1.9-5.454-7.889.293-10.081 2.71.318-.351 4.593 1.906 5.275 1.997 1.767.24 3.87-.194 5.516-.32.4.365.85.636 1.348.815.592.373.918.01.976-1.086l.44-1.308c.613.298 1.212.33 1.796.098 2.488-.52 2.621.3 4.783 1.716l1.66-2.578 1.345 2.376c1.704-4.455 2.81-1.655 5.667-.566 3.302 1.256 6.328-.588 9.647-.83a6.26 6.26 0 0 1 2.488.122c1.247-.133 2.282.278 3.105 1.233.707-.103 1.904-1.808 2.73-2.058 1.892-.572 2.673.472 4.28-1.24l-.582 2.642c1.732-.85 5.244-1.161 6.014-2.8l-.005.01-.016.035c-.219.481-1.383 3.168-1.05 3.405l.046.016c1.495.137 2.618-2.777 2.719-3.823 3.356 4.964 14.32 1.14 19.006 1.402 4.124.23 7.423.867 11.378-.416 1.498-.487 2.83-1.472 4.019-.884 1.189.59-.905 2.237 1.514 2.577-.687-4.38 3.057-3.766 5.894-2.563l-2.958.36c2.966 2.264 4.115-.148 7-.344 1.564-.107 2.36.359 3.5-.081.219-.085-.308-1.331.432-1.483 1.298-.266 1.997.365 3.055.844 2.683 1.214 3.685 2.559 6.863 2.403 3.307-.163 5.51-.967 8.825-.327 2.648.51 4.396.884 7.18.645 6.065-.517 11.109.336 17.018-1.854-.148 3.064 5.139 1.606 6.795 1.634 1.001.016 1.514.692 2.458.674.437-.007 1.874-.665 2.243-.806.212-.083 2.01-.349 1.973-.342.15-.026.385-1.497.764-1.394 1.85 2.5 2.607.72 4.942.798 1.874.06 3.6 1.615 5.51 1.863 2.774.361 5.646-.832 8.458-.685 1.624.084 3.998 1.428 4.93 1.415 1.704-.025 1.31-1.583 3.45-1.4 1.383.118 3.146.606 4.505.714.038.003 1.97-.417 2.166-.426.58 1.416 1.265 1.518 2.057.31a4.226 4.226 0 0 0 1.062-2.318c2.774 4.151 11.066 1.499 15.043 1.14 5.606-.504 10.393 1.717 14.911-2.268.08.62.835 3.285 1.64 3.167.934-.136.115-2.84.14-3.245 1.491.993 3.04 2.121 4.889 2.202 1.214.054 2.179-.813 3.31-.874-.239.013 2.144.338 1.295.668 1.418-.551 3.08-4.024.933-5.153-1.603-.844-.892 1.024-2.09.765-1.044-.226-2.54-2.288-3.907-2.908-3.693-1.672-8.409-.903-12.345-.91-20.196-.03-40.378-.849-60.57-.775-4.565.017-8.957-.352-13.483-.87-3.781-.434-6.19.579-9.864 1.119-4.132.607-8.393-1.055-12.447-1.647-4.201-.614-8.422-.385-12.654-.371Zm-56.877 8.136c3.576 2.417 1.796-1.519 4.767.297a16.315 16.315 0 0 1-2.735 2.338c-1.544.814-2.802-1.57-2.032-2.635Zm45.76-55.826c-6.13-1.24-6.857 1.06-7.26 7.004-.419 6.199-1.435 11.39-7.45 14.56-4.126 2.174-6.682 2.307-7.609-2.369l-14.297 3.084c8.408 12.475 27.842 18.423 41.904 18.67 8.721.154 17.65.004 26.069-2.536 3.66-1.104 7.001-2.74 10.352-4.561.766-.417 7.99-3.917 7.91-5.158-.11-1.651-5.327-.991-6.329-1.08-2.587-.229-4.782-1.364-7.12-2.418-4.546-2.053-9.212-4.244-12.71-7.913-3.442-3.609-4.286-7.21-4.657-11.952-.37-4.736-1.992-5.439-6.594-5.312-4.313.12-7.932.847-12.21-.019Zm88.032 23.843c-4.333.215-10.494-1.036-14.615-.04-1 .242-1.206 1.03-2.25 1.251-1.219.258-.644-1.998-2.539-.303-2.08 1.86-2.287 4.834-3.708 7.098.801.25 1.852-.623 2.268-.515.313.082 2.342.898 2.396.893 2.077-.192 2.863-1.046 4.018-2.767 2.904 2.58 6.301 3.314 10.124 3.212 2.864-.076 5.61-1.606 8.197-1.215.081.532.344.945.79 1.238.912.171 1.827.185 2.746.043 1.86.02 3.529-.361 5.408-.158 2.422.263 4.621 1.466 3.18-2.07-2.392-5.873-10.996-6.915-16.015-6.667Zm-141.903 4.488c-1.27 5.798 4.791 2.56 3.975.189-1.212 1.494-2.688.379-3.975-.189Zm-4.652.323c.276 2.834.905 3.644 3.578 2.233l-.582-.893c-1.467.982-1.69-1.315-2.996-1.34Zm12.964.725c-1.348-.835-2.604-.715-3.769.36-.01-.002 6.471 1.466 3.77-.36ZM476.257 261c.38.926.628 1.871.743 2.837L475.668 265c-1.333-1.703-.425-2.392.589-4Zm-77.617-20.26c-2.359-2.837-4.83-.101-1.821 2.269-6.17 2.331-2.96 15.008-2.96 19.792 2.241-1.666.88-3.14 1.671-5.324.365-1.008 1.25-1.573 1.251-2.31.002-.974-2.334-3.177-1-3.519 3.682-.942 5.127-8.181 2.86-10.909Zm125.236-53.272c-4.347-4.14-12.134.545-16.821 1.71-6.703 1.67-13.384 2.878-19.986 4.962-4.738 1.497-10.741 2.382-13.066 7.363-2.457 5.258.281 12.985-3.753 17.543-2.028 2.293-10.65 2.588-9.73 7.105.652 3.195 6.018 1.428 8.247 1.894 6.59 1.374.377 6.398 2.39 9.968.78 1.382 1.306.55 2.24 1.138.887.558 1.57.913 2.502 2.028 1.848 2.211 3.289 5.032 5.514 6.899 16.948 14.22 49.293 20.977 66.195 3.141 4.179-4.411 8.7-11.125 6.597-17.2-1.35-3.9-.99-4.433.556-8.516 1.57-4.15 2.296-8.204 1.465-12.616-.629-3.334-3.411-6.543-3.755-9.743-.356-3.302 1.34-3.094 3.988-3.76 5.198-1.308 13.752-4.035 16.623-9.028-5.175-1.099-10.687 3.191-15.623 4.187-5.337 1.077-10.841.995-16.243.567-5.247-.417-10.614-1-15.678-2.496-4.471-1.32-8.37-3.657-1.662-5.146Zm-124.098 63.547c-.927 1.02 2.37 4.922 1.608 5.18-1.18.4-1.948 3.826-1.948 5.3.392-1.482 1.425-1.95 2.728-1.068 2.456 1.66 1.049-1.866.701-2.892-.205-.604-1.14-1.348-1.453-2.134-.69-1.743.721-3.036-1.636-4.386Zm110.142 3.737c-6.215-1.344 4.373-9.288 7.557-3.898 2.525 4.28-4.762 4.502-7.557 3.898Zm5.549-45.751.161.004c2.102.156 2.996 5.85 3.648 7.51 2.526 6.423 7.591 13.313 6.594 20.551-.308 2.237-1.418 5.724-3.294 7.092-2.494 1.819-6.802.65-4.852-3.115 2.278-4.398-1.103-9.382-2.467-13.534-1.266-3.851-2.346-8.007-2.253-12.087.03-1.353.21-6.597 2.624-6.417Zm-126.936 13.33c-1.13.778-1.473 2.308-1.969 3.481-1.205-3.968-2.873-.794-3.032 1.408 4.172-.255 7.822 1.25 9.035 5.55.497 1.759.966 3.525 1.449 5.287 5.906-6.464-3.58-9.76-5.483-15.725ZM485.905 211c2.676 3.054 1.215 9.482 5.995 10.808 3.872 1.076 5.188-3.252 6.941-5.804 2.484-3.612 5.5-4.044 5.128 1.133-.24 3.33-2.41 7.06-4.176 9.84-7.858 12.37-20.645-6.9-13.888-15.977ZM343.77 152.526c-.683 1.317-2.372 1.544-3.558 2.178-.665.359-1.082.907-1.255 1.649a2.136 2.136 0 0 0-1.402-.333c-3.07 1.036-5.44 2.225-8.235 4.028-7.247 4.669-14.463 9.57-19.749 16.53-9.263 12.199-9.875 29.296 1.587 40.275 17.58 16.838 48.42 12.28 70.386 10.687 1.738-4.813 1.952-8.575-4.106-8.278.282-.013-2.307-2.862-2.924-3.122a132.011 132.011 0 0 0-1.707 4.619c-.526-2.365-.53-4.673-2.83-6.021-2.827-1.657-3.72.304-6.084 1.018-1.61-3.141.21-1.422-2.443-2.38-.472-.17-2.66-.52-3.881-.96-1.61-.58-7.889-3.35-5.739.736-3.252-.543-4.722-3.458-6.08-6.105-3.114 2.877-4.63-.37-7.87-.914.139 1.233 1.724 2.58.716 3.869-3.481-3.057-5.17-7.572-8.424-10.826-3.335-3.337-3.104-3.79-2.442-8.348-2.948-.306-.933 6.155-3.585 1.834-1.08-1.761-1.676-3.885-2.887-5.72-2.279-3.449-2.832-10.419 2.842-7.83.749-2.82.852-6.044 1.437-8.95 2.216.6 2.34 3.106 4.166 4.15 1.512-4.873.45-7.51-1.052-11.953 2.766.846 5.741 2.573 7.164 5.2-.164-3.494-1.53-4.454-3.44-7.098 2.899-.582 7.756 2.24 8.25-2.422l1.774 2.067c.267-2.56.642-5.106 1.371-7.58Zm191.88 56.947c3.089-2.186 4.19 3.82 4.32 5.45.523 6.575-5.473 17.691-12.968 11.017-3.045-2.712-4.994-6.455-5.001-10.55-.004-2.063.291-5.922 3.228-4.795 2.414.925 5.866 12.708 9.451 5.112.74-1.567-.583-5.136.97-6.234ZM368 223.455c.543-.913 2.892-.197 3.874-.033.804.135-2.437 1.21-3.874.033ZM567.239 66.767c1.973 1.86 7.42 1.627 6.795 5.293l3.608-1.231c-.208 3.973 3.676 4.937 5.992 7.442 2.26 2.446 3.717 5.884 7.539 3.457.621 6.423 8.46 5.613 9.856 9.9.486 1.492-1.253.068-.26 2.472.212.514 2.47 2.088 2.921 2.43 2.565 1.946 2.135 2.083 4.434.918.615 1.894 1.02 4.534 2.274 6.125-.097-.122 1.854.725 1.87.738.58.457-.612 1.865.4 2.27.554-1.19.991-2.473 2.086-3.3.894 1.574-.736 1.828-.492 3.33.334 2.063 1.697 2.98 2.735 4.62 1.383 2.185 2.073 6.67 5.346 4.47 0 3.638-.395 6.558 1.396 9.876 1.485 2.754 3.605 5.19 5.27 7.84 5.13 8.164 4.539 19.994 3.804 29.28-.408 5.151-.886 9.798-1.92 14.86-.808 3.958-1.946 9.441 1.77 12.349-3.46.79-3.595 3.61-5.472 6.022-1.775 2.28-5.715 3.885-5.195 7.343-3.744-1.571-9.148 4.919-11.584 6.98-2.454 2.076-4.78 4.982-7.626 6.497-2.357 1.252-5.18 1.294-7.128 3.343 3.816.416 7.9-1.988 11.243-3.491 4.656-2.093 9.433-3.877 14.071-6.02 9.68-4.47 19.837-9.052 27.53-16.646 14.6-14.418 16.662-35.318 10.525-54.156-5.913-18.149-16.458-35.21-31.4-47.236-16.403-13.203-36.669-21.225-57.121-25.517a24.702 24.702 0 0 0-3.267-.258ZM352.634 215c1.064.79-.502 3.16-.789 4L350 217.077l2.634-2.077Zm176.99-28.508c-.705-1.306-4.342-2.07-4.568.044-.169 1.577 3.867.48 4.568-.044Zm-46.886-98.739c-.827-5.127-3.568-5.198-5.6-.893-1.978 4.191-.556 10.22-.259 14.724.217 3.27.254 9.578 3.919 11.176-2.876.323-2.208 2.672-2.544 4.729-.544 3.339-1.881 6.257-3.088 9.393-.84 2.187.898 3.137 2.683 3.627 1.808.497 2.409.19 3.67.991 3.334 2.115 5.493 4.439 9.536 5.792 4.372 1.462 9.218 2.325 13.778 2.778 2.805.279 7.52 1.418 9.058-1.352-.338 3.124-.043 2.033 2.032 1.463.886-.244 2.1-.845 2.66-1.6 1.117-1.502.185-3.248 1.389-4.81.893.556.214 2.546.136 3.258 4.68.076 2.934 3.32 6.233 4.948 2.395 1.182 2.883-.715 4.935-.591 2.021.121 1.747.775 3.028 2.118 1.218-1.315.304-6.337 4.176-4.202 1.823 1.007.698 3.813 3.684 4.778 2.473.802 4.792-.482 7.035-.316 1.803.134 4.942.737 6.666 1.374 9.297 3.436-9.238 15.406-12.46 18.57 6.415-.761 12.118-5.156 17.211-8.8a196.682 196.682 0 0 1 6.615-4.504c.929-.608 2.674-1.349 3.312-2.334.84-1.299.418-2.235.573-3.469l.024-.158-.05.022a.286.286 0 0 1-.066.01l-.076-.006c-.062-.372.088-2.478.427-2.624.048.26.11.515.182.767.296.25 1.813-1.96 1.849-2.143-3.159.148-1.618-1.795-1.775-3.53.012.13-.685-3.8-.12-2.935l-.01-.013-.155-.217c-.956-1.228-2.321-1.164-3.399-2.06l-.187-.169c-.71-.694-.675-1.776-1.308-2.43-2.11-2.186-2.377-.186-4.843-.806-2.38-.598-3.226-8.003-5.531-3.355-1.713-4.384-.91-1.275-3.404-1.518-2.255-.22-2.437-1.82-4.286-2.724-1.138.648-2.215.539-3.228-.328a13.131 13.131 0 0 0-2.92-.933c-1.755-.254-3.1 1.047-3.866 1.102-1.91.138-.49.012-2.233-1.538-1.94-1.727-3.408-2.882-6.462-3.454-1.03.5-1.824.254-2.387-.737a9.049 9.049 0 0 0-2.325 1.27 11.061 11.061 0 0 0-2.957-.687c-1.31-.096-1.715-.712-1.214-1.85-1.37-.487-3.076-.135-4.35-.91-1.133-.69-1.623-2.505-2.979-3.334-2.968-1.817-7.54-1.654-10.852-2.693-1.652.83-2.742.413-3.272-1.25a26.08 26.08 0 0 0-1.58-2.64c-.986-1.23-1.508-1.924-3.064-2.531.277.753 1.992 5.035-.565 4.131-1.676-.592.503-2.865-2.093-3.145 1.875-2.32 1.305-3.998-1.324-5.837-.366-.256-3.245-1.944-3.834-.84-.384.72.764 1.998.964 2.577-2.998.136-3.28-3.082-4.017-5.224-1.784 2.107-2.7 2.714-2.24-.052.233-1.398 1.472-2.048 1.148-4.056Zm-122.891 60.429c-2.113.174-3.187 1.794-5.079 2.216-1.366.306-2.851-.83-4.068.023-1.456 1.022-6.12.484-6.923 2.09.952 1.521 4.069 3.504 5.957 2.965 2.086-.594 1.66-1.293 1.45-3.507 2.417 1.836 3.235 3.815 5.603 1.39.283-.29.117-1.496.435-1.999.934-1.475 2.037-1.3 2.625-3.178Zm31.699-1.09c-1.201-5.036-11.991-1.961-15.226-1.301-2.754.561-5.576.4-8.365.563 2.022 1.628 2.492 4.625 5.607 4.097 1.405-.239 2.184-1.718 3.683-1.92 1.34-.18 2.73.718 3.932 1.115-2.047-4.455.5-.386 2.08-.288 2.234.138 3.616-1.912 4.731-3.503.67.764 1.43 3.021 2.49 3.345.81.246 1.299-.351 1.618-.283 1.224.258.582-3.047 2.388.715.114-1.93-.053-3.772-1.547-5.162-.373-.347-1.176 2.496-1.391 2.621Zm-25.773-.132c-1.132.011-2.252.137-3.359.378 2.94 5.87 5.41-.182 3.359-.378Zm40.784.83c2.994-2.573-2.91-2.133-4.3-1.547l2.117 3.343c.734-.59 1.462-1.19 2.183-1.796Zm-6.886-3.17c-.721-.327-3.552.09-3.78 1.122-.933 4.228 2.597 3.773.649.635l3.916 1.853c.323-1.755.974-2.81-.785-3.61Zm14.16.29c-1.387 0-4.514.83-5.338 2.01-2.052 2.933 4.177-.69 4.056-.665Zm123.332-4.204c-1.94 2.676.713 2.386 1.66 3.092l-1.66-3.092ZM528 136c1.576.052 2.525 1.316 1.69 3-.206-.192-.412-.383-.62-.573-.601-.673-.958-1.482-1.07-2.427Zm31.276-1.45c-1.274-.582 2.195-2.926 3.522-.405.862 1.635-1.254 3.717-2.302 4.855.035-1.612.814-3.52-1.22-4.45ZM515.643 116c.076.497 1.29 6.588-1.24 4.604-1.279-1.003.864-3.89 1.24-4.604Zm-3.224 0 .581 1.51a14.06 14.06 0 0 1-1.169 2.49c-1.694-1.111-.438-3.05.588-4Zm-23.349-15 .93 1.815a19.324 19.324 0 0 1-2.136 3.185c-2.007-1.306-.057-3.986 1.206-5Zm117.35-10c1.22 1.2 1.923 1.476 1.411 3-1.087-.812-2.566-1.934-1.41-3ZM487.256 79.404c.406-.868 1.944-6.043-.27-4.04-.883.8-1.144 1.821-2.19 2.463l.003.001-.012.005c-3.817.953-1.273 4.388.266 6.8l.083.13c.723-1.002.448-5.784-.086-6.771l-.004-.005Z" fill="#212529"/></g></svg>