<svg width="320" height="568" viewBox="0 0 320 568" fill="none" xmlns="http://www.w3.org/2000/svg">
<g clip-path="url(#clip0_1249_40851)">
<rect width="320" height="568" fill="#417C88"/>
<path fill-rule="evenodd" clip-rule="evenodd" d="M8.58417 -17.3325C41.6057 -22.3283 79.8128 -22.6071 101.703 2.60972C124.214 28.541 122.041 67.763 110.539 100.115C100.554 128.2 75.1059 146.68 46.9747 156.549C22.7766 165.039 -1.37646 156.204 -25.6363 147.892C-56.6848 137.254 -100.334 135.359 -107.994 103.452C-115.666 71.5013 -77.6531 49.9371 -54.8311 26.2917C-36.0858 6.87006 -18.1078 -13.2942 8.58417 -17.3325Z" fill="#D6917C"/>
<path fill-rule="evenodd" clip-rule="evenodd" d="M380.352 3.62572C393.981 18.9396 391.981 41.3394 398.423 60.7844C404.596 79.4163 416.643 95.4459 417.267 115.05C418.093 140.952 419.008 169.441 402.521 189.408C384.738 210.945 354.585 231.944 328.011 223.145C299.759 213.792 304.041 169.075 281.702 149.406C264.224 134.017 229.232 146.234 217.694 126.017C206.473 106.355 227.738 83.6131 231.429 61.3131C235.842 34.6496 222.454 2.10969 241.393 -17.1575C260.218 -36.3086 292.71 -32.0803 319.32 -28.1005C342.555 -24.6253 364.728 -13.9299 380.352 3.62572Z" fill="#7E9CD6"/>
<path fill-rule="evenodd" clip-rule="evenodd" d="M6.26579 395.431C32.2321 394.027 60.2871 395.038 78.038 414.307C97.1691 435.074 100.691 465.12 96.325 493.192C91.4839 524.321 82.2749 559.896 53.5329 571.879C25.6444 583.506 -1.93389 559.973 -28.3101 545.155C-51.8291 531.942 -79.6692 520.204 -85.7316 493.641C-91.8072 467.02 -75.0714 441.391 -56.5134 421.579C-40.1211 404.08 -17.5019 396.716 6.26579 395.431Z" fill="#D5AC87"/>
<path fill-rule="evenodd" clip-rule="evenodd" d="M329.139 336.412C365.343 339.574 388.99 370.902 411.2 399.645C432.777 427.57 456.68 457.956 449.794 492.559C442.745 527.98 411.359 552.53 378.008 566.444C346.968 579.393 312.37 577.302 282.179 562.485C252.302 547.822 231.262 521.385 221.44 489.604C210.443 454.019 205.453 414.021 226.877 383.547C249.581 351.253 289.795 332.975 329.139 336.412Z" fill="#3C9DAE"/>
</g>
<defs>
<clipPath id="clip0_1249_40851">
<rect width="320" height="568" fill="white"/>
</clipPath>
</defs>
</svg>
