<svg width="1280" height="723" viewBox="0 0 1280 723" fill="none" xmlns="http://www.w3.org/2000/svg">
<g clip-path="url(#clip0_958_50475)">
<rect width="1280" height="723" fill="#417C88"/>
<path fill-rule="evenodd" clip-rule="evenodd" d="M938.843 -96.9278C968.012 -89.513 984.009 -60.5997 1007.84 -42.2367C1030.67 -24.6415 1058.51 -15.0525 1075.4 8.29627C1097.71 39.1456 1122.26 73.071 1118.64 110.956C1114.74 151.82 1095.36 202.218 1055.81 213.398C1013.77 225.283 982.184 167.324 938.843 161.783C904.931 157.448 872.44 201.143 841.779 186.037C811.96 171.346 819.103 126.148 805.244 95.9628C788.673 59.8709 745.625 31.2896 752.799 -7.76392C759.93 -46.582 802.912 -68.1991 838.539 -85.2735C869.647 -100.183 905.404 -105.428 938.843 -96.9278Z" fill="#7E9CD6"/>
<path fill-rule="evenodd" clip-rule="evenodd" d="M337.796 451.728C381.728 449.357 429.194 451.064 459.226 483.607C491.594 518.681 497.552 569.425 490.166 616.836C481.976 669.409 466.395 729.491 417.766 749.729C370.582 769.366 323.923 729.621 279.297 704.595C239.505 682.28 192.403 662.455 182.146 617.594C171.867 572.634 200.182 529.349 231.58 495.89C259.314 466.335 297.583 453.897 337.796 451.728Z" fill="#D5AC87"/>
<path fill-rule="evenodd" clip-rule="evenodd" d="M1135.64 287.586C1187.14 292.084 1220.78 336.651 1252.38 377.542C1283.08 417.267 1317.08 460.494 1307.28 509.72C1297.26 560.11 1252.61 595.035 1205.16 614.828C1161.01 633.249 1111.79 630.275 1068.84 609.196C1026.33 588.337 996.402 550.727 982.43 505.516C966.785 454.894 959.686 397.992 990.164 354.64C1022.46 308.699 1079.67 282.697 1135.64 287.586Z" fill="#75B1BB"/>
<path fill-rule="evenodd" clip-rule="evenodd" d="M142.093 34.7938C189.019 27.6887 243.313 27.2922 274.42 63.1561C306.409 100.036 303.321 155.819 286.976 201.831C272.788 241.773 236.624 268.055 196.648 282.092C162.261 294.167 127.939 281.602 93.4642 269.78C49.3427 254.65 -12.6853 251.955 -23.5711 206.577C-34.4721 161.135 19.5457 130.466 51.9769 96.8371C78.6149 69.2152 104.163 40.5371 142.093 34.7938Z" fill="#D6917C"/>
</g>
<defs>
<clipPath id="clip0_958_50475">
<rect width="1280" height="723" fill="white"/>
</clipPath>
</defs>
</svg>
