<svg width="640" height="723" viewBox="0 0 640 723" fill="none" xmlns="http://www.w3.org/2000/svg">
<g clip-path="url(#clip0_973_50576)">
<rect width="640" height="723" fill="#417C88"/>
<path fill-rule="evenodd" clip-rule="evenodd" d="M633.037 -96.9278C662.174 -89.513 678.155 -60.5997 701.959 -42.2367C724.769 -24.6415 752.573 -15.0525 769.443 8.29627C791.732 39.1456 816.257 73.071 812.643 110.956C808.746 151.82 789.384 202.218 749.879 213.398C707.881 225.283 676.331 167.324 633.037 161.783C599.162 157.448 566.705 201.143 536.077 186.037C506.291 171.346 513.426 126.148 499.582 95.9628C483.029 59.8709 440.027 31.2897 447.194 -7.76392C454.317 -46.582 497.253 -68.1991 532.841 -85.2735C563.916 -100.183 599.635 -105.428 633.037 -96.9278Z" fill="#7E9CD6"/>
<path fill-rule="evenodd" clip-rule="evenodd" d="M43.6256 451.728C87.5104 449.357 134.925 451.064 164.926 483.607C197.258 518.681 203.21 569.425 195.832 616.836C187.65 669.409 172.086 729.491 123.51 749.729C76.3768 769.366 29.7676 729.621 -14.8101 704.595C-54.5587 682.28 -101.61 662.455 -111.856 617.594C-122.125 572.634 -93.8399 529.349 -62.4756 495.89C-34.7714 466.335 3.45655 453.897 43.6256 451.728Z" fill="#D5AC87"/>
<path fill-rule="evenodd" clip-rule="evenodd" d="M480.001 287.586C531.448 292.084 565.052 336.651 596.614 377.542C627.277 417.267 661.244 460.494 651.459 509.72C641.442 560.11 596.84 595.035 549.446 614.828C505.337 633.249 456.17 630.275 413.267 609.196C370.81 588.337 340.912 550.727 326.954 505.516C311.326 454.894 304.235 397.992 334.68 354.64C366.943 308.699 424.09 282.697 480.001 287.586Z" fill="#75B1BB"/>
<path fill-rule="evenodd" clip-rule="evenodd" d="M141.817 34.7938C188.692 27.6887 242.928 27.2922 274.002 63.1561C305.956 100.036 302.872 155.819 286.544 201.831C272.371 241.773 236.246 268.055 196.314 282.092C161.964 294.167 127.678 281.602 93.2407 269.78C49.1667 254.65 -12.7945 251.955 -23.6686 206.577C-34.5578 161.135 19.4017 130.466 51.7981 96.8371C78.4074 69.2152 103.928 40.5371 141.817 34.7938Z" fill="#D6917C"/>
</g>
<defs>
<clipPath id="clip0_973_50576">
<rect width="640" height="723" fill="white"/>
</clipPath>
</defs>
</svg>
