<svg width="200" height="45" viewBox="0 0 200 45" fill="none" xmlns="http://www.w3.org/2000/svg">
<g clip-path="url(#clip0_958_50471)">
<path fill-rule="evenodd" clip-rule="evenodd" d="M16 38.5C24.8366 38.5 32 31.3366 32 22.5C32 13.6634 24.8366 6.5 16 6.5C7.16344 6.5 0 13.6634 0 22.5C0 31.3366 7.16344 38.5 16 38.5ZM11.5493 16.5C11.1894 16.5 10.8362 16.5978 10.5276 16.783L8.61758 17.929C8.04928 18.27 7.31217 18.0857 6.97119 17.5174C6.63021 16.9491 6.81449 16.212 7.38279 15.871L9.29278 14.725C9.97441 14.316 10.7544 14.1 11.5493 14.1C12.5451 14.1 13.5114 14.4389 14.289 15.061L14.4164 15.1629C14.851 15.5106 15.391 15.7 15.9475 15.7H16.0529C16.6094 15.7 17.1493 15.5106 17.5839 15.163L17.7112 15.0611C18.4889 14.4389 19.4552 14.1 20.4511 14.1C21.246 14.1 22.026 14.316 22.7076 14.725L24.6176 15.871C25.1859 16.212 25.3702 16.9491 25.0292 17.5174C24.6882 18.0857 23.9511 18.27 23.3828 17.929L21.4728 16.783C21.1642 16.5978 20.811 16.5 20.4511 16.5C20.0001 16.5 19.5626 16.6535 19.2105 16.9352L19.0831 17.037C18.223 17.7251 17.1544 18.1 16.0529 18.1H15.9475C14.846 18.1 13.7773 17.7251 12.9172 17.0371L12.7898 16.9351C12.4377 16.6535 12.0002 16.5 11.5493 16.5ZM11.5493 22.1C11.1894 22.1 10.8362 22.1978 10.5276 22.383L8.61758 23.529C8.04928 23.87 7.31217 23.6857 6.97119 23.1174C6.63021 22.5491 6.81449 21.812 7.38279 21.471L9.29278 20.325C9.97441 19.916 10.7544 19.7 11.5493 19.7C12.5451 19.7 13.5114 20.0389 14.289 20.661L14.4164 20.7629C14.851 21.1106 15.391 21.3 15.9475 21.3H16.0529C16.6094 21.3 17.1493 21.1106 17.5839 20.763L17.7112 20.6611C18.4889 20.0389 19.4552 19.7 20.4511 19.7C21.246 19.7 22.026 19.916 22.7076 20.325L24.6176 21.471C25.1859 21.812 25.3702 22.5491 25.0292 23.1174C24.6882 23.6857 23.9511 23.87 23.3828 23.529L21.4728 22.383C21.1642 22.1978 20.811 22.1 20.4511 22.1C20.0001 22.1 19.5626 22.2535 19.2105 22.5352L19.0831 22.637C18.223 23.3251 17.1544 23.7 16.0529 23.7H15.9475C14.846 23.7 13.7773 23.3251 12.9172 22.6371L12.7898 22.5351C12.4377 22.2535 12.0002 22.1 11.5493 22.1ZM10.5276 27.983C10.8362 27.7978 11.1894 27.7 11.5493 27.7C12.0002 27.7 12.4377 27.8535 12.7898 28.1351L12.9172 28.2371C13.7773 28.9251 14.846 29.3 15.9475 29.3H16.0529C17.1544 29.3 18.223 28.9251 19.0831 28.237L19.2105 28.1352C19.5626 27.8535 20.0001 27.7 20.4511 27.7C20.811 27.7 21.1642 27.7978 21.4728 27.983L23.3828 29.129C23.9511 29.47 24.6882 29.2857 25.0292 28.7174C25.3702 28.1491 25.1859 27.412 24.6176 27.071L22.7076 25.925C22.026 25.516 21.246 25.3 20.4511 25.3C19.4552 25.3 18.4889 25.6389 17.7112 26.2611L17.5839 26.363C17.1493 26.7106 16.6094 26.9 16.0529 26.9H15.9475C15.391 26.9 14.851 26.7106 14.4164 26.3629L14.289 26.261C13.5114 25.6389 12.5451 25.3 11.5493 25.3C10.7544 25.3 9.97441 25.516 9.29278 25.925L7.38279 27.071C6.81449 27.412 6.63021 28.1491 6.97119 28.7174C7.31217 29.2857 8.04928 29.47 8.61758 29.129L10.5276 27.983Z" fill="#3C9DAE"/>
</g>
<path d="M53.088 12.16H68.448V26.528H53.088V23.232H64.704V15.456H53.088V12.16ZM53.408 17.728H65.792V20.928H53.408V17.728ZM61.216 25.216C62.656 30.144 65.792 33.824 71.104 35.296C70.24 36.064 69.184 37.568 68.672 38.624C62.784 36.576 59.648 32.192 57.792 25.888L61.216 25.216ZM67.328 26.752L69.76 29.28C68.096 30.624 65.824 32 64.16 32.864L62.048 30.464C63.648 29.6 65.984 27.968 67.328 26.752ZM56.8 9.376L60.384 8.512C61.088 9.856 61.856 11.712 62.144 12.896L58.368 13.888C58.144 12.704 57.472 10.784 56.8 9.376ZM50.976 39.04L50.56 35.712L52.032 34.496L59.648 32.32C59.744 33.376 60 34.848 60.224 35.68C53.056 37.952 51.808 38.464 50.976 39.04ZM50.976 39.04C50.656 38.24 49.6 36.8 48.992 36.224C49.664 35.648 50.496 34.528 50.496 32.832V12.16H54.336V34.912C54.336 34.912 50.976 37.6 50.976 39.04ZM42.464 12.128L45.056 9.792C46.624 10.912 48.768 12.608 49.792 13.792L47.04 16.384C46.112 15.168 44.096 13.376 42.464 12.128ZM40.832 20.544L43.104 17.92C44.896 18.88 47.328 20.352 48.576 21.472L46.144 24.384C45.056 23.264 42.656 21.6 40.832 20.544ZM41.536 35.808C42.912 33.344 44.8 29.344 46.24 25.632L49.376 27.872C48.096 31.264 46.528 34.88 45.024 38.016L41.536 35.808ZM84.192 23.904V25.6H88.32V23.904H84.192ZM84.192 19.84V21.472H88.32V19.84H84.192ZM81.152 17.28H91.488V28.16H81.152V17.28ZM98.752 9.952H102.144V34.592C102.144 36.288 101.92 37.376 100.928 37.984C99.904 38.592 98.592 38.72 96.576 38.72C96.48 37.728 96.064 36 95.616 35.04C96.704 35.104 97.888 35.104 98.272 35.104C98.624 35.104 98.752 34.976 98.752 34.528V9.952ZM92.832 9.952H96.192V23.04C96.192 27.968 95.744 34.816 92.896 38.976C92.32 38.4 90.88 37.312 90.112 36.928C92.64 33.152 92.832 27.488 92.832 23.04V9.952ZM94.368 9.952H100.384V13.376H94.368V9.952ZM94.368 17.248H100.288V20.672H94.368V17.248ZM80.768 12.128H91.872V15.424H80.768V12.128ZM80.256 30.112H91.968V33.504H80.256V30.112ZM94.368 24.672H100.288V28.096H94.368V24.672ZM84.64 8.96H88.128V18.432H84.64V8.96ZM84.64 27.712H88.128V38.88H84.64V27.712ZM73.664 11.424L76.16 9.184C77.76 10.304 79.84 11.968 80.8 13.152L78.144 15.68C77.28 14.464 75.264 12.64 73.664 11.424ZM72.64 19.84L74.88 17.376C76.576 18.368 78.88 19.872 80 20.992L77.6 23.712C76.576 22.624 74.336 20.96 72.64 19.84ZM73.28 36.8C74.432 34.112 76 29.792 77.152 25.792L80.16 27.68C79.168 31.328 77.888 35.296 76.672 38.624L73.28 36.8ZM119.104 27.264H130.432V29.984H119.104V27.264ZM115.872 11.008H133.824V13.76H115.872V11.008ZM116.992 15.04H132.8V17.632H116.992V15.04ZM115.136 18.976H134.848V21.728H115.136V18.976ZM119.104 31.424H130.464V34.08H119.104V31.424ZM129.472 22.976H133.088V35.232C133.088 36.896 132.8 37.824 131.616 38.336C130.496 38.88 128.896 38.912 126.688 38.912C126.528 37.952 126.08 36.544 125.632 35.648C126.944 35.712 128.48 35.712 128.896 35.68C129.312 35.68 129.472 35.552 129.472 35.168V22.976ZM122.944 8.832H126.752V19.872H122.944V8.832ZM109.568 8.768H113.12V38.816H109.568V8.768ZM106.272 15.168L109.184 15.584C108.992 18.336 108.416 22.144 107.68 24.64L104.64 23.552C105.408 21.376 106.016 17.824 106.272 15.168ZM112.288 14.176L114.784 13.056C115.584 14.656 116.576 16.8 116.992 18.048L114.368 19.392C113.984 18.08 113.056 15.84 112.288 14.176ZM116.832 22.976H120.416V28.864C120.416 32.096 119.936 36.448 117.568 39.2C117.056 38.496 115.552 37.088 114.816 36.608C116.672 34.368 116.832 31.264 116.832 28.768V22.976ZM118.912 22.976H131.424V25.664H118.912V22.976ZM150.08 12.224H161.6V15.552H150.08V12.224ZM153.408 29.44H164V32.352H153.408V29.44ZM153.248 34.496H163.872V37.632H153.248V34.496ZM148.736 18.464H167.232V21.888H148.736V18.464ZM154.464 8.864H158.272V20.576H154.464V8.864ZM152 24.224H165.504V38.656H161.664V27.392H155.68V38.784H152V24.224ZM163.424 10.304L166.912 11.2C163.776 19.808 158.016 25.728 149.792 29.152C149.536 28.288 148.704 26.496 148.128 25.632C155.584 22.88 160.832 17.792 163.424 10.304ZM144.672 22.016L147.36 21.312C148.096 23.488 148.832 26.304 149.056 28L146.208 28.928C146.016 27.168 145.376 24.224 144.672 22.016ZM141.92 30.4L144.768 29.888C145.12 32.192 145.44 35.104 145.536 37.056L142.528 37.664C142.496 35.648 142.24 32.672 141.92 30.4ZM138.176 29.952L141.28 30.464C141.024 33.44 140.512 36.64 139.808 38.656C139.104 38.272 137.632 37.792 136.864 37.568C137.6 35.648 137.984 32.672 138.176 29.952ZM137.824 21.504C137.632 20.8 137.088 19.168 136.672 18.24C137.312 18.08 137.824 17.472 138.464 16.512C139.104 15.584 140.992 12.032 142.08 8.64L145.472 9.984C144.032 13.44 141.888 17.12 139.904 19.68V19.776C139.904 19.776 137.824 20.864 137.824 21.504ZM137.824 21.504L137.728 18.88L139.296 17.856L144.832 17.472C144.64 18.4 144.48 19.744 144.448 20.48C139.52 20.96 138.464 21.216 137.824 21.504ZM138.08 28.96C137.888 28.224 137.28 26.464 136.864 25.536C137.696 25.312 138.4 24.608 139.392 23.424C140.448 22.272 143.712 17.696 145.664 13.312L148.832 15.296C146.56 19.552 143.328 23.936 140.224 27.072V27.168C140.224 27.168 138.08 28.288 138.08 28.96ZM138.08 28.96L137.92 26.208L139.488 25.152L147.232 24.224C147.072 25.184 146.976 26.528 147.008 27.264C140.032 28.256 138.816 28.576 138.08 28.96ZM145.44 29.76L148.064 28.928C148.768 30.944 149.568 33.504 149.888 35.2L147.104 36.192C146.848 34.464 146.112 31.776 145.44 29.76ZM169.44 20.128H198.592V23.936H169.44V20.128ZM183.712 12.608H195.552V16.288H183.712V12.608ZM181.056 8.832H185.152V21.952H181.056V8.832ZM181.248 22.592H185.312V38.848H181.248V22.592ZM184.672 29.472L186.656 26.464C189.824 27.68 194.848 29.632 197.376 30.848L195.232 34.272C192.864 32.992 187.968 30.848 184.672 29.472Z" fill="#3C9DAE"/>
<defs>
<clipPath id="clip0_958_50471">
<rect width="32" height="32" fill="white" transform="translate(0 6.5)"/>
</clipPath>
</defs>
</svg>
