<svg width="78" height="89" viewBox="0 0 78 89" fill="none" xmlns="http://www.w3.org/2000/svg">
<path d="M4 13.625L12.3562 9.59611C14.5224 8.5517 17.0011 8 19.5273 8C22.6921 8 25.7627 8.86551 28.2341 10.4542L28.7915 10.8125C31.6237 12.6331 35.1426 13.625 38.7695 13.625H39.2306C42.8574 13.625 46.3763 12.6331 49.2083 10.8125L49.7654 10.4544C52.2369 8.86558 55.3076 8 58.4726 8C60.9989 8 63.4776 8.55171 65.6439 9.59614L74 13.625M4 33.3125L12.3562 29.2836C14.5224 28.2392 17.0011 27.6875 19.5273 27.6875C22.6921 27.6875 25.7627 28.553 28.2341 30.1417L28.7915 30.5C31.6237 32.3206 35.1426 33.3125 38.7695 33.3125H39.2306C42.8574 33.3125 46.3763 32.3206 49.2083 30.5L49.7654 30.1419C52.2369 28.5531 55.3076 27.6875 58.4726 27.6875C60.9989 27.6875 63.4776 28.2392 65.6439 29.2836L74 33.3125M4 53L12.3562 48.9711C14.5224 47.9267 17.0011 47.375 19.5273 47.375C22.6921 47.375 25.7627 48.2405 28.2341 49.8292L28.7915 50.1875C31.6237 52.0081 35.1426 53 38.7695 53H39.2306C42.8574 53 46.3763 52.0081 49.2083 50.1875L49.7654 49.8294C52.2369 48.2406 55.3076 47.375 58.4726 47.375C60.9989 47.375 63.4776 47.9267 65.6439 48.9711L74 53" stroke="white" stroke-width="1.5" stroke-linecap="round"/>
<path d="M9.628 66.696H16.264V72.73H9.628V71.582H14.976V67.844H9.628V66.696ZM9.74 69.146H15.382V70.266H9.74V69.146ZM13.058 72.24C13.73 74.494 15.2 76.23 17.51 76.93C17.216 77.196 16.838 77.714 16.656 78.078C14.164 77.168 12.694 75.208 11.868 72.478L13.058 72.24ZM16.026 72.996L16.88 73.864C16.138 74.48 15.116 75.11 14.36 75.53L13.618 74.69C14.346 74.284 15.41 73.542 16.026 72.996ZM11.518 65.38L12.736 65.058C13.072 65.646 13.408 66.444 13.548 66.962L12.246 67.326C12.148 66.808 11.826 65.982 11.518 65.38ZM8.886 78.274L8.746 77.098L9.306 76.65L12.582 75.656C12.61 76.02 12.694 76.538 12.778 76.832C9.698 77.84 9.208 78.036 8.886 78.274ZM8.886 78.274C8.774 77.98 8.41 77.476 8.186 77.28C8.438 77.07 8.76 76.65 8.76 75.964V66.696H10.09V76.804C10.09 76.804 8.886 77.756 8.886 78.274ZM5.176 66.388L6.072 65.576C6.8 66.066 7.766 66.794 8.228 67.298L7.29 68.208C6.856 67.676 5.932 66.92 5.176 66.388ZM4.49 70.14L5.274 69.23C6.072 69.636 7.136 70.266 7.682 70.742L6.842 71.764C6.352 71.288 5.302 70.588 4.49 70.14ZM4.784 77.042C5.414 75.978 6.296 74.214 6.954 72.646L8.032 73.416C7.43 74.872 6.66 76.51 5.988 77.826L4.784 77.042ZM23.152 71.61V72.576H25.336V71.61H23.152ZM23.152 69.79V70.728H25.336V69.79H23.152ZM22.074 68.866H26.442V73.486H22.074V68.866ZM29.914 65.702H31.09V76.636C31.09 77.28 30.992 77.672 30.6 77.882C30.194 78.092 29.62 78.134 28.738 78.134C28.696 77.798 28.542 77.196 28.388 76.86C28.948 76.888 29.508 76.874 29.676 76.874C29.858 76.874 29.914 76.818 29.914 76.608V65.702ZM27.226 65.702H28.402V71.358C28.402 73.486 28.206 76.398 26.89 78.218C26.694 78.008 26.19 77.644 25.924 77.504C27.128 75.81 27.226 73.318 27.226 71.358V65.702ZM27.758 65.702H30.502V66.892H27.758V65.702ZM27.758 68.936H30.474V70.126H27.758V68.936ZM21.85 66.71H26.694V67.858H21.85V66.71ZM21.598 74.536H26.736V75.712H21.598V74.536ZM27.758 72.226H30.474V73.416H27.758V72.226ZM23.656 65.226H24.874V69.286H23.656V65.226ZM23.656 73.262H24.874V78.176H23.656V73.262ZM18.84 66.164L19.694 65.38C20.408 65.856 21.318 66.542 21.752 67.032L20.842 67.928C20.436 67.424 19.554 66.668 18.84 66.164ZM18.378 69.916L19.162 69.062C19.89 69.482 20.856 70.112 21.332 70.574L20.506 71.526C20.058 71.064 19.12 70.378 18.378 69.916ZM18.672 77.42C19.204 76.258 19.932 74.354 20.436 72.66L21.486 73.318C21.024 74.886 20.408 76.664 19.848 78.064L18.672 77.42ZM38.454 73.234H43.69V74.2H38.454V73.234ZM37.18 66.22H44.992V67.2H37.18V66.22ZM37.614 67.956H44.586V68.88H37.614V67.956ZM36.83 69.678H45.426V70.658H36.83V69.678ZM38.454 75.068H43.718V76.034H38.454V75.068ZM43.354 71.358H44.6V76.846C44.6 77.462 44.488 77.798 44.04 77.98C43.606 78.162 42.948 78.176 41.968 78.176C41.912 77.854 41.744 77.364 41.59 77.042C42.248 77.07 42.92 77.07 43.102 77.056C43.284 77.056 43.354 77 43.354 76.832V71.358ZM40.414 65.184H41.73V70H40.414V65.184ZM34.492 65.17H35.724V78.148H34.492V65.17ZM33.05 67.914L34.086 68.068C34.002 69.216 33.75 70.854 33.414 71.932L32.35 71.554C32.686 70.602 32.952 69.048 33.05 67.914ZM35.612 67.522L36.494 67.13C36.844 67.816 37.25 68.726 37.418 69.258L36.494 69.734C36.34 69.174 35.948 68.222 35.612 67.522ZM37.684 71.358H38.93V73.948C38.93 75.292 38.734 77.126 37.768 78.33C37.586 78.078 37.082 77.602 36.816 77.434C37.6 76.412 37.684 75.012 37.684 73.92V71.358ZM38.398 71.358H44.04V72.31H38.398V71.358ZM52.244 66.78H57.284V67.942H52.244V66.78ZM53.602 74.228H58.278V75.25H53.602V74.228ZM53.546 76.496H58.236V77.602H53.546V76.496ZM51.6 69.496H59.566V70.686H51.6V69.496ZM54.302 65.198H55.618V70.224H54.302V65.198ZM53.098 71.918H58.81V78.078H57.48V73.024H54.372V78.134H53.098V71.918ZM58.18 65.898L59.384 66.22C57.942 69.776 55.394 72.296 51.992 73.808C51.894 73.514 51.586 72.912 51.376 72.618C54.554 71.33 56.92 69.062 58.18 65.898ZM49.878 70.826L50.844 70.574C51.18 71.54 51.516 72.786 51.614 73.528L50.606 73.85C50.508 73.08 50.2 71.792 49.878 70.826ZM48.618 74.452L49.626 74.27C49.78 75.264 49.934 76.524 49.976 77.378L48.926 77.588C48.898 76.72 48.772 75.432 48.618 74.452ZM47.078 74.298L48.17 74.48C48.03 75.754 47.778 77.112 47.484 77.994C47.232 77.868 46.714 77.7 46.434 77.616C46.77 76.762 46.966 75.474 47.078 74.298ZM46.798 70.56C46.742 70.308 46.546 69.72 46.392 69.398C46.658 69.342 46.896 69.062 47.176 68.628C47.47 68.222 48.366 66.64 48.898 65.128L50.088 65.604C49.416 67.158 48.464 68.768 47.568 69.902V69.93C47.568 69.93 46.798 70.322 46.798 70.56ZM46.798 70.56L46.77 69.622L47.358 69.258L49.794 69.062C49.724 69.384 49.668 69.86 49.668 70.112C47.47 70.35 47.05 70.448 46.798 70.56ZM46.91 73.752C46.84 73.5 46.63 72.884 46.476 72.562C46.812 72.478 47.12 72.142 47.554 71.624C48.002 71.12 49.444 69.132 50.326 67.228L51.446 67.914C50.41 69.79 49.024 71.722 47.694 73.094V73.122C47.694 73.122 46.91 73.514 46.91 73.752ZM46.91 73.752L46.854 72.786L47.442 72.408L50.886 71.974C50.83 72.31 50.802 72.772 50.816 73.038C47.68 73.486 47.204 73.612 46.91 73.752ZM50.088 74.172L51.026 73.878C51.334 74.746 51.684 75.852 51.824 76.594L50.844 76.93C50.718 76.188 50.396 75.04 50.088 74.172ZM60.686 70.252H73.328V71.568H60.686V70.252ZM66.832 67.032H71.942V68.306H66.832V67.032ZM65.95 65.184H67.35V70.882H65.95V65.184ZM66.006 71.12H67.406V78.176H66.006V71.12ZM67.392 73.92L68.078 72.898C69.506 73.444 71.648 74.298 72.74 74.83L71.998 76.006C70.962 75.46 68.862 74.522 67.392 73.92Z" fill="white"/>
</svg>
